//Event file generated from Sappy .s format.
	#include "MPlayDef.event"

	#define	song33_grp  voicegroup000
	#define	song33_pri  0
	#define	song33_rev  0
	#define	song33_mvl  127
	#define	song33_key  0
	#define	song33_tbs  1
	#define	song33_exg  0
	#define	song33_cmp  1

	// .rodata
	//	song33
	ALIGN 4


//**************** Track 1 (Midi-Chn.0) ****************//

song33_001:
//  #01 //000   ----------------------------------------
 BYTE   KEYSH   song33_key+0
 BYTE   TEMPO   134*song33_tbs/2
 BYTE   VOICE   80
 BYTE   MODT 0
 BYTE   LFOS 44
 BYTE   VOL   0*song33_mvl/mxv
 BYTE   PAN   c_v+0
 BYTE   VOL   0*song33_mvl/mxv
 BYTE   BENDR  98
 BYTE   TIE  An1  v127
 BYTE   TIE  En2  v092
 BYTE   VOL   25*song33_mvl/mxv
 BYTE   W03
 BYTE   VOL   25*song33_mvl/mxv
 BYTE   W06
 BYTE   VOL   26*song33_mvl/mxv
 BYTE   W06
 BYTE   VOL   27*song33_mvl/mxv
 BYTE   W06
 BYTE   VOL   27*song33_mvl/mxv
 BYTE   W06
 BYTE   VOL   28*song33_mvl/mxv
 BYTE   W06
 BYTE   VOL   29*song33_mvl/mxv
 BYTE   W06
 BYTE   VOL   30*song33_mvl/mxv
 BYTE   W03
 BYTE   VOL   31*song33_mvl/mxv
 BYTE   W06
 BYTE   VOL   32*song33_mvl/mxv
 BYTE   W48
//  #01 //001   ----------------------------------------
 BYTE   W96
//  #01 //002   ----------------------------------------
 BYTE   W96
//  #01 //003   ----------------------------------------
 BYTE   W96
//  #01 //004   ----------------------------------------
 BYTE   W96
//  #01 //005   ----------------------------------------
 BYTE   W92
 BYTE   EOT
 BYTE   W02
 BYTE   EOT
 BYTE   An1
 BYTE   W02
//  #01 //006   ----------------------------------------
Label_01189154:
 BYTE   VOL   22*song33_mvl/mxv
 BYTE   TIE  An1  v064
 BYTE   W96
//  #01 //007   ----------------------------------------
 BYTE   W90
 BYTE   EOT
 BYTE   W06
//  #01 //008   ----------------------------------------
 BYTE   TIE
 BYTE   W96
//  #01 //009   ----------------------------------------
 BYTE   W42
 BYTE   EOT
 BYTE   W06
 BYTE   N06  Gn1  v052
 BYTE   W08
 BYTE   An1
 BYTE   W08
 BYTE   Bn1
 BYTE   W08
 BYTE   N14  An1
 BYTE   W24
//  #01 //010   ----------------------------------------
 BYTE   TIE  An1  v064
 BYTE   W96
//  #01 //011   ----------------------------------------
 BYTE   W90
 BYTE   EOT
 BYTE   W06
//  #01 //012   ----------------------------------------
 BYTE   TIE
 BYTE   W96
//  #01 //013   ----------------------------------------
 BYTE   W42
 BYTE   EOT
 BYTE   W06
 BYTE   N06  Gn1  v052
 BYTE   W08
 BYTE   An1
 BYTE   W08
 BYTE   Bn1
 BYTE   W08
 BYTE   N14  An1
 BYTE   W24
//  #01 //014   ----------------------------------------
 BYTE   N92  An1  v048
 BYTE   W96
//  #01 //015   ----------------------------------------
 BYTE   Dn1  v072
 BYTE   W96
//  #01 //016   ----------------------------------------
 BYTE   An1
 BYTE   W96
//  #01 //017   ----------------------------------------
 BYTE   N96  Dn1
 BYTE   W96
//  #01 //018   ----------------------------------------
Label_01189190:
 BYTE   W01
 BYTE   N92  An1  v072
 BYTE   W92
 BYTE   W03
 BYTE   PEND 
//  #01 //019   ----------------------------------------
Label_01189197:
 BYTE   W01
 BYTE   N92  Dn1  v072
 BYTE   W92
 BYTE   W03
 BYTE   PEND 
//  #01 //020   ----------------------------------------
 BYTE   An1
 BYTE   W96
//  #01 //021   ----------------------------------------
Label_011891A0:
 BYTE   N92  Dn1  v072
 BYTE   W92
 BYTE   W03
 BYTE   N08  Gn1  v096
 BYTE   W01
 BYTE   PEND 
//  #01 //022   ----------------------------------------
Label_011891AA:
 BYTE   W16
 BYTE   N08  Gn1  v068
 BYTE   W08
 BYTE   Gn1  v088
 BYTE   W08
 BYTE   Gn1  v068
 BYTE   W08
 BYTE   Gn1  v076
 BYTE   W08
 BYTE   Gn1  v096
 BYTE   W17
 BYTE   Gn1  v068
 BYTE   W08
 BYTE   Gn1  v088
 BYTE   W08
 BYTE   Gn1  v068
 BYTE   W08
 BYTE   N07  Gn1  v076
 BYTE   W07
 BYTE   PEND 
//  #01 //023   ----------------------------------------
Label_011891C9:
 BYTE   N01  Gn1  v096
 BYTE   W17
 BYTE   N08  Gn1  v068
 BYTE   W08
 BYTE   Gn1  v088
 BYTE   W08
 BYTE   Gn1  v068
 BYTE   W08
 BYTE   Gn1  v076
 BYTE   W08
 BYTE   Gn1  v096
 BYTE   W17
 BYTE   Gn1  v068
 BYTE   W08
 BYTE   Gn1  v088
 BYTE   W08
 BYTE   Gn1  v068
 BYTE   W08
 BYTE   N06  Gn1  v076
 BYTE   W06
 BYTE   PEND 
//  #01 //024   ----------------------------------------
Label_011891EB:
 BYTE   N02  Gn1  v096
 BYTE   W16
 BYTE   N08  Gn1  v068
 BYTE   W08
 BYTE   Gn1  v088
 BYTE   W08
 BYTE   Gn1  v068
 BYTE   W08
 BYTE   N07  Gn1  v076
 BYTE   W08
 BYTE   N01  Gn1  v096
 BYTE   W16
 BYTE   N08  Gn1  v068
 BYTE   W08
 BYTE   Gn1  v088
 BYTE   W08
 BYTE   Gn1  v068
 BYTE   W08
 BYTE   N07  Gn1  v076
 BYTE   W08
 BYTE   PEND 
//  #01 //025   ----------------------------------------
Label_01189210:
 BYTE   N01  Gn1  v096
 BYTE   W16
 BYTE   N08  Gn1  v068
 BYTE   W08
 BYTE   Gn1  v088
 BYTE   W08
 BYTE   Gn1  v068
 BYTE   W08
 BYTE   N07  Gn1  v076
 BYTE   W08
 BYTE   N01  Gn1  v096
 BYTE   W08
 BYTE   N08  Gn1  v076
 BYTE   W08
 BYTE   N07  Gn1  v068
 BYTE   W08
 BYTE   N01  Gn1  v084
 BYTE   W24
 BYTE   PEND 
//  #01 //026   ----------------------------------------
Label_01189233:
 BYTE   N08  Gn1  v096
 BYTE   W17
 BYTE   Gn1  v068
 BYTE   W08
 BYTE   Gn1  v088
 BYTE   W08
 BYTE   Gn1  v068
 BYTE   W08
 BYTE   Gn1  v076
 BYTE   W08
 BYTE   Gn1  v096
 BYTE   W17
 BYTE   Gn1  v068
 BYTE   W08
 BYTE   Gn1  v088
 BYTE   W08
 BYTE   Gn1  v068
 BYTE   W08
 BYTE   N07  Gn1  v076
 BYTE   W06
 BYTE   PEND 
//  #01 //027   ----------------------------------------
Label_01189254:
 BYTE   W01
 BYTE   N01  Gn1  v096
 BYTE   W17
 BYTE   N08  Gn1  v068
 BYTE   W08
 BYTE   Gn1  v088
 BYTE   W08
 BYTE   Gn1  v068
 BYTE   W08
 BYTE   Gn1  v076
 BYTE   W08
 BYTE   Gn1  v096
 BYTE   W16
 BYTE   Gn1  v068
 BYTE   W08
 BYTE   Gn1  v088
 BYTE   W08
 BYTE   Gn1  v068
 BYTE   W08
 BYTE   N06  Gn1  v076
 BYTE   W06
 BYTE   PEND 
//  #01 //028   ----------------------------------------
Label_01189277:
 BYTE   N02  Gn1  v096
 BYTE   W17
 BYTE   N08  Gn1  v068
 BYTE   W08
 BYTE   Gn1  v088
 BYTE   W08
 BYTE   Gn1  v068
 BYTE   W08
 BYTE   N07  Gn1  v076
 BYTE   W07
 BYTE   N01  Gn1  v096
 BYTE   W17
 BYTE   N08  Gn1  v068
 BYTE   W08
 BYTE   Gn1  v088
 BYTE   W08
 BYTE   Gn1  v068
 BYTE   W08
 BYTE   N07  Gn1  v076
 BYTE   W07
 BYTE   PEND 
//  #01 //029   ----------------------------------------
Label_0118929C:
 BYTE   N01  Gn1  v096
 BYTE   W17
 BYTE   N08  Gn1  v068
 BYTE   W08
 BYTE   Gn1  v088
 BYTE   W08
 BYTE   Gn1  v068
 BYTE   W08
 BYTE   N07  Gn1  v076
 BYTE   W07
 BYTE   N01  Gn1  v096
 BYTE   W09
 BYTE   N08  Gn1  v076
 BYTE   W08
 BYTE   N07  Gn1  v068
 BYTE   W08
 BYTE   N01  Gn1  v084
 BYTE   W23
 BYTE   PEND 
//  #01 //030   ----------------------------------------
 BYTE   TIE  An1  v064
 BYTE   W96
//  #01 //031   ----------------------------------------
 BYTE   W90
 BYTE   EOT
 BYTE   W06
//  #01 //032   ----------------------------------------
 BYTE   TIE
 BYTE   W96
//  #01 //033   ----------------------------------------
 BYTE   W42
 BYTE   EOT
 BYTE   W06
 BYTE   N06  Gn1  v052
 BYTE   W08
 BYTE   An1
 BYTE   W08
 BYTE   Bn1
 BYTE   W08
 BYTE   N14  An1
 BYTE   W24
//  #01 //034   ----------------------------------------
 BYTE   TIE  An1  v064
 BYTE   W96
//  #01 //035   ----------------------------------------
 BYTE   W90
 BYTE   EOT
 BYTE   W06
//  #01 //036   ----------------------------------------
 BYTE   TIE
 BYTE   W96
//  #01 //037   ----------------------------------------
 BYTE   W42
 BYTE   EOT
 BYTE   W06
 BYTE   N06  Gn1  v052
 BYTE   W08
 BYTE   An1
 BYTE   W08
 BYTE   Bn1
 BYTE   W08
 BYTE   N14  An1
 BYTE   W24
//  #01 //038   ----------------------------------------
 BYTE   N92  An1  v048
 BYTE   W96
//  #01 //039   ----------------------------------------
 BYTE   Dn1  v072
 BYTE   W96
//  #01 //040   ----------------------------------------
 BYTE   An1
 BYTE   W96
//  #01 //041   ----------------------------------------
 BYTE   N96  Dn1
 BYTE   W96
//  #01 //042   ----------------------------------------
 BYTE   PATT
  POIN2 Label_01189190
//  #01 //043   ----------------------------------------
 BYTE   PATT
  POIN2 Label_01189197
//  #01 //044   ----------------------------------------
 BYTE   N92  An1  v072
 BYTE   W96
//  #01 //045   ----------------------------------------
 BYTE   PATT
  POIN2 Label_011891A0
//  #01 //046   ----------------------------------------
 BYTE   PATT
  POIN2 Label_011891AA
//  #01 //047   ----------------------------------------
 BYTE   PATT
  POIN2 Label_011891C9
//  #01 //048   ----------------------------------------
 BYTE   PATT
  POIN2 Label_011891EB
//  #01 //049   ----------------------------------------
 BYTE   PATT
  POIN2 Label_01189210
//  #01 //050   ----------------------------------------
 BYTE   PATT
  POIN2 Label_01189233
//  #01 //051   ----------------------------------------
 BYTE   PATT
  POIN2 Label_01189254
//  #01 //052   ----------------------------------------
 BYTE   PATT
  POIN2 Label_01189277
//  #01 //053   ----------------------------------------
 BYTE   PATT
  POIN2 Label_0118929C
//  #01 //054   ----------------------------------------
 BYTE   GoTo
  POIN2 Label_01189154
//  #01 //055   ----------------------------------------
 BYTE   TIE  An1  v064
 BYTE   W96
//  #01 //056   ----------------------------------------
 BYTE   W90
 BYTE   EOT
 BYTE   W06
//  #01 //057   ----------------------------------------
 BYTE   TIE
 BYTE   W96
//  #01 //058   ----------------------------------------
 BYTE   VOL   20*song33_mvl/mxv
 BYTE   W03
 BYTE   VOL   19*song33_mvl/mxv
 BYTE   W09
 BYTE   VOL   18*song33_mvl/mxv
 BYTE   W12
 BYTE   VOL   17*song33_mvl/mxv
 BYTE   W12
 BYTE   VOL   17*song33_mvl/mxv
 BYTE   W06
 BYTE   EOT
 BYTE   W06
 BYTE   VOL   16*song33_mvl/mxv
 BYTE   N06  Gn1  v052
 BYTE   W08
 BYTE   An1
 BYTE   W04
 BYTE   VOL   15*song33_mvl/mxv
 BYTE   W05
 BYTE   N06  Bn1
 BYTE   W04
 BYTE   VOL   15*song33_mvl/mxv
 BYTE   W03
 BYTE   N14  An1
 BYTE   W09
 BYTE   VOL   14*song33_mvl/mxv
 BYTE   W12
 BYTE   VOL   14*song33_mvl/mxv
 BYTE   W03
//  #01 //059   ----------------------------------------
 BYTE   TIE  An1  v064
 BYTE   W09
 BYTE   VOL   13*song33_mvl/mxv
 BYTE   W12
 BYTE   VOL   12*song33_mvl/mxv
 BYTE   W09
 BYTE   VOL   11*song33_mvl/mxv
 BYTE   W12
 BYTE   VOL   10*song33_mvl/mxv
 BYTE   W12
 BYTE   VOL   10*song33_mvl/mxv
 BYTE   W12
 BYTE   VOL   9*song33_mvl/mxv
 BYTE   W12
 BYTE   VOL   9*song33_mvl/mxv
 BYTE   W09
 BYTE   VOL   8*song33_mvl/mxv
 BYTE   W09
//  #01 //060   ----------------------------------------
 BYTE   W03
 BYTE   VOL   8*song33_mvl/mxv
 BYTE   W12
 BYTE   VOL   7*song33_mvl/mxv
 BYTE   W12
 BYTE   VOL   7*song33_mvl/mxv
 BYTE   W12
 BYTE   VOL   6*song33_mvl/mxv
 BYTE   W12
 BYTE   VOL   6*song33_mvl/mxv
 BYTE   W09
 BYTE   VOL   5*song33_mvl/mxv
 BYTE   W12
 BYTE   VOL   5*song33_mvl/mxv
 BYTE   W12
 BYTE   VOL   4*song33_mvl/mxv
 BYTE   W06
 BYTE   EOT
 BYTE   W06
//  #01 //061   ----------------------------------------
 BYTE   VOL   4*song33_mvl/mxv
 BYTE   TIE
 BYTE   W12
 BYTE   VOL   3*song33_mvl/mxv
 BYTE   W09
 BYTE   VOL   3*song33_mvl/mxv
 BYTE   W12
 BYTE   VOL   3*song33_mvl/mxv
 BYTE   W12
 BYTE   VOL   2*song33_mvl/mxv
 BYTE   W12
 BYTE   VOL   2*song33_mvl/mxv
 BYTE   W12
 BYTE   VOL   1*song33_mvl/mxv
 BYTE   W09
 BYTE   VOL   1*song33_mvl/mxv
 BYTE   W12
 BYTE   VOL   1*song33_mvl/mxv
 BYTE   W06
//  #01 //062   ----------------------------------------
 BYTE   W06
 BYTE   VOL   1*song33_mvl/mxv
 BYTE   W12
 BYTE   VOL   0*song33_mvl/mxv
 BYTE   W12
 BYTE   VOL   0*song33_mvl/mxv
 BYTE   W09
 BYTE   VOL   0*song33_mvl/mxv
 BYTE   W03
 BYTE   EOT
 BYTE   W06
 BYTE   N06  Gn1  v052
 BYTE   W03
 BYTE   VOL   0*song33_mvl/mxv
 BYTE   W05
 BYTE   N06  An1
 BYTE   W07
 BYTE   VOL   0*song33_mvl/mxv
 BYTE   W01
 BYTE   N06  Bn1
 BYTE   W08
 BYTE   N14  An1
 BYTE   W03
 BYTE   VOL   0*song33_mvl/mxv
 BYTE   W12
 BYTE   VOL   0*song33_mvl/mxv
 BYTE   W09
//  #01 //063   ----------------------------------------
 BYTE   VOL   0*song33_mvl/mxv
 BYTE   FINE

//**************** Track 2 (Midi-Chn.1) ****************//

song33_002:
//  #02 //000   ----------------------------------------
 BYTE   KEYSH   song33_key+0
 BYTE   VOICE   116
 BYTE   MODT 0
 BYTE   LFOS 44
 BYTE   PAN   c_v+26
 BYTE   VOL   30*song33_mvl/mxv
 BYTE   W96
//  #02 //001   ----------------------------------------
 BYTE   W96
//  #02 //002   ----------------------------------------
 BYTE   N06  As1  v116
 BYTE   W15
 BYTE   Fs1
 BYTE   W08
 BYTE   Fs1  v080
 BYTE   W09
 BYTE   Fs1  v092
 BYTE   W08
 BYTE   Fs1  v088
 BYTE   W08
 BYTE   N09  As1  v116
 BYTE   W15
 BYTE   N04  Fs1  v072
 BYTE   W08
 BYTE   N06  Fs1  v080
 BYTE   W09
 BYTE   Fs1  v092
 BYTE   W08
 BYTE   Fs1  v088
 BYTE   W08
//  #02 //003   ----------------------------------------
 BYTE   N09  As1  v116
 BYTE   W16
 BYTE   N04  Fs1  v072
 BYTE   W07
 BYTE   N06  Fs1  v080
 BYTE   W09
 BYTE   Fs1  v092
 BYTE   W08
 BYTE   Fs1  v088
 BYTE   W08
 BYTE   N09  As1  v116
 BYTE   W15
 BYTE   N04  Fs1  v072
 BYTE   W09
 BYTE   N06  Fs1  v116
 BYTE   W08
 BYTE   N06
 BYTE   W08
 BYTE   N01  As1
 BYTE   W01
 BYTE   N01
 BYTE   W03
 BYTE   N02
 BYTE   W04
//  #02 //004   ----------------------------------------
 BYTE   N09
 BYTE   W15
 BYTE   N04  Fs1  v072
 BYTE   W09
 BYTE   N06  Fs1  v080
 BYTE   W08
 BYTE   Fs1  v092
 BYTE   W08
 BYTE   Fs1  v088
 BYTE   W08
 BYTE   N09  As1  v116
 BYTE   W16
 BYTE   N04  Fs1  v072
 BYTE   W08
 BYTE   N06  Fs1  v080
 BYTE   W08
 BYTE   Fs1  v092
 BYTE   W08
 BYTE   Fs1  v088
 BYTE   W08
//  #02 //005   ----------------------------------------
 BYTE   As1  v127
 BYTE   W15
 BYTE   Fs1  v080
 BYTE   W09
 BYTE   Fs1  v084
 BYTE   W08
 BYTE   Fs1  v088
 BYTE   W08
 BYTE   N01  As1  v076
 BYTE   W03
 BYTE   As1  v084
 BYTE   W03
 BYTE   As1  v100
 BYTE   W02
 BYTE   N05  As1  v127
 BYTE   W08
 BYTE   N06  Fs1  v068
 BYTE   W08
 BYTE   Fs1  v084
 BYTE   W08
 BYTE   As1  v116
 BYTE   W16
 BYTE   Fs1  v080
 BYTE   W08
//  #02 //006   ----------------------------------------
Label_0118994B:
 BYTE   N06  As1  v116
 BYTE   W15
 BYTE   N06
 BYTE   W08
 BYTE   Fs1  v064
 BYTE   W09
 BYTE   Fs1  v076
 BYTE   W08
 BYTE   Fs1  v080
 BYTE   W08
 BYTE   N09  As1  v116
 BYTE   W15
 BYTE   N07  As1  v100
 BYTE   W08
 BYTE   N06  Fs1  v068
 BYTE   W09
 BYTE   Fs1  v076
 BYTE   W08
 BYTE   Fs1  v084
 BYTE   W08
 BYTE   PEND 
//  #02 //007   ----------------------------------------
Label_0118996D:
 BYTE   N09  As1  v116
 BYTE   W16
 BYTE   N06  As1  v108
 BYTE   W07
 BYTE   Fs1  v080
 BYTE   W09
 BYTE   Fs1  v092
 BYTE   W08
 BYTE   Fs1  v088
 BYTE   W08
 BYTE   N08  As1  v108
 BYTE   W08
 BYTE   As1  v080
 BYTE   W08
 BYTE   As1  v092
 BYTE   W08
 BYTE   N07  Fs1  v108
 BYTE   W08
 BYTE   N01  Fs1  v080
 BYTE   W08
 BYTE   N08  Fs1  v088
 BYTE   W08
 BYTE   PEND 
//  #02 //008   ----------------------------------------
Label_01189995:
 BYTE   N09  As1  v116
 BYTE   W15
 BYTE   N06  As1  v104
 BYTE   W09
 BYTE   Fs1  v068
 BYTE   W08
 BYTE   Fs1  v080
 BYTE   W08
 BYTE   Fs1  v092
 BYTE   W08
 BYTE   N09  As1  v116
 BYTE   W16
 BYTE   N05  As1  v108
 BYTE   W08
 BYTE   N06  Fs1  v056
 BYTE   W08
 BYTE   Fs1  v076
 BYTE   W08
 BYTE   Fs1  v088
 BYTE   W08
 BYTE   PEND 
//  #02 //009   ----------------------------------------
Label_011899B9:
 BYTE   N06  As1  v127
 BYTE   W15
 BYTE   As1  v108
 BYTE   W09
 BYTE   Fs1  v084
 BYTE   W08
 BYTE   N08  As1  v092
 BYTE   W08
 BYTE   Fs1  v076
 BYTE   W08
 BYTE   Fs1  v100
 BYTE   W08
 BYTE   N07  As1  v084
 BYTE   W08
 BYTE   N08  Fs1
 BYTE   W08
 BYTE   As1  v116
 BYTE   W24
 BYTE   PEND 
//  #02 //010   ----------------------------------------
 BYTE   PATT
  POIN2 Label_0118994B
//  #02 //011   ----------------------------------------
 BYTE   PATT
  POIN2 Label_0118996D
//  #02 //012   ----------------------------------------
 BYTE   PATT
  POIN2 Label_01189995
//  #02 //013   ----------------------------------------
 BYTE   PATT
  POIN2 Label_011899B9
//  #02 //014   ----------------------------------------
Label_011899EC:
 BYTE   N08  Bn1  v112
 BYTE   W16
 BYTE   Fs1  v072
 BYTE   W08
 BYTE   Bn1  v092
 BYTE   W08
 BYTE   Fs1  v072
 BYTE   W08
 BYTE   Fs1  v084
 BYTE   W08
 BYTE   Bn1  v112
 BYTE   W15
 BYTE   Fs1  v072
 BYTE   W09
 BYTE   Bn1  v092
 BYTE   W07
 BYTE   Fs1  v072
 BYTE   W08
 BYTE   Fs1  v084
 BYTE   W09
 BYTE   PEND 
//  #02 //015   ----------------------------------------
Label_01189A0C:
 BYTE   N08  Bn1  v112
 BYTE   W15
 BYTE   Fs1  v072
 BYTE   W08
 BYTE   Bn1  v092
 BYTE   W08
 BYTE   Fs1  v072
 BYTE   W08
 BYTE   Fs1  v084
 BYTE   W09
 BYTE   Bn1  v092
 BYTE   W09
 BYTE   Fs1  v072
 BYTE   W06
 BYTE   Bn1  v100
 BYTE   W09
 BYTE   Fs1  v072
 BYTE   W09
 BYTE   Bn1  v088
 BYTE   W07
 BYTE   Fs1  v072
 BYTE   W08
 BYTE   PEND 
//  #02 //016   ----------------------------------------
Label_01189A2F:
 BYTE   N08  Bn1  v112
 BYTE   W15
 BYTE   Fs1  v072
 BYTE   W08
 BYTE   Bn1  v092
 BYTE   W08
 BYTE   Fs1  v072
 BYTE   W08
 BYTE   Fs1  v084
 BYTE   W10
 BYTE   Bn1  v112
 BYTE   W15
 BYTE   Fs1  v072
 BYTE   W08
 BYTE   Bn1  v092
 BYTE   W08
 BYTE   Fs1  v072
 BYTE   W08
 BYTE   Fs1  v084
 BYTE   W08
 BYTE   PEND 
//  #02 //017   ----------------------------------------
Label_01189A4F:
 BYTE   N08  Bn1  v112
 BYTE   W15
 BYTE   Fs1  v072
 BYTE   W09
 BYTE   Bn1  v092
 BYTE   W07
 BYTE   Fs1  v072
 BYTE   W08
 BYTE   Fs1  v084
 BYTE   W09
 BYTE   Bn1  v108
 BYTE   W08
 BYTE   Fs1  v076
 BYTE   W08
 BYTE   Fs1  v080
 BYTE   W08
 BYTE   N10  Bn1  v108
 BYTE   W24
 BYTE   PEND 
//  #02 //018   ----------------------------------------
 BYTE   PATT
  POIN2 Label_011899EC
//  #02 //019   ----------------------------------------
 BYTE   PATT
  POIN2 Label_01189A0C
//  #02 //020   ----------------------------------------
 BYTE   PATT
  POIN2 Label_01189A2F
//  #02 //021   ----------------------------------------
 BYTE   PATT
  POIN2 Label_01189A4F
//  #02 //022   ----------------------------------------
Label_01189A81:
 BYTE   N08  Bn1  v096
 BYTE   W16
 BYTE   Bn1  v076
 BYTE   W16
 BYTE   N07  Fs1  v068
 BYTE   W08
 BYTE   N01  Fs1  v052
 BYTE   W08
 BYTE   N08  Bn1  v096
 BYTE   W16
 BYTE   Bn1  v076
 BYTE   W16
 BYTE   N07  Fs1  v068
 BYTE   W08
 BYTE   N01  Fs1  v052
 BYTE   W08
 BYTE   PEND 
//  #02 //023   ----------------------------------------
Label_01189AA0:
 BYTE   N08  Bn1  v096
 BYTE   W16
 BYTE   Bn1  v076
 BYTE   W16
 BYTE   N07  Fs1  v068
 BYTE   W08
 BYTE   N01  Fs1  v052
 BYTE   W08
 BYTE   N08  Bn1  v096
 BYTE   W15
 BYTE   Bn1  v076
 BYTE   W17
 BYTE   N07  Fs1  v068
 BYTE   W08
 BYTE   N01  Fs1  v052
 BYTE   W08
 BYTE   PEND 
//  #02 //024   ----------------------------------------
Label_01189ABF:
 BYTE   N08  Bn1  v096
 BYTE   W15
 BYTE   Bn1  v076
 BYTE   W17
 BYTE   N07  Fs1  v068
 BYTE   W08
 BYTE   N01  Fs1  v052
 BYTE   W07
 BYTE   N08  Bn1  v096
 BYTE   W16
 BYTE   Bn1  v076
 BYTE   W17
 BYTE   N07  Fs1  v068
 BYTE   W07
 BYTE   N01  Fs1  v052
 BYTE   W09
 BYTE   PEND 
//  #02 //025   ----------------------------------------
Label_01189ADE:
 BYTE   N08  Bn1  v096
 BYTE   W15
 BYTE   Bn1  v076
 BYTE   W17
 BYTE   N07  Fs1  v068
 BYTE   W08
 BYTE   N01  Fs1  v052
 BYTE   W07
 BYTE   N08  Bn1  v096
 BYTE   W16
 BYTE   Fs1  v076
 BYTE   W09
 BYTE   Bn1  v068
 BYTE   W24
 BYTE   PEND 
//  #02 //026   ----------------------------------------
Label_01189AF8:
 BYTE   N08  Bn1  v096
 BYTE   W15
 BYTE   Bn1  v076
 BYTE   W17
 BYTE   N07  Fs1  v068
 BYTE   W08
 BYTE   N01  Fs1  v052
 BYTE   W08
 BYTE   N08  Bn1  v096
 BYTE   W16
 BYTE   Bn1  v076
 BYTE   W16
 BYTE   N07  Fs1  v068
 BYTE   W08
 BYTE   N01  Fs1  v052
 BYTE   W08
 BYTE   PEND 
//  #02 //027   ----------------------------------------
Label_01189B17:
 BYTE   N08  Bn1  v096
 BYTE   W15
 BYTE   Bn1  v076
 BYTE   W17
 BYTE   N07  Fs1  v068
 BYTE   W08
 BYTE   N01  Fs1  v052
 BYTE   W07
 BYTE   N08  Bn1  v096
 BYTE   W16
 BYTE   Bn1  v076
 BYTE   W17
 BYTE   N07  Fs1  v068
 BYTE   W07
 BYTE   N01  Fs1  v052
 BYTE   W08
 BYTE   N08  Bn1  v096
 BYTE   W01
 BYTE   PEND 
//  #02 //028   ----------------------------------------
Label_01189B3A:
 BYTE   W15
 BYTE   N08  Bn1  v076
 BYTE   W17
 BYTE   N07  Fs1  v068
 BYTE   W07
 BYTE   N01  Fs1  v052
 BYTE   W08
 BYTE   N08  Bn1  v096
 BYTE   W15
 BYTE   Bn1  v076
 BYTE   W17
 BYTE   N07  Fs1  v068
 BYTE   W08
 BYTE   N01  Fs1  v052
 BYTE   W08
 BYTE   N08  Bn1  v096
 BYTE   W01
 BYTE   PEND 
//  #02 //029   ----------------------------------------
Label_01189B5B:
 BYTE   W15
 BYTE   N08  Bn1  v076
 BYTE   W17
 BYTE   N07  Fs1  v068
 BYTE   W07
 BYTE   N01  Fs1  v052
 BYTE   W08
 BYTE   N08  Bn1  v096
 BYTE   W15
 BYTE   Fs1  v076
 BYTE   W09
 BYTE   Bn1  v068
 BYTE   W24
 BYTE   W01
 BYTE   PEND 
//  #02 //030   ----------------------------------------
 BYTE   PATT
  POIN2 Label_0118994B
//  #02 //031   ----------------------------------------
 BYTE   PATT
  POIN2 Label_0118996D
//  #02 //032   ----------------------------------------
 BYTE   PATT
  POIN2 Label_01189995
//  #02 //033   ----------------------------------------
 BYTE   PATT
  POIN2 Label_011899B9
//  #02 //034   ----------------------------------------
 BYTE   PATT
  POIN2 Label_0118994B
//  #02 //035   ----------------------------------------
 BYTE   PATT
  POIN2 Label_0118996D
//  #02 //036   ----------------------------------------
 BYTE   PATT
  POIN2 Label_01189995
//  #02 //037   ----------------------------------------
 BYTE   PATT
  POIN2 Label_011899B9
//  #02 //038   ----------------------------------------
 BYTE   PATT
  POIN2 Label_011899EC
//  #02 //039   ----------------------------------------
 BYTE   PATT
  POIN2 Label_01189A0C
//  #02 //040   ----------------------------------------
 BYTE   PATT
  POIN2 Label_01189A2F
//  #02 //041   ----------------------------------------
 BYTE   PATT
  POIN2 Label_01189A4F
//  #02 //042   ----------------------------------------
 BYTE   PATT
  POIN2 Label_011899EC
//  #02 //043   ----------------------------------------
 BYTE   PATT
  POIN2 Label_01189A0C
//  #02 //044   ----------------------------------------
 BYTE   PATT
  POIN2 Label_01189A2F
//  #02 //045   ----------------------------------------
 BYTE   PATT
  POIN2 Label_01189A4F
//  #02 //046   ----------------------------------------
 BYTE   PATT
  POIN2 Label_01189A81
//  #02 //047   ----------------------------------------
 BYTE   PATT
  POIN2 Label_01189AA0
//  #02 //048   ----------------------------------------
 BYTE   PATT
  POIN2 Label_01189ABF
//  #02 //049   ----------------------------------------
 BYTE   PATT
  POIN2 Label_01189ADE
//  #02 //050   ----------------------------------------
 BYTE   PATT
  POIN2 Label_01189AF8
//  #02 //051   ----------------------------------------
 BYTE   PATT
  POIN2 Label_01189B17
//  #02 //052   ----------------------------------------
 BYTE   PATT
  POIN2 Label_01189B3A
//  #02 //053   ----------------------------------------
 BYTE   PATT
  POIN2 Label_01189B5B
//  #02 //054   ----------------------------------------
 BYTE   GoTo
  POIN2 Label_0118994B
//  #02 //055   ----------------------------------------
 BYTE   PATT
  POIN2 Label_0118994B
//  #02 //056   ----------------------------------------
 BYTE   PATT
  POIN2 Label_0118996D
//  #02 //057   ----------------------------------------
 BYTE   PATT
  POIN2 Label_01189995
//  #02 //058   ----------------------------------------
 BYTE   VOL   28*song33_mvl/mxv
 BYTE   N06  As1  v127
 BYTE   W12
 BYTE   VOL   27*song33_mvl/mxv
 BYTE   W03
 BYTE   N06  As1  v108
 BYTE   W09
 BYTE   VOL   26*song33_mvl/mxv
 BYTE   N06  Fs1  v084
 BYTE   W08
 BYTE   N08  As1  v092
 BYTE   W04
 BYTE   VOL   25*song33_mvl/mxv
 BYTE   W04
 BYTE   N08  Fs1  v076
 BYTE   W08
 BYTE   VOL   24*song33_mvl/mxv
 BYTE   N08  Fs1  v100
 BYTE   W08
 BYTE   N07  As1  v084
 BYTE   W04
 BYTE   VOL   23*song33_mvl/mxv
 BYTE   W04
 BYTE   N08  Fs1
 BYTE   W08
 BYTE   VOL   22*song33_mvl/mxv
 BYTE   N08  As1  v116
 BYTE   W12
 BYTE   VOL   21*song33_mvl/mxv
 BYTE   W12
//  #02 //059   ----------------------------------------
 BYTE   VOL   20*song33_mvl/mxv
 BYTE   N06
 BYTE   W12
 BYTE   VOL   19*song33_mvl/mxv
 BYTE   W03
 BYTE   N06
 BYTE   W06
 BYTE   VOL   17*song33_mvl/mxv
 BYTE   W02
 BYTE   N06  Fs1  v064
 BYTE   W09
 BYTE   Fs1  v076
 BYTE   W01
 BYTE   VOL   17*song33_mvl/mxv
 BYTE   W07
 BYTE   N06  Fs1  v080
 BYTE   W05
 BYTE   VOL   16*song33_mvl/mxv
 BYTE   W03
 BYTE   N09  As1  v116
 BYTE   W09
 BYTE   VOL   15*song33_mvl/mxv
 BYTE   W06
 BYTE   N07  As1  v100
 BYTE   W06
 BYTE   VOL   14*song33_mvl/mxv
 BYTE   W02
 BYTE   N06  Fs1  v068
 BYTE   W09
 BYTE   Fs1  v076
 BYTE   W01
 BYTE   VOL   13*song33_mvl/mxv
 BYTE   W07
 BYTE   N06  Fs1  v084
 BYTE   W05
 BYTE   VOL   12*song33_mvl/mxv
 BYTE   W03
//  #02 //060   ----------------------------------------
 BYTE   N09  As1  v116
 BYTE   W09
 BYTE   VOL   11*song33_mvl/mxv
 BYTE   W07
 BYTE   N06  As1  v108
 BYTE   W05
 BYTE   VOL   10*song33_mvl/mxv
 BYTE   W02
 BYTE   N06  Fs1  v080
 BYTE   W09
 BYTE   Fs1  v092
 BYTE   W01
 BYTE   VOL   10*song33_mvl/mxv
 BYTE   W07
 BYTE   N06  Fs1  v088
 BYTE   W02
 BYTE   VOL   9*song33_mvl/mxv
 BYTE   W06
 BYTE   N08  As1  v108
 BYTE   W06
 BYTE   VOL   8*song33_mvl/mxv
 BYTE   W02
 BYTE   N08  As1  v080
 BYTE   W08
 BYTE   As1  v092
 BYTE   W02
 BYTE   VOL   8*song33_mvl/mxv
 BYTE   W06
 BYTE   N07  Fs1  v108
 BYTE   W06
 BYTE   VOL   7*song33_mvl/mxv
 BYTE   W02
 BYTE   N01  Fs1  v080
 BYTE   W08
 BYTE   N08  Fs1  v088
 BYTE   W02
 BYTE   VOL   7*song33_mvl/mxv
 BYTE   W06
//  #02 //061   ----------------------------------------
 BYTE   N09  As1  v116
 BYTE   W06
 BYTE   VOL   6*song33_mvl/mxv
 BYTE   W09
 BYTE   N06  As1  v104
 BYTE   W03
 BYTE   VOL   5*song33_mvl/mxv
 BYTE   W06
 BYTE   N06  Fs1  v068
 BYTE   W06
 BYTE   VOL   5*song33_mvl/mxv
 BYTE   W02
 BYTE   N06  Fs1  v080
 BYTE   W08
 BYTE   Fs1  v092
 BYTE   W02
 BYTE   VOL   4*song33_mvl/mxv
 BYTE   W06
 BYTE   N09  As1  v116
 BYTE   W06
 BYTE   VOL   3*song33_mvl/mxv
 BYTE   W09
 BYTE   VOL   3*song33_mvl/mxv
 BYTE   W01
 BYTE   N05  As1  v108
 BYTE   W08
 BYTE   N06  Fs1  v056
 BYTE   W03
 BYTE   VOL   2*song33_mvl/mxv
 BYTE   W05
 BYTE   N06  Fs1  v076
 BYTE   W07
 BYTE   VOL   2*song33_mvl/mxv
 BYTE   W01
 BYTE   N06  Fs1  v088
 BYTE   W08
//  #02 //062   ----------------------------------------
 BYTE   As1  v127
 BYTE   W03
 BYTE   VOL   1*song33_mvl/mxv
 BYTE   W12
 BYTE   VOL   1*song33_mvl/mxv
 BYTE   N06  As1  v108
 BYTE   W09
 BYTE   Fs1  v084
 BYTE   W03
 BYTE   VOL   1*song33_mvl/mxv
 BYTE   W05
 BYTE   N08  As1  v092
 BYTE   W07
 BYTE   VOL   0*song33_mvl/mxv
 BYTE   W01
 BYTE   N08  Fs1  v076
 BYTE   W08
 BYTE   Fs1  v100
 BYTE   W03
 BYTE   VOL   0*song33_mvl/mxv
 BYTE   W05
 BYTE   N07  As1  v084
 BYTE   W07
 BYTE   VOL   0*song33_mvl/mxv
 BYTE   W01
 BYTE   N08  Fs1
 BYTE   W08
 BYTE   As1  v116
 BYTE   W03
 BYTE   VOL   0*song33_mvl/mxv
 BYTE   W09
 BYTE   VOL   0*song33_mvl/mxv
 BYTE   W12
//  #02 //063   ----------------------------------------
 BYTE   VOL   0*song33_mvl/mxv
 BYTE   FINE

//**************** Track 3 (Midi-Chn.2) ****************//

song33_003:
//  #03 //000   ----------------------------------------
 BYTE   KEYSH   song33_key+0
 BYTE   VOICE   21
 BYTE   MODT 0
 BYTE   LFOS 44
 BYTE   PAN   c_v+0
 BYTE   VOL   60*song33_mvl/mxv
 BYTE   BENDR  106
 BYTE   W96
//  #03 //001   ----------------------------------------
 BYTE   W96
//  #03 //002   ----------------------------------------
 BYTE   W96
//  #03 //003   ----------------------------------------
 BYTE   W96
//  #03 //004   ----------------------------------------
 BYTE   W96
//  #03 //005   ----------------------------------------
 BYTE   W96
//  #03 //006   ----------------------------------------
Label_0118A420:
 BYTE   N08  En3  v108
 BYTE   W15
 BYTE   En3  v072
 BYTE   W09
 BYTE   Dn3  v088
 BYTE   W08
 BYTE   En3  v072
 BYTE   W08
 BYTE   An2  v064
 BYTE   W08
 BYTE   En3  v108
 BYTE   W16
 BYTE   En3  v072
 BYTE   W08
 BYTE   Dn3  v088
 BYTE   W08
 BYTE   En3  v072
 BYTE   W08
 BYTE   An3  v064
 BYTE   W08
 BYTE   PEND 
//  #03 //007   ----------------------------------------
Label_0118A440:
 BYTE   N08  Gn3  v104
 BYTE   W16
 BYTE   Gn3  v072
 BYTE   W08
 BYTE   Fs3  v096
 BYTE   W07
 BYTE   N09  Gn3  v076
 BYTE   W09
 BYTE   N08  En3  v084
 BYTE   W08
 BYTE   Fs3  v088
 BYTE   W08
 BYTE   En3  v072
 BYTE   W07
 BYTE   Fs3  v064
 BYTE   W09
 BYTE   An2  v088
 BYTE   W08
 BYTE   Gn2  v072
 BYTE   W07
 BYTE   An2  v084
 BYTE   W09
 BYTE   PEND 
//  #03 //008   ----------------------------------------
Label_0118A465:
 BYTE   N08  En3  v108
 BYTE   W16
 BYTE   En3  v072
 BYTE   W08
 BYTE   Dn3  v088
 BYTE   W08
 BYTE   En3  v072
 BYTE   W08
 BYTE   An2  v064
 BYTE   W08
 BYTE   En3  v108
 BYTE   W16
 BYTE   En3  v072
 BYTE   W08
 BYTE   Dn3  v088
 BYTE   W09
 BYTE   En3  v072
 BYTE   W08
 BYTE   An3  v064
 BYTE   W07
 BYTE   PEND 
//  #03 //009   ----------------------------------------
Label_0118A485:
 BYTE   N08  Gn3  v104
 BYTE   W16
 BYTE   Gn3  v072
 BYTE   W08
 BYTE   Fs3  v096
 BYTE   W08
 BYTE   N09  Gn3  v076
 BYTE   W08
 BYTE   N08  An3  v084
 BYTE   W08
 BYTE   An3  v096
 BYTE   W08
 BYTE   Bn3  v072
 BYTE   W07
 BYTE   Gn3
 BYTE   W09
 BYTE   N16  An3  v096
 BYTE   W24
 BYTE   PEND 
//  #03 //010   ----------------------------------------
 BYTE   PATT
  POIN2 Label_0118A420
//  #03 //011   ----------------------------------------
 BYTE   PATT
  POIN2 Label_0118A440
//  #03 //012   ----------------------------------------
Label_0118A4AE:
 BYTE   N08  En3  v108
 BYTE   W16
 BYTE   En3  v072
 BYTE   W08
 BYTE   Dn3  v088
 BYTE   W08
 BYTE   En3  v072
 BYTE   W08
 BYTE   An2  v064
 BYTE   W08
 BYTE   En3  v108
 BYTE   W16
 BYTE   En3  v072
 BYTE   W08
 BYTE   Dn3  v088
 BYTE   W09
 BYTE   En3  v072
 BYTE   W08
 BYTE   Gn3  v064
 BYTE   W07
 BYTE   PEND 
//  #03 //013   ----------------------------------------
Label_0118A4CE:
 BYTE   N08  An3  v104
 BYTE   W16
 BYTE   An3  v072
 BYTE   W08
 BYTE   Gn3  v096
 BYTE   W08
 BYTE   N09  An3  v076
 BYTE   W08
 BYTE   N08  Bn3  v084
 BYTE   W08
 BYTE   An3  v096
 BYTE   W08
 BYTE   Bn3  v072
 BYTE   W07
 BYTE   Gn3
 BYTE   W09
 BYTE   N16  An3  v096
 BYTE   W24
 BYTE   PEND 
//  #03 //014   ----------------------------------------
Label_0118A4ED:
 BYTE   W01
 BYTE   N08  Cn4  v108
 BYTE   W15
 BYTE   Cn4  v072
 BYTE   W08
 BYTE   Bn3  v092
 BYTE   W08
 BYTE   An3  v072
 BYTE   W07
 BYTE   Gn3  v064
 BYTE   W08
 BYTE   Bn3  v112
 BYTE   W17
 BYTE   Bn3  v080
 BYTE   W08
 BYTE   An3  v096
 BYTE   W08
 BYTE   Gn3  v076
 BYTE   W08
 BYTE   Fs3  v064
 BYTE   W08
 BYTE   PEND 
//  #03 //015   ----------------------------------------
Label_0118A50E:
 BYTE   N08  Gn3  v100
 BYTE   W16
 BYTE   Gn3  v072
 BYTE   W08
 BYTE   Fs3  v092
 BYTE   W08
 BYTE   En3  v076
 BYTE   W08
 BYTE   Dn3  v072
 BYTE   W08
 BYTE   Fs3  v084
 BYTE   W08
 BYTE   N06  Dn3  v064
 BYTE   W08
 BYTE   N08  Gn3  v092
 BYTE   W09
 BYTE   N07  Dn3  v068
 BYTE   W07
 BYTE   N08  An3  v104
 BYTE   W08
 BYTE   Dn3  v084
 BYTE   W08
 BYTE   PEND 
//  #03 //016   ----------------------------------------
 BYTE   PATT
  POIN2 Label_0118A4ED
//  #03 //017   ----------------------------------------
Label_0118A53A:
 BYTE   N08  An3  v100
 BYTE   W16
 BYTE   An3  v072
 BYTE   W08
 BYTE   Gn3  v092
 BYTE   W08
 BYTE   An3  v076
 BYTE   W08
 BYTE   Bn3  v072
 BYTE   W07
 BYTE   An3  v088
 BYTE   W07
 BYTE   Bn3  v092
 BYTE   W09
 BYTE   Gn3  v072
 BYTE   W09
 BYTE   N12  An3  v092
 BYTE   W24
 BYTE   PEND 
//  #03 //018   ----------------------------------------
Label_0118A558:
 BYTE   N08  Cn4  v108
 BYTE   W15
 BYTE   Cn4  v072
 BYTE   W09
 BYTE   Bn3  v092
 BYTE   W07
 BYTE   An3  v072
 BYTE   W08
 BYTE   Gn3  v064
 BYTE   W08
 BYTE   Bn3  v112
 BYTE   W16
 BYTE   Bn3  v080
 BYTE   W08
 BYTE   An3  v096
 BYTE   W09
 BYTE   Gn3  v076
 BYTE   W07
 BYTE   Fs3  v064
 BYTE   W08
 BYTE   Gn3  v100
 BYTE   W01
 BYTE   PEND 
//  #03 //019   ----------------------------------------
Label_0118A57B:
 BYTE   W15
 BYTE   N08  Gn3  v072
 BYTE   W08
 BYTE   Fs3  v092
 BYTE   W09
 BYTE   En3  v076
 BYTE   W07
 BYTE   Dn3  v072
 BYTE   W09
 BYTE   Fs3  v084
 BYTE   W08
 BYTE   N06  Dn3  v064
 BYTE   W08
 BYTE   N08  Gn3  v092
 BYTE   W09
 BYTE   N07  Dn3  v068
 BYTE   W07
 BYTE   N08  An3  v104
 BYTE   W08
 BYTE   Dn3  v084
 BYTE   W08
 BYTE   PEND 
//  #03 //020   ----------------------------------------
 BYTE   PATT
  POIN2 Label_0118A558
//  #03 //021   ----------------------------------------
Label_0118A5A5:
 BYTE   W15
 BYTE   N08  Gn3  v072
 BYTE   W08
 BYTE   Fs3  v092
 BYTE   W09
 BYTE   Gn3  v076
 BYTE   W07
 BYTE   N07  An3  v072
 BYTE   W08
 BYTE   N01  An3  v088
 BYTE   W07
 BYTE   N08  Bn3  v092
 BYTE   W08
 BYTE   Gn3  v072
 BYTE   W10
 BYTE   N12  An3  v092
 BYTE   W24
 BYTE   PEND 
//  #03 //022   ----------------------------------------
Label_0118A5C4:
 BYTE   N08  Gn3  v100
 BYTE   W07
 BYTE   Bn3  v072
 BYTE   W09
 BYTE   Gn3
 BYTE   W07
 BYTE   An3  v092
 BYTE   W08
 BYTE   Gn3  v072
 BYTE   W08
 BYTE   N07  Bn3  v076
 BYTE   W09
 BYTE   N08  Gn3  v104
 BYTE   W08
 BYTE   An3  v072
 BYTE   W08
 BYTE   Gn3  v080
 BYTE   W07
 BYTE   Fs3  v084
 BYTE   W08
 BYTE   Gn3  v072
 BYTE   W08
 BYTE   An3  v076
 BYTE   W09
 BYTE   PEND 
//  #03 //023   ----------------------------------------
Label_0118A5EB:
 BYTE   N08  Gn3  v096
 BYTE   W08
 BYTE   Bn3  v064
 BYTE   W08
 BYTE   Gn3  v076
 BYTE   W08
 BYTE   Dn4  v096
 BYTE   W08
 BYTE   Gn3  v072
 BYTE   W08
 BYTE   Bn3  v076
 BYTE   W07
 BYTE   An3  v084
 BYTE   W09
 BYTE   Gn3  v072
 BYTE   W08
 BYTE   Fs3  v080
 BYTE   W08
 BYTE   Dn3  v076
 BYTE   W08
 BYTE   En3  v064
 BYTE   W08
 BYTE   Fs3  v076
 BYTE   W08
 BYTE   PEND 
//  #03 //024   ----------------------------------------
Label_0118A611:
 BYTE   N08  Gn3  v100
 BYTE   W08
 BYTE   Bn3  v072
 BYTE   W08
 BYTE   Gn3
 BYTE   W07
 BYTE   An3  v092
 BYTE   W08
 BYTE   Gn3  v072
 BYTE   W08
 BYTE   N07  Bn3  v076
 BYTE   W09
 BYTE   N08  Gn3  v104
 BYTE   W09
 BYTE   An3  v072
 BYTE   W07
 BYTE   Gn3  v080
 BYTE   W07
 BYTE   Fs3  v084
 BYTE   W08
 BYTE   Gn3  v072
 BYTE   W09
 BYTE   An3  v076
 BYTE   W08
 BYTE   PEND 
//  #03 //025   ----------------------------------------
Label_0118A638:
 BYTE   N08  Gn3  v096
 BYTE   W08
 BYTE   Bn3  v064
 BYTE   W08
 BYTE   Gn3  v076
 BYTE   W08
 BYTE   Dn4  v096
 BYTE   W09
 BYTE   Gn3  v072
 BYTE   W07
 BYTE   Bn3  v076
 BYTE   W08
 BYTE   An3  v088
 BYTE   W08
 BYTE   Gn3  v072
 BYTE   W08
 BYTE   Fs3
 BYTE   W08
 BYTE   N09  Gn3  v096
 BYTE   W24
 BYTE   PEND 
//  #03 //026   ----------------------------------------
 BYTE   PATT
  POIN2 Label_0118A611
//  #03 //027   ----------------------------------------
Label_0118A65D:
 BYTE   N08  Gn3  v096
 BYTE   W08
 BYTE   Bn3  v064
 BYTE   W08
 BYTE   Gn3  v076
 BYTE   W08
 BYTE   Dn4  v096
 BYTE   W09
 BYTE   Gn3  v072
 BYTE   W07
 BYTE   Bn3  v076
 BYTE   W08
 BYTE   An3  v084
 BYTE   W08
 BYTE   Gn3  v072
 BYTE   W08
 BYTE   Fs3  v080
 BYTE   W08
 BYTE   Dn3  v076
 BYTE   W08
 BYTE   En3  v064
 BYTE   W08
 BYTE   Fs3  v076
 BYTE   W08
 BYTE   PEND 
//  #03 //028   ----------------------------------------
Label_0118A683:
 BYTE   N08  Gn3  v100
 BYTE   W08
 BYTE   Bn3  v072
 BYTE   W09
 BYTE   Gn3
 BYTE   W07
 BYTE   An3  v092
 BYTE   W08
 BYTE   Gn3  v072
 BYTE   W08
 BYTE   N07  Bn3  v076
 BYTE   W09
 BYTE   N08  Gn3  v104
 BYTE   W08
 BYTE   An3  v072
 BYTE   W08
 BYTE   Gn3  v080
 BYTE   W07
 BYTE   Fs3  v084
 BYTE   W08
 BYTE   Gn3  v072
 BYTE   W08
 BYTE   An3  v076
 BYTE   W08
 BYTE   PEND 
//  #03 //029   ----------------------------------------
Label_0118A6AA:
 BYTE   N08  Gn3  v096
 BYTE   W09
 BYTE   Bn3  v064
 BYTE   W08
 BYTE   Gn3  v076
 BYTE   W08
 BYTE   Dn4  v096
 BYTE   W08
 BYTE   Gn3  v072
 BYTE   W07
 BYTE   Bn3  v076
 BYTE   W08
 BYTE   An3  v088
 BYTE   W08
 BYTE   Gn3  v072
 BYTE   W08
 BYTE   Fs3
 BYTE   W08
 BYTE   N09  Gn3  v096
 BYTE   W24
 BYTE   PEND 
//  #03 //030   ----------------------------------------
 BYTE   PATT
  POIN2 Label_0118A420
//  #03 //031   ----------------------------------------
 BYTE   PATT
  POIN2 Label_0118A440
//  #03 //032   ----------------------------------------
 BYTE   PATT
  POIN2 Label_0118A465
//  #03 //033   ----------------------------------------
 BYTE   PATT
  POIN2 Label_0118A485
//  #03 //034   ----------------------------------------
 BYTE   PATT
  POIN2 Label_0118A420
//  #03 //035   ----------------------------------------
 BYTE   PATT
  POIN2 Label_0118A440
//  #03 //036   ----------------------------------------
 BYTE   PATT
  POIN2 Label_0118A4AE
//  #03 //037   ----------------------------------------
 BYTE   PATT
  POIN2 Label_0118A4CE
//  #03 //038   ----------------------------------------
 BYTE   PATT
  POIN2 Label_0118A4ED
//  #03 //039   ----------------------------------------
 BYTE   PATT
  POIN2 Label_0118A50E
//  #03 //040   ----------------------------------------
 BYTE   PATT
  POIN2 Label_0118A4ED
//  #03 //041   ----------------------------------------
 BYTE   PATT
  POIN2 Label_0118A53A
//  #03 //042   ----------------------------------------
 BYTE   PATT
  POIN2 Label_0118A558
//  #03 //043   ----------------------------------------
 BYTE   PATT
  POIN2 Label_0118A57B
//  #03 //044   ----------------------------------------
 BYTE   PATT
  POIN2 Label_0118A558
//  #03 //045   ----------------------------------------
 BYTE   PATT
  POIN2 Label_0118A5A5
//  #03 //046   ----------------------------------------
 BYTE   PATT
  POIN2 Label_0118A5C4
//  #03 //047   ----------------------------------------
 BYTE   PATT
  POIN2 Label_0118A5EB
//  #03 //048   ----------------------------------------
 BYTE   PATT
  POIN2 Label_0118A611
//  #03 //049   ----------------------------------------
 BYTE   PATT
  POIN2 Label_0118A638
//  #03 //050   ----------------------------------------
 BYTE   PATT
  POIN2 Label_0118A611
//  #03 //051   ----------------------------------------
 BYTE   PATT
  POIN2 Label_0118A65D
//  #03 //052   ----------------------------------------
 BYTE   PATT
  POIN2 Label_0118A683
//  #03 //053   ----------------------------------------
 BYTE   PATT
  POIN2 Label_0118A6AA
//  #03 //054   ----------------------------------------
 BYTE   GoTo
  POIN2 Label_0118A420
//  #03 //055   ----------------------------------------
 BYTE   PATT
  POIN2 Label_0118A465
//  #03 //056   ----------------------------------------
 BYTE   N08  Gn3  v104
 BYTE   W16
 BYTE   Gn3  v072
 BYTE   W08
 BYTE   Fs3  v096
 BYTE   W08
 BYTE   N09  Gn3  v076
 BYTE   W08
 BYTE   N08  En3  v084
 BYTE   W08
 BYTE   Fs3  v088
 BYTE   W08
 BYTE   En3  v072
 BYTE   W08
 BYTE   Fs3  v064
 BYTE   W08
 BYTE   An2  v088
 BYTE   W08
 BYTE   Gn2  v072
 BYTE   W08
 BYTE   An2  v084
 BYTE   W08
//  #03 //057   ----------------------------------------
 BYTE   En3  v108
 BYTE   W16
 BYTE   En3  v072
 BYTE   W08
 BYTE   Dn3  v088
 BYTE   W09
 BYTE   En3  v072
 BYTE   W08
 BYTE   An2  v064
 BYTE   W08
 BYTE   En3  v108
 BYTE   W15
 BYTE   En3  v072
 BYTE   W09
 BYTE   Dn3  v088
 BYTE   W08
 BYTE   En3  v072
 BYTE   W08
 BYTE   An3  v064
 BYTE   W07
//  #03 //058   ----------------------------------------
 BYTE   VOL   60*song33_mvl/mxv
 BYTE   N08  Gn3  v104
 BYTE   W03
 BYTE   VOL   58*song33_mvl/mxv
 BYTE   W06
 BYTE   VOL   56*song33_mvl/mxv
 BYTE   W07
 BYTE   N08  Gn3  v072
 BYTE   W02
 BYTE   VOL   55*song33_mvl/mxv
 BYTE   W06
 BYTE   VOL   53*song33_mvl/mxv
 BYTE   N08  Fs3  v096
 BYTE   W08
 BYTE   N09  Gn3  v076
 BYTE   W01
 BYTE   VOL   52*song33_mvl/mxv
 BYTE   W06
 BYTE   VOL   51*song33_mvl/mxv
 BYTE   W01
 BYTE   N08  An3  v084
 BYTE   W08
 BYTE   VOL   49*song33_mvl/mxv
 BYTE   N08  An3  v096
 BYTE   W06
 BYTE   VOL   47*song33_mvl/mxv
 BYTE   W02
 BYTE   N08  Bn3  v072
 BYTE   W07
 BYTE   VOL   46*song33_mvl/mxv
 BYTE   W01
 BYTE   N08  Gn3
 BYTE   W05
 BYTE   VOL   44*song33_mvl/mxv
 BYTE   W03
 BYTE   N16  An3  v096
 BYTE   W06
 BYTE   VOL   43*song33_mvl/mxv
 BYTE   W06
 BYTE   VOL   42*song33_mvl/mxv
 BYTE   W09
 BYTE   VOL   41*song33_mvl/mxv
 BYTE   W03
//  #03 //059   ----------------------------------------
 BYTE   N08  En3  v108
 BYTE   W03
 BYTE   VOL   39*song33_mvl/mxv
 BYTE   W09
 BYTE   VOL   38*song33_mvl/mxv
 BYTE   W03
 BYTE   N08  En3  v072
 BYTE   W03
 BYTE   VOL   36*song33_mvl/mxv
 BYTE   W06
 BYTE   N08  Dn3  v088
 BYTE   W03
 BYTE   VOL   35*song33_mvl/mxv
 BYTE   W05
 BYTE   N08  En3  v072
 BYTE   W01
 BYTE   VOL   34*song33_mvl/mxv
 BYTE   W07
 BYTE   N08  An2  v064
 BYTE   W02
 BYTE   VOL   33*song33_mvl/mxv
 BYTE   W06
 BYTE   VOL   32*song33_mvl/mxv
 BYTE   N08  En3  v108
 BYTE   W09
 BYTE   VOL   30*song33_mvl/mxv
 BYTE   W06
 BYTE   VOL   30*song33_mvl/mxv
 BYTE   W01
 BYTE   N08  En3  v072
 BYTE   W08
 BYTE   VOL   28*song33_mvl/mxv
 BYTE   N08  Dn3  v088
 BYTE   W06
 BYTE   VOL   27*song33_mvl/mxv
 BYTE   W02
 BYTE   N08  En3  v072
 BYTE   W07
 BYTE   VOL   26*song33_mvl/mxv
 BYTE   W01
 BYTE   N08  An3  v064
 BYTE   W05
 BYTE   VOL   25*song33_mvl/mxv
 BYTE   W03
//  #03 //060   ----------------------------------------
 BYTE   N08  Gn3  v104
 BYTE   W06
 BYTE   VOL   24*song33_mvl/mxv
 BYTE   W06
 BYTE   VOL   23*song33_mvl/mxv
 BYTE   W04
 BYTE   N08  Gn3  v072
 BYTE   W05
 BYTE   VOL   22*song33_mvl/mxv
 BYTE   W03
 BYTE   N08  Fs3  v096
 BYTE   W03
 BYTE   VOL   21*song33_mvl/mxv
 BYTE   W04
 BYTE   N09  Gn3  v076
 BYTE   W05
 BYTE   VOL   20*song33_mvl/mxv
 BYTE   W04
 BYTE   N08  En3  v084
 BYTE   W02
 BYTE   VOL   19*song33_mvl/mxv
 BYTE   W06
 BYTE   N08  Fs3  v088
 BYTE   W03
 BYTE   VOL   17*song33_mvl/mxv
 BYTE   W05
 BYTE   N08  En3  v072
 BYTE   W01
 BYTE   VOL   17*song33_mvl/mxv
 BYTE   W06
 BYTE   N08  Fs3  v064
 BYTE   W03
 BYTE   VOL   16*song33_mvl/mxv
 BYTE   W06
 BYTE   VOL   15*song33_mvl/mxv
 BYTE   N08  An2  v088
 BYTE   W08
 BYTE   Gn2  v072
 BYTE   W01
 BYTE   VOL   14*song33_mvl/mxv
 BYTE   W06
 BYTE   VOL   13*song33_mvl/mxv
 BYTE   N08  An2  v084
 BYTE   W09
//  #03 //061   ----------------------------------------
 BYTE   VOL   12*song33_mvl/mxv
 BYTE   N08  En3  v108
 BYTE   W06
 BYTE   VOL   11*song33_mvl/mxv
 BYTE   W09
 BYTE   VOL   10*song33_mvl/mxv
 BYTE   W01
 BYTE   N08  En3  v072
 BYTE   W05
 BYTE   VOL   10*song33_mvl/mxv
 BYTE   W03
 BYTE   N08  Dn3  v088
 BYTE   W06
 BYTE   VOL   9*song33_mvl/mxv
 BYTE   W02
 BYTE   N08  En3  v072
 BYTE   W04
 BYTE   VOL   8*song33_mvl/mxv
 BYTE   W04
 BYTE   N08  An2  v064
 BYTE   W05
 BYTE   VOL   8*song33_mvl/mxv
 BYTE   W03
 BYTE   N08  En3  v108
 BYTE   W03
 BYTE   VOL   7*song33_mvl/mxv
 BYTE   W09
 BYTE   VOL   7*song33_mvl/mxv
 BYTE   W04
 BYTE   N08  En3  v072
 BYTE   W02
 BYTE   VOL   6*song33_mvl/mxv
 BYTE   W06
 BYTE   N08  Dn3  v088
 BYTE   W03
 BYTE   VOL   5*song33_mvl/mxv
 BYTE   W06
 BYTE   VOL   5*song33_mvl/mxv
 BYTE   N08  En3  v072
 BYTE   W08
 BYTE   Gn3  v064
 BYTE   W01
 BYTE   VOL   4*song33_mvl/mxv
 BYTE   W06
//  #03 //062   ----------------------------------------
 BYTE   VOL   3*song33_mvl/mxv
 BYTE   N08  An3  v104
 BYTE   W09
 BYTE   VOL   3*song33_mvl/mxv
 BYTE   W06
 BYTE   VOL   2*song33_mvl/mxv
 BYTE   W01
 BYTE   N08  An3  v072
 BYTE   W08
 BYTE   VOL   2*song33_mvl/mxv
 BYTE   N08  Gn3  v096
 BYTE   W06
 BYTE   VOL   1*song33_mvl/mxv
 BYTE   W02
 BYTE   N09  An3  v076
 BYTE   W07
 BYTE   VOL   1*song33_mvl/mxv
 BYTE   W01
 BYTE   N08  Bn3  v084
 BYTE   W05
 BYTE   VOL   1*song33_mvl/mxv
 BYTE   W03
 BYTE   N08  An3  v096
 BYTE   W06
 BYTE   VOL   0*song33_mvl/mxv
 BYTE   W02
 BYTE   N08  Bn3  v072
 BYTE   W04
 BYTE   VOL   0*song33_mvl/mxv
 BYTE   W03
 BYTE   N08  Gn3
 BYTE   W06
 BYTE   VOL   0*song33_mvl/mxv
 BYTE   W03
 BYTE   N16  An3  v096
 BYTE   W03
 BYTE   VOL   0*song33_mvl/mxv
 BYTE   W09
 BYTE   VOL   0*song33_mvl/mxv
 BYTE   W06
 BYTE   VOL   0*song33_mvl/mxv
 BYTE   W06
//  #03 //063   ----------------------------------------
 BYTE   VOL   0*song33_mvl/mxv
 BYTE   FINE

//**************** Track 4 (Midi-Chn.3) ****************//

song33_004:
//  #04 //000   ----------------------------------------
 BYTE   KEYSH   song33_key+0
 BYTE   VOICE   110
 BYTE   MODT 0
 BYTE   LFOS 44
 BYTE   PAN   c_v-22
 BYTE   VOL   17*song33_mvl/mxv
 BYTE   W96
//  #04 //001   ----------------------------------------
 BYTE   W96
//  #04 //002   ----------------------------------------
 BYTE   W96
//  #04 //003   ----------------------------------------
 BYTE   W96
//  #04 //004   ----------------------------------------
 BYTE   W96
//  #04 //005   ----------------------------------------
 BYTE   W96
//  #04 //006   ----------------------------------------
Label_01189FCA:
 BYTE   N44  An3  v072
 BYTE   W48
 BYTE   N44
 BYTE   W48
 BYTE   PEND 
//  #04 //007   ----------------------------------------
 BYTE   N44
 BYTE   W96
//  #04 //008   ----------------------------------------
 BYTE   PATT
  POIN2 Label_01189FCA
//  #04 //009   ----------------------------------------
 BYTE   N44  An3  v072
 BYTE   W96
//  #04 //010   ----------------------------------------
 BYTE   PATT
  POIN2 Label_01189FCA
//  #04 //011   ----------------------------------------
 BYTE   N44  An3  v072
 BYTE   W96
//  #04 //012   ----------------------------------------
 BYTE   PATT
  POIN2 Label_01189FCA
//  #04 //013   ----------------------------------------
 BYTE   N44  An3  v072
 BYTE   W96
//  #04 //014   ----------------------------------------
Label_01189FEE:
 BYTE   N44  Cn4  v108
 BYTE   W48
 BYTE   Bn3  v072
 BYTE   W48
 BYTE   PEND 
//  #04 //015   ----------------------------------------
 BYTE   An3
 BYTE   W96
//  #04 //016   ----------------------------------------
 BYTE   N48  Cn4  v100
 BYTE   W48
 BYTE   N44  Bn3  v072
 BYTE   W48
//  #04 //017   ----------------------------------------
 BYTE   An3
 BYTE   W96
//  #04 //018   ----------------------------------------
 BYTE   PATT
  POIN2 Label_01189FEE
//  #04 //019   ----------------------------------------
 BYTE   N44  An3  v072
 BYTE   W96
//  #04 //020   ----------------------------------------
Label_0118A00B:
 BYTE   N48  Cn4  v100
 BYTE   W48
 BYTE   W01
 BYTE   N44  Bn3  v072
 BYTE   W44
 BYTE   W03
 BYTE   PEND 
//  #04 //021   ----------------------------------------
 BYTE   An3
 BYTE   W96
//  #04 //022   ----------------------------------------
 BYTE   W96
//  #04 //023   ----------------------------------------
 BYTE   W96
//  #04 //024   ----------------------------------------
 BYTE   W96
//  #04 //025   ----------------------------------------
 BYTE   W96
//  #04 //026   ----------------------------------------
 BYTE   W96
//  #04 //027   ----------------------------------------
 BYTE   W96
//  #04 //028   ----------------------------------------
 BYTE   W96
//  #04 //029   ----------------------------------------
 BYTE   W96
//  #04 //030   ----------------------------------------
 BYTE   PATT
  POIN2 Label_01189FCA
//  #04 //031   ----------------------------------------
 BYTE   N44  An3  v072
 BYTE   W96
//  #04 //032   ----------------------------------------
 BYTE   PATT
  POIN2 Label_01189FCA
//  #04 //033   ----------------------------------------
Label_0118A02E:
 BYTE   W01
 BYTE   N44  An3  v072
 BYTE   W92
 BYTE   W03
 BYTE   PEND 
//  #04 //034   ----------------------------------------
 BYTE   PATT
  POIN2 Label_01189FCA
//  #04 //035   ----------------------------------------
 BYTE   N44  An3  v072
 BYTE   W96
//  #04 //036   ----------------------------------------
 BYTE   PATT
  POIN2 Label_01189FCA
//  #04 //037   ----------------------------------------
 BYTE   N44  An3  v072
 BYTE   W96
//  #04 //038   ----------------------------------------
 BYTE   PATT
  POIN2 Label_01189FEE
//  #04 //039   ----------------------------------------
 BYTE   N44  An3  v072
 BYTE   W96
//  #04 //040   ----------------------------------------
 BYTE   PATT
  POIN2 Label_0118A00B
//  #04 //041   ----------------------------------------
 BYTE   N44  An3  v072
 BYTE   W96
//  #04 //042   ----------------------------------------
 BYTE   Cn4  v108
 BYTE   W48
 BYTE   W01
 BYTE   Bn3  v072
 BYTE   W44
 BYTE   W03
//  #04 //043   ----------------------------------------
 BYTE   PATT
  POIN2 Label_0118A02E
//  #04 //044   ----------------------------------------
 BYTE   PATT
  POIN2 Label_0118A00B
//  #04 //045   ----------------------------------------
 BYTE   N44  An3  v072
 BYTE   W96
//  #04 //046   ----------------------------------------
 BYTE   W96
//  #04 //047   ----------------------------------------
 BYTE   W96
//  #04 //048   ----------------------------------------
 BYTE   W96
//  #04 //049   ----------------------------------------
 BYTE   W96
//  #04 //050   ----------------------------------------
 BYTE   W96
//  #04 //051   ----------------------------------------
 BYTE   W96
//  #04 //052   ----------------------------------------
 BYTE   W96
//  #04 //053   ----------------------------------------
 BYTE   W96
//  #04 //054   ----------------------------------------
 BYTE   GoTo
  POIN2 Label_01189FCA
//  #04 //055   ----------------------------------------
 BYTE   PATT
  POIN2 Label_01189FCA
//  #04 //056   ----------------------------------------
 BYTE   N44  An3  v072
 BYTE   W96
//  #04 //057   ----------------------------------------
 BYTE   PATT
  POIN2 Label_01189FCA
//  #04 //058   ----------------------------------------
 BYTE   VOL   16*song33_mvl/mxv
 BYTE   W01
 BYTE   N44  An3  v072
 BYTE   W17
 BYTE   VOL   15*song33_mvl/mxv
 BYTE   W18
 BYTE   VOL   14*song33_mvl/mxv
 BYTE   W15
 BYTE   VOL   13*song33_mvl/mxv
 BYTE   W18
 BYTE   VOL   12*song33_mvl/mxv
 BYTE   W15
 BYTE   VOL   11*song33_mvl/mxv
 BYTE   W12
//  #04 //059   ----------------------------------------
 BYTE   N44
 BYTE   W06
 BYTE   VOL   10*song33_mvl/mxv
 BYTE   W15
 BYTE   VOL   10*song33_mvl/mxv
 BYTE   W18
 BYTE   VOL   9*song33_mvl/mxv
 BYTE   W09
 BYTE   N44
 BYTE   W06
 BYTE   VOL   8*song33_mvl/mxv
 BYTE   W18
 BYTE   VOL   8*song33_mvl/mxv
 BYTE   W15
 BYTE   VOL   7*song33_mvl/mxv
 BYTE   W09
//  #04 //060   ----------------------------------------
 BYTE   N44
 BYTE   W09
 BYTE   VOL   7*song33_mvl/mxv
 BYTE   W15
 BYTE   VOL   6*song33_mvl/mxv
 BYTE   W18
 BYTE   VOL   5*song33_mvl/mxv
 BYTE   W15
 BYTE   VOL   5*song33_mvl/mxv
 BYTE   W18
 BYTE   VOL   4*song33_mvl/mxv
 BYTE   W15
 BYTE   VOL   3*song33_mvl/mxv
 BYTE   W06
//  #04 //061   ----------------------------------------
 BYTE   N44
 BYTE   W12
 BYTE   VOL   3*song33_mvl/mxv
 BYTE   W15
 BYTE   VOL   2*song33_mvl/mxv
 BYTE   W18
 BYTE   VOL   2*song33_mvl/mxv
 BYTE   W03
 BYTE   N44
 BYTE   W12
 BYTE   VOL   1*song33_mvl/mxv
 BYTE   W18
 BYTE   VOL   1*song33_mvl/mxv
 BYTE   W15
 BYTE   VOL   1*song33_mvl/mxv
 BYTE   W03
//  #04 //062   ----------------------------------------
 BYTE   N44
 BYTE   W15
 BYTE   VOL   0*song33_mvl/mxv
 BYTE   W15
 BYTE   VOL   0*song33_mvl/mxv
 BYTE   W18
 BYTE   VOL   0*song33_mvl/mxv
 BYTE   W15
 BYTE   VOL   0*song33_mvl/mxv
 BYTE   W18
 BYTE   VOL   0*song33_mvl/mxv
 BYTE   W15
//  #04 //063   ----------------------------------------
 BYTE   VOL   0*song33_mvl/mxv
 BYTE   FINE

//**************** Track 5 (Midi-Chn.4) ****************//

song33_005:
//  #05 //000   ----------------------------------------
 BYTE   KEYSH   song33_key+0
 BYTE   VOICE   32
 BYTE   MODT 0
 BYTE   LFOS 44
 BYTE   PAN   c_v+24
 BYTE   VOL   43*song33_mvl/mxv
 BYTE   W96
//  #05 //001   ----------------------------------------
 BYTE   W96
//  #05 //002   ----------------------------------------
 BYTE   W96
//  #05 //003   ----------------------------------------
 BYTE   W96
//  #05 //004   ----------------------------------------
 BYTE   W96
//  #05 //005   ----------------------------------------
 BYTE   W44
 BYTE   W03
 BYTE   BEND   c_v+0
 BYTE   W01
 BYTE   BEND   c_v+16
 BYTE   N16  Dn2  v096
 BYTE   W01
 BYTE   BEND   c_v+30
 BYTE   W01
 BYTE   BEND   c_v+46
 BYTE   W01
 BYTE   BEND   c_v+60
 BYTE   W13
 BYTE   BEND   c_v+2
 BYTE   N24  Dn2  v116
 BYTE   W21
 BYTE   N10  Gn1  v104
 BYTE   W11
//  #05 //006   ----------------------------------------
Label_0118A197:
 BYTE   N44  An1  v072
 BYTE   W48
 BYTE   N44
 BYTE   W48
 BYTE   PEND 
//  #05 //007   ----------------------------------------
Label_0118A19E:
 BYTE   N44  An1  v072
 BYTE   W48
 BYTE   N22
 BYTE   W24
 BYTE   N23  Gn1
 BYTE   W24
 BYTE   PEND 
//  #05 //008   ----------------------------------------
 BYTE   PATT
  POIN2 Label_0118A197
//  #05 //009   ----------------------------------------
Label_0118A1AD:
 BYTE   N44  An1  v072
 BYTE   W48
 BYTE   N22  Gn1
 BYTE   W24
 BYTE   N23  An1
 BYTE   W24
 BYTE   PEND 
//  #05 //010   ----------------------------------------
Label_0118A1B8:
 BYTE   N01  An1  v072
 BYTE   W48
 BYTE   N44
 BYTE   W48
 BYTE   PEND 
//  #05 //011   ----------------------------------------
 BYTE   PATT
  POIN2 Label_0118A19E
//  #05 //012   ----------------------------------------
 BYTE   PATT
  POIN2 Label_0118A197
//  #05 //013   ----------------------------------------
Label_0118A1C9:
 BYTE   N44  An1  v072
 BYTE   W48
 BYTE   N22  Gn1
 BYTE   W24
 BYTE   N21  An1
 BYTE   W24
 BYTE   PEND 
//  #05 //014   ----------------------------------------
Label_0118A1D4:
 BYTE   N44  An1  v096
 BYTE   W48
 BYTE   Gn1  v072
 BYTE   W48
 BYTE   PEND 
//  #05 //015   ----------------------------------------
Label_0118A1DC:
 BYTE   N44  Dn2  v084
 BYTE   W48
 BYTE   N10  Dn2  v100
 BYTE   W15
 BYTE   Cn2  v076
 BYTE   W16
 BYTE   Bn1  v072
 BYTE   W16
 BYTE   N48  An1  v104
 BYTE   W01
 BYTE   PEND 
//  #05 //016   ----------------------------------------
 BYTE   W48
 BYTE   N44  Gn1  v072
 BYTE   W48
//  #05 //017   ----------------------------------------
Label_0118A1F4:
 BYTE   N44  Dn2  v072
 BYTE   W48
 BYTE   N08  Dn2  v100
 BYTE   W08
 BYTE   En2  v084
 BYTE   W08
 BYTE   Cn2  v072
 BYTE   W08
 BYTE   N19  Dn2  v076
 BYTE   W24
 BYTE   PEND 
//  #05 //018   ----------------------------------------
 BYTE   PATT
  POIN2 Label_0118A1D4
//  #05 //019   ----------------------------------------
 BYTE   PATT
  POIN2 Label_0118A1DC
//  #05 //020   ----------------------------------------
 BYTE   W48
 BYTE   N44  Gn1  v072
 BYTE   W48
//  #05 //021   ----------------------------------------
Label_0118A216:
 BYTE   N24  Dn2  v096
 BYTE   W24
 BYTE   Cn2  v072
 BYTE   W24
 BYTE   Bn1
 BYTE   W24
 BYTE   N23  An1
 BYTE   W24
 BYTE   PEND 
//  #05 //022   ----------------------------------------
Label_0118A223:
 BYTE   N22  Gn1  v092
 BYTE   W24
 BYTE   Gn1  v048
 BYTE   W24
 BYTE   N24
 BYTE   W24
 BYTE   N23
 BYTE   W23
 BYTE   N01  Gn1  v064
 BYTE   W01
 BYTE   PEND 
//  #05 //023   ----------------------------------------
Label_0118A233:
 BYTE   W24
 BYTE   N24  Gn1  v048
 BYTE   W24
 BYTE   N24
 BYTE   W24
 BYTE   N24
 BYTE   W24
 BYTE   PEND 
//  #05 //024   ----------------------------------------
Label_0118A23D:
 BYTE   N24  Gn1  v072
 BYTE   W24
 BYTE   N23  Gn1  v060
 BYTE   W24
 BYTE   N01  Gn1  v064
 BYTE   W24
 BYTE   N24  Gn1  v060
 BYTE   W24
 BYTE   PEND 
//  #05 //025   ----------------------------------------
Label_0118A24E:
 BYTE   W01
 BYTE   N24  Gn1  v072
 BYTE   W23
 BYTE   Bn1
 BYTE   W24
 BYTE   Dn2  v092
 BYTE   W24
 BYTE   N12  Gn2
 BYTE   W24
 BYTE   PEND 
//  #05 //026   ----------------------------------------
Label_0118A25C:
 BYTE   N22  Gn1  v084
 BYTE   W24
 BYTE   N24  Gn1  v052
 BYTE   W24
 BYTE   N24
 BYTE   W24
 BYTE   N24
 BYTE   W24
 BYTE   PEND 
//  #05 //027   ----------------------------------------
Label_0118A269:
 BYTE   N24  Gn1  v084
 BYTE   W24
 BYTE   Dn2  v064
 BYTE   W23
 BYTE   Bn1  v052
 BYTE   W24
 BYTE   W01
 BYTE   N23  Gn1
 BYTE   W24
 BYTE   PEND 
//  #05 //028   ----------------------------------------
Label_0118A278:
 BYTE   N01  Gn1  v100
 BYTE   W23
 BYTE   Gn1  v064
 BYTE   W24
 BYTE   N24  Gn1  v052
 BYTE   W24
 BYTE   N24
 BYTE   W24
 BYTE   Gn1  v072
 BYTE   W01
 BYTE   PEND 
//  #05 //029   ----------------------------------------
Label_0118A289:
 BYTE   W24
 BYTE   N23  Gn2  v104
 BYTE   W23
 BYTE   N01  Gn2  v092
 BYTE   W08
 BYTE   N08  Dn2  v084
 BYTE   W08
 BYTE   Bn1  v064
 BYTE   W09
 BYTE   N16  Gn1  v092
 BYTE   W24
 BYTE   PEND 
//  #05 //030   ----------------------------------------
 BYTE   PATT
  POIN2 Label_0118A197
//  #05 //031   ----------------------------------------
 BYTE   PATT
  POIN2 Label_0118A19E
//  #05 //032   ----------------------------------------
 BYTE   PATT
  POIN2 Label_0118A197
//  #05 //033   ----------------------------------------
 BYTE   PATT
  POIN2 Label_0118A1AD
//  #05 //034   ----------------------------------------
 BYTE   PATT
  POIN2 Label_0118A1B8
//  #05 //035   ----------------------------------------
 BYTE   PATT
  POIN2 Label_0118A19E
//  #05 //036   ----------------------------------------
 BYTE   PATT
  POIN2 Label_0118A197
//  #05 //037   ----------------------------------------
 BYTE   PATT
  POIN2 Label_0118A1C9
//  #05 //038   ----------------------------------------
 BYTE   PATT
  POIN2 Label_0118A1D4
//  #05 //039   ----------------------------------------
 BYTE   PATT
  POIN2 Label_0118A1DC
//  #05 //040   ----------------------------------------
 BYTE   W48
 BYTE   N44  Gn1  v072
 BYTE   W48
//  #05 //041   ----------------------------------------
 BYTE   PATT
  POIN2 Label_0118A1F4
//  #05 //042   ----------------------------------------
 BYTE   PATT
  POIN2 Label_0118A1D4
//  #05 //043   ----------------------------------------
 BYTE   PATT
  POIN2 Label_0118A1DC
//  #05 //044   ----------------------------------------
 BYTE   W48
 BYTE   N44  Gn1  v072
 BYTE   W48
//  #05 //045   ----------------------------------------
 BYTE   PATT
  POIN2 Label_0118A216
//  #05 //046   ----------------------------------------
 BYTE   PATT
  POIN2 Label_0118A223
//  #05 //047   ----------------------------------------
 BYTE   PATT
  POIN2 Label_0118A233
//  #05 //048   ----------------------------------------
 BYTE   PATT
  POIN2 Label_0118A23D
//  #05 //049   ----------------------------------------
 BYTE   PATT
  POIN2 Label_0118A24E
//  #05 //050   ----------------------------------------
 BYTE   PATT
  POIN2 Label_0118A25C
//  #05 //051   ----------------------------------------
 BYTE   PATT
  POIN2 Label_0118A269
//  #05 //052   ----------------------------------------
 BYTE   PATT
  POIN2 Label_0118A278
//  #05 //053   ----------------------------------------
 BYTE   PATT
  POIN2 Label_0118A289
//  #05 //054   ----------------------------------------
 BYTE   GoTo
  POIN2 Label_0118A197
//  #05 //055   ----------------------------------------
 BYTE   PATT
  POIN2 Label_0118A197
//  #05 //056   ----------------------------------------
 BYTE   PATT
  POIN2 Label_0118A19E
//  #05 //057   ----------------------------------------
 BYTE   N44  An1  v072
 BYTE   W48
 BYTE   W01
 BYTE   N44
 BYTE   W44
 BYTE   W03
//  #05 //058   ----------------------------------------
 BYTE   VOL   42*song33_mvl/mxv
 BYTE   W01
 BYTE   N44
 BYTE   W11
 BYTE   VOL   41*song33_mvl/mxv
 BYTE   W09
 BYTE   VOL   39*song33_mvl/mxv
 BYTE   W09
 BYTE   VOL   38*song33_mvl/mxv
 BYTE   W09
 BYTE   VOL   36*song33_mvl/mxv
 BYTE   W09
 BYTE   VOL   35*song33_mvl/mxv
 BYTE   N22  Gn1
 BYTE   W09
 BYTE   VOL   34*song33_mvl/mxv
 BYTE   W09
 BYTE   VOL   33*song33_mvl/mxv
 BYTE   W07
 BYTE   N23  An1
 BYTE   W02
 BYTE   VOL   32*song33_mvl/mxv
 BYTE   W09
 BYTE   VOL   30*song33_mvl/mxv
 BYTE   W09
 BYTE   VOL   30*song33_mvl/mxv
 BYTE   W03
//  #05 //059   ----------------------------------------
 BYTE   N01
 BYTE   W06
 BYTE   VOL   28*song33_mvl/mxv
 BYTE   W09
 BYTE   VOL   27*song33_mvl/mxv
 BYTE   W09
 BYTE   VOL   26*song33_mvl/mxv
 BYTE   W09
 BYTE   VOL   25*song33_mvl/mxv
 BYTE   W09
 BYTE   VOL   24*song33_mvl/mxv
 BYTE   W06
 BYTE   N44
 BYTE   W03
 BYTE   VOL   23*song33_mvl/mxv
 BYTE   W09
 BYTE   VOL   22*song33_mvl/mxv
 BYTE   W09
 BYTE   VOL   21*song33_mvl/mxv
 BYTE   W09
 BYTE   VOL   20*song33_mvl/mxv
 BYTE   W09
 BYTE   VOL   19*song33_mvl/mxv
 BYTE   W09
//  #05 //060   ----------------------------------------
 BYTE   VOL   17*song33_mvl/mxv
 BYTE   N44
 BYTE   W09
 BYTE   VOL   17*song33_mvl/mxv
 BYTE   W09
 BYTE   VOL   16*song33_mvl/mxv
 BYTE   W09
 BYTE   VOL   15*song33_mvl/mxv
 BYTE   W09
 BYTE   VOL   14*song33_mvl/mxv
 BYTE   W09
 BYTE   VOL   13*song33_mvl/mxv
 BYTE   W03
 BYTE   N22
 BYTE   W06
 BYTE   VOL   12*song33_mvl/mxv
 BYTE   W09
 BYTE   VOL   11*song33_mvl/mxv
 BYTE   W09
 BYTE   VOL   10*song33_mvl/mxv
 BYTE   N23  Gn1
 BYTE   W09
 BYTE   VOL   10*song33_mvl/mxv
 BYTE   W09
 BYTE   VOL   9*song33_mvl/mxv
 BYTE   W06
//  #05 //061   ----------------------------------------
 BYTE   N44  An1
 BYTE   W03
 BYTE   VOL   8*song33_mvl/mxv
 BYTE   W09
 BYTE   VOL   8*song33_mvl/mxv
 BYTE   W09
 BYTE   VOL   7*song33_mvl/mxv
 BYTE   W09
 BYTE   VOL   7*song33_mvl/mxv
 BYTE   W09
 BYTE   VOL   6*song33_mvl/mxv
 BYTE   W09
 BYTE   VOL   5*song33_mvl/mxv
 BYTE   W01
 BYTE   N44
 BYTE   W08
 BYTE   VOL   5*song33_mvl/mxv
 BYTE   W09
 BYTE   VOL   4*song33_mvl/mxv
 BYTE   W09
 BYTE   VOL   3*song33_mvl/mxv
 BYTE   W09
 BYTE   VOL   3*song33_mvl/mxv
 BYTE   W09
 BYTE   VOL   2*song33_mvl/mxv
 BYTE   W03
//  #05 //062   ----------------------------------------
 BYTE   W01
 BYTE   N44
 BYTE   W05
 BYTE   VOL   2*song33_mvl/mxv
 BYTE   W09
 BYTE   VOL   1*song33_mvl/mxv
 BYTE   W09
 BYTE   VOL   1*song33_mvl/mxv
 BYTE   W09
 BYTE   VOL   1*song33_mvl/mxv
 BYTE   W09
 BYTE   VOL   0*song33_mvl/mxv
 BYTE   W06
 BYTE   N22  Gn1
 BYTE   W03
 BYTE   VOL   0*song33_mvl/mxv
 BYTE   W09
 BYTE   VOL   0*song33_mvl/mxv
 BYTE   W09
 BYTE   VOL   0*song33_mvl/mxv
 BYTE   W04
 BYTE   N21  An1
 BYTE   W05
 BYTE   VOL   0*song33_mvl/mxv
 BYTE   W09
 BYTE   VOL   0*song33_mvl/mxv
 BYTE   W08
 BYTE   VOL   0*song33_mvl/mxv
 BYTE   FINE

//**************** Track 6 (Midi-Chn.5) ****************//

song33_006:
//  #06 //000   ----------------------------------------
 BYTE   KEYSH   song33_key+0
 BYTE   VOICE   110
 BYTE   MODT 0
 BYTE   LFOS 44
 BYTE   PAN   c_v-22
 BYTE   VOL   20*song33_mvl/mxv
 BYTE   BENDR  0
 BYTE   BENDR  0
 BYTE   W96
//  #06 //001   ----------------------------------------
 BYTE   W96
//  #06 //002   ----------------------------------------
 BYTE   W96
//  #06 //003   ----------------------------------------
 BYTE   W96
//  #06 //004   ----------------------------------------
 BYTE   W96
//  #06 //005   ----------------------------------------
 BYTE   W96
//  #06 //006   ----------------------------------------
Label_56CBBA:
 BYTE   W96
//  #06 //007   ----------------------------------------
 BYTE   W44
 BYTE   W03
 BYTE   N08  An3  v072
 BYTE   W08
 BYTE   Gn3  v060
 BYTE   W09
 BYTE   An3  v052
 BYTE   W08
 BYTE   En3  v072
 BYTE   W08
 BYTE   Dn3
 BYTE   W08
 BYTE   En3
 BYTE   W08
//  #06 //008   ----------------------------------------
 BYTE   W96
//  #06 //009   ----------------------------------------
Label_56CBCF:
 BYTE   W48
 BYTE   N08  Gn3  v072
 BYTE   W08
 BYTE   An3  v056
 BYTE   W08
 BYTE   Bn3  v064
 BYTE   W08
 BYTE   N16  An3  v072
 BYTE   W24
 BYTE   PEND 
//  #06 //010   ----------------------------------------
 BYTE   W96
//  #06 //011   ----------------------------------------
Label_56CBE0:
 BYTE   W44
 BYTE   W03
 BYTE   N08  An3  v072
 BYTE   W08
 BYTE   Gn3  v060
 BYTE   W08
 BYTE   An3  v052
 BYTE   W08
 BYTE   En3  v072
 BYTE   W08
 BYTE   Dn3
 BYTE   W09
 BYTE   En3
 BYTE   W08
 BYTE   PEND 
//  #06 //012   ----------------------------------------
 BYTE   W96
//  #06 //013   ----------------------------------------
 BYTE   PATT
  POIN2 Label_56CBCF
//  #06 //014   ----------------------------------------
 BYTE   W96
//  #06 //015   ----------------------------------------
Label_56CBFB:
 BYTE   W48
 BYTE   N08  An3  v084
 BYTE   W07
 BYTE   En3  v072
 BYTE   W08
 BYTE   Gn3  v084
 BYTE   W08
 BYTE   En3  v072
 BYTE   W08
 BYTE   An3  v084
 BYTE   W09
 BYTE   En3  v072
 BYTE   W08
 BYTE   PEND 
//  #06 //016   ----------------------------------------
 BYTE   W96
//  #06 //017   ----------------------------------------
Label_56CC11:
 BYTE   W48
 BYTE   N08  An3  v072
 BYTE   W08
 BYTE   Bn3
 BYTE   W07
 BYTE   Gn3
 BYTE   W09
 BYTE   N18  An3
 BYTE   W24
 BYTE   PEND 
//  #06 //018   ----------------------------------------
 BYTE   W96
//  #06 //019   ----------------------------------------
 BYTE   PATT
  POIN2 Label_56CBFB
//  #06 //020   ----------------------------------------
 BYTE   W96
//  #06 //021   ----------------------------------------
 BYTE   PATT
  POIN2 Label_56CC11
//  #06 //022   ----------------------------------------
Label_56CC2A:
 BYTE   N08  Gn3  v084
 BYTE   W15
 BYTE   Gn3  v072
 BYTE   W17
 BYTE   Gn3  v084
 BYTE   W15
 BYTE   Gn3  v072
 BYTE   W17
 BYTE   Gn3  v080
 BYTE   W16
 BYTE   Gn3  v072
 BYTE   W16
 BYTE   PEND 
//  #06 //023   ----------------------------------------
Label_56CC3E:
 BYTE   N08  Gn3  v084
 BYTE   W16
 BYTE   Gn3  v072
 BYTE   W15
 BYTE   Gn3  v080
 BYTE   W17
 BYTE   Gn3  v072
 BYTE   W16
 BYTE   Gn3  v076
 BYTE   W15
 BYTE   Gn3  v072
 BYTE   W17
 BYTE   PEND 
//  #06 //024   ----------------------------------------
Label_56CC52:
 BYTE   N08  Gn3  v084
 BYTE   W16
 BYTE   Gn3  v072
 BYTE   W17
 BYTE   Gn3  v084
 BYTE   W15
 BYTE   Gn3  v072
 BYTE   W16
 BYTE   Gn3  v080
 BYTE   W17
 BYTE   Gn3  v072
 BYTE   W15
 BYTE   PEND 
//  #06 //025   ----------------------------------------
 BYTE   W96
//  #06 //026   ----------------------------------------
 BYTE   PATT
  POIN2 Label_56CC52
//  #06 //027   ----------------------------------------
 BYTE   N08  Gn3  v084
 BYTE   W16
 BYTE   Gn3  v072
 BYTE   W16
 BYTE   Gn3  v080
 BYTE   W16
 BYTE   Gn3  v072
 BYTE   W16
 BYTE   Gn3  v076
 BYTE   W16
 BYTE   Gn3  v072
 BYTE   W16
//  #06 //028   ----------------------------------------
 BYTE   Gn3  v084
 BYTE   W16
 BYTE   Gn3  v072
 BYTE   W17
 BYTE   Gn3  v084
 BYTE   W15
 BYTE   Gn3  v072
 BYTE   W17
 BYTE   Gn3  v080
 BYTE   W16
 BYTE   Gn3  v072
 BYTE   W15
//  #06 //029   ----------------------------------------
 BYTE   W96
//  #06 //030   ----------------------------------------
 BYTE   W96
//  #06 //031   ----------------------------------------
 BYTE   PATT
  POIN2 Label_56CBE0
//  #06 //032   ----------------------------------------
 BYTE   W96
//  #06 //033   ----------------------------------------
 BYTE   PATT
  POIN2 Label_56CBCF
//  #06 //034   ----------------------------------------
 BYTE   W96
//  #06 //035   ----------------------------------------
 BYTE   W44
 BYTE   W02
 BYTE   N08  An3  v072
 BYTE   W08
 BYTE   Gn3  v060
 BYTE   W09
 BYTE   An3  v052
 BYTE   W08
 BYTE   En3  v072
 BYTE   W08
 BYTE   Dn3
 BYTE   W08
 BYTE   En3
 BYTE   W09
//  #06 //036   ----------------------------------------
 BYTE   W96
//  #06 //037   ----------------------------------------
 BYTE   W44
 BYTE   W03
 BYTE   Gn3
 BYTE   W08
 BYTE   An3  v056
 BYTE   W08
 BYTE   Bn3  v064
 BYTE   W08
 BYTE   N16  An3  v072
 BYTE   W24
 BYTE   W01
//  #06 //038   ----------------------------------------
 BYTE   W96
//  #06 //039   ----------------------------------------
Label_56CCC3:
 BYTE   W48
 BYTE   N08  An3  v084
 BYTE   W06
 BYTE   En3  v072
 BYTE   W09
 BYTE   Gn3  v084
 BYTE   W08
 BYTE   En3  v072
 BYTE   W08
 BYTE   An3  v084
 BYTE   W08
 BYTE   En3  v072
 BYTE   W09
 BYTE   PEND 
//  #06 //040   ----------------------------------------
 BYTE   W96
//  #06 //041   ----------------------------------------
 BYTE   W48
 BYTE   An3
 BYTE   W07
 BYTE   Bn3
 BYTE   W08
 BYTE   Gn3
 BYTE   W09
 BYTE   N18  An3
 BYTE   W24
//  #06 //042   ----------------------------------------
 BYTE   W96
//  #06 //043   ----------------------------------------
 BYTE   PATT
  POIN2 Label_56CCC3
//  #06 //044   ----------------------------------------
 BYTE   W96
//  #06 //045   ----------------------------------------
 BYTE   W48
 BYTE   N08  An3  v072
 BYTE   W07
 BYTE   Bn3
 BYTE   W08
 BYTE   Gn3
 BYTE   W09
 BYTE   N18  An3
 BYTE   W23
 BYTE   N08  Gn3  v084
 BYTE   W01
//  #06 //046   ----------------------------------------
 BYTE   W15
 BYTE   Gn3  v072
 BYTE   W17
 BYTE   Gn3  v084
 BYTE   W15
 BYTE   Gn3  v072
 BYTE   W17
 BYTE   Gn3  v080
 BYTE   W16
 BYTE   Gn3  v072
 BYTE   W15
 BYTE   Gn3  v084
 BYTE   W01
//  #06 //047   ----------------------------------------
 BYTE   W15
 BYTE   Gn3  v072
 BYTE   W16
 BYTE   Gn3  v080
 BYTE   W16
 BYTE   Gn3  v072
 BYTE   W17
 BYTE   Gn3  v076
 BYTE   W15
 BYTE   Gn3  v072
 BYTE   W17
//  #06 //048   ----------------------------------------
 BYTE   PATT
  POIN2 Label_56CC2A
//  #06 //049   ----------------------------------------
 BYTE   W96
//  #06 //050   ----------------------------------------
 BYTE   PATT
  POIN2 Label_56CC2A
//  #06 //051   ----------------------------------------
 BYTE   PATT
  POIN2 Label_56CC3E
//  #06 //052   ----------------------------------------
 BYTE   PATT
  POIN2 Label_56CC52
//  #06 //053   ----------------------------------------
 BYTE   W96
//  #06 //054   ----------------------------------------
 BYTE   GoTo
  POIN2 Label_56CBBA
//  #06 //055   ----------------------------------------
 BYTE   W96
//  #06 //056   ----------------------------------------
 BYTE   PATT
  POIN2 Label_56CBE0
//  #06 //057   ----------------------------------------
 BYTE   W96
//  #06 //058   ----------------------------------------
 BYTE   VOL   17*song33_mvl/mxv
 BYTE   W15
 BYTE   VOL   17*song33_mvl/mxv
 BYTE   W15
 BYTE   VOL   16*song33_mvl/mxv
 BYTE   W15
 BYTE   VOL   15*song33_mvl/mxv
 BYTE   W03
 BYTE   N08  Gn3  v072
 BYTE   W08
 BYTE   An3  v056
 BYTE   W04
 BYTE   VOL   14*song33_mvl/mxv
 BYTE   W04
 BYTE   N08  Bn3  v064
 BYTE   W08
 BYTE   N16  An3  v072
 BYTE   W03
 BYTE   VOL   13*song33_mvl/mxv
 BYTE   W15
 BYTE   VOL   12*song33_mvl/mxv
 BYTE   W06
//  #06 //059   ----------------------------------------
 BYTE   W09
 BYTE   VOL   11*song33_mvl/mxv
 BYTE   W15
 BYTE   VOL   10*song33_mvl/mxv
 BYTE   W15
 BYTE   VOL   10*song33_mvl/mxv
 BYTE   W15
 BYTE   VOL   9*song33_mvl/mxv
 BYTE   W15
 BYTE   VOL   8*song33_mvl/mxv
 BYTE   W15
 BYTE   VOL   8*song33_mvl/mxv
 BYTE   W12
//  #06 //060   ----------------------------------------
 BYTE   W03
 BYTE   VOL   7*song33_mvl/mxv
 BYTE   W15
 BYTE   VOL   7*song33_mvl/mxv
 BYTE   W15
 BYTE   VOL   6*song33_mvl/mxv
 BYTE   W13
 BYTE   N08
 BYTE   W02
 BYTE   VOL   5*song33_mvl/mxv
 BYTE   W06
 BYTE   N08  Gn3  v060
 BYTE   W09
 BYTE   VOL   5*song33_mvl/mxv
 BYTE   N08  An3  v052
 BYTE   W08
 BYTE   En3  v072
 BYTE   W07
 BYTE   VOL   4*song33_mvl/mxv
 BYTE   W01
 BYTE   N08  Dn3
 BYTE   W08
 BYTE   En3
 BYTE   W06
 BYTE   VOL   3*song33_mvl/mxv
 BYTE   W03
//  #06 //061   ----------------------------------------
 BYTE   W12
 BYTE   VOL   3*song33_mvl/mxv
 BYTE   W15
 BYTE   VOL   2*song33_mvl/mxv
 BYTE   W15
 BYTE   VOL   2*song33_mvl/mxv
 BYTE   W15
 BYTE   VOL   1*song33_mvl/mxv
 BYTE   W15
 BYTE   VOL   1*song33_mvl/mxv
 BYTE   W15
 BYTE   VOL   1*song33_mvl/mxv
 BYTE   W09
//  #06 //062   ----------------------------------------
 BYTE   W06
 BYTE   VOL   0*song33_mvl/mxv
 BYTE   W15
 BYTE   VOL   0*song33_mvl/mxv
 BYTE   W15
 BYTE   VOL   0*song33_mvl/mxv
 BYTE   W11
 BYTE   N08  Gn3
 BYTE   W04
 BYTE   VOL   0*song33_mvl/mxv
 BYTE   W04
 BYTE   N08  An3  v056
 BYTE   W08
 BYTE   Bn3  v064
 BYTE   W03
 BYTE   VOL   0*song33_mvl/mxv
 BYTE   W05
 BYTE   N16  An3  v072
 BYTE   W10
 BYTE   VOL   0*song33_mvl/mxv
 BYTE   W15
//  #06 //063   ----------------------------------------
 BYTE   VOL   0*song33_mvl/mxv
 BYTE   FINE

//**************** Track 7 (Midi-Chn.6) ****************//

song33_007:
//  #07 //000   ----------------------------------------
 BYTE   KEYSH   song33_key+0
 BYTE   VOICE   52
 BYTE   MODT 0
 BYTE   LFOS 44
 BYTE   PAN   c_v-22
 BYTE   VOL   22*song33_mvl/mxv
 BYTE   BENDR  104
 BYTE   W96
//  #07 //001   ----------------------------------------
 BYTE   W96
//  #07 //002   ----------------------------------------
 BYTE   W96
//  #07 //003   ----------------------------------------
 BYTE   W96
//  #07 //004   ----------------------------------------
 BYTE   W96
//  #07 //005   ----------------------------------------
 BYTE   W96
//  #07 //006   ----------------------------------------
Label_01189DB0:
 BYTE   W96
//  #07 //007   ----------------------------------------
 BYTE   W44
 BYTE   W03
 BYTE   N21  Bn3  v072
 BYTE   W14
 BYTE   W01
 BYTE   VOICE   52
 BYTE   W02
 BYTE   En2
 BYTE   N21  Dn4
 BYTE   W30
 BYTE   W01
 BYTE   VOL   9*song33_mvl/mxv
 BYTE   W01
//  #07 //008   ----------------------------------------
 BYTE   N40  An3  v092
 BYTE   W08
 BYTE   VOL   8*song33_mvl/mxv
 BYTE   W03
 BYTE   VOL   8*song33_mvl/mxv
 BYTE   W03
 BYTE   VOL   8*song33_mvl/mxv
 BYTE   W03
 BYTE   VOL   8*song33_mvl/mxv
 BYTE   W03
 BYTE   VOL   7*song33_mvl/mxv
 BYTE   W03
 BYTE   VOL   6*song33_mvl/mxv
 BYTE   W03
 BYTE   VOL   5*song33_mvl/mxv
 BYTE   W03
 BYTE   VOL   4*song33_mvl/mxv
 BYTE   W03
 BYTE   VOL   4*song33_mvl/mxv
 BYTE   W03
 BYTE   VOL   3*song33_mvl/mxv
 BYTE   W03
 BYTE   VOL   2*song33_mvl/mxv
 BYTE   W03
 BYTE   VOL   1*song33_mvl/mxv
 BYTE   W03
 BYTE   VOL   0*song33_mvl/mxv
 BYTE   W03
 BYTE   VOL   0*song33_mvl/mxv
 BYTE   W03
 BYTE   VOL   0*song33_mvl/mxv
 BYTE   W02
 BYTE   VOL   0*song33_mvl/mxv
 BYTE   W44
//  #07 //009   ----------------------------------------
 BYTE   VOL   21*song33_mvl/mxv
 BYTE   W96
//  #07 //010   ----------------------------------------
 BYTE   W96
//  #07 //011   ----------------------------------------
 BYTE   W44
 BYTE   W03
 BYTE   N21  Bn3  v072
 BYTE   W15
 BYTE   VOICE   52
 BYTE   W02
 BYTE   N21  Dn4
 BYTE   W30
 BYTE   VOICE   52
 BYTE   W02
//  #07 //012   ----------------------------------------
 BYTE   VOL   8*song33_mvl/mxv
 BYTE   N44  An3  v092
 BYTE   W09
 BYTE   VOL   8*song33_mvl/mxv
 BYTE   W03
 BYTE   VOL   8*song33_mvl/mxv
 BYTE   W03
 BYTE   VOL   7*song33_mvl/mxv
 BYTE   W03
 BYTE   VOL   7*song33_mvl/mxv
 BYTE   W03
 BYTE   VOL   6*song33_mvl/mxv
 BYTE   W03
 BYTE   VOL   5*song33_mvl/mxv
 BYTE   W03
 BYTE   VOL   5*song33_mvl/mxv
 BYTE   W03
 BYTE   VOL   4*song33_mvl/mxv
 BYTE   W03
 BYTE   VOL   3*song33_mvl/mxv
 BYTE   W03
 BYTE   VOL   2*song33_mvl/mxv
 BYTE   W03
 BYTE   VOL   1*song33_mvl/mxv
 BYTE   W03
 BYTE   VOL   0*song33_mvl/mxv
 BYTE   W03
 BYTE   VOL   0*song33_mvl/mxv
 BYTE   W03
 BYTE   VOL   0*song33_mvl/mxv
 BYTE   W03
 BYTE   VOL   0*song33_mvl/mxv
 BYTE   W44
 BYTE   W01
//  #07 //013   ----------------------------------------
 BYTE   VOL   21*song33_mvl/mxv
 BYTE   W96
//  #07 //014   ----------------------------------------
 BYTE   W96
//  #07 //015   ----------------------------------------
 BYTE   W96
//  #07 //016   ----------------------------------------
 BYTE   W96
//  #07 //017   ----------------------------------------
 BYTE   W96
//  #07 //018   ----------------------------------------
 BYTE   W96
//  #07 //019   ----------------------------------------
 BYTE   W96
//  #07 //020   ----------------------------------------
 BYTE   W96
//  #07 //021   ----------------------------------------
 BYTE   W96
//  #07 //022   ----------------------------------------
 BYTE   W96
//  #07 //023   ----------------------------------------
 BYTE   W96
//  #07 //024   ----------------------------------------
 BYTE   W96
//  #07 //025   ----------------------------------------
 BYTE   W96
//  #07 //026   ----------------------------------------
 BYTE   W96
//  #07 //027   ----------------------------------------
 BYTE   W96
//  #07 //028   ----------------------------------------
 BYTE   W96
//  #07 //029   ----------------------------------------
 BYTE   W96
//  #07 //030   ----------------------------------------
 BYTE   W96
//  #07 //031   ----------------------------------------
 BYTE   W44
 BYTE   W03
 BYTE   N21  Bn3  v072
 BYTE   W17
 BYTE   VOICE   52
 BYTE   N21  Dn4
 BYTE   W05
 BYTE   VOICE   52
 BYTE   W24
 BYTE   W03
//  #07 //032   ----------------------------------------
 BYTE   VOL   8*song33_mvl/mxv
 BYTE   N40  An3  v092
 BYTE   W09
 BYTE   VOL   8*song33_mvl/mxv
 BYTE   W06
 BYTE   VOL   7*song33_mvl/mxv
 BYTE   W03
 BYTE   VOL   7*song33_mvl/mxv
 BYTE   W03
 BYTE   VOL   6*song33_mvl/mxv
 BYTE   W03
 BYTE   VOL   5*song33_mvl/mxv
 BYTE   W03
 BYTE   VOL   4*song33_mvl/mxv
 BYTE   W03
 BYTE   VOL   4*song33_mvl/mxv
 BYTE   W03
 BYTE   VOL   3*song33_mvl/mxv
 BYTE   W03
 BYTE   VOL   2*song33_mvl/mxv
 BYTE   W03
 BYTE   VOL   2*song33_mvl/mxv
 BYTE   W03
 BYTE   VOL   1*song33_mvl/mxv
 BYTE   W03
 BYTE   VOL   0*song33_mvl/mxv
 BYTE   W03
 BYTE   VOL   0*song33_mvl/mxv
 BYTE   W03
 BYTE   VOL   0*song33_mvl/mxv
 BYTE   W02
 BYTE   VOL   0*song33_mvl/mxv
 BYTE   W42
 BYTE   VOL   22*song33_mvl/mxv
 BYTE   W01
//  #07 //033   ----------------------------------------
 BYTE   W96
//  #07 //034   ----------------------------------------
 BYTE   W96
//  #07 //035   ----------------------------------------
 BYTE   W44
 BYTE   W03
 BYTE   N21  Bn3  v072
 BYTE   W17
 BYTE   VOICE   52
 BYTE   N21  Dn4
 BYTE   W03
 BYTE   W01
 BYTE   VOICE   52
 BYTE   W28
//  #07 //036   ----------------------------------------
 BYTE   VOL   9*song33_mvl/mxv
 BYTE   N40  An3  v092
 BYTE   W09
 BYTE   VOL   8*song33_mvl/mxv
 BYTE   W06
 BYTE   VOL   8*song33_mvl/mxv
 BYTE   W03
 BYTE   VOL   8*song33_mvl/mxv
 BYTE   W03
 BYTE   VOL   7*song33_mvl/mxv
 BYTE   W03
 BYTE   VOL   7*song33_mvl/mxv
 BYTE   W03
 BYTE   VOL   6*song33_mvl/mxv
 BYTE   W03
 BYTE   VOL   5*song33_mvl/mxv
 BYTE   W03
 BYTE   VOL   4*song33_mvl/mxv
 BYTE   W03
 BYTE   VOL   3*song33_mvl/mxv
 BYTE   W03
 BYTE   VOL   3*song33_mvl/mxv
 BYTE   W03
 BYTE   VOL   2*song33_mvl/mxv
 BYTE   W03
 BYTE   VOL   1*song33_mvl/mxv
 BYTE   W03
 BYTE   VOL   0*song33_mvl/mxv
 BYTE   W03
 BYTE   VOL   0*song33_mvl/mxv
 BYTE   W03
 BYTE   VOL   0*song33_mvl/mxv
 BYTE   W03
 BYTE   VOL   0*song33_mvl/mxv
 BYTE   W36
 BYTE   W03
//  #07 //037   ----------------------------------------
 BYTE   VOL   22*song33_mvl/mxv
 BYTE   W96
//  #07 //038   ----------------------------------------
 BYTE   W96
//  #07 //039   ----------------------------------------
 BYTE   W96
//  #07 //040   ----------------------------------------
 BYTE   W96
//  #07 //041   ----------------------------------------
 BYTE   W96
//  #07 //042   ----------------------------------------
 BYTE   W96
//  #07 //043   ----------------------------------------
 BYTE   W96
//  #07 //044   ----------------------------------------
 BYTE   W96
//  #07 //045   ----------------------------------------
 BYTE   W96
//  #07 //046   ----------------------------------------
 BYTE   W96
//  #07 //047   ----------------------------------------
 BYTE   W96
//  #07 //048   ----------------------------------------
 BYTE   W96
//  #07 //049   ----------------------------------------
 BYTE   W96
//  #07 //050   ----------------------------------------
 BYTE   W96
//  #07 //051   ----------------------------------------
 BYTE   W96
//  #07 //052   ----------------------------------------
 BYTE   W96
//  #07 //053   ----------------------------------------
 BYTE   W96
//  #07 //054   ----------------------------------------
 BYTE   GoTo
  POIN2 Label_01189DB0
//  #07 //055   ----------------------------------------
 BYTE   W96
//  #07 //056   ----------------------------------------
 BYTE   W44
 BYTE   W03
 BYTE   N21  Bn3  v072
 BYTE   W16
 BYTE   W01
 BYTE   VOICE   52
 BYTE   N21  Dn4
 BYTE   W04
 BYTE   W01
 BYTE   VOICE   52
 BYTE   W24
 BYTE   W03
//  #07 //057   ----------------------------------------
 BYTE   VOL   8*song33_mvl/mxv
 BYTE   N40  An3  v092
 BYTE   W09
 BYTE   VOL   8*song33_mvl/mxv
 BYTE   W03
 BYTE   VOL   7*song33_mvl/mxv
 BYTE   W03
 BYTE   VOL   7*song33_mvl/mxv
 BYTE   W03
 BYTE   VOL   6*song33_mvl/mxv
 BYTE   W03
 BYTE   VOL   5*song33_mvl/mxv
 BYTE   W03
 BYTE   VOL   4*song33_mvl/mxv
 BYTE   W03
 BYTE   VOL   3*song33_mvl/mxv
 BYTE   W03
 BYTE   VOL   2*song33_mvl/mxv
 BYTE   W03
 BYTE   VOL   1*song33_mvl/mxv
 BYTE   W03
 BYTE   VOL   0*song33_mvl/mxv
 BYTE   W03
 BYTE   VOL   0*song33_mvl/mxv
 BYTE   W03
 BYTE   VOL   0*song33_mvl/mxv
 BYTE   W54
//  #07 //058   ----------------------------------------
 BYTE   VOL   19*song33_mvl/mxv
 BYTE   W72
 BYTE   VOL   17*song33_mvl/mxv
 BYTE   W24
//  #07 //059   ----------------------------------------
 BYTE   VOL   17*song33_mvl/mxv
 BYTE   W03
 BYTE   VOL   16*song33_mvl/mxv
 BYTE   W12
 BYTE   VOL   15*song33_mvl/mxv
 BYTE   W15
 BYTE   VOL   14*song33_mvl/mxv
 BYTE   W12
 BYTE   VOL   13*song33_mvl/mxv
 BYTE   W15
 BYTE   VOL   12*song33_mvl/mxv
 BYTE   W12
 BYTE   VOL   11*song33_mvl/mxv
 BYTE   W15
 BYTE   VOL   10*song33_mvl/mxv
 BYTE   W12
//  #07 //060   ----------------------------------------
 BYTE   VOL   10*song33_mvl/mxv
 BYTE   W15
 BYTE   VOL   9*song33_mvl/mxv
 BYTE   W15
 BYTE   VOL   8*song33_mvl/mxv
 BYTE   W12
 BYTE   VOL   8*song33_mvl/mxv
 BYTE   W06
 BYTE   N21  Bn3  v072
 BYTE   W09
 BYTE   VOL   7*song33_mvl/mxv
 BYTE   W07
 BYTE   N21  Dn4
 BYTE   W05
 BYTE   VOL   7*song33_mvl/mxv
 BYTE   W15
 BYTE   VOL   6*song33_mvl/mxv
 BYTE   W12
//  #07 //061   ----------------------------------------
 BYTE   VOL   1*song33_mvl/mxv
 BYTE   N40  An3  v092
 BYTE   W09
 BYTE   VOL   1*song33_mvl/mxv
 BYTE   W03
 BYTE   VOL   1*song33_mvl/mxv
 BYTE   W03
 BYTE   VOL   1*song33_mvl/mxv
 BYTE   W03
 BYTE   VOL   0*song33_mvl/mxv
 BYTE   W03
 BYTE   VOL   0*song33_mvl/mxv
 BYTE   W03
 BYTE   VOL   0*song33_mvl/mxv
 BYTE   W03
 BYTE   VOL   0*song33_mvl/mxv
 BYTE   W03
 BYTE   VOL   0*song33_mvl/mxv
 BYTE   W03
 BYTE   VOL   0*song33_mvl/mxv
 BYTE   W03
 BYTE   VOL   0*song33_mvl/mxv
 BYTE   W03
 BYTE   VOL   0*song33_mvl/mxv
 BYTE   W03
 BYTE   VOL   0*song33_mvl/mxv
 BYTE   W15
 BYTE   VOL   0*song33_mvl/mxv
 BYTE   W12
 BYTE   VOL   0*song33_mvl/mxv
 BYTE   W15
 BYTE   VOL   0*song33_mvl/mxv
 BYTE   W12
//  #07 //062   ----------------------------------------
 BYTE   VOL   0*song33_mvl/mxv
 BYTE   W15
 BYTE   VOL   0*song33_mvl/mxv
 BYTE   W12
 BYTE   VOL   0*song33_mvl/mxv
 BYTE   W15
 BYTE   VOL   0*song33_mvl/mxv
 BYTE   W12
 BYTE   VOL   0*song33_mvl/mxv
 BYTE   W15
 BYTE   VOL   0*song33_mvl/mxv
 BYTE   W15
 BYTE   VOL   0*song33_mvl/mxv
 BYTE   W10
 BYTE   VOL   0*song33_mvl/mxv
 BYTE   FINE

//**************** Track 8 (Midi-Chn.7) ****************//

song33_008:
//  #08 //000   ----------------------------------------
 BYTE   KEYSH   song33_key+0
 BYTE   VOICE   116
 BYTE   MODT 0
 BYTE   LFOS 44
 BYTE   PAN   c_v-32
 BYTE   VOL   25*song33_mvl/mxv
 BYTE   W96
//  #08 //001   ----------------------------------------
 BYTE   W96
//  #08 //002   ----------------------------------------
Label_0118943A:
 BYTE   N08  An3  v092
 BYTE   W16
 BYTE   N08
 BYTE   W32
 BYTE   N08
 BYTE   W16
 BYTE   N08
 BYTE   W32
 BYTE   PEND 
//  #08 //003   ----------------------------------------
Label_01189445:
 BYTE   N08  An3  v092
 BYTE   W16
 BYTE   N08
 BYTE   W32
 BYTE   N08
 BYTE   W24
 BYTE   N08
 BYTE   W24
 BYTE   PEND 
//  #08 //004   ----------------------------------------
Label_01189450:
 BYTE   N08  An3  v092
 BYTE   W15
 BYTE   N08
 BYTE   W32
 BYTE   W01
 BYTE   N08
 BYTE   W16
 BYTE   N08
 BYTE   W30
 BYTE   W01
 BYTE   N08
 BYTE   W01
 BYTE   PEND 
//  #08 //005   ----------------------------------------
Label_0118945F:
 BYTE   W15
 BYTE   N08  An3  v092
 BYTE   W32
 BYTE   N08
 BYTE   W24
 BYTE   W01
 BYTE   N08
 BYTE   W24
 BYTE   PEND 
//  #08 //006   ----------------------------------------
Label_0118946A:
//  #08 //007   ----------------------------------------
 BYTE   PATT
  POIN2 Label_0118943A
//  #08 //008   ----------------------------------------
 BYTE   PATT
  POIN2 Label_01189445
//  #08 //009   ----------------------------------------
 BYTE   PATT
  POIN2 Label_01189450
//  #08 //010   ----------------------------------------
 BYTE   PATT
  POIN2 Label_0118945F
//  #08 //011   ----------------------------------------
 BYTE   PATT
  POIN2 Label_01189450
//  #08 //012   ----------------------------------------
 BYTE   PATT
  POIN2 Label_0118945F
//  #08 //013   ----------------------------------------
 BYTE   PATT
  POIN2 Label_0118943A
//  #08 //014   ----------------------------------------
 BYTE   PATT
  POIN2 Label_01189445
//  #08 //015   ----------------------------------------
 BYTE   PATT
  POIN2 Label_0118943A
//  #08 //016   ----------------------------------------
 BYTE   N08  An3  v092
 BYTE   W16
 BYTE   N08
 BYTE   W32
 BYTE   N08
 BYTE   W15
 BYTE   N08
 BYTE   W17
 BYTE   N08
 BYTE   W16
//  #08 //017   ----------------------------------------
 BYTE   PATT
  POIN2 Label_0118943A
//  #08 //018   ----------------------------------------
 BYTE   PATT
  POIN2 Label_01189445
//  #08 //019   ----------------------------------------
 BYTE   PATT
  POIN2 Label_01189450
//  #08 //020   ----------------------------------------
Label_011894B2:
 BYTE   W15
 BYTE   N08  An3  v092
 BYTE   W32
 BYTE   N08
 BYTE   W16
 BYTE   N08
 BYTE   W17
 BYTE   N08
 BYTE   W16
 BYTE   PEND 
//  #08 //021   ----------------------------------------
 BYTE   PATT
  POIN2 Label_01189450
//  #08 //022   ----------------------------------------
 BYTE   PATT
  POIN2 Label_0118945F
//  #08 //023   ----------------------------------------
Label_011894C8:
 BYTE   N08  An3  v088
 BYTE   W16
 BYTE   Cn3  v056
 BYTE   W08
 BYTE   An3  v088
 BYTE   W16
 BYTE   Cn3  v056
 BYTE   W08
 BYTE   An3  v088
 BYTE   W16
 BYTE   Cn3  v056
 BYTE   W08
 BYTE   An3  v064
 BYTE   W08
 BYTE   N08
 BYTE   W08
 BYTE   An3  v084
 BYTE   W08
 BYTE   PEND 
//  #08 //024   ----------------------------------------
 BYTE   PATT
  POIN2 Label_011894C8
//  #08 //025   ----------------------------------------
Label_011894E9:
 BYTE   N08  An3  v088
 BYTE   W16
 BYTE   Cn3  v056
 BYTE   W08
 BYTE   An3  v088
 BYTE   W16
 BYTE   Cn3  v056
 BYTE   W08
 BYTE   An3  v088
 BYTE   W16
 BYTE   Cn3  v056
 BYTE   W08
 BYTE   An3  v064
 BYTE   W08
 BYTE   N08
 BYTE   W08
 BYTE   N07  An3  v084
 BYTE   W08
 BYTE   PEND 
//  #08 //026   ----------------------------------------
Label_01189506:
 BYTE   N01  An3  v088
 BYTE   W16
 BYTE   N08  Cn3  v056
 BYTE   W08
 BYTE   An3  v088
 BYTE   W16
 BYTE   Cn3  v056
 BYTE   W08
 BYTE   An3  v064
 BYTE   W08
 BYTE   N08
 BYTE   W08
 BYTE   An3  v084
 BYTE   W08
 BYTE   An3  v092
 BYTE   W24
 BYTE   PEND 
//  #08 //027   ----------------------------------------
 BYTE   PATT
  POIN2 Label_011894C8
//  #08 //028   ----------------------------------------
 BYTE   PATT
  POIN2 Label_011894C8
//  #08 //029   ----------------------------------------
 BYTE   PATT
  POIN2 Label_011894E9
//  #08 //030   ----------------------------------------
 BYTE   PATT
  POIN2 Label_01189506
//  #08 //031   ----------------------------------------
 BYTE   PATT
  POIN2 Label_01189450
//  #08 //032   ----------------------------------------
 BYTE   PATT
  POIN2 Label_0118945F
//  #08 //033   ----------------------------------------
Label_0118953E:
 BYTE   N08  An3  v092
 BYTE   W15
 BYTE   N08
 BYTE   W32
 BYTE   N08
 BYTE   W17
 BYTE   N08
 BYTE   W30
 BYTE   W01
 BYTE   N08
 BYTE   W01
 BYTE   PEND 
//  #08 //034   ----------------------------------------
Label_0118954C:
 BYTE   W15
 BYTE   N08  An3  v092
 BYTE   W32
 BYTE   N08
 BYTE   W24
 BYTE   N08
 BYTE   W24
 BYTE   W01
 BYTE   PEND 
//  #08 //035   ----------------------------------------
 BYTE   PATT
  POIN2 Label_0118953E
//  #08 //036   ----------------------------------------
 BYTE   PATT
  POIN2 Label_0118954C
//  #08 //037   ----------------------------------------
 BYTE   PATT
  POIN2 Label_01189450
//  #08 //038   ----------------------------------------
 BYTE   PATT
  POIN2 Label_0118945F
//  #08 //039   ----------------------------------------
 BYTE   PATT
  POIN2 Label_01189450
//  #08 //040   ----------------------------------------
 BYTE   PATT
  POIN2 Label_011894B2
//  #08 //041   ----------------------------------------
 BYTE   PATT
  POIN2 Label_01189450
//  #08 //042   ----------------------------------------
 BYTE   PATT
  POIN2 Label_0118945F
//  #08 //043   ----------------------------------------
 BYTE   PATT
  POIN2 Label_0118953E
//  #08 //044   ----------------------------------------
 BYTE   W15
 BYTE   N08  An3  v092
 BYTE   W32
 BYTE   N08
 BYTE   W15
 BYTE   N08
 BYTE   W17
 BYTE   N08
 BYTE   W17
//  #08 //045   ----------------------------------------
 BYTE   PATT
  POIN2 Label_0118953E
//  #08 //046   ----------------------------------------
 BYTE   W15
 BYTE   N08  An3  v092
 BYTE   W32
 BYTE   N08
 BYTE   W24
 BYTE   N08
 BYTE   W24
 BYTE   An3  v088
 BYTE   W01
//  #08 //047   ----------------------------------------
Label_011895A0:
 BYTE   W15
 BYTE   N08  Cn3  v056
 BYTE   W08
 BYTE   An3  v088
 BYTE   W16
 BYTE   Cn3  v056
 BYTE   W09
 BYTE   An3  v088
 BYTE   W16
 BYTE   Cn3  v056
 BYTE   W07
 BYTE   An3  v064
 BYTE   W08
 BYTE   N08
 BYTE   W08
 BYTE   An3  v084
 BYTE   W08
 BYTE   An3  v088
 BYTE   W01
 BYTE   PEND 
//  #08 //048   ----------------------------------------
Label_011895BD:
 BYTE   W15
 BYTE   N08  Cn3  v056
 BYTE   W08
 BYTE   An3  v088
 BYTE   W16
 BYTE   Cn3  v056
 BYTE   W09
 BYTE   An3  v088
 BYTE   W16
 BYTE   Cn3  v056
 BYTE   W07
 BYTE   An3  v064
 BYTE   W08
 BYTE   N08
 BYTE   W08
 BYTE   An3  v084
 BYTE   W09
 BYTE   PEND 
//  #08 //049   ----------------------------------------
Label_011895D7:
 BYTE   N08  An3  v088
 BYTE   W16
 BYTE   Cn3  v056
 BYTE   W08
 BYTE   An3  v088
 BYTE   W16
 BYTE   Cn3  v056
 BYTE   W08
 BYTE   An3  v088
 BYTE   W16
 BYTE   Cn3  v056
 BYTE   W08
 BYTE   An3  v064
 BYTE   W08
 BYTE   N08
 BYTE   W08
 BYTE   N07  An3  v084
 BYTE   W07
 BYTE   N01  An3  v088
 BYTE   W01
 BYTE   PEND 
//  #08 //050   ----------------------------------------
 BYTE   W15
 BYTE   N08  Cn3  v056
 BYTE   W08
 BYTE   An3  v088
 BYTE   W16
 BYTE   Cn3  v056
 BYTE   W08
 BYTE   An3  v064
 BYTE   W08
 BYTE   N08
 BYTE   W08
 BYTE   An3  v084
 BYTE   W09
 BYTE   An3  v092
 BYTE   W23
 BYTE   An3  v088
 BYTE   W01
//  #08 //051   ----------------------------------------
 BYTE   PATT
  POIN2 Label_011895A0
//  #08 //052   ----------------------------------------
 BYTE   PATT
  POIN2 Label_011895BD
//  #08 //053   ----------------------------------------
 BYTE   PATT
  POIN2 Label_011895D7
//  #08 //054   ----------------------------------------
 BYTE   W15
 BYTE   N08  Cn3  v056
 BYTE   W08
 BYTE   An3  v088
 BYTE   W16
 BYTE   Cn3  v056
 BYTE   W08
 BYTE   An3  v064
 BYTE   W08
 BYTE   N08
 BYTE   W08
 BYTE   An3  v084
 BYTE   W09
 BYTE   An3  v092
 BYTE   W24
//  #08 //055   ----------------------------------------
 BYTE   GoTo
  POIN2 Label_0118946A
//  #08 //056   ----------------------------------------
 BYTE   PATT
  POIN2 Label_0118943A
//  #08 //057   ----------------------------------------
 BYTE   PATT
  POIN2 Label_01189445
//  #08 //058   ----------------------------------------
 BYTE   PATT
  POIN2 Label_01189450
//  #08 //059   ----------------------------------------
 BYTE   VOL   25*song33_mvl/mxv
 BYTE   W03
 BYTE   VOL   24*song33_mvl/mxv
 BYTE   W12
 BYTE   VOL   23*song33_mvl/mxv
 BYTE   N08  An3  v092
 BYTE   W12
 BYTE   VOL   22*song33_mvl/mxv
 BYTE   W12
 BYTE   VOL   21*song33_mvl/mxv
 BYTE   W08
 BYTE   N08
 BYTE   W04
 BYTE   VOL   20*song33_mvl/mxv
 BYTE   W12
 BYTE   VOL   19*song33_mvl/mxv
 BYTE   W09
 BYTE   N08
 BYTE   W06
 BYTE   VOL   17*song33_mvl/mxv
 BYTE   W12
 BYTE   VOL   17*song33_mvl/mxv
 BYTE   W06
//  #08 //060   ----------------------------------------
 BYTE   N08
 BYTE   W06
 BYTE   VOL   16*song33_mvl/mxv
 BYTE   W09
 BYTE   N08
 BYTE   W03
 BYTE   VOL   15*song33_mvl/mxv
 BYTE   W12
 BYTE   VOL   14*song33_mvl/mxv
 BYTE   W15
 BYTE   VOL   13*song33_mvl/mxv
 BYTE   W03
 BYTE   N08
 BYTE   W09
 BYTE   VOL   12*song33_mvl/mxv
 BYTE   W07
 BYTE   N08
 BYTE   W05
 BYTE   VOL   11*song33_mvl/mxv
 BYTE   W12
 BYTE   VOL   10*song33_mvl/mxv
 BYTE   W12
 BYTE   VOL   10*song33_mvl/mxv
 BYTE   W02
 BYTE   N08
 BYTE   W01
//  #08 //061   ----------------------------------------
 BYTE   W12
 BYTE   VOL   9*song33_mvl/mxv
 BYTE   W03
 BYTE   N08
 BYTE   W09
 BYTE   VOL   8*song33_mvl/mxv
 BYTE   W12
 BYTE   VOL   8*song33_mvl/mxv
 BYTE   W11
 BYTE   N08
 BYTE   W01
 BYTE   VOL   7*song33_mvl/mxv
 BYTE   W12
 BYTE   VOL   7*song33_mvl/mxv
 BYTE   W12
 BYTE   VOL   6*song33_mvl/mxv
 BYTE   N08
 BYTE   W15
 BYTE   VOL   5*song33_mvl/mxv
 BYTE   W09
//  #08 //062   ----------------------------------------
 BYTE   N08
 BYTE   W03
 BYTE   VOL   5*song33_mvl/mxv
 BYTE   W12
 BYTE   VOL   4*song33_mvl/mxv
 BYTE   W01
 BYTE   N08
 BYTE   W11
 BYTE   VOL   3*song33_mvl/mxv
 BYTE   W12
 BYTE   VOL   3*song33_mvl/mxv
 BYTE   W09
 BYTE   N08
 BYTE   W06
 BYTE   VOL   2*song33_mvl/mxv
 BYTE   W10
 BYTE   N08
 BYTE   W02
 BYTE   VOL   2*song33_mvl/mxv
 BYTE   W12
 BYTE   VOL   1*song33_mvl/mxv
 BYTE   W12
 BYTE   VOL   1*song33_mvl/mxv
 BYTE   W06
//  #08 //063   ----------------------------------------
 BYTE   W06
 BYTE   VOL   1*song33_mvl/mxv
 BYTE   W15
 BYTE   VOL   0*song33_mvl/mxv
 BYTE   W12
 BYTE   VOL   0*song33_mvl/mxv
 BYTE   W12
 BYTE   VOL   0*song33_mvl/mxv
 BYTE   W12
 BYTE   VOL   0*song33_mvl/mxv
 BYTE   W12
 BYTE   VOL   0*song33_mvl/mxv
 BYTE   W15
 BYTE   VOL   0*song33_mvl/mxv
 BYTE   W10
 BYTE   VOL   0*song33_mvl/mxv
 BYTE   FINE

//**************** Track 9 (Midi-Chn.8) ****************//

song33_009:
//  #09 //000   ----------------------------------------
 BYTE   KEYSH   song33_key+0
 BYTE   VOICE   124
 BYTE   MODT 0
 BYTE   LFOS 44
 BYTE   PAN   c_v+0
 BYTE   VOL   54*song33_mvl/mxv
 BYTE   BENDR  100
 BYTE   W96
//  #09 //001   ----------------------------------------
 BYTE   W96
//  #09 //002   ----------------------------------------
 BYTE   N08  Fs2  v116
 BYTE   W15
 BYTE   Fs2  v032
 BYTE   W01
 BYTE   Fs1  v072
 BYTE   W08
 BYTE   Fs2
 BYTE   W08
 BYTE   N07  Fs2  v052
 BYTE   W08
 BYTE   N08  Fs1  v072
 BYTE   N01  Fs2  v052
 BYTE   W08
 BYTE   N08  Fs2  v116
 BYTE   W15
 BYTE   Fs2  v032
 BYTE   W01
 BYTE   Fs1  v072
 BYTE   W08
 BYTE   Fs2
 BYTE   W08
 BYTE   N07  Fs2  v052
 BYTE   W07
 BYTE   N08  Fs1  v072
 BYTE   W01
 BYTE   N01  Fs2  v052
 BYTE   W08
//  #09 //003   ----------------------------------------
 BYTE   N08  Fs2  v116
 BYTE   W15
 BYTE   Fs1  v072
 BYTE   N08  Fs2  v032
 BYTE   W09
 BYTE   Fs2  v072
 BYTE   W08
 BYTE   N07  Fs2  v052
 BYTE   W07
 BYTE   N08  Fs1  v072
 BYTE   W01
 BYTE   N01  Fs2  v052
 BYTE   W08
 BYTE   N08  Fs2  v116
 BYTE   W15
 BYTE   Fs1  v072
 BYTE   N08  Fs2  v032
 BYTE   W09
 BYTE   Fs2  v072
 BYTE   W08
 BYTE   N07  Fs2  v052
 BYTE   W07
 BYTE   N08  Fs1  v072
 BYTE   W01
 BYTE   N01  Fs2  v052
 BYTE   W08
//  #09 //004   ----------------------------------------
 BYTE   N08  Fs2  v116
 BYTE   W15
 BYTE   Fs1  v072
 BYTE   W01
 BYTE   Fs2  v032
 BYTE   W08
 BYTE   Fs2  v072
 BYTE   W08
 BYTE   N07  Fs2  v052
 BYTE   W08
 BYTE   N08  Fs1  v072
 BYTE   N01  Fs2  v052
 BYTE   W08
 BYTE   Fs2  v116
 BYTE   W15
 BYTE   N08  Fs2  v032
 BYTE   W01
 BYTE   Fs1  v072
 BYTE   W08
 BYTE   Fs2
 BYTE   W08
 BYTE   N07  Fs2  v052
 BYTE   W07
 BYTE   N08  Fs1  v072
 BYTE   W01
 BYTE   N01  Fs2  v052
 BYTE   W08
//  #09 //005   ----------------------------------------
 BYTE   N08  Fs2  v116
 BYTE   W15
 BYTE   Fs1  v072
 BYTE   N08  Fs2  v032
 BYTE   W09
 BYTE   Fs2  v072
 BYTE   W08
 BYTE   N07  Fs2  v052
 BYTE   W07
 BYTE   N08  Fs1  v072
 BYTE   W01
 BYTE   N01  Fs2  v052
 BYTE   W08
 BYTE   N02  Fs2  v032
 BYTE   W02
 BYTE   N05  Fs2  v056
 BYTE   W06
 BYTE   N02  Fs2  v064
 BYTE   W07
 BYTE   N08  Fs1  v072
 BYTE   W01
 BYTE   N07  Fs2  v052
 BYTE   W08
 BYTE   N01  Fs2  v072
 BYTE   W15
 BYTE   N08  Fs1
 BYTE   W09
//  #09 //006   ----------------------------------------
Label_0118B0B9:
 BYTE   N08  Ds2  v092
 BYTE   W15
 BYTE   Fs1  v072
 BYTE   N08  Ds2  v052
 BYTE   W08
 BYTE   N07  Ds2  v092
 BYTE   W08
 BYTE   N01  Ds2  v072
 BYTE   W08
 BYTE   N08  Fs1
 BYTE   N08  Ds2  v056
 BYTE   W09
 BYTE   Ds2  v092
 BYTE   W14
 BYTE   Ds2  v052
 BYTE   W01
 BYTE   Fs1  v072
 BYTE   W08
 BYTE   N07  Ds2  v092
 BYTE   W07
 BYTE   N01  Ds2  v072
 BYTE   W08
 BYTE   N08  Fs1
 BYTE   W01
 BYTE   Ds2  v056
 BYTE   W09
 BYTE   PEND 
//  #09 //007   ----------------------------------------
Label_0118B0E9:
 BYTE   N08  Ds2  v092
 BYTE   W14
 BYTE   Fs1  v072
 BYTE   W01
 BYTE   Ds2  v052
 BYTE   W08
 BYTE   N07  Ds2  v092
 BYTE   W08
 BYTE   N01  Ds2  v072
 BYTE   W07
 BYTE   N08  Fs1
 BYTE   W01
 BYTE   Ds2  v056
 BYTE   W09
 BYTE   Ds2  v092
 BYTE   W08
 BYTE   N06  Ds2  v060
 BYTE   W06
 BYTE   N08  Fs1  v072
 BYTE   N01  Ds2  v068
 BYTE   W09
 BYTE   N07  Ds2  v084
 BYTE   W07
 BYTE   N01  Ds2  v064
 BYTE   W08
 BYTE   N08  Fs1  v072
 BYTE   W01
 BYTE   Ds2  v080
 BYTE   W09
 BYTE   PEND 
//  #09 //008   ----------------------------------------
Label_0118B11F:
 BYTE   N08  Ds2  v092
 BYTE   W14
 BYTE   Fs1  v072
 BYTE   W01
 BYTE   Ds2  v052
 BYTE   W09
 BYTE   N07  Ds2  v092
 BYTE   W07
 BYTE   N01  Ds2  v072
 BYTE   W08
 BYTE   N08  Fs1
 BYTE   W01
 BYTE   Ds2  v056
 BYTE   W08
 BYTE   Ds2  v092
 BYTE   W15
 BYTE   Fs1  v072
 BYTE   N08  Ds2  v052
 BYTE   W08
 BYTE   N07  Ds2  v092
 BYTE   W08
 BYTE   N01  Ds2  v072
 BYTE   W07
 BYTE   N08  Fs1
 BYTE   W01
 BYTE   Ds2  v056
 BYTE   W09
 BYTE   PEND 
//  #09 //009   ----------------------------------------
 BYTE   Ds2  v092
 BYTE   W14
 BYTE   Fs1  v072
 BYTE   W01
 BYTE   Ds2  v052
 BYTE   W09
 BYTE   N07  Ds2  v092
 BYTE   W07
 BYTE   N01  Ds2  v072
 BYTE   W07
 BYTE   N08  Fs1
 BYTE   W02
 BYTE   Ds2  v056
 BYTE   W08
 BYTE   Ds2  v092
 BYTE   W08
 BYTE   N06  Ds2  v060
 BYTE   W06
 BYTE   N08  Fs1  v072
 BYTE   W01
 BYTE   N01  Ds2  v068
 BYTE   W08
 BYTE   N08  Ds2  v084
 BYTE   W15
 BYTE   Fs1  v072
 BYTE   W10
//  #09 //010   ----------------------------------------
 BYTE   PATT
  POIN2 Label_0118B0B9
//  #09 //011   ----------------------------------------
 BYTE   PATT
  POIN2 Label_0118B0E9
//  #09 //012   ----------------------------------------
 BYTE   PATT
  POIN2 Label_0118B11F
//  #09 //013   ----------------------------------------
 BYTE   N08  Ds2  v092
 BYTE   W14
 BYTE   Fs1  v072
 BYTE   W01
 BYTE   Ds2  v052
 BYTE   W09
 BYTE   N07  Ds2  v092
 BYTE   W07
 BYTE   N01  Ds2  v072
 BYTE   W07
 BYTE   N08  Fs1
 BYTE   W02
 BYTE   Ds2  v056
 BYTE   W08
 BYTE   Ds2  v092
 BYTE   W08
 BYTE   N06  Ds2  v060
 BYTE   W06
 BYTE   N08  Fs1  v072
 BYTE   W01
 BYTE   N01  Ds2  v068
 BYTE   W08
 BYTE   N08  Ds2  v084
 BYTE   W24
 BYTE   W01
//  #09 //014   ----------------------------------------
 BYTE   Ds2  v092
 BYTE   W15
 BYTE   Fs1  v072
 BYTE   N08  Ds2  v052
 BYTE   W08
 BYTE   N07  Ds2  v092
 BYTE   W08
 BYTE   N01  Ds2  v072
 BYTE   W08
 BYTE   N08  Ds2  v056
 BYTE   W01
 BYTE   Fs1  v072
 BYTE   W08
 BYTE   Ds2  v092
 BYTE   W14
 BYTE   Ds2  v052
 BYTE   W02
 BYTE   Fs1  v072
 BYTE   W07
 BYTE   N07  Ds2  v092
 BYTE   W07
 BYTE   N01  Ds2  v072
 BYTE   W09
 BYTE   N08  Fs1
 BYTE   N08  Ds2  v056
 BYTE   W09
//  #09 //015   ----------------------------------------
 BYTE   Ds2  v092
 BYTE   W15
 BYTE   Fs1  v072
 BYTE   N08  Ds2  v052
 BYTE   W08
 BYTE   N07  Ds2  v092
 BYTE   W08
 BYTE   N01  Ds2  v072
 BYTE   W08
 BYTE   N08  Fs1
 BYTE   N08  Ds2  v056
 BYTE   W08
 BYTE   Ds2  v092
 BYTE   W08
 BYTE   Ds2  v052
 BYTE   W08
 BYTE   Fs1  v072
 BYTE   W01
 BYTE   N07  Ds2
 BYTE   W07
 BYTE   N01  Ds2  v056
 BYTE   W09
 BYTE   N08  Ds2  v072
 BYTE   W07
 BYTE   Fs1
 BYTE   W01
 BYTE   Ds2  v048
 BYTE   W08
//  #09 //016   ----------------------------------------
 BYTE   Ds2  v092
 BYTE   W15
 BYTE   Fs1  v072
 BYTE   N08  Ds2  v052
 BYTE   W09
 BYTE   N07  Ds2  v092
 BYTE   W07
 BYTE   N01  Ds2  v072
 BYTE   W08
 BYTE   N08  Fs1
 BYTE   W01
 BYTE   Ds2  v056
 BYTE   W08
 BYTE   Ds2  v092
 BYTE   W15
 BYTE   Fs1  v072
 BYTE   N08  Ds2  v052
 BYTE   W08
 BYTE   N07  Ds2  v092
 BYTE   W08
 BYTE   N01  Ds2  v072
 BYTE   W07
 BYTE   N08  Fs1
 BYTE   W01
 BYTE   Ds2  v056
 BYTE   W09
//  #09 //017   ----------------------------------------
 BYTE   Ds2  v092
 BYTE   W14
 BYTE   Fs1  v072
 BYTE   W01
 BYTE   Ds2  v052
 BYTE   W09
 BYTE   N07  Ds2  v092
 BYTE   W07
 BYTE   N01  Ds2  v072
 BYTE   W07
 BYTE   N08  Fs1
 BYTE   W02
 BYTE   N07  Ds2  v056
 BYTE   W07
 BYTE   N01  Ds2  v084
 BYTE   W09
 BYTE   N08  Ds2  v056
 BYTE   W06
 BYTE   Fs1  v072
 BYTE   W02
 BYTE   Ds2
 BYTE   W08
 BYTE   Ds2  v088
 BYTE   W14
 BYTE   Fs1  v072
 BYTE   W10
//  #09 //018   ----------------------------------------
 BYTE   PATT
  POIN2 Label_0118B11F
//  #09 //019   ----------------------------------------
 BYTE   N08  Ds2  v092
 BYTE   W14
 BYTE   Fs1  v072
 BYTE   W01
 BYTE   Ds2  v052
 BYTE   W09
 BYTE   N07  Ds2  v092
 BYTE   W07
 BYTE   N01  Ds2  v072
 BYTE   W07
 BYTE   N08  Fs1
 BYTE   W02
 BYTE   Ds2  v056
 BYTE   W08
 BYTE   Ds2  v092
 BYTE   W08
 BYTE   Ds2  v052
 BYTE   W06
 BYTE   Fs1  v072
 BYTE   W02
 BYTE   N07  Ds2
 BYTE   W08
 BYTE   N01  Ds2  v056
 BYTE   W08
 BYTE   N08  Ds2  v072
 BYTE   W06
 BYTE   Fs1
 BYTE   W02
 BYTE   Ds2  v048
 BYTE   W08
//  #09 //020   ----------------------------------------
Label_0118B2A5:
 BYTE   N08  Ds2  v092
 BYTE   W15
 BYTE   Fs1  v072
 BYTE   W01
 BYTE   Ds2  v052
 BYTE   W08
 BYTE   N07  Ds2  v092
 BYTE   W08
 BYTE   N01  Ds2  v072
 BYTE   W07
 BYTE   N08  Fs1
 BYTE   W01
 BYTE   Ds2  v056
 BYTE   W08
 BYTE   Ds2  v092
 BYTE   W15
 BYTE   Fs1  v072
 BYTE   N08  Ds2  v052
 BYTE   W09
 BYTE   N07  Ds2  v092
 BYTE   W07
 BYTE   N01  Ds2  v072
 BYTE   W07
 BYTE   N08  Fs1
 BYTE   W02
 BYTE   Ds2  v056
 BYTE   W08
 BYTE   PEND 
//  #09 //021   ----------------------------------------
 BYTE   W01
 BYTE   Ds2  v092
 BYTE   W13
 BYTE   Fs1  v072
 BYTE   W02
 BYTE   Ds2  v052
 BYTE   W08
 BYTE   N07  Ds2  v092
 BYTE   W08
 BYTE   N01  Ds2  v072
 BYTE   W06
 BYTE   N08  Fs1
 BYTE   W02
 BYTE   N07  Ds2  v056
 BYTE   W08
 BYTE   N01  Ds2  v084
 BYTE   W08
 BYTE   N08  Ds2  v056
 BYTE   W06
 BYTE   Fs1  v072
 BYTE   W02
 BYTE   Ds2
 BYTE   W09
 BYTE   Ds2  v088
 BYTE   W13
 BYTE   Fs1  v072
 BYTE   W10
//  #09 //022   ----------------------------------------
Label_0118B301:
 BYTE   N08  Fs1  v072
 BYTE   N08  Ds2  v084
 BYTE   W16
 BYTE   Fs1  v056
 BYTE   N07  Ds2  v052
 BYTE   W08
 BYTE   N08  Ds1
 BYTE   N01  Ds2  v072
 BYTE   W07
 BYTE   N08  Fs1  v052
 BYTE   N01  Ds2  v060
 BYTE   W08
 BYTE   N08  Fs1  v052
 BYTE   W09
 BYTE   Fs1  v072
 BYTE   N08  Ds2  v084
 BYTE   W16
 BYTE   Fs1  v056
 BYTE   N07  Ds2  v052
 BYTE   W08
 BYTE   N08  Ds1
 BYTE   N01  Ds2  v072
 BYTE   W07
 BYTE   N08  Fs1  v052
 BYTE   N01  Ds2  v060
 BYTE   W08
 BYTE   N08  Fs1  v052
 BYTE   N08  Ds2
 BYTE   W09
 BYTE   PEND 
//  #09 //023   ----------------------------------------
Label_0118B33F:
 BYTE   N08  Fs1  v072
 BYTE   N08  Ds2  v084
 BYTE   W16
 BYTE   Fs1  v056
 BYTE   N07  Ds2  v052
 BYTE   W08
 BYTE   N08  Ds1
 BYTE   N01  Ds2  v072
 BYTE   W08
 BYTE   N08  Fs1  v052
 BYTE   W08
 BYTE   N08
 BYTE   N08  Ds2
 BYTE   W08
 BYTE   Fs1  v072
 BYTE   N08  Ds2  v084
 BYTE   W16
 BYTE   Fs1  v056
 BYTE   N07  Ds2  v052
 BYTE   W08
 BYTE   N08  Ds1
 BYTE   N01  Ds2  v072
 BYTE   W08
 BYTE   N08  Fs1  v052
 BYTE   N01  Ds2  v060
 BYTE   W08
 BYTE   N08  Fs1  v052
 BYTE   N08  Ds2
 BYTE   W08
 BYTE   PEND 
//  #09 //024   ----------------------------------------
Label_0118B37A:
 BYTE   N08  Fs1  v072
 BYTE   N08  Ds2  v084
 BYTE   W16
 BYTE   Fs1  v056
 BYTE   N07  Ds2  v052
 BYTE   W08
 BYTE   N08  Ds1
 BYTE   N01  Ds2  v072
 BYTE   W07
 BYTE   N08  Fs1  v052
 BYTE   W08
 BYTE   N08
 BYTE   N08  Ds2
 BYTE   W09
 BYTE   Fs1  v072
 BYTE   N08  Ds2  v084
 BYTE   W16
 BYTE   Fs1  v056
 BYTE   N07  Ds2  v052
 BYTE   W08
 BYTE   N08  Ds1
 BYTE   N01  Ds2  v072
 BYTE   W07
 BYTE   N08  Fs1  v052
 BYTE   N01  Ds2  v060
 BYTE   W08
 BYTE   N08  Fs1  v052
 BYTE   N08  Ds2
 BYTE   W09
 BYTE   PEND 
//  #09 //025   ----------------------------------------
Label_0118B3B5:
 BYTE   N08  Fs1  v072
 BYTE   N08  Ds2  v084
 BYTE   W16
 BYTE   Fs1  v056
 BYTE   N07  Ds2  v052
 BYTE   W08
 BYTE   N08  Ds1
 BYTE   N01  Ds2  v072
 BYTE   W07
 BYTE   N08  Fs1  v052
 BYTE   N01  Ds2  v060
 BYTE   W08
 BYTE   N08  Fs1  v052
 BYTE   N08  Ds2
 BYTE   W09
 BYTE   Fs1  v072
 BYTE   N08  Ds2  v092
 BYTE   W08
 BYTE   N07  Fs1  v044
 BYTE   N08  Ds2  v064
 BYTE   W08
 BYTE   N01  Fs1  v052
 BYTE   N07  Ds2  v064
 BYTE   W07
 BYTE   N01  Fs1  v092
 BYTE   W01
 BYTE   N08  Ds1  v052
 BYTE   N01  Ds2  v076
 BYTE   W24
 BYTE   PEND 
//  #09 //026   ----------------------------------------
 BYTE   PATT
  POIN2 Label_0118B301
//  #09 //027   ----------------------------------------
 BYTE   PATT
  POIN2 Label_0118B33F
//  #09 //028   ----------------------------------------
 BYTE   PATT
  POIN2 Label_0118B37A
//  #09 //029   ----------------------------------------
 BYTE   PATT
  POIN2 Label_0118B3B5
//  #09 //030   ----------------------------------------
Label_0118B409:
 BYTE   N08  Ds2  v092
 BYTE   W15
 BYTE   Fs1  v072
 BYTE   N08  Ds2  v052
 BYTE   W09
 BYTE   N07  Ds2  v092
 BYTE   W07
 BYTE   N01  Ds2  v072
 BYTE   W09
 BYTE   N08  Fs1
 BYTE   N08  Ds2  v056
 BYTE   W08
 BYTE   Ds2  v092
 BYTE   W15
 BYTE   Ds2  v052
 BYTE   W01
 BYTE   Fs1  v072
 BYTE   W07
 BYTE   N07  Ds2  v092
 BYTE   W08
 BYTE   N01  Ds2  v072
 BYTE   W08
 BYTE   N08  Fs1
 BYTE   N08  Ds2  v056
 BYTE   W09
 BYTE   PEND 
//  #09 //031   ----------------------------------------
Label_0118B439:
 BYTE   N08  Ds2  v092
 BYTE   W15
 BYTE   Fs1  v072
 BYTE   N08  Ds2  v052
 BYTE   W09
 BYTE   N07  Ds2  v092
 BYTE   W07
 BYTE   N01  Ds2  v072
 BYTE   W08
 BYTE   N08  Fs1
 BYTE   W01
 BYTE   Ds2  v056
 BYTE   W08
 BYTE   Ds2  v092
 BYTE   W08
 BYTE   N06  Ds2  v060
 BYTE   W07
 BYTE   N08  Fs1  v072
 BYTE   N01  Ds2  v068
 BYTE   W08
 BYTE   N07  Ds2  v084
 BYTE   W08
 BYTE   N01  Ds2  v064
 BYTE   W08
 BYTE   N08  Fs1  v072
 BYTE   N08  Ds2  v080
 BYTE   W09
 BYTE   PEND 
//  #09 //032   ----------------------------------------
 BYTE   PATT
  POIN2 Label_0118B2A5
//  #09 //033   ----------------------------------------
 BYTE   W01
 BYTE   N08  Ds2  v092
 BYTE   W13
 BYTE   Fs1  v072
 BYTE   W02
 BYTE   Ds2  v052
 BYTE   W08
 BYTE   N07  Ds2  v092
 BYTE   W08
 BYTE   N01  Ds2  v072
 BYTE   W06
 BYTE   N08  Fs1
 BYTE   W02
 BYTE   Ds2  v056
 BYTE   W08
 BYTE   Ds2  v092
 BYTE   W09
 BYTE   N06  Ds2  v060
 BYTE   W05
 BYTE   N08  Fs1  v072
 BYTE   W01
 BYTE   N01  Ds2  v068
 BYTE   W09
 BYTE   N08  Ds2  v084
 BYTE   W14
 BYTE   Fs1  v072
 BYTE   W10
//  #09 //034   ----------------------------------------
 BYTE   PATT
  POIN2 Label_0118B409
//  #09 //035   ----------------------------------------
 BYTE   PATT
  POIN2 Label_0118B439
//  #09 //036   ----------------------------------------
 BYTE   PATT
  POIN2 Label_0118B2A5
//  #09 //037   ----------------------------------------
 BYTE   W01
 BYTE   N08  Ds2  v092
 BYTE   W13
 BYTE   Fs1  v072
 BYTE   W02
 BYTE   Ds2  v052
 BYTE   W08
 BYTE   N07  Ds2  v092
 BYTE   W08
 BYTE   N01  Ds2  v072
 BYTE   W06
 BYTE   N08  Fs1
 BYTE   W02
 BYTE   Ds2  v056
 BYTE   W08
 BYTE   Ds2  v092
 BYTE   W09
 BYTE   N06  Ds2  v060
 BYTE   W05
 BYTE   N08  Fs1  v072
 BYTE   W01
 BYTE   N01  Ds2  v068
 BYTE   W09
 BYTE   N08  Ds2  v084
 BYTE   W24
//  #09 //038   ----------------------------------------
 BYTE   Ds2  v092
 BYTE   W15
 BYTE   Ds2  v052
 BYTE   W01
 BYTE   Fs1  v072
 BYTE   W08
 BYTE   N07  Ds2  v092
 BYTE   W07
 BYTE   N01  Ds2  v072
 BYTE   W09
 BYTE   N08  Fs1
 BYTE   N08  Ds2  v056
 BYTE   W08
 BYTE   Ds2  v092
 BYTE   W15
 BYTE   Ds2  v052
 BYTE   W01
 BYTE   Fs1  v072
 BYTE   W07
 BYTE   N07  Ds2  v092
 BYTE   W08
 BYTE   N01  Ds2  v072
 BYTE   W08
 BYTE   N08  Fs1
 BYTE   N08  Ds2  v056
 BYTE   W09
//  #09 //039   ----------------------------------------
 BYTE   Ds2  v092
 BYTE   W15
 BYTE   Fs1  v072
 BYTE   N08  Ds2  v052
 BYTE   W09
 BYTE   N07  Ds2  v092
 BYTE   W07
 BYTE   N01  Ds2  v072
 BYTE   W08
 BYTE   N08  Fs1
 BYTE   W01
 BYTE   Ds2  v056
 BYTE   W08
 BYTE   Ds2  v092
 BYTE   W08
 BYTE   Ds2  v052
 BYTE   W07
 BYTE   Fs1  v072
 BYTE   W01
 BYTE   N07  Ds2
 BYTE   W08
 BYTE   N01  Ds2  v056
 BYTE   W08
 BYTE   N08  Ds2  v072
 BYTE   W07
 BYTE   Fs1
 BYTE   W01
 BYTE   Ds2  v048
 BYTE   W08
//  #09 //040   ----------------------------------------
 BYTE   Ds2  v092
 BYTE   W15
 BYTE   Fs1  v072
 BYTE   W01
 BYTE   Ds2  v052
 BYTE   W08
 BYTE   N07  Ds2  v092
 BYTE   W08
 BYTE   N01  Ds2  v072
 BYTE   W08
 BYTE   N08  Fs1
 BYTE   N08  Ds2  v056
 BYTE   W08
 BYTE   Ds2  v092
 BYTE   W15
 BYTE   Ds2  v052
 BYTE   W01
 BYTE   Fs1  v072
 BYTE   W08
 BYTE   N07  Ds2  v092
 BYTE   W07
 BYTE   N01  Ds2  v072
 BYTE   W08
 BYTE   N08  Fs1
 BYTE   W01
 BYTE   Ds2  v056
 BYTE   W08
//  #09 //041   ----------------------------------------
 BYTE   W01
 BYTE   Ds2  v092
 BYTE   W14
 BYTE   Fs1  v072
 BYTE   W01
 BYTE   Ds2  v052
 BYTE   W08
 BYTE   N07  Ds2  v092
 BYTE   W08
 BYTE   N01  Ds2  v072
 BYTE   W07
 BYTE   N08  Fs1
 BYTE   W01
 BYTE   N07  Ds2  v056
 BYTE   W08
 BYTE   N01  Ds2  v084
 BYTE   W08
 BYTE   N08  Ds2  v056
 BYTE   W07
 BYTE   Fs1  v072
 BYTE   W01
 BYTE   Ds2
 BYTE   W09
 BYTE   Ds2  v088
 BYTE   W14
 BYTE   Fs1  v072
 BYTE   W09
//  #09 //042   ----------------------------------------
 BYTE   PATT
  POIN2 Label_0118B2A5
//  #09 //043   ----------------------------------------
 BYTE   W01
 BYTE   N08  Ds2  v092
 BYTE   W13
 BYTE   Fs1  v072
 BYTE   W02
 BYTE   Ds2  v052
 BYTE   W08
 BYTE   N07  Ds2  v092
 BYTE   W08
 BYTE   N01  Ds2  v072
 BYTE   W06
 BYTE   N08  Fs1
 BYTE   W02
 BYTE   Ds2  v056
 BYTE   W08
 BYTE   Ds2  v092
 BYTE   W08
 BYTE   Ds2  v052
 BYTE   W06
 BYTE   Fs1  v072
 BYTE   W02
 BYTE   N07  Ds2
 BYTE   W08
 BYTE   N01  Ds2  v056
 BYTE   W08
 BYTE   N08  Ds2  v072
 BYTE   W06
 BYTE   Fs1
 BYTE   W02
 BYTE   Ds2  v048
 BYTE   W08
//  #09 //044   ----------------------------------------
 BYTE   W01
 BYTE   Ds2  v092
 BYTE   W14
 BYTE   Fs1  v072
 BYTE   W01
 BYTE   Ds2  v052
 BYTE   W08
 BYTE   N07  Ds2  v092
 BYTE   W08
 BYTE   N01  Ds2  v072
 BYTE   W08
 BYTE   N08  Fs1
 BYTE   N08  Ds2  v056
 BYTE   W09
 BYTE   Ds2  v092
 BYTE   W15
 BYTE   Fs1  v072
 BYTE   N08  Ds2  v052
 BYTE   W08
 BYTE   N07  Ds2  v092
 BYTE   W08
 BYTE   N01  Ds2  v072
 BYTE   W07
 BYTE   N08  Fs1
 BYTE   W01
 BYTE   Ds2  v056
 BYTE   W08
//  #09 //045   ----------------------------------------
 BYTE   W01
 BYTE   Ds2  v092
 BYTE   W14
 BYTE   Fs1  v072
 BYTE   W01
 BYTE   Ds2  v052
 BYTE   W08
 BYTE   N07  Ds2  v092
 BYTE   W08
 BYTE   N01  Ds2  v072
 BYTE   W07
 BYTE   N08  Fs1
 BYTE   W01
 BYTE   N07  Ds2  v056
 BYTE   W08
 BYTE   N01  Ds2  v084
 BYTE   W08
 BYTE   N08  Ds2  v056
 BYTE   W07
 BYTE   Fs1  v072
 BYTE   W02
 BYTE   Ds2
 BYTE   W08
 BYTE   Ds2  v088
 BYTE   W14
 BYTE   Fs1  v072
 BYTE   W09
//  #09 //046   ----------------------------------------
Label_0118B628:
 BYTE   N08  Fs1  v072
 BYTE   N08  Ds2  v084
 BYTE   W16
 BYTE   Fs1  v056
 BYTE   N07  Ds2  v052
 BYTE   W08
 BYTE   N08  Ds1
 BYTE   N01  Ds2  v072
 BYTE   W08
 BYTE   N08  Fs1  v052
 BYTE   N01  Ds2  v060
 BYTE   W08
 BYTE   N08  Fs1  v052
 BYTE   W08
 BYTE   Fs1  v072
 BYTE   N08  Ds2  v084
 BYTE   W16
 BYTE   Fs1  v056
 BYTE   N07  Ds2  v052
 BYTE   W08
 BYTE   N08  Ds1
 BYTE   N01  Ds2  v072
 BYTE   W08
 BYTE   N08  Fs1  v052
 BYTE   N01  Ds2  v060
 BYTE   W08
 BYTE   N08  Fs1  v052
 BYTE   N08  Ds2
 BYTE   W08
 BYTE   PEND 
//  #09 //047   ----------------------------------------
Label_0118B666:
 BYTE   N08  Ds2  v084
 BYTE   W01
 BYTE   Fs1  v072
 BYTE   W15
 BYTE   Fs1  v056
 BYTE   W01
 BYTE   N07  Ds2  v052
 BYTE   W07
 BYTE   N08  Ds1
 BYTE   N01  Ds2  v072
 BYTE   W08
 BYTE   N08  Fs1  v052
 BYTE   W08
 BYTE   N08
 BYTE   N08  Ds2
 BYTE   W08
 BYTE   Ds2  v084
 BYTE   W01
 BYTE   Fs1  v072
 BYTE   W15
 BYTE   Fs1  v056
 BYTE   W01
 BYTE   N07  Ds2  v052
 BYTE   W07
 BYTE   N08  Ds1
 BYTE   N01  Ds2  v072
 BYTE   W08
 BYTE   N08  Fs1  v052
 BYTE   N01  Ds2  v060
 BYTE   W08
 BYTE   N08  Fs1  v052
 BYTE   N08  Ds2
 BYTE   W08
 BYTE   PEND 
//  #09 //048   ----------------------------------------
 BYTE   PATT
  POIN2 Label_0118B33F
//  #09 //049   ----------------------------------------
Label_0118B6A8:
 BYTE   N08  Fs1  v072
 BYTE   N08  Ds2  v084
 BYTE   W16
 BYTE   Fs1  v056
 BYTE   N07  Ds2  v052
 BYTE   W08
 BYTE   N08  Ds1
 BYTE   N01  Ds2  v072
 BYTE   W08
 BYTE   N08  Fs1  v052
 BYTE   N01  Ds2  v060
 BYTE   W08
 BYTE   N08  Fs1  v052
 BYTE   N08  Ds2
 BYTE   W08
 BYTE   Fs1  v072
 BYTE   N08  Ds2  v092
 BYTE   W08
 BYTE   N07  Fs1  v044
 BYTE   N08  Ds2  v064
 BYTE   W08
 BYTE   N01  Fs1  v052
 BYTE   N07  Ds2  v064
 BYTE   W08
 BYTE   N08  Ds1  v052
 BYTE   N01  Fs1  v092
 BYTE   N01  Ds2  v076
 BYTE   W24
 BYTE   PEND 
//  #09 //050   ----------------------------------------
 BYTE   PATT
  POIN2 Label_0118B628
//  #09 //051   ----------------------------------------
 BYTE   PATT
  POIN2 Label_0118B666
//  #09 //052   ----------------------------------------
 BYTE   PATT
  POIN2 Label_0118B33F
//  #09 //053   ----------------------------------------
 BYTE   PATT
  POIN2 Label_0118B6A8
//  #09 //054   ----------------------------------------
 BYTE   GoTo
  POIN2 Label_0118B0B9
//  #09 //055   ----------------------------------------
 BYTE   PATT
  POIN2 Label_0118B0B9
//  #09 //056   ----------------------------------------
 BYTE   PATT
  POIN2 Label_0118B0E9
//  #09 //057   ----------------------------------------
 BYTE   PATT
  POIN2 Label_0118B11F
//  #09 //058   ----------------------------------------
 BYTE   VOL   55*song33_mvl/mxv
 BYTE   N08  Ds2  v092
 BYTE   W03
 BYTE   VOL   53*song33_mvl/mxv
 BYTE   W06
 BYTE   VOL   52*song33_mvl/mxv
 BYTE   W05
 BYTE   N08  Fs1  v072
 BYTE   W01
 BYTE   Ds2  v052
 BYTE   W03
 BYTE   VOL   51*song33_mvl/mxv
 BYTE   W06
 BYTE   VOL   49*song33_mvl/mxv
 BYTE   N07  Ds2  v092
 BYTE   W07
 BYTE   N01  Ds2  v072
 BYTE   W02
 BYTE   VOL   47*song33_mvl/mxv
 BYTE   W05
 BYTE   N08  Fs1
 BYTE   W01
 BYTE   VOL   46*song33_mvl/mxv
 BYTE   W01
 BYTE   N08  Ds2  v056
 BYTE   W08
 BYTE   VOL   44*song33_mvl/mxv
 BYTE   N08  Ds2  v092
 BYTE   W06
 BYTE   VOL   43*song33_mvl/mxv
 BYTE   W02
 BYTE   N06  Ds2  v060
 BYTE   W06
 BYTE   N08  Fs1  v072
 BYTE   W01
 BYTE   VOL   42*song33_mvl/mxv
 BYTE   N01  Ds2  v068
 BYTE   W06
 BYTE   VOL   41*song33_mvl/mxv
 BYTE   W02
 BYTE   N08  Ds2  v084
 BYTE   W07
 BYTE   VOL   39*song33_mvl/mxv
 BYTE   W06
 BYTE   VOL   38*song33_mvl/mxv
 BYTE   W02
 BYTE   N08  Fs1  v072
 BYTE   W07
 BYTE   VOL   36*song33_mvl/mxv
 BYTE   W03
//  #09 //059   ----------------------------------------
 BYTE   N08  Ds2  v092
 BYTE   W03
 BYTE   VOL   35*song33_mvl/mxv
 BYTE   W09
 BYTE   VOL   34*song33_mvl/mxv
 BYTE   W03
 BYTE   N08  Fs1  v072
 BYTE   N08  Ds2  v052
 BYTE   W06
 BYTE   VOL   33*song33_mvl/mxv
 BYTE   W02
 BYTE   N07  Ds2  v092
 BYTE   W04
 BYTE   VOL   32*song33_mvl/mxv
 BYTE   W04
 BYTE   N01  Ds2  v072
 BYTE   W05
 BYTE   VOL   30*song33_mvl/mxv
 BYTE   W03
 BYTE   N08  Fs1
 BYTE   N08  Ds2  v056
 BYTE   W03
 BYTE   VOL   30*song33_mvl/mxv
 BYTE   W06
 BYTE   N08  Ds2  v092
 BYTE   W03
 BYTE   VOL   28*song33_mvl/mxv
 BYTE   W06
 BYTE   VOL   27*song33_mvl/mxv
 BYTE   W05
 BYTE   N08  Ds2  v052
 BYTE   W01
 BYTE   Fs1  v072
 BYTE   W03
 BYTE   VOL   26*song33_mvl/mxv
 BYTE   W05
 BYTE   N07  Ds2  v092
 BYTE   W01
 BYTE   VOL   25*song33_mvl/mxv
 BYTE   W06
 BYTE   N01  Ds2  v072
 BYTE   W03
 BYTE   VOL   24*song33_mvl/mxv
 BYTE   W05
 BYTE   N08  Fs1
 BYTE   W01
 BYTE   VOL   23*song33_mvl/mxv
 BYTE   N08  Ds2  v056
 BYTE   W09
//  #09 //060   ----------------------------------------
 BYTE   VOL   22*song33_mvl/mxv
 BYTE   N08  Ds2  v092
 BYTE   W06
 BYTE   VOL   21*song33_mvl/mxv
 BYTE   W08
 BYTE   N08  Fs1  v072
 BYTE   W01
 BYTE   VOL   20*song33_mvl/mxv
 BYTE   N08  Ds2  v052
 BYTE   W06
 BYTE   VOL   19*song33_mvl/mxv
 BYTE   W02
 BYTE   N07  Ds2  v092
 BYTE   W07
 BYTE   VOL   17*song33_mvl/mxv
 BYTE   W01
 BYTE   N01  Ds2  v072
 BYTE   W07
 BYTE   N08  Fs1
 BYTE   W01
 BYTE   VOL   17*song33_mvl/mxv
 BYTE   N08  Ds2  v056
 BYTE   W06
 BYTE   VOL   16*song33_mvl/mxv
 BYTE   W03
 BYTE   N08  Ds2  v092
 BYTE   W06
 BYTE   VOL   15*song33_mvl/mxv
 BYTE   W02
 BYTE   N06  Ds2  v060
 BYTE   W04
 BYTE   VOL   14*song33_mvl/mxv
 BYTE   W02
 BYTE   N08  Fs1  v072
 BYTE   N01  Ds2  v068
 BYTE   W07
 BYTE   VOL   13*song33_mvl/mxv
 BYTE   W02
 BYTE   N07  Ds2  v084
 BYTE   W04
 BYTE   VOL   12*song33_mvl/mxv
 BYTE   W03
 BYTE   N01  Ds2  v064
 BYTE   W06
 BYTE   VOL   11*song33_mvl/mxv
 BYTE   W02
 BYTE   N08  Fs1  v072
 BYTE   W01
 BYTE   Ds2  v080
 BYTE   W03
 BYTE   VOL   10*song33_mvl/mxv
 BYTE   W06
//  #09 //061   ----------------------------------------
 BYTE   N08  Ds2  v092
 BYTE   W03
 BYTE   VOL   10*song33_mvl/mxv
 BYTE   W06
 BYTE   VOL   9*song33_mvl/mxv
 BYTE   W05
 BYTE   N08  Fs1  v072
 BYTE   W01
 BYTE   Ds2  v052
 BYTE   W03
 BYTE   VOL   8*song33_mvl/mxv
 BYTE   W06
 BYTE   VOL   8*song33_mvl/mxv
 BYTE   N07  Ds2  v092
 BYTE   W07
 BYTE   N01  Ds2  v072
 BYTE   W02
 BYTE   VOL   7*song33_mvl/mxv
 BYTE   W06
 BYTE   N08  Fs1
 BYTE   W01
 BYTE   Ds2  v056
 BYTE   W02
 BYTE   VOL   7*song33_mvl/mxv
 BYTE   W06
 BYTE   VOL   6*song33_mvl/mxv
 BYTE   N08  Ds2  v092
 BYTE   W09
 BYTE   VOL   5*song33_mvl/mxv
 BYTE   W06
 BYTE   VOL   5*song33_mvl/mxv
 BYTE   N08  Fs1  v072
 BYTE   N08  Ds2  v052
 BYTE   W08
 BYTE   N07  Ds2  v092
 BYTE   W01
 BYTE   VOL   4*song33_mvl/mxv
 BYTE   W06
 BYTE   VOL   3*song33_mvl/mxv
 BYTE   W01
 BYTE   N01  Ds2  v072
 BYTE   W07
 BYTE   N08  Fs1
 BYTE   W01
 BYTE   VOL   3*song33_mvl/mxv
 BYTE   N08  Ds2  v056
 BYTE   W06
 BYTE   VOL   2*song33_mvl/mxv
 BYTE   W03
//  #09 //062   ----------------------------------------
 BYTE   N08  Ds2  v092
 BYTE   W06
 BYTE   VOL   2*song33_mvl/mxv
 BYTE   W06
 BYTE   VOL   1*song33_mvl/mxv
 BYTE   W02
 BYTE   N08  Fs1  v072
 BYTE   W01
 BYTE   Ds2  v052
 BYTE   W06
 BYTE   VOL   1*song33_mvl/mxv
 BYTE   W03
 BYTE   N07  Ds2  v092
 BYTE   W03
 BYTE   VOL   1*song33_mvl/mxv
 BYTE   W04
 BYTE   N01  Ds2  v072
 BYTE   W05
 BYTE   VOL   0*song33_mvl/mxv
 BYTE   W02
 BYTE   N08  Fs1
 BYTE   W02
 BYTE   Ds2  v056
 BYTE   W02
 BYTE   VOL   0*song33_mvl/mxv
 BYTE   W06
 BYTE   N08  Ds2  v092
 BYTE   W03
 BYTE   VOL   0*song33_mvl/mxv
 BYTE   W05
 BYTE   N06  Ds2  v060
 BYTE   W04
 BYTE   VOL   0*song33_mvl/mxv
 BYTE   W02
 BYTE   N08  Fs1  v072
 BYTE   W01
 BYTE   N01  Ds2  v068
 BYTE   W03
 BYTE   VOL   0*song33_mvl/mxv
 BYTE   W05
 BYTE   N08  Ds2  v084
 BYTE   W04
 BYTE   VOL   0*song33_mvl/mxv
 BYTE   W06
 BYTE   VOL   0*song33_mvl/mxv
 BYTE   W15
//  #09 //063   ----------------------------------------
 BYTE   N08  Ds2  v092
 BYTE   W08
 BYTE   FINE

//******************************************************//
	ALIGN 4

song33:
	BYTE	9	// NumTrks
	BYTE	0	// NumBlks
	BYTE	song33_pri	// Priority
	BYTE	song33_rev	// Reverb.
    
	POIN2	song33_grp
    
	POIN2	song33_001
	POIN2	song33_002
	POIN2	song33_003
	POIN2	song33_004
	POIN2	song33_005
	POIN2	song33_006
	POIN2	song33_007
	POIN2	song33_008
	POIN2	song33_009

	
