//Event file generated from Sappy .s format.
	#include "MPlayDef.event"

	#define	DarkBattle_grp  voicegroup000
	#define	DarkBattle_pri  10
	#define	DarkBattle_rev  148
	#define	DarkBattle_mvl  127
	#define	DarkBattle_key  0
	#define	DarkBattle_tbs  1
	#define	DarkBattle_exg  0
	#define	DarkBattle_cmp  1

	// .rodata
	//	DarkBattle
	ALIGN 4


//**************** Track 1 (Midi-Chn.0) ****************//

DarkBattle_001:
//  #01 //000   ----------------------------------------
 BYTE   KEYSH   DarkBattle_key+0
Label_012003B2:
 BYTE   TEMPO   76*DarkBattle_tbs/2
 BYTE   VOICE   18
 BYTE   MODT 0
 BYTE   LFOS 44
 BYTE   VOL   47*DarkBattle_mvl/mxv
 BYTE   PAN   c_v+20
 BYTE   VOL   47*DarkBattle_mvl/mxv
 BYTE   W96
//  #01 //001   ----------------------------------------
 BYTE   W96
//  #01 //002   ----------------------------------------
 BYTE   W96
//  #01 //003   ----------------------------------------
 BYTE   W96
//  #01 //004   ----------------------------------------
 BYTE   W96
//  #01 //005   ----------------------------------------
 BYTE   W96
//  #01 //006   ----------------------------------------
 BYTE   W96
//  #01 //007   ----------------------------------------
 BYTE   W96
//  #01 //008   ----------------------------------------
 BYTE   W96
//  #01 //009   ----------------------------------------
 BYTE   W96
//  #01 //010   ----------------------------------------
 BYTE   W96
//  #01 //011   ----------------------------------------
 BYTE   W96
//  #01 //012   ----------------------------------------
 BYTE   W96
//  #01 //013   ----------------------------------------
 BYTE   W96
//  #01 //014   ----------------------------------------
 BYTE   W12
 BYTE   N12  En4  v104
 BYTE   W12
 BYTE   Fn4
 BYTE   W12
 BYTE   An4  v076
 BYTE   W12
 BYTE   Bn4  v104
 BYTE   W12
 BYTE   An4  v072
 BYTE   W12
 BYTE   Bn4  v092
 BYTE   W12
 BYTE   Dn5  v104
 BYTE   W12
//  #01 //015   ----------------------------------------
 BYTE   N36  En5
 BYTE   W36
 BYTE   N12  Fn5  v100
 BYTE   W12
 BYTE   N24  En5  v104
 BYTE   W24
 BYTE   N12  Dn5
 BYTE   W12
 BYTE   Bn4  v092
 BYTE   W12
//  #01 //016   ----------------------------------------
 BYTE   W48
 BYTE   N03  En5  v104
 BYTE   W03
 BYTE   Fn5
 BYTE   W03
 BYTE   N84  En5  v088
 BYTE   W20
 BYTE   VOL   40*DarkBattle_mvl/mxv
 BYTE   W01
 BYTE   VOL   37*DarkBattle_mvl/mxv
 BYTE   W01
 BYTE   VOL   30*DarkBattle_mvl/mxv
 BYTE   W01
 BYTE   VOL   26*DarkBattle_mvl/mxv
 BYTE   W01
 BYTE   VOL   23*DarkBattle_mvl/mxv
 BYTE   W04
 BYTE   VOL   26*DarkBattle_mvl/mxv
 BYTE   W03
 BYTE   VOL   28*DarkBattle_mvl/mxv
 BYTE   W01
 BYTE   VOL   29*DarkBattle_mvl/mxv
 BYTE   W01
 BYTE   VOL   32*DarkBattle_mvl/mxv
 BYTE   W01
 BYTE   VOL   35*DarkBattle_mvl/mxv
 BYTE   W01
 BYTE   VOL   37*DarkBattle_mvl/mxv
 BYTE   W01
 BYTE   VOL   40*DarkBattle_mvl/mxv
 BYTE   W01
 BYTE   VOL   43*DarkBattle_mvl/mxv
 BYTE   W01
 BYTE   VOL   43*DarkBattle_mvl/mxv
 BYTE   W01
 BYTE   VOL   45*DarkBattle_mvl/mxv
 BYTE   W01
 BYTE   VOL   47*DarkBattle_mvl/mxv
 BYTE   W02
//  #01 //017   ----------------------------------------
 BYTE   W48
 BYTE   N12  Dn5  v104
 BYTE   W12
 BYTE   N11  En5
 BYTE   W12
 BYTE   N12  Fn5  v088
 BYTE   W12
 BYTE   N11  An5  v104
 BYTE   W12
//  #01 //018   ----------------------------------------
 BYTE   N03  Bn5
 BYTE   W03
 BYTE   An5
 BYTE   W03
 BYTE   TIE  Bn5
 BYTE   W11
 BYTE   VOL   40*DarkBattle_mvl/mxv
 BYTE   W01
 BYTE   VOL   34*DarkBattle_mvl/mxv
 BYTE   W01
 BYTE   VOL   30*DarkBattle_mvl/mxv
 BYTE   W01
 BYTE   VOL   27*DarkBattle_mvl/mxv
 BYTE   W01
 BYTE   VOL   25*DarkBattle_mvl/mxv
 BYTE   W01
 BYTE   VOL   23*DarkBattle_mvl/mxv
 BYTE   W02
 BYTE   VOL   22*DarkBattle_mvl/mxv
 BYTE   W01
 BYTE   VOL   21*DarkBattle_mvl/mxv
 BYTE   W02
 BYTE   VOL   19*DarkBattle_mvl/mxv
 BYTE   W02
 BYTE   VOL   19*DarkBattle_mvl/mxv
 BYTE   W13
 BYTE   VOL   20*DarkBattle_mvl/mxv
 BYTE   W01
 BYTE   VOL   21*DarkBattle_mvl/mxv
 BYTE   W01
 BYTE   VOL   22*DarkBattle_mvl/mxv
 BYTE   W01
 BYTE   VOL   25*DarkBattle_mvl/mxv
 BYTE   W01
 BYTE   VOL   26*DarkBattle_mvl/mxv
 BYTE   W01
 BYTE   VOL   28*DarkBattle_mvl/mxv
 BYTE   W01
 BYTE   VOL   29*DarkBattle_mvl/mxv
 BYTE   W02
 BYTE   VOL   30*DarkBattle_mvl/mxv
 BYTE   W02
 BYTE   VOL   32*DarkBattle_mvl/mxv
 BYTE   W01
 BYTE   VOL   34*DarkBattle_mvl/mxv
 BYTE   W01
 BYTE   VOL   35*DarkBattle_mvl/mxv
 BYTE   W02
 BYTE   VOL   37*DarkBattle_mvl/mxv
 BYTE   W02
 BYTE   VOL   39*DarkBattle_mvl/mxv
 BYTE   W01
 BYTE   VOL   40*DarkBattle_mvl/mxv
 BYTE   W01
 BYTE   VOL   43*DarkBattle_mvl/mxv
 BYTE   W03
 BYTE   VOL   44*DarkBattle_mvl/mxv
 BYTE   W03
 BYTE   VOL   45*DarkBattle_mvl/mxv
 BYTE   W02
 BYTE   VOL   47*DarkBattle_mvl/mxv
 BYTE   W28
//  #01 //019   ----------------------------------------
 BYTE   W22
 BYTE   VOL   45*DarkBattle_mvl/mxv
 BYTE   W07
 BYTE   VOL   44*DarkBattle_mvl/mxv
 BYTE   W03
 BYTE   VOL   43*DarkBattle_mvl/mxv
 BYTE   W01
 BYTE   VOL   40*DarkBattle_mvl/mxv
 BYTE   W02
 BYTE   VOL   39*DarkBattle_mvl/mxv
 BYTE   W07
 BYTE   VOL   37*DarkBattle_mvl/mxv
 BYTE   W03
 BYTE   VOL   35*DarkBattle_mvl/mxv
 BYTE   W03
 BYTE   VOL   34*DarkBattle_mvl/mxv
 BYTE   W01
 BYTE   VOL   32*DarkBattle_mvl/mxv
 BYTE   W02
 BYTE   VOL   30*DarkBattle_mvl/mxv
 BYTE   W05
 BYTE   VOL   29*DarkBattle_mvl/mxv
 BYTE   W04
 BYTE   VOL   28*DarkBattle_mvl/mxv
 BYTE   W02
 BYTE   VOL   27*DarkBattle_mvl/mxv
 BYTE   W02
 BYTE   VOL   25*DarkBattle_mvl/mxv
 BYTE   W02
 BYTE   VOL   22*DarkBattle_mvl/mxv
 BYTE   W01
 BYTE   VOL   22*DarkBattle_mvl/mxv
 BYTE   W01
 BYTE   VOL   20*DarkBattle_mvl/mxv
 BYTE   W01
 BYTE   VOL   19*DarkBattle_mvl/mxv
 BYTE   W01
 BYTE   VOL   16*DarkBattle_mvl/mxv
 BYTE   W02
 BYTE   VOL   15*DarkBattle_mvl/mxv
 BYTE   W07
 BYTE   VOL   14*DarkBattle_mvl/mxv
 BYTE   W01
 BYTE   EOT
 BYTE   VOL   13*DarkBattle_mvl/mxv
 BYTE   W01
 BYTE   VOL   12*DarkBattle_mvl/mxv
 BYTE   W01
 BYTE   VOL   10*DarkBattle_mvl/mxv
 BYTE   W02
 BYTE   VOL   10*DarkBattle_mvl/mxv
 BYTE   W01
 BYTE   VOL   8*DarkBattle_mvl/mxv
 BYTE   W11
//  #01 //020   ----------------------------------------
 BYTE   N03  An5
 BYTE   W01
 BYTE   VOL   10*DarkBattle_mvl/mxv
 BYTE   W01
 BYTE   VOL   13*DarkBattle_mvl/mxv
 BYTE   W01
 BYTE   VOL   19*DarkBattle_mvl/mxv
 BYTE   N03  Bn5
 BYTE   W01
 BYTE   VOL   25*DarkBattle_mvl/mxv
 BYTE   W01
 BYTE   VOL   37*DarkBattle_mvl/mxv
 BYTE   W01
 BYTE   VOL   43*DarkBattle_mvl/mxv
 BYTE   N02  Cn6
 BYTE   W01
 BYTE   VOL   47*DarkBattle_mvl/mxv
 BYTE   W02
 BYTE   N60  Bn5  v084
 BYTE   W60
 BYTE   W03
 BYTE   N12  An5  v104
 BYTE   W12
 BYTE   Fn5  v064
 BYTE   W12
//  #01 //021   ----------------------------------------
 BYTE   N44  En5  v104
 BYTE   W08
 BYTE   VOL   44*DarkBattle_mvl/mxv
 BYTE   W01
 BYTE   VOL   43*DarkBattle_mvl/mxv
 BYTE   W01
 BYTE   VOL   36*DarkBattle_mvl/mxv
 BYTE   W01
 BYTE   VOL   32*DarkBattle_mvl/mxv
 BYTE   W01
 BYTE   VOL   30*DarkBattle_mvl/mxv
 BYTE   W01
 BYTE   VOL   29*DarkBattle_mvl/mxv
 BYTE   W01
 BYTE   VOL   28*DarkBattle_mvl/mxv
 BYTE   W01
 BYTE   VOL   27*DarkBattle_mvl/mxv
 BYTE   W05
 BYTE   VOL   28*DarkBattle_mvl/mxv
 BYTE   W01
 BYTE   VOL   29*DarkBattle_mvl/mxv
 BYTE   W02
 BYTE   VOL   32*DarkBattle_mvl/mxv
 BYTE   W01
 BYTE   VOL   36*DarkBattle_mvl/mxv
 BYTE   W01
 BYTE   VOL   37*DarkBattle_mvl/mxv
 BYTE   W01
 BYTE   VOL   40*DarkBattle_mvl/mxv
 BYTE   W01
 BYTE   VOL   43*DarkBattle_mvl/mxv
 BYTE   W01
 BYTE   VOL   44*DarkBattle_mvl/mxv
 BYTE   W01
 BYTE   VOL   47*DarkBattle_mvl/mxv
 BYTE   W19
 BYTE   N24  Dn5
 BYTE   W24
 BYTE   An4
 BYTE   W24
//  #01 //022   ----------------------------------------
 BYTE   N03  Bn4
 BYTE   W03
 BYTE   Cn5
 BYTE   W03
 BYTE   TIE  Bn4
 BYTE   W07
 BYTE   VOL   43*DarkBattle_mvl/mxv
 BYTE   W01
 BYTE   VOL   43*DarkBattle_mvl/mxv
 BYTE   W01
 BYTE   VOL   40*DarkBattle_mvl/mxv
 BYTE   W02
 BYTE   VOL   37*DarkBattle_mvl/mxv
 BYTE   W01
 BYTE   VOL   37*DarkBattle_mvl/mxv
 BYTE   W01
 BYTE   VOL   34*DarkBattle_mvl/mxv
 BYTE   W01
 BYTE   VOL   32*DarkBattle_mvl/mxv
 BYTE   W01
 BYTE   VOL   31*DarkBattle_mvl/mxv
 BYTE   W01
 BYTE   VOL   30*DarkBattle_mvl/mxv
 BYTE   W02
 BYTE   VOL   27*DarkBattle_mvl/mxv
 BYTE   W01
 BYTE   VOL   25*DarkBattle_mvl/mxv
 BYTE   W01
 BYTE   VOL   23*DarkBattle_mvl/mxv
 BYTE   W02
 BYTE   VOL   22*DarkBattle_mvl/mxv
 BYTE   W10
 BYTE   VOL   24*DarkBattle_mvl/mxv
 BYTE   W01
 BYTE   VOL   26*DarkBattle_mvl/mxv
 BYTE   W01
 BYTE   VOL   28*DarkBattle_mvl/mxv
 BYTE   W01
 BYTE   VOL   28*DarkBattle_mvl/mxv
 BYTE   W01
 BYTE   VOL   30*DarkBattle_mvl/mxv
 BYTE   W02
 BYTE   VOL   32*DarkBattle_mvl/mxv
 BYTE   W02
 BYTE   VOL   33*DarkBattle_mvl/mxv
 BYTE   W02
 BYTE   VOL   35*DarkBattle_mvl/mxv
 BYTE   W01
 BYTE   VOL   37*DarkBattle_mvl/mxv
 BYTE   W01
 BYTE   VOL   37*DarkBattle_mvl/mxv
 BYTE   W01
 BYTE   VOL   40*DarkBattle_mvl/mxv
 BYTE   W02
 BYTE   VOL   43*DarkBattle_mvl/mxv
 BYTE   W02
 BYTE   VOL   43*DarkBattle_mvl/mxv
 BYTE   W02
 BYTE   VOL   45*DarkBattle_mvl/mxv
 BYTE   W02
 BYTE   VOL   47*DarkBattle_mvl/mxv
 BYTE   W36
 BYTE   W01
//  #01 //023   ----------------------------------------
 BYTE   W19
 BYTE   VOL   45*DarkBattle_mvl/mxv
 BYTE   W02
 BYTE   VOL   44*DarkBattle_mvl/mxv
 BYTE   W01
 BYTE   VOL   43*DarkBattle_mvl/mxv
 BYTE   W02
 BYTE   VOL   40*DarkBattle_mvl/mxv
 BYTE   W02
 BYTE   VOL   39*DarkBattle_mvl/mxv
 BYTE   W04
 BYTE   VOL   37*DarkBattle_mvl/mxv
 BYTE   W03
 BYTE   VOL   35*DarkBattle_mvl/mxv
 BYTE   W02
 BYTE   VOL   34*DarkBattle_mvl/mxv
 BYTE   W02
 BYTE   VOL   32*DarkBattle_mvl/mxv
 BYTE   W04
 BYTE   VOL   30*DarkBattle_mvl/mxv
 BYTE   W04
 BYTE   VOL   29*DarkBattle_mvl/mxv
 BYTE   W02
 BYTE   VOL   28*DarkBattle_mvl/mxv
 BYTE   W03
 BYTE   VOL   27*DarkBattle_mvl/mxv
 BYTE   W02
 BYTE   VOL   25*DarkBattle_mvl/mxv
 BYTE   W07
 BYTE   VOL   22*DarkBattle_mvl/mxv
 BYTE   W01
 BYTE   VOL   22*DarkBattle_mvl/mxv
 BYTE   W02
 BYTE   VOL   20*DarkBattle_mvl/mxv
 BYTE   W02
 BYTE   VOL   19*DarkBattle_mvl/mxv
 BYTE   W02
 BYTE   VOL   19*DarkBattle_mvl/mxv
 BYTE   W01
 BYTE   VOL   16*DarkBattle_mvl/mxv
 BYTE   W02
 BYTE   VOL   15*DarkBattle_mvl/mxv
 BYTE   W06
 BYTE   VOL   14*DarkBattle_mvl/mxv
 BYTE   W02
 BYTE   VOL   13*DarkBattle_mvl/mxv
 BYTE   W19
//  #01 //024   ----------------------------------------
 BYTE   EOT
 BYTE   W15
 BYTE   VOL   47*DarkBattle_mvl/mxv
 BYTE   W80
 BYTE   W01
//  #01 //025   ----------------------------------------
 BYTE   W96
//  #01 //026   ----------------------------------------
 BYTE   W96
//  #01 //027   ----------------------------------------
 BYTE   W96
//  #01 //028   ----------------------------------------
 BYTE   W96
//  #01 //029   ----------------------------------------
 BYTE   W96
//  #01 //030   ----------------------------------------
 BYTE   W96
//  #01 //031   ----------------------------------------
 BYTE   W96
//  #01 //032   ----------------------------------------
 BYTE   W96
//  #01 //033   ----------------------------------------
 BYTE   W96
//  #01 //034   ----------------------------------------
 BYTE   W96
//  #01 //035   ----------------------------------------
 BYTE   W96
//  #01 //036   ----------------------------------------
 BYTE   W96
//  #01 //037   ----------------------------------------
 BYTE   GoTo
  POIN2 Label_012003B2
 BYTE   FINE

//**************** Track 2 (Midi-Chn.1) ****************//

DarkBattle_002:
//  #02 //000   ----------------------------------------
 BYTE   KEYSH   DarkBattle_key+0
Label_012008E6:
 BYTE   VOICE   77
 BYTE   MODT 0
 BYTE   LFOS 44
 BYTE   PAN   c_v-13
 BYTE   VOL   43*DarkBattle_mvl/mxv
 BYTE   W96
//  #02 //001   ----------------------------------------
 BYTE   W96
//  #02 //002   ----------------------------------------
 BYTE   W96
//  #02 //003   ----------------------------------------
 BYTE   W96
//  #02 //004   ----------------------------------------
 BYTE   W96
//  #02 //005   ----------------------------------------
 BYTE   W78
 BYTE   W01
 BYTE   VOL   0*DarkBattle_mvl/mxv
 BYTE   W17
//  #02 //006   ----------------------------------------
 BYTE   TIE  Bn3  v100
 BYTE   W10
 BYTE   VOL   0*DarkBattle_mvl/mxv
 BYTE   W01
 BYTE   VOL   0*DarkBattle_mvl/mxv
 BYTE   W01
 BYTE   VOL   0*DarkBattle_mvl/mxv
 BYTE   W01
 BYTE   VOL   0*DarkBattle_mvl/mxv
 BYTE   W01
 BYTE   VOL   0*DarkBattle_mvl/mxv
 BYTE   W01
 BYTE   VOL   0*DarkBattle_mvl/mxv
 BYTE   W01
 BYTE   VOL   0*DarkBattle_mvl/mxv
 BYTE   W01
 BYTE   VOL   0*DarkBattle_mvl/mxv
 BYTE   W01
 BYTE   VOL   0*DarkBattle_mvl/mxv
 BYTE   W01
 BYTE   VOL   0*DarkBattle_mvl/mxv
 BYTE   W01
 BYTE   VOL   0*DarkBattle_mvl/mxv
 BYTE   W01
 BYTE   VOL   0*DarkBattle_mvl/mxv
 BYTE   W01
 BYTE   VOL   0*DarkBattle_mvl/mxv
 BYTE   W01
 BYTE   VOL   0*DarkBattle_mvl/mxv
 BYTE   W01
 BYTE   VOL   0*DarkBattle_mvl/mxv
 BYTE   W02
 BYTE   VOL   0*DarkBattle_mvl/mxv
 BYTE   W01
 BYTE   VOL   0*DarkBattle_mvl/mxv
 BYTE   W02
 BYTE   VOL   0*DarkBattle_mvl/mxv
 BYTE   W01
 BYTE   VOL   0*DarkBattle_mvl/mxv
 BYTE   W01
 BYTE   VOL   0*DarkBattle_mvl/mxv
 BYTE   W01
 BYTE   VOL   0*DarkBattle_mvl/mxv
 BYTE   W01
 BYTE   VOL   0*DarkBattle_mvl/mxv
 BYTE   W01
 BYTE   VOL   0*DarkBattle_mvl/mxv
 BYTE   W01
 BYTE   VOL   0*DarkBattle_mvl/mxv
 BYTE   W01
 BYTE   VOL   0*DarkBattle_mvl/mxv
 BYTE   W01
 BYTE   VOL   0*DarkBattle_mvl/mxv
 BYTE   W01
 BYTE   VOL   0*DarkBattle_mvl/mxv
 BYTE   W01
 BYTE   VOL   0*DarkBattle_mvl/mxv
 BYTE   W01
 BYTE   VOL   0*DarkBattle_mvl/mxv
 BYTE   W01
 BYTE   VOL   0*DarkBattle_mvl/mxv
 BYTE   W01
 BYTE   VOL   0*DarkBattle_mvl/mxv
 BYTE   W01
 BYTE   VOL   0*DarkBattle_mvl/mxv
 BYTE   W01
 BYTE   VOL   0*DarkBattle_mvl/mxv
 BYTE   W02
 BYTE   VOL   0*DarkBattle_mvl/mxv
 BYTE   W01
 BYTE   VOL   0*DarkBattle_mvl/mxv
 BYTE   W01
 BYTE   VOL   0*DarkBattle_mvl/mxv
 BYTE   W01
 BYTE   VOL   3*DarkBattle_mvl/mxv
 BYTE   W01
 BYTE   VOL   3*DarkBattle_mvl/mxv
 BYTE   W01
 BYTE   VOL   3*DarkBattle_mvl/mxv
 BYTE   W01
 BYTE   VOL   3*DarkBattle_mvl/mxv
 BYTE   W01
 BYTE   VOL   4*DarkBattle_mvl/mxv
 BYTE   W02
 BYTE   VOL   5*DarkBattle_mvl/mxv
 BYTE   W04
 BYTE   VOL   6*DarkBattle_mvl/mxv
 BYTE   W01
 BYTE   VOL   6*DarkBattle_mvl/mxv
 BYTE   W02
 BYTE   VOL   7*DarkBattle_mvl/mxv
 BYTE   W02
 BYTE   VOL   8*DarkBattle_mvl/mxv
 BYTE   W02
 BYTE   VOL   8*DarkBattle_mvl/mxv
 BYTE   W02
 BYTE   VOL   9*DarkBattle_mvl/mxv
 BYTE   W02
 BYTE   VOL   10*DarkBattle_mvl/mxv
 BYTE   W05
 BYTE   VOL   11*DarkBattle_mvl/mxv
 BYTE   W01
 BYTE   VOL   12*DarkBattle_mvl/mxv
 BYTE   W01
 BYTE   VOL   12*DarkBattle_mvl/mxv
 BYTE   W01
 BYTE   VOL   12*DarkBattle_mvl/mxv
 BYTE   W01
 BYTE   VOL   13*DarkBattle_mvl/mxv
 BYTE   W01
 BYTE   VOL   15*DarkBattle_mvl/mxv
 BYTE   W01
 BYTE   VOL   15*DarkBattle_mvl/mxv
 BYTE   W01
 BYTE   VOL   16*DarkBattle_mvl/mxv
 BYTE   W01
 BYTE   VOL   18*DarkBattle_mvl/mxv
 BYTE   W01
 BYTE   VOL   18*DarkBattle_mvl/mxv
 BYTE   W01
 BYTE   VOL   19*DarkBattle_mvl/mxv
 BYTE   W01
 BYTE   VOL   20*DarkBattle_mvl/mxv
 BYTE   W01
 BYTE   VOL   21*DarkBattle_mvl/mxv
 BYTE   W01
 BYTE   VOL   21*DarkBattle_mvl/mxv
 BYTE   W04
 BYTE   VOL   21*DarkBattle_mvl/mxv
 BYTE   W04
//  #02 //007   ----------------------------------------
 BYTE   W01
 BYTE   VOL   23*DarkBattle_mvl/mxv
 BYTE   W03
 BYTE   VOL   24*DarkBattle_mvl/mxv
 BYTE   W03
 BYTE   VOL   24*DarkBattle_mvl/mxv
 BYTE   W01
 BYTE   VOL   24*DarkBattle_mvl/mxv
 BYTE   W01
 BYTE   VOL   25*DarkBattle_mvl/mxv
 BYTE   W01
 BYTE   VOL   27*DarkBattle_mvl/mxv
 BYTE   W01
 BYTE   VOL   27*DarkBattle_mvl/mxv
 BYTE   W01
 BYTE   VOL   28*DarkBattle_mvl/mxv
 BYTE   W01
 BYTE   VOL   28*DarkBattle_mvl/mxv
 BYTE   W02
 BYTE   VOL   29*DarkBattle_mvl/mxv
 BYTE   W01
 BYTE   VOL   30*DarkBattle_mvl/mxv
 BYTE   W01
 BYTE   VOL   31*DarkBattle_mvl/mxv
 BYTE   W01
 BYTE   VOL   31*DarkBattle_mvl/mxv
 BYTE   W01
 BYTE   VOL   32*DarkBattle_mvl/mxv
 BYTE   W01
 BYTE   VOL   33*DarkBattle_mvl/mxv
 BYTE   W01
 BYTE   VOL   34*DarkBattle_mvl/mxv
 BYTE   W01
 BYTE   VOL   35*DarkBattle_mvl/mxv
 BYTE   W02
 BYTE   VOL   35*DarkBattle_mvl/mxv
 BYTE   W01
 BYTE   VOL   36*DarkBattle_mvl/mxv
 BYTE   W01
 BYTE   VOL   37*DarkBattle_mvl/mxv
 BYTE   W01
 BYTE   VOL   39*DarkBattle_mvl/mxv
 BYTE   W01
 BYTE   VOL   39*DarkBattle_mvl/mxv
 BYTE   W01
 BYTE   VOL   41*DarkBattle_mvl/mxv
 BYTE   W01
 BYTE   VOL   43*DarkBattle_mvl/mxv
 BYTE   W18
 BYTE   EOT
 BYTE   N24  An3
 BYTE   W24
 BYTE   Fn3
 BYTE   W24
//  #02 //008   ----------------------------------------
 BYTE   TIE  En3
 BYTE   W30
 BYTE   W01
 BYTE   VOL   42*DarkBattle_mvl/mxv
 BYTE   W01
 BYTE   VOL   41*DarkBattle_mvl/mxv
 BYTE   W01
 BYTE   VOL   40*DarkBattle_mvl/mxv
 BYTE   W01
 BYTE   VOL   39*DarkBattle_mvl/mxv
 BYTE   W01
 BYTE   VOL   39*DarkBattle_mvl/mxv
 BYTE   W01
 BYTE   VOL   37*DarkBattle_mvl/mxv
 BYTE   W02
 BYTE   VOL   36*DarkBattle_mvl/mxv
 BYTE   W07
 BYTE   VOL   35*DarkBattle_mvl/mxv
 BYTE   W01
 BYTE   VOL   35*DarkBattle_mvl/mxv
 BYTE   W01
 BYTE   VOL   34*DarkBattle_mvl/mxv
 BYTE   W02
 BYTE   VOL   33*DarkBattle_mvl/mxv
 BYTE   W01
 BYTE   VOL   32*DarkBattle_mvl/mxv
 BYTE   W02
 BYTE   VOL   31*DarkBattle_mvl/mxv
 BYTE   W01
 BYTE   VOL   31*DarkBattle_mvl/mxv
 BYTE   W01
 BYTE   VOL   30*DarkBattle_mvl/mxv
 BYTE   W01
 BYTE   VOL   29*DarkBattle_mvl/mxv
 BYTE   W01
 BYTE   VOL   28*DarkBattle_mvl/mxv
 BYTE   W01
 BYTE   VOL   28*DarkBattle_mvl/mxv
 BYTE   W01
 BYTE   VOL   27*DarkBattle_mvl/mxv
 BYTE   W01
 BYTE   VOL   27*DarkBattle_mvl/mxv
 BYTE   W01
 BYTE   VOL   25*DarkBattle_mvl/mxv
 BYTE   W01
 BYTE   VOL   24*DarkBattle_mvl/mxv
 BYTE   W01
 BYTE   VOL   24*DarkBattle_mvl/mxv
 BYTE   W01
 BYTE   VOL   23*DarkBattle_mvl/mxv
 BYTE   W01
 BYTE   VOL   21*DarkBattle_mvl/mxv
 BYTE   W01
 BYTE   VOL   21*DarkBattle_mvl/mxv
 BYTE   W01
 BYTE   VOL   21*DarkBattle_mvl/mxv
 BYTE   W03
 BYTE   VOL   20*DarkBattle_mvl/mxv
 BYTE   W01
 BYTE   VOL   19*DarkBattle_mvl/mxv
 BYTE   W01
 BYTE   VOL   18*DarkBattle_mvl/mxv
 BYTE   W01
 BYTE   VOL   17*DarkBattle_mvl/mxv
 BYTE   W01
 BYTE   VOL   16*DarkBattle_mvl/mxv
 BYTE   W01
 BYTE   VOL   15*DarkBattle_mvl/mxv
 BYTE   W01
 BYTE   VOL   15*DarkBattle_mvl/mxv
 BYTE   W01
 BYTE   VOL   14*DarkBattle_mvl/mxv
 BYTE   W01
 BYTE   VOL   13*DarkBattle_mvl/mxv
 BYTE   W01
 BYTE   VOL   12*DarkBattle_mvl/mxv
 BYTE   W01
 BYTE   VOL   12*DarkBattle_mvl/mxv
 BYTE   W03
 BYTE   VOL   12*DarkBattle_mvl/mxv
 BYTE   W03
 BYTE   VOL   11*DarkBattle_mvl/mxv
 BYTE   W03
 BYTE   VOL   10*DarkBattle_mvl/mxv
 BYTE   W01
 BYTE   VOL   8*DarkBattle_mvl/mxv
 BYTE   W01
 BYTE   VOL   7*DarkBattle_mvl/mxv
 BYTE   W01
 BYTE   VOL   6*DarkBattle_mvl/mxv
 BYTE   W01
 BYTE   VOL   6*DarkBattle_mvl/mxv
 BYTE   W01
 BYTE   VOL   4*DarkBattle_mvl/mxv
 BYTE   W01
 BYTE   VOL   3*DarkBattle_mvl/mxv
 BYTE   W02
//  #02 //009   ----------------------------------------
 BYTE   W04
 BYTE   VOL   4*DarkBattle_mvl/mxv
 BYTE   W01
 BYTE   VOL   6*DarkBattle_mvl/mxv
 BYTE   W01
 BYTE   VOL   6*DarkBattle_mvl/mxv
 BYTE   W01
 BYTE   VOL   7*DarkBattle_mvl/mxv
 BYTE   W05
 BYTE   VOL   8*DarkBattle_mvl/mxv
 BYTE   W01
 BYTE   VOL   8*DarkBattle_mvl/mxv
 BYTE   W01
 BYTE   VOL   9*DarkBattle_mvl/mxv
 BYTE   W01
 BYTE   VOL   10*DarkBattle_mvl/mxv
 BYTE   W01
 BYTE   VOL   12*DarkBattle_mvl/mxv
 BYTE   W01
 BYTE   VOL   12*DarkBattle_mvl/mxv
 BYTE   W01
 BYTE   VOL   13*DarkBattle_mvl/mxv
 BYTE   W01
 BYTE   VOL   14*DarkBattle_mvl/mxv
 BYTE   W01
 BYTE   VOL   15*DarkBattle_mvl/mxv
 BYTE   W01
 BYTE   VOL   15*DarkBattle_mvl/mxv
 BYTE   W01
 BYTE   VOL   16*DarkBattle_mvl/mxv
 BYTE   W01
 BYTE   VOL   17*DarkBattle_mvl/mxv
 BYTE   W03
 BYTE   VOL   18*DarkBattle_mvl/mxv
 BYTE   W03
 BYTE   VOL   18*DarkBattle_mvl/mxv
 BYTE   W01
 BYTE   VOL   20*DarkBattle_mvl/mxv
 BYTE   W01
 BYTE   VOL   21*DarkBattle_mvl/mxv
 BYTE   W01
 BYTE   VOL   21*DarkBattle_mvl/mxv
 BYTE   W01
 BYTE   VOL   24*DarkBattle_mvl/mxv
 BYTE   W01
 BYTE   VOL   25*DarkBattle_mvl/mxv
 BYTE   W01
 BYTE   VOL   27*DarkBattle_mvl/mxv
 BYTE   W01
 BYTE   VOL   29*DarkBattle_mvl/mxv
 BYTE   W01
 BYTE   VOL   31*DarkBattle_mvl/mxv
 BYTE   W01
 BYTE   VOL   32*DarkBattle_mvl/mxv
 BYTE   W01
 BYTE   VOL   33*DarkBattle_mvl/mxv
 BYTE   W01
 BYTE   VOL   34*DarkBattle_mvl/mxv
 BYTE   W01
 BYTE   VOL   35*DarkBattle_mvl/mxv
 BYTE   W01
 BYTE   VOL   35*DarkBattle_mvl/mxv
 BYTE   W01
 BYTE   VOL   36*DarkBattle_mvl/mxv
 BYTE   W01
 BYTE   VOL   38*DarkBattle_mvl/mxv
 BYTE   W01
 BYTE   VOL   39*DarkBattle_mvl/mxv
 BYTE   W01
 BYTE   VOL   42*DarkBattle_mvl/mxv
 BYTE   W02
 BYTE   EOT
 BYTE   N48  Dn3
 BYTE   W48
//  #02 //010   ----------------------------------------
 BYTE   TIE  En3
 BYTE   W40
 BYTE   W01
 BYTE   VOL   41*DarkBattle_mvl/mxv
 BYTE   W02
 BYTE   VOL   40*DarkBattle_mvl/mxv
 BYTE   W09
 BYTE   VOL   39*DarkBattle_mvl/mxv
 BYTE   W02
 BYTE   VOL   39*DarkBattle_mvl/mxv
 BYTE   W06
 BYTE   VOL   38*DarkBattle_mvl/mxv
 BYTE   W01
 BYTE   VOL   37*DarkBattle_mvl/mxv
 BYTE   W01
 BYTE   VOL   36*DarkBattle_mvl/mxv
 BYTE   W06
 BYTE   VOL   35*DarkBattle_mvl/mxv
 BYTE   W01
 BYTE   VOL   35*DarkBattle_mvl/mxv
 BYTE   W01
 BYTE   VOL   33*DarkBattle_mvl/mxv
 BYTE   W02
 BYTE   VOL   32*DarkBattle_mvl/mxv
 BYTE   W07
 BYTE   VOL   31*DarkBattle_mvl/mxv
 BYTE   W01
 BYTE   VOL   30*DarkBattle_mvl/mxv
 BYTE   W01
 BYTE   VOL   29*DarkBattle_mvl/mxv
 BYTE   W01
 BYTE   VOL   28*DarkBattle_mvl/mxv
 BYTE   W01
 BYTE   VOL   28*DarkBattle_mvl/mxv
 BYTE   W01
 BYTE   VOL   27*DarkBattle_mvl/mxv
 BYTE   W01
 BYTE   VOL   27*DarkBattle_mvl/mxv
 BYTE   W04
 BYTE   VOL   25*DarkBattle_mvl/mxv
 BYTE   W01
 BYTE   VOL   24*DarkBattle_mvl/mxv
 BYTE   W01
 BYTE   VOL   24*DarkBattle_mvl/mxv
 BYTE   W01
 BYTE   VOL   24*DarkBattle_mvl/mxv
 BYTE   W01
 BYTE   VOL   23*DarkBattle_mvl/mxv
 BYTE   W01
 BYTE   VOL   21*DarkBattle_mvl/mxv
 BYTE   W02
//  #02 //011   ----------------------------------------
 BYTE   W02
 BYTE   VOL   21*DarkBattle_mvl/mxv
 BYTE   W04
 BYTE   VOL   21*DarkBattle_mvl/mxv
 BYTE   W02
 BYTE   VOL   19*DarkBattle_mvl/mxv
 BYTE   W01
 BYTE   VOL   18*DarkBattle_mvl/mxv
 BYTE   W01
 BYTE   VOL   16*DarkBattle_mvl/mxv
 BYTE   W01
 BYTE   VOL   15*DarkBattle_mvl/mxv
 BYTE   W01
 BYTE   VOL   14*DarkBattle_mvl/mxv
 BYTE   W01
 BYTE   VOL   13*DarkBattle_mvl/mxv
 BYTE   W04
 BYTE   VOL   12*DarkBattle_mvl/mxv
 BYTE   W01
 BYTE   VOL   12*DarkBattle_mvl/mxv
 BYTE   W01
 BYTE   VOL   12*DarkBattle_mvl/mxv
 BYTE   W02
 BYTE   VOL   11*DarkBattle_mvl/mxv
 BYTE   W03
 BYTE   VOL   10*DarkBattle_mvl/mxv
 BYTE   W04
 BYTE   VOL   9*DarkBattle_mvl/mxv
 BYTE   W02
 BYTE   VOL   8*DarkBattle_mvl/mxv
 BYTE   W01
 BYTE   VOL   7*DarkBattle_mvl/mxv
 BYTE   W01
 BYTE   VOL   6*DarkBattle_mvl/mxv
 BYTE   W01
 BYTE   VOL   6*DarkBattle_mvl/mxv
 BYTE   W02
 BYTE   VOL   5*DarkBattle_mvl/mxv
 BYTE   W07
 BYTE   VOL   4*DarkBattle_mvl/mxv
 BYTE   W01
 BYTE   VOL   3*DarkBattle_mvl/mxv
 BYTE   W02
 BYTE   VOL   3*DarkBattle_mvl/mxv
 BYTE   W05
 BYTE   VOL   3*DarkBattle_mvl/mxv
 BYTE   W01
 BYTE   VOL   3*DarkBattle_mvl/mxv
 BYTE   W01
 BYTE   VOL   2*DarkBattle_mvl/mxv
 BYTE   W02
 BYTE   VOL   1*DarkBattle_mvl/mxv
 BYTE   W01
 BYTE   VOL   0*DarkBattle_mvl/mxv
 BYTE   W01
 BYTE   VOL   0*DarkBattle_mvl/mxv
 BYTE   W02
 BYTE   VOL   0*DarkBattle_mvl/mxv
 BYTE   W01
 BYTE   VOL   0*DarkBattle_mvl/mxv
 BYTE   W02
 BYTE   VOL   0*DarkBattle_mvl/mxv
 BYTE   W01
 BYTE   VOL   0*DarkBattle_mvl/mxv
 BYTE   W01
 BYTE   VOL   0*DarkBattle_mvl/mxv
 BYTE   W02
 BYTE   VOL   0*DarkBattle_mvl/mxv
 BYTE   W06
 BYTE   VOL   0*DarkBattle_mvl/mxv
 BYTE   W01
 BYTE   VOL   0*DarkBattle_mvl/mxv
 BYTE   W01
 BYTE   VOL   0*DarkBattle_mvl/mxv
 BYTE   W01
 BYTE   VOL   0*DarkBattle_mvl/mxv
 BYTE   W02
 BYTE   VOL   0*DarkBattle_mvl/mxv
 BYTE   W01
 BYTE   VOL   0*DarkBattle_mvl/mxv
 BYTE   W01
 BYTE   VOL   0*DarkBattle_mvl/mxv
 BYTE   W01
 BYTE   VOL   0*DarkBattle_mvl/mxv
 BYTE   W02
 BYTE   VOL   0*DarkBattle_mvl/mxv
 BYTE   W15
//  #02 //012   ----------------------------------------
 BYTE   EOT
 BYTE   W06
 BYTE   VOL   43*DarkBattle_mvl/mxv
 BYTE   W06
 BYTE   N12  En2
 BYTE   W12
 BYTE   Fn2
 BYTE   W12
 BYTE   An2
 BYTE   W12
 BYTE   Bn2
 BYTE   W12
 BYTE   An2
 BYTE   W12
 BYTE   Bn2
 BYTE   W12
 BYTE   Dn3
 BYTE   W12
//  #02 //013   ----------------------------------------
 BYTE   N36  En3
 BYTE   W36
 BYTE   N12  Fn3
 BYTE   W12
 BYTE   N24  En3
 BYTE   W24
 BYTE   Dn3
 BYTE   W24
//  #02 //014   ----------------------------------------
 BYTE   N72  Bn2
 BYTE   W72
 BYTE   N12  Dn3
 BYTE   W12
 BYTE   Bn2
 BYTE   W12
//  #02 //015   ----------------------------------------
 BYTE   N48  An2
 BYTE   W48
 BYTE   N24  Bn2
 BYTE   W24
 BYTE   N12  An2
 BYTE   W12
 BYTE   Fn2
 BYTE   W12
//  #02 //016   ----------------------------------------
 BYTE   TIE  En2
 BYTE   W12
 BYTE   VOL   42*DarkBattle_mvl/mxv
 BYTE   W02
 BYTE   VOL   41*DarkBattle_mvl/mxv
 BYTE   W01
 BYTE   VOL   40*DarkBattle_mvl/mxv
 BYTE   W01
 BYTE   VOL   39*DarkBattle_mvl/mxv
 BYTE   W02
 BYTE   VOL   39*DarkBattle_mvl/mxv
 BYTE   W01
 BYTE   VOL   38*DarkBattle_mvl/mxv
 BYTE   W01
 BYTE   VOL   37*DarkBattle_mvl/mxv
 BYTE   W02
 BYTE   VOL   36*DarkBattle_mvl/mxv
 BYTE   W01
 BYTE   VOL   35*DarkBattle_mvl/mxv
 BYTE   W11
 BYTE   VOL   34*DarkBattle_mvl/mxv
 BYTE   W03
 BYTE   VOL   33*DarkBattle_mvl/mxv
 BYTE   W02
 BYTE   VOL   32*DarkBattle_mvl/mxv
 BYTE   W02
 BYTE   VOL   31*DarkBattle_mvl/mxv
 BYTE   W01
 BYTE   VOL   31*DarkBattle_mvl/mxv
 BYTE   W01
 BYTE   VOL   30*DarkBattle_mvl/mxv
 BYTE   W02
 BYTE   VOL   29*DarkBattle_mvl/mxv
 BYTE   W03
 BYTE   VOL   28*DarkBattle_mvl/mxv
 BYTE   W02
 BYTE   VOL   28*DarkBattle_mvl/mxv
 BYTE   W01
 BYTE   VOL   27*DarkBattle_mvl/mxv
 BYTE   W02
 BYTE   VOL   27*DarkBattle_mvl/mxv
 BYTE   W01
 BYTE   VOL   25*DarkBattle_mvl/mxv
 BYTE   W01
 BYTE   VOL   24*DarkBattle_mvl/mxv
 BYTE   W01
 BYTE   VOL   24*DarkBattle_mvl/mxv
 BYTE   W03
 BYTE   VOL   24*DarkBattle_mvl/mxv
 BYTE   W01
 BYTE   VOL   23*DarkBattle_mvl/mxv
 BYTE   W01
 BYTE   VOL   21*DarkBattle_mvl/mxv
 BYTE   W02
 BYTE   VOL   21*DarkBattle_mvl/mxv
 BYTE   W01
 BYTE   VOL   21*DarkBattle_mvl/mxv
 BYTE   W01
 BYTE   VOL   20*DarkBattle_mvl/mxv
 BYTE   W01
 BYTE   VOL   19*DarkBattle_mvl/mxv
 BYTE   W03
 BYTE   VOL   18*DarkBattle_mvl/mxv
 BYTE   W04
 BYTE   VOL   18*DarkBattle_mvl/mxv
 BYTE   W01
 BYTE   VOL   17*DarkBattle_mvl/mxv
 BYTE   W03
 BYTE   VOL   16*DarkBattle_mvl/mxv
 BYTE   W01
 BYTE   VOL   15*DarkBattle_mvl/mxv
 BYTE   W02
 BYTE   VOL   15*DarkBattle_mvl/mxv
 BYTE   W02
 BYTE   VOL   15*DarkBattle_mvl/mxv
 BYTE   W02
 BYTE   VOL   14*DarkBattle_mvl/mxv
 BYTE   W01
 BYTE   VOL   13*DarkBattle_mvl/mxv
 BYTE   W01
 BYTE   VOL   12*DarkBattle_mvl/mxv
 BYTE   W02
 BYTE   VOL   12*DarkBattle_mvl/mxv
 BYTE   W01
 BYTE   VOL   12*DarkBattle_mvl/mxv
 BYTE   W03
 BYTE   VOL   11*DarkBattle_mvl/mxv
 BYTE   W02
 BYTE   VOL   10*DarkBattle_mvl/mxv
 BYTE   W01
 BYTE   VOL   9*DarkBattle_mvl/mxv
 BYTE   W01
//  #02 //017   ----------------------------------------
 BYTE   VOL   8*DarkBattle_mvl/mxv
 BYTE   W01
 BYTE   VOL   7*DarkBattle_mvl/mxv
 BYTE   W01
 BYTE   VOL   6*DarkBattle_mvl/mxv
 BYTE   W02
 BYTE   VOL   6*DarkBattle_mvl/mxv
 BYTE   W02
 BYTE   VOL   5*DarkBattle_mvl/mxv
 BYTE   W03
 BYTE   VOL   4*DarkBattle_mvl/mxv
 BYTE   W02
 BYTE   VOL   3*DarkBattle_mvl/mxv
 BYTE   W01
 BYTE   VOL   3*DarkBattle_mvl/mxv
 BYTE   W02
 BYTE   VOL   3*DarkBattle_mvl/mxv
 BYTE   W13
 BYTE   VOL   3*DarkBattle_mvl/mxv
 BYTE   W01
 BYTE   VOL   1*DarkBattle_mvl/mxv
 BYTE   W01
 BYTE   VOL   0*DarkBattle_mvl/mxv
 BYTE   W02
 BYTE   VOL   0*DarkBattle_mvl/mxv
 BYTE   W06
 BYTE   VOL   0*DarkBattle_mvl/mxv
 BYTE   W01
 BYTE   VOL   0*DarkBattle_mvl/mxv
 BYTE   W03
 BYTE   VOL   0*DarkBattle_mvl/mxv
 BYTE   W01
 BYTE   VOL   0*DarkBattle_mvl/mxv
 BYTE   W02
 BYTE   VOL   0*DarkBattle_mvl/mxv
 BYTE   W03
 BYTE   VOL   0*DarkBattle_mvl/mxv
 BYTE   W02
 BYTE   VOL   0*DarkBattle_mvl/mxv
 BYTE   W01
 BYTE   VOL   0*DarkBattle_mvl/mxv
 BYTE   W07
 BYTE   VOL   0*DarkBattle_mvl/mxv
 BYTE   W02
 BYTE   VOL   0*DarkBattle_mvl/mxv
 BYTE   W02
 BYTE   VOL   0*DarkBattle_mvl/mxv
 BYTE   W02
 BYTE   VOL   0*DarkBattle_mvl/mxv
 BYTE   W32
 BYTE   W01
//  #02 //018   ----------------------------------------
 BYTE   EOT
 BYTE   VOL   0*DarkBattle_mvl/mxv
 BYTE   W48
 BYTE   N96  Bn3  v104
 BYTE   W08
 BYTE   VOL   0*DarkBattle_mvl/mxv
 BYTE   W01
 BYTE   VOL   0*DarkBattle_mvl/mxv
 BYTE   W01
 BYTE   VOL   0*DarkBattle_mvl/mxv
 BYTE   W01
 BYTE   VOL   0*DarkBattle_mvl/mxv
 BYTE   W01
 BYTE   VOL   0*DarkBattle_mvl/mxv
 BYTE   W01
 BYTE   VOL   0*DarkBattle_mvl/mxv
 BYTE   W01
 BYTE   VOL   0*DarkBattle_mvl/mxv
 BYTE   W01
 BYTE   VOL   0*DarkBattle_mvl/mxv
 BYTE   W01
 BYTE   VOL   0*DarkBattle_mvl/mxv
 BYTE   W01
 BYTE   VOL   0*DarkBattle_mvl/mxv
 BYTE   W01
 BYTE   VOL   0*DarkBattle_mvl/mxv
 BYTE   W01
 BYTE   VOL   0*DarkBattle_mvl/mxv
 BYTE   W01
 BYTE   VOL   0*DarkBattle_mvl/mxv
 BYTE   W01
 BYTE   VOL   0*DarkBattle_mvl/mxv
 BYTE   W01
 BYTE   VOL   0*DarkBattle_mvl/mxv
 BYTE   W03
 BYTE   VOL   0*DarkBattle_mvl/mxv
 BYTE   W01
 BYTE   VOL   0*DarkBattle_mvl/mxv
 BYTE   W01
 BYTE   VOL   0*DarkBattle_mvl/mxv
 BYTE   W01
 BYTE   VOL   0*DarkBattle_mvl/mxv
 BYTE   W01
 BYTE   VOL   0*DarkBattle_mvl/mxv
 BYTE   W01
 BYTE   VOL   1*DarkBattle_mvl/mxv
 BYTE   W01
 BYTE   VOL   2*DarkBattle_mvl/mxv
 BYTE   W01
 BYTE   VOL   3*DarkBattle_mvl/mxv
 BYTE   W01
 BYTE   VOL   4*DarkBattle_mvl/mxv
 BYTE   W01
 BYTE   VOL   6*DarkBattle_mvl/mxv
 BYTE   W01
 BYTE   VOL   6*DarkBattle_mvl/mxv
 BYTE   W01
 BYTE   VOL   7*DarkBattle_mvl/mxv
 BYTE   W01
 BYTE   VOL   8*DarkBattle_mvl/mxv
 BYTE   W01
 BYTE   VOL   9*DarkBattle_mvl/mxv
 BYTE   W02
 BYTE   VOL   10*DarkBattle_mvl/mxv
 BYTE   W01
 BYTE   VOL   11*DarkBattle_mvl/mxv
 BYTE   W01
 BYTE   VOL   12*DarkBattle_mvl/mxv
 BYTE   W01
 BYTE   VOL   13*DarkBattle_mvl/mxv
 BYTE   W01
 BYTE   VOL   15*DarkBattle_mvl/mxv
 BYTE   W01
 BYTE   VOL   15*DarkBattle_mvl/mxv
 BYTE   W01
 BYTE   VOL   15*DarkBattle_mvl/mxv
 BYTE   W02
//  #02 //019   ----------------------------------------
 BYTE   W01
 BYTE   VOL   17*DarkBattle_mvl/mxv
 BYTE   W01
 BYTE   VOL   18*DarkBattle_mvl/mxv
 BYTE   W02
 BYTE   VOL   19*DarkBattle_mvl/mxv
 BYTE   W02
 BYTE   VOL   21*DarkBattle_mvl/mxv
 BYTE   W01
 BYTE   VOL   21*DarkBattle_mvl/mxv
 BYTE   W01
 BYTE   VOL   21*DarkBattle_mvl/mxv
 BYTE   W01
 BYTE   VOL   23*DarkBattle_mvl/mxv
 BYTE   W02
 BYTE   VOL   24*DarkBattle_mvl/mxv
 BYTE   W02
 BYTE   VOL   24*DarkBattle_mvl/mxv
 BYTE   W01
 BYTE   VOL   27*DarkBattle_mvl/mxv
 BYTE   W01
 BYTE   VOL   28*DarkBattle_mvl/mxv
 BYTE   W01
 BYTE   VOL   30*DarkBattle_mvl/mxv
 BYTE   W01
 BYTE   VOL   31*DarkBattle_mvl/mxv
 BYTE   W01
 BYTE   VOL   35*DarkBattle_mvl/mxv
 BYTE   W01
 BYTE   VOL   37*DarkBattle_mvl/mxv
 BYTE   W01
 BYTE   VOL   39*DarkBattle_mvl/mxv
 BYTE   W01
 BYTE   VOL   41*DarkBattle_mvl/mxv
 BYTE   W01
 BYTE   VOL   43*DarkBattle_mvl/mxv
 BYTE   W24
 BYTE   W02
 BYTE   N24  An3
 BYTE   W24
 BYTE   Fn3
 BYTE   W24
//  #02 //020   ----------------------------------------
 BYTE   TIE  En3
 BYTE   W48
 BYTE   W02
 BYTE   VOL   42*DarkBattle_mvl/mxv
 BYTE   W01
 BYTE   VOL   41*DarkBattle_mvl/mxv
 BYTE   W01
 BYTE   VOL   40*DarkBattle_mvl/mxv
 BYTE   W03
 BYTE   VOL   39*DarkBattle_mvl/mxv
 BYTE   W02
 BYTE   VOL   39*DarkBattle_mvl/mxv
 BYTE   W01
 BYTE   VOL   38*DarkBattle_mvl/mxv
 BYTE   W01
 BYTE   VOL   37*DarkBattle_mvl/mxv
 BYTE   W01
 BYTE   VOL   36*DarkBattle_mvl/mxv
 BYTE   W01
 BYTE   VOL   35*DarkBattle_mvl/mxv
 BYTE   W01
 BYTE   VOL   35*DarkBattle_mvl/mxv
 BYTE   W01
 BYTE   VOL   34*DarkBattle_mvl/mxv
 BYTE   W02
 BYTE   VOL   33*DarkBattle_mvl/mxv
 BYTE   W02
 BYTE   VOL   32*DarkBattle_mvl/mxv
 BYTE   W06
 BYTE   VOL   31*DarkBattle_mvl/mxv
 BYTE   W01
 BYTE   VOL   30*DarkBattle_mvl/mxv
 BYTE   W02
 BYTE   VOL   29*DarkBattle_mvl/mxv
 BYTE   W05
 BYTE   VOL   28*DarkBattle_mvl/mxv
 BYTE   W01
 BYTE   VOL   28*DarkBattle_mvl/mxv
 BYTE   W01
 BYTE   VOL   27*DarkBattle_mvl/mxv
 BYTE   W01
 BYTE   VOL   27*DarkBattle_mvl/mxv
 BYTE   W02
 BYTE   VOL   25*DarkBattle_mvl/mxv
 BYTE   W02
 BYTE   VOL   24*DarkBattle_mvl/mxv
 BYTE   W02
 BYTE   VOL   24*DarkBattle_mvl/mxv
 BYTE   W03
 BYTE   VOL   24*DarkBattle_mvl/mxv
 BYTE   W01
 BYTE   VOL   23*DarkBattle_mvl/mxv
 BYTE   W02
//  #02 //021   ----------------------------------------
 BYTE   VOL   21*DarkBattle_mvl/mxv
 BYTE   W12
 BYTE   VOL   24*DarkBattle_mvl/mxv
 BYTE   W01
 BYTE   VOL   25*DarkBattle_mvl/mxv
 BYTE   W01
 BYTE   VOL   27*DarkBattle_mvl/mxv
 BYTE   W06
 BYTE   VOL   28*DarkBattle_mvl/mxv
 BYTE   W02
 BYTE   VOL   28*DarkBattle_mvl/mxv
 BYTE   W01
 BYTE   VOL   30*DarkBattle_mvl/mxv
 BYTE   W01
 BYTE   VOL   31*DarkBattle_mvl/mxv
 BYTE   W01
 BYTE   VOL   32*DarkBattle_mvl/mxv
 BYTE   W01
 BYTE   VOL   33*DarkBattle_mvl/mxv
 BYTE   W02
 BYTE   VOL   34*DarkBattle_mvl/mxv
 BYTE   W03
 BYTE   VOL   35*DarkBattle_mvl/mxv
 BYTE   W01
 BYTE   VOL   35*DarkBattle_mvl/mxv
 BYTE   W01
 BYTE   VOL   36*DarkBattle_mvl/mxv
 BYTE   W01
 BYTE   VOL   37*DarkBattle_mvl/mxv
 BYTE   W01
 BYTE   VOL   39*DarkBattle_mvl/mxv
 BYTE   W01
 BYTE   VOL   42*DarkBattle_mvl/mxv
 BYTE   W01
 BYTE   VOL   43*DarkBattle_mvl/mxv
 BYTE   W11
 BYTE   EOT
 BYTE   N48  Dn3
 BYTE   W48
//  #02 //022   ----------------------------------------
 BYTE   An2
 BYTE   W48
 BYTE   TIE  Bn2
 BYTE   W44
 BYTE   W02
 BYTE   VOL   41*DarkBattle_mvl/mxv
 BYTE   W02
//  #02 //023   ----------------------------------------
 BYTE   W01
 BYTE   VOL   40*DarkBattle_mvl/mxv
 BYTE   W03
 BYTE   VOL   39*DarkBattle_mvl/mxv
 BYTE   W07
 BYTE   VOL   39*DarkBattle_mvl/mxv
 BYTE   W03
 BYTE   VOL   38*DarkBattle_mvl/mxv
 BYTE   W06
 BYTE   VOL   37*DarkBattle_mvl/mxv
 BYTE   W03
 BYTE   VOL   36*DarkBattle_mvl/mxv
 BYTE   W06
 BYTE   VOL   35*DarkBattle_mvl/mxv
 BYTE   W03
 BYTE   VOL   35*DarkBattle_mvl/mxv
 BYTE   W06
 BYTE   VOL   34*DarkBattle_mvl/mxv
 BYTE   W03
 BYTE   VOL   33*DarkBattle_mvl/mxv
 BYTE   W05
 BYTE   VOL   32*DarkBattle_mvl/mxv
 BYTE   W03
 BYTE   VOL   31*DarkBattle_mvl/mxv
 BYTE   W06
 BYTE   VOL   31*DarkBattle_mvl/mxv
 BYTE   W03
 BYTE   VOL   30*DarkBattle_mvl/mxv
 BYTE   W06
 BYTE   VOL   29*DarkBattle_mvl/mxv
 BYTE   W04
 BYTE   VOL   28*DarkBattle_mvl/mxv
 BYTE   W06
 BYTE   VOL   28*DarkBattle_mvl/mxv
 BYTE   W03
 BYTE   VOL   27*DarkBattle_mvl/mxv
 BYTE   W09
 BYTE   VOL   27*DarkBattle_mvl/mxv
 BYTE   W03
 BYTE   VOL   25*DarkBattle_mvl/mxv
 BYTE   W04
 BYTE   EOT
 BYTE   W03
//  #02 //024   ----------------------------------------
Label_01200E64:
 BYTE   TIE  Bn1  v076
 BYTE   TIE  Ds2
 BYTE   TIE  Gn2
 BYTE   W96
 BYTE   PEND
//  #02 //025   ----------------------------------------
 BYTE   W96
//  #02 //026   ----------------------------------------
 BYTE   EOT
 BYTE   Bn1  v051
 BYTE   Gn2
Label_01200E72:
 BYTE   TIE  As1  v076
 BYTE   TIE  Dn2
 BYTE   TIE  Fs2
 BYTE   W96
 BYTE   PEND
//  #02 //027   ----------------------------------------
 BYTE   W96
//  #02 //028   ----------------------------------------
 BYTE   EOT
 BYTE   As1  v050
 BYTE   Fs2
//  #02 //029   ----------------------------------------
 BYTE   PATT
  POIN2 Label_01200E64
//  #02 //030   ----------------------------------------
 BYTE   W96
//  #02 //031   ----------------------------------------
 BYTE   EOT
 BYTE   Bn1  v051
 BYTE   Gn2
//  #02 //032   ----------------------------------------
 BYTE   PATT
  POIN2 Label_01200E72
//  #02 //033   ----------------------------------------
 BYTE   W78
 BYTE   VOL   27*DarkBattle_mvl/mxv
 BYTE   W02
 BYTE   VOL   28*DarkBattle_mvl/mxv
 BYTE   W01
 BYTE   VOL   29*DarkBattle_mvl/mxv
 BYTE   W01
 BYTE   VOL   30*DarkBattle_mvl/mxv
 BYTE   W01
 BYTE   VOL   31*DarkBattle_mvl/mxv
 BYTE   W02
 BYTE   VOL   33*DarkBattle_mvl/mxv
 BYTE   W01
 BYTE   VOL   34*DarkBattle_mvl/mxv
 BYTE   W01
 BYTE   VOL   35*DarkBattle_mvl/mxv
 BYTE   W01
 BYTE   VOL   36*DarkBattle_mvl/mxv
 BYTE   W01
 BYTE   VOL   37*DarkBattle_mvl/mxv
 BYTE   W01
 BYTE   VOL   38*DarkBattle_mvl/mxv
 BYTE   W01
 BYTE   VOL   39*DarkBattle_mvl/mxv
 BYTE   W01
 BYTE   VOL   40*DarkBattle_mvl/mxv
 BYTE   W01
 BYTE   EOT
 BYTE   As1  v050
 BYTE   Fs2
 BYTE   VOL   41*DarkBattle_mvl/mxv
 BYTE   W01
 BYTE   VOL   42*DarkBattle_mvl/mxv
 BYTE   W02
//  #02 //034   ----------------------------------------
 BYTE   N92  Gn1  v104
 BYTE   N92  Gn2
 BYTE   W12
 BYTE   VOL   42*DarkBattle_mvl/mxv
 BYTE   W01
 BYTE   VOL   41*DarkBattle_mvl/mxv
 BYTE   W01
 BYTE   VOL   39*DarkBattle_mvl/mxv
 BYTE   W01
 BYTE   VOL   37*DarkBattle_mvl/mxv
 BYTE   W01
 BYTE   VOL   35*DarkBattle_mvl/mxv
 BYTE   W01
 BYTE   VOL   33*DarkBattle_mvl/mxv
 BYTE   W01
 BYTE   VOL   31*DarkBattle_mvl/mxv
 BYTE   W01
 BYTE   VOL   31*DarkBattle_mvl/mxv
 BYTE   W01
 BYTE   VOL   30*DarkBattle_mvl/mxv
 BYTE   W02
 BYTE   VOL   29*DarkBattle_mvl/mxv
 BYTE   W01
 BYTE   VOL   28*DarkBattle_mvl/mxv
 BYTE   W01
 BYTE   VOL   28*DarkBattle_mvl/mxv
 BYTE   W02
 BYTE   VOL   27*DarkBattle_mvl/mxv
 BYTE   W01
 BYTE   VOL   27*DarkBattle_mvl/mxv
 BYTE   W02
 BYTE   VOL   25*DarkBattle_mvl/mxv
 BYTE   W02
 BYTE   VOL   24*DarkBattle_mvl/mxv
 BYTE   W01
 BYTE   VOL   24*DarkBattle_mvl/mxv
 BYTE   W01
 BYTE   VOL   24*DarkBattle_mvl/mxv
 BYTE   W02
 BYTE   VOL   23*DarkBattle_mvl/mxv
 BYTE   W02
 BYTE   VOL   21*DarkBattle_mvl/mxv
 BYTE   W03
 BYTE   VOL   21*DarkBattle_mvl/mxv
 BYTE   W02
 BYTE   VOL   20*DarkBattle_mvl/mxv
 BYTE   W02
 BYTE   VOL   19*DarkBattle_mvl/mxv
 BYTE   W44
 BYTE   W02
 BYTE   VOL   20*DarkBattle_mvl/mxv
 BYTE   W01
 BYTE   VOL   24*DarkBattle_mvl/mxv
 BYTE   W01
 BYTE   VOL   36*DarkBattle_mvl/mxv
 BYTE   W01
 BYTE   VOL   43*DarkBattle_mvl/mxv
 BYTE   W03
//  #02 //035   ----------------------------------------
 BYTE   N96  Gn1
 BYTE   N96  Gn2
 BYTE   W14
 BYTE   VOL   41*DarkBattle_mvl/mxv
 BYTE   W01
 BYTE   VOL   40*DarkBattle_mvl/mxv
 BYTE   W01
 BYTE   VOL   39*DarkBattle_mvl/mxv
 BYTE   W01
 BYTE   VOL   39*DarkBattle_mvl/mxv
 BYTE   W01
 BYTE   VOL   38*DarkBattle_mvl/mxv
 BYTE   W01
 BYTE   VOL   37*DarkBattle_mvl/mxv
 BYTE   W01
 BYTE   VOL   36*DarkBattle_mvl/mxv
 BYTE   W01
 BYTE   VOL   35*DarkBattle_mvl/mxv
 BYTE   W02
 BYTE   VOL   35*DarkBattle_mvl/mxv
 BYTE   W02
 BYTE   VOL   34*DarkBattle_mvl/mxv
 BYTE   W01
 BYTE   VOL   33*DarkBattle_mvl/mxv
 BYTE   W01
 BYTE   VOL   32*DarkBattle_mvl/mxv
 BYTE   W01
 BYTE   VOL   31*DarkBattle_mvl/mxv
 BYTE   W01
 BYTE   VOL   31*DarkBattle_mvl/mxv
 BYTE   W01
 BYTE   VOL   30*DarkBattle_mvl/mxv
 BYTE   W02
 BYTE   VOL   29*DarkBattle_mvl/mxv
 BYTE   W01
 BYTE   VOL   28*DarkBattle_mvl/mxv
 BYTE   W02
 BYTE   VOL   28*DarkBattle_mvl/mxv
 BYTE   W01
 BYTE   VOL   27*DarkBattle_mvl/mxv
 BYTE   W02
 BYTE   VOL   27*DarkBattle_mvl/mxv
 BYTE   W01
 BYTE   VOL   25*DarkBattle_mvl/mxv
 BYTE   W02
 BYTE   VOL   24*DarkBattle_mvl/mxv
 BYTE   W04
 BYTE   VOL   24*DarkBattle_mvl/mxv
 BYTE   W02
 BYTE   VOL   23*DarkBattle_mvl/mxv
 BYTE   W02
 BYTE   VOL   21*DarkBattle_mvl/mxv
 BYTE   W02
 BYTE   VOL   21*DarkBattle_mvl/mxv
 BYTE   W03
 BYTE   VOL   21*DarkBattle_mvl/mxv
 BYTE   W04
 BYTE   VOL   20*DarkBattle_mvl/mxv
 BYTE   W03
 BYTE   VOL   19*DarkBattle_mvl/mxv
 BYTE   W09
 BYTE   VOL   18*DarkBattle_mvl/mxv
 BYTE   W08
 BYTE   VOL   21*DarkBattle_mvl/mxv
 BYTE   W01
 BYTE   VOL   21*DarkBattle_mvl/mxv
 BYTE   W01
 BYTE   VOL   24*DarkBattle_mvl/mxv
 BYTE   W01
 BYTE   VOL   24*DarkBattle_mvl/mxv
 BYTE   W01
 BYTE   VOL   27*DarkBattle_mvl/mxv
 BYTE   W01
 BYTE   VOL   28*DarkBattle_mvl/mxv
 BYTE   W01
 BYTE   VOL   28*DarkBattle_mvl/mxv
 BYTE   W01
 BYTE   VOL   30*DarkBattle_mvl/mxv
 BYTE   W01
 BYTE   VOL   31*DarkBattle_mvl/mxv
 BYTE   W01
 BYTE   VOL   33*DarkBattle_mvl/mxv
 BYTE   W01
 BYTE   VOL   35*DarkBattle_mvl/mxv
 BYTE   W01
 BYTE   VOL   36*DarkBattle_mvl/mxv
 BYTE   W01
 BYTE   VOL   37*DarkBattle_mvl/mxv
 BYTE   W01
 BYTE   VOL   39*DarkBattle_mvl/mxv
 BYTE   W01
 BYTE   VOL   42*DarkBattle_mvl/mxv
 BYTE   W04
//  #02 //036   ----------------------------------------
 BYTE   N48  Gs1  v080
 BYTE   N48  Gs2
 BYTE   W48
 BYTE   As1
 BYTE   N48  As2
 BYTE   W48
//  #02 //037   ----------------------------------------
 BYTE   Bn1
 BYTE   N48  Bn2
 BYTE   W48
 BYTE   TIE  Cs2
 BYTE   TIE  Cs3
 BYTE   W48
//  #02 //038   ----------------------------------------
 BYTE   W96
//  #02 //039   ----------------------------------------
 BYTE   EOT
 BYTE   Cs2  v061
 BYTE   GoTo
  POIN2 Label_012008E6
 BYTE   FINE

//**************** Track 3 (Midi-Chn.2) ****************//

DarkBattle_003:
//  #03 //000   ----------------------------------------
 BYTE   KEYSH   DarkBattle_key+0
Label_FF9C12:
 BYTE   VOICE   0
 BYTE   MODT 0
 BYTE   LFOS 44
 BYTE   PAN   c_v+6
 BYTE   VOL   8*DarkBattle_mvl/mxv
 BYTE   W96
//  #03 //001   ----------------------------------------
 BYTE   W96
//  #03 //002   ----------------------------------------
 BYTE   W96
//  #03 //003   ----------------------------------------
 BYTE   W96
//  #03 //004   ----------------------------------------
 BYTE   W96
//  #03 //005   ----------------------------------------
 BYTE   W96
//  #03 //006   ----------------------------------------
 BYTE   W96
//  #03 //007   ----------------------------------------
 BYTE   W96
//  #03 //008   ----------------------------------------
 BYTE   W96
//  #03 //009   ----------------------------------------
 BYTE   W96
//  #03 //010   ----------------------------------------
 BYTE   W96
//  #03 //011   ----------------------------------------
 BYTE   W96
//  #03 //012   ----------------------------------------
 BYTE   W96
//  #03 //013   ----------------------------------------
 BYTE   W96
//  #03 //014   ----------------------------------------
 BYTE   W96
//  #03 //015   ----------------------------------------
 BYTE   W96
//  #03 //016   ----------------------------------------
Label_FF9C2C:
 BYTE   W24
 BYTE   N06  En5  v104
 BYTE   W48
 BYTE   N06
 BYTE   W24
 BYTE   PEND
//  #03 //017   ----------------------------------------
 BYTE   PATT
  POIN2 Label_FF9C2C
//  #03 //018   ----------------------------------------
 BYTE   PATT
  POIN2 Label_FF9C2C
//  #03 //019   ----------------------------------------
 BYTE   PATT
  POIN2 Label_FF9C2C
//  #03 //020   ----------------------------------------
 BYTE   PATT
  POIN2 Label_FF9C2C
//  #03 //021   ----------------------------------------
 BYTE   PATT
  POIN2 Label_FF9C2C
//  #03 //022   ----------------------------------------
 BYTE   PATT
  POIN2 Label_FF9C2C
//  #03 //023   ----------------------------------------
 BYTE   PATT
  POIN2 Label_FF9C2C
//  #03 //024   ----------------------------------------
Label_FF9C57:
 BYTE   N06  En4  v104
 BYTE   N06  En5
 BYTE   W24
 BYTE   En4
 BYTE   N06  En5
 BYTE   W24
 BYTE   En4
 BYTE   N06  En5
 BYTE   W24
 BYTE   En4
 BYTE   N06  En5
 BYTE   W24
 BYTE   PEND
//  #03 //025   ----------------------------------------
 BYTE   PATT
  POIN2 Label_FF9C57
//  #03 //026   ----------------------------------------
Label_FF9C6F:
 BYTE   N06  Ds4  v104
 BYTE   N06  Ds5
 BYTE   W24
 BYTE   Ds4
 BYTE   N06  Ds5
 BYTE   W24
 BYTE   Ds4
 BYTE   N06  Ds5
 BYTE   W24
 BYTE   Ds4
 BYTE   N06  Ds5
 BYTE   W24
 BYTE   PEND
//  #03 //027   ----------------------------------------
 BYTE   PATT
  POIN2 Label_FF9C6F
//  #03 //028   ----------------------------------------
 BYTE   PATT
  POIN2 Label_FF9C57
//  #03 //029   ----------------------------------------
 BYTE   PATT
  POIN2 Label_FF9C57
//  #03 //030   ----------------------------------------
 BYTE   PATT
  POIN2 Label_FF9C6F
//  #03 //031   ----------------------------------------
 BYTE   PATT
  POIN2 Label_FF9C6F
//  #03 //032   ----------------------------------------
 BYTE   W96
//  #03 //033   ----------------------------------------
 BYTE   W96
//  #03 //034   ----------------------------------------
 BYTE   W96
//  #03 //035   ----------------------------------------
 BYTE   W96
//  #03 //036   ----------------------------------------
 BYTE   W96
//  #03 //037   ----------------------------------------
 BYTE   GoTo
  POIN2 Label_FF9C12
 BYTE   FINE

//**************** Track 4 (Midi-Chn.3) ****************//

DarkBattle_004:
//  #04 //000   ----------------------------------------
 BYTE   KEYSH   DarkBattle_key+0
Label_01200FC6:
 BYTE   VOICE   40
 BYTE   MODT 0
 BYTE   LFOS 44
 BYTE   PAN   c_v+11
 BYTE   VOL   11*DarkBattle_mvl/mxv
 BYTE   MOD 5
 BYTE   VOL   11*DarkBattle_mvl/mxv
 BYTE   N96  En2  v104
 BYTE   TIE  An2
 BYTE   TIE  Bn2
 BYTE   N96  Dn3
 BYTE   W14
 BYTE   VOL   11*DarkBattle_mvl/mxv
 BYTE   W01
 BYTE   VOL   11*DarkBattle_mvl/mxv
 BYTE   W01
 BYTE   VOL   12*DarkBattle_mvl/mxv
 BYTE   W03
 BYTE   VOL   13*DarkBattle_mvl/mxv
 BYTE   W03
 BYTE   VOL   14*DarkBattle_mvl/mxv
 BYTE   W01
 BYTE   VOL   14*DarkBattle_mvl/mxv
 BYTE   W01
 BYTE   VOL   14*DarkBattle_mvl/mxv
 BYTE   W02
 BYTE   VOL   15*DarkBattle_mvl/mxv
 BYTE   W02
 BYTE   VOL   16*DarkBattle_mvl/mxv
 BYTE   W02
 BYTE   VOL   16*DarkBattle_mvl/mxv
 BYTE   W02
 BYTE   VOL   17*DarkBattle_mvl/mxv
 BYTE   W01
 BYTE   VOL   18*DarkBattle_mvl/mxv
 BYTE   W01
 BYTE   VOL   19*DarkBattle_mvl/mxv
 BYTE   W02
 BYTE   VOL   19*DarkBattle_mvl/mxv
 BYTE   W01
 BYTE   VOL   20*DarkBattle_mvl/mxv
 BYTE   W03
 BYTE   VOL   21*DarkBattle_mvl/mxv
 BYTE   W02
 BYTE   VOL   21*DarkBattle_mvl/mxv
 BYTE   W02
 BYTE   VOL   22*DarkBattle_mvl/mxv
 BYTE   W02
 BYTE   VOL   23*DarkBattle_mvl/mxv
 BYTE   W01
 BYTE   VOL   23*DarkBattle_mvl/mxv
 BYTE   W02
 BYTE   VOL   23*DarkBattle_mvl/mxv
 BYTE   W02
 BYTE   VOL   24*DarkBattle_mvl/mxv
 BYTE   W02
 BYTE   VOL   25*DarkBattle_mvl/mxv
 BYTE   W01
 BYTE   VOL   26*DarkBattle_mvl/mxv
 BYTE   W02
 BYTE   VOL   26*DarkBattle_mvl/mxv
 BYTE   W02
 BYTE   VOL   28*DarkBattle_mvl/mxv
 BYTE   W01
 BYTE   VOL   29*DarkBattle_mvl/mxv
 BYTE   W02
 BYTE   VOL   29*DarkBattle_mvl/mxv
 BYTE   W01
 BYTE   VOL   29*DarkBattle_mvl/mxv
 BYTE   W02
 BYTE   VOL   31*DarkBattle_mvl/mxv
 BYTE   W01
 BYTE   VOL   32*DarkBattle_mvl/mxv
 BYTE   W03
 BYTE   VOL   32*DarkBattle_mvl/mxv
 BYTE   W02
 BYTE   VOL   32*DarkBattle_mvl/mxv
 BYTE   W01
 BYTE   VOL   33*DarkBattle_mvl/mxv
 BYTE   W01
 BYTE   VOL   35*DarkBattle_mvl/mxv
 BYTE   W03
 BYTE   VOL   35*DarkBattle_mvl/mxv
 BYTE   W07
 BYTE   VOL   36*DarkBattle_mvl/mxv
 BYTE   W01
 BYTE   VOL   37*DarkBattle_mvl/mxv
 BYTE   W01
 BYTE   VOL   37*DarkBattle_mvl/mxv
 BYTE   W01
 BYTE   VOL   38*DarkBattle_mvl/mxv
 BYTE   W02
 BYTE   VOL   39*DarkBattle_mvl/mxv
 BYTE   W02
 BYTE   VOL   40*DarkBattle_mvl/mxv
 BYTE   W02
 BYTE   VOL   40*DarkBattle_mvl/mxv
 BYTE   W01
 BYTE   VOL   41*DarkBattle_mvl/mxv
 BYTE   W01
 BYTE   VOL   43*DarkBattle_mvl/mxv
 BYTE   W01
 BYTE   VOL   44*DarkBattle_mvl/mxv
 BYTE   W01
 BYTE   VOL   45*DarkBattle_mvl/mxv
 BYTE   W01
//  #04 //001   ----------------------------------------
Label_0120106B:
 BYTE   VOL   46*DarkBattle_mvl/mxv
 BYTE   N96  Fn2  v104
 BYTE   N96  En3
 BYTE   W21
 BYTE   VOL   44*DarkBattle_mvl/mxv
 BYTE   W01
 BYTE   VOL   43*DarkBattle_mvl/mxv
 BYTE   W01
 BYTE   VOL   43*DarkBattle_mvl/mxv
 BYTE   W02
 BYTE   VOL   42*DarkBattle_mvl/mxv
 BYTE   W01
 BYTE   VOL   41*DarkBattle_mvl/mxv
 BYTE   W01
 BYTE   VOL   40*DarkBattle_mvl/mxv
 BYTE   W01
 BYTE   VOL   40*DarkBattle_mvl/mxv
 BYTE   W01
 BYTE   VOL   39*DarkBattle_mvl/mxv
 BYTE   W01
 BYTE   VOL   38*DarkBattle_mvl/mxv
 BYTE   W02
 BYTE   VOL   37*DarkBattle_mvl/mxv
 BYTE   W03
 BYTE   VOL   37*DarkBattle_mvl/mxv
 BYTE   W01
 BYTE   VOL   36*DarkBattle_mvl/mxv
 BYTE   W01
 BYTE   VOL   35*DarkBattle_mvl/mxv
 BYTE   W01
 BYTE   VOL   35*DarkBattle_mvl/mxv
 BYTE   W02
 BYTE   VOL   35*DarkBattle_mvl/mxv
 BYTE   W02
 BYTE   VOL   33*DarkBattle_mvl/mxv
 BYTE   W02
 BYTE   VOL   32*DarkBattle_mvl/mxv
 BYTE   W01
 BYTE   VOL   32*DarkBattle_mvl/mxv
 BYTE   W02
 BYTE   VOL   32*DarkBattle_mvl/mxv
 BYTE   W01
 BYTE   VOL   31*DarkBattle_mvl/mxv
 BYTE   W01
 BYTE   VOL   29*DarkBattle_mvl/mxv
 BYTE   W01
 BYTE   VOL   29*DarkBattle_mvl/mxv
 BYTE   W01
 BYTE   VOL   29*DarkBattle_mvl/mxv
 BYTE   W01
 BYTE   VOL   28*DarkBattle_mvl/mxv
 BYTE   W01
 BYTE   VOL   27*DarkBattle_mvl/mxv
 BYTE   W01
 BYTE   VOL   26*DarkBattle_mvl/mxv
 BYTE   W01
 BYTE   VOL   25*DarkBattle_mvl/mxv
 BYTE   W01
 BYTE   VOL   24*DarkBattle_mvl/mxv
 BYTE   W01
 BYTE   VOL   23*DarkBattle_mvl/mxv
 BYTE   W01
 BYTE   VOL   23*DarkBattle_mvl/mxv
 BYTE   W01
 BYTE   VOL   22*DarkBattle_mvl/mxv
 BYTE   W02
 BYTE   VOL   21*DarkBattle_mvl/mxv
 BYTE   W01
 BYTE   VOL   21*DarkBattle_mvl/mxv
 BYTE   W02
 BYTE   VOL   20*DarkBattle_mvl/mxv
 BYTE   W03
 BYTE   VOL   20*DarkBattle_mvl/mxv
 BYTE   W02
 BYTE   VOL   19*DarkBattle_mvl/mxv
 BYTE   W03
 BYTE   VOL   19*DarkBattle_mvl/mxv
 BYTE   W02
 BYTE   VOL   18*DarkBattle_mvl/mxv
 BYTE   W01
 BYTE   VOL   17*DarkBattle_mvl/mxv
 BYTE   W01
 BYTE   VOL   16*DarkBattle_mvl/mxv
 BYTE   W01
 BYTE   VOL   16*DarkBattle_mvl/mxv
 BYTE   W01
 BYTE   VOL   15*DarkBattle_mvl/mxv
 BYTE   W01
 BYTE   VOL   14*DarkBattle_mvl/mxv
 BYTE   W01
 BYTE   VOL   14*DarkBattle_mvl/mxv
 BYTE   W01
 BYTE   VOL   13*DarkBattle_mvl/mxv
 BYTE   W02
 BYTE   VOL   12*DarkBattle_mvl/mxv
 BYTE   W02
 BYTE   VOL   11*DarkBattle_mvl/mxv
 BYTE   W01
 BYTE   VOL   11*DarkBattle_mvl/mxv
 BYTE   W10
 BYTE   PEND
//  #04 //002   ----------------------------------------
 BYTE   EOT
 BYTE   An2  v059
Label_01201107:
 BYTE   N96  En2  v104
 BYTE   TIE  An2
 BYTE   TIE  Bn2
 BYTE   N48  Dn3
 BYTE   W02
 BYTE   VOL   11*DarkBattle_mvl/mxv
 BYTE   W03
 BYTE   VOL   12*DarkBattle_mvl/mxv
 BYTE   W01
 BYTE   VOL   13*DarkBattle_mvl/mxv
 BYTE   W02
 BYTE   VOL   14*DarkBattle_mvl/mxv
 BYTE   W01
 BYTE   VOL   14*DarkBattle_mvl/mxv
 BYTE   W02
 BYTE   VOL   14*DarkBattle_mvl/mxv
 BYTE   W02
 BYTE   VOL   15*DarkBattle_mvl/mxv
 BYTE   W03
 BYTE   VOL   16*DarkBattle_mvl/mxv
 BYTE   W01
 BYTE   VOL   16*DarkBattle_mvl/mxv
 BYTE   W02
 BYTE   VOL   17*DarkBattle_mvl/mxv
 BYTE   W01
 BYTE   VOL   18*DarkBattle_mvl/mxv
 BYTE   W02
 BYTE   VOL   19*DarkBattle_mvl/mxv
 BYTE   W04
 BYTE   VOL   19*DarkBattle_mvl/mxv
 BYTE   W02
 BYTE   VOL   20*DarkBattle_mvl/mxv
 BYTE   W02
 BYTE   VOL   20*DarkBattle_mvl/mxv
 BYTE   W02
 BYTE   VOL   21*DarkBattle_mvl/mxv
 BYTE   W02
 BYTE   VOL   21*DarkBattle_mvl/mxv
 BYTE   W02
 BYTE   VOL   22*DarkBattle_mvl/mxv
 BYTE   W01
 BYTE   VOL   23*DarkBattle_mvl/mxv
 BYTE   W02
 BYTE   VOL   23*DarkBattle_mvl/mxv
 BYTE   W02
 BYTE   VOL   23*DarkBattle_mvl/mxv
 BYTE   W02
 BYTE   VOL   24*DarkBattle_mvl/mxv
 BYTE   W01
 BYTE   VOL   25*DarkBattle_mvl/mxv
 BYTE   W02
 BYTE   VOL   26*DarkBattle_mvl/mxv
 BYTE   W01
 BYTE   VOL   26*DarkBattle_mvl/mxv
 BYTE   W01
 BYTE   VOL   27*DarkBattle_mvl/mxv
 BYTE   N48  Fn3
 BYTE   W02
 BYTE   VOL   28*DarkBattle_mvl/mxv
 BYTE   W01
 BYTE   VOL   29*DarkBattle_mvl/mxv
 BYTE   W02
 BYTE   VOL   29*DarkBattle_mvl/mxv
 BYTE   W02
 BYTE   VOL   29*DarkBattle_mvl/mxv
 BYTE   W02
 BYTE   VOL   31*DarkBattle_mvl/mxv
 BYTE   W01
 BYTE   VOL   32*DarkBattle_mvl/mxv
 BYTE   W02
 BYTE   VOL   32*DarkBattle_mvl/mxv
 BYTE   W01
 BYTE   VOL   32*DarkBattle_mvl/mxv
 BYTE   W02
 BYTE   VOL   33*DarkBattle_mvl/mxv
 BYTE   W01
 BYTE   VOL   35*DarkBattle_mvl/mxv
 BYTE   W01
 BYTE   VOL   35*DarkBattle_mvl/mxv
 BYTE   W02
 BYTE   VOL   36*DarkBattle_mvl/mxv
 BYTE   W01
 BYTE   VOL   37*DarkBattle_mvl/mxv
 BYTE   W01
 BYTE   VOL   37*DarkBattle_mvl/mxv
 BYTE   W02
 BYTE   VOL   38*DarkBattle_mvl/mxv
 BYTE   W03
 BYTE   VOL   39*DarkBattle_mvl/mxv
 BYTE   W03
 BYTE   VOL   40*DarkBattle_mvl/mxv
 BYTE   W01
 BYTE   VOL   40*DarkBattle_mvl/mxv
 BYTE   W01
 BYTE   VOL   41*DarkBattle_mvl/mxv
 BYTE   W01
 BYTE   VOL   42*DarkBattle_mvl/mxv
 BYTE   W01
 BYTE   VOL   43*DarkBattle_mvl/mxv
 BYTE   W01
 BYTE   VOL   43*DarkBattle_mvl/mxv
 BYTE   W01
 BYTE   VOL   45*DarkBattle_mvl/mxv
 BYTE   W01
 BYTE   VOL   46*DarkBattle_mvl/mxv
 BYTE   W12
 BYTE   PEND
//  #04 //003   ----------------------------------------
Label_012011AA:
 BYTE   N96  Fn2  v104
 BYTE   N96  En3
 BYTE   W17
 BYTE   VOL   45*DarkBattle_mvl/mxv
 BYTE   W01
 BYTE   VOL   44*DarkBattle_mvl/mxv
 BYTE   W01
 BYTE   VOL   43*DarkBattle_mvl/mxv
 BYTE   W01
 BYTE   VOL   42*DarkBattle_mvl/mxv
 BYTE   W01
 BYTE   VOL   41*DarkBattle_mvl/mxv
 BYTE   W02
 BYTE   VOL   40*DarkBattle_mvl/mxv
 BYTE   W02
 BYTE   VOL   40*DarkBattle_mvl/mxv
 BYTE   W03
 BYTE   VOL   39*DarkBattle_mvl/mxv
 BYTE   W01
 BYTE   VOL   37*DarkBattle_mvl/mxv
 BYTE   W01
 BYTE   VOL   37*DarkBattle_mvl/mxv
 BYTE   W01
 BYTE   VOL   35*DarkBattle_mvl/mxv
 BYTE   W01
 BYTE   VOL   35*DarkBattle_mvl/mxv
 BYTE   W04
 BYTE   VOL   35*DarkBattle_mvl/mxv
 BYTE   W01
 BYTE   VOL   33*DarkBattle_mvl/mxv
 BYTE   W01
 BYTE   VOL   32*DarkBattle_mvl/mxv
 BYTE   W02
 BYTE   VOL   32*DarkBattle_mvl/mxv
 BYTE   W02
 BYTE   VOL   31*DarkBattle_mvl/mxv
 BYTE   W01
 BYTE   VOL   29*DarkBattle_mvl/mxv
 BYTE   W02
 BYTE   VOL   29*DarkBattle_mvl/mxv
 BYTE   W02
 BYTE   VOL   29*DarkBattle_mvl/mxv
 BYTE   W02
 BYTE   VOL   28*DarkBattle_mvl/mxv
 BYTE   W02
 BYTE   VOL   27*DarkBattle_mvl/mxv
 BYTE   W01
 BYTE   VOL   26*DarkBattle_mvl/mxv
 BYTE   W01
 BYTE   VOL   26*DarkBattle_mvl/mxv
 BYTE   W01
 BYTE   VOL   25*DarkBattle_mvl/mxv
 BYTE   W01
 BYTE   VOL   24*DarkBattle_mvl/mxv
 BYTE   W02
 BYTE   VOL   23*DarkBattle_mvl/mxv
 BYTE   W06
 BYTE   VOL   23*DarkBattle_mvl/mxv
 BYTE   W01
 BYTE   VOL   23*DarkBattle_mvl/mxv
 BYTE   W01
 BYTE   VOL   22*DarkBattle_mvl/mxv
 BYTE   W01
 BYTE   VOL   21*DarkBattle_mvl/mxv
 BYTE   W01
 BYTE   VOL   21*DarkBattle_mvl/mxv
 BYTE   W05
 BYTE   VOL   20*DarkBattle_mvl/mxv
 BYTE   W01
 BYTE   VOL   19*DarkBattle_mvl/mxv
 BYTE   W02
 BYTE   VOL   19*DarkBattle_mvl/mxv
 BYTE   W01
 BYTE   VOL   18*DarkBattle_mvl/mxv
 BYTE   W01
 BYTE   VOL   17*DarkBattle_mvl/mxv
 BYTE   W02
 BYTE   VOL   16*DarkBattle_mvl/mxv
 BYTE   W02
 BYTE   VOL   16*DarkBattle_mvl/mxv
 BYTE   W02
 BYTE   VOL   15*DarkBattle_mvl/mxv
 BYTE   W02
 BYTE   VOL   14*DarkBattle_mvl/mxv
 BYTE   W01
 BYTE   VOL   14*DarkBattle_mvl/mxv
 BYTE   W01
 BYTE   VOL   13*DarkBattle_mvl/mxv
 BYTE   W02
 BYTE   VOL   12*DarkBattle_mvl/mxv
 BYTE   W07
 BYTE   PEND
//  #04 //004   ----------------------------------------
 BYTE   EOT
 BYTE   An2  v059
Label_01201238:
 BYTE   N96  En2  v104
 BYTE   TIE  An2
 BYTE   TIE  Bn2
 BYTE   N96  Dn3
 BYTE   W14
 BYTE   VOL   11*DarkBattle_mvl/mxv
 BYTE   W01
 BYTE   VOL   11*DarkBattle_mvl/mxv
 BYTE   W01
 BYTE   VOL   12*DarkBattle_mvl/mxv
 BYTE   W03
 BYTE   VOL   13*DarkBattle_mvl/mxv
 BYTE   W03
 BYTE   VOL   14*DarkBattle_mvl/mxv
 BYTE   W01
 BYTE   VOL   14*DarkBattle_mvl/mxv
 BYTE   W01
 BYTE   VOL   14*DarkBattle_mvl/mxv
 BYTE   W02
 BYTE   VOL   15*DarkBattle_mvl/mxv
 BYTE   W02
 BYTE   VOL   16*DarkBattle_mvl/mxv
 BYTE   W02
 BYTE   VOL   16*DarkBattle_mvl/mxv
 BYTE   W02
 BYTE   VOL   17*DarkBattle_mvl/mxv
 BYTE   W01
 BYTE   VOL   18*DarkBattle_mvl/mxv
 BYTE   W01
 BYTE   VOL   19*DarkBattle_mvl/mxv
 BYTE   W02
 BYTE   VOL   19*DarkBattle_mvl/mxv
 BYTE   W01
 BYTE   VOL   20*DarkBattle_mvl/mxv
 BYTE   W03
 BYTE   VOL   21*DarkBattle_mvl/mxv
 BYTE   W02
 BYTE   VOL   21*DarkBattle_mvl/mxv
 BYTE   W02
 BYTE   VOL   22*DarkBattle_mvl/mxv
 BYTE   W02
 BYTE   VOL   23*DarkBattle_mvl/mxv
 BYTE   W01
 BYTE   VOL   23*DarkBattle_mvl/mxv
 BYTE   W02
 BYTE   VOL   23*DarkBattle_mvl/mxv
 BYTE   W02
 BYTE   VOL   24*DarkBattle_mvl/mxv
 BYTE   W02
 BYTE   VOL   25*DarkBattle_mvl/mxv
 BYTE   W01
 BYTE   VOL   26*DarkBattle_mvl/mxv
 BYTE   W02
 BYTE   VOL   26*DarkBattle_mvl/mxv
 BYTE   W02
 BYTE   VOL   28*DarkBattle_mvl/mxv
 BYTE   W01
 BYTE   VOL   29*DarkBattle_mvl/mxv
 BYTE   W02
 BYTE   VOL   29*DarkBattle_mvl/mxv
 BYTE   W01
 BYTE   VOL   29*DarkBattle_mvl/mxv
 BYTE   W02
 BYTE   VOL   31*DarkBattle_mvl/mxv
 BYTE   W01
 BYTE   VOL   32*DarkBattle_mvl/mxv
 BYTE   W03
 BYTE   VOL   32*DarkBattle_mvl/mxv
 BYTE   W02
 BYTE   VOL   32*DarkBattle_mvl/mxv
 BYTE   W01
 BYTE   VOL   33*DarkBattle_mvl/mxv
 BYTE   W01
 BYTE   VOL   35*DarkBattle_mvl/mxv
 BYTE   W03
 BYTE   VOL   35*DarkBattle_mvl/mxv
 BYTE   W07
 BYTE   VOL   36*DarkBattle_mvl/mxv
 BYTE   W01
 BYTE   VOL   37*DarkBattle_mvl/mxv
 BYTE   W01
 BYTE   VOL   37*DarkBattle_mvl/mxv
 BYTE   W01
 BYTE   VOL   38*DarkBattle_mvl/mxv
 BYTE   W02
 BYTE   VOL   39*DarkBattle_mvl/mxv
 BYTE   W02
 BYTE   VOL   40*DarkBattle_mvl/mxv
 BYTE   W02
 BYTE   VOL   40*DarkBattle_mvl/mxv
 BYTE   W01
 BYTE   VOL   41*DarkBattle_mvl/mxv
 BYTE   W01
 BYTE   VOL   43*DarkBattle_mvl/mxv
 BYTE   W01
 BYTE   VOL   44*DarkBattle_mvl/mxv
 BYTE   W01
 BYTE   VOL   45*DarkBattle_mvl/mxv
 BYTE   W01
 BYTE   PEND
//  #04 //005   ----------------------------------------
 BYTE   PATT
  POIN2 Label_0120106B
//  #04 //006   ----------------------------------------
 BYTE   EOT
 BYTE   An2  v059
//  #04 //007   ----------------------------------------
 BYTE   PATT
  POIN2 Label_01201107
//  #04 //008   ----------------------------------------
 BYTE   PATT
  POIN2 Label_012011AA
//  #04 //009   ----------------------------------------
 BYTE   EOT
 BYTE   An2  v059
//  #04 //010   ----------------------------------------
 BYTE   PATT
  POIN2 Label_01201238
//  #04 //011   ----------------------------------------
 BYTE   PATT
  POIN2 Label_0120106B
//  #04 //012   ----------------------------------------
 BYTE   EOT
 BYTE   An2  v059
//  #04 //013   ----------------------------------------
 BYTE   PATT
  POIN2 Label_01201107
//  #04 //014   ----------------------------------------
 BYTE   TIE  Fn2  v104
 BYTE   TIE  En3
 BYTE   W17
 BYTE   VOL   45*DarkBattle_mvl/mxv
 BYTE   W01
 BYTE   VOL   44*DarkBattle_mvl/mxv
 BYTE   W01
 BYTE   VOL   43*DarkBattle_mvl/mxv
 BYTE   W01
 BYTE   VOL   42*DarkBattle_mvl/mxv
 BYTE   W01
 BYTE   VOL   41*DarkBattle_mvl/mxv
 BYTE   W02
 BYTE   VOL   40*DarkBattle_mvl/mxv
 BYTE   W02
 BYTE   VOL   40*DarkBattle_mvl/mxv
 BYTE   W03
 BYTE   VOL   39*DarkBattle_mvl/mxv
 BYTE   W01
 BYTE   VOL   37*DarkBattle_mvl/mxv
 BYTE   W01
 BYTE   VOL   37*DarkBattle_mvl/mxv
 BYTE   W01
 BYTE   VOL   35*DarkBattle_mvl/mxv
 BYTE   W01
 BYTE   VOL   35*DarkBattle_mvl/mxv
 BYTE   W04
 BYTE   VOL   35*DarkBattle_mvl/mxv
 BYTE   W01
 BYTE   VOL   33*DarkBattle_mvl/mxv
 BYTE   W01
 BYTE   VOL   32*DarkBattle_mvl/mxv
 BYTE   W02
 BYTE   VOL   32*DarkBattle_mvl/mxv
 BYTE   W02
 BYTE   VOL   31*DarkBattle_mvl/mxv
 BYTE   W01
 BYTE   VOL   29*DarkBattle_mvl/mxv
 BYTE   W02
 BYTE   VOL   29*DarkBattle_mvl/mxv
 BYTE   W02
 BYTE   VOL   29*DarkBattle_mvl/mxv
 BYTE   W02
 BYTE   VOL   28*DarkBattle_mvl/mxv
 BYTE   W02
 BYTE   VOL   27*DarkBattle_mvl/mxv
 BYTE   W01
 BYTE   VOL   26*DarkBattle_mvl/mxv
 BYTE   W01
 BYTE   VOL   26*DarkBattle_mvl/mxv
 BYTE   W01
 BYTE   VOL   25*DarkBattle_mvl/mxv
 BYTE   W01
 BYTE   VOL   24*DarkBattle_mvl/mxv
 BYTE   W02
 BYTE   VOL   23*DarkBattle_mvl/mxv
 BYTE   W06
 BYTE   VOL   23*DarkBattle_mvl/mxv
 BYTE   W01
 BYTE   VOL   23*DarkBattle_mvl/mxv
 BYTE   W01
 BYTE   VOL   22*DarkBattle_mvl/mxv
 BYTE   W01
 BYTE   VOL   21*DarkBattle_mvl/mxv
 BYTE   W01
 BYTE   VOL   21*DarkBattle_mvl/mxv
 BYTE   W05
 BYTE   VOL   20*DarkBattle_mvl/mxv
 BYTE   W01
 BYTE   VOL   19*DarkBattle_mvl/mxv
 BYTE   W02
 BYTE   VOL   19*DarkBattle_mvl/mxv
 BYTE   W01
 BYTE   VOL   18*DarkBattle_mvl/mxv
 BYTE   W01
 BYTE   VOL   17*DarkBattle_mvl/mxv
 BYTE   W02
 BYTE   VOL   16*DarkBattle_mvl/mxv
 BYTE   W02
 BYTE   VOL   16*DarkBattle_mvl/mxv
 BYTE   W02
 BYTE   VOL   15*DarkBattle_mvl/mxv
 BYTE   W02
 BYTE   VOL   14*DarkBattle_mvl/mxv
 BYTE   W01
 BYTE   VOL   14*DarkBattle_mvl/mxv
 BYTE   W01
 BYTE   VOL   13*DarkBattle_mvl/mxv
 BYTE   W02
 BYTE   VOL   12*DarkBattle_mvl/mxv
 BYTE   W07
//  #04 //015   ----------------------------------------
 BYTE   W06
 BYTE   EOT
 BYTE   Fn2  v057
 BYTE   Bn2  v064
 BYTE   W90
//  #04 //016   ----------------------------------------
 BYTE   VOL   46*DarkBattle_mvl/mxv
 BYTE   W12
 BYTE   N12  En1
 BYTE   N12  En2
 BYTE   W12
 BYTE   Fn1
 BYTE   N12  Fn2
 BYTE   W12
 BYTE   An1
 BYTE   N12  An2
 BYTE   W12
 BYTE   Bn1
 BYTE   N12  Bn2
 BYTE   W12
 BYTE   An1
 BYTE   N12  An2
 BYTE   W12
 BYTE   Bn1
 BYTE   N12  Bn2
 BYTE   W12
 BYTE   Dn2
 BYTE   N12  Dn3
 BYTE   W12
//  #04 //017   ----------------------------------------
 BYTE   N36  En2
 BYTE   N36  En3
 BYTE   W36
 BYTE   N12  Fn2
 BYTE   N12  Fn3
 BYTE   W12
 BYTE   N24  En2
 BYTE   N24  En3
 BYTE   W24
 BYTE   Dn2
 BYTE   N24  Dn3
 BYTE   W24
//  #04 //018   ----------------------------------------
 BYTE   N72  Bn1
 BYTE   N72  Bn2
 BYTE   W72
 BYTE   N12  Dn2
 BYTE   N12  Dn3
 BYTE   W12
 BYTE   Bn1
 BYTE   N12  Bn2
 BYTE   W12
//  #04 //019   ----------------------------------------
 BYTE   VOL   9*DarkBattle_mvl/mxv
 BYTE   N96  En2
 BYTE   TIE  An2
 BYTE   TIE  Bn2
 BYTE   N96  Dn3
 BYTE   W14
 BYTE   VOL   11*DarkBattle_mvl/mxv
 BYTE   W01
 BYTE   VOL   11*DarkBattle_mvl/mxv
 BYTE   W01
 BYTE   VOL   12*DarkBattle_mvl/mxv
 BYTE   W03
 BYTE   VOL   13*DarkBattle_mvl/mxv
 BYTE   W03
 BYTE   VOL   14*DarkBattle_mvl/mxv
 BYTE   W01
 BYTE   VOL   14*DarkBattle_mvl/mxv
 BYTE   W01
 BYTE   VOL   14*DarkBattle_mvl/mxv
 BYTE   W02
 BYTE   VOL   15*DarkBattle_mvl/mxv
 BYTE   W02
 BYTE   VOL   16*DarkBattle_mvl/mxv
 BYTE   W02
 BYTE   VOL   16*DarkBattle_mvl/mxv
 BYTE   W02
 BYTE   VOL   17*DarkBattle_mvl/mxv
 BYTE   W01
 BYTE   VOL   18*DarkBattle_mvl/mxv
 BYTE   W01
 BYTE   VOL   19*DarkBattle_mvl/mxv
 BYTE   W02
 BYTE   VOL   19*DarkBattle_mvl/mxv
 BYTE   W01
 BYTE   VOL   20*DarkBattle_mvl/mxv
 BYTE   W03
 BYTE   VOL   21*DarkBattle_mvl/mxv
 BYTE   W02
 BYTE   VOL   21*DarkBattle_mvl/mxv
 BYTE   W02
 BYTE   VOL   22*DarkBattle_mvl/mxv
 BYTE   W02
 BYTE   VOL   23*DarkBattle_mvl/mxv
 BYTE   W01
 BYTE   VOL   23*DarkBattle_mvl/mxv
 BYTE   W02
 BYTE   VOL   23*DarkBattle_mvl/mxv
 BYTE   W02
 BYTE   VOL   24*DarkBattle_mvl/mxv
 BYTE   W02
 BYTE   VOL   25*DarkBattle_mvl/mxv
 BYTE   W01
 BYTE   VOL   26*DarkBattle_mvl/mxv
 BYTE   W02
 BYTE   VOL   26*DarkBattle_mvl/mxv
 BYTE   W02
 BYTE   VOL   28*DarkBattle_mvl/mxv
 BYTE   W01
 BYTE   VOL   29*DarkBattle_mvl/mxv
 BYTE   W02
 BYTE   VOL   29*DarkBattle_mvl/mxv
 BYTE   W01
 BYTE   VOL   29*DarkBattle_mvl/mxv
 BYTE   W02
 BYTE   VOL   31*DarkBattle_mvl/mxv
 BYTE   W01
 BYTE   VOL   32*DarkBattle_mvl/mxv
 BYTE   W03
 BYTE   VOL   32*DarkBattle_mvl/mxv
 BYTE   W02
 BYTE   VOL   32*DarkBattle_mvl/mxv
 BYTE   W01
 BYTE   VOL   33*DarkBattle_mvl/mxv
 BYTE   W01
 BYTE   VOL   35*DarkBattle_mvl/mxv
 BYTE   W03
 BYTE   VOL   35*DarkBattle_mvl/mxv
 BYTE   W07
 BYTE   VOL   36*DarkBattle_mvl/mxv
 BYTE   W01
 BYTE   VOL   37*DarkBattle_mvl/mxv
 BYTE   W01
 BYTE   VOL   37*DarkBattle_mvl/mxv
 BYTE   W01
 BYTE   VOL   38*DarkBattle_mvl/mxv
 BYTE   W02
 BYTE   VOL   39*DarkBattle_mvl/mxv
 BYTE   W02
 BYTE   VOL   40*DarkBattle_mvl/mxv
 BYTE   W02
 BYTE   VOL   40*DarkBattle_mvl/mxv
 BYTE   W01
 BYTE   VOL   41*DarkBattle_mvl/mxv
 BYTE   W01
 BYTE   VOL   43*DarkBattle_mvl/mxv
 BYTE   W01
 BYTE   VOL   44*DarkBattle_mvl/mxv
 BYTE   W01
 BYTE   VOL   45*DarkBattle_mvl/mxv
 BYTE   W01
//  #04 //020   ----------------------------------------
 BYTE   PATT
  POIN2 Label_0120106B
//  #04 //021   ----------------------------------------
 BYTE   EOT
 BYTE   An2  v059
//  #04 //022   ----------------------------------------
 BYTE   PATT
  POIN2 Label_01201107
//  #04 //023   ----------------------------------------
 BYTE   PATT
  POIN2 Label_012011AA
//  #04 //024   ----------------------------------------
 BYTE   EOT
 BYTE   An2  v059
//  #04 //025   ----------------------------------------
 BYTE   PATT
  POIN2 Label_01201238
//  #04 //026   ----------------------------------------
 BYTE   PATT
  POIN2 Label_0120106B
//  #04 //027   ----------------------------------------
 BYTE   EOT
 BYTE   An2  v059
//  #04 //028   ----------------------------------------
 BYTE   PATT
  POIN2 Label_01201107
//  #04 //029   ----------------------------------------
 BYTE   TIE  Fn2  v104
 BYTE   TIE  En3
 BYTE   W17
 BYTE   VOL   45*DarkBattle_mvl/mxv
 BYTE   W01
 BYTE   VOL   44*DarkBattle_mvl/mxv
 BYTE   W01
 BYTE   VOL   43*DarkBattle_mvl/mxv
 BYTE   W01
 BYTE   VOL   42*DarkBattle_mvl/mxv
 BYTE   W01
 BYTE   VOL   41*DarkBattle_mvl/mxv
 BYTE   W02
 BYTE   VOL   40*DarkBattle_mvl/mxv
 BYTE   W02
 BYTE   VOL   40*DarkBattle_mvl/mxv
 BYTE   W03
 BYTE   VOL   39*DarkBattle_mvl/mxv
 BYTE   W01
 BYTE   VOL   37*DarkBattle_mvl/mxv
 BYTE   W01
 BYTE   VOL   37*DarkBattle_mvl/mxv
 BYTE   W01
 BYTE   VOL   35*DarkBattle_mvl/mxv
 BYTE   W01
 BYTE   VOL   35*DarkBattle_mvl/mxv
 BYTE   W04
 BYTE   VOL   35*DarkBattle_mvl/mxv
 BYTE   W01
 BYTE   VOL   33*DarkBattle_mvl/mxv
 BYTE   W01
 BYTE   VOL   32*DarkBattle_mvl/mxv
 BYTE   W02
 BYTE   VOL   32*DarkBattle_mvl/mxv
 BYTE   W02
 BYTE   VOL   31*DarkBattle_mvl/mxv
 BYTE   W01
 BYTE   VOL   29*DarkBattle_mvl/mxv
 BYTE   W02
 BYTE   VOL   29*DarkBattle_mvl/mxv
 BYTE   W02
 BYTE   VOL   29*DarkBattle_mvl/mxv
 BYTE   W02
 BYTE   VOL   28*DarkBattle_mvl/mxv
 BYTE   W02
 BYTE   VOL   27*DarkBattle_mvl/mxv
 BYTE   W01
 BYTE   VOL   26*DarkBattle_mvl/mxv
 BYTE   W01
 BYTE   VOL   26*DarkBattle_mvl/mxv
 BYTE   W01
 BYTE   VOL   25*DarkBattle_mvl/mxv
 BYTE   W01
 BYTE   VOL   24*DarkBattle_mvl/mxv
 BYTE   W02
 BYTE   VOL   23*DarkBattle_mvl/mxv
 BYTE   W06
 BYTE   VOL   23*DarkBattle_mvl/mxv
 BYTE   W01
 BYTE   VOL   23*DarkBattle_mvl/mxv
 BYTE   W01
 BYTE   VOL   22*DarkBattle_mvl/mxv
 BYTE   W01
 BYTE   VOL   21*DarkBattle_mvl/mxv
 BYTE   W01
 BYTE   VOL   21*DarkBattle_mvl/mxv
 BYTE   W06
 BYTE   VOL   21*DarkBattle_mvl/mxv
 BYTE   W01
 BYTE   VOL   23*DarkBattle_mvl/mxv
 BYTE   W01
 BYTE   VOL   23*DarkBattle_mvl/mxv
 BYTE   W01
 BYTE   VOL   25*DarkBattle_mvl/mxv
 BYTE   W01
 BYTE   VOL   26*DarkBattle_mvl/mxv
 BYTE   W01
 BYTE   VOL   26*DarkBattle_mvl/mxv
 BYTE   W01
 BYTE   VOL   28*DarkBattle_mvl/mxv
 BYTE   W01
 BYTE   VOL   29*DarkBattle_mvl/mxv
 BYTE   W01
 BYTE   VOL   29*DarkBattle_mvl/mxv
 BYTE   W01
 BYTE   VOL   31*DarkBattle_mvl/mxv
 BYTE   W01
 BYTE   VOL   32*DarkBattle_mvl/mxv
 BYTE   W01
 BYTE   VOL   32*DarkBattle_mvl/mxv
 BYTE   W01
 BYTE   VOL   33*DarkBattle_mvl/mxv
 BYTE   W01
 BYTE   VOL   35*DarkBattle_mvl/mxv
 BYTE   W01
 BYTE   VOL   35*DarkBattle_mvl/mxv
 BYTE   W01
 BYTE   VOL   37*DarkBattle_mvl/mxv
 BYTE   W01
 BYTE   VOL   38*DarkBattle_mvl/mxv
 BYTE   W01
 BYTE   VOL   40*DarkBattle_mvl/mxv
 BYTE   W01
 BYTE   VOL   40*DarkBattle_mvl/mxv
 BYTE   W01
 BYTE   VOL   42*DarkBattle_mvl/mxv
 BYTE   W01
 BYTE   VOL   43*DarkBattle_mvl/mxv
 BYTE   W01
 BYTE   VOL   44*DarkBattle_mvl/mxv
 BYTE   W01
 BYTE   VOL   45*DarkBattle_mvl/mxv
 BYTE   W01
//  #04 //030   ----------------------------------------
 BYTE   W06
 BYTE   EOT
 BYTE   Fn2  v057
 BYTE   Bn2  v064
 BYTE   W18
 BYTE   N48  Ds1
 BYTE   N48  Ds2
 BYTE   W48
 BYTE   En1
 BYTE   N48  En2
 BYTE   W24
//  #04 //031   ----------------------------------------
 BYTE   W24
 BYTE   Fn1
 BYTE   N48  Fn2
 BYTE   W48
 BYTE   N24  An1
 BYTE   N24  An2
 BYTE   W24
//  #04 //032   ----------------------------------------
 BYTE   N72  Gs1
 BYTE   N72  Gs2
 BYTE   W72
 BYTE   N24  Bn1
 BYTE   N24  Bn2
 BYTE   W24
//  #04 //033   ----------------------------------------
 BYTE   N96  As1
 BYTE   N96  As2
 BYTE   W96
//  #04 //034   ----------------------------------------
 BYTE   W24
 BYTE   TIE  Bn1
 BYTE   TIE  Bn2
 BYTE   W72
//  #04 //035   ----------------------------------------
 BYTE   W48
 BYTE   EOT
 BYTE   Bn1  v059
 BYTE   N24  As1
 BYTE   N24  As2
 BYTE   W24
 BYTE   Bn1
 BYTE   N24  Bn2
 BYTE   W24
//  #04 //036   ----------------------------------------
 BYTE   TIE  Dn1
 BYTE   TIE  Dn2
 BYTE   W96
//  #04 //037   ----------------------------------------
 BYTE   W24
 BYTE   EOT
 BYTE   Dn1  v050
 BYTE   N24  Ds1
 BYTE   N24  Ds2
 BYTE   W24
 BYTE   En1
 BYTE   N24  En2
 BYTE   W24
 BYTE   Gn1
 BYTE   N24  Gn2
 BYTE   W24
//  #04 //038   ----------------------------------------
 BYTE   W24
 BYTE   Dn2
 BYTE   N24  Cn3
 BYTE   N24  En3
 BYTE   N24  Gn3
 BYTE   N24  Gn4
 BYTE   W24
 BYTE   N72  Cn2
 BYTE   N72  As2
 BYTE   N72  Dn3
 BYTE   N72  Fn3
 BYTE   N72  Fn4
 BYTE   W48
//  #04 //039   ----------------------------------------
 BYTE   W24
 BYTE   N24  As1
 BYTE   N24  Gs2
 BYTE   N24  Cn3
 BYTE   N24  Ds3
 BYTE   N24  Ds4
 BYTE   W24
 BYTE   Cn2
 BYTE   N24  As2
 BYTE   N24  Dn3
 BYTE   N24  Fn3
 BYTE   N24  Fn4
 BYTE   W24
 BYTE   Dn2
 BYTE   N24  Cn3
 BYTE   N24  En3
 BYTE   N24  Gn3
 BYTE   N24  Gn4
 BYTE   W24
//  #04 //040   ----------------------------------------
 BYTE   N48  As1
 BYTE   N48  Ds2
 BYTE   N48  Gs2
 BYTE   N48  Cn3
 BYTE   N48  Cn4
 BYTE   W48
 BYTE   Cn2
 BYTE   N48  Fn2
 BYTE   N48  As2
 BYTE   N48  Dn3
 BYTE   N48  Dn4
 BYTE   W48
//  #04 //041   ----------------------------------------
 BYTE   Cs2
 BYTE   N48  Fs2
 BYTE   N48  Bn2
 BYTE   N48  Ds3
 BYTE   N48  Ds4
 BYTE   W48
 BYTE   TIE  Ds2
 BYTE   TIE  Gs2
 BYTE   TIE  Cs3
 BYTE   TIE  Fn3
 BYTE   TIE  Fn4
 BYTE   W48
//  #04 //042   ----------------------------------------
 BYTE   W90
 BYTE   W01
 BYTE   VOL   32*DarkBattle_mvl/mxv
 BYTE   W01
 BYTE   VOL   27*DarkBattle_mvl/mxv
 BYTE   W01
 BYTE   VOL   21*DarkBattle_mvl/mxv
 BYTE   W01
 BYTE   VOL   16*DarkBattle_mvl/mxv
 BYTE   W01
 BYTE   VOL   11*DarkBattle_mvl/mxv
 BYTE   W01
//  #04 //043   ----------------------------------------
 BYTE   EOT
 BYTE   Ds2  v056
 BYTE   Cs3  v065
 BYTE   Fn4
 BYTE   GoTo
  POIN2 Label_01200FC6
//  #04 //044   ----------------------------------------
 BYTE   N96  En2  v104
 BYTE   TIE  An2
 BYTE   TIE  Bn2
 BYTE   N96  Dn3
 BYTE   W15
 BYTE   VOL   11*DarkBattle_mvl/mxv
 BYTE   W01
 BYTE   VOL   12*DarkBattle_mvl/mxv
 BYTE   W03
 BYTE   VOL   13*DarkBattle_mvl/mxv
 BYTE   W03
 BYTE   VOL   14*DarkBattle_mvl/mxv
 BYTE   W01
 BYTE   VOL   14*DarkBattle_mvl/mxv
 BYTE   W01
 BYTE   VOL   14*DarkBattle_mvl/mxv
 BYTE   W02
 BYTE   VOL   15*DarkBattle_mvl/mxv
 BYTE   W02
 BYTE   VOL   16*DarkBattle_mvl/mxv
 BYTE   W02
 BYTE   VOL   16*DarkBattle_mvl/mxv
 BYTE   W02
 BYTE   VOL   17*DarkBattle_mvl/mxv
 BYTE   W01
 BYTE   VOL   18*DarkBattle_mvl/mxv
 BYTE   W01
 BYTE   VOL   19*DarkBattle_mvl/mxv
 BYTE   W02
 BYTE   VOL   19*DarkBattle_mvl/mxv
 BYTE   W01
 BYTE   VOL   20*DarkBattle_mvl/mxv
 BYTE   W03
 BYTE   VOL   21*DarkBattle_mvl/mxv
 BYTE   W02
 BYTE   VOL   21*DarkBattle_mvl/mxv
 BYTE   W02
 BYTE   VOL   22*DarkBattle_mvl/mxv
 BYTE   W02
 BYTE   VOL   23*DarkBattle_mvl/mxv
 BYTE   W01
 BYTE   VOL   23*DarkBattle_mvl/mxv
 BYTE   W02
 BYTE   VOL   23*DarkBattle_mvl/mxv
 BYTE   W02
 BYTE   VOL   24*DarkBattle_mvl/mxv
 BYTE   W02
 BYTE   VOL   25*DarkBattle_mvl/mxv
 BYTE   W01
 BYTE   VOL   26*DarkBattle_mvl/mxv
 BYTE   W02
 BYTE   VOL   26*DarkBattle_mvl/mxv
 BYTE   W02
 BYTE   VOL   28*DarkBattle_mvl/mxv
 BYTE   W01
 BYTE   VOL   29*DarkBattle_mvl/mxv
 BYTE   W02
 BYTE   VOL   29*DarkBattle_mvl/mxv
 BYTE   W01
 BYTE   VOL   29*DarkBattle_mvl/mxv
 BYTE   W02
 BYTE   VOL   31*DarkBattle_mvl/mxv
 BYTE   W01
 BYTE   VOL   32*DarkBattle_mvl/mxv
 BYTE   W03
 BYTE   VOL   32*DarkBattle_mvl/mxv
 BYTE   W02
 BYTE   VOL   32*DarkBattle_mvl/mxv
 BYTE   W01
 BYTE   VOL   33*DarkBattle_mvl/mxv
 BYTE   W01
 BYTE   VOL   35*DarkBattle_mvl/mxv
 BYTE   W03
 BYTE   VOL   35*DarkBattle_mvl/mxv
 BYTE   W07
 BYTE   VOL   36*DarkBattle_mvl/mxv
 BYTE   W01
 BYTE   VOL   37*DarkBattle_mvl/mxv
 BYTE   W01
 BYTE   VOL   37*DarkBattle_mvl/mxv
 BYTE   W01
 BYTE   VOL   38*DarkBattle_mvl/mxv
 BYTE   W02
 BYTE   VOL   39*DarkBattle_mvl/mxv
 BYTE   W02
 BYTE   VOL   40*DarkBattle_mvl/mxv
 BYTE   W02
 BYTE   VOL   40*DarkBattle_mvl/mxv
 BYTE   W01
 BYTE   VOL   41*DarkBattle_mvl/mxv
 BYTE   W01
 BYTE   VOL   43*DarkBattle_mvl/mxv
 BYTE   W01
 BYTE   VOL   44*DarkBattle_mvl/mxv
 BYTE   W01
 BYTE   VOL   45*DarkBattle_mvl/mxv
 BYTE   W01
//  #04 //045   ----------------------------------------
 BYTE   W96
//  #04 //046   ----------------------------------------
 BYTE   EOT
 BYTE   An2  v059
 BYTE   FINE

//**************** Track 5 (Midi-Chn.4) ****************//

DarkBattle_005:
//  #05 //000   ----------------------------------------
 BYTE   KEYSH   DarkBattle_key+0
Label_011FF736:
 BYTE   VOICE   35
 BYTE   MODT 0
 BYTE   LFOS 44
 BYTE   VOL   30*DarkBattle_mvl/mxv
 BYTE   PAN   c_v+0
 BYTE   VOL   30*DarkBattle_mvl/mxv
 BYTE   W96
//  #05 //001   ----------------------------------------
 BYTE   W96
//  #05 //002   ----------------------------------------
 BYTE   W96
//  #05 //003   ----------------------------------------
 BYTE   W92
 BYTE   W03
 BYTE   TIE  En1  v104
 BYTE   W01
//  #05 //004   ----------------------------------------
 BYTE   W96
//  #05 //005   ----------------------------------------
 BYTE   EOT
Label_011FF74D:
 BYTE   N92  Fn1  v104
 BYTE   W92
 BYTE   W03
 BYTE   TIE  En1
 BYTE   W01
 BYTE   PEND
//  #05 //006   ----------------------------------------
 BYTE   W96
//  #05 //007   ----------------------------------------
 BYTE   EOT
//  #05 //008   ----------------------------------------
 BYTE   PATT
  POIN2 Label_011FF74D
//  #05 //009   ----------------------------------------
 BYTE   W96
//  #05 //010   ----------------------------------------
 BYTE   EOT
 BYTE   En1
//  #05 //011   ----------------------------------------
 BYTE   PATT
  POIN2 Label_011FF74D
//  #05 //012   ----------------------------------------
 BYTE   W96
//  #05 //013   ----------------------------------------
 BYTE   EOT
 BYTE   En1
 BYTE   TIE  Fn1  v104
 BYTE   W96
//  #05 //014   ----------------------------------------
 BYTE   W05
 BYTE   EOT
 BYTE   W90
 BYTE   W01
//  #05 //015   ----------------------------------------
 BYTE   VOL   30*DarkBattle_mvl/mxv
 BYTE   W12
 BYTE   N12  En1
 BYTE   W12
 BYTE   Fn1
 BYTE   W12
 BYTE   An1
 BYTE   W12
 BYTE   Bn1
 BYTE   W12
 BYTE   An1
 BYTE   W12
 BYTE   Bn1
 BYTE   W12
 BYTE   Dn2
 BYTE   W12
//  #05 //016   ----------------------------------------
 BYTE   N36  En2
 BYTE   W36
 BYTE   N12  Fn2
 BYTE   W12
 BYTE   N24  En2
 BYTE   W24
 BYTE   Dn2
 BYTE   W24
//  #05 //017   ----------------------------------------
 BYTE   N72  Bn1
 BYTE   W72
 BYTE   N12  Dn2
 BYTE   W12
 BYTE   Bn1
 BYTE   W11
 BYTE   TIE  En1
 BYTE   W01
//  #05 //018   ----------------------------------------
 BYTE   W96
//  #05 //019   ----------------------------------------
 BYTE   EOT
//  #05 //020   ----------------------------------------
 BYTE   PATT
  POIN2 Label_011FF74D
//  #05 //021   ----------------------------------------
 BYTE   W96
//  #05 //022   ----------------------------------------
 BYTE   EOT
 BYTE   En1
//  #05 //023   ----------------------------------------
 BYTE   PATT
  POIN2 Label_011FF74D
//  #05 //024   ----------------------------------------
 BYTE   W96
//  #05 //025   ----------------------------------------
 BYTE   EOT
 BYTE   En1
//  #05 //026   ----------------------------------------
 BYTE   PATT
  POIN2 Label_011FF74D
//  #05 //027   ----------------------------------------
 BYTE   W96
//  #05 //028   ----------------------------------------
 BYTE   EOT
 BYTE   En1
 BYTE   TIE  Fn1  v104
 BYTE   W96
//  #05 //029   ----------------------------------------
 BYTE   W05
 BYTE   EOT
 BYTE   W90
 BYTE   W01
//  #05 //030   ----------------------------------------
 BYTE   W96
//  #05 //031   ----------------------------------------
 BYTE   W96
//  #05 //032   ----------------------------------------
 BYTE   W96
//  #05 //033   ----------------------------------------
 BYTE   W96
//  #05 //034   ----------------------------------------
 BYTE   W96
//  #05 //035   ----------------------------------------
 BYTE   W96
//  #05 //036   ----------------------------------------
 BYTE   W96
//  #05 //037   ----------------------------------------
 BYTE   W96
//  #05 //038   ----------------------------------------
 BYTE   W96
//  #05 //039   ----------------------------------------
 BYTE   W96
//  #05 //040   ----------------------------------------
 BYTE   W96
//  #05 //041   ----------------------------------------
 BYTE   W96
//  #05 //042   ----------------------------------------
 BYTE   GoTo
  POIN2 Label_011FF736
 BYTE   FINE

//**************** Track 6 (Midi-Chn.5) ****************//

DarkBattle_006:
//  #06 //000   ----------------------------------------
 BYTE   KEYSH   DarkBattle_key+0
Label_011FFA9E:
 BYTE   VOICE   2
 BYTE   MODT 0
 BYTE   LFOS 44
 BYTE   VOL   43*DarkBattle_mvl/mxv
 BYTE   PAN   c_v-30
 BYTE   VOL   43*DarkBattle_mvl/mxv
 BYTE   N06  En2  v104
 BYTE   W06
 BYTE   Fn2
 BYTE   W06
 BYTE   An2
 BYTE   W06
 BYTE   Bn2
 BYTE   W06
 BYTE   En2
 BYTE   W06
 BYTE   Fn2
 BYTE   W06
 BYTE   An2
 BYTE   W06
 BYTE   Bn2
 BYTE   W06
 BYTE   En2
 BYTE   W06
 BYTE   Fn2
 BYTE   W06
 BYTE   An2
 BYTE   W06
 BYTE   Bn2
 BYTE   W06
 BYTE   En2
 BYTE   W06
 BYTE   Fn2
 BYTE   W06
 BYTE   An2
 BYTE   W06
 BYTE   Bn2
 BYTE   W06
//  #06 //001   ----------------------------------------
Label_011FFACC:
 BYTE   N06  Fn2  v104
 BYTE   W06
 BYTE   An2
 BYTE   W06
 BYTE   Bn2
 BYTE   W06
 BYTE   Dn3
 BYTE   W06
 BYTE   Fn2
 BYTE   W06
 BYTE   An2
 BYTE   W06
 BYTE   Bn2
 BYTE   W06
 BYTE   Dn3
 BYTE   W06
 BYTE   Fn2
 BYTE   W06
 BYTE   An2
 BYTE   W06
 BYTE   Bn2
 BYTE   W06
 BYTE   Dn3
 BYTE   W06
 BYTE   Fn2
 BYTE   W06
 BYTE   An2
 BYTE   W06
 BYTE   Bn2
 BYTE   W06
 BYTE   Dn3
 BYTE   W06
 BYTE   PEND
//  #06 //002   ----------------------------------------
Label_011FFAEF:
 BYTE   N06  En2  v104
 BYTE   W06
 BYTE   Fn2
 BYTE   W06
 BYTE   An2
 BYTE   W06
 BYTE   Bn2
 BYTE   W06
 BYTE   En2
 BYTE   W06
 BYTE   Fn2
 BYTE   W06
 BYTE   An2
 BYTE   W06
 BYTE   Bn2
 BYTE   W06
 BYTE   En2
 BYTE   W06
 BYTE   Fn2
 BYTE   W06
 BYTE   An2
 BYTE   W06
 BYTE   Bn2
 BYTE   W06
 BYTE   En2
 BYTE   W06
 BYTE   Fn2
 BYTE   W06
 BYTE   An2
 BYTE   W06
 BYTE   Bn2
 BYTE   W06
 BYTE   PEND
//  #06 //003   ----------------------------------------
 BYTE   PATT
  POIN2 Label_011FFACC
//  #06 //004   ----------------------------------------
Label_011FFB17:
 BYTE   N06  En2  v104
 BYTE   W06
 BYTE   Fn2
 BYTE   W06
 BYTE   An2
 BYTE   W06
 BYTE   Bn2
 BYTE   W06
 BYTE   En3
 BYTE   W06
 BYTE   Fn3
 BYTE   W06
 BYTE   An3
 BYTE   W06
 BYTE   Bn3
 BYTE   W06
 BYTE   En2
 BYTE   W06
 BYTE   Fn2
 BYTE   W06
 BYTE   An2
 BYTE   W06
 BYTE   Bn2
 BYTE   W06
 BYTE   En3
 BYTE   W06
 BYTE   Fn3
 BYTE   W06
 BYTE   An3
 BYTE   W06
 BYTE   Bn3
 BYTE   W06
 BYTE   PEND
//  #06 //005   ----------------------------------------
Label_011FFB3A:
 BYTE   N06  Fn2  v104
 BYTE   W06
 BYTE   An2
 BYTE   W06
 BYTE   Bn2
 BYTE   W06
 BYTE   Dn3
 BYTE   W06
 BYTE   Fn3
 BYTE   W06
 BYTE   An3
 BYTE   W06
 BYTE   Bn3
 BYTE   W06
 BYTE   Dn4
 BYTE   W06
 BYTE   Fn2
 BYTE   W06
 BYTE   An2
 BYTE   W06
 BYTE   Bn2
 BYTE   W06
 BYTE   Dn3
 BYTE   W06
 BYTE   Fn3
 BYTE   W06
 BYTE   An3
 BYTE   W06
 BYTE   Bn3
 BYTE   W06
 BYTE   Dn4
 BYTE   W06
 BYTE   PEND
//  #06 //006   ----------------------------------------
 BYTE   PATT
  POIN2 Label_011FFB17
//  #06 //007   ----------------------------------------
 BYTE   PATT
  POIN2 Label_011FFB3A
//  #06 //008   ----------------------------------------
 BYTE   PATT
  POIN2 Label_011FFB17
//  #06 //009   ----------------------------------------
 BYTE   PATT
  POIN2 Label_011FFB3A
//  #06 //010   ----------------------------------------
 BYTE   PATT
  POIN2 Label_011FFB17
//  #06 //011   ----------------------------------------
 BYTE   PATT
  POIN2 Label_011FFB3A
//  #06 //012   ----------------------------------------
 BYTE   PATT
  POIN2 Label_011FFB17
//  #06 //013   ----------------------------------------
 BYTE   PATT
  POIN2 Label_011FFB17
//  #06 //014   ----------------------------------------
 BYTE   PATT
  POIN2 Label_011FFB17
//  #06 //015   ----------------------------------------
 BYTE   PATT
  POIN2 Label_011FFB17
//  #06 //016   ----------------------------------------
 BYTE   PATT
  POIN2 Label_011FFB17
//  #06 //017   ----------------------------------------
 BYTE   PATT
  POIN2 Label_011FFB3A
//  #06 //018   ----------------------------------------
 BYTE   PATT
  POIN2 Label_011FFB17
//  #06 //019   ----------------------------------------
 BYTE   N06  Fn2  v104
 BYTE   W06
 BYTE   An2
 BYTE   W06
 BYTE   Bn2
 BYTE   W06
 BYTE   Dn3
 BYTE   W06
 BYTE   Fn3
 BYTE   W06
 BYTE   An3
 BYTE   W06
 BYTE   Bn3
 BYTE   W06
 BYTE   Dn4
 BYTE   W06
 BYTE   Fn2
 BYTE   W06
 BYTE   An2
 BYTE   W06
 BYTE   Bn2
 BYTE   W06
 BYTE   Dn3
 BYTE   W06
 BYTE   Fn3
 BYTE   W06
 BYTE   An3
 BYTE   W06
 BYTE   Bn3
 BYTE   W06
 BYTE   Dn4
 BYTE   W05
 BYTE   En2
 BYTE   W01
//  #06 //020   ----------------------------------------
Label_011FFBC2:
 BYTE   W05
 BYTE   N06  Fn2  v104
 BYTE   W06
 BYTE   An2
 BYTE   W06
 BYTE   Bn2
 BYTE   W06
 BYTE   En3
 BYTE   W06
 BYTE   Fn3
 BYTE   W06
 BYTE   An3
 BYTE   W06
 BYTE   Bn3
 BYTE   W06
 BYTE   En2
 BYTE   W06
 BYTE   Fn2
 BYTE   W06
 BYTE   An2
 BYTE   W06
 BYTE   Bn2
 BYTE   W06
 BYTE   En3
 BYTE   W06
 BYTE   Fn3
 BYTE   W06
 BYTE   An3
 BYTE   W06
 BYTE   Bn3
 BYTE   W06
 BYTE   Fn2
 BYTE   W01
 BYTE   PEND
//  #06 //021   ----------------------------------------
 BYTE   W05
 BYTE   An2
 BYTE   W06
 BYTE   Bn2
 BYTE   W06
 BYTE   Dn3
 BYTE   W06
 BYTE   Fn3
 BYTE   W06
 BYTE   An3
 BYTE   W06
 BYTE   Bn3
 BYTE   W06
 BYTE   Dn4
 BYTE   W06
 BYTE   Fn2
 BYTE   W06
 BYTE   An2
 BYTE   W06
 BYTE   Bn2
 BYTE   W06
 BYTE   Dn3
 BYTE   W06
 BYTE   Fn3
 BYTE   W06
 BYTE   An3
 BYTE   W06
 BYTE   Bn3
 BYTE   W06
 BYTE   Dn4
 BYTE   W06
 BYTE   En2
 BYTE   W01
//  #06 //022   ----------------------------------------
 BYTE   PATT
  POIN2 Label_011FFBC2
//  #06 //023   ----------------------------------------
 BYTE   W05
 BYTE   N06  An2  v104
 BYTE   W06
 BYTE   Bn2
 BYTE   W06
 BYTE   Dn3
 BYTE   W06
 BYTE   Fn3
 BYTE   W06
 BYTE   An3
 BYTE   W06
 BYTE   Bn3
 BYTE   W06
 BYTE   Dn4
 BYTE   W06
 BYTE   Fn2
 BYTE   W06
 BYTE   An2
 BYTE   W06
 BYTE   Bn2
 BYTE   W06
 BYTE   Dn3
 BYTE   W06
 BYTE   Fn3
 BYTE   W06
 BYTE   An3
 BYTE   W06
 BYTE   Bn3
 BYTE   W06
 BYTE   Dn4
 BYTE   W07
//  #06 //024   ----------------------------------------
Label_011FFC2D:
 BYTE   N06  En2  v104
 BYTE   W06
 BYTE   Fn2
 BYTE   W06
 BYTE   Gs2
 BYTE   W06
 BYTE   Bn2
 BYTE   W06
 BYTE   En2
 BYTE   W06
 BYTE   Fn2
 BYTE   W06
 BYTE   Gs2
 BYTE   W06
 BYTE   Bn2
 BYTE   W06
 BYTE   En2
 BYTE   W06
 BYTE   Fn2
 BYTE   W06
 BYTE   Gs2
 BYTE   W06
 BYTE   Bn2
 BYTE   W06
 BYTE   En2
 BYTE   W06
 BYTE   Fn2
 BYTE   W06
 BYTE   Gs2
 BYTE   W06
 BYTE   Bn2
 BYTE   W06
 BYTE   PEND
//  #06 //025   ----------------------------------------
 BYTE   PATT
  POIN2 Label_011FFC2D
//  #06 //026   ----------------------------------------
Label_011FFC55:
 BYTE   N06  Ds2  v104
 BYTE   W06
 BYTE   En2
 BYTE   W06
 BYTE   Gn2
 BYTE   W06
 BYTE   As2
 BYTE   W06
 BYTE   Ds2
 BYTE   W06
 BYTE   En2
 BYTE   W06
 BYTE   Gn2
 BYTE   W06
 BYTE   As2
 BYTE   W06
 BYTE   Ds2
 BYTE   W06
 BYTE   En2
 BYTE   W06
 BYTE   Gn2
 BYTE   W06
 BYTE   As2
 BYTE   W06
 BYTE   Ds2
 BYTE   W06
 BYTE   En2
 BYTE   W06
 BYTE   Gn2
 BYTE   W06
 BYTE   As2
 BYTE   W06
 BYTE   PEND
//  #06 //027   ----------------------------------------
 BYTE   PATT
  POIN2 Label_011FFC55
//  #06 //028   ----------------------------------------
 BYTE   PATT
  POIN2 Label_011FFC2D
//  #06 //029   ----------------------------------------
 BYTE   PATT
  POIN2 Label_011FFC2D
//  #06 //030   ----------------------------------------
 BYTE   PATT
  POIN2 Label_011FFC55
//  #06 //031   ----------------------------------------
 BYTE   PATT
  POIN2 Label_011FFC55
//  #06 //032   ----------------------------------------
 BYTE   W96
//  #06 //033   ----------------------------------------
 BYTE   W96
//  #06 //034   ----------------------------------------
 BYTE   W96
//  #06 //035   ----------------------------------------
 BYTE   W96
//  #06 //036   ----------------------------------------
 BYTE   W96
//  #06 //037   ----------------------------------------
 BYTE   GoTo
  POIN2 Label_011FFA9E
//  #06 //038   ----------------------------------------
 BYTE   PATT
  POIN2 Label_011FFAEF
 BYTE   FINE

//**************** Track 7 (Midi-Chn.6) ****************//

DarkBattle_007:
//  #07 //000   ----------------------------------------
 BYTE   KEYSH   DarkBattle_key+0
Label_011FFFAA:
 BYTE   VOICE   4
 BYTE   MODT 0
 BYTE   LFOS 44
 BYTE   PAN   c_v+40
 BYTE   VOL   6*DarkBattle_mvl/mxv
 BYTE   N06  En3  v104
 BYTE   W06
 BYTE   Fn3
 BYTE   W06
 BYTE   An3
 BYTE   W06
 BYTE   Bn3
 BYTE   W06
 BYTE   En3
 BYTE   W06
 BYTE   Fn3
 BYTE   W06
 BYTE   An3
 BYTE   W06
 BYTE   Bn3
 BYTE   W06
 BYTE   En3
 BYTE   W06
 BYTE   Fn3
 BYTE   W06
 BYTE   An3
 BYTE   W06
 BYTE   Bn3
 BYTE   W06
 BYTE   En3
 BYTE   W06
 BYTE   Fn3
 BYTE   W06
 BYTE   An3
 BYTE   W06
 BYTE   Bn3
 BYTE   W06
//  #07 //001   ----------------------------------------
Label_011FFFD6:
 BYTE   N06  Fn3  v104
 BYTE   W06
 BYTE   An3
 BYTE   W06
 BYTE   Bn3
 BYTE   W06
 BYTE   Dn4
 BYTE   W06
 BYTE   Fn3
 BYTE   W06
 BYTE   An3
 BYTE   W06
 BYTE   Bn3
 BYTE   W06
 BYTE   Dn4
 BYTE   W06
 BYTE   Fn3
 BYTE   W06
 BYTE   An3
 BYTE   W06
 BYTE   Bn3
 BYTE   W06
 BYTE   Dn4
 BYTE   W06
 BYTE   Fn3
 BYTE   W06
 BYTE   An3
 BYTE   W06
 BYTE   Bn3
 BYTE   W06
 BYTE   Dn4
 BYTE   W06
 BYTE   PEND
//  #07 //002   ----------------------------------------
 BYTE   En3
 BYTE   W06
 BYTE   Fn3
 BYTE   W06
 BYTE   An3
 BYTE   W06
 BYTE   Bn3
 BYTE   W06
 BYTE   En3
 BYTE   W06
 BYTE   Fn3
 BYTE   W06
 BYTE   An3
 BYTE   W06
 BYTE   Bn3
 BYTE   W06
 BYTE   En3
 BYTE   W06
 BYTE   Fn3
 BYTE   W06
 BYTE   An3
 BYTE   W06
 BYTE   Bn3
 BYTE   W06
 BYTE   En3
 BYTE   W06
 BYTE   Fn3
 BYTE   W06
 BYTE   An3
 BYTE   W06
 BYTE   Bn3
 BYTE   W06
//  #07 //003   ----------------------------------------
 BYTE   PATT
  POIN2 Label_011FFFD6
//  #07 //004   ----------------------------------------
Label_0120001E:
 BYTE   N06  En3  v104
 BYTE   W06
 BYTE   Fn3
 BYTE   W06
 BYTE   An3
 BYTE   W06
 BYTE   Bn3
 BYTE   W06
 BYTE   En4
 BYTE   W06
 BYTE   Fn4
 BYTE   W06
 BYTE   An4
 BYTE   W06
 BYTE   Bn4
 BYTE   W06
 BYTE   En3
 BYTE   W06
 BYTE   Fn3
 BYTE   W06
 BYTE   An3
 BYTE   W06
 BYTE   Bn3
 BYTE   W06
 BYTE   En4
 BYTE   W06
 BYTE   Fn4
 BYTE   W06
 BYTE   An4
 BYTE   W06
 BYTE   Bn4
 BYTE   W06
 BYTE   PEND
//  #07 //005   ----------------------------------------
Label_01200041:
 BYTE   N06  Fn3  v104
 BYTE   W06
 BYTE   An3
 BYTE   W06
 BYTE   Bn3
 BYTE   W06
 BYTE   Dn4
 BYTE   W06
 BYTE   Fn4
 BYTE   W06
 BYTE   An4
 BYTE   W06
 BYTE   Bn4
 BYTE   W06
 BYTE   Dn5
 BYTE   W06
 BYTE   Fn3
 BYTE   W06
 BYTE   An3
 BYTE   W06
 BYTE   Bn3
 BYTE   W06
 BYTE   Dn4
 BYTE   W06
 BYTE   Fn4
 BYTE   W06
 BYTE   An4
 BYTE   W06
 BYTE   Bn4
 BYTE   W06
 BYTE   Dn5
 BYTE   W06
 BYTE   PEND
//  #07 //006   ----------------------------------------
 BYTE   PATT
  POIN2 Label_0120001E
//  #07 //007   ----------------------------------------
 BYTE   PATT
  POIN2 Label_01200041
//  #07 //008   ----------------------------------------
 BYTE   PATT
  POIN2 Label_0120001E
//  #07 //009   ----------------------------------------
 BYTE   PATT
  POIN2 Label_01200041
//  #07 //010   ----------------------------------------
 BYTE   PATT
  POIN2 Label_0120001E
//  #07 //011   ----------------------------------------
 BYTE   PATT
  POIN2 Label_01200041
//  #07 //012   ----------------------------------------
 BYTE   PATT
  POIN2 Label_0120001E
//  #07 //013   ----------------------------------------
 BYTE   PATT
  POIN2 Label_0120001E
//  #07 //014   ----------------------------------------
 BYTE   PATT
  POIN2 Label_0120001E
//  #07 //015   ----------------------------------------
 BYTE   PATT
  POIN2 Label_0120001E
//  #07 //016   ----------------------------------------
 BYTE   PATT
  POIN2 Label_0120001E
//  #07 //017   ----------------------------------------
 BYTE   PATT
  POIN2 Label_01200041
//  #07 //018   ----------------------------------------
 BYTE   PATT
  POIN2 Label_0120001E
//  #07 //019   ----------------------------------------
 BYTE   PATT
  POIN2 Label_01200041
//  #07 //020   ----------------------------------------
 BYTE   PATT
  POIN2 Label_0120001E
//  #07 //021   ----------------------------------------
 BYTE   PATT
  POIN2 Label_01200041
//  #07 //022   ----------------------------------------
 BYTE   PATT
  POIN2 Label_0120001E
//  #07 //023   ----------------------------------------
 BYTE   PATT
  POIN2 Label_01200041
//  #07 //024   ----------------------------------------
Label_012000BE:
 BYTE   N06  En3  v104
 BYTE   W06
 BYTE   Fn3
 BYTE   W06
 BYTE   Gs3
 BYTE   W06
 BYTE   Bn3
 BYTE   W06
 BYTE   En3
 BYTE   W06
 BYTE   Fn3
 BYTE   W06
 BYTE   Gs3
 BYTE   W06
 BYTE   Bn3
 BYTE   W06
 BYTE   En3
 BYTE   W06
 BYTE   Fn3
 BYTE   W06
 BYTE   Gs3
 BYTE   W06
 BYTE   Bn3
 BYTE   W06
 BYTE   En3
 BYTE   W06
 BYTE   Fn3
 BYTE   W06
 BYTE   Gs3
 BYTE   W06
 BYTE   Bn3
 BYTE   W06
 BYTE   PEND
//  #07 //025   ----------------------------------------
 BYTE   PATT
  POIN2 Label_012000BE
//  #07 //026   ----------------------------------------
Label_012000E6:
 BYTE   N06  Ds3  v104
 BYTE   W06
 BYTE   En3
 BYTE   W06
 BYTE   Gn3
 BYTE   W06
 BYTE   As3
 BYTE   W06
 BYTE   Ds3
 BYTE   W06
 BYTE   En3
 BYTE   W06
 BYTE   Gn3
 BYTE   W06
 BYTE   As3
 BYTE   W06
 BYTE   Ds3
 BYTE   W06
 BYTE   En3
 BYTE   W06
 BYTE   Gn3
 BYTE   W06
 BYTE   As3
 BYTE   W06
 BYTE   Ds3
 BYTE   W06
 BYTE   En3
 BYTE   W06
 BYTE   Gn3
 BYTE   W06
 BYTE   As3
 BYTE   W06
 BYTE   PEND
//  #07 //027   ----------------------------------------
 BYTE   PATT
  POIN2 Label_012000E6
//  #07 //028   ----------------------------------------
 BYTE   PATT
  POIN2 Label_012000BE
//  #07 //029   ----------------------------------------
 BYTE   PATT
  POIN2 Label_012000BE
//  #07 //030   ----------------------------------------
 BYTE   PATT
  POIN2 Label_012000E6
//  #07 //031   ----------------------------------------
 BYTE   PATT
  POIN2 Label_012000E6
//  #07 //032   ----------------------------------------
 BYTE   W96
//  #07 //033   ----------------------------------------
 BYTE   W96
//  #07 //034   ----------------------------------------
 BYTE   W96
//  #07 //035   ----------------------------------------
 BYTE   W96
//  #07 //036   ----------------------------------------
 BYTE   W96
//  #07 //037   ----------------------------------------
 BYTE   GoTo
  POIN2 Label_011FFFAA
//  #07 //038   ----------------------------------------
 BYTE   N06  En3  v104
 BYTE   W06
 BYTE   Fn3
 BYTE   W06
 BYTE   An3
 BYTE   W06
 BYTE   Bn3
 BYTE   W06
 BYTE   En3
 BYTE   W06
 BYTE   Fn3
 BYTE   W06
 BYTE   An3
 BYTE   W06
 BYTE   Bn3
 BYTE   W06
 BYTE   En3
 BYTE   W06
 BYTE   Fn3
 BYTE   W06
 BYTE   An3
 BYTE   W06
 BYTE   Bn3
 BYTE   W06
 BYTE   En3
 BYTE   W06
 BYTE   Fn3
 BYTE   W06
 BYTE   FINE

//**************** Track 8 (Midi-Chn.7) ****************//

DarkBattle_008:
//  #08 //000   ----------------------------------------
 BYTE   KEYSH   DarkBattle_key+0
Label_011FF89E:
 BYTE   VOICE   124
 BYTE   MODT 0
 BYTE   LFOS 44
 BYTE   VOL   35*DarkBattle_mvl/mxv
 BYTE   PAN   c_v+0
 BYTE   VOL   35*DarkBattle_mvl/mxv
 BYTE   PAN   c_v+0
 BYTE   VOL   35*DarkBattle_mvl/mxv
 BYTE   PAN   c_v+0
 BYTE   VOL   35*DarkBattle_mvl/mxv
 BYTE   N48  Cn1  v104
 BYTE   W96
//  #08 //001   ----------------------------------------
 BYTE   N48
 BYTE   W96
//  #08 //002   ----------------------------------------
 BYTE   N48
 BYTE   W96
//  #08 //003   ----------------------------------------
 BYTE   N48
 BYTE   W72
 BYTE   TIE  Dn2  v076
 BYTE   W03
 BYTE   En2  v012
 BYTE   W21
//  #08 //004   ----------------------------------------
Label_011FF8C3:
 BYTE   N48  Cn1  v104
 BYTE   W48
 BYTE   N12  Fs2  v084
 BYTE   W12
 BYTE   Fs2  v127
 BYTE   W12
 BYTE   Fs2  v120
 BYTE   W12
 BYTE   Fs2  v084
 BYTE   W11
 BYTE   PEND
 BYTE   EOT
 BYTE   Dn2
 BYTE   W01
//  #08 //005   ----------------------------------------
 BYTE   En2
Label_011FF8D9:
 BYTE   N48  Cn1  v104
 BYTE   N12  Fs2  v056
 BYTE   W12
 BYTE   N36  Fs2  v024
 BYTE   W84
 BYTE   PEND
//  #08 //006   ----------------------------------------
Label_011FF8E5:
 BYTE   N48  Cn1  v104
 BYTE   W48
 BYTE   N12  Fs2  v084
 BYTE   W12
 BYTE   Fs2  v127
 BYTE   W12
 BYTE   Fs2  v120
 BYTE   W12
 BYTE   Fs2  v084
 BYTE   W12
 BYTE   PEND
//  #08 //007   ----------------------------------------
 BYTE   PATT
  POIN2 Label_011FF8D9
//  #08 //008   ----------------------------------------
 BYTE   PATT
  POIN2 Label_011FF8E5
//  #08 //009   ----------------------------------------
 BYTE   PATT
  POIN2 Label_011FF8D9
//  #08 //010   ----------------------------------------
 BYTE   PATT
  POIN2 Label_011FF8E5
//  #08 //011   ----------------------------------------
Label_011FF90B:
 BYTE   N48  Cn1  v104
 BYTE   N12  Fs2  v056
 BYTE   W12
 BYTE   N36  Fs2  v024
 BYTE   W60
 BYTE   TIE  Dn2  v076
 BYTE   W03
 BYTE   En2  v012
 BYTE   W21
 BYTE   PEND
//  #08 //012   ----------------------------------------
 BYTE   PATT
  POIN2 Label_011FF8C3
//  #08 //013   ----------------------------------------
 BYTE   EOT
 BYTE   Dn2
 BYTE   W01
 BYTE   En2
//  #08 //014   ----------------------------------------
 BYTE   PATT
  POIN2 Label_011FF8D9
//  #08 //015   ----------------------------------------
 BYTE   PATT
  POIN2 Label_011FF8E5
//  #08 //016   ----------------------------------------
 BYTE   PATT
  POIN2 Label_011FF90B
//  #08 //017   ----------------------------------------
 BYTE   PATT
  POIN2 Label_011FF8C3
//  #08 //018   ----------------------------------------
 BYTE   EOT
 BYTE   Dn2
 BYTE   W01
 BYTE   En2
//  #08 //019   ----------------------------------------
 BYTE   PATT
  POIN2 Label_011FF8D9
//  #08 //020   ----------------------------------------
 BYTE   PATT
  POIN2 Label_011FF8E5
//  #08 //021   ----------------------------------------
 BYTE   PATT
  POIN2 Label_011FF8D9
//  #08 //022   ----------------------------------------
 BYTE   PATT
  POIN2 Label_011FF8E5
//  #08 //023   ----------------------------------------
 BYTE   PATT
  POIN2 Label_011FF8D9
//  #08 //024   ----------------------------------------
 BYTE   PATT
  POIN2 Label_011FF8E5
//  #08 //025   ----------------------------------------
 BYTE   PATT
  POIN2 Label_011FF90B
//  #08 //026   ----------------------------------------
 BYTE   PATT
  POIN2 Label_011FF8C3
//  #08 //027   ----------------------------------------
 BYTE   EOT
 BYTE   Dn2
 BYTE   W01
 BYTE   En2
//  #08 //028   ----------------------------------------
 BYTE   PATT
  POIN2 Label_011FF8D9
//  #08 //029   ----------------------------------------
 BYTE   PATT
  POIN2 Label_011FF8E5
//  #08 //030   ----------------------------------------
 BYTE   PATT
  POIN2 Label_011FF8D9
//  #08 //031   ----------------------------------------
 BYTE   PATT
  POIN2 Label_011FF8E5
//  #08 //032   ----------------------------------------
 BYTE   PATT
  POIN2 Label_011FF8D9
//  #08 //033   ----------------------------------------
 BYTE   PATT
  POIN2 Label_011FF8E5
//  #08 //034   ----------------------------------------
 BYTE   N48  Cn1  v104
 BYTE   N12  Fs2  v056
 BYTE   W12
 BYTE   N36  Fs2  v024
 BYTE   W60
 BYTE   TIE  Dn2  v076
 BYTE   W02
 BYTE   En2  v012
 BYTE   W22
//  #08 //035   ----------------------------------------
 BYTE   W92
 BYTE   W03
 BYTE   EOT
 BYTE   Dn2  v052
 BYTE   W01
//  #08 //036   ----------------------------------------
 BYTE   W96
//  #08 //037   ----------------------------------------
 BYTE   W96
//  #08 //038   ----------------------------------------
 BYTE   W96
//  #08 //039   ----------------------------------------
 BYTE   W72
 BYTE   TIE  Dn2  v076
 BYTE   W02
 BYTE   En2  v012
 BYTE   W22
//  #08 //040   ----------------------------------------
 BYTE   GoTo
  POIN2 Label_011FF89E
//  #08 //041   ----------------------------------------
 BYTE   N48  Cn1  v104
 BYTE   W92
 BYTE   W03
 BYTE   EOT
 BYTE   Dn2  v052
 BYTE   FINE

//**************** Track 9 (Midi-Chn.8) ****************//

DarkBattle_009:
//  #09 //000   ----------------------------------------
 BYTE   KEYSH   DarkBattle_key+0
Label_0120022E:
 BYTE   VOICE   127
 BYTE   MODT 0
 BYTE   LFOS 44
 BYTE   VOL   61*DarkBattle_mvl/mxv
 BYTE   PAN   c_v+0
 BYTE   VOL   61*DarkBattle_mvl/mxv
 BYTE   N12  Cn1  v104
 BYTE   W12
 BYTE   Cs1
 BYTE   W12
 BYTE   Dn1
 BYTE   W12
 BYTE   Cs1
 BYTE   W12
 BYTE   Cn1
 BYTE   W12
 BYTE   Cs1
 BYTE   W12
 BYTE   Dn1
 BYTE   W12
 BYTE   Cs1
 BYTE   W12
//  #09 //001   ----------------------------------------
Label_0120024C:
 BYTE   N12  Cn1  v104
 BYTE   W12
 BYTE   Cs1
 BYTE   W12
 BYTE   Dn1
 BYTE   W12
 BYTE   Cs1
 BYTE   W12
 BYTE   Cn1
 BYTE   W12
 BYTE   Cs1
 BYTE   W12
 BYTE   Dn1
 BYTE   W12
 BYTE   Cs1
 BYTE   W12
 BYTE   PEND
//  #09 //002   ----------------------------------------
 BYTE   PATT
  POIN2 Label_0120024C
//  #09 //003   ----------------------------------------
 BYTE   PATT
  POIN2 Label_0120024C
//  #09 //004   ----------------------------------------
 BYTE   PATT
  POIN2 Label_0120024C
//  #09 //005   ----------------------------------------
 BYTE   PATT
  POIN2 Label_0120024C
//  #09 //006   ----------------------------------------
 BYTE   PATT
  POIN2 Label_0120024C
//  #09 //007   ----------------------------------------
 BYTE   PATT
  POIN2 Label_0120024C
//  #09 //008   ----------------------------------------
 BYTE   PATT
  POIN2 Label_0120024C
//  #09 //009   ----------------------------------------
 BYTE   PATT
  POIN2 Label_0120024C
//  #09 //010   ----------------------------------------
 BYTE   PATT
  POIN2 Label_0120024C
//  #09 //011   ----------------------------------------
 BYTE   PATT
  POIN2 Label_0120024C
//  #09 //012   ----------------------------------------
 BYTE   PATT
  POIN2 Label_0120024C
//  #09 //013   ----------------------------------------
 BYTE   PATT
  POIN2 Label_0120024C
//  #09 //014   ----------------------------------------
 BYTE   PATT
  POIN2 Label_0120024C
//  #09 //015   ----------------------------------------
 BYTE   PATT
  POIN2 Label_0120024C
//  #09 //016   ----------------------------------------
 BYTE   PATT
  POIN2 Label_0120024C
//  #09 //017   ----------------------------------------
 BYTE   PATT
  POIN2 Label_0120024C
//  #09 //018   ----------------------------------------
 BYTE   PATT
  POIN2 Label_0120024C
//  #09 //019   ----------------------------------------
 BYTE   PATT
  POIN2 Label_0120024C
//  #09 //020   ----------------------------------------
 BYTE   PATT
  POIN2 Label_0120024C
//  #09 //021   ----------------------------------------
 BYTE   PATT
  POIN2 Label_0120024C
//  #09 //022   ----------------------------------------
 BYTE   PATT
  POIN2 Label_0120024C
//  #09 //023   ----------------------------------------
 BYTE   PATT
  POIN2 Label_0120024C
//  #09 //024   ----------------------------------------
 BYTE   PATT
  POIN2 Label_0120024C
//  #09 //025   ----------------------------------------
 BYTE   PATT
  POIN2 Label_0120024C
//  #09 //026   ----------------------------------------
 BYTE   PATT
  POIN2 Label_0120024C
//  #09 //027   ----------------------------------------
 BYTE   PATT
  POIN2 Label_0120024C
//  #09 //028   ----------------------------------------
 BYTE   PATT
  POIN2 Label_0120024C
//  #09 //029   ----------------------------------------
 BYTE   PATT
  POIN2 Label_0120024C
//  #09 //030   ----------------------------------------
 BYTE   PATT
  POIN2 Label_0120024C
//  #09 //031   ----------------------------------------
 BYTE   PATT
  POIN2 Label_0120024C
//  #09 //032   ----------------------------------------
 BYTE   W96
//  #09 //033   ----------------------------------------
 BYTE   W96
//  #09 //034   ----------------------------------------
 BYTE   W96
//  #09 //035   ----------------------------------------
 BYTE   W96
//  #09 //036   ----------------------------------------
 BYTE   W96
//  #09 //037   ----------------------------------------
 BYTE   GoTo
  POIN2 Label_0120022E
//  #09 //038   ----------------------------------------
 BYTE   PATT
  POIN2 Label_0120024C
 BYTE   FINE

//**************** Track 10 (Midi-Chn.9) ****************//

DarkBattle_010:
//  #10 //000   ----------------------------------------
 BYTE   KEYSH   DarkBattle_key+0
Label_0120060E:
 BYTE   VOICE   63
 BYTE   MODT 0
 BYTE   LFOS 44
 BYTE   VOL   45*DarkBattle_mvl/mxv
 BYTE   PAN   c_v-13
 BYTE   VOL   45*DarkBattle_mvl/mxv
 BYTE   W96
//  #10 //001   ----------------------------------------
 BYTE   W96
//  #10 //002   ----------------------------------------
 BYTE   W96
//  #10 //003   ----------------------------------------
 BYTE   W96
//  #10 //004   ----------------------------------------
 BYTE   W24
 BYTE   TIE  En2  v104
 BYTE   W02
 BYTE   VOL   26*DarkBattle_mvl/mxv
 BYTE   W01
 BYTE   VOL   26*DarkBattle_mvl/mxv
 BYTE   W01
 BYTE   VOL   28*DarkBattle_mvl/mxv
 BYTE   W01
 BYTE   VOL   29*DarkBattle_mvl/mxv
 BYTE   W02
 BYTE   VOL   30*DarkBattle_mvl/mxv
 BYTE   W01
 BYTE   VOL   30*DarkBattle_mvl/mxv
 BYTE   W02
 BYTE   VOL   32*DarkBattle_mvl/mxv
 BYTE   W01
 BYTE   VOL   32*DarkBattle_mvl/mxv
 BYTE   W03
 BYTE   VOL   33*DarkBattle_mvl/mxv
 BYTE   W02
 BYTE   VOL   33*DarkBattle_mvl/mxv
 BYTE   W03
 BYTE   VOL   34*DarkBattle_mvl/mxv
 BYTE   W02
 BYTE   VOL   34*DarkBattle_mvl/mxv
 BYTE   W02
 BYTE   VOL   36*DarkBattle_mvl/mxv
 BYTE   W02
 BYTE   VOL   36*DarkBattle_mvl/mxv
 BYTE   W05
 BYTE   VOL   36*DarkBattle_mvl/mxv
 BYTE   W02
 BYTE   VOL   37*DarkBattle_mvl/mxv
 BYTE   W06
 BYTE   VOL   38*DarkBattle_mvl/mxv
 BYTE   W02
 BYTE   VOL   39*DarkBattle_mvl/mxv
 BYTE   W06
 BYTE   VOL   39*DarkBattle_mvl/mxv
 BYTE   W03
 BYTE   VOL   40*DarkBattle_mvl/mxv
 BYTE   W06
 BYTE   VOL   41*DarkBattle_mvl/mxv
 BYTE   W03
 BYTE   VOL   42*DarkBattle_mvl/mxv
 BYTE   W07
 BYTE   VOL   42*DarkBattle_mvl/mxv
 BYTE   W03
 BYTE   VOL   43*DarkBattle_mvl/mxv
 BYTE   W04
//  #10 //005   ----------------------------------------
 BYTE   W48
 BYTE   EOT
 BYTE   N48  An2
 BYTE   W48
//  #10 //006   ----------------------------------------
 BYTE   TIE  Bn2
 BYTE   W92
 BYTE   W01
 BYTE   VOL   42*DarkBattle_mvl/mxv
 BYTE   W03
//  #10 //007   ----------------------------------------
 BYTE   VOL   42*DarkBattle_mvl/mxv
 BYTE   W08
 BYTE   VOL   41*DarkBattle_mvl/mxv
 BYTE   W02
 BYTE   VOL   40*DarkBattle_mvl/mxv
 BYTE   W08
 BYTE   VOL   39*DarkBattle_mvl/mxv
 BYTE   W03
 BYTE   VOL   39*DarkBattle_mvl/mxv
 BYTE   W06
 BYTE   VOL   38*DarkBattle_mvl/mxv
 BYTE   W02
 BYTE   VOL   37*DarkBattle_mvl/mxv
 BYTE   W07
 BYTE   VOL   36*DarkBattle_mvl/mxv
 BYTE   W02
 BYTE   VOL   36*DarkBattle_mvl/mxv
 BYTE   W07
 BYTE   VOL   36*DarkBattle_mvl/mxv
 BYTE   W01
 BYTE   VOL   34*DarkBattle_mvl/mxv
 BYTE   W04
 BYTE   VOL   34*DarkBattle_mvl/mxv
 BYTE   W02
 BYTE   VOL   33*DarkBattle_mvl/mxv
 BYTE   W05
 BYTE   VOL   33*DarkBattle_mvl/mxv
 BYTE   W02
 BYTE   VOL   32*DarkBattle_mvl/mxv
 BYTE   W05
 BYTE   VOL   32*DarkBattle_mvl/mxv
 BYTE   W01
 BYTE   VOL   30*DarkBattle_mvl/mxv
 BYTE   W04
 BYTE   VOL   30*DarkBattle_mvl/mxv
 BYTE   W01
 BYTE   VOL   29*DarkBattle_mvl/mxv
 BYTE   W05
 BYTE   VOL   29*DarkBattle_mvl/mxv
 BYTE   W01
 BYTE   VOL   28*DarkBattle_mvl/mxv
 BYTE   W03
 BYTE   VOL   27*DarkBattle_mvl/mxv
 BYTE   W01
 BYTE   VOL   26*DarkBattle_mvl/mxv
 BYTE   W03
 BYTE   VOL   26*DarkBattle_mvl/mxv
 BYTE   W02
 BYTE   VOL   25*DarkBattle_mvl/mxv
 BYTE   W01
 BYTE   VOL   24*DarkBattle_mvl/mxv
 BYTE   W01
 BYTE   VOL   24*DarkBattle_mvl/mxv
 BYTE   W02
 BYTE   VOL   24*DarkBattle_mvl/mxv
 BYTE   W01
 BYTE   VOL   22*DarkBattle_mvl/mxv
 BYTE   W01
 BYTE   VOL   22*DarkBattle_mvl/mxv
 BYTE   W01
 BYTE   VOL   21*DarkBattle_mvl/mxv
 BYTE   W01
 BYTE   VOL   20*DarkBattle_mvl/mxv
 BYTE   W01
 BYTE   VOL   19*DarkBattle_mvl/mxv
 BYTE   W02
//  #10 //008   ----------------------------------------
 BYTE   EOT
 BYTE   W22
 BYTE   VOL   22*DarkBattle_mvl/mxv
 BYTE   W01
 BYTE   VOL   23*DarkBattle_mvl/mxv
 BYTE   W01
 BYTE   VOL   25*DarkBattle_mvl/mxv
 BYTE   N72  An2
 BYTE   W01
 BYTE   VOL   26*DarkBattle_mvl/mxv
 BYTE   W01
 BYTE   VOL   28*DarkBattle_mvl/mxv
 BYTE   W02
 BYTE   VOL   29*DarkBattle_mvl/mxv
 BYTE   W02
 BYTE   VOL   30*DarkBattle_mvl/mxv
 BYTE   W01
 BYTE   VOL   30*DarkBattle_mvl/mxv
 BYTE   W01
 BYTE   VOL   32*DarkBattle_mvl/mxv
 BYTE   W01
 BYTE   VOL   32*DarkBattle_mvl/mxv
 BYTE   W02
 BYTE   VOL   33*DarkBattle_mvl/mxv
 BYTE   W02
 BYTE   VOL   34*DarkBattle_mvl/mxv
 BYTE   W01
 BYTE   VOL   34*DarkBattle_mvl/mxv
 BYTE   W01
 BYTE   VOL   36*DarkBattle_mvl/mxv
 BYTE   W01
 BYTE   VOL   36*DarkBattle_mvl/mxv
 BYTE   W03
 BYTE   VOL   36*DarkBattle_mvl/mxv
 BYTE   W01
 BYTE   VOL   37*DarkBattle_mvl/mxv
 BYTE   W02
 BYTE   VOL   38*DarkBattle_mvl/mxv
 BYTE   W01
 BYTE   VOL   39*DarkBattle_mvl/mxv
 BYTE   W03
 BYTE   VOL   39*DarkBattle_mvl/mxv
 BYTE   W01
 BYTE   VOL   40*DarkBattle_mvl/mxv
 BYTE   W03
 BYTE   VOL   42*DarkBattle_mvl/mxv
 BYTE   W05
 BYTE   VOL   43*DarkBattle_mvl/mxv
 BYTE   W04
 BYTE   VOL   44*DarkBattle_mvl/mxv
 BYTE   W32
 BYTE   W01
//  #10 //009   ----------------------------------------
 BYTE   N48  Bn2
 BYTE   W48
 BYTE   N96  Dn3
 BYTE   W48
//  #10 //010   ----------------------------------------
 BYTE   W48
 BYTE   TIE  En3
 BYTE   W44
 BYTE   W03
 BYTE   VOL   43*DarkBattle_mvl/mxv
 BYTE   W01
//  #10 //011   ----------------------------------------
 BYTE   W07
 BYTE   VOL   42*DarkBattle_mvl/mxv
 BYTE   W03
 BYTE   VOL   42*DarkBattle_mvl/mxv
 BYTE   W07
 BYTE   VOL   41*DarkBattle_mvl/mxv
 BYTE   W03
 BYTE   VOL   40*DarkBattle_mvl/mxv
 BYTE   W08
 BYTE   VOL   39*DarkBattle_mvl/mxv
 BYTE   W02
 BYTE   VOL   39*DarkBattle_mvl/mxv
 BYTE   W07
 BYTE   VOL   38*DarkBattle_mvl/mxv
 BYTE   W02
 BYTE   VOL   37*DarkBattle_mvl/mxv
 BYTE   W06
 BYTE   VOL   36*DarkBattle_mvl/mxv
 BYTE   W03
 BYTE   VOL   36*DarkBattle_mvl/mxv
 BYTE   W06
 BYTE   VOL   36*DarkBattle_mvl/mxv
 BYTE   W02
 BYTE   VOL   34*DarkBattle_mvl/mxv
 BYTE   W03
 BYTE   VOL   34*DarkBattle_mvl/mxv
 BYTE   W02
 BYTE   VOL   33*DarkBattle_mvl/mxv
 BYTE   W05
 BYTE   VOL   33*DarkBattle_mvl/mxv
 BYTE   W01
 BYTE   VOL   32*DarkBattle_mvl/mxv
 BYTE   W04
 BYTE   VOL   32*DarkBattle_mvl/mxv
 BYTE   W03
 BYTE   VOL   30*DarkBattle_mvl/mxv
 BYTE   W04
 BYTE   VOL   29*DarkBattle_mvl/mxv
 BYTE   W04
 BYTE   VOL   29*DarkBattle_mvl/mxv
 BYTE   W01
 BYTE   VOL   28*DarkBattle_mvl/mxv
 BYTE   W03
 BYTE   VOL   27*DarkBattle_mvl/mxv
 BYTE   W01
 BYTE   VOL   26*DarkBattle_mvl/mxv
 BYTE   W02
 BYTE   VOL   26*DarkBattle_mvl/mxv
 BYTE   W01
 BYTE   VOL   25*DarkBattle_mvl/mxv
 BYTE   W01
 BYTE   VOL   24*DarkBattle_mvl/mxv
 BYTE   W02
 BYTE   VOL   23*DarkBattle_mvl/mxv
 BYTE   W01
 BYTE   VOL   22*DarkBattle_mvl/mxv
 BYTE   W01
 BYTE   VOL   21*DarkBattle_mvl/mxv
 BYTE   W01
//  #10 //012   ----------------------------------------
 BYTE   EOT
 BYTE   W96
//  #10 //013   ----------------------------------------
 BYTE   W92
 BYTE   W03
 BYTE   VOL   45*DarkBattle_mvl/mxv
 BYTE   W01
//  #10 //014   ----------------------------------------
 BYTE   W12
 BYTE   N12  En2
 BYTE   W12
 BYTE   Fn2
 BYTE   W12
 BYTE   An2
 BYTE   W12
 BYTE   Bn2
 BYTE   W12
 BYTE   An2
 BYTE   W12
 BYTE   Bn2
 BYTE   W12
 BYTE   Dn3
 BYTE   W12
//  #10 //015   ----------------------------------------
 BYTE   N36  En3
 BYTE   W36
 BYTE   N12  Fn3
 BYTE   W12
 BYTE   N24  En3
 BYTE   W24
 BYTE   N12  Dn3
 BYTE   W12
 BYTE   Bn2
 BYTE   W12
//  #10 //016   ----------------------------------------
 BYTE   W96
//  #10 //017   ----------------------------------------
 BYTE   W96
//  #10 //018   ----------------------------------------
 BYTE   W96
//  #10 //019   ----------------------------------------
 BYTE   W96
//  #10 //020   ----------------------------------------
 BYTE   W96
//  #10 //021   ----------------------------------------
 BYTE   W96
//  #10 //022   ----------------------------------------
 BYTE   W96
//  #10 //023   ----------------------------------------
 BYTE   W96
//  #10 //024   ----------------------------------------
 BYTE   W96
//  #10 //025   ----------------------------------------
 BYTE   W96
//  #10 //026   ----------------------------------------
 BYTE   W96
//  #10 //027   ----------------------------------------
 BYTE   W96
//  #10 //028   ----------------------------------------
 BYTE   W96
//  #10 //029   ----------------------------------------
 BYTE   W96
//  #10 //030   ----------------------------------------
 BYTE   W96
//  #10 //031   ----------------------------------------
 BYTE   W96
//  #10 //032   ----------------------------------------
 BYTE   W24
 BYTE   N24  Gn3
 BYTE   W24
 BYTE   N72  Fn3
 BYTE   W48
//  #10 //033   ----------------------------------------
 BYTE   W24
 BYTE   N24  Ds3
 BYTE   W24
 BYTE   Fn3
 BYTE   W24
 BYTE   Gn3
 BYTE   W24
//  #10 //034   ----------------------------------------
 BYTE   N48  Cn3
 BYTE   W48
 BYTE   Dn3
 BYTE   W48
//  #10 //035   ----------------------------------------
 BYTE   Ds3
 BYTE   W48
 BYTE   TIE  Fn3
 BYTE   W48
//  #10 //036   ----------------------------------------
 BYTE   W96
//  #10 //037   ----------------------------------------
 BYTE   EOT
 BYTE   GoTo
  POIN2 Label_0120060E
 BYTE   FINE

//******************************************************//
	ALIGN 4

DarkBattle:
	BYTE	10
	BYTE	0
	BYTE	DarkBattle_pri
	BYTE	DarkBattle_rev

	POIN2	DarkBattle_grp

	POIN2	DarkBattle_001
	POIN2	DarkBattle_002
	POIN2	DarkBattle_003
	POIN2	DarkBattle_004
	POIN2	DarkBattle_005
	POIN2	DarkBattle_006
	POIN2	DarkBattle_007
	POIN2	DarkBattle_008
	POIN2	DarkBattle_009
	POIN2	DarkBattle_010
