//Event file generated from Sappy .s format.
	#include "MPlayDef.event"

	#define	EchoingLibrary_grp  voicegroup000
	#define	EchoingLibrary_pri  0
	#define	EchoingLibrary_rev  0
	#define	EchoingLibrary_mvl  127
	#define	EchoingLibrary_key  0
	#define	EchoingLibrary_tbs  1
	#define	EchoingLibrary_exg  0
	#define	EchoingLibrary_cmp  1

	// .rodata
	//	EchoingLibrary
	ALIGN 4


//**************** Track 1 (Midi-Chn.0) ****************//

EchoingLibrary_001:
//  #01 //000   ----------------------------------------
 BYTE   KEYSH   EchoingLibrary_key+0
 BYTE   TEMPO   160*EchoingLibrary_tbs/2
 BYTE   VOICE   100
 BYTE   VOL   40*EchoingLibrary_mvl/mxv
 BYTE   PAN   c_v+0
 BYTE   PAN   c_v+0
 BYTE   N11  Cn3  v076
 BYTE   N22  Gn3  v100
 BYTE   W12
 BYTE   N11  Cn2  v056
 BYTE   W12
Label_010FFBF6:
 BYTE   N11  Ds2  v072
 BYTE   N05  Gn3  v100
 BYTE   W12
 BYTE   N11  Gn1  v060
 BYTE   N11  Fn3  v096
 BYTE   W12
 BYTE   Ds1  v052
 BYTE   N11  Ds3  v092
 BYTE   W12
 BYTE   Gn2  v072
 BYTE   N05  Dn3  v104
 BYTE   W12
 BYTE   Gn1  v056
 BYTE   N11  As2  v080
 BYTE   W12
 BYTE   Cn3  v076
 BYTE   N05  Gn3  v112
 BYTE   W12
//  #01 //001   ----------------------------------------
 BYTE   N11  Cn2  v056
 BYTE   W12
 BYTE   Ds2  v072
 BYTE   N11  Gn3  v112
 BYTE   W12
 BYTE   Gn1  v060
 BYTE   N11  Fn3  v096
 BYTE   W12
 BYTE   Ds1  v052
 BYTE   N11  Ds3  v088
 BYTE   W12
 BYTE   Gn2  v072
 BYTE   N05  Dn3  v092
 BYTE   W12
 BYTE   Gn1  v056
 BYTE   N05  As2  v092
 BYTE   W12
Label_010FFC3E:
 BYTE   N11  Cn3  v076
 BYTE   N22  Gn3  v100
 BYTE   W12
 BYTE   N11  Cn2  v056
 BYTE   W12
//  #01 //002   ----------------------------------------
 BYTE   Ds2  v072
 BYTE   N05  Gn3  v100
 BYTE   W12
 BYTE   N11  Gn1  v060
 BYTE   N11  Fn3  v096
 BYTE   W12
 BYTE   Ds1  v052
 BYTE   N11  Ds3  v092
 BYTE   W12
 BYTE   Gn2  v072
 BYTE   N05  Dn3  v104
 BYTE   W12
 BYTE   Gn1  v056
 BYTE   N11  As2  v080
 BYTE   W12
 BYTE   Cn3  v076
 BYTE   N05  Gn3  v112
 BYTE   W12
 BYTE   N11  Cn2  v056
 BYTE   W12
 BYTE   Ds2  v072
 BYTE   N11  Gn3  v112
 BYTE   W12
//  #01 //003   ----------------------------------------
 BYTE   Gn1  v060
 BYTE   N11  Fn3  v096
 BYTE   W12
 BYTE   Ds1  v052
 BYTE   N11  Ds3  v088
 BYTE   W12
 BYTE   Gn2  v072
 BYTE   N05  Dn3  v092
 BYTE   W12
 BYTE   Gn1  v056
 BYTE   N05  As2  v092
 BYTE   W12
 BYTE   PEND
//  #01 //004   ----------------------------------------
 BYTE   PATT
  POIN2 Label_010FFC3E
//  #01 //005   ----------------------------------------
 BYTE   PATT
  POIN2 Label_010FFC3E
//  #01 //006   ----------------------------------------
 BYTE   PATT
  POIN2 Label_010FFC3E
//  #01 //007   ----------------------------------------
 BYTE   PATT
  POIN2 Label_010FFC3E
//  #01 //008   ----------------------------------------
 BYTE   PATT
  POIN2 Label_010FFC3E
//  #01 //009   ----------------------------------------
 BYTE   PATT
  POIN2 Label_010FFC3E
//  #01 //010   ----------------------------------------
Label_010FFCAF:
 BYTE   N11  An2  v076
 BYTE   N11  En3  v120
 BYTE   W12
 BYTE   An1  v056
 BYTE   W12
 BYTE   Cn2  v072
 BYTE   N11  En3  v112
 BYTE   W12
 BYTE   En1  v060
 BYTE   N11  Dn3  v104
 BYTE   W12
 BYTE   Cn1  v052
 BYTE   N11  Cn3  v116
 BYTE   W12
 BYTE   En2  v072
 BYTE   N11  Bn2  v112
 BYTE   W12
 BYTE   N05  En1  v056
 BYTE   N11  Gn2  v096
 BYTE   W12
 BYTE   An2  v076
 BYTE   N05  En3  v120
 BYTE   W12
//  #01 //011   ----------------------------------------
 BYTE   N11  An1  v056
 BYTE   W12
 BYTE   Cn2  v072
 BYTE   N05  En3  v120
 BYTE   W12
 BYTE   N11  En1  v060
 BYTE   N11  Dn3  v108
 BYTE   W12
 BYTE   Cn1  v052
 BYTE   N11  Cn3  v112
 BYTE   W12
 BYTE   En2  v072
 BYTE   N11  Bn2  v084
 BYTE   W12
 BYTE   N05  En1  v056
 BYTE   N11  Gn2  v100
 BYTE   W12
 BYTE   PEND
//  #01 //012   ----------------------------------------
 BYTE   PATT
  POIN2 Label_010FFCAF
//  #01 //013   ----------------------------------------
 BYTE   PATT
  POIN2 Label_010FFCAF
//  #01 //014   ----------------------------------------
 BYTE   PATT
  POIN2 Label_010FFCAF
//  #01 //015   ----------------------------------------
 BYTE   PATT
  POIN2 Label_010FFC3E
//  #01 //016   ----------------------------------------
 BYTE   PATT
  POIN2 Label_010FFC3E
//  #01 //017   ----------------------------------------
 BYTE   PATT
  POIN2 Label_010FFC3E
//  #01 //018   ----------------------------------------
 BYTE   PATT
  POIN2 Label_010FFC3E
//  #01 //019   ----------------------------------------
 BYTE   PATT
  POIN2 Label_010FFCAF
//  #01 //020   ----------------------------------------
 BYTE   PATT
  POIN2 Label_010FFCAF
//  #01 //021   ----------------------------------------
 BYTE   PATT
  POIN2 Label_010FFCAF
//  #01 //022   ----------------------------------------
 BYTE   PATT
  POIN2 Label_010FFCAF
//  #01 //023   ----------------------------------------
 BYTE   PATT
  POIN2 Label_010FFC3E
//  #01 //024   ----------------------------------------
 BYTE   PATT
  POIN2 Label_010FFC3E
//  #01 //025   ----------------------------------------
 BYTE   PATT
  POIN2 Label_010FFC3E
//  #01 //026   ----------------------------------------
 BYTE   PATT
  POIN2 Label_010FFC3E
//  #01 //027   ----------------------------------------
 BYTE   PATT
  POIN2 Label_010FFCAF
//  #01 //028   ----------------------------------------
 BYTE   PATT
  POIN2 Label_010FFCAF
//  #01 //029   ----------------------------------------
 BYTE   PATT
  POIN2 Label_010FFCAF
//  #01 //030   ----------------------------------------
 BYTE   PATT
  POIN2 Label_010FFCAF
//  #01 //031   ----------------------------------------
 BYTE   PATT
  POIN2 Label_010FFC3E
//  #01 //032   ----------------------------------------
 BYTE   PATT
  POIN2 Label_010FFC3E
//  #01 //033   ----------------------------------------
 BYTE   PATT
  POIN2 Label_010FFC3E
//  #01 //034   ----------------------------------------
 BYTE   PATT
  POIN2 Label_010FFC3E
//  #01 //035   ----------------------------------------
 BYTE   PATT
  POIN2 Label_010FFCAF
//  #01 //036   ----------------------------------------
 BYTE   PATT
  POIN2 Label_010FFCAF
//  #01 //037   ----------------------------------------
 BYTE   PATT
  POIN2 Label_010FFCAF
//  #01 //038   ----------------------------------------
 BYTE   PATT
  POIN2 Label_010FFCAF
//  #01 //039   ----------------------------------------
 BYTE   PATT
  POIN2 Label_010FFCAF
//  #01 //040   ----------------------------------------
 BYTE   PATT
  POIN2 Label_010FFCAF
//  #01 //041   ----------------------------------------
 BYTE   PATT
  POIN2 Label_010FFCAF
//  #01 //042   ----------------------------------------
 BYTE   PATT
  POIN2 Label_010FFCAF
//  #01 //043   ----------------------------------------
Label_010FFD9E:
 BYTE   N11  Fn2  v076
 BYTE   N11  Cn3  v120
 BYTE   W12
 BYTE   Fn1  v056
 BYTE   W12
 BYTE   Gs1  v072
 BYTE   N11  Cn3  v112
 BYTE   W12
 BYTE   Cn1  v060
 BYTE   N11  As2  v104
 BYTE   W12
 BYTE   Gs0  v052
 BYTE   N11  Gs2  v116
 BYTE   W12
 BYTE   Cn2  v072
 BYTE   N11  Gn2  v112
 BYTE   W12
 BYTE   N05  Cn1  v056
 BYTE   N11  Ds2  v096
 BYTE   W12
 BYTE   Fn2  v076
 BYTE   N05  Cn3  v120
 BYTE   W12
//  #01 //044   ----------------------------------------
 BYTE   N11  Fn1  v056
 BYTE   W12
 BYTE   Gs1  v072
 BYTE   N05  Cn3  v120
 BYTE   W12
 BYTE   N11  Cn1  v060
 BYTE   N11  As2  v108
 BYTE   W12
 BYTE   Gs0  v052
 BYTE   N11  Gs2  v112
 BYTE   W12
 BYTE   Cn2  v072
 BYTE   N11  Gn2  v084
 BYTE   W12
 BYTE   N05  Cn1  v056
 BYTE   N11  Ds2  v100
 BYTE   W12
 BYTE   PEND
//  #01 //045   ----------------------------------------
 BYTE   PATT
  POIN2 Label_010FFD9E
//  #01 //046   ----------------------------------------
 BYTE   PATT
  POIN2 Label_010FFD9E
//  #01 //047   ----------------------------------------
 BYTE   PATT
  POIN2 Label_010FFD9E
//  #01 //048   ----------------------------------------
 BYTE   PATT
  POIN2 Label_010FFCAF
//  #01 //049   ----------------------------------------
 BYTE   PATT
  POIN2 Label_010FFCAF
//  #01 //050   ----------------------------------------
 BYTE   PATT
  POIN2 Label_010FFCAF
//  #01 //051   ----------------------------------------
 BYTE   PATT
  POIN2 Label_010FFCAF
//  #01 //052   ----------------------------------------
 BYTE   PATT
  POIN2 Label_010FFD9E
//  #01 //053   ----------------------------------------
 BYTE   PATT
  POIN2 Label_010FFD9E
//  #01 //054   ----------------------------------------
 BYTE   PATT
  POIN2 Label_010FFD9E
//  #01 //055   ----------------------------------------
 BYTE   PATT
  POIN2 Label_010FFD9E
//  #01 //056   ----------------------------------------
 BYTE   W24
 BYTE   N05  Gs2  v127
 BYTE   N05  Ds3
 BYTE   W12
 BYTE   Gs2
 BYTE   N05  Ds3
 BYTE   W12
 BYTE   Gs2  v124
 BYTE   N05  Ds3
 BYTE   W12
 BYTE   An2
 BYTE   N05  En3
 BYTE   W12
 BYTE   An2  v116
 BYTE   N05  En3
 BYTE   W12
 BYTE   An2  v112
 BYTE   N05  En3
 BYTE   W12
//  #01 //057   ----------------------------------------
 BYTE   As2  v124
 BYTE   N05  Fn3
 BYTE   W12
 BYTE   As2  v127
 BYTE   N05  Fn3
 BYTE   W12
 BYTE   As2  v124
 BYTE   N05  Fn3
 BYTE   W12
 BYTE   Bn2  v112
 BYTE   N05  Fs3
 BYTE   W12
 BYTE   Bn2
 BYTE   N05  Fs3
 BYTE   W12
 BYTE   Bn2  v116
 BYTE   N05  Fs3
 BYTE   W12
 BYTE   W24
//  #01 //058   ----------------------------------------
 BYTE   Gs2  v127
 BYTE   N05  Ds3
 BYTE   W12
 BYTE   Gs2  v124
 BYTE   N05  Ds3
 BYTE   W12
 BYTE   Gs2  v116
 BYTE   N05  Ds3
 BYTE   W12
 BYTE   An2  v108
 BYTE   N05  En3
 BYTE   W12
 BYTE   An2
 BYTE   N05  En3
 BYTE   W12
 BYTE   An2  v104
 BYTE   N05  En3
 BYTE   W12
 BYTE   As2  v124
 BYTE   N05  Fn3
 BYTE   W12
 BYTE   As2  v116
 BYTE   N05  Fn3
 BYTE   W12
//  #01 //059   ----------------------------------------
 BYTE   As2  v120
 BYTE   N05  Fn3
 BYTE   W12
 BYTE   Bn2  v124
 BYTE   N05  Fs3
 BYTE   W12
 BYTE   Bn2  v108
 BYTE   N05  Fs3
 BYTE   W12
 BYTE   Bn2
 BYTE   N05  Fs3
 BYTE   W12
 BYTE   W24
 BYTE   Gs2  v127
 BYTE   N05  Ds3
 BYTE   W12
 BYTE   Gs2  v120
 BYTE   N05  Ds3
 BYTE   W12
//  #01 //060   ----------------------------------------
 BYTE   Gs2  v092
 BYTE   N05  Ds3
 BYTE   W12
 BYTE   An2  v112
 BYTE   N05  En3
 BYTE   W12
 BYTE   An2  v108
 BYTE   N05  En3
 BYTE   W12
 BYTE   An2  v104
 BYTE   N05  En3
 BYTE   W12
 BYTE   As2  v127
 BYTE   N05  Fn3
 BYTE   W12
 BYTE   As2  v120
 BYTE   N05  Fn3
 BYTE   W12
 BYTE   As2  v124
 BYTE   N05  Fn3
 BYTE   W12
 BYTE   Bn2  v112
 BYTE   N05  Fs3
 BYTE   W12
//  #01 //061   ----------------------------------------
 BYTE   Bn2
 BYTE   N05  Fs3
 BYTE   W12
 BYTE   Bn2  v108
 BYTE   N05  Fs3
 BYTE   W12
 BYTE   TIE  Cn3  v124
 BYTE   TIE  Gn3
 BYTE   W96
//  #01 //062   ----------------------------------------
 BYTE   W72
 BYTE   W96
//  #01 //063   ----------------------------------------
 BYTE   W24
 BYTE   W02
 BYTE   EOT
 BYTE   Cn3  v067
 BYTE   W44
 BYTE   W02
 BYTE   TEMPO   160*EchoingLibrary_tbs/2
 BYTE   W24
//  #01 //064   ----------------------------------------
 BYTE   N11  Cn3  v076
 BYTE   N22  Gn3  v100
 BYTE   W12
 BYTE   N11  Cn2  v056
 BYTE   W12
 BYTE   GoTo
  POIN2 Label_010FFBF6
//  #01 //065   ----------------------------------------
 BYTE   N11  Ds2  v072
 BYTE   N05  Gn3  v100
 BYTE   W12
 BYTE   N11  Gn1  v060
 BYTE   N11  Fn3  v096
 BYTE   W12
 BYTE   Ds1  v052
 BYTE   N11  Ds3  v092
 BYTE   W12
 BYTE   Gn2  v072
 BYTE   N05  Dn3  v104
 BYTE   W12
 BYTE   Gn1  v056
 BYTE   N11  As2  v080
 BYTE   W12
 BYTE   Cn3  v076
 BYTE   N05  Gn3  v112
 BYTE   W12
 BYTE   N11  Cn2  v056
 BYTE   W12
 BYTE   Ds2  v072
 BYTE   N11  Gn3  v112
 BYTE   W12
//  #01 //066   ----------------------------------------
 BYTE   Gn1  v060
 BYTE   N11  Fn3  v096
 BYTE   W12
 BYTE   Ds1  v052
 BYTE   N11  Ds3  v088
 BYTE   W12
Label_010FFF39:
 BYTE   N11  Gn2  v072
 BYTE   N05  Dn3  v092
 BYTE   W12
 BYTE   Gn1  v056
 BYTE   N05  As2  v092
 BYTE   W12
 BYTE   N11  Cn3  v076
 BYTE   N22  Gn3  v100
 BYTE   W12
 BYTE   N11  Cn2  v056
 BYTE   W12
 BYTE   Ds2  v072
 BYTE   N05  Gn3  v100
 BYTE   W12
 BYTE   N11  Gn1  v060
 BYTE   N11  Fn3  v096
 BYTE   W12
//  #01 //067   ----------------------------------------
 BYTE   Ds1  v052
 BYTE   N11  Ds3  v092
 BYTE   W12
 BYTE   Gn2  v072
 BYTE   N05  Dn3  v104
 BYTE   W12
 BYTE   Gn1  v056
 BYTE   N11  As2  v080
 BYTE   W12
 BYTE   Cn3  v076
 BYTE   N05  Gn3  v112
 BYTE   W12
 BYTE   N11  Cn2  v056
 BYTE   W12
 BYTE   Ds2  v072
 BYTE   N11  Gn3  v112
 BYTE   W12
 BYTE   Gn1  v060
 BYTE   N11  Fn3  v096
 BYTE   W12
 BYTE   Ds1  v052
 BYTE   N11  Ds3  v088
 BYTE   W12
 BYTE   PEND
//  #01 //068   ----------------------------------------
 BYTE   PATT
  POIN2 Label_010FFF39
//  #01 //069   ----------------------------------------
 BYTE   PATT
  POIN2 Label_010FFF39
//  #01 //070   ----------------------------------------
 BYTE   PATT
  POIN2 Label_010FFF39
//  #01 //071   ----------------------------------------
 BYTE   PATT
  POIN2 Label_010FFF39
//  #01 //072   ----------------------------------------
 BYTE   PATT
  POIN2 Label_010FFF39
//  #01 //073   ----------------------------------------
 BYTE   PATT
  POIN2 Label_010FFF39
//  #01 //074   ----------------------------------------
Label_010FFFAB:
 BYTE   N11  Gn2  v072
 BYTE   N05  Dn3  v092
 BYTE   W12
 BYTE   Gn1  v056
 BYTE   N05  As2  v092
 BYTE   W12
 BYTE   N11  An2  v076
 BYTE   N11  En3  v120
 BYTE   W12
 BYTE   An1  v056
 BYTE   W12
 BYTE   Cn2  v072
 BYTE   N11  En3  v112
 BYTE   W12
 BYTE   En1  v060
 BYTE   N11  Dn3  v104
 BYTE   W12
 BYTE   Cn1  v052
 BYTE   N11  Cn3  v116
 BYTE   W12
 BYTE   En2  v072
 BYTE   N11  Bn2  v112
 BYTE   W12
//  #01 //075   ----------------------------------------
 BYTE   N05  En1  v056
 BYTE   N11  Gn2  v096
 BYTE   W12
 BYTE   An2  v076
 BYTE   N05  En3  v120
 BYTE   W12
 BYTE   N11  An1  v056
 BYTE   W12
 BYTE   Cn2  v072
 BYTE   N05  En3  v120
 BYTE   W12
 BYTE   N11  En1  v060
 BYTE   N11  Dn3  v108
 BYTE   W12
 BYTE   Cn1  v052
 BYTE   N11  Cn3  v112
 BYTE   W12
 BYTE   PEND
Label_010FFFFF:
 BYTE   N11  En2  v072
 BYTE   N11  Bn2  v084
 BYTE   W12
 BYTE   N05  En1  v056
 BYTE   N11  Gn2  v100
 BYTE   W12
//  #01 //076   ----------------------------------------
 BYTE   An2  v076
 BYTE   N11  En3  v120
 BYTE   W12
 BYTE   An1  v056
 BYTE   W12
 BYTE   Cn2  v072
 BYTE   N11  En3  v112
 BYTE   W12
 BYTE   En1  v060
 BYTE   N11  Dn3  v104
 BYTE   W12
 BYTE   Cn1  v052
 BYTE   N11  Cn3  v116
 BYTE   W12
 BYTE   En2  v072
 BYTE   N11  Bn2  v112
 BYTE   W12
 BYTE   N05  En1  v056
 BYTE   N11  Gn2  v096
 BYTE   W12
 BYTE   An2  v076
 BYTE   N05  En3  v120
 BYTE   W12
//  #01 //077   ----------------------------------------
 BYTE   N11  An1  v056
 BYTE   W12
 BYTE   Cn2  v072
 BYTE   N05  En3  v120
 BYTE   W12
 BYTE   N11  En1  v060
 BYTE   N11  Dn3  v108
 BYTE   W12
 BYTE   Cn1  v052
 BYTE   N11  Cn3  v112
 BYTE   W12
 BYTE   PEND
//  #01 //078   ----------------------------------------
 BYTE   PATT
  POIN2 Label_010FFFFF
//  #01 //079   ----------------------------------------
 BYTE   PATT
  POIN2 Label_010FFFFF
//  #01 //080   ----------------------------------------
Label_0110005D:
 BYTE   N11  En2  v072
 BYTE   N11  Bn2  v084
 BYTE   W12
 BYTE   N05  En1  v056
 BYTE   N11  Gn2  v100
 BYTE   W12
 BYTE   Cn3  v076
 BYTE   N22  Gn3  v100
 BYTE   W12
 BYTE   N11  Cn2  v056
 BYTE   W12
 BYTE   Ds2  v072
 BYTE   N05  Gn3  v100
 BYTE   W12
 BYTE   N11  Gn1  v060
 BYTE   N11  Fn3  v096
 BYTE   W12
 BYTE   Ds1  v052
 BYTE   N11  Ds3  v092
 BYTE   W12
 BYTE   Gn2  v072
 BYTE   N05  Dn3  v104
 BYTE   W12
//  #01 //081   ----------------------------------------
 BYTE   Gn1  v056
 BYTE   N11  As2  v080
 BYTE   W12
 BYTE   Cn3  v076
 BYTE   N05  Gn3  v112
 BYTE   W12
 BYTE   N11  Cn2  v056
 BYTE   W12
 BYTE   Ds2  v072
 BYTE   N11  Gn3  v112
 BYTE   W12
 BYTE   Gn1  v060
 BYTE   N11  Fn3  v096
 BYTE   W12
 BYTE   Ds1  v052
 BYTE   N11  Ds3  v088
 BYTE   W12
 BYTE   PEND
//  #01 //082   ----------------------------------------
 BYTE   PATT
  POIN2 Label_010FFF39
//  #01 //083   ----------------------------------------
 BYTE   PATT
  POIN2 Label_010FFF39
//  #01 //084   ----------------------------------------
 BYTE   PATT
  POIN2 Label_010FFF39
//  #01 //085   ----------------------------------------
 BYTE   PATT
  POIN2 Label_010FFFAB
//  #01 //086   ----------------------------------------
 BYTE   PATT
  POIN2 Label_010FFFFF
//  #01 //087   ----------------------------------------
 BYTE   PATT
  POIN2 Label_010FFFFF
//  #01 //088   ----------------------------------------
 BYTE   PATT
  POIN2 Label_010FFFFF
//  #01 //089   ----------------------------------------
 BYTE   PATT
  POIN2 Label_0110005D
//  #01 //090   ----------------------------------------
 BYTE   PATT
  POIN2 Label_010FFF39
//  #01 //091   ----------------------------------------
 BYTE   PATT
  POIN2 Label_010FFF39
//  #01 //092   ----------------------------------------
 BYTE   PATT
  POIN2 Label_010FFF39
//  #01 //093   ----------------------------------------
 BYTE   PATT
  POIN2 Label_010FFFAB
//  #01 //094   ----------------------------------------
 BYTE   PATT
  POIN2 Label_010FFFFF
//  #01 //095   ----------------------------------------
 BYTE   PATT
  POIN2 Label_010FFFFF
//  #01 //096   ----------------------------------------
 BYTE   PATT
  POIN2 Label_010FFFFF
//  #01 //097   ----------------------------------------
 BYTE   PATT
  POIN2 Label_0110005D
//  #01 //098   ----------------------------------------
 BYTE   PATT
  POIN2 Label_010FFF39
//  #01 //099   ----------------------------------------
 BYTE   PATT
  POIN2 Label_010FFF39
//  #01 //100   ----------------------------------------
 BYTE   PATT
  POIN2 Label_010FFF39
//  #01 //101   ----------------------------------------
 BYTE   PATT
  POIN2 Label_010FFFAB
//  #01 //102   ----------------------------------------
 BYTE   PATT
  POIN2 Label_010FFFFF
//  #01 //103   ----------------------------------------
 BYTE   PATT
  POIN2 Label_010FFFFF
//  #01 //104   ----------------------------------------
 BYTE   PATT
  POIN2 Label_010FFFFF
//  #01 //105   ----------------------------------------
 BYTE   PATT
  POIN2 Label_010FFFFF
//  #01 //106   ----------------------------------------
 BYTE   PATT
  POIN2 Label_010FFFFF
//  #01 //107   ----------------------------------------
 BYTE   PATT
  POIN2 Label_010FFFFF
//  #01 //108   ----------------------------------------
 BYTE   PATT
  POIN2 Label_010FFFFF
//  #01 //109   ----------------------------------------
Label_01100138:
 BYTE   N11  En2  v072
 BYTE   N11  Bn2  v084
 BYTE   W12
 BYTE   N05  En1  v056
 BYTE   N11  Gn2  v100
 BYTE   W12
 BYTE   Fn2  v076
 BYTE   N11  Cn3  v120
 BYTE   W12
 BYTE   Fn1  v056
 BYTE   W12
 BYTE   Gs1  v072
 BYTE   N11  Cn3  v112
 BYTE   W12
 BYTE   Cn1  v060
 BYTE   N11  As2  v104
 BYTE   W12
 BYTE   Gs0  v052
 BYTE   N11  Gs2  v116
 BYTE   W12
 BYTE   Cn2  v072
 BYTE   N11  Gn2  v112
 BYTE   W12
//  #01 //110   ----------------------------------------
 BYTE   N05  Cn1  v056
 BYTE   N11  Ds2  v096
 BYTE   W12
 BYTE   Fn2  v076
 BYTE   N05  Cn3  v120
 BYTE   W12
 BYTE   N11  Fn1  v056
 BYTE   W12
 BYTE   Gs1  v072
 BYTE   N05  Cn3  v120
 BYTE   W12
 BYTE   N11  Cn1  v060
 BYTE   N11  As2  v108
 BYTE   W12
 BYTE   Gs0  v052
 BYTE   N11  Gs2  v112
 BYTE   W12
 BYTE   PEND
Label_0110018C:
 BYTE   N11  Cn2  v072
 BYTE   N11  Gn2  v084
 BYTE   W12
 BYTE   N05  Cn1  v056
 BYTE   N11  Ds2  v100
 BYTE   W12
//  #01 //111   ----------------------------------------
 BYTE   Fn2  v076
 BYTE   N11  Cn3  v120
 BYTE   W12
 BYTE   Fn1  v056
 BYTE   W12
 BYTE   Gs1  v072
 BYTE   N11  Cn3  v112
 BYTE   W12
 BYTE   Cn1  v060
 BYTE   N11  As2  v104
 BYTE   W12
 BYTE   Gs0  v052
 BYTE   N11  Gs2  v116
 BYTE   W12
 BYTE   Cn2  v072
 BYTE   N11  Gn2  v112
 BYTE   W12
 BYTE   N05  Cn1  v056
 BYTE   N11  Ds2  v096
 BYTE   W12
 BYTE   Fn2  v076
 BYTE   N05  Cn3  v120
 BYTE   W12
//  #01 //112   ----------------------------------------
 BYTE   N11  Fn1  v056
 BYTE   W12
 BYTE   Gs1  v072
 BYTE   N05  Cn3  v120
 BYTE   W12
 BYTE   N11  Cn1  v060
 BYTE   N11  As2  v108
 BYTE   W12
 BYTE   Gs0  v052
 BYTE   N11  Gs2  v112
 BYTE   W12
 BYTE   PEND
//  #01 //113   ----------------------------------------
 BYTE   PATT
  POIN2 Label_0110018C
//  #01 //114   ----------------------------------------
 BYTE   PATT
  POIN2 Label_0110018C
//  #01 //115   ----------------------------------------
 BYTE   N11  Cn2  v072
 BYTE   N11  Gn2  v084
 BYTE   W12
 BYTE   N05  Cn1  v056
 BYTE   N11  Ds2  v100
 BYTE   W12
 BYTE   An2  v076
 BYTE   N11  En3  v120
 BYTE   W12
 BYTE   An1  v056
 BYTE   W12
 BYTE   Cn2  v072
 BYTE   N11  En3  v112
 BYTE   W12
 BYTE   En1  v060
 BYTE   N11  Dn3  v104
 BYTE   W12
 BYTE   Cn1  v052
 BYTE   N11  Cn3  v116
 BYTE   W12
 BYTE   En2  v072
 BYTE   N11  Bn2  v112
 BYTE   W12
//  #01 //116   ----------------------------------------
 BYTE   N05  En1  v056
 BYTE   N11  Gn2  v096
 BYTE   W12
 BYTE   An2  v076
 BYTE   N05  En3  v120
 BYTE   W12
 BYTE   N11  An1  v056
 BYTE   W12
 BYTE   Cn2  v072
 BYTE   N05  En3  v120
 BYTE   W12
 BYTE   N11  En1  v060
 BYTE   N11  Dn3  v108
 BYTE   W12
 BYTE   Cn1  v052
 BYTE   N11  Cn3  v112
 BYTE   W12
//  #01 //117   ----------------------------------------
 BYTE   PATT
  POIN2 Label_010FFFFF
//  #01 //118   ----------------------------------------
 BYTE   PATT
  POIN2 Label_010FFFFF
//  #01 //119   ----------------------------------------
 BYTE   PATT
  POIN2 Label_010FFFFF
//  #01 //120   ----------------------------------------
 BYTE   PATT
  POIN2 Label_01100138
//  #01 //121   ----------------------------------------
 BYTE   PATT
  POIN2 Label_0110018C
//  #01 //122   ----------------------------------------
 BYTE   PATT
  POIN2 Label_0110018C
//  #01 //123   ----------------------------------------
 BYTE   PATT
  POIN2 Label_0110018C
//  #01 //124   ----------------------------------------
 BYTE   N11  Cn2  v072
 BYTE   N11  Gn2  v084
 BYTE   W12
 BYTE   N05  Cn1  v056
 BYTE   N11  Ds2  v100
 BYTE   W36
 BYTE   N05  Gs2  v127
 BYTE   N05  Ds3
 BYTE   W12
 BYTE   Gs2
 BYTE   N05  Ds3
 BYTE   W12
 BYTE   Gs2  v124
 BYTE   N05  Ds3
 BYTE   W12
 BYTE   An2
 BYTE   N05  En3
 BYTE   W12
//  #01 //125   ----------------------------------------
 BYTE   An2  v116
 BYTE   N05  En3
 BYTE   W12
 BYTE   An2  v112
 BYTE   N05  En3
 BYTE   W12
 BYTE   As2  v124
 BYTE   N05  Fn3
 BYTE   W12
 BYTE   As2  v127
 BYTE   N05  Fn3
 BYTE   W12
 BYTE   As2  v124
 BYTE   N05  Fn3
 BYTE   W12
 BYTE   Bn2  v112
 BYTE   N05  Fs3
 BYTE   W12
 BYTE   Bn2
 BYTE   N05  Fs3
 BYTE   W12
 BYTE   Bn2  v116
 BYTE   N05  Fs3
 BYTE   W36
//  #01 //126   ----------------------------------------
 BYTE   Gs2  v127
 BYTE   N05  Ds3
 BYTE   W12
 BYTE   Gs2  v124
 BYTE   N05  Ds3
 BYTE   W12
 BYTE   Gs2  v116
 BYTE   N05  Ds3
 BYTE   W12
 BYTE   An2  v108
 BYTE   N05  En3
 BYTE   W12
 BYTE   An2
 BYTE   N05  En3
 BYTE   W12
 BYTE   An2  v104
 BYTE   N05  En3
 BYTE   W12
 BYTE   As2  v124
 BYTE   N05  Fn3
 BYTE   W12
 BYTE   As2  v116
 BYTE   N05  Fn3
 BYTE   W12
//  #01 //127   ----------------------------------------
 BYTE   As2  v120
 BYTE   N05  Fn3
 BYTE   W12
 BYTE   Bn2  v124
 BYTE   N05  Fs3
 BYTE   W12
 BYTE   Bn2  v108
 BYTE   N05  Fs3
 BYTE   W12
 BYTE   Bn2
 BYTE   N05  Fs3
 BYTE   W36
 BYTE   Gs2  v127
 BYTE   N05  Ds3
 BYTE   W12
 BYTE   Gs2  v120
 BYTE   N05  Ds3
 BYTE   W12
//  #01 //128   ----------------------------------------
 BYTE   Gs2  v092
 BYTE   N05  Ds3
 BYTE   W12
 BYTE   An2  v112
 BYTE   N05  En3
 BYTE   W12
 BYTE   An2  v108
 BYTE   N05  En3
 BYTE   W12
 BYTE   An2  v104
 BYTE   N05  En3
 BYTE   W12
 BYTE   As2  v127
 BYTE   N05  Fn3
 BYTE   W12
 BYTE   As2  v120
 BYTE   N05  Fn3
 BYTE   W12
 BYTE   As2  v124
 BYTE   N05  Fn3
 BYTE   W12
 BYTE   Bn2  v112
 BYTE   N05  Fs3
 BYTE   W12
//  #01 //129   ----------------------------------------
 BYTE   Bn2
 BYTE   N05  Fs3
 BYTE   W12
 BYTE   Bn2  v108
 BYTE   N05  Fs3
 BYTE   W12
 BYTE   TIE  Cn3  v124
 BYTE   TIE  Gn3
 BYTE   W96
//  #01 //130   ----------------------------------------
 BYTE   W48
 BYTE   W96
//  #01 //131   ----------------------------------------
 BYTE   W48
 BYTE   W02
 BYTE   EOT
 BYTE   Cn3  v067
 BYTE   FINE

//**************** Track 2 (Midi-Chn.1) ****************//

EchoingLibrary_002:
//  #02 //000   ----------------------------------------
 BYTE   KEYSH   EchoingLibrary_key+0
 BYTE   VOICE   30
 BYTE   VOL   44*EchoingLibrary_mvl/mxv
 BYTE   PAN   c_v+0
 BYTE   VOL   44*EchoingLibrary_mvl/mxv
 BYTE   PAN   c_v+0
 BYTE   W24
Label_01100339:
 BYTE   W96
//  #02 //001   ----------------------------------------
 BYTE   W48
 BYTE   W96
//  #02 //002   ----------------------------------------
 BYTE   W72
 BYTE   W96
//  #02 //003   ----------------------------------------
 BYTE   W72
 BYTE   N23  Cn2  v116
 BYTE   W24
//  #02 //004   ----------------------------------------
 BYTE   N11  Cn2  v112
 BYTE   W12
 BYTE   Cn2  v108
 BYTE   W12
 BYTE   N23  Ds2  v104
 BYTE   W24
 BYTE   N11  Ds2  v120
 BYTE   W12
 BYTE   N23  Cn2  v104
 BYTE   W24
 BYTE   N11  Cn2  v100
 BYTE   W12
//  #02 //005   ----------------------------------------
 BYTE   Gn1  v104
 BYTE   W12
 BYTE   N11
 BYTE   W12
 BYTE   As1  v100
 BYTE   W12
 BYTE   As1  v120
 BYTE   W12
Label_01100365:
 BYTE   N23  Cn2  v116
 BYTE   TIE  Dn4  v112
 BYTE   W24
 BYTE   N11  Cn2
 BYTE   W12
 BYTE   Cn2  v108
 BYTE   W12
//  #02 //006   ----------------------------------------
 BYTE   N23  Ds2  v104
 BYTE   W24
 BYTE   N11  Ds2  v120
 BYTE   W12
 BYTE   N23  Cn2  v104
 BYTE   W12
 BYTE   W12
 BYTE   N11  Cn2  v100
 BYTE   W12
 BYTE   Gn1  v104
 BYTE   W12
 BYTE   N11
 BYTE   W12
//  #02 //007   ----------------------------------------
 BYTE   As1  v100
 BYTE   W12
 BYTE   As1  v120
 BYTE   W12
 BYTE   PEND
Label_0110038F:
 BYTE   N23  Cn2  v116
 BYTE   W24
 BYTE   N11  Cn2  v112
 BYTE   W12
 BYTE   Cn2  v108
 BYTE   W12
 BYTE   N23  Ds2  v104
 BYTE   W24
//  #02 //008   ----------------------------------------
 BYTE   N11  Ds2  v120
 BYTE   W12
 BYTE   N23  Cn2  v104
 BYTE   W12
 BYTE   W12
 BYTE   N11  Cn2  v100
 BYTE   W11
 BYTE   PEND
 BYTE   EOT
 BYTE   Dn4
 BYTE   W01
 BYTE   N11  Gn1  v104
 BYTE   N23  As3  v112
 BYTE   W12
 BYTE   N11  Gn1  v104
 BYTE   W12
 BYTE   As1  v100
 BYTE   N23  Fn3  v092
 BYTE   W12
 BYTE   N11  As1  v120
 BYTE   W12
//  #02 //009   ----------------------------------------
Label_011003C4:
 BYTE   N23  Cn2  v116
 BYTE   TIE  Gn3  v108
 BYTE   W24
 BYTE   N11  Cn2  v112
 BYTE   W12
 BYTE   Cn2  v108
 BYTE   W12
 BYTE   N23  Ds2  v104
 BYTE   W24
 BYTE   N11  Ds2  v120
 BYTE   W12
 BYTE   N23  Cn2  v104
 BYTE   W12
//  #02 //010   ----------------------------------------
 BYTE   W12
 BYTE   N11  Cn2  v100
 BYTE   W12
 BYTE   Gn1  v104
 BYTE   W12
 BYTE   N11
 BYTE   W12
 BYTE   As1  v100
 BYTE   W12
 BYTE   As1  v120
 BYTE   W12
 BYTE   PEND
Label_011003EF:
 BYTE   N23  Cn2  v116
 BYTE   W24
//  #02 //011   ----------------------------------------
 BYTE   N11  Cn2  v112
 BYTE   W12
 BYTE   Cn2  v108
 BYTE   W12
 BYTE   N23  Ds2  v104
 BYTE   W24
 BYTE   N11  Ds2  v120
 BYTE   W12
 BYTE   N23  Cn2  v104
 BYTE   W12
 BYTE   W12
 BYTE   N11  Cn2  v100
 BYTE   W12
//  #02 //012   ----------------------------------------
 BYTE   Gn1  v104
 BYTE   W12
 BYTE   N11
 BYTE   W12
 BYTE   As1  v100
 BYTE   W12
 BYTE   As1  v120
 BYTE   W11
 BYTE   PEND
 BYTE   EOT
 BYTE   Gn3
 BYTE   W01
Label_0110041A:
 BYTE   N23  An1  v116
 BYTE   TIE  Bn3  v108
 BYTE   W24
 BYTE   N11  An1  v112
 BYTE   W12
 BYTE   An1  v108
 BYTE   W12
//  #02 //013   ----------------------------------------
 BYTE   N23  Cn2  v104
 BYTE   W24
 BYTE   N11  Cn2  v120
 BYTE   W12
 BYTE   N23  An1  v104
 BYTE   W12
 BYTE   W12
 BYTE   N11  An1  v100
 BYTE   W12
 BYTE   En1  v104
 BYTE   W12
 BYTE   N11
 BYTE   W12
//  #02 //014   ----------------------------------------
 BYTE   Gn1  v100
 BYTE   W12
 BYTE   Gn1  v120
 BYTE   W12
 BYTE   PEND
Label_01100445:
 BYTE   N23  An1  v116
 BYTE   W24
 BYTE   N11  An1  v112
 BYTE   W12
 BYTE   An1  v108
 BYTE   W12
 BYTE   N23  Cn2  v104
 BYTE   W24
//  #02 //015   ----------------------------------------
 BYTE   N11  Cn2  v120
 BYTE   W12
 BYTE   N23  An1  v104
 BYTE   W12
 BYTE   W12
 BYTE   N11  An1  v100
 BYTE   W11
 BYTE   PEND
 BYTE   EOT
 BYTE   Bn3
 BYTE   W01
 BYTE   N11  En1  v104
 BYTE   N23  An3
 BYTE   W12
 BYTE   N11  En1
 BYTE   W12
 BYTE   Gn1  v100
 BYTE   N23  Dn3  v104
 BYTE   W12
 BYTE   N11  Gn1  v120
 BYTE   W12
//  #02 //016   ----------------------------------------
Label_01100478:
 BYTE   N23  An1  v116
 BYTE   TIE  En3  v112
 BYTE   W24
 BYTE   N11  An1
 BYTE   W12
 BYTE   An1  v108
 BYTE   W12
 BYTE   N23  Cn2  v104
 BYTE   W24
 BYTE   N11  Cn2  v120
 BYTE   W12
 BYTE   N23  An1  v104
 BYTE   W12
//  #02 //017   ----------------------------------------
 BYTE   W12
 BYTE   N11  An1  v100
 BYTE   W12
 BYTE   En1  v104
 BYTE   W12
 BYTE   N11
 BYTE   W12
 BYTE   Gn1  v100
 BYTE   W12
 BYTE   Gn1  v120
 BYTE   W12
 BYTE   PEND
Label_011004A2:
 BYTE   N23  An1  v116
 BYTE   W24
//  #02 //018   ----------------------------------------
 BYTE   N11  An1  v112
 BYTE   W12
 BYTE   An1  v108
 BYTE   W12
 BYTE   N23  Cn2  v104
 BYTE   W24
 BYTE   N11  Cn2  v120
 BYTE   W12
 BYTE   N23  An1  v104
 BYTE   W12
 BYTE   W12
 BYTE   N11  An1  v100
 BYTE   W12
//  #02 //019   ----------------------------------------
 BYTE   En1  v104
 BYTE   W11
 BYTE   PEND
 BYTE   EOT
 BYTE   En3
 BYTE   W01
 BYTE   N11  En1
 BYTE   W12
 BYTE   Gn1  v100
 BYTE   W12
 BYTE   Gn1  v120
 BYTE   W12
//  #02 //020   ----------------------------------------
 BYTE   PATT
  POIN2 Label_01100365
//  #02 //021   ----------------------------------------
 BYTE   PATT
  POIN2 Label_0110038F
//  #02 //022   ----------------------------------------
 BYTE   EOT
 BYTE   Dn4
 BYTE   W01
 BYTE   N11  Gn1  v104
 BYTE   N23  As3  v112
 BYTE   W12
 BYTE   N11  Gn1  v104
 BYTE   W12
 BYTE   As1  v100
 BYTE   N23  Fn3  v092
 BYTE   W12
 BYTE   N11  As1  v120
 BYTE   W12
//  #02 //023   ----------------------------------------
 BYTE   PATT
  POIN2 Label_011003C4
//  #02 //024   ----------------------------------------
 BYTE   PATT
  POIN2 Label_011003EF
//  #02 //025   ----------------------------------------
 BYTE   EOT
 BYTE   Gn3
 BYTE   W01
//  #02 //026   ----------------------------------------
 BYTE   PATT
  POIN2 Label_0110041A
//  #02 //027   ----------------------------------------
 BYTE   PATT
  POIN2 Label_01100445
//  #02 //028   ----------------------------------------
 BYTE   EOT
 BYTE   Bn3
 BYTE   W01
 BYTE   N11  En1  v104
 BYTE   N23  An3
 BYTE   W12
 BYTE   N11  En1
 BYTE   W12
 BYTE   Gn1  v100
 BYTE   N23  Dn3  v104
 BYTE   W12
 BYTE   N11  Gn1  v120
 BYTE   W12
//  #02 //029   ----------------------------------------
 BYTE   PATT
  POIN2 Label_01100478
//  #02 //030   ----------------------------------------
 BYTE   PATT
  POIN2 Label_011004A2
//  #02 //031   ----------------------------------------
 BYTE   EOT
 BYTE   En3
 BYTE   W01
 BYTE   N11  En1  v104
 BYTE   W12
 BYTE   Gn1  v100
 BYTE   W12
 BYTE   Gn1  v120
 BYTE   W12
Label_01100534:
 BYTE   N23  Cn2  v116
 BYTE   TIE  Dn4  v120
 BYTE   W24
 BYTE   N11  Cn2  v112
 BYTE   W12
 BYTE   Cn2  v108
 BYTE   W12
 BYTE   N23  Ds2  v104
 BYTE   W24
//  #02 //032   ----------------------------------------
 BYTE   N11  Ds2  v120
 BYTE   W12
 BYTE   N23  Cn2  v104
 BYTE   W12
 BYTE   W12
 BYTE   N11  Cn2  v100
 BYTE   W12
 BYTE   Gn1  v104
 BYTE   W12
 BYTE   N11
 BYTE   W12
 BYTE   As1  v100
 BYTE   W12
 BYTE   As1  v120
 BYTE   W12
 BYTE   PEND
//  #02 //033   ----------------------------------------
 BYTE   PATT
  POIN2 Label_0110038F
//  #02 //034   ----------------------------------------
 BYTE   EOT
 BYTE   Dn4
 BYTE   W01
 BYTE   N11  Gn1  v104
 BYTE   N23  As3  v092
 BYTE   W12
 BYTE   N11  Gn1  v104
 BYTE   W12
 BYTE   As1  v100
 BYTE   N23  Fn4
 BYTE   W12
 BYTE   N11  As1  v120
 BYTE   W12
Label_0110057B:
 BYTE   N23  Cn2  v116
 BYTE   TIE  Gn4  v112
 BYTE   W24
 BYTE   N11  Cn2
 BYTE   W12
 BYTE   Cn2  v108
 BYTE   W12
//  #02 //035   ----------------------------------------
 BYTE   N23  Ds2  v104
 BYTE   W24
 BYTE   N11  Ds2  v120
 BYTE   W12
 BYTE   N23  Cn2  v104
 BYTE   W12
 BYTE   W12
 BYTE   N11  Cn2  v100
 BYTE   W12
 BYTE   Gn1  v104
 BYTE   W12
 BYTE   N11
 BYTE   W12
//  #02 //036   ----------------------------------------
 BYTE   As1  v100
 BYTE   W12
 BYTE   As1  v120
 BYTE   W12
 BYTE   PEND
//  #02 //037   ----------------------------------------
 BYTE   PATT
  POIN2 Label_011003EF
//  #02 //038   ----------------------------------------
 BYTE   EOT
 BYTE   Gn4
 BYTE   W01
//  #02 //039   ----------------------------------------
 BYTE   PATT
  POIN2 Label_0110041A
//  #02 //040   ----------------------------------------
 BYTE   PATT
  POIN2 Label_01100445
//  #02 //041   ----------------------------------------
 BYTE   EOT
 BYTE   Bn3
 BYTE   W01
 BYTE   N11  En1  v104
 BYTE   N23  An3  v080
 BYTE   W12
 BYTE   N11  En1  v104
 BYTE   W12
 BYTE   Gn1  v100
 BYTE   N23  Dn4  v104
 BYTE   W12
 BYTE   N11  Gn1  v120
 BYTE   W12
Label_011005CF:
 BYTE   N23  An1  v116
 BYTE   TIE  En4
 BYTE   W24
 BYTE   N11  An1  v112
 BYTE   W12
 BYTE   An1  v108
 BYTE   W12
//  #02 //042   ----------------------------------------
 BYTE   N23  Cn2  v104
 BYTE   W24
 BYTE   N11  Cn2  v120
 BYTE   W12
 BYTE   N23  An1  v104
 BYTE   W12
 BYTE   W12
 BYTE   N11  An1  v100
 BYTE   W12
 BYTE   En1  v104
 BYTE   W12
 BYTE   N11
 BYTE   W12
//  #02 //043   ----------------------------------------
 BYTE   Gn1  v100
 BYTE   W12
 BYTE   Gn1  v120
 BYTE   W12
 BYTE   PEND
Label_011005F9:
 BYTE   N23  An1  v116
 BYTE   W24
 BYTE   N11  An1  v112
 BYTE   W12
 BYTE   An1  v108
 BYTE   W12
 BYTE   N23  Cn2  v104
 BYTE   W24
//  #02 //044   ----------------------------------------
 BYTE   N11  Cn2  v120
 BYTE   W12
 BYTE   N23  An1  v104
 BYTE   W12
 BYTE   W12
 BYTE   N11  An1  v100
 BYTE   W12
 BYTE   En1  v104
 BYTE   W12
 BYTE   N11
 BYTE   W12
 BYTE   Gn1  v100
 BYTE   W12
 BYTE   Gn1  v120
 BYTE   W05
 BYTE   PEND
 BYTE   EOT
 BYTE   En4
 BYTE   W07
//  #02 //045   ----------------------------------------
 BYTE   PATT
  POIN2 Label_01100534
//  #02 //046   ----------------------------------------
 BYTE   PATT
  POIN2 Label_0110038F
//  #02 //047   ----------------------------------------
 BYTE   EOT
 BYTE   Dn4
 BYTE   W01
 BYTE   N11  Gn1  v104
 BYTE   N23  As3  v092
 BYTE   W12
 BYTE   N11  Gn1  v104
 BYTE   W12
 BYTE   As1  v100
 BYTE   N23  Fn4
 BYTE   W12
 BYTE   N11  As1  v120
 BYTE   W12
//  #02 //048   ----------------------------------------
 BYTE   PATT
  POIN2 Label_0110057B
//  #02 //049   ----------------------------------------
 BYTE   PATT
  POIN2 Label_011003EF
//  #02 //050   ----------------------------------------
 BYTE   EOT
 BYTE   Gn4
 BYTE   W01
//  #02 //051   ----------------------------------------
 BYTE   PATT
  POIN2 Label_0110041A
//  #02 //052   ----------------------------------------
 BYTE   PATT
  POIN2 Label_01100445
//  #02 //053   ----------------------------------------
 BYTE   EOT
 BYTE   Bn3
 BYTE   W01
 BYTE   N11  En1  v104
 BYTE   N23  An3  v080
 BYTE   W12
 BYTE   N11  En1  v104
 BYTE   W12
 BYTE   Gn1  v100
 BYTE   N23  Dn4  v104
 BYTE   W12
 BYTE   N11  Gn1  v120
 BYTE   W12
//  #02 //054   ----------------------------------------
 BYTE   PATT
  POIN2 Label_011005CF
//  #02 //055   ----------------------------------------
 BYTE   PATT
  POIN2 Label_011005F9
//  #02 //056   ----------------------------------------
 BYTE   EOT
 BYTE   En4
 BYTE   W07
 BYTE   TIE  An1  v112
 BYTE   W96
//  #02 //057   ----------------------------------------
 BYTE   W72
 BYTE   W96
//  #02 //058   ----------------------------------------
 BYTE   W72
 BYTE   W96
//  #02 //059   ----------------------------------------
 BYTE   W72
 BYTE   W96
//  #02 //060   ----------------------------------------
 BYTE   W40
 BYTE   W01
 BYTE   EOT
 BYTE   W30
 BYTE   W01
 BYTE   TIE  Fn1  v092
 BYTE   W96
//  #02 //061   ----------------------------------------
 BYTE   W72
 BYTE   W96
//  #02 //062   ----------------------------------------
 BYTE   W72
 BYTE   W96
//  #02 //063   ----------------------------------------
 BYTE   W72
 BYTE   W88
//  #02 //064   ----------------------------------------
 BYTE   W01
 BYTE   EOT
 BYTE   W78
 BYTE   W01
 BYTE   TIE  An1  v088
 BYTE   W96
//  #02 //065   ----------------------------------------
 BYTE   W72
 BYTE   W96
//  #02 //066   ----------------------------------------
 BYTE   W72
 BYTE   W96
//  #02 //067   ----------------------------------------
 BYTE   W72
Label_011006A7:
 BYTE   W96
//  #02 //068   ----------------------------------------
 BYTE   W28
 BYTE   W01
 BYTE   PEND
 BYTE   EOT
 BYTE   An1
 BYTE   W36
 BYTE   W01
 BYTE   TIE  Fn1  v096
 BYTE   W06
 BYTE   W96
//  #02 //069   ----------------------------------------
 BYTE   W72
 BYTE   W96
//  #02 //070   ----------------------------------------
 BYTE   W72
 BYTE   W96
//  #02 //071   ----------------------------------------
 BYTE   W72
//  #02 //072   ----------------------------------------
 BYTE   PATT
  POIN2 Label_011006A7
//  #02 //073   ----------------------------------------
 BYTE   EOT
 BYTE   Fn1
 BYTE   W42
 BYTE   W01
 BYTE   W24
 BYTE   N11  Fs1  v104
 BYTE   N11  Gs3  v127
 BYTE   W12
 BYTE   Fs1  v116
 BYTE   N11  Gs3  v127
 BYTE   W12
 BYTE   Fs1  v092
 BYTE   N11  Gs3  v124
 BYTE   W12
//  #02 //074   ----------------------------------------
 BYTE   Gn1  v112
 BYTE   N11  An3  v124
 BYTE   W12
 BYTE   Gn1  v100
 BYTE   N11  An3  v116
 BYTE   W12
 BYTE   Gn1  v100
 BYTE   N11  An3  v112
 BYTE   W12
 BYTE   Gs1
 BYTE   N11  As3  v124
 BYTE   W12
 BYTE   Gs1  v080
 BYTE   N11  As3  v127
 BYTE   W12
 BYTE   Gs1  v104
 BYTE   N11  As3  v124
 BYTE   W12
 BYTE   An1  v096
 BYTE   N11  Bn3  v112
 BYTE   W12
 BYTE   An1  v100
 BYTE   N11  Bn3  v112
 BYTE   W12
//  #02 //075   ----------------------------------------
 BYTE   An1  v100
 BYTE   N11  Bn3  v116
 BYTE   W12
 BYTE   W24
 BYTE   Fs1  v124
 BYTE   N11  Gs3  v127
 BYTE   W12
 BYTE   Fs1  v116
 BYTE   N11  Gs3  v124
 BYTE   W12
 BYTE   Fs1  v100
 BYTE   N11  Gs3  v116
 BYTE   W12
 BYTE   Gn1  v112
 BYTE   N11  An3  v108
 BYTE   W12
 BYTE   Gn1
 BYTE   N11  An3
 BYTE   W12
//  #02 //076   ----------------------------------------
 BYTE   Gn1  v100
 BYTE   N11  An3  v104
 BYTE   W12
 BYTE   Gs1  v108
 BYTE   N11  As3  v124
 BYTE   W12
 BYTE   Gs1  v116
 BYTE   N11  As3
 BYTE   W12
 BYTE   Gs1  v112
 BYTE   N11  As3  v120
 BYTE   W12
 BYTE   An1  v064
 BYTE   N11  Bn3  v124
 BYTE   W12
 BYTE   An1  v096
 BYTE   N11  Bn3  v108
 BYTE   W12
 BYTE   An1  v100
 BYTE   N11  Bn3  v108
 BYTE   W12
 BYTE   W24
//  #02 //077   ----------------------------------------
 BYTE   Fs1
 BYTE   N11  Gs3  v127
 BYTE   W12
 BYTE   Fs1  v108
 BYTE   N11  Gs3  v120
 BYTE   W12
 BYTE   Fs1  v096
 BYTE   N11  Gs3  v092
 BYTE   W12
 BYTE   Gn1  v104
 BYTE   N11  An3  v112
 BYTE   W12
 BYTE   Gn1  v096
 BYTE   N11  An3  v108
 BYTE   W12
 BYTE   Gn1  v084
 BYTE   N11  An3  v104
 BYTE   W12
 BYTE   Gs1  v100
 BYTE   N11  As3  v127
 BYTE   W12
 BYTE   Gs1  v096
 BYTE   N11  As3  v120
 BYTE   W12
//  #02 //078   ----------------------------------------
 BYTE   Gs1  v112
 BYTE   N11  As3  v124
 BYTE   W12
 BYTE   An1  v096
 BYTE   N11  Bn3  v112
 BYTE   W12
 BYTE   An1  v100
 BYTE   N11  Bn3  v112
 BYTE   W12
 BYTE   An1  v092
 BYTE   N11  Bn3  v108
 BYTE   W12
 BYTE   TIE  As1  v124
 BYTE   TIE  Cn4
 BYTE   W96
//  #02 //079   ----------------------------------------
 BYTE   W72
 BYTE   W96
//  #02 //080   ----------------------------------------
 BYTE   W24
 BYTE   W17
 BYTE   EOT
 BYTE   W30
 BYTE   EOT
 BYTE   As1
 BYTE   W01
 BYTE   W48
//  #02 //081   ----------------------------------------
 BYTE   GoTo
  POIN2 Label_01100339
//  #02 //082   ----------------------------------------
 BYTE   W96
//  #02 //083   ----------------------------------------
 BYTE   W24
 BYTE   W96
//  #02 //084   ----------------------------------------
 BYTE   W72
 BYTE   W96
//  #02 //085   ----------------------------------------
 BYTE   W72
 BYTE   W24
//  #02 //086   ----------------------------------------
 BYTE   N23  Cn2  v116
 BYTE   W24
 BYTE   N11  Cn2  v112
 BYTE   W12
 BYTE   Cn2  v108
 BYTE   W12
 BYTE   N23  Ds2  v104
 BYTE   W24
 BYTE   N11  Ds2  v120
 BYTE   W12
 BYTE   N23  Cn2  v104
 BYTE   W24
//  #02 //087   ----------------------------------------
 BYTE   N11  Cn2  v100
 BYTE   W12
 BYTE   Gn1  v104
 BYTE   W12
 BYTE   N11
 BYTE   W12
 BYTE   As1  v100
 BYTE   W12
 BYTE   As1  v120
 BYTE   W12
 BYTE   N23  Cn2  v116
 BYTE   TIE  Dn4  v112
 BYTE   W24
 BYTE   N11  Cn2
 BYTE   W12
//  #02 //088   ----------------------------------------
 BYTE   Cn2  v108
 BYTE   W12
 BYTE   N23  Ds2  v104
 BYTE   W24
 BYTE   N11  Ds2  v120
 BYTE   W12
 BYTE   N23  Cn2  v104
 BYTE   W12
 BYTE   W12
 BYTE   N11  Cn2  v100
 BYTE   W12
 BYTE   Gn1  v104
 BYTE   W12
//  #02 //089   ----------------------------------------
 BYTE   N11
 BYTE   W12
Label_011007FE:
 BYTE   N11  As1  v100
 BYTE   W12
 BYTE   As1  v120
 BYTE   W12
 BYTE   N23  Cn2  v116
 BYTE   W24
 BYTE   N11  Cn2  v112
 BYTE   W12
 BYTE   Cn2  v108
 BYTE   W12
 BYTE   N23  Ds2  v104
 BYTE   W24
//  #02 //090   ----------------------------------------
 BYTE   N11  Ds2  v120
 BYTE   W12
 BYTE   N23  Cn2  v104
 BYTE   W12
 BYTE   W12
 BYTE   N11  Cn2  v100
 BYTE   W11
 BYTE   PEND
 BYTE   EOT
 BYTE   Dn4
 BYTE   W01
 BYTE   N11  Gn1  v104
 BYTE   N23  As3  v112
 BYTE   W12
 BYTE   N11  Gn1  v104
 BYTE   W12
Label_01100830:
 BYTE   N11  As1  v100
 BYTE   N23  Fn3  v092
 BYTE   W12
 BYTE   N11  As1  v120
 BYTE   W12
//  #02 //091   ----------------------------------------
 BYTE   N23  Cn2  v116
 BYTE   TIE  Gn3  v108
 BYTE   W24
 BYTE   N11  Cn2  v112
 BYTE   W12
 BYTE   Cn2  v108
 BYTE   W12
 BYTE   N23  Ds2  v104
 BYTE   W24
 BYTE   N11  Ds2  v120
 BYTE   W12
 BYTE   N23  Cn2  v104
 BYTE   W12
//  #02 //092   ----------------------------------------
 BYTE   W12
 BYTE   N11  Cn2  v100
 BYTE   W12
 BYTE   Gn1  v104
 BYTE   W12
 BYTE   N11
 BYTE   W12
 BYTE   PEND
Label_01100860:
 BYTE   N11  As1  v100
 BYTE   W12
 BYTE   As1  v120
 BYTE   W12
 BYTE   N23  Cn2  v116
 BYTE   W24
//  #02 //093   ----------------------------------------
 BYTE   N11  Cn2  v112
 BYTE   W12
 BYTE   Cn2  v108
 BYTE   W12
 BYTE   N23  Ds2  v104
 BYTE   W24
 BYTE   N11  Ds2  v120
 BYTE   W12
 BYTE   N23  Cn2  v104
 BYTE   W12
 BYTE   W12
 BYTE   N11  Cn2  v100
 BYTE   W12
//  #02 //094   ----------------------------------------
 BYTE   Gn1  v104
 BYTE   W12
 BYTE   N11
 BYTE   W12
 BYTE   PEND
Label_01100889:
 BYTE   N11  As1  v100
 BYTE   W12
 BYTE   As1  v120
 BYTE   W11
 BYTE   PEND
 BYTE   EOT
 BYTE   Gn3
 BYTE   W01
 BYTE   N23  An1  v116
 BYTE   TIE  Bn3  v108
 BYTE   W24
 BYTE   N11  An1  v112
 BYTE   W12
 BYTE   An1  v108
 BYTE   W12
//  #02 //095   ----------------------------------------
 BYTE   N23  Cn2  v104
 BYTE   W24
 BYTE   N11  Cn2  v120
 BYTE   W12
 BYTE   N23  An1  v104
 BYTE   W12
 BYTE   W12
 BYTE   N11  An1  v100
 BYTE   W12
 BYTE   En1  v104
 BYTE   W12
 BYTE   N11
 BYTE   W12
//  #02 //096   ----------------------------------------
Label_011008B8:
 BYTE   N11  Gn1  v100
 BYTE   W12
 BYTE   Gn1  v120
 BYTE   W12
 BYTE   N23  An1  v116
 BYTE   W24
 BYTE   N11  An1  v112
 BYTE   W12
 BYTE   An1  v108
 BYTE   W12
 BYTE   N23  Cn2  v104
 BYTE   W24
//  #02 //097   ----------------------------------------
 BYTE   N11  Cn2  v120
 BYTE   W12
 BYTE   N23  An1  v104
 BYTE   W12
 BYTE   W12
 BYTE   N11  An1  v100
 BYTE   W11
 BYTE   PEND
 BYTE   EOT
 BYTE   Bn3
 BYTE   W01
 BYTE   N11  En1  v104
 BYTE   N23  An3
 BYTE   W12
 BYTE   N11  En1
 BYTE   W12
Label_011008E8:
 BYTE   N11  Gn1  v100
 BYTE   N23  Dn3  v104
 BYTE   W12
 BYTE   N11  Gn1  v120
 BYTE   W12
//  #02 //098   ----------------------------------------
 BYTE   N23  An1  v116
 BYTE   TIE  En3  v112
 BYTE   W24
 BYTE   N11  An1
 BYTE   W12
 BYTE   An1  v108
 BYTE   W12
 BYTE   N23  Cn2  v104
 BYTE   W24
 BYTE   N11  Cn2  v120
 BYTE   W12
 BYTE   N23  An1  v104
 BYTE   W12
//  #02 //099   ----------------------------------------
 BYTE   W12
 BYTE   N11  An1  v100
 BYTE   W12
 BYTE   En1  v104
 BYTE   W12
 BYTE   N11
 BYTE   W12
 BYTE   PEND
Label_01100917:
 BYTE   N11  Gn1  v100
 BYTE   W12
 BYTE   Gn1  v120
 BYTE   W12
 BYTE   N23  An1  v116
 BYTE   W24
//  #02 //100   ----------------------------------------
 BYTE   N11  An1  v112
 BYTE   W12
 BYTE   An1  v108
 BYTE   W12
 BYTE   N23  Cn2  v104
 BYTE   W24
 BYTE   N11  Cn2  v120
 BYTE   W12
 BYTE   N23  An1  v104
 BYTE   W12
 BYTE   W12
 BYTE   N11  An1  v100
 BYTE   W12
//  #02 //101   ----------------------------------------
 BYTE   En1  v104
 BYTE   W11
 BYTE   PEND
 BYTE   EOT
 BYTE   En3
 BYTE   W01
 BYTE   N11  En1
 BYTE   W12
 BYTE   Gn1  v100
 BYTE   W12
 BYTE   Gn1  v120
 BYTE   W12
 BYTE   N23  Cn2  v116
 BYTE   TIE  Dn4  v112
 BYTE   W24
 BYTE   N11  Cn2
 BYTE   W12
 BYTE   Cn2  v108
 BYTE   W12
//  #02 //102   ----------------------------------------
 BYTE   N23  Ds2  v104
 BYTE   W24
 BYTE   N11  Ds2  v120
 BYTE   W12
 BYTE   N23  Cn2  v104
 BYTE   W12
 BYTE   W12
 BYTE   N11  Cn2  v100
 BYTE   W12
 BYTE   Gn1  v104
 BYTE   W12
 BYTE   N11
 BYTE   W12
//  #02 //103   ----------------------------------------
 BYTE   PATT
  POIN2 Label_011007FE
//  #02 //104   ----------------------------------------
 BYTE   EOT
 BYTE   Dn4
 BYTE   W01
 BYTE   N11  Gn1  v104
 BYTE   N23  As3  v112
 BYTE   W12
 BYTE   N11  Gn1  v104
 BYTE   W12
//  #02 //105   ----------------------------------------
 BYTE   PATT
  POIN2 Label_01100830
//  #02 //106   ----------------------------------------
 BYTE   PATT
  POIN2 Label_01100860
//  #02 //107   ----------------------------------------
 BYTE   PATT
  POIN2 Label_01100889
//  #02 //108   ----------------------------------------
 BYTE   EOT
 BYTE   Gn3
 BYTE   W01
 BYTE   N23  An1  v116
 BYTE   TIE  Bn3  v108
 BYTE   W24
 BYTE   N11  An1  v112
 BYTE   W12
 BYTE   An1  v108
 BYTE   W12
 BYTE   N23  Cn2  v104
 BYTE   W24
 BYTE   N11  Cn2  v120
 BYTE   W12
 BYTE   N23  An1  v104
 BYTE   W12
//  #02 //109   ----------------------------------------
 BYTE   W12
 BYTE   N11  An1  v100
 BYTE   W12
 BYTE   En1  v104
 BYTE   W12
 BYTE   N11
 BYTE   W12
//  #02 //110   ----------------------------------------
 BYTE   PATT
  POIN2 Label_011008B8
//  #02 //111   ----------------------------------------
 BYTE   EOT
 BYTE   Bn3
 BYTE   W01
 BYTE   N11  En1  v104
 BYTE   N23  An3
 BYTE   W12
 BYTE   N11  En1
 BYTE   W12
//  #02 //112   ----------------------------------------
 BYTE   PATT
  POIN2 Label_011008E8
//  #02 //113   ----------------------------------------
 BYTE   PATT
  POIN2 Label_01100917
//  #02 //114   ----------------------------------------
 BYTE   EOT
 BYTE   En3
 BYTE   W01
 BYTE   N11  En1  v104
 BYTE   W12
 BYTE   Gn1  v100
 BYTE   W12
 BYTE   Gn1  v120
 BYTE   W12
 BYTE   N23  Cn2  v116
 BYTE   TIE  Dn4  v120
 BYTE   W24
 BYTE   N11  Cn2  v112
 BYTE   W12
 BYTE   Cn2  v108
 BYTE   W12
 BYTE   N23  Ds2  v104
 BYTE   W24
//  #02 //115   ----------------------------------------
 BYTE   N11  Ds2  v120
 BYTE   W12
 BYTE   N23  Cn2  v104
 BYTE   W12
 BYTE   W12
 BYTE   N11  Cn2  v100
 BYTE   W12
 BYTE   Gn1  v104
 BYTE   W12
 BYTE   N11
 BYTE   W12
//  #02 //116   ----------------------------------------
 BYTE   PATT
  POIN2 Label_011007FE
//  #02 //117   ----------------------------------------
 BYTE   EOT
 BYTE   Dn4
 BYTE   W01
 BYTE   N11  Gn1  v104
 BYTE   N23  As3  v092
 BYTE   W12
 BYTE   N11  Gn1  v104
 BYTE   W12
Label_01100A15:
 BYTE   N11  As1  v100
 BYTE   N23  Fn4
 BYTE   W12
 BYTE   N11  As1  v120
 BYTE   W12
 BYTE   N23  Cn2  v116
 BYTE   TIE  Gn4  v112
 BYTE   W24
 BYTE   N11  Cn2
 BYTE   W12
 BYTE   Cn2  v108
 BYTE   W12
//  #02 //118   ----------------------------------------
 BYTE   N23  Ds2  v104
 BYTE   W24
 BYTE   N11  Ds2  v120
 BYTE   W12
 BYTE   N23  Cn2  v104
 BYTE   W12
 BYTE   W12
 BYTE   N11  Cn2  v100
 BYTE   W12
 BYTE   Gn1  v104
 BYTE   W12
 BYTE   N11
 BYTE   W12
 BYTE   PEND
//  #02 //119   ----------------------------------------
 BYTE   PATT
  POIN2 Label_01100860
//  #02 //120   ----------------------------------------
 BYTE   PATT
  POIN2 Label_01100889
//  #02 //121   ----------------------------------------
 BYTE   EOT
 BYTE   Gn4
 BYTE   W01
 BYTE   N23  An1  v116
 BYTE   TIE  Bn3  v108
 BYTE   W24
 BYTE   N11  An1  v112
 BYTE   W12
 BYTE   An1  v108
 BYTE   W12
 BYTE   N23  Cn2  v104
 BYTE   W24
 BYTE   N11  Cn2  v120
 BYTE   W12
 BYTE   N23  An1  v104
 BYTE   W12
//  #02 //122   ----------------------------------------
 BYTE   W12
 BYTE   N11  An1  v100
 BYTE   W12
 BYTE   En1  v104
 BYTE   W12
 BYTE   N11
 BYTE   W12
//  #02 //123   ----------------------------------------
 BYTE   PATT
  POIN2 Label_011008B8
//  #02 //124   ----------------------------------------
 BYTE   EOT
 BYTE   Bn3
 BYTE   W01
 BYTE   N11  En1  v104
 BYTE   N23  An3  v080
 BYTE   W12
 BYTE   N11  En1  v104
 BYTE   W12
Label_01100A87:
 BYTE   N11  Gn1  v100
 BYTE   N23  Dn4  v104
 BYTE   W12
 BYTE   N11  Gn1  v120
 BYTE   W12
 BYTE   N23  An1  v116
 BYTE   TIE  En4
 BYTE   W24
 BYTE   N11  An1  v112
 BYTE   W12
 BYTE   An1  v108
 BYTE   W12
//  #02 //125   ----------------------------------------
 BYTE   N23  Cn2  v104
 BYTE   W24
 BYTE   N11  Cn2  v120
 BYTE   W12
 BYTE   N23  An1  v104
 BYTE   W12
 BYTE   W12
 BYTE   N11  An1  v100
 BYTE   W12
 BYTE   En1  v104
 BYTE   W12
 BYTE   N11
 BYTE   W12
 BYTE   PEND
//  #02 //126   ----------------------------------------
Label_01100AB6:
 BYTE   N11  Gn1  v100
 BYTE   W12
 BYTE   Gn1  v120
 BYTE   W12
 BYTE   N23  An1  v116
 BYTE   W24
 BYTE   N11  An1  v112
 BYTE   W12
 BYTE   An1  v108
 BYTE   W12
 BYTE   N23  Cn2  v104
 BYTE   W24
//  #02 //127   ----------------------------------------
 BYTE   N11  Cn2  v120
 BYTE   W12
 BYTE   N23  An1  v104
 BYTE   W12
 BYTE   W12
 BYTE   N11  An1  v100
 BYTE   W12
 BYTE   En1  v104
 BYTE   W12
 BYTE   N11
 BYTE   W12
 BYTE   PEND
Label_01100ADF:
 BYTE   N11  Gn1  v100
 BYTE   W12
 BYTE   Gn1  v120
 BYTE   W05
 BYTE   PEND
 BYTE   EOT
 BYTE   En4
 BYTE   W07
//  #02 //128   ----------------------------------------
 BYTE   N23  Cn2  v116
 BYTE   TIE  Dn4  v120
 BYTE   W24
 BYTE   N11  Cn2  v112
 BYTE   W12
 BYTE   Cn2  v108
 BYTE   W12
 BYTE   N23  Ds2  v104
 BYTE   W24
 BYTE   N11  Ds2  v120
 BYTE   W12
 BYTE   N23  Cn2  v104
 BYTE   W12
//  #02 //129   ----------------------------------------
 BYTE   W12
 BYTE   N11  Cn2  v100
 BYTE   W12
 BYTE   Gn1  v104
 BYTE   W12
 BYTE   N11
 BYTE   W12
//  #02 //130   ----------------------------------------
 BYTE   PATT
  POIN2 Label_011007FE
//  #02 //131   ----------------------------------------
 BYTE   EOT
 BYTE   Dn4
 BYTE   W01
 BYTE   N11  Gn1  v104
 BYTE   N23  As3  v092
 BYTE   W12
 BYTE   N11  Gn1  v104
 BYTE   W12
//  #02 //132   ----------------------------------------
 BYTE   PATT
  POIN2 Label_01100A15
//  #02 //133   ----------------------------------------
 BYTE   PATT
  POIN2 Label_01100860
//  #02 //134   ----------------------------------------
 BYTE   PATT
  POIN2 Label_01100889
//  #02 //135   ----------------------------------------
 BYTE   EOT
 BYTE   Gn4
 BYTE   W01
 BYTE   N23  An1  v116
 BYTE   TIE  Bn3  v108
 BYTE   W24
 BYTE   N11  An1  v112
 BYTE   W12
 BYTE   An1  v108
 BYTE   W12
 BYTE   N23  Cn2  v104
 BYTE   W24
 BYTE   N11  Cn2  v120
 BYTE   W12
 BYTE   N23  An1  v104
 BYTE   W12
//  #02 //136   ----------------------------------------
 BYTE   W12
 BYTE   N11  An1  v100
 BYTE   W12
 BYTE   En1  v104
 BYTE   W12
 BYTE   N11
 BYTE   W12
//  #02 //137   ----------------------------------------
 BYTE   PATT
  POIN2 Label_011008B8
//  #02 //138   ----------------------------------------
 BYTE   EOT
 BYTE   Bn3
 BYTE   W01
 BYTE   N11  En1  v104
 BYTE   N23  An3  v080
 BYTE   W12
 BYTE   N11  En1  v104
 BYTE   W12
//  #02 //139   ----------------------------------------
 BYTE   PATT
  POIN2 Label_01100A87
//  #02 //140   ----------------------------------------
 BYTE   PATT
  POIN2 Label_01100AB6
//  #02 //141   ----------------------------------------
 BYTE   PATT
  POIN2 Label_01100ADF
//  #02 //142   ----------------------------------------
 BYTE   EOT
 BYTE   En4
 BYTE   W07
 BYTE   TIE  An1  v112
 BYTE   W96
//  #02 //143   ----------------------------------------
 BYTE   W48
 BYTE   W96
//  #02 //144   ----------------------------------------
 BYTE   W72
 BYTE   W96
//  #02 //145   ----------------------------------------
 BYTE   W72
 BYTE   W96
//  #02 //146   ----------------------------------------
 BYTE   W64
 BYTE   W01
 BYTE   EOT
 BYTE   W07
 BYTE   W24
//  #02 //147   ----------------------------------------
 BYTE   TIE  Fn1  v092
 BYTE   W96
//  #02 //148   ----------------------------------------
 BYTE   W48
 BYTE   W96
//  #02 //149   ----------------------------------------
 BYTE   W72
 BYTE   W96
//  #02 //150   ----------------------------------------
 BYTE   W72
 BYTE   W96
//  #02 //151   ----------------------------------------
 BYTE   W17
 BYTE   EOT
 BYTE   W54
 BYTE   W01
 BYTE   W24
//  #02 //152   ----------------------------------------
 BYTE   TIE  An1  v088
 BYTE   W96
//  #02 //153   ----------------------------------------
 BYTE   W48
 BYTE   W96
//  #02 //154   ----------------------------------------
 BYTE   W72
 BYTE   W96
//  #02 //155   ----------------------------------------
 BYTE   W72
Label_01100BA3:
 BYTE   W96
//  #02 //156   ----------------------------------------
 BYTE   W52
 BYTE   W01
 BYTE   PEND
 BYTE   EOT
 BYTE   An1
 BYTE   W19
 BYTE   W18
 BYTE   TIE  Fn1  v096
 BYTE   W96
//  #02 //157   ----------------------------------------
 BYTE   W54
 BYTE   W96
//  #02 //158   ----------------------------------------
 BYTE   W72
 BYTE   W96
//  #02 //159   ----------------------------------------
 BYTE   W72
//  #02 //160   ----------------------------------------
 BYTE   PATT
  POIN2 Label_01100BA3
//  #02 //161   ----------------------------------------
 BYTE   EOT
 BYTE   Fn1
 BYTE   W19
 BYTE   W48
 BYTE   N11  Fs1  v104
 BYTE   N11  Gs3  v127
 BYTE   W12
 BYTE   Fs1  v116
 BYTE   N11  Gs3  v127
 BYTE   W12
 BYTE   Fs1  v092
 BYTE   N11  Gs3  v124
 BYTE   W12
//  #02 //162   ----------------------------------------
 BYTE   Gn1  v112
 BYTE   N11  An3  v124
 BYTE   W12
 BYTE   Gn1  v100
 BYTE   N11  An3  v116
 BYTE   W12
 BYTE   Gn1  v100
 BYTE   N11  An3  v112
 BYTE   W12
 BYTE   Gs1
 BYTE   N11  As3  v124
 BYTE   W12
 BYTE   Gs1  v080
 BYTE   N11  As3  v127
 BYTE   W12
 BYTE   Gs1  v104
 BYTE   N11  As3  v124
 BYTE   W12
 BYTE   An1  v096
 BYTE   N11  Bn3  v112
 BYTE   W12
 BYTE   An1  v100
 BYTE   N11  Bn3  v112
 BYTE   W12
//  #02 //163   ----------------------------------------
 BYTE   An1  v100
 BYTE   N11  Bn3  v116
 BYTE   W36
 BYTE   Fs1  v124
 BYTE   N11  Gs3  v127
 BYTE   W12
 BYTE   Fs1  v116
 BYTE   N11  Gs3  v124
 BYTE   W12
 BYTE   Fs1  v100
 BYTE   N11  Gs3  v116
 BYTE   W12
 BYTE   Gn1  v112
 BYTE   N11  An3  v108
 BYTE   W12
 BYTE   Gn1
 BYTE   N11  An3
 BYTE   W12
//  #02 //164   ----------------------------------------
 BYTE   Gn1  v100
 BYTE   N11  An3  v104
 BYTE   W12
 BYTE   Gs1  v108
 BYTE   N11  As3  v124
 BYTE   W12
 BYTE   Gs1  v116
 BYTE   N11  As3
 BYTE   W12
 BYTE   Gs1  v112
 BYTE   N11  As3  v120
 BYTE   W12
 BYTE   An1  v064
 BYTE   N11  Bn3  v124
 BYTE   W12
 BYTE   An1  v096
 BYTE   N11  Bn3  v108
 BYTE   W12
 BYTE   An1  v100
 BYTE   N11  Bn3  v108
 BYTE   W36
//  #02 //165   ----------------------------------------
 BYTE   Fs1
 BYTE   N11  Gs3  v127
 BYTE   W12
 BYTE   Fs1  v108
 BYTE   N11  Gs3  v120
 BYTE   W12
 BYTE   Fs1  v096
 BYTE   N11  Gs3  v092
 BYTE   W12
 BYTE   Gn1  v104
 BYTE   N11  An3  v112
 BYTE   W12
 BYTE   Gn1  v096
 BYTE   N11  An3  v108
 BYTE   W12
 BYTE   Gn1  v084
 BYTE   N11  An3  v104
 BYTE   W12
 BYTE   Gs1  v100
 BYTE   N11  As3  v127
 BYTE   W12
 BYTE   Gs1  v096
 BYTE   N11  As3  v120
 BYTE   W12
//  #02 //166   ----------------------------------------
 BYTE   Gs1  v112
 BYTE   N11  As3  v124
 BYTE   W12
 BYTE   An1  v096
 BYTE   N11  Bn3  v112
 BYTE   W12
 BYTE   An1  v100
 BYTE   N11  Bn3  v112
 BYTE   W12
 BYTE   An1  v092
 BYTE   N11  Bn3  v108
 BYTE   W12
 BYTE   TIE  As1  v124
 BYTE   TIE  Cn4
 BYTE   W96
//  #02 //167   ----------------------------------------
 BYTE   W48
 BYTE   W24
 BYTE   W96
//  #02 //168   ----------------------------------------
 BYTE   W24
 BYTE   W17
 BYTE   EOT
 BYTE   W07
 BYTE   W23
 BYTE   As1
 BYTE   FINE

//**************** Track 3 (Midi-Chn.2) ****************//

EchoingLibrary_003:
//  #03 //000   ----------------------------------------
 BYTE   KEYSH   EchoingLibrary_key+0
 BYTE   VOICE   81
 BYTE   VOL   44*EchoingLibrary_mvl/mxv
 BYTE   PAN   c_v+0
 BYTE   VOL   44*EchoingLibrary_mvl/mxv
 BYTE   PAN   c_v+0
 BYTE   W24
Label_F52AE1:
 BYTE   W96
//  #03 //001   ----------------------------------------
 BYTE   W48
 BYTE   W96
//  #03 //002   ----------------------------------------
 BYTE   W72
Label_F52AE5:
 BYTE   N23  Cn3  v116
 BYTE   W24
//  #03 //003   ----------------------------------------
 BYTE   N11  Cn3  v112
 BYTE   W12
 BYTE   Cn3  v108
 BYTE   W12
 BYTE   N23  Ds3  v104
 BYTE   W24
 BYTE   N11  Ds3  v120
 BYTE   W12
 BYTE   N23  Cn3  v104
 BYTE   W24
 BYTE   N11  Cn3  v100
 BYTE   W12
//  #03 //004   ----------------------------------------
 BYTE   Gn2  v104
 BYTE   W12
 BYTE   N11
 BYTE   W12
 BYTE   As2  v100
 BYTE   W12
 BYTE   As2  v120
 BYTE   W12
 BYTE   PEND
//  #03 //005   ----------------------------------------
 BYTE   PATT
  POIN2 Label_F52AE5
//  #03 //006   ----------------------------------------
 BYTE   PATT
  POIN2 Label_F52AE5
//  #03 //007   ----------------------------------------
 BYTE   PATT
  POIN2 Label_F52AE5
//  #03 //008   ----------------------------------------
 BYTE   PATT
  POIN2 Label_F52AE5
//  #03 //009   ----------------------------------------
 BYTE   PATT
  POIN2 Label_F52AE5
//  #03 //010   ----------------------------------------
Label_F52B25:
 BYTE   N23  An2  v116
 BYTE   W24
 BYTE   N11  An2  v112
 BYTE   W12
 BYTE   An2  v108
 BYTE   W12
 BYTE   N23  Cn3  v104
 BYTE   W24
 BYTE   N11  Cn3  v120
 BYTE   W12
 BYTE   N23  An2  v104
 BYTE   W24
//  #03 //011   ----------------------------------------
 BYTE   N11  An2  v100
 BYTE   W12
 BYTE   En2  v104
 BYTE   W12
 BYTE   N11
 BYTE   W12
 BYTE   Gn2  v100
 BYTE   W12
 BYTE   Gn2  v120
 BYTE   W12
 BYTE   PEND
//  #03 //012   ----------------------------------------
 BYTE   PATT
  POIN2 Label_F52B25
//  #03 //013   ----------------------------------------
 BYTE   PATT
  POIN2 Label_F52B25
//  #03 //014   ----------------------------------------
 BYTE   PATT
  POIN2 Label_F52B25
//  #03 //015   ----------------------------------------
 BYTE   PATT
  POIN2 Label_F52AE5
//  #03 //016   ----------------------------------------
 BYTE   PATT
  POIN2 Label_F52AE5
//  #03 //017   ----------------------------------------
 BYTE   PATT
  POIN2 Label_F52AE5
//  #03 //018   ----------------------------------------
 BYTE   PATT
  POIN2 Label_F52AE5
//  #03 //019   ----------------------------------------
 BYTE   PATT
  POIN2 Label_F52B25
//  #03 //020   ----------------------------------------
 BYTE   PATT
  POIN2 Label_F52B25
//  #03 //021   ----------------------------------------
 BYTE   PATT
  POIN2 Label_F52B25
//  #03 //022   ----------------------------------------
 BYTE   PATT
  POIN2 Label_F52B25
//  #03 //023   ----------------------------------------
 BYTE   PATT
  POIN2 Label_F52AE5
//  #03 //024   ----------------------------------------
 BYTE   PATT
  POIN2 Label_F52AE5
//  #03 //025   ----------------------------------------
 BYTE   PATT
  POIN2 Label_F52AE5
//  #03 //026   ----------------------------------------
 BYTE   PATT
  POIN2 Label_F52AE5
//  #03 //027   ----------------------------------------
 BYTE   PATT
  POIN2 Label_F52B25
//  #03 //028   ----------------------------------------
 BYTE   PATT
  POIN2 Label_F52B25
//  #03 //029   ----------------------------------------
 BYTE   PATT
  POIN2 Label_F52B25
//  #03 //030   ----------------------------------------
 BYTE   PATT
  POIN2 Label_F52B25
//  #03 //031   ----------------------------------------
 BYTE   PATT
  POIN2 Label_F52AE5
//  #03 //032   ----------------------------------------
 BYTE   PATT
  POIN2 Label_F52AE5
//  #03 //033   ----------------------------------------
 BYTE   PATT
  POIN2 Label_F52AE5
//  #03 //034   ----------------------------------------
 BYTE   PATT
  POIN2 Label_F52AE5
//  #03 //035   ----------------------------------------
 BYTE   PATT
  POIN2 Label_F52B25
//  #03 //036   ----------------------------------------
 BYTE   PATT
  POIN2 Label_F52B25
//  #03 //037   ----------------------------------------
 BYTE   PATT
  POIN2 Label_F52B25
//  #03 //038   ----------------------------------------
 BYTE   PATT
  POIN2 Label_F52B25
//  #03 //039   ----------------------------------------
 BYTE   W96
//  #03 //040   ----------------------------------------
 BYTE   W72
 BYTE   W96
//  #03 //041   ----------------------------------------
 BYTE   W72
 BYTE   W96
//  #03 //042   ----------------------------------------
 BYTE   W72
 BYTE   W96
//  #03 //043   ----------------------------------------
 BYTE   W72
 BYTE   W96
//  #03 //044   ----------------------------------------
 BYTE   W72
 BYTE   W96
//  #03 //045   ----------------------------------------
 BYTE   W72
 BYTE   W96
//  #03 //046   ----------------------------------------
 BYTE   W72
 BYTE   W96
//  #03 //047   ----------------------------------------
 BYTE   W72
 BYTE   W96
//  #03 //048   ----------------------------------------
 BYTE   W72
 BYTE   W96
//  #03 //049   ----------------------------------------
 BYTE   W72
 BYTE   W96
//  #03 //050   ----------------------------------------
 BYTE   W72
 BYTE   W96
//  #03 //051   ----------------------------------------
 BYTE   W72
 BYTE   W96
//  #03 //052   ----------------------------------------
 BYTE   W72
 BYTE   W96
//  #03 //053   ----------------------------------------
 BYTE   W72
 BYTE   W96
//  #03 //054   ----------------------------------------
 BYTE   W72
 BYTE   W96
//  #03 //055   ----------------------------------------
 BYTE   W72
 BYTE   W24
//  #03 //056   ----------------------------------------
 BYTE   N11  Gs2  v127
 BYTE   W12
 BYTE   N11
 BYTE   W12
 BYTE   Gs2  v124
 BYTE   W12
 BYTE   An2
 BYTE   W12
 BYTE   An2  v116
 BYTE   W12
 BYTE   An2  v112
 BYTE   W12
 BYTE   As2  v124
 BYTE   W12
 BYTE   As2  v127
 BYTE   W12
//  #03 //057   ----------------------------------------
 BYTE   As2  v124
 BYTE   W12
 BYTE   Bn2  v112
 BYTE   W12
 BYTE   N11
 BYTE   W12
 BYTE   Bn2  v116
 BYTE   W12
 BYTE   W24
 BYTE   Gs2  v127
 BYTE   W12
 BYTE   Gs2  v124
 BYTE   W12
//  #03 //058   ----------------------------------------
 BYTE   Gs2  v116
 BYTE   W12
 BYTE   An2  v108
 BYTE   W12
 BYTE   N11
 BYTE   W12
 BYTE   An2  v104
 BYTE   W12
 BYTE   As2  v124
 BYTE   W12
 BYTE   As2  v116
 BYTE   W12
 BYTE   As2  v120
 BYTE   W12
 BYTE   Bn2  v124
 BYTE   W12
//  #03 //059   ----------------------------------------
 BYTE   Bn2  v108
 BYTE   W12
 BYTE   N11
 BYTE   W12
 BYTE   W24
 BYTE   Gs2  v127
 BYTE   W12
 BYTE   Gs2  v120
 BYTE   W12
 BYTE   Gs2  v092
 BYTE   W12
 BYTE   An2  v112
 BYTE   W12
//  #03 //060   ----------------------------------------
 BYTE   An2  v108
 BYTE   W12
 BYTE   An2  v104
 BYTE   W12
 BYTE   As2  v127
 BYTE   W12
 BYTE   As2  v120
 BYTE   W12
 BYTE   As2  v124
 BYTE   W12
 BYTE   Bn2  v112
 BYTE   W12
 BYTE   N11
 BYTE   W12
 BYTE   Bn2  v108
 BYTE   W12
//  #03 //061   ----------------------------------------
 BYTE   TIE  Cn3  v124
 BYTE   W96
//  #03 //062   ----------------------------------------
 BYTE   W72
 BYTE   W96
//  #03 //063   ----------------------------------------
 BYTE   W40
 BYTE   W01
 BYTE   EOT
 BYTE   W30
 BYTE   W01
 BYTE   W48
//  #03 //064   ----------------------------------------
 BYTE   GoTo
  POIN2 Label_F52AE1
//  #03 //065   ----------------------------------------
 BYTE   W96
//  #03 //066   ----------------------------------------
 BYTE   W24
 BYTE   W96
//  #03 //067   ----------------------------------------
 BYTE   W72
 BYTE   W24
//  #03 //068   ----------------------------------------
 BYTE   N23  Cn3  v116
 BYTE   W24
 BYTE   N11  Cn3  v112
 BYTE   W12
 BYTE   Cn3  v108
 BYTE   W12
 BYTE   N23  Ds3  v104
 BYTE   W24
 BYTE   N11  Ds3  v120
 BYTE   W12
 BYTE   N23  Cn3  v104
 BYTE   W24
//  #03 //069   ----------------------------------------
 BYTE   N11  Cn3  v100
 BYTE   W12
 BYTE   Gn2  v104
 BYTE   W12
 BYTE   N11
 BYTE   W12
Label_F52C93:
 BYTE   N11  As2  v100
 BYTE   W12
 BYTE   As2  v120
 BYTE   W12
 BYTE   N23  Cn3  v116
 BYTE   W24
 BYTE   N11  Cn3  v112
 BYTE   W12
//  #03 //070   ----------------------------------------
 BYTE   Cn3  v108
 BYTE   W12
 BYTE   N23  Ds3  v104
 BYTE   W24
 BYTE   N11  Ds3  v120
 BYTE   W12
 BYTE   N23  Cn3  v104
 BYTE   W24
 BYTE   N11  Cn3  v100
 BYTE   W12
 BYTE   Gn2  v104
 BYTE   W12
//  #03 //071   ----------------------------------------
 BYTE   N11
 BYTE   W12
 BYTE   PEND
//  #03 //072   ----------------------------------------
 BYTE   PATT
  POIN2 Label_F52C93
//  #03 //073   ----------------------------------------
 BYTE   PATT
  POIN2 Label_F52C93
//  #03 //074   ----------------------------------------
 BYTE   PATT
  POIN2 Label_F52C93
//  #03 //075   ----------------------------------------
 BYTE   PATT
  POIN2 Label_F52C93
//  #03 //076   ----------------------------------------
Label_F52CCF:
 BYTE   N11  As2  v100
 BYTE   W12
 BYTE   As2  v120
 BYTE   W12
 BYTE   N23  An2  v116
 BYTE   W24
 BYTE   N11  An2  v112
 BYTE   W12
 BYTE   An2  v108
 BYTE   W12
 BYTE   N23  Cn3  v104
 BYTE   W24
//  #03 //077   ----------------------------------------
 BYTE   N11  Cn3  v120
 BYTE   W12
 BYTE   N23  An2  v104
 BYTE   W24
 BYTE   N11  An2  v100
 BYTE   W12
 BYTE   En2  v104
 BYTE   W12
 BYTE   N11
 BYTE   W12
 BYTE   PEND
Label_F52CF7:
 BYTE   N11  Gn2  v100
 BYTE   W12
 BYTE   Gn2  v120
 BYTE   W12
//  #03 //078   ----------------------------------------
 BYTE   N23  An2  v116
 BYTE   W24
 BYTE   N11  An2  v112
 BYTE   W12
 BYTE   An2  v108
 BYTE   W12
 BYTE   N23  Cn3  v104
 BYTE   W24
 BYTE   N11  Cn3  v120
 BYTE   W12
 BYTE   N23  An2  v104
 BYTE   W24
//  #03 //079   ----------------------------------------
 BYTE   N11  An2  v100
 BYTE   W12
 BYTE   En2  v104
 BYTE   W12
 BYTE   N11
 BYTE   W12
 BYTE   PEND
//  #03 //080   ----------------------------------------
 BYTE   PATT
  POIN2 Label_F52CF7
//  #03 //081   ----------------------------------------
 BYTE   PATT
  POIN2 Label_F52CF7
//  #03 //082   ----------------------------------------
Label_F52D29:
 BYTE   N11  Gn2  v100
 BYTE   W12
 BYTE   Gn2  v120
 BYTE   W12
 BYTE   N23  Cn3  v116
 BYTE   W24
 BYTE   N11  Cn3  v112
 BYTE   W12
 BYTE   Cn3  v108
 BYTE   W12
 BYTE   N23  Ds3  v104
 BYTE   W24
//  #03 //083   ----------------------------------------
 BYTE   N11  Ds3  v120
 BYTE   W12
 BYTE   N23  Cn3  v104
 BYTE   W24
 BYTE   N11  Cn3  v100
 BYTE   W12
 BYTE   Gn2  v104
 BYTE   W12
 BYTE   N11
 BYTE   W12
 BYTE   PEND
//  #03 //084   ----------------------------------------
 BYTE   PATT
  POIN2 Label_F52C93
//  #03 //085   ----------------------------------------
 BYTE   PATT
  POIN2 Label_F52C93
//  #03 //086   ----------------------------------------
 BYTE   PATT
  POIN2 Label_F52C93
//  #03 //087   ----------------------------------------
 BYTE   PATT
  POIN2 Label_F52CCF
//  #03 //088   ----------------------------------------
 BYTE   PATT
  POIN2 Label_F52CF7
//  #03 //089   ----------------------------------------
 BYTE   PATT
  POIN2 Label_F52CF7
//  #03 //090   ----------------------------------------
 BYTE   PATT
  POIN2 Label_F52CF7
//  #03 //091   ----------------------------------------
 BYTE   PATT
  POIN2 Label_F52D29
//  #03 //092   ----------------------------------------
 BYTE   PATT
  POIN2 Label_F52C93
//  #03 //093   ----------------------------------------
 BYTE   PATT
  POIN2 Label_F52C93
//  #03 //094   ----------------------------------------
 BYTE   PATT
  POIN2 Label_F52C93
//  #03 //095   ----------------------------------------
 BYTE   PATT
  POIN2 Label_F52CCF
//  #03 //096   ----------------------------------------
 BYTE   PATT
  POIN2 Label_F52CF7
//  #03 //097   ----------------------------------------
 BYTE   PATT
  POIN2 Label_F52CF7
//  #03 //098   ----------------------------------------
 BYTE   PATT
  POIN2 Label_F52CF7
//  #03 //099   ----------------------------------------
 BYTE   PATT
  POIN2 Label_F52D29
//  #03 //100   ----------------------------------------
 BYTE   PATT
  POIN2 Label_F52C93
//  #03 //101   ----------------------------------------
 BYTE   PATT
  POIN2 Label_F52C93
//  #03 //102   ----------------------------------------
 BYTE   PATT
  POIN2 Label_F52C93
//  #03 //103   ----------------------------------------
 BYTE   PATT
  POIN2 Label_F52CCF
//  #03 //104   ----------------------------------------
 BYTE   PATT
  POIN2 Label_F52CF7
//  #03 //105   ----------------------------------------
 BYTE   PATT
  POIN2 Label_F52CF7
//  #03 //106   ----------------------------------------
 BYTE   PATT
  POIN2 Label_F52CF7
//  #03 //107   ----------------------------------------
 BYTE   N11  Gn2  v100
 BYTE   W12
 BYTE   Gn2  v120
 BYTE   W96
//  #03 //108   ----------------------------------------
 BYTE   W60
 BYTE   W96
//  #03 //109   ----------------------------------------
 BYTE   W72
 BYTE   W96
//  #03 //110   ----------------------------------------
 BYTE   W72
 BYTE   W96
//  #03 //111   ----------------------------------------
 BYTE   W72
 BYTE   W96
//  #03 //112   ----------------------------------------
 BYTE   W72
 BYTE   W96
//  #03 //113   ----------------------------------------
 BYTE   W72
 BYTE   W96
//  #03 //114   ----------------------------------------
 BYTE   W72
 BYTE   W96
//  #03 //115   ----------------------------------------
 BYTE   W72
 BYTE   W96
//  #03 //116   ----------------------------------------
 BYTE   W72
 BYTE   W96
//  #03 //117   ----------------------------------------
 BYTE   W72
 BYTE   W96
//  #03 //118   ----------------------------------------
 BYTE   W72
 BYTE   W96
//  #03 //119   ----------------------------------------
 BYTE   W72
 BYTE   W96
//  #03 //120   ----------------------------------------
 BYTE   W72
 BYTE   W96
//  #03 //121   ----------------------------------------
 BYTE   W72
 BYTE   W96
//  #03 //122   ----------------------------------------
 BYTE   W72
 BYTE   W96
//  #03 //123   ----------------------------------------
 BYTE   W72
 BYTE   W48
//  #03 //124   ----------------------------------------
 BYTE   Gs2  v127
 BYTE   W12
 BYTE   N11
 BYTE   W12
 BYTE   Gs2  v124
 BYTE   W12
 BYTE   An2
 BYTE   W12
 BYTE   An2  v116
 BYTE   W12
 BYTE   An2  v112
 BYTE   W12
 BYTE   As2  v124
 BYTE   W12
 BYTE   As2  v127
 BYTE   W12
//  #03 //125   ----------------------------------------
 BYTE   As2  v124
 BYTE   W12
 BYTE   Bn2  v112
 BYTE   W12
 BYTE   N11
 BYTE   W12
 BYTE   Bn2  v116
 BYTE   W36
 BYTE   Gs2  v127
 BYTE   W12
 BYTE   Gs2  v124
 BYTE   W12
//  #03 //126   ----------------------------------------
 BYTE   Gs2  v116
 BYTE   W12
 BYTE   An2  v108
 BYTE   W12
 BYTE   N11
 BYTE   W12
 BYTE   An2  v104
 BYTE   W12
 BYTE   As2  v124
 BYTE   W12
 BYTE   As2  v116
 BYTE   W12
 BYTE   As2  v120
 BYTE   W12
 BYTE   Bn2  v124
 BYTE   W12
//  #03 //127   ----------------------------------------
 BYTE   Bn2  v108
 BYTE   W12
 BYTE   N11
 BYTE   W36
 BYTE   Gs2  v127
 BYTE   W12
 BYTE   Gs2  v120
 BYTE   W12
 BYTE   Gs2  v092
 BYTE   W12
 BYTE   An2  v112
 BYTE   W12
//  #03 //128   ----------------------------------------
 BYTE   An2  v108
 BYTE   W12
 BYTE   An2  v104
 BYTE   W12
 BYTE   As2  v127
 BYTE   W12
 BYTE   As2  v120
 BYTE   W12
 BYTE   As2  v124
 BYTE   W12
 BYTE   Bn2  v112
 BYTE   W12
 BYTE   N11
 BYTE   W12
 BYTE   Bn2  v108
 BYTE   W12
//  #03 //129   ----------------------------------------
 BYTE   TIE  Cn3  v124
 BYTE   W96
//  #03 //130   ----------------------------------------
 BYTE   W48
 BYTE   W96
//  #03 //131   ----------------------------------------
 BYTE   W64
 BYTE   W01
 BYTE   EOT
 BYTE   FINE

//**************** Track 4 (Midi-Chn.3) ****************//

EchoingLibrary_004:
//  #04 //000   ----------------------------------------
 BYTE   KEYSH   EchoingLibrary_key+0
 BYTE   VOICE   74
 BYTE   VOL   47*EchoingLibrary_mvl/mxv
 BYTE   PAN   c_v+0
 BYTE   PAN   c_v+0
 BYTE   W24
Label_F53E66:
 BYTE   W96
//  #04 //001   ----------------------------------------
 BYTE   W48
 BYTE   W96
//  #04 //002   ----------------------------------------
 BYTE   W72
 BYTE   W96
//  #04 //003   ----------------------------------------
 BYTE   W72
 BYTE   W96
//  #04 //004   ----------------------------------------
 BYTE   W72
 BYTE   W96
//  #04 //005   ----------------------------------------
 BYTE   W72
 BYTE   W96
//  #04 //006   ----------------------------------------
 BYTE   W72
 BYTE   W96
//  #04 //007   ----------------------------------------
 BYTE   W72
 BYTE   W96
//  #04 //008   ----------------------------------------
 BYTE   W72
 BYTE   W96
//  #04 //009   ----------------------------------------
 BYTE   W72
 BYTE   W96
//  #04 //010   ----------------------------------------
 BYTE   W72
 BYTE   W96
//  #04 //011   ----------------------------------------
 BYTE   W72
 BYTE   W96
//  #04 //012   ----------------------------------------
 BYTE   W72
 BYTE   W96
//  #04 //013   ----------------------------------------
 BYTE   W72
 BYTE   W96
//  #04 //014   ----------------------------------------
 BYTE   W72
 BYTE   W96
//  #04 //015   ----------------------------------------
 BYTE   W72
 BYTE   W96
//  #04 //016   ----------------------------------------
 BYTE   W72
 BYTE   W96
//  #04 //017   ----------------------------------------
 BYTE   W72
 BYTE   W96
//  #04 //018   ----------------------------------------
 BYTE   W72
 BYTE   W96
//  #04 //019   ----------------------------------------
 BYTE   W72
 BYTE   W96
//  #04 //020   ----------------------------------------
 BYTE   W72
 BYTE   W96
//  #04 //021   ----------------------------------------
 BYTE   W72
 BYTE   W96
//  #04 //022   ----------------------------------------
 BYTE   W72
 BYTE   W96
//  #04 //023   ----------------------------------------
 BYTE   W72
 BYTE   W96
//  #04 //024   ----------------------------------------
 BYTE   W72
 BYTE   W96
//  #04 //025   ----------------------------------------
 BYTE   W72
 BYTE   W96
//  #04 //026   ----------------------------------------
 BYTE   W72
 BYTE   W96
//  #04 //027   ----------------------------------------
 BYTE   W72
 BYTE   W96
//  #04 //028   ----------------------------------------
 BYTE   W72
 BYTE   W96
//  #04 //029   ----------------------------------------
 BYTE   W72
 BYTE   W96
//  #04 //030   ----------------------------------------
 BYTE   W72
 BYTE   W96
//  #04 //031   ----------------------------------------
 BYTE   W72
 BYTE   W96
//  #04 //032   ----------------------------------------
 BYTE   W72
 BYTE   W96
//  #04 //033   ----------------------------------------
 BYTE   W72
 BYTE   W96
//  #04 //034   ----------------------------------------
 BYTE   W72
 BYTE   W96
//  #04 //035   ----------------------------------------
 BYTE   W72
 BYTE   W96
//  #04 //036   ----------------------------------------
 BYTE   W72
 BYTE   W96
//  #04 //037   ----------------------------------------
 BYTE   W72
 BYTE   W96
//  #04 //038   ----------------------------------------
 BYTE   W72
 BYTE   W96
//  #04 //039   ----------------------------------------
 BYTE   W72
 BYTE   W96
//  #04 //040   ----------------------------------------
 BYTE   W72
 BYTE   W96
//  #04 //041   ----------------------------------------
 BYTE   W72
 BYTE   W96
//  #04 //042   ----------------------------------------
 BYTE   W72
 BYTE   W96
//  #04 //043   ----------------------------------------
 BYTE   W72
 BYTE   W96
//  #04 //044   ----------------------------------------
 BYTE   W72
 BYTE   TIE  En4  v108
 BYTE   W96
//  #04 //045   ----------------------------------------
 BYTE   W23
 BYTE   EOT
 BYTE   W01
 BYTE   N23  Bn3  v076
 BYTE   W24
 BYTE   En3  v092
 BYTE   W24
 BYTE   TIE  Dn4  v104
 BYTE   W96
//  #04 //046   ----------------------------------------
 BYTE   W44
 BYTE   W03
 BYTE   EOT
 BYTE   W01
 BYTE   N23  Cn4  v112
 BYTE   W24
 BYTE   TIE  Bn3  v104
 BYTE   W96
//  #04 //047   ----------------------------------------
 BYTE   W23
 BYTE   EOT
 BYTE   W01
 BYTE   N23  Gn3  v100
 BYTE   W24
 BYTE   Dn3  v096
 BYTE   W24
 BYTE   TIE  En3  v088
 BYTE   W96
//  #04 //048   ----------------------------------------
 BYTE   W48
 BYTE   W05
 BYTE   EOT
 BYTE   W19
 BYTE   TIE  Cn4  v116
 BYTE   W96
//  #04 //049   ----------------------------------------
 BYTE   W23
 BYTE   EOT
 BYTE   W01
 BYTE   N23  Gn3  v108
 BYTE   W24
 BYTE   Cn3  v104
 BYTE   W24
 BYTE   TIE  As3
 BYTE   W96
//  #04 //050   ----------------------------------------
 BYTE   W23
 BYTE   EOT
 BYTE   W24
 BYTE   W01
 BYTE   N23  Gs3  v112
 BYTE   W24
 BYTE   TIE  Gn3  v096
 BYTE   W96
//  #04 //051   ----------------------------------------
 BYTE   W23
 BYTE   EOT
 BYTE   W01
 BYTE   N23  Ds3  v112
 BYTE   W24
 BYTE   As2  v100
 BYTE   W24
 BYTE   TIE  Cn3  v108
 BYTE   W96
//  #04 //052   ----------------------------------------
 BYTE   W48
 BYTE   W11
 BYTE   EOT
 BYTE   W13
 BYTE   W24
//  #04 //053   ----------------------------------------
 BYTE   N11  Gs2  v088
 BYTE   W12
 BYTE   Gs2  v092
 BYTE   W12
 BYTE   Gs2  v088
 BYTE   W12
 BYTE   An2  v084
 BYTE   W12
 BYTE   An2  v076
 BYTE   W12
 BYTE   N11
 BYTE   W12
 BYTE   As2  v088
 BYTE   W12
 BYTE   N11
 BYTE   W12
//  #04 //054   ----------------------------------------
 BYTE   N11
 BYTE   W12
 BYTE   Bn2  v076
 BYTE   W12
 BYTE   Bn2  v072
 BYTE   W12
 BYTE   Bn2  v080
 BYTE   W12
 BYTE   W24
 BYTE   Gs2  v092
 BYTE   W12
 BYTE   Gs2  v084
 BYTE   W12
//  #04 //055   ----------------------------------------
 BYTE   Gs2  v076
 BYTE   W12
 BYTE   An2  v072
 BYTE   W12
 BYTE   N11
 BYTE   W12
 BYTE   An2  v068
 BYTE   W12
 BYTE   As2  v088
 BYTE   W12
 BYTE   As2  v080
 BYTE   W12
 BYTE   As2  v084
 BYTE   W12
 BYTE   Bn2
 BYTE   W12
//  #04 //056   ----------------------------------------
 BYTE   Bn2  v068
 BYTE   W12
 BYTE   N11
 BYTE   W12
 BYTE   W24
 BYTE   Gs2  v092
 BYTE   W12
 BYTE   Gs2  v080
 BYTE   W12
 BYTE   Gs2  v056
 BYTE   W12
 BYTE   An2  v072
 BYTE   W12
//  #04 //057   ----------------------------------------
 BYTE   N11
 BYTE   W12
 BYTE   An2  v064
 BYTE   W12
 BYTE   As2  v088
 BYTE   W12
 BYTE   As2  v084
 BYTE   W12
 BYTE   As2  v088
 BYTE   W12
 BYTE   Bn2  v072
 BYTE   W12
 BYTE   Bn2  v076
 BYTE   W12
 BYTE   Bn2  v068
 BYTE   W12
//  #04 //058   ----------------------------------------
 BYTE   TIE  Cn3  v088
 BYTE   W96
//  #04 //059   ----------------------------------------
 BYTE   W72
 BYTE   W96
//  #04 //060   ----------------------------------------
 BYTE   W24
 BYTE   W17
 BYTE   EOT
 BYTE   W30
 BYTE   W01
 BYTE   W48
//  #04 //061   ----------------------------------------
 BYTE   GoTo
  POIN2 Label_F53E66
//  #04 //062   ----------------------------------------
 BYTE   W96
//  #04 //063   ----------------------------------------
 BYTE   W24
 BYTE   W96
//  #04 //064   ----------------------------------------
 BYTE   W72
 BYTE   W96
//  #04 //065   ----------------------------------------
 BYTE   W72
 BYTE   W96
//  #04 //066   ----------------------------------------
 BYTE   W72
 BYTE   W96
//  #04 //067   ----------------------------------------
 BYTE   W72
 BYTE   W96
//  #04 //068   ----------------------------------------
 BYTE   W72
 BYTE   W96
//  #04 //069   ----------------------------------------
 BYTE   W72
 BYTE   W96
//  #04 //070   ----------------------------------------
 BYTE   W72
 BYTE   W96
//  #04 //071   ----------------------------------------
 BYTE   W72
 BYTE   W96
//  #04 //072   ----------------------------------------
 BYTE   W72
 BYTE   W96
//  #04 //073   ----------------------------------------
 BYTE   W72
 BYTE   W96
//  #04 //074   ----------------------------------------
 BYTE   W72
 BYTE   W96
//  #04 //075   ----------------------------------------
 BYTE   W72
 BYTE   W96
//  #04 //076   ----------------------------------------
 BYTE   W72
 BYTE   W96
//  #04 //077   ----------------------------------------
 BYTE   W72
 BYTE   W96
//  #04 //078   ----------------------------------------
 BYTE   W72
 BYTE   W96
//  #04 //079   ----------------------------------------
 BYTE   W72
 BYTE   W96
//  #04 //080   ----------------------------------------
 BYTE   W72
 BYTE   W96
//  #04 //081   ----------------------------------------
 BYTE   W72
 BYTE   W96
//  #04 //082   ----------------------------------------
 BYTE   W72
 BYTE   W96
//  #04 //083   ----------------------------------------
 BYTE   W72
 BYTE   W96
//  #04 //084   ----------------------------------------
 BYTE   W72
 BYTE   W96
//  #04 //085   ----------------------------------------
 BYTE   W72
 BYTE   W96
//  #04 //086   ----------------------------------------
 BYTE   W72
 BYTE   W96
//  #04 //087   ----------------------------------------
 BYTE   W72
 BYTE   W96
//  #04 //088   ----------------------------------------
 BYTE   W72
 BYTE   W96
//  #04 //089   ----------------------------------------
 BYTE   W72
 BYTE   W96
//  #04 //090   ----------------------------------------
 BYTE   W72
 BYTE   W96
//  #04 //091   ----------------------------------------
 BYTE   W72
 BYTE   W96
//  #04 //092   ----------------------------------------
 BYTE   W72
 BYTE   W96
//  #04 //093   ----------------------------------------
 BYTE   W72
 BYTE   W96
//  #04 //094   ----------------------------------------
 BYTE   W72
 BYTE   W96
//  #04 //095   ----------------------------------------
 BYTE   W72
 BYTE   W96
//  #04 //096   ----------------------------------------
 BYTE   W72
 BYTE   W96
//  #04 //097   ----------------------------------------
 BYTE   W72
 BYTE   W96
//  #04 //098   ----------------------------------------
 BYTE   W72
 BYTE   W96
//  #04 //099   ----------------------------------------
 BYTE   W72
 BYTE   W96
//  #04 //100   ----------------------------------------
 BYTE   W72
 BYTE   W96
//  #04 //101   ----------------------------------------
 BYTE   W72
 BYTE   W96
//  #04 //102   ----------------------------------------
 BYTE   W72
 BYTE   W96
//  #04 //103   ----------------------------------------
 BYTE   W72
 BYTE   W96
//  #04 //104   ----------------------------------------
 BYTE   W72
 BYTE   W96
//  #04 //105   ----------------------------------------
 BYTE   W72
 BYTE   W96
//  #04 //106   ----------------------------------------
 BYTE   W72
 BYTE   W24
//  #04 //107   ----------------------------------------
 BYTE   TIE  En4  v108
 BYTE   W96
//  #04 //108   ----------------------------------------
 BYTE   W23
 BYTE   EOT
 BYTE   W01
 BYTE   N23  Bn3  v076
 BYTE   W24
 BYTE   En3  v092
 BYTE   W24
 BYTE   TIE  Dn4  v104
 BYTE   W96
//  #04 //109   ----------------------------------------
 BYTE   W44
 BYTE   W03
 BYTE   EOT
 BYTE   W01
 BYTE   N23  Cn4  v112
 BYTE   W24
 BYTE   TIE  Bn3  v104
 BYTE   W96
//  #04 //110   ----------------------------------------
 BYTE   W23
 BYTE   EOT
 BYTE   W01
 BYTE   N23  Gn3  v100
 BYTE   W24
 BYTE   Dn3  v096
 BYTE   W24
 BYTE   TIE  En3  v088
 BYTE   W96
//  #04 //111   ----------------------------------------
 BYTE   W48
 BYTE   W05
 BYTE   EOT
 BYTE   W19
 BYTE   TIE  Cn4  v116
 BYTE   W96
//  #04 //112   ----------------------------------------
 BYTE   W23
 BYTE   EOT
 BYTE   W01
 BYTE   N23  Gn3  v108
 BYTE   W24
 BYTE   Cn3  v104
 BYTE   W24
 BYTE   TIE  As3
 BYTE   W96
//  #04 //113   ----------------------------------------
 BYTE   W23
 BYTE   EOT
 BYTE   W24
 BYTE   W01
 BYTE   N23  Gs3  v112
 BYTE   W24
 BYTE   TIE  Gn3  v096
 BYTE   W96
//  #04 //114   ----------------------------------------
 BYTE   W23
 BYTE   EOT
 BYTE   W01
 BYTE   N23  Ds3  v112
 BYTE   W24
 BYTE   As2  v100
 BYTE   W24
 BYTE   TIE  Cn3  v108
 BYTE   W96
//  #04 //115   ----------------------------------------
 BYTE   W48
 BYTE   W11
 BYTE   EOT
 BYTE   W36
 BYTE   W01
//  #04 //116   ----------------------------------------
 BYTE   N11  Gs2  v088
 BYTE   W12
 BYTE   Gs2  v092
 BYTE   W12
 BYTE   Gs2  v088
 BYTE   W12
 BYTE   An2  v084
 BYTE   W12
 BYTE   An2  v076
 BYTE   W12
 BYTE   N11
 BYTE   W12
 BYTE   As2  v088
 BYTE   W12
 BYTE   N11
 BYTE   W12
//  #04 //117   ----------------------------------------
 BYTE   N11
 BYTE   W12
 BYTE   Bn2  v076
 BYTE   W12
 BYTE   Bn2  v072
 BYTE   W12
 BYTE   Bn2  v080
 BYTE   W36
 BYTE   Gs2  v092
 BYTE   W12
 BYTE   Gs2  v084
 BYTE   W12
//  #04 //118   ----------------------------------------
 BYTE   Gs2  v076
 BYTE   W12
 BYTE   An2  v072
 BYTE   W12
 BYTE   N11
 BYTE   W12
 BYTE   An2  v068
 BYTE   W12
 BYTE   As2  v088
 BYTE   W12
 BYTE   As2  v080
 BYTE   W12
 BYTE   As2  v084
 BYTE   W12
 BYTE   Bn2
 BYTE   W12
//  #04 //119   ----------------------------------------
 BYTE   Bn2  v068
 BYTE   W12
 BYTE   N11
 BYTE   W36
 BYTE   Gs2  v092
 BYTE   W12
 BYTE   Gs2  v080
 BYTE   W12
 BYTE   Gs2  v056
 BYTE   W12
 BYTE   An2  v072
 BYTE   W12
//  #04 //120   ----------------------------------------
 BYTE   N11
 BYTE   W12
 BYTE   An2  v064
 BYTE   W12
 BYTE   As2  v088
 BYTE   W12
 BYTE   As2  v084
 BYTE   W12
 BYTE   As2  v088
 BYTE   W12
 BYTE   Bn2  v072
 BYTE   W12
 BYTE   Bn2  v076
 BYTE   W12
 BYTE   Bn2  v068
 BYTE   W12
//  #04 //121   ----------------------------------------
 BYTE   TIE  Cn3  v088
 BYTE   W96
//  #04 //122   ----------------------------------------
 BYTE   W48
 BYTE   W24
 BYTE   W96
//  #04 //123   ----------------------------------------
 BYTE   W24
 BYTE   W17
 BYTE   EOT
 BYTE   FINE

//**************** Track 5 (Midi-Chn.4) ****************//

EchoingLibrary_005:
//  #05 //000   ----------------------------------------
 BYTE   KEYSH   EchoingLibrary_key+0
 BYTE   VOICE   88
 BYTE   VOL   48*EchoingLibrary_mvl/mxv
 BYTE   PAN   c_v+0
 BYTE   W24
Label_F53951:
 BYTE   W96
//  #05 //001   ----------------------------------------
 BYTE   W48
 BYTE   W96
//  #05 //002   ----------------------------------------
 BYTE   W72
 BYTE   W96
//  #05 //003   ----------------------------------------
 BYTE   W72
 BYTE   W96
//  #05 //004   ----------------------------------------
 BYTE   W72
 BYTE   W96
//  #05 //005   ----------------------------------------
 BYTE   W72
 BYTE   W96
//  #05 //006   ----------------------------------------
 BYTE   W72
 BYTE   W96
//  #05 //007   ----------------------------------------
 BYTE   W72
 BYTE   W96
//  #05 //008   ----------------------------------------
 BYTE   W72
 BYTE   W96
//  #05 //009   ----------------------------------------
 BYTE   W72
 BYTE   W96
//  #05 //010   ----------------------------------------
 BYTE   W72
 BYTE   W96
//  #05 //011   ----------------------------------------
 BYTE   W72
 BYTE   W96
//  #05 //012   ----------------------------------------
 BYTE   W72
 BYTE   W96
//  #05 //013   ----------------------------------------
 BYTE   W72
 BYTE   W96
//  #05 //014   ----------------------------------------
 BYTE   W72
 BYTE   W96
//  #05 //015   ----------------------------------------
 BYTE   W72
 BYTE   W96
//  #05 //016   ----------------------------------------
 BYTE   W72
 BYTE   W96
//  #05 //017   ----------------------------------------
 BYTE   W72
 BYTE   W96
//  #05 //018   ----------------------------------------
 BYTE   W72
 BYTE   W96
//  #05 //019   ----------------------------------------
 BYTE   W72
 BYTE   W96
//  #05 //020   ----------------------------------------
 BYTE   W72
 BYTE   W96
//  #05 //021   ----------------------------------------
 BYTE   W72
 BYTE   W96
//  #05 //022   ----------------------------------------
 BYTE   W72
 BYTE   W96
//  #05 //023   ----------------------------------------
 BYTE   W72
 BYTE   W96
//  #05 //024   ----------------------------------------
 BYTE   W72
 BYTE   W96
//  #05 //025   ----------------------------------------
 BYTE   W72
 BYTE   W96
//  #05 //026   ----------------------------------------
 BYTE   W72
 BYTE   W96
//  #05 //027   ----------------------------------------
 BYTE   W72
 BYTE   W96
//  #05 //028   ----------------------------------------
 BYTE   W72
 BYTE   W96
//  #05 //029   ----------------------------------------
 BYTE   W72
 BYTE   W96
//  #05 //030   ----------------------------------------
 BYTE   W72
 BYTE   W96
//  #05 //031   ----------------------------------------
 BYTE   W72
 BYTE   W96
//  #05 //032   ----------------------------------------
 BYTE   W72
 BYTE   W96
//  #05 //033   ----------------------------------------
 BYTE   W72
 BYTE   W96
//  #05 //034   ----------------------------------------
 BYTE   W72
 BYTE   W96
//  #05 //035   ----------------------------------------
 BYTE   W72
 BYTE   W96
//  #05 //036   ----------------------------------------
 BYTE   W72
 BYTE   TIE  En4  v108
 BYTE   W96
//  #05 //037   ----------------------------------------
 BYTE   W23
 BYTE   EOT
 BYTE   W01
 BYTE   N23  Bn3  v076
 BYTE   W24
 BYTE   En3  v092
 BYTE   W24
 BYTE   TIE  Dn4  v104
 BYTE   W96
//  #05 //038   ----------------------------------------
 BYTE   W44
 BYTE   W03
 BYTE   EOT
 BYTE   W01
 BYTE   N23  Cn4  v112
 BYTE   W24
 BYTE   TIE  Bn3  v104
 BYTE   W96
//  #05 //039   ----------------------------------------
 BYTE   W23
 BYTE   EOT
 BYTE   W01
 BYTE   N23  Gn3  v100
 BYTE   W24
 BYTE   Dn3  v096
 BYTE   W24
 BYTE   TIE  En3  v088
 BYTE   W96
//  #05 //040   ----------------------------------------
 BYTE   W48
 BYTE   W05
 BYTE   EOT
 BYTE   W19
 BYTE   TIE  Cn4  v116
 BYTE   W96
//  #05 //041   ----------------------------------------
 BYTE   W23
 BYTE   EOT
 BYTE   W01
 BYTE   N23  Gn3  v108
 BYTE   W24
 BYTE   Cn3  v104
 BYTE   W24
 BYTE   TIE  As3
 BYTE   W96
//  #05 //042   ----------------------------------------
 BYTE   W23
 BYTE   EOT
 BYTE   W24
 BYTE   W01
 BYTE   N23  Gs3  v112
 BYTE   W24
 BYTE   TIE  Gn3  v096
 BYTE   W96
//  #05 //043   ----------------------------------------
 BYTE   W23
 BYTE   EOT
 BYTE   W01
 BYTE   N23  Ds3  v112
 BYTE   W24
 BYTE   As2  v100
 BYTE   W24
 BYTE   TIE  Cn3  v108
 BYTE   W96
//  #05 //044   ----------------------------------------
 BYTE   W48
 BYTE   W11
 BYTE   EOT
 BYTE   W13
 BYTE   W96
//  #05 //045   ----------------------------------------
 BYTE   W72
 BYTE   W96
//  #05 //046   ----------------------------------------
 BYTE   W72
 BYTE   W96
//  #05 //047   ----------------------------------------
 BYTE   W72
 BYTE   W96
//  #05 //048   ----------------------------------------
 BYTE   W72
 BYTE   W96
//  #05 //049   ----------------------------------------
 BYTE   W72
 BYTE   W96
//  #05 //050   ----------------------------------------
 BYTE   W72
 BYTE   W96
//  #05 //051   ----------------------------------------
 BYTE   W72
 BYTE   W96
//  #05 //052   ----------------------------------------
 BYTE   W72
 BYTE   W24
//  #05 //053   ----------------------------------------
 BYTE   N11  Gs3  v127
 BYTE   W12
 BYTE   N11
 BYTE   W12
 BYTE   Gs3  v124
 BYTE   W12
 BYTE   An3
 BYTE   W12
 BYTE   An3  v116
 BYTE   W12
 BYTE   An3  v112
 BYTE   W12
 BYTE   As3  v124
 BYTE   W12
 BYTE   As3  v127
 BYTE   W12
//  #05 //054   ----------------------------------------
 BYTE   As3  v124
 BYTE   W12
 BYTE   Bn3  v112
 BYTE   W12
 BYTE   N11
 BYTE   W12
 BYTE   Bn3  v116
 BYTE   W12
 BYTE   W24
 BYTE   Gs3  v127
 BYTE   W12
 BYTE   Gs3  v124
 BYTE   W12
//  #05 //055   ----------------------------------------
 BYTE   Gs3  v116
 BYTE   W12
 BYTE   An3  v108
 BYTE   W12
 BYTE   N11
 BYTE   W12
 BYTE   An3  v104
 BYTE   W12
 BYTE   As3  v124
 BYTE   W12
 BYTE   As3  v116
 BYTE   W12
 BYTE   As3  v120
 BYTE   W12
 BYTE   Bn3  v124
 BYTE   W12
//  #05 //056   ----------------------------------------
 BYTE   Bn3  v108
 BYTE   W12
 BYTE   N11
 BYTE   W12
 BYTE   W24
 BYTE   Gs3  v127
 BYTE   W12
 BYTE   Gs3  v120
 BYTE   W12
 BYTE   Gs3  v092
 BYTE   W12
 BYTE   An3  v112
 BYTE   W12
//  #05 //057   ----------------------------------------
 BYTE   An3  v108
 BYTE   W12
 BYTE   An3  v104
 BYTE   W12
 BYTE   As3  v127
 BYTE   W12
 BYTE   As3  v120
 BYTE   W12
 BYTE   As3  v124
 BYTE   W12
 BYTE   Bn3  v112
 BYTE   W12
 BYTE   N11
 BYTE   W12
 BYTE   Bn3  v108
 BYTE   W12
//  #05 //058   ----------------------------------------
 BYTE   N92  Cn4  v124
 BYTE   W96
//  #05 //059   ----------------------------------------
 BYTE   N11  Gs2  v092
 BYTE   W12
 BYTE   N05  Cs3  v072
 BYTE   W06
 BYTE   Ds3  v104
 BYTE   W06
 BYTE   N11  Gs3  v100
 BYTE   W12
 BYTE   N05
 BYTE   W06
 BYTE   Cs4  v084
 BYTE   W06
 BYTE   Ds4  v088
 BYTE   W06
 BYTE   Gs4  v080
 BYTE   W06
 BYTE   N02  Cs5  v100
 BYTE   W03
 BYTE   Ds5
 BYTE   W03
 BYTE   Fn5
 BYTE   W03
 BYTE   Gs5
 BYTE   W03
 BYTE   N44  Ds5
 BYTE   W96
//  #05 //060   ----------------------------------------
 BYTE   W72
 BYTE   W48
//  #05 //061   ----------------------------------------
 BYTE   GoTo
  POIN2 Label_F53951
//  #05 //062   ----------------------------------------
 BYTE   W96
//  #05 //063   ----------------------------------------
 BYTE   W24
 BYTE   W96
//  #05 //064   ----------------------------------------
 BYTE   W72
 BYTE   W96
//  #05 //065   ----------------------------------------
 BYTE   W72
 BYTE   W96
//  #05 //066   ----------------------------------------
 BYTE   W72
 BYTE   W96
//  #05 //067   ----------------------------------------
 BYTE   W72
 BYTE   W96
//  #05 //068   ----------------------------------------
 BYTE   W72
 BYTE   W96
//  #05 //069   ----------------------------------------
 BYTE   W72
 BYTE   W96
//  #05 //070   ----------------------------------------
 BYTE   W72
 BYTE   W96
//  #05 //071   ----------------------------------------
 BYTE   W72
 BYTE   W96
//  #05 //072   ----------------------------------------
 BYTE   W72
 BYTE   W96
//  #05 //073   ----------------------------------------
 BYTE   W72
 BYTE   W96
//  #05 //074   ----------------------------------------
 BYTE   W72
 BYTE   W96
//  #05 //075   ----------------------------------------
 BYTE   W72
 BYTE   W96
//  #05 //076   ----------------------------------------
 BYTE   W72
 BYTE   W96
//  #05 //077   ----------------------------------------
 BYTE   W72
 BYTE   W96
//  #05 //078   ----------------------------------------
 BYTE   W72
 BYTE   W96
//  #05 //079   ----------------------------------------
 BYTE   W72
 BYTE   W96
//  #05 //080   ----------------------------------------
 BYTE   W72
 BYTE   W96
//  #05 //081   ----------------------------------------
 BYTE   W72
 BYTE   W96
//  #05 //082   ----------------------------------------
 BYTE   W72
 BYTE   W96
//  #05 //083   ----------------------------------------
 BYTE   W72
 BYTE   W96
//  #05 //084   ----------------------------------------
 BYTE   W72
 BYTE   W96
//  #05 //085   ----------------------------------------
 BYTE   W72
 BYTE   W96
//  #05 //086   ----------------------------------------
 BYTE   W72
 BYTE   W96
//  #05 //087   ----------------------------------------
 BYTE   W72
 BYTE   W96
//  #05 //088   ----------------------------------------
 BYTE   W72
 BYTE   W96
//  #05 //089   ----------------------------------------
 BYTE   W72
 BYTE   W96
//  #05 //090   ----------------------------------------
 BYTE   W72
 BYTE   W96
//  #05 //091   ----------------------------------------
 BYTE   W72
 BYTE   W96
//  #05 //092   ----------------------------------------
 BYTE   W72
 BYTE   W96
//  #05 //093   ----------------------------------------
 BYTE   W72
 BYTE   W96
//  #05 //094   ----------------------------------------
 BYTE   W72
 BYTE   W96
//  #05 //095   ----------------------------------------
 BYTE   W72
 BYTE   W96
//  #05 //096   ----------------------------------------
 BYTE   W72
 BYTE   W96
//  #05 //097   ----------------------------------------
 BYTE   W72
 BYTE   W96
//  #05 //098   ----------------------------------------
 BYTE   W72
 BYTE   W24
//  #05 //099   ----------------------------------------
 BYTE   TIE  En4  v108
 BYTE   W96
//  #05 //100   ----------------------------------------
 BYTE   W23
 BYTE   EOT
 BYTE   W01
 BYTE   N23  Bn3  v076
 BYTE   W24
 BYTE   En3  v092
 BYTE   W24
 BYTE   TIE  Dn4  v104
 BYTE   W96
//  #05 //101   ----------------------------------------
 BYTE   W44
 BYTE   W03
 BYTE   EOT
 BYTE   W01
 BYTE   N23  Cn4  v112
 BYTE   W24
 BYTE   TIE  Bn3  v104
 BYTE   W96
//  #05 //102   ----------------------------------------
 BYTE   W23
 BYTE   EOT
 BYTE   W01
 BYTE   N23  Gn3  v100
 BYTE   W24
 BYTE   Dn3  v096
 BYTE   W24
 BYTE   TIE  En3  v088
 BYTE   W96
//  #05 //103   ----------------------------------------
 BYTE   W48
 BYTE   W05
 BYTE   EOT
 BYTE   W19
 BYTE   TIE  Cn4  v116
 BYTE   W96
//  #05 //104   ----------------------------------------
 BYTE   W23
 BYTE   EOT
 BYTE   W01
 BYTE   N23  Gn3  v108
 BYTE   W24
 BYTE   Cn3  v104
 BYTE   W24
 BYTE   TIE  As3
 BYTE   W96
//  #05 //105   ----------------------------------------
 BYTE   W23
 BYTE   EOT
 BYTE   W24
 BYTE   W01
 BYTE   N23  Gs3  v112
 BYTE   W24
 BYTE   TIE  Gn3  v096
 BYTE   W96
//  #05 //106   ----------------------------------------
 BYTE   W23
 BYTE   EOT
 BYTE   W01
 BYTE   N23  Ds3  v112
 BYTE   W24
 BYTE   As2  v100
 BYTE   W24
 BYTE   TIE  Cn3  v108
 BYTE   W96
//  #05 //107   ----------------------------------------
 BYTE   W48
 BYTE   W11
 BYTE   EOT
 BYTE   W96
//  #05 //108   ----------------------------------------
 BYTE   W60
 BYTE   W01
 BYTE   W96
//  #05 //109   ----------------------------------------
 BYTE   W72
 BYTE   W96
//  #05 //110   ----------------------------------------
 BYTE   W72
 BYTE   W96
//  #05 //111   ----------------------------------------
 BYTE   W72
 BYTE   W96
//  #05 //112   ----------------------------------------
 BYTE   W72
 BYTE   W96
//  #05 //113   ----------------------------------------
 BYTE   W72
 BYTE   W96
//  #05 //114   ----------------------------------------
 BYTE   W72
 BYTE   W96
//  #05 //115   ----------------------------------------
 BYTE   W72
 BYTE   W48
//  #05 //116   ----------------------------------------
 BYTE   N11  Gs3  v127
 BYTE   W12
 BYTE   N11
 BYTE   W12
 BYTE   Gs3  v124
 BYTE   W12
 BYTE   An3
 BYTE   W12
 BYTE   An3  v116
 BYTE   W12
 BYTE   An3  v112
 BYTE   W12
 BYTE   As3  v124
 BYTE   W12
 BYTE   As3  v127
 BYTE   W12
//  #05 //117   ----------------------------------------
 BYTE   As3  v124
 BYTE   W12
 BYTE   Bn3  v112
 BYTE   W12
 BYTE   N11
 BYTE   W12
 BYTE   Bn3  v116
 BYTE   W36
 BYTE   Gs3  v127
 BYTE   W12
 BYTE   Gs3  v124
 BYTE   W12
//  #05 //118   ----------------------------------------
 BYTE   Gs3  v116
 BYTE   W12
 BYTE   An3  v108
 BYTE   W12
 BYTE   N11
 BYTE   W12
 BYTE   An3  v104
 BYTE   W12
 BYTE   As3  v124
 BYTE   W12
 BYTE   As3  v116
 BYTE   W12
 BYTE   As3  v120
 BYTE   W12
 BYTE   Bn3  v124
 BYTE   W12
//  #05 //119   ----------------------------------------
 BYTE   Bn3  v108
 BYTE   W12
 BYTE   N11
 BYTE   W36
 BYTE   Gs3  v127
 BYTE   W12
 BYTE   Gs3  v120
 BYTE   W12
 BYTE   Gs3  v092
 BYTE   W12
 BYTE   An3  v112
 BYTE   W12
//  #05 //120   ----------------------------------------
 BYTE   An3  v108
 BYTE   W12
 BYTE   An3  v104
 BYTE   W12
 BYTE   As3  v127
 BYTE   W12
 BYTE   As3  v120
 BYTE   W12
 BYTE   As3  v124
 BYTE   W12
 BYTE   Bn3  v112
 BYTE   W12
 BYTE   N11
 BYTE   W12
 BYTE   Bn3  v108
 BYTE   W12
//  #05 //121   ----------------------------------------
 BYTE   N92  Cn4  v124
 BYTE   W96
//  #05 //122   ----------------------------------------
 BYTE   N11  Gs2  v092
 BYTE   W12
 BYTE   N05  Cs3  v072
 BYTE   W06
 BYTE   Ds3  v104
 BYTE   W06
 BYTE   N11  Gs3  v100
 BYTE   W12
 BYTE   N05
 BYTE   W06
 BYTE   Cs4  v084
 BYTE   W06
 BYTE   Ds4  v088
 BYTE   W06
 BYTE   Gs4  v080
 BYTE   W06
 BYTE   N02  Cs5  v100
 BYTE   W03
 BYTE   Ds5
 BYTE   W03
 BYTE   Fn5
 BYTE   W03
 BYTE   Gs5
 BYTE   W03
 BYTE   N44  Ds5
 BYTE   W44
//  #05 //123   ----------------------------------------
 BYTE   W03
 BYTE   FINE

//**************** Track 6 (Midi-Chn.5) ****************//

EchoingLibrary_006:
//  #06 //000   ----------------------------------------
 BYTE   KEYSH   EchoingLibrary_key+0
 BYTE   VOICE   124
 BYTE   VOL   49*EchoingLibrary_mvl/mxv
 BYTE   PAN   c_v+0
 BYTE   W24
Label_01100CAD:
 BYTE   W96
//  #06 //001   ----------------------------------------
 BYTE   W48
 BYTE   W96
//  #06 //002   ----------------------------------------
 BYTE   W72
 BYTE   N24  Cn2  v036
 BYTE   W12
 BYTE   Dn2
 BYTE   W12
//  #06 //003   ----------------------------------------
 BYTE   Cn2
 BYTE   W12
 BYTE   Dn2
 BYTE   W12
 BYTE   Cn2
 BYTE   W12
 BYTE   Dn2
 BYTE   W12
 BYTE   Cn2
 BYTE   W12
 BYTE   Dn2
 BYTE   W12
 BYTE   Cn2
 BYTE   W12
 BYTE   Dn2
 BYTE   W12
//  #06 //004   ----------------------------------------
 BYTE   Cn2
 BYTE   W12
 BYTE   Dn2
 BYTE   W12
 BYTE   Cn2
 BYTE   W12
 BYTE   Dn2
 BYTE   W12
 BYTE   Cn2
 BYTE   W12
 BYTE   Dn2
 BYTE   W12
 BYTE   Cn2
 BYTE   W12
 BYTE   Dn2
 BYTE   W12
//  #06 //005   ----------------------------------------
 BYTE   Cn2
 BYTE   W12
 BYTE   Dn2
 BYTE   W12
 BYTE   Cn2
 BYTE   W12
 BYTE   Dn2
 BYTE   W12
 BYTE   N60  Ds1  v096
 BYTE   N24  Cn2  v036
 BYTE   W12
 BYTE   N60  Cn1  v080
 BYTE   N24  Dn2  v036
 BYTE   W12
 BYTE   Cn2
 BYTE   N48  Cs2  v096
 BYTE   W12
 BYTE   N24  Dn2  v036
 BYTE   W12
//  #06 //006   ----------------------------------------
 BYTE   N72  Dn1  v096
 BYTE   TIE  Cn2  v036
 BYTE   W12
 BYTE   Ds1  v096
 BYTE   TIE  Dn2  v036
 BYTE   W06
 BYTE   En1  v096
 BYTE   W06
 BYTE   N36  Cn1  v092
 BYTE   TIE  Cs2  v108
 BYTE   W24
 BYTE   N24  Fs2  v060
 BYTE   W12
 BYTE   N48  Cn1  v068
 BYTE   W12
 BYTE   N96  Dn1  v092
 BYTE   N24  Fs2  v060
 BYTE   W24
//  #06 //007   ----------------------------------------
 BYTE   N24
 BYTE   W12
 BYTE   N48  Cn1  v084
 BYTE   W12
 BYTE   N24  Fs2  v060
 BYTE   W12
 BYTE   EOT
 BYTE   Ds1
 BYTE   TIE  Ds1  v068
 BYTE   W12
 BYTE   N24  Fs2  v060
 BYTE   W12
 BYTE   N36  Cn1  v068
 BYTE   W12
 BYTE   N72  Dn1  v096
 BYTE   N24  Fs2  v060
 BYTE   W24
//  #06 //008   ----------------------------------------
Label_01100D3B:
 BYTE   N24  Cn1  v100
 BYTE   N24  Fs2  v088
 BYTE   W24
 BYTE   N12  Cn1
 BYTE   N24  Fs2  v060
 BYTE   W12
 BYTE   N48  Cn1  v088
 BYTE   W12
 BYTE   TIE  Dn1  v092
 BYTE   N24  Fs2  v060
 BYTE   W24
 BYTE   N24
 BYTE   W12
 BYTE   N48  Cn1  v084
 BYTE   W12
//  #06 //009   ----------------------------------------
 BYTE   N24  Fs2  v060
 BYTE   W12
 BYTE   PEND
 BYTE   EOT
 BYTE   Ds1
 BYTE   N36  Ds1  v068
 BYTE   W12
 BYTE   N24  Fs2  v060
 BYTE   W12
 BYTE   N36  Cn1  v068
 BYTE   W12
 BYTE   TIE  Ds1  v096
 BYTE   N24  Fs2  v060
 BYTE   W24
Label_01100D73:
 BYTE   N24  Cn1  v100
 BYTE   N24  Fs2  v088
 BYTE   W24
//  #06 //010   ----------------------------------------
 BYTE   N12  Cn1
 BYTE   N24  Fs2  v060
 BYTE   W12
 BYTE   N48  Cn1  v088
 BYTE   W12
 BYTE   PEND
 BYTE   EOT
 BYTE   Dn1
 BYTE   TIE  Dn1  v092
 BYTE   N24  Fs2  v060
 BYTE   W24
 BYTE   N24
 BYTE   W12
 BYTE   N36  Cn1  v084
 BYTE   W12
 BYTE   N24  Fs2  v060
 BYTE   W12
 BYTE   EOT
 BYTE   Ds1
 BYTE   N36  Ds1  v068
 BYTE   W12
//  #06 //011   ----------------------------------------
 BYTE   N48  Cn1
 BYTE   N24  Fs2  v060
 BYTE   W24
 BYTE   TIE  Ds1  v096
 BYTE   N24  Fs2  v060
 BYTE   W24
//  #06 //012   ----------------------------------------
 BYTE   PATT
  POIN2 Label_01100D73
//  #06 //013   ----------------------------------------
 BYTE   EOT
 BYTE   Dn1
 BYTE   TIE  Dn1  v092
 BYTE   N24  Fs2  v060
 BYTE   W24
 BYTE   TIE
 BYTE   W12
 BYTE   N24  Cn1  v084
 BYTE   W12
 BYTE   EOT
 BYTE   Ds1
 BYTE   N48  Ds1  v068
 BYTE   W12
 BYTE   N12  Cn1
 BYTE   W12
 BYTE   N36
 BYTE   TIE  Dn3  v084
 BYTE   W24
//  #06 //014   ----------------------------------------
 BYTE   Ds1  v096
 BYTE   TIE  Gn1  v084
 BYTE   W06
 BYTE   Fn1
 BYTE   W06
 BYTE   N12  Cn1
 BYTE   TIE  Cs1
 BYTE   TIE  An3
 BYTE   W06
 BYTE   Fs1
 BYTE   W06
 BYTE   EOT
 BYTE   Cs2
Label_01100DE0:
 BYTE   N36  Cn1  v092
 BYTE   TIE  Cs2  v108
 BYTE   W24
 BYTE   PEND
 BYTE   EOT
 BYTE   Fs2
 BYTE   N24  Fs2  v060
 BYTE   W12
 BYTE   N48  Cn1  v068
 BYTE   W12
 BYTE   EOT
 BYTE   Dn1
 BYTE   N96  Dn1  v092
 BYTE   N24  Fs2  v060
 BYTE   W24
//  #06 //015   ----------------------------------------
 BYTE   N24
 BYTE   W12
 BYTE   N48  Cn1  v084
 BYTE   W12
 BYTE   N24  Fs2  v060
 BYTE   W12
 BYTE   EOT
 BYTE   Ds1
 BYTE   TIE  Ds1  v068
 BYTE   W12
 BYTE   N24  Fs2  v060
 BYTE   W12
 BYTE   N36  Cn1  v068
 BYTE   W12
 BYTE   N72  Dn1  v096
 BYTE   N24  Fs2  v060
 BYTE   W24
//  #06 //016   ----------------------------------------
 BYTE   PATT
  POIN2 Label_01100D3B
//  #06 //017   ----------------------------------------
 BYTE   EOT
 BYTE   Ds1
 BYTE   N36  Ds1  v068
 BYTE   W12
 BYTE   N24  Fs2  v060
 BYTE   W12
 BYTE   N36  Cn1  v068
 BYTE   W12
 BYTE   TIE  Ds1  v096
 BYTE   N24  Fs2  v060
 BYTE   W24
//  #06 //018   ----------------------------------------
 BYTE   PATT
  POIN2 Label_01100D73
//  #06 //019   ----------------------------------------
 BYTE   EOT
 BYTE   Dn1
 BYTE   TIE  Dn1  v092
 BYTE   N24  Fs2  v060
 BYTE   W24
 BYTE   N24
 BYTE   W12
 BYTE   N36  Cn1  v084
 BYTE   W12
 BYTE   N24  Fs2  v060
 BYTE   W12
 BYTE   EOT
 BYTE   Ds1
 BYTE   N36  Ds1  v068
 BYTE   W12
 BYTE   N48  Cn1
 BYTE   N24  Fs2  v060
 BYTE   W24
//  #06 //020   ----------------------------------------
 BYTE   TIE  Ds1  v096
 BYTE   N24  Fs2  v060
 BYTE   W24
//  #06 //021   ----------------------------------------
 BYTE   PATT
  POIN2 Label_01100D73
//  #06 //022   ----------------------------------------
 BYTE   EOT
 BYTE   Dn1
 BYTE   TIE  Dn1  v092
 BYTE   N24  Fs2  v060
 BYTE   W24
 BYTE   TIE
 BYTE   W12
 BYTE   N24  Cn1  v084
 BYTE   W12
 BYTE   EOT
 BYTE   Ds1
 BYTE   N48  Ds1  v068
 BYTE   W12
 BYTE   N12  Cn1
 BYTE   W12
 BYTE   EOT
 BYTE   Dn3
 BYTE   N36  Cn1
 BYTE   TIE  Dn3  v084
 BYTE   W24
//  #06 //023   ----------------------------------------
 BYTE   EOT
 BYTE   Gn1
 BYTE   TIE  Ds1  v096
 BYTE   TIE  Gn1  v084
 BYTE   W06
 BYTE   EOT
 BYTE   Fn1
 BYTE   TIE
 BYTE   W06
 BYTE   EOT
 BYTE   An3
 BYTE   N12  Cn1
 BYTE   TIE  An2
 BYTE   TIE  An3
 BYTE   W06
 BYTE   EOT
 BYTE   Fs1
 BYTE   TIE
 BYTE   W06
 BYTE   EOT
 BYTE   Cs2
//  #06 //024   ----------------------------------------
 BYTE   PATT
  POIN2 Label_01100DE0
//  #06 //025   ----------------------------------------
 BYTE   EOT
 BYTE   Fs2
 BYTE   N24  Fs2  v060
 BYTE   W12
 BYTE   N48  Cn1  v068
 BYTE   W12
 BYTE   EOT
 BYTE   Dn1
 BYTE   N96  Dn1  v092
 BYTE   N24  Fs2  v060
 BYTE   W24
 BYTE   N24
 BYTE   W12
 BYTE   N48  Cn1  v084
 BYTE   W12
 BYTE   N24  Fs2  v060
 BYTE   W12
 BYTE   EOT
 BYTE   Ds1
 BYTE   TIE  Ds1  v068
 BYTE   W12
//  #06 //026   ----------------------------------------
 BYTE   N24  Fs2  v060
 BYTE   W12
 BYTE   N36  Cn1  v068
 BYTE   W12
 BYTE   N72  Dn1  v096
 BYTE   N24  Fs2  v060
 BYTE   W24
//  #06 //027   ----------------------------------------
 BYTE   PATT
  POIN2 Label_01100D3B
//  #06 //028   ----------------------------------------
 BYTE   EOT
 BYTE   Ds1
 BYTE   N36  Ds1  v068
 BYTE   W12
 BYTE   N24  Fs2  v060
 BYTE   W12
 BYTE   N36  Cn1  v068
 BYTE   W12
 BYTE   TIE  Ds1  v096
 BYTE   N24  Fs2  v060
 BYTE   W24
//  #06 //029   ----------------------------------------
 BYTE   PATT
  POIN2 Label_01100D73
//  #06 //030   ----------------------------------------
 BYTE   EOT
 BYTE   Dn1
 BYTE   TIE  Dn1  v092
 BYTE   N24  Fs2  v060
 BYTE   W24
 BYTE   N24
 BYTE   W12
 BYTE   N36  Cn1  v084
 BYTE   W12
 BYTE   N24  Fs2  v060
 BYTE   W12
 BYTE   EOT
 BYTE   Ds1
 BYTE   N36  Ds1  v068
 BYTE   W12
 BYTE   N48  Cn1
 BYTE   N24  Fs2  v060
 BYTE   W24
//  #06 //031   ----------------------------------------
 BYTE   TIE  Ds1  v096
 BYTE   N24  Fs2  v060
 BYTE   W24
//  #06 //032   ----------------------------------------
 BYTE   PATT
  POIN2 Label_01100D73
//  #06 //033   ----------------------------------------
 BYTE   EOT
 BYTE   Dn1
 BYTE   TIE  Dn1  v092
 BYTE   N24  Fs2  v060
 BYTE   W24
 BYTE   TIE
 BYTE   W12
 BYTE   N24  Cn1  v084
 BYTE   W12
 BYTE   EOT
 BYTE   Ds1
 BYTE   N48  Ds1  v068
 BYTE   W12
 BYTE   N12  Cn1
 BYTE   W12
 BYTE   EOT
 BYTE   Dn3
 BYTE   N36  Cn1
 BYTE   TIE  Dn3  v084
 BYTE   W24
//  #06 //034   ----------------------------------------
 BYTE   EOT
 BYTE   Gn1
 BYTE   TIE  Ds1  v096
 BYTE   TIE  Gn1  v084
 BYTE   W06
 BYTE   EOT
 BYTE   Fn1
 BYTE   TIE
 BYTE   W06
 BYTE   EOT
 BYTE   An2  v069
 BYTE   N12  Cn1
 BYTE   TIE  An2
 BYTE   TIE  An3
 BYTE   W06
 BYTE   EOT
 BYTE   Fs1
 BYTE   TIE
 BYTE   W06
 BYTE   EOT
 BYTE   Cs2
//  #06 //035   ----------------------------------------
 BYTE   PATT
  POIN2 Label_01100DE0
//  #06 //036   ----------------------------------------
 BYTE   EOT
 BYTE   Fs2
 BYTE   N24  Fs2  v060
 BYTE   W12
 BYTE   N48  Cn1  v068
 BYTE   W12
 BYTE   EOT
 BYTE   Dn1
 BYTE   N96  Dn1  v092
 BYTE   N24  Fs2  v060
 BYTE   W24
 BYTE   N24
 BYTE   W12
 BYTE   N48  Cn1  v084
 BYTE   W12
 BYTE   N24  Fs2  v060
 BYTE   W12
 BYTE   EOT
 BYTE   Ds1
 BYTE   TIE  Ds1  v068
 BYTE   W12
//  #06 //037   ----------------------------------------
 BYTE   N24  Fs2  v060
 BYTE   W12
 BYTE   N36  Cn1  v068
 BYTE   W12
 BYTE   N72  Dn1  v096
 BYTE   N24  Fs2  v060
 BYTE   W24
//  #06 //038   ----------------------------------------
 BYTE   PATT
  POIN2 Label_01100D3B
//  #06 //039   ----------------------------------------
 BYTE   EOT
 BYTE   Ds1
 BYTE   N36  Ds1  v068
 BYTE   W12
 BYTE   N24  Fs2  v060
 BYTE   W12
 BYTE   N36  Cn1  v068
 BYTE   W12
 BYTE   TIE  Ds1  v096
 BYTE   N24  Fs2  v060
 BYTE   W24
//  #06 //040   ----------------------------------------
 BYTE   PATT
  POIN2 Label_01100D73
//  #06 //041   ----------------------------------------
 BYTE   EOT
 BYTE   Dn1
 BYTE   TIE  Dn1  v092
 BYTE   N24  Fs2  v060
 BYTE   W24
 BYTE   N24
 BYTE   W12
 BYTE   N36  Cn1  v084
 BYTE   W12
 BYTE   N24  Fs2  v060
 BYTE   W12
 BYTE   EOT
 BYTE   Ds1
 BYTE   N36  Ds1  v068
 BYTE   W12
 BYTE   N48  Cn1
 BYTE   N24  Fs2  v060
 BYTE   W24
//  #06 //042   ----------------------------------------
 BYTE   TIE  Ds1  v096
 BYTE   N24  Fs2  v060
 BYTE   W24
//  #06 //043   ----------------------------------------
 BYTE   PATT
  POIN2 Label_01100D73
//  #06 //044   ----------------------------------------
 BYTE   EOT
 BYTE   Dn1
 BYTE   TIE  Dn1  v092
 BYTE   N24  Fs2  v060
 BYTE   W24
 BYTE   TIE
 BYTE   W12
 BYTE   N24  Cn1  v084
 BYTE   W12
 BYTE   EOT
 BYTE   Ds1
 BYTE   N48  Ds1  v068
 BYTE   W12
 BYTE   N12  Cn1
 BYTE   W12
 BYTE   EOT
 BYTE   Dn3
 BYTE   N36  Cn1
 BYTE   TIE  Dn3  v084
 BYTE   W24
//  #06 //045   ----------------------------------------
 BYTE   EOT
 BYTE   Gn1
 BYTE   TIE  Ds1  v096
 BYTE   TIE  Gn1  v084
 BYTE   W06
 BYTE   EOT
 BYTE   Fn1
 BYTE   TIE
 BYTE   W06
 BYTE   EOT
 BYTE   An2  v069
 BYTE   N12  Cn1
 BYTE   TIE  An2
 BYTE   TIE  An3
 BYTE   W06
 BYTE   EOT
 BYTE   Fs1
 BYTE   TIE
 BYTE   W06
 BYTE   EOT
 BYTE   Cs2
//  #06 //046   ----------------------------------------
 BYTE   PATT
  POIN2 Label_01100DE0
//  #06 //047   ----------------------------------------
 BYTE   EOT
 BYTE   Fs2
 BYTE   N24  Fs2  v060
 BYTE   W12
 BYTE   N48  Cn1  v068
 BYTE   W12
 BYTE   EOT
 BYTE   Dn1
 BYTE   N96  Dn1  v092
 BYTE   N24  Fs2  v060
 BYTE   W24
 BYTE   N24
 BYTE   W12
 BYTE   N48  Cn1  v084
 BYTE   W12
 BYTE   N24  Fs2  v060
 BYTE   W12
 BYTE   EOT
 BYTE   Ds1
 BYTE   TIE  Ds1  v068
 BYTE   W12
//  #06 //048   ----------------------------------------
 BYTE   N24  Fs2  v060
 BYTE   W12
 BYTE   N36  Cn1  v068
 BYTE   W12
 BYTE   N72  Dn1  v096
 BYTE   N24  Fs2  v060
 BYTE   W24
//  #06 //049   ----------------------------------------
 BYTE   PATT
  POIN2 Label_01100D3B
//  #06 //050   ----------------------------------------
 BYTE   EOT
 BYTE   Ds1
 BYTE   N36  Ds1  v068
 BYTE   W12
 BYTE   N24  Fs2  v060
 BYTE   W12
 BYTE   N36  Cn1  v068
 BYTE   W12
 BYTE   TIE  Ds1  v096
 BYTE   N24  Fs2  v060
 BYTE   W24
//  #06 //051   ----------------------------------------
 BYTE   PATT
  POIN2 Label_01100D73
//  #06 //052   ----------------------------------------
 BYTE   EOT
 BYTE   Dn1
 BYTE   TIE  Dn1  v092
 BYTE   N24  Fs2  v060
 BYTE   W24
 BYTE   N24
 BYTE   W12
 BYTE   N36  Cn1  v084
 BYTE   W12
 BYTE   N24  Fs2  v060
 BYTE   W12
 BYTE   EOT
 BYTE   Ds1
 BYTE   N36  Ds1  v068
 BYTE   W12
 BYTE   N48  Cn1
 BYTE   N24  Fs2  v060
 BYTE   W24
//  #06 //053   ----------------------------------------
 BYTE   TIE  Ds1  v096
 BYTE   N24  Fs2  v060
 BYTE   W24
//  #06 //054   ----------------------------------------
 BYTE   PATT
  POIN2 Label_01100D73
//  #06 //055   ----------------------------------------
 BYTE   EOT
 BYTE   Dn1
 BYTE   TIE  Dn1  v092
 BYTE   N24  Fs2  v060
 BYTE   W24
 BYTE   TIE
 BYTE   W12
 BYTE   N24  Cn1  v084
 BYTE   W12
 BYTE   EOT
 BYTE   Ds1
 BYTE   N48  Ds1  v068
 BYTE   W12
 BYTE   N12  Cn1
 BYTE   W12
 BYTE   EOT
 BYTE   Dn3
 BYTE   N36  Cn1
 BYTE   TIE  Dn3  v084
 BYTE   W24
//  #06 //056   ----------------------------------------
 BYTE   EOT
 BYTE   Gn1
 BYTE   TIE  Ds1  v096
 BYTE   TIE  Gn1  v084
 BYTE   W06
 BYTE   EOT
 BYTE   Fn1
 BYTE   TIE
 BYTE   W06
 BYTE   EOT
 BYTE   An2  v069
 BYTE   N12  Cn1
 BYTE   TIE  An2
 BYTE   TIE  An3
 BYTE   W06
 BYTE   EOT
 BYTE   Fs1
 BYTE   TIE
 BYTE   W06
 BYTE   EOT
 BYTE   Cs2
//  #06 //057   ----------------------------------------
 BYTE   PATT
  POIN2 Label_01100DE0
//  #06 //058   ----------------------------------------
 BYTE   EOT
 BYTE   Fs2
 BYTE   N24  Fs2  v060
 BYTE   W12
 BYTE   N48  Cn1  v068
 BYTE   W12
 BYTE   EOT
 BYTE   Dn1
 BYTE   N96  Dn1  v092
 BYTE   N24  Fs2  v060
 BYTE   W24
 BYTE   N24
 BYTE   W12
 BYTE   N48  Cn1  v084
 BYTE   W12
 BYTE   N24  Fs2  v060
 BYTE   W12
 BYTE   EOT
 BYTE   Ds1
 BYTE   TIE  Ds1  v068
 BYTE   W12
//  #06 //059   ----------------------------------------
 BYTE   N24  Fs2  v060
 BYTE   W12
 BYTE   N36  Cn1  v068
 BYTE   W12
 BYTE   N72  Dn1  v096
 BYTE   N24  Fs2  v060
 BYTE   W24
//  #06 //060   ----------------------------------------
 BYTE   PATT
  POIN2 Label_01100D3B
//  #06 //061   ----------------------------------------
 BYTE   EOT
 BYTE   Ds1
 BYTE   N36  Ds1  v068
 BYTE   W12
 BYTE   N24  Fs2  v060
 BYTE   W12
 BYTE   N36  Cn1  v068
 BYTE   W12
 BYTE   TIE  Ds1  v096
 BYTE   N24  Fs2  v060
 BYTE   W24
//  #06 //062   ----------------------------------------
 BYTE   PATT
  POIN2 Label_01100D73
//  #06 //063   ----------------------------------------
 BYTE   EOT
 BYTE   Dn1
 BYTE   TIE  Dn1  v092
 BYTE   N24  Fs2  v060
 BYTE   W24
 BYTE   N24
 BYTE   W12
 BYTE   N36  Cn1  v084
 BYTE   W12
 BYTE   N24  Fs2  v060
 BYTE   W12
 BYTE   EOT
 BYTE   Ds1
 BYTE   N36  Ds1  v068
 BYTE   W12
 BYTE   N48  Cn1
 BYTE   N24  Fs2  v060
 BYTE   W24
//  #06 //064   ----------------------------------------
 BYTE   TIE  Ds1  v096
 BYTE   N24  Fs2  v060
 BYTE   W24
//  #06 //065   ----------------------------------------
 BYTE   PATT
  POIN2 Label_01100D73
//  #06 //066   ----------------------------------------
 BYTE   EOT
 BYTE   Dn1
 BYTE   TIE  Dn1  v092
 BYTE   N24  Fs2  v060
 BYTE   W24
 BYTE   TIE
 BYTE   W12
 BYTE   N24  Cn1  v084
 BYTE   W12
 BYTE   EOT
 BYTE   Ds1
 BYTE   N48  Ds1  v068
 BYTE   W12
 BYTE   N12  Cn1
 BYTE   W12
 BYTE   EOT
 BYTE   Dn3
 BYTE   N36  Cn1
 BYTE   TIE  Dn3  v084
 BYTE   W24
//  #06 //067   ----------------------------------------
 BYTE   EOT
 BYTE   Gn1
 BYTE   TIE  Ds1  v096
 BYTE   TIE  Gn1  v084
 BYTE   W06
 BYTE   EOT
 BYTE   Fn1
 BYTE   TIE
 BYTE   W06
 BYTE   EOT
 BYTE   An2  v069
 BYTE   N12  Cn1
 BYTE   TIE  An2
 BYTE   TIE  An3
 BYTE   W06
 BYTE   EOT
 BYTE   Fs1
 BYTE   TIE
 BYTE   W06
 BYTE   EOT
 BYTE   Cs2
//  #06 //068   ----------------------------------------
 BYTE   PATT
  POIN2 Label_01100DE0
//  #06 //069   ----------------------------------------
 BYTE   EOT
 BYTE   Fs2
 BYTE   N24  Fs2  v060
 BYTE   W12
 BYTE   N48  Cn1  v068
 BYTE   W12
 BYTE   EOT
 BYTE   Dn1
 BYTE   N96  Dn1  v092
 BYTE   N24  Fs2  v060
 BYTE   W24
 BYTE   N24
 BYTE   W12
 BYTE   N48  Cn1  v084
 BYTE   W12
 BYTE   N24  Fs2  v060
 BYTE   W12
 BYTE   EOT
 BYTE   Ds1
 BYTE   TIE  Ds1  v068
 BYTE   W12
//  #06 //070   ----------------------------------------
 BYTE   N24  Fs2  v060
 BYTE   W12
 BYTE   N36  Cn1  v068
 BYTE   W12
 BYTE   N72  Dn1  v096
 BYTE   N24  Fs2  v060
 BYTE   W24
//  #06 //071   ----------------------------------------
 BYTE   PATT
  POIN2 Label_01100D3B
//  #06 //072   ----------------------------------------
 BYTE   EOT
 BYTE   Ds1
 BYTE   N36  Ds1  v068
 BYTE   W12
 BYTE   N24  Fs2  v060
 BYTE   W12
 BYTE   N36  Cn1  v068
 BYTE   W12
 BYTE   TIE  Ds1  v096
 BYTE   N24  Fs2  v060
 BYTE   W24
//  #06 //073   ----------------------------------------
 BYTE   PATT
  POIN2 Label_01100D73
//  #06 //074   ----------------------------------------
 BYTE   EOT
 BYTE   Dn1
 BYTE   TIE  Dn1  v092
 BYTE   N24  Fs2  v060
 BYTE   W24
 BYTE   N24
 BYTE   W12
 BYTE   N36  Cn1  v084
 BYTE   W12
 BYTE   N24  Fs2  v060
 BYTE   W12
 BYTE   EOT
 BYTE   Ds1
 BYTE   N36  Ds1  v068
 BYTE   W12
 BYTE   N48  Cn1
 BYTE   N24  Fs2  v060
 BYTE   W24
//  #06 //075   ----------------------------------------
 BYTE   TIE  Ds1  v096
 BYTE   N24  Fs2  v060
 BYTE   W24
//  #06 //076   ----------------------------------------
 BYTE   PATT
  POIN2 Label_01100D73
//  #06 //077   ----------------------------------------
 BYTE   EOT
 BYTE   Dn1
 BYTE   TIE  Dn1  v092
 BYTE   N24  Fs2  v060
 BYTE   W24
 BYTE   TIE
 BYTE   W12
 BYTE   N24  Cn1  v084
 BYTE   W12
 BYTE   EOT
 BYTE   Ds1
 BYTE   N48  Ds1  v068
 BYTE   W12
 BYTE   N12  Cn1
 BYTE   W12
 BYTE   EOT
 BYTE   Dn3
 BYTE   N36  Cn1
 BYTE   TIE  Dn3  v084
 BYTE   W24
//  #06 //078   ----------------------------------------
 BYTE   EOT
 BYTE   Gn1
 BYTE   TIE  Ds1  v096
 BYTE   TIE  Gn1  v084
 BYTE   W06
 BYTE   EOT
 BYTE   Fn1
 BYTE   TIE
 BYTE   W06
 BYTE   EOT
 BYTE   An2  v069
 BYTE   N12  Cn1
 BYTE   TIE  An2
 BYTE   TIE  An3
 BYTE   W06
 BYTE   EOT
 BYTE   Fs1
 BYTE   TIE
 BYTE   W06
 BYTE   EOT
 BYTE   Cs2
//  #06 //079   ----------------------------------------
 BYTE   PATT
  POIN2 Label_01100DE0
//  #06 //080   ----------------------------------------
 BYTE   EOT
 BYTE   Fs2
 BYTE   N24  Fs2  v060
 BYTE   W12
 BYTE   N48  Cn1  v068
 BYTE   W12
 BYTE   EOT
 BYTE   Dn1
 BYTE   N96  Dn1  v092
 BYTE   N24  Fs2  v060
 BYTE   W24
 BYTE   N24
 BYTE   W12
 BYTE   N48  Cn1  v084
 BYTE   W12
 BYTE   N24  Fs2  v060
 BYTE   W12
 BYTE   EOT
 BYTE   Ds1
 BYTE   TIE  Ds1  v068
 BYTE   W12
//  #06 //081   ----------------------------------------
 BYTE   N24  Fs2  v060
 BYTE   W12
 BYTE   N36  Cn1  v068
 BYTE   W12
 BYTE   N72  Dn1  v096
 BYTE   N24  Fs2  v060
 BYTE   W24
//  #06 //082   ----------------------------------------
 BYTE   PATT
  POIN2 Label_01100D3B
//  #06 //083   ----------------------------------------
 BYTE   EOT
 BYTE   Ds1
 BYTE   N36  Ds1  v068
 BYTE   W12
 BYTE   N24  Fs2  v060
 BYTE   W12
 BYTE   N36  Cn1  v068
 BYTE   W12
 BYTE   TIE  Ds1  v096
 BYTE   N24  Fs2  v060
 BYTE   W24
//  #06 //084   ----------------------------------------
 BYTE   PATT
  POIN2 Label_01100D73
//  #06 //085   ----------------------------------------
 BYTE   EOT
 BYTE   Dn1
 BYTE   TIE  Dn1  v092
 BYTE   N24  Fs2  v060
 BYTE   W24
 BYTE   N24
 BYTE   W12
 BYTE   N36  Cn1  v084
 BYTE   W12
 BYTE   N24  Fs2  v060
 BYTE   W12
 BYTE   EOT
 BYTE   Ds1
 BYTE   N36  Ds1  v068
 BYTE   W12
 BYTE   N48  Cn1
 BYTE   N24  Fs2  v060
 BYTE   W24
//  #06 //086   ----------------------------------------
 BYTE   TIE  Ds1  v096
 BYTE   N24  Fs2  v060
 BYTE   W24
//  #06 //087   ----------------------------------------
 BYTE   PATT
  POIN2 Label_01100D73
//  #06 //088   ----------------------------------------
 BYTE   EOT
 BYTE   Dn1
 BYTE   TIE  Dn1  v092
 BYTE   N24  Fs2  v060
 BYTE   W24
 BYTE   TIE
 BYTE   W12
 BYTE   N24  Cn1  v084
 BYTE   W12
 BYTE   EOT
 BYTE   Ds1
 BYTE   N48  Ds1  v068
 BYTE   W12
 BYTE   N12  Cn1
 BYTE   W12
 BYTE   EOT
 BYTE   Dn3
 BYTE   N36  Cn1
 BYTE   TIE  Dn3  v084
 BYTE   W24
//  #06 //089   ----------------------------------------
 BYTE   EOT
 BYTE   Gn1
 BYTE   TIE  Ds1  v096
 BYTE   TIE  Gn1  v084
 BYTE   W06
 BYTE   EOT
 BYTE   Fn1
 BYTE   TIE
 BYTE   W06
 BYTE   EOT
 BYTE   An2  v069
 BYTE   N12  Cn1
 BYTE   TIE  An2
 BYTE   TIE  An3
 BYTE   W06
 BYTE   EOT
 BYTE   Fs1
 BYTE   TIE
 BYTE   W06
 BYTE   EOT
 BYTE   Cs2
 BYTE   TIE  Cn1  v092
 BYTE   TIE  Cs2  v108
 BYTE   W96
//  #06 //090   ----------------------------------------
 BYTE   W72
 BYTE   W96
//  #06 //091   ----------------------------------------
 BYTE   W72
 BYTE   W96
//  #06 //092   ----------------------------------------
 BYTE   W72
 BYTE   W96
//  #06 //093   ----------------------------------------
 BYTE   W12
 BYTE   EOT
 BYTE   An3
 BYTE   TIE  An3  v096
 BYTE   W12
 BYTE   EOT
 BYTE   Fs1
 BYTE   TIE
 BYTE   W24
 BYTE   Ds2
 BYTE   W24
 BYTE   EOT
 BYTE   Cn1  v049
Label_01101331:
 BYTE   TIE  Cn1  v096
 BYTE   TIE  Cs2  v108
 BYTE   W96
//  #06 //094   ----------------------------------------
 BYTE   W72
 BYTE   PEND
 BYTE   W96
//  #06 //095   ----------------------------------------
 BYTE   W72
 BYTE   W96
//  #06 //096   ----------------------------------------
 BYTE   W72
 BYTE   W96
//  #06 //097   ----------------------------------------
 BYTE   W72
 BYTE   EOT
 BYTE   Cn1  v049
//  #06 //098   ----------------------------------------
 BYTE   PATT
  POIN2 Label_01101331
//  #06 //099   ----------------------------------------
 BYTE   W96
//  #06 //100   ----------------------------------------
 BYTE   W72
 BYTE   W96
//  #06 //101   ----------------------------------------
 BYTE   W72
 BYTE   W96
//  #06 //102   ----------------------------------------
 BYTE   W18
 BYTE   EOT
 BYTE   Fn1
 BYTE   TIE  Fn1  v096
 BYTE   W14
 BYTE   EOT
 BYTE   An3
 BYTE   TIE
 BYTE   W08
 BYTE   EOT
 BYTE   Fs1
 BYTE   TIE
 BYTE   W08
 BYTE   Fn3
 BYTE   W24
 BYTE   EOT
 BYTE   Cn1  v049
//  #06 //103   ----------------------------------------
 BYTE   PATT
  POIN2 Label_01101331
//  #06 //104   ----------------------------------------
 BYTE   W96
//  #06 //105   ----------------------------------------
 BYTE   W72
 BYTE   W96
//  #06 //106   ----------------------------------------
 BYTE   W72
 BYTE   W96
//  #06 //107   ----------------------------------------
 BYTE   W72
 BYTE   EOT
 BYTE   Cs2
 BYTE   TIE  Cs2  v096
 BYTE   W24
//  #06 //108   ----------------------------------------
 BYTE   EOT
 BYTE   Gn1
 BYTE   N72  Gn1  v108
 BYTE   W12
 BYTE   EOT
 BYTE   Cn1  v042
 BYTE   N12  Cn1  v096
 BYTE   N12  Fs1
 BYTE   W12
 BYTE   N24  Cn1
 BYTE   N60  Fs1
 BYTE   W12
 BYTE   EOT
 BYTE   Fn1
 BYTE   N72
 BYTE   W12
 BYTE   EOT
 BYTE   Fn3
 BYTE   N12  Cn1
 BYTE   N12  Fn3
 BYTE   W12
 BYTE   N24  Cn1
 BYTE   N60  Fn3
 BYTE   W12
 BYTE   N96  Gn1  v108
 BYTE   W12
 BYTE   N12  Cn1  v096
 BYTE   N12  Fs1
 BYTE   W12
//  #06 //109   ----------------------------------------
 BYTE   N24  Cn1
 BYTE   N84  Fs1
 BYTE   W12
 BYTE   N96  Fn1
 BYTE   W12
 BYTE   N12  Cn1
 BYTE   N12  Fn3
 BYTE   W12
 BYTE   N48  Cn1
 BYTE   N84  Fn3
 BYTE   W12
 BYTE   W24
 BYTE   N72  Gn1  v108
 BYTE   W12
 BYTE   N12  Cn1  v096
 BYTE   N12  Fs1
 BYTE   W12
//  #06 //110   ----------------------------------------
 BYTE   N24  Cn1
 BYTE   N60  Fs1
 BYTE   W12
 BYTE   N72  Fn1
 BYTE   W12
 BYTE   N12  Cn1
 BYTE   N12  Fn3
 BYTE   W12
 BYTE   N24  Cn1
 BYTE   N60  Fn3
 BYTE   W12
 BYTE   N96  Gn1  v108
 BYTE   W12
 BYTE   N12  Cn1  v096
 BYTE   N12  Fs1
 BYTE   W12
 BYTE   N24  Cn1
 BYTE   N96  Fs1
 BYTE   W12
 BYTE   N72  Fn1
 BYTE   W12
//  #06 //111   ----------------------------------------
 BYTE   N12  Cn1
 BYTE   N12  Fn3
 BYTE   W12
 BYTE   N48  Cn1
 BYTE   N66  Fn3
 BYTE   W12
 BYTE   W24
 BYTE   N72  Gn1  v108
 BYTE   W12
 BYTE   N12  Cn1  v096
 BYTE   N24  Fn1
 BYTE   W06
 BYTE   EOT
 BYTE   An3
 BYTE   N36
 BYTE   W06
 BYTE   N24  Cn1
 BYTE   N36  Fs1
 BYTE   W06
 BYTE   Fn3
 BYTE   W06
 BYTE   N12  Fn1
 BYTE   W12
//  #06 //112   ----------------------------------------
 BYTE   Cn1
 BYTE   N36  Fn1
 BYTE   W06
 BYTE   An3
 BYTE   W06
 BYTE   N24  Cn1
 BYTE   N36  Fs1
 BYTE   W06
 BYTE   Fn3
 BYTE   W06
 BYTE   TIE  Gn1  v108
 BYTE   W12
 BYTE   N12  Cn1  v096
 BYTE   N24  Fn1
 BYTE   W06
 BYTE   N36  An3
 BYTE   W06
 BYTE   N24  Cn1
 BYTE   N36  Fs1
 BYTE   W06
 BYTE   TIE  Fn3
 BYTE   W06
 BYTE   N12  Fn1
 BYTE   W12
 BYTE   TIE  Cn1
 BYTE   TIE  Fn1
 BYTE   W06
 BYTE   An3
 BYTE   W06
 BYTE   EOT
 BYTE   Dn1
 BYTE   TIE
 BYTE   TIE  Fs1
 BYTE   W12
//  #06 //113   ----------------------------------------
 BYTE   EOT
 BYTE   Cs2
 BYTE   TIE
 BYTE   W96
//  #06 //114   ----------------------------------------
 BYTE   W72
 BYTE   W96
//  #06 //115   ----------------------------------------
 BYTE   W72
 BYTE   W48
//  #06 //116   ----------------------------------------
 BYTE   GoTo
  POIN2 Label_01100CAD
//  #06 //117   ----------------------------------------
 BYTE   W96
//  #06 //118   ----------------------------------------
 BYTE   W24
 BYTE   W96
//  #06 //119   ----------------------------------------
 BYTE   W72
 BYTE   W24
//  #06 //120   ----------------------------------------
 BYTE   EOT
 BYTE   Cn2
 BYTE   N24  Cn2  v036
 BYTE   W12
 BYTE   EOT
 BYTE   Dn2
 BYTE   N24
 BYTE   W12
 BYTE   Cn2
 BYTE   W12
 BYTE   Dn2
 BYTE   W12
 BYTE   Cn2
 BYTE   W12
 BYTE   Dn2
 BYTE   W12
 BYTE   Cn2
 BYTE   W12
 BYTE   Dn2
 BYTE   W12
//  #06 //121   ----------------------------------------
 BYTE   Cn2
 BYTE   W12
 BYTE   Dn2
 BYTE   W12
 BYTE   Cn2
 BYTE   W12
 BYTE   Dn2
 BYTE   W12
 BYTE   Cn2
 BYTE   W12
 BYTE   Dn2
 BYTE   W12
 BYTE   Cn2
 BYTE   W12
 BYTE   Dn2
 BYTE   W12
//  #06 //122   ----------------------------------------
 BYTE   Cn2
 BYTE   W12
 BYTE   Dn2
 BYTE   W12
 BYTE   Cn2
 BYTE   W12
 BYTE   Dn2
 BYTE   W12
 BYTE   Cn2
 BYTE   W12
 BYTE   Dn2
 BYTE   W12
 BYTE   EOT
 BYTE   Ds1
 BYTE   N60  Ds1  v096
 BYTE   N24  Cn2  v036
 BYTE   W12
 BYTE   EOT
 BYTE   Cn1
 BYTE   N60  Cn1  v080
 BYTE   N24  Dn2  v036
 BYTE   W12
//  #06 //123   ----------------------------------------
 BYTE   EOT
 BYTE   Cs2
 BYTE   N24  Cn2
 BYTE   N48  Cs2  v096
 BYTE   W12
 BYTE   N24  Dn2  v036
 BYTE   W12
 BYTE   EOT
 BYTE   Dn1
 BYTE   N72  Dn1  v096
 BYTE   W12
 BYTE   TIE  Ds1
 BYTE   W06
 BYTE   EOT
 BYTE   En1
 BYTE   W06
 BYTE   N36  Cn1  v092
 BYTE   TIE  Cs2  v108
 BYTE   W24
 BYTE   EOT
 BYTE   Fs2
 BYTE   N24  Fs2  v060
 BYTE   W12
 BYTE   N48  Cn1  v068
 BYTE   W12
//  #06 //124   ----------------------------------------
 BYTE   N96  Dn1  v092
 BYTE   N24  Fs2  v060
 BYTE   W24
 BYTE   N24
 BYTE   W12
 BYTE   N48  Cn1  v084
 BYTE   W12
 BYTE   N24  Fs2  v060
 BYTE   W12
 BYTE   EOT
 BYTE   Ds1
 BYTE   TIE  Ds1  v068
 BYTE   W12
 BYTE   N24  Fs2  v060
 BYTE   W12
 BYTE   N36  Cn1  v068
 BYTE   W12
//  #06 //125   ----------------------------------------
Label_011014D4:
 BYTE   N72  Dn1  v096
 BYTE   N24  Fs2  v060
 BYTE   W24
 BYTE   Cn1  v100
 BYTE   N24  Fs2  v088
 BYTE   W24
 BYTE   N12  Cn1
 BYTE   N24  Fs2  v060
 BYTE   W12
 BYTE   N48  Cn1  v088
 BYTE   W12
 BYTE   TIE  Dn1  v092
 BYTE   N24  Fs2  v060
 BYTE   W24
//  #06 //126   ----------------------------------------
 BYTE   N24
 BYTE   W12
 BYTE   N48  Cn1  v084
 BYTE   W12
 BYTE   N24  Fs2  v060
 BYTE   W12
 BYTE   PEND
 BYTE   EOT
 BYTE   Ds1
 BYTE   N36  Ds1  v068
 BYTE   W12
 BYTE   N24  Fs2  v060
 BYTE   W12
 BYTE   N36  Cn1  v068
 BYTE   W12
Label_0110150B:
 BYTE   TIE  Ds1  v096
 BYTE   N24  Fs2  v060
 BYTE   W24
//  #06 //127   ----------------------------------------
 BYTE   Cn1  v100
 BYTE   N24  Fs2  v088
 BYTE   W24
 BYTE   N12  Cn1
 BYTE   N24  Fs2  v060
 BYTE   W12
 BYTE   N48  Cn1  v088
 BYTE   W12
 BYTE   PEND
 BYTE   EOT
 BYTE   Dn1
 BYTE   TIE  Dn1  v092
 BYTE   N24  Fs2  v060
 BYTE   W24
 BYTE   N24
 BYTE   W12
 BYTE   N36  Cn1  v084
 BYTE   W12
//  #06 //128   ----------------------------------------
 BYTE   N24  Fs2  v060
 BYTE   W12
 BYTE   EOT
 BYTE   Ds1
 BYTE   N36  Ds1  v068
 BYTE   W12
 BYTE   N48  Cn1
 BYTE   N24  Fs2  v060
 BYTE   W24
//  #06 //129   ----------------------------------------
 BYTE   PATT
  POIN2 Label_0110150B
//  #06 //130   ----------------------------------------
 BYTE   EOT
 BYTE   Dn1
 BYTE   TIE  Dn1  v092
 BYTE   N24  Fs2  v060
 BYTE   W24
 BYTE   TIE
 BYTE   W12
 BYTE   N24  Cn1  v084
 BYTE   W12
 BYTE   EOT
 BYTE   Ds1
 BYTE   N48  Ds1  v068
 BYTE   W12
 BYTE   N12  Cn1
 BYTE   W12
 BYTE   EOT
 BYTE   Dn3
 BYTE   N36  Cn1
 BYTE   TIE  Dn3  v084
 BYTE   W24
//  #06 //131   ----------------------------------------
 BYTE   EOT
 BYTE   Gn1
Label_01101569:
 BYTE   TIE  Ds1  v096
 BYTE   TIE  Gn1  v084
 BYTE   W06
 BYTE   PEND
 BYTE   EOT
 BYTE   Fn1
 BYTE   TIE
 BYTE   W06
 BYTE   EOT
 BYTE   Cs1  v069
 BYTE   N12  Cn1
 BYTE   TIE  An3
 BYTE   W06
 BYTE   EOT
 BYTE   Fs1
 BYTE   TIE
 BYTE   W06
 BYTE   EOT
 BYTE   Cs2
 BYTE   N36  Cn1  v092
 BYTE   TIE  Cs2  v108
 BYTE   W24
 BYTE   EOT
 BYTE   Fs2
 BYTE   N24  Fs2  v060
 BYTE   W12
 BYTE   N48  Cn1  v068
 BYTE   W12
 BYTE   EOT
 BYTE   Dn1
 BYTE   N96  Dn1  v092
 BYTE   N24  Fs2  v060
 BYTE   W24
//  #06 //132   ----------------------------------------
 BYTE   N24
 BYTE   W12
 BYTE   N48  Cn1  v084
 BYTE   W12
 BYTE   N24  Fs2  v060
 BYTE   W12
 BYTE   EOT
 BYTE   Ds1
 BYTE   TIE  Ds1  v068
 BYTE   W12
 BYTE   N24  Fs2  v060
 BYTE   W12
 BYTE   N36  Cn1  v068
 BYTE   W12
//  #06 //133   ----------------------------------------
 BYTE   PATT
  POIN2 Label_011014D4
//  #06 //134   ----------------------------------------
 BYTE   EOT
 BYTE   Ds1
 BYTE   N36  Ds1  v068
 BYTE   W12
 BYTE   N24  Fs2  v060
 BYTE   W12
 BYTE   N36  Cn1  v068
 BYTE   W12
//  #06 //135   ----------------------------------------
 BYTE   PATT
  POIN2 Label_0110150B
//  #06 //136   ----------------------------------------
 BYTE   EOT
 BYTE   Dn1
 BYTE   TIE  Dn1  v092
 BYTE   N24  Fs2  v060
 BYTE   W24
 BYTE   N24
 BYTE   W12
 BYTE   N36  Cn1  v084
 BYTE   W12
 BYTE   N24  Fs2  v060
 BYTE   W12
 BYTE   EOT
 BYTE   Ds1
 BYTE   N36  Ds1  v068
 BYTE   W12
 BYTE   N48  Cn1
 BYTE   N24  Fs2  v060
 BYTE   W24
//  #06 //137   ----------------------------------------
 BYTE   PATT
  POIN2 Label_0110150B
//  #06 //138   ----------------------------------------
 BYTE   EOT
 BYTE   Dn1
 BYTE   TIE  Dn1  v092
 BYTE   N24  Fs2  v060
 BYTE   W24
 BYTE   TIE
 BYTE   W12
 BYTE   N24  Cn1  v084
 BYTE   W12
 BYTE   EOT
 BYTE   Ds1
 BYTE   N48  Ds1  v068
 BYTE   W12
 BYTE   N12  Cn1
 BYTE   W12
 BYTE   EOT
 BYTE   Dn3
 BYTE   N36  Cn1
 BYTE   TIE  Dn3  v084
 BYTE   W24
//  #06 //139   ----------------------------------------
 BYTE   EOT
 BYTE   Gn1
//  #06 //140   ----------------------------------------
 BYTE   PATT
  POIN2 Label_01101569
//  #06 //141   ----------------------------------------
 BYTE   EOT
 BYTE   Fn1
 BYTE   TIE  Fn1  v084
 BYTE   W06
 BYTE   EOT
 BYTE   An2  v069
 BYTE   N12  Cn1
 BYTE   TIE  An2
 BYTE   TIE  An3
 BYTE   W06
 BYTE   EOT
 BYTE   Fs1
 BYTE   TIE
 BYTE   W06
 BYTE   EOT
 BYTE   Cs2
 BYTE   N36  Cn1  v092
 BYTE   TIE  Cs2  v108
 BYTE   W24
 BYTE   EOT
 BYTE   Fs2
 BYTE   N24  Fs2  v060
 BYTE   W12
 BYTE   N48  Cn1  v068
 BYTE   W12
 BYTE   EOT
 BYTE   Dn1
 BYTE   N96  Dn1  v092
 BYTE   N24  Fs2  v060
 BYTE   W24
 BYTE   N24
 BYTE   W12
//  #06 //142   ----------------------------------------
 BYTE   N48  Cn1  v084
 BYTE   W12
 BYTE   N24  Fs2  v060
 BYTE   W12
 BYTE   EOT
 BYTE   Ds1
 BYTE   TIE  Ds1  v068
 BYTE   W12
 BYTE   N24  Fs2  v060
 BYTE   W12
 BYTE   N36  Cn1  v068
 BYTE   W12
//  #06 //143   ----------------------------------------
 BYTE   PATT
  POIN2 Label_011014D4
//  #06 //144   ----------------------------------------
 BYTE   EOT
 BYTE   Ds1
 BYTE   N36  Ds1  v068
 BYTE   W12
 BYTE   N24  Fs2  v060
 BYTE   W12
 BYTE   N36  Cn1  v068
 BYTE   W12
//  #06 //145   ----------------------------------------
 BYTE   PATT
  POIN2 Label_0110150B
//  #06 //146   ----------------------------------------
 BYTE   EOT
 BYTE   Dn1
 BYTE   TIE  Dn1  v092
 BYTE   N24  Fs2  v060
 BYTE   W24
 BYTE   N24
 BYTE   W12
 BYTE   N36  Cn1  v084
 BYTE   W12
 BYTE   N24  Fs2  v060
 BYTE   W12
 BYTE   EOT
 BYTE   Ds1
 BYTE   N36  Ds1  v068
 BYTE   W12
 BYTE   N48  Cn1
 BYTE   N24  Fs2  v060
 BYTE   W24
//  #06 //147   ----------------------------------------
 BYTE   PATT
  POIN2 Label_0110150B
//  #06 //148   ----------------------------------------
 BYTE   EOT
 BYTE   Dn1
 BYTE   TIE  Dn1  v092
 BYTE   N24  Fs2  v060
 BYTE   W24
 BYTE   TIE
 BYTE   W12
 BYTE   N24  Cn1  v084
 BYTE   W12
 BYTE   EOT
 BYTE   Ds1
 BYTE   N48  Ds1  v068
 BYTE   W12
 BYTE   N12  Cn1
 BYTE   W12
 BYTE   EOT
 BYTE   Dn3
 BYTE   N36  Cn1
 BYTE   TIE  Dn3  v084
 BYTE   W24
//  #06 //149   ----------------------------------------
 BYTE   EOT
 BYTE   Gn1
//  #06 //150   ----------------------------------------
 BYTE   PATT
  POIN2 Label_01101569
//  #06 //151   ----------------------------------------
 BYTE   EOT
 BYTE   Fn1
 BYTE   TIE  Fn1  v084
 BYTE   W06
 BYTE   EOT
 BYTE   An2  v069
 BYTE   N12  Cn1
 BYTE   TIE  An2
 BYTE   TIE  An3
 BYTE   W06
 BYTE   EOT
 BYTE   Fs1
 BYTE   TIE
 BYTE   W06
 BYTE   EOT
 BYTE   Cs2
 BYTE   N36  Cn1  v092
 BYTE   TIE  Cs2  v108
 BYTE   W24
 BYTE   EOT
 BYTE   Fs2
 BYTE   N24  Fs2  v060
 BYTE   W12
 BYTE   N48  Cn1  v068
 BYTE   W12
 BYTE   EOT
 BYTE   Dn1
 BYTE   N96  Dn1  v092
 BYTE   N24  Fs2  v060
 BYTE   W24
 BYTE   N24
 BYTE   W12
//  #06 //152   ----------------------------------------
 BYTE   N48  Cn1  v084
 BYTE   W12
 BYTE   N24  Fs2  v060
 BYTE   W12
 BYTE   EOT
 BYTE   Ds1
 BYTE   TIE  Ds1  v068
 BYTE   W12
 BYTE   N24  Fs2  v060
 BYTE   W12
 BYTE   N36  Cn1  v068
 BYTE   W12
//  #06 //153   ----------------------------------------
 BYTE   PATT
  POIN2 Label_011014D4
//  #06 //154   ----------------------------------------
 BYTE   EOT
 BYTE   Ds1
 BYTE   N36  Ds1  v068
 BYTE   W12
 BYTE   N24  Fs2  v060
 BYTE   W12
 BYTE   N36  Cn1  v068
 BYTE   W12
//  #06 //155   ----------------------------------------
 BYTE   PATT
  POIN2 Label_0110150B
//  #06 //156   ----------------------------------------
 BYTE   EOT
 BYTE   Dn1
 BYTE   TIE  Dn1  v092
 BYTE   N24  Fs2  v060
 BYTE   W24
 BYTE   N24
 BYTE   W12
 BYTE   N36  Cn1  v084
 BYTE   W12
 BYTE   N24  Fs2  v060
 BYTE   W12
 BYTE   EOT
 BYTE   Ds1
 BYTE   N36  Ds1  v068
 BYTE   W12
 BYTE   N48  Cn1
 BYTE   N24  Fs2  v060
 BYTE   W24
//  #06 //157   ----------------------------------------
 BYTE   PATT
  POIN2 Label_0110150B
//  #06 //158   ----------------------------------------
 BYTE   EOT
 BYTE   Dn1
 BYTE   TIE  Dn1  v092
 BYTE   N24  Fs2  v060
 BYTE   W24
 BYTE   TIE
 BYTE   W12
 BYTE   N24  Cn1  v084
 BYTE   W12
 BYTE   EOT
 BYTE   Ds1
 BYTE   N48  Ds1  v068
 BYTE   W12
 BYTE   N12  Cn1
 BYTE   W12
 BYTE   EOT
 BYTE   Dn3
 BYTE   N36  Cn1
 BYTE   TIE  Dn3  v084
 BYTE   W24
//  #06 //159   ----------------------------------------
 BYTE   EOT
 BYTE   Gn1
//  #06 //160   ----------------------------------------
 BYTE   PATT
  POIN2 Label_01101569
//  #06 //161   ----------------------------------------
 BYTE   EOT
 BYTE   Fn1
 BYTE   TIE  Fn1  v084
 BYTE   W06
 BYTE   EOT
 BYTE   An2  v069
 BYTE   N12  Cn1
 BYTE   TIE  An2
 BYTE   TIE  An3
 BYTE   W06
 BYTE   EOT
 BYTE   Fs1
 BYTE   TIE
 BYTE   W06
 BYTE   EOT
 BYTE   Cs2
 BYTE   N36  Cn1  v092
 BYTE   TIE  Cs2  v108
 BYTE   W24
 BYTE   EOT
 BYTE   Fs2
 BYTE   N24  Fs2  v060
 BYTE   W12
 BYTE   N48  Cn1  v068
 BYTE   W12
 BYTE   EOT
 BYTE   Dn1
 BYTE   N96  Dn1  v092
 BYTE   N24  Fs2  v060
 BYTE   W24
 BYTE   N24
 BYTE   W12
//  #06 //162   ----------------------------------------
 BYTE   N48  Cn1  v084
 BYTE   W12
 BYTE   N24  Fs2  v060
 BYTE   W12
 BYTE   EOT
 BYTE   Ds1
 BYTE   TIE  Ds1  v068
 BYTE   W12
 BYTE   N24  Fs2  v060
 BYTE   W12
 BYTE   N36  Cn1  v068
 BYTE   W12
//  #06 //163   ----------------------------------------
 BYTE   PATT
  POIN2 Label_011014D4
//  #06 //164   ----------------------------------------
 BYTE   EOT
 BYTE   Ds1
 BYTE   N36  Ds1  v068
 BYTE   W12
 BYTE   N24  Fs2  v060
 BYTE   W12
 BYTE   N36  Cn1  v068
 BYTE   W12
//  #06 //165   ----------------------------------------
 BYTE   PATT
  POIN2 Label_0110150B
//  #06 //166   ----------------------------------------
 BYTE   EOT
 BYTE   Dn1
 BYTE   TIE  Dn1  v092
 BYTE   N24  Fs2  v060
 BYTE   W24
 BYTE   N24
 BYTE   W12
 BYTE   N36  Cn1  v084
 BYTE   W12
 BYTE   N24  Fs2  v060
 BYTE   W12
 BYTE   EOT
 BYTE   Ds1
 BYTE   N36  Ds1  v068
 BYTE   W12
 BYTE   N48  Cn1
 BYTE   N24  Fs2  v060
 BYTE   W24
//  #06 //167   ----------------------------------------
 BYTE   PATT
  POIN2 Label_0110150B
//  #06 //168   ----------------------------------------
 BYTE   EOT
 BYTE   Dn1
 BYTE   TIE  Dn1  v092
 BYTE   N24  Fs2  v060
 BYTE   W24
 BYTE   TIE
 BYTE   W12
 BYTE   N24  Cn1  v084
 BYTE   W12
 BYTE   EOT
 BYTE   Ds1
 BYTE   N48  Ds1  v068
 BYTE   W12
 BYTE   N12  Cn1
 BYTE   W12
 BYTE   EOT
 BYTE   Dn3
 BYTE   N36  Cn1
 BYTE   TIE  Dn3  v084
 BYTE   W24
//  #06 //169   ----------------------------------------
 BYTE   EOT
 BYTE   Gn1
//  #06 //170   ----------------------------------------
 BYTE   PATT
  POIN2 Label_01101569
//  #06 //171   ----------------------------------------
 BYTE   EOT
 BYTE   Fn1
 BYTE   TIE  Fn1  v084
 BYTE   W06
 BYTE   EOT
 BYTE   An2  v069
 BYTE   N12  Cn1
 BYTE   TIE  An2
 BYTE   TIE  An3
 BYTE   W06
 BYTE   EOT
 BYTE   Fs1
 BYTE   TIE
 BYTE   W06
 BYTE   EOT
 BYTE   Cs2
 BYTE   N36  Cn1  v092
 BYTE   TIE  Cs2  v108
 BYTE   W24
 BYTE   EOT
 BYTE   Fs2
 BYTE   N24  Fs2  v060
 BYTE   W12
 BYTE   N48  Cn1  v068
 BYTE   W12
 BYTE   EOT
 BYTE   Dn1
 BYTE   N96  Dn1  v092
 BYTE   N24  Fs2  v060
 BYTE   W24
 BYTE   N24
 BYTE   W12
//  #06 //172   ----------------------------------------
 BYTE   N48  Cn1  v084
 BYTE   W12
 BYTE   N24  Fs2  v060
 BYTE   W12
 BYTE   EOT
 BYTE   Ds1
 BYTE   TIE  Ds1  v068
 BYTE   W12
 BYTE   N24  Fs2  v060
 BYTE   W12
 BYTE   N36  Cn1  v068
 BYTE   W12
//  #06 //173   ----------------------------------------
 BYTE   PATT
  POIN2 Label_011014D4
//  #06 //174   ----------------------------------------
 BYTE   EOT
 BYTE   Ds1
 BYTE   N36  Ds1  v068
 BYTE   W12
 BYTE   N24  Fs2  v060
 BYTE   W12
 BYTE   N36  Cn1  v068
 BYTE   W12
//  #06 //175   ----------------------------------------
 BYTE   PATT
  POIN2 Label_0110150B
//  #06 //176   ----------------------------------------
 BYTE   EOT
 BYTE   Dn1
 BYTE   TIE  Dn1  v092
 BYTE   N24  Fs2  v060
 BYTE   W24
 BYTE   N24
 BYTE   W12
 BYTE   N36  Cn1  v084
 BYTE   W12
 BYTE   N24  Fs2  v060
 BYTE   W12
 BYTE   EOT
 BYTE   Ds1
 BYTE   N36  Ds1  v068
 BYTE   W12
 BYTE   N48  Cn1
 BYTE   N24  Fs2  v060
 BYTE   W24
//  #06 //177   ----------------------------------------
 BYTE   PATT
  POIN2 Label_0110150B
//  #06 //178   ----------------------------------------
 BYTE   EOT
 BYTE   Dn1
 BYTE   TIE  Dn1  v092
 BYTE   N24  Fs2  v060
 BYTE   W24
 BYTE   TIE
 BYTE   W12
 BYTE   N24  Cn1  v084
 BYTE   W12
 BYTE   EOT
 BYTE   Ds1
 BYTE   N48  Ds1  v068
 BYTE   W12
 BYTE   N12  Cn1
 BYTE   W12
 BYTE   EOT
 BYTE   Dn3
 BYTE   N36  Cn1
 BYTE   TIE  Dn3  v084
 BYTE   W24
//  #06 //179   ----------------------------------------
 BYTE   EOT
 BYTE   Gn1
//  #06 //180   ----------------------------------------
 BYTE   PATT
  POIN2 Label_01101569
//  #06 //181   ----------------------------------------
 BYTE   EOT
 BYTE   Fn1
 BYTE   TIE  Fn1  v084
 BYTE   W06
 BYTE   EOT
 BYTE   An2  v069
 BYTE   N12  Cn1
 BYTE   TIE  An2
 BYTE   TIE  An3
 BYTE   W06
 BYTE   EOT
 BYTE   Fs1
 BYTE   TIE
 BYTE   W06
 BYTE   EOT
 BYTE   Cs2
 BYTE   N36  Cn1  v092
 BYTE   TIE  Cs2  v108
 BYTE   W24
 BYTE   EOT
 BYTE   Fs2
 BYTE   N24  Fs2  v060
 BYTE   W12
 BYTE   N48  Cn1  v068
 BYTE   W12
 BYTE   EOT
 BYTE   Dn1
 BYTE   N96  Dn1  v092
 BYTE   N24  Fs2  v060
 BYTE   W24
 BYTE   N24
 BYTE   W12
//  #06 //182   ----------------------------------------
 BYTE   N48  Cn1  v084
 BYTE   W12
 BYTE   N24  Fs2  v060
 BYTE   W12
 BYTE   EOT
 BYTE   Ds1
 BYTE   TIE  Ds1  v068
 BYTE   W12
 BYTE   N24  Fs2  v060
 BYTE   W12
 BYTE   N36  Cn1  v068
 BYTE   W12
//  #06 //183   ----------------------------------------
 BYTE   PATT
  POIN2 Label_011014D4
//  #06 //184   ----------------------------------------
 BYTE   EOT
 BYTE   Ds1
 BYTE   N36  Ds1  v068
 BYTE   W12
 BYTE   N24  Fs2  v060
 BYTE   W12
 BYTE   N36  Cn1  v068
 BYTE   W12
//  #06 //185   ----------------------------------------
 BYTE   PATT
  POIN2 Label_0110150B
//  #06 //186   ----------------------------------------
 BYTE   EOT
 BYTE   Dn1
 BYTE   TIE  Dn1  v092
 BYTE   N24  Fs2  v060
 BYTE   W24
 BYTE   N24
 BYTE   W12
 BYTE   N36  Cn1  v084
 BYTE   W12
 BYTE   N24  Fs2  v060
 BYTE   W12
 BYTE   EOT
 BYTE   Ds1
 BYTE   N36  Ds1  v068
 BYTE   W12
 BYTE   N48  Cn1
 BYTE   N24  Fs2  v060
 BYTE   W24
//  #06 //187   ----------------------------------------
 BYTE   PATT
  POIN2 Label_0110150B
//  #06 //188   ----------------------------------------
 BYTE   EOT
 BYTE   Dn1
 BYTE   TIE  Dn1  v092
 BYTE   N24  Fs2  v060
 BYTE   W24
 BYTE   TIE
 BYTE   W12
 BYTE   N24  Cn1  v084
 BYTE   W12
 BYTE   EOT
 BYTE   Ds1
 BYTE   N48  Ds1  v068
 BYTE   W12
 BYTE   N12  Cn1
 BYTE   W12
 BYTE   EOT
 BYTE   Dn3
 BYTE   N36  Cn1
 BYTE   TIE  Dn3  v084
 BYTE   W24
//  #06 //189   ----------------------------------------
 BYTE   EOT
 BYTE   Gn1
//  #06 //190   ----------------------------------------
 BYTE   PATT
  POIN2 Label_01101569
//  #06 //191   ----------------------------------------
 BYTE   EOT
 BYTE   Fn1
 BYTE   TIE  Fn1  v084
 BYTE   W06
 BYTE   EOT
 BYTE   An2  v069
 BYTE   N12  Cn1
 BYTE   TIE  An2
 BYTE   TIE  An3
 BYTE   W06
 BYTE   EOT
 BYTE   Fs1
 BYTE   TIE
 BYTE   W06
 BYTE   EOT
 BYTE   Cs2
 BYTE   N36  Cn1  v092
 BYTE   TIE  Cs2  v108
 BYTE   W24
 BYTE   EOT
 BYTE   Fs2
 BYTE   N24  Fs2  v060
 BYTE   W12
 BYTE   N48  Cn1  v068
 BYTE   W12
 BYTE   EOT
 BYTE   Dn1
 BYTE   N96  Dn1  v092
 BYTE   N24  Fs2  v060
 BYTE   W24
 BYTE   N24
 BYTE   W12
//  #06 //192   ----------------------------------------
 BYTE   N48  Cn1  v084
 BYTE   W12
 BYTE   N24  Fs2  v060
 BYTE   W12
 BYTE   EOT
 BYTE   Ds1
 BYTE   TIE  Ds1  v068
 BYTE   W12
 BYTE   N24  Fs2  v060
 BYTE   W12
 BYTE   N36  Cn1  v068
 BYTE   W12
//  #06 //193   ----------------------------------------
 BYTE   PATT
  POIN2 Label_011014D4
//  #06 //194   ----------------------------------------
 BYTE   EOT
 BYTE   Ds1
 BYTE   N36  Ds1  v068
 BYTE   W12
 BYTE   N24  Fs2  v060
 BYTE   W12
 BYTE   N36  Cn1  v068
 BYTE   W12
//  #06 //195   ----------------------------------------
 BYTE   PATT
  POIN2 Label_0110150B
//  #06 //196   ----------------------------------------
 BYTE   EOT
 BYTE   Dn1
 BYTE   TIE  Dn1  v092
 BYTE   N24  Fs2  v060
 BYTE   W24
 BYTE   N24
 BYTE   W12
 BYTE   N36  Cn1  v084
 BYTE   W12
 BYTE   N24  Fs2  v060
 BYTE   W12
 BYTE   EOT
 BYTE   Ds1
 BYTE   N36  Ds1  v068
 BYTE   W12
 BYTE   N48  Cn1
 BYTE   N24  Fs2  v060
 BYTE   W24
//  #06 //197   ----------------------------------------
 BYTE   PATT
  POIN2 Label_0110150B
//  #06 //198   ----------------------------------------
 BYTE   EOT
 BYTE   Dn1
 BYTE   TIE  Dn1  v092
 BYTE   N24  Fs2  v060
 BYTE   W36
 BYTE   Cn1  v084
 BYTE   W12
 BYTE   EOT
 BYTE   Ds1
 BYTE   N48  Ds1  v068
 BYTE   W12
 BYTE   N12  Cn1
 BYTE   W12
 BYTE   EOT
 BYTE   Dn3
 BYTE   N36  Cn1
 BYTE   W24
//  #06 //199   ----------------------------------------
 BYTE   EOT
 BYTE   Gn1
 BYTE   TIE  Gn1  v084
 BYTE   W06
 BYTE   EOT
 BYTE   Fn1
 BYTE   TIE
 BYTE   W06
 BYTE   EOT
 BYTE   An2  v069
 BYTE   N12  Cn1
 BYTE   TIE  An3
 BYTE   W06
 BYTE   EOT
 BYTE   Fs1
 BYTE   TIE
 BYTE   W06
 BYTE   EOT
 BYTE   Cs2
 BYTE   TIE  Cn1  v092
 BYTE   TIE  Cs2  v108
 BYTE   W96
//  #06 //200   ----------------------------------------
 BYTE   W48
 BYTE   W96
//  #06 //201   ----------------------------------------
 BYTE   W72
 BYTE   W96
//  #06 //202   ----------------------------------------
 BYTE   W72
 BYTE   W96
//  #06 //203   ----------------------------------------
 BYTE   W36
 BYTE   EOT
 BYTE   An3
 BYTE   TIE  An3  v096
 BYTE   W12
 BYTE   EOT
 BYTE   Fs1
 BYTE   TIE
 BYTE   W24
 BYTE   EOT
 BYTE   Ds2
 BYTE   W24
//  #06 //204   ----------------------------------------
 BYTE   Cn1  v049
 BYTE   TIE  Cn1
 BYTE   TIE  Cs2  v108
 BYTE   W96
//  #06 //205   ----------------------------------------
 BYTE   W48
 BYTE   W96
//  #06 //206   ----------------------------------------
 BYTE   W72
 BYTE   W96
//  #06 //207   ----------------------------------------
 BYTE   W72
 BYTE   W96
//  #06 //208   ----------------------------------------
 BYTE   W72
 BYTE   W24
//  #06 //209   ----------------------------------------
 BYTE   EOT
 BYTE   Cn1  v049
 BYTE   TIE  Cn1  v096
 BYTE   TIE  Cs2  v108
 BYTE   W96
//  #06 //210   ----------------------------------------
 BYTE   W48
 BYTE   W96
//  #06 //211   ----------------------------------------
 BYTE   W72
 BYTE   W96
//  #06 //212   ----------------------------------------
 BYTE   W72
 BYTE   W96
//  #06 //213   ----------------------------------------
 BYTE   W42
 BYTE   EOT
 BYTE   Fn1
 BYTE   TIE  Fn1  v096
 BYTE   W14
 BYTE   EOT
 BYTE   An3
 BYTE   TIE
 BYTE   W08
 BYTE   EOT
 BYTE   Fs1
 BYTE   TIE
 BYTE   W08
 BYTE   EOT
 BYTE   Fn3
 BYTE   TIE
 BYTE   W24
//  #06 //214   ----------------------------------------
 BYTE   EOT
 BYTE   Cn1  v049
 BYTE   TIE  Cn1
 BYTE   TIE  Cs2  v108
 BYTE   W96
//  #06 //215   ----------------------------------------
 BYTE   W48
 BYTE   W96
//  #06 //216   ----------------------------------------
 BYTE   W72
 BYTE   W96
//  #06 //217   ----------------------------------------
 BYTE   W72
 BYTE   W96
//  #06 //218   ----------------------------------------
 BYTE   W72
 BYTE   W24
//  #06 //219   ----------------------------------------
 BYTE   EOT
 BYTE   TIE  Cs2  v096
 BYTE   W24
 BYTE   EOT
 BYTE   Gn1
 BYTE   N72  Gn1  v108
 BYTE   W12
 BYTE   EOT
 BYTE   Cn1  v042
 BYTE   N12  Cn1  v096
 BYTE   N12  Fs1
 BYTE   W12
 BYTE   N24  Cn1
 BYTE   N60  Fs1
 BYTE   W12
 BYTE   EOT
 BYTE   Fn1
 BYTE   N72
 BYTE   W12
 BYTE   EOT
 BYTE   Fn3
 BYTE   N12  Cn1
 BYTE   N12  Fn3
 BYTE   W12
 BYTE   N24  Cn1
 BYTE   N60  Fn3
 BYTE   W12
//  #06 //220   ----------------------------------------
 BYTE   N96  Gn1  v108
 BYTE   W12
 BYTE   N12  Cn1  v096
 BYTE   N12  Fs1
 BYTE   W12
 BYTE   N24  Cn1
 BYTE   N84  Fs1
 BYTE   W12
 BYTE   N96  Fn1
 BYTE   W12
 BYTE   N12  Cn1
 BYTE   N12  Fn3
 BYTE   W12
 BYTE   N48  Cn1
 BYTE   N84  Fn3
 BYTE   W36
//  #06 //221   ----------------------------------------
 BYTE   N72  Gn1  v108
 BYTE   W12
 BYTE   N12  Cn1  v096
 BYTE   N12  Fs1
 BYTE   W12
 BYTE   N24  Cn1
 BYTE   N60  Fs1
 BYTE   W12
 BYTE   N72  Fn1
 BYTE   W12
 BYTE   N12  Cn1
 BYTE   N12  Fn3
 BYTE   W12
 BYTE   N24  Cn1
 BYTE   N60  Fn3
 BYTE   W12
 BYTE   N96  Gn1  v108
 BYTE   W12
 BYTE   N12  Cn1  v096
 BYTE   N12  Fs1
 BYTE   W12
//  #06 //222   ----------------------------------------
 BYTE   N24  Cn1
 BYTE   N96  Fs1
 BYTE   W12
 BYTE   N72  Fn1
 BYTE   W12
 BYTE   N12  Cn1
 BYTE   N12  Fn3
 BYTE   W12
 BYTE   N48  Cn1
 BYTE   N66  Fn3
 BYTE   W36
 BYTE   N72  Gn1  v108
 BYTE   W12
 BYTE   N12  Cn1  v096
 BYTE   N24  Fn1
 BYTE   W06
 BYTE   EOT
 BYTE   An3
 BYTE   N36
 BYTE   W06
//  #06 //223   ----------------------------------------
 BYTE   N24  Cn1
 BYTE   N36  Fs1
 BYTE   W06
 BYTE   Fn3
 BYTE   W06
 BYTE   N12  Fn1
 BYTE   W12
 BYTE   Cn1
 BYTE   N36  Fn1
 BYTE   W06
 BYTE   An3
 BYTE   W06
 BYTE   N24  Cn1
 BYTE   N36  Fs1
 BYTE   W06
 BYTE   Fn3
 BYTE   W18
 BYTE   N12  Cn1
 BYTE   N24  Fn1
 BYTE   W06
 BYTE   N36  An3
 BYTE   W06
 BYTE   N24  Cn1
 BYTE   N36  Fs1
 BYTE   W12
 BYTE   N12  Fn1
 BYTE   W12
//  #06 //224   ----------------------------------------
 BYTE   W12
 BYTE   EOT
 BYTE   Dn1
 BYTE   W12
 BYTE   Cs2
 BYTE   FINE

//******************************************************//
	ALIGN 4

EchoingLibrary:
	BYTE	6
	BYTE	0
	BYTE	EchoingLibrary_pri
	BYTE	EchoingLibrary_rev

	POIN2	EchoingLibrary_grp

	POIN2	EchoingLibrary_001
	POIN2	EchoingLibrary_002
	POIN2	EchoingLibrary_003
	POIN2	EchoingLibrary_004
	POIN2	EchoingLibrary_005
	POIN2	EchoingLibrary_006
