//Event file generated from Sappy .s format.
	#include "MPlayDef.event"

	#define	song06_grp  voicegroup000
	#define	song06_pri  0
	#define	song06_rev  0
	#define	song06_mvl  127
	#define	song06_key  0
	#define	song06_tbs  1
	#define	song06_exg  0
	#define	song06_cmp  1

	// .rodata
	//	song06
	ALIGN 4


//**************** Track 1 (Midi-Chn.0) ****************//

song06_001:
//  #01 //000   ----------------------------------------
 BYTE   KEYSH   song06_key+0
 BYTE   TEMPO   120*song06_tbs/2
 BYTE   VOICE   79
 BYTE   VOL   62*song06_mvl/mxv
 BYTE   PAN   c_v+0
 BYTE   VOL   62*song06_mvl/mxv
 BYTE   PAN   c_v+0
 BYTE   W12
Label_0110C9A7:
 BYTE   TEMPO   90*song06_tbs/2
 BYTE   N03  Fn4  v080
 BYTE   W12
 BYTE   Fn4  v064
 BYTE   W12
 BYTE   Fn4  v048
 BYTE   W12
 BYTE   Dn4  v080
 BYTE   W12
 BYTE   Dn4  v064
 BYTE   W12
 BYTE   Dn4  v048
 BYTE   W12
 BYTE   Dn4  v040
 BYTE   W12
//  #01 //001   ----------------------------------------
 BYTE   Dn4  v032
 BYTE   W12
 BYTE   PEND 
Label_0110C9C3:
 BYTE   N03  Dn4  v080
 BYTE   W12
 BYTE   Dn4  v064
 BYTE   W12
 BYTE   Dn4  v048
 BYTE   W12
 BYTE   Cn4  v080
 BYTE   W12
 BYTE   Cn4  v064
 BYTE   W12
 BYTE   Cn4  v048
 BYTE   W12
 BYTE   Cn4  v040
 BYTE   W12
//  #01 //002   ----------------------------------------
 BYTE   Cn4  v032
 BYTE   W12
 BYTE   PEND 
Label_0110C9DD:
 BYTE   N03  Fn4  v080
 BYTE   W12
 BYTE   Fn4  v064
 BYTE   W12
 BYTE   Fn4  v048
 BYTE   W12
 BYTE   Dn4  v080
 BYTE   W12
 BYTE   Dn4  v064
 BYTE   W12
 BYTE   Dn4  v048
 BYTE   W12
 BYTE   Dn4  v040
 BYTE   W12
//  #01 //003   ----------------------------------------
 BYTE   Dn4  v032
 BYTE   W12
 BYTE   PEND 
Label_0110C9F7:
 BYTE   N03  Ds4  v080
 BYTE   W12
 BYTE   Ds4  v064
 BYTE   W12
 BYTE   Ds4  v048
 BYTE   W12
 BYTE   Fn4  v080
 BYTE   W12
 BYTE   Fn4  v064
 BYTE   W12
 BYTE   Fn4  v048
 BYTE   W12
 BYTE   Fn4  v040
 BYTE   W12
//  #01 //004   ----------------------------------------
 BYTE   Fn4  v032
 BYTE   W12
 BYTE   PEND 
//  #01 //005   ----------------------------------------
 BYTE   PATT
  POIN2 Label_0110C9DD
//  #01 //006   ----------------------------------------
 BYTE   PATT
  POIN2 Label_0110C9C3
//  #01 //007   ----------------------------------------
 BYTE   PATT
  POIN2 Label_0110C9DD
//  #01 //008   ----------------------------------------
 BYTE   PATT
  POIN2 Label_0110C9F7
//  #01 //009   ----------------------------------------
 BYTE   PATT
  POIN2 Label_0110C9DD
//  #01 //010   ----------------------------------------
 BYTE   PATT
  POIN2 Label_0110C9C3
//  #01 //011   ----------------------------------------
 BYTE   PATT
  POIN2 Label_0110C9DD
//  #01 //012   ----------------------------------------
 BYTE   W96
//  #01 //013   ----------------------------------------
 BYTE   W96
//  #01 //014   ----------------------------------------
 BYTE   W96
//  #01 //015   ----------------------------------------
 BYTE   W96
//  #01 //016   ----------------------------------------
 BYTE   W96
//  #01 //017   ----------------------------------------
 BYTE   W96
//  #01 //018   ----------------------------------------
 BYTE   W96
//  #01 //019   ----------------------------------------
 BYTE   W96
//  #01 //020   ----------------------------------------
 BYTE   W96
//  #01 //021   ----------------------------------------
 BYTE   W96
//  #01 //022   ----------------------------------------
 BYTE   W96
//  #01 //023   ----------------------------------------
 BYTE   W96
//  #01 //024   ----------------------------------------
 BYTE   W96
//  #01 //025   ----------------------------------------
 BYTE   W96
//  #01 //026   ----------------------------------------
 BYTE   W96
//  #01 //027   ----------------------------------------
 BYTE   W96
//  #01 //028   ----------------------------------------
 BYTE   W96
//  #01 //029   ----------------------------------------
Label_0110CA45:
 BYTE   W48
 BYTE   N05  Fn5  v052
 BYTE   W06
 BYTE   Cn5
 BYTE   W06
 BYTE   As4
 BYTE   W06
 BYTE   Fn4
 BYTE   W30
 BYTE   PEND 
//  #01 //030   ----------------------------------------
Label_0110CA51:
 BYTE   N05  Fn5  v052
 BYTE   W06
 BYTE   Cn5
 BYTE   W06
 BYTE   As4
 BYTE   W06
 BYTE   Fn4
 BYTE   W30
 BYTE   Fn5
 BYTE   W06
 BYTE   Cn5
 BYTE   W06
 BYTE   As4
 BYTE   W06
 BYTE   Fn4
 BYTE   W30
 BYTE   PEND 
//  #01 //031   ----------------------------------------
 BYTE   PATT
  POIN2 Label_0110CA45
//  #01 //032   ----------------------------------------
 BYTE   PATT
  POIN2 Label_0110CA51
//  #01 //033   ----------------------------------------
Label_0110CA6E:
 BYTE   W48
 BYTE   N05  Ds5  v052
 BYTE   W06
 BYTE   As4
 BYTE   W06
 BYTE   Gs4
 BYTE   W06
 BYTE   Ds4
 BYTE   W30
 BYTE   PEND 
//  #01 //034   ----------------------------------------
Label_0110CA7A:
 BYTE   N05  Ds5  v052
 BYTE   W06
 BYTE   As4
 BYTE   W06
 BYTE   Gs4
 BYTE   W06
 BYTE   Ds4
 BYTE   W30
 BYTE   Ds5
 BYTE   W06
 BYTE   As4
 BYTE   W06
 BYTE   Gs4
 BYTE   W06
 BYTE   Ds4
 BYTE   W30
 BYTE   PEND 
//  #01 //035   ----------------------------------------
 BYTE   PATT
  POIN2 Label_0110CA6E
//  #01 //036   ----------------------------------------
 BYTE   PATT
  POIN2 Label_0110CA7A
//  #01 //037   ----------------------------------------
 BYTE   PATT
  POIN2 Label_0110CA6E
//  #01 //038   ----------------------------------------
 BYTE   PATT
  POIN2 Label_0110CA7A
//  #01 //039   ----------------------------------------
Label_0110CAA1:
 BYTE   W48
 BYTE   N05  Cs5  v052
 BYTE   W06
 BYTE   Gs4
 BYTE   W06
 BYTE   Fs4
 BYTE   W06
 BYTE   Cs4
 BYTE   W30
 BYTE   PEND 
//  #01 //040   ----------------------------------------
Label_0110CAAD:
 BYTE   N05  Cs5  v052
 BYTE   W06
 BYTE   Gs4
 BYTE   W06
 BYTE   Fs4
 BYTE   W06
 BYTE   Cs4
 BYTE   W30
 BYTE   Cs5
 BYTE   W06
 BYTE   Gs4
 BYTE   W06
 BYTE   Fs4
 BYTE   W06
 BYTE   Cs4
 BYTE   W30
 BYTE   PEND 
//  #01 //041   ----------------------------------------
Label_0110CAC0:
 BYTE   W48
 BYTE   N05  Dn5  v048
 BYTE   W06
 BYTE   Cn5
 BYTE   W06
 BYTE   Gn4  v032
 BYTE   W06
 BYTE   Dn4  v048
 BYTE   W30
 BYTE   PEND 
//  #01 //042   ----------------------------------------
Label_0110CACE:
 BYTE   N05  Dn5  v048
 BYTE   W06
 BYTE   Cn5
 BYTE   W06
 BYTE   Gn4  v032
 BYTE   W06
 BYTE   Dn4  v048
 BYTE   W30
 BYTE   Dn5
 BYTE   W06
 BYTE   Cn5
 BYTE   W06
 BYTE   Gn4  v032
 BYTE   W06
 BYTE   Dn4  v048
 BYTE   W30
 BYTE   PEND 
//  #01 //043   ----------------------------------------
 BYTE   PATT
  POIN2 Label_0110CAC0
//  #01 //044   ----------------------------------------
Label_0110CAEA:
 BYTE   N05  Dn5  v032
 BYTE   W06
 BYTE   Cn5
 BYTE   W06
 BYTE   Gn4  v024
 BYTE   W06
 BYTE   Dn4  v032
 BYTE   W30
 BYTE   Dn5
 BYTE   W06
 BYTE   Cn5
 BYTE   W06
 BYTE   Gn4  v024
 BYTE   W06
 BYTE   Dn4  v032
 BYTE   W18
 BYTE   N11  Gn4  v064
 BYTE   W12
 BYTE   PEND 
//  #01 //045   ----------------------------------------
Label_0110CB05:
 BYTE   N17  As4  v064
 BYTE   W18
 BYTE   Fn5
 BYTE   W18
 BYTE   Cn5
 BYTE   W18
 BYTE   Dn5
 BYTE   W30
 BYTE   N11  Gn4
 BYTE   W12
 BYTE   PEND 
//  #01 //046   ----------------------------------------
Label_0110CB13:
 BYTE   N17  As4  v064
 BYTE   W18
 BYTE   Fn5
 BYTE   W18
 BYTE   Cn5
 BYTE   W18
 BYTE   As4
 BYTE   W30
 BYTE   N11  Gn4
 BYTE   W12
 BYTE   PEND 
//  #01 //047   ----------------------------------------
Label_0110CB21:
 BYTE   N17  As4  v064
 BYTE   W18
 BYTE   Fn5
 BYTE   W18
 BYTE   Cn5
 BYTE   W18
 BYTE   Dn5
 BYTE   W30
 BYTE   N11
 BYTE   W12
 BYTE   PEND 
//  #01 //048   ----------------------------------------
Label_0110CB2E:
 BYTE   N17  Fn5  v064
 BYTE   W18
 BYTE   Ds5
 BYTE   W18
 BYTE   Dn5
 BYTE   W18
 BYTE   Cn5
 BYTE   W42
 BYTE   PEND 
//  #01 //049   ----------------------------------------
 BYTE   W96
//  #01 //050   ----------------------------------------
 BYTE   W96
//  #01 //051   ----------------------------------------
 BYTE   W96
//  #01 //052   ----------------------------------------
Label_0110CB3C:
 BYTE   W72
 BYTE   N05  An4  v096
 BYTE   W06
 BYTE   As4
 BYTE   W06
 BYTE   N11  Cn5
 BYTE   W12
 BYTE   PEND 
//  #01 //053   ----------------------------------------
Label_0110CB47:
 BYTE   N17  Dn5  v096
 BYTE   W18
 BYTE   Gn4
 BYTE   W18
 BYTE   Dn5
 BYTE   W18
 BYTE   Gn4
 BYTE   W18
 BYTE   N05  Dn5
 BYTE   W06
 BYTE   Ds5
 BYTE   W06
 BYTE   N11  Dn5
 BYTE   W12
 BYTE   PEND 
//  #01 //054   ----------------------------------------
Label_0110CB5A:
 BYTE   N17  Cn5  v096
 BYTE   W18
 BYTE   Fn4
 BYTE   W18
 BYTE   Cn5
 BYTE   W18
 BYTE   As4
 BYTE   W18
 BYTE   N05  An4
 BYTE   W06
 BYTE   As4
 BYTE   W06
 BYTE   N11  Cn5
 BYTE   W12
 BYTE   PEND 
//  #01 //055   ----------------------------------------
Label_0110CB6D:
 BYTE   N17  Dn5  v096
 BYTE   W18
 BYTE   Gn4
 BYTE   W18
 BYTE   Dn5
 BYTE   W18
 BYTE   Fn4
 BYTE   W18
 BYTE   N05  Dn5
 BYTE   W06
 BYTE   Ds5
 BYTE   W06
 BYTE   N11  Dn5
 BYTE   W12
 BYTE   PEND 
//  #01 //056   ----------------------------------------
Label_0110CB80:
 BYTE   N17  Cn5  v096
 BYTE   W18
 BYTE   Fn5
 BYTE   W18
 BYTE   Cn5
 BYTE   W18
 BYTE   As4
 BYTE   W18
 BYTE   N05  An4
 BYTE   W06
 BYTE   As4
 BYTE   W06
 BYTE   N11  Cn5
 BYTE   W12
 BYTE   PEND 
//  #01 //057   ----------------------------------------
 BYTE   PATT
  POIN2 Label_0110CB47
//  #01 //058   ----------------------------------------
 BYTE   PATT
  POIN2 Label_0110CB5A
//  #01 //059   ----------------------------------------
Label_0110CB9D:
 BYTE   N17  Dn5  v096
 BYTE   W18
 BYTE   Gn4
 BYTE   W18
 BYTE   Dn5
 BYTE   W18
 BYTE   Fs4
 BYTE   W18
 BYTE   N05  Dn5
 BYTE   W06
 BYTE   Ds5
 BYTE   W06
 BYTE   N11  Dn5
 BYTE   W12
 BYTE   PEND 
//  #01 //060   ----------------------------------------
Label_0110CBB0:
 BYTE   N17  Cn5  v096
 BYTE   W18
 BYTE   Fn5
 BYTE   W18
 BYTE   Cn5
 BYTE   W18
 BYTE   As4
 BYTE   W42
 BYTE   PEND 
//  #01 //061   ----------------------------------------
 BYTE   W96
//  #01 //062   ----------------------------------------
 BYTE   PATT
  POIN2 Label_0110C9A7
//  #01 //063   ----------------------------------------
 BYTE   PATT
  POIN2 Label_0110C9C3
//  #01 //064   ----------------------------------------
 BYTE   PATT
  POIN2 Label_0110C9DD
//  #01 //065   ----------------------------------------
 BYTE   PATT
  POIN2 Label_0110C9F7
//  #01 //066   ----------------------------------------
 BYTE   PATT
  POIN2 Label_0110C9DD
//  #01 //067   ----------------------------------------
 BYTE   PATT
  POIN2 Label_0110C9C3
//  #01 //068   ----------------------------------------
 BYTE   PATT
  POIN2 Label_0110C9DD
//  #01 //069   ----------------------------------------
 BYTE   PATT
  POIN2 Label_0110C9F7
//  #01 //070   ----------------------------------------
 BYTE   PATT
  POIN2 Label_0110C9DD
//  #01 //071   ----------------------------------------
 BYTE   PATT
  POIN2 Label_0110C9C3
//  #01 //072   ----------------------------------------
 BYTE   PATT
  POIN2 Label_0110C9DD
//  #01 //073   ----------------------------------------
 BYTE   W96
//  #01 //074   ----------------------------------------
 BYTE   W96
//  #01 //075   ----------------------------------------
 BYTE   W96
//  #01 //076   ----------------------------------------
 BYTE   W96
//  #01 //077   ----------------------------------------
 BYTE   W96
//  #01 //078   ----------------------------------------
 BYTE   W96
//  #01 //079   ----------------------------------------
 BYTE   W96
//  #01 //080   ----------------------------------------
 BYTE   W96
//  #01 //081   ----------------------------------------
 BYTE   W96
//  #01 //082   ----------------------------------------
 BYTE   W96
//  #01 //083   ----------------------------------------
 BYTE   W96
//  #01 //084   ----------------------------------------
 BYTE   W96
//  #01 //085   ----------------------------------------
 BYTE   W96
//  #01 //086   ----------------------------------------
 BYTE   W96
//  #01 //087   ----------------------------------------
 BYTE   W96
//  #01 //088   ----------------------------------------
 BYTE   W96
//  #01 //089   ----------------------------------------
 BYTE   W96
//  #01 //090   ----------------------------------------
 BYTE   PATT
  POIN2 Label_0110CA45
//  #01 //091   ----------------------------------------
 BYTE   PATT
  POIN2 Label_0110CA51
//  #01 //092   ----------------------------------------
 BYTE   PATT
  POIN2 Label_0110CA45
//  #01 //093   ----------------------------------------
 BYTE   PATT
  POIN2 Label_0110CA51
//  #01 //094   ----------------------------------------
 BYTE   PATT
  POIN2 Label_0110CA6E
//  #01 //095   ----------------------------------------
 BYTE   PATT
  POIN2 Label_0110CA7A
//  #01 //096   ----------------------------------------
 BYTE   PATT
  POIN2 Label_0110CA6E
//  #01 //097   ----------------------------------------
 BYTE   PATT
  POIN2 Label_0110CA7A
//  #01 //098   ----------------------------------------
 BYTE   PATT
  POIN2 Label_0110CA6E
//  #01 //099   ----------------------------------------
 BYTE   PATT
  POIN2 Label_0110CA7A
//  #01 //100   ----------------------------------------
 BYTE   PATT
  POIN2 Label_0110CAA1
//  #01 //101   ----------------------------------------
 BYTE   PATT
  POIN2 Label_0110CAAD
//  #01 //102   ----------------------------------------
 BYTE   PATT
  POIN2 Label_0110CAC0
//  #01 //103   ----------------------------------------
 BYTE   PATT
  POIN2 Label_0110CACE
//  #01 //104   ----------------------------------------
 BYTE   PATT
  POIN2 Label_0110CAC0
//  #01 //105   ----------------------------------------
 BYTE   PATT
  POIN2 Label_0110CAEA
//  #01 //106   ----------------------------------------
 BYTE   PATT
  POIN2 Label_0110CB05
//  #01 //107   ----------------------------------------
 BYTE   PATT
  POIN2 Label_0110CB13
//  #01 //108   ----------------------------------------
 BYTE   PATT
  POIN2 Label_0110CB21
//  #01 //109   ----------------------------------------
 BYTE   PATT
  POIN2 Label_0110CB2E
//  #01 //110   ----------------------------------------
 BYTE   W96
//  #01 //111   ----------------------------------------
 BYTE   W96
//  #01 //112   ----------------------------------------
 BYTE   W96
//  #01 //113   ----------------------------------------
 BYTE   PATT
  POIN2 Label_0110CB3C
//  #01 //114   ----------------------------------------
 BYTE   PATT
  POIN2 Label_0110CB47
//  #01 //115   ----------------------------------------
 BYTE   PATT
  POIN2 Label_0110CB5A
//  #01 //116   ----------------------------------------
 BYTE   PATT
  POIN2 Label_0110CB6D
//  #01 //117   ----------------------------------------
 BYTE   PATT
  POIN2 Label_0110CB80
//  #01 //118   ----------------------------------------
 BYTE   PATT
  POIN2 Label_0110CB47
//  #01 //119   ----------------------------------------
 BYTE   PATT
  POIN2 Label_0110CB5A
//  #01 //120   ----------------------------------------
 BYTE   PATT
  POIN2 Label_0110CB9D
//  #01 //121   ----------------------------------------
 BYTE   PATT
  POIN2 Label_0110CBB0
//  #01 //122   ----------------------------------------
 BYTE   W96
//  #01 //123   ----------------------------------------
 BYTE   GoTo
  POIN2 Label_0110C9A7
 BYTE   FINE

//**************** Track 2 (Midi-Chn.1) ****************//

song06_002:
//  #02 //000   ----------------------------------------
 BYTE   KEYSH   song06_key+0
 BYTE   VOICE   45
 BYTE   VOL   62*song06_mvl/mxv
 BYTE   PAN   c_v+0
 BYTE   VOL   62*song06_mvl/mxv
 BYTE   PAN   c_v+0
 BYTE   W12
Label_0110C87D:
 BYTE   W96
//  #02 //001   ----------------------------------------
 BYTE   W96
//  #02 //002   ----------------------------------------
 BYTE   W96
//  #02 //003   ----------------------------------------
 BYTE   W96
//  #02 //004   ----------------------------------------
 BYTE   W96
//  #02 //005   ----------------------------------------
 BYTE   W96
//  #02 //006   ----------------------------------------
 BYTE   W96
//  #02 //007   ----------------------------------------
 BYTE   W96
//  #02 //008   ----------------------------------------
 BYTE   W96
//  #02 //009   ----------------------------------------
 BYTE   W96
//  #02 //010   ----------------------------------------
 BYTE   W96
//  #02 //011   ----------------------------------------
 BYTE   W96
//  #02 //012   ----------------------------------------
 BYTE   W96
//  #02 //013   ----------------------------------------
 BYTE   W96
//  #02 //014   ----------------------------------------
 BYTE   W96
//  #02 //015   ----------------------------------------
 BYTE   W96
//  #02 //016   ----------------------------------------
 BYTE   W96
//  #02 //017   ----------------------------------------
 BYTE   W96
//  #02 //018   ----------------------------------------
 BYTE   W96
//  #02 //019   ----------------------------------------
 BYTE   W96
//  #02 //020   ----------------------------------------
 BYTE   W96
//  #02 //021   ----------------------------------------
 BYTE   W96
//  #02 //022   ----------------------------------------
 BYTE   W96
//  #02 //023   ----------------------------------------
 BYTE   W96
//  #02 //024   ----------------------------------------
 BYTE   W96
//  #02 //025   ----------------------------------------
 BYTE   W96
//  #02 //026   ----------------------------------------
 BYTE   W96
//  #02 //027   ----------------------------------------
 BYTE   W96
//  #02 //028   ----------------------------------------
 BYTE   W96
//  #02 //029   ----------------------------------------
 BYTE   W96
//  #02 //030   ----------------------------------------
 BYTE   W96
//  #02 //031   ----------------------------------------
 BYTE   W96
//  #02 //032   ----------------------------------------
 BYTE   W96
//  #02 //033   ----------------------------------------
 BYTE   W96
//  #02 //034   ----------------------------------------
 BYTE   W96
//  #02 //035   ----------------------------------------
 BYTE   W96
//  #02 //036   ----------------------------------------
 BYTE   W96
//  #02 //037   ----------------------------------------
 BYTE   W96
//  #02 //038   ----------------------------------------
 BYTE   W96
//  #02 //039   ----------------------------------------
 BYTE   W96
//  #02 //040   ----------------------------------------
 BYTE   W96
//  #02 //041   ----------------------------------------
 BYTE   W96
//  #02 //042   ----------------------------------------
 BYTE   W96
//  #02 //043   ----------------------------------------
 BYTE   W96
//  #02 //044   ----------------------------------------
 BYTE   W96
//  #02 //045   ----------------------------------------
 BYTE   W96
//  #02 //046   ----------------------------------------
 BYTE   W96
//  #02 //047   ----------------------------------------
 BYTE   W96
//  #02 //048   ----------------------------------------
 BYTE   W96
//  #02 //049   ----------------------------------------
 BYTE   W96
//  #02 //050   ----------------------------------------
 BYTE   W96
//  #02 //051   ----------------------------------------
Label_0110C8B0:
 BYTE   W72
 BYTE   N05  An3  v080
 BYTE   W06
 BYTE   As3
 BYTE   W06
 BYTE   N11  Cn4
 BYTE   W12
 BYTE   PEND 
//  #02 //052   ----------------------------------------
Label_0110C8BB:
 BYTE   N17  Dn4  v080
 BYTE   W18
 BYTE   Gn3
 BYTE   W18
 BYTE   Dn4
 BYTE   W18
 BYTE   Gn3
 BYTE   W18
 BYTE   N05  Dn4
 BYTE   W06
 BYTE   Ds4
 BYTE   W06
 BYTE   N11  Dn4
 BYTE   W12
 BYTE   PEND 
//  #02 //053   ----------------------------------------
Label_0110C8CE:
 BYTE   N17  Cn4  v080
 BYTE   W18
 BYTE   Fn3
 BYTE   W18
 BYTE   Cn4
 BYTE   W18
 BYTE   As3
 BYTE   W18
 BYTE   N05  An3
 BYTE   W06
 BYTE   As3
 BYTE   W06
 BYTE   N11  Cn4
 BYTE   W12
 BYTE   PEND 
//  #02 //054   ----------------------------------------
Label_0110C8E1:
 BYTE   N17  Dn4  v080
 BYTE   W18
 BYTE   Gn3
 BYTE   W18
 BYTE   Dn4
 BYTE   W18
 BYTE   Fn3
 BYTE   W18
 BYTE   N05  Dn4
 BYTE   W06
 BYTE   Ds4
 BYTE   W06
 BYTE   N11  Dn4
 BYTE   W12
 BYTE   PEND 
//  #02 //055   ----------------------------------------
Label_0110C8F4:
 BYTE   N17  Cn4  v080
 BYTE   W18
 BYTE   Fn4
 BYTE   W18
 BYTE   Cn4
 BYTE   W18
 BYTE   As3
 BYTE   W18
 BYTE   N05  An3
 BYTE   W06
 BYTE   As3
 BYTE   W06
 BYTE   N11  Cn4
 BYTE   W12
 BYTE   PEND 
//  #02 //056   ----------------------------------------
 BYTE   PATT
  POIN2 Label_0110C8BB
//  #02 //057   ----------------------------------------
 BYTE   PATT
  POIN2 Label_0110C8CE
//  #02 //058   ----------------------------------------
Label_0110C911:
 BYTE   N17  Dn4  v080
 BYTE   W18
 BYTE   Gn3
 BYTE   W18
 BYTE   Dn4
 BYTE   W18
 BYTE   Fs3
 BYTE   W18
 BYTE   N05  Dn4
 BYTE   W06
 BYTE   Ds4
 BYTE   W06
 BYTE   N11  Dn4
 BYTE   W12
 BYTE   PEND 
//  #02 //059   ----------------------------------------
Label_0110C924:
 BYTE   N17  Cn4  v080
 BYTE   W18
 BYTE   Fn4
 BYTE   W18
 BYTE   Cn4
 BYTE   W18
 BYTE   As3
 BYTE   W42
 BYTE   PEND 
//  #02 //060   ----------------------------------------
 BYTE   W96
//  #02 //061   ----------------------------------------
 BYTE   W96
//  #02 //062   ----------------------------------------
 BYTE   W96
//  #02 //063   ----------------------------------------
 BYTE   W96
//  #02 //064   ----------------------------------------
 BYTE   W96
//  #02 //065   ----------------------------------------
 BYTE   W96
//  #02 //066   ----------------------------------------
 BYTE   W96
//  #02 //067   ----------------------------------------
 BYTE   W96
//  #02 //068   ----------------------------------------
 BYTE   W96
//  #02 //069   ----------------------------------------
 BYTE   W96
//  #02 //070   ----------------------------------------
 BYTE   W96
//  #02 //071   ----------------------------------------
 BYTE   W96
//  #02 //072   ----------------------------------------
 BYTE   W96
//  #02 //073   ----------------------------------------
 BYTE   W96
//  #02 //074   ----------------------------------------
 BYTE   W96
//  #02 //075   ----------------------------------------
 BYTE   W96
//  #02 //076   ----------------------------------------
 BYTE   W96
//  #02 //077   ----------------------------------------
 BYTE   W96
//  #02 //078   ----------------------------------------
 BYTE   W96
//  #02 //079   ----------------------------------------
 BYTE   W96
//  #02 //080   ----------------------------------------
 BYTE   W96
//  #02 //081   ----------------------------------------
 BYTE   W96
//  #02 //082   ----------------------------------------
 BYTE   W96
//  #02 //083   ----------------------------------------
 BYTE   W96
//  #02 //084   ----------------------------------------
 BYTE   W96
//  #02 //085   ----------------------------------------
 BYTE   W96
//  #02 //086   ----------------------------------------
 BYTE   W96
//  #02 //087   ----------------------------------------
 BYTE   W96
//  #02 //088   ----------------------------------------
 BYTE   W96
//  #02 //089   ----------------------------------------
 BYTE   W96
//  #02 //090   ----------------------------------------
 BYTE   W96
//  #02 //091   ----------------------------------------
 BYTE   W96
//  #02 //092   ----------------------------------------
 BYTE   W96
//  #02 //093   ----------------------------------------
 BYTE   W96
//  #02 //094   ----------------------------------------
 BYTE   W96
//  #02 //095   ----------------------------------------
 BYTE   W96
//  #02 //096   ----------------------------------------
 BYTE   W96
//  #02 //097   ----------------------------------------
 BYTE   W96
//  #02 //098   ----------------------------------------
 BYTE   W96
//  #02 //099   ----------------------------------------
 BYTE   W96
//  #02 //100   ----------------------------------------
 BYTE   W96
//  #02 //101   ----------------------------------------
 BYTE   W96
//  #02 //102   ----------------------------------------
 BYTE   W96
//  #02 //103   ----------------------------------------
 BYTE   W96
//  #02 //104   ----------------------------------------
 BYTE   W96
//  #02 //105   ----------------------------------------
 BYTE   W96
//  #02 //106   ----------------------------------------
 BYTE   W96
//  #02 //107   ----------------------------------------
 BYTE   W96
//  #02 //108   ----------------------------------------
 BYTE   W96
//  #02 //109   ----------------------------------------
 BYTE   W96
//  #02 //110   ----------------------------------------
 BYTE   W96
//  #02 //111   ----------------------------------------
 BYTE   W96
//  #02 //112   ----------------------------------------
 BYTE   PATT
  POIN2 Label_0110C8B0
//  #02 //113   ----------------------------------------
 BYTE   PATT
  POIN2 Label_0110C8BB
//  #02 //114   ----------------------------------------
 BYTE   PATT
  POIN2 Label_0110C8CE
//  #02 //115   ----------------------------------------
 BYTE   PATT
  POIN2 Label_0110C8E1
//  #02 //116   ----------------------------------------
 BYTE   PATT
  POIN2 Label_0110C8F4
//  #02 //117   ----------------------------------------
 BYTE   PATT
  POIN2 Label_0110C8BB
//  #02 //118   ----------------------------------------
 BYTE   PATT
  POIN2 Label_0110C8CE
//  #02 //119   ----------------------------------------
 BYTE   PATT
  POIN2 Label_0110C911
//  #02 //120   ----------------------------------------
 BYTE   PATT
  POIN2 Label_0110C924
//  #02 //121   ----------------------------------------
 BYTE   W96
//  #02 //122   ----------------------------------------
 BYTE   GoTo
  POIN2 Label_0110C87D
 BYTE   FINE

//**************** Track 3 (Midi-Chn.2) ****************//

song06_003:
//  #03 //000   ----------------------------------------
 BYTE   KEYSH   song06_key+0
 BYTE   VOICE   49
 BYTE   VOL   62*song06_mvl/mxv
 BYTE   PAN   c_v+0
 BYTE   VOL   62*song06_mvl/mxv
 BYTE   PAN   c_v+0
 BYTE   W12
Label_0110D6A1:
 BYTE   W96
//  #03 //001   ----------------------------------------
 BYTE   W96
//  #03 //002   ----------------------------------------
 BYTE   W96
//  #03 //003   ----------------------------------------
 BYTE   W96
//  #03 //004   ----------------------------------------
 BYTE   W96
//  #03 //005   ----------------------------------------
 BYTE   W96
//  #03 //006   ----------------------------------------
 BYTE   W96
//  #03 //007   ----------------------------------------
 BYTE   W96
//  #03 //008   ----------------------------------------
 BYTE   W96
//  #03 //009   ----------------------------------------
 BYTE   W96
//  #03 //010   ----------------------------------------
 BYTE   W96
//  #03 //011   ----------------------------------------
 BYTE   W96
//  #03 //012   ----------------------------------------
Label_0110D6AD:
 BYTE   N11  Ds1  v080
 BYTE   W12
 BYTE   N02
 BYTE   W03
 BYTE   N02
 BYTE   W03
 BYTE   N02
 BYTE   W03
 BYTE   Ds1  v076
 BYTE   W03
 BYTE   Ds1  v072
 BYTE   W03
 BYTE   Ds1  v064
 BYTE   W03
 BYTE   N02
 BYTE   W03
 BYTE   N02
 BYTE   W03
 BYTE   N11  Gn1
 BYTE   W12
 BYTE   N02
 BYTE   W03
 BYTE   N02
 BYTE   W03
 BYTE   N02
 BYTE   W03
 BYTE   N02
 BYTE   W03
 BYTE   N02
 BYTE   W03
 BYTE   N02
 BYTE   W03
 BYTE   N02
 BYTE   W03
 BYTE   N02
 BYTE   W24
 BYTE   W03
 BYTE   PEND 
//  #03 //013   ----------------------------------------
Label_0110D6D9:
 BYTE   N11  Ds1  v064
 BYTE   W12
 BYTE   N02
 BYTE   W03
 BYTE   N02
 BYTE   W03
 BYTE   N02
 BYTE   W03
 BYTE   N02
 BYTE   W03
 BYTE   N02
 BYTE   W03
 BYTE   N02
 BYTE   W03
 BYTE   N02
 BYTE   W03
 BYTE   N02
 BYTE   W03
 BYTE   N11  Gn1
 BYTE   W12
 BYTE   N02
 BYTE   W03
 BYTE   N02
 BYTE   W03
 BYTE   N02
 BYTE   W03
 BYTE   N02
 BYTE   W03
 BYTE   N02
 BYTE   W03
 BYTE   N02
 BYTE   W03
 BYTE   N02
 BYTE   W03
 BYTE   N02
 BYTE   W24
 BYTE   W03
 BYTE   PEND 
//  #03 //014   ----------------------------------------
 BYTE   PATT
  POIN2 Label_0110D6D9
//  #03 //015   ----------------------------------------
Label_0110D707:
 BYTE   N11  Cn2  v064
 BYTE   W12
 BYTE   N02
 BYTE   W03
 BYTE   N02
 BYTE   W03
 BYTE   N02
 BYTE   W03
 BYTE   N02
 BYTE   W03
 BYTE   N02
 BYTE   W03
 BYTE   N02
 BYTE   W03
 BYTE   N02
 BYTE   W03
 BYTE   N02
 BYTE   W03
 BYTE   N11  Dn2
 BYTE   W12
 BYTE   N02
 BYTE   W03
 BYTE   N02
 BYTE   W03
 BYTE   N02
 BYTE   W03
 BYTE   N02
 BYTE   W03
 BYTE   N02
 BYTE   W03
 BYTE   N02
 BYTE   W03
 BYTE   N02
 BYTE   W03
 BYTE   N02
 BYTE   W24
 BYTE   W03
 BYTE   PEND 
//  #03 //016   ----------------------------------------
 BYTE   PATT
  POIN2 Label_0110D6D9
//  #03 //017   ----------------------------------------
 BYTE   PATT
  POIN2 Label_0110D6D9
//  #03 //018   ----------------------------------------
 BYTE   PATT
  POIN2 Label_0110D6D9
//  #03 //019   ----------------------------------------
 BYTE   W96
//  #03 //020   ----------------------------------------
Label_0110D740:
 BYTE   N05  Ds2  v052
 BYTE   W06
 BYTE   N05
 BYTE   W06
 BYTE   N05
 BYTE   W06
 BYTE   N05
 BYTE   W06
 BYTE   Ds2  v056
 BYTE   W06
 BYTE   N05
 BYTE   W06
 BYTE   Ds2  v060
 BYTE   W06
 BYTE   N05
 BYTE   W06
 BYTE   N02  Ds2  v064
 BYTE   W03
 BYTE   N02
 BYTE   W03
 BYTE   N02
 BYTE   W03
 BYTE   N02
 BYTE   W03
 BYTE   N02
 BYTE   W03
 BYTE   N02
 BYTE   W03
 BYTE   N02
 BYTE   W03
 BYTE   N02
 BYTE   W03
 BYTE   Ds2  v060
 BYTE   W03
 BYTE   N02
 BYTE   W03
 BYTE   N02
 BYTE   W03
 BYTE   Ds2  v056
 BYTE   W03
 BYTE   N02
 BYTE   W03
 BYTE   N02
 BYTE   W03
 BYTE   Ds2  v052
 BYTE   W03
 BYTE   N02
 BYTE   W03
 BYTE   PEND 
//  #03 //021   ----------------------------------------
Label_0110D77A:
 BYTE   N17  Dn2  v052
 BYTE   W18
 BYTE   Dn2  v056
 BYTE   W18
 BYTE   N11  Gn1  v076
 BYTE   W18
 BYTE   N17
 BYTE   W18
 BYTE   N23
 BYTE   W24
 BYTE   PEND 
//  #03 //022   ----------------------------------------
Label_0110D78A:
 BYTE   N32  Ds2  v064
 BYTE   W36
 BYTE   N11  Fn2
 BYTE   W18
 BYTE   N11
 BYTE   W18
 BYTE   N23
 BYTE   W24
 BYTE   PEND 
//  #03 //023   ----------------------------------------
Label_0110D796:
 BYTE   N17  Gn2  v064
 BYTE   W18
 BYTE   N17
 BYTE   W18
 BYTE   N17
 BYTE   W18
 BYTE   N17
 BYTE   W18
 BYTE   N23  En2
 BYTE   W24
 BYTE   PEND 
//  #03 //024   ----------------------------------------
 BYTE   PATT
  POIN2 Label_0110D740
//  #03 //025   ----------------------------------------
 BYTE   PATT
  POIN2 Label_0110D77A
//  #03 //026   ----------------------------------------
Label_0110D7AE:
 BYTE   N02  Cn2  v036
 BYTE   W03
 BYTE   N02
 BYTE   W03
 BYTE   N02
 BYTE   W03
 BYTE   N02
 BYTE   W03
 BYTE   N02
 BYTE   W03
 BYTE   Cn2  v040
 BYTE   W03
 BYTE   N02
 BYTE   W03
 BYTE   Cn2  v044
 BYTE   W03
 BYTE   N02
 BYTE   W03
 BYTE   N02
 BYTE   W03
 BYTE   Cn2  v048
 BYTE   W03
 BYTE   N02
 BYTE   W03
 BYTE   N56  Dn2  v052
 BYTE   W60
 BYTE   PEND 
//  #03 //027   ----------------------------------------
 BYTE   W96
//  #03 //028   ----------------------------------------
 BYTE   TIE  Ds2
 BYTE   W96
//  #03 //029   ----------------------------------------
 BYTE   W92
 BYTE   W03
 BYTE   EOT
 BYTE   W01
//  #03 //030   ----------------------------------------
 BYTE   TIE  Dn2
 BYTE   W96
//  #03 //031   ----------------------------------------
Label_0110D7DB:
 BYTE   W24
 BYTE   N23  An2  v096
 BYTE   W24
 BYTE   As2
 BYTE   W24
 BYTE   Gn3
 BYTE   W23
 BYTE   PEND 
 BYTE   EOT
 BYTE   Dn2
 BYTE   W01
//  #03 //032   ----------------------------------------
Label_0110D7E8:
 BYTE   TIE  Cs2  v052
 BYTE   TIE  Fn3  v096
 BYTE   W96
 BYTE   PEND 
//  #03 //033   ----------------------------------------
 BYTE   W92
 BYTE   W03
 BYTE   EOT
 BYTE   Cs2  v065
 BYTE   W01
//  #03 //034   ----------------------------------------
 BYTE   TIE  Cn2  v060
 BYTE   W96
//  #03 //035   ----------------------------------------
Label_0110D7FA:
 BYTE   W24
 BYTE   N23  Gn2  v096
 BYTE   W24
 BYTE   Gs2
 BYTE   W24
 BYTE   Fn3
 BYTE   W23
 BYTE   PEND 
 BYTE   EOT
 BYTE   Cn2
 BYTE   W01
//  #03 //036   ----------------------------------------
Label_0110D807:
 BYTE   TIE  Bn1  v060
 BYTE   TIE  Ds3  v096
 BYTE   W96
 BYTE   PEND 
//  #03 //037   ----------------------------------------
 BYTE   W92
 BYTE   W03
 BYTE   EOT
 BYTE   Bn1  v063
 BYTE   W01
//  #03 //038   ----------------------------------------
Label_0110D815:
 BYTE   TIE  As1  v060
 BYTE   W24
 BYTE   N92  Gs2  v080
 BYTE   W72
 BYTE   PEND 
//  #03 //039   ----------------------------------------
Label_0110D81E:
 BYTE   W24
 BYTE   N23  Gs2  v080
 BYTE   W24
 BYTE   As2
 BYTE   W24
 BYTE   Fn3
 BYTE   W23
 BYTE   PEND 
 BYTE   EOT
 BYTE   As1
 BYTE   W01
//  #03 //040   ----------------------------------------
Label_0110D82B:
 BYTE   TIE  An1  v060
 BYTE   TIE  Dn3  v096
 BYTE   W96
 BYTE   PEND 
//  #03 //041   ----------------------------------------
 BYTE   W92
 BYTE   W03
 BYTE   EOT
 BYTE   An1  v062
 BYTE   W01
//  #03 //042   ----------------------------------------
 BYTE   TIE  Dn2  v060
 BYTE   W96
//  #03 //043   ----------------------------------------
 BYTE   W92
 BYTE   W03
 BYTE   EOT
 BYTE   W01
//  #03 //044   ----------------------------------------
 BYTE   W96
//  #03 //045   ----------------------------------------
 BYTE   W96
//  #03 //046   ----------------------------------------
 BYTE   W96
//  #03 //047   ----------------------------------------
 BYTE   W96
//  #03 //048   ----------------------------------------
Label_0110D845:
 BYTE   N32  Gn2  v080
 BYTE   W36
 BYTE   N56  Fn2
 BYTE   W60
 BYTE   PEND 
//  #03 //049   ----------------------------------------
Label_0110D84D:
 BYTE   N32  Ds2  v080
 BYTE   W36
 BYTE   N56  Dn2
 BYTE   W60
 BYTE   PEND 
//  #03 //050   ----------------------------------------
Label_0110D855:
 BYTE   N32  Cn2  v080
 BYTE   W36
 BYTE   N56  Dn2
 BYTE   W60
 BYTE   PEND 
//  #03 //051   ----------------------------------------
Label_0110D85D:
 BYTE   N17  Ds2  v080
 BYTE   W18
 BYTE   Fn2
 BYTE   W18
 BYTE   N56  Gn2
 BYTE   W60
 BYTE   PEND 
//  #03 //052   ----------------------------------------
 BYTE   N92  Ds1
 BYTE   W96
//  #03 //053   ----------------------------------------
Label_0110D86A:
 BYTE   N32  Dn1  v080
 BYTE   W36
 BYTE   N17  Gn1
 BYTE   W18
 BYTE   N40
 BYTE   W42
 BYTE   PEND 
//  #03 //054   ----------------------------------------
Label_0110D874:
 BYTE   N32  Ds1  v080
 BYTE   W36
 BYTE   N56  Fn1
 BYTE   W60
 BYTE   PEND 
//  #03 //055   ----------------------------------------
Label_0110D87C:
 BYTE   N68  Gn1  v080
 BYTE   W72
 BYTE   N23  En1
 BYTE   W24
 BYTE   PEND 
//  #03 //056   ----------------------------------------
 BYTE   N92  Ds1
 BYTE   W96
//  #03 //057   ----------------------------------------
 BYTE   PATT
  POIN2 Label_0110D86A
//  #03 //058   ----------------------------------------
Label_0110D88C:
 BYTE   N32  Cn1  v080
 BYTE   W36
 BYTE   N56  Dn1
 BYTE   W60
 BYTE   PEND 
//  #03 //059   ----------------------------------------
 BYTE   N92  Gn1
 BYTE   W96
//  #03 //060   ----------------------------------------
 BYTE   W96
//  #03 //061   ----------------------------------------
 BYTE   W96
//  #03 //062   ----------------------------------------
 BYTE   W96
//  #03 //063   ----------------------------------------
 BYTE   W96
//  #03 //064   ----------------------------------------
 BYTE   W96
//  #03 //065   ----------------------------------------
 BYTE   W96
//  #03 //066   ----------------------------------------
 BYTE   W96
//  #03 //067   ----------------------------------------
 BYTE   W96
//  #03 //068   ----------------------------------------
 BYTE   W96
//  #03 //069   ----------------------------------------
 BYTE   W96
//  #03 //070   ----------------------------------------
 BYTE   W96
//  #03 //071   ----------------------------------------
 BYTE   W96
//  #03 //072   ----------------------------------------
 BYTE   W96
//  #03 //073   ----------------------------------------
 BYTE   PATT
  POIN2 Label_0110D6AD
//  #03 //074   ----------------------------------------
 BYTE   PATT
  POIN2 Label_0110D6D9
//  #03 //075   ----------------------------------------
 BYTE   PATT
  POIN2 Label_0110D6D9
//  #03 //076   ----------------------------------------
 BYTE   PATT
  POIN2 Label_0110D707
//  #03 //077   ----------------------------------------
 BYTE   PATT
  POIN2 Label_0110D6D9
//  #03 //078   ----------------------------------------
 BYTE   PATT
  POIN2 Label_0110D6D9
//  #03 //079   ----------------------------------------
 BYTE   PATT
  POIN2 Label_0110D6D9
//  #03 //080   ----------------------------------------
 BYTE   W96
//  #03 //081   ----------------------------------------
 BYTE   PATT
  POIN2 Label_0110D740
//  #03 //082   ----------------------------------------
 BYTE   PATT
  POIN2 Label_0110D77A
//  #03 //083   ----------------------------------------
 BYTE   PATT
  POIN2 Label_0110D78A
//  #03 //084   ----------------------------------------
 BYTE   PATT
  POIN2 Label_0110D796
//  #03 //085   ----------------------------------------
 BYTE   PATT
  POIN2 Label_0110D740
//  #03 //086   ----------------------------------------
 BYTE   PATT
  POIN2 Label_0110D77A
//  #03 //087   ----------------------------------------
 BYTE   PATT
  POIN2 Label_0110D7AE
//  #03 //088   ----------------------------------------
 BYTE   W96
//  #03 //089   ----------------------------------------
 BYTE   TIE  Ds2  v052
 BYTE   W96
//  #03 //090   ----------------------------------------
 BYTE   W92
 BYTE   W03
 BYTE   EOT
 BYTE   W01
//  #03 //091   ----------------------------------------
 BYTE   TIE  Dn2
 BYTE   W96
//  #03 //092   ----------------------------------------
 BYTE   PATT
  POIN2 Label_0110D7DB
//  #03 //093   ----------------------------------------
 BYTE   EOT
 BYTE   Dn2
 BYTE   W01
//  #03 //094   ----------------------------------------
 BYTE   PATT
  POIN2 Label_0110D7E8
//  #03 //095   ----------------------------------------
 BYTE   W92
 BYTE   W03
 BYTE   EOT
 BYTE   Cs2  v065
 BYTE   W01
//  #03 //096   ----------------------------------------
 BYTE   TIE  Cn2  v060
 BYTE   W96
//  #03 //097   ----------------------------------------
 BYTE   PATT
  POIN2 Label_0110D7FA
//  #03 //098   ----------------------------------------
 BYTE   EOT
 BYTE   Cn2
 BYTE   W01
//  #03 //099   ----------------------------------------
 BYTE   PATT
  POIN2 Label_0110D807
//  #03 //100   ----------------------------------------
 BYTE   W92
 BYTE   W03
 BYTE   EOT
 BYTE   Bn1  v063
 BYTE   W01
//  #03 //101   ----------------------------------------
 BYTE   PATT
  POIN2 Label_0110D815
//  #03 //102   ----------------------------------------
 BYTE   PATT
  POIN2 Label_0110D81E
//  #03 //103   ----------------------------------------
 BYTE   EOT
 BYTE   As1
 BYTE   W01
//  #03 //104   ----------------------------------------
 BYTE   PATT
  POIN2 Label_0110D82B
//  #03 //105   ----------------------------------------
 BYTE   W92
 BYTE   W03
 BYTE   EOT
 BYTE   An1  v062
 BYTE   W01
//  #03 //106   ----------------------------------------
 BYTE   TIE  Dn2  v060
 BYTE   W96
//  #03 //107   ----------------------------------------
 BYTE   W92
 BYTE   W03
 BYTE   EOT
 BYTE   W01
//  #03 //108   ----------------------------------------
 BYTE   W96
//  #03 //109   ----------------------------------------
 BYTE   W96
//  #03 //110   ----------------------------------------
 BYTE   W96
//  #03 //111   ----------------------------------------
 BYTE   W96
//  #03 //112   ----------------------------------------
 BYTE   PATT
  POIN2 Label_0110D845
//  #03 //113   ----------------------------------------
 BYTE   PATT
  POIN2 Label_0110D84D
//  #03 //114   ----------------------------------------
 BYTE   PATT
  POIN2 Label_0110D855
//  #03 //115   ----------------------------------------
 BYTE   PATT
  POIN2 Label_0110D85D
//  #03 //116   ----------------------------------------
 BYTE   N92  Ds1  v080
 BYTE   W96
//  #03 //117   ----------------------------------------
 BYTE   PATT
  POIN2 Label_0110D86A
//  #03 //118   ----------------------------------------
 BYTE   PATT
  POIN2 Label_0110D874
//  #03 //119   ----------------------------------------
 BYTE   PATT
  POIN2 Label_0110D87C
//  #03 //120   ----------------------------------------
 BYTE   N92  Ds1  v080
 BYTE   W96
//  #03 //121   ----------------------------------------
 BYTE   PATT
  POIN2 Label_0110D86A
//  #03 //122   ----------------------------------------
 BYTE   PATT
  POIN2 Label_0110D88C
//  #03 //123   ----------------------------------------
 BYTE   N92  Gn1  v080
 BYTE   W96
//  #03 //124   ----------------------------------------
 BYTE   W96
//  #03 //125   ----------------------------------------
 BYTE   GoTo
  POIN2 Label_0110D6A1
 BYTE   FINE

//**************** Track 4 (Midi-Chn.3) ****************//

song06_004:
//  #04 //000   ----------------------------------------
 BYTE   KEYSH   song06_key+0
 BYTE   VOICE   60
 BYTE   VOL   62*song06_mvl/mxv
 BYTE   PAN   c_v+0
 BYTE   VOL   62*song06_mvl/mxv
 BYTE   PAN   c_v+0
 BYTE   VOL   62*song06_mvl/mxv
 BYTE   PAN   c_v+0
 BYTE   VOL   62*song06_mvl/mxv
 BYTE   PAN   c_v+0
 BYTE   W12
Label_549621:
 BYTE   W60
 BYTE   N11  En2  v056
 BYTE   W12
 BYTE   Gn2
 BYTE   W12
//  #04 //001   ----------------------------------------
 BYTE   Dn3
 BYTE   W12
 BYTE   PEND 
 BYTE   W96
//  #04 //002   ----------------------------------------
 BYTE   PATT
  POIN2 Label_549621
//  #04 //003   ----------------------------------------
 BYTE   W96
//  #04 //004   ----------------------------------------
 BYTE   W96
//  #04 //005   ----------------------------------------
 BYTE   W96
//  #04 //006   ----------------------------------------
 BYTE   W96
//  #04 //007   ----------------------------------------
 BYTE   W96
//  #04 //008   ----------------------------------------
 BYTE   W96
//  #04 //009   ----------------------------------------
 BYTE   W96
//  #04 //010   ----------------------------------------
 BYTE   W96
//  #04 //011   ----------------------------------------
 BYTE   W96
//  #04 //012   ----------------------------------------
 BYTE   W96
//  #04 //013   ----------------------------------------
 BYTE   W96
//  #04 //014   ----------------------------------------
 BYTE   W96
//  #04 //015   ----------------------------------------
 BYTE   W96
//  #04 //016   ----------------------------------------
 BYTE   W96
//  #04 //017   ----------------------------------------
 BYTE   W96
//  #04 //018   ----------------------------------------
 BYTE   W96
//  #04 //019   ----------------------------------------
 BYTE   W96
//  #04 //020   ----------------------------------------
Label_549642:
 BYTE   N32  Gn3  v064
 BYTE   W36
 BYTE   An3
 BYTE   W36
 BYTE   N23  As3
 BYTE   W24
 BYTE   PEND 
//  #04 //021   ----------------------------------------
Label_54964C:
 BYTE   N11  Dn3  v052
 BYTE   N32  An3  v064
 BYTE   W18
 BYTE   N11  Dn3  v052
 BYTE   W18
 BYTE   Gn2
 BYTE   N11  Dn3
 BYTE   N17  Fn3  v076
 BYTE   W18
 BYTE   Gn2  v052
 BYTE   N17  Dn3
 BYTE   W18
 BYTE   N23  Gn2
 BYTE   N23  Dn3
 BYTE   W24
 BYTE   PEND 
//  #04 //022   ----------------------------------------
Label_549669:
 BYTE   N17  Ds3  v052
 BYTE   N32  Gn3  v064
 BYTE   W18
 BYTE   N17  Ds3  v052
 BYTE   W18
 BYTE   N17
 BYTE   N32  An3  v064
 BYTE   W18
 BYTE   N17  Ds3  v052
 BYTE   W18
 BYTE   N23  Fn3
 BYTE   W24
 BYTE   PEND 
//  #04 //023   ----------------------------------------
Label_549681:
 BYTE   N17  Gn2  v060
 BYTE   N17  Dn3
 BYTE   W18
 BYTE   Gn2
 BYTE   N17  Dn3
 BYTE   W18
 BYTE   Gn2
 BYTE   N17  Dn3
 BYTE   W18
 BYTE   Gn2
 BYTE   N17  Dn3
 BYTE   W18
 BYTE   N23  En2
 BYTE   W24
 BYTE   PEND 
//  #04 //024   ----------------------------------------
Label_549697:
 BYTE   W24
 BYTE   N23  Gn2  v064
 BYTE   W24
 BYTE   As2
 BYTE   W24
 BYTE   Fn3
 BYTE   W24
 BYTE   PEND 
//  #04 //025   ----------------------------------------
Label_5496A1:
 BYTE   N44  An2  v064
 BYTE   W54
 BYTE   N32  As2
 BYTE   W42
 BYTE   PEND 
//  #04 //026   ----------------------------------------
Label_5496A9:
 BYTE   N17  Cn3  v064
 BYTE   N32  Gn3
 BYTE   W18
 BYTE   N17  Cn3
 BYTE   W18
 BYTE   Dn3
 BYTE   N32  Fs3  v072
 BYTE   W18
 BYTE   N17  Dn3  v064
 BYTE   W18
 BYTE   N17
 BYTE   N23  As3  v076
 BYTE   W24
 BYTE   PEND 
//  #04 //027   ----------------------------------------
Label_5496C1:
 BYTE   N17  Gn2  v064
 BYTE   N17  Dn3
 BYTE   N32  An3  v080
 BYTE   W18
 BYTE   N17  Gn2  v064
 BYTE   N17  Dn3
 BYTE   W18
 BYTE   Gn2
 BYTE   N17  Dn3
 BYTE   N17  Fn3  v080
 BYTE   W18
 BYTE   N23  Gn2  v064
 BYTE   N32  Dn3
 BYTE   W42
 BYTE   PEND 
//  #04 //028   ----------------------------------------
 BYTE   W96
//  #04 //029   ----------------------------------------
 BYTE   W96
//  #04 //030   ----------------------------------------
 BYTE   W96
//  #04 //031   ----------------------------------------
 BYTE   W96
//  #04 //032   ----------------------------------------
 BYTE   W96
//  #04 //033   ----------------------------------------
 BYTE   W96
//  #04 //034   ----------------------------------------
 BYTE   W96
//  #04 //035   ----------------------------------------
 BYTE   W96
//  #04 //036   ----------------------------------------
 BYTE   W96
//  #04 //037   ----------------------------------------
 BYTE   W96
//  #04 //038   ----------------------------------------
 BYTE   W96
//  #04 //039   ----------------------------------------
 BYTE   W96
//  #04 //040   ----------------------------------------
 BYTE   W96
//  #04 //041   ----------------------------------------
 BYTE   W96
//  #04 //042   ----------------------------------------
 BYTE   W96
//  #04 //043   ----------------------------------------
 BYTE   W96
//  #04 //044   ----------------------------------------
 BYTE   W96
//  #04 //045   ----------------------------------------
 BYTE   W96
//  #04 //046   ----------------------------------------
 BYTE   W96
//  #04 //047   ----------------------------------------
 BYTE   W96
//  #04 //048   ----------------------------------------
 BYTE   W96
//  #04 //049   ----------------------------------------
 BYTE   W96
//  #04 //050   ----------------------------------------
 BYTE   W96
//  #04 //051   ----------------------------------------
 BYTE   W96
//  #04 //052   ----------------------------------------
 BYTE   W96
//  #04 //053   ----------------------------------------
 BYTE   W96
//  #04 //054   ----------------------------------------
 BYTE   W96
//  #04 //055   ----------------------------------------
 BYTE   W96
//  #04 //056   ----------------------------------------
Label_5496FA:
 BYTE   W24
 BYTE   N23  Gn2  v096
 BYTE   W24
 BYTE   As2
 BYTE   W24
 BYTE   Fn3
 BYTE   W24
 BYTE   PEND 
//  #04 //057   ----------------------------------------
Label_549704:
 BYTE   N52  An2  v064
 BYTE   W54
 BYTE   N40  As2
 BYTE   W42
 BYTE   PEND 
//  #04 //058   ----------------------------------------
 BYTE   W96
//  #04 //059   ----------------------------------------
 BYTE   W96
//  #04 //060   ----------------------------------------
 BYTE   W96
//  #04 //061   ----------------------------------------
 BYTE   PATT
  POIN2 Label_549621
//  #04 //062   ----------------------------------------
 BYTE   W96
//  #04 //063   ----------------------------------------
 BYTE   PATT
  POIN2 Label_549621
//  #04 //064   ----------------------------------------
 BYTE   W96
//  #04 //065   ----------------------------------------
 BYTE   W96
//  #04 //066   ----------------------------------------
 BYTE   W96
//  #04 //067   ----------------------------------------
 BYTE   W96
//  #04 //068   ----------------------------------------
 BYTE   W96
//  #04 //069   ----------------------------------------
 BYTE   W96
//  #04 //070   ----------------------------------------
 BYTE   W96
//  #04 //071   ----------------------------------------
 BYTE   W96
//  #04 //072   ----------------------------------------
 BYTE   W96
//  #04 //073   ----------------------------------------
 BYTE   W96
//  #04 //074   ----------------------------------------
 BYTE   W96
//  #04 //075   ----------------------------------------
 BYTE   W96
//  #04 //076   ----------------------------------------
 BYTE   W96
//  #04 //077   ----------------------------------------
 BYTE   W96
//  #04 //078   ----------------------------------------
 BYTE   W96
//  #04 //079   ----------------------------------------
 BYTE   W96
//  #04 //080   ----------------------------------------
 BYTE   W96
//  #04 //081   ----------------------------------------
 BYTE   PATT
  POIN2 Label_549642
//  #04 //082   ----------------------------------------
 BYTE   PATT
  POIN2 Label_54964C
//  #04 //083   ----------------------------------------
 BYTE   PATT
  POIN2 Label_549669
//  #04 //084   ----------------------------------------
 BYTE   PATT
  POIN2 Label_549681
//  #04 //085   ----------------------------------------
 BYTE   PATT
  POIN2 Label_549697
//  #04 //086   ----------------------------------------
 BYTE   PATT
  POIN2 Label_5496A1
//  #04 //087   ----------------------------------------
 BYTE   PATT
  POIN2 Label_5496A9
//  #04 //088   ----------------------------------------
 BYTE   PATT
  POIN2 Label_5496C1
//  #04 //089   ----------------------------------------
 BYTE   W96
//  #04 //090   ----------------------------------------
 BYTE   W96
//  #04 //091   ----------------------------------------
 BYTE   W96
//  #04 //092   ----------------------------------------
 BYTE   W96
//  #04 //093   ----------------------------------------
 BYTE   W96
//  #04 //094   ----------------------------------------
 BYTE   W96
//  #04 //095   ----------------------------------------
 BYTE   W96
//  #04 //096   ----------------------------------------
 BYTE   W96
//  #04 //097   ----------------------------------------
 BYTE   W96
//  #04 //098   ----------------------------------------
 BYTE   W96
//  #04 //099   ----------------------------------------
 BYTE   W96
//  #04 //100   ----------------------------------------
 BYTE   W96
//  #04 //101   ----------------------------------------
 BYTE   W96
//  #04 //102   ----------------------------------------
 BYTE   W96
//  #04 //103   ----------------------------------------
 BYTE   W96
//  #04 //104   ----------------------------------------
 BYTE   W96
//  #04 //105   ----------------------------------------
 BYTE   W96
//  #04 //106   ----------------------------------------
 BYTE   W96
//  #04 //107   ----------------------------------------
 BYTE   W96
//  #04 //108   ----------------------------------------
 BYTE   W96
//  #04 //109   ----------------------------------------
 BYTE   W96
//  #04 //110   ----------------------------------------
 BYTE   W96
//  #04 //111   ----------------------------------------
 BYTE   W96
//  #04 //112   ----------------------------------------
 BYTE   W96
//  #04 //113   ----------------------------------------
 BYTE   W96
//  #04 //114   ----------------------------------------
 BYTE   W96
//  #04 //115   ----------------------------------------
 BYTE   W96
//  #04 //116   ----------------------------------------
 BYTE   W96
//  #04 //117   ----------------------------------------
 BYTE   PATT
  POIN2 Label_5496FA
//  #04 //118   ----------------------------------------
 BYTE   PATT
  POIN2 Label_549704
//  #04 //119   ----------------------------------------
 BYTE   W96
//  #04 //120   ----------------------------------------
 BYTE   W96
//  #04 //121   ----------------------------------------
 BYTE   W96
//  #04 //122   ----------------------------------------
 BYTE   GoTo
  POIN2 Label_549621
 BYTE   FINE

//**************** Track 5 (Midi-Chn.4) ****************//

song06_005:
//  #05 //000   ----------------------------------------
 BYTE   KEYSH   song06_key+0
 BYTE   VOICE   121
 BYTE   VOL   62*song06_mvl/mxv
 BYTE   PAN   c_v+0
 BYTE   VOL   62*song06_mvl/mxv
 BYTE   PAN   c_v+0
 BYTE   W12
Label_549F35:
 BYTE   N01  Ds2  v036
 BYTE   N11  An3  v028
 BYTE   W01
 BYTE   N01  Cs2  v016
 BYTE   N01  Ds2  v036
 BYTE   N01  Gn2  v028
 BYTE   W11
 BYTE   N11  An3  v020
 BYTE   W12
 BYTE   An3  v028
 BYTE   W12
 BYTE   An3  v016
 BYTE   W12
 BYTE   N11
 BYTE   W12
 BYTE   An3  v012
 BYTE   W12
 BYTE   N11
 BYTE   W12
//  #05 //001   ----------------------------------------
 BYTE   An3  v008
 BYTE   W12
 BYTE   PEND 
 BYTE   W96
//  #05 //002   ----------------------------------------
Label_549F5C:
 BYTE   N11  An3  v028
 BYTE   W12
 BYTE   An3  v020
 BYTE   W12
 BYTE   An3  v028
 BYTE   W12
 BYTE   An3  v016
 BYTE   W12
 BYTE   N11
 BYTE   W12
 BYTE   An3  v012
 BYTE   W12
 BYTE   N11
 BYTE   W12
 BYTE   An3  v008
 BYTE   W12
 BYTE   PEND 
//  #05 //003   ----------------------------------------
 BYTE   W96
//  #05 //004   ----------------------------------------
 BYTE   PATT
  POIN2 Label_549F5C
//  #05 //005   ----------------------------------------
 BYTE   W96
//  #05 //006   ----------------------------------------
 BYTE   PATT
  POIN2 Label_549F5C
//  #05 //007   ----------------------------------------
 BYTE   W96
//  #05 //008   ----------------------------------------
 BYTE   PATT
  POIN2 Label_549F5C
//  #05 //009   ----------------------------------------
 BYTE   W96
//  #05 //010   ----------------------------------------
 BYTE   PATT
  POIN2 Label_549F5C
//  #05 //011   ----------------------------------------
Label_549F8C:
 BYTE   W84
 BYTE   W03
 BYTE   N02  As1  v016
 BYTE   W03
 BYTE   As1  v024
 BYTE   W03
 BYTE   As1  v028
 BYTE   W03
 BYTE   PEND 
//  #05 //012   ----------------------------------------
 BYTE   PATT
  POIN2 Label_549F35
//  #05 //013   ----------------------------------------
 BYTE   W96
//  #05 //014   ----------------------------------------
 BYTE   PATT
  POIN2 Label_549F5C
//  #05 //015   ----------------------------------------
 BYTE   PATT
  POIN2 Label_549F8C
//  #05 //016   ----------------------------------------
Label_549FA9:
 BYTE   N01  Ds2  v036
 BYTE   N11  An3  v028
 BYTE   W01
 BYTE   N01  Cs2  v016
 BYTE   N01  Ds2  v036
 BYTE   W11
 BYTE   N11  An3  v020
 BYTE   W12
 BYTE   An3  v028
 BYTE   W12
 BYTE   An3  v016
 BYTE   W12
 BYTE   N11
 BYTE   W12
 BYTE   An3  v012
 BYTE   W12
 BYTE   N11
 BYTE   W12
 BYTE   An3  v008
 BYTE   W12
 BYTE   PEND 
//  #05 //017   ----------------------------------------
 BYTE   W96
//  #05 //018   ----------------------------------------
 BYTE   PATT
  POIN2 Label_549F5C
//  #05 //019   ----------------------------------------
Label_549FD2:
 BYTE   W84
 BYTE   W03
 BYTE   N02  Cs2  v016
 BYTE   W03
 BYTE   N02
 BYTE   W03
 BYTE   Cs2  v024
 BYTE   W03
 BYTE   PEND 
//  #05 //020   ----------------------------------------
Label_549FDE:
 BYTE   N02  Cs2  v036
 BYTE   W02
 BYTE   N02
 BYTE   W02
 BYTE   Cs2  v028
 BYTE   W03
 BYTE   Cs2  v024
 BYTE   W02
 BYTE   Cs2  v016
 BYTE   W03
 BYTE   N02
 BYTE   W02
 BYTE   N02
 BYTE   W02
 BYTE   N02
 BYTE   W03
 BYTE   N02
 BYTE   W02
 BYTE   N02
 BYTE   W72
 BYTE   W03
 BYTE   PEND 
//  #05 //021   ----------------------------------------
Label_549FF9:
 BYTE   N11  An3  v036
 BYTE   W12
 BYTE   An3  v020
 BYTE   W12
 BYTE   An3  v028
 BYTE   W12
 BYTE   An3  v016
 BYTE   W12
 BYTE   N11
 BYTE   W12
 BYTE   An3  v012
 BYTE   W12
 BYTE   N11
 BYTE   W12
 BYTE   An3  v008
 BYTE   W12
 BYTE   PEND 
//  #05 //022   ----------------------------------------
Label_54A011:
 BYTE   N23  An3  v016
 BYTE   W24
 BYTE   N23
 BYTE   W24
 BYTE   N23
 BYTE   W48
 BYTE   PEND 
//  #05 //023   ----------------------------------------
Label_54A01A:
 BYTE   N11  An3  v036
 BYTE   W12
 BYTE   An3  v020
 BYTE   W12
 BYTE   An3  v028
 BYTE   W12
 BYTE   An3  v016
 BYTE   W12
 BYTE   N11
 BYTE   W12
 BYTE   An3  v012
 BYTE   W12
 BYTE   N11
 BYTE   W12
 BYTE   An3  v008
 BYTE   W03
 BYTE   N02  As1  v016
 BYTE   W03
 BYTE   As1  v024
 BYTE   W03
 BYTE   As1  v028
 BYTE   W03
 BYTE   PEND 
//  #05 //024   ----------------------------------------
Label_54A03C:
 BYTE   N01  Ds2  v036
 BYTE   W01
 BYTE   Cs2  v016
 BYTE   N01  Ds2  v036
 BYTE   N01  Gn2  v028
 BYTE   W92
 BYTE   W03
 BYTE   PEND 
//  #05 //025   ----------------------------------------
 BYTE   PATT
  POIN2 Label_549FF9
//  #05 //026   ----------------------------------------
 BYTE   W96
//  #05 //027   ----------------------------------------
 BYTE   PATT
  POIN2 Label_549FF9
//  #05 //028   ----------------------------------------
 BYTE   W96
//  #05 //029   ----------------------------------------
 BYTE   W96
//  #05 //030   ----------------------------------------
 BYTE   PATT
  POIN2 Label_549FF9
//  #05 //031   ----------------------------------------
 BYTE   PATT
  POIN2 Label_549F5C
//  #05 //032   ----------------------------------------
 BYTE   PATT
  POIN2 Label_549FF9
//  #05 //033   ----------------------------------------
 BYTE   W96
//  #05 //034   ----------------------------------------
 BYTE   PATT
  POIN2 Label_549FF9
//  #05 //035   ----------------------------------------
Label_54A06D:
 BYTE   N11  An3  v028
 BYTE   W12
 BYTE   An3  v020
 BYTE   W12
 BYTE   An3  v028
 BYTE   W12
 BYTE   An3  v016
 BYTE   W12
 BYTE   N11
 BYTE   W12
 BYTE   An3  v012
 BYTE   W12
 BYTE   N11
 BYTE   W12
 BYTE   An3  v008
 BYTE   W03
 BYTE   N02  As1  v016
 BYTE   W03
 BYTE   As1  v024
 BYTE   W03
 BYTE   As1  v028
 BYTE   W03
 BYTE   PEND 
//  #05 //036   ----------------------------------------
Label_54A08F:
 BYTE   N01  Ds2  v036
 BYTE   N11  An3
 BYTE   W01
 BYTE   N01  Cs2  v016
 BYTE   N01  Ds2  v036
 BYTE   N01  Gn2  v028
 BYTE   W11
 BYTE   N11  An3  v020
 BYTE   W12
 BYTE   An3  v028
 BYTE   W12
 BYTE   An3  v016
 BYTE   W12
 BYTE   N11
 BYTE   W12
 BYTE   An3  v012
 BYTE   W12
 BYTE   N11
 BYTE   W12
 BYTE   An3  v008
 BYTE   W12
 BYTE   PEND 
//  #05 //037   ----------------------------------------
 BYTE   W96
//  #05 //038   ----------------------------------------
 BYTE   PATT
  POIN2 Label_549FF9
//  #05 //039   ----------------------------------------
 BYTE   W96
//  #05 //040   ----------------------------------------
 BYTE   PATT
  POIN2 Label_549FF9
//  #05 //041   ----------------------------------------
 BYTE   W96
//  #05 //042   ----------------------------------------
 BYTE   PATT
  POIN2 Label_549FF9
//  #05 //043   ----------------------------------------
 BYTE   PATT
  POIN2 Label_549FD2
//  #05 //044   ----------------------------------------
 BYTE   PATT
  POIN2 Label_549FDE
//  #05 //045   ----------------------------------------
 BYTE   PATT
  POIN2 Label_549FF9
//  #05 //046   ----------------------------------------
 BYTE   W96
//  #05 //047   ----------------------------------------
 BYTE   PATT
  POIN2 Label_54A01A
//  #05 //048   ----------------------------------------
 BYTE   PATT
  POIN2 Label_54A08F
//  #05 //049   ----------------------------------------
 BYTE   PATT
  POIN2 Label_549FF9
//  #05 //050   ----------------------------------------
 BYTE   PATT
  POIN2 Label_549FF9
//  #05 //051   ----------------------------------------
Label_54A0EA:
 BYTE   N11  An3  v036
 BYTE   W12
 BYTE   An3  v020
 BYTE   W12
 BYTE   An3  v028
 BYTE   W12
 BYTE   An3  v016
 BYTE   W12
 BYTE   N11
 BYTE   W12
 BYTE   An3  v012
 BYTE   W12
 BYTE   N11
 BYTE   W12
 BYTE   An3  v008
 BYTE   W03
 BYTE   N02  Cs2  v016
 BYTE   W03
 BYTE   N02
 BYTE   W03
 BYTE   Cs2  v024
 BYTE   W03
 BYTE   PEND 
//  #05 //052   ----------------------------------------
 BYTE   PATT
  POIN2 Label_549FDE
//  #05 //053   ----------------------------------------
 BYTE   PATT
  POIN2 Label_549FF9
//  #05 //054   ----------------------------------------
 BYTE   PATT
  POIN2 Label_54A011
//  #05 //055   ----------------------------------------
 BYTE   PATT
  POIN2 Label_549FF9
//  #05 //056   ----------------------------------------
 BYTE   W96
//  #05 //057   ----------------------------------------
 BYTE   PATT
  POIN2 Label_549FF9
//  #05 //058   ----------------------------------------
 BYTE   W96
//  #05 //059   ----------------------------------------
 BYTE   PATT
  POIN2 Label_549FF9
//  #05 //060   ----------------------------------------
 BYTE   W96
//  #05 //061   ----------------------------------------
 BYTE   PATT
  POIN2 Label_549F35
//  #05 //062   ----------------------------------------
 BYTE   W96
//  #05 //063   ----------------------------------------
 BYTE   PATT
  POIN2 Label_549F5C
//  #05 //064   ----------------------------------------
 BYTE   W96
//  #05 //065   ----------------------------------------
 BYTE   PATT
  POIN2 Label_549F5C
//  #05 //066   ----------------------------------------
 BYTE   W96
//  #05 //067   ----------------------------------------
 BYTE   PATT
  POIN2 Label_549F5C
//  #05 //068   ----------------------------------------
 BYTE   W96
//  #05 //069   ----------------------------------------
 BYTE   PATT
  POIN2 Label_549F5C
//  #05 //070   ----------------------------------------
 BYTE   W96
//  #05 //071   ----------------------------------------
 BYTE   PATT
  POIN2 Label_549F5C
//  #05 //072   ----------------------------------------
 BYTE   PATT
  POIN2 Label_549F8C
//  #05 //073   ----------------------------------------
 BYTE   PATT
  POIN2 Label_549F35
//  #05 //074   ----------------------------------------
 BYTE   W96
//  #05 //075   ----------------------------------------
 BYTE   PATT
  POIN2 Label_549F5C
//  #05 //076   ----------------------------------------
 BYTE   PATT
  POIN2 Label_549F8C
//  #05 //077   ----------------------------------------
 BYTE   PATT
  POIN2 Label_549FA9
//  #05 //078   ----------------------------------------
 BYTE   W96
//  #05 //079   ----------------------------------------
 BYTE   PATT
  POIN2 Label_549F5C
//  #05 //080   ----------------------------------------
 BYTE   PATT
  POIN2 Label_549FD2
//  #05 //081   ----------------------------------------
 BYTE   PATT
  POIN2 Label_549FDE
//  #05 //082   ----------------------------------------
 BYTE   PATT
  POIN2 Label_549FF9
//  #05 //083   ----------------------------------------
 BYTE   PATT
  POIN2 Label_54A011
//  #05 //084   ----------------------------------------
 BYTE   PATT
  POIN2 Label_54A01A
//  #05 //085   ----------------------------------------
 BYTE   PATT
  POIN2 Label_54A03C
//  #05 //086   ----------------------------------------
 BYTE   PATT
  POIN2 Label_549FF9
//  #05 //087   ----------------------------------------
 BYTE   W96
//  #05 //088   ----------------------------------------
 BYTE   PATT
  POIN2 Label_549FF9
//  #05 //089   ----------------------------------------
 BYTE   W96
//  #05 //090   ----------------------------------------
 BYTE   W96
//  #05 //091   ----------------------------------------
 BYTE   PATT
  POIN2 Label_549FF9
//  #05 //092   ----------------------------------------
 BYTE   PATT
  POIN2 Label_549F5C
//  #05 //093   ----------------------------------------
 BYTE   PATT
  POIN2 Label_549FF9
//  #05 //094   ----------------------------------------
 BYTE   W96
//  #05 //095   ----------------------------------------
 BYTE   PATT
  POIN2 Label_549FF9
//  #05 //096   ----------------------------------------
 BYTE   PATT
  POIN2 Label_54A06D
//  #05 //097   ----------------------------------------
 BYTE   PATT
  POIN2 Label_54A08F
//  #05 //098   ----------------------------------------
 BYTE   W96
//  #05 //099   ----------------------------------------
 BYTE   PATT
  POIN2 Label_549FF9
//  #05 //100   ----------------------------------------
 BYTE   W96
//  #05 //101   ----------------------------------------
 BYTE   PATT
  POIN2 Label_549FF9
//  #05 //102   ----------------------------------------
 BYTE   W96
//  #05 //103   ----------------------------------------
 BYTE   PATT
  POIN2 Label_549FF9
//  #05 //104   ----------------------------------------
 BYTE   PATT
  POIN2 Label_549FD2
//  #05 //105   ----------------------------------------
 BYTE   PATT
  POIN2 Label_549FDE
//  #05 //106   ----------------------------------------
 BYTE   PATT
  POIN2 Label_549FF9
//  #05 //107   ----------------------------------------
 BYTE   W96
//  #05 //108   ----------------------------------------
 BYTE   PATT
  POIN2 Label_54A01A
//  #05 //109   ----------------------------------------
 BYTE   PATT
  POIN2 Label_54A08F
//  #05 //110   ----------------------------------------
 BYTE   PATT
  POIN2 Label_549FF9
//  #05 //111   ----------------------------------------
 BYTE   PATT
  POIN2 Label_549FF9
//  #05 //112   ----------------------------------------
 BYTE   PATT
  POIN2 Label_54A0EA
//  #05 //113   ----------------------------------------
 BYTE   PATT
  POIN2 Label_549FDE
//  #05 //114   ----------------------------------------
 BYTE   PATT
  POIN2 Label_549FF9
//  #05 //115   ----------------------------------------
 BYTE   PATT
  POIN2 Label_54A011
//  #05 //116   ----------------------------------------
 BYTE   PATT
  POIN2 Label_549FF9
//  #05 //117   ----------------------------------------
 BYTE   W96
//  #05 //118   ----------------------------------------
 BYTE   PATT
  POIN2 Label_549FF9
//  #05 //119   ----------------------------------------
 BYTE   W96
//  #05 //120   ----------------------------------------
 BYTE   PATT
  POIN2 Label_549FF9
//  #05 //121   ----------------------------------------
 BYTE   W96
//  #05 //122   ----------------------------------------
 BYTE   GoTo
  POIN2 Label_549F35
 BYTE   FINE

//**************** Track 6 (Midi-Chn.5) ****************//

song06_006:
//  #06 //000   ----------------------------------------
 BYTE   KEYSH   song06_key+0
 BYTE   VOICE   49
 BYTE   VOL   62*song06_mvl/mxv
 BYTE   PAN   c_v+0
 BYTE   VOL   62*song06_mvl/mxv
 BYTE   PAN   c_v+0
 BYTE   VOL   62*song06_mvl/mxv
 BYTE   PAN   c_v+0
 BYTE   W12
Label_0110DA09:
 BYTE   W96
//  #06 //001   ----------------------------------------
 BYTE   W96
//  #06 //002   ----------------------------------------
 BYTE   W96
//  #06 //003   ----------------------------------------
 BYTE   W96
//  #06 //004   ----------------------------------------
 BYTE   W96
//  #06 //005   ----------------------------------------
 BYTE   W96
//  #06 //006   ----------------------------------------
 BYTE   W96
//  #06 //007   ----------------------------------------
Label_0110DA10:
 BYTE   W48
 BYTE   N02  Fn4  v028
 BYTE   W02
 BYTE   N02
 BYTE   W03
 BYTE   N02
 BYTE   W03
 BYTE   N02
 BYTE   W03
 BYTE   N02
 BYTE   W03
 BYTE   N01
 BYTE   W01
 BYTE   N02
 BYTE   W02
 BYTE   N01
 BYTE   W01
 BYTE   N02
 BYTE   W02
 BYTE   N01
 BYTE   W01
 BYTE   N02
 BYTE   W02
 BYTE   N01
 BYTE   W01
 BYTE   N02
 BYTE   W02
 BYTE   N01
 BYTE   W01
 BYTE   N02  Fn4  v032
 BYTE   W02
 BYTE   N01  Fn4  v028
 BYTE   W01
 BYTE   N02  Fn4  v032
 BYTE   W02
 BYTE   N01  Fn4  v028
 BYTE   W01
 BYTE   N02  Fn4  v032
 BYTE   W02
 BYTE   N01  Fn4  v028
 BYTE   W01
 BYTE   N02  Fn4  v032
 BYTE   W02
 BYTE   N01  Fn4  v028
 BYTE   W01
 BYTE   N02  Fn4  v036
 BYTE   W02
 BYTE   N01  Fn4  v028
 BYTE   W01
 BYTE   N02  Fn4  v036
 BYTE   W02
 BYTE   N01  Fn4  v028
 BYTE   W01
 BYTE   N02  Fn4  v036
 BYTE   W03
 BYTE   PEND 
//  #06 //008   ----------------------------------------
Label_0110DA64:
 BYTE   N01  Fn4  v036
 BYTE   W01
 BYTE   N01
 BYTE   W02
 BYTE   N01
 BYTE   W01
 BYTE   N01
 BYTE   W02
 BYTE   Fn4  v040
 BYTE   W01
 BYTE   Fn4  v036
 BYTE   W02
 BYTE   Fn4  v040
 BYTE   W01
 BYTE   Fn4  v036
 BYTE   W02
 BYTE   N02  Fn4  v052
 BYTE   W03
 BYTE   Fn4  v040
 BYTE   W03
 BYTE   N02
 BYTE   W03
 BYTE   N02
 BYTE   W03
 BYTE   N02
 BYTE   W03
 BYTE   N02
 BYTE   W03
 BYTE   N02
 BYTE   W03
 BYTE   N02
 BYTE   W03
 BYTE   N01  Dn4  v052
 BYTE   W01
 BYTE   N01
 BYTE   W02
 BYTE   N01
 BYTE   W01
 BYTE   N01
 BYTE   W02
 BYTE   N01
 BYTE   W01
 BYTE   N01
 BYTE   W02
 BYTE   N01
 BYTE   W01
 BYTE   N04
 BYTE   W05
 BYTE   N02
 BYTE   W03
 BYTE   N02
 BYTE   W03
 BYTE   N02
 BYTE   W03
 BYTE   N02
 BYTE   W03
 BYTE   N02
 BYTE   W03
 BYTE   N02
 BYTE   W03
 BYTE   N02
 BYTE   W03
 BYTE   N02
 BYTE   W03
 BYTE   N02
 BYTE   W03
 BYTE   N02
 BYTE   W03
 BYTE   N02
 BYTE   W03
 BYTE   N02
 BYTE   W03
 BYTE   N02
 BYTE   W03
 BYTE   N02
 BYTE   W03
 BYTE   N02
 BYTE   W03
 BYTE   PEND 
//  #06 //009   ----------------------------------------
Label_0110DABE:
 BYTE   N02  Dn4  v052
 BYTE   W03
 BYTE   N02
 BYTE   W03
 BYTE   N02
 BYTE   W03
 BYTE   N02
 BYTE   W03
 BYTE   N02
 BYTE   W02
 BYTE   N01  Dn4  v020
 BYTE   W01
 BYTE   N02  Dn4  v052
 BYTE   W02
 BYTE   N01  Dn4  v020
 BYTE   W01
 BYTE   N02  Dn4  v052
 BYTE   W02
 BYTE   N01  Dn4  v020
 BYTE   W01
 BYTE   N02  Dn4  v052
 BYTE   W02
 BYTE   N01  Dn4  v020
 BYTE   W01
 BYTE   N02  Dn4  v052
 BYTE   W02
 BYTE   N01  Dn4  v020
 BYTE   W01
 BYTE   N02  Dn4  v052
 BYTE   W02
 BYTE   N01  Dn4  v020
 BYTE   W01
 BYTE   N02  Dn4  v052
 BYTE   W02
 BYTE   N01  Dn4  v020
 BYTE   W01
 BYTE   N02  Dn4  v052
 BYTE   W03
 BYTE   Cn4
 BYTE   W03
 BYTE   N02
 BYTE   W03
 BYTE   N02
 BYTE   W02
 BYTE   N01  Cn4  v020
 BYTE   W01
 BYTE   N02  Cn4  v052
 BYTE   W02
 BYTE   N01  Cn4  v020
 BYTE   W01
 BYTE   N02  Cn4  v052
 BYTE   W02
 BYTE   N01  Cn4  v020
 BYTE   W01
 BYTE   N02  Cn4  v052
 BYTE   W02
 BYTE   N01  Cn4  v020
 BYTE   W01
 BYTE   N02  Cn4  v052
 BYTE   W02
 BYTE   N01  Cn4  v020
 BYTE   W01
 BYTE   N02  Cn4  v052
 BYTE   W02
 BYTE   N01  Cn4  v020
 BYTE   W01
 BYTE   N02  Cn4  v052
 BYTE   W02
 BYTE   N01  Cn4  v020
 BYTE   W01
 BYTE   N02  Cn4  v052
 BYTE   W02
 BYTE   N01  Cn4  v020
 BYTE   W01
 BYTE   N02  Cn4  v052
 BYTE   W02
 BYTE   N01  Cn4  v020
 BYTE   W01
 BYTE   N02  Cn4  v052
 BYTE   W02
 BYTE   N01  Cn4  v020
 BYTE   W01
 BYTE   N02  Cn4  v052
 BYTE   W02
 BYTE   N01  Cn4  v020
 BYTE   W01
 BYTE   N02  Cn4  v052
 BYTE   W02
 BYTE   N01  Cn4  v020
 BYTE   W01
 BYTE   N02  Cn4  v052
 BYTE   W02
 BYTE   N01  Cn4  v020
 BYTE   W01
 BYTE   N02  Cn4  v052
 BYTE   W03
 BYTE   N02
 BYTE   W03
 BYTE   N02
 BYTE   W03
 BYTE   N02
 BYTE   W03
 BYTE   N02
 BYTE   W03
 BYTE   PEND 
//  #06 //010   ----------------------------------------
Label_0110DB79:
 BYTE   N02  Fn4  v040
 BYTE   W03
 BYTE   N02
 BYTE   W03
 BYTE   N02
 BYTE   W03
 BYTE   N02
 BYTE   W03
 BYTE   Fn4  v052
 BYTE   W02
 BYTE   N01  Fn4  v040
 BYTE   W01
 BYTE   N02
 BYTE   W02
 BYTE   N01
 BYTE   W01
 BYTE   N02
 BYTE   W02
 BYTE   N01
 BYTE   W01
 BYTE   N02
 BYTE   W02
 BYTE   N01
 BYTE   W01
 BYTE   N02
 BYTE   W02
 BYTE   N01
 BYTE   W01
 BYTE   N02
 BYTE   W02
 BYTE   N01
 BYTE   W01
 BYTE   N02
 BYTE   W02
 BYTE   N01
 BYTE   W01
 BYTE   N02
 BYTE   W03
 BYTE   N01  Dn4  v052
 BYTE   W01
 BYTE   N01
 BYTE   W02
 BYTE   N01
 BYTE   W01
 BYTE   N01
 BYTE   W02
 BYTE   N01
 BYTE   W01
 BYTE   N01
 BYTE   W02
 BYTE   N01
 BYTE   W01
 BYTE   N04
 BYTE   W05
 BYTE   N02
 BYTE   W03
 BYTE   N02
 BYTE   W03
 BYTE   N02
 BYTE   W03
 BYTE   N02
 BYTE   W03
 BYTE   Dn4  v056
 BYTE   W03
 BYTE   N02
 BYTE   W03
 BYTE   N02
 BYTE   W03
 BYTE   Dn4  v060
 BYTE   W03
 BYTE   N02
 BYTE   W03
 BYTE   N02
 BYTE   W03
 BYTE   Dn4  v064
 BYTE   W03
 BYTE   N02
 BYTE   W03
 BYTE   N02
 BYTE   W03
 BYTE   Dn4  v068
 BYTE   W03
 BYTE   N02
 BYTE   W03
 BYTE   PEND 
//  #06 //011   ----------------------------------------
Label_0110DBD9:
 BYTE   N02  Ds4  v068
 BYTE   W03
 BYTE   Ds4  v072
 BYTE   W03
 BYTE   N02
 BYTE   W03
 BYTE   N02
 BYTE   W03
 BYTE   Ds4  v076
 BYTE   W02
 BYTE   N01  Ds4  v028
 BYTE   W01
 BYTE   N02  Ds4  v076
 BYTE   W02
 BYTE   N01  Ds4  v028
 BYTE   W01
 BYTE   N02  Ds4  v076
 BYTE   W02
 BYTE   N01  Ds4  v028
 BYTE   W01
 BYTE   N02  Ds4  v080
 BYTE   W02
 BYTE   N01  Ds4  v028
 BYTE   W01
 BYTE   N02  Ds4  v080
 BYTE   W02
 BYTE   N01  Ds4  v028
 BYTE   W01
 BYTE   N02  Ds4  v080
 BYTE   W02
 BYTE   N01  Ds4  v028
 BYTE   W01
 BYTE   N02  Ds4  v080
 BYTE   W02
 BYTE   N01  Ds4  v028
 BYTE   W01
 BYTE   N02  Ds4  v080
 BYTE   W03
 BYTE   Fn4
 BYTE   W03
 BYTE   N02
 BYTE   W03
 BYTE   N02
 BYTE   W02
 BYTE   N01  Fn4  v032
 BYTE   W01
 BYTE   N02  Fn4  v080
 BYTE   W02
 BYTE   N01  Fn4  v032
 BYTE   W01
 BYTE   N02  Fn4  v080
 BYTE   W02
 BYTE   N01  Fn4  v032
 BYTE   W01
 BYTE   N02  Fn4  v080
 BYTE   W02
 BYTE   N01  Fn4  v032
 BYTE   W01
 BYTE   N02  Fn4  v080
 BYTE   W02
 BYTE   N01  Fn4  v032
 BYTE   W01
 BYTE   N02  Fn4  v080
 BYTE   W02
 BYTE   N01  Fn4  v032
 BYTE   W01
 BYTE   N02  Fn4  v080
 BYTE   W02
 BYTE   N01  Fn4  v032
 BYTE   W01
 BYTE   N02  Fn4  v080
 BYTE   W02
 BYTE   N01  Fn4  v032
 BYTE   W01
 BYTE   N02  Fn4  v076
 BYTE   W02
 BYTE   N01  Fn4  v032
 BYTE   W01
 BYTE   N02  Fn4  v068
 BYTE   W02
 BYTE   N01  Fn4  v032
 BYTE   W01
 BYTE   Ds4  v024
 BYTE   W01
 BYTE   N01
 BYTE   W01
 BYTE   N01
 BYTE   N02  Fn4  v032
 BYTE   W01
 BYTE   Ds4  v052
 BYTE   W02
 BYTE   Fn4  v032
 BYTE   W01
 BYTE   Ds4  v044
 BYTE   W02
 BYTE   Fn4  v032
 BYTE   W01
 BYTE   Ds4  v036
 BYTE   W03
 BYTE   N11  An3  v064
 BYTE   W12
 BYTE   PEND 
//  #06 //012   ----------------------------------------
Label_0110DC8F:
 BYTE   N32  Ds1  v064
 BYTE   N32  Gn3
 BYTE   N17  As3
 BYTE   W18
 BYTE   Fn4
 BYTE   W18
 BYTE   N44  Gn1
 BYTE   N11  Fn3  v080
 BYTE   N17  Cn4  v064
 BYTE   W12
 BYTE   N02  Fn3  v080
 BYTE   W03
 BYTE   N02
 BYTE   W03
 BYTE   N02
 BYTE   N17  Dn4  v064
 BYTE   W03
 BYTE   N02  Fn3  v080
 BYTE   W03
 BYTE   N02
 BYTE   W03
 BYTE   Fn3  v076
 BYTE   W03
 BYTE   Fn3  v072
 BYTE   W03
 BYTE   Fn3  v068
 BYTE   W03
 BYTE   Fn3  v064
 BYTE   N02  Dn4
 BYTE   W03
 BYTE   Fn3  v060
 BYTE   N02  Dn4  v064
 BYTE   W03
 BYTE   Fn3  v056
 BYTE   N02  Dn4  v064
 BYTE   W03
 BYTE   Fn3  v052
 BYTE   N02  Dn4  v064
 BYTE   W03
 BYTE   Fn3  v048
 BYTE   N11  Gn3  v064
 BYTE   W03
 BYTE   N02  Fn3  v044
 BYTE   W03
 BYTE   Fn3  v040
 BYTE   W03
 BYTE   Fn3  v036
 BYTE   W03
 BYTE   PEND 
//  #06 //013   ----------------------------------------
Label_0110DCE4:
 BYTE   N32  Ds1  v064
 BYTE   N32  Gn3
 BYTE   N17  As3
 BYTE   W18
 BYTE   Fn4
 BYTE   W18
 BYTE   N44  Gn1
 BYTE   N11  Fn3  v080
 BYTE   N17  Cn4  v064
 BYTE   W12
 BYTE   N02  Fn3  v080
 BYTE   W03
 BYTE   N02
 BYTE   W03
 BYTE   N02
 BYTE   N17  As3  v064
 BYTE   W03
 BYTE   N02  Fn3  v080
 BYTE   W03
 BYTE   N02
 BYTE   W03
 BYTE   Fn3  v076
 BYTE   W03
 BYTE   Fn3  v072
 BYTE   W03
 BYTE   Fn3  v068
 BYTE   W03
 BYTE   Fn3  v064
 BYTE   N02  As3
 BYTE   W03
 BYTE   Fn3  v060
 BYTE   N02  As3  v064
 BYTE   W03
 BYTE   Fn3  v056
 BYTE   N02  As3  v064
 BYTE   W03
 BYTE   Fn3  v052
 BYTE   N02  As3  v064
 BYTE   W03
 BYTE   Fn3  v048
 BYTE   N11  Gn3  v064
 BYTE   W03
 BYTE   N02  Fn3  v044
 BYTE   W03
 BYTE   Fn3  v040
 BYTE   W03
 BYTE   Fn3  v036
 BYTE   W03
 BYTE   PEND 
//  #06 //014   ----------------------------------------
Label_0110DD39:
 BYTE   N32  Ds1  v064
 BYTE   N32  Gn3
 BYTE   N17  As3
 BYTE   W18
 BYTE   Fn4
 BYTE   W18
 BYTE   N44  Gn1
 BYTE   N11  Fn3  v080
 BYTE   N17  Cn4  v064
 BYTE   W12
 BYTE   N02  Fn3  v080
 BYTE   W03
 BYTE   N02
 BYTE   W03
 BYTE   N02
 BYTE   N17  Dn4  v064
 BYTE   W03
 BYTE   N02  Fn3  v080
 BYTE   W03
 BYTE   N02
 BYTE   W03
 BYTE   Fn3  v076
 BYTE   W03
 BYTE   Fn3  v072
 BYTE   W03
 BYTE   Fn3  v068
 BYTE   W03
 BYTE   Fn3  v064
 BYTE   N02  Dn4
 BYTE   W03
 BYTE   Fn3  v060
 BYTE   N02  Dn4  v064
 BYTE   W03
 BYTE   Fn3  v056
 BYTE   N02  Dn4  v064
 BYTE   W03
 BYTE   Fn3  v052
 BYTE   N02  Dn4  v064
 BYTE   W03
 BYTE   Fn3  v048
 BYTE   N11  As3  v064
 BYTE   W03
 BYTE   N02  Fn3  v044
 BYTE   W03
 BYTE   Fn3  v040
 BYTE   W03
 BYTE   Fn3  v036
 BYTE   W03
 BYTE   PEND 
//  #06 //015   ----------------------------------------
Label_0110DD8E:
 BYTE   N32  Cn1  v064
 BYTE   N32  Cn2
 BYTE   N32  Gn3
 BYTE   N17  Fn4
 BYTE   W18
 BYTE   Ds4
 BYTE   W18
 BYTE   N44  Dn1
 BYTE   N44  Dn2
 BYTE   N32  Fs3  v080
 BYTE   N17  Dn4  v064
 BYTE   W18
 BYTE   Cn4
 BYTE   W18
 BYTE   N02  Fs3  v096
 BYTE   N02  Cn4  v064
 BYTE   W03
 BYTE   Fs3  v088
 BYTE   N02  Cn4  v064
 BYTE   W03
 BYTE   Fs3  v080
 BYTE   N02  Cn4  v064
 BYTE   W03
 BYTE   Fs3  v072
 BYTE   N02  Cn4  v064
 BYTE   W03
 BYTE   Fs3  v060
 BYTE   N02  Cn4  v064
 BYTE   W03
 BYTE   Fs3  v052
 BYTE   N02  Cn4  v064
 BYTE   W03
 BYTE   Fs3  v044
 BYTE   N02  Cn4  v064
 BYTE   W03
 BYTE   Fs3  v036
 BYTE   N02  Cn4  v064
 BYTE   W03
 BYTE   PEND 
//  #06 //016   ----------------------------------------
 BYTE   PATT
  POIN2 Label_0110DC8F
//  #06 //017   ----------------------------------------
 BYTE   PATT
  POIN2 Label_0110DCE4
//  #06 //018   ----------------------------------------
Label_0110DDE3:
 BYTE   N32  Ds1  v064
 BYTE   N32  Gn3
 BYTE   N17  As3
 BYTE   W18
 BYTE   Fn4
 BYTE   W18
 BYTE   N44  Gn1
 BYTE   N11  Fn3  v080
 BYTE   N17  Cn4  v064
 BYTE   W12
 BYTE   N02  Fn3  v080
 BYTE   W03
 BYTE   N02
 BYTE   W03
 BYTE   N02
 BYTE   N17  Dn4  v064
 BYTE   W03
 BYTE   N02  Fn3  v080
 BYTE   W03
 BYTE   N02
 BYTE   W03
 BYTE   Fn3  v076
 BYTE   W03
 BYTE   Fn3  v072
 BYTE   W03
 BYTE   Fn3  v068
 BYTE   W03
 BYTE   Fn3  v064
 BYTE   N02  Dn4
 BYTE   W03
 BYTE   Fn3  v060
 BYTE   N02  Dn4  v064
 BYTE   W03
 BYTE   Fn3  v056
 BYTE   N02  Dn4  v064
 BYTE   W03
 BYTE   Fn3  v052
 BYTE   N02  Dn4  v064
 BYTE   W03
 BYTE   Fn3  v048
 BYTE   N11  Dn4  v064
 BYTE   W03
 BYTE   N02  Fn3  v044
 BYTE   W03
 BYTE   Fn3  v040
 BYTE   W03
 BYTE   Fn3  v036
 BYTE   W03
 BYTE   PEND 
//  #06 //019   ----------------------------------------
Label_0110DE38:
 BYTE   N17  Cn2  v064
 BYTE   N17  As4
 BYTE   W18
 BYTE   Dn2
 BYTE   N17  As4
 BYTE   W18
 BYTE   N56  Gn1
 BYTE   N17  An4
 BYTE   W18
 BYTE   N02  Gn4
 BYTE   W03
 BYTE   N02
 BYTE   W03
 BYTE   Gn4  v060
 BYTE   W03
 BYTE   Gn4  v056
 BYTE   W03
 BYTE   N01  Gn4  v052
 BYTE   W01
 BYTE   N01
 BYTE   W01
 BYTE   N01
 BYTE   W01
 BYTE   N02  Gn4  v044
 BYTE   W03
 BYTE   Gn4  v040
 BYTE   W03
 BYTE   Gn4  v036
 BYTE   W21
 BYTE   PEND 
//  #06 //020   ----------------------------------------
Label_0110DE65:
 BYTE   N02  Gn4  v036
 BYTE   W03
 BYTE   N02
 BYTE   W03
 BYTE   N02
 BYTE   W03
 BYTE   N02
 BYTE   W03
 BYTE   N02
 BYTE   W03
 BYTE   Gn4  v040
 BYTE   W03
 BYTE   N02
 BYTE   W03
 BYTE   Gn4  v044
 BYTE   W03
 BYTE   N02
 BYTE   W03
 BYTE   Gn4  v048
 BYTE   W03
 BYTE   N02
 BYTE   W03
 BYTE   Gn4  v052
 BYTE   W03
 BYTE   N02
 BYTE   W03
 BYTE   Gn4  v056
 BYTE   W03
 BYTE   N02
 BYTE   W03
 BYTE   N02
 BYTE   W03
 BYTE   Gn4  v060
 BYTE   W03
 BYTE   N02
 BYTE   W03
 BYTE   Gn4  v064
 BYTE   W03
 BYTE   N02
 BYTE   W03
 BYTE   N02
 BYTE   W03
 BYTE   N02
 BYTE   W03
 BYTE   N02
 BYTE   W03
 BYTE   Gn4  v060
 BYTE   W03
 BYTE   Gn4  v056
 BYTE   W03
 BYTE   Gn4  v052
 BYTE   W03
 BYTE   Gn4  v048
 BYTE   W03
 BYTE   Gn4  v040
 BYTE   W03
 BYTE   Gn4  v036
 BYTE   W03
 BYTE   Gn4  v032
 BYTE   W03
 BYTE   Gn4  v028
 BYTE   W03
 BYTE   Gn4  v024
 BYTE   W03
 BYTE   PEND 
//  #06 //021   ----------------------------------------
Label_0110DEB8:
 BYTE   N02  Fn4  v016
 BYTE   W03
 BYTE   N02
 BYTE   W03
 BYTE   N02
 BYTE   W03
 BYTE   Fn4  v020
 BYTE   W03
 BYTE   Fn4  v024
 BYTE   W03
 BYTE   N02
 BYTE   W03
 BYTE   Fn4  v028
 BYTE   W03
 BYTE   Fn4  v032
 BYTE   W03
 BYTE   N02
 BYTE   W03
 BYTE   Fn4  v036
 BYTE   W03
 BYTE   Fn4  v040
 BYTE   W03
 BYTE   Fn4  v044
 BYTE   W03
 BYTE   N02
 BYTE   W03
 BYTE   Fn4  v048
 BYTE   W03
 BYTE   Fn4  v052
 BYTE   W03
 BYTE   N02
 BYTE   W03
 BYTE   Fn4  v056
 BYTE   W03
 BYTE   Fn4  v060
 BYTE   W03
 BYTE   Dn4  v064
 BYTE   W03
 BYTE   N02
 BYTE   W03
 BYTE   N02
 BYTE   W03
 BYTE   N02
 BYTE   W03
 BYTE   N02
 BYTE   W03
 BYTE   Dn4  v060
 BYTE   W03
 BYTE   Dn4  v056
 BYTE   W03
 BYTE   Dn4  v052
 BYTE   W03
 BYTE   Dn4  v048
 BYTE   W03
 BYTE   Dn4  v040
 BYTE   W03
 BYTE   Dn4  v036
 BYTE   W03
 BYTE   Dn4  v032
 BYTE   W03
 BYTE   Dn4  v028
 BYTE   W03
 BYTE   Dn4  v024
 BYTE   W03
 BYTE   PEND 
//  #06 //022   ----------------------------------------
Label_0110DF10:
 BYTE   N02  Dn4  v016
 BYTE   W03
 BYTE   N02
 BYTE   W03
 BYTE   N02
 BYTE   W03
 BYTE   Dn4  v020
 BYTE   W03
 BYTE   Dn4  v024
 BYTE   W03
 BYTE   N02
 BYTE   W03
 BYTE   Dn4  v028
 BYTE   W03
 BYTE   Dn4  v032
 BYTE   W03
 BYTE   N02
 BYTE   W03
 BYTE   Dn4  v036
 BYTE   W03
 BYTE   Dn4  v040
 BYTE   W03
 BYTE   Dn4  v044
 BYTE   W03
 BYTE   N02
 BYTE   W03
 BYTE   Dn4  v048
 BYTE   W03
 BYTE   Dn4  v052
 BYTE   W03
 BYTE   N02
 BYTE   W03
 BYTE   Dn4  v056
 BYTE   W03
 BYTE   Dn4  v060
 BYTE   W03
 BYTE   Dn4  v064
 BYTE   W03
 BYTE   N02
 BYTE   W03
 BYTE   N02
 BYTE   W03
 BYTE   N02
 BYTE   W03
 BYTE   N02
 BYTE   W03
 BYTE   Dn4  v060
 BYTE   W03
 BYTE   Dn4  v056
 BYTE   W03
 BYTE   Dn4  v052
 BYTE   W03
 BYTE   Dn4  v048
 BYTE   W03
 BYTE   Dn4  v040
 BYTE   W03
 BYTE   Dn4  v036
 BYTE   W03
 BYTE   Dn4  v032
 BYTE   W03
 BYTE   Dn4  v028
 BYTE   W03
 BYTE   Dn4  v024
 BYTE   W03
 BYTE   PEND 
//  #06 //023   ----------------------------------------
Label_0110DF68:
 BYTE   N02  Cn4  v016
 BYTE   W03
 BYTE   N02
 BYTE   W03
 BYTE   Cn4  v020
 BYTE   W03
 BYTE   N02
 BYTE   W03
 BYTE   Cn4  v024
 BYTE   W03
 BYTE   N02
 BYTE   W03
 BYTE   Cn4  v028
 BYTE   W03
 BYTE   N02
 BYTE   W03
 BYTE   Cn4  v032
 BYTE   W03
 BYTE   N02
 BYTE   W03
 BYTE   Cn4  v036
 BYTE   W03
 BYTE   N02
 BYTE   W03
 BYTE   Cn4  v040
 BYTE   W03
 BYTE   N02
 BYTE   W03
 BYTE   Cn4  v044
 BYTE   W03
 BYTE   N02
 BYTE   W03
 BYTE   Cn4  v048
 BYTE   W03
 BYTE   N02
 BYTE   W03
 BYTE   As3  v052
 BYTE   W03
 BYTE   N02
 BYTE   W03
 BYTE   N02
 BYTE   W03
 BYTE   As3  v048
 BYTE   W03
 BYTE   N02
 BYTE   W03
 BYTE   N02
 BYTE   W03
 BYTE   As3  v044
 BYTE   W03
 BYTE   N02
 BYTE   W03
 BYTE   N02
 BYTE   W03
 BYTE   As3  v040
 BYTE   W03
 BYTE   N02
 BYTE   W03
 BYTE   N02
 BYTE   W03
 BYTE   As3  v036
 BYTE   W03
 BYTE   N02
 BYTE   W03
 BYTE   PEND 
//  #06 //024   ----------------------------------------
Label_0110DFB8:
 BYTE   N02  Dn4  v036
 BYTE   W03
 BYTE   N02
 BYTE   W03
 BYTE   N02
 BYTE   W03
 BYTE   N02
 BYTE   W03
 BYTE   N02
 BYTE   W03
 BYTE   Dn4  v040
 BYTE   W03
 BYTE   N02
 BYTE   W03
 BYTE   Dn4  v044
 BYTE   W03
 BYTE   N02
 BYTE   W03
 BYTE   Dn4  v048
 BYTE   W03
 BYTE   N02
 BYTE   W03
 BYTE   Dn4  v052
 BYTE   W03
 BYTE   N02
 BYTE   W03
 BYTE   Dn4  v056
 BYTE   W03
 BYTE   N02
 BYTE   W03
 BYTE   N02
 BYTE   W03
 BYTE   Dn4  v060
 BYTE   W03
 BYTE   N02
 BYTE   W03
 BYTE   Dn4  v064
 BYTE   W03
 BYTE   N02
 BYTE   W03
 BYTE   N02
 BYTE   W03
 BYTE   N02
 BYTE   W03
 BYTE   N02
 BYTE   W03
 BYTE   N02
 BYTE   W03
 BYTE   Dn4  v060
 BYTE   W03
 BYTE   Dn4  v056
 BYTE   W03
 BYTE   Dn4  v052
 BYTE   W03
 BYTE   N02
 BYTE   W03
 BYTE   Dn4  v048
 BYTE   W03
 BYTE   Dn4  v044
 BYTE   W03
 BYTE   Dn4  v040
 BYTE   W03
 BYTE   N02
 BYTE   W03
 BYTE   PEND 
//  #06 //025   ----------------------------------------
Label_0110E008:
 BYTE   N02  Cn4  v036
 BYTE   W03
 BYTE   N02
 BYTE   W03
 BYTE   N02
 BYTE   W03
 BYTE   N02
 BYTE   W03
 BYTE   N02
 BYTE   W03
 BYTE   Cn4  v040
 BYTE   W03
 BYTE   N02
 BYTE   W03
 BYTE   Cn4  v044
 BYTE   W03
 BYTE   N02
 BYTE   W03
 BYTE   Cn4  v048
 BYTE   W03
 BYTE   N02
 BYTE   W03
 BYTE   Cn4  v052
 BYTE   W03
 BYTE   N02
 BYTE   W03
 BYTE   Cn4  v056
 BYTE   W03
 BYTE   N02
 BYTE   W03
 BYTE   N02
 BYTE   W03
 BYTE   Cn4  v060
 BYTE   W03
 BYTE   N02
 BYTE   W03
 BYTE   As3  v064
 BYTE   W03
 BYTE   N02
 BYTE   W03
 BYTE   N02
 BYTE   W03
 BYTE   N02
 BYTE   W03
 BYTE   N02
 BYTE   W03
 BYTE   N02
 BYTE   W03
 BYTE   As3  v060
 BYTE   W03
 BYTE   As3  v056
 BYTE   W03
 BYTE   As3  v052
 BYTE   W03
 BYTE   N02
 BYTE   W03
 BYTE   As3  v048
 BYTE   W03
 BYTE   As3  v044
 BYTE   W03
 BYTE   As3  v040
 BYTE   W03
 BYTE   N02
 BYTE   W03
 BYTE   PEND 
//  #06 //026   ----------------------------------------
Label_0110E058:
 BYTE   N02  Cn2  v036
 BYTE   N02  Dn4
 BYTE   W03
 BYTE   Cn2
 BYTE   N02  Dn4
 BYTE   W03
 BYTE   Cn2
 BYTE   N02  Dn4
 BYTE   W03
 BYTE   Cn2
 BYTE   N02  Dn4
 BYTE   W03
 BYTE   Cn2
 BYTE   N02  Dn4
 BYTE   W03
 BYTE   Cn2  v040
 BYTE   N02  Dn4
 BYTE   W03
 BYTE   Cn2
 BYTE   N02  Dn4
 BYTE   W03
 BYTE   Cn2  v044
 BYTE   N02  Dn4
 BYTE   W03
 BYTE   Cn2
 BYTE   N02  Dn4
 BYTE   W03
 BYTE   Cn2
 BYTE   N02  Dn4  v048
 BYTE   W03
 BYTE   Cn2
 BYTE   N02  Dn4
 BYTE   W03
 BYTE   Cn2
 BYTE   N02  Dn4  v052
 BYTE   W03
 BYTE   N56  Dn2
 BYTE   N02  Dn4
 BYTE   W03
 BYTE   Dn4  v056
 BYTE   W03
 BYTE   N02
 BYTE   W03
 BYTE   N02
 BYTE   W03
 BYTE   Dn4  v060
 BYTE   W03
 BYTE   N02
 BYTE   W03
 BYTE   Dn4  v064
 BYTE   W03
 BYTE   N02
 BYTE   W03
 BYTE   N02
 BYTE   W03
 BYTE   N02
 BYTE   W03
 BYTE   N02
 BYTE   W03
 BYTE   N02
 BYTE   W03
 BYTE   N02
 BYTE   W03
 BYTE   Dn4  v060
 BYTE   W03
 BYTE   N02
 BYTE   W03
 BYTE   N02
 BYTE   W03
 BYTE   Dn4  v056
 BYTE   W03
 BYTE   N02
 BYTE   W03
 BYTE   Dn4  v052
 BYTE   W03
 BYTE   N02
 BYTE   W03
 BYTE   PEND 
//  #06 //027   ----------------------------------------
Label_0110E0C0:
 BYTE   N02  Cn4  v052
 BYTE   W03
 BYTE   N02
 BYTE   W03
 BYTE   N02
 BYTE   W03
 BYTE   N02
 BYTE   W03
 BYTE   N02
 BYTE   W03
 BYTE   N02
 BYTE   W03
 BYTE   Cn4  v056
 BYTE   W03
 BYTE   N02
 BYTE   W03
 BYTE   N02
 BYTE   W03
 BYTE   N02
 BYTE   W03
 BYTE   Cn4  v060
 BYTE   W03
 BYTE   N02
 BYTE   W03
 BYTE   N02
 BYTE   W03
 BYTE   N02
 BYTE   W03
 BYTE   Cn4  v064
 BYTE   W03
 BYTE   N02
 BYTE   W03
 BYTE   N02
 BYTE   W03
 BYTE   N02
 BYTE   W03
 BYTE   As3  v052
 BYTE   W03
 BYTE   N02
 BYTE   W03
 BYTE   N02
 BYTE   W03
 BYTE   As3  v048
 BYTE   W03
 BYTE   N02
 BYTE   W03
 BYTE   N02
 BYTE   W03
 BYTE   As3  v044
 BYTE   W03
 BYTE   N02
 BYTE   W03
 BYTE   As3  v040
 BYTE   W03
 BYTE   N02
 BYTE   W03
 BYTE   N02
 BYTE   W03
 BYTE   As3  v036
 BYTE   W03
 BYTE   N02
 BYTE   W03
 BYTE   N02
 BYTE   W03
 BYTE   PEND 
//  #06 //028   ----------------------------------------
Label_0110E10B:
 BYTE   TIE  An2  v064
 BYTE   TIE  An3
 BYTE   W96
 BYTE   PEND 
//  #06 //029   ----------------------------------------
 BYTE   W92
 BYTE   W03
 BYTE   EOT
 BYTE   An2  v069
 BYTE   W01
//  #06 //030   ----------------------------------------
Label_0110E118:
 BYTE   TIE  Cn3  v064
 BYTE   TIE  Fn3
 BYTE   W96
 BYTE   PEND 
//  #06 //031   ----------------------------------------
 BYTE   W92
 BYTE   W03
 BYTE   EOT
 BYTE   Cn3  v065
 BYTE   W01
//  #06 //032   ----------------------------------------
 BYTE   PATT
  POIN2 Label_0110E118
//  #06 //033   ----------------------------------------
 BYTE   W92
 BYTE   W03
 BYTE   EOT
 BYTE   Cn3  v065
 BYTE   W01
//  #06 //034   ----------------------------------------
Label_0110E130:
 BYTE   N68  Cn3  v060
 BYTE   TIE  Ds3
 BYTE   W72
 BYTE   N23  As2
 BYTE   W24
 BYTE   PEND 
//  #06 //035   ----------------------------------------
Label_0110E13A:
 BYTE   N92  Cn3  v060
 BYTE   W92
 BYTE   W03
 BYTE   PEND 
 BYTE   EOT
 BYTE   Ds3
 BYTE   W01
//  #06 //036   ----------------------------------------
Label_0110E143:
 BYTE   N92  As2  v060
 BYTE   TIE  Gs3
 BYTE   W96
 BYTE   PEND 
//  #06 //037   ----------------------------------------
Label_0110E14A:
 BYTE   N92  Ds3  v068
 BYTE   W92
 BYTE   W03
 BYTE   PEND 
 BYTE   EOT
 BYTE   Gs3
 BYTE   W01
//  #06 //038   ----------------------------------------
Label_0110E153:
 BYTE   TIE  As2  v060
 BYTE   TIE  Fs3
 BYTE   W96
 BYTE   PEND 
//  #06 //039   ----------------------------------------
 BYTE   W92
 BYTE   W03
 BYTE   EOT
 BYTE   As2  v066
 BYTE   W01
//  #06 //040   ----------------------------------------
Label_0110E160:
 BYTE   TIE  Gn2  v060
 BYTE   TIE  Dn3  v048
 BYTE   W96
 BYTE   PEND 
//  #06 //041   ----------------------------------------
 BYTE   W92
 BYTE   W03
 BYTE   EOT
 BYTE   Gn2  v062
 BYTE   W01
//  #06 //042   ----------------------------------------
Label_0110E16E:
 BYTE   TIE  An2  v060
 BYTE   TIE  Dn3  v048
 BYTE   W96
 BYTE   PEND 
//  #06 //043   ----------------------------------------
 BYTE   W92
 BYTE   W03
 BYTE   EOT
 BYTE   An2  v062
 BYTE   W01
//  #06 //044   ----------------------------------------
 BYTE   W96
//  #06 //045   ----------------------------------------
 BYTE   W96
//  #06 //046   ----------------------------------------
 BYTE   W96
//  #06 //047   ----------------------------------------
 BYTE   W84
 BYTE   N11  An3  v080
 BYTE   W12
//  #06 //048   ----------------------------------------
Label_0110E184:
 BYTE   N32  Gn3  v052
 BYTE   N17  As3  v096
 BYTE   W18
 BYTE   Fn4
 BYTE   W18
 BYTE   N11  Fn3  v052
 BYTE   N17  Cn4  v096
 BYTE   W12
 BYTE   N02  Fn3  v052
 BYTE   W03
 BYTE   N02
 BYTE   W03
 BYTE   N02
 BYTE   N17  Dn4  v096
 BYTE   W03
 BYTE   N02  Fn3  v052
 BYTE   W03
 BYTE   Fn3  v048
 BYTE   W03
 BYTE   N02
 BYTE   W03
 BYTE   N02
 BYTE   W03
 BYTE   Fn3  v044
 BYTE   W03
 BYTE   N02
 BYTE   N02  Dn4  v096
 BYTE   W03
 BYTE   Fn3  v044
 BYTE   N02  Dn4  v096
 BYTE   W03
 BYTE   Fn3  v040
 BYTE   N02  Dn4  v096
 BYTE   W03
 BYTE   Fn3  v040
 BYTE   N02  Dn4  v096
 BYTE   W03
 BYTE   Fn3  v040
 BYTE   N11  An3  v096
 BYTE   W03
 BYTE   N02  Fn3  v036
 BYTE   W03
 BYTE   N02
 BYTE   W03
 BYTE   N02
 BYTE   W03
 BYTE   PEND 
//  #06 //049   ----------------------------------------
Label_0110E1D3:
 BYTE   N32  Ds3  v080
 BYTE   N17  As3  v096
 BYTE   W18
 BYTE   Fn4
 BYTE   W18
 BYTE   N11  Fn3
 BYTE   N17  Cn4
 BYTE   W12
 BYTE   N02  Fn3
 BYTE   W03
 BYTE   N02
 BYTE   W03
 BYTE   N02
 BYTE   N28  As3
 BYTE   W03
 BYTE   N02  Fn3
 BYTE   W03
 BYTE   Fn3  v092
 BYTE   W03
 BYTE   Fn3  v088
 BYTE   W03
 BYTE   Fn3  v084
 BYTE   W03
 BYTE   Fn3  v076
 BYTE   W03
 BYTE   Fn3  v072
 BYTE   W03
 BYTE   Fn3  v068
 BYTE   W03
 BYTE   Fn3  v060
 BYTE   W03
 BYTE   Fn3  v056
 BYTE   W03
 BYTE   Fn3  v052
 BYTE   N11  An3  v096
 BYTE   W03
 BYTE   N02  Fn3  v044
 BYTE   W03
 BYTE   Fn3  v040
 BYTE   W03
 BYTE   Fn3  v036
 BYTE   W03
 BYTE   PEND 
//  #06 //050   ----------------------------------------
Label_0110E216:
 BYTE   N32  Gn3  v080
 BYTE   N17  As3  v096
 BYTE   W18
 BYTE   Fn4
 BYTE   W18
 BYTE   N11  Fn3
 BYTE   N17  Cn4
 BYTE   W12
 BYTE   N02  Fn3
 BYTE   W03
 BYTE   N02
 BYTE   W03
 BYTE   N02
 BYTE   N17  Dn4
 BYTE   W03
 BYTE   N02  Fn3
 BYTE   W03
 BYTE   Fn3  v092
 BYTE   W03
 BYTE   Fn3  v088
 BYTE   W03
 BYTE   Fn3  v084
 BYTE   W03
 BYTE   Fn3  v076
 BYTE   W03
 BYTE   Fn3  v072
 BYTE   N02  Dn4  v096
 BYTE   W03
 BYTE   Fn3  v068
 BYTE   N02  Dn4  v096
 BYTE   W03
 BYTE   Fn3  v060
 BYTE   N02  Dn4  v096
 BYTE   W03
 BYTE   Fn3  v056
 BYTE   N02  Dn4  v096
 BYTE   W03
 BYTE   Fn3  v052
 BYTE   N11  Dn4  v096
 BYTE   W03
 BYTE   N02  Fn3  v044
 BYTE   W03
 BYTE   Fn3  v040
 BYTE   W03
 BYTE   Fn3  v036
 BYTE   W03
 BYTE   PEND 
//  #06 //051   ----------------------------------------
Label_0110E265:
 BYTE   N17  As4  v096
 BYTE   W18
 BYTE   N17
 BYTE   W18
 BYTE   An4
 BYTE   W18
 BYTE   N02  Gn4
 BYTE   W03
 BYTE   N02
 BYTE   W03
 BYTE   Gn4  v088
 BYTE   W03
 BYTE   Gn4  v076
 BYTE   W03
 BYTE   N01  Gn4  v068
 BYTE   W01
 BYTE   N01
 BYTE   W01
 BYTE   N01
 BYTE   W01
 BYTE   N02  Gn4  v056
 BYTE   W03
 BYTE   Gn4  v044
 BYTE   W03
 BYTE   Gn4  v036
 BYTE   W21
 BYTE   PEND 
//  #06 //052   ----------------------------------------
Label_0110E28B:
 BYTE   N03  As3  v020
 BYTE   N03  Gn5
 BYTE   W03
 BYTE   N02  As3  v036
 BYTE   N02  Gn5
 BYTE   W03
 BYTE   As3
 BYTE   N02  Gn5
 BYTE   W03
 BYTE   As3
 BYTE   N02  Gn5
 BYTE   W03
 BYTE   As3  v040
 BYTE   N02  Gn5
 BYTE   W03
 BYTE   As3
 BYTE   N02  Gn5
 BYTE   W03
 BYTE   As3
 BYTE   N02  Gn5
 BYTE   W03
 BYTE   As3
 BYTE   N02  Gn5
 BYTE   W03
 BYTE   As3  v044
 BYTE   N02  Gn5
 BYTE   W03
 BYTE   As3
 BYTE   N02  Gn5
 BYTE   W03
 BYTE   As3
 BYTE   N02  Gn5
 BYTE   W03
 BYTE   As3
 BYTE   N02  Gn5
 BYTE   W03
 BYTE   As3  v048
 BYTE   N02  Gn5
 BYTE   W03
 BYTE   As3
 BYTE   N02  Gn5
 BYTE   W03
 BYTE   As3
 BYTE   N02  Gn5
 BYTE   W03
 BYTE   As3
 BYTE   N02  Gn5
 BYTE   W03
 BYTE   N44  As3  v052
 BYTE   N44  Gn5
 BYTE   W48
 BYTE   PEND 
//  #06 //053   ----------------------------------------
Label_0110E2D9:
 BYTE   N32  An3  v052
 BYTE   N03  Fn5  v020
 BYTE   W03
 BYTE   N02  Fn5  v036
 BYTE   W03
 BYTE   N02
 BYTE   W03
 BYTE   Fn5  v040
 BYTE   W03
 BYTE   N02
 BYTE   W03
 BYTE   Fn5  v044
 BYTE   W03
 BYTE   N02
 BYTE   W03
 BYTE   Fn5  v048
 BYTE   W03
 BYTE   N02
 BYTE   W03
 BYTE   Fn5  v052
 BYTE   W03
 BYTE   N02
 BYTE   W03
 BYTE   Fn5  v056
 BYTE   W03
 BYTE   N17  Dn3  v052
 BYTE   N02  Fn5  v056
 BYTE   W03
 BYTE   Fn5  v060
 BYTE   W03
 BYTE   N02
 BYTE   W03
 BYTE   Fn5  v064
 BYTE   W03
 BYTE   N02
 BYTE   W03
 BYTE   N02
 BYTE   W03
 BYTE   N40  Gn3  v052
 BYTE   N02  Dn5  v064
 BYTE   W03
 BYTE   N02
 BYTE   W03
 BYTE   N02
 BYTE   W03
 BYTE   Dn5  v060
 BYTE   W03
 BYTE   N02
 BYTE   W03
 BYTE   Dn5  v056
 BYTE   W03
 BYTE   Dn5  v052
 BYTE   W03
 BYTE   N02
 BYTE   W03
 BYTE   Dn5  v048
 BYTE   W03
 BYTE   Dn5  v044
 BYTE   W03
 BYTE   N02
 BYTE   W03
 BYTE   Dn5  v040
 BYTE   W03
 BYTE   Dn5  v036
 BYTE   W03
 BYTE   N02
 BYTE   W03
 BYTE   PEND 
//  #06 //054   ----------------------------------------
Label_0110E339:
 BYTE   N05  Dn4  v052
 BYTE   W06
 BYTE   N05
 BYTE   W06
 BYTE   Dn4  v056
 BYTE   W06
 BYTE   N05
 BYTE   W06
 BYTE   Dn4  v060
 BYTE   W06
 BYTE   Dn4  v064
 BYTE   W06
 BYTE   N56  Cn4
 BYTE   W60
 BYTE   PEND 
//  #06 //055   ----------------------------------------
 BYTE   N92  Dn4
 BYTE   W96
//  #06 //056   ----------------------------------------
Label_0110E351:
 BYTE   N03  An3  v020
 BYTE   N03  Dn4  v036
 BYTE   N03  Gn5
 BYTE   W03
 BYTE   N02  An3
 BYTE   N02  Dn4
 BYTE   N02  Gn5
 BYTE   W03
 BYTE   An3
 BYTE   N02  Dn4
 BYTE   N02  Gn5
 BYTE   W03
 BYTE   An3  v040
 BYTE   N02  Dn4
 BYTE   N02  Gn5
 BYTE   W03
 BYTE   An3
 BYTE   N02  Dn4
 BYTE   N02  Gn5
 BYTE   W03
 BYTE   An3  v044
 BYTE   N02  Dn4
 BYTE   N02  Gn5
 BYTE   W03
 BYTE   An3
 BYTE   N02  Dn4
 BYTE   N02  Gn5
 BYTE   W03
 BYTE   An3  v048
 BYTE   N02  Dn4
 BYTE   N02  Gn5
 BYTE   W03
 BYTE   An3
 BYTE   N02  Dn4
 BYTE   N02  Gn5
 BYTE   W03
 BYTE   An3  v052
 BYTE   N02  Dn4
 BYTE   N02  Gn5
 BYTE   W03
 BYTE   An3
 BYTE   N02  Dn4
 BYTE   N02  Gn5
 BYTE   W03
 BYTE   An3  v056
 BYTE   N02  Dn4
 BYTE   N02  Gn5
 BYTE   W03
 BYTE   An3
 BYTE   N02  Dn4
 BYTE   N02  Gn5
 BYTE   W03
 BYTE   An3  v060
 BYTE   N02  Dn4
 BYTE   N02  Gn5
 BYTE   W03
 BYTE   An3
 BYTE   N02  Dn4
 BYTE   N02  Gn5
 BYTE   W03
 BYTE   An3  v064
 BYTE   N02  Dn4
 BYTE   N02  Gn5
 BYTE   W03
 BYTE   N44  An3  v060
 BYTE   N44  Dn4  v072
 BYTE   N44  Gn5  v052
 BYTE   W48
 BYTE   PEND 
//  #06 //057   ----------------------------------------
Label_0110E3C7:
 BYTE   N17  An3  v064
 BYTE   N52  Cn4  v080
 BYTE   W18
 BYTE   N17  Fn3  v064
 BYTE   W18
 BYTE   N56  Dn3  v052
 BYTE   W18
 BYTE   N40  As3  v080
 BYTE   W42
 BYTE   PEND 
//  #06 //058   ----------------------------------------
Label_0110E3DB:
 BYTE   N32  As3  v064
 BYTE   W36
 BYTE   N56  An3
 BYTE   W60
 BYTE   PEND 
//  #06 //059   ----------------------------------------
Label_0110E3E3:
 BYTE   N32  An3  v064
 BYTE   W36
 BYTE   N17  Fn3
 BYTE   W18
 BYTE   N40  Dn3
 BYTE   W42
 BYTE   PEND 
//  #06 //060   ----------------------------------------
 BYTE   W96
//  #06 //061   ----------------------------------------
 BYTE   W96
//  #06 //062   ----------------------------------------
 BYTE   W96
//  #06 //063   ----------------------------------------
 BYTE   W96
//  #06 //064   ----------------------------------------
 BYTE   W96
//  #06 //065   ----------------------------------------
 BYTE   W96
//  #06 //066   ----------------------------------------
 BYTE   W96
//  #06 //067   ----------------------------------------
 BYTE   W96
//  #06 //068   ----------------------------------------
 BYTE   PATT
  POIN2 Label_0110DA10
//  #06 //069   ----------------------------------------
 BYTE   PATT
  POIN2 Label_0110DA64
//  #06 //070   ----------------------------------------
 BYTE   PATT
  POIN2 Label_0110DABE
//  #06 //071   ----------------------------------------
 BYTE   PATT
  POIN2 Label_0110DB79
//  #06 //072   ----------------------------------------
 BYTE   PATT
  POIN2 Label_0110DBD9
//  #06 //073   ----------------------------------------
 BYTE   PATT
  POIN2 Label_0110DC8F
//  #06 //074   ----------------------------------------
 BYTE   PATT
  POIN2 Label_0110DCE4
//  #06 //075   ----------------------------------------
 BYTE   PATT
  POIN2 Label_0110DD39
//  #06 //076   ----------------------------------------
 BYTE   PATT
  POIN2 Label_0110DD8E
//  #06 //077   ----------------------------------------
 BYTE   PATT
  POIN2 Label_0110DC8F
//  #06 //078   ----------------------------------------
 BYTE   PATT
  POIN2 Label_0110DCE4
//  #06 //079   ----------------------------------------
 BYTE   PATT
  POIN2 Label_0110DDE3
//  #06 //080   ----------------------------------------
 BYTE   PATT
  POIN2 Label_0110DE38
//  #06 //081   ----------------------------------------
 BYTE   PATT
  POIN2 Label_0110DE65
//  #06 //082   ----------------------------------------
 BYTE   PATT
  POIN2 Label_0110DEB8
//  #06 //083   ----------------------------------------
 BYTE   PATT
  POIN2 Label_0110DF10
//  #06 //084   ----------------------------------------
 BYTE   PATT
  POIN2 Label_0110DF68
//  #06 //085   ----------------------------------------
 BYTE   PATT
  POIN2 Label_0110DFB8
//  #06 //086   ----------------------------------------
 BYTE   PATT
  POIN2 Label_0110E008
//  #06 //087   ----------------------------------------
 BYTE   PATT
  POIN2 Label_0110E058
//  #06 //088   ----------------------------------------
 BYTE   PATT
  POIN2 Label_0110E0C0
//  #06 //089   ----------------------------------------
 BYTE   PATT
  POIN2 Label_0110E10B
//  #06 //090   ----------------------------------------
 BYTE   W92
 BYTE   W03
 BYTE   EOT
 BYTE   An2  v069
 BYTE   W01
//  #06 //091   ----------------------------------------
 BYTE   PATT
  POIN2 Label_0110E118
//  #06 //092   ----------------------------------------
 BYTE   W92
 BYTE   W03
 BYTE   EOT
 BYTE   Cn3  v065
 BYTE   W01
//  #06 //093   ----------------------------------------
 BYTE   PATT
  POIN2 Label_0110E118
//  #06 //094   ----------------------------------------
 BYTE   W92
 BYTE   W03
 BYTE   EOT
 BYTE   Cn3  v065
 BYTE   W01
//  #06 //095   ----------------------------------------
 BYTE   PATT
  POIN2 Label_0110E130
//  #06 //096   ----------------------------------------
 BYTE   PATT
  POIN2 Label_0110E13A
//  #06 //097   ----------------------------------------
 BYTE   EOT
 BYTE   Ds3
 BYTE   W01
//  #06 //098   ----------------------------------------
 BYTE   PATT
  POIN2 Label_0110E143
//  #06 //099   ----------------------------------------
 BYTE   PATT
  POIN2 Label_0110E14A
//  #06 //100   ----------------------------------------
 BYTE   EOT
 BYTE   Gs3
 BYTE   W01
//  #06 //101   ----------------------------------------
 BYTE   PATT
  POIN2 Label_0110E153
//  #06 //102   ----------------------------------------
 BYTE   W92
 BYTE   W03
 BYTE   EOT
 BYTE   As2  v066
 BYTE   W01
//  #06 //103   ----------------------------------------
 BYTE   PATT
  POIN2 Label_0110E160
//  #06 //104   ----------------------------------------
 BYTE   W92
 BYTE   W03
 BYTE   EOT
 BYTE   Gn2  v062
 BYTE   W01
//  #06 //105   ----------------------------------------
 BYTE   PATT
  POIN2 Label_0110E16E
//  #06 //106   ----------------------------------------
 BYTE   W92
 BYTE   W03
 BYTE   EOT
 BYTE   An2  v062
 BYTE   W01
//  #06 //107   ----------------------------------------
 BYTE   W96
//  #06 //108   ----------------------------------------
 BYTE   W96
//  #06 //109   ----------------------------------------
 BYTE   W96
//  #06 //110   ----------------------------------------
 BYTE   W84
 BYTE   N11  An3  v080
 BYTE   W12
//  #06 //111   ----------------------------------------
 BYTE   PATT
  POIN2 Label_0110E184
//  #06 //112   ----------------------------------------
 BYTE   PATT
  POIN2 Label_0110E1D3
//  #06 //113   ----------------------------------------
 BYTE   PATT
  POIN2 Label_0110E216
//  #06 //114   ----------------------------------------
 BYTE   PATT
  POIN2 Label_0110E265
//  #06 //115   ----------------------------------------
 BYTE   PATT
  POIN2 Label_0110E28B
//  #06 //116   ----------------------------------------
 BYTE   PATT
  POIN2 Label_0110E2D9
//  #06 //117   ----------------------------------------
 BYTE   PATT
  POIN2 Label_0110E339
//  #06 //118   ----------------------------------------
 BYTE   N92  Dn4  v064
 BYTE   W96
//  #06 //119   ----------------------------------------
 BYTE   PATT
  POIN2 Label_0110E351
//  #06 //120   ----------------------------------------
 BYTE   PATT
  POIN2 Label_0110E3C7
//  #06 //121   ----------------------------------------
 BYTE   PATT
  POIN2 Label_0110E3DB
//  #06 //122   ----------------------------------------
 BYTE   PATT
  POIN2 Label_0110E3E3
//  #06 //123   ----------------------------------------
 BYTE   W96
//  #06 //124   ----------------------------------------
 BYTE   GoTo
  POIN2 Label_0110DA09
 BYTE   FINE

//**************** Track 7 (Midi-Chn.6) ****************//

song06_007:
//  #07 //000   ----------------------------------------
 BYTE   KEYSH   song06_key+0
 BYTE   VOICE   49
 BYTE   VOL   62*song06_mvl/mxv
 BYTE   PAN   c_v+0
 BYTE   VOL   62*song06_mvl/mxv
 BYTE   PAN   c_v+0
 BYTE   VOL   62*song06_mvl/mxv
 BYTE   PAN   c_v+0
 BYTE   VOL   62*song06_mvl/mxv
 BYTE   PAN   c_v+0
 BYTE   W12
Label_0110C1AD:
 BYTE   W96
//  #07 //001   ----------------------------------------
 BYTE   W96
//  #07 //002   ----------------------------------------
 BYTE   W96
//  #07 //003   ----------------------------------------
 BYTE   W96
//  #07 //004   ----------------------------------------
 BYTE   W96
//  #07 //005   ----------------------------------------
 BYTE   W96
//  #07 //006   ----------------------------------------
 BYTE   W96
//  #07 //007   ----------------------------------------
Label_0110C1B4:
 BYTE   W48
 BYTE   N02  Fn3  v028
 BYTE   W02
 BYTE   N02
 BYTE   W03
 BYTE   N02
 BYTE   W03
 BYTE   N02
 BYTE   W03
 BYTE   N02
 BYTE   W03
 BYTE   N01
 BYTE   W01
 BYTE   N02
 BYTE   W02
 BYTE   N01
 BYTE   W01
 BYTE   N02
 BYTE   W02
 BYTE   N01
 BYTE   W01
 BYTE   N02
 BYTE   W02
 BYTE   N01
 BYTE   W01
 BYTE   N02
 BYTE   W02
 BYTE   N01
 BYTE   W01
 BYTE   N02  Fn3  v032
 BYTE   W02
 BYTE   N01  Fn3  v028
 BYTE   W01
 BYTE   N02  Fn3  v032
 BYTE   W02
 BYTE   N01  Fn3  v028
 BYTE   W01
 BYTE   N02  Fn3  v032
 BYTE   W02
 BYTE   N01  Fn3  v028
 BYTE   W01
 BYTE   N02  Fn3  v032
 BYTE   W02
 BYTE   N01  Fn3  v028
 BYTE   W01
 BYTE   N02  Fn3  v036
 BYTE   W02
 BYTE   N01  Fn3  v028
 BYTE   W01
 BYTE   N02  Fn3  v036
 BYTE   W02
 BYTE   N01  Fn3  v028
 BYTE   W01
 BYTE   N02  Fn3  v036
 BYTE   W03
 BYTE   PEND 
//  #07 //008   ----------------------------------------
Label_0110C208:
 BYTE   N01  Fn3  v036
 BYTE   W01
 BYTE   N01
 BYTE   W02
 BYTE   N01
 BYTE   W01
 BYTE   N01
 BYTE   W02
 BYTE   Fn3  v040
 BYTE   W01
 BYTE   Fn3  v036
 BYTE   W02
 BYTE   Fn3  v040
 BYTE   W01
 BYTE   Fn3  v036
 BYTE   W02
 BYTE   N02  Fn3  v052
 BYTE   W03
 BYTE   Fn3  v040
 BYTE   W03
 BYTE   N02
 BYTE   W03
 BYTE   N02
 BYTE   W03
 BYTE   N02
 BYTE   W03
 BYTE   N02
 BYTE   W03
 BYTE   N02
 BYTE   W03
 BYTE   N02
 BYTE   W03
 BYTE   N01  Dn3  v052
 BYTE   W01
 BYTE   N01
 BYTE   W02
 BYTE   N01
 BYTE   W01
 BYTE   N01
 BYTE   W02
 BYTE   N01
 BYTE   W01
 BYTE   N01
 BYTE   W02
 BYTE   N01
 BYTE   W01
 BYTE   N04
 BYTE   W05
 BYTE   N02
 BYTE   W03
 BYTE   N02
 BYTE   W03
 BYTE   N02
 BYTE   W03
 BYTE   N02
 BYTE   W03
 BYTE   N02
 BYTE   W03
 BYTE   N02
 BYTE   W03
 BYTE   N02
 BYTE   W03
 BYTE   N02
 BYTE   W03
 BYTE   N02
 BYTE   W03
 BYTE   N02
 BYTE   W03
 BYTE   N02
 BYTE   W03
 BYTE   N02
 BYTE   W03
 BYTE   N02
 BYTE   W03
 BYTE   N02
 BYTE   W03
 BYTE   N02
 BYTE   W03
 BYTE   PEND 
//  #07 //009   ----------------------------------------
Label_0110C262:
 BYTE   N02  Dn3  v020
 BYTE   W02
 BYTE   N01
 BYTE   W01
 BYTE   N02  Dn3  v052
 BYTE   W03
 BYTE   N02
 BYTE   W03
 BYTE   N02
 BYTE   W03
 BYTE   N02
 BYTE   W02
 BYTE   N01  Dn3  v020
 BYTE   W01
 BYTE   N02  Dn3  v052
 BYTE   W02
 BYTE   N01  Dn3  v020
 BYTE   W01
 BYTE   N02  Dn3  v052
 BYTE   W02
 BYTE   N01  Dn3  v020
 BYTE   W01
 BYTE   N02  Dn3  v052
 BYTE   W02
 BYTE   N01  Dn3  v020
 BYTE   W03
 BYTE   N01
 BYTE   W01
 BYTE   N02  Dn3  v052
 BYTE   W02
 BYTE   N01  Dn3  v020
 BYTE   W01
 BYTE   N02  Dn3  v052
 BYTE   W02
 BYTE   N01  Dn3  v020
 BYTE   W01
 BYTE   N02  Dn3  v052
 BYTE   W03
 BYTE   Cn3  v020
 BYTE   W02
 BYTE   N01
 BYTE   W01
 BYTE   N02  Cn3  v052
 BYTE   W05
 BYTE   N01  Cn3  v020
 BYTE   W01
 BYTE   N02  Cn3  v052
 BYTE   W02
 BYTE   N01  Cn3  v020
 BYTE   W01
 BYTE   N02  Cn3  v052
 BYTE   W02
 BYTE   N01  Cn3  v020
 BYTE   W01
 BYTE   N02  Cn3  v052
 BYTE   W02
 BYTE   N01  Cn3  v020
 BYTE   W01
 BYTE   N02  Cn3  v052
 BYTE   W02
 BYTE   N01  Cn3  v020
 BYTE   W01
 BYTE   N02  Cn3  v052
 BYTE   W02
 BYTE   N01  Cn3  v020
 BYTE   W01
 BYTE   N02  Cn3  v052
 BYTE   W02
 BYTE   N01  Cn3  v020
 BYTE   W01
 BYTE   N02  Cn3  v052
 BYTE   W02
 BYTE   N01  Cn3  v020
 BYTE   W01
 BYTE   N02  Cn3  v052
 BYTE   W02
 BYTE   N01  Cn3  v020
 BYTE   W01
 BYTE   N02  Cn3  v052
 BYTE   W02
 BYTE   N01  Cn3  v020
 BYTE   W01
 BYTE   N02  Cn3  v052
 BYTE   W02
 BYTE   N01  Cn3  v020
 BYTE   W01
 BYTE   N02  Cn3  v052
 BYTE   W02
 BYTE   N01  Cn3  v020
 BYTE   W01
 BYTE   N02  Cn3  v052
 BYTE   W02
 BYTE   N01  Cn3  v020
 BYTE   W01
 BYTE   N02  Cn3  v052
 BYTE   W03
 BYTE   N02
 BYTE   W03
 BYTE   N02
 BYTE   W03
 BYTE   N02
 BYTE   W03
 BYTE   N02
 BYTE   W03
 BYTE   PEND 
//  #07 //010   ----------------------------------------
Label_0110C31E:
 BYTE   N02  Fn3  v040
 BYTE   W03
 BYTE   N02
 BYTE   W03
 BYTE   N02
 BYTE   W03
 BYTE   N02
 BYTE   W03
 BYTE   Fn3  v052
 BYTE   W02
 BYTE   N01  Fn3  v040
 BYTE   W01
 BYTE   N02
 BYTE   W02
 BYTE   N01
 BYTE   W01
 BYTE   N02
 BYTE   W02
 BYTE   N01
 BYTE   W01
 BYTE   N02
 BYTE   W02
 BYTE   N01
 BYTE   W01
 BYTE   N02
 BYTE   W02
 BYTE   N01
 BYTE   W01
 BYTE   N02
 BYTE   W02
 BYTE   N01
 BYTE   W01
 BYTE   N02
 BYTE   W02
 BYTE   N01
 BYTE   W01
 BYTE   N02
 BYTE   W03
 BYTE   N01  Dn3  v052
 BYTE   W01
 BYTE   N01
 BYTE   W02
 BYTE   N01
 BYTE   W01
 BYTE   N01
 BYTE   W02
 BYTE   N01
 BYTE   W01
 BYTE   N01
 BYTE   W02
 BYTE   N01
 BYTE   W01
 BYTE   N04
 BYTE   W05
 BYTE   N02
 BYTE   W03
 BYTE   N02
 BYTE   W03
 BYTE   N02
 BYTE   W03
 BYTE   N02
 BYTE   W03
 BYTE   Dn3  v056
 BYTE   W03
 BYTE   N02
 BYTE   W03
 BYTE   N02
 BYTE   W03
 BYTE   Dn3  v060
 BYTE   W03
 BYTE   N02
 BYTE   W03
 BYTE   N02
 BYTE   W03
 BYTE   Dn3  v064
 BYTE   W03
 BYTE   N02
 BYTE   W03
 BYTE   N02
 BYTE   W03
 BYTE   Dn3  v068
 BYTE   W03
 BYTE   N02
 BYTE   W03
 BYTE   PEND 
//  #07 //011   ----------------------------------------
Label_0110C37E:
 BYTE   N02  Ds3  v068
 BYTE   W03
 BYTE   Ds3  v072
 BYTE   W03
 BYTE   N02
 BYTE   W03
 BYTE   N02
 BYTE   W03
 BYTE   Ds3  v076
 BYTE   W02
 BYTE   N01  Ds3  v028
 BYTE   W01
 BYTE   N02  Ds3  v076
 BYTE   W02
 BYTE   N01  Ds3  v028
 BYTE   W01
 BYTE   N02  Ds3  v076
 BYTE   W02
 BYTE   N01  Ds3  v028
 BYTE   W01
 BYTE   N02  Ds3  v080
 BYTE   W02
 BYTE   N01  Ds3  v028
 BYTE   W01
 BYTE   N02  Ds3  v080
 BYTE   W02
 BYTE   N01  Ds3  v028
 BYTE   W01
 BYTE   N02  Ds3  v080
 BYTE   W02
 BYTE   N01  Ds3  v028
 BYTE   W01
 BYTE   N02  Ds3  v080
 BYTE   W02
 BYTE   N01  Ds3  v028
 BYTE   W01
 BYTE   N02  Ds3  v080
 BYTE   W03
 BYTE   Fn3
 BYTE   W03
 BYTE   N02
 BYTE   W03
 BYTE   N02
 BYTE   W02
 BYTE   N01  Fn3  v032
 BYTE   W01
 BYTE   N02  Fn3  v080
 BYTE   W02
 BYTE   N01  Fn3  v032
 BYTE   W01
 BYTE   N02  Fn3  v080
 BYTE   W02
 BYTE   N01  Fn3  v032
 BYTE   W01
 BYTE   N02  Fn3  v080
 BYTE   W02
 BYTE   N01  Fn3  v032
 BYTE   W01
 BYTE   N02  Fn3  v080
 BYTE   W02
 BYTE   N01  Fn3  v032
 BYTE   W01
 BYTE   N02  Fn3  v080
 BYTE   W02
 BYTE   N01  Fn3  v032
 BYTE   W01
 BYTE   N02  Fn3  v080
 BYTE   W02
 BYTE   N01  Fn3  v032
 BYTE   W01
 BYTE   N02  Fn3  v080
 BYTE   W02
 BYTE   N01  Fn3  v032
 BYTE   W01
 BYTE   N02  Fn3  v076
 BYTE   W02
 BYTE   N01  Fn3  v032
 BYTE   W01
 BYTE   N02  Fn3  v068
 BYTE   W02
 BYTE   N01  Fn3  v032
 BYTE   W01
 BYTE   Ds3  v060
 BYTE   W01
 BYTE   N01
 BYTE   W01
 BYTE   N01
 BYTE   N02  Fn3  v032
 BYTE   W01
 BYTE   Ds3  v052
 BYTE   W02
 BYTE   Fn3  v032
 BYTE   W01
 BYTE   Ds3  v044
 BYTE   W02
 BYTE   Fn3  v032
 BYTE   W01
 BYTE   Ds3  v036
 BYTE   W03
 BYTE   N11  An2  v064
 BYTE   W12
 BYTE   PEND 
//  #07 //012   ----------------------------------------
Label_0110C434:
 BYTE   N17  As2  v080
 BYTE   W18
 BYTE   Fn3
 BYTE   W18
 BYTE   Cn3
 BYTE   W18
 BYTE   N23  Dn3
 BYTE   W30
 BYTE   N11  Gn2
 BYTE   W12
 BYTE   PEND 
//  #07 //013   ----------------------------------------
Label_0110C443:
 BYTE   N17  As2  v080
 BYTE   W18
 BYTE   Fn3
 BYTE   W18
 BYTE   Cn3
 BYTE   W18
 BYTE   N23  As2
 BYTE   W30
 BYTE   N11  Gn2
 BYTE   W12
 BYTE   PEND 
//  #07 //014   ----------------------------------------
Label_0110C452:
 BYTE   N17  As2  v080
 BYTE   W18
 BYTE   Fn3
 BYTE   W18
 BYTE   Cn3
 BYTE   W18
 BYTE   N23  Dn3
 BYTE   W30
 BYTE   N11  As2
 BYTE   W12
 BYTE   PEND 
//  #07 //015   ----------------------------------------
Label_0110C461:
 BYTE   N17  Fn3  v080
 BYTE   W18
 BYTE   Ds3
 BYTE   W18
 BYTE   Dn3
 BYTE   W18
 BYTE   N23  Cn3
 BYTE   W30
 BYTE   N11  An2
 BYTE   W12
 BYTE   PEND 
//  #07 //016   ----------------------------------------
 BYTE   PATT
  POIN2 Label_0110C434
//  #07 //017   ----------------------------------------
 BYTE   PATT
  POIN2 Label_0110C443
//  #07 //018   ----------------------------------------
Label_0110C47A:
 BYTE   N17  As2  v080
 BYTE   W18
 BYTE   Fn3
 BYTE   W18
 BYTE   Cn3
 BYTE   W18
 BYTE   N23  Dn3
 BYTE   W30
 BYTE   N11
 BYTE   W12
 BYTE   PEND 
//  #07 //019   ----------------------------------------
Label_0110C488:
 BYTE   N17  As3  v080
 BYTE   W18
 BYTE   N17
 BYTE   W18
 BYTE   An3
 BYTE   W18
 BYTE   N02  Gn3
 BYTE   W03
 BYTE   Gn3  v076
 BYTE   W03
 BYTE   Gn3  v068
 BYTE   W03
 BYTE   N01  Gn3  v024
 BYTE   W01
 BYTE   N01
 BYTE   W01
 BYTE   N01
 BYTE   W01
 BYTE   N02  Gn3  v052
 BYTE   W03
 BYTE   Gn3  v044
 BYTE   W03
 BYTE   N08  Gn3  v036
 BYTE   W24
 BYTE   PEND 
//  #07 //020   ----------------------------------------
 BYTE   W96
//  #07 //021   ----------------------------------------
 BYTE   W96
//  #07 //022   ----------------------------------------
 BYTE   W96
//  #07 //023   ----------------------------------------
 BYTE   W96
//  #07 //024   ----------------------------------------
 BYTE   W96
//  #07 //025   ----------------------------------------
 BYTE   W96
//  #07 //026   ----------------------------------------
 BYTE   W96
//  #07 //027   ----------------------------------------
 BYTE   W96
//  #07 //028   ----------------------------------------
 BYTE   TIE  Fn2
 BYTE   W96
//  #07 //029   ----------------------------------------
 BYTE   W92
 BYTE   W03
 BYTE   EOT
 BYTE   W01
//  #07 //030   ----------------------------------------
Label_0110C4BC:
 BYTE   N44  An2  v036
 BYTE   W48
 BYTE   N23  An2  v040
 BYTE   W24
 BYTE   As2
 BYTE   W24
 BYTE   PEND 
//  #07 //031   ----------------------------------------
 BYTE   N92  Cn3
 BYTE   W96
//  #07 //032   ----------------------------------------
 BYTE   TIE  Fn2  v036
 BYTE   W96
//  #07 //033   ----------------------------------------
 BYTE   W92
 BYTE   W03
 BYTE   EOT
 BYTE   W01
//  #07 //034   ----------------------------------------
 BYTE   TIE  Gs2  v040
 BYTE   W96
//  #07 //035   ----------------------------------------
 BYTE   W92
 BYTE   W03
 BYTE   EOT
 BYTE   W01
//  #07 //036   ----------------------------------------
 BYTE   TIE
 BYTE   W96
//  #07 //037   ----------------------------------------
 BYTE   W92
 BYTE   W03
 BYTE   EOT
 BYTE   W01
//  #07 //038   ----------------------------------------
 BYTE   TIE  Fs2
 BYTE   W96
//  #07 //039   ----------------------------------------
 BYTE   W92
 BYTE   W03
 BYTE   EOT
 BYTE   W01
//  #07 //040   ----------------------------------------
 BYTE   TIE  Gn2
 BYTE   W96
//  #07 //041   ----------------------------------------
 BYTE   W92
 BYTE   W03
 BYTE   EOT
 BYTE   W01
//  #07 //042   ----------------------------------------
 BYTE   TIE  An2
 BYTE   W96
//  #07 //043   ----------------------------------------
 BYTE   W92
 BYTE   W03
 BYTE   EOT
 BYTE   W01
//  #07 //044   ----------------------------------------
 BYTE   W96
//  #07 //045   ----------------------------------------
 BYTE   W96
//  #07 //046   ----------------------------------------
 BYTE   W96
//  #07 //047   ----------------------------------------
 BYTE   W96
//  #07 //048   ----------------------------------------
Label_0110C4F9:
 BYTE   N17  As2  v096
 BYTE   W18
 BYTE   Fn3
 BYTE   W18
 BYTE   Cn3
 BYTE   W18
 BYTE   N23  Dn3
 BYTE   W30
 BYTE   N11  An2
 BYTE   W12
 BYTE   PEND 
//  #07 //049   ----------------------------------------
Label_0110C508:
 BYTE   N17  As2  v096
 BYTE   W18
 BYTE   Fn3
 BYTE   W18
 BYTE   Cn3
 BYTE   W18
 BYTE   N23  As2
 BYTE   W30
 BYTE   N11  An2
 BYTE   W12
 BYTE   PEND 
//  #07 //050   ----------------------------------------
Label_0110C517:
 BYTE   N17  As2  v096
 BYTE   W18
 BYTE   Fn3
 BYTE   W18
 BYTE   Cn3
 BYTE   W18
 BYTE   N23  Dn3
 BYTE   W30
 BYTE   N11
 BYTE   W12
 BYTE   PEND 
//  #07 //051   ----------------------------------------
Label_0110C525:
 BYTE   N17  As3  v096
 BYTE   W18
 BYTE   N17
 BYTE   W18
 BYTE   An3
 BYTE   W18
 BYTE   N02  Gn3
 BYTE   W03
 BYTE   Gn3  v088
 BYTE   W03
 BYTE   Gn3  v076
 BYTE   W03
 BYTE   N01  Gn3  v028
 BYTE   W01
 BYTE   N01
 BYTE   W01
 BYTE   N01
 BYTE   W01
 BYTE   N02  Gn3  v056
 BYTE   W03
 BYTE   Gn3  v044
 BYTE   W03
 BYTE   N08  Gn3  v036
 BYTE   W24
 BYTE   PEND 
//  #07 //052   ----------------------------------------
 BYTE   N92  Ds3  v052
 BYTE   W96
//  #07 //053   ----------------------------------------
Label_0110C54E:
 BYTE   N32  Dn3  v052
 BYTE   W36
 BYTE   N17  Fn3
 BYTE   W18
 BYTE   N40  Dn3
 BYTE   W42
 BYTE   PEND 
//  #07 //054   ----------------------------------------
 BYTE   N92  Ds3  v064
 BYTE   W96
//  #07 //055   ----------------------------------------
 BYTE   Dn3
 BYTE   W96
//  #07 //056   ----------------------------------------
 BYTE   Ds3  v080
 BYTE   W96
//  #07 //057   ----------------------------------------
Label_0110C562:
 BYTE   N52  An2  v064
 BYTE   W54
 BYTE   N40  As2
 BYTE   W42
 BYTE   PEND 
//  #07 //058   ----------------------------------------
Label_0110C56A:
 BYTE   N32  Gn3  v080
 BYTE   W36
 BYTE   N56  Fs3  v096
 BYTE   W60
 BYTE   PEND 
//  #07 //059   ----------------------------------------
Label_0110C573:
 BYTE   N52  Fn3  v064
 BYTE   W54
 BYTE   N40  Dn3
 BYTE   W42
 BYTE   PEND 
//  #07 //060   ----------------------------------------
 BYTE   W96
//  #07 //061   ----------------------------------------
 BYTE   W96
//  #07 //062   ----------------------------------------
 BYTE   W96
//  #07 //063   ----------------------------------------
 BYTE   W96
//  #07 //064   ----------------------------------------
 BYTE   W96
//  #07 //065   ----------------------------------------
 BYTE   W96
//  #07 //066   ----------------------------------------
 BYTE   W96
//  #07 //067   ----------------------------------------
 BYTE   W96
//  #07 //068   ----------------------------------------
 BYTE   PATT
  POIN2 Label_0110C1B4
//  #07 //069   ----------------------------------------
 BYTE   PATT
  POIN2 Label_0110C208
//  #07 //070   ----------------------------------------
 BYTE   PATT
  POIN2 Label_0110C262
//  #07 //071   ----------------------------------------
 BYTE   PATT
  POIN2 Label_0110C31E
//  #07 //072   ----------------------------------------
 BYTE   PATT
  POIN2 Label_0110C37E
//  #07 //073   ----------------------------------------
 BYTE   PATT
  POIN2 Label_0110C434
//  #07 //074   ----------------------------------------
 BYTE   PATT
  POIN2 Label_0110C443
//  #07 //075   ----------------------------------------
 BYTE   PATT
  POIN2 Label_0110C452
//  #07 //076   ----------------------------------------
 BYTE   PATT
  POIN2 Label_0110C461
//  #07 //077   ----------------------------------------
 BYTE   PATT
  POIN2 Label_0110C434
//  #07 //078   ----------------------------------------
 BYTE   PATT
  POIN2 Label_0110C443
//  #07 //079   ----------------------------------------
 BYTE   PATT
  POIN2 Label_0110C47A
//  #07 //080   ----------------------------------------
 BYTE   PATT
  POIN2 Label_0110C488
//  #07 //081   ----------------------------------------
 BYTE   W96
//  #07 //082   ----------------------------------------
 BYTE   W96
//  #07 //083   ----------------------------------------
 BYTE   W96
//  #07 //084   ----------------------------------------
 BYTE   W96
//  #07 //085   ----------------------------------------
 BYTE   W96
//  #07 //086   ----------------------------------------
 BYTE   W96
//  #07 //087   ----------------------------------------
 BYTE   W96
//  #07 //088   ----------------------------------------
 BYTE   W96
//  #07 //089   ----------------------------------------
 BYTE   TIE  Fn2  v036
 BYTE   W96
//  #07 //090   ----------------------------------------
 BYTE   W92
 BYTE   W03
 BYTE   EOT
 BYTE   W01
//  #07 //091   ----------------------------------------
 BYTE   PATT
  POIN2 Label_0110C4BC
//  #07 //092   ----------------------------------------
 BYTE   N92  Cn3  v040
 BYTE   W96
//  #07 //093   ----------------------------------------
 BYTE   TIE  Fn2  v036
 BYTE   W96
//  #07 //094   ----------------------------------------
 BYTE   W92
 BYTE   W03
 BYTE   EOT
 BYTE   W01
//  #07 //095   ----------------------------------------
 BYTE   TIE  Gs2  v040
 BYTE   W96
//  #07 //096   ----------------------------------------
 BYTE   W92
 BYTE   W03
 BYTE   EOT
 BYTE   W01
//  #07 //097   ----------------------------------------
 BYTE   TIE
 BYTE   W96
//  #07 //098   ----------------------------------------
 BYTE   W92
 BYTE   W03
 BYTE   EOT
 BYTE   W01
//  #07 //099   ----------------------------------------
 BYTE   TIE  Fs2
 BYTE   W96
//  #07 //100   ----------------------------------------
 BYTE   W92
 BYTE   W03
 BYTE   EOT
 BYTE   W01
//  #07 //101   ----------------------------------------
 BYTE   TIE  Gn2
 BYTE   W96
//  #07 //102   ----------------------------------------
 BYTE   W92
 BYTE   W03
 BYTE   EOT
 BYTE   W01
//  #07 //103   ----------------------------------------
 BYTE   TIE  An2
 BYTE   W96
//  #07 //104   ----------------------------------------
 BYTE   W92
 BYTE   W03
 BYTE   EOT
 BYTE   W01
//  #07 //105   ----------------------------------------
 BYTE   W96
//  #07 //106   ----------------------------------------
 BYTE   W96
//  #07 //107   ----------------------------------------
 BYTE   W96
//  #07 //108   ----------------------------------------
 BYTE   W96
//  #07 //109   ----------------------------------------
 BYTE   PATT
  POIN2 Label_0110C4F9
//  #07 //110   ----------------------------------------
 BYTE   PATT
  POIN2 Label_0110C508
//  #07 //111   ----------------------------------------
 BYTE   PATT
  POIN2 Label_0110C517
//  #07 //112   ----------------------------------------
 BYTE   PATT
  POIN2 Label_0110C525
//  #07 //113   ----------------------------------------
 BYTE   N92  Ds3  v052
 BYTE   W96
//  #07 //114   ----------------------------------------
 BYTE   PATT
  POIN2 Label_0110C54E
//  #07 //115   ----------------------------------------
 BYTE   N92  Ds3  v064
 BYTE   W96
//  #07 //116   ----------------------------------------
 BYTE   Dn3
 BYTE   W96
//  #07 //117   ----------------------------------------
 BYTE   Ds3  v080
 BYTE   W96
//  #07 //118   ----------------------------------------
 BYTE   PATT
  POIN2 Label_0110C562
//  #07 //119   ----------------------------------------
 BYTE   PATT
  POIN2 Label_0110C56A
//  #07 //120   ----------------------------------------
 BYTE   PATT
  POIN2 Label_0110C573
//  #07 //121   ----------------------------------------
 BYTE   W96
//  #07 //122   ----------------------------------------
 BYTE   GoTo
  POIN2 Label_0110C1AD
 BYTE   FINE

//**************** Track 8 (Midi-Chn.7) ****************//

song06_008:
//  #08 //000   ----------------------------------------
 BYTE   KEYSH   song06_key+0
 BYTE   VOICE   49
 BYTE   VOL   62*song06_mvl/mxv
 BYTE   PAN   c_v+0
 BYTE   VOL   62*song06_mvl/mxv
 BYTE   PAN   c_v+0
 BYTE   VOL   62*song06_mvl/mxv
 BYTE   PAN   c_v+0
 BYTE   VOL   62*song06_mvl/mxv
 BYTE   PAN   c_v+0
 BYTE   VOL   62*song06_mvl/mxv
 BYTE   PAN   c_v+0
 BYTE   W12
Label_0110EE1D:
 BYTE   W96
//  #08 //001   ----------------------------------------
 BYTE   W96
//  #08 //002   ----------------------------------------
 BYTE   W96
//  #08 //003   ----------------------------------------
 BYTE   W96
//  #08 //004   ----------------------------------------
Label_0110EE21:
 BYTE   W24
 BYTE   N23  Gn2  v112
 BYTE   W24
 BYTE   N23
 BYTE   W24
 BYTE   N02  Cs3
 BYTE   W02
 BYTE   N21  Dn3
 BYTE   W22
 BYTE   PEND 
//  #08 //005   ----------------------------------------
Label_0110EE2F:
 BYTE   N23  Dn3  v112
 BYTE   W24
 BYTE   Cn3
 BYTE   W24
 BYTE   Fn3
 BYTE   W24
 BYTE   N02
 BYTE   W02
 BYTE   N21  Gn3
 BYTE   W22
 BYTE   PEND 
//  #08 //006   ----------------------------------------
Label_0110EE3D:
 BYTE   N68  Dn3  v112
 BYTE   W84
 BYTE   N11  Gn2
 BYTE   W12
 BYTE   PEND 
//  #08 //007   ----------------------------------------
Label_0110EE45:
 BYTE   N02  Cn3  v112
 BYTE   W02
 BYTE   N32  Dn3
 BYTE   W32
 BYTE   W02
 BYTE   N44  Cn3
 BYTE   W12
 BYTE   N80  Fn4  v036
 BYTE   W48
 BYTE   PEND 
//  #08 //008   ----------------------------------------
Label_0110EE55:
 BYTE   W24
 BYTE   N23  Gn2  v112
 BYTE   W12
 BYTE   N92  Dn4  v036
 BYTE   W12
 BYTE   N23  Gn2  v112
 BYTE   W24
 BYTE   N02  Cs3
 BYTE   W02
 BYTE   N21  Dn3
 BYTE   W22
 BYTE   PEND 
//  #08 //009   ----------------------------------------
Label_0110EE69:
 BYTE   N23  Dn3  v112
 BYTE   W24
 BYTE   Cn3
 BYTE   W12
 BYTE   N56  Cn4  v036
 BYTE   W12
 BYTE   N23  Fn3  v112
 BYTE   W24
 BYTE   Gn3
 BYTE   W24
 BYTE   PEND 
//  #08 //010   ----------------------------------------
Label_0110EE7A:
 BYTE   N02  Gs3  v112
 BYTE   N32  Fn4  v036
 BYTE   W02
 BYTE   An3  v112
 BYTE   W32
 BYTE   W02
 BYTE   N44  As3
 BYTE   N56  Dn4  v036
 BYTE   W48
 BYTE   N11  Gn3  v112
 BYTE   W12
 BYTE   PEND 
//  #08 //011   ----------------------------------------
Label_0110EE90:
 BYTE   N02  Cn4  v112
 BYTE   N32  Ds4  v036
 BYTE   W02
 BYTE   Dn4  v112
 BYTE   W32
 BYTE   W02
 BYTE   N44  Cn4
 BYTE   N32  Fn4  v036
 BYTE   W36
 BYTE   N11  Ds4
 BYTE   W24
 BYTE   PEND 
//  #08 //012   ----------------------------------------
Label_0110EEA5:
 BYTE   N32  Ds3  v064
 BYTE   W36
 BYTE   N17  Cn3
 BYTE   W18
 BYTE   Dn3
 BYTE   W18
 BYTE   N02
 BYTE   W03
 BYTE   N02
 BYTE   W03
 BYTE   Dn3  v060
 BYTE   W03
 BYTE   Dn3  v056
 BYTE   W03
 BYTE   Dn3  v052
 BYTE   W03
 BYTE   Dn3  v044
 BYTE   W03
 BYTE   Dn3  v040
 BYTE   W03
 BYTE   Dn3  v036
 BYTE   W03
 BYTE   PEND 
//  #08 //013   ----------------------------------------
Label_0110EEC5:
 BYTE   N32  Ds3  v052
 BYTE   W36
 BYTE   N17  An3
 BYTE   W18
 BYTE   N02  As3
 BYTE   W03
 BYTE   As3  v048
 BYTE   W03
 BYTE   N02
 BYTE   W03
 BYTE   N02
 BYTE   W03
 BYTE   N02
 BYTE   W03
 BYTE   As3  v044
 BYTE   W03
 BYTE   N02
 BYTE   W03
 BYTE   N02
 BYTE   W03
 BYTE   As3  v040
 BYTE   W03
 BYTE   N02
 BYTE   W03
 BYTE   N02
 BYTE   W03
 BYTE   As3  v036
 BYTE   W03
 BYTE   N02
 BYTE   W03
 BYTE   N02
 BYTE   W03
 BYTE   PEND 
//  #08 //014   ----------------------------------------
 BYTE   PATT
  POIN2 Label_0110EEA5
//  #08 //015   ----------------------------------------
Label_0110EEF3:
 BYTE   N32  Gn3  v052
 BYTE   W36
 BYTE   An3  v064
 BYTE   W36
 BYTE   N02  An3  v048
 BYTE   W03
 BYTE   An3  v044
 BYTE   W03
 BYTE   N02
 BYTE   W03
 BYTE   An3  v040
 BYTE   W03
 BYTE   N02
 BYTE   W03
 BYTE   N02
 BYTE   W03
 BYTE   An3  v036
 BYTE   W03
 BYTE   N02
 BYTE   W03
 BYTE   PEND 
//  #08 //016   ----------------------------------------
 BYTE   PATT
  POIN2 Label_0110EEA5
//  #08 //017   ----------------------------------------
Label_0110EF15:
 BYTE   N32  Ds3  v064
 BYTE   W36
 BYTE   N17  Cn3
 BYTE   W18
 BYTE   As2
 BYTE   W18
 BYTE   N02
 BYTE   W03
 BYTE   N02
 BYTE   W03
 BYTE   As2  v060
 BYTE   W03
 BYTE   As2  v056
 BYTE   W03
 BYTE   As2  v052
 BYTE   W03
 BYTE   As2  v044
 BYTE   W03
 BYTE   As2  v040
 BYTE   W03
 BYTE   As2  v036
 BYTE   W03
 BYTE   PEND 
//  #08 //018   ----------------------------------------
Label_0110EF35:
 BYTE   W36
 BYTE   N17  An3  v064
 BYTE   W18
 BYTE   As3
 BYTE   W18
 BYTE   N02
 BYTE   W03
 BYTE   N02
 BYTE   W03
 BYTE   As3  v060
 BYTE   W03
 BYTE   As3  v056
 BYTE   W03
 BYTE   As3  v052
 BYTE   W03
 BYTE   As3  v044
 BYTE   W03
 BYTE   As3  v040
 BYTE   W03
 BYTE   As3  v036
 BYTE   W03
 BYTE   PEND 
//  #08 //019   ----------------------------------------
Label_0110EF53:
 BYTE   N17  Gn3  v064
 BYTE   W18
 BYTE   Fs3
 BYTE   W18
 BYTE   N03  Fn3
 BYTE   W03
 BYTE   N02
 BYTE   W03
 BYTE   N02
 BYTE   W03
 BYTE   N02
 BYTE   W03
 BYTE   N02
 BYTE   W03
 BYTE   N02
 BYTE   W03
 BYTE   N02
 BYTE   W03
 BYTE   N02
 BYTE   W03
 BYTE   Fn3  v056
 BYTE   W03
 BYTE   Fn3  v044
 BYTE   W03
 BYTE   N01  Fn3  v016
 BYTE   W01
 BYTE   N01
 BYTE   W01
 BYTE   N01
 BYTE   W01
 BYTE   N02  Fn3  v036
 BYTE   W03
 BYTE   N02
 BYTE   W03
 BYTE   N02
 BYTE   W21
 BYTE   PEND 
//  #08 //020   ----------------------------------------
Label_0110EF81:
 BYTE   N02  Ds3  v036
 BYTE   W03
 BYTE   N02
 BYTE   W03
 BYTE   N02
 BYTE   W03
 BYTE   N02
 BYTE   W03
 BYTE   N02
 BYTE   W03
 BYTE   N02
 BYTE   W03
 BYTE   N02
 BYTE   W03
 BYTE   Ds3  v040
 BYTE   W03
 BYTE   N02
 BYTE   W03
 BYTE   N02
 BYTE   W03
 BYTE   N02
 BYTE   W03
 BYTE   Ds3  v044
 BYTE   W03
 BYTE   N02
 BYTE   W03
 BYTE   N02
 BYTE   W03
 BYTE   N02
 BYTE   W03
 BYTE   Ds3  v048
 BYTE   W03
 BYTE   N02
 BYTE   W03
 BYTE   N02
 BYTE   W03
 BYTE   N02
 BYTE   W03
 BYTE   Ds3  v052
 BYTE   W03
 BYTE   N02
 BYTE   W03
 BYTE   N02
 BYTE   W03
 BYTE   N02
 BYTE   W03
 BYTE   Ds3  v048
 BYTE   W03
 BYTE   N02
 BYTE   W03
 BYTE   N02
 BYTE   W03
 BYTE   Ds3  v044
 BYTE   W03
 BYTE   N02
 BYTE   W03
 BYTE   Ds3  v040
 BYTE   W03
 BYTE   N02
 BYTE   W03
 BYTE   N02
 BYTE   W03
 BYTE   Ds3  v036
 BYTE   W03
 BYTE   PEND 
//  #08 //021   ----------------------------------------
Label_0110EFCC:
 BYTE   N02  Dn3  v036
 BYTE   W03
 BYTE   N02
 BYTE   W03
 BYTE   N02
 BYTE   W03
 BYTE   N02
 BYTE   W03
 BYTE   N02
 BYTE   W03
 BYTE   N02
 BYTE   W03
 BYTE   N02
 BYTE   W03
 BYTE   Dn3  v040
 BYTE   W03
 BYTE   N02
 BYTE   W03
 BYTE   N02
 BYTE   W03
 BYTE   N02
 BYTE   W03
 BYTE   Dn3  v044
 BYTE   W03
 BYTE   Fn3
 BYTE   W03
 BYTE   N02
 BYTE   W03
 BYTE   N02
 BYTE   W03
 BYTE   Fn3  v048
 BYTE   W03
 BYTE   N02
 BYTE   W03
 BYTE   N02
 BYTE   W03
 BYTE   Dn3
 BYTE   W03
 BYTE   Dn3  v052
 BYTE   W03
 BYTE   N02
 BYTE   W03
 BYTE   N02
 BYTE   W03
 BYTE   N02
 BYTE   W03
 BYTE   Dn3  v048
 BYTE   W03
 BYTE   N02
 BYTE   W03
 BYTE   N02
 BYTE   W03
 BYTE   Dn3  v044
 BYTE   W03
 BYTE   N02
 BYTE   W03
 BYTE   Dn3  v040
 BYTE   W03
 BYTE   N02
 BYTE   W03
 BYTE   N02
 BYTE   W03
 BYTE   Dn3  v036
 BYTE   W03
 BYTE   PEND 
//  #08 //022   ----------------------------------------
Label_0110F017:
 BYTE   N02  Ds3  v036
 BYTE   W03
 BYTE   N02
 BYTE   W03
 BYTE   N02
 BYTE   W03
 BYTE   N02
 BYTE   W03
 BYTE   N02
 BYTE   W03
 BYTE   N02
 BYTE   W03
 BYTE   N02
 BYTE   W03
 BYTE   Ds3  v040
 BYTE   W03
 BYTE   N02
 BYTE   W03
 BYTE   N02
 BYTE   W03
 BYTE   N02
 BYTE   W03
 BYTE   Ds3  v044
 BYTE   W03
 BYTE   Fn3
 BYTE   W03
 BYTE   N02
 BYTE   W03
 BYTE   N02
 BYTE   W03
 BYTE   Fn3  v048
 BYTE   W03
 BYTE   N02
 BYTE   W03
 BYTE   N02
 BYTE   W03
 BYTE   N02
 BYTE   W03
 BYTE   Fn3  v052
 BYTE   W03
 BYTE   N02
 BYTE   W03
 BYTE   N02
 BYTE   W03
 BYTE   N02
 BYTE   W03
 BYTE   Fn3  v048
 BYTE   W03
 BYTE   Fn3  v044
 BYTE   W03
 BYTE   Fn3  v040
 BYTE   W03
 BYTE   Fn3  v036
 BYTE   W03
 BYTE   N02
 BYTE   W03
 BYTE   Fn3  v032
 BYTE   W03
 BYTE   Fn3  v028
 BYTE   W03
 BYTE   Fn3  v024
 BYTE   W03
 BYTE   Fn3  v020
 BYTE   W03
 BYTE   PEND 
//  #08 //023   ----------------------------------------
Label_0110F066:
 BYTE   N02  Cn4  v016
 BYTE   W03
 BYTE   N02
 BYTE   W03
 BYTE   Cn4  v020
 BYTE   W03
 BYTE   N02
 BYTE   W03
 BYTE   N02
 BYTE   W03
 BYTE   N02
 BYTE   W03
 BYTE   Cn4  v024
 BYTE   W03
 BYTE   N02
 BYTE   W03
 BYTE   N02
 BYTE   W03
 BYTE   N02
 BYTE   W03
 BYTE   Cn4  v028
 BYTE   W03
 BYTE   N02
 BYTE   W03
 BYTE   N02
 BYTE   W03
 BYTE   N02
 BYTE   W03
 BYTE   Cn4  v032
 BYTE   W03
 BYTE   N02
 BYTE   W03
 BYTE   N02
 BYTE   W03
 BYTE   N02
 BYTE   W03
 BYTE   As3  v036
 BYTE   W03
 BYTE   N02
 BYTE   W03
 BYTE   N02
 BYTE   W03
 BYTE   N02
 BYTE   W03
 BYTE   N02
 BYTE   W03
 BYTE   N02
 BYTE   W03
 BYTE   N05  An3  v080
 BYTE   N02  As3  v036
 BYTE   W03
 BYTE   N02
 BYTE   W03
 BYTE   N02
 BYTE   W03
 BYTE   N02
 BYTE   W03
 BYTE   N02
 BYTE   N11  Cn4  v080
 BYTE   W03
 BYTE   N02  As3  v036
 BYTE   W03
 BYTE   N02
 BYTE   W03
 BYTE   N02
 BYTE   W03
 BYTE   PEND 
//  #08 //024   ----------------------------------------
Label_0110F0B8:
 BYTE   N02  Gn3  v036
 BYTE   N17  Dn4  v080
 BYTE   W03
 BYTE   N02  Gn3  v036
 BYTE   W03
 BYTE   N02
 BYTE   W03
 BYTE   N02
 BYTE   W03
 BYTE   N02
 BYTE   W03
 BYTE   N02
 BYTE   W03
 BYTE   N02
 BYTE   W03
 BYTE   Gn3  v040
 BYTE   W03
 BYTE   N02
 BYTE   W03
 BYTE   N02
 BYTE   W03
 BYTE   N02
 BYTE   W03
 BYTE   Gn3  v044
 BYTE   W03
 BYTE   N02
 BYTE   N17  Dn4  v080
 BYTE   W03
 BYTE   N02  Gn3  v044
 BYTE   W03
 BYTE   N02
 BYTE   W03
 BYTE   Gn3  v048
 BYTE   W03
 BYTE   N02
 BYTE   W03
 BYTE   N02
 BYTE   W03
 BYTE   N02
 BYTE   W03
 BYTE   Gn3  v052
 BYTE   W03
 BYTE   N02
 BYTE   W03
 BYTE   N02
 BYTE   W03
 BYTE   N02
 BYTE   W03
 BYTE   Gn3  v048
 BYTE   W03
 BYTE   N02
 BYTE   N05  Dn4  v080
 BYTE   W03
 BYTE   N02  Gn3  v048
 BYTE   W03
 BYTE   Gn3  v044
 BYTE   N05  Ds4  v080
 BYTE   W03
 BYTE   N02  Gn3  v044
 BYTE   W03
 BYTE   Gn3  v040
 BYTE   N11  Dn4  v080
 BYTE   W03
 BYTE   N02  Gn3  v040
 BYTE   W03
 BYTE   N02
 BYTE   W03
 BYTE   Gn3  v036
 BYTE   W03
 BYTE   PEND 
//  #08 //025   ----------------------------------------
Label_0110F11C:
 BYTE   N02  Fn3  v036
 BYTE   N17  Cn4  v080
 BYTE   W03
 BYTE   N02  Fn3  v036
 BYTE   W03
 BYTE   N02
 BYTE   W03
 BYTE   N02
 BYTE   W03
 BYTE   N02
 BYTE   W03
 BYTE   N02
 BYTE   W03
 BYTE   N02
 BYTE   W03
 BYTE   Fn3  v040
 BYTE   W03
 BYTE   N02
 BYTE   W03
 BYTE   N02
 BYTE   W03
 BYTE   N02
 BYTE   W03
 BYTE   Fn3  v044
 BYTE   W03
 BYTE   N02
 BYTE   N17  Cn4  v080
 BYTE   W03
 BYTE   N02  Fn3  v044
 BYTE   W03
 BYTE   N02
 BYTE   W03
 BYTE   Fn3  v048
 BYTE   W03
 BYTE   N02
 BYTE   W03
 BYTE   N02
 BYTE   W03
 BYTE   Dn3
 BYTE   N17  As3  v080
 BYTE   W03
 BYTE   N02  Dn3  v052
 BYTE   W03
 BYTE   N02
 BYTE   W03
 BYTE   N02
 BYTE   W03
 BYTE   N02
 BYTE   W03
 BYTE   N02
 BYTE   W03
 BYTE   N02
 BYTE   N05  An3  v080
 BYTE   W03
 BYTE   N02  Dn3  v052
 BYTE   W03
 BYTE   N02
 BYTE   N05  As3  v080
 BYTE   W03
 BYTE   N02  Dn3  v052
 BYTE   W03
 BYTE   N02
 BYTE   N11  Cn4  v080
 BYTE   W03
 BYTE   N02  Dn3  v052
 BYTE   W03
 BYTE   N02
 BYTE   W03
 BYTE   N02
 BYTE   W03
 BYTE   PEND 
//  #08 //026   ----------------------------------------
Label_0110F180:
 BYTE   N17  Dn4  v080
 BYTE   W18
 BYTE   Gn3
 BYTE   W18
 BYTE   Dn4
 BYTE   W18
 BYTE   Fs3
 BYTE   W18
 BYTE   N05  Dn4
 BYTE   W06
 BYTE   Ds4
 BYTE   W06
 BYTE   N11  Dn4
 BYTE   W12
 BYTE   PEND 
//  #08 //027   ----------------------------------------
Label_0110F193:
 BYTE   N17  Cn4  v080
 BYTE   W18
 BYTE   Fn4
 BYTE   W18
 BYTE   Cn4
 BYTE   W18
 BYTE   As3
 BYTE   W42
 BYTE   PEND 
//  #08 //028   ----------------------------------------
 BYTE   TIE  Cn3  v064
 BYTE   W96
//  #08 //029   ----------------------------------------
 BYTE   W92
 BYTE   W03
 BYTE   EOT
 BYTE   W01
//  #08 //030   ----------------------------------------
 BYTE   TIE  Dn3
 BYTE   W96
//  #08 //031   ----------------------------------------
 BYTE   W92
 BYTE   W03
 BYTE   EOT
 BYTE   W01
//  #08 //032   ----------------------------------------
 BYTE   TIE  Cn3
 BYTE   W96
//  #08 //033   ----------------------------------------
 BYTE   W92
 BYTE   W03
 BYTE   EOT
 BYTE   W01
//  #08 //034   ----------------------------------------
 BYTE   TIE  Cn3  v060
 BYTE   W96
//  #08 //035   ----------------------------------------
 BYTE   W92
 BYTE   W03
 BYTE   EOT
 BYTE   W01
//  #08 //036   ----------------------------------------
 BYTE   N92  Ds3
 BYTE   W96
//  #08 //037   ----------------------------------------
 BYTE   Gs3  v068
 BYTE   W96
//  #08 //038   ----------------------------------------
 BYTE   TIE  Cs3  v060
 BYTE   W96
//  #08 //039   ----------------------------------------
 BYTE   W92
 BYTE   W03
 BYTE   EOT
 BYTE   W01
//  #08 //040   ----------------------------------------
 BYTE   TIE  An2
 BYTE   W96
//  #08 //041   ----------------------------------------
 BYTE   W92
 BYTE   W03
 BYTE   EOT
 BYTE   W01
//  #08 //042   ----------------------------------------
 BYTE   TIE  Cn3
 BYTE   W96
//  #08 //043   ----------------------------------------
 BYTE   W92
 BYTE   W03
 BYTE   EOT
 BYTE   W01
//  #08 //044   ----------------------------------------
 BYTE   W96
//  #08 //045   ----------------------------------------
 BYTE   W96
//  #08 //046   ----------------------------------------
 BYTE   W96
//  #08 //047   ----------------------------------------
 BYTE   W96
//  #08 //048   ----------------------------------------
Label_0110F1DC:
 BYTE   N32  As3  v064
 BYTE   W36
 BYTE   An3
 BYTE   W36
 BYTE   N02
 BYTE   W03
 BYTE   N02
 BYTE   W03
 BYTE   An3  v060
 BYTE   W03
 BYTE   An3  v056
 BYTE   W03
 BYTE   An3  v052
 BYTE   W03
 BYTE   An3  v044
 BYTE   W03
 BYTE   An3  v040
 BYTE   W03
 BYTE   An3  v036
 BYTE   W03
 BYTE   PEND 
//  #08 //049   ----------------------------------------
Label_0110F1F9:
 BYTE   N32  Gn3  v064
 BYTE   W36
 BYTE   N17  Fn3
 BYTE   W18
 BYTE   N02
 BYTE   W03
 BYTE   N02
 BYTE   W03
 BYTE   Fn3  v060
 BYTE   W03
 BYTE   N02
 BYTE   W03
 BYTE   Fn3  v056
 BYTE   W03
 BYTE   N02
 BYTE   W03
 BYTE   Fn3  v052
 BYTE   W03
 BYTE   Fn3  v048
 BYTE   W03
 BYTE   N02
 BYTE   W03
 BYTE   Fn3  v044
 BYTE   W03
 BYTE   N02
 BYTE   W03
 BYTE   Fn3  v040
 BYTE   W03
 BYTE   Fn3  v036
 BYTE   W03
 BYTE   N02
 BYTE   W03
 BYTE   PEND 
//  #08 //050   ----------------------------------------
Label_0110F224:
 BYTE   N32  Ds3  v064
 BYTE   W36
 BYTE   Fn3  v080
 BYTE   W36
 BYTE   N02
 BYTE   W03
 BYTE   N02
 BYTE   W03
 BYTE   Fn3  v076
 BYTE   W03
 BYTE   Fn3  v068
 BYTE   W03
 BYTE   Fn3  v060
 BYTE   W03
 BYTE   Fn3  v052
 BYTE   W03
 BYTE   Fn3  v044
 BYTE   W03
 BYTE   Fn3  v036
 BYTE   W03
 BYTE   PEND 
//  #08 //051   ----------------------------------------
Label_0110F242:
 BYTE   N17  Dn4  v080
 BYTE   W18
 BYTE   Cn4
 BYTE   W18
 BYTE   N17
 BYTE   W03
 BYTE   N02  As3
 BYTE   W03
 BYTE   N02
 BYTE   W03
 BYTE   N02
 BYTE   W03
 BYTE   N02
 BYTE   W03
 BYTE   N02
 BYTE   W03
 BYTE   N02
 BYTE   W03
 BYTE   N02
 BYTE   W03
 BYTE   As3  v068
 BYTE   W03
 BYTE   As3  v052
 BYTE   W03
 BYTE   N01  As3  v016
 BYTE   W01
 BYTE   N01
 BYTE   W01
 BYTE   N01
 BYTE   W01
 BYTE   N02  As3  v036
 BYTE   W24
 BYTE   W03
 BYTE   PEND 
//  #08 //052   ----------------------------------------
Label_0110F26D:
 BYTE   N32  Ds3  v096
 BYTE   N03  Gn4  v032
 BYTE   W03
 BYTE   N02  Gn4  v064
 BYTE   W03
 BYTE   N02
 BYTE   W03
 BYTE   N02
 BYTE   W03
 BYTE   N02
 BYTE   W03
 BYTE   N02
 BYTE   W03
 BYTE   N02
 BYTE   W03
 BYTE   N02
 BYTE   W03
 BYTE   N02
 BYTE   W03
 BYTE   N02
 BYTE   W03
 BYTE   N02
 BYTE   W03
 BYTE   N02
 BYTE   W03
 BYTE   N56  Ds3  v096
 BYTE   N02  Gn4  v064
 BYTE   W03
 BYTE   N02
 BYTE   W03
 BYTE   N02
 BYTE   W03
 BYTE   N02
 BYTE   W03
 BYTE   N44
 BYTE   W48
 BYTE   PEND 
//  #08 //053   ----------------------------------------
Label_0110F29C:
 BYTE   N32  Dn3  v096
 BYTE   N03  Fn4  v020
 BYTE   W03
 BYTE   N02  Fn4  v036
 BYTE   W03
 BYTE   Fn4  v040
 BYTE   W03
 BYTE   Fn4  v044
 BYTE   W03
 BYTE   Fn4  v048
 BYTE   W03
 BYTE   Fn4  v052
 BYTE   W03
 BYTE   Fn4  v056
 BYTE   W03
 BYTE   Fn4  v060
 BYTE   W03
 BYTE   Fn4  v064
 BYTE   W03
 BYTE   Fn4  v068
 BYTE   W03
 BYTE   Fn4  v072
 BYTE   W03
 BYTE   Fn4  v076
 BYTE   W03
 BYTE   N17  Fn3  v080
 BYTE   N02  Fn4
 BYTE   W03
 BYTE   Fn4  v084
 BYTE   W03
 BYTE   Fn4  v088
 BYTE   W03
 BYTE   Fn4  v092
 BYTE   W03
 BYTE   Fn4  v096
 BYTE   W03
 BYTE   N02
 BYTE   W03
 BYTE   N11  Dn3  v080
 BYTE   N02  Dn4  v096
 BYTE   W03
 BYTE   N02
 BYTE   W03
 BYTE   Dn4  v092
 BYTE   W03
 BYTE   Dn4  v088
 BYTE   W03
 BYTE   N28  Dn3  v064
 BYTE   N02  Dn4  v084
 BYTE   W03
 BYTE   Dn4  v076
 BYTE   W03
 BYTE   Dn4  v072
 BYTE   W03
 BYTE   Dn4  v068
 BYTE   W03
 BYTE   Dn4  v060
 BYTE   W03
 BYTE   Dn4  v056
 BYTE   W03
 BYTE   Dn4  v052
 BYTE   W03
 BYTE   Dn4  v044
 BYTE   W03
 BYTE   Dn4  v040
 BYTE   W03
 BYTE   Dn4  v036
 BYTE   W03
 BYTE   PEND 
//  #08 //054   ----------------------------------------
Label_0110F30B:
 BYTE   N32  Ds3  v096
 BYTE   N02  Fn4  v036
 BYTE   W03
 BYTE   N02
 BYTE   W03
 BYTE   Fn4  v040
 BYTE   W03
 BYTE   Fn4  v044
 BYTE   W03
 BYTE   Fn4  v048
 BYTE   W03
 BYTE   Fn4  v052
 BYTE   W03
 BYTE   Fn4  v056
 BYTE   W03
 BYTE   Fn4  v060
 BYTE   W03
 BYTE   Fn4  v064
 BYTE   W03
 BYTE   Fn4  v068
 BYTE   W03
 BYTE   Fn4  v072
 BYTE   W03
 BYTE   Fn4  v076
 BYTE   W03
 BYTE   N56  Fn3  v096
 BYTE   N02  Fn4  v080
 BYTE   W03
 BYTE   N02
 BYTE   W03
 BYTE   N02
 BYTE   W03
 BYTE   N02
 BYTE   W03
 BYTE   N44
 BYTE   W48
 BYTE   PEND 
//  #08 //055   ----------------------------------------
Label_0110F342:
 BYTE   N32  Gn3  v096
 BYTE   N17  An4  v064
 BYTE   W18
 BYTE   Fn4
 BYTE   W18
 BYTE   N32  Gn3  v096
 BYTE   N56  Dn4  v052
 BYTE   W36
 BYTE   N23  En3  v096
 BYTE   W24
 BYTE   PEND 
//  #08 //056   ----------------------------------------
Label_0110F357:
 BYTE   N32  Ds3  v096
 BYTE   N03  Gn4  v020
 BYTE   N92  Gn5  v036
 BYTE   W03
 BYTE   N02  Gn4
 BYTE   W03
 BYTE   N02
 BYTE   W03
 BYTE   Gn4  v040
 BYTE   W03
 BYTE   N02
 BYTE   W03
 BYTE   Gn4  v044
 BYTE   W03
 BYTE   N02
 BYTE   W03
 BYTE   Gn4  v048
 BYTE   W03
 BYTE   N02
 BYTE   W03
 BYTE   Gn4  v052
 BYTE   W03
 BYTE   N02
 BYTE   W03
 BYTE   Gn4  v056
 BYTE   W03
 BYTE   N56  Ds3  v096
 BYTE   N02  Gn4  v056
 BYTE   W03
 BYTE   Gn4  v060
 BYTE   W03
 BYTE   N02
 BYTE   W03
 BYTE   Gn4  v064
 BYTE   W03
 BYTE   N44
 BYTE   W48
 BYTE   PEND 
//  #08 //057   ----------------------------------------
Label_0110F38F:
 BYTE   N32  Dn3  v096
 BYTE   N52  Fn4  v080
 BYTE   W36
 BYTE   N17  Fn3
 BYTE   W18
 BYTE   N11  Dn3
 BYTE   N40  Dn4
 BYTE   W12
 BYTE   N28  Dn3  v064
 BYTE   W30
 BYTE   PEND 
//  #08 //058   ----------------------------------------
Label_0110F3A3:
 BYTE   N32  Gn3  v080
 BYTE   N02  Cn4  v036
 BYTE   W03
 BYTE   N02
 BYTE   W03
 BYTE   Cn4  v040
 BYTE   W03
 BYTE   N02
 BYTE   W03
 BYTE   Cn4  v044
 BYTE   W03
 BYTE   Cn4  v048
 BYTE   W03
 BYTE   N02
 BYTE   W03
 BYTE   Cn4  v052
 BYTE   W03
 BYTE   Cn4  v056
 BYTE   W03
 BYTE   N02
 BYTE   W03
 BYTE   Cn4  v060
 BYTE   W03
 BYTE   Cn4  v064
 BYTE   W03
 BYTE   N56  Fs3  v080
 BYTE   N02  Cn4  v064
 BYTE   W03
 BYTE   N02
 BYTE   W03
 BYTE   N02
 BYTE   W03
 BYTE   N02
 BYTE   W03
 BYTE   N44
 BYTE   W48
 BYTE   PEND 
//  #08 //059   ----------------------------------------
Label_0110F3D7:
 BYTE   N32  Gn3  v080
 BYTE   N52  Cn4  v064
 BYTE   W36
 BYTE   N56  Gn3  v080
 BYTE   W18
 BYTE   N40  As3  v064
 BYTE   W42
 BYTE   PEND 
//  #08 //060   ----------------------------------------
 BYTE   W96
//  #08 //061   ----------------------------------------
 BYTE   W96
//  #08 //062   ----------------------------------------
 BYTE   W96
//  #08 //063   ----------------------------------------
 BYTE   W96
//  #08 //064   ----------------------------------------
 BYTE   W96
//  #08 //065   ----------------------------------------
 BYTE   PATT
  POIN2 Label_0110EE21
//  #08 //066   ----------------------------------------
 BYTE   PATT
  POIN2 Label_0110EE2F
//  #08 //067   ----------------------------------------
 BYTE   PATT
  POIN2 Label_0110EE3D
//  #08 //068   ----------------------------------------
 BYTE   PATT
  POIN2 Label_0110EE45
//  #08 //069   ----------------------------------------
 BYTE   PATT
  POIN2 Label_0110EE55
//  #08 //070   ----------------------------------------
 BYTE   PATT
  POIN2 Label_0110EE69
//  #08 //071   ----------------------------------------
 BYTE   PATT
  POIN2 Label_0110EE7A
//  #08 //072   ----------------------------------------
 BYTE   PATT
  POIN2 Label_0110EE90
//  #08 //073   ----------------------------------------
 BYTE   PATT
  POIN2 Label_0110EEA5
//  #08 //074   ----------------------------------------
 BYTE   PATT
  POIN2 Label_0110EEC5
//  #08 //075   ----------------------------------------
 BYTE   PATT
  POIN2 Label_0110EEA5
//  #08 //076   ----------------------------------------
 BYTE   PATT
  POIN2 Label_0110EEF3
//  #08 //077   ----------------------------------------
 BYTE   PATT
  POIN2 Label_0110EEA5
//  #08 //078   ----------------------------------------
 BYTE   PATT
  POIN2 Label_0110EF15
//  #08 //079   ----------------------------------------
 BYTE   PATT
  POIN2 Label_0110EF35
//  #08 //080   ----------------------------------------
 BYTE   PATT
  POIN2 Label_0110EF53
//  #08 //081   ----------------------------------------
 BYTE   PATT
  POIN2 Label_0110EF81
//  #08 //082   ----------------------------------------
 BYTE   PATT
  POIN2 Label_0110EFCC
//  #08 //083   ----------------------------------------
 BYTE   PATT
  POIN2 Label_0110F017
//  #08 //084   ----------------------------------------
 BYTE   PATT
  POIN2 Label_0110F066
//  #08 //085   ----------------------------------------
 BYTE   PATT
  POIN2 Label_0110F0B8
//  #08 //086   ----------------------------------------
 BYTE   PATT
  POIN2 Label_0110F11C
//  #08 //087   ----------------------------------------
 BYTE   PATT
  POIN2 Label_0110F180
//  #08 //088   ----------------------------------------
 BYTE   PATT
  POIN2 Label_0110F193
//  #08 //089   ----------------------------------------
 BYTE   TIE  Cn3  v064
 BYTE   W96
//  #08 //090   ----------------------------------------
 BYTE   W92
 BYTE   W03
 BYTE   EOT
 BYTE   W01
//  #08 //091   ----------------------------------------
 BYTE   TIE  Dn3
 BYTE   W96
//  #08 //092   ----------------------------------------
 BYTE   W92
 BYTE   W03
 BYTE   EOT
 BYTE   W01
//  #08 //093   ----------------------------------------
 BYTE   TIE  Cn3
 BYTE   W96
//  #08 //094   ----------------------------------------
 BYTE   W92
 BYTE   W03
 BYTE   EOT
 BYTE   W01
//  #08 //095   ----------------------------------------
 BYTE   TIE  Cn3  v060
 BYTE   W96
//  #08 //096   ----------------------------------------
 BYTE   W92
 BYTE   W03
 BYTE   EOT
 BYTE   W01
//  #08 //097   ----------------------------------------
 BYTE   N92  Ds3
 BYTE   W96
//  #08 //098   ----------------------------------------
 BYTE   Gs3  v068
 BYTE   W96
//  #08 //099   ----------------------------------------
 BYTE   TIE  Cs3  v060
 BYTE   W96
//  #08 //100   ----------------------------------------
 BYTE   W92
 BYTE   W03
 BYTE   EOT
 BYTE   W01
//  #08 //101   ----------------------------------------
 BYTE   TIE  An2
 BYTE   W96
//  #08 //102   ----------------------------------------
 BYTE   W92
 BYTE   W03
 BYTE   EOT
 BYTE   W01
//  #08 //103   ----------------------------------------
 BYTE   TIE  Cn3
 BYTE   W96
//  #08 //104   ----------------------------------------
 BYTE   W92
 BYTE   W03
 BYTE   EOT
 BYTE   W01
//  #08 //105   ----------------------------------------
 BYTE   W96
//  #08 //106   ----------------------------------------
 BYTE   W96
//  #08 //107   ----------------------------------------
 BYTE   W96
//  #08 //108   ----------------------------------------
 BYTE   W96
//  #08 //109   ----------------------------------------
 BYTE   PATT
  POIN2 Label_0110F1DC
//  #08 //110   ----------------------------------------
 BYTE   PATT
  POIN2 Label_0110F1F9
//  #08 //111   ----------------------------------------
 BYTE   PATT
  POIN2 Label_0110F224
//  #08 //112   ----------------------------------------
 BYTE   PATT
  POIN2 Label_0110F242
//  #08 //113   ----------------------------------------
 BYTE   PATT
  POIN2 Label_0110F26D
//  #08 //114   ----------------------------------------
 BYTE   PATT
  POIN2 Label_0110F29C
//  #08 //115   ----------------------------------------
 BYTE   PATT
  POIN2 Label_0110F30B
//  #08 //116   ----------------------------------------
 BYTE   PATT
  POIN2 Label_0110F342
//  #08 //117   ----------------------------------------
 BYTE   PATT
  POIN2 Label_0110F357
//  #08 //118   ----------------------------------------
 BYTE   PATT
  POIN2 Label_0110F38F
//  #08 //119   ----------------------------------------
 BYTE   PATT
  POIN2 Label_0110F3A3
//  #08 //120   ----------------------------------------
 BYTE   PATT
  POIN2 Label_0110F3D7
//  #08 //121   ----------------------------------------
 BYTE   W96
//  #08 //122   ----------------------------------------
 BYTE   GoTo
  POIN2 Label_0110EE1D
 BYTE   FINE

//**************** Track 9 (Midi-Chn.8) ****************//

song06_009:
//  #09 //000   ----------------------------------------
 BYTE   KEYSH   song06_key+0
 BYTE   VOICE   1
 BYTE   VOL   62*song06_mvl/mxv
 BYTE   PAN   c_v+0
 BYTE   VOL   62*song06_mvl/mxv
 BYTE   PAN   c_v+0
 BYTE   W12
Label_0110F4F5:
 BYTE   N11  Gn1  v080
 BYTE   W12
 BYTE   Dn2
 BYTE   W12
 BYTE   An2
 BYTE   N11  As2
 BYTE   N11  Fn3  v116
 BYTE   W12
 BYTE   N44  En1  v080
 BYTE   N44  Dn3  v096
 BYTE   W60
 BYTE   PEND 
//  #09 //001   ----------------------------------------
Label_0110F50A:
 BYTE   N11  Ds1  v080
 BYTE   N32  Dn3
 BYTE   W12
 BYTE   N11  Ds2
 BYTE   W12
 BYTE   Gn2
 BYTE   W12
 BYTE   N44  Fn1
 BYTE   N44  Cn2
 BYTE   N44  Fn2
 BYTE   N22  As2  v064
 BYTE   N22  Cn3  v104
 BYTE   W36
 BYTE   N02  Fn4  v080
 BYTE   N23  As4
 BYTE   W03
 BYTE   N20  Cn5
 BYTE   W21
 BYTE   PEND 
//  #09 //002   ----------------------------------------
Label_0110F52C:
 BYTE   N11  Gn1  v080
 BYTE   W12
 BYTE   Dn2
 BYTE   W12
 BYTE   An2
 BYTE   N11  As2
 BYTE   N11  Fn3  v096
 BYTE   W12
 BYTE   N44  En1  v080
 BYTE   N44  Dn3
 BYTE   W60
 BYTE   PEND 
//  #09 //003   ----------------------------------------
Label_0110F540:
 BYTE   N11  Cn1  v080
 BYTE   N32  Ds3  v116
 BYTE   W12
 BYTE   N11  As1  v080
 BYTE   W12
 BYTE   Gn2
 BYTE   W12
 BYTE   N22  Dn1
 BYTE   N22  An1
 BYTE   N22  Cn2
 BYTE   N23  Cn3  v096
 BYTE   N23  Fn3  v116
 BYTE   W24
 BYTE   N32  Dn2  v080
 BYTE   W12
 BYTE   N23  As3  v096
 BYTE   W24
 BYTE   PEND 
//  #09 //004   ----------------------------------------
Label_0110F563:
 BYTE   N11  Gn1  v080
 BYTE   N02  An3  v064
 BYTE   W02
 BYTE   N30  As3  v080
 BYTE   W10
 BYTE   N11  Dn2
 BYTE   W12
 BYTE   An2
 BYTE   N11  As2
 BYTE   W12
 BYTE   N44  En1
 BYTE   N02  Fs3  v064
 BYTE   W02
 BYTE   N30  Gn3  v080
 BYTE   W56
 BYTE   W02
 BYTE   PEND 
//  #09 //005   ----------------------------------------
 BYTE   PATT
  POIN2 Label_0110F50A
//  #09 //006   ----------------------------------------
 BYTE   PATT
  POIN2 Label_0110F52C
//  #09 //007   ----------------------------------------
 BYTE   PATT
  POIN2 Label_0110F540
//  #09 //008   ----------------------------------------
 BYTE   PATT
  POIN2 Label_0110F563
//  #09 //009   ----------------------------------------
 BYTE   PATT
  POIN2 Label_0110F50A
//  #09 //010   ----------------------------------------
Label_0110F59A:
 BYTE   N11  Gn1  v080
 BYTE   W12
 BYTE   Dn2
 BYTE   W12
 BYTE   An2
 BYTE   N11  As2
 BYTE   N11  Fn3  v096
 BYTE   W12
 BYTE   N44  Ds1  v080
 BYTE   N44  Ds2
 BYTE   N44  Dn3
 BYTE   W60
 BYTE   PEND 
//  #09 //011   ----------------------------------------
Label_0110F5B0:
 BYTE   N11  Cn2  v080
 BYTE   N23  Ds3  v116
 BYTE   W12
 BYTE   N11  As2  v088
 BYTE   W12
 BYTE   Gn3  v096
 BYTE   W12
 BYTE   N22  Dn2
 BYTE   N22  An2
 BYTE   N22  Dn3
 BYTE   N23  Fs3  v104
 BYTE   N23  Fn4  v127
 BYTE   W24
 BYTE   N32  Dn2  v096
 BYTE   W12
 BYTE   N11  As3  v080
 BYTE   N11  Ds4  v096
 BYTE   W12
 BYTE   An3  v116
 BYTE   W12
 BYTE   PEND 
//  #09 //012   ----------------------------------------
Label_0110F5DA:
 BYTE   N17  Gn3  v096
 BYTE   N17  As3
 BYTE   W06
 BYTE   N05  An4  v072
 BYTE   W06
 BYTE   As4
 BYTE   W06
 BYTE   N17  Fn4  v096
 BYTE   N05  Fn5  v072
 BYTE   W06
 BYTE   An4
 BYTE   W06
 BYTE   As4
 BYTE   W06
 BYTE   N17  Fn3  v096
 BYTE   N17  Cn4
 BYTE   N05  Fn5  v072
 BYTE   W06
 BYTE   An4
 BYTE   W06
 BYTE   As4
 BYTE   W06
 BYTE   N22  Dn4  v096
 BYTE   N05  Fn5  v072
 BYTE   W06
 BYTE   An4
 BYTE   W06
 BYTE   As4
 BYTE   W06
 BYTE   Fn5
 BYTE   W06
 BYTE   An4
 BYTE   W06
 BYTE   N11  Gn3  v096
 BYTE   N05  As4  v072
 BYTE   W06
 BYTE   Fn5
 BYTE   W06
 BYTE   PEND 
//  #09 //013   ----------------------------------------
Label_0110F617:
 BYTE   N17  Gn3  v096
 BYTE   N17  As3
 BYTE   W06
 BYTE   N05  An4  v072
 BYTE   W06
 BYTE   As4
 BYTE   W06
 BYTE   N17  Fn4  v096
 BYTE   N05  Fn5  v072
 BYTE   W06
 BYTE   An4
 BYTE   W06
 BYTE   As4
 BYTE   W06
 BYTE   N17  Fn3  v096
 BYTE   N17  Cn4
 BYTE   N05  Fn5  v072
 BYTE   W06
 BYTE   An4
 BYTE   W06
 BYTE   As4
 BYTE   W06
 BYTE   N22  As3  v096
 BYTE   N05  Fn5  v072
 BYTE   W06
 BYTE   An4
 BYTE   W06
 BYTE   As4
 BYTE   W06
 BYTE   Fn5
 BYTE   W06
 BYTE   An4
 BYTE   W06
 BYTE   N11  Gn3  v096
 BYTE   N05  As4  v072
 BYTE   W06
 BYTE   Fn5
 BYTE   W06
 BYTE   PEND 
//  #09 //014   ----------------------------------------
Label_0110F654:
 BYTE   N17  Gn3  v096
 BYTE   N17  As3
 BYTE   W06
 BYTE   N05  An4  v072
 BYTE   W06
 BYTE   As4
 BYTE   W06
 BYTE   N17  Fn4  v096
 BYTE   N05  Fn5  v072
 BYTE   W06
 BYTE   An4
 BYTE   W06
 BYTE   As4
 BYTE   W06
 BYTE   N17  Fn3  v096
 BYTE   N17  Cn4
 BYTE   N05  Fn5  v072
 BYTE   W06
 BYTE   An4
 BYTE   W06
 BYTE   As4
 BYTE   W06
 BYTE   N22  Dn4  v096
 BYTE   N05  Fn5  v072
 BYTE   W06
 BYTE   An4
 BYTE   W06
 BYTE   As4
 BYTE   W06
 BYTE   Fn5
 BYTE   W06
 BYTE   An4
 BYTE   W06
 BYTE   N11  As3  v096
 BYTE   N05  As4  v072
 BYTE   W06
 BYTE   Fn5
 BYTE   W06
 BYTE   PEND 
//  #09 //015   ----------------------------------------
Label_0110F691:
 BYTE   N17  Fn4  v096
 BYTE   W06
 BYTE   N05  As3  v088
 BYTE   W06
 BYTE   Gn3
 BYTE   W06
 BYTE   N17  Ds4  v096
 BYTE   W06
 BYTE   N05  As3  v088
 BYTE   W06
 BYTE   Gn3
 BYTE   W06
 BYTE   N17  Dn4  v096
 BYTE   W06
 BYTE   N05  An3  v088
 BYTE   W06
 BYTE   Fs3
 BYTE   W06
 BYTE   N22  Cn4  v096
 BYTE   W30
 BYTE   N11  An3
 BYTE   W12
 BYTE   PEND 
//  #09 //016   ----------------------------------------
 BYTE   PATT
  POIN2 Label_0110F5DA
//  #09 //017   ----------------------------------------
 BYTE   PATT
  POIN2 Label_0110F617
//  #09 //018   ----------------------------------------
Label_0110F6C1:
 BYTE   N17  Gn3  v096
 BYTE   N17  As3
 BYTE   W06
 BYTE   N05  An4  v072
 BYTE   W06
 BYTE   As4
 BYTE   W06
 BYTE   N17  Fn4  v096
 BYTE   N05  Fn5  v072
 BYTE   W06
 BYTE   An4
 BYTE   W06
 BYTE   As4
 BYTE   W06
 BYTE   N17  Fn3  v096
 BYTE   N17  Cn4
 BYTE   N05  Fn5  v072
 BYTE   W06
 BYTE   An4
 BYTE   W06
 BYTE   As4
 BYTE   W06
 BYTE   N22  Dn4  v096
 BYTE   N05  Fn5  v072
 BYTE   W06
 BYTE   An4
 BYTE   W06
 BYTE   As4
 BYTE   W06
 BYTE   Fn5
 BYTE   W06
 BYTE   An4
 BYTE   W06
 BYTE   N11  Dn4  v096
 BYTE   N05  As4  v072
 BYTE   W06
 BYTE   Fn5
 BYTE   W06
 BYTE   PEND 
//  #09 //019   ----------------------------------------
Label_0110F6FE:
 BYTE   N17  As4  v096
 BYTE   W06
 BYTE   N05  Dn4  v068
 BYTE   W06
 BYTE   Cn4
 BYTE   W06
 BYTE   N17  As4  v096
 BYTE   W06
 BYTE   N05  Cn4  v068
 BYTE   W06
 BYTE   An3
 BYTE   W06
 BYTE   N17  An4  v096
 BYTE   W06
 BYTE   N05  Dn4  v068
 BYTE   W06
 BYTE   An3
 BYTE   W06
 BYTE   Gn3
 BYTE   N17  Gn4  v096
 BYTE   W18
 BYTE   N05  An4
 BYTE   W06
 BYTE   As4
 BYTE   W06
 BYTE   N11  Cn5
 BYTE   W12
 BYTE   PEND 
//  #09 //020   ----------------------------------------
Label_0110F72A:
 BYTE   N17  Ds4  v096
 BYTE   N17  Dn5
 BYTE   W18
 BYTE   Gn4
 BYTE   W18
 BYTE   Ds4
 BYTE   N17  Gn4
 BYTE   N17  An4
 BYTE   N17  Dn5
 BYTE   W18
 BYTE   Gn4
 BYTE   W18
 BYTE   N05  Dn5
 BYTE   W06
 BYTE   Ds5
 BYTE   W06
 BYTE   N11  Dn5
 BYTE   W12
 BYTE   PEND 
//  #09 //021   ----------------------------------------
Label_0110F745:
 BYTE   N17  Cn4  v096
 BYTE   N17  Cn5
 BYTE   W18
 BYTE   Fn4
 BYTE   W18
 BYTE   Gn4
 BYTE   N17  Cn5
 BYTE   W18
 BYTE   As4
 BYTE   W18
 BYTE   N05  An4
 BYTE   W06
 BYTE   As4
 BYTE   W06
 BYTE   N11  Cn5
 BYTE   W12
 BYTE   PEND 
//  #09 //022   ----------------------------------------
Label_0110F75C:
 BYTE   N17  Ds4  v096
 BYTE   N17  Dn5
 BYTE   W18
 BYTE   Gn4
 BYTE   W18
 BYTE   Ds4
 BYTE   N17  Gn4
 BYTE   N17  An4
 BYTE   N17  Dn5
 BYTE   W18
 BYTE   Fn4
 BYTE   W18
 BYTE   N05  Dn5
 BYTE   W06
 BYTE   Ds5
 BYTE   W06
 BYTE   N11  Dn5
 BYTE   W12
 BYTE   PEND 
//  #09 //023   ----------------------------------------
Label_0110F777:
 BYTE   N17  Dn4  v096
 BYTE   N17  Cn5
 BYTE   W18
 BYTE   Fn5
 BYTE   W18
 BYTE   Dn4
 BYTE   N17  Cn5
 BYTE   W18
 BYTE   As4
 BYTE   W18
 BYTE   N05  An4
 BYTE   W06
 BYTE   As4
 BYTE   W06
 BYTE   N11  Cn5
 BYTE   W12
 BYTE   PEND 
//  #09 //024   ----------------------------------------
Label_0110F78E:
 BYTE   N32  Ds3  v080
 BYTE   N17  Dn5  v096
 BYTE   W18
 BYTE   Gn4
 BYTE   W18
 BYTE   N32  Ds3  v080
 BYTE   N17  Dn5  v096
 BYTE   W18
 BYTE   Gn4
 BYTE   W18
 BYTE   N05  Dn5
 BYTE   W06
 BYTE   Ds5
 BYTE   W06
 BYTE   N11  Dn5
 BYTE   W12
 BYTE   PEND 
//  #09 //025   ----------------------------------------
Label_0110F7A9:
 BYTE   N17  Cn5  v096
 BYTE   W18
 BYTE   Fn4
 BYTE   W18
 BYTE   Cn5
 BYTE   W18
 BYTE   As4
 BYTE   W18
 BYTE   N05  An4
 BYTE   W06
 BYTE   As4
 BYTE   W06
 BYTE   N11  Cn5
 BYTE   W12
 BYTE   PEND 
//  #09 //026   ----------------------------------------
Label_0110F7BC:
 BYTE   N17  Dn5  v096
 BYTE   W18
 BYTE   Gn4
 BYTE   W18
 BYTE   Dn5
 BYTE   W18
 BYTE   Fs4
 BYTE   W18
 BYTE   N05  Dn5
 BYTE   W06
 BYTE   Ds5
 BYTE   W06
 BYTE   N11  Dn5
 BYTE   W12
 BYTE   PEND 
//  #09 //027   ----------------------------------------
Label_0110F7CF:
 BYTE   N17  Cn5  v096
 BYTE   W18
 BYTE   Fn5
 BYTE   W18
 BYTE   Cn5
 BYTE   W18
 BYTE   As4
 BYTE   W42
 BYTE   PEND 
//  #09 //028   ----------------------------------------
Label_0110F7DA:
 BYTE   N02  An2  v096
 BYTE   W02
 BYTE   N20  An3
 BYTE   W22
 BYTE   N22  Cn3
 BYTE   W24
 BYTE   An2
 BYTE   W24
 BYTE   As2
 BYTE   W24
 BYTE   PEND 
//  #09 //029   ----------------------------------------
Label_0110F7E9:
 BYTE   N22  Fn3  v096
 BYTE   W24
 BYTE   Cn3
 BYTE   W24
 BYTE   Dn3
 BYTE   W24
 BYTE   An3
 BYTE   W24
 BYTE   PEND 
//  #09 //030   ----------------------------------------
Label_0110F7F4:
 BYTE   N22  Fn3  v096
 BYTE   W48
 BYTE   N05  Fn4  v080
 BYTE   W06
 BYTE   As3
 BYTE   W06
 BYTE   An3
 BYTE   W06
 BYTE   Cn4
 BYTE   W06
 BYTE   Fn3
 BYTE   W24
 BYTE   PEND 
//  #09 //031   ----------------------------------------
 BYTE   W96
//  #09 //032   ----------------------------------------
Label_0110F806:
 BYTE   N22  Fn3  v096
 BYTE   W24
 BYTE   Cn3
 BYTE   W24
 BYTE   Gs2
 BYTE   W24
 BYTE   As2
 BYTE   W24
 BYTE   PEND 
//  #09 //033   ----------------------------------------
Label_0110F811:
 BYTE   N22  Ds3  v096
 BYTE   W24
 BYTE   As2
 BYTE   W24
 BYTE   Cn3
 BYTE   W24
 BYTE   Gn3
 BYTE   W24
 BYTE   PEND 
//  #09 //034   ----------------------------------------
Label_0110F81C:
 BYTE   N22  Ds3  v096
 BYTE   W54
 BYTE   N05  Gs3  v088
 BYTE   W06
 BYTE   Gn3
 BYTE   W06
 BYTE   Gs3
 BYTE   W12
 BYTE   N05
 BYTE   W06
 BYTE   Ds4
 BYTE   W12
 BYTE   PEND 
//  #09 //035   ----------------------------------------
 BYTE   W96
//  #09 //036   ----------------------------------------
Label_0110F82E:
 BYTE   N22  Ds3  v096
 BYTE   W24
 BYTE   N22
 BYTE   W24
 BYTE   As2
 BYTE   W24
 BYTE   Bn2
 BYTE   W24
 BYTE   PEND 
//  #09 //037   ----------------------------------------
Label_0110F839:
 BYTE   N22  Fs3  v096
 BYTE   W24
 BYTE   Cs3
 BYTE   W24
 BYTE   Ds3
 BYTE   W24
 BYTE   As3
 BYTE   W24
 BYTE   PEND 
//  #09 //038   ----------------------------------------
Label_0110F844:
 BYTE   N22  Fs3  v096
 BYTE   W48
 BYTE   N05  Cs4  v080
 BYTE   W06
 BYTE   Gs3
 BYTE   W06
 BYTE   Fs3
 BYTE   W06
 BYTE   Gs3
 BYTE   W06
 BYTE   N22  Cs3
 BYTE   W24
 BYTE   PEND 
//  #09 //039   ----------------------------------------
 BYTE   W96
//  #09 //040   ----------------------------------------
Label_0110F857:
 BYTE   W24
 BYTE   N22  Dn3  v096
 BYTE   W24
 BYTE   Cn3
 BYTE   W24
 BYTE   Gn3
 BYTE   W24
 BYTE   PEND 
//  #09 //041   ----------------------------------------
Label_0110F861:
 BYTE   N44  Dn3  v100
 BYTE   W48
 BYTE   N22  Cn3  v108
 BYTE   W24
 BYTE   An3
 BYTE   W24
 BYTE   PEND 
//  #09 //042   ----------------------------------------
Label_0110F86C:
 BYTE   N22  Dn3  v108
 BYTE   W54
 BYTE   N05  Cn3  v072
 BYTE   W06
 BYTE   Dn3
 BYTE   W06
 BYTE   Gn3
 BYTE   W06
 BYTE   An3  v076
 BYTE   W06
 BYTE   Dn4  v080
 BYTE   W06
 BYTE   Gn4  v084
 BYTE   W06
 BYTE   An4
 BYTE   W06
 BYTE   PEND 
//  #09 //043   ----------------------------------------
Label_0110F884:
 BYTE   N02  Gn4  v080
 BYTE   W02
 BYTE   N88  An4
 BYTE   N88  Dn5
 BYTE   W92
 BYTE   W02
 BYTE   PEND 
//  #09 //044   ----------------------------------------
Label_0110F88F:
 BYTE   N05  Gn2  v080
 BYTE   W06
 BYTE   Dn3
 BYTE   W06
 BYTE   An3
 BYTE   W06
 BYTE   As3
 BYTE   W06
 BYTE   Cn4
 BYTE   W06
 BYTE   Fn4
 BYTE   W06
 BYTE   Fn2
 BYTE   W06
 BYTE   Dn3
 BYTE   W06
 BYTE   An3
 BYTE   W06
 BYTE   As3
 BYTE   W06
 BYTE   Cn4
 BYTE   W06
 BYTE   Fn4
 BYTE   W06
 BYTE   An4
 BYTE   W06
 BYTE   As4
 BYTE   W06
 BYTE   N11  Cn5
 BYTE   W12
 BYTE   PEND 
//  #09 //045   ----------------------------------------
Label_0110F8B1:
 BYTE   N05  Ds2  v080
 BYTE   W06
 BYTE   Ds3
 BYTE   W06
 BYTE   An3
 BYTE   W06
 BYTE   As3
 BYTE   W06
 BYTE   Cn4
 BYTE   W06
 BYTE   Fn4
 BYTE   W06
 BYTE   Dn2
 BYTE   W06
 BYTE   As2
 BYTE   W06
 BYTE   Dn3
 BYTE   W06
 BYTE   Fn3
 BYTE   W06
 BYTE   An3
 BYTE   W06
 BYTE   As3
 BYTE   W06
 BYTE   Cn4
 BYTE   W06
 BYTE   Fn4
 BYTE   W06
 BYTE   N11  As4
 BYTE   W12
 BYTE   PEND 
//  #09 //046   ----------------------------------------
Label_0110F8D3:
 BYTE   N05  Cn2  v080
 BYTE   W06
 BYTE   As2
 BYTE   W06
 BYTE   Ds3
 BYTE   W06
 BYTE   Fn3
 BYTE   W06
 BYTE   As3
 BYTE   W06
 BYTE   Fn4
 BYTE   W06
 BYTE   Dn2
 BYTE   W06
 BYTE   As2
 BYTE   W06
 BYTE   Fn3
 BYTE   W06
 BYTE   As3
 BYTE   W06
 BYTE   Cn4
 BYTE   W06
 BYTE   Fn4
 BYTE   W06
 BYTE   An4
 BYTE   W06
 BYTE   As4
 BYTE   W06
 BYTE   Cn5
 BYTE   W12
 BYTE   PEND 
//  #09 //047   ----------------------------------------
Label_0110F8F4:
 BYTE   N05  Ds2  v080
 BYTE   W06
 BYTE   Ds3
 BYTE   W06
 BYTE   As3
 BYTE   W06
 BYTE   Ds4
 BYTE   W06
 BYTE   As4
 BYTE   W12
 BYTE   Dn2
 BYTE   W06
 BYTE   Cn5
 BYTE   W06
 BYTE   An4
 BYTE   W06
 BYTE   Fs4
 BYTE   W06
 BYTE   Ds4
 BYTE   W06
 BYTE   Cn4
 BYTE   W06
 BYTE   Fs3
 BYTE   W06
 BYTE   Ds3
 BYTE   W06
 BYTE   Cn3
 BYTE   W06
 BYTE   An2
 BYTE   W06
 BYTE   PEND 
//  #09 //048   ----------------------------------------
Label_0110F915:
 BYTE   N17  As2  v096
 BYTE   N17  As3
 BYTE   W18
 BYTE   N17
 BYTE   N17  Cn4
 BYTE   N17  Fn4
 BYTE   W18
 BYTE   An4
 BYTE   N17  Cn5
 BYTE   W18
 BYTE   N05  Dn5
 BYTE   W06
 BYTE   An3  v080
 BYTE   W06
 BYTE   As3
 BYTE   W06
 BYTE   Fn4
 BYTE   W06
 BYTE   Cn4
 BYTE   W06
 BYTE   Dn4
 BYTE   W06
 BYTE   An4
 BYTE   W06
 BYTE   PEND 
//  #09 //049   ----------------------------------------
Label_0110F936:
 BYTE   N17  Gn4  v096
 BYTE   N17  As4
 BYTE   W18
 BYTE   As3
 BYTE   N17  Fn4
 BYTE   W18
 BYTE   Fn3  v080
 BYTE   N17  Fn4  v096
 BYTE   W18
 BYTE   N05  Fn3
 BYTE   N05  As3
 BYTE   W06
 BYTE   An2
 BYTE   W06
 BYTE   As2
 BYTE   W06
 BYTE   Fn3
 BYTE   W06
 BYTE   Cn3
 BYTE   W06
 BYTE   Dn3
 BYTE   W06
 BYTE   An3
 BYTE   W06
 BYTE   PEND 
//  #09 //050   ----------------------------------------
Label_0110F958:
 BYTE   N17  As3  v096
 BYTE   W18
 BYTE   N17
 BYTE   N17  Fn4
 BYTE   W18
 BYTE   N17
 BYTE   N17  An4
 BYTE   N17  Cn5
 BYTE   W18
 BYTE   N05  As4
 BYTE   N05  Dn5
 BYTE   W06
 BYTE   Cn4  v080
 BYTE   W06
 BYTE   Dn4
 BYTE   W06
 BYTE   Fn4
 BYTE   W06
 BYTE   Cn4
 BYTE   W06
 BYTE   Dn4
 BYTE   W06
 BYTE   An4
 BYTE   W06
 BYTE   PEND 
//  #09 //051   ----------------------------------------
Label_0110F979:
 BYTE   N17  Gn4  v096
 BYTE   N17  As4
 BYTE   W18
 BYTE   Fn3  v080
 BYTE   N17  As3  v096
 BYTE   W18
 BYTE   Gn3
 BYTE   N17  Cn4
 BYTE   W18
 BYTE   N22  Gn1
 BYTE   N05  As3
 BYTE   N05  Gn4
 BYTE   W42
 BYTE   PEND 
//  #09 //052   ----------------------------------------
 BYTE   W96
//  #09 //053   ----------------------------------------
 BYTE   W96
//  #09 //054   ----------------------------------------
 BYTE   W96
//  #09 //055   ----------------------------------------
 BYTE   W96
//  #09 //056   ----------------------------------------
 BYTE   W96
//  #09 //057   ----------------------------------------
 BYTE   W96
//  #09 //058   ----------------------------------------
 BYTE   W96
//  #09 //059   ----------------------------------------
 BYTE   W96
//  #09 //060   ----------------------------------------
Label_0110F999:
 BYTE   N17  Ds4  v096
 BYTE   N17  Gn4
 BYTE   N17  Dn5
 BYTE   W18
 BYTE   Gn4
 BYTE   W18
 BYTE   Fn4
 BYTE   N17  An4
 BYTE   N17  Dn5
 BYTE   W18
 BYTE   N36  Fn4
 BYTE   W42
 BYTE   PEND 
//  #09 //061   ----------------------------------------
 BYTE   PATT
  POIN2 Label_0110F4F5
//  #09 //062   ----------------------------------------
 BYTE   PATT
  POIN2 Label_0110F50A
//  #09 //063   ----------------------------------------
 BYTE   PATT
  POIN2 Label_0110F52C
//  #09 //064   ----------------------------------------
 BYTE   PATT
  POIN2 Label_0110F540
//  #09 //065   ----------------------------------------
 BYTE   PATT
  POIN2 Label_0110F563
//  #09 //066   ----------------------------------------
 BYTE   PATT
  POIN2 Label_0110F50A
//  #09 //067   ----------------------------------------
 BYTE   PATT
  POIN2 Label_0110F52C
//  #09 //068   ----------------------------------------
 BYTE   PATT
  POIN2 Label_0110F540
//  #09 //069   ----------------------------------------
 BYTE   PATT
  POIN2 Label_0110F563
//  #09 //070   ----------------------------------------
 BYTE   PATT
  POIN2 Label_0110F50A
//  #09 //071   ----------------------------------------
 BYTE   PATT
  POIN2 Label_0110F59A
//  #09 //072   ----------------------------------------
 BYTE   PATT
  POIN2 Label_0110F5B0
//  #09 //073   ----------------------------------------
 BYTE   PATT
  POIN2 Label_0110F5DA
//  #09 //074   ----------------------------------------
 BYTE   PATT
  POIN2 Label_0110F617
//  #09 //075   ----------------------------------------
 BYTE   PATT
  POIN2 Label_0110F654
//  #09 //076   ----------------------------------------
 BYTE   PATT
  POIN2 Label_0110F691
//  #09 //077   ----------------------------------------
 BYTE   PATT
  POIN2 Label_0110F5DA
//  #09 //078   ----------------------------------------
 BYTE   PATT
  POIN2 Label_0110F617
//  #09 //079   ----------------------------------------
 BYTE   PATT
  POIN2 Label_0110F6C1
//  #09 //080   ----------------------------------------
 BYTE   PATT
  POIN2 Label_0110F6FE
//  #09 //081   ----------------------------------------
 BYTE   PATT
  POIN2 Label_0110F72A
//  #09 //082   ----------------------------------------
 BYTE   PATT
  POIN2 Label_0110F745
//  #09 //083   ----------------------------------------
 BYTE   PATT
  POIN2 Label_0110F75C
//  #09 //084   ----------------------------------------
 BYTE   PATT
  POIN2 Label_0110F777
//  #09 //085   ----------------------------------------
 BYTE   PATT
  POIN2 Label_0110F78E
//  #09 //086   ----------------------------------------
 BYTE   PATT
  POIN2 Label_0110F7A9
//  #09 //087   ----------------------------------------
 BYTE   PATT
  POIN2 Label_0110F7BC
//  #09 //088   ----------------------------------------
 BYTE   PATT
  POIN2 Label_0110F7CF
//  #09 //089   ----------------------------------------
 BYTE   PATT
  POIN2 Label_0110F7DA
//  #09 //090   ----------------------------------------
 BYTE   PATT
  POIN2 Label_0110F7E9
//  #09 //091   ----------------------------------------
 BYTE   PATT
  POIN2 Label_0110F7F4
//  #09 //092   ----------------------------------------
 BYTE   W96
//  #09 //093   ----------------------------------------
 BYTE   PATT
  POIN2 Label_0110F806
//  #09 //094   ----------------------------------------
 BYTE   PATT
  POIN2 Label_0110F811
//  #09 //095   ----------------------------------------
 BYTE   PATT
  POIN2 Label_0110F81C
//  #09 //096   ----------------------------------------
 BYTE   W96
//  #09 //097   ----------------------------------------
 BYTE   PATT
  POIN2 Label_0110F82E
//  #09 //098   ----------------------------------------
 BYTE   PATT
  POIN2 Label_0110F839
//  #09 //099   ----------------------------------------
 BYTE   PATT
  POIN2 Label_0110F844
//  #09 //100   ----------------------------------------
 BYTE   W96
//  #09 //101   ----------------------------------------
 BYTE   PATT
  POIN2 Label_0110F857
//  #09 //102   ----------------------------------------
 BYTE   PATT
  POIN2 Label_0110F861
//  #09 //103   ----------------------------------------
 BYTE   PATT
  POIN2 Label_0110F86C
//  #09 //104   ----------------------------------------
 BYTE   PATT
  POIN2 Label_0110F884
//  #09 //105   ----------------------------------------
 BYTE   PATT
  POIN2 Label_0110F88F
//  #09 //106   ----------------------------------------
 BYTE   PATT
  POIN2 Label_0110F8B1
//  #09 //107   ----------------------------------------
 BYTE   PATT
  POIN2 Label_0110F8D3
//  #09 //108   ----------------------------------------
 BYTE   PATT
  POIN2 Label_0110F8F4
//  #09 //109   ----------------------------------------
 BYTE   PATT
  POIN2 Label_0110F915
//  #09 //110   ----------------------------------------
 BYTE   PATT
  POIN2 Label_0110F936
//  #09 //111   ----------------------------------------
 BYTE   PATT
  POIN2 Label_0110F958
//  #09 //112   ----------------------------------------
 BYTE   PATT
  POIN2 Label_0110F979
//  #09 //113   ----------------------------------------
 BYTE   W96
//  #09 //114   ----------------------------------------
 BYTE   W96
//  #09 //115   ----------------------------------------
 BYTE   W96
//  #09 //116   ----------------------------------------
 BYTE   W96
//  #09 //117   ----------------------------------------
 BYTE   W96
//  #09 //118   ----------------------------------------
 BYTE   W96
//  #09 //119   ----------------------------------------
 BYTE   W96
//  #09 //120   ----------------------------------------
 BYTE   W96
//  #09 //121   ----------------------------------------
 BYTE   PATT
  POIN2 Label_0110F999
//  #09 //122   ----------------------------------------
 BYTE   GoTo
  POIN2 Label_0110F4F5
 BYTE   FINE

//**************** Track 10 (Midi-Chn.9) ****************//

song06_010:
//  #10 //000   ----------------------------------------
 BYTE   KEYSH   song06_key+0
 BYTE   VOICE   73
 BYTE   VOL   62*song06_mvl/mxv
 BYTE   PAN   c_v+0
 BYTE   VOL   62*song06_mvl/mxv
 BYTE   PAN   c_v+0
 BYTE   W12
Label_0110FAC5:
 BYTE   N02  An3  v052
 BYTE   W02
 BYTE   N03  As3
 BYTE   W10
 BYTE   N02  An3  v040
 BYTE   W02
 BYTE   N03  As3
 BYTE   W10
 BYTE   N02  An3
 BYTE   W02
 BYTE   N03  As3  v032
 BYTE   W10
 BYTE   Gn3  v052
 BYTE   W12
 BYTE   N02  Fs3
 BYTE   W02
 BYTE   N03  Gn3  v040
 BYTE   W10
 BYTE   N02  Fs3
 BYTE   W02
 BYTE   N03  Gn3  v032
 BYTE   W10
 BYTE   N02  Fs3
 BYTE   W02
 BYTE   N03  Gn3  v028
 BYTE   W10
//  #10 //001   ----------------------------------------
 BYTE   N02  Fs3
 BYTE   W02
 BYTE   N03  Gn3  v020
 BYTE   W10
 BYTE   PEND 
Label_0110FAFA:
 BYTE   N03  Gn3  v040
 BYTE   W12
 BYTE   Gn3  v032
 BYTE   W12
 BYTE   Gn3  v028
 BYTE   W12
 BYTE   Fn3  v052
 BYTE   W12
 BYTE   Fn3  v040
 BYTE   W12
 BYTE   Fn3  v032
 BYTE   W12
 BYTE   Fn3  v028
 BYTE   W12
//  #10 //002   ----------------------------------------
 BYTE   N03
 BYTE   W12
 BYTE   PEND 
//  #10 //003   ----------------------------------------
 BYTE   PATT
  POIN2 Label_0110FAC5
//  #10 //004   ----------------------------------------
Label_0110FB18:
 BYTE   N02  Dn3  v052
 BYTE   W02
 BYTE   N03  Ds3  v040
 BYTE   W10
 BYTE   N02  Dn3
 BYTE   W02
 BYTE   N03  Ds3  v032
 BYTE   W10
 BYTE   N02  Dn3
 BYTE   W02
 BYTE   N03  Ds3  v028
 BYTE   W22
 BYTE   An3  v040
 BYTE   W12
 BYTE   An3  v032
 BYTE   W12
 BYTE   An3  v028
 BYTE   W12
 BYTE   An3  v020
 BYTE   W12
 BYTE   PEND 
//  #10 //005   ----------------------------------------
 BYTE   PATT
  POIN2 Label_0110FAC5
//  #10 //006   ----------------------------------------
 BYTE   PATT
  POIN2 Label_0110FAFA
//  #10 //007   ----------------------------------------
 BYTE   PATT
  POIN2 Label_0110FAC5
//  #10 //008   ----------------------------------------
 BYTE   PATT
  POIN2 Label_0110FB18
//  #10 //009   ----------------------------------------
 BYTE   PATT
  POIN2 Label_0110FAC5
//  #10 //010   ----------------------------------------
 BYTE   PATT
  POIN2 Label_0110FAFA
//  #10 //011   ----------------------------------------
 BYTE   PATT
  POIN2 Label_0110FAC5
//  #10 //012   ----------------------------------------
 BYTE   W96
//  #10 //013   ----------------------------------------
 BYTE   W96
//  #10 //014   ----------------------------------------
 BYTE   W96
//  #10 //015   ----------------------------------------
 BYTE   W96
//  #10 //016   ----------------------------------------
 BYTE   W96
//  #10 //017   ----------------------------------------
 BYTE   W96
//  #10 //018   ----------------------------------------
 BYTE   W96
//  #10 //019   ----------------------------------------
 BYTE   W96
//  #10 //020   ----------------------------------------
 BYTE   W96
//  #10 //021   ----------------------------------------
 BYTE   W96
//  #10 //022   ----------------------------------------
 BYTE   W96
//  #10 //023   ----------------------------------------
 BYTE   W96
//  #10 //024   ----------------------------------------
 BYTE   W96
//  #10 //025   ----------------------------------------
 BYTE   W96
//  #10 //026   ----------------------------------------
 BYTE   W96
//  #10 //027   ----------------------------------------
 BYTE   W96
//  #10 //028   ----------------------------------------
 BYTE   W96
//  #10 //029   ----------------------------------------
 BYTE   W96
//  #10 //030   ----------------------------------------
 BYTE   W96
//  #10 //031   ----------------------------------------
 BYTE   W96
//  #10 //032   ----------------------------------------
 BYTE   W96
//  #10 //033   ----------------------------------------
 BYTE   W96
//  #10 //034   ----------------------------------------
 BYTE   W96
//  #10 //035   ----------------------------------------
 BYTE   W96
//  #10 //036   ----------------------------------------
 BYTE   W96
//  #10 //037   ----------------------------------------
 BYTE   W96
//  #10 //038   ----------------------------------------
 BYTE   W96
//  #10 //039   ----------------------------------------
 BYTE   W96
//  #10 //040   ----------------------------------------
 BYTE   W96
//  #10 //041   ----------------------------------------
 BYTE   W96
//  #10 //042   ----------------------------------------
 BYTE   W96
//  #10 //043   ----------------------------------------
 BYTE   W96
//  #10 //044   ----------------------------------------
 BYTE   W96
//  #10 //045   ----------------------------------------
 BYTE   W96
//  #10 //046   ----------------------------------------
 BYTE   W96
//  #10 //047   ----------------------------------------
 BYTE   W96
//  #10 //048   ----------------------------------------
 BYTE   W96
//  #10 //049   ----------------------------------------
 BYTE   W96
//  #10 //050   ----------------------------------------
 BYTE   W96
//  #10 //051   ----------------------------------------
 BYTE   W96
//  #10 //052   ----------------------------------------
 BYTE   W96
//  #10 //053   ----------------------------------------
 BYTE   W96
//  #10 //054   ----------------------------------------
 BYTE   W96
//  #10 //055   ----------------------------------------
 BYTE   W96
//  #10 //056   ----------------------------------------
 BYTE   W96
//  #10 //057   ----------------------------------------
 BYTE   W96
//  #10 //058   ----------------------------------------
 BYTE   W96
//  #10 //059   ----------------------------------------
 BYTE   W96
//  #10 //060   ----------------------------------------
 BYTE   W96
//  #10 //061   ----------------------------------------
 BYTE   W96
//  #10 //062   ----------------------------------------
 BYTE   PATT
  POIN2 Label_0110FAC5
//  #10 //063   ----------------------------------------
 BYTE   PATT
  POIN2 Label_0110FAFA
//  #10 //064   ----------------------------------------
 BYTE   PATT
  POIN2 Label_0110FAC5
//  #10 //065   ----------------------------------------
 BYTE   PATT
  POIN2 Label_0110FB18
//  #10 //066   ----------------------------------------
 BYTE   PATT
  POIN2 Label_0110FAC5
//  #10 //067   ----------------------------------------
 BYTE   PATT
  POIN2 Label_0110FAFA
//  #10 //068   ----------------------------------------
 BYTE   PATT
  POIN2 Label_0110FAC5
//  #10 //069   ----------------------------------------
 BYTE   PATT
  POIN2 Label_0110FB18
//  #10 //070   ----------------------------------------
 BYTE   PATT
  POIN2 Label_0110FAC5
//  #10 //071   ----------------------------------------
 BYTE   PATT
  POIN2 Label_0110FAFA
//  #10 //072   ----------------------------------------
 BYTE   PATT
  POIN2 Label_0110FAC5
//  #10 //073   ----------------------------------------
 BYTE   W96
//  #10 //074   ----------------------------------------
 BYTE   W96
//  #10 //075   ----------------------------------------
 BYTE   W96
//  #10 //076   ----------------------------------------
 BYTE   W96
//  #10 //077   ----------------------------------------
 BYTE   W96
//  #10 //078   ----------------------------------------
 BYTE   W96
//  #10 //079   ----------------------------------------
 BYTE   W96
//  #10 //080   ----------------------------------------
 BYTE   W96
//  #10 //081   ----------------------------------------
 BYTE   W96
//  #10 //082   ----------------------------------------
 BYTE   W96
//  #10 //083   ----------------------------------------
 BYTE   W96
//  #10 //084   ----------------------------------------
 BYTE   W96
//  #10 //085   ----------------------------------------
 BYTE   W96
//  #10 //086   ----------------------------------------
 BYTE   W96
//  #10 //087   ----------------------------------------
 BYTE   W96
//  #10 //088   ----------------------------------------
 BYTE   W96
//  #10 //089   ----------------------------------------
 BYTE   W96
//  #10 //090   ----------------------------------------
 BYTE   W96
//  #10 //091   ----------------------------------------
 BYTE   W96
//  #10 //092   ----------------------------------------
 BYTE   W96
//  #10 //093   ----------------------------------------
 BYTE   W96
//  #10 //094   ----------------------------------------
 BYTE   W96
//  #10 //095   ----------------------------------------
 BYTE   W96
//  #10 //096   ----------------------------------------
 BYTE   W96
//  #10 //097   ----------------------------------------
 BYTE   W96
//  #10 //098   ----------------------------------------
 BYTE   W96
//  #10 //099   ----------------------------------------
 BYTE   W96
//  #10 //100   ----------------------------------------
 BYTE   W96
//  #10 //101   ----------------------------------------
 BYTE   W96
//  #10 //102   ----------------------------------------
 BYTE   W96
//  #10 //103   ----------------------------------------
 BYTE   W96
//  #10 //104   ----------------------------------------
 BYTE   W96
//  #10 //105   ----------------------------------------
 BYTE   W96
//  #10 //106   ----------------------------------------
 BYTE   W96
//  #10 //107   ----------------------------------------
 BYTE   W96
//  #10 //108   ----------------------------------------
 BYTE   W96
//  #10 //109   ----------------------------------------
 BYTE   W96
//  #10 //110   ----------------------------------------
 BYTE   W96
//  #10 //111   ----------------------------------------
 BYTE   W96
//  #10 //112   ----------------------------------------
 BYTE   W96
//  #10 //113   ----------------------------------------
 BYTE   W96
//  #10 //114   ----------------------------------------
 BYTE   W96
//  #10 //115   ----------------------------------------
 BYTE   W96
//  #10 //116   ----------------------------------------
 BYTE   W96
//  #10 //117   ----------------------------------------
 BYTE   W96
//  #10 //118   ----------------------------------------
 BYTE   W96
//  #10 //119   ----------------------------------------
 BYTE   W96
//  #10 //120   ----------------------------------------
 BYTE   W96
//  #10 //121   ----------------------------------------
 BYTE   W96
//  #10 //122   ----------------------------------------
 BYTE   W96
//  #10 //123   ----------------------------------------
 BYTE   GoTo
  POIN2 Label_0110FAC5
 BYTE   FINE

//******************************************************//
	ALIGN 4

song06:
	BYTE	10	// NumTrks
	BYTE	0	// NumBlks
	BYTE	song06_pri	// Priority
	BYTE	song06_rev	// Reverb.
    
	POIN2	song06_grp
    
	POIN2	song06_001
	POIN2	song06_002
	POIN2	song06_003
	POIN2	song06_004
	POIN2	song06_005
	POIN2	song06_006
	POIN2	song06_007
	POIN2	song06_008
	POIN2	song06_009
	POIN2	song06_010

	
