//Event file generated from Sappy .s format.
	#include "MPlayDef.event"

	#define	FinalCastle_grp  voicegroup000
	#define	FinalCastle_pri  0
	#define	FinalCastle_rev  0
	#define	FinalCastle_mvl  127
	#define	FinalCastle_key  0
	#define	FinalCastle_tbs  1
	#define	FinalCastle_exg  0
	#define	FinalCastle_cmp  1

	// .rodata
	//	FinalCastle
	ALIGN 4


//**************** Track 1 (Midi-Chn.0) ****************//

FinalCastle_001:
//  #01 //000   ----------------------------------------
 BYTE   VOL   55*FinalCastle_mvl/mxv
 BYTE   KEYSH   FinalCastle_key+0
Label_0100382C:
 BYTE   TEMPO   116*FinalCastle_tbs/2
 BYTE   VOICE   109
 BYTE   N92  Gn1  v024
 BYTE   N92  Gn2
 BYTE   N92  Fn3  v028
 BYTE   N92  Cn4
 BYTE   W96
//  #01 //001   ----------------------------------------
 BYTE   Fn1  v024
 BYTE   N92  Fn2
 BYTE   N92  En3  v028
 BYTE   N92  Bn3
 BYTE   W96
//  #01 //002   ----------------------------------------
 BYTE   TIE  En1  v024
 BYTE   TIE  En2
 BYTE   TIE  Ds3  v028
 BYTE   TIE  As3
 BYTE   W96
//  #01 //003   ----------------------------------------
 BYTE   W88
 BYTE   W01
 BYTE   EOT
 BYTE   En1  v052
 BYTE   Ds3  v070
 BYTE   W07
//  #01 //004   ----------------------------------------
 BYTE   N92  Fn1  v024
 BYTE   N92  Fn2
 BYTE   N92  Ds3  v028
 BYTE   N92  As3
 BYTE   W96
//  #01 //005   ----------------------------------------
 BYTE   Ds1  v024
 BYTE   N92  Ds2
 BYTE   N92  Dn3  v028
 BYTE   N92  An3
 BYTE   W96
//  #01 //006   ----------------------------------------
 BYTE   TIE  Dn1  v024
 BYTE   TIE  Dn2
 BYTE   TIE  Cs3  v028
 BYTE   TIE  Gs3
 BYTE   W96
//  #01 //007   ----------------------------------------
 BYTE   W88
 BYTE   W01
 BYTE   EOT
 BYTE   Dn1  v050
 BYTE   Cs3  v068
 BYTE   W07
//  #01 //008   ----------------------------------------
 BYTE   N92  Cs1
 BYTE   N92  Cs2
 BYTE   W96
//  #01 //009   ----------------------------------------
 BYTE   Cn1
 BYTE   N92  Cn2
 BYTE   W96
//  #01 //010   ----------------------------------------
 BYTE   Cs1
 BYTE   N92  Cs2
 BYTE   W96
//  #01 //011   ----------------------------------------
 BYTE   En1
 BYTE   N92  En2
 BYTE   W96
//  #01 //012   ----------------------------------------
 BYTE   As0
 BYTE   N92  As1
 BYTE   W96
//  #01 //013   ----------------------------------------
 BYTE   Bn0
 BYTE   N92  Bn1
 BYTE   W96
//  #01 //014   ----------------------------------------
 BYTE   Dn1
 BYTE   N92  Dn2
 BYTE   W96
//  #01 //015   ----------------------------------------
 BYTE   Cs1
 BYTE   N92  Cs2
 BYTE   W96
//  #01 //016   ----------------------------------------
 BYTE   Gn0
 BYTE   N92  Gn1
 BYTE   W96
//  #01 //017   ----------------------------------------
 BYTE   Gs0
 BYTE   N92  Gs1
 BYTE   W96
//  #01 //018   ----------------------------------------
 BYTE   Bn0
 BYTE   N92  Bn1
 BYTE   W96
//  #01 //019   ----------------------------------------
 BYTE   As0
 BYTE   N92  As1
 BYTE   W96
//  #01 //020   ----------------------------------------
 BYTE   Fn0
 BYTE   N92  Fn1
 BYTE   W96
//  #01 //021   ----------------------------------------
 BYTE   Fs0
 BYTE   N92  Fs1
 BYTE   W96
//  #01 //022   ----------------------------------------
 BYTE   TIE  Dn0
 BYTE   TIE  Dn1
 BYTE   W96
//  #01 //023   ----------------------------------------
 BYTE   W92
 BYTE   W03
 BYTE   EOT
 BYTE   Dn0  v038
 BYTE   W01
//  #01 //024   ----------------------------------------
 BYTE   N92  Gn0  v024
 BYTE   N92  Gn1
 BYTE   N92  Fn2  v028
 BYTE   N92  Cn3
 BYTE   W96
//  #01 //025   ----------------------------------------
 BYTE   Fn0  v024
 BYTE   N92  Fn1
 BYTE   N92  En2  v028
 BYTE   N92  Bn2
 BYTE   W96
//  #01 //026   ----------------------------------------
 BYTE   An0  v024
 BYTE   N92  An1
 BYTE   N92  Gn2  v028
 BYTE   N92  Dn3
 BYTE   W96
//  #01 //027   ----------------------------------------
 BYTE   Gn0  v024
 BYTE   N92  Gn1
 BYTE   N92  Fs2  v028
 BYTE   N92  Cs3
 BYTE   W96
//  #01 //028   ----------------------------------------
 BYTE   TIE  Cn1  v024
 BYTE   TIE  Cn2
 BYTE   TIE  As2  v028
 BYTE   N92  Fn3
 BYTE   W96
//  #01 //029   ----------------------------------------
 BYTE   TIE
 BYTE   W44
 BYTE   W03
 BYTE   EOT
 BYTE   Cn2
 BYTE   W01
 BYTE   N92  Cn2  v024
 BYTE   W23
 BYTE   EOT
 BYTE   As2
 BYTE   W01
 BYTE   TIE  As2  v028
 BYTE   W24
//  #01 //030   ----------------------------------------
 BYTE   W23
 BYTE   EOT
 BYTE   Cn1
 BYTE   W01
 BYTE   TIE  Cn1  v024
 BYTE   W24
 BYTE   Cn2
 BYTE   W44
 BYTE   W03
 BYTE   EOT
 BYTE   Fn3
 BYTE   W01
//  #01 //031   ----------------------------------------
 BYTE   N88  Fn3  v028
 BYTE   W88
 BYTE   W01
 BYTE   EOT
 BYTE   Cn1  v048
 BYTE   As2
 BYTE   W07
//  #01 //032   ----------------------------------------
 BYTE   GoTo
  POIN2 Label_0100382C
//  #01 //033   ----------------------------------------
 BYTE   W01
 BYTE   FINE

//**************** Track 2 (Midi-Chn.1) ****************//

FinalCastle_002:
//  #02 //000   ----------------------------------------
 BYTE   VOL   55*FinalCastle_mvl/mxv
 BYTE   KEYSH   FinalCastle_key+0
Label_0100392C:
 BYTE   VOICE   85
 BYTE   W96
//  #02 //001   ----------------------------------------
 BYTE   W96
//  #02 //002   ----------------------------------------
 BYTE   W96
//  #02 //003   ----------------------------------------
 BYTE   W96
//  #02 //004   ----------------------------------------
 BYTE   W96
//  #02 //005   ----------------------------------------
 BYTE   W96
//  #02 //006   ----------------------------------------
 BYTE   W96
//  #02 //007   ----------------------------------------
 BYTE   W96
//  #02 //008   ----------------------------------------
 BYTE   W96
//  #02 //009   ----------------------------------------
 BYTE   W96
//  #02 //010   ----------------------------------------
 BYTE   W96
//  #02 //011   ----------------------------------------
 BYTE   W96
//  #02 //012   ----------------------------------------
 BYTE   W96
//  #02 //013   ----------------------------------------
 BYTE   W96
//  #02 //014   ----------------------------------------
 BYTE   W96
//  #02 //015   ----------------------------------------
 BYTE   W96
//  #02 //016   ----------------------------------------
 BYTE   TIE  Fn2  v024
 BYTE   TIE  Cn3
 BYTE   W96
//  #02 //017   ----------------------------------------
 BYTE   W92
 BYTE   W03
 BYTE   EOT
 BYTE   Fn2  v060
 BYTE   W01
//  #02 //018   ----------------------------------------
 BYTE   TIE  Fn2
 BYTE   N92  Bn2
 BYTE   W96
//  #02 //019   ----------------------------------------
 BYTE   As2
 BYTE   W92
 BYTE   W03
 BYTE   EOT
 BYTE   Fn2
 BYTE   W01
//  #02 //020   ----------------------------------------
 BYTE   TIE  Ds2
 BYTE   TIE  As2
 BYTE   W96
//  #02 //021   ----------------------------------------
 BYTE   W92
 BYTE   W03
 BYTE   EOT
 BYTE   Ds2  v058
 BYTE   W01
//  #02 //022   ----------------------------------------
 BYTE   TIE  Dn2
 BYTE   N92  An2
 BYTE   W96
//  #02 //023   ----------------------------------------
 BYTE   Gs2
 BYTE   W92
 BYTE   W03
 BYTE   EOT
 BYTE   Dn2
 BYTE   W01
//  #02 //024   ----------------------------------------
 BYTE   W96
//  #02 //025   ----------------------------------------
 BYTE   W96
//  #02 //026   ----------------------------------------
 BYTE   W96
//  #02 //027   ----------------------------------------
 BYTE   W96
//  #02 //028   ----------------------------------------
 BYTE   W96
//  #02 //029   ----------------------------------------
 BYTE   W96
//  #02 //030   ----------------------------------------
 BYTE   W96
//  #02 //031   ----------------------------------------
 BYTE   W96
//  #02 //032   ----------------------------------------
 BYTE   GoTo
  POIN2 Label_0100392C
//  #02 //033   ----------------------------------------
 BYTE   W01
 BYTE   FINE

//**************** Track 3 (Midi-Chn.2) ****************//

FinalCastle_003:
//  #03 //000   ----------------------------------------
 BYTE   VOL   55*FinalCastle_mvl/mxv
 BYTE   KEYSH   FinalCastle_key+0
Label_01003980:
 BYTE   VOICE   19
 BYTE   W96
//  #03 //001   ----------------------------------------
 BYTE   W96
//  #03 //002   ----------------------------------------
 BYTE   W96
//  #03 //003   ----------------------------------------
 BYTE   W96
//  #03 //004   ----------------------------------------
 BYTE   N92  Fn1  v016
 BYTE   N92  Ds2
 BYTE   N92  As2
 BYTE   W96
//  #03 //005   ----------------------------------------
 BYTE   Ds1
 BYTE   N92  Dn2
 BYTE   N92  An2
 BYTE   W96
//  #03 //006   ----------------------------------------
 BYTE   TIE  Dn1
 BYTE   TIE  Cs2
 BYTE   TIE  Gs2
 BYTE   W96
//  #03 //007   ----------------------------------------
 BYTE   W88
 BYTE   W01
 BYTE   EOT
 BYTE   Dn1  v049
 BYTE   Gs2
 BYTE   W07
//  #03 //008   ----------------------------------------
 BYTE   N92  Fn1
 BYTE   N92  Cn2
 BYTE   W96
//  #03 //009   ----------------------------------------
 BYTE   Fs1
 BYTE   N92  Cs2
 BYTE   W96
//  #03 //010   ----------------------------------------
 BYTE   Fn1
 BYTE   N92  Cn2
 BYTE   W96
//  #03 //011   ----------------------------------------
 BYTE   En1
 BYTE   N92  Bn1
 BYTE   W96
//  #03 //012   ----------------------------------------
 BYTE   Fn1
 BYTE   N92  Cn2
 BYTE   W96
//  #03 //013   ----------------------------------------
 BYTE   Fs1
 BYTE   N92  Cs2
 BYTE   W96
//  #03 //014   ----------------------------------------
 BYTE   Fn1
 BYTE   N92  Cn2
 BYTE   W96
//  #03 //015   ----------------------------------------
 BYTE   En1
 BYTE   N92  Bn1
 BYTE   W96
//  #03 //016   ----------------------------------------
 BYTE   Gn1  v020
 BYTE   W96
//  #03 //017   ----------------------------------------
 BYTE   Gs1
 BYTE   W96
//  #03 //018   ----------------------------------------
 BYTE   Bn1
 BYTE   W96
//  #03 //019   ----------------------------------------
 BYTE   As1
 BYTE   W96
//  #03 //020   ----------------------------------------
 BYTE   Fn1
 BYTE   W96
//  #03 //021   ----------------------------------------
 BYTE   Fs1
 BYTE   W96
//  #03 //022   ----------------------------------------
 BYTE   TIE  Dn1
 BYTE   W96
//  #03 //023   ----------------------------------------
 BYTE   W92
 BYTE   W03
 BYTE   EOT
 BYTE   W01
//  #03 //024   ----------------------------------------
 BYTE   W96
//  #03 //025   ----------------------------------------
 BYTE   W96
//  #03 //026   ----------------------------------------
 BYTE   W96
//  #03 //027   ----------------------------------------
 BYTE   W96
//  #03 //028   ----------------------------------------
 BYTE   W96
//  #03 //029   ----------------------------------------
 BYTE   W96
//  #03 //030   ----------------------------------------
 BYTE   W96
//  #03 //031   ----------------------------------------
 BYTE   W96
//  #03 //032   ----------------------------------------
 BYTE   GoTo
  POIN2 Label_01003980
//  #03 //033   ----------------------------------------
 BYTE   W01
 BYTE   FINE

//**************** Track 4 (Midi-Chn.3) ****************//

FinalCastle_004:
//  #04 //000   ----------------------------------------
 BYTE   VOL   55*FinalCastle_mvl/mxv
 BYTE   KEYSH   FinalCastle_key+0
Label_01003318:
 BYTE   VOICE   100
 BYTE   W96
//  #04 //001   ----------------------------------------
 BYTE   W96
//  #04 //002   ----------------------------------------
 BYTE   W96
//  #04 //003   ----------------------------------------
 BYTE   W96
//  #04 //004   ----------------------------------------
 BYTE   W96
//  #04 //005   ----------------------------------------
 BYTE   W96
//  #04 //006   ----------------------------------------
 BYTE   W96
//  #04 //007   ----------------------------------------
 BYTE   W96
//  #04 //008   ----------------------------------------
Label_01003322:
 BYTE   N07  Bn3  v016
 BYTE   W18
 BYTE   Bn3  v012
 BYTE   W06
 BYTE   En3  v016
 BYTE   W18
 BYTE   En3  v012
 BYTE   W06
 BYTE   Bn3  v020
 BYTE   W18
 BYTE   Bn3  v016
 BYTE   W06
 BYTE   En3  v020
 BYTE   W18
 BYTE   En3  v016
 BYTE   W06
 BYTE   PEND
//  #04 //009   ----------------------------------------
Label_0100333C:
 BYTE   N07  Bn3  v024
 BYTE   W18
 BYTE   Bn3  v020
 BYTE   W06
 BYTE   En3  v024
 BYTE   W18
 BYTE   En3  v020
 BYTE   W06
 BYTE   Bn3  v028
 BYTE   W18
 BYTE   Bn3  v024
 BYTE   W06
 BYTE   En3  v028
 BYTE   W18
 BYTE   En3  v024
 BYTE   W06
 BYTE   PEND
//  #04 //010   ----------------------------------------
Label_01003356:
 BYTE   N07  Bn3  v032
 BYTE   W18
 BYTE   Bn3  v028
 BYTE   W06
 BYTE   En3  v032
 BYTE   W18
 BYTE   En3  v028
 BYTE   W06
 BYTE   Bn3  v032
 BYTE   W18
 BYTE   Bn3  v028
 BYTE   W06
 BYTE   En3
 BYTE   W18
 BYTE   En3  v024
 BYTE   W06
 BYTE   PEND
//  #04 //011   ----------------------------------------
 BYTE   Bn3  v028
 BYTE   W18
 BYTE   Bn3  v024
 BYTE   W06
 BYTE   En3
 BYTE   W18
 BYTE   En3  v020
 BYTE   W06
 BYTE   Bn3  v024
 BYTE   W18
 BYTE   Bn3  v020
 BYTE   W06
 BYTE   En3
 BYTE   W18
 BYTE   En3  v016
 BYTE   W06
//  #04 //012   ----------------------------------------
 BYTE   PATT
  POIN2 Label_01003322
//  #04 //013   ----------------------------------------
 BYTE   PATT
  POIN2 Label_0100333C
//  #04 //014   ----------------------------------------
 BYTE   PATT
  POIN2 Label_01003356
//  #04 //015   ----------------------------------------
 BYTE   N07  Bn3  v028
 BYTE   W18
 BYTE   Bn3  v024
 BYTE   W06
 BYTE   En3
 BYTE   W18
 BYTE   En3  v020
 BYTE   W06
 BYTE   Bn3  v024
 BYTE   W18
 BYTE   Bn3  v020
 BYTE   W06
 BYTE   En3
 BYTE   W18
 BYTE   N08  En3  v016
 BYTE   W06
//  #04 //016   ----------------------------------------
 BYTE   Bn3
 BYTE   W18
 BYTE   Bn3  v012
 BYTE   W06
 BYTE   En3  v016
 BYTE   W18
 BYTE   En3  v012
 BYTE   W06
 BYTE   Bn3  v020
 BYTE   W18
 BYTE   Bn3  v016
 BYTE   W06
 BYTE   En3  v020
 BYTE   W18
 BYTE   En3  v016
 BYTE   W06
//  #04 //017   ----------------------------------------
 BYTE   Bn3  v024
 BYTE   W18
 BYTE   Bn3  v020
 BYTE   W06
 BYTE   En3  v024
 BYTE   W18
 BYTE   En3  v020
 BYTE   W06
 BYTE   Bn3  v028
 BYTE   W18
 BYTE   Bn3  v024
 BYTE   W06
 BYTE   En3  v028
 BYTE   W18
 BYTE   En3  v024
 BYTE   W06
//  #04 //018   ----------------------------------------
 BYTE   Bn3  v032
 BYTE   W18
 BYTE   Bn3  v028
 BYTE   W06
 BYTE   En3  v032
 BYTE   W18
 BYTE   En3  v028
 BYTE   W06
 BYTE   Bn3  v032
 BYTE   W18
 BYTE   Bn3  v028
 BYTE   W06
 BYTE   En3
 BYTE   W18
 BYTE   En3  v024
 BYTE   W06
//  #04 //019   ----------------------------------------
 BYTE   Bn3  v028
 BYTE   W18
 BYTE   Bn3  v024
 BYTE   W06
 BYTE   En3
 BYTE   W18
 BYTE   En3  v020
 BYTE   W06
 BYTE   Bn3  v024
 BYTE   W18
 BYTE   Bn3  v020
 BYTE   W06
 BYTE   En3
 BYTE   W18
 BYTE   En3  v016
 BYTE   W06
//  #04 //020   ----------------------------------------
 BYTE   As3
 BYTE   W18
 BYTE   As3  v012
 BYTE   W06
 BYTE   Ds3  v016
 BYTE   W18
 BYTE   Ds3  v012
 BYTE   W06
 BYTE   As3  v020
 BYTE   W18
 BYTE   As3  v016
 BYTE   W06
 BYTE   Ds3  v020
 BYTE   W18
 BYTE   Ds3  v016
 BYTE   W06
//  #04 //021   ----------------------------------------
 BYTE   As3  v024
 BYTE   W18
 BYTE   As3  v020
 BYTE   W06
 BYTE   Ds3  v024
 BYTE   W18
 BYTE   Ds3  v020
 BYTE   W06
 BYTE   As3  v028
 BYTE   W18
 BYTE   As3  v024
 BYTE   W06
 BYTE   Ds3  v028
 BYTE   W18
 BYTE   Ds3  v024
 BYTE   W06
//  #04 //022   ----------------------------------------
 BYTE   An3  v032
 BYTE   W18
 BYTE   An3  v028
 BYTE   W06
 BYTE   Dn3  v032
 BYTE   W18
 BYTE   Dn3  v028
 BYTE   W06
 BYTE   An3
 BYTE   W18
 BYTE   An3  v024
 BYTE   W06
 BYTE   Dn3
 BYTE   W18
 BYTE   Dn3  v020
 BYTE   W06
//  #04 //023   ----------------------------------------
 BYTE   An3
 BYTE   W18
 BYTE   An3  v016
 BYTE   W06
 BYTE   Dn3
 BYTE   W18
 BYTE   N08
 BYTE   W06
 BYTE   An3  v012
 BYTE   W18
 BYTE   N08
 BYTE   W06
 BYTE   Dn3
 BYTE   W18
 BYTE   Dn3  v008
 BYTE   W06
//  #04 //024   ----------------------------------------
 BYTE   W96
//  #04 //025   ----------------------------------------
 BYTE   W96
//  #04 //026   ----------------------------------------
 BYTE   W96
//  #04 //027   ----------------------------------------
 BYTE   W96
//  #04 //028   ----------------------------------------
 BYTE   Cn4  v016
 BYTE   W18
 BYTE   Cn4  v012
 BYTE   W06
 BYTE   Fn3  v020
 BYTE   W18
 BYTE   Fn3  v016
 BYTE   W06
 BYTE   Cn4  v020
 BYTE   W18
 BYTE   Cn4  v016
 BYTE   W06
 BYTE   Fn3  v024
 BYTE   W18
 BYTE   Fn3  v020
 BYTE   W06
//  #04 //029   ----------------------------------------
 BYTE   Cn4  v024
 BYTE   W18
 BYTE   Cn4  v020
 BYTE   W06
 BYTE   Fn3  v028
 BYTE   W18
 BYTE   Fn3  v024
 BYTE   W06
 BYTE   Cn4  v028
 BYTE   W18
 BYTE   Cn4  v024
 BYTE   W06
 BYTE   Fn3  v028
 BYTE   W18
 BYTE   Fn3  v024
 BYTE   W06
//  #04 //030   ----------------------------------------
 BYTE   Cn4
 BYTE   W18
 BYTE   Cn4  v020
 BYTE   W06
 BYTE   Fn3  v024
 BYTE   W18
 BYTE   Fn3  v020
 BYTE   W06
 BYTE   Cn4
 BYTE   W18
 BYTE   Cn4  v016
 BYTE   W06
 BYTE   Fn3  v020
 BYTE   W18
 BYTE   Fn3  v016
 BYTE   W06
//  #04 //031   ----------------------------------------
 BYTE   Cn4
 BYTE   W18
 BYTE   Cn4  v012
 BYTE   W06
 BYTE   Fn3  v016
 BYTE   W18
 BYTE   Fn3  v012
 BYTE   W06
 BYTE   Cn4
 BYTE   W18
 BYTE   Cn4  v008
 BYTE   W06
 BYTE   Fn3  v012
 BYTE   W18
 BYTE   N07  Fn3  v008
 BYTE   W06
//  #04 //032   ----------------------------------------
 BYTE   GoTo
  POIN2 Label_01003318
//  #04 //033   ----------------------------------------
 BYTE   W01
 BYTE   FINE

//**************** Track 5 (Midi-Chn.4) ****************//

FinalCastle_005:
//  #05 //000   ----------------------------------------
 BYTE   VOL   55*FinalCastle_mvl/mxv
 BYTE   KEYSH   FinalCastle_key+0
Label_010039EC:
 BYTE   VOICE   10
 BYTE   W96
//  #05 //001   ----------------------------------------
 BYTE   W96
//  #05 //002   ----------------------------------------
 BYTE   W96
//  #05 //003   ----------------------------------------
 BYTE   W96
//  #05 //004   ----------------------------------------
 BYTE   W96
//  #05 //005   ----------------------------------------
 BYTE   W96
//  #05 //006   ----------------------------------------
 BYTE   N05  Cs3  v028
 BYTE   W06
 BYTE   Gs3
 BYTE   W06
 BYTE   En3
 BYTE   W06
 BYTE   Cn4
 BYTE   W06
 BYTE   Gs3
 BYTE   W06
 BYTE   Ds4
 BYTE   W66
//  #05 //007   ----------------------------------------
 BYTE   W96
//  #05 //008   ----------------------------------------
 BYTE   W96
//  #05 //009   ----------------------------------------
 BYTE   W96
//  #05 //010   ----------------------------------------
 BYTE   W96
//  #05 //011   ----------------------------------------
 BYTE   W96
//  #05 //012   ----------------------------------------
 BYTE   W96
//  #05 //013   ----------------------------------------
 BYTE   W96
//  #05 //014   ----------------------------------------
 BYTE   W96
//  #05 //015   ----------------------------------------
 BYTE   W96
//  #05 //016   ----------------------------------------
 BYTE   W96
//  #05 //017   ----------------------------------------
 BYTE   W96
//  #05 //018   ----------------------------------------
 BYTE   W96
//  #05 //019   ----------------------------------------
 BYTE   W96
//  #05 //020   ----------------------------------------
 BYTE   N08  As5  v020
 BYTE   W24
 BYTE   Ds5
 BYTE   W24
 BYTE   As5  v024
 BYTE   W24
 BYTE   Ds5
 BYTE   W24
//  #05 //021   ----------------------------------------
 BYTE   As5  v028
 BYTE   W24
 BYTE   Ds5
 BYTE   W24
 BYTE   As5  v032
 BYTE   W24
 BYTE   Ds5
 BYTE   W24
//  #05 //022   ----------------------------------------
 BYTE   An5  v036
 BYTE   W24
 BYTE   Dn5
 BYTE   W24
 BYTE   An5
 BYTE   W24
 BYTE   Dn5  v032
 BYTE   W24
//  #05 //023   ----------------------------------------
 BYTE   An5  v028
 BYTE   W24
 BYTE   Dn5  v024
 BYTE   W24
 BYTE   An5  v016
 BYTE   W24
 BYTE   Dn5  v012
 BYTE   W24
//  #05 //024   ----------------------------------------
 BYTE   W96
//  #05 //025   ----------------------------------------
 BYTE   W96
//  #05 //026   ----------------------------------------
 BYTE   W96
//  #05 //027   ----------------------------------------
 BYTE   W96
//  #05 //028   ----------------------------------------
 BYTE   W96
//  #05 //029   ----------------------------------------
 BYTE   W96
//  #05 //030   ----------------------------------------
 BYTE   W24
 BYTE   Fn5  v028
 BYTE   W48
 BYTE   Fn5  v024
 BYTE   W24
//  #05 //031   ----------------------------------------
 BYTE   W24
 BYTE   Fn5  v020
 BYTE   W48
 BYTE   Fn5  v012
 BYTE   W24
//  #05 //032   ----------------------------------------
 BYTE   GoTo
  POIN2 Label_010039EC
//  #05 //033   ----------------------------------------
 BYTE   W01
 BYTE   FINE

//**************** Track 6 (Midi-Chn.5) ****************//

FinalCastle_006:
//  #06 //000   ----------------------------------------
 BYTE   VOL   55*FinalCastle_mvl/mxv
 BYTE   KEYSH   FinalCastle_key+0
Label_01003A5C:
 BYTE   VOICE   127
 BYTE   W96
//  #06 //001   ----------------------------------------
 BYTE   W96
//  #06 //002   ----------------------------------------
 BYTE   W96
//  #06 //003   ----------------------------------------
 BYTE   W96
//  #06 //004   ----------------------------------------
 BYTE   W96
//  #06 //005   ----------------------------------------
 BYTE   W96
//  #06 //006   ----------------------------------------
 BYTE   W96
//  #06 //007   ----------------------------------------
 BYTE   W15
 BYTE   N07  Dn1  v036
 BYTE   W16
 BYTE   N07
 BYTE   W16
 BYTE   Dn1  v040
 BYTE   W16
 BYTE   N07
 BYTE   W16
 BYTE   Dn1  v044
 BYTE   W16
 BYTE   N22  Cs2  v036
 BYTE   W01
//  #06 //008   ----------------------------------------
 BYTE   W23
 BYTE   N22
 BYTE   W72
 BYTE   Cn2
 BYTE   W01
//  #06 //009   ----------------------------------------
 BYTE   W23
 BYTE   N22
 BYTE   W72
 BYTE   Cs2
 BYTE   W01
//  #06 //010   ----------------------------------------
 BYTE   W23
 BYTE   N22
 BYTE   W72
 BYTE   En1
 BYTE   W01
//  #06 //011   ----------------------------------------
 BYTE   W23
 BYTE   N22
 BYTE   W72
 BYTE   As1
 BYTE   W01
//  #06 //012   ----------------------------------------
 BYTE   W23
 BYTE   N22
 BYTE   W72
 BYTE   Bn1
 BYTE   W01
//  #06 //013   ----------------------------------------
 BYTE   W23
 BYTE   N22
 BYTE   W72
 BYTE   Dn2
 BYTE   W01
//  #06 //014   ----------------------------------------
 BYTE   W23
 BYTE   N22
 BYTE   W72
 BYTE   Cs2
 BYTE   W01
//  #06 //015   ----------------------------------------
 BYTE   W23
 BYTE   N22
 BYTE   W72
 BYTE   N23  Gn1
 BYTE   W01
//  #06 //016   ----------------------------------------
 BYTE   W23
 BYTE   N23
 BYTE   W72
 BYTE   Gs1
 BYTE   W01
//  #06 //017   ----------------------------------------
 BYTE   W23
 BYTE   N23
 BYTE   W72
 BYTE   Bn1
 BYTE   W01
//  #06 //018   ----------------------------------------
 BYTE   W23
 BYTE   N23
 BYTE   W72
 BYTE   As1
 BYTE   W01
//  #06 //019   ----------------------------------------
 BYTE   W23
 BYTE   N23
 BYTE   W72
 BYTE   Fn1
 BYTE   W01
//  #06 //020   ----------------------------------------
 BYTE   W23
 BYTE   N23
 BYTE   W72
 BYTE   Fs1
 BYTE   W01
//  #06 //021   ----------------------------------------
 BYTE   W23
 BYTE   N23
 BYTE   W72
 BYTE   Dn1
 BYTE   W01
//  #06 //022   ----------------------------------------
 BYTE   W23
 BYTE   N23
 BYTE   W72
 BYTE   N23
 BYTE   W01
//  #06 //023   ----------------------------------------
 BYTE   W23
 BYTE   N23
 BYTE   W72
 BYTE   W01
//  #06 //024   ----------------------------------------
 BYTE   W96
//  #06 //025   ----------------------------------------
 BYTE   W96
//  #06 //026   ----------------------------------------
 BYTE   W96
//  #06 //027   ----------------------------------------
 BYTE   W96
//  #06 //028   ----------------------------------------
 BYTE   W96
//  #06 //029   ----------------------------------------
 BYTE   W96
//  #06 //030   ----------------------------------------
 BYTE   W96
//  #06 //031   ----------------------------------------
 BYTE   W68
 BYTE   W03
 BYTE   N07  Cn2  v024
 BYTE   W08
 BYTE   Cn2  v028
 BYTE   W08
 BYTE   N07
 BYTE   W09
//  #06 //032   ----------------------------------------
 BYTE   GoTo
  POIN2 Label_01003A5C
//  #06 //033   ----------------------------------------
 BYTE   W01
 BYTE   FINE

//******************************************************//
	ALIGN 4

FinalCastle:
	BYTE	6
	BYTE	0
	BYTE	FinalCastle_pri
	BYTE	FinalCastle_rev

	POIN2	FinalCastle_grp

	POIN2	FinalCastle_001
	POIN2	FinalCastle_002
	POIN2	FinalCastle_003
	POIN2	FinalCastle_004
	POIN2	FinalCastle_005
	POIN2	FinalCastle_006
