//Event file generated from Sappy .s format.
	#include "MPlayDef.event"

	#define	FrozenGrounds_grp  voicegroup000
	#define	FrozenGrounds_pri  10
	#define	FrozenGrounds_rev  128
	#define	FrozenGrounds_mvl  127
	#define	FrozenGrounds_key  0
	#define	FrozenGrounds_tbs  1
	#define	FrozenGrounds_exg  0
	#define	FrozenGrounds_cmp  1

	// .rodata
	//	FrozenGrounds
	ALIGN 4


//**************** Track 1 (Midi-Chn.0) ****************//

FrozenGrounds_001:
//  #01 //000   ----------------------------------------
 BYTE   KEYSH   FrozenGrounds_key+0
Label_0109FEC2:
 BYTE   TEMPO   104*FrozenGrounds_tbs/2
 BYTE   VOICE   1
 BYTE   PAN   c_v-24
 BYTE   VOL   59*FrozenGrounds_mvl/mxv
 BYTE   PAN   c_v+53
 BYTE   VOL   72*FrozenGrounds_mvl/mxv
 BYTE   PAN   c_v+0
 BYTE   N92  Fn1  v080
 BYTE   N11  Gn4  v068
 BYTE   N11  Cn5
 BYTE   W12
 BYTE   Cn4
 BYTE   W12
 BYTE   Fn4
 BYTE   N11  Cn5
 BYTE   W12
 BYTE   Cn4
 BYTE   W12
 BYTE   Gn4
 BYTE   N11  Cn5
 BYTE   W12
 BYTE   Cn4
 BYTE   W12
 BYTE   Fn4
 BYTE   N11  Cn5
 BYTE   W12
 BYTE   Cn4
 BYTE   W12
//  #01 //001   ----------------------------------------
Label_0109FEED:
 BYTE   N92  Gs1  v080
 BYTE   N11  Gn4  v068
 BYTE   N11  Cn5
 BYTE   W12
 BYTE   Cn4
 BYTE   W12
 BYTE   Fn4
 BYTE   N11  Cn5
 BYTE   W12
 BYTE   Cn4
 BYTE   W12
 BYTE   Gn4
 BYTE   N11  Cn5
 BYTE   W12
 BYTE   Cn4
 BYTE   W12
 BYTE   Fn4
 BYTE   N11  Cn5
 BYTE   W12
 BYTE   Cn4
 BYTE   W12
 BYTE   PEND
//  #01 //002   ----------------------------------------
Label_0109FF0B:
 BYTE   N92  Cs1  v080
 BYTE   N11  Gn4  v068
 BYTE   N11  Cn5
 BYTE   W12
 BYTE   Cn4
 BYTE   W12
 BYTE   Fn4
 BYTE   N11  Cn5
 BYTE   W12
 BYTE   Cn4
 BYTE   W12
 BYTE   Gn4
 BYTE   N11  Cn5
 BYTE   W12
 BYTE   Cn4
 BYTE   W12
 BYTE   Fn4
 BYTE   N11  Cn5
 BYTE   W12
 BYTE   Cn4
 BYTE   W12
 BYTE   PEND
//  #01 //003   ----------------------------------------
Label_0109FF29:
 BYTE   N92  As0  v080
 BYTE   N11  Gn4  v068
 BYTE   N11  Cn5
 BYTE   W12
 BYTE   Cn4
 BYTE   W12
 BYTE   Fn4
 BYTE   N11  Cn5
 BYTE   W12
 BYTE   Cn4
 BYTE   W12
 BYTE   Gn4
 BYTE   N11  Cn5
 BYTE   W12
 BYTE   Cn4
 BYTE   W12
 BYTE   Fn4
 BYTE   N11  Cn5
 BYTE   W12
 BYTE   Cn4
 BYTE   W12
 BYTE   PEND
//  #01 //004   ----------------------------------------
 BYTE   N92  Fn1  v080
 BYTE   N11  Gn4  v068
 BYTE   N11  Cn5
 BYTE   W12
 BYTE   Cn4
 BYTE   W12
 BYTE   Fn4
 BYTE   N11  Cn5
 BYTE   W12
 BYTE   Cn4
 BYTE   W12
 BYTE   Gn4
 BYTE   N11  Cn5
 BYTE   W12
 BYTE   Cn4
 BYTE   W12
 BYTE   Fn4
 BYTE   N11  Cn5
 BYTE   W12
 BYTE   Cn4
 BYTE   W12
//  #01 //005   ----------------------------------------
 BYTE   PATT
  POIN2 Label_0109FEED
//  #01 //006   ----------------------------------------
 BYTE   PATT
  POIN2 Label_0109FF0B
//  #01 //007   ----------------------------------------
 BYTE   PATT
  POIN2 Label_0109FF29
//  #01 //008   ----------------------------------------
Label_0109FF73:
 BYTE   N11  Gn4  v068
 BYTE   N11  Cn5
 BYTE   W12
 BYTE   Cn4
 BYTE   W12
 BYTE   Gn4
 BYTE   N11  Cn5
 BYTE   W12
 BYTE   Cn4
 BYTE   W12
 BYTE   Gn4
 BYTE   N11  Cn5
 BYTE   W12
 BYTE   Cn4
 BYTE   W12
 BYTE   Gn4
 BYTE   N11  Cn5
 BYTE   W12
 BYTE   Cn4
 BYTE   W12
 BYTE   PEND
//  #01 //009   ----------------------------------------
 BYTE   PATT
  POIN2 Label_0109FF73
//  #01 //010   ----------------------------------------
Label_0109FF93:
 BYTE   N11  Fn4  v068
 BYTE   N11  Cn5
 BYTE   W12
 BYTE   Cn4
 BYTE   W12
 BYTE   Fn4
 BYTE   N11  Cn5
 BYTE   W12
 BYTE   Cn4
 BYTE   W12
 BYTE   Fn4
 BYTE   N11  Cn5
 BYTE   W12
 BYTE   Cn4
 BYTE   W12
 BYTE   Fn4
 BYTE   N11  Cn5
 BYTE   W12
 BYTE   Cn4
 BYTE   W12
 BYTE   PEND
//  #01 //011   ----------------------------------------
 BYTE   PATT
  POIN2 Label_0109FF93
//  #01 //012   ----------------------------------------
Label_0109FFB3:
 BYTE   N11  Fn4  v068
 BYTE   N11  Cn5
 BYTE   W12
 BYTE   As3
 BYTE   W12
 BYTE   Fn4
 BYTE   N11  Cn5
 BYTE   W12
 BYTE   As3
 BYTE   W12
 BYTE   Fn4
 BYTE   N11  Cn5
 BYTE   W12
 BYTE   As3
 BYTE   W12
 BYTE   Fn4
 BYTE   N11  Cn5
 BYTE   W12
 BYTE   As3
 BYTE   W12
 BYTE   PEND
//  #01 //013   ----------------------------------------
 BYTE   PATT
  POIN2 Label_0109FFB3
//  #01 //014   ----------------------------------------
 BYTE   PATT
  POIN2 Label_0109FF93
//  #01 //015   ----------------------------------------
 BYTE   PATT
  POIN2 Label_0109FF93
//  #01 //016   ----------------------------------------
 BYTE   N11  Fn4  v016
 BYTE   N11  Cn5
 BYTE   W12
 BYTE   Cn4
 BYTE   W12
 BYTE   Fn4
 BYTE   N11  Cn5
 BYTE   W12
 BYTE   Cn4
 BYTE   W60
//  #01 //017   ----------------------------------------
Label_0109FFEB:
 BYTE   N44  Cn5  v088
 BYTE   W48
 BYTE   N23  As4
 BYTE   W24
 BYTE   N11  Gs4
 BYTE   W12
 BYTE   As4
 BYTE   W12
 BYTE   PEND
//  #01 //018   ----------------------------------------
Label_0109FFF8:
 BYTE   N44  Fn4  v088
 BYTE   W48
 BYTE   N23  Cn4
 BYTE   W24
 BYTE   N11  As3
 BYTE   W12
 BYTE   Fn4
 BYTE   W12
 BYTE   PEND
//  #01 //019   ----------------------------------------
 BYTE   N92  Cn4
 BYTE   W96
//  #01 //020   ----------------------------------------
 BYTE   N88  Fn3
 BYTE   W96
//  #01 //021   ----------------------------------------
 BYTE   PATT
  POIN2 Label_0109FFEB
//  #01 //022   ----------------------------------------
 BYTE   PATT
  POIN2 Label_0109FFF8
//  #01 //023   ----------------------------------------
 BYTE   N92  Cn4  v088
 BYTE   W96
//  #01 //024   ----------------------------------------
 BYTE   N44  Fn3
 BYTE   W48
 BYTE   N23
 BYTE   W24
 BYTE   As3
 BYTE   W24
//  #01 //025   ----------------------------------------
Label_010A0020:
 BYTE   N92  Fn3  v072
 BYTE   N23  Cn4
 BYTE   N23  Fn4
 BYTE   W24
 BYTE   Cn4
 BYTE   N23  Fn4
 BYTE   W24
 BYTE   Cn4
 BYTE   N23  Fn4
 BYTE   W24
 BYTE   Cn4
 BYTE   N23  Fn4
 BYTE   W24
 BYTE   PEND
//  #01 //026   ----------------------------------------
Label_010A0035:
 BYTE   N44  Fn3  v072
 BYTE   N44  Cn4
 BYTE   W48
 BYTE   N23  Fn3
 BYTE   W24
 BYTE   Cn4
 BYTE   W24
 BYTE   PEND
//  #01 //027   ----------------------------------------
 BYTE   PATT
  POIN2 Label_010A0020
//  #01 //028   ----------------------------------------
 BYTE   PATT
  POIN2 Label_010A0035
//  #01 //029   ----------------------------------------
 BYTE   N23  Cn4  v072
 BYTE   N23  Fn4
 BYTE   W24
 BYTE   Cn4
 BYTE   N23  Fn4
 BYTE   W24
 BYTE   Cn4
 BYTE   N23  Fn4
 BYTE   W24
 BYTE   Cn4
 BYTE   N23  Fn4
 BYTE   W24
//  #01 //030   ----------------------------------------
 BYTE   N44  Fn3
 BYTE   N92  Cn4
 BYTE   W48
 BYTE   N23  Fn3
 BYTE   W24
 BYTE   Gn3  v064
 BYTE   W24
//  #01 //031   ----------------------------------------
 BYTE   N68  An3  v072
 BYTE   W24
 BYTE   N44  Dn4
 BYTE   W48
 BYTE   N23  An3
 BYTE   W24
//  #01 //032   ----------------------------------------
 BYTE   N92  Gn3
 BYTE   N23  Gn4
 BYTE   W24
 BYTE   N44  Dn4
 BYTE   W48
 BYTE   N23  Gn4
 BYTE   W24
//  #01 //033   ----------------------------------------
 BYTE   TIE  Gn3
 BYTE   TIE  En4
 BYTE   W96
//  #01 //034   ----------------------------------------
 BYTE   W96
//  #01 //035   ----------------------------------------
 BYTE   W68
 BYTE   W03
 BYTE   EOT
 BYTE   W01
 BYTE   N23  Cn4  v060
 BYTE   W23
 BYTE   EOT
 BYTE   Gn3
 BYTE   W01
//  #01 //036   ----------------------------------------
 BYTE   PATT
  POIN2 Label_0109FFEB
//  #01 //037   ----------------------------------------
 BYTE   PATT
  POIN2 Label_0109FFF8
//  #01 //038   ----------------------------------------
 BYTE   N92  Cn4  v088
 BYTE   W96
//  #01 //039   ----------------------------------------
 BYTE   N88  Fn3
 BYTE   W96
//  #01 //040   ----------------------------------------
 BYTE   PATT
  POIN2 Label_0109FFEB
//  #01 //041   ----------------------------------------
 BYTE   PATT
  POIN2 Label_0109FFF8
//  #01 //042   ----------------------------------------
 BYTE   N92  Cn4  v088
 BYTE   W96
//  #01 //043   ----------------------------------------
 BYTE   N44  Fn3
 BYTE   W48
 BYTE   N23
 BYTE   W24
 BYTE   Cn4
 BYTE   W24
//  #01 //044   ----------------------------------------
Label_010A00B4:
 BYTE   N92  Gn3  v072
 BYTE   N23  Cn4
 BYTE   N23  Gn4
 BYTE   W24
 BYTE   Cn4
 BYTE   N23  Gn4
 BYTE   W24
 BYTE   Cn4
 BYTE   N23  Gn4
 BYTE   W24
 BYTE   Cn4
 BYTE   N23  Gn4
 BYTE   W24
 BYTE   PEND
//  #01 //045   ----------------------------------------
Label_010A00C9:
 BYTE   N44  Gn3  v072
 BYTE   N44  Cn4
 BYTE   W48
 BYTE   N23  Gn3
 BYTE   W24
 BYTE   Cn4
 BYTE   W24
 BYTE   PEND
//  #01 //046   ----------------------------------------
 BYTE   PATT
  POIN2 Label_010A00B4
//  #01 //047   ----------------------------------------
Label_010A00DA:
 BYTE   N44  Gn3  v072
 BYTE   N44  Bn3
 BYTE   W48
 BYTE   N23  Gn3
 BYTE   W24
 BYTE   Bn3
 BYTE   W24
 BYTE   PEND
//  #01 //048   ----------------------------------------
 BYTE   Cn4
 BYTE   W24
 BYTE   Bn3
 BYTE   W24
 BYTE   Cn4
 BYTE   W24
 BYTE   Dn4
 BYTE   W24
//  #01 //049   ----------------------------------------
 BYTE   N23
 BYTE   W24
 BYTE   Cn4
 BYTE   W24
 BYTE   Dn4
 BYTE   W24
 BYTE   Bn3
 BYTE   W24
//  #01 //050   ----------------------------------------
 BYTE   N92
 BYTE   W96
//  #01 //051   ----------------------------------------
 BYTE   N44  Cn4
 BYTE   W48
 BYTE   N23  An3
 BYTE   W24
 BYTE   Cn4
 BYTE   W24
//  #01 //052   ----------------------------------------
 BYTE   PATT
  POIN2 Label_010A00B4
//  #01 //053   ----------------------------------------
 BYTE   PATT
  POIN2 Label_010A00C9
//  #01 //054   ----------------------------------------
 BYTE   PATT
  POIN2 Label_010A00B4
//  #01 //055   ----------------------------------------
 BYTE   PATT
  POIN2 Label_010A00DA
//  #01 //056   ----------------------------------------
 BYTE   N40  Dn4  v072
 BYTE   N23  Bn4
 BYTE   W24
 BYTE   An4
 BYTE   W24
 BYTE   N44  Fn3
 BYTE   N23  Dn4
 BYTE   W24
 BYTE   An3
 BYTE   W24
//  #01 //057   ----------------------------------------
 BYTE   N44  Gn3
 BYTE   N44  Bn3
 BYTE   W48
 BYTE   En4
 BYTE   W48
//  #01 //058   ----------------------------------------
 BYTE   N92  An3
 BYTE   N44  Bn3
 BYTE   W48
 BYTE   N88  Cn4
 BYTE   W48
//  #01 //059   ----------------------------------------
 BYTE   W96
//  #01 //060   ----------------------------------------
 BYTE   W96
//  #01 //061   ----------------------------------------
 BYTE   W96
//  #01 //062   ----------------------------------------
 BYTE   W96
//  #01 //063   ----------------------------------------
 BYTE   W96
//  #01 //064   ----------------------------------------
 BYTE   W12
 BYTE   BEND   c_v+0
 BYTE   N92  An1  v100
 BYTE   N17  En2  v112
 BYTE   W12
 BYTE   Dn2  v108
 BYTE   W12
 BYTE   Cs2
 BYTE   W12
 BYTE   N56  Dn2  v104
 BYTE   W48
//  #01 //065   ----------------------------------------
 BYTE   W12
 BYTE   N92  Gn1  v100
 BYTE   N17  Dn2  v112
 BYTE   W12
 BYTE   Cn2  v108
 BYTE   W12
 BYTE   Bn1
 BYTE   W12
 BYTE   N56  Cn2  v104
 BYTE   W48
//  #01 //066   ----------------------------------------
 BYTE   W12
 BYTE   N92  Fs1  v100
 BYTE   N17  Cn2  v112
 BYTE   W12
 BYTE   Bn1  v108
 BYTE   W12
 BYTE   As1
 BYTE   W12
 BYTE   N56  Bn1  v104
 BYTE   W24
 BYTE   N17  Ds1  v108
 BYTE   W12
 BYTE   Dn1
 BYTE   W12
//  #01 //067   ----------------------------------------
 BYTE   N11  Ds1
 BYTE   W12
 BYTE   TIE  En1  v100
 BYTE   N17  Cn2  v112
 BYTE   W12
 BYTE   Bn1  v108
 BYTE   W12
 BYTE   As1
 BYTE   W12
 BYTE   TIE  Bn1  v104
 BYTE   W48
//  #01 //068   ----------------------------------------
 BYTE   W48
 BYTE   N24  Dn3  v100
 BYTE   W11
 BYTE   EOT
 BYTE   En1  v047
 BYTE   W01
 BYTE   N28  Dn2
 BYTE   W12
 BYTE   N24  En3
 BYTE   W12
 BYTE   En2
 BYTE   W12
//  #01 //069   ----------------------------------------
 BYTE   N60  Cn4
 BYTE   W12
 BYTE   Cn3
 BYTE   W48
 BYTE   N15  As3  v096
 BYTE   W12
 BYTE   As2
 BYTE   N13  An3
 BYTE   W12
 BYTE   An2
 BYTE   N14  Gn3
 BYTE   W12
//  #01 //070   ----------------------------------------
Label_010A01A7:
 BYTE   N14  Gn2  v096
 BYTE   N44  Dn3
 BYTE   W12
 BYTE   Dn2
 BYTE   W36
 BYTE   N23  An2
 BYTE   W12
 BYTE   An1
 BYTE   W12
 BYTE   As2
 BYTE   W12
 BYTE   As1
 BYTE   W12
 BYTE   PEND
//  #01 //071   ----------------------------------------
 BYTE   N32  Bn2
 BYTE   W12
 BYTE   Bn1
 BYTE   W24
 BYTE   N78  Gn3
 BYTE   W12
 BYTE   Gn2
 BYTE   W12
 BYTE   N12  An3  v056
 BYTE   W08
 BYTE   N13  Bn3
 BYTE   W08
 BYTE   N09  Cn4
 BYTE   W08
 BYTE   N10  Dn4  v052
 BYTE   W08
 BYTE   N09  Cn4
 BYTE   W04
//  #01 //072   ----------------------------------------
 BYTE   W04
 BYTE   N07  Bn3
 BYTE   W08
 BYTE   N07
 BYTE   W08
 BYTE   Gn3
 BYTE   W08
 BYTE   Bn3
 BYTE   W08
 BYTE   Gn3
 BYTE   W08
 BYTE   En3
 BYTE   W04
 BYTE   N23  Dn3  v096
 BYTE   W04
 BYTE   N07  Gn3  v052
 BYTE   W08
 BYTE   N23  Dn2  v096
 BYTE   N07  En3  v052
 BYTE   W08
 BYTE   Bn2
 BYTE   W04
 BYTE   N23  En3  v096
 BYTE   W12
 BYTE   En2
 BYTE   N07  Bn2  v052
 BYTE   W08
 BYTE   Gn2
 BYTE   W04
//  #01 //073   ----------------------------------------
 BYTE   N60  Cn4  v100
 BYTE   W04
 BYTE   N07  Bn2  v052
 BYTE   W08
 BYTE   N60  Cn3  v100
 BYTE   W48
 BYTE   N15  As3  v096
 BYTE   W12
 BYTE   As2
 BYTE   N13  An3
 BYTE   W12
 BYTE   An2
 BYTE   N14  Gn3
 BYTE   W12
//  #01 //074   ----------------------------------------
 BYTE   PATT
  POIN2 Label_010A01A7
//  #01 //075   ----------------------------------------
 BYTE   N32  Cn3  v096
 BYTE   W12
 BYTE   Cn2
 BYTE   W24
 BYTE   N92  Gn3
 BYTE   W12
 BYTE   Gn1
 BYTE   N92  Gn2
 BYTE   W12
 BYTE   N12  An3  v056
 BYTE   W08
 BYTE   N13  Bn3
 BYTE   W08
 BYTE   N09  Cn4
 BYTE   W08
 BYTE   N10  Dn4  v052
 BYTE   W08
 BYTE   N09  Cn4
 BYTE   W04
//  #01 //076   ----------------------------------------
 BYTE   W04
 BYTE   N07  Bn3
 BYTE   W08
 BYTE   N07
 BYTE   W16
 BYTE   N07
 BYTE   W08
 BYTE   Gn3
 BYTE   W08
 BYTE   En3
 BYTE   W04
 BYTE   N24  Dn4  v084
 BYTE   W04
 BYTE   N07  Gn3  v052
 BYTE   W08
 BYTE   N24  Dn2  v084
 BYTE   N07  En3  v052
 BYTE   W08
 BYTE   Bn2
 BYTE   W04
 BYTE   N23  En4  v100
 BYTE   W04
 BYTE   N07  En3  v052
 BYTE   W08
 BYTE   N23  En2  v100
 BYTE   N07  Bn2  v052
 BYTE   N23  En3  v100
 BYTE   W08
 BYTE   N07  Gn2  v052
 BYTE   W04
//  #01 //077   ----------------------------------------
 BYTE   N56  Fn4  v088
 BYTE   W04
 BYTE   N07  Bn2  v052
 BYTE   W08
 BYTE   N56  Fn2  v088
 BYTE   N56  Fn3
 BYTE   W48
 BYTE   N11  En4  v084
 BYTE   W12
 BYTE   En2
 BYTE   N11  En3
 BYTE   N11  Dn4  v064
 BYTE   W12
 BYTE   Dn2
 BYTE   N11  Dn3
 BYTE   N11  An3  v060
 BYTE   W12
//  #01 //078   ----------------------------------------
 BYTE   An1
 BYTE   N11  An2
 BYTE   N44  Gs3  v072
 BYTE   W12
 BYTE   Gs1
 BYTE   N44  Gs2
 BYTE   W48
 BYTE   N23  En2  v084
 BYTE   W12
 BYTE   Dn4
 BYTE   W12
 BYTE   Dn2
 BYTE   N23  Dn3
 BYTE   W12
//  #01 //079   ----------------------------------------
 BYTE   N56  Dn4
 BYTE   W12
 BYTE   Dn2
 BYTE   N56  Dn3
 BYTE   W48
 BYTE   N11  Cn4
 BYTE   W12
 BYTE   Cn2
 BYTE   N11  Cn3
 BYTE   N11  Dn4  v088
 BYTE   W12
 BYTE   Dn2
 BYTE   N11  Dn3
 BYTE   N11  En4  v084
 BYTE   W12
//  #01 //080   ----------------------------------------
 BYTE   En2
 BYTE   N11  En3
 BYTE   N44  An3  v088
 BYTE   W12
 BYTE   An1
 BYTE   N44  An2
 BYTE   W36
 BYTE   N23  Bn3  v064
 BYTE   W12
 BYTE   Bn1
 BYTE   N23  Bn2
 BYTE   W12
 BYTE   Cn4
 BYTE   W12
 BYTE   Cn2
 BYTE   N23  Cn3
 BYTE   W12
//  #01 //081   ----------------------------------------
 BYTE   N68  An3  v088
 BYTE   W12
 BYTE   An1
 BYTE   N68  An2
 BYTE   W60
 BYTE   N11  Dn4  v084
 BYTE   W12
 BYTE   Dn2
 BYTE   N11  Dn3
 BYTE   N11  Cn4
 BYTE   W12
//  #01 //082   ----------------------------------------
Label_010A02E4:
 BYTE   N11  Cn2  v084
 BYTE   N11  Cn3
 BYTE   N44  Bn3  v088
 BYTE   W12
 BYTE   Bn1
 BYTE   N44  Bn2
 BYTE   W36
 BYTE   Gn3
 BYTE   W12
 BYTE   Gn1
 BYTE   N44  Gn2
 BYTE   W36
 BYTE   PEND
//  #01 //083   ----------------------------------------
Label_010A02F8:
 BYTE   N92  Gn3  v088
 BYTE   W12
 BYTE   Gn1
 BYTE   N92  Gn2
 BYTE   W84
 BYTE   PEND
//  #01 //084   ----------------------------------------
 BYTE   N68  An3
 BYTE   W12
 BYTE   An1
 BYTE   N68  An2
 BYTE   W60
 BYTE   N11  An3
 BYTE   W12
 BYTE   An1
 BYTE   N11  An2
 BYTE   N11  Bn3  v084
 BYTE   W12
//  #01 //085   ----------------------------------------
 BYTE   Bn1
 BYTE   N11  Bn2
 BYTE   N32  Cn4  v088
 BYTE   W12
 BYTE   Cn2
 BYTE   N32  Cn3
 BYTE   W24
 BYTE   An3
 BYTE   W12
 BYTE   An1
 BYTE   N32  An2
 BYTE   W24
 BYTE   N11  Dn4  v084
 BYTE   W12
 BYTE   Dn2
 BYTE   N11  Dn3
 BYTE   N11  Cn4
 BYTE   W12
//  #01 //086   ----------------------------------------
 BYTE   PATT
  POIN2 Label_010A02E4
//  #01 //087   ----------------------------------------
 BYTE   PATT
  POIN2 Label_010A02F8
//  #01 //088   ----------------------------------------
 BYTE   TIE  An3  v088
 BYTE   W12
 BYTE   N92  An1
 BYTE   N92  An2
 BYTE   W84
//  #01 //089   ----------------------------------------
 BYTE   W92
 BYTE   W03
 BYTE   EOT
 BYTE   An3
 BYTE   W01
//  #01 //090   ----------------------------------------
 BYTE   GoTo
  POIN2 Label_0109FEC2
 BYTE   FINE

//**************** Track 2 (Midi-Chn.1) ****************//

FrozenGrounds_002:
//  #02 //000   ----------------------------------------
 BYTE   KEYSH   FrozenGrounds_key+0
Label_0109F2EE:
 BYTE   VOICE   13
 BYTE   VOL   49*FrozenGrounds_mvl/mxv
 BYTE   PAN   c_v+0
 BYTE   W96
//  #02 //001   ----------------------------------------
 BYTE   W96
//  #02 //002   ----------------------------------------
 BYTE   W96
//  #02 //003   ----------------------------------------
 BYTE   W96
//  #02 //004   ----------------------------------------
 BYTE   W96
//  #02 //005   ----------------------------------------
 BYTE   W96
//  #02 //006   ----------------------------------------
 BYTE   W96
//  #02 //007   ----------------------------------------
 BYTE   W96
//  #02 //008   ----------------------------------------
 BYTE   N05  En1  v092
 BYTE   W06
 BYTE   Bn1
 BYTE   W06
 BYTE   An1
 BYTE   W06
 BYTE   Bn1
 BYTE   W06
 BYTE   En2
 BYTE   W06
 BYTE   Bn2
 BYTE   W06
 BYTE   An2
 BYTE   W06
 BYTE   Bn2
 BYTE   W06
 BYTE   En1
 BYTE   W06
 BYTE   Bn1
 BYTE   W06
 BYTE   An1
 BYTE   W06
 BYTE   Bn1
 BYTE   W06
 BYTE   En2
 BYTE   W06
 BYTE   Bn2
 BYTE   W06
 BYTE   An2
 BYTE   W06
 BYTE   Bn2
 BYTE   W06
//  #02 //009   ----------------------------------------
 BYTE   Cn1
 BYTE   W06
 BYTE   Gn1
 BYTE   W06
 BYTE   Fn1
 BYTE   W06
 BYTE   Gn1
 BYTE   W06
 BYTE   Cn2
 BYTE   W06
 BYTE   Gn2
 BYTE   W06
 BYTE   Fn2
 BYTE   W06
 BYTE   Gn2
 BYTE   W06
 BYTE   Cn1
 BYTE   W06
 BYTE   Gn1
 BYTE   W06
 BYTE   Fn1
 BYTE   W06
 BYTE   Gn1
 BYTE   W06
 BYTE   Cn2
 BYTE   W06
 BYTE   Gn2
 BYTE   W06
 BYTE   Fn2
 BYTE   W06
 BYTE   Gn2
 BYTE   W06
//  #02 //010   ----------------------------------------
 BYTE   Fn1
 BYTE   W06
 BYTE   Cn2
 BYTE   W06
 BYTE   As1
 BYTE   W06
 BYTE   Cn2
 BYTE   W06
 BYTE   Fn2
 BYTE   W06
 BYTE   Cn3
 BYTE   W06
 BYTE   As2
 BYTE   W06
 BYTE   Cn3
 BYTE   W06
 BYTE   Fn1
 BYTE   W06
 BYTE   Cn2
 BYTE   W06
 BYTE   As1
 BYTE   W06
 BYTE   Cn2
 BYTE   W06
 BYTE   Fn2
 BYTE   W06
 BYTE   Cn3
 BYTE   W06
 BYTE   As2
 BYTE   W06
 BYTE   Cn3
 BYTE   W06
//  #02 //011   ----------------------------------------
Label_0109F35E:
 BYTE   N05  As1  v092
 BYTE   W06
 BYTE   Fn2
 BYTE   W06
 BYTE   Ds2
 BYTE   W06
 BYTE   Fn2
 BYTE   W06
 BYTE   As2
 BYTE   W06
 BYTE   Fn3
 BYTE   W06
 BYTE   Ds3
 BYTE   W06
 BYTE   Fn3
 BYTE   W06
 BYTE   As1
 BYTE   W06
 BYTE   Fn2
 BYTE   W06
 BYTE   Ds2
 BYTE   W06
 BYTE   Fn2
 BYTE   W06
 BYTE   As2
 BYTE   W06
 BYTE   Fn3
 BYTE   W06
 BYTE   Ds3
 BYTE   W06
 BYTE   Fn3
 BYTE   W06
 BYTE   PEND
//  #02 //012   ----------------------------------------
 BYTE   PATT
  POIN2 Label_0109F35E
//  #02 //013   ----------------------------------------
 BYTE   PATT
  POIN2 Label_0109F35E
//  #02 //014   ----------------------------------------
Label_0109F38B:
 BYTE   N05  Cn2  v092
 BYTE   W06
 BYTE   Fn2
 BYTE   W06
 BYTE   Ds2
 BYTE   W06
 BYTE   Fn2
 BYTE   W06
 BYTE   Cn3
 BYTE   W06
 BYTE   Fn3
 BYTE   W06
 BYTE   Ds3
 BYTE   W06
 BYTE   Fn3
 BYTE   W06
 BYTE   Cn2
 BYTE   W06
 BYTE   Fn2
 BYTE   W06
 BYTE   Ds2
 BYTE   W06
 BYTE   Fn2
 BYTE   W06
 BYTE   Cn3
 BYTE   W06
 BYTE   Fn3
 BYTE   W06
 BYTE   Ds3
 BYTE   W06
 BYTE   Fn3
 BYTE   W06
 BYTE   PEND
//  #02 //015   ----------------------------------------
 BYTE   PATT
  POIN2 Label_0109F38B
//  #02 //016   ----------------------------------------
 BYTE   N05  Cn2  v092
 BYTE   W06
 BYTE   Fn2  v084
 BYTE   W06
 BYTE   Ds2  v076
 BYTE   W06
 BYTE   Fn2  v068
 BYTE   W06
 BYTE   Cn3  v064
 BYTE   W06
 BYTE   Fn3  v056
 BYTE   W06
 BYTE   Ds3  v048
 BYTE   W06
 BYTE   Fn3  v044
 BYTE   W06
 BYTE   Cn2  v040
 BYTE   W06
 BYTE   Fn2  v036
 BYTE   W06
 BYTE   Ds2  v032
 BYTE   W06
 BYTE   Fn2  v028
 BYTE   W06
 BYTE   Cn3  v024
 BYTE   W06
 BYTE   Fn3
 BYTE   W06
 BYTE   Ds3  v020
 BYTE   W06
 BYTE   Fn3
 BYTE   W06
//  #02 //017   ----------------------------------------
Label_0109F3E2:
 BYTE   N92  Fn1  v104
 BYTE   N92  Cn2
 BYTE   W24
 BYTE   N68  Cn1
 BYTE   W72
 BYTE   PEND
//  #02 //018   ----------------------------------------
Label_0109F3EC:
 BYTE   N92  Cn1  v104
 BYTE   N92  Fn1
 BYTE   W24
 BYTE   N68  Fn0
 BYTE   W72
 BYTE   PEND
//  #02 //019   ----------------------------------------
 BYTE   PATT
  POIN2 Label_0109F3EC
//  #02 //020   ----------------------------------------
 BYTE   PATT
  POIN2 Label_0109F3EC
//  #02 //021   ----------------------------------------
 BYTE   N92  Fn1  v104
 BYTE   N44  Cn2
 BYTE   W24
 BYTE   N68  Cn1
 BYTE   W24
 BYTE   N44  Fn0
 BYTE   W48
//  #02 //022   ----------------------------------------
 BYTE   PATT
  POIN2 Label_0109F3EC
//  #02 //023   ----------------------------------------
 BYTE   PATT
  POIN2 Label_0109F3EC
//  #02 //024   ----------------------------------------
 BYTE   PATT
  POIN2 Label_0109F3EC
//  #02 //025   ----------------------------------------
Label_0109F41B:
 BYTE   N23  Cn2  v088
 BYTE   N23  Fn2
 BYTE   W24
 BYTE   Cn2
 BYTE   N23  Fn2
 BYTE   W24
 BYTE   Cn2
 BYTE   N23  Fn2
 BYTE   W24
 BYTE   Cn2
 BYTE   N23  Fn2
 BYTE   W24
 BYTE   PEND
//  #02 //026   ----------------------------------------
Label_0109F42E:
 BYTE   N44  Fn1  v088
 BYTE   N44  Cn2
 BYTE   W48
 BYTE   N23  Fn1
 BYTE   W24
 BYTE   Cn2
 BYTE   W24
 BYTE   PEND
//  #02 //027   ----------------------------------------
 BYTE   PATT
  POIN2 Label_0109F41B
//  #02 //028   ----------------------------------------
 BYTE   PATT
  POIN2 Label_0109F42E
//  #02 //029   ----------------------------------------
 BYTE   PATT
  POIN2 Label_0109F41B
//  #02 //030   ----------------------------------------
 BYTE   N92  Fn1  v088
 BYTE   N92  Cn2
 BYTE   W96
//  #02 //031   ----------------------------------------
 BYTE   Dn1
 BYTE   N68  An1
 BYTE   N23  An2
 BYTE   W24
 BYTE   N44  Dn2
 BYTE   W48
 BYTE   N23  An1
 BYTE   W24
//  #02 //032   ----------------------------------------
 BYTE   N92  Dn1
 BYTE   N92  Gn1
 BYTE   N23  Gn2
 BYTE   W24
 BYTE   N44  Dn2
 BYTE   W48
 BYTE   N23  Gn2
 BYTE   W24
//  #02 //033   ----------------------------------------
 BYTE   N92  En1
 BYTE   W24
 BYTE   N44  Gn1  v068
 BYTE   N44  Dn2
 BYTE   W24
 BYTE   N68  Bn1
 BYTE   N56  Gn2
 BYTE   W24
 BYTE   N23  Gn1
 BYTE   N23  Dn2
 BYTE   W24
//  #02 //034   ----------------------------------------
 BYTE   N68  Gn1
 BYTE   N68  Dn2
 BYTE   W24
 BYTE   N23  Dn1
 BYTE   N23  Bn1
 BYTE   W24
 BYTE   TIE  Dn1
 BYTE   N23  Bn1
 BYTE   W24
 BYTE   TIE  Bn0
 BYTE   TIE  Gn1
 BYTE   W24
//  #02 //035   ----------------------------------------
 BYTE   W92
 BYTE   W03
 BYTE   EOT
 BYTE   Bn0  v038
 BYTE   Gn1
 BYTE   W01
//  #02 //036   ----------------------------------------
 BYTE   PATT
  POIN2 Label_0109F3E2
//  #02 //037   ----------------------------------------
 BYTE   PATT
  POIN2 Label_0109F3EC
//  #02 //038   ----------------------------------------
 BYTE   PATT
  POIN2 Label_0109F3EC
//  #02 //039   ----------------------------------------
 BYTE   PATT
  POIN2 Label_0109F3EC
//  #02 //040   ----------------------------------------
 BYTE   PATT
  POIN2 Label_0109F3E2
//  #02 //041   ----------------------------------------
 BYTE   PATT
  POIN2 Label_0109F3EC
//  #02 //042   ----------------------------------------
 BYTE   PATT
  POIN2 Label_0109F3EC
//  #02 //043   ----------------------------------------
 BYTE   PATT
  POIN2 Label_0109F3EC
//  #02 //044   ----------------------------------------
Label_0109F4BE:
 BYTE   N23  Cn2  v088
 BYTE   N23  Gn2
 BYTE   W24
 BYTE   Cn2
 BYTE   N23  Gn2
 BYTE   W24
 BYTE   Cn2
 BYTE   N23  Gn2
 BYTE   W24
 BYTE   Cn2
 BYTE   N23  Gn2
 BYTE   W24
 BYTE   PEND
//  #02 //045   ----------------------------------------
Label_0109F4D1:
 BYTE   N44  Gn1  v088
 BYTE   N44  Cn2
 BYTE   W48
 BYTE   N23  Gn1
 BYTE   W24
 BYTE   Cn2
 BYTE   W24
 BYTE   PEND
//  #02 //046   ----------------------------------------
 BYTE   PATT
  POIN2 Label_0109F4BE
//  #02 //047   ----------------------------------------
Label_0109F4E2:
 BYTE   N44  Gn1  v088
 BYTE   N44  Bn1
 BYTE   W48
 BYTE   N23  Gn1
 BYTE   W24
 BYTE   Bn1
 BYTE   W24
 BYTE   PEND
//  #02 //048   ----------------------------------------
 BYTE   Cn2
 BYTE   W24
 BYTE   Bn1
 BYTE   W24
 BYTE   Cn2
 BYTE   W24
 BYTE   Dn2
 BYTE   W24
//  #02 //049   ----------------------------------------
 BYTE   N23
 BYTE   W24
 BYTE   Cn2
 BYTE   W24
 BYTE   Dn2
 BYTE   W24
 BYTE   Bn1
 BYTE   W24
//  #02 //050   ----------------------------------------
 BYTE   N92
 BYTE   W96
//  #02 //051   ----------------------------------------
 BYTE   N44  Cn2
 BYTE   W48
 BYTE   N23  An1
 BYTE   W24
 BYTE   Cn2
 BYTE   W24
//  #02 //052   ----------------------------------------
 BYTE   PATT
  POIN2 Label_0109F4BE
//  #02 //053   ----------------------------------------
 BYTE   PATT
  POIN2 Label_0109F4D1
//  #02 //054   ----------------------------------------
 BYTE   PATT
  POIN2 Label_0109F4BE
//  #02 //055   ----------------------------------------
 BYTE   PATT
  POIN2 Label_0109F4E2
//  #02 //056   ----------------------------------------
 BYTE   N40  Dn2  v088
 BYTE   N23  Bn2
 BYTE   W24
 BYTE   An2
 BYTE   W24
 BYTE   N44  Fn1
 BYTE   N23  Dn2
 BYTE   W24
 BYTE   An1
 BYTE   W24
//  #02 //057   ----------------------------------------
 BYTE   N44  Gn1
 BYTE   N44  Bn1
 BYTE   W48
 BYTE   En2
 BYTE   W48
//  #02 //058   ----------------------------------------
 BYTE   TIE  En1
 BYTE   N44  Bn1
 BYTE   W48
 BYTE   TIE  Cn2
 BYTE   W48
//  #02 //059   ----------------------------------------
 BYTE   W92
 BYTE   W03
 BYTE   EOT
 BYTE   En1  v048
 BYTE   W01
//  #02 //060   ----------------------------------------
 BYTE   N92  An3  v100
 BYTE   N17  En4  v112
 BYTE   W12
 BYTE   Dn4  v108
 BYTE   W12
 BYTE   Cs4
 BYTE   W12
 BYTE   N56  Dn4  v104
 BYTE   W24
 BYTE   N17  Fn3  v112
 BYTE   W12
 BYTE   En3  v108
 BYTE   W12
 BYTE   N11  Dn3
 BYTE   W12
//  #02 //061   ----------------------------------------
 BYTE   N32
 BYTE   N32  Gn3  v100
 BYTE   N17  Dn4  v112
 BYTE   W12
 BYTE   Cn4  v108
 BYTE   W12
 BYTE   Bn3
 BYTE   W12
 BYTE   N56  Gn3
 BYTE   N56  Cn4  v104
 BYTE   W24
 BYTE   N17  Dn3  v112
 BYTE   W12
 BYTE   Cn3  v108
 BYTE   W12
 BYTE   N11  Bn2
 BYTE   W12
//  #02 //062   ----------------------------------------
 BYTE   N32  Cn3
 BYTE   N32  Fn3  v100
 BYTE   N17  Cn4  v112
 BYTE   W12
 BYTE   Bn3  v108
 BYTE   W12
 BYTE   An3
 BYTE   W12
 BYTE   N56  Fn3
 BYTE   N56  Bn3  v104
 BYTE   W24
 BYTE   N17  Cn3  v112
 BYTE   W12
 BYTE   Bn2  v108
 BYTE   W12
 BYTE   N11  An2
 BYTE   W12
//  #02 //063   ----------------------------------------
 BYTE   N56  Bn2
 BYTE   N32  En3  v100
 BYTE   N17  Cn4  v112
 BYTE   W12
 BYTE   Bn3  v104
 BYTE   W12
 BYTE   N56  Gn3
 BYTE   W12
 BYTE   N32  En3
 BYTE   W24
 BYTE   N11  Dn3  v112
 BYTE   W12
 BYTE   En3
 BYTE   W12
 BYTE   Gn3
 BYTE   W12
//  #02 //064   ----------------------------------------
 BYTE   N92  Dn3  v100
 BYTE   N92  An3
 BYTE   N17  En4  v112
 BYTE   W12
 BYTE   Dn4  v108
 BYTE   W12
 BYTE   Cs4
 BYTE   W12
 BYTE   N56  Dn4  v104
 BYTE   W60
//  #02 //065   ----------------------------------------
 BYTE   N92  Cn3  v100
 BYTE   N92  Gn3
 BYTE   N17  Dn4  v112
 BYTE   W12
 BYTE   Cn4  v108
 BYTE   W12
 BYTE   Bn3
 BYTE   W12
 BYTE   N56  Cn4  v104
 BYTE   W60
//  #02 //066   ----------------------------------------
 BYTE   N92  An2  v100
 BYTE   N92  Fs3
 BYTE   N17  Cn4  v112
 BYTE   W12
 BYTE   Bn3  v108
 BYTE   W12
 BYTE   As3
 BYTE   W12
 BYTE   N56  Bn3  v104
 BYTE   W24
 BYTE   N17  Ds3  v108
 BYTE   W12
 BYTE   Dn3
 BYTE   W12
 BYTE   N11  Ds3
 BYTE   W12
//  #02 //067   ----------------------------------------
 BYTE   N92  Gs2  v100
 BYTE   TIE  En3
 BYTE   N17  Cn4  v112
 BYTE   W12
 BYTE   Bn3  v108
 BYTE   W12
 BYTE   As3
 BYTE   W12
 BYTE   TIE  Bn3  v104
 BYTE   W60
//  #02 //068   ----------------------------------------
 BYTE   W44
 BYTE   W03
 BYTE   EOT
 BYTE   En3  v071
 BYTE   W01
 BYTE   N24  Dn4
 BYTE   W24
 BYTE   En4
 BYTE   W24
//  #02 //069   ----------------------------------------
Label_0109F60B:
 BYTE   N60  Cn3  v104
 BYTE   W60
 BYTE   N15  As2
 BYTE   W12
 BYTE   N13  An2
 BYTE   W12
 BYTE   N14  Gn2
 BYTE   W12
 BYTE   PEND
//  #02 //070   ----------------------------------------
Label_0109F619:
 BYTE   N44  Dn2  v104
 BYTE   W48
 BYTE   N23  An1
 BYTE   W24
 BYTE   As1  v100
 BYTE   W24
 BYTE   PEND
//  #02 //071   ----------------------------------------
 BYTE   N32  Bn1
 BYTE   W36
 BYTE   N78  Gn2
 BYTE   W12
 BYTE   N12  An3  v060
 BYTE   W08
 BYTE   N13  Bn3
 BYTE   W08
 BYTE   N09  Cn4
 BYTE   W08
 BYTE   N10  Dn4
 BYTE   W08
 BYTE   N09  Cn4
 BYTE   W08
 BYTE   N07  Bn3
 BYTE   W08
//  #02 //072   ----------------------------------------
 BYTE   N07
 BYTE   W08
 BYTE   Gn3
 BYTE   W08
 BYTE   Bn3
 BYTE   W08
 BYTE   Gn3
 BYTE   W08
 BYTE   En3
 BYTE   W08
 BYTE   Gn3
 BYTE   W08
 BYTE   N23  Dn2  v104
 BYTE   N07  En3  v060
 BYTE   W08
 BYTE   Bn2
 BYTE   W08
 BYTE   En3
 BYTE   W08
 BYTE   N23  En2  v100
 BYTE   N07  Bn2  v060
 BYTE   W08
 BYTE   Gn2
 BYTE   W08
 BYTE   Bn2
 BYTE   W08
//  #02 //073   ----------------------------------------
 BYTE   PATT
  POIN2 Label_0109F60B
//  #02 //074   ----------------------------------------
 BYTE   PATT
  POIN2 Label_0109F619
//  #02 //075   ----------------------------------------
 BYTE   N32  Cn2  v100
 BYTE   W36
 BYTE   N92  Gn1
 BYTE   N92  Gn2
 BYTE   W12
 BYTE   N12  An3  v060
 BYTE   W08
 BYTE   N13  Bn3
 BYTE   W08
 BYTE   N09  Cn4
 BYTE   W08
 BYTE   N10  Dn4
 BYTE   W08
 BYTE   N09  Cn4
 BYTE   W08
 BYTE   N07  Bn3
 BYTE   W08
//  #02 //076   ----------------------------------------
 BYTE   N07
 BYTE   W08
 BYTE   Gn3
 BYTE   W08
 BYTE   Bn3
 BYTE   W08
 BYTE   Gn3
 BYTE   W08
 BYTE   En3
 BYTE   W08
 BYTE   Gn3
 BYTE   W08
 BYTE   N24  Dn2  v088
 BYTE   N07  En3  v060
 BYTE   W08
 BYTE   Bn2
 BYTE   W08
 BYTE   En3
 BYTE   W08
 BYTE   N23  En2  v104
 BYTE   N07  Bn2  v060
 BYTE   N23  En3  v104
 BYTE   W08
 BYTE   N07  Gn2  v060
 BYTE   W08
 BYTE   Bn2
 BYTE   W08
//  #02 //077   ----------------------------------------
 BYTE   N56  Fn2  v092
 BYTE   N56  Fn3
 BYTE   W60
 BYTE   N11  En2  v088
 BYTE   N11  En3
 BYTE   W12
 BYTE   Dn2  v072
 BYTE   N11  Dn3
 BYTE   W12
 BYTE   An1  v068
 BYTE   N11  An2
 BYTE   W12
//  #02 //078   ----------------------------------------
 BYTE   N44  Gs1  v076
 BYTE   N44  Gs2
 BYTE   W48
 BYTE   N23  En2  v088
 BYTE   W24
 BYTE   Dn2
 BYTE   N23  Dn3
 BYTE   W24
//  #02 //079   ----------------------------------------
 BYTE   N56  Dn2
 BYTE   N56  Dn3
 BYTE   W60
 BYTE   N11  Cn2  v092
 BYTE   N11  Cn3
 BYTE   W12
 BYTE   Dn2
 BYTE   N11  Dn3
 BYTE   W12
 BYTE   En2  v088
 BYTE   N11  En3
 BYTE   W12
//  #02 //080   ----------------------------------------
 BYTE   N44  An1  v092
 BYTE   N44  An2
 BYTE   W48
 BYTE   N23  Bn1  v072
 BYTE   N23  Bn2
 BYTE   W24
 BYTE   Cn2
 BYTE   N23  Cn3
 BYTE   W24
//  #02 //081   ----------------------------------------
 BYTE   N68  An1  v092
 BYTE   N68  An2
 BYTE   W72
 BYTE   N11  Dn2
 BYTE   N11  Dn3
 BYTE   W12
 BYTE   Cn2
 BYTE   N11  Cn3
 BYTE   W12
//  #02 //082   ----------------------------------------
Label_0109F703:
 BYTE   N44  Bn1  v092
 BYTE   N44  Bn2
 BYTE   W48
 BYTE   Gn1
 BYTE   N44  Gn2
 BYTE   W48
 BYTE   PEND
//  #02 //083   ----------------------------------------
 BYTE   N92  Gn1
 BYTE   N92  Gn2
 BYTE   W96
//  #02 //084   ----------------------------------------
 BYTE   N68  An1
 BYTE   N68  An2
 BYTE   W72
 BYTE   N11  An1
 BYTE   N11  An2
 BYTE   W12
 BYTE   Bn1  v088
 BYTE   N11  Bn2
 BYTE   W12
//  #02 //085   ----------------------------------------
 BYTE   N32  Cn2  v092
 BYTE   N32  Cn3
 BYTE   W36
 BYTE   An1
 BYTE   N32  An2
 BYTE   W36
 BYTE   N11  Dn2
 BYTE   N11  Dn3
 BYTE   W12
 BYTE   Cn2
 BYTE   N11  Cn3
 BYTE   W12
//  #02 //086   ----------------------------------------
 BYTE   PATT
  POIN2 Label_0109F703
//  #02 //087   ----------------------------------------
 BYTE   N92  Gn1  v092
 BYTE   N92  Gn2
 BYTE   W96
//  #02 //088   ----------------------------------------
 BYTE   An1
 BYTE   N92  An2
 BYTE   W96
//  #02 //089   ----------------------------------------
 BYTE   W96
//  #02 //090   ----------------------------------------
 BYTE   GoTo
  POIN2 Label_0109F2EE
 BYTE   FINE

//**************** Track 3 (Midi-Chn.2) ****************//

FrozenGrounds_003:
//  #03 //000   ----------------------------------------
 BYTE   KEYSH   FrozenGrounds_key+0
Label_F17236:
 BYTE   VOICE   36
 BYTE   VOL   60*FrozenGrounds_mvl/mxv
 BYTE   PAN   c_v+0
 BYTE   W96
//  #03 //001   ----------------------------------------
 BYTE   W96
//  #03 //002   ----------------------------------------
 BYTE   W96
//  #03 //003   ----------------------------------------
 BYTE   W96
//  #03 //004   ----------------------------------------
 BYTE   W96
//  #03 //005   ----------------------------------------
 BYTE   W96
//  #03 //006   ----------------------------------------
 BYTE   W96
//  #03 //007   ----------------------------------------
 BYTE   W96
//  #03 //008   ----------------------------------------
 BYTE   W96
//  #03 //009   ----------------------------------------
 BYTE   W96
//  #03 //010   ----------------------------------------
 BYTE   W96
//  #03 //011   ----------------------------------------
 BYTE   W96
//  #03 //012   ----------------------------------------
 BYTE   W96
//  #03 //013   ----------------------------------------
 BYTE   W96
//  #03 //014   ----------------------------------------
 BYTE   W96
//  #03 //015   ----------------------------------------
 BYTE   W96
//  #03 //016   ----------------------------------------
 BYTE   W96
//  #03 //017   ----------------------------------------
 BYTE   W96
//  #03 //018   ----------------------------------------
 BYTE   W96
//  #03 //019   ----------------------------------------
 BYTE   W96
//  #03 //020   ----------------------------------------
 BYTE   W96
//  #03 //021   ----------------------------------------
 BYTE   W96
//  #03 //022   ----------------------------------------
 BYTE   W96
//  #03 //023   ----------------------------------------
 BYTE   W96
//  #03 //024   ----------------------------------------
 BYTE   W96
//  #03 //025   ----------------------------------------
 BYTE   W96
//  #03 //026   ----------------------------------------
 BYTE   W96
//  #03 //027   ----------------------------------------
 BYTE   W96
//  #03 //028   ----------------------------------------
 BYTE   W96
//  #03 //029   ----------------------------------------
 BYTE   W96
//  #03 //030   ----------------------------------------
 BYTE   W96
//  #03 //031   ----------------------------------------
 BYTE   W96
//  #03 //032   ----------------------------------------
 BYTE   W96
//  #03 //033   ----------------------------------------
 BYTE   W96
//  #03 //034   ----------------------------------------
 BYTE   W96
//  #03 //035   ----------------------------------------
 BYTE   W96
//  #03 //036   ----------------------------------------
 BYTE   W96
//  #03 //037   ----------------------------------------
 BYTE   W96
//  #03 //038   ----------------------------------------
 BYTE   W96
//  #03 //039   ----------------------------------------
 BYTE   W96
//  #03 //040   ----------------------------------------
 BYTE   W96
//  #03 //041   ----------------------------------------
 BYTE   W96
//  #03 //042   ----------------------------------------
 BYTE   W96
//  #03 //043   ----------------------------------------
 BYTE   W96
//  #03 //044   ----------------------------------------
 BYTE   W96
//  #03 //045   ----------------------------------------
 BYTE   W96
//  #03 //046   ----------------------------------------
 BYTE   W96
//  #03 //047   ----------------------------------------
 BYTE   W96
//  #03 //048   ----------------------------------------
 BYTE   W96
//  #03 //049   ----------------------------------------
 BYTE   W96
//  #03 //050   ----------------------------------------
 BYTE   W96
//  #03 //051   ----------------------------------------
 BYTE   W96
//  #03 //052   ----------------------------------------
 BYTE   W96
//  #03 //053   ----------------------------------------
 BYTE   W96
//  #03 //054   ----------------------------------------
 BYTE   W96
//  #03 //055   ----------------------------------------
 BYTE   W96
//  #03 //056   ----------------------------------------
 BYTE   W96
//  #03 //057   ----------------------------------------
 BYTE   W96
//  #03 //058   ----------------------------------------
 BYTE   W96
//  #03 //059   ----------------------------------------
 BYTE   W96
//  #03 //060   ----------------------------------------
 BYTE   W96
//  #03 //061   ----------------------------------------
 BYTE   W96
//  #03 //062   ----------------------------------------
 BYTE   W96
//  #03 //063   ----------------------------------------
 BYTE   W96
//  #03 //064   ----------------------------------------
 BYTE   W96
//  #03 //065   ----------------------------------------
 BYTE   W96
//  #03 //066   ----------------------------------------
 BYTE   W96
//  #03 //067   ----------------------------------------
 BYTE   W96
//  #03 //068   ----------------------------------------
 BYTE   W96
//  #03 //069   ----------------------------------------
 BYTE   N84  As0  v068
 BYTE   N84  Fn1
 BYTE   W96
//  #03 //070   ----------------------------------------
 BYTE   N92  As0
 BYTE   N92  Fn1
 BYTE   W96
//  #03 //071   ----------------------------------------
Label_F1728C:
 BYTE   TIE  Bn0  v068
 BYTE   TIE  En1
 BYTE   W96
 BYTE   PEND
//  #03 //072   ----------------------------------------
 BYTE   W92
 BYTE   W03
 BYTE   EOT
 BYTE   Bn0  v040
 BYTE   W01
//  #03 //073   ----------------------------------------
 BYTE   N84  As0
 BYTE   N84  Fn1
 BYTE   W96
//  #03 //074   ----------------------------------------
 BYTE   N92  As0
 BYTE   N92  Fn1
 BYTE   W96
//  #03 //075   ----------------------------------------
 BYTE   PATT
  POIN2 Label_F1728C
//  #03 //076   ----------------------------------------
 BYTE   W92
 BYTE   W03
 BYTE   EOT
 BYTE   Bn0  v040
 BYTE   W01
//  #03 //077   ----------------------------------------
 BYTE   N92  Cn1  v068
 BYTE   N92  Fn1
 BYTE   W96
//  #03 //078   ----------------------------------------
 BYTE   N32  Cn1
 BYTE   N92  En1
 BYTE   W36
 BYTE   N56  Bn0
 BYTE   W60
//  #03 //079   ----------------------------------------
 BYTE   N92
 BYTE   N92  Gn1
 BYTE   W36
 BYTE   N56  Dn1
 BYTE   W60
//  #03 //080   ----------------------------------------
 BYTE   N92  Cn1
 BYTE   N92  Fs1
 BYTE   W96
//  #03 //081   ----------------------------------------
 BYTE   Cn1
 BYTE   N92  Gn1
 BYTE   W96
//  #03 //082   ----------------------------------------
 BYTE   An0
 BYTE   N92  Dn1
 BYTE   W96
//  #03 //083   ----------------------------------------
 BYTE   Bn0
 BYTE   N92  En1
 BYTE   W96
//  #03 //084   ----------------------------------------
 BYTE   Bn0
 BYTE   N92  En1
 BYTE   W96
//  #03 //085   ----------------------------------------
 BYTE   Cn1
 BYTE   N92  Gn1
 BYTE   W96
//  #03 //086   ----------------------------------------
 BYTE   An0
 BYTE   N92  Dn1
 BYTE   W96
//  #03 //087   ----------------------------------------
 BYTE   PATT
  POIN2 Label_F1728C
//  #03 //088   ----------------------------------------
 BYTE   W80
 BYTE   W03
 BYTE   EOT
 BYTE   Bn0  v040
 BYTE   W13
//  #03 //089   ----------------------------------------
 BYTE   W96
//  #03 //090   ----------------------------------------
 BYTE   GoTo
  POIN2 Label_F17236
 BYTE   FINE

//**************** Track 4 (Midi-Chn.3) ****************//

FrozenGrounds_004:
//  #04 //000   ----------------------------------------
 BYTE   KEYSH   FrozenGrounds_key+0
Label_0109F74E:
 BYTE   VOICE   20
 BYTE   PAN   c_v+0
 BYTE   VOL   61*FrozenGrounds_mvl/mxv
 BYTE   PAN   c_v+14
 BYTE   N92  Gs3  v084
 BYTE   W96
//  #04 //001   ----------------------------------------
Label_0109F75A:
 BYTE   N68  Gn3  v084
 BYTE   W72
 BYTE   N23  Gs3
 BYTE   W24
 BYTE   PEND
//  #04 //002   ----------------------------------------
 BYTE   N92  Gn3
 BYTE   W96
//  #04 //003   ----------------------------------------
 BYTE   N80  Fn3
 BYTE   W84
 BYTE   N05
 BYTE   W06
 BYTE   Gn3
 BYTE   W06
//  #04 //004   ----------------------------------------
 BYTE   N92  Gs3
 BYTE   W96
//  #04 //005   ----------------------------------------
 BYTE   PATT
  POIN2 Label_0109F75A
//  #04 //006   ----------------------------------------
 BYTE   N92  Gn3  v084
 BYTE   W96
//  #04 //007   ----------------------------------------
 BYTE   Fn3
 BYTE   W96
//  #04 //008   ----------------------------------------
 BYTE   N80  En3  v096
 BYTE   W84
 BYTE   N11  Dn3
 BYTE   W12
//  #04 //009   ----------------------------------------
 BYTE   N92  Gn3
 BYTE   W96
//  #04 //010   ----------------------------------------
 BYTE   N80  Gs3
 BYTE   W84
 BYTE   N11  Fn3
 BYTE   W12
//  #04 //011   ----------------------------------------
 BYTE   N92  As3
 BYTE   W96
//  #04 //012   ----------------------------------------
 BYTE   N80  Cn4
 BYTE   W84
 BYTE   N11  As3
 BYTE   W12
//  #04 //013   ----------------------------------------
 BYTE   N80  Ds4
 BYTE   W84
 BYTE   N11  Fn4
 BYTE   W12
//  #04 //014   ----------------------------------------
 BYTE   TIE  Cn4
 BYTE   W96
//  #04 //015   ----------------------------------------
 BYTE   W92
 BYTE   W03
 BYTE   EOT
 BYTE   W01
//  #04 //016   ----------------------------------------
 BYTE   W96
//  #04 //017   ----------------------------------------
 BYTE   W96
//  #04 //018   ----------------------------------------
 BYTE   W96
//  #04 //019   ----------------------------------------
 BYTE   W96
//  #04 //020   ----------------------------------------
 BYTE   W96
//  #04 //021   ----------------------------------------
 BYTE   W96
//  #04 //022   ----------------------------------------
 BYTE   W96
//  #04 //023   ----------------------------------------
 BYTE   W96
//  #04 //024   ----------------------------------------
 BYTE   W96
//  #04 //025   ----------------------------------------
 BYTE   W96
//  #04 //026   ----------------------------------------
 BYTE   W96
//  #04 //027   ----------------------------------------
 BYTE   W96
//  #04 //028   ----------------------------------------
 BYTE   W96
//  #04 //029   ----------------------------------------
 BYTE   W96
//  #04 //030   ----------------------------------------
 BYTE   W96
//  #04 //031   ----------------------------------------
 BYTE   W96
//  #04 //032   ----------------------------------------
 BYTE   W96
//  #04 //033   ----------------------------------------
 BYTE   W96
//  #04 //034   ----------------------------------------
 BYTE   W96
//  #04 //035   ----------------------------------------
 BYTE   W96
//  #04 //036   ----------------------------------------
 BYTE   W96
//  #04 //037   ----------------------------------------
 BYTE   W96
//  #04 //038   ----------------------------------------
 BYTE   W96
//  #04 //039   ----------------------------------------
 BYTE   W96
//  #04 //040   ----------------------------------------
 BYTE   W96
//  #04 //041   ----------------------------------------
 BYTE   W96
//  #04 //042   ----------------------------------------
 BYTE   W96
//  #04 //043   ----------------------------------------
 BYTE   W96
//  #04 //044   ----------------------------------------
Label_0109F7BC:
 BYTE   N11  Gn5  v056
 BYTE   W12
 BYTE   Cn5
 BYTE   W12
 BYTE   Gn5
 BYTE   W12
 BYTE   Cn5
 BYTE   W12
 BYTE   Gn5
 BYTE   W12
 BYTE   Cn5
 BYTE   W12
 BYTE   Gn5
 BYTE   W12
 BYTE   Cn5
 BYTE   W12
 BYTE   PEND
//  #04 //045   ----------------------------------------
 BYTE   Cn5  v048
 BYTE   W12
 BYTE   Gn4
 BYTE   W12
 BYTE   Cn5  v044
 BYTE   W12
 BYTE   Gn4
 BYTE   W12
 BYTE   Cn5
 BYTE   W12
 BYTE   Gn4
 BYTE   W12
 BYTE   Cn5
 BYTE   W12
 BYTE   Gn4  v040
 BYTE   W12
//  #04 //046   ----------------------------------------
 BYTE   PATT
  POIN2 Label_0109F7BC
//  #04 //047   ----------------------------------------
 BYTE   N11  Bn4  v044
 BYTE   W12
 BYTE   Gn4  v040
 BYTE   W12
 BYTE   Bn4
 BYTE   W12
 BYTE   Gn4  v036
 BYTE   W12
 BYTE   Bn4
 BYTE   W12
 BYTE   Gn4
 BYTE   W12
 BYTE   Bn4
 BYTE   W12
 BYTE   Gn4
 BYTE   W12
//  #04 //048   ----------------------------------------
 BYTE   N23  An4  v072
 BYTE   W24
 BYTE   Gn4
 BYTE   W24
 BYTE   An4
 BYTE   W24
 BYTE   Bn4
 BYTE   W24
//  #04 //049   ----------------------------------------
 BYTE   N23
 BYTE   W24
 BYTE   An4
 BYTE   W24
 BYTE   Bn4
 BYTE   W24
 BYTE   Gn4
 BYTE   W24
//  #04 //050   ----------------------------------------
 BYTE   N68  Dn4
 BYTE   W72
 BYTE   N23  Gn4
 BYTE   W24
//  #04 //051   ----------------------------------------
 BYTE   N44  En4
 BYTE   W48
 BYTE   N23  Dn4
 BYTE   W24
 BYTE   An4
 BYTE   W24
//  #04 //052   ----------------------------------------
Label_0109F81B:
 BYTE   N11  Gn5  v056
 BYTE   W12
 BYTE   Cn5
 BYTE   W12
 BYTE   Gn5
 BYTE   W12
 BYTE   Cn5
 BYTE   W12
 BYTE   Gn5
 BYTE   W12
 BYTE   Cn5
 BYTE   W12
 BYTE   Gn5  v028
 BYTE   W12
 BYTE   Cn5
 BYTE   W12
 BYTE   PEND
//  #04 //053   ----------------------------------------
 BYTE   N11
 BYTE   W12
 BYTE   Gn4
 BYTE   W12
 BYTE   Cn5
 BYTE   W12
 BYTE   Gn4
 BYTE   W12
 BYTE   Cn5
 BYTE   W12
 BYTE   Gn4
 BYTE   W12
 BYTE   Cn5
 BYTE   W12
 BYTE   Gn4
 BYTE   W12
//  #04 //054   ----------------------------------------
 BYTE   PATT
  POIN2 Label_0109F81B
//  #04 //055   ----------------------------------------
 BYTE   N11  Bn4  v028
 BYTE   W12
 BYTE   Gn4
 BYTE   W12
 BYTE   Bn4
 BYTE   W12
 BYTE   Gn4
 BYTE   W12
 BYTE   Bn4
 BYTE   W12
 BYTE   Gn4
 BYTE   W12
 BYTE   Bn4
 BYTE   W12
 BYTE   Gn4
 BYTE   W12
//  #04 //056   ----------------------------------------
 BYTE   W96
//  #04 //057   ----------------------------------------
 BYTE   W96
//  #04 //058   ----------------------------------------
 BYTE   W96
//  #04 //059   ----------------------------------------
 BYTE   W96
//  #04 //060   ----------------------------------------
 BYTE   W96
//  #04 //061   ----------------------------------------
 BYTE   W96
//  #04 //062   ----------------------------------------
 BYTE   W96
//  #04 //063   ----------------------------------------
 BYTE   W96
//  #04 //064   ----------------------------------------
 BYTE   W96
//  #04 //065   ----------------------------------------
 BYTE   W96
//  #04 //066   ----------------------------------------
 BYTE   W96
//  #04 //067   ----------------------------------------
 BYTE   W96
//  #04 //068   ----------------------------------------
 BYTE   W96
//  #04 //069   ----------------------------------------
 BYTE   W96
//  #04 //070   ----------------------------------------
 BYTE   W96
//  #04 //071   ----------------------------------------
 BYTE   W96
//  #04 //072   ----------------------------------------
 BYTE   W96
//  #04 //073   ----------------------------------------
 BYTE   W96
//  #04 //074   ----------------------------------------
 BYTE   W96
//  #04 //075   ----------------------------------------
 BYTE   W96
//  #04 //076   ----------------------------------------
 BYTE   W96
//  #04 //077   ----------------------------------------
 BYTE   W96
//  #04 //078   ----------------------------------------
 BYTE   W96
//  #04 //079   ----------------------------------------
 BYTE   W96
//  #04 //080   ----------------------------------------
 BYTE   W96
//  #04 //081   ----------------------------------------
 BYTE   W96
//  #04 //082   ----------------------------------------
 BYTE   W96
//  #04 //083   ----------------------------------------
 BYTE   W96
//  #04 //084   ----------------------------------------
 BYTE   W96
//  #04 //085   ----------------------------------------
 BYTE   W96
//  #04 //086   ----------------------------------------
 BYTE   W96
//  #04 //087   ----------------------------------------
 BYTE   W96
//  #04 //088   ----------------------------------------
 BYTE   W96
//  #04 //089   ----------------------------------------
 BYTE   W96
//  #04 //090   ----------------------------------------
 BYTE   GoTo
  POIN2 Label_0109F74E
 BYTE   FINE

//**************** Track 5 (Midi-Chn.4) ****************//

FrozenGrounds_005:
//  #05 //000   ----------------------------------------
 BYTE   KEYSH   FrozenGrounds_key+0
Label_F16C62:
 BYTE   VOICE   38
 BYTE   VOL   67*FrozenGrounds_mvl/mxv
 BYTE   PAN   c_v+0
 BYTE   N32  Fn2  v092
 BYTE   W36
 BYTE   N56  Fn1
 BYTE   W60
//  #05 //001   ----------------------------------------
Label_F16C6F:
 BYTE   N32  Gs1  v092
 BYTE   W36
 BYTE   N56
 BYTE   W60
 BYTE   PEND
//  #05 //002   ----------------------------------------
Label_F16C76:
 BYTE   N32  Cs1  v092
 BYTE   W36
 BYTE   N56
 BYTE   W60
 BYTE   PEND
//  #05 //003   ----------------------------------------
Label_F16C7D:
 BYTE   N32  As1  v092
 BYTE   W36
 BYTE   N56
 BYTE   W60
 BYTE   PEND
//  #05 //004   ----------------------------------------
 BYTE   N32  Fn1
 BYTE   W36
 BYTE   N56
 BYTE   W60
//  #05 //005   ----------------------------------------
 BYTE   PATT
  POIN2 Label_F16C6F
//  #05 //006   ----------------------------------------
 BYTE   PATT
  POIN2 Label_F16C76
//  #05 //007   ----------------------------------------
 BYTE   PATT
  POIN2 Label_F16C7D
//  #05 //008   ----------------------------------------
 BYTE   N92  An1  v092
 BYTE   W96
//  #05 //009   ----------------------------------------
 BYTE   Fn2
 BYTE   W96
//  #05 //010   ----------------------------------------
 BYTE   Cs2
 BYTE   W96
//  #05 //011   ----------------------------------------
 BYTE   As1
 BYTE   W96
//  #05 //012   ----------------------------------------
 BYTE   TIE  Fs1
 BYTE   W96
//  #05 //013   ----------------------------------------
 BYTE   W92
 BYTE   W03
 BYTE   EOT
 BYTE   W01
//  #05 //014   ----------------------------------------
 BYTE   TIE  Gs1
 BYTE   W96
//  #05 //015   ----------------------------------------
 BYTE   W92
 BYTE   W03
 BYTE   EOT
 BYTE   W01
//  #05 //016   ----------------------------------------
 BYTE   N92  Gs1  v032
 BYTE   W96
//  #05 //017   ----------------------------------------
 BYTE   As1  v092
 BYTE   W96
//  #05 //018   ----------------------------------------
 BYTE   N92
 BYTE   W96
//  #05 //019   ----------------------------------------
 BYTE   Fs1
 BYTE   W96
//  #05 //020   ----------------------------------------
 BYTE   N92
 BYTE   W96
//  #05 //021   ----------------------------------------
 BYTE   As1
 BYTE   W96
//  #05 //022   ----------------------------------------
 BYTE   N92
 BYTE   W96
//  #05 //023   ----------------------------------------
 BYTE   Fs1
 BYTE   W96
//  #05 //024   ----------------------------------------
 BYTE   N92
 BYTE   W96
//  #05 //025   ----------------------------------------
 BYTE   Gs1
 BYTE   W96
//  #05 //026   ----------------------------------------
 BYTE   N92
 BYTE   W96
//  #05 //027   ----------------------------------------
 BYTE   As1
 BYTE   W96
//  #05 //028   ----------------------------------------
 BYTE   N92
 BYTE   W96
//  #05 //029   ----------------------------------------
 BYTE   Fs1
 BYTE   W96
//  #05 //030   ----------------------------------------
 BYTE   N92
 BYTE   W96
//  #05 //031   ----------------------------------------
 BYTE   Fn1
 BYTE   W96
//  #05 //032   ----------------------------------------
 BYTE   Gn1
 BYTE   W96
//  #05 //033   ----------------------------------------
 BYTE   TIE  An1
 BYTE   W96
//  #05 //034   ----------------------------------------
 BYTE   W96
//  #05 //035   ----------------------------------------
 BYTE   W92
 BYTE   W03
 BYTE   EOT
 BYTE   W01
//  #05 //036   ----------------------------------------
 BYTE   N92  As1
 BYTE   W96
//  #05 //037   ----------------------------------------
 BYTE   N92
 BYTE   W96
//  #05 //038   ----------------------------------------
 BYTE   Fs1
 BYTE   W96
//  #05 //039   ----------------------------------------
 BYTE   N92
 BYTE   W96
//  #05 //040   ----------------------------------------
 BYTE   As1
 BYTE   W96
//  #05 //041   ----------------------------------------
 BYTE   N92
 BYTE   W96
//  #05 //042   ----------------------------------------
 BYTE   Fs1
 BYTE   W96
//  #05 //043   ----------------------------------------
 BYTE   N92
 BYTE   W96
//  #05 //044   ----------------------------------------
 BYTE   An1
 BYTE   W96
//  #05 //045   ----------------------------------------
 BYTE   N92
 BYTE   W96
//  #05 //046   ----------------------------------------
 BYTE   Gn1
 BYTE   W96
//  #05 //047   ----------------------------------------
 BYTE   N92
 BYTE   W96
//  #05 //048   ----------------------------------------
 BYTE   Fn1
 BYTE   W96
//  #05 //049   ----------------------------------------
 BYTE   Gn1
 BYTE   W96
//  #05 //050   ----------------------------------------
 BYTE   An1
 BYTE   W96
//  #05 //051   ----------------------------------------
 BYTE   N92
 BYTE   W96
//  #05 //052   ----------------------------------------
 BYTE   N92
 BYTE   W96
//  #05 //053   ----------------------------------------
 BYTE   N92
 BYTE   W96
//  #05 //054   ----------------------------------------
 BYTE   Gn1
 BYTE   W96
//  #05 //055   ----------------------------------------
 BYTE   N92
 BYTE   W96
//  #05 //056   ----------------------------------------
 BYTE   Dn1
 BYTE   W96
//  #05 //057   ----------------------------------------
 BYTE   En1
 BYTE   W96
//  #05 //058   ----------------------------------------
 BYTE   TIE  An1
 BYTE   W96
//  #05 //059   ----------------------------------------
 BYTE   W92
 BYTE   W03
 BYTE   EOT
 BYTE   W01
//  #05 //060   ----------------------------------------
 BYTE   W96
//  #05 //061   ----------------------------------------
 BYTE   W96
//  #05 //062   ----------------------------------------
 BYTE   W96
//  #05 //063   ----------------------------------------
 BYTE   W96
//  #05 //064   ----------------------------------------
 BYTE   W96
//  #05 //065   ----------------------------------------
 BYTE   W96
//  #05 //066   ----------------------------------------
 BYTE   W96
//  #05 //067   ----------------------------------------
 BYTE   W96
//  #05 //068   ----------------------------------------
 BYTE   N92  En1  v088
 BYTE   W96
//  #05 //069   ----------------------------------------
Label_F16D1D:
 BYTE   N32  Gn1  v088
 BYTE   W36
 BYTE   N23  Dn2
 BYTE   W24
 BYTE   Gn1
 BYTE   W24
 BYTE   N11  Dn1
 BYTE   W12
 BYTE   PEND
//  #05 //070   ----------------------------------------
 BYTE   PATT
  POIN2 Label_F16D1D
//  #05 //071   ----------------------------------------
Label_F16D2F:
 BYTE   N32  An1  v088
 BYTE   W36
 BYTE   N23  En2
 BYTE   W24
 BYTE   An1
 BYTE   W24
 BYTE   N11  En1
 BYTE   W12
 BYTE   PEND
//  #05 //072   ----------------------------------------
 BYTE   PATT
  POIN2 Label_F16D2F
//  #05 //073   ----------------------------------------
 BYTE   PATT
  POIN2 Label_F16D1D
//  #05 //074   ----------------------------------------
 BYTE   PATT
  POIN2 Label_F16D1D
//  #05 //075   ----------------------------------------
 BYTE   PATT
  POIN2 Label_F16D2F
//  #05 //076   ----------------------------------------
 BYTE   PATT
  POIN2 Label_F16D2F
//  #05 //077   ----------------------------------------
 BYTE   N32  As1  v088
 BYTE   W36
 BYTE   N23  Fn2
 BYTE   W24
 BYTE   As1
 BYTE   W24
 BYTE   N11  Fn1
 BYTE   W12
//  #05 //078   ----------------------------------------
 BYTE   N32  En1
 BYTE   W36
 BYTE   N23  En2
 BYTE   W24
 BYTE   En1
 BYTE   W24
 BYTE   N11
 BYTE   W12
//  #05 //079   ----------------------------------------
 BYTE   N32  An1
 BYTE   W36
 BYTE   N23  En2
 BYTE   W24
 BYTE   An1
 BYTE   W24
 BYTE   N11
 BYTE   W12
//  #05 //080   ----------------------------------------
 BYTE   N32  Dn2
 BYTE   W36
 BYTE   N23  An2
 BYTE   W24
 BYTE   Dn2
 BYTE   W24
 BYTE   N11  An1
 BYTE   W12
//  #05 //081   ----------------------------------------
 BYTE   N32  Fn2
 BYTE   W36
 BYTE   N23  Cn2
 BYTE   W24
 BYTE   Fn2
 BYTE   W24
 BYTE   N11  Cn2
 BYTE   W12
//  #05 //082   ----------------------------------------
 BYTE   N32  Gn2
 BYTE   W36
 BYTE   N23  Dn2
 BYTE   W24
 BYTE   Gn2
 BYTE   W24
 BYTE   N11  Dn2
 BYTE   W12
//  #05 //083   ----------------------------------------
 BYTE   PATT
  POIN2 Label_F16D2F
//  #05 //084   ----------------------------------------
 BYTE   PATT
  POIN2 Label_F16D2F
//  #05 //085   ----------------------------------------
 BYTE   N32  Fn1  v088
 BYTE   W36
 BYTE   N23  Cn2
 BYTE   W24
 BYTE   Fn1
 BYTE   W24
 BYTE   N11  Cn2
 BYTE   W12
//  #05 //086   ----------------------------------------
 BYTE   N32  Gn1
 BYTE   W36
 BYTE   N23  Dn2
 BYTE   W24
 BYTE   Gn1
 BYTE   W24
 BYTE   N11  Dn2
 BYTE   W12
//  #05 //087   ----------------------------------------
 BYTE   TIE  An1
 BYTE   W96
//  #05 //088   ----------------------------------------
 BYTE   W96
//  #05 //089   ----------------------------------------
 BYTE   W11
 BYTE   EOT
 BYTE   W84
 BYTE   W01
//  #05 //090   ----------------------------------------
 BYTE   GoTo
  POIN2 Label_F16C62
 BYTE   FINE

//**************** Track 6 (Midi-Chn.5) ****************//

FrozenGrounds_006:
//  #06 //000   ----------------------------------------
 BYTE   KEYSH   FrozenGrounds_key+0
Label_0109FA2A:
 BYTE   VOICE   46
 BYTE   VOL   55*FrozenGrounds_mvl/mxv
 BYTE   PAN   c_v+0
 BYTE   W96
//  #06 //001   ----------------------------------------
 BYTE   W96
//  #06 //002   ----------------------------------------
 BYTE   W96
//  #06 //003   ----------------------------------------
 BYTE   W96
//  #06 //004   ----------------------------------------
 BYTE   W96
//  #06 //005   ----------------------------------------
 BYTE   W96
//  #06 //006   ----------------------------------------
 BYTE   W96
//  #06 //007   ----------------------------------------
 BYTE   W96
//  #06 //008   ----------------------------------------
 BYTE   W96
//  #06 //009   ----------------------------------------
 BYTE   W96
//  #06 //010   ----------------------------------------
 BYTE   W96
//  #06 //011   ----------------------------------------
 BYTE   W96
//  #06 //012   ----------------------------------------
 BYTE   W96
//  #06 //013   ----------------------------------------
 BYTE   W96
//  #06 //014   ----------------------------------------
 BYTE   W96
//  #06 //015   ----------------------------------------
 BYTE   W96
//  #06 //016   ----------------------------------------
 BYTE   W96
//  #06 //017   ----------------------------------------
Label_0109FA41:
 BYTE   N80  As1  v088
 BYTE   W12
 BYTE   N23  Fn2
 BYTE   W12
 BYTE   N44  Gs2
 BYTE   W12
 BYTE   N23  Fn2
 BYTE   W12
 BYTE   Ds3
 BYTE   W12
 BYTE   Fn2
 BYTE   W12
 BYTE   Gs2
 BYTE   W12
 BYTE   N11  Fn2
 BYTE   W12
 BYTE   PEND
//  #06 //018   ----------------------------------------
 BYTE   PATT
  POIN2 Label_0109FA41
//  #06 //019   ----------------------------------------
Label_0109FA5D:
 BYTE   N80  Fs1  v088
 BYTE   W12
 BYTE   N23  Cs2
 BYTE   W12
 BYTE   N44  Fn2
 BYTE   W12
 BYTE   N23  Cs2
 BYTE   W12
 BYTE   As2
 BYTE   W12
 BYTE   Cs2
 BYTE   W12
 BYTE   Fn2
 BYTE   W12
 BYTE   N11  Cs2
 BYTE   W12
 BYTE   PEND
//  #06 //020   ----------------------------------------
 BYTE   PATT
  POIN2 Label_0109FA5D
//  #06 //021   ----------------------------------------
 BYTE   PATT
  POIN2 Label_0109FA41
//  #06 //022   ----------------------------------------
 BYTE   PATT
  POIN2 Label_0109FA41
//  #06 //023   ----------------------------------------
 BYTE   PATT
  POIN2 Label_0109FA5D
//  #06 //024   ----------------------------------------
 BYTE   PATT
  POIN2 Label_0109FA5D
//  #06 //025   ----------------------------------------
Label_0109FA8D:
 BYTE   N92  Gs1  v092
 BYTE   W12
 BYTE   N17  Fn2
 BYTE   W12
 BYTE   As2
 BYTE   W12
 BYTE   Fn2
 BYTE   W12
 BYTE   Ds3
 BYTE   W12
 BYTE   As2
 BYTE   W12
 BYTE   Fn2
 BYTE   W12
 BYTE   As2
 BYTE   W12
 BYTE   PEND
//  #06 //026   ----------------------------------------
 BYTE   PATT
  POIN2 Label_0109FA8D
//  #06 //027   ----------------------------------------
Label_0109FAA6:
 BYTE   N92  As1  v092
 BYTE   W12
 BYTE   N17  Fn2
 BYTE   W12
 BYTE   Gs2
 BYTE   W12
 BYTE   Fn2
 BYTE   W12
 BYTE   Fn3
 BYTE   W12
 BYTE   Gs2
 BYTE   W12
 BYTE   Fn2
 BYTE   W12
 BYTE   Gs2
 BYTE   W12
 BYTE   PEND
//  #06 //028   ----------------------------------------
 BYTE   PATT
  POIN2 Label_0109FAA6
//  #06 //029   ----------------------------------------
Label_0109FABF:
 BYTE   N92  Fs1  v092
 BYTE   W12
 BYTE   N17  Cn2
 BYTE   W12
 BYTE   Fn2
 BYTE   W12
 BYTE   Cn2
 BYTE   W12
 BYTE   As2
 BYTE   W12
 BYTE   Fn2
 BYTE   W12
 BYTE   Cn2
 BYTE   W12
 BYTE   Fn2
 BYTE   W12
 BYTE   PEND
//  #06 //030   ----------------------------------------
 BYTE   PATT
  POIN2 Label_0109FABF
//  #06 //031   ----------------------------------------
 BYTE   N92  Fn1  v092
 BYTE   W12
 BYTE   N17  Cn2
 BYTE   W12
 BYTE   An2
 BYTE   W12
 BYTE   Cn2
 BYTE   W24
 BYTE   N17
 BYTE   W12
 BYTE   An2
 BYTE   W12
 BYTE   Cn2
 BYTE   W12
//  #06 //032   ----------------------------------------
 BYTE   N92  Gn1
 BYTE   W12
 BYTE   N17  Dn2
 BYTE   W12
 BYTE   Cn3
 BYTE   W12
 BYTE   Dn2
 BYTE   W24
 BYTE   N17
 BYTE   W12
 BYTE   Cn3
 BYTE   W12
 BYTE   Dn2
 BYTE   W12
//  #06 //033   ----------------------------------------
 BYTE   TIE  An1
 BYTE   TIE  Gn2
 BYTE   TIE  Bn2
 BYTE   TIE  En3
 BYTE   W96
//  #06 //034   ----------------------------------------
 BYTE   W96
//  #06 //035   ----------------------------------------
 BYTE   W88
 BYTE   W01
 BYTE   EOT
 BYTE   An1  v055
 BYTE   Bn2  v064
 BYTE   W07
//  #06 //036   ----------------------------------------
 BYTE   PATT
  POIN2 Label_0109FA41
//  #06 //037   ----------------------------------------
 BYTE   PATT
  POIN2 Label_0109FA41
//  #06 //038   ----------------------------------------
 BYTE   PATT
  POIN2 Label_0109FA5D
//  #06 //039   ----------------------------------------
 BYTE   PATT
  POIN2 Label_0109FA5D
//  #06 //040   ----------------------------------------
 BYTE   PATT
  POIN2 Label_0109FA41
//  #06 //041   ----------------------------------------
 BYTE   PATT
  POIN2 Label_0109FA41
//  #06 //042   ----------------------------------------
 BYTE   PATT
  POIN2 Label_0109FA5D
//  #06 //043   ----------------------------------------
 BYTE   PATT
  POIN2 Label_0109FA5D
//  #06 //044   ----------------------------------------
Label_0109FB33:
 BYTE   N92  An1  v092
 BYTE   W12
 BYTE   N17  Gn2
 BYTE   W12
 BYTE   Bn2
 BYTE   W12
 BYTE   Gn2
 BYTE   W12
 BYTE   En3
 BYTE   W12
 BYTE   Bn2
 BYTE   W12
 BYTE   Gn2
 BYTE   W12
 BYTE   Bn2
 BYTE   W12
 BYTE   PEND
//  #06 //045   ----------------------------------------
 BYTE   PATT
  POIN2 Label_0109FB33
//  #06 //046   ----------------------------------------
Label_0109FB4C:
 BYTE   N92  Gn1  v092
 BYTE   W12
 BYTE   N17  Dn2
 BYTE   W12
 BYTE   Gn2
 BYTE   W12
 BYTE   Dn2
 BYTE   W12
 BYTE   Cn3
 BYTE   W12
 BYTE   Gn2
 BYTE   W12
 BYTE   Dn2
 BYTE   W12
 BYTE   Gn2
 BYTE   W12
 BYTE   PEND
//  #06 //047   ----------------------------------------
Label_0109FB60:
 BYTE   N92  Gn1  v092
 BYTE   W12
 BYTE   N17  Dn2
 BYTE   W12
 BYTE   Gn2
 BYTE   W12
 BYTE   Dn2
 BYTE   W12
 BYTE   Bn2
 BYTE   W12
 BYTE   Gn2
 BYTE   W12
 BYTE   Dn2
 BYTE   W12
 BYTE   Gn2
 BYTE   W12
 BYTE   PEND
//  #06 //048   ----------------------------------------
 BYTE   N92  Fn1
 BYTE   W12
 BYTE   N17  Cn2
 BYTE   W12
 BYTE   Gn2
 BYTE   W12
 BYTE   Dn2
 BYTE   W12
 BYTE   Dn3
 BYTE   W12
 BYTE   Gn2
 BYTE   W12
 BYTE   Dn2
 BYTE   W12
 BYTE   Gn2
 BYTE   W12
//  #06 //049   ----------------------------------------
 BYTE   PATT
  POIN2 Label_0109FB60
//  #06 //050   ----------------------------------------
Label_0109FB8B:
 BYTE   N92  An1  v092
 BYTE   W12
 BYTE   N17  En2
 BYTE   W12
 BYTE   Gn2
 BYTE   W12
 BYTE   En2
 BYTE   W12
 BYTE   Dn3
 BYTE   W12
 BYTE   Gn2
 BYTE   W12
 BYTE   En2
 BYTE   W12
 BYTE   Gn2
 BYTE   W12
 BYTE   PEND
//  #06 //051   ----------------------------------------
 BYTE   PATT
  POIN2 Label_0109FB8B
//  #06 //052   ----------------------------------------
 BYTE   PATT
  POIN2 Label_0109FB33
//  #06 //053   ----------------------------------------
 BYTE   PATT
  POIN2 Label_0109FB33
//  #06 //054   ----------------------------------------
 BYTE   PATT
  POIN2 Label_0109FB4C
//  #06 //055   ----------------------------------------
 BYTE   PATT
  POIN2 Label_0109FB60
//  #06 //056   ----------------------------------------
 BYTE   N92  Dn2  v092
 BYTE   W12
 BYTE   N17  An2
 BYTE   W12
 BYTE   Dn3
 BYTE   W12
 BYTE   An2
 BYTE   W12
 BYTE   Fn3
 BYTE   W12
 BYTE   Dn3
 BYTE   W12
 BYTE   An2
 BYTE   W12
 BYTE   Dn3
 BYTE   W12
//  #06 //057   ----------------------------------------
 BYTE   N92  En2
 BYTE   W12
 BYTE   N17  Bn2
 BYTE   W12
 BYTE   Dn3
 BYTE   W12
 BYTE   Bn2
 BYTE   W12
 BYTE   Gn3
 BYTE   W12
 BYTE   Dn3
 BYTE   W12
 BYTE   Bn2
 BYTE   W12
 BYTE   Dn3
 BYTE   W12
//  #06 //058   ----------------------------------------
 BYTE   PATT
  POIN2 Label_0109FB33
//  #06 //059   ----------------------------------------
 BYTE   N88  An1  v092
 BYTE   W12
 BYTE   N17  Gn2
 BYTE   W12
 BYTE   Cn3
 BYTE   W12
 BYTE   N32  En3
 BYTE   W24
 BYTE   N17  Cn3
 BYTE   W12
 BYTE   En3
 BYTE   W12
 BYTE   N11  An3
 BYTE   W12
//  #06 //060   ----------------------------------------
 BYTE   N92  Fn2
 BYTE   N92  An2
 BYTE   N92  En3  v084
 BYTE   W96
//  #06 //061   ----------------------------------------
 BYTE   En2  v092
 BYTE   N92  Gn2
 BYTE   N92  Dn3  v084
 BYTE   W96
//  #06 //062   ----------------------------------------
 BYTE   Dn2  v092
 BYTE   N92  Fn2
 BYTE   N92  Cn3  v084
 BYTE   W96
//  #06 //063   ----------------------------------------
 BYTE   Cn2  v092
 BYTE   N92  En2
 BYTE   N92  Bn2  v084
 BYTE   W96
//  #06 //064   ----------------------------------------
 BYTE   N44  Fn3  v092
 BYTE   N92  An3
 BYTE   N17  En4  v104
 BYTE   W12
 BYTE   Dn4  v100
 BYTE   W12
 BYTE   Cs4  v096
 BYTE   W12
 BYTE   N28  Dn4
 BYTE   W24
 BYTE   N17  Fn3  v092
 BYTE   W12
 BYTE   En3
 BYTE   W12
 BYTE   Dn3
 BYTE   W12
//  #06 //065   ----------------------------------------
 BYTE   N44  Ds3
 BYTE   N92  Gn3
 BYTE   N17  Dn4  v104
 BYTE   W12
 BYTE   Cn4  v100
 BYTE   W12
 BYTE   Bn3  v096
 BYTE   W12
 BYTE   N23  Cn4
 BYTE   W24
 BYTE   N17  Ds3  v092
 BYTE   W12
 BYTE   Dn3
 BYTE   W12
 BYTE   Cn3
 BYTE   W12
//  #06 //066   ----------------------------------------
 BYTE   N92  An2
 BYTE   N56  Ds3
 BYTE   N92  Fs3
 BYTE   N17  Cn4  v104
 BYTE   W12
 BYTE   Bn3  v100
 BYTE   W12
 BYTE   As3  v096
 BYTE   W12
 BYTE   N23  Bn3
 BYTE   W24
 BYTE   N17  Ds3
 BYTE   W12
 BYTE   Dn3
 BYTE   W12
 BYTE   N11  Ds3
 BYTE   W12
//  #06 //067   ----------------------------------------
 BYTE   TIE  En1  v092
 BYTE   TIE  En2
 BYTE   TIE  Gs2
 BYTE   TIE  Dn3
 BYTE   TIE  Fn3
 BYTE   N17  Cn4  v104
 BYTE   W12
 BYTE   Bn3  v100
 BYTE   W12
 BYTE   As3  v096
 BYTE   W12
 BYTE   TIE  Bn3
 BYTE   W60
//  #06 //068   ----------------------------------------
 BYTE   W64
 BYTE   W01
 BYTE   EOT
 BYTE   W24
 BYTE   EOT
 BYTE   En1  v052
 BYTE   Gs2  v062
 BYTE   Fn3
 BYTE   W07
//  #06 //069   ----------------------------------------
Label_0109FC87:
 BYTE   N92  Gn1  v092
 BYTE   W12
 BYTE   Dn2
 BYTE   W12
 BYTE   As2
 BYTE   W12
 BYTE   Fn3
 BYTE   W60
 BYTE   PEND
//  #06 //070   ----------------------------------------
 BYTE   PATT
  POIN2 Label_0109FC87
//  #06 //071   ----------------------------------------
Label_0109FC97:
 BYTE   N92  An1  v092
 BYTE   W12
 BYTE   En2
 BYTE   W12
 BYTE   Cn3
 BYTE   W12
 BYTE   Gn3
 BYTE   W60
 BYTE   PEND
//  #06 //072   ----------------------------------------
 BYTE   PATT
  POIN2 Label_0109FC97
//  #06 //073   ----------------------------------------
 BYTE   PATT
  POIN2 Label_0109FC87
//  #06 //074   ----------------------------------------
 BYTE   PATT
  POIN2 Label_0109FC87
//  #06 //075   ----------------------------------------
 BYTE   PATT
  POIN2 Label_0109FC97
//  #06 //076   ----------------------------------------
 BYTE   PATT
  POIN2 Label_0109FC97
//  #06 //077   ----------------------------------------
 BYTE   N92  As1  v092
 BYTE   W12
 BYTE   Fn2  v088
 BYTE   W12
 BYTE   N32  Dn3
 BYTE   W12
 BYTE   N92  An3
 BYTE   W24
 BYTE   N44  Dn3
 BYTE   W36
//  #06 //078   ----------------------------------------
 BYTE   N92  Gs2  v092
 BYTE   W12
 BYTE   N44  Dn3  v088
 BYTE   W12
 BYTE   N68  Fn3
 BYTE   W12
 BYTE   N92  Bn3
 BYTE   W24
 BYTE   N11  Dn3
 BYTE   W12
 BYTE   Cn3  v080
 BYTE   W12
 BYTE   Dn3  v084
 BYTE   W12
//  #06 //079   ----------------------------------------
 BYTE   N92  An2  v092
 BYTE   W12
 BYTE   N44  En3  v088
 BYTE   W12
 BYTE   N80  Gn3
 BYTE   W12
 BYTE   N92  Cn4
 BYTE   W24
 BYTE   N56  En3
 BYTE   W36
//  #06 //080   ----------------------------------------
 BYTE   N92  Dn2  v092
 BYTE   W12
 BYTE   N68  An2  v088
 BYTE   W12
 BYTE   N32  Cn3
 BYTE   W12
 BYTE   N92  Fs3
 BYTE   W24
 BYTE   N32  Cn3  v084
 BYTE   W24
 BYTE   N23  An2
 BYTE   W12
//  #06 //081   ----------------------------------------
Label_0109FD08:
 BYTE   N92  Fn2  v092
 BYTE   W12
 BYTE   Cn3  v088
 BYTE   W12
 BYTE   N32  En3
 BYTE   W12
 BYTE   N92  An3
 BYTE   W24
 BYTE   N56  En3  v084
 BYTE   W36
 BYTE   PEND
//  #06 //082   ----------------------------------------
Label_0109FD1A:
 BYTE   N92  Gn2  v092
 BYTE   W12
 BYTE   Dn3  v088
 BYTE   W12
 BYTE   N32  En3
 BYTE   W12
 BYTE   N92  Bn3
 BYTE   W24
 BYTE   N56  En3  v084
 BYTE   W36
 BYTE   PEND
//  #06 //083   ----------------------------------------
Label_0109FD2C:
 BYTE   N92  An1  v092
 BYTE   W12
 BYTE   En2  v088
 BYTE   W12
 BYTE   N32  Gn2
 BYTE   W12
 BYTE   N92  Dn3
 BYTE   W24
 BYTE   N56  Gn2  v084
 BYTE   W36
 BYTE   PEND
//  #06 //084   ----------------------------------------
 BYTE   N92  An1  v092
 BYTE   W12
 BYTE   En2  v088
 BYTE   W12
 BYTE   N32  Gn2
 BYTE   W12
 BYTE   N68  Cn3
 BYTE   W24
 BYTE   N32  Gn2  v084
 BYTE   W36
//  #06 //085   ----------------------------------------
 BYTE   PATT
  POIN2 Label_0109FD08
//  #06 //086   ----------------------------------------
 BYTE   PATT
  POIN2 Label_0109FD1A
//  #06 //087   ----------------------------------------
 BYTE   PATT
  POIN2 Label_0109FD2C
//  #06 //088   ----------------------------------------
 BYTE   TIE  An1  v092
 BYTE   W12
 BYTE   En2  v088
 BYTE   W12
 BYTE   Gn2
 BYTE   W12
 BYTE   Cn3
 BYTE   W60
//  #06 //089   ----------------------------------------
 BYTE   W80
 BYTE   W03
 BYTE   EOT
 BYTE   An1  v052
 BYTE   W12
 BYTE   Gn2  v060
 BYTE   W01
//  #06 //090   ----------------------------------------
 BYTE   GoTo
  POIN2 Label_0109FA2A
 BYTE   FINE

//**************** Track 7 (Midi-Chn.6) ****************//

FrozenGrounds_007:
//  #07 //000   ----------------------------------------
 BYTE   KEYSH   FrozenGrounds_key+0
Label_F17176:
 BYTE   VOICE   106
 BYTE   VOL   25*FrozenGrounds_mvl/mxv
 BYTE   PAN   c_v+61
 BYTE   W12
 BYTE   BEND   c_v+0
 BYTE   N92  Gs3  v084
 BYTE   W06
 BYTE   BEND   c_v+0
 BYTE   W78
//  #07 //001   ----------------------------------------
Label_F17186:
 BYTE   W12
 BYTE   N68  Gn3  v084
 BYTE   W72
 BYTE   N23  Gs3
 BYTE   W12
 BYTE   PEND
//  #07 //002   ----------------------------------------
 BYTE   W12
 BYTE   N92  Gn3
 BYTE   W84
//  #07 //003   ----------------------------------------
 BYTE   W12
 BYTE   N68  Fn3
 BYTE   W72
 BYTE   N11
 BYTE   W12
//  #07 //004   ----------------------------------------
 BYTE   Gn3
 BYTE   W12
 BYTE   N92  Gs3
 BYTE   W84
//  #07 //005   ----------------------------------------
 BYTE   PATT
  POIN2 Label_F17186
//  #07 //006   ----------------------------------------
 BYTE   W12
 BYTE   N92  Gn3  v084
 BYTE   W84
//  #07 //007   ----------------------------------------
 BYTE   W12
 BYTE   Fn3
 BYTE   W84
//  #07 //008   ----------------------------------------
 BYTE   W96
//  #07 //009   ----------------------------------------
 BYTE   W96
//  #07 //010   ----------------------------------------
 BYTE   W96
//  #07 //011   ----------------------------------------
 BYTE   W96
//  #07 //012   ----------------------------------------
 BYTE   W96
//  #07 //013   ----------------------------------------
 BYTE   W96
//  #07 //014   ----------------------------------------
 BYTE   W96
//  #07 //015   ----------------------------------------
 BYTE   W96
//  #07 //016   ----------------------------------------
 BYTE   W96
//  #07 //017   ----------------------------------------
 BYTE   W96
//  #07 //018   ----------------------------------------
 BYTE   W96
//  #07 //019   ----------------------------------------
 BYTE   W96
//  #07 //020   ----------------------------------------
 BYTE   W96
//  #07 //021   ----------------------------------------
 BYTE   W96
//  #07 //022   ----------------------------------------
 BYTE   W96
//  #07 //023   ----------------------------------------
 BYTE   W96
//  #07 //024   ----------------------------------------
 BYTE   W96
//  #07 //025   ----------------------------------------
 BYTE   W96
//  #07 //026   ----------------------------------------
 BYTE   W96
//  #07 //027   ----------------------------------------
 BYTE   W96
//  #07 //028   ----------------------------------------
 BYTE   W96
//  #07 //029   ----------------------------------------
 BYTE   W96
//  #07 //030   ----------------------------------------
 BYTE   W96
//  #07 //031   ----------------------------------------
 BYTE   W96
//  #07 //032   ----------------------------------------
 BYTE   W96
//  #07 //033   ----------------------------------------
 BYTE   W96
//  #07 //034   ----------------------------------------
 BYTE   W96
//  #07 //035   ----------------------------------------
 BYTE   W96
//  #07 //036   ----------------------------------------
 BYTE   W96
//  #07 //037   ----------------------------------------
 BYTE   W96
//  #07 //038   ----------------------------------------
 BYTE   W96
//  #07 //039   ----------------------------------------
 BYTE   W96
//  #07 //040   ----------------------------------------
 BYTE   W96
//  #07 //041   ----------------------------------------
 BYTE   W96
//  #07 //042   ----------------------------------------
 BYTE   W96
//  #07 //043   ----------------------------------------
 BYTE   W96
//  #07 //044   ----------------------------------------
 BYTE   W96
//  #07 //045   ----------------------------------------
 BYTE   W96
//  #07 //046   ----------------------------------------
 BYTE   W96
//  #07 //047   ----------------------------------------
 BYTE   W96
//  #07 //048   ----------------------------------------
 BYTE   W96
//  #07 //049   ----------------------------------------
 BYTE   W96
//  #07 //050   ----------------------------------------
 BYTE   W96
//  #07 //051   ----------------------------------------
 BYTE   W96
//  #07 //052   ----------------------------------------
 BYTE   W96
//  #07 //053   ----------------------------------------
 BYTE   W96
//  #07 //054   ----------------------------------------
 BYTE   W96
//  #07 //055   ----------------------------------------
 BYTE   W96
//  #07 //056   ----------------------------------------
 BYTE   W96
//  #07 //057   ----------------------------------------
 BYTE   W96
//  #07 //058   ----------------------------------------
 BYTE   W96
//  #07 //059   ----------------------------------------
 BYTE   W96
//  #07 //060   ----------------------------------------
 BYTE   W96
//  #07 //061   ----------------------------------------
 BYTE   W96
//  #07 //062   ----------------------------------------
 BYTE   W96
//  #07 //063   ----------------------------------------
 BYTE   W96
//  #07 //064   ----------------------------------------
 BYTE   W96
//  #07 //065   ----------------------------------------
 BYTE   W96
//  #07 //066   ----------------------------------------
 BYTE   W96
//  #07 //067   ----------------------------------------
 BYTE   W96
//  #07 //068   ----------------------------------------
 BYTE   W96
//  #07 //069   ----------------------------------------
 BYTE   W96
//  #07 //070   ----------------------------------------
 BYTE   W96
//  #07 //071   ----------------------------------------
 BYTE   W96
//  #07 //072   ----------------------------------------
 BYTE   W96
//  #07 //073   ----------------------------------------
 BYTE   W96
//  #07 //074   ----------------------------------------
 BYTE   W96
//  #07 //075   ----------------------------------------
 BYTE   W96
//  #07 //076   ----------------------------------------
 BYTE   W96
//  #07 //077   ----------------------------------------
 BYTE   W96
//  #07 //078   ----------------------------------------
 BYTE   W96
//  #07 //079   ----------------------------------------
 BYTE   W96
//  #07 //080   ----------------------------------------
 BYTE   W96
//  #07 //081   ----------------------------------------
 BYTE   W96
//  #07 //082   ----------------------------------------
 BYTE   W96
//  #07 //083   ----------------------------------------
 BYTE   W96
//  #07 //084   ----------------------------------------
 BYTE   W96
//  #07 //085   ----------------------------------------
 BYTE   W96
//  #07 //086   ----------------------------------------
 BYTE   W96
//  #07 //087   ----------------------------------------
 BYTE   W96
//  #07 //088   ----------------------------------------
 BYTE   W96
//  #07 //089   ----------------------------------------
 BYTE   W96
//  #07 //090   ----------------------------------------
 BYTE   GoTo
  POIN2 Label_F17176
 BYTE   FINE

//**************** Track 8 (Midi-Chn.7) ****************//

FrozenGrounds_008:
//  #08 //000   ----------------------------------------
 BYTE   KEYSH   FrozenGrounds_key+0
Label_F1736A:
 BYTE   VOICE   106
 BYTE   VOL   40*FrozenGrounds_mvl/mxv
 BYTE   PAN   c_v+0
 BYTE   N92  Fn2  v100
 BYTE   N92  Cn3
 BYTE   W96
//  #08 //001   ----------------------------------------
 BYTE   Fn2
 BYTE   N92  Cn3
 BYTE   W96
//  #08 //002   ----------------------------------------
 BYTE   Fn2
 BYTE   N92  Cn3
 BYTE   W96
//  #08 //003   ----------------------------------------
 BYTE   Fn2
 BYTE   N92  As2
 BYTE   W96
//  #08 //004   ----------------------------------------
 BYTE   Fn2
 BYTE   N92  Cn3
 BYTE   W96
//  #08 //005   ----------------------------------------
 BYTE   Fn2
 BYTE   N92  Cn3
 BYTE   W96
//  #08 //006   ----------------------------------------
 BYTE   Fn2
 BYTE   N92  Cn3
 BYTE   W96
//  #08 //007   ----------------------------------------
 BYTE   Fn2
 BYTE   N92  As2
 BYTE   W96
//  #08 //008   ----------------------------------------
 BYTE   En2  v112
 BYTE   N92  Bn2
 BYTE   N92  Gn3
 BYTE   W96
//  #08 //009   ----------------------------------------
 BYTE   Gs2
 BYTE   N92  Cn3
 BYTE   N92  Gn3
 BYTE   W96
//  #08 //010   ----------------------------------------
 BYTE   Gs2
 BYTE   N92  Cn3
 BYTE   N92  Fn3
 BYTE   W96
//  #08 //011   ----------------------------------------
 BYTE   Gs2
 BYTE   N92  Cs3
 BYTE   N92  Fn3
 BYTE   W96
//  #08 //012   ----------------------------------------
 BYTE   As2
 BYTE   TIE  Cn3
 BYTE   TIE  Fn3
 BYTE   W96
//  #08 //013   ----------------------------------------
 BYTE   N92  As3
 BYTE   W92
 BYTE   W03
 BYTE   EOT
 BYTE   Cn3  v065
 BYTE   W01
//  #08 //014   ----------------------------------------
 BYTE   TIE  Fn2
 BYTE   TIE  Cn3
 BYTE   TIE  Fn3
 BYTE   W96
//  #08 //015   ----------------------------------------
 BYTE   W92
 BYTE   W03
 BYTE   EOT
 BYTE   Fn2  v060
 BYTE   Fn3
 BYTE   W01
//  #08 //016   ----------------------------------------
 BYTE   W96
//  #08 //017   ----------------------------------------
 BYTE   W96
//  #08 //018   ----------------------------------------
 BYTE   W96
//  #08 //019   ----------------------------------------
 BYTE   W96
//  #08 //020   ----------------------------------------
 BYTE   W96
//  #08 //021   ----------------------------------------
 BYTE   W96
//  #08 //022   ----------------------------------------
 BYTE   W96
//  #08 //023   ----------------------------------------
 BYTE   W96
//  #08 //024   ----------------------------------------
 BYTE   W96
//  #08 //025   ----------------------------------------
 BYTE   W96
//  #08 //026   ----------------------------------------
 BYTE   W96
//  #08 //027   ----------------------------------------
 BYTE   W96
//  #08 //028   ----------------------------------------
 BYTE   W96
//  #08 //029   ----------------------------------------
 BYTE   W96
//  #08 //030   ----------------------------------------
 BYTE   W96
//  #08 //031   ----------------------------------------
 BYTE   W96
//  #08 //032   ----------------------------------------
 BYTE   W96
//  #08 //033   ----------------------------------------
 BYTE   W96
//  #08 //034   ----------------------------------------
 BYTE   W96
//  #08 //035   ----------------------------------------
 BYTE   W96
//  #08 //036   ----------------------------------------
 BYTE   W96
//  #08 //037   ----------------------------------------
 BYTE   W96
//  #08 //038   ----------------------------------------
 BYTE   W96
//  #08 //039   ----------------------------------------
 BYTE   W96
//  #08 //040   ----------------------------------------
 BYTE   W96
//  #08 //041   ----------------------------------------
 BYTE   W96
//  #08 //042   ----------------------------------------
 BYTE   W96
//  #08 //043   ----------------------------------------
 BYTE   W96
//  #08 //044   ----------------------------------------
 BYTE   W96
//  #08 //045   ----------------------------------------
 BYTE   W96
//  #08 //046   ----------------------------------------
 BYTE   W96
//  #08 //047   ----------------------------------------
 BYTE   W96
//  #08 //048   ----------------------------------------
 BYTE   W96
//  #08 //049   ----------------------------------------
 BYTE   W96
//  #08 //050   ----------------------------------------
 BYTE   W96
//  #08 //051   ----------------------------------------
 BYTE   W96
//  #08 //052   ----------------------------------------
 BYTE   W96
//  #08 //053   ----------------------------------------
 BYTE   W96
//  #08 //054   ----------------------------------------
 BYTE   W96
//  #08 //055   ----------------------------------------
 BYTE   W96
//  #08 //056   ----------------------------------------
 BYTE   W96
//  #08 //057   ----------------------------------------
 BYTE   W96
//  #08 //058   ----------------------------------------
 BYTE   W96
//  #08 //059   ----------------------------------------
 BYTE   W96
//  #08 //060   ----------------------------------------
 BYTE   W96
//  #08 //061   ----------------------------------------
 BYTE   W96
//  #08 //062   ----------------------------------------
 BYTE   W96
//  #08 //063   ----------------------------------------
 BYTE   W96
//  #08 //064   ----------------------------------------
 BYTE   W96
//  #08 //065   ----------------------------------------
 BYTE   W96
//  #08 //066   ----------------------------------------
 BYTE   W96
//  #08 //067   ----------------------------------------
 BYTE   W96
//  #08 //068   ----------------------------------------
 BYTE   W96
//  #08 //069   ----------------------------------------
 BYTE   W96
//  #08 //070   ----------------------------------------
 BYTE   W96
//  #08 //071   ----------------------------------------
 BYTE   W96
//  #08 //072   ----------------------------------------
 BYTE   W96
//  #08 //073   ----------------------------------------
 BYTE   W96
//  #08 //074   ----------------------------------------
 BYTE   W96
//  #08 //075   ----------------------------------------
 BYTE   W96
//  #08 //076   ----------------------------------------
 BYTE   W96
//  #08 //077   ----------------------------------------
 BYTE   W96
//  #08 //078   ----------------------------------------
 BYTE   W96
//  #08 //079   ----------------------------------------
 BYTE   W96
//  #08 //080   ----------------------------------------
 BYTE   W96
//  #08 //081   ----------------------------------------
 BYTE   W96
//  #08 //082   ----------------------------------------
 BYTE   W96
//  #08 //083   ----------------------------------------
 BYTE   W96
//  #08 //084   ----------------------------------------
 BYTE   W96
//  #08 //085   ----------------------------------------
 BYTE   W96
//  #08 //086   ----------------------------------------
 BYTE   W96
//  #08 //087   ----------------------------------------
 BYTE   W96
//  #08 //088   ----------------------------------------
 BYTE   W96
//  #08 //089   ----------------------------------------
 BYTE   W96
//  #08 //090   ----------------------------------------
 BYTE   GoTo
  POIN2 Label_F1736A
 BYTE   FINE

//**************** Track 9 (Midi-Chn.8) ****************//

FrozenGrounds_009:
//  #09 //000   ----------------------------------------
 BYTE   KEYSH   FrozenGrounds_key+0
Label_010A034E:
 BYTE   VOICE   81
 BYTE   VOL   43*FrozenGrounds_mvl/mxv
 BYTE   PAN   c_v+0
 BYTE   W96
//  #09 //001   ----------------------------------------
 BYTE   W96
//  #09 //002   ----------------------------------------
 BYTE   W96
//  #09 //003   ----------------------------------------
 BYTE   W96
//  #09 //004   ----------------------------------------
 BYTE   W96
//  #09 //005   ----------------------------------------
 BYTE   W96
//  #09 //006   ----------------------------------------
 BYTE   W96
//  #09 //007   ----------------------------------------
 BYTE   W96
//  #09 //008   ----------------------------------------
 BYTE   BEND   c_v+0
 BYTE   W24
 BYTE   W12
 BYTE   N14  En3  v108
 BYTE   W12
 BYTE   N76  Bn3
 BYTE   W10
 BYTE   MOD 0
 BYTE   W02
 BYTE   MOD 0
 BYTE   W01
 BYTE   MOD 0
 BYTE   W01
 BYTE   MOD 0
 BYTE   W01
 BYTE   MOD 0
 BYTE   W01
 BYTE   MOD 0
 BYTE   W01
 BYTE   MOD 0
 BYTE   W01
 BYTE   MOD 0
 BYTE   W01
 BYTE   MOD 0
 BYTE   W01
 BYTE   MOD 0
 BYTE   W01
 BYTE   MOD 0
 BYTE   W01
 BYTE   MOD 0
 BYTE   W01
 BYTE   MOD 0
 BYTE   W01
 BYTE   MOD 0
 BYTE   W01
 BYTE   MOD 0
 BYTE   W01
 BYTE   MOD 0
 BYTE   W01
 BYTE   MOD 0
 BYTE   W01
 BYTE   MOD 0
 BYTE   W01
 BYTE   MOD 0
 BYTE   W01
 BYTE   MOD 0
 BYTE   W01
 BYTE   MOD 0
 BYTE   W01
 BYTE   MOD 0
 BYTE   W01
 BYTE   MOD 0
 BYTE   W01
 BYTE   MOD 0
 BYTE   W01
 BYTE   MOD 0
 BYTE   W01
 BYTE   MOD 0
 BYTE   W01
 BYTE   MOD 0
 BYTE   W01
 BYTE   MOD 0
 BYTE   W02
 BYTE   MOD 0
 BYTE   W01
 BYTE   MOD 0
 BYTE   W01
 BYTE   MOD 0
 BYTE   W01
 BYTE   MOD 0
 BYTE   W01
 BYTE   MOD 0
 BYTE   W01
 BYTE   MOD 0
 BYTE   W02
 BYTE   MOD 0
 BYTE   W01
//  #09 //009   ----------------------------------------
 BYTE   W20
 BYTE   MOD 0
 BYTE   W01
 BYTE   MOD 0
 BYTE   W01
 BYTE   MOD 0
 BYTE   W01
 BYTE   MOD 0
 BYTE   W01
 BYTE   MOD 0
 BYTE   W01
 BYTE   MOD 0
 BYTE   W01
 BYTE   MOD 0
 BYTE   W01
 BYTE   MOD 0
 BYTE   W01
 BYTE   MOD 0
 BYTE   W01
 BYTE   MOD 0
 BYTE   W07
 BYTE   N12  Cn4  v116
 BYTE   W12
 BYTE   N72  Gn3
 BYTE   W10
 BYTE   MOD 0
 BYTE   W01
 BYTE   MOD 0
 BYTE   W01
 BYTE   MOD 0
 BYTE   W02
 BYTE   MOD 0
 BYTE   W01
 BYTE   MOD 0
 BYTE   W01
 BYTE   MOD 0
 BYTE   W01
 BYTE   MOD 0
 BYTE   W01
 BYTE   MOD 0
 BYTE   W01
 BYTE   MOD 0
 BYTE   W01
 BYTE   MOD 0
 BYTE   W01
 BYTE   MOD 0
 BYTE   W01
 BYTE   MOD 0
 BYTE   W01
 BYTE   MOD 0
 BYTE   W01
 BYTE   MOD 0
 BYTE   W01
 BYTE   MOD 0
 BYTE   W01
 BYTE   MOD 0
 BYTE   W01
 BYTE   MOD 0
 BYTE   W01
 BYTE   MOD 0
 BYTE   W01
 BYTE   MOD 0
 BYTE   W01
 BYTE   MOD 0
 BYTE   W01
 BYTE   MOD 0
 BYTE   W01
 BYTE   MOD 0
 BYTE   W02
 BYTE   MOD 0
 BYTE   W01
 BYTE   MOD 0
 BYTE   W01
 BYTE   MOD 0
 BYTE   W01
 BYTE   MOD 0
 BYTE   W01
 BYTE   MOD 0
 BYTE   W01
 BYTE   MOD 0
 BYTE   W01
 BYTE   MOD 0
 BYTE   W01
 BYTE   MOD 0
 BYTE   W01
 BYTE   MOD 0
 BYTE   W01
 BYTE   MOD 0
 BYTE   W01
 BYTE   MOD 0
 BYTE   W01
 BYTE   MOD 0
 BYTE   W02
 BYTE   MOD 0
 BYTE   W01
//  #09 //010   ----------------------------------------
 BYTE   MOD 0
 BYTE   W02
 BYTE   MOD 0
 BYTE   W02
 BYTE   MOD 0
 BYTE   W02
 BYTE   MOD 0
 BYTE   W02
 BYTE   MOD 0
 BYTE   W01
 BYTE   MOD 0
 BYTE   W01
 BYTE   MOD 0
 BYTE   W01
 BYTE   MOD 0
 BYTE   W01
 BYTE   MOD 0
 BYTE   W02
 BYTE   MOD 0
 BYTE   W01
 BYTE   MOD 0
 BYTE   W01
 BYTE   MOD 0
 BYTE   W01
 BYTE   MOD 0
 BYTE   W02
 BYTE   MOD 0
 BYTE   W04
 BYTE   MOD 0
 BYTE   W09
 BYTE   MOD 0
 BYTE   W01
 BYTE   MOD 0
 BYTE   W01
 BYTE   MOD 0
 BYTE   W01
 BYTE   MOD 0
 BYTE   W01
 BYTE   N14  Fn3
 BYTE   W12
 BYTE   MOD 0
 BYTE   N72  Cn4
 BYTE   W02
 BYTE   MOD 0
 BYTE   W01
 BYTE   MOD 0
 BYTE   W02
 BYTE   MOD 0
 BYTE   W03
 BYTE   MOD 0
 BYTE   W02
 BYTE   MOD 0
 BYTE   W01
 BYTE   MOD 0
 BYTE   W01
 BYTE   MOD 0
 BYTE   W01
 BYTE   MOD 0
 BYTE   W01
 BYTE   MOD 0
 BYTE   W01
 BYTE   MOD 0
 BYTE   W01
 BYTE   MOD 0
 BYTE   W01
 BYTE   MOD 0
 BYTE   W01
 BYTE   MOD 0
 BYTE   W01
 BYTE   MOD 0
 BYTE   W02
 BYTE   MOD 0
 BYTE   W01
 BYTE   MOD 0
 BYTE   W01
 BYTE   MOD 0
 BYTE   W02
 BYTE   MOD 0
 BYTE   W01
 BYTE   MOD 0
 BYTE   W01
 BYTE   MOD 0
 BYTE   W01
 BYTE   MOD 0
 BYTE   W01
 BYTE   MOD 0
 BYTE   W01
 BYTE   MOD 0
 BYTE   W01
 BYTE   MOD 0
 BYTE   W01
 BYTE   MOD 0
 BYTE   W01
 BYTE   MOD 0
 BYTE   W01
 BYTE   MOD 0
 BYTE   W02
 BYTE   MOD 0
 BYTE   W01
 BYTE   MOD 0
 BYTE   W01
 BYTE   MOD 0
 BYTE   W01
 BYTE   MOD 0
 BYTE   W02
 BYTE   MOD 0
 BYTE   W01
 BYTE   MOD 0
 BYTE   W01
 BYTE   MOD 0
 BYTE   W01
 BYTE   MOD 0
 BYTE   W01
 BYTE   MOD 0
 BYTE   W01
 BYTE   MOD 0
 BYTE   W02
//  #09 //011   ----------------------------------------
 BYTE   MOD 0
 BYTE   W02
 BYTE   MOD 0
 BYTE   W03
 BYTE   MOD 0
 BYTE   W02
 BYTE   MOD 0
 BYTE   W02
 BYTE   MOD 0
 BYTE   W03
 BYTE   MOD 0
 BYTE   W02
 BYTE   MOD 0
 BYTE   W02
 BYTE   MOD 0
 BYTE   W02
 BYTE   MOD 0
 BYTE   W04
 BYTE   MOD 0
 BYTE   W04
 BYTE   MOD 0
 BYTE   W01
 BYTE   MOD 0
 BYTE   W09
 BYTE   N14  Fn4
 BYTE   W12
 BYTE   N76  As3
 BYTE   W14
 BYTE   MOD 0
 BYTE   W01
 BYTE   MOD 0
 BYTE   W01
 BYTE   MOD 0
 BYTE   W01
 BYTE   MOD 0
 BYTE   W01
 BYTE   MOD 0
 BYTE   W01
 BYTE   MOD 0
 BYTE   W01
 BYTE   MOD 0
 BYTE   W01
 BYTE   MOD 0
 BYTE   W01
 BYTE   MOD 0
 BYTE   W01
 BYTE   MOD 0
 BYTE   W01
 BYTE   MOD 0
 BYTE   W02
 BYTE   MOD 0
 BYTE   W01
 BYTE   MOD 0
 BYTE   W01
 BYTE   MOD 0
 BYTE   W01
 BYTE   MOD 0
 BYTE   W01
 BYTE   MOD 0
 BYTE   W01
 BYTE   MOD 0
 BYTE   W01
 BYTE   MOD 0
 BYTE   W01
 BYTE   MOD 0
 BYTE   W01
 BYTE   MOD 0
 BYTE   W01
 BYTE   MOD 0
 BYTE   W01
 BYTE   MOD 0
 BYTE   W01
 BYTE   MOD 0
 BYTE   W01
 BYTE   MOD 0
 BYTE   W01
 BYTE   MOD 0
 BYTE   W01
 BYTE   MOD 0
 BYTE   W01
 BYTE   MOD 0
 BYTE   W01
 BYTE   MOD 0
 BYTE   W01
 BYTE   MOD 0
 BYTE   W01
 BYTE   MOD 0
 BYTE   W01
 BYTE   MOD 0
 BYTE   W01
 BYTE   MOD 0
 BYTE   W02
//  #09 //012   ----------------------------------------
 BYTE   MOD 0
 BYTE   W03
 BYTE   MOD 0
 BYTE   W04
 BYTE   MOD 0
 BYTE   W02
 BYTE   MOD 0
 BYTE   W01
 BYTE   MOD 0
 BYTE   W01
 BYTE   MOD 0
 BYTE   W01
 BYTE   MOD 0
 BYTE   W01
 BYTE   MOD 0
 BYTE   W01
 BYTE   MOD 0
 BYTE   W01
 BYTE   MOD 0
 BYTE   W01
 BYTE   MOD 0
 BYTE   W01
 BYTE   MOD 0
 BYTE   W01
 BYTE   MOD 0
 BYTE   W02
 BYTE   MOD 0
 BYTE   W01
 BYTE   MOD 0
 BYTE   W03
 BYTE   MOD 0
 BYTE   W04
 BYTE   MOD 0
 BYTE   W06
 BYTE   MOD 0
 BYTE   W01
 BYTE   MOD 0
 BYTE   W01
 BYTE   MOD 0
 BYTE   N14  Cn4
 BYTE   W01
 BYTE   MOD 0
 BYTE   W11
 BYTE   N76  Fn4  v120
 BYTE   W14
 BYTE   MOD 0
 BYTE   W01
 BYTE   MOD 0
 BYTE   W01
 BYTE   MOD 0
 BYTE   W01
 BYTE   MOD 0
 BYTE   W01
 BYTE   MOD 0
 BYTE   W01
 BYTE   MOD 0
 BYTE   W01
 BYTE   MOD 0
 BYTE   W01
 BYTE   MOD 0
 BYTE   W01
 BYTE   MOD 0
 BYTE   W01
 BYTE   MOD 0
 BYTE   W01
 BYTE   MOD 0
 BYTE   W01
 BYTE   MOD 0
 BYTE   W01
 BYTE   MOD 0
 BYTE   W02
 BYTE   MOD 0
 BYTE   W01
 BYTE   MOD 0
 BYTE   W01
 BYTE   MOD 0
 BYTE   W01
 BYTE   MOD 0
 BYTE   W01
 BYTE   MOD 0
 BYTE   W01
 BYTE   MOD 0
 BYTE   W01
 BYTE   MOD 0
 BYTE   W01
 BYTE   MOD 0
 BYTE   W02
 BYTE   MOD 0
 BYTE   W01
 BYTE   MOD 0
 BYTE   W01
 BYTE   MOD 0
 BYTE   W01
 BYTE   MOD 0
 BYTE   W01
 BYTE   MOD 0
 BYTE   W02
 BYTE   MOD 0
 BYTE   W01
 BYTE   MOD 0
 BYTE   W02
 BYTE   MOD 0
 BYTE   W02
//  #09 //013   ----------------------------------------
 BYTE   MOD 0
 BYTE   W01
 BYTE   MOD 0
 BYTE   W01
 BYTE   MOD 0
 BYTE   W01
 BYTE   MOD 0
 BYTE   W01
 BYTE   MOD 0
 BYTE   W02
 BYTE   MOD 0
 BYTE   W01
 BYTE   MOD 0
 BYTE   W02
 BYTE   MOD 0
 BYTE   W01
 BYTE   MOD 0
 BYTE   W01
 BYTE   MOD 0
 BYTE   W02
 BYTE   MOD 0
 BYTE   W02
 BYTE   MOD 0
 BYTE   W01
 BYTE   MOD 0
 BYTE   W02
 BYTE   MOD 0
 BYTE   W01
 BYTE   MOD 0
 BYTE   W01
 BYTE   MOD 0
 BYTE   W01
 BYTE   MOD 0
 BYTE   W02
 BYTE   MOD 0
 BYTE   W03
 BYTE   MOD 0
 BYTE   W07
 BYTE   MOD 0
 BYTE   W01
 BYTE   MOD 0
 BYTE   W02
 BYTE   N14  Ds4
 BYTE   W12
 BYTE   N76  As4  v112
 BYTE   W04
 BYTE   MOD 0
 BYTE   W01
 BYTE   MOD 0
 BYTE   W01
 BYTE   MOD 0
 BYTE   W02
 BYTE   MOD 0
 BYTE   W01
 BYTE   MOD 0
 BYTE   W02
 BYTE   MOD 0
 BYTE   W01
 BYTE   MOD 0
 BYTE   W01
 BYTE   MOD 0
 BYTE   W01
 BYTE   MOD 0
 BYTE   W02
 BYTE   MOD 0
 BYTE   W01
 BYTE   MOD 0
 BYTE   W01
 BYTE   MOD 0
 BYTE   W01
 BYTE   MOD 0
 BYTE   W01
 BYTE   MOD 0
 BYTE   W01
 BYTE   MOD 0
 BYTE   W01
 BYTE   MOD 0
 BYTE   W01
 BYTE   MOD 0
 BYTE   W02
 BYTE   MOD 0
 BYTE   W01
 BYTE   MOD 0
 BYTE   W01
 BYTE   MOD 0
 BYTE   W01
 BYTE   MOD 0
 BYTE   W01
 BYTE   MOD 0
 BYTE   W01
 BYTE   MOD 0
 BYTE   W01
 BYTE   MOD 0
 BYTE   W01
 BYTE   MOD 0
 BYTE   W01
 BYTE   MOD 0
 BYTE   W01
 BYTE   MOD 0
 BYTE   W02
 BYTE   MOD 0
 BYTE   W01
 BYTE   MOD 0
 BYTE   W01
 BYTE   MOD 0
 BYTE   W01
 BYTE   MOD 0
 BYTE   W01
 BYTE   MOD 0
 BYTE   W01
 BYTE   MOD 0
 BYTE   W02
 BYTE   MOD 0
 BYTE   W02
 BYTE   MOD 0
 BYTE   W02
 BYTE   MOD 0
 BYTE   W01
//  #09 //014   ----------------------------------------
 BYTE   W02
 BYTE   MOD 0
 BYTE   W02
 BYTE   MOD 0
 BYTE   W02
 BYTE   MOD 0
 BYTE   W02
 BYTE   MOD 0
 BYTE   W03
 BYTE   MOD 0
 BYTE   W02
 BYTE   MOD 0
 BYTE   W01
 BYTE   MOD 0
 BYTE   W02
 BYTE   MOD 0
 BYTE   W01
 BYTE   MOD 0
 BYTE   W04
 BYTE   MOD 0
 BYTE   W10
 BYTE   MOD 0
 BYTE   W01
 BYTE   MOD 0
 BYTE   W01
 BYTE   MOD 0
 BYTE   W01
 BYTE   MOD 0
 BYTE   W02
 BYTE   N14  Fn4  v120
 BYTE   W12
 BYTE   N78  Cn4  v116
 BYTE   W09
 BYTE   MOD 0
 BYTE   W01
 BYTE   MOD 0
 BYTE   W01
 BYTE   MOD 0
 BYTE   W01
 BYTE   MOD 0
 BYTE   W01
 BYTE   MOD 0
 BYTE   W01
 BYTE   MOD 0
 BYTE   W01
 BYTE   MOD 0
 BYTE   W01
 BYTE   MOD 0
 BYTE   W01
 BYTE   MOD 0
 BYTE   W01
 BYTE   MOD 0
 BYTE   W01
 BYTE   MOD 0
 BYTE   W01
 BYTE   MOD 0
 BYTE   W01
 BYTE   MOD 0
 BYTE   W01
 BYTE   MOD 0
 BYTE   W01
 BYTE   MOD 0
 BYTE   W02
 BYTE   MOD 0
 BYTE   W01
 BYTE   MOD 0
 BYTE   W01
 BYTE   MOD 0
 BYTE   W01
 BYTE   MOD 0
 BYTE   W01
 BYTE   MOD 0
 BYTE   W01
 BYTE   MOD 0
 BYTE   W01
 BYTE   MOD 0
 BYTE   W01
 BYTE   MOD 0
 BYTE   W01
 BYTE   MOD 0
 BYTE   W02
 BYTE   MOD 0
 BYTE   W01
 BYTE   MOD 0
 BYTE   W01
 BYTE   MOD 0
 BYTE   W01
 BYTE   MOD 0
 BYTE   W01
 BYTE   MOD 0
 BYTE   W01
 BYTE   MOD 0
 BYTE   W01
 BYTE   MOD 0
 BYTE   W01
 BYTE   MOD 0
 BYTE   W01
 BYTE   MOD 0
 BYTE   W01
 BYTE   MOD 0
 BYTE   W01
 BYTE   MOD 0
 BYTE   W01
 BYTE   MOD 0
 BYTE   W01
 BYTE   MOD 0
 BYTE   W01
//  #09 //015   ----------------------------------------
 BYTE   MOD 0
 BYTE   W01
 BYTE   MOD 0
 BYTE   W01
 BYTE   MOD 0
 BYTE   W02
 BYTE   MOD 0
 BYTE   W02
 BYTE   MOD 0
 BYTE   W01
 BYTE   MOD 0
 BYTE   W01
 BYTE   MOD 0
 BYTE   W01
 BYTE   MOD 0
 BYTE   W01
 BYTE   MOD 0
 BYTE   W01
 BYTE   MOD 0
 BYTE   W01
 BYTE   MOD 0
 BYTE   W02
 BYTE   MOD 0
 BYTE   W01
 BYTE   MOD 0
 BYTE   W02
 BYTE   MOD 0
 BYTE   W02
 BYTE   MOD 0
 BYTE   W02
 BYTE   MOD 0
 BYTE   W01
 BYTE   MOD 0
 BYTE   W01
 BYTE   MOD 0
 BYTE   W01
 BYTE   MOD 0
 BYTE   W02
 BYTE   MOD 0
 BYTE   W05
 BYTE   MOD 0
 BYTE   W01
 BYTE   MOD 0
 BYTE   W01
 BYTE   MOD 0
 BYTE   W01
 BYTE   MOD 0
 BYTE   W02
 BYTE   N14  Fn3  v112
 BYTE   W12
 BYTE   TIE  Cn3
 BYTE   W17
 BYTE   MOD 0
 BYTE   W01
 BYTE   MOD 0
 BYTE   W01
 BYTE   MOD 0
 BYTE   W01
 BYTE   MOD 0
 BYTE   W01
 BYTE   MOD 0
 BYTE   W01
 BYTE   MOD 0
 BYTE   W01
 BYTE   MOD 0
 BYTE   W01
 BYTE   MOD 0
 BYTE   W02
 BYTE   MOD 0
 BYTE   W01
 BYTE   MOD 0
 BYTE   W01
 BYTE   MOD 0
 BYTE   W01
 BYTE   MOD 0
 BYTE   W01
 BYTE   MOD 0
 BYTE   W01
 BYTE   MOD 0
 BYTE   W01
 BYTE   MOD 0
 BYTE   W02
 BYTE   MOD 0
 BYTE   W01
 BYTE   MOD 0
 BYTE   W01
 BYTE   MOD 0
 BYTE   W01
 BYTE   MOD 0
 BYTE   W01
 BYTE   MOD 0
 BYTE   W01
 BYTE   MOD 0
 BYTE   W01
 BYTE   MOD 0
 BYTE   W01
 BYTE   MOD 0
 BYTE   W01
 BYTE   MOD 0
 BYTE   W02
 BYTE   MOD 0
 BYTE   W01
 BYTE   MOD 0
 BYTE   W02
 BYTE   MOD 0
 BYTE   W01
//  #09 //016   ----------------------------------------
 BYTE   MOD 0
 BYTE   W01
 BYTE   MOD 0
 BYTE   W02
 BYTE   MOD 0
 BYTE   W02
 BYTE   MOD 0
 BYTE   W02
 BYTE   MOD 0
 BYTE   W01
 BYTE   MOD 0
 BYTE   W01
 BYTE   MOD 0
 BYTE   W02
 BYTE   MOD 0
 BYTE   W01
 BYTE   MOD 0
 BYTE   W02
 BYTE   W01
 BYTE   MOD 0
 BYTE   W01
 BYTE   MOD 0
 BYTE   W01
 BYTE   W02
 BYTE   MOD 0
 BYTE   W01
 BYTE   W01
 BYTE   W01
 BYTE   W02
 BYTE   W01
 BYTE   W01
 BYTE   W02
 BYTE   W01
 BYTE   W01
 BYTE   W01
 BYTE   W01
 BYTE   W01
 BYTE   W02
 BYTE   W01
 BYTE   W01
 BYTE   W01
 BYTE   W01
 BYTE   W01
 BYTE   W01
 BYTE   W01
 BYTE   W01
 BYTE   W01
 BYTE   W01
 BYTE   W01
 BYTE   W01
 BYTE   W01
 BYTE   W01
 BYTE   W01
 BYTE   W01
 BYTE   W01
 BYTE   W01
 BYTE   W01
 BYTE   W01
 BYTE   W01
 BYTE   W01
 BYTE   W01
 BYTE   W01
 BYTE   W01
 BYTE   W01
 BYTE   W01
 BYTE   W01
 BYTE   W01
 BYTE   W01
 BYTE   W01
 BYTE   W01
 BYTE   W01
 BYTE   W01
 BYTE   W01
 BYTE   MOD 0
 BYTE   W01
 BYTE   EOT
 BYTE   MOD 0
 BYTE   MOD 0
 BYTE   W01
 BYTE   MOD 0
 BYTE   W01
 BYTE   W01
 BYTE   W01
 BYTE   W21
//  #09 //017   ----------------------------------------
 BYTE   W96
//  #09 //018   ----------------------------------------
 BYTE   W96
//  #09 //019   ----------------------------------------
 BYTE   W96
//  #09 //020   ----------------------------------------
 BYTE   W96
//  #09 //021   ----------------------------------------
 BYTE   W96
//  #09 //022   ----------------------------------------
 BYTE   W96
//  #09 //023   ----------------------------------------
 BYTE   W96
//  #09 //024   ----------------------------------------
 BYTE   W96
//  #09 //025   ----------------------------------------
 BYTE   W96
//  #09 //026   ----------------------------------------
 BYTE   W96
//  #09 //027   ----------------------------------------
 BYTE   W96
//  #09 //028   ----------------------------------------
 BYTE   W96
//  #09 //029   ----------------------------------------
 BYTE   W96
//  #09 //030   ----------------------------------------
 BYTE   W96
//  #09 //031   ----------------------------------------
 BYTE   W96
//  #09 //032   ----------------------------------------
 BYTE   W96
//  #09 //033   ----------------------------------------
 BYTE   W96
//  #09 //034   ----------------------------------------
 BYTE   W96
//  #09 //035   ----------------------------------------
 BYTE   W96
//  #09 //036   ----------------------------------------
 BYTE   W96
//  #09 //037   ----------------------------------------
 BYTE   W96
//  #09 //038   ----------------------------------------
 BYTE   W96
//  #09 //039   ----------------------------------------
 BYTE   W96
//  #09 //040   ----------------------------------------
 BYTE   W96
//  #09 //041   ----------------------------------------
 BYTE   W96
//  #09 //042   ----------------------------------------
 BYTE   W96
//  #09 //043   ----------------------------------------
 BYTE   W96
//  #09 //044   ----------------------------------------
 BYTE   W96
//  #09 //045   ----------------------------------------
 BYTE   W96
//  #09 //046   ----------------------------------------
 BYTE   W96
//  #09 //047   ----------------------------------------
 BYTE   W96
//  #09 //048   ----------------------------------------
 BYTE   W96
//  #09 //049   ----------------------------------------
 BYTE   W96
//  #09 //050   ----------------------------------------
 BYTE   W96
//  #09 //051   ----------------------------------------
 BYTE   W96
//  #09 //052   ----------------------------------------
 BYTE   W96
//  #09 //053   ----------------------------------------
 BYTE   W96
//  #09 //054   ----------------------------------------
 BYTE   W96
//  #09 //055   ----------------------------------------
 BYTE   W96
//  #09 //056   ----------------------------------------
 BYTE   W96
//  #09 //057   ----------------------------------------
 BYTE   W96
//  #09 //058   ----------------------------------------
 BYTE   W96
//  #09 //059   ----------------------------------------
 BYTE   W96
//  #09 //060   ----------------------------------------
 BYTE   W96
//  #09 //061   ----------------------------------------
 BYTE   W96
//  #09 //062   ----------------------------------------
 BYTE   W96
//  #09 //063   ----------------------------------------
 BYTE   W96
//  #09 //064   ----------------------------------------
 BYTE   W96
//  #09 //065   ----------------------------------------
 BYTE   W96
//  #09 //066   ----------------------------------------
 BYTE   W96
//  #09 //067   ----------------------------------------
 BYTE   W96
//  #09 //068   ----------------------------------------
 BYTE   W96
//  #09 //069   ----------------------------------------
 BYTE   W96
//  #09 //070   ----------------------------------------
 BYTE   W96
//  #09 //071   ----------------------------------------
 BYTE   W96
//  #09 //072   ----------------------------------------
 BYTE   W96
//  #09 //073   ----------------------------------------
 BYTE   W96
//  #09 //074   ----------------------------------------
 BYTE   W96
//  #09 //075   ----------------------------------------
 BYTE   W96
//  #09 //076   ----------------------------------------
 BYTE   W96
//  #09 //077   ----------------------------------------
 BYTE   W96
//  #09 //078   ----------------------------------------
 BYTE   W96
//  #09 //079   ----------------------------------------
 BYTE   W96
//  #09 //080   ----------------------------------------
 BYTE   W96
//  #09 //081   ----------------------------------------
 BYTE   W96
//  #09 //082   ----------------------------------------
 BYTE   W96
//  #09 //083   ----------------------------------------
 BYTE   W96
//  #09 //084   ----------------------------------------
 BYTE   W96
//  #09 //085   ----------------------------------------
 BYTE   W96
//  #09 //086   ----------------------------------------
 BYTE   W96
//  #09 //087   ----------------------------------------
 BYTE   W96
//  #09 //088   ----------------------------------------
 BYTE   W96
//  #09 //089   ----------------------------------------
 BYTE   W96
//  #09 //090   ----------------------------------------
 BYTE   GoTo
  POIN2 Label_010A034E
 BYTE   FINE

//**************** Track 10 (Midi-Chn.9) ****************//

FrozenGrounds_010:
//  #10 //000   ----------------------------------------
 BYTE   KEYSH   FrozenGrounds_key+0
Label_F1658A:
 BYTE   VOICE   124
 BYTE   VOL   59*FrozenGrounds_mvl/mxv
 BYTE   PAN   c_v+0
 BYTE   VOL   59*FrozenGrounds_mvl/mxv
 BYTE   PAN   c_v+0
 BYTE   N11  Cn1  v112
 BYTE   N11  Gs1  v080
 BYTE   N11  Gs4  v072
 BYTE   W12
 BYTE   Gs1  v068
 BYTE   N11  Gs4  v052
 BYTE   W12
 BYTE   Gs1  v080
 BYTE   N11  Gs4  v052
 BYTE   W12
 BYTE   Cn1  v084
 BYTE   N11  Gs1  v068
 BYTE   N11  Gs4  v048
 BYTE   W12
 BYTE   Cn1  v112
 BYTE   N11  Gs1  v080
 BYTE   N11  Gs4  v048
 BYTE   W12
 BYTE   Gs1  v068
 BYTE   N11  Gs4  v048
 BYTE   W12
 BYTE   Gs1  v080
 BYTE   N11  An4  v076
 BYTE   W12
 BYTE   Cn1  v084
 BYTE   N11  Gs1  v068
 BYTE   N11  Gs4  v048
 BYTE   W12
//  #10 //001   ----------------------------------------
Label_F165D1:
 BYTE   N11  Cn1  v112
 BYTE   N11  Gs1  v080
 BYTE   N11  Gs4  v072
 BYTE   W12
 BYTE   Gs1  v068
 BYTE   N11  Gs4  v052
 BYTE   W12
 BYTE   Gs1  v080
 BYTE   N11  Gs4  v052
 BYTE   W12
 BYTE   Cn1  v084
 BYTE   N11  Gs1  v068
 BYTE   N11  Gs4  v048
 BYTE   W12
 BYTE   Cn1  v112
 BYTE   N11  Gs1  v080
 BYTE   N11  Gs4  v048
 BYTE   W12
 BYTE   Gs1  v068
 BYTE   N11  Gs4  v048
 BYTE   W12
 BYTE   Gs1  v080
 BYTE   N11  An4  v076
 BYTE   W12
 BYTE   Cn1  v084
 BYTE   N11  Gs1  v068
 BYTE   N11  Gs4  v048
 BYTE   W12
 BYTE   PEND
//  #10 //002   ----------------------------------------
 BYTE   PATT
  POIN2 Label_F165D1
//  #10 //003   ----------------------------------------
 BYTE   PATT
  POIN2 Label_F165D1
//  #10 //004   ----------------------------------------
 BYTE   PATT
  POIN2 Label_F165D1
//  #10 //005   ----------------------------------------
 BYTE   PATT
  POIN2 Label_F165D1
//  #10 //006   ----------------------------------------
 BYTE   PATT
  POIN2 Label_F165D1
//  #10 //007   ----------------------------------------
 BYTE   PATT
  POIN2 Label_F165D1
//  #10 //008   ----------------------------------------
 BYTE   N11  Cn1  v112
 BYTE   TIE  Cs2  v084
 BYTE   W96
//  #10 //009   ----------------------------------------
 BYTE   W23
 BYTE   EOT
 BYTE   W72
 BYTE   W01
//  #10 //010   ----------------------------------------
 BYTE   W96
//  #10 //011   ----------------------------------------
 BYTE   W96
//  #10 //012   ----------------------------------------
 BYTE   W96
//  #10 //013   ----------------------------------------
 BYTE   W96
//  #10 //014   ----------------------------------------
 BYTE   W96
//  #10 //015   ----------------------------------------
 BYTE   W96
//  #10 //016   ----------------------------------------
 BYTE   W96
//  #10 //017   ----------------------------------------
Label_F1663F:
 BYTE   N11  Cn1  v112
 BYTE   N11  Gs1  v080
 BYTE   N52  Cs2  v084
 BYTE   N11  Gs4  v088
 BYTE   W12
 BYTE   Gs1  v068
 BYTE   N11  Gs4
 BYTE   W12
 BYTE   Gs1  v080
 BYTE   N11  Gs4  v064
 BYTE   W12
 BYTE   Cn1  v084
 BYTE   N11  Gs1  v068
 BYTE   N11  Gs4  v060
 BYTE   W12
 BYTE   Cn1  v112
 BYTE   N11  Gs1  v080
 BYTE   N11  Gs4  v060
 BYTE   W12
 BYTE   Gs1  v068
 BYTE   N11  Gs4  v060
 BYTE   W12
 BYTE   Gs1  v080
 BYTE   N11  An4  v092
 BYTE   W12
 BYTE   Cn1  v084
 BYTE   N11  Gs1  v068
 BYTE   N11  Gs4  v060
 BYTE   W12
 BYTE   PEND
//  #10 //018   ----------------------------------------
Label_F1667F:
 BYTE   N11  Cn1  v112
 BYTE   N11  Gs1  v080
 BYTE   N11  Gs4  v088
 BYTE   W12
 BYTE   Gs1  v068
 BYTE   N11  Gs4
 BYTE   W12
 BYTE   Gs1  v080
 BYTE   N11  Gs4  v064
 BYTE   W12
 BYTE   Cn1  v084
 BYTE   N11  Gs1  v068
 BYTE   N11  Gs4  v060
 BYTE   W12
 BYTE   Cn1  v112
 BYTE   N11  Gs1  v080
 BYTE   N11  Gs4  v060
 BYTE   W12
 BYTE   Gs1  v068
 BYTE   N11  Gs4  v060
 BYTE   W12
 BYTE   Gs1  v080
 BYTE   N11  An4  v092
 BYTE   W12
 BYTE   Cn1  v084
 BYTE   N11  Gs1  v068
 BYTE   N11  Gs4  v060
 BYTE   W12
 BYTE   PEND
//  #10 //019   ----------------------------------------
 BYTE   PATT
  POIN2 Label_F1667F
//  #10 //020   ----------------------------------------
 BYTE   PATT
  POIN2 Label_F1667F
//  #10 //021   ----------------------------------------
 BYTE   PATT
  POIN2 Label_F1667F
//  #10 //022   ----------------------------------------
 BYTE   PATT
  POIN2 Label_F1667F
//  #10 //023   ----------------------------------------
 BYTE   PATT
  POIN2 Label_F1667F
//  #10 //024   ----------------------------------------
 BYTE   PATT
  POIN2 Label_F1667F
//  #10 //025   ----------------------------------------
 BYTE   PATT
  POIN2 Label_F1667F
//  #10 //026   ----------------------------------------
 BYTE   PATT
  POIN2 Label_F1667F
//  #10 //027   ----------------------------------------
 BYTE   PATT
  POIN2 Label_F1667F
//  #10 //028   ----------------------------------------
 BYTE   PATT
  POIN2 Label_F1667F
//  #10 //029   ----------------------------------------
 BYTE   PATT
  POIN2 Label_F1667F
//  #10 //030   ----------------------------------------
 BYTE   PATT
  POIN2 Label_F1667F
//  #10 //031   ----------------------------------------
 BYTE   N11  Cn1  v112
 BYTE   N52  Cs2  v084
 BYTE   N11  Gs4  v088
 BYTE   W12
 BYTE   Gs4  v068
 BYTE   W12
 BYTE   Gs4  v064
 BYTE   W12
 BYTE   Cn1  v084
 BYTE   N11  Gs4  v060
 BYTE   W12
 BYTE   Cn1  v112
 BYTE   N11  Gs4  v060
 BYTE   W12
 BYTE   N11
 BYTE   W12
 BYTE   An4  v092
 BYTE   W12
 BYTE   Gs4  v060
 BYTE   W12
//  #10 //032   ----------------------------------------
 BYTE   Cn1  v112
 BYTE   N11  Gs4  v088
 BYTE   W12
 BYTE   Gs4  v068
 BYTE   W12
 BYTE   Gs4  v064
 BYTE   W12
 BYTE   Cn1  v084
 BYTE   N11  Gs4  v060
 BYTE   W12
 BYTE   Cn1  v112
 BYTE   N11  Gs4  v060
 BYTE   W12
 BYTE   N11
 BYTE   W12
 BYTE   An4  v092
 BYTE   W12
 BYTE   Cn1  v084
 BYTE   N11  Gs4  v060
 BYTE   W12
//  #10 //033   ----------------------------------------
Label_F1673F:
 BYTE   N11  Cn1  v112
 BYTE   N52  Cs2  v084
 BYTE   W96
 BYTE   PEND
//  #10 //034   ----------------------------------------
 BYTE   W96
//  #10 //035   ----------------------------------------
 BYTE   W96
//  #10 //036   ----------------------------------------
 BYTE   PATT
  POIN2 Label_F1663F
//  #10 //037   ----------------------------------------
 BYTE   PATT
  POIN2 Label_F1667F
//  #10 //038   ----------------------------------------
 BYTE   PATT
  POIN2 Label_F1667F
//  #10 //039   ----------------------------------------
 BYTE   PATT
  POIN2 Label_F1667F
//  #10 //040   ----------------------------------------
 BYTE   PATT
  POIN2 Label_F1667F
//  #10 //041   ----------------------------------------
 BYTE   PATT
  POIN2 Label_F1667F
//  #10 //042   ----------------------------------------
 BYTE   PATT
  POIN2 Label_F1667F
//  #10 //043   ----------------------------------------
 BYTE   PATT
  POIN2 Label_F1667F
//  #10 //044   ----------------------------------------
 BYTE   PATT
  POIN2 Label_F1667F
//  #10 //045   ----------------------------------------
 BYTE   PATT
  POIN2 Label_F1667F
//  #10 //046   ----------------------------------------
 BYTE   PATT
  POIN2 Label_F1667F
//  #10 //047   ----------------------------------------
 BYTE   PATT
  POIN2 Label_F1667F
//  #10 //048   ----------------------------------------
 BYTE   PATT
  POIN2 Label_F1667F
//  #10 //049   ----------------------------------------
 BYTE   PATT
  POIN2 Label_F1667F
//  #10 //050   ----------------------------------------
 BYTE   PATT
  POIN2 Label_F1667F
//  #10 //051   ----------------------------------------
 BYTE   PATT
  POIN2 Label_F1667F
//  #10 //052   ----------------------------------------
 BYTE   PATT
  POIN2 Label_F1667F
//  #10 //053   ----------------------------------------
 BYTE   PATT
  POIN2 Label_F1667F
//  #10 //054   ----------------------------------------
 BYTE   PATT
  POIN2 Label_F1667F
//  #10 //055   ----------------------------------------
 BYTE   PATT
  POIN2 Label_F1667F
//  #10 //056   ----------------------------------------
 BYTE   PATT
  POIN2 Label_F1667F
//  #10 //057   ----------------------------------------
 BYTE   PATT
  POIN2 Label_F1667F
//  #10 //058   ----------------------------------------
 BYTE   PATT
  POIN2 Label_F1673F
//  #10 //059   ----------------------------------------
 BYTE   W96
//  #10 //060   ----------------------------------------
 BYTE   W96
//  #10 //061   ----------------------------------------
 BYTE   W96
//  #10 //062   ----------------------------------------
 BYTE   W96
//  #10 //063   ----------------------------------------
 BYTE   W96
//  #10 //064   ----------------------------------------
 BYTE   W96
//  #10 //065   ----------------------------------------
 BYTE   W96
//  #10 //066   ----------------------------------------
 BYTE   W96
//  #10 //067   ----------------------------------------
 BYTE   W96
//  #10 //068   ----------------------------------------
 BYTE   W96
//  #10 //069   ----------------------------------------
 BYTE   PATT
  POIN2 Label_F1667F
//  #10 //070   ----------------------------------------
 BYTE   PATT
  POIN2 Label_F1667F
//  #10 //071   ----------------------------------------
 BYTE   PATT
  POIN2 Label_F1667F
//  #10 //072   ----------------------------------------
 BYTE   PATT
  POIN2 Label_F1667F
//  #10 //073   ----------------------------------------
 BYTE   PATT
  POIN2 Label_F1667F
//  #10 //074   ----------------------------------------
 BYTE   PATT
  POIN2 Label_F1667F
//  #10 //075   ----------------------------------------
 BYTE   PATT
  POIN2 Label_F1667F
//  #10 //076   ----------------------------------------
 BYTE   PATT
  POIN2 Label_F1667F
//  #10 //077   ----------------------------------------
 BYTE   PATT
  POIN2 Label_F1667F
//  #10 //078   ----------------------------------------
 BYTE   PATT
  POIN2 Label_F1667F
//  #10 //079   ----------------------------------------
 BYTE   PATT
  POIN2 Label_F1667F
//  #10 //080   ----------------------------------------
 BYTE   PATT
  POIN2 Label_F1667F
//  #10 //081   ----------------------------------------
 BYTE   PATT
  POIN2 Label_F1667F
//  #10 //082   ----------------------------------------
 BYTE   PATT
  POIN2 Label_F1667F
//  #10 //083   ----------------------------------------
 BYTE   PATT
  POIN2 Label_F1667F
//  #10 //084   ----------------------------------------
 BYTE   PATT
  POIN2 Label_F1667F
//  #10 //085   ----------------------------------------
 BYTE   PATT
  POIN2 Label_F1667F
//  #10 //086   ----------------------------------------
 BYTE   PATT
  POIN2 Label_F1667F
//  #10 //087   ----------------------------------------
 BYTE   PATT
  POIN2 Label_F1673F
//  #10 //088   ----------------------------------------
 BYTE   W96
//  #10 //089   ----------------------------------------
 BYTE   W96
//  #10 //090   ----------------------------------------
 BYTE   GoTo
  POIN2 Label_F1658A
 BYTE   FINE

//******************************************************//
	ALIGN 4

FrozenGrounds:
	BYTE	10
	BYTE	0
	BYTE	FrozenGrounds_pri
	BYTE	FrozenGrounds_rev

	POIN2	FrozenGrounds_grp

	POIN2	FrozenGrounds_001
	POIN2	FrozenGrounds_002
	POIN2	FrozenGrounds_003
	POIN2	FrozenGrounds_004
	POIN2	FrozenGrounds_005
	POIN2	FrozenGrounds_006
	POIN2	FrozenGrounds_007
	POIN2	FrozenGrounds_008
	POIN2	FrozenGrounds_009
	POIN2	FrozenGrounds_010
