//Event file generated from Sappy .s format.
	#include "MPlayDef.event"

	#define	HeavyArmoredCorps_grp  voicegroup000
	#define	HeavyArmoredCorps_pri  0
	#define	HeavyArmoredCorps_rev  0
	#define	HeavyArmoredCorps_mvl  127
	#define	HeavyArmoredCorps_key  0
	#define	HeavyArmoredCorps_tbs  1
	#define	HeavyArmoredCorps_exg  0
	#define	HeavyArmoredCorps_cmp  1

	// .rodata
	//	HeavyArmoredCorps
	ALIGN 4


//**************** Track 1 (Midi-Chn.0) ****************//

HeavyArmoredCorps_001:
//  #01 //000   ----------------------------------------
 BYTE   KEYSH   HeavyArmoredCorps_key+0
 BYTE   TEMPO   200*HeavyArmoredCorps_tbs/2
 BYTE   VOICE   40
 BYTE   VOL   33*HeavyArmoredCorps_mvl/mxv
 BYTE   PAN   c_v-41
 BYTE   W11
 BYTE   TEMPO   100*HeavyArmoredCorps_tbs/2
 BYTE   W84
 BYTE   W01
//  #01 //001   ----------------------------------------
 BYTE   W96
//  #01 //002   ----------------------------------------
Label_010F85D4:
 BYTE   W96
//  #01 //003   ----------------------------------------
 BYTE   W96
//  #01 //004   ----------------------------------------
 BYTE   W96
//  #01 //005   ----------------------------------------
 BYTE   W96
//  #01 //006   ----------------------------------------
 BYTE   W96
//  #01 //007   ----------------------------------------
 BYTE   W96
//  #01 //008   ----------------------------------------
 BYTE   W96
//  #01 //009   ----------------------------------------
 BYTE   W96
//  #01 //010   ----------------------------------------
 BYTE   W96
//  #01 //011   ----------------------------------------
 BYTE   W96
//  #01 //012   ----------------------------------------
 BYTE   W96
//  #01 //013   ----------------------------------------
 BYTE   W96
//  #01 //014   ----------------------------------------
 BYTE   W96
//  #01 //015   ----------------------------------------
 BYTE   W96
//  #01 //016   ----------------------------------------
 BYTE   W96
//  #01 //017   ----------------------------------------
 BYTE   W96
//  #01 //018   ----------------------------------------
 BYTE   W96
//  #01 //019   ----------------------------------------
 BYTE   W96
//  #01 //020   ----------------------------------------
 BYTE   W96
//  #01 //021   ----------------------------------------
 BYTE   W96
//  #01 //022   ----------------------------------------
 BYTE   W96
//  #01 //023   ----------------------------------------
 BYTE   W96
//  #01 //024   ----------------------------------------
 BYTE   W96
//  #01 //025   ----------------------------------------
 BYTE   W96
//  #01 //026   ----------------------------------------
 BYTE   W96
//  #01 //027   ----------------------------------------
 BYTE   W96
//  #01 //028   ----------------------------------------
 BYTE   W96
//  #01 //029   ----------------------------------------
 BYTE   W96
//  #01 //030   ----------------------------------------
 BYTE   W96
//  #01 //031   ----------------------------------------
 BYTE   W96
//  #01 //032   ----------------------------------------
Label_010F85F2:
 BYTE   W24
 BYTE   N48  Cn4  v114  gtp2
 BYTE   W48
 BYTE   N24  As3  v113  gtp2
 BYTE   W24
 BYTE   PEND
//  #01 //033   ----------------------------------------
Label_010F85FE:
 BYTE   N24  Cn4  v114  gtp2
 BYTE   W24
 BYTE   N48  Dn4  v115  gtp2
 BYTE   W48
 BYTE   As3  v113
 BYTE   W24
 BYTE   PEND
//  #01 //034   ----------------------------------------
Label_010F860C:
 BYTE   W24
 BYTE   N48  Ds4  v116  gtp2
 BYTE   W48
 BYTE   N72  Gn3  v112  gtp2
 BYTE   W24
 BYTE   PEND
//  #01 //035   ----------------------------------------
Label_010F8618:
 BYTE   W48
 BYTE   N24  Cn4  v113  gtp2
 BYTE   W24
 BYTE   N36  Dn4  v114  gtp2
 BYTE   W24
 BYTE   PEND
//  #01 //036   ----------------------------------------
Label_010F8624:
 BYTE   W12
 BYTE   N14  Ds4  v115
 BYTE   W12
 BYTE   N48  Gn4  v116  gtp2
 BYTE   W48
 BYTE   N24  Fn4  v115  gtp2
 BYTE   W24
 BYTE   PEND
//  #01 //037   ----------------------------------------
Label_010F8634:
 BYTE   N24  Gn4  v116  gtp2
 BYTE   W24
 BYTE   N48  As4  v117  gtp2
 BYTE   W48
 BYTE   N24  Gs4  v116  gtp2
 BYTE   W24
 BYTE   PEND
//  #01 //038   ----------------------------------------
Label_010F8644:
 BYTE   N24  Gn4  v115  gtp2
 BYTE   W24
 BYTE   N48  Fn4  v116  gtp2
 BYTE   W48
 BYTE   Ds4  v115
 BYTE   W24
 BYTE   PEND
//  #01 //039   ----------------------------------------
 BYTE   W24
 BYTE   Dn4  v114
 BYTE   W48
 BYTE   As3  v113
 BYTE   W24
//  #01 //040   ----------------------------------------
 BYTE   PATT
  POIN2 Label_010F85F2
//  #01 //041   ----------------------------------------
 BYTE   PATT
  POIN2 Label_010F85FE
//  #01 //042   ----------------------------------------
 BYTE   PATT
  POIN2 Label_010F860C
//  #01 //043   ----------------------------------------
 BYTE   PATT
  POIN2 Label_010F8618
//  #01 //044   ----------------------------------------
 BYTE   PATT
  POIN2 Label_010F8624
//  #01 //045   ----------------------------------------
 BYTE   PATT
  POIN2 Label_010F8634
//  #01 //046   ----------------------------------------
 BYTE   PATT
  POIN2 Label_010F8644
//  #01 //047   ----------------------------------------
 BYTE   W24
 BYTE   N48  Dn4  v114  gtp2
 BYTE   W48
 BYTE   Gn4  v113
 BYTE   W24
//  #01 //048   ----------------------------------------
 BYTE   W24
 BYTE   Cn5  v114
 BYTE   W48
 BYTE   N24  As4  v113  gtp2
 BYTE   W24
//  #01 //049   ----------------------------------------
 BYTE   Cn5  v114
 BYTE   W24
 BYTE   N48  Dn5  v115  gtp2
 BYTE   W48
 BYTE   As4  v113
 BYTE   W24
//  #01 //050   ----------------------------------------
 BYTE   W24
 BYTE   Fn5  v116
 BYTE   W48
 BYTE   Ds5  v114
 BYTE   W24
//  #01 //051   ----------------------------------------
 BYTE   W24
 BYTE   Dn5  v112
 BYTE   W44
 BYTE   W03
 BYTE   Cn5
 BYTE   W24
 BYTE   W01
//  #01 //052   ----------------------------------------
 BYTE   W24
 BYTE   TIE  As4
 BYTE   W72
//  #01 //053   ----------------------------------------
 BYTE   W24
 BYTE   Gs4  v110
 BYTE   W02
 BYTE   EOT
 BYTE   As4
 BYTE   W68
 BYTE   W02
//  #01 //054   ----------------------------------------
 BYTE   W24
 BYTE   TIE  Gn4
 BYTE   W02
 BYTE   EOT
 BYTE   Gs4
 BYTE   W68
 BYTE   W02
//  #01 //055   ----------------------------------------
 BYTE   W96
//  #01 //056   ----------------------------------------
 BYTE   W24
 BYTE   Gn4
 BYTE   W72
//  #01 //057   ----------------------------------------
 BYTE   W92
 BYTE   W03
 BYTE   GoTo
  POIN2 Label_010F85D4
//  #01 //058   ----------------------------------------
 BYTE   W01
 BYTE   W48
 BYTE   FINE

//**************** Track 2 (Midi-Chn.1) ****************//

HeavyArmoredCorps_002:
//  #02 //000   ----------------------------------------
 BYTE   KEYSH   HeavyArmoredCorps_key+0
 BYTE   VOICE   40
 BYTE   VOL   31*HeavyArmoredCorps_mvl/mxv
 BYTE   PAN   c_v-11
 BYTE   W96
//  #02 //001   ----------------------------------------
 BYTE   W96
//  #02 //002   ----------------------------------------
Label_010F88C2:
 BYTE   W96
//  #02 //003   ----------------------------------------
 BYTE   W96
//  #02 //004   ----------------------------------------
 BYTE   W96
//  #02 //005   ----------------------------------------
 BYTE   W96
//  #02 //006   ----------------------------------------
 BYTE   W96
//  #02 //007   ----------------------------------------
 BYTE   W96
//  #02 //008   ----------------------------------------
 BYTE   W96
//  #02 //009   ----------------------------------------
 BYTE   W96
//  #02 //010   ----------------------------------------
 BYTE   W96
//  #02 //011   ----------------------------------------
 BYTE   W96
//  #02 //012   ----------------------------------------
 BYTE   W96
//  #02 //013   ----------------------------------------
 BYTE   W96
//  #02 //014   ----------------------------------------
 BYTE   W96
//  #02 //015   ----------------------------------------
 BYTE   W96
//  #02 //016   ----------------------------------------
 BYTE   W96
//  #02 //017   ----------------------------------------
 BYTE   W96
//  #02 //018   ----------------------------------------
 BYTE   W96
//  #02 //019   ----------------------------------------
 BYTE   W96
//  #02 //020   ----------------------------------------
 BYTE   W96
//  #02 //021   ----------------------------------------
 BYTE   W96
//  #02 //022   ----------------------------------------
 BYTE   W96
//  #02 //023   ----------------------------------------
 BYTE   W96
//  #02 //024   ----------------------------------------
 BYTE   W96
//  #02 //025   ----------------------------------------
 BYTE   W96
//  #02 //026   ----------------------------------------
 BYTE   W96
//  #02 //027   ----------------------------------------
 BYTE   W96
//  #02 //028   ----------------------------------------
 BYTE   W96
//  #02 //029   ----------------------------------------
 BYTE   W96
//  #02 //030   ----------------------------------------
 BYTE   W96
//  #02 //031   ----------------------------------------
 BYTE   W96
//  #02 //032   ----------------------------------------
Label_010F88E0:
 BYTE   W24
 BYTE   N48  Cn3  v114  gtp2
 BYTE   W48
 BYTE   N24  As2  v113  gtp2
 BYTE   W24
 BYTE   PEND
//  #02 //033   ----------------------------------------
Label_010F88EC:
 BYTE   N24  Cn3  v114  gtp2
 BYTE   W24
 BYTE   N48  Dn3  v115  gtp2
 BYTE   W48
 BYTE   As2  v113
 BYTE   W24
 BYTE   PEND
//  #02 //034   ----------------------------------------
Label_010F88FA:
 BYTE   W24
 BYTE   N48  Ds3  v116  gtp2
 BYTE   W48
 BYTE   N72  Gn2  v112  gtp2
 BYTE   W24
 BYTE   PEND
//  #02 //035   ----------------------------------------
Label_010F8906:
 BYTE   W48
 BYTE   N24  Cn3  v113  gtp2
 BYTE   W24
 BYTE   N36  Dn3  v114  gtp2
 BYTE   W24
 BYTE   PEND
//  #02 //036   ----------------------------------------
Label_010F8912:
 BYTE   W12
 BYTE   N14  Ds3  v115
 BYTE   W12
 BYTE   N48  Gn3  v117  gtp2
 BYTE   W48
 BYTE   N24  Fn3  v115  gtp2
 BYTE   W24
 BYTE   PEND
//  #02 //037   ----------------------------------------
Label_010F8922:
 BYTE   N24  Gn3  v116  gtp2
 BYTE   W24
 BYTE   N48  As3  v117  gtp2
 BYTE   W48
 BYTE   N24  Gs3  v116  gtp2
 BYTE   W24
 BYTE   PEND
//  #02 //038   ----------------------------------------
Label_010F8932:
 BYTE   N24  Gn3  v115  gtp2
 BYTE   W24
 BYTE   N48  Fn3  v114  gtp2
 BYTE   W48
 BYTE   Ds3  v113
 BYTE   W24
 BYTE   PEND
//  #02 //039   ----------------------------------------
 BYTE   W24
 BYTE   Dn3  v112
 BYTE   W48
 BYTE   N48  As2  v107
 BYTE   W24
//  #02 //040   ----------------------------------------
 BYTE   PATT
  POIN2 Label_010F88E0
//  #02 //041   ----------------------------------------
 BYTE   PATT
  POIN2 Label_010F88EC
//  #02 //042   ----------------------------------------
 BYTE   PATT
  POIN2 Label_010F88FA
//  #02 //043   ----------------------------------------
 BYTE   PATT
  POIN2 Label_010F8906
//  #02 //044   ----------------------------------------
 BYTE   PATT
  POIN2 Label_010F8912
//  #02 //045   ----------------------------------------
 BYTE   PATT
  POIN2 Label_010F8922
//  #02 //046   ----------------------------------------
 BYTE   PATT
  POIN2 Label_010F8932
//  #02 //047   ----------------------------------------
 BYTE   W24
 BYTE   N48  Dn3  v112  gtp2
 BYTE   W48
 BYTE   N48  Gn3  v107
 BYTE   W24
//  #02 //048   ----------------------------------------
 BYTE   PATT
  POIN2 Label_010F85F2
//  #02 //049   ----------------------------------------
 BYTE   PATT
  POIN2 Label_010F85FE
//  #02 //050   ----------------------------------------
 BYTE   W24
 BYTE   N48  Fn4  v116  gtp2
 BYTE   W48
 BYTE   Ds4  v112
 BYTE   W24
//  #02 //051   ----------------------------------------
 BYTE   W24
 BYTE   N24  Dn4
 BYTE   W24
 BYTE   Gn3  v113
 BYTE   DnM2
 BYTE   W24
 BYTE   N36  Cn4  v114  gtp2
 BYTE   W24
//  #02 //052   ----------------------------------------
 BYTE   W12
 BYTE   N14  As3  v115
 BYTE   W12
 BYTE   N48  Ds3  v116  gtp2
 BYTE   W48
 BYTE   N24  Fn3  v115  gtp2
 BYTE   W24
//  #02 //053   ----------------------------------------
 BYTE   Gn3  v116
 BYTE   W24
 BYTE   N48  Fn3  v117  gtp2
 BYTE   W48
 BYTE   N24  Gn3  v116  gtp2
 BYTE   W24
//  #02 //054   ----------------------------------------
 BYTE   Gs3  v115
 BYTE   W24
 BYTE   TIE  Gn3  v116
 BYTE   W72
//  #02 //055   ----------------------------------------
 BYTE   W96
//  #02 //056   ----------------------------------------
 BYTE   W24
 BYTE   EOT
 BYTE   W72
//  #02 //057   ----------------------------------------
 BYTE   W92
 BYTE   W03
 BYTE   GoTo
  POIN2 Label_010F88C2
//  #02 //058   ----------------------------------------
 BYTE   W01
 BYTE   W48
 BYTE   FINE

//**************** Track 3 (Midi-Chn.2) ****************//

HeavyArmoredCorps_003:
//  #03 //000   ----------------------------------------
 BYTE   KEYSH   HeavyArmoredCorps_key+0
 BYTE   VOICE   41
 BYTE   VOL   31*HeavyArmoredCorps_mvl/mxv
 BYTE   PAN   c_v+26
 BYTE   W96
//  #03 //001   ----------------------------------------
 BYTE   W96
//  #03 //002   ----------------------------------------
Label_010F9386:
 BYTE   W96
//  #03 //003   ----------------------------------------
 BYTE   W96
//  #03 //004   ----------------------------------------
 BYTE   W96
//  #03 //005   ----------------------------------------
 BYTE   W96
//  #03 //006   ----------------------------------------
 BYTE   W96
//  #03 //007   ----------------------------------------
 BYTE   W96
//  #03 //008   ----------------------------------------
 BYTE   W96
//  #03 //009   ----------------------------------------
 BYTE   W96
//  #03 //010   ----------------------------------------
 BYTE   W96
//  #03 //011   ----------------------------------------
Label_010F938F:
 BYTE   W72
 BYTE   N48  Gn2  v104  gtp2
 BYTE   W24
 BYTE   PEND
//  #03 //012   ----------------------------------------
Label_010F9396:
 BYTE   W24
 BYTE   TIE  Fn2  v106
 BYTE   N48  Cn3  v106  gtp2
 BYTE   W48
 BYTE   TIE  As2  v104
 BYTE   W24
 BYTE   PEND
//  #03 //013   ----------------------------------------
Label_010F93A4:
 BYTE   W72
 BYTE   N48  Cn3  v105  gtp2
 BYTE   W02
 BYTE   EOT
 BYTE   As2
 BYTE   W22
 BYTE   PEND
//  #03 //014   ----------------------------------------
Label_010F93AE:
 BYTE   N24  Gn2  v105  gtp2
 BYTE   W02
 BYTE   EOT
 BYTE   Fn2
 BYTE   W22
 BYTE   TIE  Gs2  v106
 BYTE   N48  Ds3  v106  gtp2
 BYTE   W48
 BYTE   TIE  Cs3  v105
 BYTE   W24
 BYTE   PEND
//  #03 //015   ----------------------------------------
Label_010F93C3:
 BYTE   W72
 BYTE   N48  Gs3  v106  gtp2
 BYTE   W02
 BYTE   EOT
 BYTE   Cs3
 BYTE   W22
 BYTE   PEND
//  #03 //016   ----------------------------------------
Label_010F93CD:
 BYTE   W24
 BYTE   TIE  Gn2  v105
 BYTE   TIE  Gn3
 BYTE   W02
 BYTE   EOT
 BYTE   Gs2
 BYTE   W68
 BYTE   W02
 BYTE   PEND
//  #03 //017   ----------------------------------------
Label_010F93D9:
 BYTE   W72
 BYTE   N48  Fn2  v104  gtp2
 BYTE   Fn3
 BYTE   W02
 BYTE   EOT
 BYTE   Gn2  v067
 BYTE   W22
 BYTE   PEND
//  #03 //018   ----------------------------------------
Label_010F93E5:
 BYTE   W24
 BYTE   TIE  Ds2  v103
 BYTE   TIE  Ds3
 BYTE   W72
 BYTE   PEND
//  #03 //019   ----------------------------------------
Label_010F93ED:
 BYTE   W24
 BYTE   N48  Dn2  v102  gtp2
 BYTE   Dn3
 BYTE   W02
 BYTE   EOT
 BYTE   Ds2  v063
 BYTE   W44
 BYTE   W02
 BYTE   N48  Cn2  v101
 BYTE   N48  Cn3  v101  gtp2
 BYTE   W24
 BYTE   PEND
//  #03 //020   ----------------------------------------
Label_010F9402:
 BYTE   W24
 BYTE   TIE  Gn2  v104
 BYTE   TIE  Gn3
 BYTE   W72
 BYTE   PEND
//  #03 //021   ----------------------------------------
Label_010F940A:
 BYTE   W72
 BYTE   N24  Fn2  v103  gtp2
 BYTE   Fn3
 BYTE   W02
 BYTE   EOT
 BYTE   Gn2  v067
 BYTE   W22
 BYTE   PEND
//  #03 //022   ----------------------------------------
Label_010F9416:
 BYTE   N24  Gn2  v104  gtp2
 BYTE   Gn3
 BYTE   W24
 BYTE   TIE  Gs2  v105
 BYTE   TIE  Gs3
 BYTE   W72
 BYTE   PEND
//  #03 //023   ----------------------------------------
Label_010F9423:
 BYTE   W24
 BYTE   TIE  Fn2  v105
 BYTE   TIE  Fn3
 BYTE   W02
 BYTE   EOT
 BYTE   Gs2  v068
 BYTE   W68
 BYTE   W02
 BYTE   PEND
//  #03 //024   ----------------------------------------
Label_010F9430:
 BYTE   W24
 BYTE   TIE  Gn2  v105
 BYTE   TIE  Gn3
 BYTE   W02
 BYTE   EOT
 BYTE   Fn2  v065
 BYTE   W68
 BYTE   W02
 BYTE   PEND
//  #03 //025   ----------------------------------------
 BYTE   PATT
  POIN2 Label_010F93D9
//  #03 //026   ----------------------------------------
 BYTE   PATT
  POIN2 Label_010F93E5
//  #03 //027   ----------------------------------------
 BYTE   PATT
  POIN2 Label_010F93ED
//  #03 //028   ----------------------------------------
 BYTE   PATT
  POIN2 Label_010F9402
//  #03 //029   ----------------------------------------
 BYTE   PATT
  POIN2 Label_010F940A
//  #03 //030   ----------------------------------------
Label_010F9456:
 BYTE   N24  Gn2  v104  gtp2
 BYTE   Gn3
 BYTE   W24
 BYTE   N48  Gs2  v105  gtp2
 BYTE   Gs3
 BYTE   W48
 BYTE   N36  Cs2  v104  gtp2
 BYTE   Cs3
 BYTE   W24
 BYTE   PEND
//  #03 //031   ----------------------------------------
Label_010F9469:
 BYTE   W12
 BYTE   N14  Ds2  v105
 BYTE   N14  Ds3
 BYTE   W12
 BYTE   N24  Fn2  v105  gtp2
 BYTE   Fn3
 BYTE   W24
 BYTE   Gn2  v106
 BYTE   N24  Gn3  v106  gtp2
 BYTE   W24
 BYTE   Gs2  v107
 BYTE   N24  Gs3  v107  gtp2
 BYTE   W24
 BYTE   PEND
//  #03 //032   ----------------------------------------
Label_010F9485:
 BYTE   N24  As2  v109  gtp2
 BYTE   As3
 BYTE   W24
 BYTE   TIE  Gn2  v107
 BYTE   TIE  Gn3
 BYTE   W72
 BYTE   PEND
//  #03 //033   ----------------------------------------
 BYTE   W96
//  #03 //034   ----------------------------------------
 BYTE   W96
//  #03 //035   ----------------------------------------
 BYTE   W96
//  #03 //036   ----------------------------------------
Label_010F9495:
 BYTE   W24
 BYTE   TIE  Gs2  v108
 BYTE   TIE  Cn3
 BYTE   W02
 BYTE   EOT
 BYTE   Gn2  v067
 BYTE   W68
 BYTE   W02
 BYTE   PEND
//  #03 //037   ----------------------------------------
Label_010F94A2:
 BYTE   W24
 BYTE   TIE  Fn3  v109
 BYTE   W02
 BYTE   EOT
 BYTE   Cn3
 BYTE   W68
 BYTE   W02
 BYTE   PEND
//  #03 //038   ----------------------------------------
Label_010F94AC:
 BYTE   W24
 BYTE   TIE  Gn2  v107
 BYTE   TIE  As2
 BYTE   W02
 BYTE   EOT
 BYTE   Gs2  v065
 BYTE   W68
 BYTE   W02
 BYTE   PEND
//  #03 //039   ----------------------------------------
 BYTE   W96
//  #03 //040   ----------------------------------------
Label_010F94BA:
 BYTE   W24
 BYTE   EOT
 BYTE   Gn2  v058
 BYTE   TIE  Gn2  v107
 BYTE   TIE  Gn3
 BYTE   W72
 BYTE   PEND
//  #03 //041   ----------------------------------------
 BYTE   W96
//  #03 //042   ----------------------------------------
 BYTE   W96
//  #03 //043   ----------------------------------------
 BYTE   W96
//  #03 //044   ----------------------------------------
 BYTE   PATT
  POIN2 Label_010F9495
//  #03 //045   ----------------------------------------
 BYTE   PATT
  POIN2 Label_010F94A2
//  #03 //046   ----------------------------------------
Label_010F94D2:
 BYTE   W24
 BYTE   TIE  Gn2  v107
 BYTE   N96  As2
 BYTE   W02
 BYTE   EOT
 BYTE   Gs2  v065
 BYTE   W68
 BYTE   W02
 BYTE   PEND
//  #03 //047   ----------------------------------------
 BYTE   W96
//  #03 //048   ----------------------------------------
Label_010F94E0:
 BYTE   W24
 BYTE   EOT
 BYTE   Gn2
 BYTE   N96  Gs2  v107
 BYTE   N96  Cn3
 BYTE   W72
 BYTE   PEND
//  #03 //049   ----------------------------------------
Label_010F94EA:
 BYTE   W24
 BYTE   TIE  As2  v107
 BYTE   TIE  Dn3
 BYTE   W72
 BYTE   PEND
//  #03 //050   ----------------------------------------
Label_010F94F2:
 BYTE   W72
 BYTE   EOT
 BYTE   As2  v062
 BYTE   N48  Cn3  v107
 BYTE   N48  Ds3
 BYTE   W24
 BYTE   PEND
//  #03 //051   ----------------------------------------
Label_010F94FD:
 BYTE   W24
 BYTE   N48  Dn3  v107
 BYTE   N48  Fn3
 BYTE   W48
 BYTE   Ds3
 BYTE   N48  Gn3
 BYTE   W24
 BYTE   PEND
//  #03 //052   ----------------------------------------
Label_010F9509:
 BYTE   W24
 BYTE   N96  Cn3  v107
 BYTE   TIE  Gs3
 BYTE   W72
 BYTE   PEND
//  #03 //053   ----------------------------------------
Label_010F9511:
 BYTE   W24
 BYTE   N96  Cs3  v107
 BYTE   W72
 BYTE   PEND
//  #03 //054   ----------------------------------------
Label_010F9517:
 BYTE   W24
 BYTE   EOT
 BYTE   Gs3
 BYTE   N96  Dn3  v107
 BYTE   N48  Gn3
 BYTE   W48
 BYTE   N96  Cn4
 BYTE   W24
 BYTE   PEND
//  #03 //055   ----------------------------------------
Label_010F9524:
 BYTE   W24
 BYTE   N96  Fn3  v107
 BYTE   W48
 BYTE   N48  Bn3
 BYTE   W24
 BYTE   PEND
//  #03 //056   ----------------------------------------
 BYTE   W96
//  #03 //057   ----------------------------------------
 BYTE   W92
 BYTE   W03
 BYTE   GoTo
  POIN2 Label_010F9386
//  #03 //058   ----------------------------------------
 BYTE   W01
 BYTE   W48
 BYTE   FINE

//**************** Track 4 (Midi-Chn.3) ****************//

HeavyArmoredCorps_004:
//  #04 //000   ----------------------------------------
 BYTE   KEYSH   HeavyArmoredCorps_key+0
 BYTE   VOICE   40
 BYTE   W01
 BYTE   VOL   26*HeavyArmoredCorps_mvl/mxv
 BYTE   PAN   c_v-34
 BYTE   W92
 BYTE   W03
//  #04 //001   ----------------------------------------
 BYTE   W96
//  #04 //002   ----------------------------------------
Label_F51364:
 BYTE   W96
//  #04 //003   ----------------------------------------
 BYTE   W96
//  #04 //004   ----------------------------------------
 BYTE   W96
//  #04 //005   ----------------------------------------
 BYTE   W96
//  #04 //006   ----------------------------------------
 BYTE   W96
//  #04 //007   ----------------------------------------
 BYTE   W96
//  #04 //008   ----------------------------------------
 BYTE   W96
//  #04 //009   ----------------------------------------
 BYTE   W96
//  #04 //010   ----------------------------------------
 BYTE   W96
//  #04 //011   ----------------------------------------
 BYTE   PATT
  POIN2 Label_010F938F
//  #04 //012   ----------------------------------------
 BYTE   PATT
  POIN2 Label_010F9396
//  #04 //013   ----------------------------------------
 BYTE   PATT
  POIN2 Label_010F93A4
//  #04 //014   ----------------------------------------
 BYTE   PATT
  POIN2 Label_010F93AE
//  #04 //015   ----------------------------------------
 BYTE   PATT
  POIN2 Label_010F93C3
//  #04 //016   ----------------------------------------
 BYTE   PATT
  POIN2 Label_010F93CD
//  #04 //017   ----------------------------------------
 BYTE   PATT
  POIN2 Label_010F93D9
//  #04 //018   ----------------------------------------
 BYTE   PATT
  POIN2 Label_010F93E5
//  #04 //019   ----------------------------------------
 BYTE   PATT
  POIN2 Label_010F93ED
//  #04 //020   ----------------------------------------
 BYTE   PATT
  POIN2 Label_010F9402
//  #04 //021   ----------------------------------------
 BYTE   PATT
  POIN2 Label_010F940A
//  #04 //022   ----------------------------------------
 BYTE   PATT
  POIN2 Label_010F9416
//  #04 //023   ----------------------------------------
 BYTE   PATT
  POIN2 Label_010F9423
//  #04 //024   ----------------------------------------
 BYTE   PATT
  POIN2 Label_010F9430
//  #04 //025   ----------------------------------------
 BYTE   PATT
  POIN2 Label_010F93D9
//  #04 //026   ----------------------------------------
 BYTE   PATT
  POIN2 Label_010F93E5
//  #04 //027   ----------------------------------------
 BYTE   PATT
  POIN2 Label_010F93ED
//  #04 //028   ----------------------------------------
 BYTE   PATT
  POIN2 Label_010F9402
//  #04 //029   ----------------------------------------
 BYTE   PATT
  POIN2 Label_010F940A
//  #04 //030   ----------------------------------------
 BYTE   PATT
  POIN2 Label_010F9456
//  #04 //031   ----------------------------------------
 BYTE   PATT
  POIN2 Label_010F9469
//  #04 //032   ----------------------------------------
 BYTE   PATT
  POIN2 Label_010F9485
//  #04 //033   ----------------------------------------
 BYTE   W96
//  #04 //034   ----------------------------------------
 BYTE   W96
//  #04 //035   ----------------------------------------
 BYTE   W96
//  #04 //036   ----------------------------------------
 BYTE   PATT
  POIN2 Label_010F9495
//  #04 //037   ----------------------------------------
 BYTE   PATT
  POIN2 Label_010F94A2
//  #04 //038   ----------------------------------------
 BYTE   PATT
  POIN2 Label_010F94AC
//  #04 //039   ----------------------------------------
 BYTE   W96
//  #04 //040   ----------------------------------------
 BYTE   PATT
  POIN2 Label_010F94BA
//  #04 //041   ----------------------------------------
 BYTE   W96
//  #04 //042   ----------------------------------------
 BYTE   W96
//  #04 //043   ----------------------------------------
 BYTE   W96
//  #04 //044   ----------------------------------------
 BYTE   PATT
  POIN2 Label_010F9495
//  #04 //045   ----------------------------------------
 BYTE   PATT
  POIN2 Label_010F94A2
//  #04 //046   ----------------------------------------
 BYTE   PATT
  POIN2 Label_010F94D2
//  #04 //047   ----------------------------------------
 BYTE   W96
//  #04 //048   ----------------------------------------
 BYTE   PATT
  POIN2 Label_010F94E0
//  #04 //049   ----------------------------------------
 BYTE   PATT
  POIN2 Label_010F94EA
//  #04 //050   ----------------------------------------
 BYTE   PATT
  POIN2 Label_010F94F2
//  #04 //051   ----------------------------------------
 BYTE   PATT
  POIN2 Label_010F94FD
//  #04 //052   ----------------------------------------
 BYTE   PATT
  POIN2 Label_010F9509
//  #04 //053   ----------------------------------------
 BYTE   PATT
  POIN2 Label_010F9511
//  #04 //054   ----------------------------------------
 BYTE   PATT
  POIN2 Label_010F9517
//  #04 //055   ----------------------------------------
 BYTE   PATT
  POIN2 Label_010F9524
//  #04 //056   ----------------------------------------
 BYTE   W96
//  #04 //057   ----------------------------------------
 BYTE   W92
 BYTE   W03
 BYTE   GoTo
  POIN2 Label_F51364
//  #04 //058   ----------------------------------------
 BYTE   W01
 BYTE   W48
 BYTE   FINE

//**************** Track 5 (Midi-Chn.4) ****************//

HeavyArmoredCorps_005:
//  #05 //000   ----------------------------------------
 BYTE   KEYSH   HeavyArmoredCorps_key+0
 BYTE   W01
 BYTE   VOICE   1
 BYTE   VOL   31*HeavyArmoredCorps_mvl/mxv
 BYTE   PAN   c_v-31
 BYTE   W92
 BYTE   W03
//  #05 //001   ----------------------------------------
 BYTE   W96
//  #05 //002   ----------------------------------------
Label_F520F0:
 BYTE   W24
 BYTE   N03  Ds2  v115
 BYTE   W06
 BYTE   Ds2  v110
 BYTE   W06
 BYTE   Ds2  v113
 BYTE   W24
 BYTE   Ds2  v110
 BYTE   W06
 BYTE   Ds2  v112
 BYTE   W06
 BYTE   Ds2  v113
 BYTE   W24
//  #05 //003   ----------------------------------------
Label_F52104:
 BYTE   N03  Ds2  v110
 BYTE   W06
 BYTE   Ds2  v112
 BYTE   W06
 BYTE   Ds2  v113
 BYTE   W06
 BYTE   Ds2  v114
 BYTE   W06
 BYTE   Ds2  v115
 BYTE   W06
 BYTE   Ds2  v110
 BYTE   W06
 BYTE   Ds2  v113
 BYTE   W24
 BYTE   Ds2  v110
 BYTE   W06
 BYTE   Ds2  v112
 BYTE   W06
 BYTE   Ds2  v113
 BYTE   W24
 BYTE   PEND
//  #05 //004   ----------------------------------------
 BYTE   Ds2  v110
 BYTE   W06
 BYTE   Ds2  v112
 BYTE   W06
 BYTE   Ds2  v113
 BYTE   W06
 BYTE   Ds2  v114
 BYTE   W06
 BYTE   Cs2  v115
 BYTE   N03  Fn2
 BYTE   W06
 BYTE   Cs2  v110
 BYTE   N03  Fn2
 BYTE   W06
 BYTE   Cs2  v113
 BYTE   N03  Fn2
 BYTE   W24
 BYTE   Cs2  v110
 BYTE   N03  Fn2
 BYTE   W06
 BYTE   Cs2  v112
 BYTE   N03  Fn2
 BYTE   W06
 BYTE   Cs2  v113
 BYTE   N03  Fn2
 BYTE   W24
//  #05 //005   ----------------------------------------
 BYTE   Cs2  v110
 BYTE   N03  Fn2
 BYTE   W06
 BYTE   Cs2  v112
 BYTE   N03  Fn2
 BYTE   W06
 BYTE   Cs2  v113
 BYTE   N03  Fn2
 BYTE   W06
 BYTE   Cs2  v114
 BYTE   N03  Fn2
 BYTE   W06
 BYTE   Cs2  v115
 BYTE   N03  Fn2
 BYTE   W06
 BYTE   Cs2  v110
 BYTE   N03  Fn2
 BYTE   W06
 BYTE   Cs2  v113
 BYTE   N03  Fn2
 BYTE   W24
 BYTE   Cs2  v110
 BYTE   N03  Fn2
 BYTE   W06
 BYTE   Cs2  v112
 BYTE   N03  Fn2
 BYTE   W06
 BYTE   Cs2  v113
 BYTE   N03  Fn2
 BYTE   W24
//  #05 //006   ----------------------------------------
 BYTE   Cs2  v110
 BYTE   N03  Fn2
 BYTE   W06
 BYTE   Cs2  v112
 BYTE   N03  Fn2
 BYTE   W06
 BYTE   Cs2  v113
 BYTE   N03  Fn2
 BYTE   W06
 BYTE   Cs2  v114
 BYTE   N03  Fn2
 BYTE   W06
 BYTE   Cs2  v115
 BYTE   N03  Gs2
 BYTE   W06
 BYTE   Cs2  v110
 BYTE   N03  Gs2
 BYTE   W06
 BYTE   Cs2  v113
 BYTE   N03  Gs2
 BYTE   W24
 BYTE   Cs2  v110
 BYTE   N03  Gs2
 BYTE   W06
 BYTE   Cs2  v112
 BYTE   N03  Gs2
 BYTE   W06
 BYTE   Cs2  v113
 BYTE   N03  Gs2
 BYTE   W24
//  #05 //007   ----------------------------------------
 BYTE   Cs2  v110
 BYTE   N03  Gs2
 BYTE   W06
 BYTE   Cs2  v112
 BYTE   N03  Gs2
 BYTE   W06
 BYTE   Cs2  v113
 BYTE   N03  Gs2
 BYTE   W06
 BYTE   Cs2  v114
 BYTE   N03  Gs2
 BYTE   W06
 BYTE   Fn2  v115
 BYTE   N03  Cs3
 BYTE   W06
 BYTE   Fn2  v110
 BYTE   N03  Cs3
 BYTE   W06
 BYTE   Fn2  v113
 BYTE   N03  Cs3
 BYTE   W24
 BYTE   Fn2  v110
 BYTE   N03  Cs3
 BYTE   W06
 BYTE   Fn2  v112
 BYTE   N03  Cs3
 BYTE   W06
 BYTE   Fn2  v113
 BYTE   N03  Cs3
 BYTE   W24
//  #05 //008   ----------------------------------------
 BYTE   Fn2  v110
 BYTE   N03  Cs3
 BYTE   W06
 BYTE   Fn2  v112
 BYTE   N03  Cs3
 BYTE   W06
 BYTE   Fn2  v113
 BYTE   N03  Cs3
 BYTE   W06
 BYTE   Fn2  v114
 BYTE   N03  Cs3
 BYTE   W78
//  #05 //009   ----------------------------------------
 BYTE   W96
//  #05 //010   ----------------------------------------
 BYTE   W24
 BYTE   Ds2  v115
 BYTE   W06
 BYTE   Ds2  v110
 BYTE   W06
 BYTE   Ds2  v113
 BYTE   W24
 BYTE   Ds2  v110
 BYTE   W06
 BYTE   Ds2  v112
 BYTE   W06
 BYTE   Ds2  v113
 BYTE   W24
//  #05 //011   ----------------------------------------
 BYTE   PATT
  POIN2 Label_F52104
//  #05 //012   ----------------------------------------
 BYTE   N03  Ds2  v110
 BYTE   W06
 BYTE   Ds2  v112
 BYTE   W06
 BYTE   Ds2  v113
 BYTE   W06
 BYTE   Ds2  v114
 BYTE   W78
//  #05 //013   ----------------------------------------
 BYTE   W96
//  #05 //014   ----------------------------------------
 BYTE   W96
//  #05 //015   ----------------------------------------
 BYTE   W96
//  #05 //016   ----------------------------------------
 BYTE   W96
//  #05 //017   ----------------------------------------
 BYTE   W96
//  #05 //018   ----------------------------------------
 BYTE   W96
//  #05 //019   ----------------------------------------
 BYTE   W96
//  #05 //020   ----------------------------------------
 BYTE   W96
//  #05 //021   ----------------------------------------
 BYTE   W96
//  #05 //022   ----------------------------------------
 BYTE   W96
//  #05 //023   ----------------------------------------
 BYTE   W96
//  #05 //024   ----------------------------------------
 BYTE   W96
//  #05 //025   ----------------------------------------
 BYTE   W96
//  #05 //026   ----------------------------------------
 BYTE   W96
//  #05 //027   ----------------------------------------
 BYTE   W96
//  #05 //028   ----------------------------------------
 BYTE   W96
//  #05 //029   ----------------------------------------
 BYTE   W96
//  #05 //030   ----------------------------------------
 BYTE   W96
//  #05 //031   ----------------------------------------
 BYTE   W96
//  #05 //032   ----------------------------------------
 BYTE   W96
//  #05 //033   ----------------------------------------
 BYTE   W96
//  #05 //034   ----------------------------------------
 BYTE   W96
//  #05 //035   ----------------------------------------
 BYTE   W96
//  #05 //036   ----------------------------------------
 BYTE   W96
//  #05 //037   ----------------------------------------
 BYTE   W96
//  #05 //038   ----------------------------------------
 BYTE   W96
//  #05 //039   ----------------------------------------
 BYTE   W96
//  #05 //040   ----------------------------------------
 BYTE   W96
//  #05 //041   ----------------------------------------
 BYTE   W96
//  #05 //042   ----------------------------------------
 BYTE   W96
//  #05 //043   ----------------------------------------
 BYTE   W96
//  #05 //044   ----------------------------------------
 BYTE   W96
//  #05 //045   ----------------------------------------
 BYTE   W96
//  #05 //046   ----------------------------------------
 BYTE   W96
//  #05 //047   ----------------------------------------
 BYTE   W96
//  #05 //048   ----------------------------------------
 BYTE   W96
//  #05 //049   ----------------------------------------
 BYTE   W96
//  #05 //050   ----------------------------------------
 BYTE   W96
//  #05 //051   ----------------------------------------
 BYTE   W96
//  #05 //052   ----------------------------------------
 BYTE   W96
//  #05 //053   ----------------------------------------
 BYTE   W96
//  #05 //054   ----------------------------------------
 BYTE   W96
//  #05 //055   ----------------------------------------
 BYTE   W96
//  #05 //056   ----------------------------------------
 BYTE   W96
//  #05 //057   ----------------------------------------
 BYTE   W92
 BYTE   W03
 BYTE   GoTo
  POIN2 Label_F520F0
//  #05 //058   ----------------------------------------
 BYTE   W01
 BYTE   W48
 BYTE   FINE

//**************** Track 6 (Midi-Chn.5) ****************//

HeavyArmoredCorps_006:
//  #06 //000   ----------------------------------------
 BYTE   KEYSH   HeavyArmoredCorps_key+0
 BYTE   W01
 BYTE   VOICE   1
 BYTE   VOL   34*HeavyArmoredCorps_mvl/mxv
 BYTE   PAN   c_v-25
 BYTE   W23
 BYTE   N03  Cn2  v115
 BYTE   W06
 BYTE   Cn2  v110
 BYTE   W06
 BYTE   Cn2  v113
 BYTE   W24
 BYTE   Cn2  v110
 BYTE   W06
 BYTE   Cn2  v112
 BYTE   W06
 BYTE   Cn2  v113
 BYTE   W24
//  #06 //001   ----------------------------------------
Label_010F982D:
 BYTE   N03  Cn2  v110
 BYTE   W06
 BYTE   Cn2  v112
 BYTE   W06
 BYTE   Cn2  v113
 BYTE   W06
 BYTE   Cn2  v114
 BYTE   W06
 BYTE   Cn2  v115
 BYTE   W06
 BYTE   Cn2  v110
 BYTE   W06
 BYTE   Cn2  v113
 BYTE   W24
 BYTE   Cn2  v110
 BYTE   W06
 BYTE   Cn2  v112
 BYTE   W06
 BYTE   Cn2  v113
 BYTE   W24
 BYTE   PEND
//  #06 //002   ----------------------------------------
Label_010F984D:
 BYTE   N03  Cn2  v110
 BYTE   W06
 BYTE   Cn2  v112
 BYTE   W06
 BYTE   Cn2  v113
 BYTE   W06
 BYTE   Cn2  v114
 BYTE   W06
 BYTE   Cn2  v115
 BYTE   W06
 BYTE   Cn2  v110
 BYTE   W06
 BYTE   Cn2  v113
 BYTE   W24
 BYTE   Cn2  v110
 BYTE   W06
 BYTE   Cn2  v112
 BYTE   W06
 BYTE   Cn2  v113
 BYTE   W24
//  #06 //003   ----------------------------------------
 BYTE   PATT
  POIN2 Label_010F982D
//  #06 //004   ----------------------------------------
 BYTE   PATT
  POIN2 Label_010F982D
//  #06 //005   ----------------------------------------
 BYTE   PATT
  POIN2 Label_010F982D
//  #06 //006   ----------------------------------------
 BYTE   N03  Cn2  v110
 BYTE   W06
 BYTE   Cn2  v112
 BYTE   W06
 BYTE   Cn2  v113
 BYTE   W06
 BYTE   Cn2  v114
 BYTE   W06
 BYTE   Cn2  v115
 BYTE   N03  Fn2
 BYTE   W06
 BYTE   Cn2  v110
 BYTE   N03  Fn2
 BYTE   W06
 BYTE   Cn2  v113
 BYTE   N03  Fn2
 BYTE   W24
 BYTE   Cn2  v110
 BYTE   N03  Fn2
 BYTE   W06
 BYTE   Cn2  v112
 BYTE   N03  Fn2
 BYTE   W06
 BYTE   Cn2  v113
 BYTE   N03  Fn2
 BYTE   W24
//  #06 //007   ----------------------------------------
 BYTE   Cn2  v110
 BYTE   N03  Fn2
 BYTE   W06
 BYTE   Cn2  v112
 BYTE   N03  Fn2
 BYTE   W06
 BYTE   Cn2  v113
 BYTE   N03  Fn2
 BYTE   W06
 BYTE   Cn2  v114
 BYTE   N03  Fn2
 BYTE   W06
 BYTE   Cs2  v115
 BYTE   N03  Gs2
 BYTE   W06
 BYTE   Cs2  v110
 BYTE   N03  Gs2
 BYTE   W06
 BYTE   Cs2  v113
 BYTE   N03  Gs2
 BYTE   W24
 BYTE   Cs2  v110
 BYTE   N03  Gs2
 BYTE   W06
 BYTE   Cs2  v112
 BYTE   N03  Gs2
 BYTE   W06
 BYTE   Cs2  v113
 BYTE   N03  Gs2
 BYTE   W24
//  #06 //008   ----------------------------------------
 BYTE   Cs2  v110
 BYTE   N03  Gs2
 BYTE   W06
 BYTE   Cs2  v112
 BYTE   N03  Gs2
 BYTE   W06
 BYTE   Cs2  v113
 BYTE   N03  Gs2
 BYTE   W06
 BYTE   Cs2  v114
 BYTE   N03  Gs2
 BYTE   W06
 BYTE   Cn2  v115
 BYTE   W06
 BYTE   Cn2  v110
 BYTE   W06
 BYTE   Cn2  v113
 BYTE   W24
 BYTE   Cn2  v110
 BYTE   W06
 BYTE   Cn2  v112
 BYTE   W06
 BYTE   Cn2  v113
 BYTE   W24
//  #06 //009   ----------------------------------------
 BYTE   PATT
  POIN2 Label_010F982D
//  #06 //010   ----------------------------------------
 BYTE   PATT
  POIN2 Label_010F982D
//  #06 //011   ----------------------------------------
 BYTE   PATT
  POIN2 Label_010F982D
//  #06 //012   ----------------------------------------
Label_010F990D:
 BYTE   N03  Cn2  v110
 BYTE   W06
 BYTE   Cn2  v112
 BYTE   W06
 BYTE   Cn2  v113
 BYTE   W06
 BYTE   Cn2  v114
 BYTE   W06
 BYTE   Cs2  v115
 BYTE   W06
 BYTE   Cs2  v110
 BYTE   W06
 BYTE   Cs2  v113
 BYTE   W24
 BYTE   Cs2  v110
 BYTE   W06
 BYTE   Cs2  v112
 BYTE   W06
 BYTE   Cs2  v113
 BYTE   W24
 BYTE   PEND
//  #06 //013   ----------------------------------------
Label_010F992D:
 BYTE   N03  Cs2  v110
 BYTE   W06
 BYTE   Cs2  v112
 BYTE   W06
 BYTE   Cs2  v113
 BYTE   W06
 BYTE   Cs2  v114
 BYTE   W06
 BYTE   Cn2  v115
 BYTE   W06
 BYTE   Cn2  v110
 BYTE   W06
 BYTE   Cn2  v113
 BYTE   W24
 BYTE   Cn2  v110
 BYTE   W06
 BYTE   Cn2  v112
 BYTE   W06
 BYTE   Cn2  v113
 BYTE   W24
 BYTE   PEND
//  #06 //014   ----------------------------------------
 BYTE   PATT
  POIN2 Label_010F990D
//  #06 //015   ----------------------------------------
Label_010F9952:
 BYTE   N03  Cs2  v110
 BYTE   W06
 BYTE   Cs2  v112
 BYTE   W06
 BYTE   Cs2  v113
 BYTE   W06
 BYTE   Cs2  v114
 BYTE   W06
 BYTE   Cs2  v115
 BYTE   W06
 BYTE   Cs2  v110
 BYTE   W06
 BYTE   Cs2  v113
 BYTE   W24
 BYTE   Cs2  v110
 BYTE   W06
 BYTE   Cs2  v112
 BYTE   W06
 BYTE   Cs2  v113
 BYTE   W24
 BYTE   PEND
//  #06 //016   ----------------------------------------
 BYTE   PATT
  POIN2 Label_010F992D
//  #06 //017   ----------------------------------------
 BYTE   PATT
  POIN2 Label_010F982D
//  #06 //018   ----------------------------------------
 BYTE   PATT
  POIN2 Label_010F982D
//  #06 //019   ----------------------------------------
 BYTE   PATT
  POIN2 Label_010F982D
//  #06 //020   ----------------------------------------
 BYTE   PATT
  POIN2 Label_010F990D
//  #06 //021   ----------------------------------------
 BYTE   PATT
  POIN2 Label_010F9952
//  #06 //022   ----------------------------------------
 BYTE   PATT
  POIN2 Label_010F9952
//  #06 //023   ----------------------------------------
 BYTE   PATT
  POIN2 Label_010F9952
//  #06 //024   ----------------------------------------
 BYTE   PATT
  POIN2 Label_010F992D
//  #06 //025   ----------------------------------------
 BYTE   PATT
  POIN2 Label_010F982D
//  #06 //026   ----------------------------------------
 BYTE   PATT
  POIN2 Label_010F982D
//  #06 //027   ----------------------------------------
 BYTE   PATT
  POIN2 Label_010F982D
//  #06 //028   ----------------------------------------
 BYTE   PATT
  POIN2 Label_010F990D
//  #06 //029   ----------------------------------------
 BYTE   PATT
  POIN2 Label_010F9952
//  #06 //030   ----------------------------------------
 BYTE   PATT
  POIN2 Label_010F9952
//  #06 //031   ----------------------------------------
 BYTE   PATT
  POIN2 Label_010F9952
//  #06 //032   ----------------------------------------
 BYTE   PATT
  POIN2 Label_010F992D
//  #06 //033   ----------------------------------------
 BYTE   PATT
  POIN2 Label_010F982D
//  #06 //034   ----------------------------------------
 BYTE   PATT
  POIN2 Label_010F982D
//  #06 //035   ----------------------------------------
Label_010F99D1:
 BYTE   N03  Cn2  v110
 BYTE   W06
 BYTE   Cn2  v112
 BYTE   W06
 BYTE   Cn2  v113
 BYTE   W06
 BYTE   Cn2  v114
 BYTE   W06
 BYTE   As1  v115
 BYTE   W06
 BYTE   As1  v110
 BYTE   W06
 BYTE   As1  v113
 BYTE   W24
 BYTE   As1  v110
 BYTE   W06
 BYTE   As1  v112
 BYTE   W06
 BYTE   As1  v113
 BYTE   W24
 BYTE   PEND
//  #06 //036   ----------------------------------------
Label_010F99F1:
 BYTE   N03  As1  v110
 BYTE   W06
 BYTE   As1  v112
 BYTE   W06
 BYTE   As1  v113
 BYTE   W06
 BYTE   As1  v114
 BYTE   W06
 BYTE   Gs1  v115
 BYTE   W06
 BYTE   Gs1  v110
 BYTE   W06
 BYTE   Gs1  v113
 BYTE   W24
 BYTE   Gs1  v110
 BYTE   W06
 BYTE   Gs1  v112
 BYTE   W06
 BYTE   Gs1  v113
 BYTE   W24
 BYTE   PEND
//  #06 //037   ----------------------------------------
Label_010F9A11:
 BYTE   N03  Gs1  v110
 BYTE   W06
 BYTE   Gs1  v112
 BYTE   W06
 BYTE   Gs1  v113
 BYTE   W06
 BYTE   Gs1  v114
 BYTE   W06
 BYTE   Fn1  v115
 BYTE   W06
 BYTE   Fn1  v110
 BYTE   W06
 BYTE   Fn1  v113
 BYTE   W24
 BYTE   Fn1  v110
 BYTE   W06
 BYTE   Fn1  v112
 BYTE   W06
 BYTE   Fn1  v113
 BYTE   W24
 BYTE   PEND
//  #06 //038   ----------------------------------------
Label_010F9A31:
 BYTE   N03  Fn1  v110
 BYTE   W06
 BYTE   Fn1  v112
 BYTE   W06
 BYTE   Fn1  v113
 BYTE   W06
 BYTE   Fn1  v114
 BYTE   W06
 BYTE   Cn2  v115
 BYTE   W06
 BYTE   Cn2  v110
 BYTE   W06
 BYTE   Cn2  v113
 BYTE   W24
 BYTE   Cn2  v110
 BYTE   W06
 BYTE   Cn2  v112
 BYTE   W06
 BYTE   Cn2  v113
 BYTE   W24
 BYTE   PEND
//  #06 //039   ----------------------------------------
 BYTE   Cn2  v110
 BYTE   W06
 BYTE   Cn2  v112
 BYTE   W06
 BYTE   Cn2  v113
 BYTE   W06
 BYTE   Cn2  v114
 BYTE   W06
 BYTE   Gn1  v115
 BYTE   W06
 BYTE   Gn1  v110
 BYTE   W06
 BYTE   Gn1  v113
 BYTE   W24
 BYTE   Gn1  v110
 BYTE   W06
 BYTE   Gn1  v112
 BYTE   W06
 BYTE   Gn1  v113
 BYTE   W24
//  #06 //040   ----------------------------------------
Label_010F9A6F:
 BYTE   N03  Gn1  v110
 BYTE   W06
 BYTE   Gn1  v112
 BYTE   W06
 BYTE   Gn1  v113
 BYTE   W06
 BYTE   Gn1  v114
 BYTE   W06
 BYTE   Cn2  v115
 BYTE   W06
 BYTE   Cn2  v110
 BYTE   W06
 BYTE   Cn2  v113
 BYTE   W24
 BYTE   Cn2  v110
 BYTE   W06
 BYTE   Cn2  v112
 BYTE   W06
 BYTE   Cn2  v113
 BYTE   W24
 BYTE   PEND
//  #06 //041   ----------------------------------------
 BYTE   PATT
  POIN2 Label_010F982D
//  #06 //042   ----------------------------------------
 BYTE   PATT
  POIN2 Label_010F982D
//  #06 //043   ----------------------------------------
 BYTE   PATT
  POIN2 Label_010F99D1
//  #06 //044   ----------------------------------------
 BYTE   PATT
  POIN2 Label_010F99F1
//  #06 //045   ----------------------------------------
 BYTE   PATT
  POIN2 Label_010F9A11
//  #06 //046   ----------------------------------------
 BYTE   PATT
  POIN2 Label_010F9A31
//  #06 //047   ----------------------------------------
 BYTE   PATT
  POIN2 Label_010F99D1
//  #06 //048   ----------------------------------------
 BYTE   PATT
  POIN2 Label_010F99F1
//  #06 //049   ----------------------------------------
 BYTE   N03  Gs1  v110
 BYTE   W06
 BYTE   Gs1  v112
 BYTE   W06
 BYTE   Gs1  v113
 BYTE   W06
 BYTE   Gs1  v114
 BYTE   W06
 BYTE   As1  v115
 BYTE   W06
 BYTE   As1  v110
 BYTE   W06
 BYTE   As1  v113
 BYTE   W24
 BYTE   As1  v110
 BYTE   W06
 BYTE   As1  v112
 BYTE   W06
 BYTE   As1  v113
 BYTE   W24
//  #06 //050   ----------------------------------------
 BYTE   As1  v110
 BYTE   W06
 BYTE   As1  v112
 BYTE   W06
 BYTE   As1  v113
 BYTE   W06
 BYTE   As1  v114
 BYTE   W06
 BYTE   Cn2  v115
 BYTE   W06
 BYTE   Cn2  v110
 BYTE   W06
 BYTE   Cn2  v113
 BYTE   W24
 BYTE   Cn2  v110
 BYTE   W06
 BYTE   Cn2  v112
 BYTE   W06
 BYTE   Cn2  v113
 BYTE   W24
//  #06 //051   ----------------------------------------
 BYTE   Cn2  v110
 BYTE   W06
 BYTE   Cn2  v112
 BYTE   W06
 BYTE   Cn2  v113
 BYTE   W06
 BYTE   Cn2  v114
 BYTE   W06
 BYTE   Ds1  v115
 BYTE   W06
 BYTE   Ds1  v110
 BYTE   W06
 BYTE   Ds1  v113
 BYTE   W24
 BYTE   Ds1  v110
 BYTE   W06
 BYTE   Ds1  v112
 BYTE   W06
 BYTE   Ds1  v113
 BYTE   W24
//  #06 //052   ----------------------------------------
 BYTE   Ds1  v110
 BYTE   W06
 BYTE   Ds1  v112
 BYTE   W06
 BYTE   Ds1  v113
 BYTE   W06
 BYTE   Ds1  v114
 BYTE   W06
 BYTE   Gs1  v115
 BYTE   W06
 BYTE   Gs1  v110
 BYTE   W06
 BYTE   Gs1  v113
 BYTE   W24
 BYTE   Gs1  v110
 BYTE   W06
 BYTE   Gs1  v112
 BYTE   W06
 BYTE   Gs1  v113
 BYTE   W24
//  #06 //053   ----------------------------------------
 BYTE   Gs1  v110
 BYTE   W06
 BYTE   Gs1  v112
 BYTE   W06
 BYTE   Gs1  v113
 BYTE   W06
 BYTE   Gs1  v114
 BYTE   W06
 BYTE   Cs2  v115
 BYTE   W06
 BYTE   Cs2  v110
 BYTE   W06
 BYTE   Cs2  v113
 BYTE   W24
 BYTE   Cs2  v110
 BYTE   W06
 BYTE   Cs2  v112
 BYTE   W06
 BYTE   Cs2  v113
 BYTE   W24
//  #06 //054   ----------------------------------------
 BYTE   Cs2  v110
 BYTE   W06
 BYTE   Cs2  v112
 BYTE   W06
 BYTE   Cs2  v113
 BYTE   W06
 BYTE   Cs2  v114
 BYTE   W06
 BYTE   Dn2  v115
 BYTE   W06
 BYTE   Dn2  v110
 BYTE   W06
 BYTE   Dn2  v113
 BYTE   W24
 BYTE   Dn2  v110
 BYTE   W06
 BYTE   Dn2  v112
 BYTE   W06
 BYTE   Dn2  v113
 BYTE   W24
//  #06 //055   ----------------------------------------
 BYTE   Dn2  v110
 BYTE   W06
 BYTE   Dn2  v112
 BYTE   W06
 BYTE   Dn2  v113
 BYTE   W06
 BYTE   Dn2  v114
 BYTE   W06
 BYTE   Gn1  v115
 BYTE   W06
 BYTE   Gn1  v110
 BYTE   W06
 BYTE   Gn1  v113
 BYTE   W24
 BYTE   Gn1  v110
 BYTE   W06
 BYTE   Gn1  v112
 BYTE   W06
 BYTE   Gn1  v113
 BYTE   W24
//  #06 //056   ----------------------------------------
 BYTE   PATT
  POIN2 Label_010F9A6F
//  #06 //057   ----------------------------------------
 BYTE   N03  Cn2  v110
 BYTE   W06
 BYTE   Cn2  v112
 BYTE   W06
 BYTE   Cn2  v113
 BYTE   W06
 BYTE   Cn2  v114
 BYTE   W06
 BYTE   Cn2  v115
 BYTE   W06
 BYTE   Cn2  v110
 BYTE   W06
 BYTE   Cn2  v113
 BYTE   W24
 BYTE   Cn2  v110
 BYTE   W06
 BYTE   Cn2  v112
 BYTE   W06
 BYTE   Cn2  v113
 BYTE   W23
 BYTE   GoTo
  POIN2 Label_010F984D
//  #06 //058   ----------------------------------------
 BYTE   W01
 BYTE   Cn2  v110
 BYTE   W06
 BYTE   Cn2  v112
 BYTE   W06
 BYTE   Cn2  v113
 BYTE   W06
 BYTE   Cn2  v114
 BYTE   W30
 BYTE   FINE

//**************** Track 7 (Midi-Chn.6) ****************//

HeavyArmoredCorps_007:
//  #07 //000   ----------------------------------------
 BYTE   KEYSH   HeavyArmoredCorps_key+0
 BYTE   W01
 BYTE   VOICE   1
 BYTE   VOL   34*HeavyArmoredCorps_mvl/mxv
 BYTE   W01
 BYTE   PAN   c_v+56
 BYTE   W22
 BYTE   N06  Cn1  v118
 BYTE   W36
 BYTE   Cn1  v113
 BYTE   W36
//  #07 //001   ----------------------------------------
Label_010F86FE:
 BYTE   N06  Cn1  v115
 BYTE   W24
 BYTE   Cn1  v118
 BYTE   W36
 BYTE   Cn1  v113
 BYTE   W36
 BYTE   PEND
//  #07 //002   ----------------------------------------
Label_010F8709:
 BYTE   N06  Cn1  v115
 BYTE   W24
 BYTE   Cn1  v118
 BYTE   W36
 BYTE   Cn1  v113
 BYTE   W36
//  #07 //003   ----------------------------------------
 BYTE   PATT
  POIN2 Label_010F86FE
//  #07 //004   ----------------------------------------
 BYTE   PATT
  POIN2 Label_010F86FE
//  #07 //005   ----------------------------------------
 BYTE   PATT
  POIN2 Label_010F86FE
//  #07 //006   ----------------------------------------
 BYTE   PATT
  POIN2 Label_010F86FE
//  #07 //007   ----------------------------------------
 BYTE   PATT
  POIN2 Label_010F86FE
//  #07 //008   ----------------------------------------
 BYTE   PATT
  POIN2 Label_010F86FE
//  #07 //009   ----------------------------------------
 BYTE   PATT
  POIN2 Label_010F86FE
//  #07 //010   ----------------------------------------
 BYTE   PATT
  POIN2 Label_010F86FE
//  #07 //011   ----------------------------------------
 BYTE   PATT
  POIN2 Label_010F86FE
//  #07 //012   ----------------------------------------
 BYTE   PATT
  POIN2 Label_010F86FE
//  #07 //013   ----------------------------------------
 BYTE   PATT
  POIN2 Label_010F86FE
//  #07 //014   ----------------------------------------
 BYTE   PATT
  POIN2 Label_010F86FE
//  #07 //015   ----------------------------------------
 BYTE   PATT
  POIN2 Label_010F86FE
//  #07 //016   ----------------------------------------
 BYTE   PATT
  POIN2 Label_010F86FE
//  #07 //017   ----------------------------------------
 BYTE   PATT
  POIN2 Label_010F86FE
//  #07 //018   ----------------------------------------
 BYTE   PATT
  POIN2 Label_010F86FE
//  #07 //019   ----------------------------------------
 BYTE   PATT
  POIN2 Label_010F86FE
//  #07 //020   ----------------------------------------
 BYTE   PATT
  POIN2 Label_010F86FE
//  #07 //021   ----------------------------------------
 BYTE   PATT
  POIN2 Label_010F86FE
//  #07 //022   ----------------------------------------
 BYTE   PATT
  POIN2 Label_010F86FE
//  #07 //023   ----------------------------------------
 BYTE   PATT
  POIN2 Label_010F86FE
//  #07 //024   ----------------------------------------
 BYTE   PATT
  POIN2 Label_010F86FE
//  #07 //025   ----------------------------------------
 BYTE   PATT
  POIN2 Label_010F86FE
//  #07 //026   ----------------------------------------
 BYTE   PATT
  POIN2 Label_010F86FE
//  #07 //027   ----------------------------------------
 BYTE   PATT
  POIN2 Label_010F86FE
//  #07 //028   ----------------------------------------
 BYTE   PATT
  POIN2 Label_010F86FE
//  #07 //029   ----------------------------------------
 BYTE   PATT
  POIN2 Label_010F86FE
//  #07 //030   ----------------------------------------
 BYTE   PATT
  POIN2 Label_010F86FE
//  #07 //031   ----------------------------------------
 BYTE   PATT
  POIN2 Label_010F86FE
//  #07 //032   ----------------------------------------
 BYTE   PATT
  POIN2 Label_010F86FE
//  #07 //033   ----------------------------------------
 BYTE   PATT
  POIN2 Label_010F86FE
//  #07 //034   ----------------------------------------
 BYTE   PATT
  POIN2 Label_010F86FE
//  #07 //035   ----------------------------------------
Label_010F87B3:
 BYTE   N06  Cn1  v115
 BYTE   W24
 BYTE   As0  v118
 BYTE   W36
 BYTE   As0  v113
 BYTE   W36
 BYTE   PEND
//  #07 //036   ----------------------------------------
Label_010F87BE:
 BYTE   N06  As0  v115
 BYTE   W24
 BYTE   Gs0  v118
 BYTE   W36
 BYTE   Gs0  v113
 BYTE   W36
 BYTE   PEND
//  #07 //037   ----------------------------------------
Label_010F87C9:
 BYTE   N06  Gs0  v115
 BYTE   W24
 BYTE   Fn0  v118
 BYTE   W36
 BYTE   Fn0  v113
 BYTE   W36
 BYTE   PEND
//  #07 //038   ----------------------------------------
Label_010F87D4:
 BYTE   N06  Fn0  v115
 BYTE   W24
 BYTE   Cn1  v118
 BYTE   W36
 BYTE   Cn1  v113
 BYTE   W36
 BYTE   PEND
//  #07 //039   ----------------------------------------
 BYTE   Cn1  v115
 BYTE   W24
 BYTE   Gn0  v118
 BYTE   W36
 BYTE   Gn0  v113
 BYTE   W36
//  #07 //040   ----------------------------------------
Label_010F87E8:
 BYTE   N06  Gn0  v115
 BYTE   W24
 BYTE   Cn1  v118
 BYTE   W36
 BYTE   Cn1  v113
 BYTE   W36
 BYTE   PEND
//  #07 //041   ----------------------------------------
 BYTE   PATT
  POIN2 Label_010F86FE
//  #07 //042   ----------------------------------------
 BYTE   PATT
  POIN2 Label_010F86FE
//  #07 //043   ----------------------------------------
 BYTE   PATT
  POIN2 Label_010F87B3
//  #07 //044   ----------------------------------------
 BYTE   PATT
  POIN2 Label_010F87BE
//  #07 //045   ----------------------------------------
 BYTE   PATT
  POIN2 Label_010F87C9
//  #07 //046   ----------------------------------------
 BYTE   PATT
  POIN2 Label_010F87D4
//  #07 //047   ----------------------------------------
 BYTE   PATT
  POIN2 Label_010F87B3
//  #07 //048   ----------------------------------------
 BYTE   PATT
  POIN2 Label_010F87BE
//  #07 //049   ----------------------------------------
 BYTE   N06  Gs0  v115
 BYTE   W24
 BYTE   As0  v118
 BYTE   W36
 BYTE   As0  v113
 BYTE   W36
//  #07 //050   ----------------------------------------
 BYTE   As0  v115
 BYTE   W24
 BYTE   Cn1  v118
 BYTE   W36
 BYTE   Cn1  v113
 BYTE   W36
//  #07 //051   ----------------------------------------
 BYTE   Cn1  v115
 BYTE   W24
 BYTE   Ds0  v118
 BYTE   W36
 BYTE   Ds0  v113
 BYTE   W36
//  #07 //052   ----------------------------------------
 BYTE   Ds0  v115
 BYTE   W24
 BYTE   Gs0  v118
 BYTE   W36
 BYTE   Gs0  v113
 BYTE   W36
//  #07 //053   ----------------------------------------
 BYTE   Gs0  v115
 BYTE   W24
 BYTE   Cs1  v118
 BYTE   W36
 BYTE   Cs1  v113
 BYTE   W36
//  #07 //054   ----------------------------------------
 BYTE   Cs1  v115
 BYTE   W24
 BYTE   Dn1  v118
 BYTE   W36
 BYTE   Dn1  v113
 BYTE   W36
//  #07 //055   ----------------------------------------
 BYTE   Dn1  v115
 BYTE   W24
 BYTE   Gn0  v118
 BYTE   W36
 BYTE   Gn0  v113
 BYTE   W36
//  #07 //056   ----------------------------------------
 BYTE   PATT
  POIN2 Label_010F87E8
//  #07 //057   ----------------------------------------
 BYTE   N06  Cn1  v115
 BYTE   W24
 BYTE   Cn1  v118
 BYTE   W36
 BYTE   Cn1  v113
 BYTE   W32
 BYTE   W03
 BYTE   GoTo
  POIN2 Label_010F8709
//  #07 //058   ----------------------------------------
 BYTE   W01
 BYTE   Cn1  v115
 BYTE   W48
 BYTE   FINE

//**************** Track 8 (Midi-Chn.7) ****************//

HeavyArmoredCorps_008:
//  #08 //000   ----------------------------------------
 BYTE   KEYSH   HeavyArmoredCorps_key+0
 BYTE   W02
 BYTE   VOICE   60
 BYTE   VOL   31*HeavyArmoredCorps_mvl/mxv
 BYTE   PAN   c_v-10
 BYTE   W92
 BYTE   W02
//  #08 //001   ----------------------------------------
 BYTE   W96
//  #08 //002   ----------------------------------------
Label_010F95A8:
 BYTE   W96
//  #08 //003   ----------------------------------------
 BYTE   W96
//  #08 //004   ----------------------------------------
 BYTE   W96
//  #08 //005   ----------------------------------------
 BYTE   W96
//  #08 //006   ----------------------------------------
 BYTE   W96
//  #08 //007   ----------------------------------------
 BYTE   W96
//  #08 //008   ----------------------------------------
 BYTE   W96
//  #08 //009   ----------------------------------------
 BYTE   W96
//  #08 //010   ----------------------------------------
 BYTE   W96
//  #08 //011   ----------------------------------------
 BYTE   W96
//  #08 //012   ----------------------------------------
 BYTE   W96
//  #08 //013   ----------------------------------------
 BYTE   W96
//  #08 //014   ----------------------------------------
 BYTE   W96
//  #08 //015   ----------------------------------------
 BYTE   W96
//  #08 //016   ----------------------------------------
 BYTE   W24
 BYTE   N48  Ds3  v112  gtp2
 BYTE   Cn4  v114
 BYTE   W48
 BYTE   N24  Dn3  v110  gtp2
 BYTE   As3
 BYTE   W24
//  #08 //017   ----------------------------------------
Label_010F95C4:
 BYTE   N24  Ds3  v112  gtp2
 BYTE   Cn4  v114
 BYTE   W24
 BYTE   N48  Fn3  v113  gtp2
 BYTE   Dn4
 BYTE   W48
 BYTE   Dn3  v110
 BYTE   N48  As3  v113  gtp2
 BYTE   W24
 BYTE   PEND
//  #08 //018   ----------------------------------------
Label_010F95D9:
 BYTE   W24
 BYTE   N48  Gn3  v115
 BYTE   N48  Ds4  v116  gtp2
 BYTE   W48
 BYTE   N96  Cn3  v112
 BYTE   N96  Gn3  v109
 BYTE   W24
 BYTE   PEND
//  #08 //019   ----------------------------------------
Label_010F95EA:
 BYTE   W72
 BYTE   N48  Gn3  v112  gtp2
 BYTE   Cn4  v111
 BYTE   W24
 BYTE   PEND
//  #08 //020   ----------------------------------------
Label_010F95F3:
 BYTE   W24
 BYTE   TIE  Gs3  v113
 BYTE   N48  Gn4  v112  gtp2
 BYTE   W48
 BYTE   N24  Fn4  v110  gtp2
 BYTE   W24
 BYTE   PEND
//  #08 //021   ----------------------------------------
Label_010F9602:
 BYTE   N24  Gn4  v111  gtp2
 BYTE   W24
 BYTE   TIE  Cs4  v115
 BYTE   N48  As4  v117  gtp2
 BYTE   W02
 BYTE   EOT
 BYTE   Gs3
 BYTE   W44
 BYTE   W02
 BYTE   N24  Gs4  v112  gtp2
 BYTE   W24
 BYTE   PEND
//  #08 //022   ----------------------------------------
 BYTE   Gn4  v113
 BYTE   W24
 BYTE   TIE  Gs3  v112
 BYTE   N48  Fn4  v110  gtp2
 BYTE   W02
 BYTE   EOT
 BYTE   Cs4
 BYTE   W44
 BYTE   W02
 BYTE   N48  Ds4  v115
 BYTE   W24
//  #08 //023   ----------------------------------------
 BYTE   W24
 BYTE   TIE  Fn3  v112
 BYTE   N96  Cs4  v115
 BYTE   W02
 BYTE   EOT
 BYTE   Gs3
 BYTE   W68
 BYTE   W02
//  #08 //024   ----------------------------------------
 BYTE   W24
 BYTE   N48  Ds3  v112  gtp2
 BYTE   Cn4  v114
 BYTE   W02
 BYTE   EOT
 BYTE   Fn3
 BYTE   W44
 BYTE   W02
 BYTE   N24  Dn3  v110  gtp2
 BYTE   As3
 BYTE   W24
//  #08 //025   ----------------------------------------
 BYTE   PATT
  POIN2 Label_010F95C4
//  #08 //026   ----------------------------------------
 BYTE   PATT
  POIN2 Label_010F95D9
//  #08 //027   ----------------------------------------
 BYTE   PATT
  POIN2 Label_010F95EA
//  #08 //028   ----------------------------------------
 BYTE   PATT
  POIN2 Label_010F95F3
//  #08 //029   ----------------------------------------
 BYTE   PATT
  POIN2 Label_010F9602
//  #08 //030   ----------------------------------------
 BYTE   N24  Gn4  v113  gtp2
 BYTE   W24
 BYTE   N48  Fn3  v112  gtp2
 BYTE   Fn4  v110
 BYTE   W02
 BYTE   EOT
 BYTE   Cs4
 BYTE   W44
 BYTE   W02
 BYTE   N48  Gn3  v112  gtp2
 BYTE   Gn4
 BYTE   W24
//  #08 //031   ----------------------------------------
 BYTE   W24
 BYTE   N96  Gs3  v113
 BYTE   N96  Gs4
 BYTE   W72
//  #08 //032   ----------------------------------------
 BYTE   W96
//  #08 //033   ----------------------------------------
 BYTE   W96
//  #08 //034   ----------------------------------------
 BYTE   W96
//  #08 //035   ----------------------------------------
 BYTE   W96
//  #08 //036   ----------------------------------------
 BYTE   W96
//  #08 //037   ----------------------------------------
 BYTE   W96
//  #08 //038   ----------------------------------------
 BYTE   W96
//  #08 //039   ----------------------------------------
 BYTE   W96
//  #08 //040   ----------------------------------------
 BYTE   W96
//  #08 //041   ----------------------------------------
 BYTE   W96
//  #08 //042   ----------------------------------------
 BYTE   W96
//  #08 //043   ----------------------------------------
 BYTE   W96
//  #08 //044   ----------------------------------------
 BYTE   W96
//  #08 //045   ----------------------------------------
 BYTE   W96
//  #08 //046   ----------------------------------------
 BYTE   W96
//  #08 //047   ----------------------------------------
 BYTE   W96
//  #08 //048   ----------------------------------------
 BYTE   N24  Gn3  v115  gtp2
 BYTE   W24
 BYTE   N48  Cn4  v117  gtp2
 BYTE   W48
 BYTE   N24  As3  v115  gtp2
 BYTE   W24
//  #08 //049   ----------------------------------------
 BYTE   Cn4  v117
 BYTE   W24
 BYTE   N48  Dn4  v118  gtp2
 BYTE   W48
 BYTE   As3  v115
 BYTE   W24
//  #08 //050   ----------------------------------------
 BYTE   W24
 BYTE   Fn4  v119
 BYTE   W48
 BYTE   Ds4  v120
 BYTE   W24
//  #08 //051   ----------------------------------------
 BYTE   W24
 BYTE   N24  Dn4  v115  gtp2
 BYTE   W24
 BYTE   Gn3
 BYTE   W24
 BYTE   N36  Cn4  v117  gtp1
 BYTE   W24
//  #08 //052   ----------------------------------------
 BYTE   W12
 BYTE   N13  As3  v118
 BYTE   W12
 BYTE   N48  Ds3  v119  gtp1
 BYTE   Gs3  v120
 BYTE   W48
 BYTE   N24  Fn3  v118  gtp2
 BYTE   N48  As3  v119  gtp1
 BYTE   W24
//  #08 //053   ----------------------------------------
 BYTE   N24  Gn3  v119  gtp2
 BYTE   W24
 BYTE   N48  Fn3  v120  gtp2
 BYTE   N48  Cn4  v118  gtp1
 BYTE   W48
 BYTE   N24  Gn3  v119  gtp2
 BYTE   N72  Fn4  v114  gtp1
 BYTE   W24
//  #08 //054   ----------------------------------------
 BYTE   N24  Gs3  v118  gtp2
 BYTE   W24
 BYTE   TIE  Gn3  v119
 BYTE   W24
 BYTE   N24  Cn4  v118  gtp1
 BYTE   W24
 BYTE   N36  Gn4  v118  gtp1
 BYTE   W24
//  #08 //055   ----------------------------------------
 BYTE   W12
 BYTE   N13  Fn4
 BYTE   W12
 BYTE   N96  Gn4  v120
 BYTE   W72
//  #08 //056   ----------------------------------------
 BYTE   W24
 BYTE   EOT
 BYTE   Gn3
 BYTE   W72
//  #08 //057   ----------------------------------------
 BYTE   W92
 BYTE   W03
 BYTE   GoTo
  POIN2 Label_010F95A8
//  #08 //058   ----------------------------------------
 BYTE   W01
 BYTE   W48
 BYTE   FINE

//**************** Track 9 (Midi-Chn.8) ****************//

HeavyArmoredCorps_009:
//  #09 //000   ----------------------------------------
 BYTE   KEYSH   HeavyArmoredCorps_key+0
 BYTE   W02
 BYTE   VOICE   73
 BYTE   VOL   26*HeavyArmoredCorps_mvl/mxv
 BYTE   PAN   c_v+11
 BYTE   W92
 BYTE   W02
//  #09 //001   ----------------------------------------
 BYTE   W96
//  #09 //002   ----------------------------------------
Label_010F9BD0:
 BYTE   W96
//  #09 //003   ----------------------------------------
 BYTE   W96
//  #09 //004   ----------------------------------------
 BYTE   W96
//  #09 //005   ----------------------------------------
 BYTE   W96
//  #09 //006   ----------------------------------------
 BYTE   W96
//  #09 //007   ----------------------------------------
 BYTE   W96
//  #09 //008   ----------------------------------------
 BYTE   W96
//  #09 //009   ----------------------------------------
 BYTE   W96
//  #09 //010   ----------------------------------------
 BYTE   W96
//  #09 //011   ----------------------------------------
 BYTE   W96
//  #09 //012   ----------------------------------------
 BYTE   W96
//  #09 //013   ----------------------------------------
 BYTE   W96
//  #09 //014   ----------------------------------------
 BYTE   W96
//  #09 //015   ----------------------------------------
 BYTE   W96
//  #09 //016   ----------------------------------------
 BYTE   W96
//  #09 //017   ----------------------------------------
 BYTE   W96
//  #09 //018   ----------------------------------------
Label_010F9BE0:
 BYTE   W72
 BYTE   N48  Ds4  v112  gtp2
 BYTE   Gn4  v113
 BYTE   W24
 BYTE   PEND
//  #09 //019   ----------------------------------------
Label_010F9BE9:
 BYTE   W24
 BYTE   N48  Dn4  v110  gtp2
 BYTE   Fn4
 BYTE   W48
 BYTE   N48  Cn4  v108
 BYTE   N48  Ds4  v109
 BYTE   W24
 BYTE   PEND
//  #09 //020   ----------------------------------------
 BYTE   W96
//  #09 //021   ----------------------------------------
 BYTE   W96
//  #09 //022   ----------------------------------------
 BYTE   W72
 BYTE   Ds4  v113
 BYTE   N48  As4  v113  gtp2
 BYTE   W24
//  #09 //023   ----------------------------------------
 BYTE   W24
 BYTE   TIE  Cs4  v110
 BYTE   N48  Gs4  v110  gtp2
 BYTE   W48
 BYTE   Fn4  v108
 BYTE   W24
//  #09 //024   ----------------------------------------
 BYTE   W24
 BYTE   TIE  Gn4
 BYTE   W02
 BYTE   EOT
 BYTE   Cs4
 BYTE   W68
 BYTE   W02
//  #09 //025   ----------------------------------------
 BYTE   W48
 BYTE   W02
 BYTE   Gn4
 BYTE   W44
 BYTE   W02
//  #09 //026   ----------------------------------------
 BYTE   PATT
  POIN2 Label_010F9BE0
//  #09 //027   ----------------------------------------
 BYTE   PATT
  POIN2 Label_010F9BE9
//  #09 //028   ----------------------------------------
 BYTE   W96
//  #09 //029   ----------------------------------------
 BYTE   W96
//  #09 //030   ----------------------------------------
 BYTE   W72
 BYTE   N96  Fn4  v113
 BYTE   N48  As4  v113  gtp2
 BYTE   W24
//  #09 //031   ----------------------------------------
 BYTE   W24
 BYTE   Gs4  v110
 BYTE   W48
 BYTE   Cs4
 BYTE   N48  Fn4  v108  gtp2
 BYTE   W24
//  #09 //032   ----------------------------------------
Label_010F9C3A:
 BYTE   W24
 BYTE   TIE  Ds4  v112
 BYTE   TIE  Gn4  v113
 BYTE   W72
 BYTE   PEND
//  #09 //033   ----------------------------------------
Label_010F9C43:
 BYTE   W24
 BYTE   TIE  Dn4  v110
 BYTE   TIE  Fn4  v112
 BYTE   W02
 BYTE   EOT
 BYTE   Ds4  v079
 BYTE   W68
 BYTE   W02
 BYTE   PEND
//  #09 //034   ----------------------------------------
Label_010F9C51:
 BYTE   W24
 BYTE   TIE  Cn4  v112
 BYTE   TIE  Ds4  v108
 BYTE   W02
 BYTE   EOT
 BYTE   Dn4  v077
 BYTE   W68
 BYTE   W02
 BYTE   PEND
//  #09 //035   ----------------------------------------
Label_010F9C5F:
 BYTE   W24
 BYTE   TIE  As3  v109
 BYTE   TIE  Dn4
 BYTE   W02
 BYTE   EOT
 BYTE   Cn4  v075
 BYTE   W68
 BYTE   W02
 BYTE   PEND
//  #09 //036   ----------------------------------------
Label_010F9C6C:
 BYTE   W24
 BYTE   N96  Gs3  v110
 BYTE   N96  Cn4
 BYTE   W02
 BYTE   EOT
 BYTE   As3  v074
 BYTE   W68
 BYTE   W02
 BYTE   PEND
//  #09 //037   ----------------------------------------
Label_010F9C79:
 BYTE   W48
 BYTE   N24  Fn3  v110  gtp2
 BYTE   Gs3  v108
 BYTE   W24
 BYTE   N36  Gn3  v112  gtp2
 BYTE   As3  v110
 BYTE   W24
 BYTE   PEND
//  #09 //038   ----------------------------------------
Label_010F9C89:
 BYTE   W12
 BYTE   N14  Gs3  v113
 BYTE   N14  Cn4  v112
 BYTE   W12
 BYTE   N48  As3  v114  gtp2
 BYTE   Dn4
 BYTE   W48
 BYTE   Cn4
 BYTE   N48  Ds4  v115  gtp2
 BYTE   W24
 BYTE   PEND
//  #09 //039   ----------------------------------------
Label_010F9C9E:
 BYTE   W24
 BYTE   N48  As3  v114
 BYTE   N48  Dn4
 BYTE   W48
 BYTE   Gn3  v113
 BYTE   N48  As3  v111
 BYTE   W24
 BYTE   PEND
//  #09 //040   ----------------------------------------
 BYTE   PATT
  POIN2 Label_010F9C3A
//  #09 //041   ----------------------------------------
 BYTE   PATT
  POIN2 Label_010F9C43
//  #09 //042   ----------------------------------------
 BYTE   PATT
  POIN2 Label_010F9C51
//  #09 //043   ----------------------------------------
 BYTE   PATT
  POIN2 Label_010F9C5F
//  #09 //044   ----------------------------------------
 BYTE   PATT
  POIN2 Label_010F9C6C
//  #09 //045   ----------------------------------------
 BYTE   PATT
  POIN2 Label_010F9C79
//  #09 //046   ----------------------------------------
 BYTE   PATT
  POIN2 Label_010F9C89
//  #09 //047   ----------------------------------------
 BYTE   PATT
  POIN2 Label_010F9C9E
//  #09 //048   ----------------------------------------
 BYTE   W96
//  #09 //049   ----------------------------------------
 BYTE   W96
//  #09 //050   ----------------------------------------
 BYTE   W96
//  #09 //051   ----------------------------------------
 BYTE   W96
//  #09 //052   ----------------------------------------
 BYTE   W96
//  #09 //053   ----------------------------------------
 BYTE   W96
//  #09 //054   ----------------------------------------
 BYTE   W96
//  #09 //055   ----------------------------------------
 BYTE   W12
 BYTE   N05  Dn4  v107
 BYTE   N05  Dn5
 BYTE   W04
 BYTE   Ds4  v108
 BYTE   N05  Ds5
 BYTE   W04
 BYTE   Fn4  v109
 BYTE   N05  Fn5
 BYTE   W04
 BYTE   N36  Gn4  v110  gtp1
 BYTE   Gn5
 BYTE   W36
 BYTE   N07  Fn4  v109
 BYTE   N07  Fn5
 BYTE   W06
 BYTE   Ds4  v108
 BYTE   N07  Ds5
 BYTE   W06
 BYTE   N48  Dn4  v107
 BYTE   N48  Dn5
 BYTE   W24
//  #09 //056   ----------------------------------------
 BYTE   W96
//  #09 //057   ----------------------------------------
 BYTE   W92
 BYTE   W03
 BYTE   GoTo
  POIN2 Label_010F9BD0
//  #09 //058   ----------------------------------------
 BYTE   W01
 BYTE   W48
 BYTE   FINE

//**************** Track 10 (Midi-Chn.9) ****************//

HeavyArmoredCorps_010:
//  #10 //000   ----------------------------------------
 BYTE   KEYSH   HeavyArmoredCorps_key+0
 BYTE   W02
 BYTE   VOICE   124
 BYTE   VOL   41*HeavyArmoredCorps_mvl/mxv
 BYTE   W22
 BYTE   N96  Cn1  v123
 BYTE   TIE  Fn2
 BYTE   W72
//  #10 //001   ----------------------------------------
 BYTE   W96
//  #10 //002   ----------------------------------------
Label_010F9D1F:
 BYTE   W24
 BYTE   EOT
 BYTE   Fn2
 BYTE   N96  Cn1  v123
 BYTE   W72
//  #10 //003   ----------------------------------------
 BYTE   W96
//  #10 //004   ----------------------------------------
Label_010F9D27:
 BYTE   W24
 BYTE   N96  Cn1  v123
 BYTE   W72
 BYTE   PEND
//  #10 //005   ----------------------------------------
 BYTE   W96
//  #10 //006   ----------------------------------------
 BYTE   PATT
  POIN2 Label_010F9D27
//  #10 //007   ----------------------------------------
 BYTE   W96
//  #10 //008   ----------------------------------------
 BYTE   W24
 BYTE   N96  Cn1  v123
 BYTE   TIE  Cn2  v107
 BYTE   TIE  Fn2  v123
 BYTE   W72
//  #10 //009   ----------------------------------------
 BYTE   PATT
  POIN2 Label_010F9D27
//  #10 //010   ----------------------------------------
 BYTE   W24
 BYTE   EOT
 BYTE   Cn2  v053
 BYTE   N96  Cn1  v123
 BYTE   TIE  Cn2  v107
 BYTE   W72
//  #10 //011   ----------------------------------------
 BYTE   PATT
  POIN2 Label_010F9D27
//  #10 //012   ----------------------------------------
Label_010F9D54:
 BYTE   W24
 BYTE   EOT
 BYTE   Cn2
 BYTE   N96  Cn1  v123
 BYTE   TIE  Cn2  v107
 BYTE   W72
 BYTE   PEND
//  #10 //013   ----------------------------------------
 BYTE   PATT
  POIN2 Label_010F9D27
//  #10 //014   ----------------------------------------
 BYTE   PATT
  POIN2 Label_010F9D54
//  #10 //015   ----------------------------------------
 BYTE   PATT
  POIN2 Label_010F9D27
//  #10 //016   ----------------------------------------
 BYTE   PATT
  POIN2 Label_010F9D54
//  #10 //017   ----------------------------------------
 BYTE   PATT
  POIN2 Label_010F9D27
//  #10 //018   ----------------------------------------
 BYTE   PATT
  POIN2 Label_010F9D54
//  #10 //019   ----------------------------------------
 BYTE   PATT
  POIN2 Label_010F9D27
//  #10 //020   ----------------------------------------
 BYTE   PATT
  POIN2 Label_010F9D54
//  #10 //021   ----------------------------------------
 BYTE   PATT
  POIN2 Label_010F9D27
//  #10 //022   ----------------------------------------
 BYTE   PATT
  POIN2 Label_010F9D54
//  #10 //023   ----------------------------------------
 BYTE   PATT
  POIN2 Label_010F9D27
//  #10 //024   ----------------------------------------
 BYTE   PATT
  POIN2 Label_010F9D54
//  #10 //025   ----------------------------------------
 BYTE   PATT
  POIN2 Label_010F9D27
//  #10 //026   ----------------------------------------
 BYTE   PATT
  POIN2 Label_010F9D54
//  #10 //027   ----------------------------------------
 BYTE   PATT
  POIN2 Label_010F9D27
//  #10 //028   ----------------------------------------
 BYTE   PATT
  POIN2 Label_010F9D54
//  #10 //029   ----------------------------------------
 BYTE   PATT
  POIN2 Label_010F9D27
//  #10 //030   ----------------------------------------
 BYTE   PATT
  POIN2 Label_010F9D54
//  #10 //031   ----------------------------------------
 BYTE   PATT
  POIN2 Label_010F9D27
//  #10 //032   ----------------------------------------
 BYTE   W12
 BYTE   N12  Ds1  v101
 BYTE   W11
 BYTE   N06  Dn1
 BYTE   W01
 BYTE   EOT
 BYTE   Cn2
 BYTE   N96  Cn1  v123
 BYTE   TIE  Cn2  v107
 BYTE   TIE  Fn2  v123
 BYTE   W05
 BYTE   N06  Cs1  v087
 BYTE   W06
 BYTE   Dn1  v094
 BYTE   W24
 BYTE   W01
 BYTE   N12  Ds1  v101
 BYTE   W11
 BYTE   N06  Dn1
 BYTE   W24
 BYTE   W01
//  #10 //033   ----------------------------------------
Label_010F9DE2:
 BYTE   W06
 BYTE   N06  Ds1  v101
 BYTE   W07
 BYTE   N12  Cs1  v094
 BYTE   W11
 BYTE   N96  Cn1  v123
 BYTE   N06  Dn1  v101
 BYTE   W11
 BYTE   Ds1  v107
 BYTE   W24
 BYTE   Dn1  v101
 BYTE   W12
 BYTE   Dn1
 BYTE   W07
 BYTE   Dn1
 BYTE   W05
 BYTE   Cs1  v094
 BYTE   W13
 BYTE   PEND
//  #10 //034   ----------------------------------------
Label_010F9E00:
 BYTE   W11
 BYTE   N12  Ds1  v101
 BYTE   W13
 BYTE   EOT
 BYTE   Cn2  v053
 BYTE   N96  Cn1  v123
 BYTE   TIE  Cn2  v107
 BYTE   N06  Dn1  v101
 BYTE   W06
 BYTE   Cs1  v094
 BYTE   W05
 BYTE   Dn1  v107
 BYTE   W23
 BYTE   N12  Ds1  v101
 BYTE   W13
 BYTE   N06  Dn1  v094
 BYTE   W24
 BYTE   W01
 BYTE   PEND
//  #10 //035   ----------------------------------------
Label_010F9E22:
 BYTE   W12
 BYTE   N12  Cs1  v101
 BYTE   W11
 BYTE   N06  Dn1  v107
 BYTE   W01
 BYTE   N96  Cn1  v123
 BYTE   W11
 BYTE   N06  Ds1  v101
 BYTE   W24
 BYTE   W01
 BYTE   Cs1
 BYTE   W06
 BYTE   Dn1  v094
 BYTE   W06
 BYTE   Dn1  v101
 BYTE   W12
 BYTE   Cs1  v087
 BYTE   W12
 BYTE   PEND
//  #10 //036   ----------------------------------------
Label_010F9E40:
 BYTE   N06  Dn1  v101
 BYTE   W06
 BYTE   Ds1  v107
 BYTE   W06
 BYTE   Cs1  v094
 BYTE   W05
 BYTE   Dn1  v107
 BYTE   W06
 BYTE   N01  Dn1  v101
 BYTE   W01
 BYTE   EOT
 BYTE   Cn2
 BYTE   N96  Cn1  v123
 BYTE   TIE  Cn2  v107
 BYTE   W05
 BYTE   N06  Cs1  v094
 BYTE   W07
 BYTE   Dn1  v107
 BYTE   W23
 BYTE   N12  Ds1  v101
 BYTE   W13
 BYTE   N06  Dn1  v094
 BYTE   W24
 BYTE   PEND
//  #10 //037   ----------------------------------------
Label_010F9E6A:
 BYTE   W05
 BYTE   N06  Ds1  v101
 BYTE   W07
 BYTE   N12  Cs1  v094
 BYTE   W12
 BYTE   N96  Cn1  v123
 BYTE   N06  Dn1  v101
 BYTE   W11
 BYTE   Ds1  v107
 BYTE   W24
 BYTE   W01
 BYTE   Dn1  v101
 BYTE   W06
 BYTE   Cs1  v087
 BYTE   W06
 BYTE   Dn1  v101
 BYTE   W12
 BYTE   Cs1  v107
 BYTE   W12
 BYTE   PEND
//  #10 //038   ----------------------------------------
Label_010F9E8B:
 BYTE   W13
 BYTE   N12  Ds1  v094
 BYTE   W10
 BYTE   N06  Dn1  v101
 BYTE   W01
 BYTE   EOT
 BYTE   Cn2
 BYTE   N96  Cn1  v123
 BYTE   TIE  Cn2  v107
 BYTE   W05
 BYTE   N06  Cs1  v094
 BYTE   W07
 BYTE   Dn1  v107
 BYTE   W23
 BYTE   N11  Ds1  v101
 BYTE   W12
 BYTE   N06  Dn1  v094
 BYTE   W24
 BYTE   W01
 BYTE   PEND
//  #10 //039   ----------------------------------------
Label_010F9EAE:
 BYTE   W12
 BYTE   N12  Cs1  v101
 BYTE   W12
 BYTE   N96  Cn1  v123
 BYTE   N06  Dn1  v107
 BYTE   W12
 BYTE   Ds1
 BYTE   W24
 BYTE   Dn1  v101
 BYTE   W06
 BYTE   Cs1  v094
 BYTE   W06
 BYTE   Cs1  v101
 BYTE   W12
 BYTE   Dn1  v094
 BYTE   W11
 BYTE   Cs1  v101
 BYTE   W01
 BYTE   PEND
//  #10 //040   ----------------------------------------
 BYTE   W05
 BYTE   N01  Cs1  v094
 BYTE   W06
 BYTE   N06  Dn1  v107
 BYTE   W12
 BYTE   Dn1  v101
 BYTE   W01
 BYTE   EOT
 BYTE   Cn2
 BYTE   N96  Cn1  v123
 BYTE   TIE  Cn2  v107
 BYTE   TIE  Fn2  v123
 BYTE   W05
 BYTE   N06  Cs1  v087
 BYTE   W06
 BYTE   Dn1  v094
 BYTE   W24
 BYTE   W01
 BYTE   N12  Ds1  v101
 BYTE   W11
 BYTE   N06  Dn1
 BYTE   W24
 BYTE   W01
//  #10 //041   ----------------------------------------
 BYTE   PATT
  POIN2 Label_010F9DE2
//  #10 //042   ----------------------------------------
 BYTE   PATT
  POIN2 Label_010F9E00
//  #10 //043   ----------------------------------------
 BYTE   PATT
  POIN2 Label_010F9E22
//  #10 //044   ----------------------------------------
 BYTE   PATT
  POIN2 Label_010F9E40
//  #10 //045   ----------------------------------------
 BYTE   PATT
  POIN2 Label_010F9E6A
//  #10 //046   ----------------------------------------
 BYTE   PATT
  POIN2 Label_010F9E8B
//  #10 //047   ----------------------------------------
 BYTE   PATT
  POIN2 Label_010F9EAE
//  #10 //048   ----------------------------------------
 BYTE   W05
 BYTE   N01  Cs1  v094
 BYTE   W06
 BYTE   N06  Dn1  v107
 BYTE   W12
 BYTE   Dn1  v101
 BYTE   W01
 BYTE   EOT
 BYTE   Cn2
 BYTE   N96  Cn1  v123
 BYTE   TIE  Cn2  v107
 BYTE   W05
 BYTE   N06  Cs1  v087
 BYTE   W06
 BYTE   Dn1  v094
 BYTE   W24
 BYTE   W01
 BYTE   N12  Ds1  v101
 BYTE   W11
 BYTE   N06  Dn1
 BYTE   W24
 BYTE   W01
//  #10 //049   ----------------------------------------
 BYTE   PATT
  POIN2 Label_010F9DE2
//  #10 //050   ----------------------------------------
 BYTE   W11
 BYTE   N12  Ds1  v101
 BYTE   W13
 BYTE   EOT
 BYTE   Cn2
 BYTE   N96  Cn1  v123
 BYTE   TIE  Cn2  v107
 BYTE   N06  Dn1  v101
 BYTE   W06
 BYTE   Cs1  v094
 BYTE   W05
 BYTE   Dn1  v107
 BYTE   W23
 BYTE   N12  Ds1  v101
 BYTE   W13
 BYTE   N06  Dn1  v094
 BYTE   W24
 BYTE   W01
//  #10 //051   ----------------------------------------
 BYTE   PATT
  POIN2 Label_010F9E22
//  #10 //052   ----------------------------------------
 BYTE   PATT
  POIN2 Label_010F9E40
//  #10 //053   ----------------------------------------
 BYTE   PATT
  POIN2 Label_010F9E6A
//  #10 //054   ----------------------------------------
 BYTE   PATT
  POIN2 Label_010F9E8B
//  #10 //055   ----------------------------------------
 BYTE   PATT
  POIN2 Label_010F9EAE
//  #10 //056   ----------------------------------------
 BYTE   W05
 BYTE   N01  Cs1  v094
 BYTE   W06
 BYTE   N06  Dn1  v107
 BYTE   W13
 BYTE   EOT
 BYTE   Cn2
 BYTE   N96  Cn1  v123
 BYTE   TIE  Fn2
 BYTE   W72
//  #10 //057   ----------------------------------------
 BYTE   W92
 BYTE   W03
 BYTE   GoTo
  POIN2 Label_010F9D1F
//  #10 //058   ----------------------------------------
 BYTE   W01
 BYTE   W23
 BYTE   EOT
 BYTE   W24
 BYTE   W01
 BYTE   FINE

//**************** Track 11 (Midi-Chn.10) ****************//

HeavyArmoredCorps_011:
//  #11 //000   ----------------------------------------
 BYTE   KEYSH   HeavyArmoredCorps_key+0
 BYTE   W03
 BYTE   VOICE   119
 BYTE   VOL   0*HeavyArmoredCorps_mvl/mxv
 BYTE   W09
 BYTE   N96  Gn2  v071
 BYTE   VOL   6*HeavyArmoredCorps_mvl/mxv
 BYTE   W01
 BYTE   VOL   8*HeavyArmoredCorps_mvl/mxv
 BYTE   W01
 BYTE   VOL   10*HeavyArmoredCorps_mvl/mxv
 BYTE   W01
 BYTE   VOL   13*HeavyArmoredCorps_mvl/mxv
 BYTE   W01
 BYTE   VOL   14*HeavyArmoredCorps_mvl/mxv
 BYTE   W01
 BYTE   VOL   15*HeavyArmoredCorps_mvl/mxv
 BYTE   W01
 BYTE   VOL   17*HeavyArmoredCorps_mvl/mxv
 BYTE   W01
 BYTE   VOL   18*HeavyArmoredCorps_mvl/mxv
 BYTE   W01
 BYTE   VOL   23*HeavyArmoredCorps_mvl/mxv
 BYTE   W01
 BYTE   VOL   26*HeavyArmoredCorps_mvl/mxv
 BYTE   W01
 BYTE   VOL   27*HeavyArmoredCorps_mvl/mxv
 BYTE   W01
 BYTE   VOL   31*HeavyArmoredCorps_mvl/mxv
 BYTE   W03
 BYTE   VOL   30*HeavyArmoredCorps_mvl/mxv
 BYTE   W01
 BYTE   VOL   29*HeavyArmoredCorps_mvl/mxv
 BYTE   W02
 BYTE   VOL   28*HeavyArmoredCorps_mvl/mxv
 BYTE   W01
 BYTE   VOL   27*HeavyArmoredCorps_mvl/mxv
 BYTE   W01
 BYTE   VOL   26*HeavyArmoredCorps_mvl/mxv
 BYTE   W02
 BYTE   VOL   24*HeavyArmoredCorps_mvl/mxv
 BYTE   W02
 BYTE   VOL   23*HeavyArmoredCorps_mvl/mxv
 BYTE   W01
 BYTE   VOL   22*HeavyArmoredCorps_mvl/mxv
 BYTE   W02
 BYTE   VOL   21*HeavyArmoredCorps_mvl/mxv
 BYTE   W04
 BYTE   VOL   20*HeavyArmoredCorps_mvl/mxv
 BYTE   W05
 BYTE   VOL   19*HeavyArmoredCorps_mvl/mxv
 BYTE   W03
 BYTE   VOL   18*HeavyArmoredCorps_mvl/mxv
 BYTE   W04
 BYTE   VOL   17*HeavyArmoredCorps_mvl/mxv
 BYTE   W03
 BYTE   VOL   16*HeavyArmoredCorps_mvl/mxv
 BYTE   W05
 BYTE   VOL   15*HeavyArmoredCorps_mvl/mxv
 BYTE   W02
 BYTE   VOL   14*HeavyArmoredCorps_mvl/mxv
 BYTE   W06
 BYTE   VOL   13*HeavyArmoredCorps_mvl/mxv
 BYTE   W06
 BYTE   VOL   12*HeavyArmoredCorps_mvl/mxv
 BYTE   W03
 BYTE   VOL   11*HeavyArmoredCorps_mvl/mxv
 BYTE   W06
 BYTE   VOL   10*HeavyArmoredCorps_mvl/mxv
 BYTE   W06
 BYTE   VOL   9*HeavyArmoredCorps_mvl/mxv
 BYTE   W03
 BYTE   VOL   8*HeavyArmoredCorps_mvl/mxv
 BYTE   W02
//  #11 //001   ----------------------------------------
 BYTE   W01
 BYTE   VOL   7*HeavyArmoredCorps_mvl/mxv
 BYTE   W03
 BYTE   VOL   6*HeavyArmoredCorps_mvl/mxv
 BYTE   W03
 BYTE   VOL   4*HeavyArmoredCorps_mvl/mxv
 BYTE   W03
 BYTE   VOL   0*HeavyArmoredCorps_mvl/mxv
 BYTE   W84
 BYTE   W02
//  #11 //002   ----------------------------------------
Label_010FA017:
 BYTE   W96
//  #11 //003   ----------------------------------------
 BYTE   W96
//  #11 //004   ----------------------------------------
 BYTE   W96
//  #11 //005   ----------------------------------------
Label_010FA01A:
 BYTE   W24
 BYTE   TIE  Fn2  v115
 BYTE   W10
 BYTE   VOL   3*HeavyArmoredCorps_mvl/mxv
 BYTE   W05
 BYTE   VOL   4*HeavyArmoredCorps_mvl/mxv
 BYTE   W05
 BYTE   VOL   5*HeavyArmoredCorps_mvl/mxv
 BYTE   W06
 BYTE   VOL   6*HeavyArmoredCorps_mvl/mxv
 BYTE   W10
 BYTE   VOL   7*HeavyArmoredCorps_mvl/mxv
 BYTE   W11
 BYTE   VOL   8*HeavyArmoredCorps_mvl/mxv
 BYTE   W10
 BYTE   VOL   9*HeavyArmoredCorps_mvl/mxv
 BYTE   W10
 BYTE   VOL   10*HeavyArmoredCorps_mvl/mxv
 BYTE   W05
 BYTE   PEND
//  #11 //006   ----------------------------------------
Label_010FA038:
 BYTE   W11
 BYTE   VOL   11*HeavyArmoredCorps_mvl/mxv
 BYTE   W11
 BYTE   VOL   12*HeavyArmoredCorps_mvl/mxv
 BYTE   W09
 BYTE   VOL   13*HeavyArmoredCorps_mvl/mxv
 BYTE   W09
 BYTE   VOL   14*HeavyArmoredCorps_mvl/mxv
 BYTE   W09
 BYTE   VOL   15*HeavyArmoredCorps_mvl/mxv
 BYTE   W12
 BYTE   VOL   16*HeavyArmoredCorps_mvl/mxv
 BYTE   W09
 BYTE   VOL   17*HeavyArmoredCorps_mvl/mxv
 BYTE   W15
 BYTE   VOL   18*HeavyArmoredCorps_mvl/mxv
 BYTE   W11
 BYTE   PEND
//  #11 //007   ----------------------------------------
Label_010FA052:
 BYTE   W01
 BYTE   VOL   19*HeavyArmoredCorps_mvl/mxv
 BYTE   W15
 BYTE   VOL   20*HeavyArmoredCorps_mvl/mxv
 BYTE   W12
 BYTE   VOL   21*HeavyArmoredCorps_mvl/mxv
 BYTE   W09
 BYTE   VOL   22*HeavyArmoredCorps_mvl/mxv
 BYTE   W12
 BYTE   VOL   23*HeavyArmoredCorps_mvl/mxv
 BYTE   W12
 BYTE   VOL   24*HeavyArmoredCorps_mvl/mxv
 BYTE   W12
 BYTE   VOL   25*HeavyArmoredCorps_mvl/mxv
 BYTE   W15
 BYTE   VOL   26*HeavyArmoredCorps_mvl/mxv
 BYTE   W08
 BYTE   PEND
//  #11 //008   ----------------------------------------
Label_010FA06C:
 BYTE   VOL   27*HeavyArmoredCorps_mvl/mxv
 BYTE   W05
 BYTE   VOL   28*HeavyArmoredCorps_mvl/mxv
 BYTE   W04
 BYTE   VOL   29*HeavyArmoredCorps_mvl/mxv
 BYTE   W05
 BYTE   VOL   30*HeavyArmoredCorps_mvl/mxv
 BYTE   W06
 BYTE   VOL   31*HeavyArmoredCorps_mvl/mxv
 BYTE   W06
 BYTE   VOL   30*HeavyArmoredCorps_mvl/mxv
 BYTE   W01
 BYTE   VOL   29*HeavyArmoredCorps_mvl/mxv
 BYTE   W01
 BYTE   VOL   28*HeavyArmoredCorps_mvl/mxv
 BYTE   W02
 BYTE   VOL   26*HeavyArmoredCorps_mvl/mxv
 BYTE   W02
 BYTE   VOL   25*HeavyArmoredCorps_mvl/mxv
 BYTE   W01
 BYTE   VOL   24*HeavyArmoredCorps_mvl/mxv
 BYTE   W01
 BYTE   VOL   23*HeavyArmoredCorps_mvl/mxv
 BYTE   W03
 BYTE   VOL   22*HeavyArmoredCorps_mvl/mxv
 BYTE   W03
 BYTE   VOL   21*HeavyArmoredCorps_mvl/mxv
 BYTE   W03
 BYTE   VOL   20*HeavyArmoredCorps_mvl/mxv
 BYTE   W01
 BYTE   VOL   19*HeavyArmoredCorps_mvl/mxv
 BYTE   W03
 BYTE   VOL   18*HeavyArmoredCorps_mvl/mxv
 BYTE   W03
 BYTE   VOL   17*HeavyArmoredCorps_mvl/mxv
 BYTE   W02
 BYTE   VOL   16*HeavyArmoredCorps_mvl/mxv
 BYTE   W06
 BYTE   VOL   15*HeavyArmoredCorps_mvl/mxv
 BYTE   W03
 BYTE   VOL   14*HeavyArmoredCorps_mvl/mxv
 BYTE   W03
 BYTE   VOL   13*HeavyArmoredCorps_mvl/mxv
 BYTE   W03
 BYTE   VOL   12*HeavyArmoredCorps_mvl/mxv
 BYTE   W03
 BYTE   VOL   11*HeavyArmoredCorps_mvl/mxv
 BYTE   W03
 BYTE   VOL   10*HeavyArmoredCorps_mvl/mxv
 BYTE   W03
 BYTE   VOL   9*HeavyArmoredCorps_mvl/mxv
 BYTE   W09
 BYTE   VOL   8*HeavyArmoredCorps_mvl/mxv
 BYTE   W09
 BYTE   VOL   7*HeavyArmoredCorps_mvl/mxv
 BYTE   W02
 BYTE   PEND
//  #11 //009   ----------------------------------------
Label_010FA0C1:
 BYTE   W06
 BYTE   VOL   6*HeavyArmoredCorps_mvl/mxv
 BYTE   W09
 BYTE   VOL   5*HeavyArmoredCorps_mvl/mxv
 BYTE   W04
 BYTE   VOL   4*HeavyArmoredCorps_mvl/mxv
 BYTE   W04
 BYTE   VOL   3*HeavyArmoredCorps_mvl/mxv
 BYTE   W01
 BYTE   EOT
 BYTE   Fn2
 BYTE   VOL   0*HeavyArmoredCorps_mvl/mxv
 BYTE   W72
 BYTE   PEND
//  #11 //010   ----------------------------------------
 BYTE   W96
//  #11 //011   ----------------------------------------
 BYTE   W96
//  #11 //012   ----------------------------------------
 BYTE   W96
//  #11 //013   ----------------------------------------
 BYTE   W96
//  #11 //014   ----------------------------------------
 BYTE   W96
//  #11 //015   ----------------------------------------
 BYTE   W96
//  #11 //016   ----------------------------------------
 BYTE   W96
//  #11 //017   ----------------------------------------
 BYTE   W96
//  #11 //018   ----------------------------------------
 BYTE   W96
//  #11 //019   ----------------------------------------
 BYTE   W96
//  #11 //020   ----------------------------------------
 BYTE   W96
//  #11 //021   ----------------------------------------
 BYTE   W96
//  #11 //022   ----------------------------------------
 BYTE   W96
//  #11 //023   ----------------------------------------
 BYTE   W96
//  #11 //024   ----------------------------------------
 BYTE   W96
//  #11 //025   ----------------------------------------
 BYTE   W96
//  #11 //026   ----------------------------------------
 BYTE   W96
//  #11 //027   ----------------------------------------
 BYTE   W96
//  #11 //028   ----------------------------------------
 BYTE   W96
//  #11 //029   ----------------------------------------
 BYTE   PATT
  POIN2 Label_010FA01A
//  #11 //030   ----------------------------------------
 BYTE   PATT
  POIN2 Label_010FA038
//  #11 //031   ----------------------------------------
 BYTE   PATT
  POIN2 Label_010FA052
//  #11 //032   ----------------------------------------
 BYTE   PATT
  POIN2 Label_010FA06C
//  #11 //033   ----------------------------------------
 BYTE   PATT
  POIN2 Label_010FA0C1
//  #11 //034   ----------------------------------------
 BYTE   W96
//  #11 //035   ----------------------------------------
 BYTE   W96
//  #11 //036   ----------------------------------------
 BYTE   W96
//  #11 //037   ----------------------------------------
 BYTE   W96
//  #11 //038   ----------------------------------------
 BYTE   W96
//  #11 //039   ----------------------------------------
 BYTE   W96
//  #11 //040   ----------------------------------------
 BYTE   W96
//  #11 //041   ----------------------------------------
 BYTE   W96
//  #11 //042   ----------------------------------------
 BYTE   W96
//  #11 //043   ----------------------------------------
 BYTE   W96
//  #11 //044   ----------------------------------------
 BYTE   W96
//  #11 //045   ----------------------------------------
 BYTE   W96
//  #11 //046   ----------------------------------------
 BYTE   W96
//  #11 //047   ----------------------------------------
 BYTE   W96
//  #11 //048   ----------------------------------------
 BYTE   W96
//  #11 //049   ----------------------------------------
 BYTE   W96
//  #11 //050   ----------------------------------------
 BYTE   W96
//  #11 //051   ----------------------------------------
 BYTE   W96
//  #11 //052   ----------------------------------------
 BYTE   W96
//  #11 //053   ----------------------------------------
 BYTE   PATT
  POIN2 Label_010FA01A
//  #11 //054   ----------------------------------------
 BYTE   PATT
  POIN2 Label_010FA038
//  #11 //055   ----------------------------------------
 BYTE   PATT
  POIN2 Label_010FA052
//  #11 //056   ----------------------------------------
 BYTE   PATT
  POIN2 Label_010FA06C
//  #11 //057   ----------------------------------------
 BYTE   W06
 BYTE   VOL   6*HeavyArmoredCorps_mvl/mxv
 BYTE   W09
 BYTE   VOL   5*HeavyArmoredCorps_mvl/mxv
 BYTE   W04
 BYTE   VOL   4*HeavyArmoredCorps_mvl/mxv
 BYTE   W04
 BYTE   VOL   3*HeavyArmoredCorps_mvl/mxv
 BYTE   W01
 BYTE   EOT
 BYTE   Fn2
 BYTE   VOL   0*HeavyArmoredCorps_mvl/mxv
 BYTE   W68
 BYTE   W03
 BYTE   GoTo
  POIN2 Label_010FA017
//  #11 //058   ----------------------------------------
 BYTE   W01
 BYTE   W48
 BYTE   FINE

//**************** Track 12 (Midi-Chn.11) ****************//

HeavyArmoredCorps_012:
//  #12 //000   ----------------------------------------
 BYTE   KEYSH   HeavyArmoredCorps_key+0
 BYTE   W03
 BYTE   VOICE   0
 BYTE   VOL   34*HeavyArmoredCorps_mvl/mxv
 BYTE   W21
 BYTE   N07  Cn1  v118
 BYTE   N07  Cn2
 BYTE   W36
 BYTE   Cn1  v113
 BYTE   N07  Cn2
 BYTE   W36
//  #12 //001   ----------------------------------------
Label_010F8497:
 BYTE   N07  Cn1  v115
 BYTE   N07  Cn2
 BYTE   W24
 BYTE   Cn1  v118
 BYTE   N07  Cn2
 BYTE   W36
 BYTE   Cn1  v113
 BYTE   N07  Cn2
 BYTE   W36
 BYTE   PEND
//  #12 //002   ----------------------------------------
Label_010F84A8:
 BYTE   N07  Cn1  v115
 BYTE   N07  Cn2
 BYTE   W24
 BYTE   Cn1  v118
 BYTE   N07  Cn2
 BYTE   W36
 BYTE   Cn1  v113
 BYTE   N07  Cn2
 BYTE   W36
//  #12 //003   ----------------------------------------
 BYTE   PATT
  POIN2 Label_010F8497
//  #12 //004   ----------------------------------------
 BYTE   PATT
  POIN2 Label_010F8497
//  #12 //005   ----------------------------------------
 BYTE   PATT
  POIN2 Label_010F8497
//  #12 //006   ----------------------------------------
 BYTE   PATT
  POIN2 Label_010F8497
//  #12 //007   ----------------------------------------
 BYTE   PATT
  POIN2 Label_010F8497
//  #12 //008   ----------------------------------------
 BYTE   PATT
  POIN2 Label_010F8497
//  #12 //009   ----------------------------------------
 BYTE   PATT
  POIN2 Label_010F8497
//  #12 //010   ----------------------------------------
 BYTE   PATT
  POIN2 Label_010F8497
//  #12 //011   ----------------------------------------
 BYTE   PATT
  POIN2 Label_010F8497
//  #12 //012   ----------------------------------------
 BYTE   PATT
  POIN2 Label_010F8497
//  #12 //013   ----------------------------------------
 BYTE   PATT
  POIN2 Label_010F8497
//  #12 //014   ----------------------------------------
 BYTE   PATT
  POIN2 Label_010F8497
//  #12 //015   ----------------------------------------
 BYTE   PATT
  POIN2 Label_010F8497
//  #12 //016   ----------------------------------------
 BYTE   PATT
  POIN2 Label_010F8497
//  #12 //017   ----------------------------------------
 BYTE   PATT
  POIN2 Label_010F8497
//  #12 //018   ----------------------------------------
 BYTE   PATT
  POIN2 Label_010F8497
//  #12 //019   ----------------------------------------
 BYTE   PATT
  POIN2 Label_010F8497
//  #12 //020   ----------------------------------------
 BYTE   PATT
  POIN2 Label_010F8497
//  #12 //021   ----------------------------------------
 BYTE   PATT
  POIN2 Label_010F8497
//  #12 //022   ----------------------------------------
 BYTE   PATT
  POIN2 Label_010F8497
//  #12 //023   ----------------------------------------
 BYTE   PATT
  POIN2 Label_010F8497
//  #12 //024   ----------------------------------------
 BYTE   PATT
  POIN2 Label_010F8497
//  #12 //025   ----------------------------------------
 BYTE   PATT
  POIN2 Label_010F8497
//  #12 //026   ----------------------------------------
 BYTE   PATT
  POIN2 Label_010F8497
//  #12 //027   ----------------------------------------
 BYTE   PATT
  POIN2 Label_010F8497
//  #12 //028   ----------------------------------------
 BYTE   PATT
  POIN2 Label_010F8497
//  #12 //029   ----------------------------------------
 BYTE   PATT
  POIN2 Label_010F8497
//  #12 //030   ----------------------------------------
 BYTE   PATT
  POIN2 Label_010F8497
//  #12 //031   ----------------------------------------
 BYTE   PATT
  POIN2 Label_010F8497
//  #12 //032   ----------------------------------------
 BYTE   N07  Cn1  v115
 BYTE   N07  Cn2
 BYTE   W96
//  #12 //033   ----------------------------------------
 BYTE   W96
//  #12 //034   ----------------------------------------
 BYTE   W96
//  #12 //035   ----------------------------------------
 BYTE   W96
//  #12 //036   ----------------------------------------
 BYTE   W96
//  #12 //037   ----------------------------------------
 BYTE   W96
//  #12 //038   ----------------------------------------
 BYTE   W96
//  #12 //039   ----------------------------------------
 BYTE   W96
//  #12 //040   ----------------------------------------
 BYTE   W96
//  #12 //041   ----------------------------------------
 BYTE   W96
//  #12 //042   ----------------------------------------
 BYTE   W96
//  #12 //043   ----------------------------------------
 BYTE   W96
//  #12 //044   ----------------------------------------
 BYTE   W96
//  #12 //045   ----------------------------------------
 BYTE   W96
//  #12 //046   ----------------------------------------
 BYTE   W96
//  #12 //047   ----------------------------------------
 BYTE   W96
//  #12 //048   ----------------------------------------
 BYTE   W96
//  #12 //049   ----------------------------------------
 BYTE   W96
//  #12 //050   ----------------------------------------
 BYTE   W96
//  #12 //051   ----------------------------------------
 BYTE   W96
//  #12 //052   ----------------------------------------
 BYTE   W96
//  #12 //053   ----------------------------------------
 BYTE   W96
//  #12 //054   ----------------------------------------
 BYTE   W96
//  #12 //055   ----------------------------------------
 BYTE   W96
//  #12 //056   ----------------------------------------
 BYTE   W24
 BYTE   Cn1  v118
 BYTE   N07  Cn2
 BYTE   W36
 BYTE   Cn1  v113
 BYTE   N07  Cn2
 BYTE   W36
//  #12 //057   ----------------------------------------
 BYTE   Cn1  v115
 BYTE   N07  Cn2
 BYTE   W24
 BYTE   Cn1  v118
 BYTE   N07  Cn2
 BYTE   W36
 BYTE   Cn1  v113
 BYTE   N07  Cn2
 BYTE   W32
 BYTE   W03
 BYTE   GoTo
  POIN2 Label_010F84A8
//  #12 //058   ----------------------------------------
 BYTE   W01
 BYTE   Cn1  v115
 BYTE   N07  Cn2
 BYTE   W48
 BYTE   FINE

//******************************************************//
	ALIGN 4

HeavyArmoredCorps:
	BYTE	12
	BYTE	0
	BYTE	HeavyArmoredCorps_pri
	BYTE	HeavyArmoredCorps_rev

	POIN2	HeavyArmoredCorps_grp

	POIN2	HeavyArmoredCorps_001
	POIN2	HeavyArmoredCorps_002
	POIN2	HeavyArmoredCorps_003
	POIN2	HeavyArmoredCorps_004
	POIN2	HeavyArmoredCorps_005
	POIN2	HeavyArmoredCorps_006
	POIN2	HeavyArmoredCorps_007
	POIN2	HeavyArmoredCorps_008
	POIN2	HeavyArmoredCorps_009
	POIN2	HeavyArmoredCorps_010
	POIN2	HeavyArmoredCorps_011
	POIN2	HeavyArmoredCorps_012
