//Event file generated from Sappy .s format.
        #include "MPlayDef.event"

        #define    IntheMorningSun_grp  voicegroup000
        #define    IntheMorningSun_pri  0
        #define    IntheMorningSun_rev  0
        #define    IntheMorningSun_key  0

        // .rodata
        // IntheMorningSun
        ALIGN 4

//****************** Track 0 (Midi-Chn.0) ******************//

IntheMorningSun_0:
        BYTE   KEYSH   IntheMorningSun_key+0
// 000   ----------------------------------------
        BYTE   TEMPO   152/2
        BYTE           VOICE   40
        BYTE           VOL     77
        BYTE   W96
// 001   ----------------------------------------
        BYTE   W96
// 002   ----------------------------------------
        BYTE   W96
// 003   ----------------------------------------
        BYTE   W96
// 004   ----------------------------------------
        BYTE   W96
// 005   ----------------------------------------
        BYTE   W96
// 006   ----------------------------------------
        BYTE   W96
// 007   ----------------------------------------
        BYTE   W96
// 008   ----------------------------------------
IntheMorningSun_0_8:
        BYTE   W24
        BYTE           VOL     41
        BYTE           N92     Gn1   v097   gtp3
        BYTE                   An3   v080
        BYTE   W06
        BYTE           VOL     50
        BYTE   W06
        BYTE                   57
        BYTE   W06
        BYTE                   63
        BYTE   W06
        BYTE                   68
        BYTE   W06
        BYTE                   72
        BYTE   W06
        BYTE                   75
        BYTE   W06
        BYTE                   76
        BYTE   W24
        BYTE   W02
        BYTE                   74
        BYTE   W04
        BYTE   PEND
// 009   ----------------------------------------
IntheMorningSun_0_9:
        BYTE   W08
        BYTE           VOL     73
        BYTE   W06
        BYTE                   72
        BYTE   W06
        BYTE                   69
        BYTE   W01
        BYTE                   67
        BYTE   W03
        BYTE           N92     An1   v097   gtp3
        BYTE                   Gn3   v080
        BYTE   W03
        BYTE           VOL     68
        BYTE   W06
        BYTE                   70
        BYTE   W06
        BYTE                   74
        BYTE   W05
        BYTE                   77
        BYTE   W52
        BYTE   PEND
// 010   ----------------------------------------
IntheMorningSun_0_10:
        BYTE   W07
        BYTE           VOL     76
        BYTE   W06
        BYTE                   74
        BYTE   W06
        BYTE                   71
        BYTE   W04
        BYTE                   66
        BYTE   W01
        BYTE           N92     Bn1   v097   gtp3
        BYTE           TIE     Fs3   v080
        BYTE   W05
        BYTE           VOL     68
        BYTE   W06
        BYTE                   71
        BYTE   W06
        BYTE                   73
        BYTE   W06
        BYTE                   74
        BYTE   W06
        BYTE                   76
        BYTE   W12
        BYTE                   77
        BYTE   W30
        BYTE   W01
        BYTE   PEND
// 011   ----------------------------------------
IntheMorningSun_0_11:
        BYTE   W24
        BYTE           N92     An1   v097   gtp3
        BYTE   W32
        BYTE           VOL     75
        BYTE   W24
        BYTE                   74
        BYTE   W16
        BYTE   PEND
// 012   ----------------------------------------
IntheMorningSun_0_12:
        BYTE   W02
        BYTE           VOL     73
        BYTE   W06
        BYTE                   72
        BYTE   W12
        BYTE                   70
        BYTE   W03
        BYTE           EOT     Fs3
        BYTE   W01
        BYTE           TIE     Gn1   v097
        BYTE           TIE     Fs3   v080
        BYTE   W03
        BYTE           VOL     69
        BYTE   W02
        BYTE                   70
        BYTE   W06
        BYTE                   72
        BYTE   W06
        BYTE                   74
        BYTE   W12
        BYTE                   76
        BYTE   W42
        BYTE   W01
        BYTE   PEND
// 013   ----------------------------------------
IntheMorningSun_0_13:
        BYTE   W60
        BYTE   W02
        BYTE           VOL     74
        BYTE   W30
        BYTE                   73
        BYTE   W04
        BYTE   PEND
// 014   ----------------------------------------
IntheMorningSun_0_14:
        BYTE   W02
        BYTE           VOL     72
        BYTE   W06
        BYTE                   71
        BYTE   W06
        BYTE                   70
        BYTE   W06
        BYTE                   69
        BYTE   W03
        BYTE           EOT     Gn1
        BYTE                   Fs3
        BYTE   W01
        BYTE           VOL     68
        BYTE           N92     Fs3   v080   gtp3
        BYTE           TIE     An1   v097
        BYTE   W01
        BYTE           VOL     66
        BYTE   W06
        BYTE                   71
        BYTE   W06
        BYTE                   74
        BYTE   W06
        BYTE                   76
        BYTE   W06
        BYTE                   77
        BYTE   W42
        BYTE   W01
        BYTE                   76
        BYTE   W04
        BYTE   PEND
// 015   ----------------------------------------
IntheMorningSun_0_15:
        BYTE   W08
        BYTE           VOL     75
        BYTE   W06
        BYTE                   73
        BYTE   W06
        BYTE                   71
        BYTE   W04
        BYTE           TIE     En3   v080
        BYTE   W02
        BYTE           VOL     68
        BYTE   W07
        BYTE                   69
        BYTE   W06
        BYTE                   74
        BYTE   W06
        BYTE                   77
        BYTE   W48
        BYTE   W03
        BYTE   PEND
// 016   ----------------------------------------
IntheMorningSun_0_16:
        BYTE   W30
        BYTE           VOL     75
        BYTE   W06
        BYTE                   73
        BYTE   W06
        BYTE                   71
        BYTE   W06
        BYTE                   68
        BYTE   W06
        BYTE                   67
        BYTE   W06
        BYTE                   65
        BYTE   W06
        BYTE                   63
        BYTE   W06
        BYTE                   61
        BYTE   W06
        BYTE                   58
        BYTE   W06
        BYTE                   56
        BYTE   W06
        BYTE                   54
        BYTE   W06
        BYTE   PEND
// 017   ----------------------------------------
IntheMorningSun_0_17:
        BYTE           VOL     52
        BYTE   W06
        BYTE                   50
        BYTE   W06
        BYTE                   48
        BYTE   W06
        BYTE                   46
        BYTE   W06
        BYTE                   44
        BYTE   W06
        BYTE                   42
        BYTE   W06
        BYTE                   40
        BYTE   W06
        BYTE                   37
        BYTE   W06
        BYTE                   36
        BYTE   W06
        BYTE                   34
        BYTE   W06
        BYTE                   32
        BYTE   W06
        BYTE                   30
        BYTE   W06
        BYTE                   28
        BYTE   W06
        BYTE                   25
        BYTE   W06
        BYTE                   23
        BYTE   W06
        BYTE                   21
        BYTE   W06
        BYTE   PEND
// 018   ----------------------------------------
        BYTE                   19
        BYTE   W06
        BYTE                   17
        BYTE   W06
        BYTE                   15
        BYTE   W11
        BYTE           EOT     An1
        BYTE                   En3
        BYTE   W01
IntheMorningSun_0_LOOP:
        BYTE   W72
// 019   ----------------------------------------
        BYTE   W96
// 020   ----------------------------------------
        BYTE   W96
// 021   ----------------------------------------
        BYTE   W96
// 022   ----------------------------------------
        BYTE   W96
// 023   ----------------------------------------
        BYTE   W96
// 024   ----------------------------------------
        BYTE   W96
// 025   ----------------------------------------
        BYTE   W96
// 026   ----------------------------------------
        BYTE   W96
// 027   ----------------------------------------
        BYTE   W96
// 028   ----------------------------------------
        BYTE   W96
// 029   ----------------------------------------
        BYTE   W96
// 030   ----------------------------------------
        BYTE   W96
// 031   ----------------------------------------
        BYTE   W96
// 032   ----------------------------------------
        BYTE   W96
// 033   ----------------------------------------
        BYTE   W96
// 034   ----------------------------------------
        BYTE   W24
        BYTE           VOL     56
        BYTE           TIE     As2   v100
        BYTE           TIE     An3
        BYTE   W06
        BYTE           VOL     57
        BYTE   W12
        BYTE                   58
        BYTE   W06
        BYTE                   59
        BYTE   W12
        BYTE                   60
        BYTE   W06
        BYTE                   61
        BYTE   W06
        BYTE                   62
        BYTE   W06
        BYTE                   63
        BYTE   W12
        BYTE                   64
        BYTE   W06
// 035   ----------------------------------------
        BYTE                   65
        BYTE   W06
        BYTE                   66
        BYTE   W12
        BYTE                   67
        BYTE   W12
        BYTE                   68
        BYTE   W12
        BYTE                   70
        BYTE   W12
        BYTE                   71
        BYTE   W06
        BYTE                   72
        BYTE   W12
        BYTE                   74
        BYTE   W12
        BYTE                   75
        BYTE   W06
        BYTE                   76
        BYTE   W06
// 036   ----------------------------------------
        BYTE   W06
        BYTE                   77
        BYTE   W12
        BYTE                   76
        BYTE   W05
        BYTE           EOT     As2
        BYTE                   An3
        BYTE   W01
        BYTE           TIE     An2
        BYTE           TIE     An3
        BYTE   W06
        BYTE           VOL     75
        BYTE   W06
        BYTE                   74
        BYTE   W18
        BYTE                   73
        BYTE   W06
        BYTE                   72
        BYTE   W12
        BYTE                   71
        BYTE   W06
        BYTE                   70
        BYTE   W12
        BYTE                   69
        BYTE   W06
// 037   ----------------------------------------
        BYTE                   68
        BYTE   W18
        BYTE                   67
        BYTE   W12
        BYTE                   66
        BYTE   W12
        BYTE                   65
        BYTE   W12
        BYTE                   64
        BYTE   W06
        BYTE                   63
        BYTE   W18
        BYTE                   62
        BYTE   W06
        BYTE                   61
        BYTE   W12
// 038   ----------------------------------------
        BYTE                   60
        BYTE   W06
        BYTE                   59
        BYTE   W12
        BYTE                   58
        BYTE   W05
        BYTE           EOT     An2
        BYTE                   An3
        BYTE   W01
        BYTE           VOL     57
        BYTE           N92     Gn2   v100   gtp3
        BYTE                   Fn3
        BYTE   W06
        BYTE           VOL     58
        BYTE   W06
        BYTE                   59
        BYTE   W12
        BYTE                   60
        BYTE   W06
        BYTE                   61
        BYTE   W12
        BYTE                   62
        BYTE   W06
        BYTE                   63
        BYTE   W12
        BYTE                   64
        BYTE   W06
        BYTE                   65
        BYTE   W06
// 039   ----------------------------------------
        BYTE   W06
        BYTE                   66
        BYTE   W12
        BYTE                   67
        BYTE   W06
        BYTE           N92     Cn2   v100   gtp3
        BYTE                   En3
        BYTE   W06
        BYTE           VOL     68
        BYTE   W12
        BYTE                   69
        BYTE   W06
        BYTE                   70
        BYTE   W12
        BYTE                   71
        BYTE   W06
        BYTE                   72
        BYTE   W12
        BYTE                   74
        BYTE   W18
// 040   ----------------------------------------
        BYTE                   75
        BYTE   W06
        BYTE                   76
        BYTE   W06
        BYTE                   77
        BYTE   W12
        BYTE           N92     Dn2   v100   gtp3
        BYTE                   Gn3
        BYTE   W12
        BYTE           VOL     76
        BYTE   W12
        BYTE                   75
        BYTE   W06
        BYTE                   74
        BYTE   W12
        BYTE                   73
        BYTE   W06
        BYTE                   72
        BYTE   W12
        BYTE                   71
        BYTE   W12
// 041   ----------------------------------------
        BYTE                   70
        BYTE   W12
        BYTE                   69
        BYTE   W06
        BYTE                   68
        BYTE   W06
        BYTE           N92     Dn2   v100   gtp3
        BYTE                   Fs3
        BYTE   W06
        BYTE           VOL     67
        BYTE   W12
        BYTE                   66
        BYTE   W12
        BYTE                   65
        BYTE   W12
        BYTE                   64
        BYTE   W06
        BYTE                   63
        BYTE   W12
        BYTE                   62
        BYTE   W06
        BYTE                   61
        BYTE   W06
// 042   ----------------------------------------
        BYTE   W06
        BYTE                   60
        BYTE   W06
        BYTE                   59
        BYTE   W12
        BYTE           N92     Ds2   v100   gtp3
        BYTE                   Gn3
        BYTE   W12
        BYTE           VOL     60
        BYTE   W06
        BYTE                   61
        BYTE   W12
        BYTE                   62
        BYTE   W06
        BYTE                   63
        BYTE   W12
        BYTE                   64
        BYTE   W06
        BYTE                   65
        BYTE   W12
        BYTE                   66
        BYTE   W06
// 043   ----------------------------------------
        BYTE   W06
        BYTE                   67
        BYTE   W12
        BYTE                   68
        BYTE   W06
        BYTE           N44     Fn3   v100   gtp3
        BYTE           N92     Fn2   v100   gtp3
        BYTE   W06
        BYTE           VOL     69
        BYTE   W06
        BYTE                   70
        BYTE   W12
        BYTE                   71
        BYTE   W06
        BYTE                   72
        BYTE   W12
        BYTE                   73
        BYTE   W06
        BYTE                   74
        BYTE           N44     An3   v100   gtp3
        BYTE   W12
        BYTE           VOL     75
        BYTE   W06
        BYTE                   76
        BYTE   W06
// 044   ----------------------------------------
        BYTE   W06
        BYTE                   77
        BYTE   W18
        BYTE           N24     Cn4
        BYTE           N92     Gn2   v100   gtp3
        BYTE   W06
        BYTE           VOL     76
        BYTE   W18
        BYTE                   75
        BYTE           N72     Bn3
        BYTE   W06
        BYTE           VOL     74
        BYTE   W12
        BYTE                   73
        BYTE   W06
        BYTE                   72
        BYTE   W12
        BYTE                   71
        BYTE   W06
        BYTE                   70
        BYTE   W06
// 045   ----------------------------------------
        BYTE   W06
        BYTE                   69
        BYTE   W06
        BYTE                   68
        BYTE   W12
        BYTE                   67
        BYTE           N44     Gn2   v100   gtp3
        BYTE                   Gn3
        BYTE   W12
        BYTE           VOL     66
        BYTE   W12
        BYTE                   65
        BYTE   W18
        BYTE                   64
        BYTE   W06
        BYTE                   63
        BYTE           N44     Dn2   v100   gtp3
        BYTE                   An3
        BYTE   W12
        BYTE           VOL     62
        BYTE   W06
        BYTE                   61
        BYTE   W06
// 046   ----------------------------------------
        BYTE   W06
        BYTE                   60
        BYTE   W06
        BYTE                   59
        BYTE   W06
        BYTE                   58
        BYTE   W06
        BYTE                   59
        BYTE           TIE     Ds2
        BYTE           TIE     Gn3
        BYTE   W12
        BYTE           VOL     60
        BYTE   W06
        BYTE                   61
        BYTE   W12
        BYTE                   62
        BYTE   W06
        BYTE                   63
        BYTE   W12
        BYTE                   64
        BYTE   W06
        BYTE                   65
        BYTE   W12
        BYTE                   66
        BYTE   W06
// 047   ----------------------------------------
        BYTE   W06
        BYTE                   67
        BYTE   W12
        BYTE                   68
        BYTE   W18
        BYTE                   69
        BYTE   W06
        BYTE                   70
        BYTE   W12
        BYTE                   71
        BYTE   W06
        BYTE                   72
        BYTE   W12
        BYTE                   73
        BYTE   W06
        BYTE                   74
        BYTE   W12
        BYTE                   75
        BYTE   W06
// 048   ----------------------------------------
        BYTE                   76
        BYTE   W12
        BYTE                   77
        BYTE   W11
        BYTE           EOT     Ds2
        BYTE                   Gn3
        BYTE   W01
        BYTE           TIE     Cn2
        BYTE           TIE     Gn3
        BYTE   W18
        BYTE           VOL     75
        BYTE   W06
        BYTE                   74
        BYTE   W12
        BYTE                   73
        BYTE   W06
        BYTE                   72
        BYTE   W12
        BYTE                   71
        BYTE   W06
        BYTE                   70
        BYTE   W12
// 049   ----------------------------------------
        BYTE                   69
        BYTE   W12
        BYTE                   68
        BYTE   W12
        BYTE                   67
        BYTE   W12
        BYTE                   66
        BYTE   W12
        BYTE                   65
        BYTE   W12
        BYTE                   64
        BYTE   W06
        BYTE                   63
        BYTE   W12
        BYTE                   62
        BYTE   W06
        BYTE                   61
        BYTE   W12
// 050   ----------------------------------------
        BYTE                   60
        BYTE   W06
        BYTE                   59
        BYTE   W12
        BYTE                   58
        BYTE   W05
        BYTE           EOT     Cn2
        BYTE                   Gn3
        BYTE   W01
        BYTE           VOL     57
        BYTE           TIE     Dn2
        BYTE           TIE     Fs3
        BYTE   W06
        BYTE           VOL     58
        BYTE   W06
        BYTE                   59
        BYTE   W06
        BYTE                   58
        BYTE   W12
        BYTE                   59
        BYTE   W18
        BYTE                   60
        BYTE   W06
        BYTE                   61
        BYTE   W18
// 051   ----------------------------------------
        BYTE                   62
        BYTE   W06
        BYTE                   63
        BYTE   W18
        BYTE                   64
        BYTE   W06
        BYTE                   65
        BYTE   W18
        BYTE                   66
        BYTE   W18
        BYTE                   67
        BYTE   W18
        BYTE                   68
        BYTE   W12
// 052   ----------------------------------------
        BYTE                   69
        BYTE   W12
        BYTE                   70
        BYTE   W18
        BYTE                   71
        BYTE   W06
        BYTE                   72
        BYTE   W18
        BYTE                   73
        BYTE   W06
        BYTE                   74
        BYTE   W18
        BYTE                   75
        BYTE   W06
        BYTE                   76
        BYTE   W12
// 053   ----------------------------------------
        BYTE   W06
        BYTE                   77
        BYTE   W17
        BYTE           EOT     Dn2
        BYTE                   Fs3
        BYTE   W01
        BYTE           N12     Dn2   v050
        BYTE           N12     Fs3
        BYTE   W12
        BYTE                   Dn2   v040
        BYTE           N12     Fs3
        BYTE   W12
        BYTE                   Dn2   v035
        BYTE           N12     Fs3
        BYTE   W12
        BYTE                   Dn2   v030
        BYTE           N12     Fs3
        BYTE   W12
        BYTE                   Dn2   v025
        BYTE           N12     Fs3
        BYTE   W24
// 054   ----------------------------------------
        BYTE   W24
        BYTE           VOL     63
        BYTE           N92     Gn1   v110   gtp3
        BYTE                   An3
        BYTE   W04
        BYTE           VOL     64
        BYTE   W04
        BYTE                   65
        BYTE   W08
        BYTE                   66
        BYTE   W08
        BYTE                   67
        BYTE   W08
        BYTE                   68
        BYTE   W08
        BYTE                   69
        BYTE   W08
        BYTE                   70
        BYTE   W04
        BYTE                   71
        BYTE   W04
        BYTE                   72
        BYTE   W12
        BYTE                   74
        BYTE   W04
// 055   ----------------------------------------
        BYTE   W04
        BYTE                   75
        BYTE   W08
        BYTE                   76
        BYTE   W08
        BYTE                   77
        BYTE   W04
        BYTE           N92     An1   v110   gtp3
        BYTE                   Gn3
        BYTE   W04
        BYTE           VOL     76
        BYTE   W12
        BYTE                   75
        BYTE   W04
        BYTE                   74
        BYTE   W08
        BYTE                   73
        BYTE   W04
        BYTE                   72
        BYTE   W08
        BYTE                   71
        BYTE   W04
        BYTE                   70
        BYTE   W08
        BYTE                   69
        BYTE   W04
        BYTE                   68
        BYTE   W08
        BYTE                   67
        BYTE   W08
// 056   ----------------------------------------
        BYTE                   66
        BYTE   W08
        BYTE                   65
        BYTE   W08
        BYTE                   64
        BYTE   W04
        BYTE                   63
        BYTE   W04
        BYTE           N92     Bn1   v110   gtp3
        BYTE           TIE     Fs3
        BYTE   W04
        BYTE           VOL     62
        BYTE   W04
        BYTE                   61
        BYTE   W04
        BYTE                   62
        BYTE   W04
        BYTE                   63
        BYTE   W08
        BYTE                   64
        BYTE   W04
        BYTE                   65
        BYTE   W04
        BYTE                   66
        BYTE   W08
        BYTE                   67
        BYTE   W04
        BYTE                   68
        BYTE   W08
        BYTE                   70
        BYTE   W08
        BYTE                   71
        BYTE   W04
        BYTE                   72
        BYTE   W04
        BYTE                   73
        BYTE   W04
// 057   ----------------------------------------
        BYTE                   74
        BYTE   W08
        BYTE                   76
        BYTE   W08
        BYTE                   77
        BYTE   W08
        BYTE           N92     An1   v110   gtp3
        BYTE   W12
        BYTE           VOL     76
        BYTE   W08
        BYTE                   75
        BYTE   W04
        BYTE                   74
        BYTE   W04
        BYTE                   73
        BYTE   W04
        BYTE                   72
        BYTE   W08
        BYTE                   71
        BYTE   W04
        BYTE                   70
        BYTE   W08
        BYTE                   69
        BYTE   W04
        BYTE                   68
        BYTE   W04
        BYTE                   67
        BYTE   W08
        BYTE                   66
        BYTE   W04
// 058   ----------------------------------------
        BYTE   W04
        BYTE                   65
        BYTE   W08
        BYTE                   64
        BYTE   W04
        BYTE                   63
        BYTE   W04
        BYTE                   62
        BYTE   W03
        BYTE           EOT     Fs3
        BYTE   W01
        BYTE           VOL     64
        BYTE           N92     Gn1   v110   gtp3
        BYTE                   An3
        BYTE   W04
        BYTE           VOL     65
        BYTE   W12
        BYTE                   66
        BYTE   W08
        BYTE                   67
        BYTE   W08
        BYTE                   68
        BYTE   W08
        BYTE                   69
        BYTE   W04
        BYTE                   70
        BYTE   W08
        BYTE                   71
        BYTE   W04
        BYTE                   72
        BYTE   W12
        BYTE                   73
        BYTE   W04
// 059   ----------------------------------------
        BYTE                   74
        BYTE   W08
        BYTE                   75
        BYTE   W04
        BYTE                   76
        BYTE   W08
        BYTE                   77
        BYTE   W04
        BYTE           N92     An1   v110   gtp3
        BYTE                   Gn3
        BYTE   W04
        BYTE           VOL     76
        BYTE   W08
        BYTE                   75
        BYTE   W04
        BYTE                   74
        BYTE   W08
        BYTE                   72
        BYTE   W12
        BYTE                   70
        BYTE   W08
        BYTE                   69
        BYTE   W04
        BYTE                   68
        BYTE   W08
        BYTE                   67
        BYTE   W08
        BYTE                   66
        BYTE   W08
// 060   ----------------------------------------
        BYTE                   65
        BYTE   W08
        BYTE                   64
        BYTE   W04
        BYTE                   63
        BYTE   W04
        BYTE                   62
        BYTE   W04
        BYTE                   63
        BYTE   W04
        BYTE           N92     Bn1   v110   gtp3
        BYTE           TIE     Fs3
        BYTE   W04
        BYTE           VOL     64
        BYTE   W04
        BYTE                   65
        BYTE   W08
        BYTE                   66
        BYTE   W08
        BYTE                   67
        BYTE   W08
        BYTE                   68
        BYTE   W08
        BYTE                   69
        BYTE   W04
        BYTE                   70
        BYTE   W08
        BYTE                   71
        BYTE   W04
        BYTE                   72
        BYTE   W12
        BYTE                   74
        BYTE   W04
// 061   ----------------------------------------
        BYTE   W04
        BYTE                   75
        BYTE   W08
        BYTE                   76
        BYTE   W08
        BYTE                   77
        BYTE   W04
        BYTE           N92     An1   v110   gtp3
        BYTE   W04
        BYTE           VOL     76
        BYTE   W12
        BYTE                   75
        BYTE   W04
        BYTE                   74
        BYTE   W08
        BYTE                   73
        BYTE   W04
        BYTE                   72
        BYTE   W08
        BYTE                   71
        BYTE   W04
        BYTE                   70
        BYTE   W08
        BYTE                   69
        BYTE   W04
        BYTE                   68
        BYTE   W08
        BYTE                   67
        BYTE   W08
// 062   ----------------------------------------
        BYTE   W04
        BYTE                   66
        BYTE   W08
        BYTE                   65
        BYTE   W04
        BYTE                   64
        BYTE   W04
        BYTE                   65
        BYTE   W03
        BYTE           EOT     Fs3
        BYTE   W01
        BYTE           N92     Gn1   v110   gtp3
        BYTE                   An3
        BYTE   W08
        BYTE           VOL     66
        BYTE   W08
        BYTE                   67
        BYTE   W08
        BYTE                   68
        BYTE   W08
        BYTE                   69
        BYTE   W08
        BYTE                   70
        BYTE   W08
        BYTE                   71
        BYTE   W04
        BYTE                   72
        BYTE   W12
        BYTE                   74
        BYTE   W08
// 063   ----------------------------------------
        BYTE   W04
        BYTE                   75
        BYTE   W04
        BYTE                   76
        BYTE   W08
        BYTE                   77
        BYTE   W08
        BYTE           N92     An1   v110   gtp3
        BYTE                   Gn3
        BYTE   W04
        BYTE           VOL     76
        BYTE   W12
        BYTE                   75
        BYTE   W04
        BYTE                   74
        BYTE   W08
        BYTE                   73
        BYTE   W04
        BYTE                   72
        BYTE   W12
        BYTE                   71
        BYTE   W04
        BYTE                   70
        BYTE   W08
        BYTE                   69
        BYTE   W04
        BYTE                   68
        BYTE   W08
        BYTE                   67
        BYTE   W04
// 064   ----------------------------------------
        BYTE   W04
        BYTE                   66
        BYTE   W12
        BYTE                   65
        BYTE   W08
        BYTE                   63
        BYTE           N92     Bn1   v110   gtp3
        BYTE           TIE     Fs3
        BYTE   W04
        BYTE           VOL     64
        BYTE   W04
        BYTE                   65
        BYTE   W08
        BYTE                   66
        BYTE   W08
        BYTE                   67
        BYTE   W08
        BYTE                   68
        BYTE   W08
        BYTE                   69
        BYTE   W08
        BYTE                   70
        BYTE   W08
        BYTE                   71
        BYTE   W04
        BYTE                   72
        BYTE   W08
        BYTE                   73
        BYTE   W04
// 065   ----------------------------------------
        BYTE                   74
        BYTE   W08
        BYTE                   75
        BYTE   W04
        BYTE                   76
        BYTE   W08
        BYTE                   77
        BYTE   W04
        BYTE           N92     An1   v110   gtp3
        BYTE   W04
        BYTE           VOL     76
        BYTE   W12
        BYTE                   75
        BYTE   W04
        BYTE                   74
        BYTE   W08
        BYTE                   73
        BYTE   W04
        BYTE                   72
        BYTE   W12
        BYTE                   71
        BYTE   W04
        BYTE                   70
        BYTE   W08
        BYTE                   69
        BYTE   W08
        BYTE                   68
        BYTE   W08
// 066   ----------------------------------------
        BYTE                   67
        BYTE   W08
        BYTE                   66
        BYTE   W12
        BYTE                   65
        BYTE   W03
        BYTE           EOT     Fs3
        BYTE   W01
        BYTE           N92     Gn1   v110   gtp3
        BYTE           TIE     Fs3
        BYTE   W04
        BYTE           VOL     66
        BYTE   W04
        BYTE                   67
        BYTE   W08
        BYTE                   68
        BYTE   W12
        BYTE                   69
        BYTE   W04
        BYTE                   70
        BYTE   W12
        BYTE                   71
        BYTE   W04
        BYTE                   72
        BYTE   W12
        BYTE                   73
        BYTE   W04
        BYTE                   74
        BYTE   W08
// 067   ----------------------------------------
        BYTE                   75
        BYTE   W08
        BYTE                   76
        BYTE   W08
        BYTE                   77
        BYTE   W08
        BYTE           N92     Gs1   v110   gtp3
        BYTE   W12
        BYTE           VOL     76
        BYTE   W12
        BYTE                   75
        BYTE   W08
        BYTE                   74
        BYTE   W16
        BYTE                   73
        BYTE   W04
        BYTE                   72
        BYTE   W16
        BYTE                   71
        BYTE   W04
// 068   ----------------------------------------
        BYTE                   70
        BYTE   W12
        BYTE                   69
        BYTE   W04
        BYTE                   70
        BYTE   W07
        BYTE           EOT     Fs3
        BYTE   W01
        BYTE           N92     An1   v110   gtp3
        BYTE                   En3
        BYTE   W04
        BYTE           VOL     71
        BYTE   W04
        BYTE                   72
        BYTE   W08
        BYTE                   73
        BYTE   W04
        BYTE                   74
        BYTE   W12
        BYTE                   75
        BYTE   W04
        BYTE                   76
        BYTE   W08
        BYTE                   77
        BYTE   W08
        BYTE                   76
        BYTE   W04
        BYTE                   74
        BYTE   W04
        BYTE                   71
        BYTE   W04
        BYTE                   68
        BYTE   W04
        BYTE                   66
        BYTE   W04
// 069   ----------------------------------------
        BYTE                   64
        BYTE   W04
        BYTE                   61
        BYTE   W04
        BYTE                   58
        BYTE   W04
        BYTE                   56
        BYTE   W04
        BYTE                   54
        BYTE   W04
        BYTE                   51
        BYTE   W76
// 070   ----------------------------------------
        BYTE   W96
// 071   ----------------------------------------
        BYTE   W96
// 072   ----------------------------------------
        BYTE   W96
// 073   ----------------------------------------
        BYTE   W96
// 074   ----------------------------------------
        BYTE   W96
// 075   ----------------------------------------
        BYTE   W96
// 076   ----------------------------------------
        BYTE   W96
// 077   ----------------------------------------
        BYTE   W96
// 078   ----------------------------------------
        BYTE   PATT
         POIN2  IntheMorningSun_0_8
// 079   ----------------------------------------
        BYTE   PATT
         POIN2  IntheMorningSun_0_9
// 080   ----------------------------------------
        BYTE   PATT
         POIN2  IntheMorningSun_0_10
// 081   ----------------------------------------
        BYTE   PATT
         POIN2  IntheMorningSun_0_11
// 082   ----------------------------------------
        BYTE   PATT
         POIN2  IntheMorningSun_0_12
// 083   ----------------------------------------
        BYTE   PATT
         POIN2  IntheMorningSun_0_13
// 084   ----------------------------------------
        BYTE   PATT
         POIN2  IntheMorningSun_0_14
// 085   ----------------------------------------
        BYTE   PATT
         POIN2  IntheMorningSun_0_15
// 086   ----------------------------------------
        BYTE   PATT
         POIN2  IntheMorningSun_0_16
// 087   ----------------------------------------
        BYTE   PATT
         POIN2  IntheMorningSun_0_17
// 088   ----------------------------------------
        BYTE           VOL     19
        BYTE   W06
        BYTE                   17
        BYTE   W06
        BYTE                   15
        BYTE   W11
        BYTE           EOT     An1
        BYTE                   En3
        BYTE   W01
        BYTE   GoTo
         POIN2  IntheMorningSun_0_LOOP
        BYTE   FINE

//***************** Track 1 (Midi-Chn.11) ******************//

IntheMorningSun_1:
        BYTE   KEYSH   IntheMorningSun_key+0
// 000   ----------------------------------------
        BYTE           VOICE   48
        BYTE           PAN     c_v-34
        BYTE           VOL     65
        BYTE   W96
// 001   ----------------------------------------
        BYTE   W96
// 002   ----------------------------------------
        BYTE   W96
// 003   ----------------------------------------
        BYTE   W96
// 004   ----------------------------------------
        BYTE   W96
// 005   ----------------------------------------
        BYTE   W96
// 006   ----------------------------------------
        BYTE   W96
// 007   ----------------------------------------
        BYTE   W96
// 008   ----------------------------------------
IntheMorningSun_1_8:
        BYTE   W21
        BYTE           VOL     32
        BYTE   W03
        BYTE           N92     Bn2   v088   gtp3
        BYTE                   Dn3   v073
        BYTE   W03
        BYTE           VOL     39
        BYTE   W06
        BYTE                   46
        BYTE   W06
        BYTE                   52
        BYTE   W06
        BYTE                   56
        BYTE   W06
        BYTE                   60
        BYTE   W06
        BYTE                   62
        BYTE   W06
        BYTE                   64
        BYTE   W32
        BYTE   W01
        BYTE   PEND
// 009   ----------------------------------------
IntheMorningSun_1_9:
        BYTE   W05
        BYTE           VOL     63
        BYTE   W06
        BYTE                   62
        BYTE   W06
        BYTE                   57
        BYTE   W07
        BYTE           N92     Cs3   v088   gtp3
        BYTE                   En3   v073
        BYTE   W07
        BYTE           VOL     59
        BYTE   W01
        BYTE                   60
        BYTE   W03
        BYTE                   61
        BYTE   W06
        BYTE                   65
        BYTE   W48
        BYTE   W02
        BYTE                   64
        BYTE   W05
        BYTE   PEND
// 010   ----------------------------------------
IntheMorningSun_1_10:
        BYTE   W07
        BYTE           VOL     62
        BYTE   W06
        BYTE                   61
        BYTE   W06
        BYTE                   60
        BYTE   W05
        BYTE           TIE     Bn2   v088
        BYTE           TIE     Dn3   v073
        BYTE   W01
        BYTE           VOL     58
        BYTE   W04
        BYTE                   57
        BYTE   W06
        BYTE                   59
        BYTE   W06
        BYTE                   60
        BYTE   W06
        BYTE                   62
        BYTE   W06
        BYTE                   63
        BYTE   W06
        BYTE                   64
        BYTE   W36
        BYTE   W01
        BYTE   PEND
// 011   ----------------------------------------
IntheMorningSun_1_11:
        BYTE   W60
        BYTE   W03
        BYTE           VOL     63
        BYTE   W24
        BYTE                   62
        BYTE   W09
        BYTE   PEND
// 012   ----------------------------------------
IntheMorningSun_1_12:
        BYTE   W03
        BYTE           VOL     61
        BYTE   W12
        BYTE                   60
        BYTE   W06
        BYTE                   55
        BYTE   W02
        BYTE           EOT     Bn2
        BYTE                   Dn3
        BYTE   W01
        BYTE           TIE     Bn2   v088
        BYTE           TIE     Dn3   v073
        BYTE   W03
        BYTE           VOL     57
        BYTE   W06
        BYTE                   59
        BYTE   W06
        BYTE                   60
        BYTE   W06
        BYTE                   61
        BYTE   W06
        BYTE                   62
        BYTE   W06
        BYTE                   63
        BYTE   W06
        BYTE                   64
        BYTE   W32
        BYTE   W01
        BYTE   PEND
// 013   ----------------------------------------
IntheMorningSun_1_13:
        BYTE   W68
        BYTE   W03
        BYTE           VOL     62
        BYTE   W18
        BYTE                   61
        BYTE   W07
        BYTE   PEND
// 014   ----------------------------------------
IntheMorningSun_1_14:
        BYTE   W05
        BYTE           VOL     60
        BYTE   W12
        BYTE                   59
        BYTE   W06
        BYTE           EOT     Bn2
        BYTE                   Dn3
        BYTE   W01
        BYTE           N92     Cs3   v073   gtp3
        BYTE   W07
        BYTE           VOL     60
        BYTE   W06
        BYTE                   62
        BYTE   W06
        BYTE                   63
        BYTE   W06
        BYTE                   64
        BYTE   W44
        BYTE   W02
        BYTE                   65
        BYTE   W01
        BYTE   PEND
// 015   ----------------------------------------
IntheMorningSun_1_15:
        BYTE   W05
        BYTE           VOL     64
        BYTE   W06
        BYTE                   62
        BYTE   W12
        BYTE                   61
        BYTE   W01
        BYTE           TIE     Cs3   v073
        BYTE   W05
        BYTE           VOL     58
        BYTE   W06
        BYTE                   59
        BYTE   W06
        BYTE                   61
        BYTE   W01
        BYTE                   62
        BYTE   W02
        BYTE                   65
        BYTE   W52
        BYTE   PEND
// 016   ----------------------------------------
IntheMorningSun_1_16:
        BYTE   W30
        BYTE           VOL     64
        BYTE   W06
        BYTE                   62
        BYTE   W06
        BYTE                   60
        BYTE   W06
        BYTE                   59
        BYTE   W06
        BYTE                   57
        BYTE   W06
        BYTE                   55
        BYTE   W12
        BYTE                   53
        BYTE   W06
        BYTE                   51
        BYTE   W06
        BYTE                   50
        BYTE   W06
        BYTE                   48
        BYTE   W06
        BYTE   PEND
// 017   ----------------------------------------
IntheMorningSun_1_17:
        BYTE           VOL     46
        BYTE   W12
        BYTE                   43
        BYTE   W06
        BYTE                   42
        BYTE   W06
        BYTE                   40
        BYTE   W06
        BYTE                   39
        BYTE   W06
        BYTE                   37
        BYTE   W06
        BYTE                   36
        BYTE   W06
        BYTE                   34
        BYTE   W06
        BYTE                   33
        BYTE   W06
        BYTE                   31
        BYTE   W06
        BYTE                   29
        BYTE   W06
        BYTE                   28
        BYTE   W06
        BYTE                   27
        BYTE   W06
        BYTE                   25
        BYTE   W06
        BYTE                   23
        BYTE   W06
        BYTE   PEND
// 018   ----------------------------------------
        BYTE                   22
        BYTE   W06
        BYTE                   20
        BYTE   W06
        BYTE                   18
        BYTE   W11
        BYTE           EOT     Cs3
        BYTE   W01
IntheMorningSun_1_LOOP:
        BYTE   W72
// 019   ----------------------------------------
        BYTE   W96
// 020   ----------------------------------------
        BYTE   W96
// 021   ----------------------------------------
        BYTE   W96
// 022   ----------------------------------------
        BYTE   W96
// 023   ----------------------------------------
        BYTE   W96
// 024   ----------------------------------------
        BYTE   W96
// 025   ----------------------------------------
        BYTE   W96
// 026   ----------------------------------------
        BYTE   W96
// 027   ----------------------------------------
        BYTE   W96
// 028   ----------------------------------------
        BYTE   W96
// 029   ----------------------------------------
        BYTE   W96
// 030   ----------------------------------------
        BYTE   W96
// 031   ----------------------------------------
        BYTE   W96
// 032   ----------------------------------------
        BYTE   W96
// 033   ----------------------------------------
        BYTE   W96
// 034   ----------------------------------------
        BYTE   W24
        BYTE           VOL     45
        BYTE           TIE     Fn3   v100
        BYTE   W12
        BYTE           VOL     46
        BYTE   W12
        BYTE                   47
        BYTE   W06
        BYTE                   48
        BYTE   W12
        BYTE                   49
        BYTE   W12
        BYTE                   50
        BYTE   W06
        BYTE                   51
        BYTE   W06
        BYTE                   52
        BYTE   W06
// 035   ----------------------------------------
        BYTE   W06
        BYTE                   53
        BYTE   W06
        BYTE                   54
        BYTE   W12
        BYTE                   55
        BYTE   W12
        BYTE                   56
        BYTE   W06
        BYTE                   57
        BYTE   W12
        BYTE                   58
        BYTE   W06
        BYTE                   59
        BYTE   W12
        BYTE                   60
        BYTE   W06
        BYTE                   61
        BYTE   W12
        BYTE                   62
        BYTE   W06
// 036   ----------------------------------------
        BYTE   W06
        BYTE                   64
        BYTE   W12
        BYTE                   65
        BYTE   W05
        BYTE           EOT
        BYTE   W01
        BYTE           TIE
        BYTE   W06
        BYTE           VOL     64
        BYTE   W12
        BYTE                   62
        BYTE   W12
        BYTE                   61
        BYTE   W12
        BYTE                   60
        BYTE   W12
        BYTE                   59
        BYTE   W12
        BYTE                   58
        BYTE   W06
// 037   ----------------------------------------
        BYTE                   57
        BYTE   W12
        BYTE                   56
        BYTE   W06
        BYTE                   55
        BYTE   W18
        BYTE                   54
        BYTE   W06
        BYTE                   53
        BYTE   W12
        BYTE                   52
        BYTE   W12
        BYTE                   51
        BYTE   W12
        BYTE                   50
        BYTE   W06
        BYTE                   49
        BYTE   W06
        BYTE                   48
        BYTE   W06
// 038   ----------------------------------------
        BYTE   W06
        BYTE                   47
        BYTE   W12
        BYTE                   46
        BYTE   W05
        BYTE           EOT
        BYTE   W01
        BYTE           N92     Dn3   v100   gtp3
        BYTE   W18
        BYTE           VOL     47
        BYTE   W06
        BYTE                   48
        BYTE   W12
        BYTE                   49
        BYTE   W12
        BYTE                   50
        BYTE   W06
        BYTE                   51
        BYTE   W06
        BYTE                   52
        BYTE   W12
// 039   ----------------------------------------
        BYTE                   53
        BYTE   W12
        BYTE                   54
        BYTE   W06
        BYTE                   55
        BYTE   W06
        BYTE           N92     Dn3   v100   gtp3
        BYTE   W12
        BYTE           VOL     56
        BYTE   W06
        BYTE                   57
        BYTE   W12
        BYTE                   58
        BYTE   W06
        BYTE                   59
        BYTE   W12
        BYTE                   60
        BYTE   W12
        BYTE                   61
        BYTE   W06
        BYTE                   62
        BYTE   W06
// 040   ----------------------------------------
        BYTE   W06
        BYTE                   63
        BYTE   W06
        BYTE                   64
        BYTE   W12
        BYTE           N92     En3   v100   gtp3
        BYTE   W12
        BYTE           VOL     63
        BYTE   W06
        BYTE                   62
        BYTE   W12
        BYTE                   61
        BYTE   W06
        BYTE                   60
        BYTE   W12
        BYTE                   59
        BYTE   W12
        BYTE                   58
        BYTE   W06
        BYTE                   57
        BYTE   W06
// 041   ----------------------------------------
        BYTE   W06
        BYTE                   56
        BYTE   W06
        BYTE                   55
        BYTE   W12
        BYTE                   54
        BYTE           N92     Dn3   v100   gtp3
        BYTE   W12
        BYTE           VOL     53
        BYTE   W12
        BYTE                   52
        BYTE   W06
        BYTE                   51
        BYTE   W12
        BYTE                   50
        BYTE   W06
        BYTE                   49
        BYTE   W06
        BYTE                   48
        BYTE   W12
        BYTE                   47
        BYTE   W06
// 042   ----------------------------------------
        BYTE   W06
        BYTE                   46
        BYTE   W12
        BYTE                   45
        BYTE   W06
        BYTE           N92     Dn3   v100   gtp3
        BYTE   W06
        BYTE           VOL     46
        BYTE   W12
        BYTE                   47
        BYTE   W06
        BYTE                   48
        BYTE   W12
        BYTE                   49
        BYTE   W12
        BYTE                   50
        BYTE   W06
        BYTE                   51
        BYTE   W06
        BYTE                   52
        BYTE   W12
// 043   ----------------------------------------
        BYTE                   53
        BYTE   W06
        BYTE                   54
        BYTE   W12
        BYTE                   55
        BYTE   W06
        BYTE           N44     Cn3   v100   gtp3
        BYTE   W06
        BYTE           VOL     56
        BYTE   W06
        BYTE                   57
        BYTE   W12
        BYTE                   58
        BYTE   W06
        BYTE                   59
        BYTE   W12
        BYTE                   60
        BYTE   W06
        BYTE                   61
        BYTE           N44     Fn3   v100   gtp3
        BYTE   W12
        BYTE           VOL     62
        BYTE   W12
// 044   ----------------------------------------
        BYTE                   64
        BYTE   W12
        BYTE                   65
        BYTE   W12
        BYTE           N92     Dn3   v100   gtp3
        BYTE   W12
        BYTE           VOL     64
        BYTE   W12
        BYTE                   63
        BYTE   W06
        BYTE                   62
        BYTE   W12
        BYTE                   61
        BYTE   W12
        BYTE                   60
        BYTE   W18
// 045   ----------------------------------------
        BYTE                   59
        BYTE   W12
        BYTE                   58
        BYTE   W12
        BYTE                   57
        BYTE           N44     Dn3   v100   gtp3
        BYTE   W12
        BYTE           VOL     56
        BYTE   W06
        BYTE                   55
        BYTE   W24
        BYTE                   54
        BYTE   W06
        BYTE           N44     Dn3   v100   gtp3
        BYTE   W06
        BYTE           VOL     53
        BYTE   W12
        BYTE                   52
        BYTE   W06
// 046   ----------------------------------------
        BYTE   W06
        BYTE                   51
        BYTE   W12
        BYTE                   48
        BYTE   W06
        BYTE           TIE     Cn3
        BYTE   W06
        BYTE           VOL     49
        BYTE   W12
        BYTE                   50
        BYTE   W06
        BYTE                   51
        BYTE   W12
        BYTE                   52
        BYTE   W12
        BYTE                   53
        BYTE   W12
        BYTE                   54
        BYTE   W12
// 047   ----------------------------------------
        BYTE                   55
        BYTE   W18
        BYTE                   56
        BYTE   W06
        BYTE                   57
        BYTE   W12
        BYTE                   58
        BYTE   W12
        BYTE                   59
        BYTE   W12
        BYTE                   60
        BYTE   W12
        BYTE                   61
        BYTE   W12
        BYTE                   62
        BYTE   W12
// 048   ----------------------------------------
        BYTE                   63
        BYTE   W06
        BYTE                   64
        BYTE   W12
        BYTE                   65
        BYTE   W05
        BYTE           EOT
        BYTE   W01
        BYTE           TIE     Ds3
        BYTE   W06
        BYTE           VOL     63
        BYTE   W06
        BYTE                   62
        BYTE   W12
        BYTE                   61
        BYTE   W12
        BYTE                   60
        BYTE   W06
        BYTE                   59
        BYTE   W12
        BYTE                   58
        BYTE   W06
        BYTE                   57
        BYTE   W12
// 049   ----------------------------------------
        BYTE                   56
        BYTE   W06
        BYTE                   55
        BYTE   W12
        BYTE                   54
        BYTE   W12
        BYTE                   53
        BYTE   W12
        BYTE                   52
        BYTE   W06
        BYTE                   51
        BYTE   W12
        BYTE                   50
        BYTE   W06
        BYTE                   49
        BYTE   W06
        BYTE                   48
        BYTE   W12
        BYTE                   47
        BYTE   W12
// 050   ----------------------------------------
        BYTE                   46
        BYTE   W12
        BYTE                   45
        BYTE   W11
        BYTE           EOT
        BYTE   W01
        BYTE           VOL     43
        BYTE           TIE     Dn3
        BYTE   W12
        BYTE           VOL     44
        BYTE   W06
        BYTE                   45
        BYTE   W12
        BYTE                   46
        BYTE   W18
        BYTE                   47
        BYTE   W12
        BYTE                   48
        BYTE   W12
// 051   ----------------------------------------
        BYTE                   49
        BYTE   W12
        BYTE                   50
        BYTE   W12
        BYTE                   51
        BYTE   W12
        BYTE                   52
        BYTE   W12
        BYTE                   53
        BYTE   W12
        BYTE                   54
        BYTE   W12
        BYTE                   55
        BYTE   W18
        BYTE                   56
        BYTE   W06
// 052   ----------------------------------------
        BYTE                   57
        BYTE   W18
        BYTE                   58
        BYTE   W12
        BYTE                   59
        BYTE   W12
        BYTE                   60
        BYTE   W12
        BYTE                   61
        BYTE   W12
        BYTE                   62
        BYTE   W12
        BYTE                   63
        BYTE   W06
        BYTE                   64
        BYTE   W12
// 053   ----------------------------------------
        BYTE                   65
        BYTE   W23
        BYTE           EOT
        BYTE   W01
        BYTE           N12     Dn3   v050
        BYTE   W12
        BYTE                   Dn3   v040
        BYTE   W12
        BYTE                   Dn3   v035
        BYTE   W12
        BYTE                   Dn3   v030
        BYTE   W12
        BYTE                   Dn3   v025
        BYTE   W24
// 054   ----------------------------------------
        BYTE   W24
        BYTE           VOL     51
        BYTE           N92     Bn2   v110   gtp3
        BYTE                   Dn3
        BYTE   W04
        BYTE           VOL     52
        BYTE   W04
        BYTE                   53
        BYTE   W08
        BYTE                   54
        BYTE   W04
        BYTE                   55
        BYTE   W12
        BYTE                   56
        BYTE   W04
        BYTE                   57
        BYTE   W04
        BYTE                   58
        BYTE   W08
        BYTE                   59
        BYTE   W04
        BYTE                   60
        BYTE   W08
        BYTE                   61
        BYTE   W04
        BYTE                   62
        BYTE   W08
// 055   ----------------------------------------
        BYTE                   64
        BYTE   W08
        BYTE                   65
        BYTE   W12
        BYTE                   64
        BYTE   W04
        BYTE           N92     Cs3   v110   gtp3
        BYTE                   En3
        BYTE   W04
        BYTE           VOL     63
        BYTE   W04
        BYTE                   62
        BYTE   W08
        BYTE                   61
        BYTE   W08
        BYTE                   60
        BYTE   W08
        BYTE                   59
        BYTE   W08
        BYTE                   58
        BYTE   W08
        BYTE                   57
        BYTE   W08
        BYTE                   56
        BYTE   W04
        BYTE                   55
        BYTE   W12
// 056   ----------------------------------------
        BYTE   W04
        BYTE                   54
        BYTE   W08
        BYTE                   53
        BYTE   W04
        BYTE                   52
        BYTE   W04
        BYTE                   53
        BYTE   W04
        BYTE           TIE     Bn2
        BYTE           TIE     Dn3
        BYTE   W04
        BYTE           VOL     54
        BYTE   W12
        BYTE                   55
        BYTE   W12
        BYTE                   56
        BYTE   W04
        BYTE                   57
        BYTE   W08
        BYTE                   58
        BYTE   W08
        BYTE                   59
        BYTE   W12
        BYTE                   60
        BYTE   W08
        BYTE                   61
        BYTE   W04
// 057   ----------------------------------------
        BYTE   W04
        BYTE                   62
        BYTE   W08
        BYTE                   63
        BYTE   W04
        BYTE                   64
        BYTE   W12
        BYTE                   63
        BYTE   W08
        BYTE                   62
        BYTE   W08
        BYTE                   61
        BYTE   W12
        BYTE                   60
        BYTE   W12
        BYTE                   59
        BYTE   W12
        BYTE                   58
        BYTE   W08
        BYTE                   57
        BYTE   W08
// 058   ----------------------------------------
        BYTE   W04
        BYTE                   56
        BYTE   W08
        BYTE                   55
        BYTE   W11
        BYTE           EOT     Bn2
        BYTE                   Dn3
        BYTE   W01
        BYTE           VOL     54
        BYTE           N92     Bn2   v110   gtp3
        BYTE                   Dn3
        BYTE   W04
        BYTE           VOL     55
        BYTE   W12
        BYTE                   56
        BYTE   W08
        BYTE                   57
        BYTE   W08
        BYTE                   58
        BYTE   W08
        BYTE                   59
        BYTE   W08
        BYTE                   60
        BYTE   W08
        BYTE                   61
        BYTE   W12
        BYTE                   62
        BYTE   W04
// 059   ----------------------------------------
        BYTE   W04
        BYTE                   63
        BYTE   W04
        BYTE                   64
        BYTE   W08
        BYTE                   65
        BYTE   W08
        BYTE           N92     Cs3   v110   gtp3
        BYTE                   En3
        BYTE   W04
        BYTE           VOL     64
        BYTE   W08
        BYTE                   63
        BYTE   W04
        BYTE                   62
        BYTE   W08
        BYTE                   61
        BYTE   W12
        BYTE                   60
        BYTE   W08
        BYTE                   59
        BYTE   W08
        BYTE                   58
        BYTE   W08
        BYTE                   57
        BYTE   W08
        BYTE                   56
        BYTE   W04
// 060   ----------------------------------------
        BYTE   W04
        BYTE                   55
        BYTE   W20
        BYTE           TIE     Bn2
        BYTE           TIE     Dn3
        BYTE   W08
        BYTE           VOL     56
        BYTE   W08
        BYTE                   57
        BYTE   W08
        BYTE                   58
        BYTE   W12
        BYTE                   59
        BYTE   W08
        BYTE                   60
        BYTE   W12
        BYTE                   61
        BYTE   W08
        BYTE                   62
        BYTE   W08
// 061   ----------------------------------------
        BYTE   W04
        BYTE                   63
        BYTE   W04
        BYTE                   64
        BYTE   W12
        BYTE                   65
        BYTE   W08
        BYTE                   64
        BYTE   W08
        BYTE                   63
        BYTE   W04
        BYTE                   62
        BYTE   W12
        BYTE                   61
        BYTE   W08
        BYTE                   60
        BYTE   W08
        BYTE                   59
        BYTE   W12
        BYTE                   58
        BYTE   W08
        BYTE                   57
        BYTE   W08
// 062   ----------------------------------------
        BYTE                   56
        BYTE   W08
        BYTE                   55
        BYTE   W15
        BYTE           EOT     Bn2
        BYTE                   Dn3
        BYTE   W01
        BYTE           N92     Bn2   v110   gtp3
        BYTE                   Dn3
        BYTE   W16
        BYTE           VOL     56
        BYTE   W04
        BYTE                   57
        BYTE   W12
        BYTE                   58
        BYTE   W08
        BYTE                   59
        BYTE   W08
        BYTE                   60
        BYTE   W12
        BYTE                   61
        BYTE   W08
        BYTE                   62
        BYTE   W04
// 063   ----------------------------------------
        BYTE   W04
        BYTE                   63
        BYTE   W08
        BYTE                   64
        BYTE   W08
        BYTE                   65
        BYTE   W04
        BYTE           N92     Cs3   v110   gtp3
        BYTE                   En3
        BYTE   W08
        BYTE           VOL     64
        BYTE   W08
        BYTE                   63
        BYTE   W08
        BYTE                   62
        BYTE   W08
        BYTE                   61
        BYTE   W08
        BYTE                   60
        BYTE   W12
        BYTE                   59
        BYTE   W08
        BYTE                   58
        BYTE   W08
        BYTE                   57
        BYTE   W04
// 064   ----------------------------------------
        BYTE   W08
        BYTE                   56
        BYTE   W04
        BYTE                   55
        BYTE   W12
        BYTE                   54
        BYTE           TIE     Bn2
        BYTE           TIE     Dn3
        BYTE   W04
        BYTE           VOL     55
        BYTE   W12
        BYTE                   56
        BYTE   W08
        BYTE                   57
        BYTE   W08
        BYTE                   58
        BYTE   W08
        BYTE                   59
        BYTE   W08
        BYTE                   60
        BYTE   W08
        BYTE                   61
        BYTE   W12
        BYTE                   62
        BYTE   W04
// 065   ----------------------------------------
        BYTE   W04
        BYTE                   63
        BYTE   W04
        BYTE                   64
        BYTE   W08
        BYTE                   65
        BYTE   W08
        BYTE                   64
        BYTE   W12
        BYTE                   63
        BYTE   W04
        BYTE                   62
        BYTE   W12
        BYTE                   61
        BYTE   W12
        BYTE                   60
        BYTE   W08
        BYTE                   59
        BYTE   W12
        BYTE                   58
        BYTE   W12
// 066   ----------------------------------------
        BYTE                   57
        BYTE   W08
        BYTE                   56
        BYTE   W08
        BYTE                   55
        BYTE   W07
        BYTE           EOT     Bn2
        BYTE                   Dn3
        BYTE   W01
        BYTE           TIE     Bn2
        BYTE           TIE     Dn3
        BYTE   W16
        BYTE           VOL     56
        BYTE   W08
        BYTE                   57
        BYTE   W08
        BYTE                   58
        BYTE   W12
        BYTE                   59
        BYTE   W08
        BYTE                   60
        BYTE   W08
        BYTE                   61
        BYTE   W12
// 067   ----------------------------------------
        BYTE                   62
        BYTE   W08
        BYTE                   63
        BYTE   W08
        BYTE                   64
        BYTE   W08
        BYTE                   65
        BYTE   W04
        BYTE                   64
        BYTE   W16
        BYTE                   63
        BYTE   W08
        BYTE                   62
        BYTE   W12
        BYTE                   61
        BYTE   W12
        BYTE                   60
        BYTE   W12
        BYTE                   59
        BYTE   W08
// 068   ----------------------------------------
        BYTE   W08
        BYTE                   58
        BYTE   W12
        BYTE                   57
        BYTE   W03
        BYTE           EOT     Bn2
        BYTE                   Dn3
        BYTE   W01
        BYTE           N92     Cs3   v110   gtp3
        BYTE   W04
        BYTE           VOL     58
        BYTE   W08
        BYTE                   59
        BYTE   W04
        BYTE                   60
        BYTE   W04
        BYTE                   61
        BYTE   W04
        BYTE                   62
        BYTE   W04
        BYTE                   63
        BYTE   W04
        BYTE                   64
        BYTE   W04
        BYTE                   65
        BYTE   W12
        BYTE                   63
        BYTE   W04
        BYTE                   61
        BYTE   W04
        BYTE                   59
        BYTE   W04
        BYTE                   57
        BYTE   W04
        BYTE                   55
        BYTE   W04
        BYTE                   53
        BYTE   W04
// 069   ----------------------------------------
        BYTE                   51
        BYTE   W04
        BYTE                   49
        BYTE   W04
        BYTE                   47
        BYTE   W04
        BYTE                   46
        BYTE   W04
        BYTE                   43
        BYTE   W80
// 070   ----------------------------------------
        BYTE   W96
// 071   ----------------------------------------
        BYTE   W96
// 072   ----------------------------------------
        BYTE   W96
// 073   ----------------------------------------
        BYTE   W96
// 074   ----------------------------------------
        BYTE   W96
// 075   ----------------------------------------
        BYTE   W96
// 076   ----------------------------------------
        BYTE   W96
// 077   ----------------------------------------
        BYTE   W96
// 078   ----------------------------------------
        BYTE   PATT
         POIN2  IntheMorningSun_1_8
// 079   ----------------------------------------
        BYTE   PATT
         POIN2  IntheMorningSun_1_9
// 080   ----------------------------------------
        BYTE   PATT
         POIN2  IntheMorningSun_1_10
// 081   ----------------------------------------
        BYTE   PATT
         POIN2  IntheMorningSun_1_11
// 082   ----------------------------------------
        BYTE   PATT
         POIN2  IntheMorningSun_1_12
// 083   ----------------------------------------
        BYTE   PATT
         POIN2  IntheMorningSun_1_13
// 084   ----------------------------------------
        BYTE   PATT
         POIN2  IntheMorningSun_1_14
// 085   ----------------------------------------
        BYTE   PATT
         POIN2  IntheMorningSun_1_15
// 086   ----------------------------------------
        BYTE   PATT
         POIN2  IntheMorningSun_1_16
// 087   ----------------------------------------
        BYTE   PATT
         POIN2  IntheMorningSun_1_17
// 088   ----------------------------------------
        BYTE           VOL     22
        BYTE   W06
        BYTE                   20
        BYTE   W06
        BYTE                   18
        BYTE   W11
        BYTE           EOT     Cs3
        BYTE   W01
        BYTE   GoTo
         POIN2  IntheMorningSun_1_LOOP
        BYTE   FINE

//****************** Track 2 (Midi-Chn.2) ******************//

IntheMorningSun_2:
        BYTE   KEYSH   IntheMorningSun_key+0
// 000   ----------------------------------------
        BYTE           VOICE   49
        BYTE           PAN     c_v+36
        BYTE           VOL     63
        BYTE   W96
// 001   ----------------------------------------
        BYTE   W96
// 002   ----------------------------------------
        BYTE   W96
// 003   ----------------------------------------
        BYTE   W96
// 004   ----------------------------------------
        BYTE   W96
// 005   ----------------------------------------
        BYTE   W96
// 006   ----------------------------------------
        BYTE   W96
// 007   ----------------------------------------
        BYTE   W96
// 008   ----------------------------------------
IntheMorningSun_2_8:
        BYTE   W24
        BYTE           VOL     31
        BYTE           N92     Gn2   v048   gtp3
        BYTE   W06
        BYTE           VOL     39
        BYTE   W06
        BYTE                   45
        BYTE   W06
        BYTE                   52
        BYTE   W06
        BYTE                   56
        BYTE   W06
        BYTE                   60
        BYTE   W06
        BYTE                   62
        BYTE   W06
        BYTE                   63
        BYTE   W28
        BYTE   W01
        BYTE                   62
        BYTE   W01
        BYTE   PEND
// 009   ----------------------------------------
IntheMorningSun_2_9:
        BYTE   W05
        BYTE           VOL     61
        BYTE   W06
        BYTE                   59
        BYTE   W07
        BYTE                   57
        BYTE   W06
        BYTE                   55
        BYTE           N92     An2   v048   gtp3
        BYTE   W01
        BYTE           VOL     54
        BYTE   W05
        BYTE                   53
        BYTE   W06
        BYTE                   58
        BYTE   W05
        BYTE                   61
        BYTE   W06
        BYTE                   63
        BYTE   W48
        BYTE                   62
        BYTE   W01
        BYTE   PEND
// 010   ----------------------------------------
IntheMorningSun_2_10:
        BYTE   W05
        BYTE           VOL     61
        BYTE   W06
        BYTE                   59
        BYTE   W01
        BYTE                   56
        BYTE   W12
        BYTE                   54
        BYTE           N44     Fs2   v048   gtp3
        BYTE   W02
        BYTE           VOL     53
        BYTE   W04
        BYTE                   52
        BYTE   W06
        BYTE                   56
        BYTE   W01
        BYTE                   59
        BYTE   W06
        BYTE                   62
        BYTE   W06
        BYTE                   63
        BYTE   W23
        BYTE           N44     An2   v048   gtp3
        BYTE   W24
        BYTE   PEND
// 011   ----------------------------------------
IntheMorningSun_2_11:
        BYTE   W24
        BYTE           N92     An2   v038   gtp3
        BYTE   W42
        BYTE   W01
        BYTE           VOL     62
        BYTE   W18
        BYTE                   61
        BYTE   W11
        BYTE   PEND
// 012   ----------------------------------------
IntheMorningSun_2_12:
        BYTE   W01
        BYTE           VOL     60
        BYTE   W06
        BYTE                   58
        BYTE   W06
        BYTE                   56
        BYTE   W06
        BYTE                   54
        BYTE   W05
        BYTE           TIE     Gn2   v043
        BYTE           VOL     53
        BYTE   W12
        BYTE                   54
        BYTE   W06
        BYTE                   55
        BYTE   W02
        BYTE                   57
        BYTE   W06
        BYTE                   60
        BYTE   W06
        BYTE                   61
        BYTE   W06
        BYTE                   62
        BYTE   W06
        BYTE                   63
        BYTE   W28
        BYTE   PEND
// 013   ----------------------------------------
IntheMorningSun_2_13:
        BYTE   W66
        BYTE           VOL     62
        BYTE   W18
        BYTE                   61
        BYTE   W06
        BYTE                   59
        BYTE   W06
        BYTE   PEND
// 014   ----------------------------------------
IntheMorningSun_2_14:
        BYTE           VOL     58
        BYTE   W05
        BYTE                   56
        BYTE   W12
        BYTE                   54
        BYTE   W04
        BYTE                   53
        BYTE   W02
        BYTE           EOT     Gn2
        BYTE   W01
        BYTE           N92     An2   v048   gtp3
        BYTE   W08
        BYTE           VOL     54
        BYTE   W05
        BYTE                   56
        BYTE   W04
        BYTE                   61
        BYTE   W06
        BYTE                   63
        BYTE   W48
        BYTE   W01
        BYTE   PEND
// 015   ----------------------------------------
IntheMorningSun_2_15:
        BYTE   W02
        BYTE           VOL     62
        BYTE   W04
        BYTE                   60
        BYTE   W06
        BYTE                   59
        BYTE   W06
        BYTE                   56
        BYTE   W02
        BYTE                   54
        BYTE   W04
        BYTE           TIE     An2   v078
        BYTE   W07
        BYTE           VOL     55
        BYTE   W07
        BYTE                   58
        BYTE   W01
        BYTE                   60
        BYTE   W06
        BYTE                   63
        BYTE   W48
        BYTE   W03
        BYTE   PEND
// 016   ----------------------------------------
IntheMorningSun_2_16:
        BYTE   W24
        BYTE           VOL     62
        BYTE   W06
        BYTE                   61
        BYTE   W06
        BYTE                   59
        BYTE   W06
        BYTE                   58
        BYTE   W06
        BYTE                   56
        BYTE   W06
        BYTE                   54
        BYTE   W06
        BYTE                   53
        BYTE   W06
        BYTE                   51
        BYTE   W06
        BYTE                   50
        BYTE   W06
        BYTE                   48
        BYTE   W06
        BYTE                   46
        BYTE   W06
        BYTE                   45
        BYTE   W06
        BYTE   PEND
// 017   ----------------------------------------
IntheMorningSun_2_17:
        BYTE           VOL     44
        BYTE   W06
        BYTE                   42
        BYTE   W06
        BYTE                   40
        BYTE   W06
        BYTE                   39
        BYTE   W06
        BYTE                   37
        BYTE   W06
        BYTE                   36
        BYTE   W06
        BYTE                   34
        BYTE   W06
        BYTE                   33
        BYTE   W06
        BYTE                   31
        BYTE   W06
        BYTE                   30
        BYTE   W06
        BYTE                   27
        BYTE   W06
        BYTE                   26
        BYTE   W06
        BYTE                   25
        BYTE   W06
        BYTE                   23
        BYTE   W06
        BYTE                   22
        BYTE   W06
        BYTE                   20
        BYTE   W06
        BYTE   PEND
// 018   ----------------------------------------
        BYTE                   18
        BYTE   W06
        BYTE                   17
        BYTE   W06
        BYTE                   15
        BYTE   W06
        BYTE                   14
        BYTE   W05
        BYTE           EOT     An2
        BYTE   W01
IntheMorningSun_2_LOOP:
        BYTE   W72
// 019   ----------------------------------------
        BYTE   W96
// 020   ----------------------------------------
        BYTE   W96
// 021   ----------------------------------------
        BYTE   W96
// 022   ----------------------------------------
        BYTE   W96
// 023   ----------------------------------------
        BYTE   W96
// 024   ----------------------------------------
        BYTE   W96
// 025   ----------------------------------------
        BYTE   W96
// 026   ----------------------------------------
        BYTE   W96
// 027   ----------------------------------------
        BYTE   W96
// 028   ----------------------------------------
        BYTE   W96
// 029   ----------------------------------------
        BYTE   W96
// 030   ----------------------------------------
        BYTE   W96
// 031   ----------------------------------------
        BYTE   W96
// 032   ----------------------------------------
        BYTE   W96
// 033   ----------------------------------------
        BYTE   W96
// 034   ----------------------------------------
        BYTE   W24
        BYTE           VOL     41
        BYTE           TIE     Dn3   v081
        BYTE   W12
        BYTE           VOL     42
        BYTE   W06
        BYTE                   43
        BYTE   W12
        BYTE                   44
        BYTE   W06
        BYTE                   45
        BYTE   W12
        BYTE                   46
        BYTE   W12
        BYTE                   47
        BYTE   W06
        BYTE                   49
        BYTE   W06
// 035   ----------------------------------------
        BYTE   W06
        BYTE                   50
        BYTE   W06
        BYTE                   51
        BYTE   W12
        BYTE                   52
        BYTE   W06
        BYTE                   53
        BYTE   W06
        BYTE                   54
        BYTE   W18
        BYTE                   55
        BYTE   W06
        BYTE                   56
        BYTE   W06
        BYTE                   57
        BYTE   W06
        BYTE                   58
        BYTE   W12
        BYTE                   59
        BYTE   W06
        BYTE                   60
        BYTE   W06
// 036   ----------------------------------------
        BYTE                   61
        BYTE   W12
        BYTE                   62
        BYTE   W06
        BYTE                   63
        BYTE   W05
        BYTE           EOT
        BYTE   W01
        BYTE           VOL     62
        BYTE           TIE     Cn3
        BYTE   W12
        BYTE           VOL     61
        BYTE   W06
        BYTE                   60
        BYTE   W12
        BYTE                   59
        BYTE   W06
        BYTE                   58
        BYTE   W12
        BYTE                   57
        BYTE   W06
        BYTE                   56
        BYTE   W06
        BYTE                   55
        BYTE   W12
// 037   ----------------------------------------
        BYTE                   54
        BYTE   W18
        BYTE                   53
        BYTE   W06
        BYTE                   52
        BYTE   W06
        BYTE                   51
        BYTE   W12
        BYTE                   50
        BYTE   W12
        BYTE                   49
        BYTE   W06
        BYTE                   48
        BYTE   W06
        BYTE                   47
        BYTE   W12
        BYTE                   46
        BYTE   W06
        BYTE                   45
        BYTE   W12
// 038   ----------------------------------------
        BYTE   W06
        BYTE                   44
        BYTE   W06
        BYTE                   43
        BYTE   W11
        BYTE           EOT
        BYTE   W01
        BYTE           VOL     44
        BYTE           N92     As2   v081   gtp3
        BYTE   W12
        BYTE           VOL     45
        BYTE   W12
        BYTE                   46
        BYTE   W12
        BYTE                   47
        BYTE   W06
        BYTE                   48
        BYTE   W06
        BYTE                   49
        BYTE   W12
        BYTE                   50
        BYTE   W12
// 039   ----------------------------------------
        BYTE                   51
        BYTE   W12
        BYTE                   52
        BYTE   W06
        BYTE                   53
        BYTE   W06
        BYTE           N92     Gn2   v081   gtp3
        BYTE   W06
        BYTE           VOL     54
        BYTE   W18
        BYTE                   55
        BYTE   W12
        BYTE                   56
        BYTE   W06
        BYTE                   57
        BYTE   W06
        BYTE                   58
        BYTE   W12
        BYTE                   59
        BYTE   W06
        BYTE                   60
        BYTE   W06
// 040   ----------------------------------------
        BYTE   W06
        BYTE                   61
        BYTE   W12
        BYTE                   62
        BYTE   W06
        BYTE           N92     An2   v081   gtp3
        BYTE   W06
        BYTE           VOL     63
        BYTE   W06
        BYTE                   62
        BYTE   W06
        BYTE                   61
        BYTE   W12
        BYTE                   60
        BYTE   W12
        BYTE                   59
        BYTE   W12
        BYTE                   58
        BYTE   W12
        BYTE                   57
        BYTE   W06
// 041   ----------------------------------------
        BYTE                   56
        BYTE   W06
        BYTE                   55
        BYTE   W18
        BYTE                   54
        BYTE           N92     An2   v081   gtp3
        BYTE   W18
        BYTE           VOL     53
        BYTE   W06
        BYTE                   52
        BYTE   W12
        BYTE                   51
        BYTE   W12
        BYTE                   50
        BYTE   W12
        BYTE                   49
        BYTE   W12
// 042   ----------------------------------------
        BYTE                   48
        BYTE   W06
        BYTE                   47
        BYTE   W12
        BYTE                   46
        BYTE   W06
        BYTE           N44     Gn2   v081   gtp3
        BYTE   W12
        BYTE           VOL     47
        BYTE   W12
        BYTE                   48
        BYTE   W06
        BYTE                   49
        BYTE   W12
        BYTE                   50
        BYTE   W06
        BYTE                   51
        BYTE           N44     As2   v081   gtp3
        BYTE   W18
        BYTE           VOL     52
        BYTE   W06
// 043   ----------------------------------------
        BYTE                   53
        BYTE   W12
        BYTE                   54
        BYTE   W12
        BYTE           N44     An2   v081   gtp3
        BYTE   W06
        BYTE           VOL     55
        BYTE   W12
        BYTE                   56
        BYTE   W12
        BYTE                   57
        BYTE   W06
        BYTE                   58
        BYTE   W12
        BYTE                   59
        BYTE           N44     Cn3   v081   gtp3
        BYTE   W12
        BYTE           VOL     60
        BYTE   W06
        BYTE                   61
        BYTE   W06
// 044   ----------------------------------------
        BYTE   W12
        BYTE                   62
        BYTE   W06
        BYTE                   63
        BYTE   W06
        BYTE           N24
        BYTE   W06
        BYTE           VOL     62
        BYTE   W06
        BYTE                   61
        BYTE   W12
        BYTE           N24     Bn2
        BYTE   W06
        BYTE           VOL     60
        BYTE   W06
        BYTE                   59
        BYTE   W12
        BYTE                   58
        BYTE           N44     An2   v081   gtp3
        BYTE   W12
        BYTE           VOL     57
        BYTE   W06
        BYTE                   56
        BYTE   W06
// 045   ----------------------------------------
        BYTE   W06
        BYTE                   55
        BYTE   W12
        BYTE                   54
        BYTE   W06
        BYTE           N44     Bn2   v081   gtp3
        BYTE   W12
        BYTE           VOL     53
        BYTE   W12
        BYTE                   52
        BYTE   W12
        BYTE                   51
        BYTE   W12
        BYTE                   50
        BYTE           N44     An2   v081   gtp3
        BYTE   W12
        BYTE           VOL     49
        BYTE   W12
// 046   ----------------------------------------
        BYTE                   48
        BYTE   W06
        BYTE                   47
        BYTE   W12
        BYTE                   46
        BYTE   W06
        BYTE                   45
        BYTE           TIE     As2
        BYTE   W06
        BYTE           VOL     46
        BYTE   W12
        BYTE                   47
        BYTE   W12
        BYTE                   49
        BYTE   W12
        BYTE                   50
        BYTE   W12
        BYTE                   51
        BYTE   W12
        BYTE                   52
        BYTE   W06
// 047   ----------------------------------------
        BYTE   W06
        BYTE                   53
        BYTE   W06
        BYTE                   54
        BYTE   W18
        BYTE                   55
        BYTE   W12
        BYTE                   56
        BYTE   W12
        BYTE                   57
        BYTE   W06
        BYTE                   58
        BYTE   W12
        BYTE                   59
        BYTE   W06
        BYTE                   60
        BYTE   W12
        BYTE                   61
        BYTE   W06
// 048   ----------------------------------------
        BYTE   W06
        BYTE                   62
        BYTE   W06
        BYTE                   63
        BYTE   W11
        BYTE           EOT
        BYTE   W01
        BYTE           VOL     62
        BYTE           TIE
        BYTE   W06
        BYTE           VOL     61
        BYTE   W18
        BYTE                   60
        BYTE   W06
        BYTE                   59
        BYTE   W12
        BYTE                   58
        BYTE   W12
        BYTE                   57
        BYTE   W06
        BYTE                   56
        BYTE   W12
// 049   ----------------------------------------
        BYTE                   55
        BYTE   W12
        BYTE                   54
        BYTE   W18
        BYTE                   53
        BYTE   W12
        BYTE                   52
        BYTE   W12
        BYTE                   51
        BYTE   W12
        BYTE                   50
        BYTE   W12
        BYTE                   49
        BYTE   W12
        BYTE                   48
        BYTE   W06
// 050   ----------------------------------------
        BYTE                   47
        BYTE   W12
        BYTE                   46
        BYTE   W06
        BYTE                   45
        BYTE   W05
        BYTE           EOT
        BYTE   W01
        BYTE           VOL     46
        BYTE           TIE     An2
        BYTE   W12
        BYTE           VOL     47
        BYTE   W06
        BYTE                   46
        BYTE   W18
        BYTE                   47
        BYTE   W12
        BYTE                   48
        BYTE   W06
        BYTE                   49
        BYTE   W18
// 051   ----------------------------------------
        BYTE                   50
        BYTE   W12
        BYTE                   51
        BYTE   W18
        BYTE                   52
        BYTE   W12
        BYTE                   53
        BYTE   W12
        BYTE                   54
        BYTE   W24
        BYTE                   55
        BYTE   W18
// 052   ----------------------------------------
        BYTE                   56
        BYTE   W12
        BYTE                   57
        BYTE   W06
        BYTE                   58
        BYTE   W18
        BYTE                   59
        BYTE   W12
        BYTE                   60
        BYTE   W18
        BYTE                   61
        BYTE   W12
        BYTE                   62
        BYTE   W18
// 053   ----------------------------------------
        BYTE                   63
        BYTE   W23
        BYTE           EOT
        BYTE   W01
        BYTE           N12     An2   v031
        BYTE   W12
        BYTE                   An2   v021
        BYTE   W12
        BYTE                   An2   v016
        BYTE   W12
        BYTE                   An2   v012
        BYTE   W12
        BYTE                   An2
        BYTE   W24
// 054   ----------------------------------------
        BYTE   W20
        BYTE           VOL     52
        BYTE   W04
        BYTE           N92     Gn2   v091   gtp3
        BYTE   W08
        BYTE           VOL     53
        BYTE   W08
        BYTE                   54
        BYTE   W16
        BYTE                   55
        BYTE   W08
        BYTE                   56
        BYTE   W08
        BYTE                   57
        BYTE   W04
        BYTE                   58
        BYTE   W12
        BYTE                   59
        BYTE   W08
// 055   ----------------------------------------
        BYTE                   60
        BYTE   W12
        BYTE                   61
        BYTE   W08
        BYTE                   62
        BYTE   W04
        BYTE           N92     An2   v091   gtp3
        BYTE   W04
        BYTE           VOL     63
        BYTE   W08
        BYTE                   62
        BYTE   W12
        BYTE                   61
        BYTE   W08
        BYTE                   60
        BYTE   W08
        BYTE                   59
        BYTE   W08
        BYTE                   58
        BYTE   W08
        BYTE                   57
        BYTE   W04
        BYTE                   56
        BYTE   W08
        BYTE                   55
        BYTE   W04
// 056   ----------------------------------------
        BYTE   W04
        BYTE                   54
        BYTE   W16
        BYTE                   53
        BYTE   W04
        BYTE           N44     Fs2   v091   gtp3
        BYTE   W04
        BYTE           VOL     52
        BYTE   W08
        BYTE                   53
        BYTE   W08
        BYTE                   54
        BYTE   W12
        BYTE                   55
        BYTE   W08
        BYTE                   56
        BYTE   W08
        BYTE                   57
        BYTE           N44     An2   v091   gtp3
        BYTE   W04
        BYTE           VOL     58
        BYTE   W08
        BYTE                   59
        BYTE   W08
        BYTE                   60
        BYTE   W04
// 057   ----------------------------------------
        BYTE   W04
        BYTE                   61
        BYTE   W08
        BYTE                   62
        BYTE   W08
        BYTE                   63
        BYTE   W04
        BYTE           N44     An2   v091   gtp3
        BYTE   W08
        BYTE           VOL     62
        BYTE   W08
        BYTE                   61
        BYTE   W08
        BYTE                   60
        BYTE   W08
        BYTE                   59
        BYTE   W12
        BYTE                   58
        BYTE   W04
        BYTE           N44     Fs2   v091   gtp3
        BYTE   W04
        BYTE           VOL     57
        BYTE   W04
        BYTE                   56
        BYTE   W12
        BYTE                   55
        BYTE   W04
// 058   ----------------------------------------
        BYTE   W04
        BYTE                   54
        BYTE   W12
        BYTE                   53
        BYTE   W08
        BYTE           N92     Gn2   v091   gtp3
        BYTE   W04
        BYTE           VOL     52
        BYTE   W04
        BYTE                   51
        BYTE   W04
        BYTE                   52
        BYTE   W08
        BYTE                   53
        BYTE   W04
        BYTE                   54
        BYTE   W12
        BYTE                   55
        BYTE   W08
        BYTE                   56
        BYTE   W04
        BYTE                   57
        BYTE   W04
        BYTE                   58
        BYTE   W08
        BYTE                   59
        BYTE   W08
        BYTE                   60
        BYTE   W04
// 059   ----------------------------------------
        BYTE                   61
        BYTE   W08
        BYTE                   62
        BYTE   W08
        BYTE                   63
        BYTE   W04
        BYTE                   62
        BYTE   W04
        BYTE           N92     An2   v091   gtp3
        BYTE   W04
        BYTE           VOL     61
        BYTE   W08
        BYTE                   60
        BYTE   W08
        BYTE                   59
        BYTE   W08
        BYTE                   58
        BYTE   W08
        BYTE                   57
        BYTE   W04
        BYTE                   56
        BYTE   W08
        BYTE                   55
        BYTE   W08
        BYTE                   54
        BYTE   W08
        BYTE                   53
        BYTE   W08
// 060   ----------------------------------------
        BYTE                   52
        BYTE   W08
        BYTE                   51
        BYTE   W04
        BYTE                   50
        BYTE   W08
        BYTE                   51
        BYTE   W04
        BYTE           N44     Fs2   v091   gtp3
        BYTE   W04
        BYTE           VOL     52
        BYTE   W08
        BYTE                   53
        BYTE   W08
        BYTE                   54
        BYTE   W12
        BYTE                   55
        BYTE   W08
        BYTE                   56
        BYTE   W08
        BYTE                   58
        BYTE           N44     An2   v091   gtp3
        BYTE   W08
        BYTE           VOL     59
        BYTE   W12
        BYTE                   60
        BYTE   W04
// 061   ----------------------------------------
        BYTE   W04
        BYTE                   61
        BYTE   W08
        BYTE                   62
        BYTE   W08
        BYTE                   63
        BYTE   W04
        BYTE                   62
        BYTE           N44     An2   v091   gtp3
        BYTE   W08
        BYTE           VOL     61
        BYTE   W12
        BYTE                   60
        BYTE   W08
        BYTE                   59
        BYTE   W12
        BYTE                   58
        BYTE   W08
        BYTE           N44     Fs2   v091   gtp3
        BYTE   W04
        BYTE           VOL     57
        BYTE   W04
        BYTE                   56
        BYTE   W08
        BYTE                   55
        BYTE   W08
// 062   ----------------------------------------
        BYTE   W04
        BYTE                   54
        BYTE   W16
        BYTE                   53
        BYTE   W04
        BYTE           N92     Gn2   v091   gtp3
        BYTE   W04
        BYTE           VOL     54
        BYTE   W16
        BYTE                   55
        BYTE   W12
        BYTE                   56
        BYTE   W08
        BYTE                   57
        BYTE   W04
        BYTE                   58
        BYTE   W08
        BYTE                   59
        BYTE   W12
        BYTE                   60
        BYTE   W08
// 063   ----------------------------------------
        BYTE                   61
        BYTE   W12
        BYTE                   62
        BYTE   W08
        BYTE                   63
        BYTE   W04
        BYTE           N92     An2   v091   gtp3
        BYTE   W12
        BYTE           VOL     62
        BYTE   W08
        BYTE                   61
        BYTE   W08
        BYTE                   60
        BYTE   W08
        BYTE                   59
        BYTE   W08
        BYTE                   58
        BYTE   W08
        BYTE                   57
        BYTE   W04
        BYTE                   56
        BYTE   W08
        BYTE                   55
        BYTE   W08
// 064   ----------------------------------------
        BYTE                   54
        BYTE   W16
        BYTE                   53
        BYTE   W08
        BYTE                   52
        BYTE           N44     Fs2   v091   gtp3
        BYTE   W08
        BYTE           VOL     53
        BYTE   W08
        BYTE                   54
        BYTE   W16
        BYTE                   55
        BYTE   W08
        BYTE                   56
        BYTE   W08
        BYTE                   57
        BYTE           N44     An2   v091   gtp3
        BYTE   W04
        BYTE           VOL     58
        BYTE   W08
        BYTE                   59
        BYTE   W08
        BYTE                   60
        BYTE   W04
// 065   ----------------------------------------
        BYTE   W04
        BYTE                   61
        BYTE   W08
        BYTE                   62
        BYTE   W08
        BYTE                   63
        BYTE   W04
        BYTE           N44     An2   v091   gtp3
        BYTE   W04
        BYTE           VOL     62
        BYTE   W04
        BYTE                   61
        BYTE   W12
        BYTE                   60
        BYTE   W08
        BYTE                   59
        BYTE   W12
        BYTE                   58
        BYTE   W08
        BYTE                   57
        BYTE           N44     Fs2   v091   gtp3
        BYTE   W04
        BYTE           VOL     56
        BYTE   W12
        BYTE                   55
        BYTE   W08
// 066   ----------------------------------------
        BYTE                   54
        BYTE   W16
        BYTE                   53
        BYTE   W04
        BYTE                   52
        BYTE   W04
        BYTE                   53
        BYTE           N92     Gn2   v091   gtp3
        BYTE   W08
        BYTE           VOL     54
        BYTE   W16
        BYTE                   55
        BYTE   W08
        BYTE                   56
        BYTE   W12
        BYTE                   57
        BYTE   W04
        BYTE                   58
        BYTE   W08
        BYTE                   59
        BYTE   W12
        BYTE                   60
        BYTE   W04
// 067   ----------------------------------------
        BYTE   W04
        BYTE                   61
        BYTE   W12
        BYTE                   62
        BYTE   W08
        BYTE                   63
        BYTE           N92     Gs2   v091   gtp3
        BYTE   W72
// 068   ----------------------------------------
        BYTE   W08
        BYTE           VOL     62
        BYTE   W04
        BYTE                   61
        BYTE   W08
        BYTE                   60
        BYTE   W04
        BYTE                   59
        BYTE           N92     An2   v091   gtp3
        BYTE   W08
        BYTE           VOL     58
        BYTE   W04
        BYTE                   57
        BYTE   W04
        BYTE                   56
        BYTE   W04
        BYTE                   55
        BYTE   W04
        BYTE                   54
        BYTE   W08
        BYTE                   53
        BYTE   W08
        BYTE                   52
        BYTE   W04
        BYTE                   51
        BYTE   W04
        BYTE                   50
        BYTE   W08
        BYTE                   49
        BYTE   W04
        BYTE                   48
        BYTE   W04
        BYTE                   47
        BYTE   W04
        BYTE                   46
        BYTE   W04
// 069   ----------------------------------------
        BYTE   W04
        BYTE                   45
        BYTE   W08
        BYTE                   44
        BYTE   W84
// 070   ----------------------------------------
        BYTE   W96
// 071   ----------------------------------------
        BYTE   W96
// 072   ----------------------------------------
        BYTE   W96
// 073   ----------------------------------------
        BYTE   W96
// 074   ----------------------------------------
        BYTE   W96
// 075   ----------------------------------------
        BYTE   W96
// 076   ----------------------------------------
        BYTE   W96
// 077   ----------------------------------------
        BYTE   W96
// 078   ----------------------------------------
        BYTE   PATT
         POIN2  IntheMorningSun_2_8
// 079   ----------------------------------------
        BYTE   PATT
         POIN2  IntheMorningSun_2_9
// 080   ----------------------------------------
        BYTE   PATT
         POIN2  IntheMorningSun_2_10
// 081   ----------------------------------------
        BYTE   PATT
         POIN2  IntheMorningSun_2_11
// 082   ----------------------------------------
        BYTE   PATT
         POIN2  IntheMorningSun_2_12
// 083   ----------------------------------------
        BYTE   PATT
         POIN2  IntheMorningSun_2_13
// 084   ----------------------------------------
        BYTE   PATT
         POIN2  IntheMorningSun_2_14
// 085   ----------------------------------------
        BYTE   PATT
         POIN2  IntheMorningSun_2_15
// 086   ----------------------------------------
        BYTE   PATT
         POIN2  IntheMorningSun_2_16
// 087   ----------------------------------------
        BYTE   PATT
         POIN2  IntheMorningSun_2_17
// 088   ----------------------------------------
        BYTE           VOL     18
        BYTE   W06
        BYTE                   17
        BYTE   W06
        BYTE                   15
        BYTE   W06
        BYTE                   14
        BYTE   W05
        BYTE           EOT     An2
        BYTE   W01
        BYTE   GoTo
         POIN2  IntheMorningSun_2_LOOP
        BYTE   FINE

//****************** Track 3 (Midi-Chn.3) ******************//

IntheMorningSun_3:
        BYTE   KEYSH   IntheMorningSun_key+0
// 000   ----------------------------------------
        BYTE           VOICE   46
        BYTE           VOL     77
        BYTE   W24
        BYTE           N48     Gn2   v100
        BYTE   W12
        BYTE           N06     Gn3
        BYTE   W12
        BYTE                   Bn3
        BYTE   W12
        BYTE                   Fs4
        BYTE   W36
// 001   ----------------------------------------
IntheMorningSun_3_1:
        BYTE   W24
        BYTE           N48     An2   v100
        BYTE   W12
        BYTE           N06     An3
        BYTE   W12
        BYTE                   Cs4
        BYTE   W12
        BYTE                   Fs4
        BYTE   W36
        BYTE   PEND
// 002   ----------------------------------------
IntheMorningSun_3_2:
        BYTE   W24
        BYTE           N48     Bn2   v100
        BYTE   W12
        BYTE           N06     An3
        BYTE   W12
        BYTE                   Dn4
        BYTE   W12
        BYTE                   Fs4
        BYTE   W36
        BYTE   PEND
// 003   ----------------------------------------
        BYTE   PATT
         POIN2  IntheMorningSun_3_1
// 004   ----------------------------------------
IntheMorningSun_3_4:
        BYTE   W24
        BYTE           N48     Gn2   v100
        BYTE   W12
        BYTE           N06     Gn3
        BYTE   W12
        BYTE                   Bn3
        BYTE   W12
        BYTE                   Fs4
        BYTE   W36
        BYTE   PEND
// 005   ----------------------------------------
        BYTE   PATT
         POIN2  IntheMorningSun_3_1
// 006   ----------------------------------------
        BYTE   PATT
         POIN2  IntheMorningSun_3_2
// 007   ----------------------------------------
        BYTE   PATT
         POIN2  IntheMorningSun_3_1
// 008   ----------------------------------------
        BYTE   PATT
         POIN2  IntheMorningSun_3_4
// 009   ----------------------------------------
        BYTE   PATT
         POIN2  IntheMorningSun_3_1
// 010   ----------------------------------------
        BYTE   PATT
         POIN2  IntheMorningSun_3_2
// 011   ----------------------------------------
        BYTE   W24
        BYTE           N48     An2   v100
        BYTE   W12
        BYTE           N06     An3
        BYTE   W12
        BYTE                   Dn4
        BYTE   W12
        BYTE                   Fs4
        BYTE   W36
// 012   ----------------------------------------
IntheMorningSun_3_12:
        BYTE   W24
        BYTE           N48     Gn2   v100
        BYTE   W12
        BYTE           N06     Gn3
        BYTE   W12
        BYTE                   Bn3
        BYTE   W12
        BYTE                   Dn4
        BYTE   W24
        BYTE                   Bn3
        BYTE   W12
        BYTE   PEND
// 013   ----------------------------------------
        BYTE   W12
        BYTE                   Dn4
        BYTE   W24
        BYTE                   Dn4
        BYTE   W24
        BYTE                   An4
        BYTE   W36
// 014   ----------------------------------------
IntheMorningSun_3_14:
        BYTE   W24
        BYTE           N48     An2   v100
        BYTE   W12
        BYTE           N06     Gn3
        BYTE   W12
        BYTE                   An3
        BYTE   W12
        BYTE                   Cs4
        BYTE   W24
        BYTE                   An3
        BYTE   W12
        BYTE   PEND
// 015   ----------------------------------------
IntheMorningSun_3_15:
        BYTE   W12
        BYTE           N06     En4   v100
        BYTE   W24
        BYTE                   Cs4
        BYTE   W24
        BYTE                   Fs4
        BYTE   W24
        BYTE                   En4
        BYTE   W12
        BYTE   PEND
// 016   ----------------------------------------
IntheMorningSun_3_16:
        BYTE   W24
        BYTE           N06     Cs4   v100
        BYTE   W02
        BYTE                   En4
        BYTE   W03
        BYTE                   An4
        BYTE   W66
        BYTE   W01
        BYTE   PEND
// 017   ----------------------------------------
        BYTE   W96
// 018   ----------------------------------------
        BYTE   W24
IntheMorningSun_3_LOOP:
        BYTE           N48     Bn2   v100
        BYTE   W12
        BYTE           N06     An3
        BYTE   W12
        BYTE                   Dn4
        BYTE   W12
        BYTE                   Fs4
        BYTE   W36
// 019   ----------------------------------------
        BYTE   PATT
         POIN2  IntheMorningSun_3_1
// 020   ----------------------------------------
        BYTE   PATT
         POIN2  IntheMorningSun_3_4
// 021   ----------------------------------------
IntheMorningSun_3_21:
        BYTE   W24
        BYTE           N48     Fs2   v100
        BYTE   W12
        BYTE           N06     An3
        BYTE   W12
        BYTE                   Dn4
        BYTE   W12
        BYTE                   An4
        BYTE   W36
        BYTE   PEND
// 022   ----------------------------------------
        BYTE   PATT
         POIN2  IntheMorningSun_3_4
// 023   ----------------------------------------
        BYTE   PATT
         POIN2  IntheMorningSun_3_1
// 024   ----------------------------------------
        BYTE   W24
        BYTE           N48     Bn2   v100
        BYTE   W12
        BYTE           N06     Bn3
        BYTE   W12
        BYTE                   Dn4
        BYTE   W12
        BYTE                   Fs4
        BYTE   W36
// 025   ----------------------------------------
        BYTE   W24
        BYTE           N48     An2
        BYTE   W12
        BYTE           N06     An3
        BYTE   W12
        BYTE                   Cs4
        BYTE   W12
        BYTE                   An4
        BYTE   W36
// 026   ----------------------------------------
        BYTE   PATT
         POIN2  IntheMorningSun_3_2
// 027   ----------------------------------------
        BYTE   PATT
         POIN2  IntheMorningSun_3_1
// 028   ----------------------------------------
        BYTE   PATT
         POIN2  IntheMorningSun_3_4
// 029   ----------------------------------------
        BYTE   PATT
         POIN2  IntheMorningSun_3_21
// 030   ----------------------------------------
        BYTE   PATT
         POIN2  IntheMorningSun_3_4
// 031   ----------------------------------------
        BYTE   PATT
         POIN2  IntheMorningSun_3_1
// 032   ----------------------------------------
        BYTE   W24
        BYTE           N48     Bn2   v100
        BYTE   W12
        BYTE           N06     An3
        BYTE   W12
        BYTE                   Dn4
        BYTE   W12
        BYTE                   Fs4
        BYTE   W24
        BYTE                   An3
        BYTE   W12
// 033   ----------------------------------------
        BYTE   W12
        BYTE                   Bn3
        BYTE   W84
// 034   ----------------------------------------
        BYTE   W24
        BYTE           N48     As2
        BYTE   W12
        BYTE           N06     Dn4
        BYTE   W12
        BYTE                   As3
        BYTE   W12
        BYTE                   Fn4
        BYTE   W24
        BYTE                   Dn4
        BYTE   W12
// 035   ----------------------------------------
        BYTE                   An4
        BYTE   W24
        BYTE           N48     As2
        BYTE   W12
        BYTE           N06     Dn4
        BYTE   W12
        BYTE                   As3
        BYTE   W12
        BYTE                   Fn4
        BYTE   W24
        BYTE                   Dn4
        BYTE   W12
// 036   ----------------------------------------
        BYTE                   An4
        BYTE   W24
        BYTE           N48     An2
        BYTE   W12
        BYTE           N06     Cn4
        BYTE   W12
        BYTE                   An3
        BYTE   W12
        BYTE                   Fn4
        BYTE   W24
        BYTE                   Cn4
        BYTE   W12
// 037   ----------------------------------------
        BYTE                   An4
        BYTE   W24
        BYTE           N48     An2
        BYTE   W12
        BYTE           N06     Cn4
        BYTE   W12
        BYTE                   An3
        BYTE   W12
        BYTE                   An4
        BYTE           N06     Cn5
        BYTE   W36
// 038   ----------------------------------------
        BYTE   W24
        BYTE           N48     Gn2
        BYTE   W12
        BYTE           N06     As3
        BYTE   W12
        BYTE                   Gn3
        BYTE   W12
        BYTE                   Dn4
        BYTE   W24
        BYTE                   As3
        BYTE   W12
// 039   ----------------------------------------
        BYTE                   Fn4
        BYTE   W24
        BYTE           N48     Cn3
        BYTE   W12
        BYTE           N06     Cn4
        BYTE   W12
        BYTE                   Gn3
        BYTE   W12
        BYTE                   En4
        BYTE   W24
        BYTE                   Cn4
        BYTE   W12
// 040   ----------------------------------------
        BYTE                   Gn4
        BYTE   W24
        BYTE           N48     Dn3
        BYTE   W12
        BYTE           N06     Dn4
        BYTE   W12
        BYTE                   An3
        BYTE   W12
        BYTE                   En4
        BYTE   W24
        BYTE                   Dn4
        BYTE   W12
// 041   ----------------------------------------
        BYTE                   An4
        BYTE   W24
        BYTE           N48     Dn3
        BYTE   W12
        BYTE           N06     En4
        BYTE   W12
        BYTE                   Dn4
        BYTE   W12
        BYTE                   An4
        BYTE   W36
// 042   ----------------------------------------
        BYTE   W24
        BYTE           N96     As2
        BYTE   W12
        BYTE           N06     As3
        BYTE   W12
        BYTE                   Dn4
        BYTE   W12
        BYTE                   Gn4
        BYTE   W36
// 043   ----------------------------------------
        BYTE   W24
        BYTE           N96     Cn3
        BYTE   W12
        BYTE           N06     Cn4
        BYTE   W12
        BYTE                   Fn4
        BYTE   W12
        BYTE                   An4
        BYTE   W36
// 044   ----------------------------------------
        BYTE   W24
        BYTE           N96     Dn3
        BYTE   W12
        BYTE           N06     Dn4
        BYTE   W12
        BYTE                   An3
        BYTE   W12
        BYTE                   Gn4
        BYTE   W24
        BYTE                   Dn4
        BYTE   W12
// 045   ----------------------------------------
        BYTE                   An4
        BYTE   W24
        BYTE           N96     Gn2
        BYTE   W12
        BYTE           N06     Dn4
        BYTE   W12
        BYTE                   Bn3
        BYTE   W12
        BYTE                   Dn4
        BYTE           N06     Gn4
        BYTE   W36
// 046   ----------------------------------------
        BYTE   W24
        BYTE           N96     Ds2
        BYTE   W12
        BYTE           N06     Gn3
        BYTE   W12
        BYTE                   Ds3
        BYTE   W12
        BYTE                   Cn4
        BYTE   W24
        BYTE                   Gn3
        BYTE   W12
// 047   ----------------------------------------
        BYTE                   Ds4
        BYTE   W24
        BYTE                   Ds3
        BYTE   W12
        BYTE                   Ds4
        BYTE   W12
        BYTE                   Cn4
        BYTE   W12
        BYTE                   Gn4
        BYTE   W24
        BYTE                   Ds4
        BYTE   W12
// 048   ----------------------------------------
        BYTE                   As4
        BYTE   W24
        BYTE           N96     Cn2   v067
        BYTE   W12
        BYTE           N06     Gn3   v100
        BYTE   W12
        BYTE                   Ds3
        BYTE   W12
        BYTE                   Cn4
        BYTE   W24
        BYTE                   Gn3
        BYTE   W12
// 049   ----------------------------------------
        BYTE                   Ds4
        BYTE   W24
        BYTE                   Cn3
        BYTE   W12
        BYTE                   Cn4
        BYTE   W12
        BYTE                   Gn3
        BYTE   W12
        BYTE                   Ds4
        BYTE   W24
        BYTE                   Cn4
        BYTE   W12
// 050   ----------------------------------------
        BYTE                   Gn4
        BYTE   W24
        BYTE           N96     Dn2
        BYTE   W12
        BYTE           N06     Gn3
        BYTE   W12
        BYTE                   Dn3
        BYTE   W12
        BYTE                   Cn4
        BYTE   W24
        BYTE                   Gn3
        BYTE   W12
// 051   ----------------------------------------
        BYTE                   Dn4
        BYTE   W24
        BYTE                   Dn3
        BYTE   W12
        BYTE                   An3
        BYTE   W12
        BYTE                   Gn3
        BYTE   W12
        BYTE                   Dn4
        BYTE   W24
        BYTE                   Cn4
        BYTE   W12
// 052   ----------------------------------------
        BYTE                   Gn4
        BYTE   W24
        BYTE                   Dn4
        BYTE   W12
        BYTE                   Fs4
        BYTE   W12
        BYTE                   Dn4
        BYTE   W12
        BYTE                   An4
        BYTE   W24
        BYTE                   Fs4
        BYTE   W12
// 053   ----------------------------------------
        BYTE                   Cn5
        BYTE   W24
        BYTE                   Dn4
        BYTE   W01
        BYTE                   Fs4
        BYTE   W02
        BYTE                   An4
        BYTE   W01
        BYTE                   Dn5
        BYTE   W68
// 054   ----------------------------------------
        BYTE   W24
        BYTE           N48     Gn2
        BYTE   W12
        BYTE           N06     Gn3
        BYTE   W12
        BYTE                   Bn3
        BYTE   W12
        BYTE                   Dn4
        BYTE   W36
// 055   ----------------------------------------
IntheMorningSun_3_55:
        BYTE   W24
        BYTE           N48     An2   v100
        BYTE   W12
        BYTE           N06     An3
        BYTE   W12
        BYTE                   Cs4
        BYTE   W12
        BYTE                   En4
        BYTE   W36
        BYTE   PEND
// 056   ----------------------------------------
        BYTE   PATT
         POIN2  IntheMorningSun_3_2
// 057   ----------------------------------------
IntheMorningSun_3_57:
        BYTE   W24
        BYTE           N48     An2   v100
        BYTE   W12
        BYTE           N06     Fs3
        BYTE   W12
        BYTE                   Bn3
        BYTE   W12
        BYTE                   Dn4
        BYTE   W36
        BYTE   PEND
// 058   ----------------------------------------
        BYTE   W24
        BYTE           N48     Gn2
        BYTE   W12
        BYTE           N06     Gn3
        BYTE   W12
        BYTE                   Bn3
        BYTE   W12
        BYTE                   En4
        BYTE   W36
// 059   ----------------------------------------
        BYTE   PATT
         POIN2  IntheMorningSun_3_55
// 060   ----------------------------------------
        BYTE   PATT
         POIN2  IntheMorningSun_3_2
// 061   ----------------------------------------
        BYTE   PATT
         POIN2  IntheMorningSun_3_57
// 062   ----------------------------------------
        BYTE   W24
        BYTE   W01
        BYTE           N48     Gn2   v100
        BYTE   W12
        BYTE           N06     Gn3
        BYTE   W12
        BYTE                   Bn3
        BYTE   W12
        BYTE                   Dn4
        BYTE   W32
        BYTE   W03
// 063   ----------------------------------------
        BYTE   W24
        BYTE   W01
        BYTE           N48     An2
        BYTE   W12
        BYTE           N06     An3
        BYTE   W12
        BYTE                   Cs4
        BYTE   W12
        BYTE                   En4
        BYTE   W32
        BYTE   W03
// 064   ----------------------------------------
        BYTE   W24
        BYTE   W01
        BYTE           N48     Bn2
        BYTE   W12
        BYTE           N06     An3
        BYTE   W12
        BYTE                   Dn4
        BYTE   W12
        BYTE                   Fs4
        BYTE   W32
        BYTE   W03
// 065   ----------------------------------------
        BYTE   W24
        BYTE   W01
        BYTE           N48     An2
        BYTE   W12
        BYTE           N06     Fs3
        BYTE   W12
        BYTE                   Bn3
        BYTE   W12
        BYTE                   Fs4
        BYTE   W32
        BYTE   W03
// 066   ----------------------------------------
        BYTE   PATT
         POIN2  IntheMorningSun_3_12
// 067   ----------------------------------------
        BYTE           N06     Fs4   v100
        BYTE   W24
        BYTE           N48     Gs2
        BYTE   W12
        BYTE           N06     Gs3
        BYTE   W12
        BYTE                   Bn3
        BYTE   W12
        BYTE                   Dn4
        BYTE   W24
        BYTE                   Bn3
        BYTE   W12
// 068   ----------------------------------------
        BYTE                   Fs4
        BYTE   W24
        BYTE                   An3
        BYTE   W01
        BYTE                   Cs4
        BYTE   W02
        BYTE                   En4
        BYTE   W68
        BYTE   W01
// 069   ----------------------------------------
        BYTE   W24
        BYTE                   Cs4
        BYTE   W01
        BYTE                   En4
        BYTE   W02
        BYTE                   Gn4
        BYTE   W68
        BYTE   W01
// 070   ----------------------------------------
        BYTE   PATT
         POIN2  IntheMorningSun_3_4
// 071   ----------------------------------------
        BYTE   PATT
         POIN2  IntheMorningSun_3_1
// 072   ----------------------------------------
        BYTE   PATT
         POIN2  IntheMorningSun_3_2
// 073   ----------------------------------------
        BYTE   PATT
         POIN2  IntheMorningSun_3_1
// 074   ----------------------------------------
        BYTE   PATT
         POIN2  IntheMorningSun_3_4
// 075   ----------------------------------------
        BYTE   PATT
         POIN2  IntheMorningSun_3_1
// 076   ----------------------------------------
        BYTE   PATT
         POIN2  IntheMorningSun_3_2
// 077   ----------------------------------------
        BYTE   PATT
         POIN2  IntheMorningSun_3_1
// 078   ----------------------------------------
        BYTE   PATT
         POIN2  IntheMorningSun_3_4
// 079   ----------------------------------------
        BYTE   PATT
         POIN2  IntheMorningSun_3_1
// 080   ----------------------------------------
        BYTE   PATT
         POIN2  IntheMorningSun_3_2
// 081   ----------------------------------------
        BYTE   PATT
         POIN2  IntheMorningSun_3_1
// 082   ----------------------------------------
        BYTE   PATT
         POIN2  IntheMorningSun_3_12
// 083   ----------------------------------------
        BYTE   W12
        BYTE           N06     En4   v100
        BYTE   W24
        BYTE                   Dn4
        BYTE   W24
        BYTE                   An4
        BYTE   W36
// 084   ----------------------------------------
        BYTE   PATT
         POIN2  IntheMorningSun_3_14
// 085   ----------------------------------------
        BYTE   PATT
         POIN2  IntheMorningSun_3_15
// 086   ----------------------------------------
        BYTE   PATT
         POIN2  IntheMorningSun_3_16
// 087   ----------------------------------------
        BYTE   W96
// 088   ----------------------------------------
        BYTE   W24
        BYTE   GoTo
         POIN2  IntheMorningSun_3_LOOP
        BYTE   FINE

//***************** Track 4 (Midi-Chn.12) ******************//

IntheMorningSun_4:
        BYTE   KEYSH   IntheMorningSun_key+0
// 000   ----------------------------------------
        BYTE           PAN     c_v+48
        BYTE           VOICE   73
        BYTE           VOL     45
        BYTE   W96
// 001   ----------------------------------------
        BYTE   W96
// 002   ----------------------------------------
        BYTE   W96
// 003   ----------------------------------------
        BYTE   W96
// 004   ----------------------------------------
        BYTE   W96
// 005   ----------------------------------------
        BYTE   W96
// 006   ----------------------------------------
        BYTE   W96
// 007   ----------------------------------------
        BYTE   W96
// 008   ----------------------------------------
IntheMorningSun_4_8:
        BYTE   W12
        BYTE           N24     Dn4   v096
        BYTE   W24
        BYTE           N36     An4
        BYTE   W36
        BYTE           N12     An4   v043
        BYTE   W12
        BYTE           N24     An4   v096
        BYTE   W12
        BYTE   PEND
// 009   ----------------------------------------
IntheMorningSun_4_9:
        BYTE   W12
        BYTE           N12     Bn4   v096
        BYTE   W12
        BYTE           N36     An4
        BYTE   W36
        BYTE           N12
        BYTE   W12
        BYTE                   An4   v053
        BYTE   W12
        BYTE           N48     Gn4   v096
        BYTE   W12
        BYTE   PEND
// 010   ----------------------------------------
IntheMorningSun_4_10:
        BYTE   W36
        BYTE           N42     Fs4   v096   gtp1
        BYTE   W42
        BYTE   W01
        BYTE           N05     Fs4   v048
        BYTE   W05
        BYTE           N36     Bn4   v096
        BYTE   W12
        BYTE   PEND
// 011   ----------------------------------------
IntheMorningSun_4_11:
        BYTE   W24
        BYTE           N12     Bn4   v047
        BYTE   W12
        BYTE           N36     Dn5   v096
        BYTE   W36
        BYTE           N12     Dn5   v049
        BYTE   W12
        BYTE           N36     En5   v096
        BYTE   W12
        BYTE   PEND
// 012   ----------------------------------------
IntheMorningSun_4_12:
        BYTE   W24
        BYTE           N12     En5   v046
        BYTE   W12
        BYTE           N60     Fs5   v096
        BYTE   W60
        BYTE   PEND
// 013   ----------------------------------------
IntheMorningSun_4_13:
        BYTE           N12     Fs5   v046
        BYTE   W12
        BYTE           N06     En5   v096
        BYTE   W06
        BYTE                   En5   v042
        BYTE   W06
        BYTE           N84     En5   v096
        BYTE   W72
        BYTE   PEND
// 014   ----------------------------------------
IntheMorningSun_4_14:
        BYTE   W12
        BYTE           N12     En5   v058
        BYTE   W12
        BYTE                   En5   v034
        BYTE   W12
        BYTE           N60     Fs5   v096
        BYTE   W60
        BYTE   PEND
// 015   ----------------------------------------
IntheMorningSun_4_15:
        BYTE           N12     Fs5   v044
        BYTE   W12
        BYTE           N06     En5   v096
        BYTE   W06
        BYTE                   En5   v040
        BYTE   W06
        BYTE           N84     En5   v096
        BYTE   W72
        BYTE   PEND
// 016   ----------------------------------------
IntheMorningSun_4_16:
        BYTE   W12
        BYTE           N12     En5   v050
        BYTE   W12
        BYTE                   En5   v031
        BYTE   W12
        BYTE           TIE     An5   v096
        BYTE   W48
        BYTE           VOL     43
        BYTE   W06
        BYTE                   41
        BYTE   W06
        BYTE   PEND
// 017   ----------------------------------------
IntheMorningSun_4_17:
        BYTE           VOL     40
        BYTE   W06
        BYTE                   38
        BYTE   W06
        BYTE                   36
        BYTE   W06
        BYTE                   34
        BYTE   W06
        BYTE                   33
        BYTE   W06
        BYTE                   31
        BYTE   W06
        BYTE                   29
        BYTE   W06
        BYTE                   28
        BYTE   W06
        BYTE                   26
        BYTE   W06
        BYTE                   24
        BYTE   W06
        BYTE                   23
        BYTE   W06
        BYTE                   21
        BYTE   W06
        BYTE                   19
        BYTE   W06
        BYTE                   17
        BYTE   W06
        BYTE           EOT     An5
        BYTE           VOL     15
        BYTE   W12
        BYTE   PEND
// 018   ----------------------------------------
        BYTE   W24
IntheMorningSun_4_LOOP:
        BYTE   W30
        BYTE           VOL     45
        BYTE   W42
// 019   ----------------------------------------
        BYTE   W96
// 020   ----------------------------------------
        BYTE   W96
// 021   ----------------------------------------
        BYTE   W96
// 022   ----------------------------------------
        BYTE   W96
// 023   ----------------------------------------
        BYTE   W96
// 024   ----------------------------------------
        BYTE   W96
// 025   ----------------------------------------
        BYTE   W96
// 026   ----------------------------------------
        BYTE   W96
// 027   ----------------------------------------
        BYTE   W96
// 028   ----------------------------------------
        BYTE   W96
// 029   ----------------------------------------
        BYTE   W96
// 030   ----------------------------------------
        BYTE   W96
// 031   ----------------------------------------
        BYTE   W96
// 032   ----------------------------------------
        BYTE   W96
// 033   ----------------------------------------
        BYTE   W96
// 034   ----------------------------------------
        BYTE   W96
// 035   ----------------------------------------
        BYTE   W96
// 036   ----------------------------------------
        BYTE   W96
// 037   ----------------------------------------
        BYTE   W96
// 038   ----------------------------------------
        BYTE   W96
// 039   ----------------------------------------
        BYTE   W96
// 040   ----------------------------------------
        BYTE   W96
// 041   ----------------------------------------
        BYTE   W84
        BYTE           N12     Gn4   v127
        BYTE   W12
// 042   ----------------------------------------
        BYTE                   An4
        BYTE   W12
        BYTE                   As4
        BYTE   W12
        BYTE                   Cn5
        BYTE   W12
        BYTE                   Dn5
        BYTE   W12
        BYTE                   Dn5   v080
        BYTE   W12
        BYTE                   As4   v127
        BYTE   W12
        BYTE           N36
        BYTE   W24
// 043   ----------------------------------------
        BYTE   W12
        BYTE           N24     As4   v080
        BYTE   W24
        BYTE           N12     Fn5   v127
        BYTE   W12
        BYTE                   Fn5   v080
        BYTE   W12
        BYTE                   Cn5   v127
        BYTE   W12
        BYTE           N36
        BYTE   W24
// 044   ----------------------------------------
        BYTE   W12
        BYTE           N24     Cn5   v080
        BYTE   W24
        BYTE                   Gn5   v127
        BYTE   W24
        BYTE           N12     Dn5
        BYTE   W12
        BYTE           N24
        BYTE   W24
// 045   ----------------------------------------
        BYTE           N12     Cn5
        BYTE   W12
        BYTE                   Cn5   v080
        BYTE   W12
        BYTE           N60     Dn5   v127
        BYTE   W30
        BYTE           VOL     43
        BYTE   W06
        BYTE                   41
        BYTE   W06
        BYTE                   39
        BYTE   W06
        BYTE                   37
        BYTE   W06
        BYTE                   35
        BYTE   W06
        BYTE                   33
        BYTE           N24     Dn5   v080
        BYTE   W06
        BYTE           VOL     31
        BYTE   W06
// 046   ----------------------------------------
        BYTE                   29
        BYTE   W06
        BYTE                   27
        BYTE   W06
        BYTE                   45
        BYTE           N24     Dn5   v127
        BYTE   W24
        BYTE           TIE     Ds5
        BYTE   W54
        BYTE           VOL     44
        BYTE   W06
// 047   ----------------------------------------
        BYTE   W06
        BYTE                   43
        BYTE   W24
        BYTE                   42
        BYTE   W18
        BYTE                   41
        BYTE   W12
        BYTE                   40
        BYTE   W24
        BYTE                   39
        BYTE   W12
// 048   ----------------------------------------
        BYTE   W12
        BYTE                   38
        BYTE   W12
        BYTE                   37
        BYTE   W24
        BYTE                   36
        BYTE   W18
        BYTE                   35
        BYTE   W12
        BYTE                   37
        BYTE   W06
        BYTE                   38
        BYTE   W06
        BYTE                   39
        BYTE   W06
// 049   ----------------------------------------
        BYTE                   40
        BYTE   W06
        BYTE                   41
        BYTE   W06
        BYTE           EOT
        BYTE           VOL     42
        BYTE           N24     Ds5   v080
        BYTE   W06
        BYTE           VOL     43
        BYTE   W06
        BYTE                   45
        BYTE   W12
        BYTE           N24     Ds5   v127
        BYTE   W24
        BYTE           N12     Dn5
        BYTE   W12
        BYTE                   Cn5
        BYTE   W12
        BYTE                   Cn5   v080
        BYTE   W12
// 050   ----------------------------------------
        BYTE                   Ds5   v127
        BYTE   W12
        BYTE                   Ds5   v080
        BYTE   W12
        BYTE           TIE     Dn5   v127
        BYTE   W36
        BYTE           VOL     44
        BYTE   W18
        BYTE                   43
        BYTE   W18
// 051   ----------------------------------------
        BYTE   W18
        BYTE                   42
        BYTE   W36
        BYTE                   41
        BYTE   W18
        BYTE                   40
        BYTE   W24
// 052   ----------------------------------------
        BYTE   W30
        BYTE                   39
        BYTE   W12
        BYTE                   38
        BYTE   W06
        BYTE                   37
        BYTE   W06
        BYTE                   36
        BYTE   W06
        BYTE                   35
        BYTE   W06
        BYTE                   34
        BYTE   W06
        BYTE                   33
        BYTE   W06
        BYTE                   32
        BYTE   W12
        BYTE                   31
        BYTE   W06
// 053   ----------------------------------------
        BYTE                   30
        BYTE   W06
        BYTE                   29
        BYTE   W06
        BYTE                   28
        BYTE   W06
        BYTE                   27
        BYTE   W06
        BYTE                   26
        BYTE   W12
        BYTE           EOT
        BYTE   W60
// 054   ----------------------------------------
        BYTE   W12
        BYTE           VOL     45
        BYTE           N12     Bn3
        BYTE   W12
        BYTE                   Bn3   v080
        BYTE   W12
        BYTE           N36     Fs4   v127
        BYTE   W36
        BYTE           N12     Fs4   v080
        BYTE   W12
        BYTE                   Fs4   v127
        BYTE   W12
// 055   ----------------------------------------
IntheMorningSun_4_55:
        BYTE           N12     Fs4   v080
        BYTE   W12
        BYTE                   Gn4   v127
        BYTE   W12
        BYTE           N48     An4
        BYTE   W48
        BYTE           N12     An4   v080
        BYTE   W12
        BYTE                   An4   v127
        BYTE   W12
        BYTE   PEND
// 056   ----------------------------------------
        BYTE                   An4   v080
        BYTE   W12
        BYTE                   Cs5   v127
        BYTE   W12
        BYTE           TIE     Dn5
        BYTE   W60
        BYTE           VOL     43
        BYTE   W06
        BYTE                   42
        BYTE   W06
// 057   ----------------------------------------
        BYTE                   41
        BYTE   W06
        BYTE                   40
        BYTE   W06
        BYTE                   39
        BYTE   W06
        BYTE                   37
        BYTE   W06
        BYTE                   36
        BYTE   W06
        BYTE                   35
        BYTE   W06
        BYTE                   33
        BYTE   W06
        BYTE                   32
        BYTE   W06
        BYTE                   31
        BYTE   W06
        BYTE                   30
        BYTE   W06
        BYTE                   28
        BYTE   W06
        BYTE                   27
        BYTE   W06
        BYTE                   26
        BYTE   W06
        BYTE                   25
        BYTE   W06
        BYTE           EOT
        BYTE           VOL     24
        BYTE           N24     Dn5   v080
        BYTE   W12
// 058   ----------------------------------------
        BYTE   W12
        BYTE           VOL     45
        BYTE           N12     Bn4   v127
        BYTE   W12
        BYTE                   Bn4   v080
        BYTE   W12
        BYTE           N24     Fs5   v127
        BYTE   W24
        BYTE           N12     En5
        BYTE   W12
        BYTE           N24
        BYTE   W24
// 059   ----------------------------------------
        BYTE           N12     En5   v080
        BYTE   W12
        BYTE                   Bn4   v127
        BYTE   W24
        BYTE           N24     Fs5
        BYTE   W24
        BYTE           N12     En5
        BYTE   W12
        BYTE           N24
        BYTE   W24
// 060   ----------------------------------------
        BYTE           N12     En5   v080
        BYTE   W12
        BYTE                   Bn4   v127
        BYTE   W24
        BYTE           N24     Gn5
        BYTE   W24
        BYTE           N12     Fs5
        BYTE   W12
        BYTE           N24
        BYTE   W24
// 061   ----------------------------------------
        BYTE           N12     En5
        BYTE   W12
        BYTE                   En5   v080
        BYTE   W12
        BYTE           N60     Fs5   v127
        BYTE   W32
        BYTE   W01
        BYTE           VOL     44
        BYTE   W03
        BYTE                   42
        BYTE   W03
        BYTE                   41
        BYTE   W03
        BYTE                   39
        BYTE   W03
        BYTE                   38
        BYTE   W03
        BYTE                   37
        BYTE   W03
        BYTE                   36
        BYTE   W03
        BYTE                   34
        BYTE   W03
        BYTE                   33
        BYTE   W03
        BYTE                   32
        BYTE           N24     Fs5   v080
        BYTE   W03
        BYTE           VOL     30
        BYTE   W03
        BYTE                   29
        BYTE   W03
        BYTE                   28
        BYTE   W03
// 062   ----------------------------------------
        BYTE                   26
        BYTE   W03
        BYTE                   25
        BYTE   W09
        BYTE                   45
        BYTE           N12     Bn3   v127
        BYTE   W12
        BYTE                   Bn3   v080
        BYTE   W12
        BYTE           N36     Fs4   v127
        BYTE   W36
        BYTE           N12     Fs4   v080
        BYTE   W12
        BYTE                   Fs4   v127
        BYTE   W12
// 063   ----------------------------------------
        BYTE   PATT
         POIN2  IntheMorningSun_4_55
// 064   ----------------------------------------
        BYTE           N12     An4   v080
        BYTE   W12
        BYTE                   Cs5   v127
        BYTE   W12
        BYTE           N60     Dn5
        BYTE   W60
        BYTE           N12     Cs5
        BYTE   W12
// 065   ----------------------------------------
        BYTE                   Cs5   v080
        BYTE   W12
        BYTE                   Dn5   v127
        BYTE   W12
        BYTE           N60     Fs5
        BYTE   W60
        BYTE           N24     Fs5   v080
        BYTE   W12
// 066   ----------------------------------------
        BYTE   W12
        BYTE           N12     Bn4   v127
        BYTE   W24
        BYTE           N24     Fs5
        BYTE   W24
        BYTE           N12     En5
        BYTE   W12
        BYTE           N24
        BYTE   W24
// 067   ----------------------------------------
        BYTE           N12     En5   v080
        BYTE   W12
        BYTE                   Bn4   v127
        BYTE   W12
        BYTE                   Bn4   v080
        BYTE   W12
        BYTE           N24     Fs5   v127
        BYTE   W24
        BYTE           N12     En5
        BYTE   W12
        BYTE           N24
        BYTE   W24
// 068   ----------------------------------------
        BYTE           N12     Dn5
        BYTE   W12
        BYTE                   Dn5   v080
        BYTE   W12
        BYTE           N84     En5   v127
        BYTE   W42
        BYTE           VOL     43
        BYTE   W06
        BYTE                   41
        BYTE   W06
        BYTE                   39
        BYTE   W06
        BYTE                   37
        BYTE   W06
        BYTE                   35
        BYTE   W06
// 069   ----------------------------------------
        BYTE                   33
        BYTE   W06
        BYTE                   31
        BYTE   W06
        BYTE                   29
        BYTE           N24     En5   v080
        BYTE   W06
        BYTE           VOL     26
        BYTE   W06
        BYTE                   25
        BYTE   W06
        BYTE                   23
        BYTE   W66
// 070   ----------------------------------------
        BYTE   W96
// 071   ----------------------------------------
        BYTE   W96
// 072   ----------------------------------------
        BYTE   W96
// 073   ----------------------------------------
        BYTE   W96
// 074   ----------------------------------------
        BYTE   W96
// 075   ----------------------------------------
        BYTE   W96
// 076   ----------------------------------------
        BYTE   W24
        BYTE                   45
        BYTE   W72
// 077   ----------------------------------------
        BYTE   W96
// 078   ----------------------------------------
        BYTE   PATT
         POIN2  IntheMorningSun_4_8
// 079   ----------------------------------------
        BYTE   PATT
         POIN2  IntheMorningSun_4_9
// 080   ----------------------------------------
        BYTE   PATT
         POIN2  IntheMorningSun_4_10
// 081   ----------------------------------------
        BYTE   PATT
         POIN2  IntheMorningSun_4_11
// 082   ----------------------------------------
        BYTE   PATT
         POIN2  IntheMorningSun_4_12
// 083   ----------------------------------------
        BYTE   PATT
         POIN2  IntheMorningSun_4_13
// 084   ----------------------------------------
        BYTE   PATT
         POIN2  IntheMorningSun_4_14
// 085   ----------------------------------------
        BYTE   PATT
         POIN2  IntheMorningSun_4_15
// 086   ----------------------------------------
        BYTE   PATT
         POIN2  IntheMorningSun_4_16
// 087   ----------------------------------------
        BYTE   PATT
         POIN2  IntheMorningSun_4_17
// 088   ----------------------------------------
        BYTE   W24
        BYTE   GoTo
         POIN2  IntheMorningSun_4_LOOP
        BYTE   FINE

//****************** Track 5 (Midi-Chn.5) ******************//

IntheMorningSun_5:
        BYTE   KEYSH   IntheMorningSun_key+0
// 000   ----------------------------------------
        BYTE           VOICE   76
        BYTE           PAN     c_v-17
        BYTE           VOL     85
        BYTE   W96
// 001   ----------------------------------------
        BYTE   W96
// 002   ----------------------------------------
        BYTE   W96
// 003   ----------------------------------------
        BYTE   W96
// 004   ----------------------------------------
        BYTE   W96
// 005   ----------------------------------------
        BYTE   W96
// 006   ----------------------------------------
        BYTE   W96
// 007   ----------------------------------------
        BYTE   W96
// 008   ----------------------------------------
        BYTE           N24     Dn4   v111
        BYTE   W24
        BYTE           N36     An4
        BYTE   W36
        BYTE           N12     An4   v057
        BYTE   W12
        BYTE           N24     An4   v111
        BYTE   W24
// 009   ----------------------------------------
        BYTE           N12     Bn4
        BYTE   W12
        BYTE           N54     An4   v111   gtp1
        BYTE   W54
        BYTE   W01
        BYTE           N01     An4   v088
        BYTE   W05
        BYTE           N42     Gn4   v104   gtp1
        BYTE   W24
// 010   ----------------------------------------
        BYTE   W20
        BYTE           N04     Gn4   v088
        BYTE   W04
        BYTE           N44     Fs4   v111
        BYTE   W44
        BYTE           N01     Fs4   v062
        BYTE   W04
        BYTE           N44     Bn4   v111
        BYTE   W24
// 011   ----------------------------------------
        BYTE   W20
        BYTE           N03     Bn4   v061
        BYTE   W04
        BYTE           N42     Dn5   v111   gtp1
        BYTE   W42
        BYTE   W01
        BYTE           N01     Dn5   v063
        BYTE   W05
        BYTE           N42     En5   v111   gtp1
        BYTE   W24
// 012   ----------------------------------------
        BYTE   W19
        BYTE           N04     En5   v060
        BYTE   W05
        BYTE           N68     Fs5   v111
        BYTE   W68
        BYTE           N04     Fs5   v060
        BYTE   W04
// 013   ----------------------------------------
        BYTE           N06     En5   v111
        BYTE   W06
        BYTE                   En5   v056
        BYTE   W06
        BYTE           N84     En5   v111
        BYTE   W84
// 014   ----------------------------------------
        BYTE           N12     En5   v072
        BYTE   W12
        BYTE                   En5   v048
        BYTE   W12
        BYTE           N60     Fs5   v111
        BYTE   W60
        BYTE           N12     Fs5   v058
        BYTE   W12
// 015   ----------------------------------------
        BYTE           N06     En5   v111
        BYTE   W06
        BYTE                   En5   v054
        BYTE   W06
        BYTE           N84     En5   v111
        BYTE   W84
// 016   ----------------------------------------
        BYTE           N12     En5   v064
        BYTE   W12
        BYTE                   En5   v045
        BYTE   W12
        BYTE           TIE     An5   v111
        BYTE   W42
        BYTE           VOL     84
        BYTE   W06
        BYTE                   81
        BYTE   W06
        BYTE                   77
        BYTE   W06
        BYTE                   74
        BYTE   W06
        BYTE                   72
        BYTE   W06
// 017   ----------------------------------------
        BYTE                   68
        BYTE   W06
        BYTE                   64
        BYTE   W06
        BYTE                   61
        BYTE   W06
        BYTE                   59
        BYTE   W06
        BYTE                   55
        BYTE   W06
        BYTE                   52
        BYTE   W06
        BYTE                   48
        BYTE   W06
        BYTE                   45
        BYTE   W06
        BYTE                   43
        BYTE   W06
        BYTE                   39
        BYTE   W06
        BYTE                   36
        BYTE   W06
        BYTE                   33
        BYTE   W06
        BYTE           EOT
        BYTE           VOL     29
        BYTE   W24
// 018   ----------------------------------------
        BYTE   W24
IntheMorningSun_5_LOOP:
        BYTE   W72
// 019   ----------------------------------------
        BYTE   W96
// 020   ----------------------------------------
        BYTE   W96
// 021   ----------------------------------------
        BYTE   W96
// 022   ----------------------------------------
        BYTE   W96
// 023   ----------------------------------------
        BYTE   W96
// 024   ----------------------------------------
        BYTE   W96
// 025   ----------------------------------------
        BYTE   W96
// 026   ----------------------------------------
        BYTE   W96
// 027   ----------------------------------------
        BYTE   W96
// 028   ----------------------------------------
        BYTE   W96
// 029   ----------------------------------------
        BYTE   W96
// 030   ----------------------------------------
        BYTE   W96
// 031   ----------------------------------------
        BYTE   W96
// 032   ----------------------------------------
        BYTE   W96
// 033   ----------------------------------------
        BYTE   W96
// 034   ----------------------------------------
        BYTE   W96
// 035   ----------------------------------------
        BYTE   W96
// 036   ----------------------------------------
        BYTE   W96
// 037   ----------------------------------------
        BYTE   W96
// 038   ----------------------------------------
        BYTE   W96
// 039   ----------------------------------------
        BYTE   W96
// 040   ----------------------------------------
        BYTE   W96
// 041   ----------------------------------------
        BYTE   W24
        BYTE           VOL     85
        BYTE   W48
        BYTE           N12     Gn4   v127
        BYTE   W12
        BYTE                   An4
        BYTE   W12
// 042   ----------------------------------------
        BYTE                   As4
        BYTE   W12
        BYTE                   Cn5
        BYTE   W12
        BYTE                   Dn5
        BYTE   W12
        BYTE                   Dn5   v080
        BYTE   W12
        BYTE                   As4   v127
        BYTE   W12
        BYTE           N36
        BYTE   W36
// 043   ----------------------------------------
        BYTE           N24     As4   v080
        BYTE   W24
        BYTE           N12     Fn5   v127
        BYTE   W12
        BYTE                   Fn5   v080
        BYTE   W12
        BYTE                   Cn5   v127
        BYTE   W12
        BYTE           N36
        BYTE   W36
// 044   ----------------------------------------
        BYTE           N24     Cn5   v080
        BYTE   W24
        BYTE                   Gn5   v127
        BYTE   W24
        BYTE           N12     Dn5
        BYTE   W12
        BYTE           N24
        BYTE   W24
        BYTE           N12     Cn5
        BYTE   W12
// 045   ----------------------------------------
        BYTE                   Cn5   v080
        BYTE   W12
        BYTE           N60     Dn5   v127
        BYTE   W30
        BYTE           VOL     81
        BYTE   W06
        BYTE                   77
        BYTE   W06
        BYTE                   73
        BYTE   W06
        BYTE                   69
        BYTE   W06
        BYTE                   65
        BYTE   W06
        BYTE                   62
        BYTE           N24     Dn5   v080
        BYTE   W06
        BYTE           VOL     58
        BYTE   W06
        BYTE                   54
        BYTE   W06
        BYTE                   50
        BYTE   W06
// 046   ----------------------------------------
        BYTE                   85
        BYTE           N24     Dn5   v127
        BYTE   W24
        BYTE           TIE     Ds5
        BYTE   W42
        BYTE           VOL     84
        BYTE   W12
        BYTE                   83
        BYTE   W06
        BYTE                   82
        BYTE   W06
        BYTE                   81
        BYTE   W06
// 047   ----------------------------------------
        BYTE   W12
        BYTE                   80
        BYTE   W06
        BYTE                   79
        BYTE   W12
        BYTE                   78
        BYTE   W06
        BYTE                   77
        BYTE   W12
        BYTE                   76
        BYTE   W06
        BYTE                   75
        BYTE   W06
        BYTE                   74
        BYTE   W18
        BYTE                   73
        BYTE   W06
        BYTE                   72
        BYTE   W12
// 048   ----------------------------------------
        BYTE   W06
        BYTE                   71
        BYTE   W06
        BYTE                   70
        BYTE   W06
        BYTE                   69
        BYTE   W18
        BYTE                   68
        BYTE   W06
        BYTE                   67
        BYTE   W12
        BYTE                   66
        BYTE   W12
        BYTE                   69
        BYTE   W06
        BYTE                   71
        BYTE   W06
        BYTE                   72
        BYTE   W06
        BYTE                   74
        BYTE   W06
        BYTE                   77
        BYTE   W06
// 049   ----------------------------------------
        BYTE           EOT
        BYTE           VOL     79
        BYTE           N24     Ds5   v080
        BYTE   W06
        BYTE           VOL     81
        BYTE   W06
        BYTE                   84
        BYTE   W12
        BYTE           N24     Ds5   v127
        BYTE   W24
        BYTE           N12     Dn5
        BYTE   W12
        BYTE                   Cn5
        BYTE   W12
        BYTE                   Cn5   v080
        BYTE   W12
        BYTE                   Ds5   v127
        BYTE   W12
// 050   ----------------------------------------
        BYTE                   Ds5   v080
        BYTE   W12
        BYTE           TIE     Dn5   v127
        BYTE   W36
        BYTE           VOL     83
        BYTE   W12
        BYTE                   82
        BYTE   W06
        BYTE                   81
        BYTE   W30
// 051   ----------------------------------------
        BYTE                   80
        BYTE   W06
        BYTE                   79
        BYTE   W24
        BYTE                   78
        BYTE   W12
        BYTE                   77
        BYTE   W18
        BYTE                   76
        BYTE   W12
        BYTE                   75
        BYTE   W24
// 052   ----------------------------------------
        BYTE   W18
        BYTE                   74
        BYTE   W06
        BYTE                   72
        BYTE   W06
        BYTE                   71
        BYTE   W06
        BYTE                   69
        BYTE   W06
        BYTE                   67
        BYTE   W06
        BYTE                   65
        BYTE   W06
        BYTE                   64
        BYTE   W06
        BYTE                   62
        BYTE   W06
        BYTE                   60
        BYTE   W12
        BYTE                   57
        BYTE   W06
        BYTE                   56
        BYTE   W06
        BYTE                   54
        BYTE   W06
// 053   ----------------------------------------
        BYTE                   52
        BYTE   W06
        BYTE                   50
        BYTE   W06
        BYTE                   49
        BYTE   W12
        BYTE           EOT
        BYTE   W72
// 054   ----------------------------------------
IntheMorningSun_5_54:
        BYTE           VOL     85
        BYTE           N12     Bn3   v127
        BYTE   W12
        BYTE                   Bn3   v080
        BYTE   W12
        BYTE           N36     Fs4   v127
        BYTE   W36
        BYTE           N12     Fs4   v080
        BYTE   W12
        BYTE                   Fs4   v127
        BYTE   W12
        BYTE                   Fs4   v080
        BYTE   W12
        BYTE   PEND
// 055   ----------------------------------------
IntheMorningSun_5_55:
        BYTE           N12     Gn4   v127
        BYTE   W12
        BYTE           N48     An4
        BYTE   W48
        BYTE           N12     An4   v080
        BYTE   W12
        BYTE                   An4   v127
        BYTE   W12
        BYTE                   An4   v080
        BYTE   W12
        BYTE   PEND
// 056   ----------------------------------------
        BYTE                   Cs5   v127
        BYTE   W12
        BYTE           TIE     Dn5
        BYTE   W54
        BYTE           VOL     84
        BYTE   W06
        BYTE                   81
        BYTE   W06
        BYTE                   79
        BYTE   W06
        BYTE                   77
        BYTE   W06
        BYTE                   74
        BYTE   W06
// 057   ----------------------------------------
        BYTE                   72
        BYTE   W06
        BYTE                   70
        BYTE   W06
        BYTE                   67
        BYTE   W06
        BYTE                   65
        BYTE   W06
        BYTE                   62
        BYTE   W06
        BYTE                   60
        BYTE   W06
        BYTE                   58
        BYTE   W06
        BYTE                   56
        BYTE   W06
        BYTE                   53
        BYTE   W06
        BYTE                   51
        BYTE   W06
        BYTE                   48
        BYTE   W06
        BYTE                   47
        BYTE   W06
        BYTE           EOT
        BYTE           VOL     45
        BYTE           N24     Dn5   v080
        BYTE   W24
// 058   ----------------------------------------
        BYTE           VOL     85
        BYTE           N12     Bn4   v127
        BYTE   W12
        BYTE                   Bn4   v080
        BYTE   W12
        BYTE           N24     Fs5   v127
        BYTE   W24
        BYTE           N12     En5
        BYTE   W12
        BYTE           N24
        BYTE   W24
        BYTE           N12     En5   v080
        BYTE   W12
// 059   ----------------------------------------
IntheMorningSun_5_59:
        BYTE           N12     Bn4   v127
        BYTE   W24
        BYTE           N24     Fs5
        BYTE   W24
        BYTE           N12     En5
        BYTE   W12
        BYTE           N24
        BYTE   W24
        BYTE           N12     En5   v080
        BYTE   W12
        BYTE   PEND
// 060   ----------------------------------------
        BYTE                   Bn4   v127
        BYTE   W24
        BYTE           N24     Gn5
        BYTE   W24
        BYTE           N12     Fs5
        BYTE   W12
        BYTE           N24
        BYTE   W24
        BYTE           N12     En5
        BYTE   W12
// 061   ----------------------------------------
        BYTE                   En5   v080
        BYTE   W12
        BYTE           N60     Fs5   v127
        BYTE   W30
        BYTE           VOL     84
        BYTE   W03
        BYTE                   82
        BYTE   W03
        BYTE                   79
        BYTE   W03
        BYTE                   77
        BYTE   W03
        BYTE                   74
        BYTE   W03
        BYTE                   72
        BYTE   W03
        BYTE                   69
        BYTE   W03
        BYTE                   67
        BYTE   W03
        BYTE                   64
        BYTE   W03
        BYTE                   62
        BYTE   W03
        BYTE                   60
        BYTE           N24     Fs5   v080
        BYTE   W03
        BYTE           VOL     57
        BYTE   W03
        BYTE                   54
        BYTE   W03
        BYTE                   52
        BYTE   W03
        BYTE                   49
        BYTE   W03
        BYTE                   47
        BYTE   W09
// 062   ----------------------------------------
        BYTE   PATT
         POIN2  IntheMorningSun_5_54
// 063   ----------------------------------------
        BYTE   PATT
         POIN2  IntheMorningSun_5_55
// 064   ----------------------------------------
        BYTE           N12     Cs5   v127
        BYTE   W12
        BYTE           N60     Dn5
        BYTE   W60
        BYTE           N12     Cs5
        BYTE   W12
        BYTE                   Cs5   v080
        BYTE   W12
// 065   ----------------------------------------
        BYTE                   Dn5   v127
        BYTE   W12
        BYTE           N60     Fs5
        BYTE   W60
        BYTE           N24     Fs5   v080
        BYTE   W24
// 066   ----------------------------------------
        BYTE   PATT
         POIN2  IntheMorningSun_5_59
// 067   ----------------------------------------
        BYTE           N12     Bn4   v127
        BYTE   W12
        BYTE                   Bn4   v080
        BYTE   W12
        BYTE           N24     Fs5   v127
        BYTE   W24
        BYTE           N12     En5
        BYTE   W12
        BYTE           N24
        BYTE   W24
        BYTE           N12     Dn5
        BYTE   W12
// 068   ----------------------------------------
        BYTE                   Dn5   v080
        BYTE   W12
        BYTE           N84     En5   v127
        BYTE   W42
        BYTE           VOL     81
        BYTE   W06
        BYTE                   77
        BYTE   W06
        BYTE                   73
        BYTE   W06
        BYTE                   69
        BYTE   W06
        BYTE                   65
        BYTE   W06
        BYTE                   62
        BYTE   W06
        BYTE                   58
        BYTE   W06
// 069   ----------------------------------------
        BYTE                   54
        BYTE           N24     En5   v080
        BYTE   W06
        BYTE           VOL     50
        BYTE   W06
        BYTE                   47
        BYTE   W06
        BYTE                   43
        BYTE   W78
// 070   ----------------------------------------
        BYTE   W96
// 071   ----------------------------------------
        BYTE   W96
// 072   ----------------------------------------
        BYTE   W96
// 073   ----------------------------------------
        BYTE   W96
// 074   ----------------------------------------
        BYTE   W96
// 075   ----------------------------------------
        BYTE   W96
// 076   ----------------------------------------
        BYTE   W96
// 077   ----------------------------------------
        BYTE   W24
        BYTE                   85
        BYTE   W72
// 078   ----------------------------------------
        BYTE           N24     Dn4   v127
        BYTE   W24
        BYTE           N36     An4
        BYTE   W36
        BYTE           N12     An4   v080
        BYTE   W12
        BYTE           N24     An4   v127
        BYTE   W24
// 079   ----------------------------------------
        BYTE           N12     Bn4
        BYTE   W12
        BYTE           N36     An4
        BYTE   W36
        BYTE           N24     An4   v080
        BYTE   W24
        BYTE           N48     Gn4   v127
        BYTE   W24
// 080   ----------------------------------------
        BYTE   W24
        BYTE           N36     Fs4
        BYTE   W36
        BYTE           N12     Fs4   v080
        BYTE   W12
        BYTE           N36     Bn4   v127
        BYTE   W24
// 081   ----------------------------------------
        BYTE   W12
        BYTE           N12     Bn4   v080
        BYTE   W12
        BYTE           N36     Dn5   v127
        BYTE   W36
        BYTE           N12     Dn5   v080
        BYTE   W12
        BYTE           N36     En5   v127
        BYTE   W24
// 082   ----------------------------------------
        BYTE   W12
        BYTE           N12     En5   v080
        BYTE   W12
        BYTE           N60     Fs5   v127
        BYTE   W60
        BYTE           N12     Fs5   v080
        BYTE   W12
// 083   ----------------------------------------
IntheMorningSun_5_83:
        BYTE           N12     En5   v127
        BYTE   W12
        BYTE           N84
        BYTE   W84
        BYTE   PEND
// 084   ----------------------------------------
        BYTE           N24     En5   v080
        BYTE   W24
        BYTE           N60     Fs5   v127
        BYTE   W60
        BYTE           N12     Fs5   v080
        BYTE   W12
// 085   ----------------------------------------
        BYTE   PATT
         POIN2  IntheMorningSun_5_83
// 086   ----------------------------------------
        BYTE           N24     En5   v080
        BYTE   W24
        BYTE           TIE     An5   v127
        BYTE   W72
// 087   ----------------------------------------
        BYTE   W72
        BYTE           EOT
        BYTE           N24     An5   v080
        BYTE   W24
// 088   ----------------------------------------
        BYTE                   An5   v060
        BYTE   W24
        BYTE           VOL     29
        BYTE   GoTo
         POIN2  IntheMorningSun_5_LOOP
        BYTE   FINE

//***************** Track 6 (Midi-Chn.13) ******************//

IntheMorningSun_6:
        BYTE   KEYSH   IntheMorningSun_key+0
// 000   ----------------------------------------
        BYTE           VOL     76
        BYTE           VOICE   11
        BYTE           N17     Bn4   v120
        BYTE   W24
        BYTE           N30     Fs5   v120   gtp1
        BYTE   W48
        BYTE           N17
        BYTE   W24
// 001   ----------------------------------------
IntheMorningSun_6_1:
        BYTE           N07     Gn5   v117
        BYTE   W12
        BYTE           N42     An5   v112   gtp1
        BYTE   W60
        BYTE           N17     An5   v120
        BYTE   W24
        BYTE   PEND
// 002   ----------------------------------------
IntheMorningSun_6_2:
        BYTE           N07     Cs6   v120
        BYTE   W12
        BYTE           TIE     Dn6   v080
        BYTE   W84
        BYTE   PEND
// 003   ----------------------------------------
        BYTE   W68
        BYTE           EOT
        BYTE   W28
// 004   ----------------------------------------
        BYTE           N17     Bn4   v120
        BYTE   W24
        BYTE           N30     Fs5   v120   gtp1
        BYTE   W48
        BYTE           N17
        BYTE   W24
// 005   ----------------------------------------
        BYTE   PATT
         POIN2  IntheMorningSun_6_1
// 006   ----------------------------------------
        BYTE   PATT
         POIN2  IntheMorningSun_6_2
// 007   ----------------------------------------
        BYTE   W68
        BYTE           EOT     Dn6
        BYTE   W28
// 008   ----------------------------------------
        BYTE   W96
// 009   ----------------------------------------
        BYTE   W96
// 010   ----------------------------------------
        BYTE   W96
// 011   ----------------------------------------
        BYTE   W96
// 012   ----------------------------------------
        BYTE   W96
// 013   ----------------------------------------
        BYTE   W96
// 014   ----------------------------------------
        BYTE   W96
// 015   ----------------------------------------
        BYTE   W96
// 016   ----------------------------------------
        BYTE   W24
        BYTE           PAN     c_v+63
        BYTE           VOL     38
        BYTE           VOICE   73
        BYTE   W72
// 017   ----------------------------------------
        BYTE   W84
        BYTE                   74
        BYTE   W12
// 018   ----------------------------------------
        BYTE   W12
        BYTE           N24     Fs4   v081
        BYTE   W12
IntheMorningSun_6_LOOP:
        BYTE   W12
        BYTE           N36     Cs5   v081
        BYTE   W36
        BYTE           N12     Bn4
        BYTE   W12
        BYTE                   Bn4   v048
        BYTE   W12
// 019   ----------------------------------------
        BYTE                   Bn4   v028
        BYTE   W12
        BYTE           N72     Fs4   v081
        BYTE   W48
        BYTE           VOL     35
        BYTE   W06
        BYTE                   33
        BYTE   W06
        BYTE                   31
        BYTE   W06
        BYTE                   28
        BYTE   W06
        BYTE                   26
        BYTE           N24     Fs4   v048
        BYTE   W12
// 020   ----------------------------------------
        BYTE   W12
        BYTE                   Fs4   v028
        BYTE   W24
        BYTE           VOL     38
        BYTE           N36     En4   v081
        BYTE   W36
        BYTE           N12     An4
        BYTE   W12
        BYTE                   An4   v048
        BYTE   W12
// 021   ----------------------------------------
        BYTE                   An4   v028
        BYTE   W12
        BYTE           N72     Fs4   v081
        BYTE   W18
        BYTE           VOL     36
        BYTE   W06
        BYTE                   35
        BYTE   W06
        BYTE                   34
        BYTE   W06
        BYTE                   32
        BYTE   W06
        BYTE                   31
        BYTE   W06
        BYTE                   30
        BYTE   W06
        BYTE                   29
        BYTE   W06
        BYTE                   28
        BYTE   W06
        BYTE                   27
        BYTE   W06
        BYTE                   26
        BYTE           N12     Fs4   v048
        BYTE   W06
        BYTE           VOL     24
        BYTE   W06
// 022   ----------------------------------------
        BYTE                   23
        BYTE           N12     Fs4   v028
        BYTE   W12
        BYTE           VOL     38
        BYTE           N24     Fs3   v081
        BYTE   W24
        BYTE                   Bn3
        BYTE   W24
        BYTE           N12     Fs3
        BYTE   W12
        BYTE           N24     Cs4
        BYTE   W24
// 023   ----------------------------------------
        BYTE           N12     Fs3
        BYTE   W12
        BYTE                   Fs3   v048
        BYTE   W12
        BYTE           N24     Dn4   v081
        BYTE   W24
        BYTE           N12     Fs3
        BYTE   W12
        BYTE                   Fs3   v048
        BYTE   W12
        BYTE           N24     En4   v081
        BYTE   W24
// 024   ----------------------------------------
        BYTE           N12     An4
        BYTE   W12
        BYTE                   An4   v048
        BYTE   W12
        BYTE           TIE     Fs4   v081
        BYTE   W30
        BYTE           VOL     37
        BYTE   W06
        BYTE                   36
        BYTE   W06
        BYTE                   35
        BYTE   W06
        BYTE                   33
        BYTE   W06
        BYTE                   32
        BYTE   W06
        BYTE                   31
        BYTE   W06
        BYTE                   29
        BYTE   W06
// 025   ----------------------------------------
        BYTE                   28
        BYTE   W06
        BYTE                   27
        BYTE   W06
        BYTE                   26
        BYTE   W06
        BYTE                   24
        BYTE   W06
        BYTE                   23
        BYTE   W06
        BYTE                   21
        BYTE   W06
        BYTE                   20
        BYTE   W06
        BYTE                   19
        BYTE   W06
        BYTE                   17
        BYTE   W06
        BYTE                   16
        BYTE   W06
        BYTE           EOT
        BYTE           N12     Fs4   v048
        BYTE   W12
        BYTE                   Fs4   v028
        BYTE   W12
        BYTE                   Fs4   v018
        BYTE   W12
// 026   ----------------------------------------
        BYTE                   Fs4   v008
        BYTE   W12
        BYTE           VOL     38
        BYTE           N24     Fs5   v071
        BYTE   W24
        BYTE           N36     Cs6
        BYTE   W36
        BYTE           N12     Bn5
        BYTE   W12
        BYTE                   Bn5   v038
        BYTE   W12
// 027   ----------------------------------------
        BYTE                   Bn5   v018
        BYTE   W12
        BYTE           N72     Fs5   v071
        BYTE   W30
        BYTE           VOL     37
        BYTE   W06
        BYTE                   36
        BYTE   W06
        BYTE                   34
        BYTE   W06
        BYTE                   32
        BYTE   W06
        BYTE                   31
        BYTE   W06
        BYTE                   29
        BYTE   W06
        BYTE                   28
        BYTE   W06
        BYTE                   26
        BYTE           N12     Fs5   v038
        BYTE   W06
        BYTE           VOL     25
        BYTE   W06
// 028   ----------------------------------------
        BYTE                   23
        BYTE           N12     Fs5   v018
        BYTE   W06
        BYTE           VOL     21
        BYTE   W06
        BYTE           N12     Fs5   v008
        BYTE   W24
        BYTE           VOL     38
        BYTE           N36     En5   v071
        BYTE   W36
        BYTE           N12     An5
        BYTE   W12
        BYTE                   An5   v038
        BYTE   W12
// 029   ----------------------------------------
        BYTE                   An5   v018
        BYTE   W12
        BYTE           N72     Fs5   v071
        BYTE   W12
        BYTE           VOL     37
        BYTE   W06
        BYTE                   35
        BYTE   W06
        BYTE                   33
        BYTE   W06
        BYTE                   31
        BYTE   W06
        BYTE                   28
        BYTE   W06
        BYTE                   26
        BYTE   W06
        BYTE                   24
        BYTE   W06
        BYTE                   21
        BYTE   W06
        BYTE                   19
        BYTE   W12
        BYTE           N12     Fs5   v038
        BYTE   W12
// 030   ----------------------------------------
        BYTE                   Fs5   v018
        BYTE   W12
        BYTE           VOL     38
        BYTE           N24     An4   v071
        BYTE   W24
        BYTE                   Bn4
        BYTE   W24
        BYTE           N12     Fs5
        BYTE   W12
        BYTE           N24
        BYTE   W24
// 031   ----------------------------------------
        BYTE           N12
        BYTE   W12
        BYTE                   Fs5   v038
        BYTE   W12
        BYTE           N24     Fs5   v071
        BYTE   W24
        BYTE           N12     En5
        BYTE   W12
        BYTE                   En5   v038
        BYTE   W12
        BYTE           N24     Dn5   v071
        BYTE   W24
// 032   ----------------------------------------
        BYTE           N12     En5
        BYTE   W12
        BYTE                   En5   v038
        BYTE   W12
        BYTE           TIE     Dn5   v071
        BYTE   W24
        BYTE           VOL     37
        BYTE   W06
        BYTE                   36
        BYTE   W06
        BYTE                   35
        BYTE   W06
        BYTE                   34
        BYTE   W06
        BYTE                   33
        BYTE   W06
        BYTE                   32
        BYTE   W06
        BYTE                   31
        BYTE   W06
        BYTE                   30
        BYTE   W06
// 033   ----------------------------------------
        BYTE                   29
        BYTE   W06
        BYTE                   27
        BYTE   W06
        BYTE                   26
        BYTE   W12
        BYTE                   24
        BYTE   W06
        BYTE                   23
        BYTE   W06
        BYTE                   22
        BYTE   W06
        BYTE                   21
        BYTE   W06
        BYTE                   20
        BYTE   W06
        BYTE                   19
        BYTE   W06
        BYTE           EOT
        BYTE           VOL     18
        BYTE           N12     Dn5   v038
        BYTE   W06
        BYTE           VOL     17
        BYTE   W06
        BYTE                   16
        BYTE           N12     Dn5   v018
        BYTE   W12
        BYTE                   Dn5   v008
        BYTE   W12
// 034   ----------------------------------------
        BYTE   W96
// 035   ----------------------------------------
        BYTE   W96
// 036   ----------------------------------------
        BYTE   W96
// 037   ----------------------------------------
        BYTE   W96
// 038   ----------------------------------------
        BYTE   W96
// 039   ----------------------------------------
        BYTE   W96
// 040   ----------------------------------------
        BYTE   W96
// 041   ----------------------------------------
        BYTE   W96
// 042   ----------------------------------------
        BYTE   W96
// 043   ----------------------------------------
        BYTE   W96
// 044   ----------------------------------------
        BYTE   W96
// 045   ----------------------------------------
        BYTE   W96
// 046   ----------------------------------------
        BYTE   W96
// 047   ----------------------------------------
        BYTE   W96
// 048   ----------------------------------------
        BYTE   W96
// 049   ----------------------------------------
        BYTE   W96
// 050   ----------------------------------------
        BYTE   W96
// 051   ----------------------------------------
        BYTE   W96
// 052   ----------------------------------------
        BYTE   W96
// 053   ----------------------------------------
        BYTE   W36
        BYTE           VOL     38
        BYTE   W60
// 054   ----------------------------------------
        BYTE   W12
        BYTE           N12     Bn3   v100
        BYTE   W12
        BYTE                   Bn3   v050
        BYTE   W12
        BYTE           N36     Fs4   v100
        BYTE   W36
        BYTE           N12     Fs4   v050
        BYTE   W12
        BYTE                   Fs4   v100
        BYTE   W12
// 055   ----------------------------------------
IntheMorningSun_6_55:
        BYTE           N12     Fs4   v050
        BYTE   W12
        BYTE                   Gn4   v100
        BYTE   W12
        BYTE           N48     An4
        BYTE   W48
        BYTE           N12     An4   v050
        BYTE   W12
        BYTE                   An4   v100
        BYTE   W12
        BYTE   PEND
// 056   ----------------------------------------
        BYTE                   An4   v050
        BYTE   W12
        BYTE                   Cs5   v100
        BYTE   W12
        BYTE           TIE     Dn5
        BYTE   W52
        BYTE           VOL     37
        BYTE   W20
// 057   ----------------------------------------
        BYTE                   36
        BYTE   W12
        BYTE                   35
        BYTE   W16
        BYTE                   34
        BYTE   W12
        BYTE                   33
        BYTE   W12
        BYTE                   32
        BYTE   W20
        BYTE                   31
        BYTE   W12
        BYTE           EOT
        BYTE           N12     Dn5   v050
        BYTE   W08
        BYTE           VOL     30
        BYTE   W04
// 058   ----------------------------------------
        BYTE           N12     Dn5   v040
        BYTE   W08
        BYTE           VOL     29
        BYTE   W04
        BYTE           N12     Bn4   v100
        BYTE   W12
        BYTE           VOL     35
        BYTE           N12     Bn4   v050
        BYTE   W12
        BYTE           N24     Fs5   v100
        BYTE   W04
        BYTE           VOL     36
        BYTE   W16
        BYTE                   37
        BYTE   W04
        BYTE           N12     En5
        BYTE   W12
        BYTE           N24
        BYTE   W12
        BYTE           VOL     38
        BYTE   W12
// 059   ----------------------------------------
IntheMorningSun_6_59:
        BYTE           N12     En5   v050
        BYTE   W12
        BYTE                   Bn4   v100
        BYTE   W12
        BYTE                   Bn4   v050
        BYTE   W12
        BYTE           N24     Fs5   v100
        BYTE   W24
        BYTE           N12     En5
        BYTE   W12
        BYTE           N24
        BYTE   W24
        BYTE   PEND
// 060   ----------------------------------------
        BYTE           N12     En5   v050
        BYTE   W12
        BYTE                   Bn4   v100
        BYTE   W12
        BYTE                   Bn4   v050
        BYTE   W12
        BYTE           N24     Gn5   v100
        BYTE   W24
        BYTE           N12     Fs5
        BYTE   W12
        BYTE           N24
        BYTE   W24
// 061   ----------------------------------------
        BYTE           N12     En5
        BYTE   W12
        BYTE                   En5   v050
        BYTE   W12
        BYTE           N60     Fs5   v100
        BYTE   W60
        BYTE           N12     Fs5   v050
        BYTE   W12
// 062   ----------------------------------------
        BYTE                   Fs5   v040
        BYTE   W12
        BYTE                   Bn3   v100
        BYTE   W12
        BYTE                   Bn3   v050
        BYTE   W12
        BYTE           N36     Fs4   v100
        BYTE   W36
        BYTE           N12     Fs4   v050
        BYTE   W12
        BYTE                   Fs4   v100
        BYTE   W12
// 063   ----------------------------------------
        BYTE   PATT
         POIN2  IntheMorningSun_6_55
// 064   ----------------------------------------
        BYTE           N12     An4   v050
        BYTE   W12
        BYTE                   Cs5   v100
        BYTE   W12
        BYTE           N60     Dn5
        BYTE   W60
        BYTE           N12     Cs5
        BYTE   W12
// 065   ----------------------------------------
        BYTE                   Cs5   v050
        BYTE   W12
        BYTE                   Dn5   v100
        BYTE   W12
        BYTE           N60     Fs5
        BYTE   W60
        BYTE           N12     Fs5   v050
        BYTE   W12
// 066   ----------------------------------------
        BYTE                   Fs5   v040
        BYTE   W12
        BYTE                   Bn4   v100
        BYTE   W12
        BYTE                   Bn4   v050
        BYTE   W12
        BYTE           N24     Fs5   v100
        BYTE   W24
        BYTE           N12     En5
        BYTE   W12
        BYTE           N24
        BYTE   W24
// 067   ----------------------------------------
        BYTE   PATT
         POIN2  IntheMorningSun_6_59
// 068   ----------------------------------------
        BYTE           N12     Dn5   v100
        BYTE   W12
        BYTE                   Dn5   v050
        BYTE   W12
        BYTE           N84     En5   v100
        BYTE   W72
// 069   ----------------------------------------
        BYTE   W12
        BYTE           N12     En5   v050
        BYTE   W12
        BYTE                   En5   v040
        BYTE   W12
        BYTE                   En5   v035
        BYTE   W12
        BYTE                   En5   v030
        BYTE   W48
// 070   ----------------------------------------
        BYTE   W96
// 071   ----------------------------------------
        BYTE   W96
// 072   ----------------------------------------
        BYTE   W96
// 073   ----------------------------------------
        BYTE   W96
// 074   ----------------------------------------
        BYTE   W96
// 075   ----------------------------------------
        BYTE   W96
// 076   ----------------------------------------
        BYTE   W96
// 077   ----------------------------------------
        BYTE   W96
// 078   ----------------------------------------
        BYTE   W96
// 079   ----------------------------------------
        BYTE   W96
// 080   ----------------------------------------
        BYTE   W96
// 081   ----------------------------------------
        BYTE   W96
// 082   ----------------------------------------
        BYTE   W96
// 083   ----------------------------------------
        BYTE   W96
// 084   ----------------------------------------
        BYTE   W96
// 085   ----------------------------------------
        BYTE   W96
// 086   ----------------------------------------
        BYTE   W96
// 087   ----------------------------------------
        BYTE   W96
// 088   ----------------------------------------
        BYTE   W24
        BYTE   GoTo
         POIN2  IntheMorningSun_6_LOOP
        BYTE   FINE

//****************** Track 7 (Midi-Chn.1) ******************//

IntheMorningSun_7:
        BYTE   KEYSH   IntheMorningSun_key+0
// 000   ----------------------------------------
        BYTE           VOICE   11
        BYTE           PAN     c_v-64
        BYTE           VOL     47
        BYTE   W12
        BYTE           N17     Bn4   v120
        BYTE   W24
        BYTE           N30     Fs5   v120   gtp1
        BYTE   W48
        BYTE           N17
        BYTE   W12
// 001   ----------------------------------------
IntheMorningSun_7_1:
        BYTE   W12
        BYTE           N07     Gn5   v117
        BYTE   W12
        BYTE           N42     An5   v112   gtp1
        BYTE   W60
        BYTE           N17     An5   v120
        BYTE   W12
        BYTE   PEND
// 002   ----------------------------------------
IntheMorningSun_7_2:
        BYTE   W12
        BYTE           N07     Cs6   v120
        BYTE   W12
        BYTE           TIE     Dn6   v080
        BYTE   W72
        BYTE   PEND
// 003   ----------------------------------------
        BYTE   W80
        BYTE           EOT
        BYTE   W16
// 004   ----------------------------------------
        BYTE   W12
        BYTE           N17     Bn4   v120
        BYTE   W24
        BYTE           N30     Fs5   v120   gtp1
        BYTE   W48
        BYTE           N17
        BYTE   W12
// 005   ----------------------------------------
        BYTE   PATT
         POIN2  IntheMorningSun_7_1
// 006   ----------------------------------------
        BYTE   PATT
         POIN2  IntheMorningSun_7_2
// 007   ----------------------------------------
        BYTE   W80
        BYTE           EOT     Dn6
        BYTE   W16
// 008   ----------------------------------------
        BYTE   W96
// 009   ----------------------------------------
        BYTE   W96
// 010   ----------------------------------------
        BYTE   W96
// 011   ----------------------------------------
        BYTE   W96
// 012   ----------------------------------------
        BYTE   W96
// 013   ----------------------------------------
        BYTE   W96
// 014   ----------------------------------------
        BYTE   W96
// 015   ----------------------------------------
        BYTE   W96
// 016   ----------------------------------------
        BYTE   W24
        BYTE           PAN     c_v+0
        BYTE           VOL     80
        BYTE   W72
// 017   ----------------------------------------
        BYTE   W84
        BYTE           VOICE   74
        BYTE   W12
// 018   ----------------------------------------
        BYTE           N24     Fs4   v127
        BYTE   W24
IntheMorningSun_7_LOOP:
        BYTE           N36     Cs5   v127
        BYTE   W36
        BYTE           N12     Bn4
        BYTE   W12
        BYTE                   Bn4   v080
        BYTE   W12
        BYTE                   Bn4   v060
        BYTE   W12
// 019   ----------------------------------------
        BYTE           N72     Fs4   v127
        BYTE   W48
        BYTE           VOL     75
        BYTE   W06
        BYTE                   70
        BYTE   W06
        BYTE                   65
        BYTE   W06
        BYTE                   60
        BYTE   W06
        BYTE                   56
        BYTE           N24     Fs4   v080
        BYTE   W24
// 020   ----------------------------------------
        BYTE                   Fs4   v060
        BYTE   W24
        BYTE           VOL     80
        BYTE           N36     En4   v127
        BYTE   W36
        BYTE           N12     An4
        BYTE   W12
        BYTE                   An4   v080
        BYTE   W12
        BYTE                   An4   v060
        BYTE   W12
// 021   ----------------------------------------
        BYTE           N72     Fs4   v127
        BYTE   W18
        BYTE           VOL     77
        BYTE   W06
        BYTE                   74
        BYTE   W06
        BYTE                   72
        BYTE   W06
        BYTE                   69
        BYTE   W06
        BYTE                   67
        BYTE   W06
        BYTE                   64
        BYTE   W06
        BYTE                   62
        BYTE   W06
        BYTE                   59
        BYTE   W06
        BYTE                   57
        BYTE   W06
        BYTE                   54
        BYTE           N12     Fs4   v080
        BYTE   W06
        BYTE           VOL     52
        BYTE   W06
        BYTE                   49
        BYTE           N12     Fs4   v060
        BYTE   W12
// 022   ----------------------------------------
        BYTE           VOL     80
        BYTE           N24     Fs3   v127
        BYTE   W24
        BYTE                   Bn3
        BYTE   W24
        BYTE           N12     Fs3
        BYTE   W12
        BYTE           N24     Cs4
        BYTE   W24
        BYTE           N12     Fs3
        BYTE   W12
// 023   ----------------------------------------
        BYTE                   Fs3   v080
        BYTE   W12
        BYTE           N24     Dn4   v127
        BYTE   W24
        BYTE           N12     Fs3
        BYTE   W12
        BYTE                   Fs3   v080
        BYTE   W12
        BYTE           N24     En4   v127
        BYTE   W24
        BYTE           N12     An4
        BYTE   W12
// 024   ----------------------------------------
        BYTE                   An4   v080
        BYTE   W12
        BYTE           TIE     Fs4   v127
        BYTE   W36
        BYTE           VOL     77
        BYTE   W06
        BYTE                   74
        BYTE   W06
        BYTE                   71
        BYTE   W06
        BYTE                   68
        BYTE   W06
        BYTE                   66
        BYTE   W06
        BYTE                   62
        BYTE   W06
        BYTE                   60
        BYTE   W06
        BYTE                   57
        BYTE   W06
// 025   ----------------------------------------
        BYTE                   54
        BYTE   W06
        BYTE                   52
        BYTE   W06
        BYTE                   48
        BYTE   W06
        BYTE                   46
        BYTE   W06
        BYTE                   43
        BYTE   W06
        BYTE                   40
        BYTE   W06
        BYTE                   37
        BYTE   W06
        BYTE                   34
        BYTE   W06
        BYTE           EOT
        BYTE           N12     Fs4   v080
        BYTE   W12
        BYTE                   Fs4   v060
        BYTE   W12
        BYTE                   Fs4   v050
        BYTE   W12
        BYTE                   Fs4   v040
        BYTE   W12
// 026   ----------------------------------------
        BYTE           VOL     80
        BYTE           N24     Fs5   v117
        BYTE   W24
        BYTE           N36     Cs6
        BYTE   W36
        BYTE           N12     Bn5
        BYTE   W12
        BYTE                   Bn5   v070
        BYTE   W12
        BYTE                   Bn5   v050
        BYTE   W12
// 027   ----------------------------------------
        BYTE           N72     Fs5   v117
        BYTE   W36
        BYTE           VOL     76
        BYTE   W06
        BYTE                   72
        BYTE   W06
        BYTE                   69
        BYTE   W06
        BYTE                   66
        BYTE   W06
        BYTE                   62
        BYTE   W06
        BYTE                   59
        BYTE   W06
        BYTE                   56
        BYTE           N12     Fs5   v070
        BYTE   W06
        BYTE           VOL     52
        BYTE   W06
        BYTE                   48
        BYTE           N12     Fs5   v050
        BYTE   W06
        BYTE           VOL     46
        BYTE   W06
// 028   ----------------------------------------
        BYTE           N12     Fs5   v040
        BYTE   W12
        BYTE                   Fs5   v030
        BYTE   W12
        BYTE           VOL     80
        BYTE           N36     En5   v117
        BYTE   W36
        BYTE           N12     An5
        BYTE   W12
        BYTE                   An5   v070
        BYTE   W12
        BYTE                   An5   v050
        BYTE   W12
// 029   ----------------------------------------
        BYTE           N72     Fs5   v117
        BYTE   W18
        BYTE           VOL     74
        BYTE   W06
        BYTE                   70
        BYTE   W06
        BYTE                   65
        BYTE   W06
        BYTE                   60
        BYTE   W06
        BYTE                   56
        BYTE   W06
        BYTE                   50
        BYTE   W06
        BYTE                   46
        BYTE   W06
        BYTE                   41
        BYTE   W12
        BYTE           N12     Fs5   v070
        BYTE   W12
        BYTE                   Fs5   v050
        BYTE   W12
// 030   ----------------------------------------
        BYTE           VOL     80
        BYTE           N24     An4   v117
        BYTE   W24
        BYTE                   Bn4
        BYTE   W24
        BYTE           N12     Fs5
        BYTE   W12
        BYTE           N24
        BYTE   W24
        BYTE           N12
        BYTE   W12
// 031   ----------------------------------------
        BYTE                   Fs5   v070
        BYTE   W12
        BYTE           N24     Fs5   v117
        BYTE   W24
        BYTE           N12     En5
        BYTE   W12
        BYTE                   En5   v070
        BYTE   W12
        BYTE           N24     Dn5   v117
        BYTE   W24
        BYTE           N12     En5
        BYTE   W12
// 032   ----------------------------------------
        BYTE                   En5   v070
        BYTE   W12
        BYTE           TIE     Dn5   v117
        BYTE   W24
        BYTE           VOL     79
        BYTE   W06
        BYTE                   77
        BYTE   W06
        BYTE                   74
        BYTE   W06
        BYTE                   72
        BYTE   W06
        BYTE                   70
        BYTE   W06
        BYTE                   68
        BYTE   W06
        BYTE                   65
        BYTE   W06
        BYTE                   63
        BYTE   W06
        BYTE                   61
        BYTE   W06
        BYTE                   58
        BYTE   W06
// 033   ----------------------------------------
        BYTE                   56
        BYTE   W06
        BYTE                   54
        BYTE   W06
        BYTE                   52
        BYTE   W06
        BYTE                   50
        BYTE   W06
        BYTE                   47
        BYTE   W06
        BYTE                   46
        BYTE   W06
        BYTE                   43
        BYTE   W06
        BYTE                   41
        BYTE   W06
        BYTE           EOT
        BYTE           VOL     38
        BYTE           N12     Dn5   v070
        BYTE   W06
        BYTE           VOL     35
        BYTE   W06
        BYTE                   34
        BYTE           N12     Dn5   v050
        BYTE   W12
        BYTE                   Dn5   v040
        BYTE   W12
        BYTE                   Dn5   v030
        BYTE   W12
// 034   ----------------------------------------
        BYTE   W96
// 035   ----------------------------------------
        BYTE   W96
// 036   ----------------------------------------
        BYTE   W96
// 037   ----------------------------------------
        BYTE   W96
// 038   ----------------------------------------
        BYTE   W96
// 039   ----------------------------------------
        BYTE   W96
// 040   ----------------------------------------
        BYTE   W96
// 041   ----------------------------------------
        BYTE   W96
// 042   ----------------------------------------
        BYTE   W96
// 043   ----------------------------------------
        BYTE   W96
// 044   ----------------------------------------
        BYTE   W96
// 045   ----------------------------------------
        BYTE   W96
// 046   ----------------------------------------
        BYTE   W96
// 047   ----------------------------------------
        BYTE   W96
// 048   ----------------------------------------
        BYTE   W96
// 049   ----------------------------------------
        BYTE   W96
// 050   ----------------------------------------
        BYTE   W96
// 051   ----------------------------------------
        BYTE   W96
// 052   ----------------------------------------
        BYTE   W96
// 053   ----------------------------------------
        BYTE   W24
        BYTE           VOL     80
        BYTE   W72
// 054   ----------------------------------------
        BYTE           N12     Bn3   v100
        BYTE   W12
        BYTE                   Bn3   v050
        BYTE   W12
        BYTE           N36     Fs4   v100
        BYTE   W36
        BYTE           N12     Fs4   v050
        BYTE   W12
        BYTE                   Fs4   v100
        BYTE   W12
        BYTE                   Fs4   v050
        BYTE   W12
// 055   ----------------------------------------
        BYTE                   Gn4   v100
        BYTE   W12
        BYTE           N48     An4
        BYTE   W48
        BYTE           N12     An4   v050
        BYTE   W12
        BYTE                   An4   v100
        BYTE   W12
        BYTE                   An4   v050
        BYTE   W12
// 056   ----------------------------------------
        BYTE                   Cs5   v100
        BYTE   W12
        BYTE           TIE     Dn5
        BYTE   W52
        BYTE           VOL     79
        BYTE   W24
        BYTE                   78
        BYTE   W08
// 057   ----------------------------------------
        BYTE                   77
        BYTE   W08
        BYTE                   76
        BYTE   W04
        BYTE                   75
        BYTE   W04
        BYTE                   74
        BYTE   W04
        BYTE                   73
        BYTE   W04
        BYTE                   72
        BYTE   W04
        BYTE                   71
        BYTE   W04
        BYTE                   70
        BYTE   W04
        BYTE                   68
        BYTE   W08
        BYTE                   66
        BYTE   W04
        BYTE                   65
        BYTE   W04
        BYTE                   63
        BYTE   W04
        BYTE                   62
        BYTE   W04
        BYTE                   60
        BYTE   W04
        BYTE                   58
        BYTE   W04
        BYTE                   56
        BYTE   W04
        BYTE           EOT
        BYTE           VOL     54
        BYTE           N12     Dn5   v050
        BYTE   W04
        BYTE           VOL     52
        BYTE   W04
        BYTE                   50
        BYTE   W04
        BYTE                   48
        BYTE           N12     Dn5   v040
        BYTE   W04
        BYTE           VOL     44
        BYTE   W04
        BYTE                   51
        BYTE   W04
// 058   ----------------------------------------
        BYTE                   54
        BYTE           N12     Bn4   v100
        BYTE   W04
        BYTE           VOL     56
        BYTE   W04
        BYTE                   58
        BYTE   W04
        BYTE                   59
        BYTE           N12     Bn4   v050
        BYTE   W04
        BYTE           VOL     60
        BYTE   W04
        BYTE                   62
        BYTE   W04
        BYTE                   64
        BYTE           N24     Fs5   v100
        BYTE   W08
        BYTE           VOL     66
        BYTE   W04
        BYTE                   67
        BYTE   W04
        BYTE                   68
        BYTE   W08
        BYTE                   70
        BYTE           N12     En5
        BYTE   W08
        BYTE           VOL     71
        BYTE   W04
        BYTE                   72
        BYTE           N24
        BYTE   W04
        BYTE           VOL     73
        BYTE   W04
        BYTE                   74
        BYTE   W08
        BYTE                   75
        BYTE   W04
        BYTE                   76
        BYTE   W04
        BYTE                   77
        BYTE           N12     En5   v050
        BYTE   W04
        BYTE           VOL     78
        BYTE   W08
// 059   ----------------------------------------
        BYTE                   79
        BYTE           N12     Bn4   v100
        BYTE   W04
        BYTE           VOL     80
        BYTE   W08
        BYTE           N12     Bn4   v050
        BYTE   W12
        BYTE           N24     Fs5   v100
        BYTE   W24
        BYTE           N12     En5
        BYTE   W12
        BYTE           N24
        BYTE   W24
        BYTE           N12     En5   v050
        BYTE   W12
// 060   ----------------------------------------
        BYTE                   Bn4   v100
        BYTE   W12
        BYTE                   Bn4   v050
        BYTE   W12
        BYTE           N24     Gn5   v100
        BYTE   W24
        BYTE           N12     Fs5
        BYTE   W12
        BYTE           N24
        BYTE   W04
        BYTE           VOL     79
        BYTE   W20
        BYTE           N12     En5
        BYTE   W04
        BYTE           VOL     78
        BYTE   W08
// 061   ----------------------------------------
        BYTE           N12     En5   v050
        BYTE   W12
        BYTE           VOL     77
        BYTE           N60     Fs5   v100
        BYTE   W04
        BYTE           VOL     76
        BYTE   W12
        BYTE                   75
        BYTE   W08
        BYTE                   74
        BYTE   W08
        BYTE                   73
        BYTE   W04
        BYTE                   72
        BYTE   W08
        BYTE                   71
        BYTE   W04
        BYTE                   70
        BYTE   W04
        BYTE                   69
        BYTE   W04
        BYTE                   68
        BYTE   W04
        BYTE           N12     Fs5   v050
        BYTE   W04
        BYTE           VOL     67
        BYTE   W04
        BYTE                   66
        BYTE   W04
        BYTE                   65
        BYTE           N12     Fs5   v040
        BYTE   W04
        BYTE           VOL     64
        BYTE   W08
// 062   ----------------------------------------
        BYTE                   62
        BYTE           N12     Bn3   v100
        BYTE   W04
        BYTE           VOL     61
        BYTE   W04
        BYTE                   60
        BYTE   W04
        BYTE                   58
        BYTE           N12     Bn3   v050
        BYTE   W08
        BYTE           VOL     57
        BYTE   W04
        BYTE                   56
        BYTE           N36     Fs4   v100
        BYTE   W08
        BYTE           VOL     61
        BYTE   W04
        BYTE                   64
        BYTE   W04
        BYTE                   65
        BYTE   W04
        BYTE                   67
        BYTE   W04
        BYTE                   68
        BYTE   W04
        BYTE                   69
        BYTE   W04
        BYTE                   70
        BYTE   W04
        BYTE                   71
        BYTE           N12     Fs4   v050
        BYTE   W04
        BYTE           VOL     72
        BYTE   W04
        BYTE                   73
        BYTE   W04
        BYTE                   74
        BYTE           N12     Fs4   v100
        BYTE   W04
        BYTE           VOL     75
        BYTE   W04
        BYTE                   76
        BYTE   W04
        BYTE           N12     Fs4   v050
        BYTE   W04
        BYTE           VOL     77
        BYTE   W04
        BYTE                   78
        BYTE   W04
// 063   ----------------------------------------
        BYTE           N12     Gn4   v100
        BYTE   W04
        BYTE           VOL     79
        BYTE   W04
        BYTE                   80
        BYTE   W04
        BYTE           N48     An4
        BYTE   W48
        BYTE           N12     An4   v050
        BYTE   W12
        BYTE                   An4   v100
        BYTE   W12
        BYTE                   An4   v050
        BYTE   W12
// 064   ----------------------------------------
        BYTE                   Cs5   v100
        BYTE   W12
        BYTE           N60     Dn5
        BYTE   W16
        BYTE           VOL     78
        BYTE   W04
        BYTE                   73
        BYTE   W04
        BYTE                   72
        BYTE   W04
        BYTE                   70
        BYTE   W04
        BYTE                   68
        BYTE   W08
        BYTE                   66
        BYTE   W08
        BYTE                   64
        BYTE   W08
        BYTE                   63
        BYTE   W04
        BYTE                   62
        BYTE           N12     Cs5
        BYTE   W08
        BYTE           VOL     60
        BYTE   W04
        BYTE           N12     Cs5   v050
        BYTE   W04
        BYTE           VOL     59
        BYTE   W04
        BYTE                   58
        BYTE   W04
// 065   ----------------------------------------
        BYTE           N12     Dn5   v100
        BYTE   W12
        BYTE           VOL     57
        BYTE           N60     Fs5
        BYTE   W20
        BYTE           VOL     58
        BYTE   W16
        BYTE                   59
        BYTE   W04
        BYTE                   60
        BYTE   W08
        BYTE                   61
        BYTE   W04
        BYTE                   62
        BYTE   W08
        BYTE                   63
        BYTE           N12     Fs5   v050
        BYTE   W04
        BYTE           VOL     64
        BYTE   W04
        BYTE                   65
        BYTE   W04
        BYTE                   66
        BYTE           N12     Fs5   v040
        BYTE   W04
        BYTE           VOL     67
        BYTE   W04
        BYTE                   68
        BYTE   W04
// 066   ----------------------------------------
        BYTE           N12     Bn4   v100
        BYTE   W04
        BYTE           VOL     70
        BYTE   W04
        BYTE                   71
        BYTE   W04
        BYTE                   72
        BYTE           N12     Bn4   v050
        BYTE   W04
        BYTE           VOL     74
        BYTE   W04
        BYTE                   75
        BYTE   W04
        BYTE                   76
        BYTE           N24     Fs5   v100
        BYTE   W04
        BYTE           VOL     78
        BYTE   W04
        BYTE                   80
        BYTE   W16
        BYTE           N12     En5
        BYTE   W12
        BYTE           N24
        BYTE   W24
        BYTE           N12     En5   v050
        BYTE   W12
// 067   ----------------------------------------
        BYTE                   Bn4   v100
        BYTE   W12
        BYTE                   Bn4   v050
        BYTE   W12
        BYTE           N24     Fs5   v100
        BYTE   W24
        BYTE           N12     En5
        BYTE   W12
        BYTE           N24
        BYTE   W04
        BYTE           VOL     79
        BYTE   W16
        BYTE                   78
        BYTE   W04
        BYTE           N12     Dn5
        BYTE   W12
// 068   ----------------------------------------
        BYTE                   Dn5   v050
        BYTE   W04
        BYTE           VOL     77
        BYTE   W08
        BYTE                   76
        BYTE           N84     En5   v100
        BYTE   W12
        BYTE           VOL     75
        BYTE   W04
        BYTE                   74
        BYTE   W08
        BYTE                   73
        BYTE   W08
        BYTE                   72
        BYTE   W08
        BYTE                   70
        BYTE   W08
        BYTE                   69
        BYTE   W04
        BYTE                   68
        BYTE   W08
        BYTE                   67
        BYTE   W04
        BYTE                   66
        BYTE   W04
        BYTE                   65
        BYTE   W04
        BYTE                   64
        BYTE   W04
        BYTE                   62
        BYTE   W08
// 069   ----------------------------------------
        BYTE                   60
        BYTE           N12     En5   v050
        BYTE   W04
        BYTE           VOL     59
        BYTE   W04
        BYTE                   58
        BYTE   W04
        BYTE                   57
        BYTE           N12     En5   v040
        BYTE   W04
        BYTE           VOL     56
        BYTE   W04
        BYTE                   54
        BYTE   W04
        BYTE                   53
        BYTE           N12     En5   v035
        BYTE   W04
        BYTE           VOL     52
        BYTE   W04
        BYTE                   50
        BYTE   W04
        BYTE                   48
        BYTE           N12     En5   v030
        BYTE   W04
        BYTE           VOL     47
        BYTE   W04
        BYTE                   46
        BYTE   W04
        BYTE                   44
        BYTE   W04
        BYTE                   42
        BYTE   W04
        BYTE                   41
        BYTE   W04
        BYTE                   39
        BYTE   W36
// 070   ----------------------------------------
        BYTE   W96
// 071   ----------------------------------------
        BYTE   W96
// 072   ----------------------------------------
        BYTE   W96
// 073   ----------------------------------------
        BYTE   W96
// 074   ----------------------------------------
        BYTE   W96
// 075   ----------------------------------------
        BYTE   W96
// 076   ----------------------------------------
        BYTE   W96
// 077   ----------------------------------------
        BYTE   W96
// 078   ----------------------------------------
        BYTE   W96
// 079   ----------------------------------------
        BYTE   W96
// 080   ----------------------------------------
        BYTE   W96
// 081   ----------------------------------------
        BYTE   W96
// 082   ----------------------------------------
        BYTE   W96
// 083   ----------------------------------------
        BYTE   W96
// 084   ----------------------------------------
        BYTE   W96
// 085   ----------------------------------------
        BYTE   W96
// 086   ----------------------------------------
        BYTE   W96
// 087   ----------------------------------------
        BYTE   W24
        BYTE                   80
        BYTE   W72
// 088   ----------------------------------------
        BYTE           N24     Fs4   v127
        BYTE   W24
        BYTE   GoTo
         POIN2  IntheMorningSun_7_LOOP
        BYTE   FINE

//****************** Track 8 (Midi-Chn.8) ******************//

IntheMorningSun_8:
        BYTE   KEYSH   IntheMorningSun_key+0
// 000   ----------------------------------------
        BYTE           VOICE   11
        BYTE           PAN     c_v+63
        BYTE           VOL     38
        BYTE   W24
        BYTE           N17     Bn4   v100
        BYTE   W24
        BYTE           N30     Fs5   v100   gtp1
        BYTE   W48
// 001   ----------------------------------------
IntheMorningSun_8_1:
        BYTE           N17     Fs5   v100
        BYTE   W24
        BYTE           N07     Gn5   v097
        BYTE   W12
        BYTE           N42     An5   v092   gtp1
        BYTE   W60
        BYTE   PEND
// 002   ----------------------------------------
IntheMorningSun_8_2:
        BYTE           N17     An5   v100
        BYTE   W24
        BYTE           N07     Cs6
        BYTE   W12
        BYTE           TIE     Dn6   v060
        BYTE   W60
        BYTE   PEND
// 003   ----------------------------------------
        BYTE   W92
        BYTE           EOT
        BYTE   W04
// 004   ----------------------------------------
        BYTE   W24
        BYTE           N17     Bn4   v100
        BYTE   W24
        BYTE           N30     Fs5   v100   gtp1
        BYTE   W48
// 005   ----------------------------------------
        BYTE   PATT
         POIN2  IntheMorningSun_8_1
// 006   ----------------------------------------
        BYTE   PATT
         POIN2  IntheMorningSun_8_2
// 007   ----------------------------------------
        BYTE   W92
        BYTE           EOT     Dn6
        BYTE   W04
// 008   ----------------------------------------
        BYTE   W96
// 009   ----------------------------------------
        BYTE   W96
// 010   ----------------------------------------
        BYTE   W96
// 011   ----------------------------------------
        BYTE   W96
// 012   ----------------------------------------
        BYTE   W96
// 013   ----------------------------------------
        BYTE   W96
// 014   ----------------------------------------
        BYTE   W96
// 015   ----------------------------------------
        BYTE   W96
// 016   ----------------------------------------
        BYTE   W96
// 017   ----------------------------------------
        BYTE   W96
// 018   ----------------------------------------
        BYTE   W24
IntheMorningSun_8_LOOP:
        BYTE   W72
// 019   ----------------------------------------
        BYTE   W96
// 020   ----------------------------------------
        BYTE   W96
// 021   ----------------------------------------
        BYTE   W96
// 022   ----------------------------------------
        BYTE   W96
// 023   ----------------------------------------
        BYTE   W96
// 024   ----------------------------------------
        BYTE   W96
// 025   ----------------------------------------
        BYTE   W96
// 026   ----------------------------------------
        BYTE   W96
// 027   ----------------------------------------
        BYTE   W96
// 028   ----------------------------------------
        BYTE   W96
// 029   ----------------------------------------
        BYTE   W96
// 030   ----------------------------------------
        BYTE   W96
// 031   ----------------------------------------
        BYTE   W96
// 032   ----------------------------------------
IntheMorningSun_8_32:
        BYTE   W24
        BYTE           PAN     c_v+0
        BYTE           VOL     94
        BYTE   W72
        BYTE   PEND
// 033   ----------------------------------------
        BYTE   W72
        BYTE           N12     Dn4   v115
        BYTE   W12
        BYTE                   En4
        BYTE   W12
// 034   ----------------------------------------
        BYTE                   Fs4
        BYTE   W12
        BYTE                   Gn4
        BYTE   W12
        BYTE           N48     An4
        BYTE   W48
        BYTE           N12     An4   v080
        BYTE   W12
        BYTE                   An4   v060
        BYTE   W12
// 035   ----------------------------------------
        BYTE                   Dn4   v115
        BYTE   W12
        BYTE           N84
        BYTE   W84
// 036   ----------------------------------------
        BYTE           N12     Dn4   v080
        BYTE   W12
        BYTE                   Dn4   v060
        BYTE   W12
        BYTE           N24     Cn4   v115
        BYTE   W24
        BYTE           N12     Fn4
        BYTE   W12
        BYTE           N24
        BYTE   W24
        BYTE           N12     Cn4
        BYTE   W12
// 037   ----------------------------------------
        BYTE                   Cn4   v080
        BYTE   W12
        BYTE           N84     Cn4   v115
        BYTE   W84
// 038   ----------------------------------------
        BYTE           N12     Cn4   v080
        BYTE   W12
        BYTE                   Cn4   v060
        BYTE   W12
        BYTE           N24     As3   v115
        BYTE   W24
        BYTE           N12     Fn4
        BYTE   W12
        BYTE           N24
        BYTE   W24
        BYTE           N12     Fn4   v080
        BYTE   W12
// 039   ----------------------------------------
        BYTE                   Fn4   v060
        BYTE   W12
        BYTE                   Fn4   v050
        BYTE   W12
        BYTE           N24     Cn4   v115
        BYTE   W24
        BYTE           N12     Gn4
        BYTE   W12
        BYTE           N24
        BYTE   W24
        BYTE           N12     Gn4   v080
        BYTE   W12
// 040   ----------------------------------------
        BYTE                   Gn4   v060
        BYTE   W12
        BYTE                   Gn4   v050
        BYTE   W12
        BYTE           N24     Dn4   v115
        BYTE   W24
        BYTE           N12     An4
        BYTE   W12
        BYTE           N24
        BYTE   W24
        BYTE           N12     Gn4
        BYTE   W12
// 041   ----------------------------------------
        BYTE                   Gn4   v080
        BYTE   W12
        BYTE           N40     An4   v115   gtp1
        BYTE   W60
        BYTE           N12     En4   v110
        BYTE           N12     Gn4
        BYTE   W12
        BYTE                   Fs4
        BYTE           N12     An4
        BYTE   W12
// 042   ----------------------------------------
        BYTE                   Gn4
        BYTE           N12     As4
        BYTE   W12
        BYTE                   An4
        BYTE           N12     Cn5
        BYTE   W12
        BYTE           N24     As4
        BYTE           N24     Dn5
        BYTE   W24
        BYTE           N12     Gn4
        BYTE           N12     As4
        BYTE   W12
        BYTE           N36     Gn4
        BYTE           N36     As4
        BYTE   W36
// 043   ----------------------------------------
        BYTE           N12     Gn4   v080
        BYTE           N12     As4
        BYTE   W12
        BYTE                   Gn4   v060
        BYTE           N12     As4
        BYTE   W12
        BYTE           N24     Cn5   v110
        BYTE           N24     Fn5
        BYTE   W24
        BYTE           N12     An4
        BYTE           N12     Cn5
        BYTE   W12
        BYTE           N36     An4
        BYTE           N36     Cn5
        BYTE   W36
// 044   ----------------------------------------
        BYTE           N12     An4   v080
        BYTE           N12     Cn5
        BYTE   W12
        BYTE                   An4   v060
        BYTE           N12     Cn5
        BYTE   W12
        BYTE           N24     Cn5   v110
        BYTE           N24     Gn5
        BYTE   W24
        BYTE           N12     Bn4
        BYTE           N12     Dn5
        BYTE   W12
        BYTE           N24     Bn4
        BYTE           N24     Dn5
        BYTE   W24
        BYTE           N12     An4
        BYTE           N12     Cn5
        BYTE   W12
// 045   ----------------------------------------
        BYTE                   An4   v080
        BYTE           N12     Cn5
        BYTE   W12
        BYTE           N60     Bn4   v110
        BYTE           N60     Dn5
        BYTE   W60
        BYTE           N12     Bn4   v080
        BYTE           N12     Dn5
        BYTE   W12
        BYTE                   Bn4   v060
        BYTE           N12     Dn5
        BYTE   W12
// 046   ----------------------------------------
        BYTE           N24     Bn4   v110
        BYTE           N24     Dn5
        BYTE   W24
        BYTE           TIE     As4
        BYTE           TIE     Ds5
        BYTE   W72
// 047   ----------------------------------------
        BYTE   W96
// 048   ----------------------------------------
        BYTE   W96
// 049   ----------------------------------------
        BYTE           EOT     As4
        BYTE                   Ds5
        BYTE           N12     As4   v080
        BYTE           N12     Ds5
        BYTE   W12
        BYTE                   As4   v060
        BYTE           N12     Ds5
        BYTE   W12
        BYTE           N24     As4   v110
        BYTE           N24     Ds5
        BYTE   W24
        BYTE           N12     As4
        BYTE           N12     Dn5
        BYTE   W12
        BYTE                   An4
        BYTE           N12     Cn5
        BYTE   W12
        BYTE                   An4   v080
        BYTE           N12     Cn5
        BYTE   W12
        BYTE                   As4   v110
        BYTE           N12     Ds5
        BYTE   W12
// 050   ----------------------------------------
        BYTE                   As4   v080
        BYTE           N12     Ds5
        BYTE   W12
        BYTE           TIE     An4   v110
        BYTE           TIE     Dn5
        BYTE   W84
// 051   ----------------------------------------
        BYTE   W96
// 052   ----------------------------------------
        BYTE   W96
// 053   ----------------------------------------
        BYTE   W24
        BYTE           EOT     An4
        BYTE                   Dn5
        BYTE   W72
// 054   ----------------------------------------
        BYTE           N12     Bn3
        BYTE   W12
        BYTE                   Bn3   v080
        BYTE   W12
        BYTE           N36     Fs4   v110
        BYTE   W36
        BYTE           N12     Fs4   v080
        BYTE   W12
        BYTE                   Fs4   v110
        BYTE   W12
        BYTE                   Fs4   v080
        BYTE   W12
// 055   ----------------------------------------
IntheMorningSun_8_55:
        BYTE           N12     Gn4   v110
        BYTE   W12
        BYTE           N48     An4
        BYTE   W48
        BYTE           N12     An4   v080
        BYTE   W12
        BYTE                   An4   v110
        BYTE   W12
        BYTE                   An4   v080
        BYTE   W12
        BYTE   PEND
// 056   ----------------------------------------
        BYTE                   Cs5   v110
        BYTE   W12
        BYTE           TIE     Dn5
        BYTE   W40
        BYTE           VOL     92
        BYTE   W04
        BYTE                   91
        BYTE   W08
        BYTE                   90
        BYTE   W08
        BYTE                   89
        BYTE   W04
        BYTE                   88
        BYTE   W08
        BYTE                   87
        BYTE   W12
// 057   ----------------------------------------
        BYTE   W08
        BYTE                   86
        BYTE   W12
        BYTE                   85
        BYTE   W12
        BYTE                   84
        BYTE   W08
        BYTE                   83
        BYTE   W08
        BYTE                   82
        BYTE   W04
        BYTE                   81
        BYTE   W04
        BYTE                   80
        BYTE   W08
        BYTE                   79
        BYTE   W04
        BYTE                   77
        BYTE   W04
        BYTE           EOT
        BYTE           VOL     76
        BYTE           N12     Dn5   v080
        BYTE   W04
        BYTE           VOL     74
        BYTE   W04
        BYTE                   72
        BYTE   W04
        BYTE                   70
        BYTE           N12     Dn5   v060
        BYTE   W04
        BYTE           VOL     68
        BYTE   W04
        BYTE                   67
        BYTE   W04
// 058   ----------------------------------------
        BYTE                   72
        BYTE           N12     Bn4   v110
        BYTE   W04
        BYTE           VOL     75
        BYTE   W04
        BYTE                   76
        BYTE   W04
        BYTE                   78
        BYTE           N12     Bn4   v080
        BYTE   W04
        BYTE           VOL     80
        BYTE   W08
        BYTE                   81
        BYTE           N24     Fs5   v110
        BYTE   W04
        BYTE           VOL     82
        BYTE   W04
        BYTE                   83
        BYTE   W08
        BYTE                   85
        BYTE   W04
        BYTE                   86
        BYTE   W04
        BYTE                   87
        BYTE           N12     En5
        BYTE   W08
        BYTE           VOL     88
        BYTE   W04
        BYTE                   89
        BYTE           N24
        BYTE   W04
        BYTE           VOL     90
        BYTE   W08
        BYTE                   91
        BYTE   W08
        BYTE                   92
        BYTE   W04
        BYTE                   93
        BYTE           N12     En5   v080
        BYTE   W08
        BYTE           VOL     94
        BYTE   W04
// 059   ----------------------------------------
        BYTE           N12     Bn4   v110
        BYTE   W12
        BYTE                   Bn4   v080
        BYTE   W12
        BYTE           N24     Fs5   v110
        BYTE   W24
        BYTE           N12     En5
        BYTE   W12
        BYTE           N24
        BYTE   W24
        BYTE           N12     En5   v080
        BYTE   W12
// 060   ----------------------------------------
        BYTE                   Bn4   v110
        BYTE   W12
        BYTE                   Bn4   v080
        BYTE   W12
        BYTE           N24     Gn5   v110
        BYTE   W24
        BYTE           N12     Fs5
        BYTE   W12
        BYTE           N24
        BYTE   W24
        BYTE           N12     En5
        BYTE   W12
// 061   ----------------------------------------
        BYTE                   En5   v080
        BYTE   W12
        BYTE           N60     Fs5   v110
        BYTE   W20
        BYTE           VOL     93
        BYTE   W04
        BYTE                   92
        BYTE   W04
        BYTE                   91
        BYTE   W08
        BYTE                   89
        BYTE   W04
        BYTE                   88
        BYTE   W04
        BYTE                   87
        BYTE   W04
        BYTE                   85
        BYTE   W04
        BYTE                   83
        BYTE   W04
        BYTE                   82
        BYTE   W04
        BYTE                   80
        BYTE           N12     Fs5   v080
        BYTE   W04
        BYTE           VOL     78
        BYTE   W04
        BYTE                   76
        BYTE   W04
        BYTE                   73
        BYTE           N12     Fs5   v060
        BYTE   W04
        BYTE           VOL     71
        BYTE   W08
// 062   ----------------------------------------
        BYTE                   89
        BYTE           N12     Bn3   v110
        BYTE   W04
        BYTE           VOL     91
        BYTE   W08
        BYTE                   92
        BYTE           N12     Bn3   v080
        BYTE   W04
        BYTE           VOL     93
        BYTE   W08
        BYTE                   94
        BYTE           N36     Fs4   v110
        BYTE   W36
        BYTE           N12     Fs4   v080
        BYTE   W12
        BYTE                   Fs4   v110
        BYTE   W12
        BYTE                   Fs4   v080
        BYTE   W12
// 063   ----------------------------------------
        BYTE   PATT
         POIN2  IntheMorningSun_8_55
// 064   ----------------------------------------
        BYTE           N12     Cs5   v110
        BYTE   W12
        BYTE           N60     Dn5
        BYTE   W60
        BYTE           N12     Cs5
        BYTE   W12
        BYTE                   Cs5   v080
        BYTE   W12
// 065   ----------------------------------------
        BYTE                   Dn5   v110
        BYTE   W12
        BYTE           N60     Fs5
        BYTE   W28
        BYTE           VOL     93
        BYTE   W04
        BYTE                   92
        BYTE   W04
        BYTE                   91
        BYTE   W04
        BYTE                   90
        BYTE   W04
        BYTE                   88
        BYTE   W04
        BYTE                   86
        BYTE   W04
        BYTE                   83
        BYTE   W04
        BYTE                   81
        BYTE   W04
        BYTE                   79
        BYTE           N12     Fs5   v080
        BYTE   W04
        BYTE           VOL     76
        BYTE   W04
        BYTE                   72
        BYTE   W04
        BYTE                   69
        BYTE           N12     Fs5   v060
        BYTE   W04
        BYTE           VOL     65
        BYTE   W08
// 066   ----------------------------------------
        BYTE                   88
        BYTE           N12     Bn4   v110
        BYTE   W04
        BYTE           VOL     90
        BYTE   W04
        BYTE                   91
        BYTE   W04
        BYTE           N12     Bn4   v080
        BYTE   W08
        BYTE           VOL     92
        BYTE   W04
        BYTE           N24     Fs5   v110
        BYTE   W04
        BYTE           VOL     93
        BYTE   W12
        BYTE                   94
        BYTE   W08
        BYTE           N12     En5
        BYTE   W12
        BYTE           N24
        BYTE   W24
        BYTE           N12     En5   v080
        BYTE   W12
// 067   ----------------------------------------
        BYTE                   Bn4   v110
        BYTE   W12
        BYTE                   Bn4   v080
        BYTE   W12
        BYTE           N24     Fs5   v110
        BYTE   W24
        BYTE           N12     En5
        BYTE   W12
        BYTE           N24
        BYTE   W24
        BYTE           N12     Dn5
        BYTE   W12
// 068   ----------------------------------------
        BYTE                   Dn5   v080
        BYTE   W12
        BYTE           N84     En5   v110
        BYTE   W12
        BYTE           VOL     92
        BYTE   W04
        BYTE                   91
        BYTE   W12
        BYTE                   90
        BYTE   W08
        BYTE                   89
        BYTE   W04
        BYTE                   88
        BYTE   W12
        BYTE                   87
        BYTE   W16
        BYTE                   86
        BYTE   W04
        BYTE                   85
        BYTE   W04
        BYTE                   84
        BYTE   W04
        BYTE                   83
        BYTE   W04
// 069   ----------------------------------------
        BYTE                   81
        BYTE           N12     En5   v080
        BYTE   W04
        BYTE           VOL     80
        BYTE   W04
        BYTE                   79
        BYTE   W04
        BYTE                   76
        BYTE           N12     En5   v060
        BYTE   W04
        BYTE           VOL     74
        BYTE   W04
        BYTE                   72
        BYTE   W04
        BYTE                   83
        BYTE           N24     Gn4   v110
        BYTE           N24     Gn5
        BYTE   W04
        BYTE           VOL     86
        BYTE   W04
        BYTE                   87
        BYTE   W04
        BYTE                   88
        BYTE   W08
        BYTE                   89
        BYTE   W04
        BYTE                   90
        BYTE           N12     Fs4
        BYTE           N12     Fs5
        BYTE   W04
        BYTE           VOL     91
        BYTE   W08
        BYTE           N24     Fs4
        BYTE           N24     Fs5
        BYTE   W08
        BYTE           VOL     92
        BYTE   W08
        BYTE                   93
        BYTE   W08
        BYTE                   94
        BYTE           N12     En4
        BYTE           N12     En5
        BYTE   W12
// 070   ----------------------------------------
        BYTE                   En4   v080
        BYTE           N12     En5
        BYTE   W12
        BYTE           TIE     Fs4   v110
        BYTE           TIE     Fs5
        BYTE   W72
        BYTE           VOL     91
        BYTE   W06
        BYTE                   89
        BYTE   W06
// 071   ----------------------------------------
        BYTE                   86
        BYTE   W06
        BYTE                   83
        BYTE   W06
        BYTE                   80
        BYTE   W06
        BYTE                   78
        BYTE   W06
        BYTE                   76
        BYTE   W06
        BYTE                   72
        BYTE   W06
        BYTE                   69
        BYTE   W06
        BYTE                   67
        BYTE   W06
        BYTE                   65
        BYTE   W06
        BYTE                   62
        BYTE   W06
        BYTE                   59
        BYTE   W06
        BYTE                   56
        BYTE   W06
        BYTE                   54
        BYTE   W06
        BYTE                   51
        BYTE   W06
        BYTE                   48
        BYTE   W06
        BYTE                   46
        BYTE   W06
// 072   ----------------------------------------
        BYTE                   43
        BYTE   W06
        BYTE                   40
        BYTE   W06
        BYTE                   38
        BYTE   W12
        BYTE           EOT     Fs4
        BYTE                   Fs5
        BYTE   W72
// 073   ----------------------------------------
        BYTE   W96
// 074   ----------------------------------------
        BYTE   W96
// 075   ----------------------------------------
        BYTE   W96
// 076   ----------------------------------------
        BYTE   W96
// 077   ----------------------------------------
        BYTE   W96
// 078   ----------------------------------------
        BYTE   W96
// 079   ----------------------------------------
        BYTE   W96
// 080   ----------------------------------------
        BYTE   W96
// 081   ----------------------------------------
        BYTE   W96
// 082   ----------------------------------------
        BYTE   W96
// 083   ----------------------------------------
        BYTE   W96
// 084   ----------------------------------------
        BYTE   W96
// 085   ----------------------------------------
        BYTE   W96
// 086   ----------------------------------------
        BYTE   W96
// 087   ----------------------------------------
        BYTE   W96
// 088   ----------------------------------------
        BYTE   W24
        BYTE           PAN     c_v+63
        BYTE   GoTo
         POIN2  IntheMorningSun_8_LOOP
        BYTE   FINE

//****************** Track 9 (Midi-Chn.9) ******************//

IntheMorningSun_9:
        BYTE   KEYSH   IntheMorningSun_key+0
// 000   ----------------------------------------
        BYTE           PAN     c_v-14
        BYTE           VOL     80
        BYTE           VOICE   65
        BYTE   W96
// 001   ----------------------------------------
        BYTE   W96
// 002   ----------------------------------------
        BYTE   W96
// 003   ----------------------------------------
        BYTE   W96
// 004   ----------------------------------------
        BYTE   W96
// 005   ----------------------------------------
        BYTE   W96
// 006   ----------------------------------------
        BYTE   W96
// 007   ----------------------------------------
        BYTE   W96
// 008   ----------------------------------------
        BYTE           N24     Dn2   v082
        BYTE   W24
        BYTE           N48     An2
        BYTE   W48
        BYTE           N24
        BYTE   W24
// 009   ----------------------------------------
        BYTE           N12     Bn2
        BYTE   W12
        BYTE           N54     An2
        BYTE   W54
        BYTE           N05     An2   v045
        BYTE   W06
        BYTE           N42     Gn2   v082   gtp1
        BYTE   W24
// 010   ----------------------------------------
        BYTE   W19
        BYTE           N01     Gn2   v043
        BYTE   W05
        BYTE           N42     Fs2   v082   gtp1
        BYTE   W44
        BYTE           N04     Fs2   v035
        BYTE   W04
        BYTE           N44     Bn2   v082
        BYTE   W24
// 011   ----------------------------------------
        BYTE   W20
        BYTE           N01     Bn2   v035
        BYTE   W04
        BYTE           N44     Dn3   v082
        BYTE   W44
        BYTE           N04     Dn3   v035
        BYTE   W04
        BYTE           N44     En3   v082
        BYTE   W24
// 012   ----------------------------------------
        BYTE   W20
        BYTE           N04     En3   v035
        BYTE   W04
        BYTE           N66     Fs3   v082
        BYTE   W66
        BYTE           N01     Fs3   v035
        BYTE   W06
// 013   ----------------------------------------
IntheMorningSun_9_13:
        BYTE           N12     En3   v082
        BYTE   W12
        BYTE           N84
        BYTE   W84
        BYTE   PEND
// 014   ----------------------------------------
        BYTE           N12     En3   v035
        BYTE   W12
        BYTE                   En3   v015
        BYTE   W12
        BYTE           N60     Fs3   v082
        BYTE   W60
        BYTE           N12     Fs3   v035
        BYTE   W12
// 015   ----------------------------------------
        BYTE   PATT
         POIN2  IntheMorningSun_9_13
// 016   ----------------------------------------
        BYTE           N12     En3   v035
        BYTE   W12
        BYTE                   En3   v015
        BYTE   W12
        BYTE           TIE     An3   v082
        BYTE   W06
        BYTE           VOL     78
        BYTE   W06
        BYTE                   75
        BYTE   W06
        BYTE                   72
        BYTE   W06
        BYTE                   70
        BYTE   W06
        BYTE                   68
        BYTE   W06
        BYTE                   65
        BYTE   W06
        BYTE                   62
        BYTE   W06
        BYTE                   60
        BYTE   W06
        BYTE                   57
        BYTE   W06
        BYTE                   55
        BYTE   W06
        BYTE                   52
        BYTE   W06
// 017   ----------------------------------------
        BYTE                   50
        BYTE   W06
        BYTE                   47
        BYTE   W06
        BYTE                   45
        BYTE   W06
        BYTE                   42
        BYTE   W06
        BYTE                   39
        BYTE   W06
        BYTE                   37
        BYTE   W06
        BYTE                   35
        BYTE   W06
        BYTE                   32
        BYTE   W06
        BYTE           EOT
        BYTE           VOL     29
        BYTE           N12     An3   v035
        BYTE   W12
        BYTE                   An3   v015
        BYTE   W36
// 018   ----------------------------------------
        BYTE   W24
IntheMorningSun_9_LOOP:
        BYTE   W72
// 019   ----------------------------------------
        BYTE   W96
// 020   ----------------------------------------
        BYTE   W96
// 021   ----------------------------------------
        BYTE   W96
// 022   ----------------------------------------
        BYTE   W96
// 023   ----------------------------------------
        BYTE   W96
// 024   ----------------------------------------
        BYTE   W96
// 025   ----------------------------------------
        BYTE   W96
// 026   ----------------------------------------
        BYTE   W96
// 027   ----------------------------------------
        BYTE   W96
// 028   ----------------------------------------
        BYTE   W96
// 029   ----------------------------------------
        BYTE   W96
// 030   ----------------------------------------
        BYTE   W96
// 031   ----------------------------------------
        BYTE   W96
// 032   ----------------------------------------
        BYTE   W96
// 033   ----------------------------------------
        BYTE   W96
// 034   ----------------------------------------
        BYTE   W96
// 035   ----------------------------------------
        BYTE   W96
// 036   ----------------------------------------
        BYTE   W96
// 037   ----------------------------------------
        BYTE   W96
// 038   ----------------------------------------
        BYTE   W96
// 039   ----------------------------------------
        BYTE   W96
// 040   ----------------------------------------
        BYTE   W96
// 041   ----------------------------------------
        BYTE   W24
        BYTE           VOL     67
        BYTE   W48
        BYTE           N12     Gn2   v094
        BYTE   W12
        BYTE                   An2
        BYTE   W12
// 042   ----------------------------------------
        BYTE                   As2
        BYTE   W12
        BYTE                   Cn3
        BYTE   W12
        BYTE           N24     Dn3
        BYTE   W24
        BYTE           N12     As2
        BYTE   W12
        BYTE           N36
        BYTE   W36
// 043   ----------------------------------------
        BYTE           N12     As2   v063
        BYTE   W12
        BYTE                   As2   v043
        BYTE   W12
        BYTE                   Fn3   v094
        BYTE   W12
        BYTE                   Fn3   v063
        BYTE   W12
        BYTE                   Cn3   v094
        BYTE   W12
        BYTE           N36
        BYTE   W36
// 044   ----------------------------------------
        BYTE           N12     Cn3   v063
        BYTE   W12
        BYTE                   Cn3   v043
        BYTE   W12
        BYTE           N24     Gn3   v094
        BYTE   W24
        BYTE           N12     Dn3
        BYTE   W12
        BYTE           N24
        BYTE   W24
        BYTE           N12     Cn3
        BYTE   W12
// 045   ----------------------------------------
        BYTE                   Cn3   v063
        BYTE   W12
        BYTE           N60     Dn3   v094
        BYTE   W60
        BYTE           N12     Cn3   v063
        BYTE   W12
        BYTE                   Cn3   v043
        BYTE   W12
// 046   ----------------------------------------
        BYTE           N24     Dn3   v094
        BYTE   W24
        BYTE           TIE     Ds3
        BYTE   W72
// 047   ----------------------------------------
        BYTE   W96
// 048   ----------------------------------------
        BYTE   W96
// 049   ----------------------------------------
        BYTE           EOT
        BYTE           N12     Ds3   v063
        BYTE   W12
        BYTE                   Ds3   v043
        BYTE   W12
        BYTE           N24     Ds3   v094
        BYTE   W24
        BYTE           N12     Dn3
        BYTE   W12
        BYTE                   Cn3
        BYTE   W12
        BYTE                   Cn3   v063
        BYTE   W12
        BYTE                   Ds3   v094
        BYTE   W12
// 050   ----------------------------------------
        BYTE   W12
        BYTE                   Ds3   v063
        BYTE           TIE     Dn3   v094
        BYTE   W42
        BYTE           VOL     66
        BYTE   W12
        BYTE                   64
        BYTE   W12
        BYTE                   62
        BYTE   W12
        BYTE                   60
        BYTE   W06
// 051   ----------------------------------------
        BYTE   W06
        BYTE                   58
        BYTE   W06
        BYTE                   57
        BYTE   W18
        BYTE                   55
        BYTE   W06
        BYTE                   54
        BYTE   W06
        BYTE                   53
        BYTE   W06
        BYTE                   52
        BYTE   W06
        BYTE                   51
        BYTE   W06
        BYTE                   50
        BYTE   W06
        BYTE                   48
        BYTE   W12
        BYTE                   47
        BYTE   W06
        BYTE                   46
        BYTE   W12
// 052   ----------------------------------------
        BYTE                   44
        BYTE   W06
        BYTE                   43
        BYTE   W06
        BYTE                   42
        BYTE   W06
        BYTE                   41
        BYTE   W06
        BYTE                   40
        BYTE   W06
        BYTE                   39
        BYTE   W06
        BYTE                   38
        BYTE   W06
        BYTE                   37
        BYTE   W06
        BYTE                   36
        BYTE   W06
        BYTE                   35
        BYTE   W06
        BYTE                   34
        BYTE   W06
        BYTE                   33
        BYTE   W12
        BYTE                   31
        BYTE   W12
        BYTE                   29
        BYTE   W06
// 053   ----------------------------------------
        BYTE                   28
        BYTE   W06
        BYTE                   27
        BYTE   W12
        BYTE                   25
        BYTE   W06
        BYTE           EOT
        BYTE           N12     Dn3   v063
        BYTE   W06
        BYTE           VOL     23
        BYTE   W06
        BYTE           N12     Dn3   v043
        BYTE   W12
        BYTE           VOL     21
        BYTE   W06
        BYTE                   20
        BYTE   W06
        BYTE                   19
        BYTE   W06
        BYTE                   18
        BYTE   W06
        BYTE                   17
        BYTE   W06
        BYTE                   16
        BYTE   W06
        BYTE                   15
        BYTE   W12
// 054   ----------------------------------------
        BYTE   W96
// 055   ----------------------------------------
        BYTE   W96
// 056   ----------------------------------------
        BYTE   W08
        BYTE                   80
        BYTE   W88
// 057   ----------------------------------------
        BYTE   W96
// 058   ----------------------------------------
        BYTE   W96
// 059   ----------------------------------------
        BYTE   W96
// 060   ----------------------------------------
        BYTE   W96
// 061   ----------------------------------------
        BYTE   W96
// 062   ----------------------------------------
        BYTE   W96
// 063   ----------------------------------------
        BYTE   W96
// 064   ----------------------------------------
        BYTE   W96
// 065   ----------------------------------------
        BYTE   W96
// 066   ----------------------------------------
        BYTE   W96
// 067   ----------------------------------------
        BYTE   W96
// 068   ----------------------------------------
        BYTE   W96
// 069   ----------------------------------------
        BYTE   W96
// 070   ----------------------------------------
        BYTE   W96
// 071   ----------------------------------------
        BYTE   W96
// 072   ----------------------------------------
        BYTE   W96
// 073   ----------------------------------------
        BYTE   W96
// 074   ----------------------------------------
        BYTE   W96
// 075   ----------------------------------------
        BYTE   W96
// 076   ----------------------------------------
        BYTE   W96
// 077   ----------------------------------------
        BYTE   W96
// 078   ----------------------------------------
        BYTE           N24     Dn2   v095
        BYTE   W24
        BYTE           N48     An2
        BYTE   W48
        BYTE           N24
        BYTE   W24
// 079   ----------------------------------------
        BYTE           N12     Bn2
        BYTE   W12
        BYTE           N36     An2
        BYTE   W36
        BYTE           N12     An2   v063
        BYTE   W12
        BYTE                   An2   v043
        BYTE   W12
        BYTE           N48     Gn2   v095
        BYTE   W24
// 080   ----------------------------------------
        BYTE   W24
        BYTE           N36     Fs2
        BYTE   W36
        BYTE           N12     Fs2   v063
        BYTE   W12
        BYTE           N36     Bn2   v095
        BYTE   W24
// 081   ----------------------------------------
        BYTE   W12
        BYTE           N12     Bn2   v063
        BYTE   W12
        BYTE           N36     Dn3   v095
        BYTE   W36
        BYTE           N12     Dn3   v063
        BYTE   W12
        BYTE           N36     En3   v095
        BYTE   W24
// 082   ----------------------------------------
        BYTE   W12
        BYTE           N12     En3   v063
        BYTE   W12
        BYTE           N60     Fs3   v095
        BYTE   W60
        BYTE           N12     Fs3   v063
        BYTE   W12
// 083   ----------------------------------------
IntheMorningSun_9_83:
        BYTE           N12     En3   v095
        BYTE   W12
        BYTE           N84
        BYTE   W84
        BYTE   PEND
// 084   ----------------------------------------
        BYTE           N12     En3   v063
        BYTE   W12
        BYTE                   En3   v043
        BYTE   W12
        BYTE           N60     Fs3   v095
        BYTE   W60
        BYTE           N12     Fs3   v063
        BYTE   W12
// 085   ----------------------------------------
        BYTE   PATT
         POIN2  IntheMorningSun_9_83
// 086   ----------------------------------------
        BYTE           N12     En3   v063
        BYTE   W12
        BYTE                   En3   v043
        BYTE   W12
        BYTE           TIE     An3   v095
        BYTE   W18
        BYTE           VOL     78
        BYTE   W06
        BYTE                   76
        BYTE   W06
        BYTE                   74
        BYTE   W06
        BYTE                   72
        BYTE   W06
        BYTE                   70
        BYTE   W06
        BYTE                   68
        BYTE   W06
        BYTE                   66
        BYTE   W06
        BYTE                   64
        BYTE   W06
        BYTE                   62
        BYTE   W06
// 087   ----------------------------------------
        BYTE                   60
        BYTE   W06
        BYTE                   58
        BYTE   W06
        BYTE                   57
        BYTE   W06
        BYTE                   55
        BYTE   W06
        BYTE                   53
        BYTE   W06
        BYTE                   50
        BYTE   W06
        BYTE                   49
        BYTE   W06
        BYTE                   47
        BYTE   W06
        BYTE           EOT
        BYTE           VOL     45
        BYTE           N12     An3   v063
        BYTE   W06
        BYTE           VOL     43
        BYTE   W06
        BYTE                   41
        BYTE           N12     An3   v043
        BYTE   W06
        BYTE           VOL     39
        BYTE   W06
        BYTE                   37
        BYTE   W06
        BYTE                   35
        BYTE   W06
        BYTE                   33
        BYTE   W06
        BYTE                   31
        BYTE   W06
// 088   ----------------------------------------
        BYTE   W24
        BYTE                   29
        BYTE   GoTo
         POIN2  IntheMorningSun_9_LOOP
        BYTE   FINE

//***************** Track 10 (Midi-Chn.10) *****************//

IntheMorningSun_10:
        BYTE   KEYSH   IntheMorningSun_key+0
// 000   ----------------------------------------
        BYTE           VOICE   13
        BYTE           VOL     94
        BYTE   W96
// 001   ----------------------------------------
        BYTE   W96
// 002   ----------------------------------------
        BYTE   W96
// 003   ----------------------------------------
        BYTE   W96
// 004   ----------------------------------------
        BYTE   W96
// 005   ----------------------------------------
        BYTE   W96
// 006   ----------------------------------------
        BYTE   W24
        BYTE           PAN     c_v-64
        BYTE           VOL     43
        BYTE   W72
// 007   ----------------------------------------
        BYTE   W96
// 008   ----------------------------------------
        BYTE   W24
        BYTE           N24     Dn4   v071
        BYTE   W24
        BYTE           N36     An4
        BYTE   W36
        BYTE           N12     An4   v025
        BYTE   W12
// 009   ----------------------------------------
        BYTE           N24     An4   v071
        BYTE   W24
        BYTE           N12     Bn4
        BYTE   W12
        BYTE           N36     An4
        BYTE   W36
        BYTE           N12
        BYTE   W12
        BYTE                   An4   v035
        BYTE   W12
// 010   ----------------------------------------
        BYTE           N48     Gn4   v071
        BYTE   W48
        BYTE           N42     Fs4
        BYTE   W42
        BYTE           N01     Fs4   v030
        BYTE   W06
// 011   ----------------------------------------
        BYTE           N36     Bn4   v071
        BYTE   W36
        BYTE           N12     Bn4   v029
        BYTE   W12
        BYTE           N36     Dn5   v071
        BYTE   W36
        BYTE           N12     Dn5   v031
        BYTE   W12
// 012   ----------------------------------------
        BYTE           N36     En5   v071
        BYTE   W36
        BYTE           N12     En5   v028
        BYTE   W12
        BYTE           N60     Fs5   v071
        BYTE   W48
// 013   ----------------------------------------
        BYTE   W12
        BYTE           N12     Fs5   v028
        BYTE   W12
        BYTE           N06     En5   v071
        BYTE   W06
        BYTE                   En5   v024
        BYTE   W06
        BYTE           N84     En5   v071
        BYTE   W60
// 014   ----------------------------------------
        BYTE   W24
        BYTE           N12     En5   v040
        BYTE   W12
        BYTE                   En5   v016
        BYTE   W12
        BYTE           N60     Fs5   v071
        BYTE   W48
// 015   ----------------------------------------
        BYTE   W12
        BYTE           N12     Fs5   v026
        BYTE   W12
        BYTE           N06     En5   v071
        BYTE   W06
        BYTE                   En5   v022
        BYTE   W06
        BYTE           N84     En5   v071
        BYTE   W60
// 016   ----------------------------------------
        BYTE   W24
        BYTE           N12     En5   v032
        BYTE   W12
        BYTE                   En5   v013
        BYTE   W12
        BYTE           TIE     An5   v071
        BYTE   W42
        BYTE           VOL     42
        BYTE   W06
// 017   ----------------------------------------
        BYTE                   40
        BYTE   W06
        BYTE                   39
        BYTE   W06
        BYTE                   37
        BYTE   W06
        BYTE                   36
        BYTE   W06
        BYTE                   34
        BYTE   W06
        BYTE                   32
        BYTE   W06
        BYTE                   30
        BYTE   W06
        BYTE                   29
        BYTE   W06
        BYTE                   28
        BYTE   W06
        BYTE                   26
        BYTE   W06
        BYTE                   24
        BYTE   W06
        BYTE                   23
        BYTE   W06
        BYTE                   21
        BYTE   W06
        BYTE                   19
        BYTE   W06
        BYTE                   18
        BYTE   W06
        BYTE                   16
        BYTE   W06
// 018   ----------------------------------------
        BYTE           EOT
        BYTE           VOL     15
        BYTE   W24
IntheMorningSun_10_LOOP:
        BYTE   W72
// 019   ----------------------------------------
        BYTE   W96
// 020   ----------------------------------------
        BYTE   W96
// 021   ----------------------------------------
        BYTE   W96
// 022   ----------------------------------------
        BYTE   W96
// 023   ----------------------------------------
        BYTE   W96
// 024   ----------------------------------------
        BYTE   W96
// 025   ----------------------------------------
        BYTE   W96
// 026   ----------------------------------------
        BYTE   W96
// 027   ----------------------------------------
        BYTE   W96
// 028   ----------------------------------------
        BYTE   W96
// 029   ----------------------------------------
        BYTE   W96
// 030   ----------------------------------------
        BYTE   W96
// 031   ----------------------------------------
        BYTE   W96
// 032   ----------------------------------------
        BYTE   PATT
         POIN2  IntheMorningSun_8_32
// 033   ----------------------------------------
        BYTE   W76
        BYTE   W01
        BYTE           N12     Dn4   v075
        BYTE   W12
        BYTE                   En4
        BYTE   W07
// 034   ----------------------------------------
        BYTE   W05
        BYTE                   Fs4
        BYTE   W12
        BYTE                   Gn4
        BYTE   W12
        BYTE           N48     An4
        BYTE   W48
        BYTE           N12     An4   v040
        BYTE   W12
        BYTE                   An4   v020
        BYTE   W07
// 035   ----------------------------------------
        BYTE   W05
        BYTE                   Dn4   v075
        BYTE   W12
        BYTE           N84
        BYTE   W78
        BYTE   W01
// 036   ----------------------------------------
        BYTE   W05
        BYTE           N12     Dn4   v040
        BYTE   W12
        BYTE                   Dn4   v020
        BYTE   W12
        BYTE           N24     Cn4   v075
        BYTE   W24
        BYTE           N12     Fn4
        BYTE   W12
        BYTE           N24
        BYTE   W24
        BYTE           N12     Cn4
        BYTE   W07
// 037   ----------------------------------------
        BYTE   W05
        BYTE                   Cn4   v040
        BYTE   W12
        BYTE           N84     Cn4   v075
        BYTE   W78
        BYTE   W01
// 038   ----------------------------------------
        BYTE   W05
        BYTE           N12     Cn4   v040
        BYTE   W12
        BYTE                   Cn4   v020
        BYTE   W12
        BYTE           N24     As3   v075
        BYTE   W24
        BYTE           N12     Fn4
        BYTE   W12
        BYTE           N24
        BYTE   W24
        BYTE           N12     Fn4   v040
        BYTE   W07
// 039   ----------------------------------------
        BYTE   W05
        BYTE                   Fn4   v020
        BYTE   W15
        BYTE                   Fn4   v028
        BYTE   W09
        BYTE           N24     Cn4   v075
        BYTE   W24
        BYTE           N12     Gn4
        BYTE   W12
        BYTE           N24
        BYTE   W24
        BYTE           N12     Gn4   v040
        BYTE   W07
// 040   ----------------------------------------
        BYTE   W05
        BYTE                   Gn4   v020
        BYTE   W15
        BYTE                   Gn4   v028
        BYTE   W09
        BYTE           N24     Dn4   v075
        BYTE   W24
        BYTE           N12     An4
        BYTE   W12
        BYTE           N24
        BYTE   W24
        BYTE           N12     Gn4
        BYTE   W07
// 041   ----------------------------------------
        BYTE   W05
        BYTE                   Gn4   v040
        BYTE   W12
        BYTE           N30     An4   v075
        BYTE   W78
        BYTE   W01
// 042   ----------------------------------------
        BYTE   W96
// 043   ----------------------------------------
        BYTE   W96
// 044   ----------------------------------------
        BYTE   W96
// 045   ----------------------------------------
        BYTE   W96
// 046   ----------------------------------------
        BYTE   W96
// 047   ----------------------------------------
        BYTE   W96
// 048   ----------------------------------------
        BYTE   W96
// 049   ----------------------------------------
        BYTE   W96
// 050   ----------------------------------------
        BYTE   W96
// 051   ----------------------------------------
        BYTE   W96
// 052   ----------------------------------------
        BYTE   W96
// 053   ----------------------------------------
        BYTE   W96
// 054   ----------------------------------------
        BYTE   W96
// 055   ----------------------------------------
        BYTE   W96
// 056   ----------------------------------------
        BYTE   W96
// 057   ----------------------------------------
        BYTE   W96
// 058   ----------------------------------------
        BYTE   W96
// 059   ----------------------------------------
        BYTE   W96
// 060   ----------------------------------------
        BYTE   W96
// 061   ----------------------------------------
        BYTE   W96
// 062   ----------------------------------------
        BYTE   W96
// 063   ----------------------------------------
        BYTE   W96
// 064   ----------------------------------------
        BYTE   W96
// 065   ----------------------------------------
        BYTE   W96
// 066   ----------------------------------------
        BYTE   W96
// 067   ----------------------------------------
        BYTE   W96
// 068   ----------------------------------------
        BYTE   W96
// 069   ----------------------------------------
        BYTE   W96
// 070   ----------------------------------------
        BYTE   W96
// 071   ----------------------------------------
        BYTE   W96
// 072   ----------------------------------------
        BYTE   W96
// 073   ----------------------------------------
        BYTE   W96
// 074   ----------------------------------------
        BYTE   W96
// 075   ----------------------------------------
        BYTE   W96
// 076   ----------------------------------------
        BYTE   W96
// 077   ----------------------------------------
        BYTE   W96
// 078   ----------------------------------------
        BYTE   W96
// 079   ----------------------------------------
        BYTE   W96
// 080   ----------------------------------------
        BYTE   W96
// 081   ----------------------------------------
        BYTE   W96
// 082   ----------------------------------------
        BYTE   W96
// 083   ----------------------------------------
        BYTE   W96
// 084   ----------------------------------------
        BYTE   W96
// 085   ----------------------------------------
        BYTE   W96
// 086   ----------------------------------------
        BYTE   W96
// 087   ----------------------------------------
        BYTE   W96
// 088   ----------------------------------------
        BYTE   W24
        BYTE           VOL     15
        BYTE           PAN     c_v-64
        BYTE   GoTo
         POIN2  IntheMorningSun_10_LOOP
        BYTE   FINE

//***************** Track 11 (Midi-Chn.15) *****************//

IntheMorningSun_11:
        BYTE   KEYSH   IntheMorningSun_key+0
// 000   ----------------------------------------
        BYTE           PAN     c_v+61
        BYTE           VOICE   10
        BYTE           VOL     19
        BYTE   W48
        BYTE           N05     Fs5   v086
        BYTE   W12
        BYTE                   Fs5   v056
        BYTE   W12
        BYTE                   Fs5   v031
        BYTE   W12
        BYTE                   En5   v086
        BYTE   W12
// 001   ----------------------------------------
IntheMorningSun_11_1:
        BYTE           N05     En5   v056
        BYTE   W12
        BYTE                   En5   v031
        BYTE   W24
        BYTE                   An5   v086
        BYTE   W12
        BYTE                   An5   v056
        BYTE   W12
        BYTE                   An5   v031
        BYTE   W12
        BYTE                   An5   v076
        BYTE   W12
        BYTE                   An5   v041
        BYTE   W12
        BYTE   PEND
// 002   ----------------------------------------
IntheMorningSun_11_2:
        BYTE           N05     An5   v026
        BYTE   W12
        BYTE                   An5   v061
        BYTE   W12
        BYTE                   An5   v041
        BYTE   W12
        BYTE                   An5   v026
        BYTE   W12
        BYTE                   Fs5   v086
        BYTE           N05     An5   v021
        BYTE   W12
        BYTE                   Fs5   v056
        BYTE   W12
        BYTE                   Fs5   v031
        BYTE   W12
        BYTE                   En5   v086
        BYTE   W12
        BYTE   PEND
// 003   ----------------------------------------
IntheMorningSun_11_3:
        BYTE           N05     En5   v056
        BYTE   W12
        BYTE                   En5   v031
        BYTE   W12
        BYTE                   An4   v086
        BYTE   W12
        BYTE                   An4   v056
        BYTE   W12
        BYTE                   An4   v031
        BYTE   W12
        BYTE                   An4   v076
        BYTE   W12
        BYTE                   An4   v041
        BYTE   W12
        BYTE                   An4   v026
        BYTE   W12
        BYTE   PEND
// 004   ----------------------------------------
        BYTE                   An4   v061
        BYTE   W12
        BYTE                   An4   v041
        BYTE   W12
        BYTE                   An4   v026
        BYTE   W12
        BYTE                   An4   v021
        BYTE   W12
        BYTE                   Fs5   v086
        BYTE   W12
        BYTE                   Fs5   v056
        BYTE   W12
        BYTE                   Fs5   v031
        BYTE   W12
        BYTE                   En5   v086
        BYTE   W12
// 005   ----------------------------------------
        BYTE   PATT
         POIN2  IntheMorningSun_11_1
// 006   ----------------------------------------
        BYTE   PATT
         POIN2  IntheMorningSun_11_2
// 007   ----------------------------------------
        BYTE   PATT
         POIN2  IntheMorningSun_11_3
// 008   ----------------------------------------
        BYTE           N05     An4   v061
        BYTE   W12
        BYTE                   An4   v041
        BYTE   W12
        BYTE                   An4   v026
        BYTE   W12
        BYTE                   An4   v021
        BYTE   W60
// 009   ----------------------------------------
        BYTE   W96
// 010   ----------------------------------------
        BYTE   W96
// 011   ----------------------------------------
        BYTE   W96
// 012   ----------------------------------------
        BYTE   W96
// 013   ----------------------------------------
        BYTE   W96
// 014   ----------------------------------------
        BYTE   W96
// 015   ----------------------------------------
        BYTE   W96
// 016   ----------------------------------------
        BYTE   W96
// 017   ----------------------------------------
        BYTE   W96
// 018   ----------------------------------------
        BYTE   W24
IntheMorningSun_11_LOOP:
        BYTE   W36
        BYTE           N01     Fs5   v110
        BYTE   W12
        BYTE                   En5
        BYTE   W12
        BYTE                   Bn4
        BYTE   W12
// 019   ----------------------------------------
IntheMorningSun_11_19:
        BYTE           N01     Fs5   v110
        BYTE   W12
        BYTE                   En5
        BYTE   W12
        BYTE                   Bn4
        BYTE   W12
        BYTE                   Fs5
        BYTE   W24
        BYTE                   En5
        BYTE   W24
        BYTE                   An5
        BYTE   W12
        BYTE   PEND
// 020   ----------------------------------------
IntheMorningSun_11_20:
        BYTE   W60
        BYTE           N01     Fs5   v110
        BYTE   W12
        BYTE                   En5
        BYTE   W12
        BYTE                   Bn4
        BYTE   W12
        BYTE   PEND
// 021   ----------------------------------------
IntheMorningSun_11_21:
        BYTE           N01     Fs5   v110
        BYTE   W12
        BYTE                   En5
        BYTE   W12
        BYTE                   Bn4
        BYTE   W12
        BYTE                   Fs5
        BYTE   W24
        BYTE                   En5
        BYTE   W24
        BYTE                   An4
        BYTE   W12
        BYTE   PEND
// 022   ----------------------------------------
        BYTE   PATT
         POIN2  IntheMorningSun_11_20
// 023   ----------------------------------------
        BYTE   PATT
         POIN2  IntheMorningSun_11_21
// 024   ----------------------------------------
        BYTE   PATT
         POIN2  IntheMorningSun_11_20
// 025   ----------------------------------------
IntheMorningSun_11_25:
        BYTE           N01     Fs5   v110
        BYTE   W12
        BYTE                   En5
        BYTE   W12
        BYTE                   Bn4
        BYTE   W12
        BYTE                   An5
        BYTE   W24
        BYTE                   Gn5
        BYTE   W24
        BYTE                   Fs5
        BYTE   W12
        BYTE   PEND
// 026   ----------------------------------------
IntheMorningSun_11_26:
        BYTE   W12
        BYTE           N01     En5   v110
        BYTE   W48
        BYTE                   Fs5
        BYTE   W12
        BYTE                   En5
        BYTE   W12
        BYTE                   Bn4
        BYTE   W12
        BYTE   PEND
// 027   ----------------------------------------
        BYTE   PATT
         POIN2  IntheMorningSun_11_19
// 028   ----------------------------------------
        BYTE   PATT
         POIN2  IntheMorningSun_11_20
// 029   ----------------------------------------
        BYTE   PATT
         POIN2  IntheMorningSun_11_21
// 030   ----------------------------------------
        BYTE   PATT
         POIN2  IntheMorningSun_11_20
// 031   ----------------------------------------
        BYTE   PATT
         POIN2  IntheMorningSun_11_21
// 032   ----------------------------------------
        BYTE   PATT
         POIN2  IntheMorningSun_11_20
// 033   ----------------------------------------
        BYTE           N01     Fs5   v110
        BYTE   W12
        BYTE                   En5
        BYTE   W24
        BYTE                   Bn4
        BYTE   W60
// 034   ----------------------------------------
        BYTE   W96
// 035   ----------------------------------------
        BYTE   W96
// 036   ----------------------------------------
        BYTE   W96
// 037   ----------------------------------------
        BYTE   W96
// 038   ----------------------------------------
        BYTE   W96
// 039   ----------------------------------------
        BYTE   W96
// 040   ----------------------------------------
        BYTE   W96
// 041   ----------------------------------------
        BYTE   W96
// 042   ----------------------------------------
        BYTE   W96
// 043   ----------------------------------------
        BYTE   W96
// 044   ----------------------------------------
        BYTE   W96
// 045   ----------------------------------------
        BYTE   W96
// 046   ----------------------------------------
        BYTE   W96
// 047   ----------------------------------------
        BYTE   W96
// 048   ----------------------------------------
        BYTE   W96
// 049   ----------------------------------------
        BYTE   W96
// 050   ----------------------------------------
        BYTE   W96
// 051   ----------------------------------------
        BYTE   W96
// 052   ----------------------------------------
        BYTE   W96
// 053   ----------------------------------------
        BYTE   W96
// 054   ----------------------------------------
        BYTE   PATT
         POIN2  IntheMorningSun_11_20
// 055   ----------------------------------------
        BYTE   PATT
         POIN2  IntheMorningSun_11_19
// 056   ----------------------------------------
        BYTE   PATT
         POIN2  IntheMorningSun_11_20
// 057   ----------------------------------------
        BYTE   PATT
         POIN2  IntheMorningSun_11_21
// 058   ----------------------------------------
        BYTE   PATT
         POIN2  IntheMorningSun_11_20
// 059   ----------------------------------------
        BYTE   PATT
         POIN2  IntheMorningSun_11_21
// 060   ----------------------------------------
        BYTE   PATT
         POIN2  IntheMorningSun_11_20
// 061   ----------------------------------------
        BYTE   PATT
         POIN2  IntheMorningSun_11_25
// 062   ----------------------------------------
        BYTE   PATT
         POIN2  IntheMorningSun_11_26
// 063   ----------------------------------------
        BYTE   PATT
         POIN2  IntheMorningSun_11_19
// 064   ----------------------------------------
        BYTE   PATT
         POIN2  IntheMorningSun_11_20
// 065   ----------------------------------------
        BYTE   PATT
         POIN2  IntheMorningSun_11_21
// 066   ----------------------------------------
        BYTE   PATT
         POIN2  IntheMorningSun_11_20
// 067   ----------------------------------------
        BYTE           N01     Fs5   v110
        BYTE   W12
        BYTE                   En5
        BYTE   W12
        BYTE                   Bn4
        BYTE   W12
        BYTE                   Fs5
        BYTE   W24
        BYTE                   En5
        BYTE   W24
        BYTE                   Bn4
        BYTE   W12
// 068   ----------------------------------------
        BYTE   PATT
         POIN2  IntheMorningSun_11_20
// 069   ----------------------------------------
        BYTE           N01     Fs5   v110
        BYTE   W12
        BYTE                   En5
        BYTE   W24
        BYTE                   An5
        BYTE   W60
// 070   ----------------------------------------
        BYTE   PATT
         POIN2  IntheMorningSun_11_20
// 071   ----------------------------------------
        BYTE   PATT
         POIN2  IntheMorningSun_11_19
// 072   ----------------------------------------
        BYTE   PATT
         POIN2  IntheMorningSun_11_20
// 073   ----------------------------------------
        BYTE   PATT
         POIN2  IntheMorningSun_11_21
// 074   ----------------------------------------
        BYTE   PATT
         POIN2  IntheMorningSun_11_20
// 075   ----------------------------------------
        BYTE   PATT
         POIN2  IntheMorningSun_11_21
// 076   ----------------------------------------
        BYTE   PATT
         POIN2  IntheMorningSun_11_20
// 077   ----------------------------------------
        BYTE   PATT
         POIN2  IntheMorningSun_11_25
// 078   ----------------------------------------
        BYTE   PATT
         POIN2  IntheMorningSun_11_26
// 079   ----------------------------------------
        BYTE   PATT
         POIN2  IntheMorningSun_11_19
// 080   ----------------------------------------
        BYTE   PATT
         POIN2  IntheMorningSun_11_20
// 081   ----------------------------------------
        BYTE   PATT
         POIN2  IntheMorningSun_11_21
// 082   ----------------------------------------
        BYTE   PATT
         POIN2  IntheMorningSun_11_20
// 083   ----------------------------------------
        BYTE   PATT
         POIN2  IntheMorningSun_11_19
// 084   ----------------------------------------
        BYTE   PATT
         POIN2  IntheMorningSun_11_20
// 085   ----------------------------------------
        BYTE           N01     Fs5   v110
        BYTE   W12
        BYTE                   En5
        BYTE   W24
        BYTE                   Fs5
        BYTE   W60
// 086   ----------------------------------------
        BYTE   W96
// 087   ----------------------------------------
        BYTE   W96
// 088   ----------------------------------------
        BYTE   W24
        BYTE   GoTo
         POIN2  IntheMorningSun_11_LOOP
        BYTE   FINE

//***************** Track 12 (Midi-Chn.14) *****************//

IntheMorningSun_12:
        BYTE   KEYSH   IntheMorningSun_key+0
// 000   ----------------------------------------
        BYTE           VOICE   10
        BYTE           PAN     c_v-64
        BYTE           VOL     26
        BYTE   W36
        BYTE           N05     Fs5   v096
        BYTE   W12
        BYTE                   Fs5   v060
        BYTE   W12
        BYTE                   Fs5   v035
        BYTE   W12
        BYTE                   En5   v096
        BYTE   W12
        BYTE                   En5   v060
        BYTE   W12
// 001   ----------------------------------------
IntheMorningSun_12_1:
        BYTE           N05     En5   v035
        BYTE   W24
        BYTE                   An5   v096
        BYTE   W12
        BYTE                   An5   v060
        BYTE   W12
        BYTE                   An5   v035
        BYTE   W12
        BYTE                   An5   v074
        BYTE   W12
        BYTE                   An5   v045
        BYTE   W12
        BYTE                   An5   v030
        BYTE   W12
        BYTE   PEND
// 002   ----------------------------------------
IntheMorningSun_12_2:
        BYTE           N05     An5   v065
        BYTE   W12
        BYTE                   An5   v045
        BYTE   W12
        BYTE                   An5   v030
        BYTE   W12
        BYTE                   Fs5   v096
        BYTE           N05     An5   v025
        BYTE   W12
        BYTE                   Fs5   v060
        BYTE   W12
        BYTE                   Fs5   v035
        BYTE   W12
        BYTE                   En5   v096
        BYTE   W12
        BYTE                   En5   v060
        BYTE   W12
        BYTE   PEND
// 003   ----------------------------------------
IntheMorningSun_12_3:
        BYTE           N05     En5   v035
        BYTE   W12
        BYTE                   An4   v096
        BYTE   W12
        BYTE                   An4   v060
        BYTE   W12
        BYTE                   An4   v035
        BYTE   W12
        BYTE                   An4   v074
        BYTE   W12
        BYTE                   An4   v045
        BYTE   W12
        BYTE                   An4   v030
        BYTE   W12
        BYTE                   An4   v065
        BYTE   W12
        BYTE   PEND
// 004   ----------------------------------------
        BYTE                   An4   v045
        BYTE   W12
        BYTE                   An4   v030
        BYTE   W12
        BYTE                   An4   v025
        BYTE   W12
        BYTE                   Fs5   v096
        BYTE   W12
        BYTE                   Fs5   v060
        BYTE   W12
        BYTE                   Fs5   v035
        BYTE   W12
        BYTE                   En5   v096
        BYTE   W12
        BYTE                   En5   v060
        BYTE   W12
// 005   ----------------------------------------
        BYTE   PATT
         POIN2  IntheMorningSun_12_1
// 006   ----------------------------------------
        BYTE   PATT
         POIN2  IntheMorningSun_12_2
// 007   ----------------------------------------
        BYTE   PATT
         POIN2  IntheMorningSun_12_3
// 008   ----------------------------------------
        BYTE           N05     An4   v045
        BYTE   W12
        BYTE                   An4   v030
        BYTE   W12
        BYTE                   An4   v025
        BYTE   W72
// 009   ----------------------------------------
        BYTE   W96
// 010   ----------------------------------------
        BYTE   W96
// 011   ----------------------------------------
        BYTE   W96
// 012   ----------------------------------------
        BYTE   W96
// 013   ----------------------------------------
        BYTE   W96
// 014   ----------------------------------------
        BYTE   W96
// 015   ----------------------------------------
        BYTE   W96
// 016   ----------------------------------------
        BYTE   W96
// 017   ----------------------------------------
        BYTE   W96
// 018   ----------------------------------------
        BYTE   W24
IntheMorningSun_12_LOOP:
        BYTE   W24
        BYTE           N01     Fs5   v110
        BYTE   W12
        BYTE                   En5
        BYTE   W12
        BYTE                   Bn4
        BYTE   W12
        BYTE                   Fs5
        BYTE   W12
// 019   ----------------------------------------
IntheMorningSun_12_19:
        BYTE           N01     En5   v110
        BYTE   W12
        BYTE                   Bn4
        BYTE   W12
        BYTE                   Fs5
        BYTE   W24
        BYTE                   En5
        BYTE   W24
        BYTE                   An5
        BYTE   W24
        BYTE   PEND
// 020   ----------------------------------------
IntheMorningSun_12_20:
        BYTE   W48
        BYTE           N01     Fs5   v110
        BYTE   W12
        BYTE                   En5
        BYTE   W12
        BYTE                   Bn4
        BYTE   W12
        BYTE                   Fs5
        BYTE   W12
        BYTE   PEND
// 021   ----------------------------------------
IntheMorningSun_12_21:
        BYTE           N01     En5   v110
        BYTE   W12
        BYTE                   Bn4
        BYTE   W12
        BYTE                   Fs5
        BYTE   W24
        BYTE                   En5
        BYTE   W24
        BYTE                   An4
        BYTE   W24
        BYTE   PEND
// 022   ----------------------------------------
        BYTE   PATT
         POIN2  IntheMorningSun_12_20
// 023   ----------------------------------------
        BYTE   PATT
         POIN2  IntheMorningSun_12_21
// 024   ----------------------------------------
        BYTE   PATT
         POIN2  IntheMorningSun_12_20
// 025   ----------------------------------------
IntheMorningSun_12_25:
        BYTE           N01     En5   v110
        BYTE   W12
        BYTE                   Bn4
        BYTE   W12
        BYTE                   An5
        BYTE   W24
        BYTE                   Gn5
        BYTE   W24
        BYTE                   Fs5
        BYTE   W24
        BYTE   PEND
// 026   ----------------------------------------
IntheMorningSun_12_26:
        BYTE           N01     En5   v110
        BYTE   W48
        BYTE                   Fs5
        BYTE   W12
        BYTE                   En5
        BYTE   W12
        BYTE                   Bn4
        BYTE   W12
        BYTE                   Fs5
        BYTE   W12
        BYTE   PEND
// 027   ----------------------------------------
        BYTE   PATT
         POIN2  IntheMorningSun_12_19
// 028   ----------------------------------------
        BYTE   PATT
         POIN2  IntheMorningSun_12_20
// 029   ----------------------------------------
        BYTE   PATT
         POIN2  IntheMorningSun_12_21
// 030   ----------------------------------------
        BYTE   PATT
         POIN2  IntheMorningSun_12_20
// 031   ----------------------------------------
        BYTE   PATT
         POIN2  IntheMorningSun_12_21
// 032   ----------------------------------------
        BYTE   PATT
         POIN2  IntheMorningSun_12_20
// 033   ----------------------------------------
        BYTE           N01     En5   v110
        BYTE   W24
        BYTE                   Bn4
        BYTE   W72
// 034   ----------------------------------------
        BYTE   W96
// 035   ----------------------------------------
        BYTE   W96
// 036   ----------------------------------------
        BYTE   W96
// 037   ----------------------------------------
        BYTE   W96
// 038   ----------------------------------------
        BYTE   W96
// 039   ----------------------------------------
        BYTE   W96
// 040   ----------------------------------------
        BYTE   W96
// 041   ----------------------------------------
        BYTE   W96
// 042   ----------------------------------------
        BYTE   W96
// 043   ----------------------------------------
        BYTE   W96
// 044   ----------------------------------------
        BYTE   W96
// 045   ----------------------------------------
        BYTE   W96
// 046   ----------------------------------------
        BYTE   W96
// 047   ----------------------------------------
        BYTE   W96
// 048   ----------------------------------------
        BYTE   W96
// 049   ----------------------------------------
        BYTE   W96
// 050   ----------------------------------------
        BYTE   W96
// 051   ----------------------------------------
        BYTE   W96
// 052   ----------------------------------------
        BYTE   W96
// 053   ----------------------------------------
        BYTE   W96
// 054   ----------------------------------------
        BYTE   PATT
         POIN2  IntheMorningSun_12_20
// 055   ----------------------------------------
        BYTE   PATT
         POIN2  IntheMorningSun_12_19
// 056   ----------------------------------------
        BYTE   PATT
         POIN2  IntheMorningSun_12_20
// 057   ----------------------------------------
        BYTE   PATT
         POIN2  IntheMorningSun_12_21
// 058   ----------------------------------------
        BYTE   PATT
         POIN2  IntheMorningSun_12_20
// 059   ----------------------------------------
        BYTE   PATT
         POIN2  IntheMorningSun_12_21
// 060   ----------------------------------------
        BYTE   PATT
         POIN2  IntheMorningSun_12_20
// 061   ----------------------------------------
        BYTE   PATT
         POIN2  IntheMorningSun_12_25
// 062   ----------------------------------------
        BYTE   PATT
         POIN2  IntheMorningSun_12_26
// 063   ----------------------------------------
        BYTE   PATT
         POIN2  IntheMorningSun_12_19
// 064   ----------------------------------------
        BYTE   PATT
         POIN2  IntheMorningSun_12_20
// 065   ----------------------------------------
        BYTE   PATT
         POIN2  IntheMorningSun_12_21
// 066   ----------------------------------------
        BYTE   PATT
         POIN2  IntheMorningSun_12_20
// 067   ----------------------------------------
        BYTE           N01     En5   v110
        BYTE   W12
        BYTE                   Bn4
        BYTE   W12
        BYTE                   Fs5
        BYTE   W24
        BYTE                   En5
        BYTE   W24
        BYTE                   Bn4
        BYTE   W24
// 068   ----------------------------------------
        BYTE   PATT
         POIN2  IntheMorningSun_12_20
// 069   ----------------------------------------
        BYTE           N01     En5   v110
        BYTE   W24
        BYTE                   An5
        BYTE   W72
// 070   ----------------------------------------
        BYTE   PATT
         POIN2  IntheMorningSun_12_20
// 071   ----------------------------------------
        BYTE   PATT
         POIN2  IntheMorningSun_12_19
// 072   ----------------------------------------
        BYTE   PATT
         POIN2  IntheMorningSun_12_20
// 073   ----------------------------------------
        BYTE   PATT
         POIN2  IntheMorningSun_12_21
// 074   ----------------------------------------
        BYTE   PATT
         POIN2  IntheMorningSun_12_20
// 075   ----------------------------------------
        BYTE   PATT
         POIN2  IntheMorningSun_12_21
// 076   ----------------------------------------
        BYTE   PATT
         POIN2  IntheMorningSun_12_20
// 077   ----------------------------------------
        BYTE   PATT
         POIN2  IntheMorningSun_12_25
// 078   ----------------------------------------
        BYTE   PATT
         POIN2  IntheMorningSun_12_26
// 079   ----------------------------------------
        BYTE   PATT
         POIN2  IntheMorningSun_12_19
// 080   ----------------------------------------
        BYTE   PATT
         POIN2  IntheMorningSun_12_20
// 081   ----------------------------------------
        BYTE   PATT
         POIN2  IntheMorningSun_12_21
// 082   ----------------------------------------
        BYTE   PATT
         POIN2  IntheMorningSun_12_20
// 083   ----------------------------------------
        BYTE   PATT
         POIN2  IntheMorningSun_12_19
// 084   ----------------------------------------
        BYTE   PATT
         POIN2  IntheMorningSun_12_20
// 085   ----------------------------------------
        BYTE           N01     En5   v110
        BYTE   W24
        BYTE                   Fs5
        BYTE   W72
// 086   ----------------------------------------
        BYTE   W96
// 087   ----------------------------------------
        BYTE   W96
// 088   ----------------------------------------
        BYTE   W24
        BYTE   GoTo
         POIN2  IntheMorningSun_12_LOOP
        BYTE   FINE

//***************** Track 13 (Midi-Chn.6) ******************//

IntheMorningSun_13:
        BYTE   KEYSH   IntheMorningSun_key+0
// 000   ----------------------------------------
        BYTE           PAN     c_v+3
        BYTE           VOICE   10
        BYTE           VOL     71
        BYTE   W24
        BYTE           N05     Fs5   v115
        BYTE   W12
        BYTE                   Fs5   v064
        BYTE   W12
        BYTE                   Fs5   v039
        BYTE   W12
        BYTE                   En5   v115
        BYTE   W12
        BYTE                   En5   v064
        BYTE   W12
        BYTE                   En5   v039
        BYTE   W12
// 001   ----------------------------------------
IntheMorningSun_13_1:
        BYTE   W12
        BYTE           N05     An5   v115
        BYTE   W12
        BYTE                   An5   v064
        BYTE   W12
        BYTE                   An5   v039
        BYTE   W12
        BYTE                   An5   v084
        BYTE   W12
        BYTE                   An5   v049
        BYTE   W12
        BYTE                   An5   v034
        BYTE   W12
        BYTE                   An5   v069
        BYTE   W12
        BYTE   PEND
// 002   ----------------------------------------
IntheMorningSun_13_2:
        BYTE           N05     An5   v049
        BYTE   W12
        BYTE                   An5   v034
        BYTE   W12
        BYTE                   Fs5   v115
        BYTE           N05     An5   v029
        BYTE   W12
        BYTE                   Fs5   v064
        BYTE   W12
        BYTE                   Fs5   v039
        BYTE   W12
        BYTE                   En5   v115
        BYTE   W12
        BYTE                   En5   v064
        BYTE   W12
        BYTE                   En5   v039
        BYTE   W12
        BYTE   PEND
// 003   ----------------------------------------
IntheMorningSun_13_3:
        BYTE           N05     An4   v115
        BYTE   W12
        BYTE                   An4   v064
        BYTE   W12
        BYTE                   An4   v039
        BYTE   W12
        BYTE                   An4   v084
        BYTE   W12
        BYTE                   An4   v049
        BYTE   W12
        BYTE                   An4   v034
        BYTE   W12
        BYTE                   An4   v069
        BYTE   W12
        BYTE                   An4   v049
        BYTE   W12
        BYTE   PEND
// 004   ----------------------------------------
        BYTE                   An4   v034
        BYTE   W12
        BYTE                   An4   v029
        BYTE   W12
        BYTE                   Fs5   v115
        BYTE   W12
        BYTE                   Fs5   v064
        BYTE   W12
        BYTE                   Fs5   v039
        BYTE   W12
        BYTE                   En5   v115
        BYTE   W12
        BYTE                   En5   v064
        BYTE   W12
        BYTE                   En5   v039
        BYTE   W12
// 005   ----------------------------------------
        BYTE   PATT
         POIN2  IntheMorningSun_13_1
// 006   ----------------------------------------
        BYTE   PATT
         POIN2  IntheMorningSun_13_2
// 007   ----------------------------------------
        BYTE   PATT
         POIN2  IntheMorningSun_13_3
// 008   ----------------------------------------
        BYTE           N05     An4   v034
        BYTE   W12
        BYTE                   An4   v029
        BYTE   W84
// 009   ----------------------------------------
        BYTE   W96
// 010   ----------------------------------------
        BYTE   W96
// 011   ----------------------------------------
        BYTE   W96
// 012   ----------------------------------------
        BYTE   W96
// 013   ----------------------------------------
        BYTE   W96
// 014   ----------------------------------------
        BYTE   W96
// 015   ----------------------------------------
        BYTE   W96
// 016   ----------------------------------------
        BYTE   W96
// 017   ----------------------------------------
        BYTE   W96
// 018   ----------------------------------------
        BYTE   W24
IntheMorningSun_13_LOOP:
        BYTE           BENDR   127
        BYTE   W12
        BYTE           N01     Fs5   v105
        BYTE   W12
        BYTE                   En5
        BYTE   W12
        BYTE                   Bn4
        BYTE   W12
        BYTE                   Fs5
        BYTE   W12
        BYTE                   En5
        BYTE   W12
// 019   ----------------------------------------
IntheMorningSun_13_19:
        BYTE           N01     Bn4   v105
        BYTE   W12
        BYTE                   Fs5
        BYTE   W24
        BYTE                   En5
        BYTE   W24
        BYTE                   An5
        BYTE   W36
        BYTE   PEND
// 020   ----------------------------------------
IntheMorningSun_13_20:
        BYTE   W36
        BYTE           N01     Fs5   v105
        BYTE   W12
        BYTE                   En5
        BYTE   W12
        BYTE                   Bn4
        BYTE   W12
        BYTE                   Fs5
        BYTE   W12
        BYTE                   En5
        BYTE   W12
        BYTE   PEND
// 021   ----------------------------------------
IntheMorningSun_13_21:
        BYTE           N01     Bn4   v105
        BYTE   W12
        BYTE                   Fs5
        BYTE   W24
        BYTE                   En5
        BYTE   W24
        BYTE                   An4
        BYTE   W36
        BYTE   PEND
// 022   ----------------------------------------
        BYTE   PATT
         POIN2  IntheMorningSun_13_20
// 023   ----------------------------------------
        BYTE   PATT
         POIN2  IntheMorningSun_13_21
// 024   ----------------------------------------
        BYTE   PATT
         POIN2  IntheMorningSun_13_20
// 025   ----------------------------------------
        BYTE           N01     Bn4   v105
        BYTE   W12
        BYTE                   An5
        BYTE   W24
        BYTE                   Gn5
        BYTE   W24
        BYTE                   Fs5
        BYTE   W24
        BYTE                   En5
        BYTE   W12
// 026   ----------------------------------------
        BYTE   PATT
         POIN2  IntheMorningSun_13_20
// 027   ----------------------------------------
        BYTE   PATT
         POIN2  IntheMorningSun_13_19
// 028   ----------------------------------------
        BYTE   PATT
         POIN2  IntheMorningSun_13_20
// 029   ----------------------------------------
        BYTE   PATT
         POIN2  IntheMorningSun_13_21
// 030   ----------------------------------------
        BYTE   PATT
         POIN2  IntheMorningSun_13_20
// 031   ----------------------------------------
        BYTE   PATT
         POIN2  IntheMorningSun_13_21
// 032   ----------------------------------------
        BYTE   PATT
         POIN2  IntheMorningSun_13_20
// 033   ----------------------------------------
        BYTE   W12
        BYTE           N01     Bn4   v105
        BYTE   W84
// 034   ----------------------------------------
        BYTE   W96
// 035   ----------------------------------------
        BYTE   W96
// 036   ----------------------------------------
        BYTE   W96
// 037   ----------------------------------------
        BYTE   W96
// 038   ----------------------------------------
        BYTE   W96
// 039   ----------------------------------------
        BYTE   W96
// 040   ----------------------------------------
        BYTE   W96
// 041   ----------------------------------------
        BYTE   W96
// 042   ----------------------------------------
        BYTE   W96
// 043   ----------------------------------------
        BYTE   W96
// 044   ----------------------------------------
        BYTE   W96
// 045   ----------------------------------------
        BYTE   W96
// 046   ----------------------------------------
        BYTE   W96
// 047   ----------------------------------------
        BYTE   W96
// 048   ----------------------------------------
        BYTE   W96
// 049   ----------------------------------------
        BYTE   W96
// 050   ----------------------------------------
        BYTE   W96
// 051   ----------------------------------------
        BYTE   W96
// 052   ----------------------------------------
        BYTE   W96
// 053   ----------------------------------------
        BYTE   W96
// 054   ----------------------------------------
IntheMorningSun_13_54:
        BYTE   W36
        BYTE           N01     Fs5   v110
        BYTE   W12
        BYTE                   En5
        BYTE   W12
        BYTE                   Bn4
        BYTE   W12
        BYTE                   Fs5
        BYTE   W12
        BYTE                   En5
        BYTE   W12
        BYTE   PEND
// 055   ----------------------------------------
IntheMorningSun_13_55:
        BYTE           N01     Bn4   v110
        BYTE   W12
        BYTE                   Fs5
        BYTE   W24
        BYTE                   En5
        BYTE   W24
        BYTE                   An5
        BYTE   W36
        BYTE   PEND
// 056   ----------------------------------------
        BYTE   PATT
         POIN2  IntheMorningSun_13_54
// 057   ----------------------------------------
IntheMorningSun_13_57:
        BYTE           N01     Bn4   v110
        BYTE   W12
        BYTE                   Fs5
        BYTE   W24
        BYTE                   En5
        BYTE   W24
        BYTE                   An4
        BYTE   W36
        BYTE   PEND
// 058   ----------------------------------------
        BYTE   PATT
         POIN2  IntheMorningSun_13_54
// 059   ----------------------------------------
        BYTE   PATT
         POIN2  IntheMorningSun_13_57
// 060   ----------------------------------------
        BYTE   PATT
         POIN2  IntheMorningSun_13_54
// 061   ----------------------------------------
IntheMorningSun_13_61:
        BYTE           N01     Bn4   v110
        BYTE   W12
        BYTE                   An5
        BYTE   W24
        BYTE                   Gn5
        BYTE   W24
        BYTE                   Fs5
        BYTE   W24
        BYTE                   En5
        BYTE   W12
        BYTE   PEND
// 062   ----------------------------------------
        BYTE   PATT
         POIN2  IntheMorningSun_13_54
// 063   ----------------------------------------
        BYTE   PATT
         POIN2  IntheMorningSun_13_55
// 064   ----------------------------------------
        BYTE   PATT
         POIN2  IntheMorningSun_13_54
// 065   ----------------------------------------
        BYTE   PATT
         POIN2  IntheMorningSun_13_57
// 066   ----------------------------------------
        BYTE   PATT
         POIN2  IntheMorningSun_13_54
// 067   ----------------------------------------
        BYTE           N01     Bn4   v110
        BYTE   W12
        BYTE                   Fs5
        BYTE   W24
        BYTE                   En5
        BYTE   W24
        BYTE                   Bn4
        BYTE   W36
// 068   ----------------------------------------
        BYTE   PATT
         POIN2  IntheMorningSun_13_54
// 069   ----------------------------------------
        BYTE   W12
        BYTE           N01     An5   v110
        BYTE   W84
// 070   ----------------------------------------
        BYTE   PATT
         POIN2  IntheMorningSun_13_54
// 071   ----------------------------------------
        BYTE   PATT
         POIN2  IntheMorningSun_13_55
// 072   ----------------------------------------
        BYTE   PATT
         POIN2  IntheMorningSun_13_54
// 073   ----------------------------------------
        BYTE   PATT
         POIN2  IntheMorningSun_13_57
// 074   ----------------------------------------
        BYTE   PATT
         POIN2  IntheMorningSun_13_54
// 075   ----------------------------------------
        BYTE   PATT
         POIN2  IntheMorningSun_13_57
// 076   ----------------------------------------
        BYTE   PATT
         POIN2  IntheMorningSun_13_54
// 077   ----------------------------------------
        BYTE   PATT
         POIN2  IntheMorningSun_13_61
// 078   ----------------------------------------
        BYTE   PATT
         POIN2  IntheMorningSun_13_54
// 079   ----------------------------------------
        BYTE   PATT
         POIN2  IntheMorningSun_13_55
// 080   ----------------------------------------
        BYTE   PATT
         POIN2  IntheMorningSun_13_54
// 081   ----------------------------------------
        BYTE   PATT
         POIN2  IntheMorningSun_13_57
// 082   ----------------------------------------
        BYTE   PATT
         POIN2  IntheMorningSun_13_54
// 083   ----------------------------------------
        BYTE   PATT
         POIN2  IntheMorningSun_13_55
// 084   ----------------------------------------
        BYTE   PATT
         POIN2  IntheMorningSun_13_54
// 085   ----------------------------------------
        BYTE   W12
        BYTE           N01     Fs5   v110
        BYTE   W84
// 086   ----------------------------------------
        BYTE   W96
// 087   ----------------------------------------
        BYTE   W96
// 088   ----------------------------------------
        BYTE   W24
        BYTE   GoTo
         POIN2  IntheMorningSun_13_LOOP
        BYTE   FINE

//***************** Track 14 (Midi-Chn.4) ******************//

IntheMorningSun_14:
        BYTE   KEYSH   IntheMorningSun_key+0
// 000   ----------------------------------------
        BYTE           VOICE   8
        BYTE           PAN     c_v-24
        BYTE           VOL     90
        BYTE   W96
// 001   ----------------------------------------
        BYTE   W96
// 002   ----------------------------------------
        BYTE   W96
// 003   ----------------------------------------
        BYTE   W96
// 004   ----------------------------------------
        BYTE   W96
// 005   ----------------------------------------
        BYTE   W96
// 006   ----------------------------------------
        BYTE   W96
// 007   ----------------------------------------
        BYTE   W96
// 008   ----------------------------------------
IntheMorningSun_14_8:
        BYTE   W36
        BYTE           N01     Fs4   v095
        BYTE   W12
        BYTE                   En4
        BYTE   W12
        BYTE                   Bn3
        BYTE   W12
        BYTE                   Fs4
        BYTE   W12
        BYTE                   En4
        BYTE   W12
        BYTE   PEND
// 009   ----------------------------------------
IntheMorningSun_14_9:
        BYTE           N01     Bn3   v095
        BYTE   W12
        BYTE                   Fs4
        BYTE   W24
        BYTE                   En4
        BYTE   W24
        BYTE                   An3
        BYTE   W36
        BYTE   PEND
// 010   ----------------------------------------
        BYTE   PATT
         POIN2  IntheMorningSun_14_8
// 011   ----------------------------------------
IntheMorningSun_14_11:
        BYTE           N01     Bn3   v095
        BYTE   W12
        BYTE                   Fs4
        BYTE   W24
        BYTE                   En4
        BYTE   W24
        BYTE                   An4
        BYTE   W36
        BYTE   PEND
// 012   ----------------------------------------
        BYTE   PATT
         POIN2  IntheMorningSun_14_8
// 013   ----------------------------------------
        BYTE   PATT
         POIN2  IntheMorningSun_14_11
// 014   ----------------------------------------
IntheMorningSun_14_14:
        BYTE   W36
        BYTE           N01     Fs4   v095
        BYTE   W12
        BYTE                   En4
        BYTE   W12
        BYTE                   An3
        BYTE   W12
        BYTE                   Fs4
        BYTE   W12
        BYTE                   En4
        BYTE   W12
        BYTE   PEND
// 015   ----------------------------------------
IntheMorningSun_14_15:
        BYTE           N01     An3   v095
        BYTE   W12
        BYTE                   En4
        BYTE   W24
        BYTE                   Cs4
        BYTE   W24
        BYTE                   Fs4
        BYTE   W24
        BYTE                   En4
        BYTE   W12
        BYTE   PEND
// 016   ----------------------------------------
IntheMorningSun_14_16:
        BYTE   W24
        BYTE           N01     An4   v095
        BYTE   W72
        BYTE   PEND
// 017   ----------------------------------------
        BYTE   W96
// 018   ----------------------------------------
        BYTE   W24
IntheMorningSun_14_LOOP:
        BYTE   W72
// 019   ----------------------------------------
        BYTE   W96
// 020   ----------------------------------------
        BYTE   W96
// 021   ----------------------------------------
        BYTE   W96
// 022   ----------------------------------------
        BYTE   W96
// 023   ----------------------------------------
        BYTE   W96
// 024   ----------------------------------------
        BYTE   W96
// 025   ----------------------------------------
        BYTE   W96
// 026   ----------------------------------------
        BYTE   W96
// 027   ----------------------------------------
        BYTE   W96
// 028   ----------------------------------------
        BYTE   W96
// 029   ----------------------------------------
        BYTE   W96
// 030   ----------------------------------------
        BYTE   W96
// 031   ----------------------------------------
        BYTE   W96
// 032   ----------------------------------------
        BYTE   W96
// 033   ----------------------------------------
        BYTE   W96
// 034   ----------------------------------------
        BYTE   W24
        BYTE           N05     En4   v100
        BYTE   W12
        BYTE                   En4   v050
        BYTE   W12
        BYTE                   En4   v025
        BYTE   W12
        BYTE                   Dn4   v100
        BYTE   W12
        BYTE                   Dn4   v050
        BYTE   W12
        BYTE                   Dn4   v025
        BYTE   W12
// 035   ----------------------------------------
        BYTE   W96
// 036   ----------------------------------------
        BYTE   W24
        BYTE                   Gn4   v100
        BYTE   W12
        BYTE                   Gn4   v050
        BYTE   W12
        BYTE                   Gn4   v025
        BYTE   W12
        BYTE                   Fn4   v100
        BYTE   W12
        BYTE                   Fn4   v050
        BYTE   W12
        BYTE                   Fn4   v025
        BYTE   W12
// 037   ----------------------------------------
        BYTE   W96
// 038   ----------------------------------------
        BYTE   W24
        BYTE                   As3   v100
        BYTE   W12
        BYTE                   As3   v050
        BYTE   W12
        BYTE                   As3   v025
        BYTE   W12
        BYTE                   Dn4   v100
        BYTE   W12
        BYTE                   Dn4   v050
        BYTE   W12
        BYTE                   Dn4   v025
        BYTE   W12
// 039   ----------------------------------------
        BYTE   W24
        BYTE                   Cn4   v100
        BYTE   W12
        BYTE                   Cn4   v050
        BYTE   W12
        BYTE                   Cn4   v025
        BYTE   W12
        BYTE                   En4   v100
        BYTE   W12
        BYTE                   En4   v050
        BYTE   W12
        BYTE                   En4   v025
        BYTE   W12
// 040   ----------------------------------------
        BYTE   W24
        BYTE                   Dn4   v100
        BYTE   W12
        BYTE                   Dn4   v050
        BYTE   W12
        BYTE                   Dn4   v025
        BYTE   W12
        BYTE                   An4   v100
        BYTE   W12
        BYTE                   An4   v050
        BYTE   W12
        BYTE                   An4   v025
        BYTE   W12
// 041   ----------------------------------------
        BYTE   W12
        BYTE                   An4   v100
        BYTE   W12
        BYTE                   An4   v050
        BYTE   W12
        BYTE                   An4   v025
        BYTE   W12
        BYTE                   An4   v070
        BYTE   W12
        BYTE                   An4   v035
        BYTE   W12
        BYTE                   An4   v020
        BYTE   W12
        BYTE                   An4   v055
        BYTE   W12
// 042   ----------------------------------------
        BYTE                   An4   v035
        BYTE   W12
        BYTE                   An4   v020
        BYTE   W12
        BYTE                   Dn4   v100
        BYTE           N05     An4   v015
        BYTE   W12
        BYTE                   Dn4   v050
        BYTE   W12
        BYTE                   Dn4   v025
        BYTE   W12
        BYTE                   As3   v100
        BYTE   W12
        BYTE                   As3   v050
        BYTE   W12
        BYTE                   As3   v025
        BYTE   W12
// 043   ----------------------------------------
        BYTE   W24
        BYTE                   Fn4   v100
        BYTE   W12
        BYTE                   Fn4   v050
        BYTE   W12
        BYTE                   Fn4   v025
        BYTE   W12
        BYTE                   Cn4   v100
        BYTE   W12
        BYTE                   Cn4   v050
        BYTE   W12
        BYTE                   Cn4   v025
        BYTE   W12
// 044   ----------------------------------------
        BYTE   W24
        BYTE                   Gn4   v100
        BYTE   W12
        BYTE                   Gn4   v050
        BYTE   W12
        BYTE                   Gn4   v025
        BYTE   W12
        BYTE                   Dn4   v100
        BYTE   W12
        BYTE                   Dn4   v050
        BYTE   W12
        BYTE                   Dn4   v025
        BYTE   W12
// 045   ----------------------------------------
        BYTE   W12
        BYTE                   Dn4   v100
        BYTE   W12
        BYTE                   Dn4   v050
        BYTE   W12
        BYTE                   Dn4   v025
        BYTE   W60
// 046   ----------------------------------------
        BYTE   W24
        BYTE                   Ds4   v100
        BYTE   W12
        BYTE                   Ds4   v050
        BYTE   W12
        BYTE                   Ds4   v025
        BYTE   W12
        BYTE                   Cn4   v100
        BYTE   W12
        BYTE                   Cn4   v050
        BYTE   W12
        BYTE                   Cn4   v025
        BYTE   W12
// 047   ----------------------------------------
        BYTE                   Gn4   v100
        BYTE   W12
        BYTE                   Gn4   v050
        BYTE   W12
        BYTE                   Gn4   v025
        BYTE   W12
        BYTE                   Gn4   v070
        BYTE   W12
        BYTE                   Gn4   v035
        BYTE   W12
        BYTE                   Gn4   v020
        BYTE   W12
        BYTE                   Gn4   v055
        BYTE   W12
        BYTE                   Gn4   v035
        BYTE   W12
// 048   ----------------------------------------
        BYTE                   Gn4   v020
        BYTE   W12
        BYTE                   Gn4   v015
        BYTE   W12
        BYTE                   Gn4   v100
        BYTE   W12
        BYTE                   Gn4   v050
        BYTE   W12
        BYTE                   Gn4   v025
        BYTE   W12
        BYTE                   Ds4   v100
        BYTE   W12
        BYTE                   Ds4   v050
        BYTE   W12
        BYTE                   Ds4   v025
        BYTE   W12
// 049   ----------------------------------------
        BYTE                   As4   v100
        BYTE   W12
        BYTE                   As4   v050
        BYTE   W12
        BYTE                   As4   v025
        BYTE   W12
        BYTE                   As4   v070
        BYTE   W12
        BYTE                   As4   v035
        BYTE   W12
        BYTE                   As4   v020
        BYTE   W12
        BYTE                   As4   v055
        BYTE   W12
        BYTE                   As4   v035
        BYTE   W12
// 050   ----------------------------------------
        BYTE                   As4   v020
        BYTE   W12
        BYTE                   As4   v015
        BYTE   W12
        BYTE                   An4   v100
        BYTE   W12
        BYTE                   An4   v050
        BYTE   W12
        BYTE                   An4   v025
        BYTE   W12
        BYTE                   Gn4   v100
        BYTE   W12
        BYTE                   Gn4   v050
        BYTE   W12
        BYTE                   Gn4   v025
        BYTE   W12
// 051   ----------------------------------------
        BYTE                   Dn5   v100
        BYTE   W12
        BYTE                   Dn5   v050
        BYTE   W12
        BYTE                   Dn5   v025
        BYTE   W12
        BYTE                   Dn5   v070
        BYTE   W12
        BYTE                   Dn5   v035
        BYTE   W12
        BYTE                   Dn5   v020
        BYTE   W12
        BYTE                   Dn5   v055
        BYTE   W12
        BYTE                   Dn5   v035
        BYTE   W12
// 052   ----------------------------------------
        BYTE                   Dn5   v020
        BYTE   W12
        BYTE                   Dn5   v015
        BYTE   W12
        BYTE                   Dn5   v100
        BYTE   W12
        BYTE                   Dn5   v050
        BYTE   W12
        BYTE                   Dn5   v025
        BYTE   W12
        BYTE                   Cn5   v100
        BYTE   W12
        BYTE                   Cn5   v050
        BYTE   W12
        BYTE                   Cn5   v025
        BYTE   W12
// 053   ----------------------------------------
        BYTE                   Gn5   v100
        BYTE   W12
        BYTE                   Gn5   v050
        BYTE   W12
        BYTE                   Fs5   v100
        BYTE   W12
        BYTE                   Fs5   v050
        BYTE   W12
        BYTE                   Fs5   v025
        BYTE   W48
// 054   ----------------------------------------
        BYTE   W96
// 055   ----------------------------------------
        BYTE   W96
// 056   ----------------------------------------
        BYTE   W96
// 057   ----------------------------------------
        BYTE   W96
// 058   ----------------------------------------
        BYTE   W96
// 059   ----------------------------------------
        BYTE   W96
// 060   ----------------------------------------
        BYTE   W96
// 061   ----------------------------------------
        BYTE   W96
// 062   ----------------------------------------
        BYTE   W96
// 063   ----------------------------------------
        BYTE   W96
// 064   ----------------------------------------
        BYTE   W96
// 065   ----------------------------------------
        BYTE   W96
// 066   ----------------------------------------
        BYTE   W96
// 067   ----------------------------------------
        BYTE   W96
// 068   ----------------------------------------
        BYTE   W96
// 069   ----------------------------------------
        BYTE   W96
// 070   ----------------------------------------
        BYTE   W24
        BYTE                   Fs5   v100
        BYTE   W12
        BYTE                   Fs5   v050
        BYTE   W12
        BYTE                   Fs5   v025
        BYTE   W12
        BYTE                   En5   v100
        BYTE   W12
        BYTE                   En5   v050
        BYTE   W12
        BYTE                   En5   v025
        BYTE   W12
// 071   ----------------------------------------
IntheMorningSun_14_71:
        BYTE           N05     An5   v100
        BYTE   W12
        BYTE                   An5   v050
        BYTE   W12
        BYTE                   An5   v025
        BYTE   W12
        BYTE                   An5   v070
        BYTE   W12
        BYTE                   An5   v035
        BYTE   W12
        BYTE                   An5   v020
        BYTE   W12
        BYTE                   An5   v055
        BYTE   W12
        BYTE                   An5   v035
        BYTE   W12
        BYTE   PEND
// 072   ----------------------------------------
IntheMorningSun_14_72:
        BYTE           N05     An5   v020
        BYTE   W12
        BYTE                   An5   v015
        BYTE   W12
        BYTE                   Fs5   v100
        BYTE   W12
        BYTE                   Fs5   v050
        BYTE   W12
        BYTE                   Fs5   v025
        BYTE   W12
        BYTE                   En5   v100
        BYTE   W12
        BYTE                   En5   v050
        BYTE   W12
        BYTE                   En5   v025
        BYTE   W12
        BYTE   PEND
// 073   ----------------------------------------
IntheMorningSun_14_73:
        BYTE           N05     An4   v100
        BYTE   W12
        BYTE                   An4   v050
        BYTE   W12
        BYTE                   An4   v025
        BYTE   W12
        BYTE                   An4   v070
        BYTE   W12
        BYTE                   An4   v035
        BYTE   W12
        BYTE                   An4   v020
        BYTE   W12
        BYTE                   An4   v055
        BYTE   W12
        BYTE                   An4   v035
        BYTE   W12
        BYTE   PEND
// 074   ----------------------------------------
        BYTE                   An4   v020
        BYTE   W12
        BYTE                   An4   v015
        BYTE   W12
        BYTE                   Fs5   v100
        BYTE   W12
        BYTE                   Fs5   v050
        BYTE   W12
        BYTE                   Fs5   v025
        BYTE   W12
        BYTE                   En5   v100
        BYTE   W12
        BYTE                   En5   v050
        BYTE   W12
        BYTE                   En5   v025
        BYTE   W12
// 075   ----------------------------------------
        BYTE   PATT
         POIN2  IntheMorningSun_14_71
// 076   ----------------------------------------
        BYTE   PATT
         POIN2  IntheMorningSun_14_72
// 077   ----------------------------------------
        BYTE   PATT
         POIN2  IntheMorningSun_14_73
// 078   ----------------------------------------
        BYTE           N05     An4   v020
        BYTE   W12
        BYTE                   An4   v015
        BYTE   W24
        BYTE           N01     Fs4   v095
        BYTE   W12
        BYTE                   En4
        BYTE   W12
        BYTE                   Bn3
        BYTE   W12
        BYTE                   Fs4
        BYTE   W12
        BYTE                   En4
        BYTE   W12
// 079   ----------------------------------------
        BYTE   PATT
         POIN2  IntheMorningSun_14_9
// 080   ----------------------------------------
        BYTE   PATT
         POIN2  IntheMorningSun_14_8
// 081   ----------------------------------------
        BYTE   PATT
         POIN2  IntheMorningSun_14_11
// 082   ----------------------------------------
        BYTE   PATT
         POIN2  IntheMorningSun_14_8
// 083   ----------------------------------------
        BYTE   PATT
         POIN2  IntheMorningSun_14_11
// 084   ----------------------------------------
        BYTE   PATT
         POIN2  IntheMorningSun_14_14
// 085   ----------------------------------------
        BYTE   PATT
         POIN2  IntheMorningSun_14_15
// 086   ----------------------------------------
        BYTE   PATT
         POIN2  IntheMorningSun_14_16
// 087   ----------------------------------------
        BYTE   W96
// 088   ----------------------------------------
        BYTE   W24
        BYTE   GoTo
         POIN2  IntheMorningSun_14_LOOP
        BYTE   FINE

//***************** Track 15 (Midi-Chn.7) ******************//

IntheMorningSun_15:
        BYTE   KEYSH   IntheMorningSun_key+0
// 000   ----------------------------------------
        BYTE           VOICE   74
        BYTE           PAN     c_v+10
        BYTE           VOL     94
        BYTE   W96
// 001   ----------------------------------------
        BYTE   W96
// 002   ----------------------------------------
        BYTE   W96
// 003   ----------------------------------------
        BYTE   W96
// 004   ----------------------------------------
        BYTE   W96
// 005   ----------------------------------------
        BYTE   W96
// 006   ----------------------------------------
        BYTE   W96
// 007   ----------------------------------------
        BYTE   W96
// 008   ----------------------------------------
        BYTE   W96
// 009   ----------------------------------------
        BYTE   W96
// 010   ----------------------------------------
        BYTE   W96
// 011   ----------------------------------------
        BYTE   W96
// 012   ----------------------------------------
        BYTE   W96
// 013   ----------------------------------------
        BYTE   W96
// 014   ----------------------------------------
        BYTE   W96
// 015   ----------------------------------------
        BYTE   W96
// 016   ----------------------------------------
        BYTE   W24
        BYTE           PAN     c_v-64
        BYTE           VOL     47
        BYTE   W72
// 017   ----------------------------------------
        BYTE   W96
// 018   ----------------------------------------
        BYTE   W24
IntheMorningSun_15_LOOP:
        BYTE           N24     Fs4   v099
        BYTE   W24
        BYTE           N36     Cs5
        BYTE   W36
        BYTE           N12     Bn4
        BYTE   W12
// 019   ----------------------------------------
        BYTE                   Bn4   v052
        BYTE   W12
        BYTE                   Bn4   v032
        BYTE   W12
        BYTE           N72     Fs4   v099
        BYTE   W48
        BYTE           VOL     44
        BYTE   W06
        BYTE                   41
        BYTE   W06
        BYTE                   38
        BYTE   W06
        BYTE                   35
        BYTE   W06
// 020   ----------------------------------------
        BYTE                   33
        BYTE           N24     Fs4   v052
        BYTE   W24
        BYTE                   Fs4   v032
        BYTE   W24
        BYTE           VOL     47
        BYTE           N36     En4   v099
        BYTE   W36
        BYTE           N12     An4
        BYTE   W12
// 021   ----------------------------------------
        BYTE                   An4   v052
        BYTE   W12
        BYTE                   An4   v032
        BYTE   W12
        BYTE           N72     Fs4   v099
        BYTE   W18
        BYTE           VOL     45
        BYTE   W06
        BYTE                   44
        BYTE   W06
        BYTE                   42
        BYTE   W06
        BYTE                   41
        BYTE   W06
        BYTE                   39
        BYTE   W06
        BYTE                   38
        BYTE   W06
        BYTE                   36
        BYTE   W06
        BYTE                   35
        BYTE   W06
        BYTE                   33
        BYTE   W06
// 022   ----------------------------------------
        BYTE                   32
        BYTE           N12     Fs4   v052
        BYTE   W06
        BYTE           VOL     30
        BYTE   W06
        BYTE                   29
        BYTE           N12     Fs4   v032
        BYTE   W12
        BYTE           VOL     47
        BYTE           N24     Fs3   v099
        BYTE   W24
        BYTE                   Bn3
        BYTE   W24
        BYTE           N12     Fs3
        BYTE   W12
        BYTE           N24     Cs4
        BYTE   W12
// 023   ----------------------------------------
        BYTE   W12
        BYTE           N12     Fs3
        BYTE   W12
        BYTE                   Fs3   v052
        BYTE   W12
        BYTE           N24     Dn4   v099
        BYTE   W24
        BYTE           N12     Fs3
        BYTE   W12
        BYTE                   Fs3   v052
        BYTE   W12
        BYTE           N24     En4   v099
        BYTE   W12
// 024   ----------------------------------------
        BYTE   W12
        BYTE           N12     An4
        BYTE   W12
        BYTE                   An4   v052
        BYTE   W12
        BYTE           TIE     Fs4   v099
        BYTE   W36
        BYTE           VOL     45
        BYTE   W06
        BYTE                   43
        BYTE   W06
        BYTE                   42
        BYTE   W06
        BYTE                   40
        BYTE   W06
// 025   ----------------------------------------
        BYTE                   39
        BYTE   W06
        BYTE                   37
        BYTE   W06
        BYTE                   35
        BYTE   W06
        BYTE                   33
        BYTE   W06
        BYTE                   32
        BYTE   W06
        BYTE                   30
        BYTE   W06
        BYTE                   28
        BYTE   W06
        BYTE                   27
        BYTE   W06
        BYTE                   25
        BYTE   W06
        BYTE                   24
        BYTE   W06
        BYTE                   22
        BYTE   W06
        BYTE                   20
        BYTE   W06
        BYTE           EOT
        BYTE           N12     Fs4   v052
        BYTE   W12
        BYTE                   Fs4   v032
        BYTE   W12
// 026   ----------------------------------------
        BYTE                   Fs4   v022
        BYTE   W12
        BYTE                   Fs4   v012
        BYTE   W12
        BYTE           VOL     47
        BYTE           N24     Fs5   v099
        BYTE   W24
        BYTE           N36     Cs6
        BYTE   W36
        BYTE           N12     Bn5
        BYTE   W12
// 027   ----------------------------------------
        BYTE                   Bn5   v052
        BYTE   W12
        BYTE                   Bn5   v032
        BYTE   W12
        BYTE           N72     Fs5   v099
        BYTE   W36
        BYTE           VOL     45
        BYTE   W06
        BYTE                   43
        BYTE   W06
        BYTE                   41
        BYTE   W06
        BYTE                   39
        BYTE   W06
        BYTE                   37
        BYTE   W06
        BYTE                   35
        BYTE   W06
// 028   ----------------------------------------
        BYTE                   33
        BYTE           N12     Fs5   v052
        BYTE   W06
        BYTE           VOL     31
        BYTE   W06
        BYTE                   28
        BYTE           N12     Fs5   v032
        BYTE   W06
        BYTE           VOL     27
        BYTE   W06
        BYTE           N12     Fs5   v022
        BYTE   W12
        BYTE                   Fs5   v012
        BYTE   W12
        BYTE           VOL     47
        BYTE           N36     En5   v099
        BYTE   W36
        BYTE           N12     An5
        BYTE   W12
// 029   ----------------------------------------
        BYTE                   An5   v052
        BYTE   W12
        BYTE                   An5   v032
        BYTE   W12
        BYTE           N72     Fs5   v099
        BYTE   W18
        BYTE           VOL     44
        BYTE   W06
        BYTE                   41
        BYTE   W06
        BYTE                   38
        BYTE   W06
        BYTE                   35
        BYTE   W06
        BYTE                   33
        BYTE   W06
        BYTE                   30
        BYTE   W06
        BYTE                   27
        BYTE   W06
        BYTE                   24
        BYTE   W12
// 030   ----------------------------------------
        BYTE           N12     Fs5   v052
        BYTE   W12
        BYTE                   Fs5   v032
        BYTE   W12
        BYTE           VOL     47
        BYTE           N24     An4   v099
        BYTE   W24
        BYTE                   Bn4
        BYTE   W24
        BYTE           N12     Fs5
        BYTE   W12
        BYTE           N24
        BYTE   W12
// 031   ----------------------------------------
        BYTE   W12
        BYTE           N12
        BYTE   W12
        BYTE                   Fs5   v052
        BYTE   W12
        BYTE           N24     Fs5   v099
        BYTE   W24
        BYTE           N12     En5
        BYTE   W12
        BYTE                   En5   v118
        BYTE   W12
        BYTE           N24     Dn5   v099
        BYTE   W12
// 032   ----------------------------------------
        BYTE   W12
        BYTE           N12     En5
        BYTE   W12
        BYTE                   En5   v052
        BYTE   W12
        BYTE           TIE     Dn5   v099
        BYTE   W24
        BYTE           VOL     46
        BYTE   W06
        BYTE                   45
        BYTE   W06
        BYTE                   44
        BYTE   W06
        BYTE                   42
        BYTE   W06
        BYTE                   41
        BYTE   W06
        BYTE                   40
        BYTE   W06
// 033   ----------------------------------------
        BYTE                   38
        BYTE   W06
        BYTE                   37
        BYTE   W06
        BYTE                   36
        BYTE   W06
        BYTE                   34
        BYTE   W06
        BYTE                   33
        BYTE   W06
        BYTE                   32
        BYTE   W06
        BYTE                   30
        BYTE   W06
        BYTE                   29
        BYTE   W06
        BYTE                   28
        BYTE   W06
        BYTE                   27
        BYTE   W06
        BYTE                   25
        BYTE   W06
        BYTE                   24
        BYTE   W06
        BYTE           EOT
        BYTE           VOL     22
        BYTE           N12     Dn5   v052
        BYTE   W06
        BYTE           VOL     21
        BYTE   W06
        BYTE                   20
        BYTE           N12     Dn5   v032
        BYTE   W12
// 034   ----------------------------------------
        BYTE                   Dn5   v022
        BYTE   W12
        BYTE                   Dn5   v012
        BYTE   W48
        BYTE           PAN     c_v+10
        BYTE           VOL     76
        BYTE   W36
// 035   ----------------------------------------
        BYTE   W24
        BYTE           N06     En4   v127
        BYTE   W36
        BYTE                   Dn4
        BYTE   W36
// 036   ----------------------------------------
        BYTE   W96
// 037   ----------------------------------------
        BYTE   W24
        BYTE                   Gn4
        BYTE   W36
        BYTE                   Fn4
        BYTE   W36
// 038   ----------------------------------------
        BYTE   W24
        BYTE                   As3
        BYTE   W36
        BYTE                   Dn4
        BYTE   W36
// 039   ----------------------------------------
        BYTE   W24
        BYTE                   Cn4
        BYTE   W36
        BYTE                   En4
        BYTE   W36
// 040   ----------------------------------------
        BYTE   W24
        BYTE                   Dn4
        BYTE   W36
        BYTE                   An4
        BYTE   W36
// 041   ----------------------------------------
        BYTE   W12
        BYTE                   An4
        BYTE   W84
// 042   ----------------------------------------
        BYTE   W24
        BYTE                   Dn4
        BYTE   W36
        BYTE                   As3
        BYTE   W36
// 043   ----------------------------------------
        BYTE   W24
        BYTE                   Fn4
        BYTE   W36
        BYTE                   Cn4
        BYTE   W36
// 044   ----------------------------------------
        BYTE   W24
        BYTE                   Gn4
        BYTE   W36
        BYTE                   Dn4
        BYTE   W36
// 045   ----------------------------------------
        BYTE   W12
        BYTE                   Dn4
        BYTE   W84
// 046   ----------------------------------------
        BYTE   W96
// 047   ----------------------------------------
        BYTE   W24
        BYTE                   Ds4
        BYTE   W36
        BYTE                   Cn4
        BYTE   W36
// 048   ----------------------------------------
        BYTE                   Gn4
        BYTE   W96
// 049   ----------------------------------------
        BYTE   W24
        BYTE                   Cn4
        BYTE   W36
        BYTE                   An3
        BYTE   W36
// 050   ----------------------------------------
        BYTE                   Ds4
        BYTE   W96
// 051   ----------------------------------------
        BYTE   W24
        BYTE                   Dn4
        BYTE   W36
        BYTE                   An3
        BYTE   W36
// 052   ----------------------------------------
        BYTE                   Gn4
        BYTE   W96
// 053   ----------------------------------------
        BYTE   W96
// 054   ----------------------------------------
IntheMorningSun_15_54:
        BYTE   W24
        BYTE           N06     Fs4   v127
        BYTE   W36
        BYTE                   En4
        BYTE   W36
        BYTE   PEND
// 055   ----------------------------------------
        BYTE                   An4
        BYTE   W96
// 056   ----------------------------------------
        BYTE   PATT
         POIN2  IntheMorningSun_15_54
// 057   ----------------------------------------
        BYTE           N06     An3   v127
        BYTE   W96
// 058   ----------------------------------------
        BYTE   PATT
         POIN2  IntheMorningSun_15_54
// 059   ----------------------------------------
        BYTE           N06     An4   v127
        BYTE   W96
// 060   ----------------------------------------
        BYTE   PATT
         POIN2  IntheMorningSun_15_54
// 061   ----------------------------------------
        BYTE           N06     An3   v127
        BYTE   W96
// 062   ----------------------------------------
        BYTE   PATT
         POIN2  IntheMorningSun_15_54
// 063   ----------------------------------------
        BYTE           N06     An4   v127
        BYTE   W96
// 064   ----------------------------------------
        BYTE   PATT
         POIN2  IntheMorningSun_15_54
// 065   ----------------------------------------
        BYTE           N06     An3   v127
        BYTE   W96
// 066   ----------------------------------------
        BYTE   PATT
         POIN2  IntheMorningSun_15_54
// 067   ----------------------------------------
        BYTE   PATT
         POIN2  IntheMorningSun_15_54
// 068   ----------------------------------------
        BYTE   W24
        BYTE           N06     En4   v127
        BYTE   W72
// 069   ----------------------------------------
        BYTE   W96
// 070   ----------------------------------------
IntheMorningSun_15_70:
        BYTE   W24
        BYTE           N06     Fs4   v100
        BYTE   W36
        BYTE                   En4
        BYTE   W36
        BYTE   PEND
// 071   ----------------------------------------
        BYTE                   An4
        BYTE   W96
// 072   ----------------------------------------
        BYTE   PATT
         POIN2  IntheMorningSun_15_70
// 073   ----------------------------------------
        BYTE           N06     An3   v061
        BYTE   W96
// 074   ----------------------------------------
        BYTE   PATT
         POIN2  IntheMorningSun_15_70
// 075   ----------------------------------------
        BYTE           N06     An4   v100
        BYTE   W96
// 076   ----------------------------------------
        BYTE   PATT
         POIN2  IntheMorningSun_15_70
// 077   ----------------------------------------
        BYTE           N06     An3   v061
        BYTE   W96
// 078   ----------------------------------------
        BYTE   W96
// 079   ----------------------------------------
        BYTE   W96
// 080   ----------------------------------------
        BYTE   W96
// 081   ----------------------------------------
        BYTE   W96
// 082   ----------------------------------------
        BYTE   W96
// 083   ----------------------------------------
        BYTE   W96
// 084   ----------------------------------------
        BYTE   W96
// 085   ----------------------------------------
        BYTE   W96
// 086   ----------------------------------------
        BYTE   W48
        BYTE           PAN     c_v-64
        BYTE           VOL     47
        BYTE   W48
// 087   ----------------------------------------
        BYTE   W96
// 088   ----------------------------------------
        BYTE   W24
        BYTE   GoTo
         POIN2  IntheMorningSun_15_LOOP
        BYTE   FINE


//********************** End of Song ***********************//

        ALIGN 4
IntheMorningSun:
        BYTE   16                      // Num Tracks
        BYTE   0                       // Unknown
        BYTE   IntheMorningSun_pri     // Priority
        BYTE   IntheMorningSun_rev     // Reverb

        POIN2   IntheMorningSun_grp    

        POIN2   IntheMorningSun_0
        POIN2   IntheMorningSun_1
        POIN2   IntheMorningSun_2
        POIN2   IntheMorningSun_3
        POIN2   IntheMorningSun_4
        POIN2   IntheMorningSun_5
        POIN2   IntheMorningSun_6
        POIN2   IntheMorningSun_7
        POIN2   IntheMorningSun_8
        POIN2   IntheMorningSun_9
        POIN2   IntheMorningSun_10
        POIN2   IntheMorningSun_11
        POIN2   IntheMorningSun_12
        POIN2   IntheMorningSun_13
        POIN2   IntheMorningSun_14
        POIN2   IntheMorningSun_15

        
