//Event file generated from Sappy .s format.
	#include "MPlayDef.event"

	#define	song1D_grp  voicegroup000
	#define	song1D_pri  0
	#define	song1D_rev  0
	#define	song1D_mvl  127
	#define	song1D_key  0
	#define	song1D_tbs  1
	#define	song1D_exg  0
	#define	song1D_cmp  1

	// .rodata
	//	song1D
	ALIGN 4


//**************** Track 1 (Midi-Chn.0) ****************//

song1D_001:
//  #01 //000   ----------------------------------------
 BYTE   KEYSH   song1D_key+0
 BYTE   TEMPO   134*song1D_tbs/2
 BYTE   VOICE   40
 BYTE   PAN   c_v+35
 BYTE   VOL   35*song1D_mvl/mxv
 BYTE   MOD 0
 BYTE   BEND   c_v+0
 BYTE   W12
 BYTE   N12  Bn2  v068
 BYTE   N12  En3
 BYTE   W24
 BYTE   Bn2
 BYTE   N12  En3
 BYTE   W24
 BYTE   Bn2  v076
 BYTE   N12  En3
 BYTE   W24
 BYTE   N08  Bn2  v072
 BYTE   N08  En3
 BYTE   W12
//  #01 //001   ----------------------------------------
Label_01056B70:
 BYTE   N08  Cn3  v080
 BYTE   N08  Fn3
 BYTE   W12
 BYTE   N12  Bn2  v084
 BYTE   N12  En3
 BYTE   W24
 BYTE   N08  Bn2  v076
 BYTE   N08  En3
 BYTE   W12
 BYTE   Cn3  v068
 BYTE   N08  Fn3
 BYTE   W12
 BYTE   Bn2  v080
 BYTE   N08  En3
 BYTE   W12
 BYTE   Dn3
 BYTE   N08  Gn3
 BYTE   W12
 BYTE   Bn2
 BYTE   N08  En3
 BYTE   W12
 BYTE   PEND 
//  #01 //002   ----------------------------------------
Label_01056B95:
 BYTE   N08  Cn3  v084
 BYTE   N08  Fn3
 BYTE   W12
 BYTE   N12  Bn2  v068
 BYTE   N12  En3
 BYTE   W24
 BYTE   Bn2
 BYTE   N12  En3
 BYTE   W24
 BYTE   Bn2  v076
 BYTE   N12  En3
 BYTE   W24
 BYTE   N08  Bn2  v072
 BYTE   N08  En3
 BYTE   W12
 BYTE   PEND 
//  #01 //003   ----------------------------------------
 BYTE   PATT
  POIN2 Label_01056B70
//  #01 //004   ----------------------------------------
Label_01056BB6:
 BYTE   N08  Cn3  v084
 BYTE   N08  Fn3
 BYTE   W12
 BYTE   N12  Bn2  v080
 BYTE   N12  En3
 BYTE   W24
 BYTE   Bn2  v076
 BYTE   N12  En3
 BYTE   W24
 BYTE   Bn2  v080
 BYTE   N12  En3
 BYTE   W24
 BYTE   Bn2
 BYTE   N12  En3
 BYTE   W12
 BYTE   PEND 
//  #01 //005   ----------------------------------------
Label_01056BD1:
 BYTE   W12
 BYTE   N12  Bn2  v080
 BYTE   N12  En3
 BYTE   W24
 BYTE   Bn2  v076
 BYTE   N12  En3
 BYTE   W24
 BYTE   Bn2  v080
 BYTE   N12  En3
 BYTE   W24
 BYTE   Bn2
 BYTE   N12  En3
 BYTE   W12
 BYTE   PEND 
//  #01 //006   ----------------------------------------
Label_01056BE7:
 BYTE   W12
 BYTE   N12  Bn2  v084
 BYTE   N12  En3
 BYTE   W24
 BYTE   N08  Bn2  v076
 BYTE   N08  En3
 BYTE   W12
 BYTE   Cn3  v068
 BYTE   N08  Fn3
 BYTE   W12
 BYTE   Bn2  v080
 BYTE   N08  En3
 BYTE   W12
 BYTE   Dn3
 BYTE   N08  Gn3
 BYTE   W12
 BYTE   Bn2
 BYTE   N08  En3
 BYTE   W12
 BYTE   PEND 
//  #01 //007   ----------------------------------------
 BYTE   PATT
  POIN2 Label_01056BB6
//  #01 //008   ----------------------------------------
 BYTE   PATT
  POIN2 Label_01056BD1
//  #01 //009   ----------------------------------------
Label_01056C11:
 BYTE   W12
 BYTE   N48  Bn2  v076
 BYTE   N48  Bn3
 BYTE   W48
 BYTE   An2  v084
 BYTE   N48  An3
 BYTE   W36
 BYTE   PEND 
//  #01 //010   ----------------------------------------
Label_01056C1E:
 BYTE   W12
 BYTE   N48  Cn3  v084
 BYTE   N48  Cn4
 BYTE   W48
 BYTE   N36  Dn3
 BYTE   N36  Dn4
 BYTE   W36
 BYTE   PEND 
//  #01 //011   ----------------------------------------
Label_01056C2B:
 BYTE   N06  Cs3  v068
 BYTE   N06  Cs4
 BYTE   W06
 BYTE   Cn3  v076
 BYTE   N06  Cn4
 BYTE   W06
 BYTE   N12  Bn2  v068
 BYTE   N12  En3
 BYTE   W24
 BYTE   Bn2
 BYTE   N12  En3
 BYTE   W24
 BYTE   Bn2  v076
 BYTE   N12  En3
 BYTE   W24
 BYTE   N08  Bn2  v072
 BYTE   N08  En3
 BYTE   W12
 BYTE   PEND 
//  #01 //012   ----------------------------------------
 BYTE   PATT
  POIN2 Label_01056B70
//  #01 //013   ----------------------------------------
 BYTE   PATT
  POIN2 Label_01056BB6
//  #01 //014   ----------------------------------------
 BYTE   PATT
  POIN2 Label_01056BD1
//  #01 //015   ----------------------------------------
 BYTE   PATT
  POIN2 Label_01056BD1
//  #01 //016   ----------------------------------------
 BYTE   PATT
  POIN2 Label_01056C11
//  #01 //017   ----------------------------------------
 BYTE   PATT
  POIN2 Label_01056C1E
//  #01 //018   ----------------------------------------
 BYTE   PATT
  POIN2 Label_01056C2B
//  #01 //019   ----------------------------------------
 BYTE   PATT
  POIN2 Label_01056B70
//  #01 //020   ----------------------------------------
Label_01056C74:
 BYTE   N08  Cn3  v084
 BYTE   N08  Fn3
 BYTE   W12
 BYTE   N48  Bn2  v088
 BYTE   N48  En3
 BYTE   W48
 BYTE   N24  Dn3  v084
 BYTE   N36  Gn3
 BYTE   W24
 BYTE   N12  Dn3
 BYTE   W12
 BYTE   PEND 
//  #01 //021   ----------------------------------------
Label_01056C8A:
 BYTE   N12  En3  v096
 BYTE   N36  An3
 BYTE   W12
 BYTE   N24  En3
 BYTE   W24
 BYTE   Fn3  v084
 BYTE   N24  As3
 BYTE   W24
 BYTE   N48  En3  v088
 BYTE   N48  An3
 BYTE   W36
 BYTE   PEND 
//  #01 //022   ----------------------------------------
Label_01056C9F:
 BYTE   W12
 BYTE   TIE  Bn2  v080
 BYTE   TIE  Ds3  v084
 BYTE   TIE  Gs3  v088
 BYTE   W84
 BYTE   PEND 
//  #01 //023   ----------------------------------------
Label_01056CAB:
 BYTE   W12
 BYTE   W03
 BYTE   W03
 BYTE   W03
 BYTE   W03
 BYTE   W03
 BYTE   W03
 BYTE   W03
 BYTE   W03
 BYTE   W03
 BYTE   W03
 BYTE   W03
 BYTE   W03
 BYTE   W03
 BYTE   W03
 BYTE   W03
 BYTE   W03
 BYTE   W03
 BYTE   W03
 BYTE   W03
 BYTE   W03
 BYTE   W03
 BYTE   W03
 BYTE   W03
 BYTE   W03
 BYTE   W03
 BYTE   W03
 BYTE   W01
 BYTE   PEND 
 BYTE   EOT
 BYTE   Bn2  v063
 BYTE   Gs3
 BYTE   W02
 BYTE   W03
//  #01 //024   ----------------------------------------
Label_01056CCE:
 BYTE   W03
 BYTE   W03
 BYTE   W03
 BYTE   W03
 BYTE   PAN   c_v-1
 BYTE   TIE  Fn3  v068
 BYTE   TIE  Cn4  v072
 BYTE   TIE  Fn4  v068
 BYTE   W06
 BYTE   W03
 BYTE   W03
 BYTE   W03
 BYTE   W03
 BYTE   W03
 BYTE   W03
 BYTE   W03
 BYTE   W03
 BYTE   W03
 BYTE   W03
 BYTE   W03
 BYTE   W03
 BYTE   W03
 BYTE   W03
 BYTE   W03
 BYTE   W03
 BYTE   W03
 BYTE   W03
 BYTE   W03
 BYTE   W03
 BYTE   W03
 BYTE   W03
 BYTE   W03
 BYTE   W03
 BYTE   W03
 BYTE   W03
 BYTE   PEND 
//  #01 //025   ----------------------------------------
Label_01056CF9:
 BYTE   W03
 BYTE   W03
 BYTE   W03
 BYTE   W03
 BYTE   W06
 BYTE   W03
 BYTE   W03
 BYTE   W03
 BYTE   W03
 BYTE   W03
 BYTE   W03
 BYTE   W03
 BYTE   W03
 BYTE   W03
 BYTE   W03
 BYTE   W03
 BYTE   W03
 BYTE   W03
 BYTE   W03
 BYTE   W03
 BYTE   W03
 BYTE   W03
 BYTE   W03
 BYTE   W03
 BYTE   W03
 BYTE   W03
 BYTE   W03
 BYTE   W03
 BYTE   W03
 BYTE   W03
 BYTE   W03
 BYTE   PEND 
//  #01 //026   ----------------------------------------
Label_01056D19:
 BYTE   W03
 BYTE   W03
 BYTE   W03
 BYTE   W03
 BYTE   W03
 BYTE   W03
 BYTE   W03
 BYTE   W03
 BYTE   W03
 BYTE   W03
 BYTE   W03
 BYTE   W03
 BYTE   W03
 BYTE   W03
 BYTE   W03
 BYTE   W03
 BYTE   W03
 BYTE   W03
 BYTE   W03
 BYTE   W03
 BYTE   W03
 BYTE   W03
 BYTE   W03
 BYTE   W03
 BYTE   W03
 BYTE   W03
 BYTE   W03
 BYTE   W03
 BYTE   W03
 BYTE   W03
 BYTE   W03
 BYTE   W03
 BYTE   PEND 
//  #01 //027   ----------------------------------------
Label_01056D3A:
 BYTE   W03
 BYTE   W03
 BYTE   W03
 BYTE   W03
 BYTE   W03
 BYTE   W03
 BYTE   W03
 BYTE   W03
 BYTE   W03
 BYTE   W03
 BYTE   W03
 BYTE   W03
 BYTE   W60
 BYTE   PEND 
//  #01 //028   ----------------------------------------
 BYTE   W12
 BYTE   EOT
 BYTE   Fn3  v072
 BYTE   Fn4
 BYTE   PAN   c_v+35
 BYTE   N12  Bn2  v080
 BYTE   N12  En3  v088
 BYTE   W24
 BYTE   Bn2  v076
 BYTE   N12  En3  v080
 BYTE   W24
 BYTE   Bn2  v076
 BYTE   N12  En3  v084
 BYTE   W24
 BYTE   Bn2  v068
 BYTE   N12  En3  v080
 BYTE   W12
//  #01 //029   ----------------------------------------
Label_01056D68:
 BYTE   W12
 BYTE   N12  Bn2  v068
 BYTE   N12  En3  v076
 BYTE   W24
 BYTE   Bn2  v064
 BYTE   N12  En3  v076
 BYTE   W24
 BYTE   Bn2
 BYTE   N12  En3  v088
 BYTE   W24
 BYTE   Bn2  v084
 BYTE   N12  En3  v092
 BYTE   W12
 BYTE   PEND 
//  #01 //030   ----------------------------------------
 BYTE   PATT
  POIN2 Label_01056D68
//  #01 //031   ----------------------------------------
Label_01056D87:
 BYTE   W12
 BYTE   N08  Bn2  v100
 BYTE   N08  En3
 BYTE   W36
 BYTE   N10  Cn3  v092
 BYTE   N10  Fn3
 BYTE   W24
 BYTE   N20  Cn3  v096
 BYTE   N20  Fn3
 BYTE   W24
 BYTE   PEND 
//  #01 //032   ----------------------------------------
Label_01056D9B:
 BYTE   N05  An2  v088
 BYTE   N05  Dn3
 BYTE   W06
 BYTE   Cn3  v096
 BYTE   N05  Fn3
 BYTE   W06
 BYTE   N10  Bn2  v092
 BYTE   N10  En3
 BYTE   W36
 BYTE   Bn2  v104
 BYTE   N10  En3
 BYTE   W36
 BYTE   Bn2
 BYTE   N10  En3
 BYTE   W12
 BYTE   PEND 
//  #01 //033   ----------------------------------------
 BYTE   PATT
  POIN2 Label_01056D68
//  #01 //034   ----------------------------------------
 BYTE   PATT
  POIN2 Label_01056D68
//  #01 //035   ----------------------------------------
Label_01056DC0:
 BYTE   W12
 BYTE   N12  As2  v068
 BYTE   N12  Ds3  v076
 BYTE   W24
 BYTE   As2  v064
 BYTE   N12  Ds3  v076
 BYTE   W24
 BYTE   As2
 BYTE   N12  Ds3  v088
 BYTE   W24
 BYTE   As2  v084
 BYTE   N12  Ds3  v092
 BYTE   W12
 BYTE   PEND 
//  #01 //036   ----------------------------------------
Label_01056DDA:
 BYTE   W12
 BYTE   N12  An2  v068
 BYTE   N12  Dn3  v076
 BYTE   W24
 BYTE   An2  v064
 BYTE   N12  Dn3  v076
 BYTE   W24
 BYTE   An2
 BYTE   N12  Dn3  v088
 BYTE   W24
 BYTE   An2  v084
 BYTE   N12  Dn3  v092
 BYTE   W12
 BYTE   PEND 
//  #01 //037   ----------------------------------------
Label_01056DF4:
 BYTE   W12
 BYTE   N30  Cn3  v080
 BYTE   N30  Fn3  v088
 BYTE   W36
 BYTE   Cn3
 BYTE   N30  Fn3
 BYTE   W36
 BYTE   Cn3
 BYTE   N30  Fn3  v092
 BYTE   W12
 BYTE   PEND 
//  #01 //038   ----------------------------------------
Label_01056E06:
 BYTE   W24
 BYTE   N30  Cn3  v092
 BYTE   N30  Fn3  v088
 BYTE   W36
 BYTE   N40  Cn3
 BYTE   N40  Fn3  v092
 BYTE   W36
 BYTE   PEND 
//  #01 //039   ----------------------------------------
Label_01056E15:
 BYTE   W12
 BYTE   N96  Bn2  v088
 BYTE   N96  En3  v092
 BYTE   N96  Fs3  v076
 BYTE   W84
 BYTE   PEND 
//  #01 //040   ----------------------------------------
Label_01056E21:
 BYTE   W12
 BYTE   N96  Bn2  v052
 BYTE   N96  Ds3  v068
 BYTE   N96  Fs3  v064
 BYTE   W84
 BYTE   PEND 
//  #01 //041   ----------------------------------------
Label_01056E2D:
 BYTE   W12
 BYTE   N12  Bn2  v068
 BYTE   N12  En3
 BYTE   W24
 BYTE   Bn2
 BYTE   N12  En3
 BYTE   W24
 BYTE   Bn2  v076
 BYTE   N12  En3
 BYTE   W24
 BYTE   N08  Bn2  v072
 BYTE   N08  En3
 BYTE   W12
 BYTE   PEND 
//  #01 //042   ----------------------------------------
 BYTE   PATT
  POIN2 Label_01056B70
//  #01 //043   ----------------------------------------
 BYTE   PATT
  POIN2 Label_01056B95
//  #01 //044   ----------------------------------------
 BYTE   PATT
  POIN2 Label_01056B70
//  #01 //045   ----------------------------------------
 BYTE   PATT
  POIN2 Label_01056BB6
//  #01 //046   ----------------------------------------
 BYTE   PATT
  POIN2 Label_01056BD1
//  #01 //047   ----------------------------------------
 BYTE   PATT
  POIN2 Label_01056BE7
//  #01 //048   ----------------------------------------
 BYTE   PATT
  POIN2 Label_01056BB6
//  #01 //049   ----------------------------------------
 BYTE   PATT
  POIN2 Label_01056BD1
//  #01 //050   ----------------------------------------
 BYTE   PATT
  POIN2 Label_01056C11
//  #01 //051   ----------------------------------------
 BYTE   PATT
  POIN2 Label_01056C1E
//  #01 //052   ----------------------------------------
 BYTE   PATT
  POIN2 Label_01056C2B
//  #01 //053   ----------------------------------------
 BYTE   PATT
  POIN2 Label_01056B70
//  #01 //054   ----------------------------------------
 BYTE   PATT
  POIN2 Label_01056BB6
//  #01 //055   ----------------------------------------
 BYTE   PATT
  POIN2 Label_01056BD1
//  #01 //056   ----------------------------------------
 BYTE   PATT
  POIN2 Label_01056BD1
//  #01 //057   ----------------------------------------
 BYTE   PATT
  POIN2 Label_01056C11
//  #01 //058   ----------------------------------------
 BYTE   PATT
  POIN2 Label_01056C1E
//  #01 //059   ----------------------------------------
 BYTE   PATT
  POIN2 Label_01056C2B
//  #01 //060   ----------------------------------------
 BYTE   PATT
  POIN2 Label_01056B70
//  #01 //061   ----------------------------------------
 BYTE   PATT
  POIN2 Label_01056C74
//  #01 //062   ----------------------------------------
 BYTE   PATT
  POIN2 Label_01056C8A
//  #01 //063   ----------------------------------------
 BYTE   PATT
  POIN2 Label_01056C9F
//  #01 //064   ----------------------------------------
 BYTE   PATT
  POIN2 Label_01056CAB
//  #01 //065   ----------------------------------------
 BYTE   EOT
 BYTE   Bn2  v063
 BYTE   Gs3
 BYTE   W02
 BYTE   W03
 BYTE   GoTo
  POIN2 Label_01056CCE
//  #01 //066   ----------------------------------------
 BYTE   PATT
  POIN2 Label_01056CCE
//  #01 //067   ----------------------------------------
 BYTE   PATT
  POIN2 Label_01056CF9
//  #01 //068   ----------------------------------------
 BYTE   PATT
  POIN2 Label_01056D19
//  #01 //069   ----------------------------------------
 BYTE   PATT
  POIN2 Label_01056D3A
//  #01 //070   ----------------------------------------
 BYTE   W12
 BYTE   EOT
 BYTE   Fn3  v072
 BYTE   Fn4
 BYTE   PAN   c_v+35
 BYTE   N12  Bn2  v080
 BYTE   N12  En3  v088
 BYTE   W24
 BYTE   Bn2  v076
 BYTE   N12  En3  v080
 BYTE   W24
 BYTE   Bn2  v076
 BYTE   N12  En3  v084
 BYTE   W24
 BYTE   Bn2  v068
 BYTE   N12  En3  v080
 BYTE   W12
//  #01 //071   ----------------------------------------
 BYTE   PATT
  POIN2 Label_01056D68
//  #01 //072   ----------------------------------------
 BYTE   PATT
  POIN2 Label_01056D68
//  #01 //073   ----------------------------------------
 BYTE   PATT
  POIN2 Label_01056D87
//  #01 //074   ----------------------------------------
 BYTE   PATT
  POIN2 Label_01056D9B
//  #01 //075   ----------------------------------------
 BYTE   PATT
  POIN2 Label_01056D68
//  #01 //076   ----------------------------------------
 BYTE   PATT
  POIN2 Label_01056D68
//  #01 //077   ----------------------------------------
 BYTE   PATT
  POIN2 Label_01056DC0
//  #01 //078   ----------------------------------------
 BYTE   PATT
  POIN2 Label_01056DDA
//  #01 //079   ----------------------------------------
 BYTE   PATT
  POIN2 Label_01056DF4
//  #01 //080   ----------------------------------------
 BYTE   PATT
  POIN2 Label_01056E06
//  #01 //081   ----------------------------------------
 BYTE   PATT
  POIN2 Label_01056E15
//  #01 //082   ----------------------------------------
 BYTE   PATT
  POIN2 Label_01056E21
//  #01 //083   ----------------------------------------
 BYTE   PATT
  POIN2 Label_01056E2D
//  #01 //084   ----------------------------------------
 BYTE   PATT
  POIN2 Label_01056B70
//  #01 //085   ----------------------------------------
 BYTE   PATT
  POIN2 Label_01056B95
//  #01 //086   ----------------------------------------
 BYTE   PATT
  POIN2 Label_01056B70
//  #01 //087   ----------------------------------------
 BYTE   PATT
  POIN2 Label_01056BB6
//  #01 //088   ----------------------------------------
 BYTE   PATT
  POIN2 Label_01056BD1
//  #01 //089   ----------------------------------------
 BYTE   PATT
  POIN2 Label_01056BE7
//  #01 //090   ----------------------------------------
 BYTE   PATT
  POIN2 Label_01056BB6
//  #01 //091   ----------------------------------------
 BYTE   PATT
  POIN2 Label_01056BD1
//  #01 //092   ----------------------------------------
 BYTE   PATT
  POIN2 Label_01056C11
//  #01 //093   ----------------------------------------
 BYTE   PATT
  POIN2 Label_01056C1E
//  #01 //094   ----------------------------------------
 BYTE   N06  Cs3  v068
 BYTE   N06  Cs4
 BYTE   W06
 BYTE   Cn3  v076
 BYTE   N06  Cn4
 BYTE   W06
 BYTE   VOL   35*song1D_mvl/mxv
 BYTE   N12  Bn2  v068
 BYTE   N12  En3
 BYTE   W09
 BYTE   VOL   34*song1D_mvl/mxv
 BYTE   W06
 BYTE   VOL   34*song1D_mvl/mxv
 BYTE   W06
 BYTE   VOL   33*song1D_mvl/mxv
 BYTE   W03
 BYTE   N12  Bn2
 BYTE   N12  En3
 BYTE   W03
 BYTE   VOL   33*song1D_mvl/mxv
 BYTE   W09
 BYTE   VOL   33*song1D_mvl/mxv
 BYTE   W06
 BYTE   VOL   32*song1D_mvl/mxv
 BYTE   W06
 BYTE   VOL   32*song1D_mvl/mxv
 BYTE   N12  Bn2  v076
 BYTE   N12  En3
 BYTE   W06
 BYTE   VOL   31*song1D_mvl/mxv
 BYTE   W09
 BYTE   VOL   31*song1D_mvl/mxv
 BYTE   W06
 BYTE   VOL   31*song1D_mvl/mxv
 BYTE   W03
 BYTE   N08  Bn2  v072
 BYTE   N08  En3
 BYTE   W03
 BYTE   VOL   30*song1D_mvl/mxv
 BYTE   W06
 BYTE   VOL   30*song1D_mvl/mxv
 BYTE   W03
//  #01 //095   ----------------------------------------
 BYTE   N08  Cn3  v080
 BYTE   N08  Fn3
 BYTE   W06
 BYTE   VOL   29*song1D_mvl/mxv
 BYTE   W06
 BYTE   VOL   29*song1D_mvl/mxv
 BYTE   N12  Bn2  v084
 BYTE   N12  En3
 BYTE   W06
 BYTE   VOL   29*song1D_mvl/mxv
 BYTE   W06
 BYTE   VOL   28*song1D_mvl/mxv
 BYTE   W09
 BYTE   VOL   28*song1D_mvl/mxv
 BYTE   W03
 BYTE   N08  Bn2  v076
 BYTE   N08  En3
 BYTE   W03
 BYTE   VOL   27*song1D_mvl/mxv
 BYTE   W06
 BYTE   VOL   27*song1D_mvl/mxv
 BYTE   W03
 BYTE   N08  Cn3  v068
 BYTE   N08  Fn3
 BYTE   W03
 BYTE   VOL   27*song1D_mvl/mxv
 BYTE   W09
 BYTE   VOL   26*song1D_mvl/mxv
 BYTE   N08  Bn2  v080
 BYTE   N08  En3
 BYTE   W06
 BYTE   VOL   26*song1D_mvl/mxv
 BYTE   W06
 BYTE   VOL   25*song1D_mvl/mxv
 BYTE   N08  Dn3
 BYTE   N08  Gn3
 BYTE   W06
 BYTE   VOL   25*song1D_mvl/mxv
 BYTE   W06
 BYTE   N08  Bn2
 BYTE   N08  En3
 BYTE   W03
 BYTE   VOL   25*song1D_mvl/mxv
 BYTE   W06
 BYTE   VOL   24*song1D_mvl/mxv
 BYTE   W03
//  #01 //096   ----------------------------------------
 BYTE   N08  Cn3  v084
 BYTE   N08  Fn3
 BYTE   W03
 BYTE   VOL   24*song1D_mvl/mxv
 BYTE   W06
 BYTE   VOL   24*song1D_mvl/mxv
 BYTE   W03
 BYTE   N12  Bn2  v080
 BYTE   N12  En3
 BYTE   W06
 BYTE   VOL   23*song1D_mvl/mxv
 BYTE   W06
 BYTE   VOL   23*song1D_mvl/mxv
 BYTE   W06
 BYTE   VOL   22*song1D_mvl/mxv
 BYTE   W06
 BYTE   VOL   22*song1D_mvl/mxv
 BYTE   N12  Bn2  v076
 BYTE   N12  En3
 BYTE   W09
 BYTE   VOL   22*song1D_mvl/mxv
 BYTE   W06
 BYTE   VOL   21*song1D_mvl/mxv
 BYTE   W06
 BYTE   VOL   21*song1D_mvl/mxv
 BYTE   W03
 BYTE   N12  Bn2  v080
 BYTE   N12  En3
 BYTE   W03
 BYTE   VOL   20*song1D_mvl/mxv
 BYTE   W09
 BYTE   VOL   20*song1D_mvl/mxv
 BYTE   W06
 BYTE   VOL   20*song1D_mvl/mxv
 BYTE   W06
 BYTE   VOL   19*song1D_mvl/mxv
 BYTE   N12  Bn2
 BYTE   N12  En3
 BYTE   W06
 BYTE   VOL   19*song1D_mvl/mxv
 BYTE   W06
//  #01 //097   ----------------------------------------
 BYTE   W03
 BYTE   VOL   18*song1D_mvl/mxv
 BYTE   W06
 BYTE   VOL   18*song1D_mvl/mxv
 BYTE   W03
 BYTE   N12  Bn2
 BYTE   N12  En3
 BYTE   W03
 BYTE   VOL   18*song1D_mvl/mxv
 BYTE   W06
 BYTE   VOL   17*song1D_mvl/mxv
 BYTE   W09
 BYTE   VOL   17*song1D_mvl/mxv
 BYTE   W06
 BYTE   VOL   16*song1D_mvl/mxv
 BYTE   N12  Bn2  v076
 BYTE   N12  En3
 BYTE   W06
 BYTE   VOL   16*song1D_mvl/mxv
 BYTE   W06
 BYTE   VOL   16*song1D_mvl/mxv
 BYTE   W09
 BYTE   VOL   15*song1D_mvl/mxv
 BYTE   W03
 BYTE   N12  Bn2  v080
 BYTE   N12  En3
 BYTE   W03
 BYTE   VOL   15*song1D_mvl/mxv
 BYTE   W06
 BYTE   VOL   14*song1D_mvl/mxv
 BYTE   W06
 BYTE   VOL   14*song1D_mvl/mxv
 BYTE   W09
 BYTE   VOL   14*song1D_mvl/mxv
 BYTE   N12  Bn2
 BYTE   N12  En3
 BYTE   W06
 BYTE   VOL   13*song1D_mvl/mxv
 BYTE   W06
//  #01 //098   ----------------------------------------
 BYTE   VOL   13*song1D_mvl/mxv
 BYTE   W06
 BYTE   VOL   12*song1D_mvl/mxv
 BYTE   W06
 BYTE   N12  Bn2
 BYTE   N12  En3
 BYTE   W03
 BYTE   VOL   12*song1D_mvl/mxv
 BYTE   W06
 BYTE   VOL   12*song1D_mvl/mxv
 BYTE   W06
 BYTE   VOL   11*song1D_mvl/mxv
 BYTE   W06
 BYTE   VOL   11*song1D_mvl/mxv
 BYTE   W03
 BYTE   N12  Bn2  v076
 BYTE   N12  En3
 BYTE   W06
 BYTE   VOL   11*song1D_mvl/mxv
 BYTE   W06
 BYTE   VOL   10*song1D_mvl/mxv
 BYTE   W06
 BYTE   VOL   10*song1D_mvl/mxv
 BYTE   W06
 BYTE   VOL   9*song1D_mvl/mxv
 BYTE   N12  Bn2  v080
 BYTE   N12  En3
 BYTE   W09
 BYTE   VOL   9*song1D_mvl/mxv
 BYTE   W06
 BYTE   VOL   9*song1D_mvl/mxv
 BYTE   W06
 BYTE   VOL   8*song1D_mvl/mxv
 BYTE   W03
 BYTE   N12  Bn2
 BYTE   N12  En3
 BYTE   W03
 BYTE   VOL   8*song1D_mvl/mxv
 BYTE   W09
//  #01 //099   ----------------------------------------
 BYTE   VOL   7*song1D_mvl/mxv
 BYTE   W06
 BYTE   VOL   7*song1D_mvl/mxv
 BYTE   W06
 BYTE   VOL   7*song1D_mvl/mxv
 BYTE   N48  Bn2  v076
 BYTE   N48  Bn3
 BYTE   W06
 BYTE   VOL   6*song1D_mvl/mxv
 BYTE   W09
 BYTE   VOL   6*song1D_mvl/mxv
 BYTE   W06
 BYTE   VOL   5*song1D_mvl/mxv
 BYTE   W06
 BYTE   VOL   5*song1D_mvl/mxv
 BYTE   W06
 BYTE   VOL   5*song1D_mvl/mxv
 BYTE   W09
 BYTE   VOL   4*song1D_mvl/mxv
 BYTE   W06
 BYTE   VOL   4*song1D_mvl/mxv
 BYTE   N48  An2  v084
 BYTE   N48  An3
 BYTE   W06
 BYTE   VOL   3*song1D_mvl/mxv
 BYTE   W06
 BYTE   VOL   3*song1D_mvl/mxv
 BYTE   W09
 BYTE   VOL   3*song1D_mvl/mxv
 BYTE   W06
 BYTE   VOL   2*song1D_mvl/mxv
 BYTE   W06
 BYTE   VOL   2*song1D_mvl/mxv
 BYTE   W03
//  #01 //100   ----------------------------------------
 BYTE   W03
 BYTE   VOL   1*song1D_mvl/mxv
 BYTE   W09
 BYTE   VOL   1*song1D_mvl/mxv
 BYTE   N48  Cn3
 BYTE   N48  Cn4
 BYTE   W06
 BYTE   VOL   1*song1D_mvl/mxv
 BYTE   W06
 BYTE   VOL   0*song1D_mvl/mxv
 BYTE   W06
 BYTE   VOL   0*song1D_mvl/mxv
 BYTE   W03
 BYTE   VOL   0*song1D_mvl/mxv
 BYTE   W24
 BYTE   W03
 BYTE   N36  Dn3
 BYTE   N36  Dn4
 BYTE   W36
//  #01 //101   ----------------------------------------
 BYTE   N06  Cs3  v068
 BYTE   N06  Cs4
 BYTE   W06
 BYTE   Cn3  v076
 BYTE   N06  Cn4
 BYTE   W06
 BYTE   FINE

//**************** Track 2 (Midi-Chn.1) ****************//

song1D_002:
//  #02 //000   ----------------------------------------
 BYTE   KEYSH   song1D_key+0
 BYTE   VOICE   28
 BYTE   PAN   c_v+0
 BYTE   VOL   63*song1D_mvl/mxv
 BYTE   MOD 0
 BYTE   BEND   c_v+0
 BYTE   W12
 BYTE   N08  En1  v084
 BYTE   W24
 BYTE   N08
 BYTE   W24
 BYTE   N08
 BYTE   W24
 BYTE   En1  v092
 BYTE   W12
//  #02 //001   ----------------------------------------
Label_0105713C:
 BYTE   W12
 BYTE   N08  En1  v084
 BYTE   W24
 BYTE   En1  v076
 BYTE   W24
 BYTE   En1  v084
 BYTE   W24
 BYTE   En1  v080
 BYTE   W12
 BYTE   PEND 
//  #02 //002   ----------------------------------------
Label_0105714B:
 BYTE   W12
 BYTE   N08  En1  v092
 BYTE   W24
 BYTE   En1  v104
 BYTE   W24
 BYTE   En1  v088
 BYTE   W24
 BYTE   En1  v096
 BYTE   W12
 BYTE   PEND 
//  #02 //003   ----------------------------------------
Label_0105715A:
 BYTE   W12
 BYTE   N08  En1  v088
 BYTE   W24
 BYTE   En1  v096
 BYTE   W24
 BYTE   En1  v084
 BYTE   W24
 BYTE   N08
 BYTE   W12
 BYTE   PEND 
//  #02 //004   ----------------------------------------
Label_01057168:
 BYTE   W12
 BYTE   N08  En1  v084
 BYTE   W24
 BYTE   N08
 BYTE   W24
 BYTE   N08
 BYTE   W24
 BYTE   En1  v092
 BYTE   W12
 BYTE   PEND 
//  #02 //005   ----------------------------------------
 BYTE   PATT
  POIN2 Label_0105713C
//  #02 //006   ----------------------------------------
 BYTE   PATT
  POIN2 Label_0105714B
//  #02 //007   ----------------------------------------
 BYTE   PATT
  POIN2 Label_0105715A
//  #02 //008   ----------------------------------------
 BYTE   PATT
  POIN2 Label_0105715A
//  #02 //009   ----------------------------------------
Label_01057189:
 BYTE   W12
 BYTE   N08  Fn1  v088
 BYTE   W24
 BYTE   Fn1  v096
 BYTE   W24
 BYTE   Fn1  v084
 BYTE   W24
 BYTE   N08
 BYTE   W12
 BYTE   PEND 
//  #02 //010   ----------------------------------------
 BYTE   PATT
  POIN2 Label_01057189
//  #02 //011   ----------------------------------------
 BYTE   PATT
  POIN2 Label_01057168
//  #02 //012   ----------------------------------------
 BYTE   PATT
  POIN2 Label_0105713C
//  #02 //013   ----------------------------------------
 BYTE   PATT
  POIN2 Label_01057168
//  #02 //014   ----------------------------------------
 BYTE   PATT
  POIN2 Label_0105713C
//  #02 //015   ----------------------------------------
 BYTE   PATT
  POIN2 Label_0105715A
//  #02 //016   ----------------------------------------
 BYTE   PATT
  POIN2 Label_01057189
//  #02 //017   ----------------------------------------
 BYTE   PATT
  POIN2 Label_01057189
//  #02 //018   ----------------------------------------
 BYTE   PATT
  POIN2 Label_01057168
//  #02 //019   ----------------------------------------
 BYTE   PATT
  POIN2 Label_0105713C
//  #02 //020   ----------------------------------------
Label_010571C9:
 BYTE   W12
 BYTE   N48  Bn0  v076
 BYTE   W48
 BYTE   N36  Dn1  v084
 BYTE   W36
 BYTE   PEND 
//  #02 //021   ----------------------------------------
Label_010571D3:
 BYTE   N36  En1  v076
 BYTE   W36
 BYTE   N24  Fn1  v068
 BYTE   W24
 BYTE   N48  En1  v088
 BYTE   W36
 BYTE   PEND 
//  #02 //022   ----------------------------------------
Label_010571E0:
 BYTE   W12
 BYTE   TIE  Fn1  v084
 BYTE   W84
 BYTE   PEND 
//  #02 //023   ----------------------------------------
Label_010571E6:
 BYTE   W12
 BYTE   W03
 BYTE   W03
 BYTE   W03
 BYTE   W03
 BYTE   W03
 BYTE   W03
 BYTE   W03
 BYTE   W03
 BYTE   W03
 BYTE   W03
 BYTE   W03
 BYTE   W03
 BYTE   W03
 BYTE   W03
 BYTE   W03
 BYTE   W03
 BYTE   W03
 BYTE   W03
 BYTE   W03
 BYTE   W03
 BYTE   W03
 BYTE   W03
 BYTE   W03
 BYTE   W03
 BYTE   W03
 BYTE   W03
 BYTE   W03
 BYTE   W03
 BYTE   PEND 
//  #02 //024   ----------------------------------------
Label_01057204:
 BYTE   W03
 BYTE   W03
 BYTE   W03
 BYTE   W03
 BYTE   PEND 
 BYTE   EOT
 BYTE   Fn1
 BYTE   W84
//  #02 //025   ----------------------------------------
 BYTE   W96
//  #02 //026   ----------------------------------------
 BYTE   W96
//  #02 //027   ----------------------------------------
Label_0105720E:
 BYTE   W12
 BYTE   W24
 BYTE   W60
 BYTE   PEND 
//  #02 //028   ----------------------------------------
Label_01057212:
 BYTE   W12
 BYTE   N12  En1  v088
 BYTE   W24
 BYTE   N10  En1  v072
 BYTE   W12
 BYTE   Fn1  v076
 BYTE   W12
 BYTE   En1  v080
 BYTE   W12
 BYTE   An1  v076
 BYTE   W12
 BYTE   En1  v068
 BYTE   W12
 BYTE   PEND 
//  #02 //029   ----------------------------------------
Label_01057228:
 BYTE   N10  Dn1  v072
 BYTE   W12
 BYTE   N08  En1  v084
 BYTE   W24
 BYTE   N08
 BYTE   W24
 BYTE   N08
 BYTE   W24
 BYTE   En1  v092
 BYTE   W12
 BYTE   PEND 
//  #02 //030   ----------------------------------------
 BYTE   PATT
  POIN2 Label_01057212
//  #02 //031   ----------------------------------------
Label_0105723D:
 BYTE   N10  Dn1  v072
 BYTE   W12
 BYTE   N08  En1  v084
 BYTE   W36
 BYTE   N10  Fn1  v076
 BYTE   W24
 BYTE   N20  Fn1  v080
 BYTE   W24
 BYTE   PEND 
//  #02 //032   ----------------------------------------
Label_0105724E:
 BYTE   N05  Dn1  v076
 BYTE   W06
 BYTE   Fn1  v080
 BYTE   W06
 BYTE   N10  En1  v076
 BYTE   W36
 BYTE   En1  v088
 BYTE   W36
 BYTE   N10
 BYTE   W12
 BYTE   PEND 
//  #02 //033   ----------------------------------------
 BYTE   PATT
  POIN2 Label_01057168
//  #02 //034   ----------------------------------------
 BYTE   PATT
  POIN2 Label_01057168
//  #02 //035   ----------------------------------------
Label_01057269:
 BYTE   W12
 BYTE   N08  Ds1  v084
 BYTE   W24
 BYTE   N08
 BYTE   W24
 BYTE   N08
 BYTE   W24
 BYTE   Ds1  v092
 BYTE   W12
 BYTE   PEND 
//  #02 //036   ----------------------------------------
Label_01057276:
 BYTE   W12
 BYTE   N08  Dn1  v084
 BYTE   W24
 BYTE   N08
 BYTE   W24
 BYTE   N08
 BYTE   W24
 BYTE   Dn1  v092
 BYTE   W12
 BYTE   PEND 
//  #02 //037   ----------------------------------------
Label_01057283:
 BYTE   W12
 BYTE   N12  Fn1  v120
 BYTE   W36
 BYTE   Fn1  v127
 BYTE   W36
 BYTE   N12
 BYTE   W12
 BYTE   PEND 
//  #02 //038   ----------------------------------------
Label_0105728E:
 BYTE   W24
 BYTE   N12  Fn1  v127
 BYTE   W36
 BYTE   N08
 BYTE   W24
 BYTE   N08
 BYTE   W12
 BYTE   PEND 
//  #02 //039   ----------------------------------------
 BYTE   W12
 BYTE   N96  Bn1
 BYTE   W84
//  #02 //040   ----------------------------------------
 BYTE   W12
 BYTE   Bn0  v108
 BYTE   W84
//  #02 //041   ----------------------------------------
 BYTE   PATT
  POIN2 Label_01057168
//  #02 //042   ----------------------------------------
 BYTE   PATT
  POIN2 Label_0105713C
//  #02 //043   ----------------------------------------
 BYTE   PATT
  POIN2 Label_0105714B
//  #02 //044   ----------------------------------------
 BYTE   PATT
  POIN2 Label_0105715A
//  #02 //045   ----------------------------------------
 BYTE   PATT
  POIN2 Label_01057168
//  #02 //046   ----------------------------------------
 BYTE   PATT
  POIN2 Label_0105713C
//  #02 //047   ----------------------------------------
 BYTE   PATT
  POIN2 Label_0105714B
//  #02 //048   ----------------------------------------
 BYTE   PATT
  POIN2 Label_0105715A
//  #02 //049   ----------------------------------------
 BYTE   PATT
  POIN2 Label_0105715A
//  #02 //050   ----------------------------------------
 BYTE   PATT
  POIN2 Label_01057189
//  #02 //051   ----------------------------------------
 BYTE   PATT
  POIN2 Label_01057189
//  #02 //052   ----------------------------------------
 BYTE   PATT
  POIN2 Label_01057168
//  #02 //053   ----------------------------------------
 BYTE   PATT
  POIN2 Label_0105713C
//  #02 //054   ----------------------------------------
 BYTE   PATT
  POIN2 Label_01057168
//  #02 //055   ----------------------------------------
 BYTE   PATT
  POIN2 Label_0105713C
//  #02 //056   ----------------------------------------
 BYTE   PATT
  POIN2 Label_0105715A
//  #02 //057   ----------------------------------------
 BYTE   PATT
  POIN2 Label_01057189
//  #02 //058   ----------------------------------------
 BYTE   PATT
  POIN2 Label_01057189
//  #02 //059   ----------------------------------------
 BYTE   PATT
  POIN2 Label_01057168
//  #02 //060   ----------------------------------------
 BYTE   PATT
  POIN2 Label_0105713C
//  #02 //061   ----------------------------------------
 BYTE   PATT
  POIN2 Label_010571C9
//  #02 //062   ----------------------------------------
 BYTE   PATT
  POIN2 Label_010571D3
//  #02 //063   ----------------------------------------
 BYTE   PATT
  POIN2 Label_010571E0
//  #02 //064   ----------------------------------------
 BYTE   PATT
  POIN2 Label_010571E6
//  #02 //065   ----------------------------------------
 BYTE   GoTo
  POIN2 Label_01057204
//  #02 //066   ----------------------------------------
 BYTE   PATT
  POIN2 Label_01057204
//  #02 //067   ----------------------------------------
 BYTE   EOT
 BYTE   Fn1
 BYTE   W84
 BYTE   W96
//  #02 //068   ----------------------------------------
 BYTE   W96
//  #02 //069   ----------------------------------------
 BYTE   PATT
  POIN2 Label_0105720E
//  #02 //070   ----------------------------------------
 BYTE   PATT
  POIN2 Label_01057212
//  #02 //071   ----------------------------------------
 BYTE   PATT
  POIN2 Label_01057228
//  #02 //072   ----------------------------------------
 BYTE   PATT
  POIN2 Label_01057212
//  #02 //073   ----------------------------------------
 BYTE   PATT
  POIN2 Label_0105723D
//  #02 //074   ----------------------------------------
 BYTE   PATT
  POIN2 Label_0105724E
//  #02 //075   ----------------------------------------
 BYTE   PATT
  POIN2 Label_01057168
//  #02 //076   ----------------------------------------
 BYTE   PATT
  POIN2 Label_01057168
//  #02 //077   ----------------------------------------
 BYTE   PATT
  POIN2 Label_01057269
//  #02 //078   ----------------------------------------
 BYTE   PATT
  POIN2 Label_01057276
//  #02 //079   ----------------------------------------
 BYTE   PATT
  POIN2 Label_01057283
//  #02 //080   ----------------------------------------
 BYTE   PATT
  POIN2 Label_0105728E
//  #02 //081   ----------------------------------------
 BYTE   W12
 BYTE   N96  Bn1  v127
 BYTE   W84
//  #02 //082   ----------------------------------------
 BYTE   W12
 BYTE   Bn0  v108
 BYTE   W84
//  #02 //083   ----------------------------------------
 BYTE   PATT
  POIN2 Label_01057168
//  #02 //084   ----------------------------------------
 BYTE   PATT
  POIN2 Label_0105713C
//  #02 //085   ----------------------------------------
 BYTE   PATT
  POIN2 Label_0105714B
//  #02 //086   ----------------------------------------
 BYTE   PATT
  POIN2 Label_0105715A
//  #02 //087   ----------------------------------------
 BYTE   PATT
  POIN2 Label_01057168
//  #02 //088   ----------------------------------------
 BYTE   PATT
  POIN2 Label_0105713C
//  #02 //089   ----------------------------------------
 BYTE   PATT
  POIN2 Label_0105714B
//  #02 //090   ----------------------------------------
 BYTE   PATT
  POIN2 Label_0105715A
//  #02 //091   ----------------------------------------
 BYTE   PATT
  POIN2 Label_0105715A
//  #02 //092   ----------------------------------------
 BYTE   PATT
  POIN2 Label_01057189
//  #02 //093   ----------------------------------------
 BYTE   PATT
  POIN2 Label_01057189
//  #02 //094   ----------------------------------------
 BYTE   W12
 BYTE   VOL   63*song1D_mvl/mxv
 BYTE   N08  En1  v084
 BYTE   W09
 BYTE   VOL   62*song1D_mvl/mxv
 BYTE   W06
 BYTE   VOL   62*song1D_mvl/mxv
 BYTE   W06
 BYTE   VOL   61*song1D_mvl/mxv
 BYTE   W03
 BYTE   N08
 BYTE   W03
 BYTE   VOL   61*song1D_mvl/mxv
 BYTE   W06
 BYTE   VOL   61*song1D_mvl/mxv
 BYTE   W06
 BYTE   VOL   60*song1D_mvl/mxv
 BYTE   W06
 BYTE   VOL   60*song1D_mvl/mxv
 BYTE   W03
 BYTE   N08
 BYTE   W03
 BYTE   VOL   59*song1D_mvl/mxv
 BYTE   W06
 BYTE   VOL   59*song1D_mvl/mxv
 BYTE   W06
 BYTE   VOL   59*song1D_mvl/mxv
 BYTE   W09
 BYTE   VOL   58*song1D_mvl/mxv
 BYTE   N08  En1  v092
 BYTE   W06
 BYTE   VOL   58*song1D_mvl/mxv
 BYTE   W06
//  #02 //095   ----------------------------------------
 BYTE   VOL   58*song1D_mvl/mxv
 BYTE   W06
 BYTE   VOL   57*song1D_mvl/mxv
 BYTE   W06
 BYTE   VOL   57*song1D_mvl/mxv
 BYTE   N08  En1  v084
 BYTE   W06
 BYTE   VOL   56*song1D_mvl/mxv
 BYTE   W06
 BYTE   VOL   56*song1D_mvl/mxv
 BYTE   W06
 BYTE   VOL   56*song1D_mvl/mxv
 BYTE   W06
 BYTE   VOL   55*song1D_mvl/mxv
 BYTE   N08  En1  v076
 BYTE   W06
 BYTE   VOL   55*song1D_mvl/mxv
 BYTE   W06
 BYTE   VOL   54*song1D_mvl/mxv
 BYTE   W09
 BYTE   VOL   54*song1D_mvl/mxv
 BYTE   W03
 BYTE   N08  En1  v084
 BYTE   W03
 BYTE   VOL   54*song1D_mvl/mxv
 BYTE   W06
 BYTE   VOL   53*song1D_mvl/mxv
 BYTE   W06
 BYTE   VOL   53*song1D_mvl/mxv
 BYTE   W06
 BYTE   VOL   52*song1D_mvl/mxv
 BYTE   W03
 BYTE   N08  En1  v080
 BYTE   W03
 BYTE   VOL   52*song1D_mvl/mxv
 BYTE   W06
 BYTE   VOL   52*song1D_mvl/mxv
 BYTE   W03
//  #02 //096   ----------------------------------------
 BYTE   W03
 BYTE   VOL   51*song1D_mvl/mxv
 BYTE   W06
 BYTE   VOL   51*song1D_mvl/mxv
 BYTE   W03
 BYTE   N08  En1  v084
 BYTE   W03
 BYTE   VOL   50*song1D_mvl/mxv
 BYTE   W06
 BYTE   VOL   50*song1D_mvl/mxv
 BYTE   W09
 BYTE   VOL   50*song1D_mvl/mxv
 BYTE   W06
 BYTE   VOL   49*song1D_mvl/mxv
 BYTE   N08
 BYTE   W06
 BYTE   VOL   49*song1D_mvl/mxv
 BYTE   W06
 BYTE   VOL   48*song1D_mvl/mxv
 BYTE   W06
 BYTE   VOL   48*song1D_mvl/mxv
 BYTE   W06
 BYTE   VOL   48*song1D_mvl/mxv
 BYTE   N08
 BYTE   W06
 BYTE   VOL   47*song1D_mvl/mxv
 BYTE   W06
 BYTE   VOL   47*song1D_mvl/mxv
 BYTE   W06
 BYTE   VOL   46*song1D_mvl/mxv
 BYTE   W06
 BYTE   VOL   46*song1D_mvl/mxv
 BYTE   N08  En1  v092
 BYTE   W09
 BYTE   VOL   46*song1D_mvl/mxv
 BYTE   W03
//  #02 //097   ----------------------------------------
 BYTE   W03
 BYTE   VOL   45*song1D_mvl/mxv
 BYTE   W06
 BYTE   VOL   45*song1D_mvl/mxv
 BYTE   W03
 BYTE   N08  En1  v084
 BYTE   W03
 BYTE   VOL   45*song1D_mvl/mxv
 BYTE   W06
 BYTE   VOL   44*song1D_mvl/mxv
 BYTE   W06
 BYTE   VOL   44*song1D_mvl/mxv
 BYTE   W06
 BYTE   VOL   43*song1D_mvl/mxv
 BYTE   W03
 BYTE   N08  En1  v076
 BYTE   W03
 BYTE   VOL   43*song1D_mvl/mxv
 BYTE   W06
 BYTE   VOL   43*song1D_mvl/mxv
 BYTE   W06
 BYTE   VOL   42*song1D_mvl/mxv
 BYTE   W06
 BYTE   VOL   42*song1D_mvl/mxv
 BYTE   W03
 BYTE   N08  En1  v084
 BYTE   W06
 BYTE   VOL   41*song1D_mvl/mxv
 BYTE   W06
 BYTE   VOL   41*song1D_mvl/mxv
 BYTE   W06
 BYTE   VOL   41*song1D_mvl/mxv
 BYTE   W06
 BYTE   VOL   40*song1D_mvl/mxv
 BYTE   N08  En1  v080
 BYTE   W06
 BYTE   VOL   40*song1D_mvl/mxv
 BYTE   W06
//  #02 //098   ----------------------------------------
 BYTE   VOL   39*song1D_mvl/mxv
 BYTE   W06
 BYTE   VOL   39*song1D_mvl/mxv
 BYTE   W06
 BYTE   VOL   39*song1D_mvl/mxv
 BYTE   N08  En1  v088
 BYTE   W06
 BYTE   VOL   38*song1D_mvl/mxv
 BYTE   W06
 BYTE   VOL   38*song1D_mvl/mxv
 BYTE   W06
 BYTE   VOL   37*song1D_mvl/mxv
 BYTE   W06
 BYTE   N08  En1  v096
 BYTE   W03
 BYTE   VOL   37*song1D_mvl/mxv
 BYTE   W06
 BYTE   VOL   37*song1D_mvl/mxv
 BYTE   W06
 BYTE   VOL   36*song1D_mvl/mxv
 BYTE   W06
 BYTE   VOL   36*song1D_mvl/mxv
 BYTE   W03
 BYTE   N08  En1  v084
 BYTE   W03
 BYTE   VOL   35*song1D_mvl/mxv
 BYTE   W06
 BYTE   VOL   35*song1D_mvl/mxv
 BYTE   W06
 BYTE   VOL   35*song1D_mvl/mxv
 BYTE   W06
 BYTE   VOL   34*song1D_mvl/mxv
 BYTE   W03
 BYTE   N08
 BYTE   W03
 BYTE   VOL   34*song1D_mvl/mxv
 BYTE   W06
 BYTE   VOL   33*song1D_mvl/mxv
 BYTE   W03
//  #02 //099   ----------------------------------------
 BYTE   W06
 BYTE   VOL   33*song1D_mvl/mxv
 BYTE   W06
 BYTE   VOL   33*song1D_mvl/mxv
 BYTE   N08  Fn1  v088
 BYTE   W06
 BYTE   VOL   32*song1D_mvl/mxv
 BYTE   W06
 BYTE   VOL   32*song1D_mvl/mxv
 BYTE   W06
 BYTE   VOL   32*song1D_mvl/mxv
 BYTE   W06
 BYTE   VOL   31*song1D_mvl/mxv
 BYTE   N08  Fn1  v096
 BYTE   W06
 BYTE   VOL   31*song1D_mvl/mxv
 BYTE   W06
 BYTE   VOL   30*song1D_mvl/mxv
 BYTE   W06
 BYTE   VOL   30*song1D_mvl/mxv
 BYTE   W06
 BYTE   VOL   30*song1D_mvl/mxv
 BYTE   N08  Fn1  v084
 BYTE   W06
 BYTE   VOL   29*song1D_mvl/mxv
 BYTE   W09
 BYTE   VOL   29*song1D_mvl/mxv
 BYTE   W06
 BYTE   VOL   28*song1D_mvl/mxv
 BYTE   W03
 BYTE   N08
 BYTE   W03
 BYTE   VOL   28*song1D_mvl/mxv
 BYTE   W06
 BYTE   VOL   28*song1D_mvl/mxv
 BYTE   W03
//  #02 //100   ----------------------------------------
 BYTE   W03
 BYTE   VOL   27*song1D_mvl/mxv
 BYTE   W06
 BYTE   VOL   27*song1D_mvl/mxv
 BYTE   W03
 BYTE   N08  Fn1  v088
 BYTE   W03
 BYTE   VOL   26*song1D_mvl/mxv
 BYTE   W06
 BYTE   VOL   26*song1D_mvl/mxv
 BYTE   W06
 BYTE   VOL   26*song1D_mvl/mxv
 BYTE   W06
 BYTE   VOL   25*song1D_mvl/mxv
 BYTE   W03
 BYTE   N08  Fn1  v096
 BYTE   W03
 BYTE   VOL   25*song1D_mvl/mxv
 BYTE   W09
 BYTE   VOL   24*song1D_mvl/mxv
 BYTE   W06
 BYTE   VOL   24*song1D_mvl/mxv
 BYTE   W06
 BYTE   VOL   24*song1D_mvl/mxv
 BYTE   N08  Fn1  v084
 BYTE   W06
 BYTE   VOL   23*song1D_mvl/mxv
 BYTE   W06
 BYTE   VOL   23*song1D_mvl/mxv
 BYTE   W06
 BYTE   VOL   22*song1D_mvl/mxv
 BYTE   W06
 BYTE   VOL   22*song1D_mvl/mxv
 BYTE   N08
 BYTE   W06
 BYTE   VOL   22*song1D_mvl/mxv
 BYTE   W06
//  #02 //101   ----------------------------------------
 BYTE   VOL   21*song1D_mvl/mxv
 BYTE   W06
 BYTE   VOL   21*song1D_mvl/mxv
 BYTE   W03
 BYTE   VOL   21*song1D_mvl/mxv
 BYTE   W03
 BYTE   FINE

//**************** Track 3 (Midi-Chn.2) ****************//

song1D_003:
//  #03 //000   ----------------------------------------
 BYTE   KEYSH   song1D_key+0
 BYTE   VOICE   40
 BYTE   PAN   c_v-19
 BYTE   VOL   46*song1D_mvl/mxv
 BYTE   MOD 0
 BYTE   BEND   c_v+0
 BYTE   W96
//  #03 //001   ----------------------------------------
 BYTE   W96
//  #03 //002   ----------------------------------------
 BYTE   W96
//  #03 //003   ----------------------------------------
 BYTE   W96
//  #03 //004   ----------------------------------------
Label_01057554:
 BYTE   W24
 BYTE   N04  En3  v072
 BYTE   N04  En4
 BYTE   W06
 BYTE   En3  v120
 BYTE   N04  En4
 BYTE   W06
 BYTE   N08  Bn3  v076
 BYTE   N08  Bn4
 BYTE   W12
 BYTE   En3  v068
 BYTE   N08  En4
 BYTE   W12
 BYTE   An3  v080
 BYTE   N08  An4
 BYTE   W12
 BYTE   Dn3  v068
 BYTE   N08  Dn4
 BYTE   W12
 BYTE   Gn3  v076
 BYTE   N08  Gn4
 BYTE   W12
 BYTE   PEND 
//  #03 //005   ----------------------------------------
Label_0105757B:
 BYTE   N08  Cn3  v068
 BYTE   N08  Cn4
 BYTE   W12
 BYTE   N12  Bn2
 BYTE   N12  Bn3
 BYTE   W84
 BYTE   PEND 
//  #03 //006   ----------------------------------------
 BYTE   W96
//  #03 //007   ----------------------------------------
Label_01057588:
 BYTE   W24
 BYTE   N04  En3  v052
 BYTE   N04  En4  v072
 BYTE   W06
 BYTE   En3  v100
 BYTE   N04  En4  v120
 BYTE   W06
 BYTE   N08  Bn3  v056
 BYTE   N08  Bn4  v076
 BYTE   W12
 BYTE   En3  v048
 BYTE   N08  En4  v068
 BYTE   W12
 BYTE   Dn4  v060
 BYTE   N08  Dn5  v080
 BYTE   W12
 BYTE   An3  v048
 BYTE   N08  An4  v068
 BYTE   W12
 BYTE   An3  v056
 BYTE   N08  An4  v076
 BYTE   W12
 BYTE   PEND 
//  #03 //008   ----------------------------------------
Label_010575B6:
 BYTE   N08  Bn3  v048
 BYTE   N08  Bn4  v068
 BYTE   W12
 BYTE   N12  En3  v048
 BYTE   N12  En4  v068
 BYTE   W84
 BYTE   PEND 
//  #03 //009   ----------------------------------------
Label_010575C5:
 BYTE   W12
 BYTE   N48  Bn3  v076
 BYTE   N48  Bn4
 BYTE   W48
 BYTE   An3  v084
 BYTE   N48  An4
 BYTE   W36
 BYTE   PEND 
//  #03 //010   ----------------------------------------
Label_010575D2:
 BYTE   W12
 BYTE   N48  Cn4  v084
 BYTE   N48  Cn5
 BYTE   W48
 BYTE   N36  Dn4
 BYTE   N36  Dn5
 BYTE   W36
 BYTE   PEND 
//  #03 //011   ----------------------------------------
Label_010575DF:
 BYTE   N06  Cs4  v068
 BYTE   N06  Cs5
 BYTE   W06
 BYTE   Cn4  v076
 BYTE   N06  Cn5
 BYTE   W06
 BYTE   N96  Bn3
 BYTE   N96  Bn4
 BYTE   W84
 BYTE   PEND 
//  #03 //012   ----------------------------------------
 BYTE   W96
//  #03 //013   ----------------------------------------
 BYTE   PATT
  POIN2 Label_01057554
//  #03 //014   ----------------------------------------
 BYTE   PATT
  POIN2 Label_0105757B
//  #03 //015   ----------------------------------------
Label_010575FB:
 BYTE   W24
 BYTE   N04  En3  v052
 BYTE   N04  En4  v072
 BYTE   W06
 BYTE   En3  v100
 BYTE   N04  En4  v120
 BYTE   W06
 BYTE   N08  Bn3  v056
 BYTE   N08  Bn4  v076
 BYTE   W12
 BYTE   En3  v048
 BYTE   N08  En4  v068
 BYTE   W12
 BYTE   An3  v060
 BYTE   N08  An4  v080
 BYTE   W12
 BYTE   Dn3  v048
 BYTE   N08  Dn4  v068
 BYTE   W12
 BYTE   En3  v056
 BYTE   N08  En4  v076
 BYTE   W12
 BYTE   PEND 
//  #03 //016   ----------------------------------------
Label_01057629:
 BYTE   N08  An3  v048
 BYTE   N08  An4  v068
 BYTE   W12
 BYTE   N48  Bn3  v076
 BYTE   N48  Bn4
 BYTE   W48
 BYTE   An3  v084
 BYTE   N48  An4
 BYTE   W36
 BYTE   PEND 
//  #03 //017   ----------------------------------------
 BYTE   PATT
  POIN2 Label_010575D2
//  #03 //018   ----------------------------------------
 BYTE   PATT
  POIN2 Label_010575DF
//  #03 //019   ----------------------------------------
 BYTE   W96
//  #03 //020   ----------------------------------------
Label_01057647:
 BYTE   W24
 BYTE   N12  En4  v084
 BYTE   W12
 BYTE   Ds4  v060
 BYTE   W12
 BYTE   Bn3  v072
 BYTE   W12
 BYTE   Gn4  v096
 BYTE   W12
 BYTE   Fs4  v076
 BYTE   W12
 BYTE   Dn4  v064
 BYTE   W12
 BYTE   PEND 
//  #03 //021   ----------------------------------------
Label_0105765C:
 BYTE   N12  An4  v092
 BYTE   W12
 BYTE   Gs4  v080
 BYTE   W12
 BYTE   En4  v084
 BYTE   W12
 BYTE   N24  As4  v088
 BYTE   W24
 BYTE   N20  An4
 BYTE   W36
 BYTE   PEND 
//  #03 //022   ----------------------------------------
Label_0105766E:
 BYTE   N12  An4  v084
 BYTE   W12
 BYTE   TIE  Gs4
 BYTE   W84
 BYTE   PEND 
//  #03 //023   ----------------------------------------
Label_01057676:
 BYTE   W12
 BYTE   W03
 BYTE   W03
 BYTE   W03
 BYTE   W03
 BYTE   W03
 BYTE   W03
 BYTE   W03
 BYTE   W03
 BYTE   W03
 BYTE   W03
 BYTE   W03
 BYTE   W03
 BYTE   W03
 BYTE   W03
 BYTE   W03
 BYTE   W03
 BYTE   W03
 BYTE   W03
 BYTE   W03
 BYTE   W03
 BYTE   W03
 BYTE   W03
 BYTE   W03
 BYTE   W03
 BYTE   W03
 BYTE   W03
 BYTE   W03
 BYTE   W03
 BYTE   PEND 
//  #03 //024   ----------------------------------------
Label_01057694:
 BYTE   W03
 BYTE   W03
 BYTE   W03
 BYTE   W03
 BYTE   PEND 
 BYTE   EOT
 BYTE   Gs4
 BYTE   W84
//  #03 //025   ----------------------------------------
 BYTE   W96
//  #03 //026   ----------------------------------------
Label_0105769D:
 BYTE   W12
 BYTE   W24
 BYTE   W60
 BYTE   PEND 
//  #03 //027   ----------------------------------------
 BYTE   W96
//  #03 //028   ----------------------------------------
 BYTE   W12
 BYTE   TIE  En3  v100
 BYTE   W84
//  #03 //029   ----------------------------------------
 BYTE   W24
 BYTE   EOT
 BYTE   N24  An3  v096
 BYTE   W24
 BYTE   Dn4  v100
 BYTE   W24
 BYTE   Bn3
 BYTE   W24
//  #03 //030   ----------------------------------------
Label_010576B2:
 BYTE   N12  Cn4  v100
 BYTE   W12
 BYTE   Bn3  v096
 BYTE   W12
 BYTE   An3  v100
 BYTE   W12
 BYTE   N72  Bn3  v104
 BYTE   W60
 BYTE   PEND 
//  #03 //031   ----------------------------------------
 BYTE   W96
//  #03 //032   ----------------------------------------
 BYTE   W96
//  #03 //033   ----------------------------------------
Label_010576C3:
 BYTE   W12
 BYTE   N12  En3  v096
 BYTE   W12
 BYTE   An3
 BYTE   W12
 BYTE   Bn3  v100
 BYTE   W12
 BYTE   Dn4  v108
 BYTE   W12
 BYTE   N18  En4  v088
 BYTE   W18
 BYTE   Dn4  v104
 BYTE   W18
 BYTE   PEND 
//  #03 //034   ----------------------------------------
Label_010576D8:
 BYTE   N12  Gn3  v088
 BYTE   W12
 BYTE   N48  Fs3  v080
 BYTE   W48
 BYTE   Cn4  v068
 BYTE   W36
 BYTE   PEND 
//  #03 //035   ----------------------------------------
Label_010576E4:
 BYTE   W12
 BYTE   N48  Bn3  v080
 BYTE   W48
 BYTE   N42  Fs3  v060
 BYTE   W36
 BYTE   PEND 
//  #03 //036   ----------------------------------------
Label_010576EE:
 BYTE   W06
 BYTE   N03  Gn3  v068
 BYTE   W03
 BYTE   Gs3
 BYTE   W03
 BYTE   N48  An3  v080
 BYTE   W48
 BYTE   N24  Dn3  v084
 BYTE   W24
 BYTE   Cn3  v080
 BYTE   W12
 BYTE   PEND 
//  #03 //037   ----------------------------------------
Label_01057701:
 BYTE   W12
 BYTE   N36  Bn2  v116
 BYTE   W36
 BYTE   An2  v096
 BYTE   W36
 BYTE   En3
 BYTE   W12
 BYTE   PEND 
//  #03 //038   ----------------------------------------
Label_0105770C:
 BYTE   W24
 BYTE   N36  Dn3  v108
 BYTE   W36
 BYTE   N24  Gn3  v100
 BYTE   W24
 BYTE   An3
 BYTE   W12
 BYTE   PEND 
//  #03 //039   ----------------------------------------
Label_01057718:
 BYTE   W12
 BYTE   TIE  Fs3  v096
 BYTE   W84
 BYTE   PEND 
//  #03 //040   ----------------------------------------
 BYTE   W96
//  #03 //041   ----------------------------------------
 BYTE   W12
 BYTE   EOT
 BYTE   W84
//  #03 //042   ----------------------------------------
 BYTE   W96
//  #03 //043   ----------------------------------------
 BYTE   W96
//  #03 //044   ----------------------------------------
 BYTE   W96
//  #03 //045   ----------------------------------------
 BYTE   PATT
  POIN2 Label_01057554
//  #03 //046   ----------------------------------------
 BYTE   PATT
  POIN2 Label_0105757B
//  #03 //047   ----------------------------------------
 BYTE   W96
//  #03 //048   ----------------------------------------
 BYTE   PATT
  POIN2 Label_01057588
//  #03 //049   ----------------------------------------
 BYTE   PATT
  POIN2 Label_010575B6
//  #03 //050   ----------------------------------------
 BYTE   PATT
  POIN2 Label_010575C5
//  #03 //051   ----------------------------------------
 BYTE   PATT
  POIN2 Label_010575D2
//  #03 //052   ----------------------------------------
 BYTE   PATT
  POIN2 Label_010575DF
//  #03 //053   ----------------------------------------
 BYTE   W96
//  #03 //054   ----------------------------------------
 BYTE   PATT
  POIN2 Label_01057554
//  #03 //055   ----------------------------------------
 BYTE   PATT
  POIN2 Label_0105757B
//  #03 //056   ----------------------------------------
 BYTE   PATT
  POIN2 Label_010575FB
//  #03 //057   ----------------------------------------
 BYTE   PATT
  POIN2 Label_01057629
//  #03 //058   ----------------------------------------
 BYTE   PATT
  POIN2 Label_010575D2
//  #03 //059   ----------------------------------------
 BYTE   PATT
  POIN2 Label_010575DF
//  #03 //060   ----------------------------------------
 BYTE   W96
//  #03 //061   ----------------------------------------
 BYTE   PATT
  POIN2 Label_01057647
//  #03 //062   ----------------------------------------
 BYTE   PATT
  POIN2 Label_0105765C
//  #03 //063   ----------------------------------------
 BYTE   PATT
  POIN2 Label_0105766E
//  #03 //064   ----------------------------------------
 BYTE   PATT
  POIN2 Label_01057676
//  #03 //065   ----------------------------------------
 BYTE   GoTo
  POIN2 Label_01057694
//  #03 //066   ----------------------------------------
 BYTE   PATT
  POIN2 Label_01057694
//  #03 //067   ----------------------------------------
 BYTE   EOT
 BYTE   Gs4
 BYTE   W84
 BYTE   W96
//  #03 //068   ----------------------------------------
 BYTE   PATT
  POIN2 Label_0105769D
//  #03 //069   ----------------------------------------
 BYTE   W96
//  #03 //070   ----------------------------------------
 BYTE   W12
 BYTE   TIE  En3  v100
 BYTE   W84
//  #03 //071   ----------------------------------------
 BYTE   W24
 BYTE   EOT
 BYTE   N24  An3  v096
 BYTE   W24
 BYTE   Dn4  v100
 BYTE   W24
 BYTE   Bn3
 BYTE   W24
//  #03 //072   ----------------------------------------
 BYTE   PATT
  POIN2 Label_010576B2
//  #03 //073   ----------------------------------------
 BYTE   W96
//  #03 //074   ----------------------------------------
 BYTE   W96
//  #03 //075   ----------------------------------------
 BYTE   PATT
  POIN2 Label_010576C3
//  #03 //076   ----------------------------------------
 BYTE   PATT
  POIN2 Label_010576D8
//  #03 //077   ----------------------------------------
 BYTE   PATT
  POIN2 Label_010576E4
//  #03 //078   ----------------------------------------
 BYTE   PATT
  POIN2 Label_010576EE
//  #03 //079   ----------------------------------------
 BYTE   PATT
  POIN2 Label_01057701
//  #03 //080   ----------------------------------------
 BYTE   PATT
  POIN2 Label_0105770C
//  #03 //081   ----------------------------------------
 BYTE   PATT
  POIN2 Label_01057718
//  #03 //082   ----------------------------------------
 BYTE   W96
//  #03 //083   ----------------------------------------
 BYTE   W12
 BYTE   EOT
 BYTE   Fs3
 BYTE   W84
//  #03 //084   ----------------------------------------
 BYTE   W96
//  #03 //085   ----------------------------------------
 BYTE   W96
//  #03 //086   ----------------------------------------
 BYTE   W96
//  #03 //087   ----------------------------------------
 BYTE   PATT
  POIN2 Label_01057554
//  #03 //088   ----------------------------------------
 BYTE   PATT
  POIN2 Label_0105757B
//  #03 //089   ----------------------------------------
 BYTE   W96
//  #03 //090   ----------------------------------------
 BYTE   PATT
  POIN2 Label_01057588
//  #03 //091   ----------------------------------------
 BYTE   PATT
  POIN2 Label_010575B6
//  #03 //092   ----------------------------------------
 BYTE   PATT
  POIN2 Label_010575C5
//  #03 //093   ----------------------------------------
 BYTE   PATT
  POIN2 Label_010575D2
//  #03 //094   ----------------------------------------
 BYTE   N06  Cs4  v068
 BYTE   N06  Cs5
 BYTE   W06
 BYTE   Cn4  v076
 BYTE   N06  Cn5
 BYTE   W06
 BYTE   VOL   43*song1D_mvl/mxv
 BYTE   N96  Bn3
 BYTE   N96  Bn4
 BYTE   W09
 BYTE   VOL   43*song1D_mvl/mxv
 BYTE   W06
 BYTE   VOL   42*song1D_mvl/mxv
 BYTE   W06
 BYTE   VOL   42*song1D_mvl/mxv
 BYTE   W06
 BYTE   VOL   42*song1D_mvl/mxv
 BYTE   W06
 BYTE   VOL   41*song1D_mvl/mxv
 BYTE   W06
 BYTE   VOL   41*song1D_mvl/mxv
 BYTE   W06
 BYTE   VOL   40*song1D_mvl/mxv
 BYTE   W06
 BYTE   VOL   40*song1D_mvl/mxv
 BYTE   W06
 BYTE   VOL   40*song1D_mvl/mxv
 BYTE   W06
 BYTE   VOL   39*song1D_mvl/mxv
 BYTE   W06
 BYTE   VOL   39*song1D_mvl/mxv
 BYTE   W06
 BYTE   VOL   38*song1D_mvl/mxv
 BYTE   W06
 BYTE   VOL   38*song1D_mvl/mxv
 BYTE   W03
//  #03 //095   ----------------------------------------
 BYTE   W03
 BYTE   VOL   38*song1D_mvl/mxv
 BYTE   W06
 BYTE   VOL   37*song1D_mvl/mxv
 BYTE   W06
 BYTE   VOL   37*song1D_mvl/mxv
 BYTE   W06
 BYTE   VOL   37*song1D_mvl/mxv
 BYTE   W06
 BYTE   VOL   36*song1D_mvl/mxv
 BYTE   W06
 BYTE   VOL   36*song1D_mvl/mxv
 BYTE   W06
 BYTE   VOL   35*song1D_mvl/mxv
 BYTE   W06
 BYTE   VOL   35*song1D_mvl/mxv
 BYTE   W06
 BYTE   VOL   35*song1D_mvl/mxv
 BYTE   W06
 BYTE   VOL   34*song1D_mvl/mxv
 BYTE   W06
 BYTE   VOL   34*song1D_mvl/mxv
 BYTE   W06
 BYTE   VOL   33*song1D_mvl/mxv
 BYTE   W06
 BYTE   VOL   33*song1D_mvl/mxv
 BYTE   W06
 BYTE   VOL   33*song1D_mvl/mxv
 BYTE   W06
 BYTE   VOL   32*song1D_mvl/mxv
 BYTE   W06
 BYTE   VOL   32*song1D_mvl/mxv
 BYTE   W03
//  #03 //096   ----------------------------------------
 BYTE   W03
 BYTE   VOL   31*song1D_mvl/mxv
 BYTE   W06
 BYTE   VOL   31*song1D_mvl/mxv
 BYTE   W06
 BYTE   VOL   31*song1D_mvl/mxv
 BYTE   W06
 BYTE   VOL   30*song1D_mvl/mxv
 BYTE   W03
 BYTE   N04  En3  v072
 BYTE   N04  En4
 BYTE   W03
 BYTE   VOL   30*song1D_mvl/mxv
 BYTE   W03
 BYTE   N04  En3  v120
 BYTE   N04  En4
 BYTE   W03
 BYTE   VOL   29*song1D_mvl/mxv
 BYTE   W03
 BYTE   N08  Bn3  v076
 BYTE   N08  Bn4
 BYTE   W03
 BYTE   VOL   29*song1D_mvl/mxv
 BYTE   W06
 BYTE   VOL   29*song1D_mvl/mxv
 BYTE   W03
 BYTE   N08  En3  v068
 BYTE   N08  En4
 BYTE   W03
 BYTE   VOL   28*song1D_mvl/mxv
 BYTE   W06
 BYTE   VOL   28*song1D_mvl/mxv
 BYTE   W03
 BYTE   N08  An3  v080
 BYTE   N08  An4
 BYTE   W03
 BYTE   VOL   27*song1D_mvl/mxv
 BYTE   W06
 BYTE   VOL   27*song1D_mvl/mxv
 BYTE   W03
 BYTE   N08  Dn3  v068
 BYTE   N08  Dn4
 BYTE   W03
 BYTE   VOL   27*song1D_mvl/mxv
 BYTE   W06
 BYTE   VOL   26*song1D_mvl/mxv
 BYTE   W03
 BYTE   N08  Gn3  v076
 BYTE   N08  Gn4
 BYTE   W03
 BYTE   VOL   26*song1D_mvl/mxv
 BYTE   W06
 BYTE   VOL   25*song1D_mvl/mxv
 BYTE   W03
//  #03 //097   ----------------------------------------
 BYTE   N08  Cn3  v068
 BYTE   N08  Cn4
 BYTE   W03
 BYTE   VOL   25*song1D_mvl/mxv
 BYTE   W06
 BYTE   VOL   25*song1D_mvl/mxv
 BYTE   W03
 BYTE   N12  Bn2
 BYTE   N12  Bn3
 BYTE   W03
 BYTE   VOL   24*song1D_mvl/mxv
 BYTE   W06
 BYTE   VOL   24*song1D_mvl/mxv
 BYTE   W06
 BYTE   VOL   24*song1D_mvl/mxv
 BYTE   W06
 BYTE   VOL   23*song1D_mvl/mxv
 BYTE   W06
 BYTE   VOL   23*song1D_mvl/mxv
 BYTE   W06
 BYTE   VOL   22*song1D_mvl/mxv
 BYTE   W06
 BYTE   VOL   22*song1D_mvl/mxv
 BYTE   W06
 BYTE   VOL   22*song1D_mvl/mxv
 BYTE   W09
 BYTE   VOL   21*song1D_mvl/mxv
 BYTE   W06
 BYTE   VOL   21*song1D_mvl/mxv
 BYTE   W06
 BYTE   VOL   20*song1D_mvl/mxv
 BYTE   W06
 BYTE   VOL   20*song1D_mvl/mxv
 BYTE   W06
 BYTE   VOL   20*song1D_mvl/mxv
 BYTE   W06
//  #03 //098   ----------------------------------------
 BYTE   VOL   19*song1D_mvl/mxv
 BYTE   W06
 BYTE   VOL   19*song1D_mvl/mxv
 BYTE   W06
 BYTE   VOL   18*song1D_mvl/mxv
 BYTE   W06
 BYTE   VOL   18*song1D_mvl/mxv
 BYTE   W06
 BYTE   VOL   18*song1D_mvl/mxv
 BYTE   N04  En3  v052
 BYTE   N04  En4  v072
 BYTE   W06
 BYTE   VOL   17*song1D_mvl/mxv
 BYTE   N04  En3  v100
 BYTE   N04  En4  v120
 BYTE   W06
 BYTE   VOL   17*song1D_mvl/mxv
 BYTE   N08  Bn3  v056
 BYTE   N08  Bn4  v076
 BYTE   W06
 BYTE   VOL   16*song1D_mvl/mxv
 BYTE   W06
 BYTE   VOL   16*song1D_mvl/mxv
 BYTE   N08  En3  v048
 BYTE   N08  En4  v068
 BYTE   W06
 BYTE   VOL   16*song1D_mvl/mxv
 BYTE   W06
 BYTE   VOL   15*song1D_mvl/mxv
 BYTE   N08  An3  v060
 BYTE   N08  An4  v080
 BYTE   W06
 BYTE   VOL   15*song1D_mvl/mxv
 BYTE   W06
 BYTE   VOL   14*song1D_mvl/mxv
 BYTE   N08  Dn3  v048
 BYTE   N08  Dn4  v068
 BYTE   W06
 BYTE   VOL   14*song1D_mvl/mxv
 BYTE   W06
 BYTE   VOL   14*song1D_mvl/mxv
 BYTE   N08  En3  v056
 BYTE   N08  En4  v076
 BYTE   W06
 BYTE   VOL   13*song1D_mvl/mxv
 BYTE   W06
//  #03 //099   ----------------------------------------
 BYTE   VOL   13*song1D_mvl/mxv
 BYTE   N08  An3  v048
 BYTE   N08  An4  v068
 BYTE   W06
 BYTE   VOL   12*song1D_mvl/mxv
 BYTE   W06
 BYTE   VOL   12*song1D_mvl/mxv
 BYTE   N48  Bn3  v076
 BYTE   N48  Bn4
 BYTE   W06
 BYTE   VOL   12*song1D_mvl/mxv
 BYTE   W06
 BYTE   VOL   11*song1D_mvl/mxv
 BYTE   W06
 BYTE   VOL   11*song1D_mvl/mxv
 BYTE   W06
 BYTE   VOL   11*song1D_mvl/mxv
 BYTE   W06
 BYTE   VOL   10*song1D_mvl/mxv
 BYTE   W06
 BYTE   VOL   10*song1D_mvl/mxv
 BYTE   W06
 BYTE   VOL   9*song1D_mvl/mxv
 BYTE   W06
 BYTE   VOL   9*song1D_mvl/mxv
 BYTE   N48  An3  v084
 BYTE   N48  An4
 BYTE   W06
 BYTE   VOL   9*song1D_mvl/mxv
 BYTE   W06
 BYTE   VOL   8*song1D_mvl/mxv
 BYTE   W06
 BYTE   VOL   8*song1D_mvl/mxv
 BYTE   W06
 BYTE   VOL   7*song1D_mvl/mxv
 BYTE   W06
 BYTE   VOL   7*song1D_mvl/mxv
 BYTE   W06
//  #03 //100   ----------------------------------------
 BYTE   VOL   7*song1D_mvl/mxv
 BYTE   W06
 BYTE   VOL   6*song1D_mvl/mxv
 BYTE   W06
 BYTE   VOL   6*song1D_mvl/mxv
 BYTE   N48  Cn4
 BYTE   N48  Cn5
 BYTE   W06
 BYTE   VOL   5*song1D_mvl/mxv
 BYTE   W06
 BYTE   VOL   5*song1D_mvl/mxv
 BYTE   W06
 BYTE   VOL   5*song1D_mvl/mxv
 BYTE   W06
 BYTE   VOL   4*song1D_mvl/mxv
 BYTE   W06
 BYTE   VOL   4*song1D_mvl/mxv
 BYTE   W06
 BYTE   VOL   3*song1D_mvl/mxv
 BYTE   W06
 BYTE   VOL   3*song1D_mvl/mxv
 BYTE   W06
 BYTE   VOL   3*song1D_mvl/mxv
 BYTE   N36  Dn4
 BYTE   N36  Dn5
 BYTE   W06
 BYTE   VOL   2*song1D_mvl/mxv
 BYTE   W06
 BYTE   VOL   2*song1D_mvl/mxv
 BYTE   W06
 BYTE   VOL   1*song1D_mvl/mxv
 BYTE   W06
 BYTE   VOL   1*song1D_mvl/mxv
 BYTE   W06
 BYTE   VOL   1*song1D_mvl/mxv
 BYTE   W06
//  #03 //101   ----------------------------------------
 BYTE   VOL   0*song1D_mvl/mxv
 BYTE   N06  Cs4  v068
 BYTE   N06  Cs5
 BYTE   W06
 BYTE   VOL   0*song1D_mvl/mxv
 BYTE   N06  Cn4  v076
 BYTE   N06  Cn5
 BYTE   W03
 BYTE   VOL   0*song1D_mvl/mxv
 BYTE   W03
 BYTE   FINE

//**************** Track 4 (Midi-Chn.3) ****************//

song1D_004:
//  #04 //000   ----------------------------------------
 BYTE   KEYSH   song1D_key+0
 BYTE   VOICE   56
 BYTE   PAN   c_v+0
 BYTE   VOL   47*song1D_mvl/mxv
 BYTE   MOD 0
 BYTE   BEND   c_v+0
 BYTE   W96
//  #04 //001   ----------------------------------------
 BYTE   W96
//  #04 //002   ----------------------------------------
 BYTE   W96
//  #04 //003   ----------------------------------------
 BYTE   W96
//  #04 //004   ----------------------------------------
 BYTE   W96
//  #04 //005   ----------------------------------------
Label_010579E9:
 BYTE   W24
 BYTE   N04  En3  v072
 BYTE   W06
 BYTE   En3  v120
 BYTE   W06
 BYTE   N08  Bn3  v104
 BYTE   W12
 BYTE   En3  v096
 BYTE   W12
 BYTE   An3  v100
 BYTE   W12
 BYTE   Dn3
 BYTE   W12
 BYTE   Gn3
 BYTE   W12
 BYTE   PEND 
//  #04 //006   ----------------------------------------
Label_01057A00:
 BYTE   N08  Cn3  v100
 BYTE   W12
 BYTE   N12  Bn2  v096
 BYTE   W84
 BYTE   PEND 
//  #04 //007   ----------------------------------------
 BYTE   W96
//  #04 //008   ----------------------------------------
Label_01057A0A:
 BYTE   W24
 BYTE   N04  En3  v072
 BYTE   W06
 BYTE   En3  v120
 BYTE   W06
 BYTE   N08  Bn3  v096
 BYTE   W12
 BYTE   En3
 BYTE   W12
 BYTE   An3  v104
 BYTE   W12
 BYTE   Dn3  v096
 BYTE   W12
 BYTE   En3  v104
 BYTE   W12
 BYTE   PEND 
//  #04 //009   ----------------------------------------
Label_01057A22:
 BYTE   N08  An3  v096
 BYTE   W12
 BYTE   N48  Bn3
 BYTE   W48
 BYTE   An3  v084
 BYTE   W36
 BYTE   PEND 
//  #04 //010   ----------------------------------------
Label_01057A2D:
 BYTE   W12
 BYTE   N48  Cn4  v092
 BYTE   W48
 BYTE   N42  Dn4  v084
 BYTE   W36
 BYTE   PEND 
//  #04 //011   ----------------------------------------
Label_01057A37:
 BYTE   W06
 BYTE   N03  Cs4  v084
 BYTE   W03
 BYTE   Cn4
 BYTE   W03
 BYTE   N96  Bn3
 BYTE   W84
 BYTE   PEND 
//  #04 //012   ----------------------------------------
 BYTE   W96
//  #04 //013   ----------------------------------------
 BYTE   W96
//  #04 //014   ----------------------------------------
 BYTE   PATT
  POIN2 Label_010579E9
//  #04 //015   ----------------------------------------
 BYTE   PATT
  POIN2 Label_01057A00
//  #04 //016   ----------------------------------------
Label_01057A4E:
 BYTE   W12
 BYTE   N48  Bn3  v096
 BYTE   W48
 BYTE   An3  v084
 BYTE   W36
 BYTE   PEND 
//  #04 //017   ----------------------------------------
 BYTE   PATT
  POIN2 Label_01057A2D
//  #04 //018   ----------------------------------------
 BYTE   PATT
  POIN2 Label_01057A37
//  #04 //019   ----------------------------------------
 BYTE   W96
//  #04 //020   ----------------------------------------
Label_01057A62:
 BYTE   W24
 BYTE   N12  En3  v076
 BYTE   W12
 BYTE   Ds3  v056
 BYTE   W12
 BYTE   Bn2  v068
 BYTE   W12
 BYTE   Gn3  v092
 BYTE   W12
 BYTE   Fs3  v072
 BYTE   W12
 BYTE   Dn3  v060
 BYTE   W12
 BYTE   PEND 
//  #04 //021   ----------------------------------------
Label_01057A77:
 BYTE   N12  An3  v088
 BYTE   W12
 BYTE   Gs3  v076
 BYTE   W12
 BYTE   En3
 BYTE   W12
 BYTE   N24  As3  v080
 BYTE   W24
 BYTE   N20  An3  v084
 BYTE   W36
 BYTE   PEND 
//  #04 //022   ----------------------------------------
Label_01057A89:
 BYTE   N12  An3  v076
 BYTE   W12
 BYTE   TIE  Gs3
 BYTE   W84
 BYTE   PEND 
//  #04 //023   ----------------------------------------
Label_01057A91:
 BYTE   W12
 BYTE   W03
 BYTE   W03
 BYTE   W03
 BYTE   W03
 BYTE   W03
 BYTE   W03
 BYTE   W03
 BYTE   W03
 BYTE   W03
 BYTE   W03
 BYTE   W03
 BYTE   W03
 BYTE   W03
 BYTE   W03
 BYTE   W03
 BYTE   W03
 BYTE   W03
 BYTE   W03
 BYTE   W03
 BYTE   W03
 BYTE   W03
 BYTE   W03
 BYTE   W03
 BYTE   W03
 BYTE   W03
 BYTE   W03
 BYTE   W03
 BYTE   W03
 BYTE   PEND 
//  #04 //024   ----------------------------------------
Label_01057AAF:
 BYTE   W03
 BYTE   W03
 BYTE   W03
 BYTE   W03
 BYTE   PEND 
 BYTE   EOT
 BYTE   Gs3
 BYTE   W84
//  #04 //025   ----------------------------------------
 BYTE   W96
//  #04 //026   ----------------------------------------
Label_01057AB8:
 BYTE   W12
 BYTE   W24
 BYTE   W60
 BYTE   PEND 
//  #04 //027   ----------------------------------------
 BYTE   W96
//  #04 //028   ----------------------------------------
 BYTE   W96
//  #04 //029   ----------------------------------------
 BYTE   W96
//  #04 //030   ----------------------------------------
 BYTE   W96
//  #04 //031   ----------------------------------------
Label_01057AC0:
 BYTE   W12
 BYTE   N08  Bn2  v100
 BYTE   N08  En3
 BYTE   W36
 BYTE   N10  Cn3  v092
 BYTE   N10  Fn3
 BYTE   W24
 BYTE   N20  Cn3  v096
 BYTE   N20  Fn3
 BYTE   W24
 BYTE   PEND 
//  #04 //032   ----------------------------------------
Label_01057AD4:
 BYTE   N05  An2  v088
 BYTE   N05  Dn3
 BYTE   W06
 BYTE   Cn3  v096
 BYTE   N05  Fn3
 BYTE   W06
 BYTE   N10  Bn2  v092
 BYTE   N10  En3
 BYTE   W36
 BYTE   Bn2  v104
 BYTE   N10  En3
 BYTE   W36
 BYTE   Bn2
 BYTE   N10  En3
 BYTE   W12
 BYTE   PEND 
//  #04 //033   ----------------------------------------
 BYTE   W96
//  #04 //034   ----------------------------------------
 BYTE   W96
//  #04 //035   ----------------------------------------
 BYTE   W96
//  #04 //036   ----------------------------------------
 BYTE   W96
//  #04 //037   ----------------------------------------
Label_01057AF3:
 BYTE   W12
 BYTE   N36  Bn2  v116
 BYTE   W36
 BYTE   An2  v096
 BYTE   W36
 BYTE   En3
 BYTE   W12
 BYTE   PEND 
//  #04 //038   ----------------------------------------
Label_01057AFE:
 BYTE   W24
 BYTE   N36  Dn3  v108
 BYTE   W36
 BYTE   N24  Gn3  v100
 BYTE   W24
 BYTE   An3
 BYTE   W12
 BYTE   PEND 
//  #04 //039   ----------------------------------------
Label_01057B0A:
 BYTE   W12
 BYTE   N84  Bn2  v108
 BYTE   N84  En3  v116
 BYTE   N84  Fs3  v100
 BYTE   W84
 BYTE   PEND 
//  #04 //040   ----------------------------------------
Label_01057B16:
 BYTE   N04  Bn2  v112
 BYTE   N04  En3  v120
 BYTE   N04  Fs3  v104
 BYTE   W06
 BYTE   Bn2  v112
 BYTE   N04  En3  v116
 BYTE   N04  Fs3  v108
 BYTE   W06
 BYTE   N96  Bn2  v084
 BYTE   N96  Ds3
 BYTE   N96  Fs3  v080
 BYTE   W84
 BYTE   PEND 
//  #04 //041   ----------------------------------------
 BYTE   W96
//  #04 //042   ----------------------------------------
 BYTE   W96
//  #04 //043   ----------------------------------------
 BYTE   W96
//  #04 //044   ----------------------------------------
 BYTE   W96
//  #04 //045   ----------------------------------------
 BYTE   W96
//  #04 //046   ----------------------------------------
 BYTE   PATT
  POIN2 Label_010579E9
//  #04 //047   ----------------------------------------
 BYTE   PATT
  POIN2 Label_01057A00
//  #04 //048   ----------------------------------------
 BYTE   W96
//  #04 //049   ----------------------------------------
 BYTE   PATT
  POIN2 Label_01057A0A
//  #04 //050   ----------------------------------------
 BYTE   PATT
  POIN2 Label_01057A22
//  #04 //051   ----------------------------------------
 BYTE   PATT
  POIN2 Label_01057A2D
//  #04 //052   ----------------------------------------
 BYTE   PATT
  POIN2 Label_01057A37
//  #04 //053   ----------------------------------------
 BYTE   W96
//  #04 //054   ----------------------------------------
 BYTE   W96
//  #04 //055   ----------------------------------------
 BYTE   PATT
  POIN2 Label_010579E9
//  #04 //056   ----------------------------------------
 BYTE   PATT
  POIN2 Label_01057A00
//  #04 //057   ----------------------------------------
 BYTE   PATT
  POIN2 Label_01057A4E
//  #04 //058   ----------------------------------------
 BYTE   PATT
  POIN2 Label_01057A2D
//  #04 //059   ----------------------------------------
 BYTE   PATT
  POIN2 Label_01057A37
//  #04 //060   ----------------------------------------
 BYTE   W96
//  #04 //061   ----------------------------------------
 BYTE   PATT
  POIN2 Label_01057A62
//  #04 //062   ----------------------------------------
 BYTE   PATT
  POIN2 Label_01057A77
//  #04 //063   ----------------------------------------
 BYTE   PATT
  POIN2 Label_01057A89
//  #04 //064   ----------------------------------------
 BYTE   PATT
  POIN2 Label_01057A91
//  #04 //065   ----------------------------------------
 BYTE   GoTo
  POIN2 Label_01057AAF
//  #04 //066   ----------------------------------------
 BYTE   PATT
  POIN2 Label_01057AAF
//  #04 //067   ----------------------------------------
 BYTE   EOT
 BYTE   Gs3
 BYTE   W84
 BYTE   W96
//  #04 //068   ----------------------------------------
 BYTE   PATT
  POIN2 Label_01057AB8
//  #04 //069   ----------------------------------------
 BYTE   W96
//  #04 //070   ----------------------------------------
 BYTE   W96
//  #04 //071   ----------------------------------------
 BYTE   W96
//  #04 //072   ----------------------------------------
 BYTE   W96
//  #04 //073   ----------------------------------------
 BYTE   PATT
  POIN2 Label_01057AC0
//  #04 //074   ----------------------------------------
 BYTE   PATT
  POIN2 Label_01057AD4
//  #04 //075   ----------------------------------------
 BYTE   W96
//  #04 //076   ----------------------------------------
 BYTE   W96
//  #04 //077   ----------------------------------------
 BYTE   W96
//  #04 //078   ----------------------------------------
 BYTE   W96
//  #04 //079   ----------------------------------------
 BYTE   PATT
  POIN2 Label_01057AF3
//  #04 //080   ----------------------------------------
 BYTE   PATT
  POIN2 Label_01057AFE
//  #04 //081   ----------------------------------------
 BYTE   PATT
  POIN2 Label_01057B0A
//  #04 //082   ----------------------------------------
 BYTE   PATT
  POIN2 Label_01057B16
//  #04 //083   ----------------------------------------
 BYTE   W96
//  #04 //084   ----------------------------------------
 BYTE   W96
//  #04 //085   ----------------------------------------
 BYTE   W96
//  #04 //086   ----------------------------------------
 BYTE   W96
//  #04 //087   ----------------------------------------
 BYTE   W96
//  #04 //088   ----------------------------------------
 BYTE   PATT
  POIN2 Label_010579E9
//  #04 //089   ----------------------------------------
 BYTE   PATT
  POIN2 Label_01057A00
//  #04 //090   ----------------------------------------
 BYTE   W96
//  #04 //091   ----------------------------------------
 BYTE   PATT
  POIN2 Label_01057A0A
//  #04 //092   ----------------------------------------
 BYTE   PATT
  POIN2 Label_01057A22
//  #04 //093   ----------------------------------------
 BYTE   PATT
  POIN2 Label_01057A2D
//  #04 //094   ----------------------------------------
 BYTE   W06
 BYTE   N03  Cs4  v084
 BYTE   W03
 BYTE   Cn4
 BYTE   W03
 BYTE   VOL   42*song1D_mvl/mxv
 BYTE   N96  Bn3
 BYTE   W09
 BYTE   VOL   41*song1D_mvl/mxv
 BYTE   W06
 BYTE   VOL   41*song1D_mvl/mxv
 BYTE   W06
 BYTE   VOL   40*song1D_mvl/mxv
 BYTE   W06
 BYTE   VOL   40*song1D_mvl/mxv
 BYTE   W06
 BYTE   VOL   40*song1D_mvl/mxv
 BYTE   W06
 BYTE   VOL   39*song1D_mvl/mxv
 BYTE   W06
 BYTE   VOL   39*song1D_mvl/mxv
 BYTE   W06
 BYTE   VOL   38*song1D_mvl/mxv
 BYTE   W06
 BYTE   VOL   38*song1D_mvl/mxv
 BYTE   W06
 BYTE   VOL   38*song1D_mvl/mxv
 BYTE   W09
 BYTE   VOL   37*song1D_mvl/mxv
 BYTE   W06
 BYTE   VOL   37*song1D_mvl/mxv
 BYTE   W06
//  #04 //095   ----------------------------------------
 BYTE   VOL   37*song1D_mvl/mxv
 BYTE   W06
 BYTE   VOL   36*song1D_mvl/mxv
 BYTE   W06
 BYTE   VOL   36*song1D_mvl/mxv
 BYTE   W06
 BYTE   VOL   35*song1D_mvl/mxv
 BYTE   W06
 BYTE   VOL   35*song1D_mvl/mxv
 BYTE   W06
 BYTE   VOL   35*song1D_mvl/mxv
 BYTE   W06
 BYTE   VOL   34*song1D_mvl/mxv
 BYTE   W06
 BYTE   VOL   34*song1D_mvl/mxv
 BYTE   W06
 BYTE   VOL   33*song1D_mvl/mxv
 BYTE   W09
 BYTE   VOL   33*song1D_mvl/mxv
 BYTE   W06
 BYTE   VOL   33*song1D_mvl/mxv
 BYTE   W06
 BYTE   VOL   32*song1D_mvl/mxv
 BYTE   W06
 BYTE   VOL   32*song1D_mvl/mxv
 BYTE   W06
 BYTE   VOL   31*song1D_mvl/mxv
 BYTE   W06
 BYTE   VOL   31*song1D_mvl/mxv
 BYTE   W06
 BYTE   VOL   31*song1D_mvl/mxv
 BYTE   W03
//  #04 //096   ----------------------------------------
 BYTE   W03
 BYTE   VOL   30*song1D_mvl/mxv
 BYTE   W06
 BYTE   VOL   30*song1D_mvl/mxv
 BYTE   W06
 BYTE   VOL   29*song1D_mvl/mxv
 BYTE   W06
 BYTE   VOL   29*song1D_mvl/mxv
 BYTE   W09
 BYTE   VOL   29*song1D_mvl/mxv
 BYTE   W06
 BYTE   VOL   28*song1D_mvl/mxv
 BYTE   W06
 BYTE   VOL   28*song1D_mvl/mxv
 BYTE   W06
 BYTE   VOL   27*song1D_mvl/mxv
 BYTE   W06
 BYTE   VOL   27*song1D_mvl/mxv
 BYTE   W06
 BYTE   VOL   27*song1D_mvl/mxv
 BYTE   W06
 BYTE   VOL   26*song1D_mvl/mxv
 BYTE   W06
 BYTE   VOL   26*song1D_mvl/mxv
 BYTE   W06
 BYTE   VOL   25*song1D_mvl/mxv
 BYTE   W06
 BYTE   VOL   25*song1D_mvl/mxv
 BYTE   W09
 BYTE   VOL   25*song1D_mvl/mxv
 BYTE   W03
//  #04 //097   ----------------------------------------
 BYTE   W03
 BYTE   VOL   24*song1D_mvl/mxv
 BYTE   W06
 BYTE   VOL   24*song1D_mvl/mxv
 BYTE   W06
 BYTE   VOL   24*song1D_mvl/mxv
 BYTE   W06
 BYTE   VOL   23*song1D_mvl/mxv
 BYTE   W03
 BYTE   N04  En3  v072
 BYTE   W03
 BYTE   VOL   23*song1D_mvl/mxv
 BYTE   W03
 BYTE   N04  En3  v120
 BYTE   W03
 BYTE   VOL   22*song1D_mvl/mxv
 BYTE   W03
 BYTE   N08  Bn3  v104
 BYTE   W03
 BYTE   VOL   22*song1D_mvl/mxv
 BYTE   W06
 BYTE   VOL   22*song1D_mvl/mxv
 BYTE   W03
 BYTE   N08  En3  v096
 BYTE   W03
 BYTE   VOL   21*song1D_mvl/mxv
 BYTE   W06
 BYTE   VOL   21*song1D_mvl/mxv
 BYTE   W03
 BYTE   N08  An3  v100
 BYTE   W06
 BYTE   VOL   20*song1D_mvl/mxv
 BYTE   W06
 BYTE   VOL   20*song1D_mvl/mxv
 BYTE   N08  Dn3
 BYTE   W06
 BYTE   VOL   20*song1D_mvl/mxv
 BYTE   W06
 BYTE   VOL   19*song1D_mvl/mxv
 BYTE   N08  Gn3
 BYTE   W06
 BYTE   VOL   19*song1D_mvl/mxv
 BYTE   W06
//  #04 //098   ----------------------------------------
 BYTE   VOL   18*song1D_mvl/mxv
 BYTE   N08  Cn3
 BYTE   W06
 BYTE   VOL   18*song1D_mvl/mxv
 BYTE   W06
 BYTE   VOL   18*song1D_mvl/mxv
 BYTE   N12  Bn2  v096
 BYTE   W06
 BYTE   VOL   17*song1D_mvl/mxv
 BYTE   W06
 BYTE   VOL   17*song1D_mvl/mxv
 BYTE   W06
 BYTE   VOL   16*song1D_mvl/mxv
 BYTE   W09
 BYTE   VOL   16*song1D_mvl/mxv
 BYTE   W06
 BYTE   VOL   16*song1D_mvl/mxv
 BYTE   W06
 BYTE   VOL   15*song1D_mvl/mxv
 BYTE   W06
 BYTE   VOL   15*song1D_mvl/mxv
 BYTE   W06
 BYTE   VOL   14*song1D_mvl/mxv
 BYTE   W06
 BYTE   VOL   14*song1D_mvl/mxv
 BYTE   W06
 BYTE   VOL   14*song1D_mvl/mxv
 BYTE   W06
 BYTE   VOL   13*song1D_mvl/mxv
 BYTE   W06
 BYTE   VOL   13*song1D_mvl/mxv
 BYTE   W06
 BYTE   VOL   12*song1D_mvl/mxv
 BYTE   W03
//  #04 //099   ----------------------------------------
 BYTE   W06
 BYTE   VOL   12*song1D_mvl/mxv
 BYTE   W06
 BYTE   VOL   12*song1D_mvl/mxv
 BYTE   N48  Bn3
 BYTE   W06
 BYTE   VOL   11*song1D_mvl/mxv
 BYTE   W06
 BYTE   VOL   11*song1D_mvl/mxv
 BYTE   W06
 BYTE   VOL   11*song1D_mvl/mxv
 BYTE   W06
 BYTE   VOL   10*song1D_mvl/mxv
 BYTE   W06
 BYTE   VOL   10*song1D_mvl/mxv
 BYTE   W06
 BYTE   VOL   9*song1D_mvl/mxv
 BYTE   W06
 BYTE   VOL   9*song1D_mvl/mxv
 BYTE   W06
 BYTE   VOL   9*song1D_mvl/mxv
 BYTE   N48  An3  v084
 BYTE   W06
 BYTE   VOL   8*song1D_mvl/mxv
 BYTE   W09
 BYTE   VOL   8*song1D_mvl/mxv
 BYTE   W06
 BYTE   VOL   7*song1D_mvl/mxv
 BYTE   W06
 BYTE   VOL   7*song1D_mvl/mxv
 BYTE   W06
 BYTE   VOL   7*song1D_mvl/mxv
 BYTE   W03
//  #04 //100   ----------------------------------------
 BYTE   W03
 BYTE   VOL   6*song1D_mvl/mxv
 BYTE   W06
 BYTE   VOL   6*song1D_mvl/mxv
 BYTE   W03
 BYTE   N48  Cn4  v092
 BYTE   W03
 BYTE   VOL   5*song1D_mvl/mxv
 BYTE   W06
 BYTE   VOL   5*song1D_mvl/mxv
 BYTE   W06
 BYTE   VOL   5*song1D_mvl/mxv
 BYTE   W06
 BYTE   VOL   4*song1D_mvl/mxv
 BYTE   W06
 BYTE   VOL   4*song1D_mvl/mxv
 BYTE   W09
 BYTE   VOL   3*song1D_mvl/mxv
 BYTE   W06
 BYTE   VOL   3*song1D_mvl/mxv
 BYTE   W06
 BYTE   VOL   3*song1D_mvl/mxv
 BYTE   N42  Dn4  v084
 BYTE   W06
 BYTE   VOL   2*song1D_mvl/mxv
 BYTE   W06
 BYTE   VOL   2*song1D_mvl/mxv
 BYTE   W06
 BYTE   VOL   1*song1D_mvl/mxv
 BYTE   W06
 BYTE   VOL   1*song1D_mvl/mxv
 BYTE   W06
 BYTE   VOL   1*song1D_mvl/mxv
 BYTE   W06
//  #04 //101   ----------------------------------------
 BYTE   VOL   0*song1D_mvl/mxv
 BYTE   W06
 BYTE   VOL   0*song1D_mvl/mxv
 BYTE   N03  Cs4
 BYTE   W03
 BYTE   VOL   0*song1D_mvl/mxv
 BYTE   N03  Cn4
 BYTE   W03
 BYTE   FINE

//**************** Track 5 (Midi-Chn.4) ****************//

song1D_005:
//  #05 //000   ----------------------------------------
 BYTE   KEYSH   song1D_key+0
 BYTE   VOICE   40
 BYTE   PAN   c_v-19
 BYTE   VOL   41*song1D_mvl/mxv
 BYTE   MOD 0
 BYTE   BEND   c_v+0
 BYTE   W03
 BYTE   N03  Bn2  v056
 BYTE   N03  Bn3  v068
 BYTE   W03
 BYTE   Cn3  v064
 BYTE   N03  Cn4
 BYTE   W03
 BYTE   Dn3  v084
 BYTE   N03  Dn4  v072
 BYTE   W03
 BYTE   N08  En3  v104
 BYTE   N08  Bn3  v080
 BYTE   N08  En4  v100
 BYTE   W84
//  #05 //001   ----------------------------------------
 BYTE   W96
//  #05 //002   ----------------------------------------
Label_01057D8A:
 BYTE   W03
 BYTE   N03  Bn2  v056
 BYTE   N03  Bn3  v068
 BYTE   W03
 BYTE   Cn3  v064
 BYTE   N03  Cn4
 BYTE   W03
 BYTE   Dn3  v084
 BYTE   N03  Dn4  v072
 BYTE   W03
 BYTE   N08  En3  v104
 BYTE   N08  Bn3  v080
 BYTE   N08  En4  v100
 BYTE   W84
 BYTE   PEND 
//  #05 //003   ----------------------------------------
 BYTE   W96
//  #05 //004   ----------------------------------------
 BYTE   W96
//  #05 //005   ----------------------------------------
 BYTE   W96
//  #05 //006   ----------------------------------------
 BYTE   W96
//  #05 //007   ----------------------------------------
 BYTE   W96
//  #05 //008   ----------------------------------------
 BYTE   W96
//  #05 //009   ----------------------------------------
 BYTE   W96
//  #05 //010   ----------------------------------------
 BYTE   W96
//  #05 //011   ----------------------------------------
 BYTE   W96
//  #05 //012   ----------------------------------------
 BYTE   W96
//  #05 //013   ----------------------------------------
 BYTE   W96
//  #05 //014   ----------------------------------------
 BYTE   W96
//  #05 //015   ----------------------------------------
 BYTE   W96
//  #05 //016   ----------------------------------------
 BYTE   W96
//  #05 //017   ----------------------------------------
 BYTE   W96
//  #05 //018   ----------------------------------------
 BYTE   W96
//  #05 //019   ----------------------------------------
 BYTE   W96
//  #05 //020   ----------------------------------------
Label_01057DB9:
 BYTE   W24
 BYTE   N12  En3  v076
 BYTE   W12
 BYTE   Ds3  v056
 BYTE   W12
 BYTE   Bn2  v068
 BYTE   W12
 BYTE   Gn3  v092
 BYTE   W12
 BYTE   Fs3  v072
 BYTE   W12
 BYTE   Dn3  v060
 BYTE   W12
 BYTE   PEND 
//  #05 //021   ----------------------------------------
Label_01057DCE:
 BYTE   N12  An3  v088
 BYTE   W12
 BYTE   Gs3  v076
 BYTE   W12
 BYTE   En3
 BYTE   W12
 BYTE   N24  As3  v080
 BYTE   W24
 BYTE   N20  An3  v084
 BYTE   W36
 BYTE   PEND 
//  #05 //022   ----------------------------------------
Label_01057DE0:
 BYTE   N12  An3  v076
 BYTE   W12
 BYTE   TIE  Gs3
 BYTE   W84
 BYTE   PEND 
//  #05 //023   ----------------------------------------
Label_01057DE8:
 BYTE   W12
 BYTE   W03
 BYTE   W03
 BYTE   W03
 BYTE   W03
 BYTE   W03
 BYTE   W03
 BYTE   W03
 BYTE   W03
 BYTE   W03
 BYTE   W03
 BYTE   W03
 BYTE   W03
 BYTE   W03
 BYTE   W03
 BYTE   W03
 BYTE   W03
 BYTE   W03
 BYTE   W03
 BYTE   W03
 BYTE   W03
 BYTE   W03
 BYTE   W03
 BYTE   W03
 BYTE   W03
 BYTE   W03
 BYTE   W03
 BYTE   W03
 BYTE   W03
 BYTE   PEND 
//  #05 //024   ----------------------------------------
Label_01057E06:
 BYTE   W03
 BYTE   W03
 BYTE   W03
 BYTE   W03
 BYTE   PEND 
 BYTE   EOT
 BYTE   Gs3
 BYTE   W84
//  #05 //025   ----------------------------------------
 BYTE   W96
//  #05 //026   ----------------------------------------
Label_01057E0F:
 BYTE   W12
 BYTE   W12
 BYTE   W72
 BYTE   PEND 
//  #05 //027   ----------------------------------------
 BYTE   W96
//  #05 //028   ----------------------------------------
 BYTE   W96
//  #05 //029   ----------------------------------------
 BYTE   W96
//  #05 //030   ----------------------------------------
 BYTE   W96
//  #05 //031   ----------------------------------------
Label_01057E17:
 BYTE   W12
 BYTE   N08  En2  v084
 BYTE   N08  Bn3  v100
 BYTE   N08  En4
 BYTE   W36
 BYTE   N10  Fn2  v076
 BYTE   N10  Cn4  v092
 BYTE   N10  Fn4
 BYTE   W24
 BYTE   N12  Fn2  v080
 BYTE   N20  Cn4  v096
 BYTE   N20  Fn4
 BYTE   W12
 BYTE   N08  Fn2  v080
 BYTE   W12
 BYTE   PEND 
//  #05 //032   ----------------------------------------
Label_01057E38:
 BYTE   N05  Dn2  v076
 BYTE   N05  An3  v088
 BYTE   N05  Dn4
 BYTE   W06
 BYTE   Fn2  v080
 BYTE   N05  Cn4  v096
 BYTE   N05  Fn4
 BYTE   W06
 BYTE   N10  En2  v076
 BYTE   N10  Bn3  v092
 BYTE   N10  En4
 BYTE   W36
 BYTE   En2  v088
 BYTE   N10  Bn3  v104
 BYTE   N10  En4
 BYTE   W36
 BYTE   En2  v088
 BYTE   N10  Bn3  v104
 BYTE   N10  En4
 BYTE   W12
 BYTE   PEND 
//  #05 //033   ----------------------------------------
 BYTE   W96
//  #05 //034   ----------------------------------------
 BYTE   W96
//  #05 //035   ----------------------------------------
 BYTE   W96
//  #05 //036   ----------------------------------------
 BYTE   W96
//  #05 //037   ----------------------------------------
Label_01057E67:
 BYTE   W12
 BYTE   N36  Bn2  v116
 BYTE   W36
 BYTE   An2  v096
 BYTE   W36
 BYTE   En3
 BYTE   W12
 BYTE   PEND 
//  #05 //038   ----------------------------------------
Label_01057E72:
 BYTE   W24
 BYTE   N36  Dn3  v108
 BYTE   W36
 BYTE   N24  Gn3  v100
 BYTE   W24
 BYTE   An3
 BYTE   W12
 BYTE   PEND 
//  #05 //039   ----------------------------------------
Label_01057E7E:
 BYTE   W12
 BYTE   N84  Bn2  v108
 BYTE   N84  En3  v116
 BYTE   N84  Fs3  v100
 BYTE   W84
 BYTE   PEND 
//  #05 //040   ----------------------------------------
Label_01057E8A:
 BYTE   N04  Bn2  v112
 BYTE   N04  En3  v120
 BYTE   N04  Fs3  v104
 BYTE   W06
 BYTE   Bn2  v112
 BYTE   N04  En3  v116
 BYTE   N04  Fs3  v108
 BYTE   W06
 BYTE   N84  Bn2  v084
 BYTE   N96  Ds3
 BYTE   N96  Fs3  v080
 BYTE   W84
 BYTE   PEND 
//  #05 //041   ----------------------------------------
 BYTE   PATT
  POIN2 Label_01057D8A
//  #05 //042   ----------------------------------------
 BYTE   W96
//  #05 //043   ----------------------------------------
 BYTE   PATT
  POIN2 Label_01057D8A
//  #05 //044   ----------------------------------------
 BYTE   W96
//  #05 //045   ----------------------------------------
 BYTE   W96
//  #05 //046   ----------------------------------------
 BYTE   W96
//  #05 //047   ----------------------------------------
 BYTE   W96
//  #05 //048   ----------------------------------------
 BYTE   W96
//  #05 //049   ----------------------------------------
 BYTE   W96
//  #05 //050   ----------------------------------------
 BYTE   W96
//  #05 //051   ----------------------------------------
 BYTE   W96
//  #05 //052   ----------------------------------------
 BYTE   W96
//  #05 //053   ----------------------------------------
 BYTE   W96
//  #05 //054   ----------------------------------------
 BYTE   W96
//  #05 //055   ----------------------------------------
 BYTE   W96
//  #05 //056   ----------------------------------------
 BYTE   W96
//  #05 //057   ----------------------------------------
 BYTE   W96
//  #05 //058   ----------------------------------------
 BYTE   W96
//  #05 //059   ----------------------------------------
 BYTE   W96
//  #05 //060   ----------------------------------------
 BYTE   W96
//  #05 //061   ----------------------------------------
 BYTE   PATT
  POIN2 Label_01057DB9
//  #05 //062   ----------------------------------------
 BYTE   PATT
  POIN2 Label_01057DCE
//  #05 //063   ----------------------------------------
 BYTE   PATT
  POIN2 Label_01057DE0
//  #05 //064   ----------------------------------------
 BYTE   PATT
  POIN2 Label_01057DE8
//  #05 //065   ----------------------------------------
 BYTE   GoTo
  POIN2 Label_01057E06
//  #05 //066   ----------------------------------------
 BYTE   PATT
  POIN2 Label_01057E06
//  #05 //067   ----------------------------------------
 BYTE   EOT
 BYTE   Gs3
 BYTE   W84
 BYTE   W96
//  #05 //068   ----------------------------------------
 BYTE   PATT
  POIN2 Label_01057E0F
//  #05 //069   ----------------------------------------
 BYTE   W96
//  #05 //070   ----------------------------------------
 BYTE   W96
//  #05 //071   ----------------------------------------
 BYTE   W96
//  #05 //072   ----------------------------------------
 BYTE   W96
//  #05 //073   ----------------------------------------
 BYTE   PATT
  POIN2 Label_01057E17
//  #05 //074   ----------------------------------------
 BYTE   PATT
  POIN2 Label_01057E38
//  #05 //075   ----------------------------------------
 BYTE   W96
//  #05 //076   ----------------------------------------
 BYTE   W96
//  #05 //077   ----------------------------------------
 BYTE   W96
//  #05 //078   ----------------------------------------
 BYTE   W96
//  #05 //079   ----------------------------------------
 BYTE   PATT
  POIN2 Label_01057E67
//  #05 //080   ----------------------------------------
 BYTE   PATT
  POIN2 Label_01057E72
//  #05 //081   ----------------------------------------
 BYTE   PATT
  POIN2 Label_01057E7E
//  #05 //082   ----------------------------------------
 BYTE   PATT
  POIN2 Label_01057E8A
//  #05 //083   ----------------------------------------
 BYTE   PATT
  POIN2 Label_01057D8A
//  #05 //084   ----------------------------------------
 BYTE   W96
//  #05 //085   ----------------------------------------
 BYTE   PATT
  POIN2 Label_01057D8A
//  #05 //086   ----------------------------------------
 BYTE   W96
//  #05 //087   ----------------------------------------
 BYTE   W96
//  #05 //088   ----------------------------------------
 BYTE   W96
//  #05 //089   ----------------------------------------
 BYTE   W96
//  #05 //090   ----------------------------------------
 BYTE   W96
//  #05 //091   ----------------------------------------
 BYTE   W96
//  #05 //092   ----------------------------------------
 BYTE   W96
//  #05 //093   ----------------------------------------
 BYTE   W96
//  #05 //094   ----------------------------------------
 BYTE   W12
 BYTE   VOL   41*song1D_mvl/mxv
 BYTE   W09
 BYTE   VOL   40*song1D_mvl/mxv
 BYTE   W06
 BYTE   VOL   40*song1D_mvl/mxv
 BYTE   W06
 BYTE   VOL   40*song1D_mvl/mxv
 BYTE   W06
 BYTE   VOL   39*song1D_mvl/mxv
 BYTE   W06
 BYTE   VOL   39*song1D_mvl/mxv
 BYTE   W06
 BYTE   VOL   38*song1D_mvl/mxv
 BYTE   W06
 BYTE   VOL   38*song1D_mvl/mxv
 BYTE   W09
 BYTE   VOL   38*song1D_mvl/mxv
 BYTE   W06
 BYTE   VOL   37*song1D_mvl/mxv
 BYTE   W06
 BYTE   VOL   37*song1D_mvl/mxv
 BYTE   W06
 BYTE   VOL   37*song1D_mvl/mxv
 BYTE   W06
 BYTE   VOL   36*song1D_mvl/mxv
 BYTE   W06
//  #05 //095   ----------------------------------------
 BYTE   VOL   36*song1D_mvl/mxv
 BYTE   W06
 BYTE   VOL   35*song1D_mvl/mxv
 BYTE   W06
 BYTE   VOL   35*song1D_mvl/mxv
 BYTE   W09
 BYTE   VOL   35*song1D_mvl/mxv
 BYTE   W06
 BYTE   VOL   34*song1D_mvl/mxv
 BYTE   W06
 BYTE   VOL   34*song1D_mvl/mxv
 BYTE   W06
 BYTE   VOL   33*song1D_mvl/mxv
 BYTE   W06
 BYTE   VOL   33*song1D_mvl/mxv
 BYTE   W06
 BYTE   VOL   33*song1D_mvl/mxv
 BYTE   W06
 BYTE   VOL   32*song1D_mvl/mxv
 BYTE   W09
 BYTE   VOL   32*song1D_mvl/mxv
 BYTE   W06
 BYTE   VOL   31*song1D_mvl/mxv
 BYTE   W06
 BYTE   VOL   31*song1D_mvl/mxv
 BYTE   W06
 BYTE   VOL   31*song1D_mvl/mxv
 BYTE   W06
 BYTE   VOL   30*song1D_mvl/mxv
 BYTE   W06
//  #05 //096   ----------------------------------------
 BYTE   VOL   30*song1D_mvl/mxv
 BYTE   W06
 BYTE   VOL   29*song1D_mvl/mxv
 BYTE   W06
 BYTE   VOL   29*song1D_mvl/mxv
 BYTE   W09
 BYTE   VOL   29*song1D_mvl/mxv
 BYTE   W06
 BYTE   VOL   28*song1D_mvl/mxv
 BYTE   W06
 BYTE   VOL   28*song1D_mvl/mxv
 BYTE   W06
 BYTE   VOL   27*song1D_mvl/mxv
 BYTE   W06
 BYTE   VOL   27*song1D_mvl/mxv
 BYTE   W06
 BYTE   VOL   27*song1D_mvl/mxv
 BYTE   W06
 BYTE   VOL   26*song1D_mvl/mxv
 BYTE   W09
 BYTE   VOL   26*song1D_mvl/mxv
 BYTE   W06
 BYTE   VOL   25*song1D_mvl/mxv
 BYTE   W06
 BYTE   VOL   25*song1D_mvl/mxv
 BYTE   W06
 BYTE   VOL   25*song1D_mvl/mxv
 BYTE   W06
 BYTE   VOL   24*song1D_mvl/mxv
 BYTE   W06
//  #05 //097   ----------------------------------------
 BYTE   VOL   24*song1D_mvl/mxv
 BYTE   W06
 BYTE   VOL   24*song1D_mvl/mxv
 BYTE   W06
 BYTE   VOL   23*song1D_mvl/mxv
 BYTE   W09
 BYTE   VOL   23*song1D_mvl/mxv
 BYTE   W06
 BYTE   VOL   22*song1D_mvl/mxv
 BYTE   W06
 BYTE   VOL   22*song1D_mvl/mxv
 BYTE   W06
 BYTE   VOL   22*song1D_mvl/mxv
 BYTE   W06
 BYTE   VOL   21*song1D_mvl/mxv
 BYTE   W06
 BYTE   VOL   21*song1D_mvl/mxv
 BYTE   W06
 BYTE   VOL   20*song1D_mvl/mxv
 BYTE   W09
 BYTE   VOL   20*song1D_mvl/mxv
 BYTE   W06
 BYTE   VOL   20*song1D_mvl/mxv
 BYTE   W06
 BYTE   VOL   19*song1D_mvl/mxv
 BYTE   W06
 BYTE   VOL   19*song1D_mvl/mxv
 BYTE   W06
 BYTE   VOL   18*song1D_mvl/mxv
 BYTE   W06
//  #05 //098   ----------------------------------------
 BYTE   VOL   18*song1D_mvl/mxv
 BYTE   W06
 BYTE   VOL   18*song1D_mvl/mxv
 BYTE   W06
 BYTE   VOL   17*song1D_mvl/mxv
 BYTE   W09
 BYTE   VOL   17*song1D_mvl/mxv
 BYTE   W06
 BYTE   VOL   16*song1D_mvl/mxv
 BYTE   W06
 BYTE   VOL   16*song1D_mvl/mxv
 BYTE   W06
 BYTE   VOL   16*song1D_mvl/mxv
 BYTE   W06
 BYTE   VOL   15*song1D_mvl/mxv
 BYTE   W06
 BYTE   VOL   15*song1D_mvl/mxv
 BYTE   W06
 BYTE   VOL   14*song1D_mvl/mxv
 BYTE   W09
 BYTE   VOL   14*song1D_mvl/mxv
 BYTE   W06
 BYTE   VOL   14*song1D_mvl/mxv
 BYTE   W06
 BYTE   VOL   13*song1D_mvl/mxv
 BYTE   W06
 BYTE   VOL   13*song1D_mvl/mxv
 BYTE   W06
 BYTE   VOL   12*song1D_mvl/mxv
 BYTE   W06
//  #05 //099   ----------------------------------------
 BYTE   VOL   12*song1D_mvl/mxv
 BYTE   W06
 BYTE   VOL   12*song1D_mvl/mxv
 BYTE   W06
 BYTE   VOL   11*song1D_mvl/mxv
 BYTE   W09
 BYTE   VOL   11*song1D_mvl/mxv
 BYTE   W06
 BYTE   VOL   11*song1D_mvl/mxv
 BYTE   W06
 BYTE   VOL   10*song1D_mvl/mxv
 BYTE   W06
 BYTE   VOL   10*song1D_mvl/mxv
 BYTE   W06
 BYTE   VOL   9*song1D_mvl/mxv
 BYTE   W06
 BYTE   VOL   9*song1D_mvl/mxv
 BYTE   W06
 BYTE   VOL   9*song1D_mvl/mxv
 BYTE   W09
 BYTE   VOL   8*song1D_mvl/mxv
 BYTE   W06
 BYTE   VOL   8*song1D_mvl/mxv
 BYTE   W06
 BYTE   VOL   7*song1D_mvl/mxv
 BYTE   W06
 BYTE   VOL   7*song1D_mvl/mxv
 BYTE   W06
 BYTE   VOL   7*song1D_mvl/mxv
 BYTE   W06
//  #05 //100   ----------------------------------------
 BYTE   VOL   6*song1D_mvl/mxv
 BYTE   W06
 BYTE   VOL   6*song1D_mvl/mxv
 BYTE   W06
 BYTE   VOL   5*song1D_mvl/mxv
 BYTE   W09
 BYTE   VOL   5*song1D_mvl/mxv
 BYTE   W06
 BYTE   VOL   5*song1D_mvl/mxv
 BYTE   W06
 BYTE   VOL   4*song1D_mvl/mxv
 BYTE   W06
 BYTE   VOL   4*song1D_mvl/mxv
 BYTE   W06
 BYTE   VOL   3*song1D_mvl/mxv
 BYTE   W06
 BYTE   VOL   3*song1D_mvl/mxv
 BYTE   W06
 BYTE   VOL   3*song1D_mvl/mxv
 BYTE   W09
 BYTE   VOL   2*song1D_mvl/mxv
 BYTE   W06
 BYTE   VOL   2*song1D_mvl/mxv
 BYTE   W06
 BYTE   VOL   1*song1D_mvl/mxv
 BYTE   W06
 BYTE   VOL   1*song1D_mvl/mxv
 BYTE   W06
 BYTE   VOL   1*song1D_mvl/mxv
 BYTE   W06
//  #05 //101   ----------------------------------------
 BYTE   VOL   0*song1D_mvl/mxv
 BYTE   W06
 BYTE   VOL   0*song1D_mvl/mxv
 BYTE   W03
 BYTE   VOL   0*song1D_mvl/mxv
 BYTE   W03
 BYTE   FINE

//**************** Track 6 (Midi-Chn.5) ****************//

song1D_006:
//  #06 //000   ----------------------------------------
 BYTE   KEYSH   song1D_key+0
 BYTE   VOICE   60
 BYTE   PAN   c_v+0
 BYTE   VOL   42*song1D_mvl/mxv
 BYTE   MOD 0
 BYTE   BEND   c_v+0
 BYTE   W96
//  #06 //001   ----------------------------------------
 BYTE   W96
//  #06 //002   ----------------------------------------
 BYTE   W96
//  #06 //003   ----------------------------------------
 BYTE   W96
//  #06 //004   ----------------------------------------
 BYTE   W96
//  #06 //005   ----------------------------------------
Label_01058075:
 BYTE   W24
 BYTE   N04  Bn2  v040
 BYTE   W06
 BYTE   Bn2  v092
 BYTE   W06
 BYTE   N08  Fs3  v076
 BYTE   W12
 BYTE   Bn2  v068
 BYTE   W12
 BYTE   En3  v072
 BYTE   W12
 BYTE   An2
 BYTE   W12
 BYTE   Dn3
 BYTE   W12
 BYTE   PEND 
//  #06 //006   ----------------------------------------
Label_0105808C:
 BYTE   N08  Gn2  v072
 BYTE   W12
 BYTE   N12  Fs2  v068
 BYTE   W84
 BYTE   PEND 
//  #06 //007   ----------------------------------------
 BYTE   W96
//  #06 //008   ----------------------------------------
Label_01058096:
 BYTE   W24
 BYTE   N04  Bn2  v040
 BYTE   W06
 BYTE   Bn2  v092
 BYTE   W06
 BYTE   N08  Fs3  v064
 BYTE   W12
 BYTE   Bn2  v068
 BYTE   W12
 BYTE   En3  v076
 BYTE   W12
 BYTE   An2  v068
 BYTE   W12
 BYTE   Bn2  v076
 BYTE   W12
 BYTE   PEND 
//  #06 //009   ----------------------------------------
Label_010580AF:
 BYTE   N08  En3  v068
 BYTE   W12
 BYTE   BEND   c_v-16
 BYTE   N48  Fs3  v076
 BYTE   W01
 BYTE   BEND   c_v-14
 BYTE   W01
 BYTE   BEND   c_v-11
 BYTE   W01
 BYTE   BEND   c_v-8
 BYTE   W01
 BYTE   BEND   c_v-6
 BYTE   W01
 BYTE   BEND   c_v-3
 BYTE   W01
 BYTE   BEND   c_v+0
 BYTE   W42
 BYTE   BEND   c_v-16
 BYTE   N48  En3  v064
 BYTE   W01
 BYTE   BEND   c_v-14
 BYTE   W01
 BYTE   BEND   c_v-11
 BYTE   W01
 BYTE   BEND   c_v-8
 BYTE   W01
 BYTE   BEND   c_v-6
 BYTE   W01
 BYTE   BEND   c_v-3
 BYTE   W01
 BYTE   BEND   c_v+0
 BYTE   W30
 BYTE   PEND 
//  #06 //010   ----------------------------------------
Label_010580E4:
 BYTE   W12
 BYTE   BEND   c_v-16
 BYTE   N48  Gn3  v072
 BYTE   W01
 BYTE   BEND   c_v-14
 BYTE   W01
 BYTE   BEND   c_v-11
 BYTE   W01
 BYTE   BEND   c_v-8
 BYTE   W01
 BYTE   BEND   c_v-6
 BYTE   W01
 BYTE   BEND   c_v-3
 BYTE   W01
 BYTE   BEND   c_v+0
 BYTE   W42
 BYTE   BEND   c_v-16
 BYTE   N42  An3  v064
 BYTE   W01
 BYTE   BEND   c_v-14
 BYTE   W01
 BYTE   BEND   c_v-11
 BYTE   W01
 BYTE   BEND   c_v-8
 BYTE   W01
 BYTE   BEND   c_v-6
 BYTE   W01
 BYTE   BEND   c_v-3
 BYTE   W01
 BYTE   BEND   c_v+0
 BYTE   W30
 BYTE   PEND 
//  #06 //011   ----------------------------------------
Label_01058116:
 BYTE   W06
 BYTE   N03  Gs3  v064
 BYTE   W03
 BYTE   Gn3
 BYTE   W03
 BYTE   N96  Fs3
 BYTE   W84
 BYTE   PEND 
//  #06 //012   ----------------------------------------
 BYTE   W96
//  #06 //013   ----------------------------------------
 BYTE   W96
//  #06 //014   ----------------------------------------
 BYTE   PATT
  POIN2 Label_01058075
//  #06 //015   ----------------------------------------
 BYTE   PATT
  POIN2 Label_0105808C
//  #06 //016   ----------------------------------------
Label_0105812D:
 BYTE   W12
 BYTE   BEND   c_v-16
 BYTE   N48  Fs3  v076
 BYTE   W01
 BYTE   BEND   c_v-14
 BYTE   W01
 BYTE   BEND   c_v-11
 BYTE   W01
 BYTE   BEND   c_v-8
 BYTE   W01
 BYTE   BEND   c_v-6
 BYTE   W01
 BYTE   BEND   c_v-3
 BYTE   W01
 BYTE   BEND   c_v+0
 BYTE   W42
 BYTE   BEND   c_v-16
 BYTE   N48  En3  v064
 BYTE   W01
 BYTE   BEND   c_v-14
 BYTE   W01
 BYTE   BEND   c_v-11
 BYTE   W01
 BYTE   BEND   c_v-8
 BYTE   W01
 BYTE   BEND   c_v-6
 BYTE   W01
 BYTE   BEND   c_v-3
 BYTE   W01
 BYTE   BEND   c_v+0
 BYTE   W30
 BYTE   PEND 
//  #06 //017   ----------------------------------------
 BYTE   PATT
  POIN2 Label_010580E4
//  #06 //018   ----------------------------------------
 BYTE   PATT
  POIN2 Label_01058116
//  #06 //019   ----------------------------------------
 BYTE   W96
//  #06 //020   ----------------------------------------
 BYTE   W96
//  #06 //021   ----------------------------------------
 BYTE   W96
//  #06 //022   ----------------------------------------
 BYTE   W96
//  #06 //023   ----------------------------------------
 BYTE   W96
//  #06 //024   ----------------------------------------
Label_0105816E:
 BYTE   W96
//  #06 //025   ----------------------------------------
 BYTE   W96
//  #06 //026   ----------------------------------------
 BYTE   W96
//  #06 //027   ----------------------------------------
 BYTE   W96
//  #06 //028   ----------------------------------------
Label_01058172:
 BYTE   W12
 BYTE   N12  Bn2  v108
 BYTE   N12  En3
 BYTE   W24
 BYTE   N10  Bn2  v092
 BYTE   N10  En3
 BYTE   W12
 BYTE   Cn3  v096
 BYTE   N10  Fn3
 BYTE   W12
 BYTE   Bn2  v100
 BYTE   N10  En3
 BYTE   W12
 BYTE   En3  v096
 BYTE   N10  An3
 BYTE   W12
 BYTE   Bn2  v088
 BYTE   N10  En3
 BYTE   W12
 BYTE   PEND 
//  #06 //029   ----------------------------------------
Label_01058194:
 BYTE   N10  An2  v092
 BYTE   N10  Dn3
 BYTE   W12
 BYTE   N96  Bn2  v084
 BYTE   N96  En3
 BYTE   W84
 BYTE   PEND 
//  #06 //030   ----------------------------------------
Label_010581A1:
 BYTE   W12
 BYTE   N12  Bn2  v088
 BYTE   N12  En3
 BYTE   W24
 BYTE   N10  Bn2  v072
 BYTE   N10  En3
 BYTE   W12
 BYTE   Cn3  v076
 BYTE   N10  Fn3
 BYTE   W12
 BYTE   Bn2  v080
 BYTE   N10  En3
 BYTE   W12
 BYTE   En3  v076
 BYTE   N10  An3
 BYTE   W12
 BYTE   Bn2  v068
 BYTE   N10  En3
 BYTE   W12
 BYTE   PEND 
//  #06 //031   ----------------------------------------
Label_010581C3:
 BYTE   N10  An2  v072
 BYTE   N10  Dn3
 BYTE   W12
 BYTE   N08  Bn2  v104
 BYTE   N08  En3
 BYTE   W36
 BYTE   N10  Cn3  v096
 BYTE   N10  Fn3
 BYTE   W24
 BYTE   N20  Cn3  v100
 BYTE   N20  Fn3
 BYTE   W24
 BYTE   PEND 
//  #06 //032   ----------------------------------------
Label_010581DC:
 BYTE   N05  An2  v096
 BYTE   N05  Dn3
 BYTE   W06
 BYTE   Cn3  v100
 BYTE   N05  Fn3
 BYTE   W06
 BYTE   N10  Bn2  v096
 BYTE   N10  En3
 BYTE   W36
 BYTE   Bn2  v108
 BYTE   N10  En3
 BYTE   W36
 BYTE   Bn2
 BYTE   N10  En3
 BYTE   W12
 BYTE   PEND 
//  #06 //033   ----------------------------------------
Label_010581F7:
 BYTE   W12
 BYTE   VOICE   75
 BYTE   N12  En3  v096
 BYTE   W12
 BYTE   An3
 BYTE   W12
 BYTE   Bn3  v100
 BYTE   W12
 BYTE   Dn4  v108
 BYTE   W12
 BYTE   N18  En4  v088
 BYTE   W18
 BYTE   Dn4  v104
 BYTE   W18
 BYTE   PEND 
//  #06 //034   ----------------------------------------
Label_0105820E:
 BYTE   N12  Gn3  v088
 BYTE   W12
 BYTE   N48  Fs3  v080
 BYTE   W48
 BYTE   Cn4  v068
 BYTE   W36
 BYTE   PEND 
//  #06 //035   ----------------------------------------
Label_0105821A:
 BYTE   W12
 BYTE   N48  Bn3  v080
 BYTE   W48
 BYTE   N36  Fs3  v060
 BYTE   W36
 BYTE   PEND 
//  #06 //036   ----------------------------------------
Label_01058224:
 BYTE   N06  Fs3  v060
 BYTE   W06
 BYTE   N03  Gn3  v068
 BYTE   W03
 BYTE   Gs3
 BYTE   W03
 BYTE   N48  An3  v080
 BYTE   W48
 BYTE   N24  Dn3  v084
 BYTE   W24
 BYTE   Cn3  v080
 BYTE   W12
 BYTE   PEND 
//  #06 //037   ----------------------------------------
Label_0105823A:
 BYTE   W12
 BYTE   N36  Bn2  v116
 BYTE   W36
 BYTE   An2  v096
 BYTE   W36
 BYTE   En3
 BYTE   W12
 BYTE   PEND 
//  #06 //038   ----------------------------------------
Label_01058245:
 BYTE   W24
 BYTE   N36  Dn3  v108
 BYTE   W36
 BYTE   N24  Gn3  v100
 BYTE   W24
 BYTE   An3
 BYTE   W12
 BYTE   PEND 
//  #06 //039   ----------------------------------------
Label_01058251:
 BYTE   W12
 BYTE   TIE  Fs3  v096
 BYTE   W84
 BYTE   PEND 
//  #06 //040   ----------------------------------------
 BYTE   W96
//  #06 //041   ----------------------------------------
 BYTE   W12
 BYTE   EOT
 BYTE   VOICE   60
 BYTE   W84
//  #06 //042   ----------------------------------------
 BYTE   W96
//  #06 //043   ----------------------------------------
 BYTE   W96
//  #06 //044   ----------------------------------------
 BYTE   W96
//  #06 //045   ----------------------------------------
 BYTE   W96
//  #06 //046   ----------------------------------------
 BYTE   PATT
  POIN2 Label_01058075
//  #06 //047   ----------------------------------------
 BYTE   PATT
  POIN2 Label_0105808C
//  #06 //048   ----------------------------------------
 BYTE   W96
//  #06 //049   ----------------------------------------
 BYTE   PATT
  POIN2 Label_01058096
//  #06 //050   ----------------------------------------
 BYTE   PATT
  POIN2 Label_010580AF
//  #06 //051   ----------------------------------------
 BYTE   PATT
  POIN2 Label_010580E4
//  #06 //052   ----------------------------------------
 BYTE   PATT
  POIN2 Label_01058116
//  #06 //053   ----------------------------------------
 BYTE   W96
//  #06 //054   ----------------------------------------
 BYTE   W96
//  #06 //055   ----------------------------------------
 BYTE   PATT
  POIN2 Label_01058075
//  #06 //056   ----------------------------------------
 BYTE   PATT
  POIN2 Label_0105808C
//  #06 //057   ----------------------------------------
 BYTE   PATT
  POIN2 Label_0105812D
//  #06 //058   ----------------------------------------
 BYTE   PATT
  POIN2 Label_010580E4
//  #06 //059   ----------------------------------------
 BYTE   PATT
  POIN2 Label_01058116
//  #06 //060   ----------------------------------------
 BYTE   W96
//  #06 //061   ----------------------------------------
 BYTE   W96
//  #06 //062   ----------------------------------------
 BYTE   W96
//  #06 //063   ----------------------------------------
 BYTE   W96
//  #06 //064   ----------------------------------------
 BYTE   W96
//  #06 //065   ----------------------------------------
 BYTE   GoTo
  POIN2 Label_0105816E
//  #06 //066   ----------------------------------------
 BYTE   W96
//  #06 //067   ----------------------------------------
 BYTE   W96
//  #06 //068   ----------------------------------------
 BYTE   W96
//  #06 //069   ----------------------------------------
 BYTE   W96
//  #06 //070   ----------------------------------------
 BYTE   PATT
  POIN2 Label_01058172
//  #06 //071   ----------------------------------------
 BYTE   PATT
  POIN2 Label_01058194
//  #06 //072   ----------------------------------------
 BYTE   PATT
  POIN2 Label_010581A1
//  #06 //073   ----------------------------------------
 BYTE   PATT
  POIN2 Label_010581C3
//  #06 //074   ----------------------------------------
 BYTE   PATT
  POIN2 Label_010581DC
//  #06 //075   ----------------------------------------
 BYTE   PATT
  POIN2 Label_010581F7
//  #06 //076   ----------------------------------------
 BYTE   PATT
  POIN2 Label_0105820E
//  #06 //077   ----------------------------------------
 BYTE   PATT
  POIN2 Label_0105821A
//  #06 //078   ----------------------------------------
 BYTE   PATT
  POIN2 Label_01058224
//  #06 //079   ----------------------------------------
 BYTE   PATT
  POIN2 Label_0105823A
//  #06 //080   ----------------------------------------
 BYTE   PATT
  POIN2 Label_01058245
//  #06 //081   ----------------------------------------
 BYTE   PATT
  POIN2 Label_01058251
//  #06 //082   ----------------------------------------
 BYTE   W96
//  #06 //083   ----------------------------------------
 BYTE   W12
 BYTE   EOT
 BYTE   Fs3
 BYTE   VOICE   60
 BYTE   W84
//  #06 //084   ----------------------------------------
 BYTE   W96
//  #06 //085   ----------------------------------------
 BYTE   W96
//  #06 //086   ----------------------------------------
 BYTE   W96
//  #06 //087   ----------------------------------------
 BYTE   W96
//  #06 //088   ----------------------------------------
 BYTE   PATT
  POIN2 Label_01058075
//  #06 //089   ----------------------------------------
 BYTE   PATT
  POIN2 Label_0105808C
//  #06 //090   ----------------------------------------
 BYTE   W96
//  #06 //091   ----------------------------------------
 BYTE   PATT
  POIN2 Label_01058096
//  #06 //092   ----------------------------------------
 BYTE   PATT
  POIN2 Label_010580AF
//  #06 //093   ----------------------------------------
 BYTE   PATT
  POIN2 Label_010580E4
//  #06 //094   ----------------------------------------
 BYTE   W06
 BYTE   N03  Gs3  v064
 BYTE   W03
 BYTE   Gn3
 BYTE   W03
 BYTE   VOL   39*song1D_mvl/mxv
 BYTE   N96  Fs3
 BYTE   W09
 BYTE   VOL   39*song1D_mvl/mxv
 BYTE   W06
 BYTE   VOL   38*song1D_mvl/mxv
 BYTE   W06
 BYTE   VOL   38*song1D_mvl/mxv
 BYTE   W06
 BYTE   VOL   38*song1D_mvl/mxv
 BYTE   W09
 BYTE   VOL   37*song1D_mvl/mxv
 BYTE   W06
 BYTE   VOL   37*song1D_mvl/mxv
 BYTE   W06
 BYTE   VOL   37*song1D_mvl/mxv
 BYTE   W06
 BYTE   VOL   36*song1D_mvl/mxv
 BYTE   W06
 BYTE   VOL   36*song1D_mvl/mxv
 BYTE   W09
 BYTE   VOL   35*song1D_mvl/mxv
 BYTE   W06
 BYTE   VOL   35*song1D_mvl/mxv
 BYTE   W06
 BYTE   VOL   35*song1D_mvl/mxv
 BYTE   W03
//  #06 //095   ----------------------------------------
 BYTE   W03
 BYTE   VOL   34*song1D_mvl/mxv
 BYTE   W09
 BYTE   VOL   34*song1D_mvl/mxv
 BYTE   W06
 BYTE   VOL   33*song1D_mvl/mxv
 BYTE   W06
 BYTE   VOL   33*song1D_mvl/mxv
 BYTE   W06
 BYTE   VOL   33*song1D_mvl/mxv
 BYTE   W06
 BYTE   VOL   32*song1D_mvl/mxv
 BYTE   W09
 BYTE   VOL   32*song1D_mvl/mxv
 BYTE   W06
 BYTE   VOL   31*song1D_mvl/mxv
 BYTE   W06
 BYTE   VOL   31*song1D_mvl/mxv
 BYTE   W06
 BYTE   VOL   31*song1D_mvl/mxv
 BYTE   W09
 BYTE   VOL   30*song1D_mvl/mxv
 BYTE   W06
 BYTE   VOL   30*song1D_mvl/mxv
 BYTE   W06
 BYTE   VOL   29*song1D_mvl/mxv
 BYTE   W06
 BYTE   VOL   29*song1D_mvl/mxv
 BYTE   W06
//  #06 //096   ----------------------------------------
 BYTE   VOL   29*song1D_mvl/mxv
 BYTE   W09
 BYTE   VOL   28*song1D_mvl/mxv
 BYTE   W06
 BYTE   VOL   28*song1D_mvl/mxv
 BYTE   W06
 BYTE   VOL   27*song1D_mvl/mxv
 BYTE   W06
 BYTE   VOL   27*song1D_mvl/mxv
 BYTE   W06
 BYTE   VOL   27*song1D_mvl/mxv
 BYTE   W09
 BYTE   VOL   26*song1D_mvl/mxv
 BYTE   W06
 BYTE   VOL   26*song1D_mvl/mxv
 BYTE   W06
 BYTE   VOL   25*song1D_mvl/mxv
 BYTE   W06
 BYTE   VOL   25*song1D_mvl/mxv
 BYTE   W09
 BYTE   VOL   25*song1D_mvl/mxv
 BYTE   W06
 BYTE   VOL   24*song1D_mvl/mxv
 BYTE   W06
 BYTE   VOL   24*song1D_mvl/mxv
 BYTE   W06
 BYTE   VOL   24*song1D_mvl/mxv
 BYTE   W06
 BYTE   VOL   23*song1D_mvl/mxv
 BYTE   W03
//  #06 //097   ----------------------------------------
 BYTE   W06
 BYTE   VOL   23*song1D_mvl/mxv
 BYTE   W06
 BYTE   VOL   22*song1D_mvl/mxv
 BYTE   W06
 BYTE   VOL   22*song1D_mvl/mxv
 BYTE   W06
 BYTE   VOL   22*song1D_mvl/mxv
 BYTE   N04  Bn2  v040
 BYTE   W06
 BYTE   Bn2  v092
 BYTE   W03
 BYTE   VOL   21*song1D_mvl/mxv
 BYTE   W03
 BYTE   N08  Fs3  v076
 BYTE   W03
 BYTE   VOL   21*song1D_mvl/mxv
 BYTE   W06
 BYTE   VOL   20*song1D_mvl/mxv
 BYTE   W03
 BYTE   N08  Bn2  v068
 BYTE   W03
 BYTE   VOL   20*song1D_mvl/mxv
 BYTE   W06
 BYTE   VOL   20*song1D_mvl/mxv
 BYTE   W03
 BYTE   N08  En3  v072
 BYTE   W06
 BYTE   VOL   19*song1D_mvl/mxv
 BYTE   W06
 BYTE   VOL   19*song1D_mvl/mxv
 BYTE   N08  An2
 BYTE   W06
 BYTE   VOL   18*song1D_mvl/mxv
 BYTE   W06
 BYTE   VOL   18*song1D_mvl/mxv
 BYTE   N08  Dn3
 BYTE   W06
 BYTE   VOL   18*song1D_mvl/mxv
 BYTE   W06
//  #06 //098   ----------------------------------------
 BYTE   N08  Gn2
 BYTE   W03
 BYTE   VOL   17*song1D_mvl/mxv
 BYTE   W06
 BYTE   VOL   17*song1D_mvl/mxv
 BYTE   W03
 BYTE   N12  Fs2  v068
 BYTE   W03
 BYTE   VOL   16*song1D_mvl/mxv
 BYTE   W06
 BYTE   VOL   16*song1D_mvl/mxv
 BYTE   W09
 BYTE   VOL   16*song1D_mvl/mxv
 BYTE   W06
 BYTE   VOL   15*song1D_mvl/mxv
 BYTE   W06
 BYTE   VOL   15*song1D_mvl/mxv
 BYTE   W06
 BYTE   VOL   14*song1D_mvl/mxv
 BYTE   W06
 BYTE   VOL   14*song1D_mvl/mxv
 BYTE   W09
 BYTE   VOL   14*song1D_mvl/mxv
 BYTE   W06
 BYTE   VOL   13*song1D_mvl/mxv
 BYTE   W06
 BYTE   VOL   13*song1D_mvl/mxv
 BYTE   W06
 BYTE   VOL   12*song1D_mvl/mxv
 BYTE   W09
 BYTE   VOL   12*song1D_mvl/mxv
 BYTE   W06
//  #06 //099   ----------------------------------------
 BYTE   VOL   12*song1D_mvl/mxv
 BYTE   W06
 BYTE   VOL   11*song1D_mvl/mxv
 BYTE   W06
 BYTE   BEND   c_v-16
 BYTE   N48  Fs3  v076
 BYTE   W01
 BYTE   BEND   c_v-14
 BYTE   W01
 BYTE   BEND   c_v-11
 BYTE   W01
 BYTE   BEND   c_v-8
 BYTE   W01
 BYTE   BEND   c_v-6
 BYTE   W01
 BYTE   BEND   c_v-3
 BYTE   W01
 BYTE   VOL   11*song1D_mvl/mxv
 BYTE   BEND   c_v+0
 BYTE   W09
 BYTE   VOL   10*song1D_mvl/mxv
 BYTE   W06
 BYTE   VOL   10*song1D_mvl/mxv
 BYTE   W06
 BYTE   VOL   9*song1D_mvl/mxv
 BYTE   W06
 BYTE   VOL   9*song1D_mvl/mxv
 BYTE   W06
 BYTE   VOL   9*song1D_mvl/mxv
 BYTE   W09
 BYTE   BEND   c_v-16
 BYTE   N48  En3  v064
 BYTE   W01
 BYTE   BEND   c_v-14
 BYTE   W01
 BYTE   BEND   c_v-11
 BYTE   W01
 BYTE   BEND   c_v-8
 BYTE   W01
 BYTE   BEND   c_v-6
 BYTE   W01
 BYTE   BEND   c_v-3
 BYTE   W01
 BYTE   VOL   8*song1D_mvl/mxv
 BYTE   BEND   c_v+0
 BYTE   W06
 BYTE   VOL   7*song1D_mvl/mxv
 BYTE   W06
 BYTE   VOL   7*song1D_mvl/mxv
 BYTE   W09
 BYTE   VOL   7*song1D_mvl/mxv
 BYTE   W06
 BYTE   VOL   6*song1D_mvl/mxv
 BYTE   W03
//  #06 //100   ----------------------------------------
 BYTE   W03
 BYTE   VOL   6*song1D_mvl/mxv
 BYTE   W06
 BYTE   VOL   5*song1D_mvl/mxv
 BYTE   W03
 BYTE   BEND   c_v-16
 BYTE   N48  Gn3  v072
 BYTE   W01
 BYTE   BEND   c_v-14
 BYTE   W01
 BYTE   BEND   c_v-11
 BYTE   W01
 BYTE   VOL   5*song1D_mvl/mxv
 BYTE   BEND   c_v-8
 BYTE   W01
 BYTE   BEND   c_v-6
 BYTE   W01
 BYTE   BEND   c_v-3
 BYTE   W01
 BYTE   BEND   c_v+0
 BYTE   W06
 BYTE   VOL   5*song1D_mvl/mxv
 BYTE   W06
 BYTE   VOL   4*song1D_mvl/mxv
 BYTE   W06
 BYTE   VOL   4*song1D_mvl/mxv
 BYTE   W06
 BYTE   VOL   3*song1D_mvl/mxv
 BYTE   W09
 BYTE   VOL   3*song1D_mvl/mxv
 BYTE   W06
 BYTE   VOL   3*song1D_mvl/mxv
 BYTE   W03
 BYTE   BEND   c_v-16
 BYTE   N42  An3  v064
 BYTE   W01
 BYTE   BEND   c_v-14
 BYTE   W01
 BYTE   BEND   c_v-11
 BYTE   W01
 BYTE   VOL   2*song1D_mvl/mxv
 BYTE   BEND   c_v-8
 BYTE   W01
 BYTE   BEND   c_v-6
 BYTE   W01
 BYTE   BEND   c_v-3
 BYTE   W01
 BYTE   BEND   c_v+0
 BYTE   W03
 BYTE   VOL   2*song1D_mvl/mxv
 BYTE   W06
 BYTE   VOL   1*song1D_mvl/mxv
 BYTE   W09
 BYTE   VOL   1*song1D_mvl/mxv
 BYTE   W06
 BYTE   VOL   1*song1D_mvl/mxv
 BYTE   W06
//  #06 //101   ----------------------------------------
 BYTE   VOL   0*song1D_mvl/mxv
 BYTE   W06
 BYTE   VOL   0*song1D_mvl/mxv
 BYTE   N03  Gs3
 BYTE   W03
 BYTE   VOL   0*song1D_mvl/mxv
 BYTE   N03  Gn3
 BYTE   W03
 BYTE   FINE

//**************** Track 7 (Midi-Chn.6) ****************//

song1D_007:
//  #07 //000   ----------------------------------------
 BYTE   KEYSH   song1D_key+0
 BYTE   VOICE   57
 BYTE   PAN   c_v+17
 BYTE   VOL   50*song1D_mvl/mxv
 BYTE   MOD 0
 BYTE   BEND   c_v+0
 BYTE   W96
//  #07 //001   ----------------------------------------
 BYTE   W96
//  #07 //002   ----------------------------------------
 BYTE   W96
//  #07 //003   ----------------------------------------
 BYTE   W96
//  #07 //004   ----------------------------------------
Label_010584D0:
 BYTE   W24
 BYTE   N04  En2  v072
 BYTE   N04  En3
 BYTE   W06
 BYTE   En2  v120
 BYTE   N04  En3
 BYTE   W06
 BYTE   N08  Bn2  v076
 BYTE   N08  Bn3
 BYTE   W12
 BYTE   En2  v068
 BYTE   N08  En3
 BYTE   W12
 BYTE   An2  v080
 BYTE   N08  An3
 BYTE   W12
 BYTE   Dn2  v068
 BYTE   N08  Dn3
 BYTE   W12
 BYTE   Gn2  v076
 BYTE   N08  Gn3
 BYTE   W12
 BYTE   PEND 
//  #07 //005   ----------------------------------------
Label_010584F7:
 BYTE   N08  Cn2  v068
 BYTE   N08  Cn3
 BYTE   W12
 BYTE   N12  Bn1
 BYTE   N12  Bn2
 BYTE   W84
 BYTE   PEND 
//  #07 //006   ----------------------------------------
 BYTE   W96
//  #07 //007   ----------------------------------------
Label_01058504:
 BYTE   W24
 BYTE   N04  En2  v052
 BYTE   N04  En3  v072
 BYTE   W06
 BYTE   En2  v100
 BYTE   N04  En3  v120
 BYTE   W06
 BYTE   N08  Bn2  v056
 BYTE   N08  Bn3  v076
 BYTE   W12
 BYTE   En2  v048
 BYTE   N08  En3  v068
 BYTE   W12
 BYTE   Dn3  v060
 BYTE   N08  Dn4  v080
 BYTE   W12
 BYTE   An2  v048
 BYTE   N08  An3  v068
 BYTE   W12
 BYTE   An2  v056
 BYTE   N08  An3  v076
 BYTE   W12
 BYTE   PEND 
//  #07 //008   ----------------------------------------
Label_01058532:
 BYTE   N08  Bn2  v048
 BYTE   N08  Bn3  v068
 BYTE   W12
 BYTE   N12  En2  v048
 BYTE   N12  En3  v068
 BYTE   W84
 BYTE   PEND 
//  #07 //009   ----------------------------------------
Label_01058541:
 BYTE   W12
 BYTE   N48  Bn3  v096
 BYTE   W48
 BYTE   An3  v084
 BYTE   W36
 BYTE   PEND 
//  #07 //010   ----------------------------------------
Label_0105854A:
 BYTE   W12
 BYTE   N48  Cn4  v092
 BYTE   W48
 BYTE   N42  Dn4  v084
 BYTE   W36
 BYTE   PEND 
//  #07 //011   ----------------------------------------
Label_01058554:
 BYTE   W06
 BYTE   N03  Cs4  v084
 BYTE   W03
 BYTE   Cn4
 BYTE   W03
 BYTE   N96  Bn3
 BYTE   W84
 BYTE   PEND 
//  #07 //012   ----------------------------------------
 BYTE   W96
//  #07 //013   ----------------------------------------
 BYTE   PATT
  POIN2 Label_010584D0
//  #07 //014   ----------------------------------------
 BYTE   PATT
  POIN2 Label_010584F7
//  #07 //015   ----------------------------------------
Label_0105856A:
 BYTE   W24
 BYTE   N04  En2  v052
 BYTE   N04  En3  v072
 BYTE   W06
 BYTE   En2  v100
 BYTE   N04  En3  v120
 BYTE   W06
 BYTE   N08  Bn2  v056
 BYTE   N08  Bn3  v076
 BYTE   W12
 BYTE   En2  v048
 BYTE   N08  En3  v068
 BYTE   W12
 BYTE   An2  v060
 BYTE   N08  An3  v080
 BYTE   W12
 BYTE   Dn2  v048
 BYTE   N08  Dn3  v068
 BYTE   W12
 BYTE   En2  v056
 BYTE   N08  En3  v076
 BYTE   W12
 BYTE   PEND 
//  #07 //016   ----------------------------------------
Label_01058598:
 BYTE   N08  An2  v048
 BYTE   N08  An3  v068
 BYTE   W12
 BYTE   N48  Bn3  v096
 BYTE   W48
 BYTE   An3  v084
 BYTE   W36
 BYTE   PEND 
//  #07 //017   ----------------------------------------
 BYTE   PATT
  POIN2 Label_0105854A
//  #07 //018   ----------------------------------------
 BYTE   PATT
  POIN2 Label_01058554
//  #07 //019   ----------------------------------------
 BYTE   W96
//  #07 //020   ----------------------------------------
 BYTE   W96
//  #07 //021   ----------------------------------------
 BYTE   W96
//  #07 //022   ----------------------------------------
 BYTE   W96
//  #07 //023   ----------------------------------------
Label_010585B5:
 BYTE   W84
 BYTE   W01
 BYTE   W01
 BYTE   W01
 BYTE   VOL   45*song1D_mvl/mxv
 BYTE   W09
 BYTE   PEND 
//  #07 //024   ----------------------------------------
Label_010585BD:
 BYTE   W12
 BYTE   VOICE   117
 BYTE   PAN   c_v+63
 BYTE   N12  Dn2  v072
 BYTE   W12
 BYTE   VOICE   117
 BYTE   N12  Dn2  v100
 BYTE   W12
 BYTE   Dn2  v064
 BYTE   W12
 BYTE   VOICE   123
 BYTE   N12  Dn1  v080
 BYTE   W12
 BYTE   VOICE   124
 BYTE   N12  Dn2  v100
 BYTE   W12
 BYTE   VOICE   52
 BYTE   N12  Dn2  v084
 BYTE   W12
 BYTE   VOICE   117
 BYTE   N12  Dn1  v068
 BYTE   W12
//  #07 //025   ----------------------------------------
Label_010585E7:
 BYTE   VOICE   52
 BYTE   N12  En1  v072
 BYTE   W12
 BYTE   VOICE   117
 BYTE   PAN   c_v-64
 BYTE   N12  Dn2
 BYTE   W12
 BYTE   VOICE   117
 BYTE   N12  Dn2  v100
 BYTE   W12
 BYTE   Dn2  v064
 BYTE   W12
 BYTE   VOICE   123
 BYTE   N12  Dn1  v080
 BYTE   W12
 BYTE   VOICE   124
 BYTE   N12  Dn2  v100
 BYTE   W12
 BYTE   VOICE   52
 BYTE   N12  Dn2  v084
 BYTE   W12
 BYTE   VOICE   117
 BYTE   N12  Dn1  v068
 BYTE   W12
 BYTE   PEND 
//  #07 //026   ----------------------------------------
Label_01058616:
 BYTE   VOICE   52
 BYTE   N12  En1  v072
 BYTE   W12
 BYTE   VOICE   117
 BYTE   PAN   c_v+63
 BYTE   N12  Dn2
 BYTE   W12
 BYTE   VOICE   117
 BYTE   N12  Dn2  v100
 BYTE   W12
 BYTE   Dn2  v064
 BYTE   W12
 BYTE   VOICE   123
 BYTE   N12  Dn1  v080
 BYTE   W12
 BYTE   VOICE   124
 BYTE   N12  Dn2  v100
 BYTE   W12
 BYTE   VOICE   52
 BYTE   N12  Dn2  v084
 BYTE   W12
 BYTE   VOICE   117
 BYTE   N12  Dn1  v068
 BYTE   W12
 BYTE   PEND 
//  #07 //027   ----------------------------------------
 BYTE   PATT
  POIN2 Label_010585E7
//  #07 //028   ----------------------------------------
 BYTE   VOICE   52
 BYTE   N12  En1  v072
 BYTE   W09
 BYTE   W01
 BYTE   W01
 BYTE   W01
 BYTE   VOICE   57
 BYTE   VOL   50*song1D_mvl/mxv
 BYTE   PAN   c_v+17
 BYTE   TIE  En2  v100
 BYTE   W24
 BYTE   W60
//  #07 //029   ----------------------------------------
 BYTE   W24
 BYTE   EOT
 BYTE   N24  An2  v096
 BYTE   W24
 BYTE   Dn3  v100
 BYTE   W24
 BYTE   Bn2
 BYTE   W24
//  #07 //030   ----------------------------------------
Label_01058669:
 BYTE   N12  Cn3  v100
 BYTE   W12
 BYTE   Bn2  v096
 BYTE   W12
 BYTE   An2  v100
 BYTE   W12
 BYTE   N72  Bn2  v104
 BYTE   W60
 BYTE   PEND 
//  #07 //031   ----------------------------------------
Label_01058678:
 BYTE   W12
 BYTE   N08  Bn2  v100
 BYTE   N08  En3
 BYTE   W36
 BYTE   N10  Cn3  v092
 BYTE   N10  Fn3
 BYTE   W24
 BYTE   N20  Cn3  v096
 BYTE   N20  Fn3
 BYTE   W24
 BYTE   PEND 
//  #07 //032   ----------------------------------------
Label_0105868C:
 BYTE   N05  An2  v088
 BYTE   N05  Dn3
 BYTE   W06
 BYTE   Cn3  v096
 BYTE   N05  Fn3
 BYTE   W06
 BYTE   N10  Bn2  v092
 BYTE   N10  En3
 BYTE   W36
 BYTE   Bn2  v104
 BYTE   N10  En3
 BYTE   W36
 BYTE   Bn2
 BYTE   N10  En3
 BYTE   W12
 BYTE   PEND 
//  #07 //033   ----------------------------------------
Label_010586A7:
 BYTE   W12
 BYTE   N12  Bn2  v068
 BYTE   N12  En3  v076
 BYTE   W24
 BYTE   Bn2  v064
 BYTE   N12  En3  v076
 BYTE   W24
 BYTE   Bn2
 BYTE   N12  En3  v088
 BYTE   W24
 BYTE   Bn2  v084
 BYTE   N12  En3  v092
 BYTE   W12
 BYTE   PEND 
//  #07 //034   ----------------------------------------
 BYTE   PATT
  POIN2 Label_010586A7
//  #07 //035   ----------------------------------------
Label_010586C6:
 BYTE   W12
 BYTE   N12  As2  v068
 BYTE   N12  Ds3  v076
 BYTE   W24
 BYTE   As2  v064
 BYTE   N12  Ds3  v076
 BYTE   W24
 BYTE   As2
 BYTE   N12  Ds3  v088
 BYTE   W24
 BYTE   As2  v084
 BYTE   N12  Ds3  v092
 BYTE   W12
 BYTE   PEND 
//  #07 //036   ----------------------------------------
Label_010586E0:
 BYTE   W12
 BYTE   N12  An2  v068
 BYTE   N12  Dn3  v076
 BYTE   W24
 BYTE   An2  v064
 BYTE   N12  Dn3  v076
 BYTE   W24
 BYTE   An2
 BYTE   N12  Dn3  v088
 BYTE   W24
 BYTE   An2  v084
 BYTE   N12  Dn3  v092
 BYTE   W12
 BYTE   PEND 
//  #07 //037   ----------------------------------------
Label_010586FA:
 BYTE   W12
 BYTE   N30  Cn3  v080
 BYTE   N30  Fn3  v088
 BYTE   W36
 BYTE   Cn3
 BYTE   N30  Fn3
 BYTE   W36
 BYTE   Cn3
 BYTE   N30  Fn3  v092
 BYTE   W12
 BYTE   PEND 
//  #07 //038   ----------------------------------------
Label_0105870C:
 BYTE   W24
 BYTE   N30  Cn3  v092
 BYTE   N30  Fn3  v088
 BYTE   W36
 BYTE   N40  Cn3
 BYTE   N40  Fn3  v092
 BYTE   W36
 BYTE   PEND 
//  #07 //039   ----------------------------------------
Label_0105871B:
 BYTE   W12
 BYTE   N96  En2  v092
 BYTE   TIE  Fs3  v076
 BYTE   W84
 BYTE   PEND 
//  #07 //040   ----------------------------------------
 BYTE   W12
 BYTE   N96  Ds2  v068
 BYTE   W84
//  #07 //041   ----------------------------------------
 BYTE   W12
 BYTE   EOT
 BYTE   Fs3
 BYTE   W84
//  #07 //042   ----------------------------------------
 BYTE   W96
//  #07 //043   ----------------------------------------
 BYTE   W96
//  #07 //044   ----------------------------------------
 BYTE   W96
//  #07 //045   ----------------------------------------
 BYTE   PATT
  POIN2 Label_010584D0
//  #07 //046   ----------------------------------------
 BYTE   PATT
  POIN2 Label_010584F7
//  #07 //047   ----------------------------------------
 BYTE   W96
//  #07 //048   ----------------------------------------
 BYTE   PATT
  POIN2 Label_01058504
//  #07 //049   ----------------------------------------
 BYTE   PATT
  POIN2 Label_01058532
//  #07 //050   ----------------------------------------
 BYTE   PATT
  POIN2 Label_01058541
//  #07 //051   ----------------------------------------
 BYTE   PATT
  POIN2 Label_0105854A
//  #07 //052   ----------------------------------------
 BYTE   PATT
  POIN2 Label_01058554
//  #07 //053   ----------------------------------------
 BYTE   W96
//  #07 //054   ----------------------------------------
 BYTE   PATT
  POIN2 Label_010584D0
//  #07 //055   ----------------------------------------
 BYTE   PATT
  POIN2 Label_010584F7
//  #07 //056   ----------------------------------------
 BYTE   PATT
  POIN2 Label_0105856A
//  #07 //057   ----------------------------------------
 BYTE   PATT
  POIN2 Label_01058598
//  #07 //058   ----------------------------------------
 BYTE   PATT
  POIN2 Label_0105854A
//  #07 //059   ----------------------------------------
 BYTE   PATT
  POIN2 Label_01058554
//  #07 //060   ----------------------------------------
 BYTE   W96
//  #07 //061   ----------------------------------------
 BYTE   W96
//  #07 //062   ----------------------------------------
 BYTE   W96
//  #07 //063   ----------------------------------------
 BYTE   W96
//  #07 //064   ----------------------------------------
 BYTE   PATT
  POIN2 Label_010585B5
//  #07 //065   ----------------------------------------
 BYTE   GoTo
  POIN2 Label_010585BD
//  #07 //066   ----------------------------------------
 BYTE   W12
 BYTE   VOICE   117
 BYTE   PAN   c_v+63
 BYTE   N12  Dn2  v072
 BYTE   W12
 BYTE   VOICE   117
 BYTE   N12  Dn2  v100
 BYTE   W12
 BYTE   Dn2  v064
 BYTE   W12
 BYTE   VOICE   123
 BYTE   N12  Dn1  v080
 BYTE   W12
 BYTE   VOICE   124
 BYTE   N12  Dn2  v100
 BYTE   W12
 BYTE   VOICE   52
 BYTE   N12  Dn2  v084
 BYTE   W12
 BYTE   VOICE   117
 BYTE   N12  Dn1  v068
 BYTE   W12
//  #07 //067   ----------------------------------------
 BYTE   PATT
  POIN2 Label_010585E7
//  #07 //068   ----------------------------------------
 BYTE   PATT
  POIN2 Label_01058616
//  #07 //069   ----------------------------------------
 BYTE   PATT
  POIN2 Label_010585E7
//  #07 //070   ----------------------------------------
 BYTE   VOICE   52
 BYTE   N12  En1  v072
 BYTE   W09
 BYTE   W01
 BYTE   W01
 BYTE   W01
 BYTE   VOICE   57
 BYTE   VOL   50*song1D_mvl/mxv
 BYTE   PAN   c_v+17
 BYTE   TIE  En2  v100
 BYTE   W84
//  #07 //071   ----------------------------------------
 BYTE   W24
 BYTE   EOT
 BYTE   N24  An2  v096
 BYTE   W24
 BYTE   Dn3  v100
 BYTE   W24
 BYTE   Bn2
 BYTE   W24
//  #07 //072   ----------------------------------------
 BYTE   PATT
  POIN2 Label_01058669
//  #07 //073   ----------------------------------------
 BYTE   PATT
  POIN2 Label_01058678
//  #07 //074   ----------------------------------------
 BYTE   PATT
  POIN2 Label_0105868C
//  #07 //075   ----------------------------------------
 BYTE   PATT
  POIN2 Label_010586A7
//  #07 //076   ----------------------------------------
 BYTE   PATT
  POIN2 Label_010586A7
//  #07 //077   ----------------------------------------
 BYTE   PATT
  POIN2 Label_010586C6
//  #07 //078   ----------------------------------------
 BYTE   PATT
  POIN2 Label_010586E0
//  #07 //079   ----------------------------------------
 BYTE   PATT
  POIN2 Label_010586FA
//  #07 //080   ----------------------------------------
 BYTE   PATT
  POIN2 Label_0105870C
//  #07 //081   ----------------------------------------
 BYTE   PATT
  POIN2 Label_0105871B
//  #07 //082   ----------------------------------------
 BYTE   W12
 BYTE   N96  Ds2  v068
 BYTE   W84
//  #07 //083   ----------------------------------------
 BYTE   W12
 BYTE   EOT
 BYTE   Fs3
 BYTE   W84
//  #07 //084   ----------------------------------------
 BYTE   W96
//  #07 //085   ----------------------------------------
 BYTE   W96
//  #07 //086   ----------------------------------------
 BYTE   W96
//  #07 //087   ----------------------------------------
 BYTE   PATT
  POIN2 Label_010584D0
//  #07 //088   ----------------------------------------
 BYTE   PATT
  POIN2 Label_010584F7
//  #07 //089   ----------------------------------------
 BYTE   W96
//  #07 //090   ----------------------------------------
 BYTE   PATT
  POIN2 Label_01058504
//  #07 //091   ----------------------------------------
 BYTE   PATT
  POIN2 Label_01058532
//  #07 //092   ----------------------------------------
 BYTE   PATT
  POIN2 Label_01058541
//  #07 //093   ----------------------------------------
 BYTE   PATT
  POIN2 Label_0105854A
//  #07 //094   ----------------------------------------
 BYTE   W06
 BYTE   N03  Cs4  v084
 BYTE   W03
 BYTE   Cn4
 BYTE   W03
 BYTE   VOL   48*song1D_mvl/mxv
 BYTE   N96  Bn3
 BYTE   W09
 BYTE   VOL   48*song1D_mvl/mxv
 BYTE   W06
 BYTE   VOL   48*song1D_mvl/mxv
 BYTE   W06
 BYTE   VOL   47*song1D_mvl/mxv
 BYTE   W09
 BYTE   VOL   47*song1D_mvl/mxv
 BYTE   W06
 BYTE   VOL   47*song1D_mvl/mxv
 BYTE   W06
 BYTE   VOL   46*song1D_mvl/mxv
 BYTE   W06
 BYTE   VOL   46*song1D_mvl/mxv
 BYTE   W09
 BYTE   VOL   45*song1D_mvl/mxv
 BYTE   W06
 BYTE   VOL   45*song1D_mvl/mxv
 BYTE   W06
 BYTE   VOL   45*song1D_mvl/mxv
 BYTE   W06
 BYTE   VOL   44*song1D_mvl/mxv
 BYTE   W09
//  #07 //095   ----------------------------------------
 BYTE   VOL   44*song1D_mvl/mxv
 BYTE   W06
 BYTE   VOL   43*song1D_mvl/mxv
 BYTE   W06
 BYTE   VOL   43*song1D_mvl/mxv
 BYTE   W06
 BYTE   VOL   43*song1D_mvl/mxv
 BYTE   W09
 BYTE   VOL   42*song1D_mvl/mxv
 BYTE   W06
 BYTE   VOL   42*song1D_mvl/mxv
 BYTE   W06
 BYTE   VOL   41*song1D_mvl/mxv
 BYTE   W06
 BYTE   VOL   41*song1D_mvl/mxv
 BYTE   W09
 BYTE   VOL   41*song1D_mvl/mxv
 BYTE   W06
 BYTE   VOL   40*song1D_mvl/mxv
 BYTE   W06
 BYTE   VOL   40*song1D_mvl/mxv
 BYTE   W09
 BYTE   VOL   39*song1D_mvl/mxv
 BYTE   W06
 BYTE   VOL   39*song1D_mvl/mxv
 BYTE   W06
 BYTE   VOL   39*song1D_mvl/mxv
 BYTE   W06
 BYTE   VOL   38*song1D_mvl/mxv
 BYTE   W03
//  #07 //096   ----------------------------------------
 BYTE   W06
 BYTE   VOL   38*song1D_mvl/mxv
 BYTE   W06
 BYTE   VOL   37*song1D_mvl/mxv
 BYTE   W06
 BYTE   VOL   37*song1D_mvl/mxv
 BYTE   W06
 BYTE   VOL   37*song1D_mvl/mxv
 BYTE   N04  En2  v072
 BYTE   N04  En3
 BYTE   W06
 BYTE   En2  v120
 BYTE   N04  En3
 BYTE   W03
 BYTE   VOL   36*song1D_mvl/mxv
 BYTE   W03
 BYTE   N08  Bn2  v076
 BYTE   N08  Bn3
 BYTE   W03
 BYTE   VOL   36*song1D_mvl/mxv
 BYTE   W06
 BYTE   VOL   35*song1D_mvl/mxv
 BYTE   W03
 BYTE   N08  En2  v068
 BYTE   N08  En3
 BYTE   W03
 BYTE   VOL   35*song1D_mvl/mxv
 BYTE   W09
 BYTE   VOL   35*song1D_mvl/mxv
 BYTE   N08  An2  v080
 BYTE   N08  An3
 BYTE   W06
 BYTE   VOL   34*song1D_mvl/mxv
 BYTE   W06
 BYTE   VOL   34*song1D_mvl/mxv
 BYTE   N08  Dn2  v068
 BYTE   N08  Dn3
 BYTE   W06
 BYTE   VOL   34*song1D_mvl/mxv
 BYTE   W06
 BYTE   N08  Gn2  v076
 BYTE   N08  Gn3
 BYTE   W03
 BYTE   VOL   33*song1D_mvl/mxv
 BYTE   W06
 BYTE   VOL   33*song1D_mvl/mxv
 BYTE   W03
//  #07 //097   ----------------------------------------
 BYTE   N08  Cn2  v068
 BYTE   N08  Cn3
 BYTE   W03
 BYTE   VOL   32*song1D_mvl/mxv
 BYTE   W09
 BYTE   VOL   32*song1D_mvl/mxv
 BYTE   N12  Bn1
 BYTE   N12  Bn2
 BYTE   W06
 BYTE   VOL   32*song1D_mvl/mxv
 BYTE   W06
 BYTE   VOL   31*song1D_mvl/mxv
 BYTE   W06
 BYTE   VOL   31*song1D_mvl/mxv
 BYTE   W09
 BYTE   VOL   30*song1D_mvl/mxv
 BYTE   W06
 BYTE   VOL   30*song1D_mvl/mxv
 BYTE   W06
 BYTE   VOL   30*song1D_mvl/mxv
 BYTE   W06
 BYTE   VOL   29*song1D_mvl/mxv
 BYTE   W09
 BYTE   VOL   29*song1D_mvl/mxv
 BYTE   W06
 BYTE   VOL   28*song1D_mvl/mxv
 BYTE   W06
 BYTE   VOL   28*song1D_mvl/mxv
 BYTE   W06
 BYTE   VOL   28*song1D_mvl/mxv
 BYTE   W09
 BYTE   VOL   27*song1D_mvl/mxv
 BYTE   W03
//  #07 //098   ----------------------------------------
 BYTE   W03
 BYTE   VOL   27*song1D_mvl/mxv
 BYTE   W06
 BYTE   VOL   26*song1D_mvl/mxv
 BYTE   W06
 BYTE   VOL   26*song1D_mvl/mxv
 BYTE   W09
 BYTE   VOL   26*song1D_mvl/mxv
 BYTE   N04  En2  v052
 BYTE   N04  En3  v072
 BYTE   W06
 BYTE   VOL   25*song1D_mvl/mxv
 BYTE   N04  En2  v100
 BYTE   N04  En3  v120
 BYTE   W06
 BYTE   VOL   25*song1D_mvl/mxv
 BYTE   N08  Bn2  v056
 BYTE   N08  Bn3  v076
 BYTE   W09
 BYTE   VOL   24*song1D_mvl/mxv
 BYTE   W03
 BYTE   N08  En2  v048
 BYTE   N08  En3  v068
 BYTE   W03
 BYTE   VOL   24*song1D_mvl/mxv
 BYTE   W06
 BYTE   VOL   24*song1D_mvl/mxv
 BYTE   W03
 BYTE   N08  An2  v060
 BYTE   N08  An3  v080
 BYTE   W03
 BYTE   VOL   23*song1D_mvl/mxv
 BYTE   W09
 BYTE   VOL   23*song1D_mvl/mxv
 BYTE   N08  Dn2  v048
 BYTE   N08  Dn3  v068
 BYTE   W06
 BYTE   VOL   22*song1D_mvl/mxv
 BYTE   W06
 BYTE   VOL   22*song1D_mvl/mxv
 BYTE   N08  En2  v056
 BYTE   N08  En3  v076
 BYTE   W06
 BYTE   VOL   22*song1D_mvl/mxv
 BYTE   W06
//  #07 //099   ----------------------------------------
 BYTE   N08  An2  v048
 BYTE   N08  An3  v068
 BYTE   W03
 BYTE   VOL   21*song1D_mvl/mxv
 BYTE   W06
 BYTE   VOL   21*song1D_mvl/mxv
 BYTE   W03
 BYTE   N48  Bn3  v096
 BYTE   W03
 BYTE   VOL   21*song1D_mvl/mxv
 BYTE   W06
 BYTE   VOL   20*song1D_mvl/mxv
 BYTE   W09
 BYTE   VOL   20*song1D_mvl/mxv
 BYTE   W06
 BYTE   VOL   19*song1D_mvl/mxv
 BYTE   W06
 BYTE   VOL   19*song1D_mvl/mxv
 BYTE   W06
 BYTE   VOL   19*song1D_mvl/mxv
 BYTE   W09
 BYTE   VOL   18*song1D_mvl/mxv
 BYTE   W03
 BYTE   N48  An3  v084
 BYTE   W03
 BYTE   VOL   18*song1D_mvl/mxv
 BYTE   W06
 BYTE   VOL   17*song1D_mvl/mxv
 BYTE   W09
 BYTE   VOL   17*song1D_mvl/mxv
 BYTE   W06
 BYTE   VOL   17*song1D_mvl/mxv
 BYTE   W06
 BYTE   VOL   16*song1D_mvl/mxv
 BYTE   W06
//  #07 //100   ----------------------------------------
 BYTE   VOL   16*song1D_mvl/mxv
 BYTE   W09
 BYTE   VOL   15*song1D_mvl/mxv
 BYTE   W03
 BYTE   N48  Cn4  v092
 BYTE   W03
 BYTE   VOL   15*song1D_mvl/mxv
 BYTE   W06
 BYTE   VOL   15*song1D_mvl/mxv
 BYTE   W06
 BYTE   VOL   14*song1D_mvl/mxv
 BYTE   W09
 BYTE   VOL   14*song1D_mvl/mxv
 BYTE   W06
 BYTE   VOL   13*song1D_mvl/mxv
 BYTE   W06
 BYTE   VOL   13*song1D_mvl/mxv
 BYTE   W06
 BYTE   VOL   13*song1D_mvl/mxv
 BYTE   W06
 BYTE   N42  Dn4  v084
 BYTE   W03
 BYTE   VOL   12*song1D_mvl/mxv
 BYTE   W06
 BYTE   VOL   12*song1D_mvl/mxv
 BYTE   W06
 BYTE   VOL   11*song1D_mvl/mxv
 BYTE   W06
 BYTE   VOL   11*song1D_mvl/mxv
 BYTE   W09
 BYTE   VOL   11*song1D_mvl/mxv
 BYTE   W06
//  #07 //101   ----------------------------------------
 BYTE   VOL   10*song1D_mvl/mxv
 BYTE   W06
 BYTE   VOL   10*song1D_mvl/mxv
 BYTE   N03  Cs4
 BYTE   W03
 BYTE   VOL   10*song1D_mvl/mxv
 BYTE   N03  Cn4
 BYTE   W03
 BYTE   FINE

//**************** Track 8 (Midi-Chn.7) ****************//

song1D_008:
//  #08 //000   ----------------------------------------
 BYTE   KEYSH   song1D_key+0
 BYTE   VOICE   14
 BYTE   PAN   c_v+17
 BYTE   VOL   42*song1D_mvl/mxv
 BYTE   MOD 0
 BYTE   BEND   c_v+0
 BYTE   W12
 BYTE   N08  En3  v112
 BYTE   N08  En4
 BYTE   W84
//  #08 //001   ----------------------------------------
 BYTE   W96
//  #08 //002   ----------------------------------------
 BYTE   W12
 BYTE   En3
 BYTE   N08  En4
 BYTE   W84
//  #08 //003   ----------------------------------------
 BYTE   W96
//  #08 //004   ----------------------------------------
 BYTE   W96
//  #08 //005   ----------------------------------------
 BYTE   W96
//  #08 //006   ----------------------------------------
 BYTE   W96
//  #08 //007   ----------------------------------------
 BYTE   W96
//  #08 //008   ----------------------------------------
 BYTE   W96
//  #08 //009   ----------------------------------------
 BYTE   W96
//  #08 //010   ----------------------------------------
 BYTE   W96
//  #08 //011   ----------------------------------------
 BYTE   W96
//  #08 //012   ----------------------------------------
 BYTE   W96
//  #08 //013   ----------------------------------------
 BYTE   W96
//  #08 //014   ----------------------------------------
 BYTE   W96
//  #08 //015   ----------------------------------------
 BYTE   W96
//  #08 //016   ----------------------------------------
 BYTE   W96
//  #08 //017   ----------------------------------------
 BYTE   W96
//  #08 //018   ----------------------------------------
 BYTE   W96
//  #08 //019   ----------------------------------------
 BYTE   W96
//  #08 //020   ----------------------------------------
 BYTE   W12
 BYTE   N10  En3  v127
 BYTE   N10  En4
 BYTE   W84
//  #08 //021   ----------------------------------------
 BYTE   W96
//  #08 //022   ----------------------------------------
Label_01058A16:
 BYTE   W12
 BYTE   VOICE   46
 BYTE   N06  Bn1  v056
 BYTE   W06
 BYTE   Ds2
 BYTE   W06
 BYTE   Gs2  v088
 BYTE   W06
 BYTE   Bn2  v056
 BYTE   W06
 BYTE   Ds3  v060
 BYTE   W06
 BYTE   Gs3  v064
 BYTE   W06
 BYTE   Bn3  v040
 BYTE   W06
 BYTE   Ds4  v056
 BYTE   W06
 BYTE   Bn2  v060
 BYTE   W06
 BYTE   Ds3  v056
 BYTE   W06
 BYTE   Gs3  v068
 BYTE   W06
 BYTE   Bn3  v056
 BYTE   W06
 BYTE   Ds4  v060
 BYTE   W06
 BYTE   Gs4
 BYTE   W06
 BYTE   PEND 
//  #08 //023   ----------------------------------------
Label_01058A43:
 BYTE   N06  Bn4  v044
 BYTE   W06
 BYTE   Ds5  v056
 BYTE   W06
 BYTE   Gs5  v068
 BYTE   W84
 BYTE   PEND 
//  #08 //024   ----------------------------------------
Label_01058A4E:
 BYTE   W12
 BYTE   N12  Fn3  v060
 BYTE   W12
 BYTE   Cn4  v064
 BYTE   W12
 BYTE   Fn4  v068
 BYTE   W12
 BYTE   Cn4
 BYTE   W12
 BYTE   Gn4  v064
 BYTE   W12
 BYTE   Cn4  v060
 BYTE   W12
 BYTE   Gs4  v072
 BYTE   W12
 BYTE   PEND 
//  #08 //025   ----------------------------------------
Label_01058A65:
 BYTE   N12  Cn4  v064
 BYTE   W12
 BYTE   Gn4  v060
 BYTE   W12
 BYTE   Gn3  v068
 BYTE   W12
 BYTE   Fn4  v060
 BYTE   W12
 BYTE   Gn3  v056
 BYTE   W12
 BYTE   Ds4  v060
 BYTE   W12
 BYTE   Gn3
 BYTE   W12
 BYTE   Cn4  v064
 BYTE   W12
 BYTE   PEND 
//  #08 //026   ----------------------------------------
Label_01058A7E:
 BYTE   N12  Gn3  v064
 BYTE   W12
 BYTE   Fn3  v060
 BYTE   W12
 BYTE   Cn4  v064
 BYTE   W12
 BYTE   Fn4  v068
 BYTE   W12
 BYTE   Cn4
 BYTE   W12
 BYTE   Gn4  v064
 BYTE   W12
 BYTE   Cn4  v060
 BYTE   W12
 BYTE   Gs4  v072
 BYTE   W12
 BYTE   PEND 
//  #08 //027   ----------------------------------------
 BYTE   PATT
  POIN2 Label_01058A65
//  #08 //028   ----------------------------------------
 BYTE   N12  Gn3  v064
 BYTE   W96
//  #08 //029   ----------------------------------------
 BYTE   W96
//  #08 //030   ----------------------------------------
 BYTE   W96
//  #08 //031   ----------------------------------------
 BYTE   W96
//  #08 //032   ----------------------------------------
 BYTE   W96
//  #08 //033   ----------------------------------------
 BYTE   W96
//  #08 //034   ----------------------------------------
 BYTE   W96
//  #08 //035   ----------------------------------------
 BYTE   W96
//  #08 //036   ----------------------------------------
 BYTE   W96
//  #08 //037   ----------------------------------------
Label_01058AA8:
 BYTE   W12
 BYTE   VOICE   10
 BYTE   N02  Bn2  v127
 BYTE   W03
 BYTE   Bn2  v088
 BYTE   W03
 BYTE   Bn2  v096
 BYTE   W03
 BYTE   Bn2  v072
 BYTE   W03
 BYTE   Bn2  v076
 BYTE   W03
 BYTE   N02
 BYTE   W03
 BYTE   Bn2  v072
 BYTE   W03
 BYTE   Bn2  v076
 BYTE   W03
 BYTE   Bn2  v080
 BYTE   W03
 BYTE   Bn2  v084
 BYTE   W03
 BYTE   Bn2  v096
 BYTE   W03
 BYTE   Bn2  v092
 BYTE   W03
 BYTE   An2  v112
 BYTE   W03
 BYTE   An2  v084
 BYTE   W03
 BYTE   An2  v076
 BYTE   W03
 BYTE   An2  v072
 BYTE   W03
 BYTE   An2  v068
 BYTE   W03
 BYTE   N02
 BYTE   W03
 BYTE   An2  v072
 BYTE   W03
 BYTE   An2  v080
 BYTE   W03
 BYTE   An2  v084
 BYTE   W03
 BYTE   N02
 BYTE   W03
 BYTE   An2  v088
 BYTE   W03
 BYTE   N02
 BYTE   W03
 BYTE   En3  v127
 BYTE   W03
 BYTE   En3  v092
 BYTE   W03
 BYTE   En3  v088
 BYTE   W03
 BYTE   En3  v076
 BYTE   W03
 BYTE   PEND 
//  #08 //038   ----------------------------------------
Label_01058AFD:
 BYTE   N02  En3  v076
 BYTE   W03
 BYTE   En3  v068
 BYTE   W03
 BYTE   N02
 BYTE   W03
 BYTE   En3  v072
 BYTE   W03
 BYTE   En3  v080
 BYTE   W03
 BYTE   En3  v052
 BYTE   W03
 BYTE   En3  v088
 BYTE   W03
 BYTE   En3  v100
 BYTE   W03
 BYTE   Dn3  v088
 BYTE   W03
 BYTE   Dn3  v076
 BYTE   W03
 BYTE   Dn3  v068
 BYTE   W03
 BYTE   Dn3  v076
 BYTE   W03
 BYTE   Dn3  v084
 BYTE   W03
 BYTE   Dn3  v088
 BYTE   W03
 BYTE   Dn3  v084
 BYTE   W03
 BYTE   Dn3  v092
 BYTE   W03
 BYTE   N02
 BYTE   W03
 BYTE   Dn3  v096
 BYTE   W03
 BYTE   Dn3  v104
 BYTE   W03
 BYTE   Dn3  v112
 BYTE   W03
 BYTE   Gn3  v084
 BYTE   W03
 BYTE   Gn3  v088
 BYTE   W03
 BYTE   Gn3  v076
 BYTE   W03
 BYTE   Gn3  v060
 BYTE   W03
 BYTE   Gn3  v064
 BYTE   W03
 BYTE   Gn3  v072
 BYTE   W03
 BYTE   Gn3  v084
 BYTE   W03
 BYTE   Gn3  v100
 BYTE   W03
 BYTE   An3  v096
 BYTE   W03
 BYTE   An3  v088
 BYTE   W03
 BYTE   An3  v084
 BYTE   W03
 BYTE   An3  v076
 BYTE   W03
 BYTE   PEND 
//  #08 //039   ----------------------------------------
Label_01058B5D:
 BYTE   N02  An3  v076
 BYTE   W03
 BYTE   An3  v080
 BYTE   W03
 BYTE   An3  v088
 BYTE   W03
 BYTE   An3  v092
 BYTE   W03
 BYTE   Fs3  v104
 BYTE   W03
 BYTE   Fs3  v080
 BYTE   W03
 BYTE   N02
 BYTE   W03
 BYTE   Fs3  v072
 BYTE   W03
 BYTE   Fs3  v064
 BYTE   W03
 BYTE   Fs3  v072
 BYTE   W03
 BYTE   Fs3  v068
 BYTE   W03
 BYTE   Fs3  v064
 BYTE   W03
 BYTE   Fs3  v068
 BYTE   W03
 BYTE   N02
 BYTE   W03
 BYTE   N02
 BYTE   W03
 BYTE   Fs3  v064
 BYTE   W03
 BYTE   Fs3  v060
 BYTE   W03
 BYTE   Fs3  v068
 BYTE   W03
 BYTE   N02
 BYTE   W03
 BYTE   Fs3  v064
 BYTE   W03
 BYTE   Fs3  v056
 BYTE   W03
 BYTE   N02
 BYTE   W03
 BYTE   N02
 BYTE   W03
 BYTE   Fs3  v060
 BYTE   W03
 BYTE   Fs3  v056
 BYTE   W03
 BYTE   N02
 BYTE   W03
 BYTE   N02
 BYTE   W03
 BYTE   Fs3  v052
 BYTE   W03
 BYTE   Fs3  v056
 BYTE   W03
 BYTE   Fs3  v060
 BYTE   W03
 BYTE   Fs3  v052
 BYTE   W03
 BYTE   Fs3  v056
 BYTE   W03
 BYTE   PEND 
//  #08 //040   ----------------------------------------
Label_01058BB7:
 BYTE   N02  Fs3  v048
 BYTE   W03
 BYTE   N02
 BYTE   W03
 BYTE   N02
 BYTE   W03
 BYTE   Fs3  v040
 BYTE   W03
 BYTE   VOICE   14
 BYTE   W84
 BYTE   PEND 
//  #08 //041   ----------------------------------------
 BYTE   W12
 BYTE   N08  En3  v112
 BYTE   N08  En4
 BYTE   W84
//  #08 //042   ----------------------------------------
 BYTE   W96
//  #08 //043   ----------------------------------------
 BYTE   W12
 BYTE   En3
 BYTE   N08  En4
 BYTE   W84
//  #08 //044   ----------------------------------------
 BYTE   W96
//  #08 //045   ----------------------------------------
 BYTE   W96
//  #08 //046   ----------------------------------------
 BYTE   W96
//  #08 //047   ----------------------------------------
 BYTE   W96
//  #08 //048   ----------------------------------------
 BYTE   W96
//  #08 //049   ----------------------------------------
 BYTE   W96
//  #08 //050   ----------------------------------------
 BYTE   W96
//  #08 //051   ----------------------------------------
 BYTE   W96
//  #08 //052   ----------------------------------------
 BYTE   W96
//  #08 //053   ----------------------------------------
 BYTE   W96
//  #08 //054   ----------------------------------------
 BYTE   W96
//  #08 //055   ----------------------------------------
 BYTE   W96
//  #08 //056   ----------------------------------------
 BYTE   W96
//  #08 //057   ----------------------------------------
 BYTE   W96
//  #08 //058   ----------------------------------------
 BYTE   W96
//  #08 //059   ----------------------------------------
 BYTE   W96
//  #08 //060   ----------------------------------------
 BYTE   W96
//  #08 //061   ----------------------------------------
 BYTE   W12
 BYTE   N10  En3  v127
 BYTE   N10  En4
 BYTE   W84
//  #08 //062   ----------------------------------------
 BYTE   W96
//  #08 //063   ----------------------------------------
 BYTE   PATT
  POIN2 Label_01058A16
//  #08 //064   ----------------------------------------
 BYTE   PATT
  POIN2 Label_01058A43
//  #08 //065   ----------------------------------------
 BYTE   GoTo
  POIN2 Label_01058A4E
//  #08 //066   ----------------------------------------
 BYTE   PATT
  POIN2 Label_01058A4E
//  #08 //067   ----------------------------------------
 BYTE   PATT
  POIN2 Label_01058A65
//  #08 //068   ----------------------------------------
 BYTE   PATT
  POIN2 Label_01058A7E
//  #08 //069   ----------------------------------------
 BYTE   PATT
  POIN2 Label_01058A65
//  #08 //070   ----------------------------------------
 BYTE   N12  Gn3  v064
 BYTE   W96
//  #08 //071   ----------------------------------------
 BYTE   W96
//  #08 //072   ----------------------------------------
 BYTE   W96
//  #08 //073   ----------------------------------------
 BYTE   W96
//  #08 //074   ----------------------------------------
 BYTE   W96
//  #08 //075   ----------------------------------------
 BYTE   W96
//  #08 //076   ----------------------------------------
 BYTE   W96
//  #08 //077   ----------------------------------------
 BYTE   W96
//  #08 //078   ----------------------------------------
 BYTE   W96
//  #08 //079   ----------------------------------------
 BYTE   PATT
  POIN2 Label_01058AA8
//  #08 //080   ----------------------------------------
 BYTE   PATT
  POIN2 Label_01058AFD
//  #08 //081   ----------------------------------------
 BYTE   PATT
  POIN2 Label_01058B5D
//  #08 //082   ----------------------------------------
 BYTE   PATT
  POIN2 Label_01058BB7
//  #08 //083   ----------------------------------------
 BYTE   W12
 BYTE   N08  En3  v112
 BYTE   N08  En4
 BYTE   W84
//  #08 //084   ----------------------------------------
 BYTE   W96
//  #08 //085   ----------------------------------------
 BYTE   W12
 BYTE   En3
 BYTE   N08  En4
 BYTE   W84
//  #08 //086   ----------------------------------------
 BYTE   W96
//  #08 //087   ----------------------------------------
 BYTE   W96
//  #08 //088   ----------------------------------------
 BYTE   W96
//  #08 //089   ----------------------------------------
 BYTE   W96
//  #08 //090   ----------------------------------------
 BYTE   W96
//  #08 //091   ----------------------------------------
 BYTE   W96
//  #08 //092   ----------------------------------------
 BYTE   W96
//  #08 //093   ----------------------------------------
 BYTE   W96
//  #08 //094   ----------------------------------------
 BYTE   W12
 BYTE   VOL   42*song1D_mvl/mxv
 BYTE   W09
 BYTE   VOL   42*song1D_mvl/mxv
 BYTE   W06
 BYTE   VOL   42*song1D_mvl/mxv
 BYTE   W06
 BYTE   VOL   41*song1D_mvl/mxv
 BYTE   W06
 BYTE   VOL   41*song1D_mvl/mxv
 BYTE   W06
 BYTE   VOL   40*song1D_mvl/mxv
 BYTE   W06
 BYTE   VOL   40*song1D_mvl/mxv
 BYTE   W06
 BYTE   VOL   40*song1D_mvl/mxv
 BYTE   W06
 BYTE   VOL   39*song1D_mvl/mxv
 BYTE   W06
 BYTE   VOL   39*song1D_mvl/mxv
 BYTE   W06
 BYTE   VOL   38*song1D_mvl/mxv
 BYTE   W06
 BYTE   VOL   38*song1D_mvl/mxv
 BYTE   W06
 BYTE   VOL   38*song1D_mvl/mxv
 BYTE   W06
 BYTE   VOL   37*song1D_mvl/mxv
 BYTE   W03
//  #08 //095   ----------------------------------------
 BYTE   W03
 BYTE   VOL   37*song1D_mvl/mxv
 BYTE   W06
 BYTE   VOL   37*song1D_mvl/mxv
 BYTE   W06
 BYTE   VOL   36*song1D_mvl/mxv
 BYTE   W06
 BYTE   VOL   36*song1D_mvl/mxv
 BYTE   W06
 BYTE   VOL   35*song1D_mvl/mxv
 BYTE   W09
 BYTE   VOL   35*song1D_mvl/mxv
 BYTE   W06
 BYTE   VOL   35*song1D_mvl/mxv
 BYTE   W06
 BYTE   VOL   34*song1D_mvl/mxv
 BYTE   W06
 BYTE   VOL   34*song1D_mvl/mxv
 BYTE   W06
 BYTE   VOL   33*song1D_mvl/mxv
 BYTE   W06
 BYTE   VOL   33*song1D_mvl/mxv
 BYTE   W06
 BYTE   VOL   33*song1D_mvl/mxv
 BYTE   W06
 BYTE   VOL   32*song1D_mvl/mxv
 BYTE   W06
 BYTE   VOL   32*song1D_mvl/mxv
 BYTE   W06
 BYTE   VOL   31*song1D_mvl/mxv
 BYTE   W06
//  #08 //096   ----------------------------------------
 BYTE   VOL   31*song1D_mvl/mxv
 BYTE   W06
 BYTE   VOL   31*song1D_mvl/mxv
 BYTE   W06
 BYTE   VOL   30*song1D_mvl/mxv
 BYTE   W06
 BYTE   VOL   30*song1D_mvl/mxv
 BYTE   W06
 BYTE   VOL   29*song1D_mvl/mxv
 BYTE   W06
 BYTE   VOL   29*song1D_mvl/mxv
 BYTE   W06
 BYTE   VOL   29*song1D_mvl/mxv
 BYTE   W06
 BYTE   VOL   28*song1D_mvl/mxv
 BYTE   W09
 BYTE   VOL   28*song1D_mvl/mxv
 BYTE   W06
 BYTE   VOL   27*song1D_mvl/mxv
 BYTE   W06
 BYTE   VOL   27*song1D_mvl/mxv
 BYTE   W06
 BYTE   VOL   27*song1D_mvl/mxv
 BYTE   W06
 BYTE   VOL   26*song1D_mvl/mxv
 BYTE   W06
 BYTE   VOL   26*song1D_mvl/mxv
 BYTE   W06
 BYTE   VOL   25*song1D_mvl/mxv
 BYTE   W06
 BYTE   VOL   25*song1D_mvl/mxv
 BYTE   W03
//  #08 //097   ----------------------------------------
 BYTE   W03
 BYTE   VOL   25*song1D_mvl/mxv
 BYTE   W06
 BYTE   VOL   24*song1D_mvl/mxv
 BYTE   W06
 BYTE   VOL   24*song1D_mvl/mxv
 BYTE   W06
 BYTE   VOL   24*song1D_mvl/mxv
 BYTE   W06
 BYTE   VOL   23*song1D_mvl/mxv
 BYTE   W06
 BYTE   VOL   23*song1D_mvl/mxv
 BYTE   W06
 BYTE   VOL   22*song1D_mvl/mxv
 BYTE   W06
 BYTE   VOL   22*song1D_mvl/mxv
 BYTE   W06
 BYTE   VOL   22*song1D_mvl/mxv
 BYTE   W06
 BYTE   VOL   21*song1D_mvl/mxv
 BYTE   W09
 BYTE   VOL   21*song1D_mvl/mxv
 BYTE   W06
 BYTE   VOL   20*song1D_mvl/mxv
 BYTE   W06
 BYTE   VOL   20*song1D_mvl/mxv
 BYTE   W06
 BYTE   VOL   20*song1D_mvl/mxv
 BYTE   W06
 BYTE   VOL   19*song1D_mvl/mxv
 BYTE   W06
//  #08 //098   ----------------------------------------
 BYTE   VOL   19*song1D_mvl/mxv
 BYTE   W06
 BYTE   VOL   18*song1D_mvl/mxv
 BYTE   W06
 BYTE   VOL   18*song1D_mvl/mxv
 BYTE   W06
 BYTE   VOL   18*song1D_mvl/mxv
 BYTE   W06
 BYTE   VOL   17*song1D_mvl/mxv
 BYTE   W06
 BYTE   VOL   17*song1D_mvl/mxv
 BYTE   W06
 BYTE   VOL   16*song1D_mvl/mxv
 BYTE   W06
 BYTE   VOL   16*song1D_mvl/mxv
 BYTE   W06
 BYTE   VOL   16*song1D_mvl/mxv
 BYTE   W06
 BYTE   VOL   15*song1D_mvl/mxv
 BYTE   W06
 BYTE   VOL   15*song1D_mvl/mxv
 BYTE   W06
 BYTE   VOL   14*song1D_mvl/mxv
 BYTE   W06
 BYTE   VOL   14*song1D_mvl/mxv
 BYTE   W09
 BYTE   VOL   14*song1D_mvl/mxv
 BYTE   W06
 BYTE   VOL   13*song1D_mvl/mxv
 BYTE   W06
 BYTE   VOL   13*song1D_mvl/mxv
 BYTE   W03
//  #08 //099   ----------------------------------------
 BYTE   W03
 BYTE   VOL   12*song1D_mvl/mxv
 BYTE   W06
 BYTE   VOL   12*song1D_mvl/mxv
 BYTE   W06
 BYTE   VOL   12*song1D_mvl/mxv
 BYTE   W06
 BYTE   VOL   11*song1D_mvl/mxv
 BYTE   W06
 BYTE   VOL   11*song1D_mvl/mxv
 BYTE   W06
 BYTE   VOL   11*song1D_mvl/mxv
 BYTE   W06
 BYTE   VOL   10*song1D_mvl/mxv
 BYTE   W06
 BYTE   VOL   10*song1D_mvl/mxv
 BYTE   W06
 BYTE   VOL   9*song1D_mvl/mxv
 BYTE   W06
 BYTE   VOL   9*song1D_mvl/mxv
 BYTE   W06
 BYTE   VOL   9*song1D_mvl/mxv
 BYTE   W06
 BYTE   VOL   8*song1D_mvl/mxv
 BYTE   W06
 BYTE   VOL   8*song1D_mvl/mxv
 BYTE   W06
 BYTE   VOL   7*song1D_mvl/mxv
 BYTE   W06
 BYTE   VOL   7*song1D_mvl/mxv
 BYTE   W09
//  #08 //100   ----------------------------------------
 BYTE   VOL   7*song1D_mvl/mxv
 BYTE   W06
 BYTE   VOL   6*song1D_mvl/mxv
 BYTE   W06
 BYTE   VOL   6*song1D_mvl/mxv
 BYTE   W06
 BYTE   VOL   5*song1D_mvl/mxv
 BYTE   W06
 BYTE   VOL   5*song1D_mvl/mxv
 BYTE   W06
 BYTE   VOL   5*song1D_mvl/mxv
 BYTE   W06
 BYTE   VOL   4*song1D_mvl/mxv
 BYTE   W06
 BYTE   VOL   4*song1D_mvl/mxv
 BYTE   W06
 BYTE   VOL   3*song1D_mvl/mxv
 BYTE   W06
 BYTE   VOL   3*song1D_mvl/mxv
 BYTE   W06
 BYTE   VOL   3*song1D_mvl/mxv
 BYTE   W06
 BYTE   VOL   2*song1D_mvl/mxv
 BYTE   W06
 BYTE   VOL   2*song1D_mvl/mxv
 BYTE   W06
 BYTE   VOL   1*song1D_mvl/mxv
 BYTE   W06
 BYTE   VOL   1*song1D_mvl/mxv
 BYTE   W06
 BYTE   VOL   1*song1D_mvl/mxv
 BYTE   W06
//  #08 //101   ----------------------------------------
 BYTE   VOL   0*song1D_mvl/mxv
 BYTE   W06
 BYTE   VOL   0*song1D_mvl/mxv
 BYTE   W03
 BYTE   VOL   0*song1D_mvl/mxv
 BYTE   W03
 BYTE   FINE

//**************** Track 9 (Midi-Chn.8) ****************//

song1D_009:
//  #09 //000   ----------------------------------------
 BYTE   KEYSH   song1D_key+0
 BYTE   VOICE   47
 BYTE   PAN   c_v-19
 BYTE   VOL   45*song1D_mvl/mxv
 BYTE   MOD 0
 BYTE   BEND   c_v+0
 BYTE   N08  Bn1  v112
 BYTE   W12
 BYTE   En2
 BYTE   W84
//  #09 //001   ----------------------------------------
Label_01058DA6:
 BYTE   N04  Bn1  v104
 BYTE   W12
 BYTE   En2  v076
 BYTE   W12
 BYTE   Bn1  v084
 BYTE   W12
 BYTE   En2  v120
 BYTE   W60
 BYTE   PEND 
//  #09 //002   ----------------------------------------
 BYTE   W12
 BYTE   N08  En2  v112
 BYTE   W84
//  #09 //003   ----------------------------------------
 BYTE   PATT
  POIN2 Label_01058DA6
//  #09 //004   ----------------------------------------
 BYTE   W12
 BYTE   N24  En2  v112
 BYTE   W84
//  #09 //005   ----------------------------------------
 BYTE   W96
//  #09 //006   ----------------------------------------
 BYTE   W12
 BYTE   N24
 BYTE   W84
//  #09 //007   ----------------------------------------
 BYTE   W12
 BYTE   N24
 BYTE   W84
//  #09 //008   ----------------------------------------
 BYTE   W96
//  #09 //009   ----------------------------------------
 BYTE   W12
 BYTE   N24
 BYTE   W84
//  #09 //010   ----------------------------------------
 BYTE   W96
//  #09 //011   ----------------------------------------
 BYTE   W12
 BYTE   N08
 BYTE   W84
//  #09 //012   ----------------------------------------
 BYTE   PATT
  POIN2 Label_01058DA6
//  #09 //013   ----------------------------------------
 BYTE   W12
 BYTE   N24  En2  v112
 BYTE   W84
//  #09 //014   ----------------------------------------
 BYTE   W96
//  #09 //015   ----------------------------------------
 BYTE   W12
 BYTE   N24
 BYTE   W84
//  #09 //016   ----------------------------------------
 BYTE   W12
 BYTE   N24
 BYTE   W84
//  #09 //017   ----------------------------------------
 BYTE   W96
//  #09 //018   ----------------------------------------
 BYTE   W12
 BYTE   N08
 BYTE   W84
//  #09 //019   ----------------------------------------
 BYTE   PATT
  POIN2 Label_01058DA6
//  #09 //020   ----------------------------------------
Label_01058DEC:
 BYTE   N12  Bn1  v104
 BYTE   W12
 BYTE   En1
 BYTE   W48
 BYTE   Gn1
 BYTE   W36
 BYTE   PEND 
//  #09 //021   ----------------------------------------
Label_01058DF5:
 BYTE   N12  An1  v104
 BYTE   W36
 BYTE   As1
 BYTE   W24
 BYTE   N12
 BYTE   W36
 BYTE   PEND 
//  #09 //022   ----------------------------------------
 BYTE   N12
 BYTE   W96
//  #09 //023   ----------------------------------------
 BYTE   W96
//  #09 //024   ----------------------------------------
Label_01058E01:
 BYTE   W96
//  #09 //025   ----------------------------------------
 BYTE   W96
//  #09 //026   ----------------------------------------
 BYTE   W96
//  #09 //027   ----------------------------------------
 BYTE   W96
//  #09 //028   ----------------------------------------
 BYTE   W96
//  #09 //029   ----------------------------------------
 BYTE   W96
//  #09 //030   ----------------------------------------
 BYTE   W96
//  #09 //031   ----------------------------------------
Label_01058E08:
 BYTE   W12
 BYTE   N08  En2  v084
 BYTE   W36
 BYTE   N10  Fn2  v076
 BYTE   W24
 BYTE   N20  Fn2  v080
 BYTE   W24
 BYTE   PEND 
//  #09 //032   ----------------------------------------
Label_01058E16:
 BYTE   N05  Dn2  v076
 BYTE   W06
 BYTE   Fn2  v080
 BYTE   W06
 BYTE   N10  En2  v076
 BYTE   W36
 BYTE   En2  v088
 BYTE   W36
 BYTE   N10
 BYTE   W12
 BYTE   PEND 
//  #09 //033   ----------------------------------------
 BYTE   N10
 BYTE   W96
//  #09 //034   ----------------------------------------
 BYTE   W96
//  #09 //035   ----------------------------------------
 BYTE   W96
//  #09 //036   ----------------------------------------
 BYTE   W96
//  #09 //037   ----------------------------------------
Label_01058E2C:
 BYTE   W12
 BYTE   N12  Fn1  v127
 BYTE   W36
 BYTE   N12
 BYTE   W36
 BYTE   N12
 BYTE   W12
 BYTE   PEND 
//  #09 //038   ----------------------------------------
Label_01058E36:
 BYTE   W24
 BYTE   N12  Fn1  v127
 BYTE   W36
 BYTE   N08
 BYTE   W24
 BYTE   N08
 BYTE   W12
 BYTE   PEND 
//  #09 //039   ----------------------------------------
Label_01058E40:
 BYTE   W12
 BYTE   N16  Bn1  v096
 BYTE   W24
 BYTE   Bn1  v100
 BYTE   W24
 BYTE   Bn1  v108
 BYTE   W24
 BYTE   Bn1  v112
 BYTE   W12
 BYTE   PEND 
//  #09 //040   ----------------------------------------
 BYTE   PATT
  POIN2 Label_01058E40
//  #09 //041   ----------------------------------------
 BYTE   W12
 BYTE   N08  En2  v112
 BYTE   W84
//  #09 //042   ----------------------------------------
 BYTE   PATT
  POIN2 Label_01058DA6
//  #09 //043   ----------------------------------------
 BYTE   W12
 BYTE   N08  En2  v112
 BYTE   W84
//  #09 //044   ----------------------------------------
 BYTE   PATT
  POIN2 Label_01058DA6
//  #09 //045   ----------------------------------------
 BYTE   W12
 BYTE   N24  En2  v112
 BYTE   W84
//  #09 //046   ----------------------------------------
 BYTE   W96
//  #09 //047   ----------------------------------------
 BYTE   W12
 BYTE   N24
 BYTE   W84
//  #09 //048   ----------------------------------------
 BYTE   W12
 BYTE   N24
 BYTE   W84
//  #09 //049   ----------------------------------------
 BYTE   W96
//  #09 //050   ----------------------------------------
 BYTE   W12
 BYTE   N24
 BYTE   W84
//  #09 //051   ----------------------------------------
 BYTE   W96
//  #09 //052   ----------------------------------------
 BYTE   W12
 BYTE   N08
 BYTE   W84
//  #09 //053   ----------------------------------------
 BYTE   PATT
  POIN2 Label_01058DA6
//  #09 //054   ----------------------------------------
 BYTE   W12
 BYTE   N24  En2  v112
 BYTE   W84
//  #09 //055   ----------------------------------------
 BYTE   W96
//  #09 //056   ----------------------------------------
 BYTE   W12
 BYTE   N24
 BYTE   W84
//  #09 //057   ----------------------------------------
 BYTE   W12
 BYTE   N24
 BYTE   W84
//  #09 //058   ----------------------------------------
 BYTE   W96
//  #09 //059   ----------------------------------------
 BYTE   W12
 BYTE   N08
 BYTE   W84
//  #09 //060   ----------------------------------------
 BYTE   PATT
  POIN2 Label_01058DA6
//  #09 //061   ----------------------------------------
 BYTE   PATT
  POIN2 Label_01058DEC
//  #09 //062   ----------------------------------------
 BYTE   PATT
  POIN2 Label_01058DF5
//  #09 //063   ----------------------------------------
 BYTE   N12  As1  v104
 BYTE   W96
//  #09 //064   ----------------------------------------
 BYTE   W96
//  #09 //065   ----------------------------------------
 BYTE   GoTo
  POIN2 Label_01058E01
//  #09 //066   ----------------------------------------
 BYTE   W96
//  #09 //067   ----------------------------------------
 BYTE   W96
//  #09 //068   ----------------------------------------
 BYTE   W96
//  #09 //069   ----------------------------------------
 BYTE   W96
//  #09 //070   ----------------------------------------
 BYTE   W96
//  #09 //071   ----------------------------------------
 BYTE   W96
//  #09 //072   ----------------------------------------
 BYTE   W96
//  #09 //073   ----------------------------------------
 BYTE   PATT
  POIN2 Label_01058E08
//  #09 //074   ----------------------------------------
 BYTE   PATT
  POIN2 Label_01058E16
//  #09 //075   ----------------------------------------
 BYTE   N10  En2  v088
 BYTE   W96
//  #09 //076   ----------------------------------------
 BYTE   W96
//  #09 //077   ----------------------------------------
 BYTE   W96
//  #09 //078   ----------------------------------------
 BYTE   W96
//  #09 //079   ----------------------------------------
 BYTE   PATT
  POIN2 Label_01058E2C
//  #09 //080   ----------------------------------------
 BYTE   PATT
  POIN2 Label_01058E36
//  #09 //081   ----------------------------------------
 BYTE   PATT
  POIN2 Label_01058E40
//  #09 //082   ----------------------------------------
 BYTE   PATT
  POIN2 Label_01058E40
//  #09 //083   ----------------------------------------
 BYTE   W12
 BYTE   N08  En2  v112
 BYTE   W84
//  #09 //084   ----------------------------------------
 BYTE   PATT
  POIN2 Label_01058DA6
//  #09 //085   ----------------------------------------
 BYTE   W12
 BYTE   N08  En2  v112
 BYTE   W84
//  #09 //086   ----------------------------------------
 BYTE   PATT
  POIN2 Label_01058DA6
//  #09 //087   ----------------------------------------
 BYTE   W12
 BYTE   N24  En2  v112
 BYTE   W84
//  #09 //088   ----------------------------------------
 BYTE   W96
//  #09 //089   ----------------------------------------
 BYTE   W12
 BYTE   N24
 BYTE   W84
//  #09 //090   ----------------------------------------
 BYTE   W12
 BYTE   N24
 BYTE   W84
//  #09 //091   ----------------------------------------
 BYTE   W96
//  #09 //092   ----------------------------------------
 BYTE   W12
 BYTE   N24
 BYTE   W84
//  #09 //093   ----------------------------------------
 BYTE   W96
//  #09 //094   ----------------------------------------
 BYTE   W12
 BYTE   VOL   37*song1D_mvl/mxv
 BYTE   N08
 BYTE   W09
 BYTE   VOL   37*song1D_mvl/mxv
 BYTE   W06
 BYTE   VOL   37*song1D_mvl/mxv
 BYTE   W06
 BYTE   VOL   36*song1D_mvl/mxv
 BYTE   W09
 BYTE   VOL   36*song1D_mvl/mxv
 BYTE   W06
 BYTE   VOL   35*song1D_mvl/mxv
 BYTE   W06
 BYTE   VOL   35*song1D_mvl/mxv
 BYTE   W09
 BYTE   VOL   35*song1D_mvl/mxv
 BYTE   W06
 BYTE   VOL   34*song1D_mvl/mxv
 BYTE   W06
 BYTE   VOL   34*song1D_mvl/mxv
 BYTE   W09
 BYTE   VOL   33*song1D_mvl/mxv
 BYTE   W06
 BYTE   VOL   33*song1D_mvl/mxv
 BYTE   W06
//  #09 //095   ----------------------------------------
 BYTE   VOL   33*song1D_mvl/mxv
 BYTE   N04  Bn1  v104
 BYTE   W09
 BYTE   VOL   32*song1D_mvl/mxv
 BYTE   W03
 BYTE   N04  En2  v076
 BYTE   W03
 BYTE   VOL   32*song1D_mvl/mxv
 BYTE   W06
 BYTE   VOL   31*song1D_mvl/mxv
 BYTE   W03
 BYTE   N04  Bn1  v084
 BYTE   W06
 BYTE   VOL   31*song1D_mvl/mxv
 BYTE   W06
 BYTE   VOL   31*song1D_mvl/mxv
 BYTE   N04  En2  v120
 BYTE   W06
 BYTE   VOL   30*song1D_mvl/mxv
 BYTE   W09
 BYTE   VOL   30*song1D_mvl/mxv
 BYTE   W06
 BYTE   VOL   29*song1D_mvl/mxv
 BYTE   W06
 BYTE   VOL   29*song1D_mvl/mxv
 BYTE   W09
 BYTE   VOL   29*song1D_mvl/mxv
 BYTE   W06
 BYTE   VOL   28*song1D_mvl/mxv
 BYTE   W06
 BYTE   VOL   28*song1D_mvl/mxv
 BYTE   W09
 BYTE   VOL   27*song1D_mvl/mxv
 BYTE   W03
//  #09 //096   ----------------------------------------
 BYTE   W03
 BYTE   VOL   27*song1D_mvl/mxv
 BYTE   W06
 BYTE   VOL   27*song1D_mvl/mxv
 BYTE   W03
 BYTE   N24  En2  v112
 BYTE   W06
 BYTE   VOL   26*song1D_mvl/mxv
 BYTE   W06
 BYTE   VOL   26*song1D_mvl/mxv
 BYTE   W06
 BYTE   VOL   25*song1D_mvl/mxv
 BYTE   W09
 BYTE   VOL   25*song1D_mvl/mxv
 BYTE   W06
 BYTE   VOL   25*song1D_mvl/mxv
 BYTE   W06
 BYTE   VOL   24*song1D_mvl/mxv
 BYTE   W09
 BYTE   VOL   24*song1D_mvl/mxv
 BYTE   W06
 BYTE   VOL   24*song1D_mvl/mxv
 BYTE   W06
 BYTE   VOL   23*song1D_mvl/mxv
 BYTE   W09
 BYTE   VOL   23*song1D_mvl/mxv
 BYTE   W06
 BYTE   VOL   22*song1D_mvl/mxv
 BYTE   W06
 BYTE   VOL   22*song1D_mvl/mxv
 BYTE   W03
//  #09 //097   ----------------------------------------
 BYTE   W06
 BYTE   VOL   22*song1D_mvl/mxv
 BYTE   W06
 BYTE   VOL   21*song1D_mvl/mxv
 BYTE   W06
 BYTE   VOL   21*song1D_mvl/mxv
 BYTE   W09
 BYTE   VOL   20*song1D_mvl/mxv
 BYTE   W06
 BYTE   VOL   20*song1D_mvl/mxv
 BYTE   W06
 BYTE   VOL   20*song1D_mvl/mxv
 BYTE   W09
 BYTE   VOL   19*song1D_mvl/mxv
 BYTE   W06
 BYTE   VOL   19*song1D_mvl/mxv
 BYTE   W06
 BYTE   VOL   18*song1D_mvl/mxv
 BYTE   W09
 BYTE   VOL   18*song1D_mvl/mxv
 BYTE   W06
 BYTE   VOL   18*song1D_mvl/mxv
 BYTE   W06
 BYTE   VOL   17*song1D_mvl/mxv
 BYTE   W09
 BYTE   VOL   17*song1D_mvl/mxv
 BYTE   W06
//  #09 //098   ----------------------------------------
 BYTE   VOL   16*song1D_mvl/mxv
 BYTE   W06
 BYTE   VOL   16*song1D_mvl/mxv
 BYTE   W06
 BYTE   N24
 BYTE   W03
 BYTE   VOL   16*song1D_mvl/mxv
 BYTE   W06
 BYTE   VOL   15*song1D_mvl/mxv
 BYTE   W06
 BYTE   VOL   15*song1D_mvl/mxv
 BYTE   W09
 BYTE   VOL   14*song1D_mvl/mxv
 BYTE   W06
 BYTE   VOL   14*song1D_mvl/mxv
 BYTE   W06
 BYTE   VOL   14*song1D_mvl/mxv
 BYTE   W09
 BYTE   VOL   13*song1D_mvl/mxv
 BYTE   W06
 BYTE   VOL   13*song1D_mvl/mxv
 BYTE   W06
 BYTE   VOL   12*song1D_mvl/mxv
 BYTE   W09
 BYTE   VOL   12*song1D_mvl/mxv
 BYTE   W06
 BYTE   VOL   12*song1D_mvl/mxv
 BYTE   W06
 BYTE   VOL   11*song1D_mvl/mxv
 BYTE   W06
//  #09 //099   ----------------------------------------
 BYTE   W03
 BYTE   VOL   11*song1D_mvl/mxv
 BYTE   W06
 BYTE   VOL   11*song1D_mvl/mxv
 BYTE   W03
 BYTE   N24
 BYTE   W03
 BYTE   VOL   10*song1D_mvl/mxv
 BYTE   W09
 BYTE   VOL   10*song1D_mvl/mxv
 BYTE   W06
 BYTE   VOL   9*song1D_mvl/mxv
 BYTE   W06
 BYTE   VOL   9*song1D_mvl/mxv
 BYTE   W09
 BYTE   VOL   9*song1D_mvl/mxv
 BYTE   W06
 BYTE   VOL   8*song1D_mvl/mxv
 BYTE   W06
 BYTE   VOL   8*song1D_mvl/mxv
 BYTE   W09
 BYTE   VOL   7*song1D_mvl/mxv
 BYTE   W06
 BYTE   VOL   7*song1D_mvl/mxv
 BYTE   W06
 BYTE   VOL   7*song1D_mvl/mxv
 BYTE   W09
 BYTE   VOL   6*song1D_mvl/mxv
 BYTE   W06
 BYTE   VOL   6*song1D_mvl/mxv
 BYTE   W03
//  #09 //100   ----------------------------------------
 BYTE   W03
 BYTE   VOL   5*song1D_mvl/mxv
 BYTE   W09
 BYTE   VOL   5*song1D_mvl/mxv
 BYTE   W06
 BYTE   VOL   5*song1D_mvl/mxv
 BYTE   W06
 BYTE   VOL   4*song1D_mvl/mxv
 BYTE   W09
 BYTE   VOL   4*song1D_mvl/mxv
 BYTE   W06
 BYTE   VOL   3*song1D_mvl/mxv
 BYTE   W06
 BYTE   VOL   3*song1D_mvl/mxv
 BYTE   W09
 BYTE   VOL   3*song1D_mvl/mxv
 BYTE   W06
 BYTE   VOL   2*song1D_mvl/mxv
 BYTE   W06
 BYTE   VOL   2*song1D_mvl/mxv
 BYTE   W09
 BYTE   VOL   1*song1D_mvl/mxv
 BYTE   W06
 BYTE   VOL   1*song1D_mvl/mxv
 BYTE   W06
 BYTE   VOL   1*song1D_mvl/mxv
 BYTE   W09
//  #09 //101   ----------------------------------------
 BYTE   VOL   0*song1D_mvl/mxv
 BYTE   W06
 BYTE   VOL   0*song1D_mvl/mxv
 BYTE   W03
 BYTE   VOL   0*song1D_mvl/mxv
 BYTE   W03
 BYTE   FINE

//**************** Track 10 (Midi-Chn.9) ****************//

song1D_010:
//  #10 //000   ----------------------------------------
 BYTE   KEYSH   song1D_key+0
 BYTE   VOICE   124
 BYTE   PAN   c_v+0
 BYTE   VOL   32*song1D_mvl/mxv
 BYTE   MOD 0
 BYTE   BEND   c_v-20
 BYTE   N03  Dn1  v044
 BYTE   W03
 BYTE   Dn1  v064
 BYTE   W03
 BYTE   Dn1  v084
 BYTE   W03
 BYTE   Dn1  v108
 BYTE   W03
 BYTE   N08
 BYTE   N08  Bn2  v127
 BYTE   W12
 BYTE   Dn1  v024
 BYTE   W12
 BYTE   N01  Dn1  v108
 BYTE   W12
 BYTE   N08  Dn1  v024
 BYTE   W12
 BYTE   N01  Dn1  v108
 BYTE   W06
 BYTE   Dn1  v084
 BYTE   W06
 BYTE   Dn1  v108
 BYTE   W12
 BYTE   N08  Dn1  v024
 BYTE   W12
//  #10 //001   ----------------------------------------
Label_01059073:
 BYTE   N08  Dn1  v044
 BYTE   W12
 BYTE   Dn1  v108
 BYTE   W12
 BYTE   Dn1  v084
 BYTE   W12
 BYTE   N01  Dn1  v108
 BYTE   W03
 BYTE   Dn1  v084
 BYTE   W03
 BYTE   Dn1  v064
 BYTE   W03
 BYTE   Dn1  v044
 BYTE   W03
 BYTE   Dn1  v024
 BYTE   W03
 BYTE   Dn1  v012
 BYTE   W03
 BYTE   Dn1  v008
 BYTE   W06
 BYTE   Dn1  v108
 BYTE   W12
 BYTE   N01
 BYTE   W12
 BYTE   N08  Dn1  v044
 BYTE   W12
 BYTE   PEND 
//  #10 //002   ----------------------------------------
Label_0105909D:
 BYTE   N08  Dn1  v024
 BYTE   W12
 BYTE   Dn1  v108
 BYTE   N08  Bn2  v127
 BYTE   W12
 BYTE   Dn1  v024
 BYTE   W12
 BYTE   N01  Dn1  v108
 BYTE   W12
 BYTE   N08  Dn1  v024
 BYTE   W12
 BYTE   N01  Dn1  v108
 BYTE   W06
 BYTE   Dn1  v084
 BYTE   W06
 BYTE   Dn1  v108
 BYTE   W12
 BYTE   N08  Dn1  v024
 BYTE   W12
 BYTE   PEND 
//  #10 //003   ----------------------------------------
 BYTE   PATT
  POIN2 Label_01059073
//  #10 //004   ----------------------------------------
 BYTE   PATT
  POIN2 Label_0105909D
//  #10 //005   ----------------------------------------
 BYTE   PATT
  POIN2 Label_01059073
//  #10 //006   ----------------------------------------
Label_010590D0:
 BYTE   N08  Dn1  v024
 BYTE   W12
 BYTE   Dn1  v108
 BYTE   W12
 BYTE   Dn1  v024
 BYTE   W12
 BYTE   N01  Dn1  v108
 BYTE   W12
 BYTE   N08  Dn1  v024
 BYTE   W12
 BYTE   N01  Dn1  v108
 BYTE   W06
 BYTE   Dn1  v084
 BYTE   W06
 BYTE   Dn1  v108
 BYTE   W12
 BYTE   N08  Dn1  v024
 BYTE   W12
 BYTE   PEND 
//  #10 //007   ----------------------------------------
 BYTE   PATT
  POIN2 Label_01059073
//  #10 //008   ----------------------------------------
Label_010590F6:
 BYTE   N08  Dn1  v024
 BYTE   W12
 BYTE   Dn1  v108
 BYTE   W12
 BYTE   Dn1  v084
 BYTE   W12
 BYTE   N01  Dn1  v108
 BYTE   W03
 BYTE   Dn1  v084
 BYTE   W03
 BYTE   Dn1  v064
 BYTE   W03
 BYTE   Dn1  v044
 BYTE   W03
 BYTE   Dn1  v024
 BYTE   W03
 BYTE   Dn1  v012
 BYTE   W03
 BYTE   Dn1  v008
 BYTE   W06
 BYTE   Dn1  v108
 BYTE   W12
 BYTE   N01
 BYTE   W12
 BYTE   N08  Dn1  v044
 BYTE   N03  Bn2  v016
 BYTE   W03
 BYTE   Bn2  v032
 BYTE   W03
 BYTE   Bn2  v048
 BYTE   W03
 BYTE   Bn2  v064
 BYTE   W03
 BYTE   PEND 
//  #10 //009   ----------------------------------------
Label_0105912C:
 BYTE   N08  Dn1  v024
 BYTE   N03  Bn2  v080
 BYTE   W03
 BYTE   Bn2  v096
 BYTE   W03
 BYTE   Bn2  v112
 BYTE   W03
 BYTE   Bn2  v127
 BYTE   W03
 BYTE   N08  Dn1  v108
 BYTE   N48  Bn2
 BYTE   W12
 BYTE   N08  Dn1  v024
 BYTE   W12
 BYTE   N01  Dn1  v108
 BYTE   W12
 BYTE   N08  Dn1  v024
 BYTE   W12
 BYTE   N01  Dn1  v108
 BYTE   N48  Bn2
 BYTE   W06
 BYTE   N01  Dn1  v084
 BYTE   W06
 BYTE   Dn1  v108
 BYTE   W12
 BYTE   N08  Dn1  v024
 BYTE   W12
 BYTE   PEND 
//  #10 //010   ----------------------------------------
Label_01059160:
 BYTE   N08  Dn1  v044
 BYTE   W12
 BYTE   Dn1  v108
 BYTE   N48  Bn2
 BYTE   W12
 BYTE   N08  Dn1  v084
 BYTE   W12
 BYTE   N01  Dn1  v108
 BYTE   W03
 BYTE   Dn1  v084
 BYTE   W03
 BYTE   Dn1  v064
 BYTE   W03
 BYTE   Dn1  v044
 BYTE   W03
 BYTE   Dn1  v024
 BYTE   W03
 BYTE   Dn1  v012
 BYTE   W03
 BYTE   Dn1  v008
 BYTE   W06
 BYTE   Dn1  v108
 BYTE   N48  Bn2
 BYTE   W12
 BYTE   N01  Dn1
 BYTE   W12
 BYTE   N08  Dn1  v044
 BYTE   W12
 BYTE   PEND 
//  #10 //011   ----------------------------------------
Label_01059190:
 BYTE   N08  Dn1  v024
 BYTE   W12
 BYTE   Dn1  v108
 BYTE   N48  Bn2
 BYTE   W12
 BYTE   N08  Dn1  v024
 BYTE   W12
 BYTE   N01  Dn1  v108
 BYTE   W12
 BYTE   N08  Dn1  v024
 BYTE   W12
 BYTE   N01  Dn1  v108
 BYTE   W06
 BYTE   Dn1  v084
 BYTE   W06
 BYTE   Dn1  v108
 BYTE   W12
 BYTE   N08  Dn1  v024
 BYTE   W12
 BYTE   PEND 
//  #10 //012   ----------------------------------------
 BYTE   PATT
  POIN2 Label_01059073
//  #10 //013   ----------------------------------------
 BYTE   PATT
  POIN2 Label_0105909D
//  #10 //014   ----------------------------------------
Label_010591BE:
 BYTE   N08  Dn1  v044
 BYTE   W12
 BYTE   Dn1  v108
 BYTE   W12
 BYTE   Dn1  v024
 BYTE   W12
 BYTE   N01  Dn1  v108
 BYTE   W12
 BYTE   N08  Dn1  v024
 BYTE   W12
 BYTE   N01  Dn1  v108
 BYTE   W06
 BYTE   Dn1  v084
 BYTE   W06
 BYTE   Dn1  v108
 BYTE   W12
 BYTE   N08  Dn1  v024
 BYTE   W12
 BYTE   PEND 
//  #10 //015   ----------------------------------------
Label_010591DF:
 BYTE   N08  Dn1  v044
 BYTE   W12
 BYTE   Dn1  v108
 BYTE   W12
 BYTE   Dn1  v084
 BYTE   W12
 BYTE   N01  Dn1  v108
 BYTE   W03
 BYTE   Dn1  v084
 BYTE   W03
 BYTE   Dn1  v064
 BYTE   W03
 BYTE   Dn1  v044
 BYTE   W03
 BYTE   Dn1  v024
 BYTE   W03
 BYTE   Dn1  v012
 BYTE   W03
 BYTE   Dn1  v008
 BYTE   W06
 BYTE   Dn1  v108
 BYTE   W12
 BYTE   N01
 BYTE   W12
 BYTE   N08  Dn1  v044
 BYTE   N03  Bn2  v016
 BYTE   W03
 BYTE   Bn2  v032
 BYTE   W03
 BYTE   Bn2  v048
 BYTE   W03
 BYTE   Bn2  v064
 BYTE   W03
 BYTE   PEND 
//  #10 //016   ----------------------------------------
 BYTE   PATT
  POIN2 Label_0105912C
//  #10 //017   ----------------------------------------
 BYTE   PATT
  POIN2 Label_01059160
//  #10 //018   ----------------------------------------
 BYTE   PATT
  POIN2 Label_01059190
//  #10 //019   ----------------------------------------
Label_01059224:
 BYTE   N08  Dn1  v044
 BYTE   W12
 BYTE   Dn1  v108
 BYTE   W12
 BYTE   Dn1  v084
 BYTE   W12
 BYTE   N01  Dn1  v108
 BYTE   W03
 BYTE   Dn1  v084
 BYTE   W03
 BYTE   Dn1  v064
 BYTE   W03
 BYTE   Dn1  v044
 BYTE   W03
 BYTE   Dn1  v024
 BYTE   W03
 BYTE   Dn1  v012
 BYTE   W03
 BYTE   Dn1  v008
 BYTE   W06
 BYTE   Dn1  v108
 BYTE   N03  Bn2  v008
 BYTE   W03
 BYTE   Bn2  v016
 BYTE   W03
 BYTE   Bn2  v024
 BYTE   W03
 BYTE   Bn2  v032
 BYTE   W03
 BYTE   N01  Dn1  v108
 BYTE   N03  Bn2  v040
 BYTE   W03
 BYTE   Bn2  v048
 BYTE   W03
 BYTE   Bn2  v056
 BYTE   W03
 BYTE   Bn2  v064
 BYTE   W03
 BYTE   N08  Dn1  v044
 BYTE   N03  Bn2  v072
 BYTE   W03
 BYTE   Bn2  v080
 BYTE   W03
 BYTE   Bn2  v088
 BYTE   W03
 BYTE   Bn2  v096
 BYTE   W03
 BYTE   PEND 
//  #10 //020   ----------------------------------------
Label_01059274:
 BYTE   N08  Dn1  v024
 BYTE   N03  Bn2  v104
 BYTE   W03
 BYTE   Bn2  v116
 BYTE   W03
 BYTE   Bn2  v120
 BYTE   W03
 BYTE   Bn2  v127
 BYTE   W03
 BYTE   N12  Dn1  v108
 BYTE   N72  Bn2
 BYTE   W12
 BYTE   N06  Dn1  v044
 BYTE   W06
 BYTE   Dn1  v064
 BYTE   W06
 BYTE   N04  Dn1  v084
 BYTE   W12
 BYTE   Dn1  v108
 BYTE   W12
 BYTE   Dn1  v044
 BYTE   W06
 BYTE   Dn1  v064
 BYTE   W06
 BYTE   Dn1  v084
 BYTE   W12
 BYTE   Dn1  v108
 BYTE   N72  Bn2
 BYTE   W12
 BYTE   PEND 
//  #10 //021   ----------------------------------------
Label_010592A7:
 BYTE   N02  Dn1  v044
 BYTE   W06
 BYTE   Dn1  v064
 BYTE   W06
 BYTE   Dn1  v084
 BYTE   W12
 BYTE   Dn1  v108
 BYTE   W12
 BYTE   Dn1  v044
 BYTE   W06
 BYTE   Dn1  v064
 BYTE   W06
 BYTE   Dn1  v084
 BYTE   W12
 BYTE   Dn1  v108
 BYTE   N48  Bn2
 BYTE   W12
 BYTE   N01  Dn1  v064
 BYTE   W12
 BYTE   Dn1  v084
 BYTE   W12
 BYTE   PEND 
//  #10 //022   ----------------------------------------
Label_010592CA:
 BYTE   N01  Dn1  v108
 BYTE   W12
 BYTE   N96  Bn2
 BYTE   W84
 BYTE   PEND 
//  #10 //023   ----------------------------------------
 BYTE   W96
//  #10 //024   ----------------------------------------
Label_010592D3:
 BYTE   W96
//  #10 //025   ----------------------------------------
 BYTE   W96
//  #10 //026   ----------------------------------------
 BYTE   W96
//  #10 //027   ----------------------------------------
Label_010592D6:
 BYTE   W72
 BYTE   N12  Dn1  v108
 BYTE   W12
 BYTE   N03
 BYTE   W03
 BYTE   Dn1  v084
 BYTE   W03
 BYTE   Dn1  v064
 BYTE   W03
 BYTE   Dn1  v044
 BYTE   W03
 BYTE   PEND 
//  #10 //028   ----------------------------------------
Label_010592E7:
 BYTE   N06  Dn1  v024
 BYTE   W06
 BYTE   Dn1  v108
 BYTE   W06
 BYTE   N01
 BYTE   N01  Fs2
 BYTE   N01  Bn2
 BYTE   W12
 BYTE   Dn1  v084
 BYTE   W12
 BYTE   Dn1  v108
 BYTE   W03
 BYTE   Dn1  v084
 BYTE   W03
 BYTE   Dn1  v064
 BYTE   W03
 BYTE   Dn1  v044
 BYTE   W03
 BYTE   Dn1  v024
 BYTE   N01  Fs2  v108
 BYTE   W12
 BYTE   Dn1  v084
 BYTE   W12
 BYTE   Dn1  v108
 BYTE   N01  Fs2  v064
 BYTE   W03
 BYTE   Dn1  v084
 BYTE   W03
 BYTE   Dn1  v064
 BYTE   W03
 BYTE   N01
 BYTE   W03
 BYTE   Dn1  v044
 BYTE   N01  Fs2  v108
 BYTE   W03
 BYTE   Dn1  v024
 BYTE   W09
 BYTE   PEND 
//  #10 //029   ----------------------------------------
Label_01059324:
 BYTE   N01  Dn1  v108
 BYTE   W12
 BYTE   N01
 BYTE   N01  Fs2
 BYTE   W06
 BYTE   Dn1  v064
 BYTE   W06
 BYTE   Dn1  v084
 BYTE   W06
 BYTE   Dn1  v108
 BYTE   W06
 BYTE   N01
 BYTE   W03
 BYTE   Dn1  v084
 BYTE   W03
 BYTE   Dn1  v064
 BYTE   W03
 BYTE   Dn1  v044
 BYTE   W03
 BYTE   Dn1  v024
 BYTE   N01  Fs2  v108
 BYTE   W12
 BYTE   Dn1  v084
 BYTE   W12
 BYTE   Dn1  v108
 BYTE   N01  Fs2  v064
 BYTE   W03
 BYTE   Dn1  v084
 BYTE   W03
 BYTE   Dn1  v064
 BYTE   W03
 BYTE   N01
 BYTE   W03
 BYTE   Dn1  v044
 BYTE   N01  Fs2  v108
 BYTE   W03
 BYTE   Dn1  v024
 BYTE   W09
 BYTE   PEND 
//  #10 //030   ----------------------------------------
Label_01059361:
 BYTE   N01  Dn1  v108
 BYTE   W12
 BYTE   N01
 BYTE   N01  Fs2
 BYTE   W12
 BYTE   Dn1  v084
 BYTE   W12
 BYTE   Dn1  v108
 BYTE   W03
 BYTE   Dn1  v084
 BYTE   W03
 BYTE   Dn1  v064
 BYTE   W03
 BYTE   Dn1  v044
 BYTE   W03
 BYTE   Dn1  v024
 BYTE   N01  Fs2  v108
 BYTE   W12
 BYTE   Dn1  v084
 BYTE   W12
 BYTE   Dn1  v108
 BYTE   N01  Fs2  v064
 BYTE   W03
 BYTE   Dn1  v084
 BYTE   W03
 BYTE   Dn1  v064
 BYTE   W03
 BYTE   N01
 BYTE   W03
 BYTE   Dn1  v044
 BYTE   N01  Fs2  v108
 BYTE   W03
 BYTE   Dn1  v024
 BYTE   W09
 BYTE   PEND 
//  #10 //031   ----------------------------------------
Label_01059399:
 BYTE   N01  Dn1  v108
 BYTE   W12
 BYTE   N01
 BYTE   N01  Fs2
 BYTE   W06
 BYTE   Dn1  v064
 BYTE   W06
 BYTE   Dn1  v084
 BYTE   W06
 BYTE   Dn1  v108
 BYTE   W06
 BYTE   N01
 BYTE   W03
 BYTE   Dn1  v084
 BYTE   W03
 BYTE   Dn1  v064
 BYTE   W03
 BYTE   Dn1  v044
 BYTE   W03
 BYTE   Dn1  v024
 BYTE   N01  Fs2  v108
 BYTE   W12
 BYTE   Dn1  v084
 BYTE   N02  Bn2  v108
 BYTE   W12
 BYTE   N01  Dn1
 BYTE   N01  Fs2  v064
 BYTE   W03
 BYTE   Dn1  v084
 BYTE   W03
 BYTE   Dn1  v064
 BYTE   N02  Bn2  v108
 BYTE   W03
 BYTE   N01  Dn1  v064
 BYTE   W03
 BYTE   Dn1  v044
 BYTE   N01  Fs2  v108
 BYTE   W03
 BYTE   Dn1  v024
 BYTE   W09
 BYTE   PEND 
//  #10 //032   ----------------------------------------
Label_010593DE:
 BYTE   N01  Dn1  v108
 BYTE   W12
 BYTE   N01
 BYTE   N01  Fs2
 BYTE   N01  Bn2
 BYTE   W12
 BYTE   Dn1  v084
 BYTE   W06
 BYTE   N10  Bn2  v108
 BYTE   W06
 BYTE   N01  Dn1
 BYTE   W03
 BYTE   Dn1  v084
 BYTE   W03
 BYTE   Dn1  v064
 BYTE   W03
 BYTE   Dn1  v044
 BYTE   W03
 BYTE   Dn1  v024
 BYTE   N01  Fs2  v108
 BYTE   N10  Bn2
 BYTE   W12
 BYTE   N01  Dn1  v084
 BYTE   W12
 BYTE   Dn1  v108
 BYTE   N01  Fs2  v064
 BYTE   W03
 BYTE   Dn1  v084
 BYTE   W03
 BYTE   Dn1  v064
 BYTE   W03
 BYTE   N01
 BYTE   W03
 BYTE   Dn1  v044
 BYTE   N01  Fs2  v108
 BYTE   N54  Bn2
 BYTE   W03
 BYTE   N01  Dn1  v024
 BYTE   W09
 BYTE   PEND 
//  #10 //033   ----------------------------------------
 BYTE   PATT
  POIN2 Label_01059324
//  #10 //034   ----------------------------------------
 BYTE   PATT
  POIN2 Label_01059361
//  #10 //035   ----------------------------------------
 BYTE   PATT
  POIN2 Label_01059324
//  #10 //036   ----------------------------------------
 BYTE   PATT
  POIN2 Label_01059361
//  #10 //037   ----------------------------------------
Label_01059436:
 BYTE   N01  Dn1  v108
 BYTE   W12
 BYTE   Dn1  v127
 BYTE   N01  Fs2
 BYTE   N01  Bn2
 BYTE   W12
 BYTE   Dn1  v104
 BYTE   W12
 BYTE   Dn1  v127
 BYTE   W03
 BYTE   Dn1  v104
 BYTE   W03
 BYTE   Dn1  v084
 BYTE   W03
 BYTE   Dn1  v064
 BYTE   W03
 BYTE   Dn1  v044
 BYTE   N01  Fs2  v127
 BYTE   N36  Bn2
 BYTE   W12
 BYTE   N01  Dn1  v104
 BYTE   W12
 BYTE   Dn1  v127
 BYTE   N01  Fs2  v084
 BYTE   W03
 BYTE   Dn1  v104
 BYTE   W03
 BYTE   Dn1  v084
 BYTE   W03
 BYTE   N01
 BYTE   W03
 BYTE   Dn1  v064
 BYTE   N01  Fs2  v127
 BYTE   N36  Bn2
 BYTE   W03
 BYTE   N01  Dn1  v044
 BYTE   W09
 BYTE   PEND 
//  #10 //038   ----------------------------------------
Label_01059477:
 BYTE   N01  Dn1  v127
 BYTE   W12
 BYTE   N01
 BYTE   N01  Fs2
 BYTE   W06
 BYTE   Dn1  v084
 BYTE   W06
 BYTE   Dn1  v104
 BYTE   N36  Bn2  v127
 BYTE   W06
 BYTE   N01  Dn1
 BYTE   W06
 BYTE   N01
 BYTE   W03
 BYTE   Dn1  v104
 BYTE   W03
 BYTE   Dn1  v084
 BYTE   W03
 BYTE   Dn1  v064
 BYTE   W03
 BYTE   Dn1  v044
 BYTE   N01  Fs2  v127
 BYTE   W12
 BYTE   Dn1  v104
 BYTE   N24  Bn2  v127
 BYTE   W12
 BYTE   N01  Dn1
 BYTE   N01  Fs2  v084
 BYTE   W03
 BYTE   Dn1  v104
 BYTE   W03
 BYTE   Dn1  v084
 BYTE   W03
 BYTE   N01
 BYTE   W03
 BYTE   Dn1  v064
 BYTE   N01  Fs2  v127
 BYTE   N24  Bn2
 BYTE   W03
 BYTE   N01  Dn1  v044
 BYTE   W09
 BYTE   PEND 
//  #10 //039   ----------------------------------------
Label_010594BD:
 BYTE   N01  Dn1  v127
 BYTE   W12
 BYTE   N01
 BYTE   N01  Fs2
 BYTE   N01  Bn2
 BYTE   W12
 BYTE   Dn1  v104
 BYTE   W12
 BYTE   Dn1  v127
 BYTE   W03
 BYTE   Dn1  v104
 BYTE   W03
 BYTE   Dn1  v084
 BYTE   W03
 BYTE   Dn1  v064
 BYTE   W03
 BYTE   Dn1  v044
 BYTE   N01  Fs2  v127
 BYTE   W12
 BYTE   Dn1  v104
 BYTE   W12
 BYTE   Dn1  v127
 BYTE   N01  Fs2  v084
 BYTE   W03
 BYTE   Dn1  v104
 BYTE   W03
 BYTE   Dn1  v084
 BYTE   W03
 BYTE   N01
 BYTE   W03
 BYTE   Dn1  v064
 BYTE   N01  Fs2  v127
 BYTE   W03
 BYTE   Dn1  v044
 BYTE   W09
 BYTE   PEND 
//  #10 //040   ----------------------------------------
Label_010594F7:
 BYTE   N01  Dn1  v127
 BYTE   W12
 BYTE   Dn1  v108
 BYTE   N01  Fs2
 BYTE   N24  Bn2  v127
 BYTE   W06
 BYTE   N01  Dn1  v064
 BYTE   W06
 BYTE   Dn1  v084
 BYTE   W06
 BYTE   Dn1  v108
 BYTE   W06
 BYTE   N01
 BYTE   W03
 BYTE   Dn1  v084
 BYTE   W03
 BYTE   Dn1  v064
 BYTE   W03
 BYTE   Dn1  v044
 BYTE   W03
 BYTE   Dn1  v024
 BYTE   N01  Fs2  v108
 BYTE   W12
 BYTE   Dn1  v084
 BYTE   W12
 BYTE   Dn1  v108
 BYTE   W03
 BYTE   Dn1  v084
 BYTE   W03
 BYTE   Dn1  v064
 BYTE   W03
 BYTE   N01
 BYTE   W03
 BYTE   Dn1  v044
 BYTE   N01  Fs2  v108
 BYTE   W03
 BYTE   Dn1  v024
 BYTE   W09
 BYTE   PEND 
//  #10 //041   ----------------------------------------
Label_01059536:
 BYTE   N01  Dn1  v108
 BYTE   W12
 BYTE   N08
 BYTE   N08  Bn2  v127
 BYTE   W12
 BYTE   Dn1  v024
 BYTE   W12
 BYTE   N01  Dn1  v108
 BYTE   W12
 BYTE   N08  Dn1  v024
 BYTE   W12
 BYTE   N01  Dn1  v108
 BYTE   W06
 BYTE   Dn1  v084
 BYTE   W06
 BYTE   Dn1  v108
 BYTE   W12
 BYTE   N08  Dn1  v024
 BYTE   W12
 BYTE   PEND 
//  #10 //042   ----------------------------------------
 BYTE   PATT
  POIN2 Label_01059073
//  #10 //043   ----------------------------------------
 BYTE   PATT
  POIN2 Label_0105909D
//  #10 //044   ----------------------------------------
 BYTE   PATT
  POIN2 Label_01059073
//  #10 //045   ----------------------------------------
 BYTE   PATT
  POIN2 Label_0105909D
//  #10 //046   ----------------------------------------
 BYTE   PATT
  POIN2 Label_01059073
//  #10 //047   ----------------------------------------
 BYTE   PATT
  POIN2 Label_010590D0
//  #10 //048   ----------------------------------------
 BYTE   PATT
  POIN2 Label_01059073
//  #10 //049   ----------------------------------------
 BYTE   PATT
  POIN2 Label_010590F6
//  #10 //050   ----------------------------------------
 BYTE   PATT
  POIN2 Label_0105912C
//  #10 //051   ----------------------------------------
 BYTE   PATT
  POIN2 Label_01059160
//  #10 //052   ----------------------------------------
 BYTE   PATT
  POIN2 Label_01059190
//  #10 //053   ----------------------------------------
 BYTE   PATT
  POIN2 Label_01059073
//  #10 //054   ----------------------------------------
 BYTE   PATT
  POIN2 Label_0105909D
//  #10 //055   ----------------------------------------
 BYTE   PATT
  POIN2 Label_010591BE
//  #10 //056   ----------------------------------------
 BYTE   PATT
  POIN2 Label_010591DF
//  #10 //057   ----------------------------------------
 BYTE   PATT
  POIN2 Label_0105912C
//  #10 //058   ----------------------------------------
 BYTE   PATT
  POIN2 Label_01059160
//  #10 //059   ----------------------------------------
 BYTE   PATT
  POIN2 Label_01059190
//  #10 //060   ----------------------------------------
 BYTE   PATT
  POIN2 Label_01059224
//  #10 //061   ----------------------------------------
 BYTE   PATT
  POIN2 Label_01059274
//  #10 //062   ----------------------------------------
 BYTE   PATT
  POIN2 Label_010592A7
//  #10 //063   ----------------------------------------
 BYTE   PATT
  POIN2 Label_010592CA
//  #10 //064   ----------------------------------------
 BYTE   W96
//  #10 //065   ----------------------------------------
 BYTE   GoTo
  POIN2 Label_010592D3
//  #10 //066   ----------------------------------------
 BYTE   W96
//  #10 //067   ----------------------------------------
 BYTE   W96
//  #10 //068   ----------------------------------------
 BYTE   W96
//  #10 //069   ----------------------------------------
 BYTE   PATT
  POIN2 Label_010592D6
//  #10 //070   ----------------------------------------
 BYTE   PATT
  POIN2 Label_010592E7
//  #10 //071   ----------------------------------------
 BYTE   PATT
  POIN2 Label_01059324
//  #10 //072   ----------------------------------------
 BYTE   PATT
  POIN2 Label_01059361
//  #10 //073   ----------------------------------------
 BYTE   PATT
  POIN2 Label_01059399
//  #10 //074   ----------------------------------------
 BYTE   PATT
  POIN2 Label_010593DE
//  #10 //075   ----------------------------------------
 BYTE   PATT
  POIN2 Label_01059324
//  #10 //076   ----------------------------------------
 BYTE   PATT
  POIN2 Label_01059361
//  #10 //077   ----------------------------------------
 BYTE   PATT
  POIN2 Label_01059324
//  #10 //078   ----------------------------------------
 BYTE   PATT
  POIN2 Label_01059361
//  #10 //079   ----------------------------------------
 BYTE   PATT
  POIN2 Label_01059436
//  #10 //080   ----------------------------------------
 BYTE   PATT
  POIN2 Label_01059477
//  #10 //081   ----------------------------------------
 BYTE   PATT
  POIN2 Label_010594BD
//  #10 //082   ----------------------------------------
 BYTE   PATT
  POIN2 Label_010594F7
//  #10 //083   ----------------------------------------
 BYTE   PATT
  POIN2 Label_01059536
//  #10 //084   ----------------------------------------
 BYTE   PATT
  POIN2 Label_01059073
//  #10 //085   ----------------------------------------
 BYTE   PATT
  POIN2 Label_0105909D
//  #10 //086   ----------------------------------------
 BYTE   PATT
  POIN2 Label_01059073
//  #10 //087   ----------------------------------------
 BYTE   PATT
  POIN2 Label_0105909D
//  #10 //088   ----------------------------------------
 BYTE   PATT
  POIN2 Label_01059073
//  #10 //089   ----------------------------------------
 BYTE   PATT
  POIN2 Label_010590D0
//  #10 //090   ----------------------------------------
 BYTE   PATT
  POIN2 Label_01059073
//  #10 //091   ----------------------------------------
 BYTE   PATT
  POIN2 Label_010590F6
//  #10 //092   ----------------------------------------
 BYTE   PATT
  POIN2 Label_0105912C
//  #10 //093   ----------------------------------------
 BYTE   PATT
  POIN2 Label_01059160
//  #10 //094   ----------------------------------------
 BYTE   N08  Dn1  v024
 BYTE   W12
 BYTE   VOL   32*song1D_mvl/mxv
 BYTE   N08  Dn1  v108
 BYTE   N48  Bn2
 BYTE   W09
 BYTE   VOL   32*song1D_mvl/mxv
 BYTE   W03
 BYTE   N08  Dn1  v024
 BYTE   W06
 BYTE   VOL   31*song1D_mvl/mxv
 BYTE   W06
 BYTE   N01  Dn1  v108
 BYTE   W03
 BYTE   VOL   31*song1D_mvl/mxv
 BYTE   W06
 BYTE   VOL   31*song1D_mvl/mxv
 BYTE   W03
 BYTE   N08  Dn1  v024
 BYTE   W06
 BYTE   VOL   30*song1D_mvl/mxv
 BYTE   W06
 BYTE   N01  Dn1  v108
 BYTE   W03
 BYTE   VOL   30*song1D_mvl/mxv
 BYTE   W03
 BYTE   N01  Dn1  v084
 BYTE   W03
 BYTE   VOL   29*song1D_mvl/mxv
 BYTE   W03
 BYTE   N01  Dn1  v108
 BYTE   W06
 BYTE   VOL   29*song1D_mvl/mxv
 BYTE   W06
 BYTE   N08  Dn1  v024
 BYTE   W03
 BYTE   VOL   29*song1D_mvl/mxv
 BYTE   W06
 BYTE   VOL   28*song1D_mvl/mxv
 BYTE   W03
//  #10 //095   ----------------------------------------
 BYTE   N08  Dn1  v044
 BYTE   W06
 BYTE   VOL   28*song1D_mvl/mxv
 BYTE   W06
 BYTE   N08  Dn1  v108
 BYTE   W03
 BYTE   VOL   27*song1D_mvl/mxv
 BYTE   W09
 BYTE   VOL   27*song1D_mvl/mxv
 BYTE   N08  Dn1  v084
 BYTE   W06
 BYTE   VOL   27*song1D_mvl/mxv
 BYTE   W06
 BYTE   N01  Dn1  v108
 BYTE   W03
 BYTE   VOL   26*song1D_mvl/mxv
 BYTE   N01  Dn1  v084
 BYTE   W03
 BYTE   Dn1  v064
 BYTE   W03
 BYTE   Dn1  v044
 BYTE   W03
 BYTE   VOL   26*song1D_mvl/mxv
 BYTE   N01  Dn1  v024
 BYTE   W03
 BYTE   Dn1  v012
 BYTE   W03
 BYTE   VOL   25*song1D_mvl/mxv
 BYTE   N01  Dn1  v008
 BYTE   W06
 BYTE   Dn1  v108
 BYTE   W03
 BYTE   VOL   25*song1D_mvl/mxv
 BYTE   W09
 BYTE   VOL   25*song1D_mvl/mxv
 BYTE   N01
 BYTE   W06
 BYTE   VOL   24*song1D_mvl/mxv
 BYTE   W06
 BYTE   N08  Dn1  v044
 BYTE   W03
 BYTE   VOL   24*song1D_mvl/mxv
 BYTE   W09
//  #10 //096   ----------------------------------------
 BYTE   VOL   24*song1D_mvl/mxv
 BYTE   N08  Dn1  v024
 BYTE   W09
 BYTE   VOL   23*song1D_mvl/mxv
 BYTE   W03
 BYTE   N08  Dn1  v108
 BYTE   N08  Bn2  v127
 BYTE   W03
 BYTE   VOL   23*song1D_mvl/mxv
 BYTE   W09
 BYTE   VOL   22*song1D_mvl/mxv
 BYTE   N08  Dn1  v024
 BYTE   W09
 BYTE   VOL   22*song1D_mvl/mxv
 BYTE   W03
 BYTE   N01  Dn1  v108
 BYTE   W03
 BYTE   VOL   22*song1D_mvl/mxv
 BYTE   W09
 BYTE   VOL   21*song1D_mvl/mxv
 BYTE   N08  Dn1  v024
 BYTE   W09
 BYTE   VOL   21*song1D_mvl/mxv
 BYTE   W03
 BYTE   N01  Dn1  v108
 BYTE   W03
 BYTE   VOL   20*song1D_mvl/mxv
 BYTE   W03
 BYTE   N01  Dn1  v084
 BYTE   W06
 BYTE   VOL   20*song1D_mvl/mxv
 BYTE   N01  Dn1  v108
 BYTE   W09
 BYTE   VOL   20*song1D_mvl/mxv
 BYTE   W03
 BYTE   N08  Dn1  v024
 BYTE   W06
 BYTE   VOL   19*song1D_mvl/mxv
 BYTE   W06
//  #10 //097   ----------------------------------------
 BYTE   VOL   19*song1D_mvl/mxv
 BYTE   N08  Dn1  v044
 BYTE   W09
 BYTE   VOL   18*song1D_mvl/mxv
 BYTE   W03
 BYTE   N08  Dn1  v108
 BYTE   W06
 BYTE   VOL   18*song1D_mvl/mxv
 BYTE   W06
 BYTE   VOL   18*song1D_mvl/mxv
 BYTE   N08  Dn1  v024
 BYTE   W09
 BYTE   VOL   17*song1D_mvl/mxv
 BYTE   W03
 BYTE   N01  Dn1  v108
 BYTE   W06
 BYTE   VOL   17*song1D_mvl/mxv
 BYTE   W06
 BYTE   VOL   16*song1D_mvl/mxv
 BYTE   N08  Dn1  v024
 BYTE   W09
 BYTE   VOL   16*song1D_mvl/mxv
 BYTE   W03
 BYTE   N01  Dn1  v108
 BYTE   W06
 BYTE   VOL   16*song1D_mvl/mxv
 BYTE   N01  Dn1  v084
 BYTE   W06
 BYTE   Dn1  v108
 BYTE   W03
 BYTE   VOL   15*song1D_mvl/mxv
 BYTE   W06
 BYTE   VOL   15*song1D_mvl/mxv
 BYTE   W03
 BYTE   N08  Dn1  v024
 BYTE   W06
 BYTE   VOL   14*song1D_mvl/mxv
 BYTE   W06
//  #10 //098   ----------------------------------------
 BYTE   N08  Dn1  v044
 BYTE   W03
 BYTE   VOL   14*song1D_mvl/mxv
 BYTE   W06
 BYTE   VOL   14*song1D_mvl/mxv
 BYTE   W03
 BYTE   N08  Dn1  v108
 BYTE   W06
 BYTE   VOL   13*song1D_mvl/mxv
 BYTE   W06
 BYTE   N08  Dn1  v084
 BYTE   W03
 BYTE   VOL   13*song1D_mvl/mxv
 BYTE   W06
 BYTE   VOL   12*song1D_mvl/mxv
 BYTE   W03
 BYTE   N01  Dn1  v108
 BYTE   W03
 BYTE   Dn1  v084
 BYTE   W03
 BYTE   VOL   12*song1D_mvl/mxv
 BYTE   N01  Dn1  v064
 BYTE   W03
 BYTE   Dn1  v044
 BYTE   W03
 BYTE   Dn1  v024
 BYTE   W03
 BYTE   VOL   12*song1D_mvl/mxv
 BYTE   N01  Dn1  v012
 BYTE   W03
 BYTE   Dn1  v008
 BYTE   W06
 BYTE   VOL   11*song1D_mvl/mxv
 BYTE   N01  Dn1  v108
 BYTE   W06
 BYTE   VOL   11*song1D_mvl/mxv
 BYTE   W06
 BYTE   N01
 BYTE   W03
 BYTE   VOL   11*song1D_mvl/mxv
 BYTE   W09
 BYTE   VOL   10*song1D_mvl/mxv
 BYTE   N08  Dn1  v044
 BYTE   N03  Bn2  v016
 BYTE   W03
 BYTE   Bn2  v032
 BYTE   W03
 BYTE   VOL   10*song1D_mvl/mxv
 BYTE   N03  Bn2  v048
 BYTE   W03
 BYTE   Bn2  v064
 BYTE   W03
//  #10 //099   ----------------------------------------
 BYTE   N08  Dn1  v024
 BYTE   N03  Bn2  v080
 BYTE   W03
 BYTE   VOL   9*song1D_mvl/mxv
 BYTE   N03  Bn2  v096
 BYTE   W03
 BYTE   Bn2  v112
 BYTE   W03
 BYTE   Bn2  v127
 BYTE   W03
 BYTE   VOL   9*song1D_mvl/mxv
 BYTE   N08  Dn1  v108
 BYTE   N48  Bn2
 BYTE   W06
 BYTE   VOL   9*song1D_mvl/mxv
 BYTE   W06
 BYTE   N08  Dn1  v024
 BYTE   W03
 BYTE   VOL   8*song1D_mvl/mxv
 BYTE   W09
 BYTE   VOL   8*song1D_mvl/mxv
 BYTE   N01  Dn1  v108
 BYTE   W09
 BYTE   VOL   7*song1D_mvl/mxv
 BYTE   W03
 BYTE   N08  Dn1  v024
 BYTE   W03
 BYTE   VOL   7*song1D_mvl/mxv
 BYTE   W09
 BYTE   VOL   7*song1D_mvl/mxv
 BYTE   N01  Dn1  v108
 BYTE   N48  Bn2
 BYTE   W06
 BYTE   N01  Dn1  v084
 BYTE   W03
 BYTE   VOL   6*song1D_mvl/mxv
 BYTE   W03
 BYTE   N01  Dn1  v108
 BYTE   W03
 BYTE   VOL   6*song1D_mvl/mxv
 BYTE   W09
 BYTE   VOL   5*song1D_mvl/mxv
 BYTE   N08  Dn1  v024
 BYTE   W09
 BYTE   VOL   5*song1D_mvl/mxv
 BYTE   W03
//  #10 //100   ----------------------------------------
 BYTE   N08  Dn1  v044
 BYTE   W03
 BYTE   VOL   5*song1D_mvl/mxv
 BYTE   W09
 BYTE   VOL   4*song1D_mvl/mxv
 BYTE   N08  Dn1  v108
 BYTE   N48  Bn2
 BYTE   W09
 BYTE   VOL   4*song1D_mvl/mxv
 BYTE   W03
 BYTE   N08  Dn1  v084
 BYTE   W06
 BYTE   VOL   3*song1D_mvl/mxv
 BYTE   W06
 BYTE   VOL   3*song1D_mvl/mxv
 BYTE   N01  Dn1  v108
 BYTE   W03
 BYTE   Dn1  v084
 BYTE   W03
 BYTE   Dn1  v064
 BYTE   W03
 BYTE   VOL   3*song1D_mvl/mxv
 BYTE   N01  Dn1  v044
 BYTE   W03
 BYTE   Dn1  v024
 BYTE   W03
 BYTE   Dn1  v012
 BYTE   W03
 BYTE   VOL   2*song1D_mvl/mxv
 BYTE   N01  Dn1  v008
 BYTE   W06
 BYTE   VOL   2*song1D_mvl/mxv
 BYTE   N01  Dn1  v108
 BYTE   N48  Bn2
 BYTE   W09
 BYTE   VOL   1*song1D_mvl/mxv
 BYTE   W03
 BYTE   N01  Dn1
 BYTE   W06
 BYTE   VOL   1*song1D_mvl/mxv
 BYTE   W06
 BYTE   VOL   1*song1D_mvl/mxv
 BYTE   N08  Dn1  v044
 BYTE   W09
 BYTE   VOL   0*song1D_mvl/mxv
 BYTE   W03
//  #10 //101   ----------------------------------------
 BYTE   N08  Dn1  v024
 BYTE   W06
 BYTE   VOL   0*song1D_mvl/mxv
 BYTE   W03
 BYTE   VOL   0*song1D_mvl/mxv
 BYTE   W03
 BYTE   FINE

//******************************************************//
	ALIGN 4

song1D:
	BYTE	10	// NumTrks
	BYTE	0	// NumBlks
	BYTE	song1D_pri	// Priority
	BYTE	song1D_rev	// Reverb.
    
	POIN2	song1D_grp
    
	POIN2	song1D_001
	POIN2	song1D_002
	POIN2	song1D_003
	POIN2	song1D_004
	POIN2	song1D_005
	POIN2	song1D_006
	POIN2	song1D_007
	POIN2	song1D_008
	POIN2	song1D_009
	POIN2	song1D_010

	
