//Event file generated from Sappy .s format.
        #include "MPlayDef.event"

        #define    LaLWordsofTrust2_grp  voicegroup000
        #define    LaLWordsofTrust2_pri  0
        #define    LaLWordsofTrust2_rev  0
        #define    LaLWordsofTrust2_key  0

        // .rodata
        // LaLWordsofTrust2
        ALIGN 4

//****************** Track 0 (Midi-Chn.0) ******************//

LaLWordsofTrust2_0:
        BYTE   KEYSH   LaLWordsofTrust2_key+0
// 000   ----------------------------------------
        BYTE   TEMPO   90/2
        BYTE           VOICE   46
        BYTE           PAN     c_v-1
        BYTE           VOL     89
        BYTE           N12     Ds2   v127
        BYTE   W12
        BYTE                   As2
        BYTE   W12
        BYTE                   Ds3
        BYTE   W12
        BYTE                   Fn3
        BYTE   W12
        BYTE                   Fs3
        BYTE   W12
        BYTE                   As3
        BYTE   W12
        BYTE                   Ds4
        BYTE   W12
        BYTE                   As3
        BYTE   W12
// 001   ----------------------------------------
LaLWordsofTrust2_0_1:
        BYTE           N12     Cs2   v127
        BYTE   W12
        BYTE                   Gs2
        BYTE   W12
        BYTE                   Cs3
        BYTE   W12
        BYTE                   Ds3
        BYTE   W12
        BYTE                   Fn3
        BYTE   W12
        BYTE                   Gs3
        BYTE   W12
        BYTE                   Cs4
        BYTE   W12
        BYTE                   Gs3
        BYTE   W12
        BYTE   PEND
// 002   ----------------------------------------
LaLWordsofTrust2_0_2:
        BYTE           N12     Bn1   v127
        BYTE   W12
        BYTE                   Fs2
        BYTE   W12
        BYTE                   Bn2
        BYTE   W12
        BYTE                   Cs3
        BYTE   W12
        BYTE                   Ds3
        BYTE   W12
        BYTE                   Fs3
        BYTE   W12
        BYTE                   Bn3
        BYTE   W12
        BYTE                   Fs3
        BYTE   W12
        BYTE   PEND
// 003   ----------------------------------------
LaLWordsofTrust2_0_3:
        BYTE           N12     As1   v127
        BYTE   W12
        BYTE                   Fn2
        BYTE   W12
        BYTE                   As2
        BYTE   W12
        BYTE                   Cn3
        BYTE   W12
        BYTE                   Cs3
        BYTE   W12
        BYTE                   Fn3
        BYTE   W12
        BYTE                   As3
        BYTE   W12
        BYTE                   Cn4
        BYTE   W12
        BYTE   PEND
// 004   ----------------------------------------
LaLWordsofTrust2_0_4:
        BYTE           N12     Gs1   v127
        BYTE   W12
        BYTE                   Ds2
        BYTE   W12
        BYTE                   Gs2
        BYTE   W12
        BYTE                   As2
        BYTE   W12
        BYTE                   Bn2
        BYTE   W12
        BYTE                   Ds3
        BYTE   W12
        BYTE                   Gs3
        BYTE   W12
        BYTE                   As3
        BYTE   W12
        BYTE   PEND
// 005   ----------------------------------------
LaLWordsofTrust2_0_5:
        BYTE           N12     As1   v127
        BYTE   W12
        BYTE                   Fn2
        BYTE   W12
        BYTE                   As2
        BYTE   W12
        BYTE                   Cn3
        BYTE   W12
        BYTE                   Dn3
        BYTE   W12
        BYTE                   Fn3
        BYTE   W12
        BYTE                   As3
        BYTE   W12
        BYTE                   Gs3
        BYTE   W12
        BYTE   PEND
// 006   ----------------------------------------
LaLWordsofTrust2_0_6:
        BYTE           N12     Ds2   v127
        BYTE   W12
        BYTE                   As2
        BYTE   W12
        BYTE                   Ds3
        BYTE   W12
        BYTE                   Fn3
        BYTE   W12
        BYTE                   Fs3
        BYTE   W12
        BYTE                   As3
        BYTE   W12
        BYTE                   Ds4
        BYTE   W12
        BYTE                   Fn4
        BYTE   W12
        BYTE   PEND
// 007   ----------------------------------------
LaLWordsofTrust2_0_7:
        BYTE           N12     Fs4   v127
        BYTE   W12
        BYTE                   Dn4
        BYTE   W12
        BYTE                   Ds4
        BYTE   W12
        BYTE                   As3
        BYTE   W12
        BYTE                   Gs3
        BYTE   W12
        BYTE                   Fs3
        BYTE   W12
        BYTE           N08     Fn3
        BYTE   W08
        BYTE                   Ds3
        BYTE   W08
        BYTE                   As2
        BYTE   W08
        BYTE   PEND
// 008   ----------------------------------------
LaLWordsofTrust2_0_8:
        BYTE           N06     Bn1   v127
        BYTE   W06
        BYTE                   Fs2
        BYTE   W06
        BYTE                   Bn2
        BYTE   W06
        BYTE                   Cs3
        BYTE   W06
        BYTE                   Ds3
        BYTE   W06
        BYTE                   Fs3
        BYTE   W06
        BYTE                   Cs4
        BYTE   W06
        BYTE                   Bn3
        BYTE   W06
        BYTE                   Ds4
        BYTE   W06
        BYTE                   As3
        BYTE   W06
        BYTE                   Bn3
        BYTE   W06
        BYTE                   Fs3
        BYTE   W06
        BYTE                   Ds3
        BYTE   W06
        BYTE                   Cs3
        BYTE   W06
        BYTE                   Bn2
        BYTE   W06
        BYTE                   Fs2
        BYTE   W06
        BYTE   PEND
// 009   ----------------------------------------
LaLWordsofTrust2_0_9:
        BYTE           N06     Cs2   v127
        BYTE   W06
        BYTE                   Gs2
        BYTE   W06
        BYTE                   Cs3
        BYTE   W06
        BYTE                   Ds3
        BYTE   W06
        BYTE                   Fn3
        BYTE   W06
        BYTE                   Gs3
        BYTE   W06
        BYTE                   Ds4
        BYTE   W06
        BYTE                   Cs4
        BYTE   W06
        BYTE                   Fn4
        BYTE   W06
        BYTE                   Cn4
        BYTE   W06
        BYTE                   Cs4
        BYTE   W06
        BYTE                   Gs3
        BYTE   W06
        BYTE                   Fn3
        BYTE   W06
        BYTE                   Ds3
        BYTE   W06
        BYTE                   Cs3
        BYTE   W06
        BYTE                   Gs2
        BYTE   W06
        BYTE   PEND
// 010   ----------------------------------------
LaLWordsofTrust2_0_10:
        BYTE           N06     Ds2   v127
        BYTE   W06
        BYTE                   As2
        BYTE   W06
        BYTE                   Ds3
        BYTE   W06
        BYTE                   Fn3
        BYTE   W06
        BYTE                   Fs3
        BYTE   W06
        BYTE                   As3
        BYTE   W06
        BYTE                   Fn4
        BYTE   W06
        BYTE                   Ds4
        BYTE   W06
        BYTE                   Fs4
        BYTE   W06
        BYTE                   Dn4
        BYTE   W06
        BYTE                   Ds4
        BYTE   W06
        BYTE                   As3
        BYTE   W06
        BYTE                   Fs3
        BYTE   W06
        BYTE                   Fn3
        BYTE   W06
        BYTE                   Ds3
        BYTE   W06
        BYTE                   As2
        BYTE   W06
        BYTE   PEND
// 011   ----------------------------------------
LaLWordsofTrust2_0_11:
        BYTE           N08     Fn4   v127
        BYTE   W08
        BYTE                   Ds4
        BYTE   W08
        BYTE                   As3
        BYTE   W08
        BYTE                   Fs3
        BYTE   W08
        BYTE                   Fn3
        BYTE   W08
        BYTE                   Ds3
        BYTE   W08
        BYTE                   As2
        BYTE   W08
        BYTE                   Fs2
        BYTE   W08
        BYTE                   Fn2
        BYTE   W08
        BYTE           N06     As1
        BYTE   W06
        BYTE                   Ds2
        BYTE   W06
        BYTE                   Fn2
        BYTE   W06
        BYTE                   Fs2
        BYTE   W06
        BYTE   PEND
// 012   ----------------------------------------
        BYTE   PATT
         POIN2  LaLWordsofTrust2_0_8
// 013   ----------------------------------------
        BYTE   PATT
         POIN2  LaLWordsofTrust2_0_9
// 014   ----------------------------------------
        BYTE   PATT
         POIN2  LaLWordsofTrust2_0_10
// 015   ----------------------------------------
LaLWordsofTrust2_0_15:
        BYTE           N08     Fn4   v127
        BYTE   W08
        BYTE                   Ds4
        BYTE   W08
        BYTE                   As3
        BYTE   W08
        BYTE                   Fs3
        BYTE   W08
        BYTE                   Fn3
        BYTE   W08
        BYTE                   Ds3
        BYTE   W08
        BYTE                   As2
        BYTE   W08
        BYTE                   Fs2
        BYTE   W08
        BYTE                   Fn2
        BYTE   W08
        BYTE                   As1
        BYTE   W08
        BYTE                   Ds2
        BYTE   W08
        BYTE                   Fs2
        BYTE   W08
        BYTE   PEND
// 016   ----------------------------------------
LaLWordsofTrust2_0_LOOP:
        BYTE           N12     Ds2   v127
        BYTE   W12
        BYTE                   As2
        BYTE   W12
        BYTE                   Ds3
        BYTE   W12
        BYTE                   Fn3
        BYTE   W12
        BYTE                   Fs3
        BYTE   W12
        BYTE                   As3
        BYTE   W12
        BYTE                   Ds4
        BYTE   W12
        BYTE                   As3
        BYTE   W12
// 017   ----------------------------------------
        BYTE   PATT
         POIN2  LaLWordsofTrust2_0_1
// 018   ----------------------------------------
        BYTE   PATT
         POIN2  LaLWordsofTrust2_0_2
// 019   ----------------------------------------
        BYTE   PATT
         POIN2  LaLWordsofTrust2_0_3
// 020   ----------------------------------------
        BYTE   PATT
         POIN2  LaLWordsofTrust2_0_4
// 021   ----------------------------------------
        BYTE   PATT
         POIN2  LaLWordsofTrust2_0_5
// 022   ----------------------------------------
        BYTE   PATT
         POIN2  LaLWordsofTrust2_0_6
// 023   ----------------------------------------
        BYTE   PATT
         POIN2  LaLWordsofTrust2_0_7
// 024   ----------------------------------------
        BYTE   PATT
         POIN2  LaLWordsofTrust2_0_8
// 025   ----------------------------------------
        BYTE   PATT
         POIN2  LaLWordsofTrust2_0_9
// 026   ----------------------------------------
        BYTE   PATT
         POIN2  LaLWordsofTrust2_0_10
// 027   ----------------------------------------
        BYTE   PATT
         POIN2  LaLWordsofTrust2_0_11
// 028   ----------------------------------------
        BYTE   PATT
         POIN2  LaLWordsofTrust2_0_8
// 029   ----------------------------------------
        BYTE   PATT
         POIN2  LaLWordsofTrust2_0_9
// 030   ----------------------------------------
        BYTE   PATT
         POIN2  LaLWordsofTrust2_0_10
// 031   ----------------------------------------
        BYTE   PATT
         POIN2  LaLWordsofTrust2_0_15
// 032   ----------------------------------------
LaLWordsofTrust2_0_32:
        BYTE           N12     Ds2   v127
        BYTE   W12
        BYTE                   As2
        BYTE   W12
        BYTE                   Ds3
        BYTE   W12
        BYTE                   Fn3
        BYTE   W12
        BYTE                   Fs3
        BYTE   W12
        BYTE                   As3
        BYTE   W12
        BYTE                   Ds4
        BYTE   W12
        BYTE                   As3
        BYTE   W12
        BYTE   PEND
// 033   ----------------------------------------
        BYTE   PATT
         POIN2  LaLWordsofTrust2_0_1
// 034   ----------------------------------------
        BYTE   PATT
         POIN2  LaLWordsofTrust2_0_2
// 035   ----------------------------------------
        BYTE   PATT
         POIN2  LaLWordsofTrust2_0_3
// 036   ----------------------------------------
        BYTE   PATT
         POIN2  LaLWordsofTrust2_0_4
// 037   ----------------------------------------
        BYTE   PATT
         POIN2  LaLWordsofTrust2_0_5
// 038   ----------------------------------------
        BYTE   PATT
         POIN2  LaLWordsofTrust2_0_6
// 039   ----------------------------------------
        BYTE   PATT
         POIN2  LaLWordsofTrust2_0_7
// 040   ----------------------------------------
        BYTE   PATT
         POIN2  LaLWordsofTrust2_0_8
// 041   ----------------------------------------
        BYTE   PATT
         POIN2  LaLWordsofTrust2_0_9
// 042   ----------------------------------------
        BYTE   PATT
         POIN2  LaLWordsofTrust2_0_10
// 043   ----------------------------------------
        BYTE   PATT
         POIN2  LaLWordsofTrust2_0_11
// 044   ----------------------------------------
        BYTE   PATT
         POIN2  LaLWordsofTrust2_0_8
// 045   ----------------------------------------
        BYTE   PATT
         POIN2  LaLWordsofTrust2_0_9
// 046   ----------------------------------------
        BYTE   PATT
         POIN2  LaLWordsofTrust2_0_10
// 047   ----------------------------------------
        BYTE   PATT
         POIN2  LaLWordsofTrust2_0_15
// 048   ----------------------------------------
        BYTE   PATT
         POIN2  LaLWordsofTrust2_0_32
// 049   ----------------------------------------
        BYTE   PATT
         POIN2  LaLWordsofTrust2_0_1
// 050   ----------------------------------------
        BYTE   PATT
         POIN2  LaLWordsofTrust2_0_2
// 051   ----------------------------------------
        BYTE   PATT
         POIN2  LaLWordsofTrust2_0_3
// 052   ----------------------------------------
        BYTE   PATT
         POIN2  LaLWordsofTrust2_0_4
// 053   ----------------------------------------
        BYTE   PATT
         POIN2  LaLWordsofTrust2_0_5
// 054   ----------------------------------------
        BYTE   PATT
         POIN2  LaLWordsofTrust2_0_6
// 055   ----------------------------------------
        BYTE   PATT
         POIN2  LaLWordsofTrust2_0_7
// 056   ----------------------------------------
        BYTE   PATT
         POIN2  LaLWordsofTrust2_0_8
// 057   ----------------------------------------
        BYTE   PATT
         POIN2  LaLWordsofTrust2_0_9
// 058   ----------------------------------------
        BYTE   PATT
         POIN2  LaLWordsofTrust2_0_10
// 059   ----------------------------------------
        BYTE   PATT
         POIN2  LaLWordsofTrust2_0_11
// 060   ----------------------------------------
        BYTE   PATT
         POIN2  LaLWordsofTrust2_0_8
// 061   ----------------------------------------
        BYTE   PATT
         POIN2  LaLWordsofTrust2_0_9
// 062   ----------------------------------------
        BYTE   PATT
         POIN2  LaLWordsofTrust2_0_10
// 063   ----------------------------------------
        BYTE   PATT
         POIN2  LaLWordsofTrust2_0_15
// 064   ----------------------------------------
        BYTE   GoTo
         POIN2  LaLWordsofTrust2_0_LOOP
        BYTE   W04
        BYTE   FINE

//****************** Track 1 (Midi-Chn.1) ******************//

LaLWordsofTrust2_1:
        BYTE   KEYSH   LaLWordsofTrust2_key+0
// 000   ----------------------------------------
        BYTE           VOL     48
        BYTE           PAN     c_v-63
        BYTE           VOICE   46
        BYTE   W12
        BYTE           N12     Ds2   v127
        BYTE   W12
        BYTE                   As2
        BYTE   W12
        BYTE                   Ds3
        BYTE   W12
        BYTE                   Fn3
        BYTE   W12
        BYTE                   Fs3
        BYTE   W12
        BYTE                   As3
        BYTE   W12
        BYTE                   Ds4
        BYTE   W12
// 001   ----------------------------------------
LaLWordsofTrust2_1_1:
        BYTE           N12     As3   v127
        BYTE   W12
        BYTE                   Cs2
        BYTE   W12
        BYTE                   Gs2
        BYTE   W12
        BYTE                   Cs3
        BYTE   W12
        BYTE                   Ds3
        BYTE   W12
        BYTE                   Fn3
        BYTE   W12
        BYTE                   Gs3
        BYTE   W12
        BYTE                   Cs4
        BYTE   W12
        BYTE   PEND
// 002   ----------------------------------------
LaLWordsofTrust2_1_2:
        BYTE           N12     Gs3   v127
        BYTE   W12
        BYTE                   Bn1
        BYTE   W12
        BYTE                   Fs2
        BYTE   W12
        BYTE                   Bn2
        BYTE   W12
        BYTE                   Cs3
        BYTE   W12
        BYTE                   Ds3
        BYTE   W12
        BYTE                   Fs3
        BYTE   W12
        BYTE                   Bn3
        BYTE   W12
        BYTE   PEND
// 003   ----------------------------------------
LaLWordsofTrust2_1_3:
        BYTE           N12     Fs3   v127
        BYTE   W12
        BYTE                   As1
        BYTE   W12
        BYTE                   Fn2
        BYTE   W12
        BYTE                   As2
        BYTE   W12
        BYTE                   Cn3
        BYTE   W12
        BYTE                   Cs3
        BYTE   W12
        BYTE                   Fn3
        BYTE   W12
        BYTE                   As3
        BYTE   W12
        BYTE   PEND
// 004   ----------------------------------------
LaLWordsofTrust2_1_4:
        BYTE           N12     Cn4   v127
        BYTE   W12
        BYTE                   Gs1
        BYTE   W12
        BYTE                   Ds2
        BYTE   W12
        BYTE                   Gs2
        BYTE   W12
        BYTE                   As2
        BYTE   W12
        BYTE                   Bn2
        BYTE   W12
        BYTE                   Ds3
        BYTE   W12
        BYTE                   Gs3
        BYTE   W12
        BYTE   PEND
// 005   ----------------------------------------
LaLWordsofTrust2_1_5:
        BYTE           N12     As3   v127
        BYTE   W12
        BYTE                   As1
        BYTE   W12
        BYTE                   Fn2
        BYTE   W12
        BYTE                   As2
        BYTE   W12
        BYTE                   Cn3
        BYTE   W12
        BYTE                   Dn3
        BYTE   W12
        BYTE                   Fn3
        BYTE   W12
        BYTE                   As3
        BYTE   W12
        BYTE   PEND
// 006   ----------------------------------------
LaLWordsofTrust2_1_6:
        BYTE           N12     Gs3   v127
        BYTE   W12
        BYTE                   Ds2
        BYTE   W12
        BYTE                   As2
        BYTE   W12
        BYTE                   Ds3
        BYTE   W12
        BYTE                   Fn3
        BYTE   W12
        BYTE                   Fs3
        BYTE   W12
        BYTE                   As3
        BYTE   W12
        BYTE                   Ds4
        BYTE   W12
        BYTE   PEND
// 007   ----------------------------------------
LaLWordsofTrust2_1_7:
        BYTE           N12     Fn4   v127
        BYTE   W12
        BYTE                   Fs4
        BYTE   W12
        BYTE                   Dn4
        BYTE   W12
        BYTE                   Ds4
        BYTE   W12
        BYTE                   As3
        BYTE   W12
        BYTE                   Gs3
        BYTE   W12
        BYTE                   Fs3
        BYTE   W12
        BYTE           N08     Fn3
        BYTE   W08
        BYTE                   Ds3
        BYTE   W04
        BYTE   PEND
// 008   ----------------------------------------
LaLWordsofTrust2_1_8:
        BYTE   W04
        BYTE           N08     As2   v127
        BYTE   W08
        BYTE           N06     Bn1
        BYTE   W06
        BYTE                   Fs2
        BYTE   W06
        BYTE                   Bn2
        BYTE   W06
        BYTE                   Cs3
        BYTE   W06
        BYTE                   Ds3
        BYTE   W06
        BYTE                   Fs3
        BYTE   W06
        BYTE                   Cs4
        BYTE   W06
        BYTE                   Bn3
        BYTE   W06
        BYTE                   Ds4
        BYTE   W06
        BYTE                   As3
        BYTE   W06
        BYTE                   Bn3
        BYTE   W06
        BYTE                   Fs3
        BYTE   W06
        BYTE                   Ds3
        BYTE   W06
        BYTE                   Cs3
        BYTE   W06
        BYTE   PEND
// 009   ----------------------------------------
LaLWordsofTrust2_1_9:
        BYTE           N06     Bn2   v127
        BYTE   W06
        BYTE                   Fs2
        BYTE   W06
        BYTE                   Cs2
        BYTE   W06
        BYTE                   Gs2
        BYTE   W06
        BYTE                   Cs3
        BYTE   W06
        BYTE                   Ds3
        BYTE   W06
        BYTE                   Fn3
        BYTE   W06
        BYTE                   Gs3
        BYTE   W06
        BYTE                   Ds4
        BYTE   W06
        BYTE                   Cs4
        BYTE   W06
        BYTE                   Fn4
        BYTE   W06
        BYTE                   Cn4
        BYTE   W06
        BYTE                   Cs4
        BYTE   W06
        BYTE                   Gs3
        BYTE   W06
        BYTE                   Fn3
        BYTE   W06
        BYTE                   Ds3
        BYTE   W06
        BYTE   PEND
// 010   ----------------------------------------
LaLWordsofTrust2_1_10:
        BYTE           N06     Cs3   v127
        BYTE   W06
        BYTE                   Gs2
        BYTE   W06
        BYTE                   Ds2
        BYTE   W06
        BYTE                   As2
        BYTE   W06
        BYTE                   Ds3
        BYTE   W06
        BYTE                   Fn3
        BYTE   W06
        BYTE                   Fs3
        BYTE   W06
        BYTE                   As3
        BYTE   W06
        BYTE                   Fn4
        BYTE   W06
        BYTE                   Ds4
        BYTE   W06
        BYTE                   Fs4
        BYTE   W06
        BYTE                   Dn4
        BYTE   W06
        BYTE                   Ds4
        BYTE   W06
        BYTE                   As3
        BYTE   W06
        BYTE                   Fs3
        BYTE   W06
        BYTE                   Fn3
        BYTE   W06
        BYTE   PEND
// 011   ----------------------------------------
LaLWordsofTrust2_1_11:
        BYTE           N06     Ds3   v127
        BYTE   W06
        BYTE                   As2
        BYTE   W06
        BYTE           N08     Fn4
        BYTE   W08
        BYTE                   Ds4
        BYTE   W08
        BYTE                   As3
        BYTE   W08
        BYTE                   Fs3
        BYTE   W08
        BYTE                   Fn3
        BYTE   W08
        BYTE                   Ds3
        BYTE   W08
        BYTE                   As2
        BYTE   W08
        BYTE                   Fs2
        BYTE   W08
        BYTE                   Fn2
        BYTE   W08
        BYTE           N06     As1
        BYTE   W06
        BYTE                   Ds2
        BYTE   W06
        BYTE   PEND
// 012   ----------------------------------------
LaLWordsofTrust2_1_12:
        BYTE           N06     Fn2   v127
        BYTE   W06
        BYTE                   Fs2
        BYTE   W06
        BYTE                   Bn1
        BYTE   W06
        BYTE                   Fs2
        BYTE   W06
        BYTE                   Bn2
        BYTE   W06
        BYTE                   Cs3
        BYTE   W06
        BYTE                   Ds3
        BYTE   W06
        BYTE                   Fs3
        BYTE   W06
        BYTE                   Cs4
        BYTE   W06
        BYTE                   Bn3
        BYTE   W06
        BYTE                   Ds4
        BYTE   W06
        BYTE                   As3
        BYTE   W06
        BYTE                   Bn3
        BYTE   W06
        BYTE                   Fs3
        BYTE   W06
        BYTE                   Ds3
        BYTE   W06
        BYTE                   Cs3
        BYTE   W06
        BYTE   PEND
// 013   ----------------------------------------
        BYTE   PATT
         POIN2  LaLWordsofTrust2_1_9
// 014   ----------------------------------------
        BYTE   PATT
         POIN2  LaLWordsofTrust2_1_10
// 015   ----------------------------------------
LaLWordsofTrust2_1_15:
        BYTE           N06     Ds3   v127
        BYTE   W06
        BYTE                   As2
        BYTE   W06
        BYTE           N08     Fn4
        BYTE   W08
        BYTE                   Ds4
        BYTE   W08
        BYTE                   As3
        BYTE   W08
        BYTE                   Fs3
        BYTE   W08
        BYTE                   Fn3
        BYTE   W08
        BYTE                   Ds3
        BYTE   W08
        BYTE                   As2
        BYTE   W08
        BYTE                   Fs2
        BYTE   W08
        BYTE                   Fn2
        BYTE   W08
        BYTE                   As1
        BYTE   W08
        BYTE                   Ds2
        BYTE   W04
        BYTE   PEND
// 016   ----------------------------------------
LaLWordsofTrust2_1_LOOP:
        BYTE   W04
        BYTE           N08     Fs2   v127
        BYTE   W08
        BYTE           N12     Ds2
        BYTE   W12
        BYTE                   As2
        BYTE   W12
        BYTE                   Ds3
        BYTE   W12
        BYTE                   Fn3
        BYTE   W12
        BYTE                   Fs3
        BYTE   W12
        BYTE                   As3
        BYTE   W12
        BYTE                   Ds4
        BYTE   W12
// 017   ----------------------------------------
        BYTE   PATT
         POIN2  LaLWordsofTrust2_1_1
// 018   ----------------------------------------
        BYTE   PATT
         POIN2  LaLWordsofTrust2_1_2
// 019   ----------------------------------------
        BYTE   PATT
         POIN2  LaLWordsofTrust2_1_3
// 020   ----------------------------------------
        BYTE   PATT
         POIN2  LaLWordsofTrust2_1_4
// 021   ----------------------------------------
        BYTE   PATT
         POIN2  LaLWordsofTrust2_1_5
// 022   ----------------------------------------
        BYTE   PATT
         POIN2  LaLWordsofTrust2_1_6
// 023   ----------------------------------------
        BYTE   PATT
         POIN2  LaLWordsofTrust2_1_7
// 024   ----------------------------------------
        BYTE   PATT
         POIN2  LaLWordsofTrust2_1_8
// 025   ----------------------------------------
        BYTE   PATT
         POIN2  LaLWordsofTrust2_1_9
// 026   ----------------------------------------
        BYTE   PATT
         POIN2  LaLWordsofTrust2_1_10
// 027   ----------------------------------------
        BYTE   PATT
         POIN2  LaLWordsofTrust2_1_11
// 028   ----------------------------------------
        BYTE   PATT
         POIN2  LaLWordsofTrust2_1_12
// 029   ----------------------------------------
        BYTE   PATT
         POIN2  LaLWordsofTrust2_1_9
// 030   ----------------------------------------
        BYTE   PATT
         POIN2  LaLWordsofTrust2_1_10
// 031   ----------------------------------------
LaLWordsofTrust2_1_31:
        BYTE           N06     Ds3   v127
        BYTE   W06
        BYTE                   As2
        BYTE   W06
        BYTE           N08     Fn4
        BYTE   W08
        BYTE                   Ds4
        BYTE   W08
        BYTE                   As3
        BYTE   W08
        BYTE                   Fs3
        BYTE   W08
        BYTE                   Fn3
        BYTE   W08
        BYTE                   Ds3
        BYTE   W08
        BYTE                   As2
        BYTE   W08
        BYTE                   Fs2
        BYTE   W08
        BYTE                   Fn2
        BYTE   W08
        BYTE                   As1
        BYTE   W08
        BYTE           N04     Ds2
        BYTE   W04
        BYTE   PEND
// 032   ----------------------------------------
        BYTE   W12
        BYTE           N12
        BYTE   W12
        BYTE                   As2
        BYTE   W12
        BYTE                   Ds3
        BYTE   W12
        BYTE                   Fn3
        BYTE   W12
        BYTE                   Fs3
        BYTE   W12
        BYTE                   As3
        BYTE   W12
        BYTE                   Ds4
        BYTE   W12
// 033   ----------------------------------------
        BYTE   PATT
         POIN2  LaLWordsofTrust2_1_1
// 034   ----------------------------------------
        BYTE   PATT
         POIN2  LaLWordsofTrust2_1_2
// 035   ----------------------------------------
        BYTE   PATT
         POIN2  LaLWordsofTrust2_1_3
// 036   ----------------------------------------
        BYTE   PATT
         POIN2  LaLWordsofTrust2_1_4
// 037   ----------------------------------------
        BYTE   PATT
         POIN2  LaLWordsofTrust2_1_5
// 038   ----------------------------------------
        BYTE   PATT
         POIN2  LaLWordsofTrust2_1_6
// 039   ----------------------------------------
        BYTE   PATT
         POIN2  LaLWordsofTrust2_1_7
// 040   ----------------------------------------
        BYTE   PATT
         POIN2  LaLWordsofTrust2_1_8
// 041   ----------------------------------------
        BYTE   PATT
         POIN2  LaLWordsofTrust2_1_9
// 042   ----------------------------------------
        BYTE   PATT
         POIN2  LaLWordsofTrust2_1_10
// 043   ----------------------------------------
        BYTE   PATT
         POIN2  LaLWordsofTrust2_1_11
// 044   ----------------------------------------
        BYTE   PATT
         POIN2  LaLWordsofTrust2_1_12
// 045   ----------------------------------------
        BYTE   PATT
         POIN2  LaLWordsofTrust2_1_9
// 046   ----------------------------------------
        BYTE   PATT
         POIN2  LaLWordsofTrust2_1_10
// 047   ----------------------------------------
        BYTE   PATT
         POIN2  LaLWordsofTrust2_1_15
// 048   ----------------------------------------
        BYTE   W04
        BYTE           N08     Fs2   v127
        BYTE   W08
        BYTE           N12     Ds2
        BYTE   W12
        BYTE                   As2
        BYTE   W12
        BYTE                   Ds3
        BYTE   W12
        BYTE                   Fn3
        BYTE   W12
        BYTE                   Fs3
        BYTE   W12
        BYTE                   As3
        BYTE   W12
        BYTE                   Ds4
        BYTE   W12
// 049   ----------------------------------------
        BYTE   PATT
         POIN2  LaLWordsofTrust2_1_1
// 050   ----------------------------------------
        BYTE   PATT
         POIN2  LaLWordsofTrust2_1_2
// 051   ----------------------------------------
        BYTE   PATT
         POIN2  LaLWordsofTrust2_1_3
// 052   ----------------------------------------
        BYTE   PATT
         POIN2  LaLWordsofTrust2_1_4
// 053   ----------------------------------------
        BYTE   PATT
         POIN2  LaLWordsofTrust2_1_5
// 054   ----------------------------------------
        BYTE   PATT
         POIN2  LaLWordsofTrust2_1_6
// 055   ----------------------------------------
        BYTE   PATT
         POIN2  LaLWordsofTrust2_1_7
// 056   ----------------------------------------
        BYTE   PATT
         POIN2  LaLWordsofTrust2_1_8
// 057   ----------------------------------------
        BYTE   PATT
         POIN2  LaLWordsofTrust2_1_9
// 058   ----------------------------------------
        BYTE   PATT
         POIN2  LaLWordsofTrust2_1_10
// 059   ----------------------------------------
        BYTE   PATT
         POIN2  LaLWordsofTrust2_1_11
// 060   ----------------------------------------
        BYTE   PATT
         POIN2  LaLWordsofTrust2_1_12
// 061   ----------------------------------------
        BYTE   PATT
         POIN2  LaLWordsofTrust2_1_9
// 062   ----------------------------------------
        BYTE   PATT
         POIN2  LaLWordsofTrust2_1_10
// 063   ----------------------------------------
        BYTE   PATT
         POIN2  LaLWordsofTrust2_1_31
// 064   ----------------------------------------
        BYTE   GoTo
         POIN2  LaLWordsofTrust2_1_LOOP
        BYTE   W04
        BYTE   FINE

//****************** Track 2 (Midi-Chn.2) ******************//

LaLWordsofTrust2_2:
        BYTE   KEYSH   LaLWordsofTrust2_key+0
// 000   ----------------------------------------
        BYTE           PAN     c_v+61
        BYTE           VOL     32
        BYTE           VOICE   46
        BYTE   W18
        BYTE           N12     Ds2   v127
        BYTE   W12
        BYTE                   As2
        BYTE   W12
        BYTE                   Ds3
        BYTE   W12
        BYTE                   Fn3
        BYTE   W12
        BYTE                   Fs3
        BYTE   W12
        BYTE                   As3
        BYTE   W12
        BYTE                   Ds4
        BYTE   W06
// 001   ----------------------------------------
LaLWordsofTrust2_2_1:
        BYTE   W06
        BYTE           N12     As3   v127
        BYTE   W12
        BYTE                   Cs2
        BYTE   W12
        BYTE                   Gs2
        BYTE   W12
        BYTE                   Cs3
        BYTE   W12
        BYTE                   Ds3
        BYTE   W12
        BYTE                   Fn3
        BYTE   W12
        BYTE                   Gs3
        BYTE   W12
        BYTE                   Cs4
        BYTE   W06
        BYTE   PEND
// 002   ----------------------------------------
LaLWordsofTrust2_2_2:
        BYTE   W06
        BYTE           N12     Gs3   v127
        BYTE   W12
        BYTE                   Bn1
        BYTE   W12
        BYTE                   Fs2
        BYTE   W12
        BYTE                   Bn2
        BYTE   W12
        BYTE                   Cs3
        BYTE   W12
        BYTE                   Ds3
        BYTE   W12
        BYTE                   Fs3
        BYTE   W12
        BYTE                   Bn3
        BYTE   W06
        BYTE   PEND
// 003   ----------------------------------------
LaLWordsofTrust2_2_3:
        BYTE   W06
        BYTE           N12     Fs3   v127
        BYTE   W12
        BYTE                   As1
        BYTE   W12
        BYTE                   Fn2
        BYTE   W12
        BYTE                   As2
        BYTE   W12
        BYTE                   Cn3
        BYTE   W12
        BYTE                   Cs3
        BYTE   W12
        BYTE                   Fn3
        BYTE   W12
        BYTE                   As3
        BYTE   W06
        BYTE   PEND
// 004   ----------------------------------------
LaLWordsofTrust2_2_4:
        BYTE   W06
        BYTE           N12     Cn4   v127
        BYTE   W12
        BYTE                   Gs1
        BYTE   W12
        BYTE                   Ds2
        BYTE   W12
        BYTE                   Gs2
        BYTE   W12
        BYTE                   As2
        BYTE   W12
        BYTE                   Bn2
        BYTE   W12
        BYTE                   Ds3
        BYTE   W12
        BYTE                   Gs3
        BYTE   W06
        BYTE   PEND
// 005   ----------------------------------------
LaLWordsofTrust2_2_5:
        BYTE   W06
        BYTE           N12     As3   v127
        BYTE   W12
        BYTE                   As1
        BYTE   W12
        BYTE                   Fn2
        BYTE   W12
        BYTE                   As2
        BYTE   W12
        BYTE                   Cn3
        BYTE   W12
        BYTE                   Dn3
        BYTE   W12
        BYTE                   Fn3
        BYTE   W12
        BYTE                   As3
        BYTE   W06
        BYTE   PEND
// 006   ----------------------------------------
LaLWordsofTrust2_2_6:
        BYTE   W06
        BYTE           N12     Gs3   v127
        BYTE   W12
        BYTE                   Ds2
        BYTE   W12
        BYTE                   As2
        BYTE   W12
        BYTE                   Ds3
        BYTE   W12
        BYTE                   Fn3
        BYTE   W12
        BYTE                   Fs3
        BYTE   W12
        BYTE                   As3
        BYTE   W12
        BYTE                   Ds4
        BYTE   W06
        BYTE   PEND
// 007   ----------------------------------------
LaLWordsofTrust2_2_7:
        BYTE   W06
        BYTE           N12     Fn4   v127
        BYTE   W12
        BYTE                   Fs4
        BYTE   W12
        BYTE                   Dn4
        BYTE   W12
        BYTE                   Ds4
        BYTE   W12
        BYTE                   As3
        BYTE   W12
        BYTE                   Gs3
        BYTE   W12
        BYTE                   Fs3
        BYTE   W12
        BYTE           N08     Fn3
        BYTE   W06
        BYTE   PEND
// 008   ----------------------------------------
LaLWordsofTrust2_2_8:
        BYTE   W02
        BYTE           N08     Ds3   v127
        BYTE   W08
        BYTE                   As2
        BYTE   W08
        BYTE           N06     Bn1
        BYTE   W06
        BYTE                   Fs2
        BYTE   W06
        BYTE                   Bn2
        BYTE   W06
        BYTE                   Cs3
        BYTE   W06
        BYTE                   Ds3
        BYTE   W06
        BYTE                   Fs3
        BYTE   W06
        BYTE                   Cs4
        BYTE   W06
        BYTE                   Bn3
        BYTE   W06
        BYTE                   Ds4
        BYTE   W06
        BYTE                   As3
        BYTE   W06
        BYTE                   Bn3
        BYTE   W06
        BYTE                   Fs3
        BYTE   W06
        BYTE                   Ds3
        BYTE   W06
        BYTE   PEND
// 009   ----------------------------------------
LaLWordsofTrust2_2_9:
        BYTE           N06     Cs3   v127
        BYTE   W06
        BYTE                   Bn2
        BYTE   W06
        BYTE                   Fs2
        BYTE   W06
        BYTE                   Cs2
        BYTE   W06
        BYTE                   Gs2
        BYTE   W06
        BYTE                   Cs3
        BYTE   W06
        BYTE                   Ds3
        BYTE   W06
        BYTE                   Fn3
        BYTE   W06
        BYTE                   Gs3
        BYTE   W06
        BYTE                   Ds4
        BYTE   W06
        BYTE                   Cs4
        BYTE   W06
        BYTE                   Fn4
        BYTE   W06
        BYTE                   Cn4
        BYTE   W06
        BYTE                   Cs4
        BYTE   W06
        BYTE                   Gs3
        BYTE   W06
        BYTE                   Fn3
        BYTE   W06
        BYTE   PEND
// 010   ----------------------------------------
LaLWordsofTrust2_2_10:
        BYTE           N06     Ds3   v127
        BYTE   W06
        BYTE                   Cs3
        BYTE   W06
        BYTE                   Gs2
        BYTE   W06
        BYTE                   Ds2
        BYTE   W06
        BYTE                   As2
        BYTE   W06
        BYTE                   Ds3
        BYTE   W06
        BYTE                   Fn3
        BYTE   W06
        BYTE                   Fs3
        BYTE   W06
        BYTE                   As3
        BYTE   W06
        BYTE                   Fn4
        BYTE   W06
        BYTE                   Ds4
        BYTE   W06
        BYTE                   Fs4
        BYTE   W06
        BYTE                   Dn4
        BYTE   W06
        BYTE                   Ds4
        BYTE   W06
        BYTE                   As3
        BYTE   W06
        BYTE                   Fs3
        BYTE   W06
        BYTE   PEND
// 011   ----------------------------------------
LaLWordsofTrust2_2_11:
        BYTE           N06     Fn3   v127
        BYTE   W06
        BYTE                   Ds3
        BYTE   W06
        BYTE                   As2
        BYTE   W06
        BYTE           N08     Fn4
        BYTE   W08
        BYTE                   Ds4
        BYTE   W08
        BYTE                   As3
        BYTE   W08
        BYTE                   Fs3
        BYTE   W08
        BYTE                   Fn3
        BYTE   W08
        BYTE                   Ds3
        BYTE   W08
        BYTE                   As2
        BYTE   W08
        BYTE                   Fs2
        BYTE   W08
        BYTE                   Fn2
        BYTE   W08
        BYTE           N06     As1
        BYTE   W06
        BYTE   PEND
// 012   ----------------------------------------
LaLWordsofTrust2_2_12:
        BYTE           N06     Ds2   v127
        BYTE   W06
        BYTE                   Fn2
        BYTE   W06
        BYTE                   Fs2
        BYTE   W06
        BYTE                   Bn1
        BYTE   W06
        BYTE                   Fs2
        BYTE   W06
        BYTE                   Bn2
        BYTE   W06
        BYTE                   Cs3
        BYTE   W06
        BYTE                   Ds3
        BYTE   W06
        BYTE                   Fs3
        BYTE   W06
        BYTE                   Cs4
        BYTE   W06
        BYTE                   Bn3
        BYTE   W06
        BYTE                   Ds4
        BYTE   W06
        BYTE                   As3
        BYTE   W06
        BYTE                   Bn3
        BYTE   W06
        BYTE                   Fs3
        BYTE   W06
        BYTE                   Ds3
        BYTE   W06
        BYTE   PEND
// 013   ----------------------------------------
        BYTE   PATT
         POIN2  LaLWordsofTrust2_2_9
// 014   ----------------------------------------
        BYTE   PATT
         POIN2  LaLWordsofTrust2_2_10
// 015   ----------------------------------------
LaLWordsofTrust2_2_15:
        BYTE           N06     Fn3   v127
        BYTE   W06
        BYTE                   Ds3
        BYTE   W06
        BYTE                   As2
        BYTE   W06
        BYTE           N08     Fn4
        BYTE   W08
        BYTE                   Ds4
        BYTE   W08
        BYTE                   As3
        BYTE   W08
        BYTE                   Fs3
        BYTE   W08
        BYTE                   Fn3
        BYTE   W08
        BYTE                   Ds3
        BYTE   W08
        BYTE                   As2
        BYTE   W08
        BYTE                   Fs2
        BYTE   W08
        BYTE                   Fn2
        BYTE   W08
        BYTE                   As1
        BYTE   W06
        BYTE   PEND
// 016   ----------------------------------------
LaLWordsofTrust2_2_LOOP:
        BYTE   W02
        BYTE           N08     Ds2   v127
        BYTE   W08
        BYTE                   Fs2
        BYTE   W08
        BYTE           N12     Ds2
        BYTE   W12
        BYTE                   As2
        BYTE   W12
        BYTE                   Ds3
        BYTE   W12
        BYTE                   Fn3
        BYTE   W12
        BYTE                   Fs3
        BYTE   W12
        BYTE                   As3
        BYTE   W12
        BYTE                   Ds4
        BYTE   W06
// 017   ----------------------------------------
        BYTE   PATT
         POIN2  LaLWordsofTrust2_2_1
// 018   ----------------------------------------
        BYTE   PATT
         POIN2  LaLWordsofTrust2_2_2
// 019   ----------------------------------------
        BYTE   PATT
         POIN2  LaLWordsofTrust2_2_3
// 020   ----------------------------------------
        BYTE   PATT
         POIN2  LaLWordsofTrust2_2_4
// 021   ----------------------------------------
        BYTE   PATT
         POIN2  LaLWordsofTrust2_2_5
// 022   ----------------------------------------
        BYTE   PATT
         POIN2  LaLWordsofTrust2_2_6
// 023   ----------------------------------------
        BYTE   PATT
         POIN2  LaLWordsofTrust2_2_7
// 024   ----------------------------------------
        BYTE   PATT
         POIN2  LaLWordsofTrust2_2_8
// 025   ----------------------------------------
        BYTE   PATT
         POIN2  LaLWordsofTrust2_2_9
// 026   ----------------------------------------
        BYTE   PATT
         POIN2  LaLWordsofTrust2_2_10
// 027   ----------------------------------------
        BYTE   PATT
         POIN2  LaLWordsofTrust2_2_11
// 028   ----------------------------------------
        BYTE   PATT
         POIN2  LaLWordsofTrust2_2_12
// 029   ----------------------------------------
        BYTE   PATT
         POIN2  LaLWordsofTrust2_2_9
// 030   ----------------------------------------
        BYTE   PATT
         POIN2  LaLWordsofTrust2_2_10
// 031   ----------------------------------------
        BYTE   PATT
         POIN2  LaLWordsofTrust2_2_11
// 032   ----------------------------------------
        BYTE   W18
        BYTE           N12     Ds2   v127
        BYTE   W12
        BYTE                   As2
        BYTE   W12
        BYTE                   Ds3
        BYTE   W12
        BYTE                   Fn3
        BYTE   W12
        BYTE                   Fs3
        BYTE   W12
        BYTE                   As3
        BYTE   W12
        BYTE                   Ds4
        BYTE   W06
// 033   ----------------------------------------
        BYTE   PATT
         POIN2  LaLWordsofTrust2_2_1
// 034   ----------------------------------------
        BYTE   PATT
         POIN2  LaLWordsofTrust2_2_2
// 035   ----------------------------------------
        BYTE   PATT
         POIN2  LaLWordsofTrust2_2_3
// 036   ----------------------------------------
        BYTE   PATT
         POIN2  LaLWordsofTrust2_2_4
// 037   ----------------------------------------
        BYTE   PATT
         POIN2  LaLWordsofTrust2_2_5
// 038   ----------------------------------------
        BYTE   PATT
         POIN2  LaLWordsofTrust2_2_6
// 039   ----------------------------------------
        BYTE   PATT
         POIN2  LaLWordsofTrust2_2_7
// 040   ----------------------------------------
        BYTE   PATT
         POIN2  LaLWordsofTrust2_2_8
// 041   ----------------------------------------
        BYTE   PATT
         POIN2  LaLWordsofTrust2_2_9
// 042   ----------------------------------------
        BYTE   PATT
         POIN2  LaLWordsofTrust2_2_10
// 043   ----------------------------------------
        BYTE   PATT
         POIN2  LaLWordsofTrust2_2_11
// 044   ----------------------------------------
        BYTE   PATT
         POIN2  LaLWordsofTrust2_2_12
// 045   ----------------------------------------
        BYTE   PATT
         POIN2  LaLWordsofTrust2_2_9
// 046   ----------------------------------------
        BYTE   PATT
         POIN2  LaLWordsofTrust2_2_10
// 047   ----------------------------------------
        BYTE   PATT
         POIN2  LaLWordsofTrust2_2_15
// 048   ----------------------------------------
        BYTE   W02
        BYTE           N08     Ds2   v127
        BYTE   W08
        BYTE                   Fs2
        BYTE   W08
        BYTE           N12     Ds2
        BYTE   W12
        BYTE                   As2
        BYTE   W12
        BYTE                   Ds3
        BYTE   W12
        BYTE                   Fn3
        BYTE   W12
        BYTE                   Fs3
        BYTE   W12
        BYTE                   As3
        BYTE   W12
        BYTE                   Ds4
        BYTE   W06
// 049   ----------------------------------------
        BYTE   PATT
         POIN2  LaLWordsofTrust2_2_1
// 050   ----------------------------------------
        BYTE   PATT
         POIN2  LaLWordsofTrust2_2_2
// 051   ----------------------------------------
        BYTE   PATT
         POIN2  LaLWordsofTrust2_2_3
// 052   ----------------------------------------
        BYTE   PATT
         POIN2  LaLWordsofTrust2_2_4
// 053   ----------------------------------------
        BYTE   PATT
         POIN2  LaLWordsofTrust2_2_5
// 054   ----------------------------------------
        BYTE   PATT
         POIN2  LaLWordsofTrust2_2_6
// 055   ----------------------------------------
        BYTE   PATT
         POIN2  LaLWordsofTrust2_2_7
// 056   ----------------------------------------
        BYTE   PATT
         POIN2  LaLWordsofTrust2_2_8
// 057   ----------------------------------------
        BYTE   PATT
         POIN2  LaLWordsofTrust2_2_9
// 058   ----------------------------------------
        BYTE   PATT
         POIN2  LaLWordsofTrust2_2_10
// 059   ----------------------------------------
        BYTE   PATT
         POIN2  LaLWordsofTrust2_2_11
// 060   ----------------------------------------
        BYTE   PATT
         POIN2  LaLWordsofTrust2_2_12
// 061   ----------------------------------------
        BYTE   PATT
         POIN2  LaLWordsofTrust2_2_9
// 062   ----------------------------------------
        BYTE   PATT
         POIN2  LaLWordsofTrust2_2_10
// 063   ----------------------------------------
        BYTE   PATT
         POIN2  LaLWordsofTrust2_2_11
// 064   ----------------------------------------
        BYTE   GoTo
         POIN2  LaLWordsofTrust2_2_LOOP
        BYTE   W04
        BYTE   FINE

//***************** Track 3 (Midi-Chn.10) ******************//

LaLWordsofTrust2_3:
        BYTE   KEYSH   LaLWordsofTrust2_key+0
// 000   ----------------------------------------
        BYTE           PAN     c_v+3
        BYTE           VOICE   40
        BYTE           VOL     103
        BYTE   W96
// 001   ----------------------------------------
        BYTE   W96
// 002   ----------------------------------------
        BYTE   W96
// 003   ----------------------------------------
        BYTE   W96
// 004   ----------------------------------------
        BYTE   W96
// 005   ----------------------------------------
        BYTE   W96
// 006   ----------------------------------------
        BYTE   W96
// 007   ----------------------------------------
        BYTE   W96
// 008   ----------------------------------------
        BYTE   W96
// 009   ----------------------------------------
        BYTE   W96
// 010   ----------------------------------------
        BYTE   W96
// 011   ----------------------------------------
        BYTE   W96
// 012   ----------------------------------------
        BYTE   W96
// 013   ----------------------------------------
        BYTE   W96
// 014   ----------------------------------------
        BYTE   W96
// 015   ----------------------------------------
        BYTE   W72
        BYTE           N12     As1   v051
        BYTE   W12
        BYTE                   Cs2
        BYTE   W12
// 016   ----------------------------------------
LaLWordsofTrust2_3_LOOP:
        BYTE           N96     Ds2   v064
        BYTE   W96
// 017   ----------------------------------------
        BYTE                   Cs2
        BYTE   W96
// 018   ----------------------------------------
        BYTE                   Bn1
        BYTE   W96
// 019   ----------------------------------------
LaLWordsofTrust2_3_19:
        BYTE           N72     As1   v064
        BYTE   W72
        BYTE           N12
        BYTE   W12
        BYTE                   Cs2
        BYTE   W12
        BYTE   PEND
// 020   ----------------------------------------
        BYTE           N96     Ds2
        BYTE   W96
// 021   ----------------------------------------
LaLWordsofTrust2_3_21:
        BYTE           N72     Fn2   v064
        BYTE   W72
        BYTE           N12     Fs2
        BYTE   W12
        BYTE                   Gs2
        BYTE   W12
        BYTE   PEND
// 022   ----------------------------------------
        BYTE           N96     Fs2
        BYTE   W96
// 023   ----------------------------------------
LaLWordsofTrust2_3_23:
        BYTE           N72     Fn2   v064
        BYTE   W72
        BYTE           N12     As1
        BYTE   W12
        BYTE                   Cs2
        BYTE   W12
        BYTE   PEND
// 024   ----------------------------------------
LaLWordsofTrust2_3_24:
        BYTE           N72     Ds2   v064
        BYTE   W72
        BYTE           N12     As1
        BYTE   W12
        BYTE                   Cs2
        BYTE   W12
        BYTE   PEND
// 025   ----------------------------------------
LaLWordsofTrust2_3_25:
        BYTE           N36     Ds2   v064
        BYTE   W36
        BYTE           N12     Fs2
        BYTE   W12
        BYTE                   Gs2
        BYTE   W12
        BYTE                   Fs2
        BYTE   W12
        BYTE                   Fn2
        BYTE   W12
        BYTE                   Fs2
        BYTE   W12
        BYTE   PEND
// 026   ----------------------------------------
        BYTE           N96     Ds2
        BYTE   W96
// 027   ----------------------------------------
LaLWordsofTrust2_3_27:
        BYTE           N72     Cs2   v064
        BYTE   W72
        BYTE           N12     As1
        BYTE   W12
        BYTE                   Cs2
        BYTE   W12
        BYTE   PEND
// 028   ----------------------------------------
        BYTE   PATT
         POIN2  LaLWordsofTrust2_3_24
// 029   ----------------------------------------
        BYTE   PATT
         POIN2  LaLWordsofTrust2_3_25
// 030   ----------------------------------------
        BYTE           N96     Ds2   v064
        BYTE   W96
// 031   ----------------------------------------
        BYTE   PATT
         POIN2  LaLWordsofTrust2_3_27
// 032   ----------------------------------------
        BYTE           N96     Ds2   v064
        BYTE   W96
// 033   ----------------------------------------
        BYTE                   Cs2
        BYTE   W96
// 034   ----------------------------------------
        BYTE                   Bn1
        BYTE   W96
// 035   ----------------------------------------
        BYTE   PATT
         POIN2  LaLWordsofTrust2_3_19
// 036   ----------------------------------------
        BYTE           N96     Ds2   v064
        BYTE   W96
// 037   ----------------------------------------
        BYTE   PATT
         POIN2  LaLWordsofTrust2_3_21
// 038   ----------------------------------------
        BYTE           N96     Fs2   v064
        BYTE   W96
// 039   ----------------------------------------
        BYTE   PATT
         POIN2  LaLWordsofTrust2_3_23
// 040   ----------------------------------------
        BYTE   PATT
         POIN2  LaLWordsofTrust2_3_24
// 041   ----------------------------------------
        BYTE   PATT
         POIN2  LaLWordsofTrust2_3_25
// 042   ----------------------------------------
        BYTE           N96     Ds2   v064
        BYTE   W96
// 043   ----------------------------------------
        BYTE   PATT
         POIN2  LaLWordsofTrust2_3_27
// 044   ----------------------------------------
        BYTE   PATT
         POIN2  LaLWordsofTrust2_3_24
// 045   ----------------------------------------
        BYTE   PATT
         POIN2  LaLWordsofTrust2_3_25
// 046   ----------------------------------------
        BYTE           N96     Ds2   v064
        BYTE   W96
// 047   ----------------------------------------
        BYTE   PATT
         POIN2  LaLWordsofTrust2_3_27
// 048   ----------------------------------------
        BYTE   W96
// 049   ----------------------------------------
        BYTE   W96
// 050   ----------------------------------------
        BYTE   W96
// 051   ----------------------------------------
        BYTE   W96
// 052   ----------------------------------------
        BYTE   W96
// 053   ----------------------------------------
        BYTE   W96
// 054   ----------------------------------------
        BYTE   W96
// 055   ----------------------------------------
        BYTE   W96
// 056   ----------------------------------------
        BYTE   W96
// 057   ----------------------------------------
        BYTE   W96
// 058   ----------------------------------------
        BYTE   W96
// 059   ----------------------------------------
        BYTE   W96
// 060   ----------------------------------------
        BYTE   W96
// 061   ----------------------------------------
        BYTE   W96
// 062   ----------------------------------------
        BYTE   W96
// 063   ----------------------------------------
        BYTE   W96
// 064   ----------------------------------------
        BYTE   GoTo
         POIN2  LaLWordsofTrust2_3_LOOP
        BYTE   W04
        BYTE   FINE

//***************** Track 4 (Midi-Chn.11) ******************//

LaLWordsofTrust2_4:
        BYTE   KEYSH   LaLWordsofTrust2_key+0
// 000   ----------------------------------------
        BYTE           VOICE   52
        BYTE   W96
// 001   ----------------------------------------
        BYTE   W96
// 002   ----------------------------------------
        BYTE   W96
// 003   ----------------------------------------
        BYTE   W96
// 004   ----------------------------------------
        BYTE   W96
// 005   ----------------------------------------
        BYTE   W96
// 006   ----------------------------------------
        BYTE   W96
// 007   ----------------------------------------
        BYTE   W96
// 008   ----------------------------------------
        BYTE   W96
// 009   ----------------------------------------
        BYTE   W96
// 010   ----------------------------------------
        BYTE   W96
// 011   ----------------------------------------
        BYTE   W96
// 012   ----------------------------------------
        BYTE   W96
// 013   ----------------------------------------
        BYTE   W96
// 014   ----------------------------------------
        BYTE   W96
// 015   ----------------------------------------
        BYTE   W96
// 016   ----------------------------------------
LaLWordsofTrust2_4_LOOP:
        BYTE   W96
// 017   ----------------------------------------
        BYTE   W96
// 018   ----------------------------------------
        BYTE   W96
// 019   ----------------------------------------
        BYTE   W96
// 020   ----------------------------------------
        BYTE   W96
// 021   ----------------------------------------
        BYTE   W96
// 022   ----------------------------------------
        BYTE   W96
// 023   ----------------------------------------
        BYTE   W96
// 024   ----------------------------------------
        BYTE   W96
// 025   ----------------------------------------
        BYTE   W96
// 026   ----------------------------------------
        BYTE   W96
// 027   ----------------------------------------
        BYTE   W96
// 028   ----------------------------------------
        BYTE   W96
// 029   ----------------------------------------
        BYTE   W96
// 030   ----------------------------------------
        BYTE   W96
// 031   ----------------------------------------
        BYTE   W96
// 032   ----------------------------------------
        BYTE   W96
// 033   ----------------------------------------
        BYTE   W96
// 034   ----------------------------------------
        BYTE   W96
// 035   ----------------------------------------
        BYTE   W96
// 036   ----------------------------------------
        BYTE   W96
// 037   ----------------------------------------
        BYTE   W96
// 038   ----------------------------------------
        BYTE   W96
// 039   ----------------------------------------
        BYTE   W96
// 040   ----------------------------------------
        BYTE   W96
// 041   ----------------------------------------
        BYTE           PAN     c_v-32
        BYTE           VOL     31
        BYTE           MOD     47
        BYTE   W96
// 042   ----------------------------------------
        BYTE   W96
// 043   ----------------------------------------
        BYTE   W96
// 044   ----------------------------------------
        BYTE   W96
// 045   ----------------------------------------
        BYTE   W96
// 046   ----------------------------------------
        BYTE   W96
// 047   ----------------------------------------
        BYTE   W92
        BYTE   W02
        BYTE           N92     As3   v100   gtp3
        BYTE           VOL     59
        BYTE           MOD     48
        BYTE   W01
        BYTE           VOL     61
        BYTE           MOD     47
        BYTE   W01
// 048   ----------------------------------------
        BYTE           VOL     63
        BYTE   W04
        BYTE                   62
        BYTE   W04
        BYTE                   61
        BYTE   W04
        BYTE                   60
        BYTE   W04
        BYTE                   59
        BYTE   W04
        BYTE                   58
        BYTE   W04
        BYTE                   57
        BYTE   W04
        BYTE                   56
        BYTE   W04
        BYTE                   55
        BYTE   W04
        BYTE                   54
        BYTE   W04
        BYTE                   53
        BYTE   W04
        BYTE                   52
        BYTE   W04
        BYTE                   51
        BYTE   W04
        BYTE                   50
        BYTE   W04
        BYTE                   49
        BYTE   W04
        BYTE                   48
        BYTE   W04
        BYTE                   47
        BYTE   W04
        BYTE                   46
        BYTE   W04
        BYTE                   45
        BYTE   W04
        BYTE                   44
        BYTE   W03
        BYTE                   43
        BYTE   W05
        BYTE                   42
        BYTE   W03
        BYTE                   41
        BYTE   W07
        BYTE           N44     Gs3   v100   gtp3
        BYTE           VOL     44
        BYTE   W01
        BYTE                   55
        BYTE   W01
// 049   ----------------------------------------
        BYTE                   64
        BYTE   W01
        BYTE                   63
        BYTE   W01
        BYTE                   64
        BYTE   W02
        BYTE                   63
        BYTE   W02
        BYTE                   62
        BYTE   W05
        BYTE                   61
        BYTE   W04
        BYTE                   60
        BYTE   W05
        BYTE                   59
        BYTE   W05
        BYTE                   58
        BYTE   W05
        BYTE                   57
        BYTE   W04
        BYTE                   56
        BYTE   W05
        BYTE                   55
        BYTE   W05
        BYTE                   54
        BYTE   W01
        BYTE                   53
        BYTE   W01
        BYTE           N23     Fs3
        BYTE           VOL     57
        BYTE   W01
        BYTE                   62
        BYTE   W01
        BYTE                   63
        BYTE   W02
        BYTE                   62
        BYTE   W02
        BYTE                   61
        BYTE   W03
        BYTE                   60
        BYTE   W03
        BYTE                   59
        BYTE   W02
        BYTE                   58
        BYTE   W03
        BYTE                   57
        BYTE   W02
        BYTE                   56
        BYTE   W03
        BYTE                   55
        BYTE   W01
        BYTE                   57
        BYTE   W01
        BYTE           N23     Fn3
        BYTE           VOL     58
        BYTE   W01
        BYTE                   61
        BYTE   W01
        BYTE                   63
        BYTE   W01
        BYTE                   62
        BYTE   W03
        BYTE                   61
        BYTE   W02
        BYTE                   60
        BYTE   W02
        BYTE                   59
        BYTE   W03
        BYTE                   58
        BYTE   W02
        BYTE                   57
        BYTE   W02
        BYTE                   56
        BYTE   W02
        BYTE                   55
        BYTE   W03
        BYTE                   54
        BYTE   W02
        BYTE           N92     Ds3   v100   gtp3
        BYTE           VOL     57
        BYTE   W01
        BYTE                   61
        BYTE   W01
// 050   ----------------------------------------
        BYTE                   64
        BYTE   W02
        BYTE                   63
        BYTE   W02
        BYTE                   62
        BYTE   W04
        BYTE                   61
        BYTE   W04
        BYTE                   60
        BYTE   W04
        BYTE                   59
        BYTE   W04
        BYTE                   58
        BYTE   W04
        BYTE                   57
        BYTE   W04
        BYTE                   56
        BYTE   W04
        BYTE                   55
        BYTE   W04
        BYTE                   54
        BYTE   W04
        BYTE                   53
        BYTE   W04
        BYTE                   52
        BYTE   W04
        BYTE                   51
        BYTE   W04
        BYTE                   50
        BYTE   W04
        BYTE                   49
        BYTE   W04
        BYTE                   48
        BYTE   W04
        BYTE                   47
        BYTE   W04
        BYTE                   46
        BYTE   W04
        BYTE                   45
        BYTE   W04
        BYTE                   44
        BYTE   W04
        BYTE                   43
        BYTE   W04
        BYTE                   42
        BYTE   W04
        BYTE                   41
        BYTE   W04
        BYTE                   43
        BYTE   W01
        BYTE                   49
        BYTE   W01
        BYTE           N92     Fn3   v100   gtp3
        BYTE           VOL     54
        BYTE   W01
        BYTE                   60
        BYTE   W01
// 051   ----------------------------------------
        BYTE                   63
        BYTE   W04
        BYTE                   62
        BYTE   W04
        BYTE                   61
        BYTE   W04
        BYTE                   60
        BYTE   W03
        BYTE                   59
        BYTE   W04
        BYTE                   58
        BYTE   W04
        BYTE                   57
        BYTE   W04
        BYTE                   56
        BYTE   W04
        BYTE                   55
        BYTE   W03
        BYTE                   54
        BYTE   W04
        BYTE                   53
        BYTE   W04
        BYTE                   52
        BYTE   W04
        BYTE                   51
        BYTE   W03
        BYTE                   50
        BYTE   W04
        BYTE                   49
        BYTE   W04
        BYTE                   48
        BYTE   W04
        BYTE                   47
        BYTE   W03
        BYTE                   46
        BYTE   W04
        BYTE                   45
        BYTE   W04
        BYTE                   44
        BYTE   W04
        BYTE                   43
        BYTE   W04
        BYTE                   42
        BYTE   W04
        BYTE                   41
        BYTE   W03
        BYTE                   40
        BYTE   W04
        BYTE                   39
        BYTE   W02
        BYTE                   46
        BYTE   W01
        BYTE           N92     Fs3   v100   gtp3
        BYTE           VOL     53
        BYTE   W01
        BYTE                   63
        BYTE   W01
// 052   ----------------------------------------
        BYTE   W03
        BYTE                   62
        BYTE   W04
        BYTE                   61
        BYTE   W04
        BYTE                   60
        BYTE   W04
        BYTE                   59
        BYTE   W04
        BYTE                   58
        BYTE   W04
        BYTE                   57
        BYTE   W04
        BYTE                   56
        BYTE   W04
        BYTE                   55
        BYTE   W04
        BYTE                   54
        BYTE   W04
        BYTE                   53
        BYTE   W04
        BYTE                   52
        BYTE   W04
        BYTE                   51
        BYTE   W04
        BYTE                   50
        BYTE   W04
        BYTE                   49
        BYTE   W04
        BYTE                   48
        BYTE   W04
        BYTE                   47
        BYTE   W04
        BYTE                   46
        BYTE   W04
        BYTE                   45
        BYTE   W04
        BYTE                   44
        BYTE   W04
        BYTE                   43
        BYTE   W04
        BYTE                   42
        BYTE   W04
        BYTE                   41
        BYTE   W04
        BYTE                   40
        BYTE   W02
        BYTE                   42
        BYTE   W01
        BYTE           N92     Gs3   v100   gtp3
        BYTE           VOL     49
        BYTE   W01
        BYTE                   60
        BYTE   W01
// 053   ----------------------------------------
        BYTE                   62
        BYTE   W05
        BYTE                   61
        BYTE   W04
        BYTE                   60
        BYTE   W04
        BYTE                   59
        BYTE   W05
        BYTE                   58
        BYTE   W04
        BYTE                   57
        BYTE   W05
        BYTE                   56
        BYTE   W04
        BYTE                   55
        BYTE   W05
        BYTE                   54
        BYTE   W04
        BYTE                   53
        BYTE   W04
        BYTE                   52
        BYTE   W05
        BYTE                   51
        BYTE   W04
        BYTE                   50
        BYTE   W05
        BYTE                   49
        BYTE   W04
        BYTE                   48
        BYTE   W04
        BYTE                   47
        BYTE   W05
        BYTE                   46
        BYTE   W04
        BYTE                   45
        BYTE   W05
        BYTE                   44
        BYTE   W04
        BYTE                   43
        BYTE   W04
        BYTE                   42
        BYTE   W04
        BYTE                   40
        BYTE   W01
        BYTE                   47
        BYTE   W01
        BYTE           TIE     As3
        BYTE           VOL     52
        BYTE   W01
        BYTE                   59
        BYTE   W01
// 054   ----------------------------------------
        BYTE                   63
        BYTE   W02
        BYTE                   62
        BYTE   W04
        BYTE                   61
        BYTE   W04
        BYTE                   60
        BYTE   W04
        BYTE                   59
        BYTE   W04
        BYTE                   58
        BYTE   W04
        BYTE                   57
        BYTE   W04
        BYTE                   56
        BYTE   W04
        BYTE                   55
        BYTE   W04
        BYTE                   54
        BYTE   W04
        BYTE                   53
        BYTE   W04
        BYTE                   52
        BYTE   W04
        BYTE                   51
        BYTE   W04
        BYTE                   50
        BYTE   W04
        BYTE                   49
        BYTE   W04
        BYTE                   48
        BYTE   W04
        BYTE                   47
        BYTE   W03
        BYTE                   46
        BYTE   W04
        BYTE                   45
        BYTE   W04
        BYTE                   44
        BYTE   W04
        BYTE                   43
        BYTE   W04
        BYTE                   42
        BYTE   W04
        BYTE                   41
        BYTE   W04
        BYTE                   40
        BYTE   W04
        BYTE                   39
        BYTE   W03
// 055   ----------------------------------------
        BYTE   W01
        BYTE                   38
        BYTE   W04
        BYTE                   37
        BYTE   W04
        BYTE                   36
        BYTE   W04
        BYTE                   35
        BYTE   W04
        BYTE                   34
        BYTE   W04
        BYTE           EOT
        BYTE           VOL     33
        BYTE   W04
        BYTE                   32
        BYTE   W03
        BYTE                   31
        BYTE   W64
        BYTE   W01
        BYTE                   64
        BYTE   W03
// 056   ----------------------------------------
        BYTE   W96
// 057   ----------------------------------------
        BYTE   W96
// 058   ----------------------------------------
        BYTE   W96
// 059   ----------------------------------------
        BYTE   W96
// 060   ----------------------------------------
        BYTE   W96
// 061   ----------------------------------------
        BYTE   W96
// 062   ----------------------------------------
        BYTE   W96
// 063   ----------------------------------------
        BYTE   W96
// 064   ----------------------------------------
        BYTE                   100
        BYTE           PAN     c_v+0
        BYTE           MOD     0
        BYTE   GoTo
         POIN2  LaLWordsofTrust2_4_LOOP
        BYTE   W04
        BYTE   FINE

//***************** Track 5 (Midi-Chn.12) ******************//

LaLWordsofTrust2_5:
        BYTE   KEYSH   LaLWordsofTrust2_key+0
// 000   ----------------------------------------
        BYTE           VOL     76
        BYTE           VOICE   48
        BYTE   W96
// 001   ----------------------------------------
        BYTE   W96
// 002   ----------------------------------------
        BYTE   W96
// 003   ----------------------------------------
        BYTE   W96
// 004   ----------------------------------------
        BYTE   W96
// 005   ----------------------------------------
        BYTE   W96
// 006   ----------------------------------------
        BYTE   W96
// 007   ----------------------------------------
        BYTE   W96
// 008   ----------------------------------------
        BYTE   W96
// 009   ----------------------------------------
        BYTE   W96
// 010   ----------------------------------------
        BYTE   W96
// 011   ----------------------------------------
        BYTE   W96
// 012   ----------------------------------------
        BYTE   W96
// 013   ----------------------------------------
        BYTE   W96
// 014   ----------------------------------------
        BYTE   W96
// 015   ----------------------------------------
        BYTE   W96
// 016   ----------------------------------------
LaLWordsofTrust2_5_LOOP:
        BYTE   W96
// 017   ----------------------------------------
        BYTE   W96
// 018   ----------------------------------------
        BYTE   W96
// 019   ----------------------------------------
        BYTE   W96
// 020   ----------------------------------------
        BYTE   W96
// 021   ----------------------------------------
        BYTE   W96
// 022   ----------------------------------------
        BYTE   W96
// 023   ----------------------------------------
        BYTE   W96
// 024   ----------------------------------------
        BYTE   W96
// 025   ----------------------------------------
        BYTE   W96
// 026   ----------------------------------------
        BYTE   W96
// 027   ----------------------------------------
        BYTE   W96
// 028   ----------------------------------------
        BYTE   W96
// 029   ----------------------------------------
        BYTE   W96
// 030   ----------------------------------------
        BYTE   W96
// 031   ----------------------------------------
        BYTE   W96
// 032   ----------------------------------------
        BYTE           PAN     c_v+32
        BYTE           MOD     32
        BYTE   W01
        BYTE                   33
        BYTE   W92
        BYTE   W03
// 033   ----------------------------------------
        BYTE   W96
// 034   ----------------------------------------
        BYTE   W96
// 035   ----------------------------------------
        BYTE   W96
// 036   ----------------------------------------
        BYTE   W96
// 037   ----------------------------------------
        BYTE   W96
// 038   ----------------------------------------
        BYTE   W96
// 039   ----------------------------------------
        BYTE   W23
        BYTE           VOL     69
        BYTE   W72
        BYTE   W01
// 040   ----------------------------------------
        BYTE   W96
// 041   ----------------------------------------
        BYTE   W96
// 042   ----------------------------------------
        BYTE   W96
// 043   ----------------------------------------
        BYTE   W96
// 044   ----------------------------------------
        BYTE   W96
// 045   ----------------------------------------
        BYTE   W96
// 046   ----------------------------------------
        BYTE   W96
// 047   ----------------------------------------
        BYTE   W96
// 048   ----------------------------------------
        BYTE   W96
// 049   ----------------------------------------
        BYTE   W96
// 050   ----------------------------------------
        BYTE   W96
// 051   ----------------------------------------
        BYTE   W96
// 052   ----------------------------------------
        BYTE   W96
// 053   ----------------------------------------
        BYTE   W96
// 054   ----------------------------------------
        BYTE   W96
// 055   ----------------------------------------
        BYTE   W24
        BYTE           N22     As3   v100
        BYTE   W04
        BYTE           VOL     70
        BYTE   W01
        BYTE                   71
        BYTE   W05
        BYTE                   72
        BYTE   W04
        BYTE                   73
        BYTE   W02
        BYTE                   74
        BYTE   W04
        BYTE                   75
        BYTE   W03
        BYTE                   66
        BYTE   W01
        BYTE           N22     Bn3
        BYTE   W02
        BYTE           VOL     67
        BYTE   W02
        BYTE                   68
        BYTE   W02
        BYTE                   69
        BYTE   W03
        BYTE                   70
        BYTE   W01
        BYTE                   71
        BYTE   W03
        BYTE                   72
        BYTE   W03
        BYTE                   73
        BYTE   W01
        BYTE                   74
        BYTE   W03
        BYTE                   75
        BYTE   W03
        BYTE                   67
        BYTE   W01
        BYTE           N22     Cs4
        BYTE           VOL     68
        BYTE   W03
        BYTE                   69
        BYTE   W03
        BYTE                   70
        BYTE   W02
        BYTE                   71
        BYTE   W03
        BYTE                   72
        BYTE   W03
        BYTE                   73
        BYTE   W01
        BYTE                   74
        BYTE   W03
        BYTE                   75
        BYTE   W03
        BYTE                   76
        BYTE   W02
        BYTE                   62
        BYTE   W01
// 056   ----------------------------------------
        BYTE           N48     Ds4
        BYTE           VOL     65
        BYTE   W01
        BYTE                   66
        BYTE   W03
        BYTE                   67
        BYTE   W03
        BYTE                   68
        BYTE   W06
        BYTE                   69
        BYTE   W06
        BYTE                   70
        BYTE   W03
        BYTE                   71
        BYTE   W06
        BYTE                   72
        BYTE   W07
        BYTE                   73
        BYTE   W03
        BYTE                   74
        BYTE   W06
        BYTE                   75
        BYTE   W04
        BYTE           N16     As4
        BYTE   W16
        BYTE           N17     Gs4
        BYTE   W17
        BYTE           N15     Fs4
        BYTE   W14
        BYTE           VOL     57
        BYTE   W01
// 057   ----------------------------------------
        BYTE           N48     Fn4
        BYTE           VOL     60
        BYTE   W01
        BYTE                   64
        BYTE   W01
        BYTE                   65
        BYTE   W02
        BYTE                   66
        BYTE   W05
        BYTE                   67
        BYTE   W03
        BYTE                   68
        BYTE   W05
        BYTE                   69
        BYTE   W05
        BYTE                   70
        BYTE   W02
        BYTE                   71
        BYTE   W05
        BYTE                   72
        BYTE   W05
        BYTE                   73
        BYTE   W03
        BYTE                   74
        BYTE   W05
        BYTE                   75
        BYTE   W05
        BYTE                   76
        BYTE   W01
        BYTE           N16     Gs4
        BYTE   W16
        BYTE           N17     Fs4
        BYTE   W17
        BYTE           N15     Fn4
        BYTE   W15
// 058   ----------------------------------------
LaLWordsofTrust2_5_58:
        BYTE           N36     Fs4   v100
        BYTE   W36
        BYTE           N12     Gs4
        BYTE   W12
        BYTE           N36     As4
        BYTE   W36
        BYTE           N12     Gs4
        BYTE   W12
        BYTE   PEND
// 059   ----------------------------------------
        BYTE           N22     Fs4
        BYTE   W23
        BYTE           VOL     60
        BYTE   W01
        BYTE           N22     As4
        BYTE           VOL     63
        BYTE   W01
        BYTE                   64
        BYTE   W01
        BYTE                   66
        BYTE   W03
        BYTE                   67
        BYTE   W01
        BYTE                   68
        BYTE   W02
        BYTE                   69
        BYTE   W03
        BYTE                   70
        BYTE   W01
        BYTE                   71
        BYTE   W02
        BYTE                   72
        BYTE   W03
        BYTE                   73
        BYTE   W01
        BYTE                   74
        BYTE   W02
        BYTE                   75
        BYTE   W03
        BYTE                   65
        BYTE   W01
        BYTE           N22     Gs4
        BYTE           VOL     68
        BYTE   W02
        BYTE                   69
        BYTE   W04
        BYTE                   70
        BYTE   W01
        BYTE                   71
        BYTE   W04
        BYTE                   72
        BYTE   W03
        BYTE                   73
        BYTE   W02
        BYTE                   74
        BYTE   W04
        BYTE                   75
        BYTE   W03
        BYTE                   59
        BYTE   W01
        BYTE           N22     Fs4
        BYTE           VOL     65
        BYTE   W01
        BYTE                   66
        BYTE   W03
        BYTE                   67
        BYTE   W01
        BYTE                   68
        BYTE   W03
        BYTE                   69
        BYTE   W03
        BYTE                   70
        BYTE   W01
        BYTE                   71
        BYTE   W03
        BYTE                   72
        BYTE   W03
        BYTE                   73
        BYTE   W01
        BYTE                   74
        BYTE   W04
        BYTE                   59
        BYTE   W01
// 060   ----------------------------------------
        BYTE           N48     Ds4
        BYTE   W02
        BYTE           VOL     60
        BYTE   W03
        BYTE                   61
        BYTE   W02
        BYTE                   62
        BYTE   W04
        BYTE                   63
        BYTE   W03
        BYTE                   64
        BYTE   W02
        BYTE                   65
        BYTE   W04
        BYTE                   66
        BYTE   W03
        BYTE                   67
        BYTE   W02
        BYTE                   68
        BYTE   W03
        BYTE                   69
        BYTE   W04
        BYTE                   70
        BYTE   W01
        BYTE                   71
        BYTE   W04
        BYTE                   72
        BYTE   W03
        BYTE                   73
        BYTE   W02
        BYTE                   74
        BYTE   W03
        BYTE                   75
        BYTE   W03
        BYTE           N16     As4
        BYTE   W16
        BYTE           N17     Gs4
        BYTE   W17
        BYTE           N15     Fs4
        BYTE   W14
        BYTE           VOL     60
        BYTE   W01
// 061   ----------------------------------------
        BYTE           N48     Fn4
        BYTE           VOL     63
        BYTE   W03
        BYTE                   64
        BYTE   W02
        BYTE                   65
        BYTE   W05
        BYTE                   66
        BYTE   W04
        BYTE                   67
        BYTE   W03
        BYTE                   68
        BYTE   W04
        BYTE                   69
        BYTE   W05
        BYTE                   70
        BYTE   W02
        BYTE                   71
        BYTE   W05
        BYTE                   72
        BYTE   W05
        BYTE                   73
        BYTE   W02
        BYTE                   74
        BYTE   W05
        BYTE                   75
        BYTE   W03
        BYTE           N16     Gs4
        BYTE   W16
        BYTE           N17     Fs4
        BYTE   W17
        BYTE           N15     Fn4
        BYTE   W15
// 062   ----------------------------------------
        BYTE   PATT
         POIN2  LaLWordsofTrust2_5_58
// 063   ----------------------------------------
        BYTE           N24     Fs4   v100
        BYTE   W24
        BYTE                   As3
        BYTE   W24
        BYTE                   Gs3
        BYTE   W24
        BYTE                   Fs3
        BYTE   W24
// 064   ----------------------------------------
        BYTE           VOL     76
        BYTE           PAN     c_v+0
        BYTE           MOD     0
        BYTE   GoTo
         POIN2  LaLWordsofTrust2_5_LOOP
        BYTE   W04
        BYTE   FINE

//****************** Track 6 (Midi-Chn.3) ******************//

LaLWordsofTrust2_6:
        BYTE   KEYSH   LaLWordsofTrust2_key+0
// 000   ----------------------------------------
        BYTE           VOICE   52
        BYTE   W96
// 001   ----------------------------------------
        BYTE   W96
// 002   ----------------------------------------
        BYTE   W96
// 003   ----------------------------------------
        BYTE   W96
// 004   ----------------------------------------
        BYTE   W96
// 005   ----------------------------------------
        BYTE   W96
// 006   ----------------------------------------
        BYTE   W96
// 007   ----------------------------------------
        BYTE   W96
// 008   ----------------------------------------
        BYTE   W96
// 009   ----------------------------------------
        BYTE   W96
// 010   ----------------------------------------
        BYTE   W96
// 011   ----------------------------------------
        BYTE   W96
// 012   ----------------------------------------
        BYTE   W96
// 013   ----------------------------------------
        BYTE   W96
// 014   ----------------------------------------
        BYTE   W96
// 015   ----------------------------------------
        BYTE   W96
// 016   ----------------------------------------
LaLWordsofTrust2_6_LOOP:
        BYTE   W96
// 017   ----------------------------------------
        BYTE   W96
// 018   ----------------------------------------
        BYTE   W96
// 019   ----------------------------------------
        BYTE   W96
// 020   ----------------------------------------
        BYTE   W96
// 021   ----------------------------------------
        BYTE   W96
// 022   ----------------------------------------
        BYTE   W96
// 023   ----------------------------------------
        BYTE   W96
// 024   ----------------------------------------
        BYTE   W96
// 025   ----------------------------------------
        BYTE   W96
// 026   ----------------------------------------
        BYTE   W96
// 027   ----------------------------------------
        BYTE   W96
// 028   ----------------------------------------
        BYTE   W96
// 029   ----------------------------------------
        BYTE   W96
// 030   ----------------------------------------
        BYTE   W96
// 031   ----------------------------------------
        BYTE   W96
// 032   ----------------------------------------
        BYTE   W96
// 033   ----------------------------------------
        BYTE   W96
// 034   ----------------------------------------
        BYTE   W96
// 035   ----------------------------------------
        BYTE   W96
// 036   ----------------------------------------
        BYTE   W96
// 037   ----------------------------------------
        BYTE   W96
// 038   ----------------------------------------
        BYTE   W96
// 039   ----------------------------------------
        BYTE   W48
        BYTE           PAN     c_v+32
        BYTE           VOL     32
        BYTE           MOD     49
        BYTE   W48
// 040   ----------------------------------------
        BYTE   W96
// 041   ----------------------------------------
        BYTE   W96
// 042   ----------------------------------------
        BYTE   W96
// 043   ----------------------------------------
        BYTE   W96
// 044   ----------------------------------------
        BYTE   W96
// 045   ----------------------------------------
        BYTE   W96
// 046   ----------------------------------------
        BYTE   W96
// 047   ----------------------------------------
        BYTE   W92
        BYTE   W03
        BYTE           N92     Fs3   v100   gtp2
        BYTE           VOL     61
        BYTE   W01
// 048   ----------------------------------------
        BYTE                   63
        BYTE   W04
        BYTE                   62
        BYTE   W04
        BYTE                   61
        BYTE   W04
        BYTE                   60
        BYTE   W04
        BYTE                   59
        BYTE   W04
        BYTE                   58
        BYTE   W05
        BYTE                   57
        BYTE   W04
        BYTE                   56
        BYTE   W04
        BYTE                   55
        BYTE   W04
        BYTE                   54
        BYTE   W04
        BYTE                   53
        BYTE   W04
        BYTE                   52
        BYTE   W04
        BYTE                   51
        BYTE   W04
        BYTE                   50
        BYTE   W04
        BYTE                   49
        BYTE   W04
        BYTE                   48
        BYTE   W04
        BYTE                   47
        BYTE   W04
        BYTE                   46
        BYTE   W04
        BYTE                   45
        BYTE   W05
        BYTE                   44
        BYTE   W03
        BYTE                   43
        BYTE   W05
        BYTE                   42
        BYTE   W04
        BYTE                   41
        BYTE   W04
        BYTE                   52
        BYTE   W01
        BYTE           N44     Fn3   v100   gtp2
        BYTE           VOL     60
        BYTE   W01
// 049   ----------------------------------------
        BYTE                   63
        BYTE   W04
        BYTE                   62
        BYTE   W05
        BYTE                   61
        BYTE   W04
        BYTE                   60
        BYTE   W04
        BYTE                   59
        BYTE   W05
        BYTE                   58
        BYTE   W04
        BYTE                   57
        BYTE   W04
        BYTE                   56
        BYTE   W05
        BYTE                   55
        BYTE   W04
        BYTE                   54
        BYTE   W04
        BYTE                   53
        BYTE   W03
        BYTE                   56
        BYTE   W01
        BYTE           N22     Ds3
        BYTE           VOL     62
        BYTE   W04
        BYTE                   61
        BYTE   W03
        BYTE                   60
        BYTE   W04
        BYTE                   59
        BYTE   W03
        BYTE                   58
        BYTE   W03
        BYTE                   57
        BYTE   W04
        BYTE                   56
        BYTE   W02
        BYTE                   55
        BYTE   W01
        BYTE           N22     Cs3
        BYTE           VOL     61
        BYTE   W01
        BYTE                   62
        BYTE   W03
        BYTE                   61
        BYTE   W04
        BYTE                   60
        BYTE   W04
        BYTE                   59
        BYTE   W03
        BYTE                   58
        BYTE   W04
        BYTE                   57
        BYTE   W03
        BYTE                   56
        BYTE   W01
        BYTE                   60
        BYTE   W01
        BYTE           N92     Bn2   v100   gtp2
        BYTE           VOL     64
        BYTE   W01
// 050   ----------------------------------------
        BYTE   W02
        BYTE                   63
        BYTE   W04
        BYTE                   62
        BYTE   W03
        BYTE                   61
        BYTE   W04
        BYTE                   60
        BYTE   W04
        BYTE                   59
        BYTE   W04
        BYTE                   58
        BYTE   W04
        BYTE                   57
        BYTE   W04
        BYTE                   56
        BYTE   W04
        BYTE                   55
        BYTE   W04
        BYTE                   54
        BYTE   W04
        BYTE                   53
        BYTE   W03
        BYTE                   52
        BYTE   W05
        BYTE                   51
        BYTE   W03
        BYTE                   50
        BYTE   W04
        BYTE                   49
        BYTE   W04
        BYTE                   48
        BYTE   W04
        BYTE                   47
        BYTE   W04
        BYTE                   46
        BYTE   W04
        BYTE                   45
        BYTE   W04
        BYTE                   44
        BYTE   W04
        BYTE                   43
        BYTE   W04
        BYTE                   42
        BYTE   W03
        BYTE                   41
        BYTE   W04
        BYTE                   40
        BYTE   W03
        BYTE                   47
        BYTE   W01
        BYTE           N92     Cs3   v100   gtp2
        BYTE           VOL     57
        BYTE   W01
// 051   ----------------------------------------
        BYTE                   64
        BYTE   W03
        BYTE                   63
        BYTE   W04
        BYTE                   62
        BYTE   W04
        BYTE                   61
        BYTE   W04
        BYTE                   60
        BYTE   W04
        BYTE                   59
        BYTE   W04
        BYTE                   58
        BYTE   W04
        BYTE                   57
        BYTE   W04
        BYTE                   56
        BYTE   W04
        BYTE                   55
        BYTE   W04
        BYTE                   54
        BYTE   W04
        BYTE                   53
        BYTE   W04
        BYTE                   52
        BYTE   W04
        BYTE                   51
        BYTE   W04
        BYTE                   50
        BYTE   W04
        BYTE                   49
        BYTE   W04
        BYTE                   48
        BYTE   W05
        BYTE                   47
        BYTE   W03
        BYTE                   46
        BYTE   W05
        BYTE                   45
        BYTE   W04
        BYTE                   44
        BYTE   W04
        BYTE                   43
        BYTE   W04
        BYTE                   42
        BYTE   W04
        BYTE                   41
        BYTE   W02
        BYTE                   47
        BYTE   W01
        BYTE           N92     Ds3   v100   gtp2
        BYTE           VOL     58
        BYTE   W01
// 052   ----------------------------------------
        BYTE                   63
        BYTE   W03
        BYTE                   62
        BYTE   W04
        BYTE                   61
        BYTE   W04
        BYTE                   60
        BYTE   W05
        BYTE                   59
        BYTE   W04
        BYTE                   58
        BYTE   W04
        BYTE                   57
        BYTE   W05
        BYTE                   56
        BYTE   W04
        BYTE                   55
        BYTE   W05
        BYTE                   54
        BYTE   W04
        BYTE                   53
        BYTE   W04
        BYTE                   52
        BYTE   W05
        BYTE                   51
        BYTE   W04
        BYTE                   50
        BYTE   W04
        BYTE                   49
        BYTE   W04
        BYTE                   48
        BYTE   W05
        BYTE                   47
        BYTE   W04
        BYTE                   46
        BYTE   W04
        BYTE                   45
        BYTE   W05
        BYTE                   44
        BYTE   W04
        BYTE                   43
        BYTE   W05
        BYTE                   42
        BYTE   W04
        BYTE                   48
        BYTE   W01
        BYTE           N92     Fn3   v100   gtp2
        BYTE           VOL     56
        BYTE   W01
// 053   ----------------------------------------
        BYTE                   63
        BYTE   W05
        BYTE                   62
        BYTE   W04
        BYTE                   61
        BYTE   W04
        BYTE                   60
        BYTE   W04
        BYTE                   59
        BYTE   W04
        BYTE                   58
        BYTE   W04
        BYTE                   57
        BYTE   W04
        BYTE                   56
        BYTE   W04
        BYTE                   55
        BYTE   W04
        BYTE                   54
        BYTE   W04
        BYTE                   53
        BYTE   W05
        BYTE                   52
        BYTE   W03
        BYTE                   51
        BYTE   W05
        BYTE                   50
        BYTE   W04
        BYTE                   49
        BYTE   W04
        BYTE                   48
        BYTE   W04
        BYTE                   47
        BYTE   W04
        BYTE                   46
        BYTE   W04
        BYTE                   45
        BYTE   W04
        BYTE                   44
        BYTE   W04
        BYTE                   43
        BYTE   W04
        BYTE                   42
        BYTE   W04
        BYTE                   41
        BYTE   W04
        BYTE                   51
        BYTE   W01
        BYTE           TIE     Fs3
        BYTE           VOL     59
        BYTE   W01
// 054   ----------------------------------------
        BYTE                   63
        BYTE   W02
        BYTE                   62
        BYTE   W04
        BYTE                   61
        BYTE   W04
        BYTE                   60
        BYTE   W04
        BYTE                   59
        BYTE   W05
        BYTE                   58
        BYTE   W03
        BYTE                   57
        BYTE   W05
        BYTE                   56
        BYTE   W04
        BYTE                   55
        BYTE   W04
        BYTE                   54
        BYTE   W04
        BYTE                   53
        BYTE   W04
        BYTE                   52
        BYTE   W04
        BYTE                   51
        BYTE   W04
        BYTE                   50
        BYTE   W04
        BYTE                   49
        BYTE   W04
        BYTE                   48
        BYTE   W04
        BYTE                   47
        BYTE   W04
        BYTE                   46
        BYTE   W04
        BYTE                   45
        BYTE   W04
        BYTE                   44
        BYTE   W04
        BYTE                   43
        BYTE   W04
        BYTE                   42
        BYTE   W04
        BYTE                   41
        BYTE   W05
        BYTE                   40
        BYTE   W03
        BYTE                   39
        BYTE   W01
// 055   ----------------------------------------
        BYTE   W04
        BYTE                   38
        BYTE   W04
        BYTE                   37
        BYTE   W04
        BYTE                   36
        BYTE   W04
        BYTE                   35
        BYTE   W04
        BYTE                   34
        BYTE   W04
        BYTE                   33
        BYTE   W03
        BYTE           EOT
        BYTE   W01
        BYTE           VOL     32
        BYTE   W66
        BYTE                   64
        BYTE   W02
// 056   ----------------------------------------
        BYTE   W96
// 057   ----------------------------------------
        BYTE   W96
// 058   ----------------------------------------
        BYTE   W96
// 059   ----------------------------------------
        BYTE   W96
// 060   ----------------------------------------
        BYTE   W96
// 061   ----------------------------------------
        BYTE   W96
// 062   ----------------------------------------
        BYTE   W96
// 063   ----------------------------------------
        BYTE   W96
// 064   ----------------------------------------
        BYTE                   100
        BYTE           PAN     c_v+0
        BYTE           MOD     0
        BYTE   GoTo
         POIN2  LaLWordsofTrust2_6_LOOP
        BYTE   W04
        BYTE   FINE

//****************** Track 7 (Midi-Chn.4) ******************//

LaLWordsofTrust2_7:
        BYTE   KEYSH   LaLWordsofTrust2_key+0
// 000   ----------------------------------------
        BYTE           VOL     76
        BYTE           VOICE   48
        BYTE   W96
// 001   ----------------------------------------
        BYTE   W96
// 002   ----------------------------------------
        BYTE   W96
// 003   ----------------------------------------
        BYTE   W96
// 004   ----------------------------------------
        BYTE   W96
// 005   ----------------------------------------
        BYTE   W96
// 006   ----------------------------------------
        BYTE   W96
// 007   ----------------------------------------
        BYTE   W96
// 008   ----------------------------------------
        BYTE   W96
// 009   ----------------------------------------
        BYTE   W96
// 010   ----------------------------------------
        BYTE   W96
// 011   ----------------------------------------
        BYTE   W96
// 012   ----------------------------------------
        BYTE   W96
// 013   ----------------------------------------
        BYTE   W96
// 014   ----------------------------------------
        BYTE   W96
// 015   ----------------------------------------
        BYTE   W96
// 016   ----------------------------------------
LaLWordsofTrust2_7_LOOP:
        BYTE   W96
// 017   ----------------------------------------
        BYTE   W96
// 018   ----------------------------------------
        BYTE   W96
// 019   ----------------------------------------
        BYTE   W96
// 020   ----------------------------------------
        BYTE   W96
// 021   ----------------------------------------
        BYTE   W96
// 022   ----------------------------------------
        BYTE   W96
// 023   ----------------------------------------
        BYTE   W96
// 024   ----------------------------------------
        BYTE   W96
// 025   ----------------------------------------
        BYTE   W96
// 026   ----------------------------------------
        BYTE   W96
// 027   ----------------------------------------
        BYTE   W96
// 028   ----------------------------------------
        BYTE   W96
// 029   ----------------------------------------
        BYTE   W96
// 030   ----------------------------------------
        BYTE   W96
// 031   ----------------------------------------
        BYTE   W96
// 032   ----------------------------------------
        BYTE   W96
// 033   ----------------------------------------
        BYTE   W96
// 034   ----------------------------------------
        BYTE   W96
// 035   ----------------------------------------
        BYTE   W96
// 036   ----------------------------------------
        BYTE   W96
// 037   ----------------------------------------
        BYTE   W96
// 038   ----------------------------------------
        BYTE   W96
// 039   ----------------------------------------
        BYTE   W96
// 040   ----------------------------------------
        BYTE   W96
// 041   ----------------------------------------
        BYTE   W96
// 042   ----------------------------------------
        BYTE   W96
// 043   ----------------------------------------
        BYTE   W96
// 044   ----------------------------------------
        BYTE   W96
// 045   ----------------------------------------
        BYTE   W96
// 046   ----------------------------------------
        BYTE   W96
// 047   ----------------------------------------
        BYTE   W96
// 048   ----------------------------------------
        BYTE           PAN     c_v-16
        BYTE           MOD     30
        BYTE   W96
// 049   ----------------------------------------
        BYTE   W96
// 050   ----------------------------------------
        BYTE   W96
// 051   ----------------------------------------
        BYTE   W96
// 052   ----------------------------------------
        BYTE   W96
// 053   ----------------------------------------
        BYTE   W96
// 054   ----------------------------------------
        BYTE   W96
// 055   ----------------------------------------
        BYTE   W23
        BYTE           VOL     65
        BYTE   W01
        BYTE           N22     Fs3   v100
        BYTE           VOL     68
        BYTE   W02
        BYTE                   69
        BYTE   W03
        BYTE                   70
        BYTE   W02
        BYTE                   71
        BYTE   W04
        BYTE                   72
        BYTE   W03
        BYTE                   73
        BYTE   W02
        BYTE                   74
        BYTE   W03
        BYTE                   75
        BYTE   W04
        BYTE                   68
        BYTE   W01
        BYTE           N22     Gs3
        BYTE           VOL     70
        BYTE   W01
        BYTE                   69
        BYTE   W04
        BYTE                   70
        BYTE   W02
        BYTE                   71
        BYTE   W05
        BYTE                   72
        BYTE   W04
        BYTE                   73
        BYTE   W02
        BYTE                   74
        BYTE   W05
        BYTE                   68
        BYTE   W01
        BYTE           N22     As3
        BYTE           VOL     71
        BYTE   W01
        BYTE                   70
        BYTE   W02
        BYTE                   71
        BYTE   W05
        BYTE                   72
        BYTE   W04
        BYTE                   73
        BYTE   W03
        BYTE                   74
        BYTE   W05
        BYTE                   75
        BYTE   W02
        BYTE                   55
        BYTE   W01
        BYTE                   57
        BYTE   W01
// 056   ----------------------------------------
        BYTE           N44     Bn3   v100   gtp2
        BYTE           VOL     60
        BYTE   W01
        BYTE                   62
        BYTE   W04
        BYTE                   63
        BYTE   W04
        BYTE                   64
        BYTE   W02
        BYTE                   65
        BYTE   W04
        BYTE                   66
        BYTE   W04
        BYTE                   67
        BYTE   W02
        BYTE                   68
        BYTE   W04
        BYTE                   69
        BYTE   W04
        BYTE                   70
        BYTE   W02
        BYTE                   71
        BYTE   W04
        BYTE                   72
        BYTE   W04
        BYTE                   73
        BYTE   W02
        BYTE                   74
        BYTE   W03
        BYTE                   75
        BYTE   W04
        BYTE           N16     Fs4
        BYTE   W16
        BYTE           N17     Fn4
        BYTE   W17
        BYTE           N15     Ds4
        BYTE   W13
        BYTE           VOL     57
        BYTE   W01
        BYTE                   62
        BYTE   W01
// 057   ----------------------------------------
        BYTE           N44     Cs4   v100   gtp2
        BYTE           VOL     65
        BYTE   W05
        BYTE                   66
        BYTE   W05
        BYTE                   67
        BYTE   W03
        BYTE                   68
        BYTE   W05
        BYTE                   69
        BYTE   W05
        BYTE                   70
        BYTE   W03
        BYTE                   71
        BYTE   W05
        BYTE                   72
        BYTE   W05
        BYTE                   73
        BYTE   W03
        BYTE                   74
        BYTE   W05
        BYTE                   75
        BYTE   W04
        BYTE           N16     Fn4
        BYTE   W16
        BYTE           N17     Ds4
        BYTE   W17
        BYTE           N15     Cs4
        BYTE   W15
// 058   ----------------------------------------
LaLWordsofTrust2_7_58:
        BYTE           N36     Ds4   v100
        BYTE   W36
        BYTE           N12     Fn4
        BYTE   W12
        BYTE           N36     Fs4
        BYTE   W36
        BYTE           N12     Fn4
        BYTE   W12
        BYTE   PEND
// 059   ----------------------------------------
        BYTE           N22     Ds4
        BYTE   W22
        BYTE           VOL     50
        BYTE   W01
        BYTE                   61
        BYTE   W01
        BYTE           N22     Fs4
        BYTE           VOL     63
        BYTE   W02
        BYTE                   64
        BYTE   W01
        BYTE                   65
        BYTE   W02
        BYTE                   66
        BYTE   W02
        BYTE                   67
        BYTE   W02
        BYTE                   68
        BYTE   W02
        BYTE                   69
        BYTE   W02
        BYTE                   70
        BYTE   W01
        BYTE                   71
        BYTE   W02
        BYTE                   72
        BYTE   W02
        BYTE                   73
        BYTE   W01
        BYTE                   74
        BYTE   W02
        BYTE                   75
        BYTE   W02
        BYTE                   60
        BYTE   W01
        BYTE           N22     Fn4
        BYTE   W01
        BYTE           VOL     63
        BYTE   W01
        BYTE                   64
        BYTE   W01
        BYTE                   65
        BYTE   W02
        BYTE                   66
        BYTE   W02
        BYTE                   67
        BYTE   W02
        BYTE                   68
        BYTE   W02
        BYTE                   69
        BYTE   W02
        BYTE                   70
        BYTE   W01
        BYTE                   71
        BYTE   W03
        BYTE                   72
        BYTE   W02
        BYTE                   73
        BYTE   W01
        BYTE                   74
        BYTE   W02
        BYTE                   56
        BYTE   W01
        BYTE                   63
        BYTE   W01
        BYTE           N22     Ds4
        BYTE   W01
        BYTE           VOL     64
        BYTE   W01
        BYTE                   65
        BYTE   W02
        BYTE                   66
        BYTE   W02
        BYTE                   67
        BYTE   W01
        BYTE                   68
        BYTE   W03
        BYTE                   69
        BYTE   W02
        BYTE                   70
        BYTE   W01
        BYTE                   71
        BYTE   W02
        BYTE                   72
        BYTE   W03
        BYTE                   73
        BYTE   W01
        BYTE                   74
        BYTE   W02
        BYTE                   75
        BYTE   W01
        BYTE                   57
        BYTE   W01
        BYTE                   63
        BYTE   W01
// 060   ----------------------------------------
        BYTE           N44     Bn3   v100   gtp2
        BYTE           VOL     65
        BYTE   W02
        BYTE                   66
        BYTE   W06
        BYTE                   67
        BYTE   W02
        BYTE                   68
        BYTE   W06
        BYTE                   69
        BYTE   W05
        BYTE                   70
        BYTE   W02
        BYTE                   71
        BYTE   W06
        BYTE                   72
        BYTE   W05
        BYTE                   73
        BYTE   W03
        BYTE                   74
        BYTE   W05
        BYTE                   75
        BYTE   W05
        BYTE                   76
        BYTE   W01
        BYTE           N16     Fs4
        BYTE   W16
        BYTE           N17     Fn4
        BYTE   W17
        BYTE           N15     Ds4
        BYTE   W14
        BYTE           VOL     59
        BYTE   W01
// 061   ----------------------------------------
        BYTE           N44     Cs4   v100   gtp2
        BYTE           VOL     63
        BYTE   W01
        BYTE                   65
        BYTE   W02
        BYTE                   66
        BYTE   W05
        BYTE                   67
        BYTE   W03
        BYTE                   68
        BYTE   W05
        BYTE                   69
        BYTE   W05
        BYTE                   70
        BYTE   W03
        BYTE                   71
        BYTE   W05
        BYTE                   72
        BYTE   W05
        BYTE                   73
        BYTE   W02
        BYTE                   74
        BYTE   W06
        BYTE                   75
        BYTE   W05
        BYTE                   76
        BYTE   W01
        BYTE           N16     Fn4
        BYTE   W16
        BYTE           N17     Ds4
        BYTE   W17
        BYTE           N15     Cs4
        BYTE   W15
// 062   ----------------------------------------
        BYTE   PATT
         POIN2  LaLWordsofTrust2_7_58
// 063   ----------------------------------------
        BYTE           N24     Ds4   v100
        BYTE   W24
        BYTE                   Fs3
        BYTE   W24
        BYTE                   Fn3
        BYTE   W24
        BYTE                   Ds3
        BYTE   W24
// 064   ----------------------------------------
        BYTE           PAN     c_v+0
        BYTE           MOD     0
        BYTE   GoTo
         POIN2  LaLWordsofTrust2_7_LOOP
        BYTE   W04
        BYTE   FINE

//****************** Track 8 (Midi-Chn.5) ******************//

LaLWordsofTrust2_8:
        BYTE   KEYSH   LaLWordsofTrust2_key+0
// 000   ----------------------------------------
        BYTE           VOL     118
        BYTE           VOICE   76
        BYTE           PAN     c_v+11
        BYTE   W96
// 001   ----------------------------------------
        BYTE   W96
// 002   ----------------------------------------
        BYTE   W96
// 003   ----------------------------------------
        BYTE   W96
// 004   ----------------------------------------
        BYTE   W96
// 005   ----------------------------------------
        BYTE   W96
// 006   ----------------------------------------
        BYTE   W96
// 007   ----------------------------------------
        BYTE   W96
// 008   ----------------------------------------
        BYTE   W96
// 009   ----------------------------------------
        BYTE   W96
// 010   ----------------------------------------
        BYTE   W96
// 011   ----------------------------------------
        BYTE   W96
// 012   ----------------------------------------
        BYTE   W96
// 013   ----------------------------------------
        BYTE   W96
// 014   ----------------------------------------
        BYTE   W96
// 015   ----------------------------------------
        BYTE   W96
// 016   ----------------------------------------
LaLWordsofTrust2_8_LOOP:
        BYTE   W96
// 017   ----------------------------------------
        BYTE   W96
// 018   ----------------------------------------
        BYTE   W96
// 019   ----------------------------------------
        BYTE   W96
// 020   ----------------------------------------
        BYTE   W96
// 021   ----------------------------------------
        BYTE   W96
// 022   ----------------------------------------
        BYTE   W96
// 023   ----------------------------------------
        BYTE   W96
// 024   ----------------------------------------
        BYTE   W96
// 025   ----------------------------------------
        BYTE   W96
// 026   ----------------------------------------
        BYTE   W96
// 027   ----------------------------------------
        BYTE   W96
// 028   ----------------------------------------
        BYTE   W96
// 029   ----------------------------------------
        BYTE   W96
// 030   ----------------------------------------
        BYTE   W96
// 031   ----------------------------------------
        BYTE   W96
// 032   ----------------------------------------
        BYTE   W96
// 033   ----------------------------------------
        BYTE   W96
// 034   ----------------------------------------
        BYTE   W96
// 035   ----------------------------------------
        BYTE   W96
// 036   ----------------------------------------
        BYTE   W96
// 037   ----------------------------------------
        BYTE   W96
// 038   ----------------------------------------
        BYTE   W96
// 039   ----------------------------------------
        BYTE   W96
// 040   ----------------------------------------
        BYTE   W96
// 041   ----------------------------------------
        BYTE   W96
// 042   ----------------------------------------
        BYTE   W96
// 043   ----------------------------------------
        BYTE   W96
// 044   ----------------------------------------
        BYTE   W96
// 045   ----------------------------------------
        BYTE   W96
// 046   ----------------------------------------
        BYTE   W96
// 047   ----------------------------------------
        BYTE   W96
// 048   ----------------------------------------
        BYTE           N24     Ds1   v088
        BYTE   W22
        BYTE           N03     Ds3   v057
        BYTE   W02
        BYTE           N06     Fs3   v088
        BYTE   W22
        BYTE           N02     Fs3   v073
        BYTE   W02
        BYTE           N06     As3   v096
        BYTE   W48
// 049   ----------------------------------------
        BYTE           N24     Cs1   v085
        BYTE   W22
        BYTE           N02     Cs3   v052
        BYTE   W02
        BYTE           N06     Fn3   v086
        BYTE   W22
        BYTE           N02     Fn3   v077
        BYTE   W02
        BYTE           N06     Gs3   v097
        BYTE   W48
// 050   ----------------------------------------
        BYTE           N24     Bn0   v088
        BYTE   W22
        BYTE           N02     Bn2   v052
        BYTE   W02
        BYTE           N06     Ds3   v086
        BYTE   W22
        BYTE           N02     Ds3   v077
        BYTE   W02
        BYTE           N06     Fs3   v100
        BYTE   W48
// 051   ----------------------------------------
        BYTE           N24     As0   v085
        BYTE   W22
        BYTE           N02     Cs3   v052
        BYTE   W02
        BYTE           N06     Fn3   v086
        BYTE   W22
        BYTE           N02     Fn3   v077
        BYTE   W02
        BYTE           N06     Gs3   v100
        BYTE   W22
        BYTE           N02     Cs3   v077
        BYTE   W02
        BYTE           N06     Fn3   v100
        BYTE   W24
// 052   ----------------------------------------
        BYTE           N24     Gs0   v088
        BYTE   W22
        BYTE           N02     Gs2   v052
        BYTE   W02
        BYTE           N06     Bn2   v086
        BYTE   W10
        BYTE           N02     Bn2   v077
        BYTE   W02
        BYTE           N06     Ds3   v100
        BYTE   W10
        BYTE           N02     Ds3   v077
        BYTE   W02
        BYTE           N06     Fs3   v100
        BYTE   W24
        BYTE                   Gs2   v086
        BYTE           N21     Gs0
        BYTE   W24
// 053   ----------------------------------------
        BYTE           N24     As0   v085
        BYTE   W22
        BYTE           N02     As2   v052
        BYTE   W02
        BYTE           N06     Dn3   v086
        BYTE   W10
        BYTE           N02     Dn3   v077
        BYTE   W02
        BYTE           N06     Fn3   v100
        BYTE   W10
        BYTE           N02     Fn3   v077
        BYTE   W02
        BYTE           N06     Gs3   v100
        BYTE   W24
        BYTE                   As2   v084
        BYTE           N22     As0
        BYTE   W24
// 054   ----------------------------------------
        BYTE           N24     Ds1   v088
        BYTE   W22
        BYTE           N02     Ds3   v052
        BYTE   W02
        BYTE           N06     Fs3   v086
        BYTE   W22
        BYTE           N02     Fs3   v077
        BYTE   W02
        BYTE           N06     As3   v100
        BYTE   W48
// 055   ----------------------------------------
        BYTE           N24     Ds1   v088
        BYTE   W22
        BYTE           N02     Ds3   v052
        BYTE   W02
        BYTE           N06     Fs3   v086
        BYTE   W22
        BYTE           N02     Fs3   v077
        BYTE   W02
        BYTE           N06     As3   v100
        BYTE   W24
        BYTE                   As2   v087
        BYTE           N22     As0
        BYTE   W24
// 056   ----------------------------------------
        BYTE           N24     Bn0   v086
        BYTE   W22
        BYTE           N02     Ds3   v052
        BYTE   W02
        BYTE           N06     Fs3   v087
        BYTE   W22
        BYTE           N02     Fs3   v077
        BYTE   W02
        BYTE           N06     As3   v100
        BYTE   W48
// 057   ----------------------------------------
        BYTE           N24     Cs1   v086
        BYTE   W22
        BYTE           N02     Cs3   v052
        BYTE   W02
        BYTE           N06     Fn3   v081
        BYTE   W22
        BYTE           N02     Fn3   v077
        BYTE   W02
        BYTE           N06     Gs3   v100
        BYTE   W48
// 058   ----------------------------------------
        BYTE           N24     Ds1   v085
        BYTE   W22
        BYTE           N02     As2   v052
        BYTE   W02
        BYTE           N06     Ds3   v081
        BYTE   W10
        BYTE           N02     Ds3   v077
        BYTE   W02
        BYTE           N06     Fs3   v100
        BYTE   W10
        BYTE           N02     Fs3   v077
        BYTE   W02
        BYTE           N06     As3   v100
        BYTE   W24
        BYTE                   Ds3   v083
        BYTE   W24
// 059   ----------------------------------------
        BYTE           N24     Ds1
        BYTE   W22
        BYTE           N02     Ds3   v052
        BYTE   W02
        BYTE           N06     Fs3   v081
        BYTE   W22
        BYTE           N02     Fs3   v077
        BYTE   W02
        BYTE           N06     As3   v100
        BYTE   W24
        BYTE                   As2   v084
        BYTE           N22     As0
        BYTE   W24
// 060   ----------------------------------------
        BYTE           N24     Bn0
        BYTE   W22
        BYTE           N02     Ds3   v052
        BYTE   W02
        BYTE           N06     Fs3   v081
        BYTE   W22
        BYTE           N02     Fs3   v077
        BYTE   W02
        BYTE           N06     As3   v100
        BYTE   W48
// 061   ----------------------------------------
        BYTE           N24     Cs1   v085
        BYTE   W22
        BYTE           N02     Cs3   v052
        BYTE   W02
        BYTE           N06     Fn3   v081
        BYTE   W22
        BYTE           N02     Fn3   v077
        BYTE   W02
        BYTE           N06     Gs3   v100
        BYTE   W48
// 062   ----------------------------------------
        BYTE           N24     Ds1   v084
        BYTE   W22
        BYTE           N02     As2   v052
        BYTE   W02
        BYTE           N06     Ds3   v081
        BYTE   W10
        BYTE           N02     Ds3   v077
        BYTE   W02
        BYTE           N06     Fs3   v100
        BYTE   W10
        BYTE           N02     Fs3   v077
        BYTE   W02
        BYTE           N06     As3   v100
        BYTE   W24
        BYTE                   Ds3   v083
        BYTE   W24
// 063   ----------------------------------------
        BYTE           N24     Ds1   v086
        BYTE   W22
        BYTE           N02     Ds3   v052
        BYTE   W02
        BYTE           N06     Fs3   v081
        BYTE   W22
        BYTE           N02     Fs3   v077
        BYTE   W02
        BYTE           N06     As3   v100
        BYTE   W24
        BYTE                   As2   v084
        BYTE           N22     As0
        BYTE   W24
// 064   ----------------------------------------
        BYTE   GoTo
         POIN2  LaLWordsofTrust2_8_LOOP
        BYTE   W04
        BYTE   FINE

//****************** Track 9 (Midi-Chn.6) ******************//

LaLWordsofTrust2_9:
        BYTE   KEYSH   LaLWordsofTrust2_key+0
// 000   ----------------------------------------
        BYTE           VOL     73
        BYTE           VOICE   74
        BYTE   W96
// 001   ----------------------------------------
        BYTE   W96
// 002   ----------------------------------------
        BYTE   W96
// 003   ----------------------------------------
        BYTE   W96
// 004   ----------------------------------------
        BYTE   W96
// 005   ----------------------------------------
        BYTE   W96
// 006   ----------------------------------------
        BYTE   W96
// 007   ----------------------------------------
        BYTE   W96
// 008   ----------------------------------------
        BYTE   W96
// 009   ----------------------------------------
        BYTE   W96
// 010   ----------------------------------------
        BYTE   W96
// 011   ----------------------------------------
        BYTE   W96
// 012   ----------------------------------------
        BYTE   W96
// 013   ----------------------------------------
        BYTE   W96
// 014   ----------------------------------------
        BYTE   W96
// 015   ----------------------------------------
        BYTE   W96
// 016   ----------------------------------------
LaLWordsofTrust2_9_LOOP:
        BYTE   W96
// 017   ----------------------------------------
        BYTE   W96
// 018   ----------------------------------------
        BYTE   W96
// 019   ----------------------------------------
        BYTE   W96
// 020   ----------------------------------------
        BYTE   W96
// 021   ----------------------------------------
        BYTE   W96
// 022   ----------------------------------------
        BYTE   W96
// 023   ----------------------------------------
        BYTE   W96
// 024   ----------------------------------------
        BYTE   W96
// 025   ----------------------------------------
        BYTE   W96
// 026   ----------------------------------------
        BYTE   W96
// 027   ----------------------------------------
        BYTE   W96
// 028   ----------------------------------------
        BYTE   W96
// 029   ----------------------------------------
        BYTE   W96
// 030   ----------------------------------------
        BYTE   W96
// 031   ----------------------------------------
        BYTE   W96
// 032   ----------------------------------------
        BYTE           PAN     c_v+24
        BYTE           MOD     30
        BYTE   W12
        BYTE           N22     Fn3   v117
        BYTE           VOL     59
        BYTE   W01
        BYTE                   60
        BYTE   W02
        BYTE                   61
        BYTE   W01
        BYTE                   62
        BYTE   W02
        BYTE                   63
        BYTE   W02
        BYTE                   64
        BYTE   W02
        BYTE                   65
        BYTE   W01
        BYTE                   66
        BYTE   W02
        BYTE                   67
        BYTE   W02
        BYTE                   68
        BYTE   W02
        BYTE                   69
        BYTE   W01
        BYTE                   70
        BYTE   W02
        BYTE                   71
        BYTE   W02
        BYTE                   72
        BYTE   W02
        BYTE           N22     Fs3
        BYTE           VOL     73
        BYTE   W01
        BYTE                   61
        BYTE   W01
        BYTE                   62
        BYTE   W02
        BYTE                   63
        BYTE   W02
        BYTE                   64
        BYTE   W03
        BYTE                   65
        BYTE   W01
        BYTE                   66
        BYTE   W02
        BYTE                   67
        BYTE   W03
        BYTE                   68
        BYTE   W02
        BYTE                   69
        BYTE   W01
        BYTE                   70
        BYTE   W03
        BYTE                   71
        BYTE   W02
        BYTE                   72
        BYTE   W01
        BYTE           N68     Cs4   v100   gtp2
        BYTE   W01
        BYTE           VOL     73
        BYTE   W32
        BYTE   W03
// 033   ----------------------------------------
LaLWordsofTrust2_9_33:
        BYTE   W36
        BYTE           N06     Bn3   v100
        BYTE   W06
        BYTE                   Cs4
        BYTE   W06
        BYTE           N24     Bn3
        BYTE           VOL     65
        BYTE   W02
        BYTE                   66
        BYTE   W04
        BYTE                   67
        BYTE   W04
        BYTE                   68
        BYTE   W03
        BYTE                   69
        BYTE   W02
        BYTE                   70
        BYTE   W04
        BYTE                   71
        BYTE   W04
        BYTE                   72
        BYTE   W01
        BYTE           N12     As3
        BYTE   W12
        BYTE                   Gs3
        BYTE   W12
        BYTE   PEND
// 034   ----------------------------------------
LaLWordsofTrust2_9_34:
        BYTE           N16     As3   v100
        BYTE   W18
        BYTE           N04     Fn4
        BYTE   W05
        BYTE           VOL     62
        BYTE   W01
        BYTE           TIE
        BYTE   W03
        BYTE           VOL     63
        BYTE   W03
        BYTE                   64
        BYTE   W05
        BYTE                   65
        BYTE   W03
        BYTE                   66
        BYTE   W05
        BYTE                   67
        BYTE   W05
        BYTE                   68
        BYTE   W06
        BYTE                   69
        BYTE   W03
        BYTE                   70
        BYTE   W05
        BYTE                   71
        BYTE   W05
        BYTE                   72
        BYTE   W06
        BYTE                   73
        BYTE   W02
        BYTE                   72
        BYTE   W04
        BYTE                   71
        BYTE   W05
        BYTE                   70
        BYTE   W04
        BYTE                   69
        BYTE   W02
        BYTE                   68
        BYTE   W04
        BYTE                   67
        BYTE   W01
        BYTE                   66
        BYTE   W01
        BYTE   PEND
// 035   ----------------------------------------
LaLWordsofTrust2_9_35:
        BYTE   W04
        BYTE           VOL     65
        BYTE   W01
        BYTE                   64
        BYTE   W04
        BYTE                   63
        BYTE   W04
        BYTE                   62
        BYTE   W04
        BYTE                   61
        BYTE   W02
        BYTE                   60
        BYTE   W04
        BYTE                   59
        BYTE   W04
        BYTE                   58
        BYTE   W02
        BYTE                   57
        BYTE   W04
        BYTE                   56
        BYTE   W01
        BYTE           EOT     Fn4
        BYTE           VOL     60
        BYTE   W01
        BYTE                   65
        BYTE   W01
        BYTE           N24     Gs4   v100
        BYTE           VOL     71
        BYTE   W01
        BYTE                   73
        BYTE   W23
        BYTE           N24     Fs4
        BYTE   W24
        BYTE           N12     Fn4
        BYTE   W11
        BYTE           VOL     70
        BYTE   W01
        BYTE   PEND
// 036   ----------------------------------------
LaLWordsofTrust2_9_36:
        BYTE           TIE     Ds4   v100
        BYTE           VOL     73
        BYTE   W01
        BYTE                   72
        BYTE   W01
        BYTE                   73
        BYTE   W02
        BYTE                   72
        BYTE   W03
        BYTE                   71
        BYTE   W04
        BYTE                   70
        BYTE   W03
        BYTE                   69
        BYTE   W02
        BYTE                   68
        BYTE   W03
        BYTE                   67
        BYTE   W03
        BYTE                   66
        BYTE   W04
        BYTE                   65
        BYTE   W02
        BYTE                   64
        BYTE   W03
        BYTE                   63
        BYTE   W04
        BYTE                   62
        BYTE   W03
        BYTE                   61
        BYTE   W02
        BYTE                   60
        BYTE   W03
        BYTE                   59
        BYTE   W04
        BYTE                   58
        BYTE   W01
        BYTE                   57
        BYTE   W04
        BYTE                   56
        BYTE   W03
        BYTE                   55
        BYTE   W04
        BYTE                   54
        BYTE   W01
        BYTE                   53
        BYTE   W04
        BYTE                   52
        BYTE   W03
        BYTE                   51
        BYTE   W04
        BYTE                   50
        BYTE   W01
        BYTE                   49
        BYTE   W04
        BYTE                   48
        BYTE   W03
        BYTE                   47
        BYTE   W04
        BYTE                   46
        BYTE   W01
        BYTE                   45
        BYTE   W04
        BYTE                   44
        BYTE   W03
        BYTE                   43
        BYTE   W04
        BYTE                   42
        BYTE   W01
        BYTE   PEND
// 037   ----------------------------------------
LaLWordsofTrust2_9_37:
        BYTE           VOL     41
        BYTE   W04
        BYTE                   40
        BYTE   W03
        BYTE                   39
        BYTE   W04
        BYTE                   38
        BYTE   W01
        BYTE                   37
        BYTE   W04
        BYTE                   36
        BYTE   W03
        BYTE                   35
        BYTE   W02
        BYTE                   34
        BYTE   W12
        BYTE           EOT     Ds4
        BYTE   W01
        BYTE           VOL     56
        BYTE   W01
        BYTE                   67
        BYTE   W01
        BYTE           N24     Gs4   v100
        BYTE           VOL     73
        BYTE   W24
        BYTE           N24     Fs4
        BYTE   W24
        BYTE           N06     Fn4
        BYTE   W06
        BYTE                   Fs4
        BYTE   W06
        BYTE   PEND
// 038   ----------------------------------------
LaLWordsofTrust2_9_38:
        BYTE           N36     Fn4   v100   gtp3
        BYTE           VOL     63
        BYTE   W04
        BYTE                   64
        BYTE   W05
        BYTE                   65
        BYTE   W02
        BYTE                   66
        BYTE   W05
        BYTE                   67
        BYTE   W05
        BYTE                   68
        BYTE   W04
        BYTE                   69
        BYTE   W03
        BYTE                   70
        BYTE   W04
        BYTE                   71
        BYTE   W05
        BYTE                   72
        BYTE   W02
        BYTE           N04     Fs4
        BYTE   W03
        BYTE           VOL     73
        BYTE   W01
        BYTE           N05     Fn4
        BYTE   W04
        BYTE           VOL     65
        BYTE   W01
        BYTE           TIE     Ds4
        BYTE           VOL     68
        BYTE   W01
        BYTE                   70
        BYTE   W01
        BYTE                   72
        BYTE   W01
        BYTE                   71
        BYTE   W04
        BYTE                   70
        BYTE   W04
        BYTE                   69
        BYTE   W01
        BYTE                   68
        BYTE   W04
        BYTE                   67
        BYTE   W04
        BYTE                   66
        BYTE   W03
        BYTE                   65
        BYTE   W02
        BYTE                   64
        BYTE   W04
        BYTE                   63
        BYTE   W03
        BYTE                   62
        BYTE   W04
        BYTE                   61
        BYTE   W02
        BYTE                   60
        BYTE   W04
        BYTE                   59
        BYTE   W03
        BYTE                   58
        BYTE   W02
        BYTE                   57
        BYTE   W01
        BYTE   PEND
// 039   ----------------------------------------
LaLWordsofTrust2_9_39:
        BYTE   W02
        BYTE           VOL     56
        BYTE   W04
        BYTE                   55
        BYTE   W04
        BYTE                   54
        BYTE   W01
        BYTE                   53
        BYTE   W04
        BYTE                   52
        BYTE   W04
        BYTE                   51
        BYTE   W04
        BYTE                   50
        BYTE   W01
        BYTE                   49
        BYTE   W04
        BYTE                   48
        BYTE   W04
        BYTE                   47
        BYTE   W03
        BYTE                   46
        BYTE   W02
        BYTE                   45
        BYTE   W03
        BYTE                   44
        BYTE   W04
        BYTE                   43
        BYTE   W04
        BYTE                   42
        BYTE   W02
        BYTE                   41
        BYTE   W03
        BYTE                   40
        BYTE   W04
        BYTE                   39
        BYTE   W04
        BYTE                   38
        BYTE   W01
        BYTE                   37
        BYTE   W04
        BYTE           EOT     Ds4
        BYTE           VOL     36
        BYTE   W03
        BYTE                   73
        BYTE   W03
        BYTE           N12     Fs4   v100
        BYTE   W12
        BYTE                   Gs4
        BYTE   W12
        BYTE   PEND
// 040   ----------------------------------------
LaLWordsofTrust2_9_40:
        BYTE           N16     As4   v100
        BYTE   W16
        BYTE           N17     Gs4
        BYTE   W17
        BYTE           N15     Fs4
        BYTE   W15
        BYTE           N48     Ds4
        BYTE   W48
        BYTE   PEND
// 041   ----------------------------------------
LaLWordsofTrust2_9_41:
        BYTE           N16     Gs4   v100
        BYTE   W16
        BYTE           N17     Fs4
        BYTE   W17
        BYTE           N15     Fn4
        BYTE   W15
        BYTE           N44     Cs4   v100   gtp2
        BYTE   W44
        BYTE   W03
        BYTE           VOL     69
        BYTE   W01
        BYTE   PEND
// 042   ----------------------------------------
LaLWordsofTrust2_9_42:
        BYTE           TIE     Ds4   v100
        BYTE           VOL     71
        BYTE   W01
        BYTE                   72
        BYTE   W01
        BYTE                   73
        BYTE   W05
        BYTE                   72
        BYTE   W02
        BYTE                   71
        BYTE   W05
        BYTE                   70
        BYTE   W04
        BYTE                   69
        BYTE   W04
        BYTE                   68
        BYTE   W04
        BYTE                   67
        BYTE   W11
        BYTE                   66
        BYTE   W04
        BYTE                   65
        BYTE   W01
        BYTE                   64
        BYTE   W01
        BYTE                   63
        BYTE   W03
        BYTE                   62
        BYTE   W02
        BYTE                   61
        BYTE   W01
        BYTE                   60
        BYTE   W03
        BYTE                   59
        BYTE   W04
        BYTE                   58
        BYTE   W01
        BYTE                   57
        BYTE   W03
        BYTE                   56
        BYTE   W06
        BYTE                   55
        BYTE   W05
        BYTE                   54
        BYTE   W04
        BYTE                   53
        BYTE   W04
        BYTE                   52
        BYTE   W03
        BYTE                   51
        BYTE   W06
        BYTE                   50
        BYTE   W01
        BYTE                   49
        BYTE   W05
        BYTE                   48
        BYTE   W02
        BYTE   PEND
// 043   ----------------------------------------
LaLWordsofTrust2_9_43:
        BYTE   W03
        BYTE           VOL     47
        BYTE   W03
        BYTE                   46
        BYTE   W03
        BYTE                   45
        BYTE   W05
        BYTE                   44
        BYTE   W04
        BYTE                   43
        BYTE   W03
        BYTE                   42
        BYTE   W02
        BYTE                   41
        BYTE   W02
        BYTE                   40
        BYTE   W04
        BYTE                   39
        BYTE   W06
        BYTE                   38
        BYTE   W03
        BYTE                   37
        BYTE   W02
        BYTE                   36
        BYTE   W03
        BYTE                   35
        BYTE   W02
        BYTE                   34
        BYTE   W06
        BYTE                   33
        BYTE   W01
        BYTE                   32
        BYTE   W02
        BYTE                   31
        BYTE   W03
        BYTE                   29
        BYTE   W02
        BYTE                   28
        BYTE   W01
        BYTE                   26
        BYTE   W01
        BYTE                   25
        BYTE   W01
        BYTE                   23
        BYTE   W01
        BYTE                   21
        BYTE   W01
        BYTE                   20
        BYTE   W01
        BYTE                   19
        BYTE   W04
        BYTE           EOT     Ds4
        BYTE   W02
        BYTE           VOL     71
        BYTE   W01
        BYTE           N12     Fs4   v100
        BYTE           VOL     72
        BYTE   W01
        BYTE                   73
        BYTE   W11
        BYTE           N12     Gs4
        BYTE   W12
        BYTE   PEND
// 044   ----------------------------------------
        BYTE   PATT
         POIN2  LaLWordsofTrust2_9_40
// 045   ----------------------------------------
LaLWordsofTrust2_9_45:
        BYTE           N16     Gs4   v100
        BYTE   W16
        BYTE           N17     Fs4
        BYTE   W17
        BYTE           N15     Fn4
        BYTE   W15
        BYTE           N44     Cs4   v100   gtp2
        BYTE   W44
        BYTE   W03
        BYTE           VOL     70
        BYTE   W01
        BYTE   PEND
// 046   ----------------------------------------
LaLWordsofTrust2_9_46:
        BYTE           TIE     Ds4   v100
        BYTE           VOL     72
        BYTE   W01
        BYTE                   73
        BYTE   W18
        BYTE                   72
        BYTE   W09
        BYTE                   71
        BYTE   W07
        BYTE                   70
        BYTE   W05
        BYTE                   69
        BYTE   W04
        BYTE                   68
        BYTE   W05
        BYTE                   67
        BYTE   W03
        BYTE                   66
        BYTE   W04
        BYTE                   65
        BYTE   W03
        BYTE                   64
        BYTE   W05
        BYTE                   63
        BYTE   W03
        BYTE                   62
        BYTE   W04
        BYTE                   61
        BYTE   W01
        BYTE                   60
        BYTE   W01
        BYTE                   59
        BYTE   W02
        BYTE                   58
        BYTE   W02
        BYTE                   57
        BYTE   W02
        BYTE                   56
        BYTE   W01
        BYTE                   55
        BYTE   W03
        BYTE                   53
        BYTE   W02
        BYTE                   52
        BYTE   W02
        BYTE                   51
        BYTE   W02
        BYTE                   49
        BYTE   W02
        BYTE                   48
        BYTE   W01
        BYTE                   47
        BYTE   W04
        BYTE   PEND
// 047   ----------------------------------------
        BYTE   W01
        BYTE                   46
        BYTE   W02
        BYTE                   45
        BYTE   W04
        BYTE                   44
        BYTE   W02
        BYTE                   43
        BYTE   W02
        BYTE                   42
        BYTE   W01
        BYTE                   41
        BYTE   W01
        BYTE                   40
        BYTE   W02
        BYTE                   39
        BYTE   W01
        BYTE                   38
        BYTE   W01
        BYTE                   37
        BYTE   W02
        BYTE                   36
        BYTE   W02
        BYTE                   35
        BYTE   W01
        BYTE                   34
        BYTE   W01
        BYTE                   33
        BYTE   W04
        BYTE                   32
        BYTE   W04
        BYTE                   31
        BYTE   W02
        BYTE                   30
        BYTE   W06
        BYTE                   29
        BYTE   W07
        BYTE                   28
        BYTE   W01
        BYTE                   27
        BYTE   W01
        BYTE                   26
        BYTE   W04
        BYTE                   25
        BYTE   W04
        BYTE                   24
        BYTE   W02
        BYTE                   23
        BYTE   W02
        BYTE                   22
        BYTE   W06
        BYTE                   21
        BYTE   W03
        BYTE                   20
        BYTE   W02
        BYTE                   19
        BYTE   W02
        BYTE                   18
        BYTE   W03
        BYTE                   17
        BYTE   W04
        BYTE                   16
        BYTE   W02
        BYTE                   15
        BYTE   W01
        BYTE                   14
        BYTE   W02
        BYTE                   13
        BYTE   W02
        BYTE                   11
        BYTE   W02
        BYTE                   10
        BYTE   W01
        BYTE                   9
        BYTE   W01
        BYTE                   7
        BYTE   W01
        BYTE                   5
        BYTE   W01
        BYTE                   3
        BYTE   W01
        BYTE           EOT
        BYTE           VOL     1
        BYTE   W02
// 048   ----------------------------------------
        BYTE   W12
        BYTE           N22     Fn3   v117
        BYTE           VOL     59
        BYTE   W01
        BYTE                   60
        BYTE   W02
        BYTE                   61
        BYTE   W01
        BYTE                   62
        BYTE   W02
        BYTE                   63
        BYTE   W02
        BYTE                   64
        BYTE   W02
        BYTE                   65
        BYTE   W01
        BYTE                   66
        BYTE   W02
        BYTE                   67
        BYTE   W02
        BYTE                   68
        BYTE   W02
        BYTE                   69
        BYTE   W01
        BYTE                   70
        BYTE   W02
        BYTE                   71
        BYTE   W02
        BYTE                   72
        BYTE   W02
        BYTE           N22     Fs3
        BYTE           VOL     73
        BYTE   W01
        BYTE                   61
        BYTE   W01
        BYTE                   62
        BYTE   W02
        BYTE                   63
        BYTE   W02
        BYTE                   64
        BYTE   W03
        BYTE                   65
        BYTE   W01
        BYTE                   66
        BYTE   W02
        BYTE                   67
        BYTE   W03
        BYTE                   68
        BYTE   W02
        BYTE                   69
        BYTE   W01
        BYTE                   70
        BYTE   W03
        BYTE                   71
        BYTE   W02
        BYTE                   72
        BYTE   W01
        BYTE           N68     Cs4   v100   gtp2
        BYTE   W01
        BYTE           VOL     73
        BYTE   W32
        BYTE   W03
// 049   ----------------------------------------
        BYTE   PATT
         POIN2  LaLWordsofTrust2_9_33
// 050   ----------------------------------------
        BYTE   PATT
         POIN2  LaLWordsofTrust2_9_34
// 051   ----------------------------------------
        BYTE   PATT
         POIN2  LaLWordsofTrust2_9_35
// 052   ----------------------------------------
        BYTE   PATT
         POIN2  LaLWordsofTrust2_9_36
// 053   ----------------------------------------
        BYTE   PATT
         POIN2  LaLWordsofTrust2_9_37
// 054   ----------------------------------------
        BYTE   PATT
         POIN2  LaLWordsofTrust2_9_38
// 055   ----------------------------------------
        BYTE   PATT
         POIN2  LaLWordsofTrust2_9_39
// 056   ----------------------------------------
        BYTE   PATT
         POIN2  LaLWordsofTrust2_9_40
// 057   ----------------------------------------
        BYTE   PATT
         POIN2  LaLWordsofTrust2_9_41
// 058   ----------------------------------------
        BYTE   PATT
         POIN2  LaLWordsofTrust2_9_42
// 059   ----------------------------------------
        BYTE   PATT
         POIN2  LaLWordsofTrust2_9_43
// 060   ----------------------------------------
        BYTE   PATT
         POIN2  LaLWordsofTrust2_9_40
// 061   ----------------------------------------
        BYTE   PATT
         POIN2  LaLWordsofTrust2_9_45
// 062   ----------------------------------------
        BYTE   PATT
         POIN2  LaLWordsofTrust2_9_46
// 063   ----------------------------------------
        BYTE   W01
        BYTE           VOL     46
        BYTE   W02
        BYTE                   45
        BYTE   W04
        BYTE                   44
        BYTE   W02
        BYTE                   43
        BYTE   W02
        BYTE                   42
        BYTE   W01
        BYTE                   41
        BYTE   W01
        BYTE                   40
        BYTE   W02
        BYTE                   39
        BYTE   W01
        BYTE                   38
        BYTE   W01
        BYTE                   37
        BYTE   W02
        BYTE                   36
        BYTE   W02
        BYTE                   35
        BYTE   W01
        BYTE                   34
        BYTE   W01
        BYTE                   33
        BYTE   W04
        BYTE                   32
        BYTE   W04
        BYTE                   31
        BYTE   W02
        BYTE                   30
        BYTE   W06
        BYTE                   29
        BYTE   W07
        BYTE                   28
        BYTE   W01
        BYTE                   27
        BYTE   W01
        BYTE                   26
        BYTE   W04
        BYTE                   25
        BYTE   W04
        BYTE                   24
        BYTE   W02
        BYTE                   23
        BYTE   W02
        BYTE                   22
        BYTE   W06
        BYTE                   21
        BYTE   W03
        BYTE                   20
        BYTE   W02
        BYTE                   19
        BYTE   W02
        BYTE                   18
        BYTE   W03
        BYTE                   17
        BYTE   W04
        BYTE                   16
        BYTE   W02
        BYTE                   15
        BYTE   W01
        BYTE                   14
        BYTE   W02
        BYTE                   13
        BYTE   W02
        BYTE                   11
        BYTE   W02
        BYTE                   10
        BYTE   W01
        BYTE                   9
        BYTE   W01
        BYTE                   7
        BYTE   W01
        BYTE                   5
        BYTE   W01
        BYTE                   3
        BYTE   W01
        BYTE           EOT     Ds4
        BYTE           VOL     2
        BYTE   W02
// 064   ----------------------------------------
        BYTE                   73
        BYTE           PAN     c_v+0
        BYTE           MOD     0
        BYTE   GoTo
         POIN2  LaLWordsofTrust2_9_LOOP
        BYTE   W04
        BYTE   FINE

//***************** Track 10 (Midi-Chn.7) ******************//

LaLWordsofTrust2_10:
        BYTE   KEYSH   LaLWordsofTrust2_key+0
// 000   ----------------------------------------
        BYTE           VOICE   68
        BYTE   W96
// 001   ----------------------------------------
        BYTE   W96
// 002   ----------------------------------------
        BYTE   W96
// 003   ----------------------------------------
        BYTE   W96
// 004   ----------------------------------------
        BYTE   W96
// 005   ----------------------------------------
        BYTE   W96
// 006   ----------------------------------------
        BYTE   W96
// 007   ----------------------------------------
        BYTE   W96
// 008   ----------------------------------------
        BYTE   W96
// 009   ----------------------------------------
        BYTE   W96
// 010   ----------------------------------------
        BYTE   W96
// 011   ----------------------------------------
        BYTE   W96
// 012   ----------------------------------------
        BYTE   W96
// 013   ----------------------------------------
        BYTE   W96
// 014   ----------------------------------------
        BYTE   W96
// 015   ----------------------------------------
        BYTE   W96
// 016   ----------------------------------------
LaLWordsofTrust2_10_LOOP:
        BYTE   W96
// 017   ----------------------------------------
        BYTE   W96
// 018   ----------------------------------------
        BYTE   W96
// 019   ----------------------------------------
        BYTE   W96
// 020   ----------------------------------------
        BYTE   W96
// 021   ----------------------------------------
        BYTE   W96
// 022   ----------------------------------------
        BYTE   W96
// 023   ----------------------------------------
        BYTE   W96
// 024   ----------------------------------------
        BYTE   W96
// 025   ----------------------------------------
        BYTE   W96
// 026   ----------------------------------------
        BYTE   W96
// 027   ----------------------------------------
        BYTE   W96
// 028   ----------------------------------------
        BYTE   W96
// 029   ----------------------------------------
        BYTE   W96
// 030   ----------------------------------------
        BYTE   W96
// 031   ----------------------------------------
        BYTE   W96
// 032   ----------------------------------------
        BYTE           VOL     80
        BYTE           PAN     c_v-32
        BYTE           MOD     34
        BYTE   W12
        BYTE           N22     Fn3   v100
        BYTE           VOL     74
        BYTE   W04
        BYTE                   75
        BYTE   W03
        BYTE                   76
        BYTE   W04
        BYTE                   77
        BYTE   W05
        BYTE                   78
        BYTE   W02
        BYTE                   79
        BYTE   W05
        BYTE                   80
        BYTE   W01
        BYTE           N22     Fs3
        BYTE           VOL     70
        BYTE   W01
        BYTE                   71
        BYTE   W03
        BYTE                   72
        BYTE   W04
        BYTE                   73
        BYTE   W01
        BYTE                   74
        BYTE   W03
        BYTE                   75
        BYTE   W02
        BYTE                   76
        BYTE   W03
        BYTE                   77
        BYTE   W03
        BYTE                   78
        BYTE   W01
        BYTE                   79
        BYTE   W03
        BYTE           N68     Cs4   v100   gtp2
        BYTE           VOL     71
        BYTE   W03
        BYTE                   72
        BYTE   W03
        BYTE                   73
        BYTE   W02
        BYTE                   74
        BYTE   W03
        BYTE                   75
        BYTE   W01
        BYTE                   76
        BYTE   W04
        BYTE                   77
        BYTE   W03
        BYTE                   78
        BYTE   W01
        BYTE                   79
        BYTE   W03
        BYTE                   80
        BYTE   W13
// 033   ----------------------------------------
LaLWordsofTrust2_10_33:
        BYTE   W36
        BYTE           N06     Bn3   v100
        BYTE   W06
        BYTE                   Cs4   v103
        BYTE   W06
        BYTE           VOL     68
        BYTE           N24     Bn3   v100
        BYTE   W01
        BYTE           VOL     69
        BYTE   W03
        BYTE                   70
        BYTE   W01
        BYTE                   71
        BYTE   W03
        BYTE                   72
        BYTE   W03
        BYTE                   73
        BYTE   W01
        BYTE                   74
        BYTE   W03
        BYTE                   75
        BYTE   W01
        BYTE                   76
        BYTE   W03
        BYTE                   77
        BYTE   W03
        BYTE                   78
        BYTE   W01
        BYTE                   79
        BYTE   W01
        BYTE           N12     As3
        BYTE   W12
        BYTE                   Gs3
        BYTE   W12
        BYTE   PEND
// 034   ----------------------------------------
        BYTE           N16     As3
        BYTE   W18
        BYTE           N04     Fn4
        BYTE   W06
        BYTE           TIE
        BYTE           VOL     70
        BYTE   W04
        BYTE                   71
        BYTE   W08
        BYTE                   72
        BYTE   W08
        BYTE                   73
        BYTE   W04
        BYTE                   74
        BYTE   W08
        BYTE                   75
        BYTE   W04
        BYTE                   76
        BYTE   W08
        BYTE                   77
        BYTE   W08
        BYTE                   78
        BYTE   W04
        BYTE                   79
        BYTE   W03
        BYTE                   78
        BYTE   W01
        BYTE                   77
        BYTE   W02
        BYTE                   76
        BYTE   W02
        BYTE                   75
        BYTE   W01
        BYTE                   74
        BYTE   W02
        BYTE                   73
        BYTE   W01
        BYTE                   72
        BYTE   W03
        BYTE                   71
        BYTE   W01
// 035   ----------------------------------------
LaLWordsofTrust2_10_35:
        BYTE   W01
        BYTE           VOL     70
        BYTE   W01
        BYTE                   69
        BYTE   W02
        BYTE                   68
        BYTE   W02
        BYTE                   67
        BYTE   W02
        BYTE                   66
        BYTE   W02
        BYTE                   65
        BYTE   W01
        BYTE                   64
        BYTE   W03
        BYTE                   63
        BYTE   W01
        BYTE                   62
        BYTE   W02
        BYTE                   61
        BYTE   W01
        BYTE                   60
        BYTE   W02
        BYTE                   59
        BYTE   W03
        BYTE                   58
        BYTE   W01
        BYTE                   57
        BYTE   W02
        BYTE                   56
        BYTE   W01
        BYTE                   55
        BYTE   W02
        BYTE                   54
        BYTE   W03
        BYTE                   53
        BYTE   W01
        BYTE                   52
        BYTE   W01
        BYTE           EOT     Fn4
        BYTE           VOL     57
        BYTE   W01
        BYTE                   69
        BYTE   W01
        BYTE           N24     Gs4   v100
        BYTE           VOL     77
        BYTE   W01
        BYTE                   80
        BYTE   W23
        BYTE           N24     Fs4
        BYTE   W24
        BYTE           N12     Fn4
        BYTE   W12
        BYTE   PEND
// 036   ----------------------------------------
LaLWordsofTrust2_10_36:
        BYTE           TIE     Ds4   v100
        BYTE           VOL     72
        BYTE   W02
        BYTE                   73
        BYTE   W01
        BYTE                   74
        BYTE   W04
        BYTE                   75
        BYTE   W01
        BYTE                   76
        BYTE   W04
        BYTE                   77
        BYTE   W03
        BYTE                   78
        BYTE   W02
        BYTE                   79
        BYTE   W03
        BYTE                   80
        BYTE   W01
        BYTE                   79
        BYTE   W02
        BYTE                   78
        BYTE   W01
        BYTE                   77
        BYTE   W02
        BYTE                   76
        BYTE   W03
        BYTE                   75
        BYTE   W01
        BYTE                   74
        BYTE   W02
        BYTE                   73
        BYTE   W01
        BYTE                   72
        BYTE   W02
        BYTE                   71
        BYTE   W02
        BYTE                   70
        BYTE   W02
        BYTE                   69
        BYTE   W02
        BYTE                   68
        BYTE   W01
        BYTE                   67
        BYTE   W02
        BYTE                   66
        BYTE   W02
        BYTE                   65
        BYTE   W02
        BYTE                   64
        BYTE   W02
        BYTE                   63
        BYTE   W01
        BYTE                   62
        BYTE   W02
        BYTE                   61
        BYTE   W01
        BYTE                   60
        BYTE   W03
        BYTE                   59
        BYTE   W02
        BYTE                   58
        BYTE   W01
        BYTE                   57
        BYTE   W02
        BYTE                   56
        BYTE   W01
        BYTE                   55
        BYTE   W03
        BYTE                   54
        BYTE   W02
        BYTE                   53
        BYTE   W01
        BYTE                   52
        BYTE   W02
        BYTE                   51
        BYTE   W01
        BYTE                   50
        BYTE   W03
        BYTE                   49
        BYTE   W02
        BYTE                   48
        BYTE   W01
        BYTE                   47
        BYTE   W02
        BYTE                   46
        BYTE   W01
        BYTE                   45
        BYTE   W02
        BYTE                   44
        BYTE   W02
        BYTE                   43
        BYTE   W02
        BYTE                   42
        BYTE   W02
        BYTE                   41
        BYTE   W01
        BYTE                   40
        BYTE   W03
        BYTE                   39
        BYTE   W01
        BYTE                   38
        BYTE   W02
        BYTE   PEND
// 037   ----------------------------------------
LaLWordsofTrust2_10_37:
        BYTE           VOL     37
        BYTE   W02
        BYTE                   36
        BYTE   W01
        BYTE                   35
        BYTE   W02
        BYTE                   34
        BYTE   W01
        BYTE                   33
        BYTE   W03
        BYTE                   32
        BYTE   W01
        BYTE                   31
        BYTE   W02
        BYTE                   30
        BYTE   W02
        BYTE                   29
        BYTE   W02
        BYTE                   28
        BYTE   W02
        BYTE                   27
        BYTE   W01
        BYTE                   26
        BYTE   W02
        BYTE                   25
        BYTE   W02
        BYTE                   24
        BYTE   W01
        BYTE                   23
        BYTE   W03
        BYTE                   22
        BYTE   W01
        BYTE                   21
        BYTE   W02
        BYTE                   20
        BYTE   W01
        BYTE           EOT     Ds4
        BYTE   W03
        BYTE           VOL     76
        BYTE   W01
        BYTE                   77
        BYTE   W01
        BYTE           N24     Gs4   v100
        BYTE           VOL     78
        BYTE   W01
        BYTE                   80
        BYTE   W23
        BYTE           N24     Fs4
        BYTE   W24
        BYTE           N06     Fn4
        BYTE   W06
        BYTE                   Fs4
        BYTE   W06
        BYTE   PEND
// 038   ----------------------------------------
LaLWordsofTrust2_10_38:
        BYTE           N36     Fn4   v100   gtp3
        BYTE           VOL     74
        BYTE   W02
        BYTE                   75
        BYTE   W01
        BYTE                   76
        BYTE   W01
        BYTE                   77
        BYTE   W01
        BYTE                   78
        BYTE   W01
        BYTE                   79
        BYTE   W01
        BYTE                   80
        BYTE   W22
        BYTE                   74
        BYTE   W01
        BYTE                   75
        BYTE   W01
        BYTE                   76
        BYTE   W01
        BYTE                   77
        BYTE   W01
        BYTE                   79
        BYTE   W01
        BYTE                   80
        BYTE   W05
        BYTE           N04     Fs4
        BYTE           VOL     79
        BYTE   W04
        BYTE           N05     Fn4
        BYTE   W04
        BYTE           VOL     78
        BYTE   W01
        BYTE           TIE     Ds4
        BYTE   W03
        BYTE           VOL     77
        BYTE   W08
        BYTE                   76
        BYTE   W08
        BYTE                   75
        BYTE   W04
        BYTE                   74
        BYTE   W09
        BYTE                   73
        BYTE   W04
        BYTE                   72
        BYTE   W08
        BYTE                   71
        BYTE   W04
        BYTE   PEND
// 039   ----------------------------------------
LaLWordsofTrust2_10_39:
        BYTE   W04
        BYTE           VOL     70
        BYTE   W04
        BYTE                   69
        BYTE   W09
        BYTE                   68
        BYTE   W04
        BYTE                   67
        BYTE   W08
        BYTE                   66
        BYTE   W08
        BYTE                   65
        BYTE   W04
        BYTE                   64
        BYTE   W08
        BYTE                   63
        BYTE   W04
        BYTE                   62
        BYTE   W09
        BYTE                   61
        BYTE   W03
        BYTE                   60
        BYTE   W01
        BYTE           EOT     Ds4
        BYTE   W04
        BYTE           VOL     77
        BYTE   W01
        BYTE                   79
        BYTE   W01
        BYTE           N12     Fs4   v100
        BYTE   W01
        BYTE           VOL     80
        BYTE   W11
        BYTE           N12     Gs4
        BYTE   W12
        BYTE   PEND
// 040   ----------------------------------------
        BYTE   PATT
         POIN2  LaLWordsofTrust2_9_40
// 041   ----------------------------------------
LaLWordsofTrust2_10_41:
        BYTE           N16     Gs4   v100
        BYTE   W16
        BYTE           N17     Fs4
        BYTE   W17
        BYTE           N15     Fn4
        BYTE   W15
        BYTE           N44     Cs4   v100   gtp2
        BYTE   W48
        BYTE   PEND
// 042   ----------------------------------------
LaLWordsofTrust2_10_42:
        BYTE           TIE     Ds4   v100
        BYTE   W30
        BYTE   W01
        BYTE           VOL     79
        BYTE   W07
        BYTE                   78
        BYTE   W04
        BYTE                   77
        BYTE   W05
        BYTE                   76
        BYTE   W04
        BYTE                   75
        BYTE   W02
        BYTE                   74
        BYTE   W04
        BYTE                   73
        BYTE   W01
        BYTE                   72
        BYTE   W02
        BYTE                   71
        BYTE   W01
        BYTE                   70
        BYTE   W02
        BYTE                   69
        BYTE   W03
        BYTE                   68
        BYTE   W02
        BYTE                   67
        BYTE   W01
        BYTE                   66
        BYTE   W02
        BYTE                   65
        BYTE   W01
        BYTE                   64
        BYTE   W06
        BYTE                   63
        BYTE   W01
        BYTE                   62
        BYTE   W04
        BYTE                   61
        BYTE   W02
        BYTE                   60
        BYTE   W03
        BYTE                   59
        BYTE   W05
        BYTE                   58
        BYTE   W02
        BYTE                   57
        BYTE   W01
        BYTE   PEND
// 043   ----------------------------------------
LaLWordsofTrust2_10_43:
        BYTE   W03
        BYTE           VOL     55
        BYTE   W02
        BYTE                   54
        BYTE   W04
        BYTE                   53
        BYTE   W01
        BYTE                   52
        BYTE   W03
        BYTE                   51
        BYTE   W03
        BYTE                   50
        BYTE   W04
        BYTE                   49
        BYTE   W05
        BYTE                   48
        BYTE   W02
        BYTE                   47
        BYTE   W02
        BYTE                   46
        BYTE   W02
        BYTE                   45
        BYTE   W03
        BYTE                   43
        BYTE   W02
        BYTE                   42
        BYTE   W03
        BYTE                   41
        BYTE   W02
        BYTE                   40
        BYTE   W02
        BYTE                   39
        BYTE   W01
        BYTE                   38
        BYTE   W01
        BYTE                   37
        BYTE   W01
        BYTE                   36
        BYTE   W01
        BYTE                   35
        BYTE   W01
        BYTE                   34
        BYTE   W01
        BYTE                   33
        BYTE   W02
        BYTE                   32
        BYTE   W01
        BYTE                   31
        BYTE   W01
        BYTE                   30
        BYTE   W02
        BYTE                   28
        BYTE   W02
        BYTE                   26
        BYTE   W02
        BYTE                   25
        BYTE   W01
        BYTE                   23
        BYTE   W02
        BYTE                   21
        BYTE   W01
        BYTE                   20
        BYTE   W01
        BYTE                   17
        BYTE   W01
        BYTE                   16
        BYTE   W01
        BYTE                   13
        BYTE   W01
        BYTE           EOT     Ds4
        BYTE           VOL     8
        BYTE   W01
        BYTE                   1
        BYTE   W02
        BYTE                   25
        BYTE   W01
        BYTE                   42
        BYTE   W01
        BYTE           N12     Fs4   v100
        BYTE           VOL     59
        BYTE   W01
        BYTE                   71
        BYTE   W01
        BYTE                   80
        BYTE   W10
        BYTE           N12     Gs4
        BYTE   W12
        BYTE   PEND
// 044   ----------------------------------------
        BYTE   PATT
         POIN2  LaLWordsofTrust2_9_40
// 045   ----------------------------------------
        BYTE   PATT
         POIN2  LaLWordsofTrust2_10_41
// 046   ----------------------------------------
LaLWordsofTrust2_10_46:
        BYTE           TIE     Ds4   v100
        BYTE           VOL     79
        BYTE   W17
        BYTE                   78
        BYTE   W03
        BYTE                   77
        BYTE   W06
        BYTE                   76
        BYTE   W05
        BYTE                   75
        BYTE   W02
        BYTE                   74
        BYTE   W04
        BYTE                   73
        BYTE   W03
        BYTE                   72
        BYTE   W04
        BYTE                   71
        BYTE   W06
        BYTE                   70
        BYTE   W03
        BYTE                   69
        BYTE   W08
        BYTE                   68
        BYTE   W02
        BYTE                   67
        BYTE   W09
        BYTE                   66
        BYTE   W06
        BYTE                   65
        BYTE   W05
        BYTE                   64
        BYTE   W08
        BYTE                   63
        BYTE   W02
        BYTE                   62
        BYTE   W03
        BYTE   PEND
// 047   ----------------------------------------
        BYTE   W01
        BYTE                   61
        BYTE   W02
        BYTE                   60
        BYTE   W06
        BYTE                   59
        BYTE   W04
        BYTE                   58
        BYTE   W04
        BYTE                   57
        BYTE   W07
        BYTE                   56
        BYTE   W03
        BYTE                   55
        BYTE   W03
        BYTE                   54
        BYTE   W07
        BYTE                   53
        BYTE   W01
        BYTE                   52
        BYTE   W06
        BYTE                   51
        BYTE   W04
        BYTE                   50
        BYTE   W05
        BYTE                   49
        BYTE   W04
        BYTE                   48
        BYTE   W01
        BYTE                   47
        BYTE   W01
        BYTE                   46
        BYTE   W01
        BYTE                   45
        BYTE   W01
        BYTE                   44
        BYTE   W02
        BYTE                   43
        BYTE   W02
        BYTE                   42
        BYTE   W02
        BYTE                   41
        BYTE   W02
        BYTE                   40
        BYTE   W02
        BYTE                   39
        BYTE   W01
        BYTE                   38
        BYTE   W01
        BYTE                   37
        BYTE   W01
        BYTE                   36
        BYTE   W01
        BYTE                   35
        BYTE   W02
        BYTE                   33
        BYTE   W01
        BYTE                   32
        BYTE   W01
        BYTE                   31
        BYTE   W01
        BYTE                   30
        BYTE   W01
        BYTE                   28
        BYTE   W01
        BYTE                   26
        BYTE   W01
        BYTE                   23
        BYTE   W02
        BYTE                   21
        BYTE   W01
        BYTE                   20
        BYTE   W01
        BYTE                   18
        BYTE   W01
        BYTE                   16
        BYTE   W01
        BYTE                   14
        BYTE   W01
        BYTE                   13
        BYTE   W01
        BYTE                   10
        BYTE   W01
        BYTE                   8
        BYTE   W01
        BYTE                   5
        BYTE   W01
        BYTE           EOT
        BYTE           VOL     3
        BYTE   W02
// 048   ----------------------------------------
        BYTE   W12
        BYTE                   74
        BYTE           N22     Fn3
        BYTE   W04
        BYTE           VOL     75
        BYTE   W03
        BYTE                   76
        BYTE   W04
        BYTE                   77
        BYTE   W05
        BYTE                   78
        BYTE   W02
        BYTE                   79
        BYTE   W05
        BYTE                   80
        BYTE   W01
        BYTE           N22     Fs3
        BYTE           VOL     70
        BYTE   W01
        BYTE                   71
        BYTE   W03
        BYTE                   72
        BYTE   W04
        BYTE                   73
        BYTE   W01
        BYTE                   74
        BYTE   W03
        BYTE                   75
        BYTE   W02
        BYTE                   76
        BYTE   W03
        BYTE                   77
        BYTE   W03
        BYTE                   78
        BYTE   W01
        BYTE                   79
        BYTE   W03
        BYTE           N68     Cs4   v100   gtp2
        BYTE           VOL     71
        BYTE   W03
        BYTE                   72
        BYTE   W03
        BYTE                   73
        BYTE   W02
        BYTE                   74
        BYTE   W03
        BYTE                   75
        BYTE   W01
        BYTE                   76
        BYTE   W04
        BYTE                   77
        BYTE   W03
        BYTE                   78
        BYTE   W01
        BYTE                   79
        BYTE   W03
        BYTE                   80
        BYTE   W13
// 049   ----------------------------------------
        BYTE   PATT
         POIN2  LaLWordsofTrust2_10_33
// 050   ----------------------------------------
        BYTE           N16     As3   v100
        BYTE   W18
        BYTE           N04     Fn4
        BYTE   W06
        BYTE           VOL     70
        BYTE           TIE
        BYTE   W04
        BYTE           VOL     71
        BYTE   W08
        BYTE                   72
        BYTE   W08
        BYTE                   73
        BYTE   W04
        BYTE                   74
        BYTE   W08
        BYTE                   75
        BYTE   W04
        BYTE                   76
        BYTE   W08
        BYTE                   77
        BYTE   W08
        BYTE                   78
        BYTE   W04
        BYTE                   79
        BYTE   W03
        BYTE                   78
        BYTE   W01
        BYTE                   77
        BYTE   W02
        BYTE                   76
        BYTE   W02
        BYTE                   75
        BYTE   W01
        BYTE                   74
        BYTE   W02
        BYTE                   73
        BYTE   W01
        BYTE                   72
        BYTE   W03
        BYTE                   71
        BYTE   W01
// 051   ----------------------------------------
        BYTE   PATT
         POIN2  LaLWordsofTrust2_10_35
// 052   ----------------------------------------
        BYTE   PATT
         POIN2  LaLWordsofTrust2_10_36
// 053   ----------------------------------------
        BYTE   PATT
         POIN2  LaLWordsofTrust2_10_37
// 054   ----------------------------------------
        BYTE   PATT
         POIN2  LaLWordsofTrust2_10_38
// 055   ----------------------------------------
        BYTE   PATT
         POIN2  LaLWordsofTrust2_10_39
// 056   ----------------------------------------
        BYTE   PATT
         POIN2  LaLWordsofTrust2_9_40
// 057   ----------------------------------------
        BYTE   PATT
         POIN2  LaLWordsofTrust2_10_41
// 058   ----------------------------------------
        BYTE   PATT
         POIN2  LaLWordsofTrust2_10_42
// 059   ----------------------------------------
        BYTE   PATT
         POIN2  LaLWordsofTrust2_10_43
// 060   ----------------------------------------
        BYTE   PATT
         POIN2  LaLWordsofTrust2_9_40
// 061   ----------------------------------------
        BYTE   PATT
         POIN2  LaLWordsofTrust2_10_41
// 062   ----------------------------------------
        BYTE   PATT
         POIN2  LaLWordsofTrust2_10_46
// 063   ----------------------------------------
        BYTE   W01
        BYTE           VOL     61
        BYTE   W02
        BYTE                   60
        BYTE   W06
        BYTE                   59
        BYTE   W04
        BYTE                   58
        BYTE   W04
        BYTE                   57
        BYTE   W07
        BYTE                   56
        BYTE   W03
        BYTE                   55
        BYTE   W03
        BYTE                   54
        BYTE   W07
        BYTE                   53
        BYTE   W01
        BYTE                   52
        BYTE   W06
        BYTE                   51
        BYTE   W04
        BYTE                   50
        BYTE   W05
        BYTE                   49
        BYTE   W04
        BYTE                   48
        BYTE   W01
        BYTE                   47
        BYTE   W01
        BYTE                   46
        BYTE   W01
        BYTE                   45
        BYTE   W01
        BYTE                   44
        BYTE   W02
        BYTE                   43
        BYTE   W02
        BYTE                   42
        BYTE   W02
        BYTE                   41
        BYTE   W02
        BYTE                   40
        BYTE   W02
        BYTE                   39
        BYTE   W01
        BYTE                   38
        BYTE   W01
        BYTE                   37
        BYTE   W01
        BYTE                   36
        BYTE   W01
        BYTE                   35
        BYTE   W02
        BYTE                   33
        BYTE   W01
        BYTE                   32
        BYTE   W01
        BYTE                   31
        BYTE   W01
        BYTE                   30
        BYTE   W01
        BYTE                   28
        BYTE   W01
        BYTE                   26
        BYTE   W01
        BYTE                   23
        BYTE   W02
        BYTE                   21
        BYTE   W01
        BYTE                   20
        BYTE   W01
        BYTE                   18
        BYTE   W01
        BYTE                   16
        BYTE   W01
        BYTE                   14
        BYTE   W01
        BYTE                   13
        BYTE   W01
        BYTE                   10
        BYTE   W01
        BYTE                   8
        BYTE   W01
        BYTE                   5
        BYTE   W01
        BYTE           EOT     Ds4
        BYTE           VOL     4
        BYTE   W02
// 064   ----------------------------------------
        BYTE                   100
        BYTE           PAN     c_v+0
        BYTE           MOD     0
        BYTE   GoTo
         POIN2  LaLWordsofTrust2_10_LOOP
        BYTE   W04
        BYTE   FINE

//***************** Track 11 (Midi-Chn.8) ******************//

LaLWordsofTrust2_11:
        BYTE   KEYSH   LaLWordsofTrust2_key+0
// 000   ----------------------------------------
        BYTE           VOL     87
        BYTE           VOICE   104
        BYTE   W96
// 001   ----------------------------------------
        BYTE   W96
// 002   ----------------------------------------
        BYTE   W96
// 003   ----------------------------------------
        BYTE   W96
// 004   ----------------------------------------
        BYTE   W96
// 005   ----------------------------------------
        BYTE   W96
// 006   ----------------------------------------
        BYTE   W96
// 007   ----------------------------------------
        BYTE   W96
// 008   ----------------------------------------
        BYTE   W96
// 009   ----------------------------------------
        BYTE   W96
// 010   ----------------------------------------
        BYTE   W96
// 011   ----------------------------------------
        BYTE   W96
// 012   ----------------------------------------
        BYTE   W96
// 013   ----------------------------------------
        BYTE   W96
// 014   ----------------------------------------
        BYTE   W96
// 015   ----------------------------------------
        BYTE   W96
// 016   ----------------------------------------
LaLWordsofTrust2_11_LOOP:
        BYTE   W96
// 017   ----------------------------------------
        BYTE   W96
// 018   ----------------------------------------
        BYTE   W96
// 019   ----------------------------------------
        BYTE   W96
// 020   ----------------------------------------
        BYTE   W96
// 021   ----------------------------------------
        BYTE   W96
// 022   ----------------------------------------
        BYTE   W96
// 023   ----------------------------------------
        BYTE   W96
// 024   ----------------------------------------
        BYTE   W96
// 025   ----------------------------------------
        BYTE   W96
// 026   ----------------------------------------
        BYTE   W96
// 027   ----------------------------------------
        BYTE   W96
// 028   ----------------------------------------
        BYTE   W96
// 029   ----------------------------------------
        BYTE   W96
// 030   ----------------------------------------
        BYTE   W96
// 031   ----------------------------------------
        BYTE   W96
// 032   ----------------------------------------
        BYTE   W96
// 033   ----------------------------------------
        BYTE   W96
// 034   ----------------------------------------
        BYTE   W96
// 035   ----------------------------------------
        BYTE   W96
// 036   ----------------------------------------
        BYTE   W96
// 037   ----------------------------------------
        BYTE   W96
// 038   ----------------------------------------
        BYTE   W96
// 039   ----------------------------------------
        BYTE   W96
// 040   ----------------------------------------
        BYTE   W96
// 041   ----------------------------------------
        BYTE   W96
// 042   ----------------------------------------
        BYTE   W96
// 043   ----------------------------------------
        BYTE   W96
// 044   ----------------------------------------
        BYTE   W96
// 045   ----------------------------------------
        BYTE   W96
// 046   ----------------------------------------
        BYTE   W96
// 047   ----------------------------------------
        BYTE   W96
// 048   ----------------------------------------
        BYTE           PAN     c_v+16
        BYTE           N96     Ds2   v088
        BYTE   W96
// 049   ----------------------------------------
        BYTE                   Cs2   v100
        BYTE   W96
// 050   ----------------------------------------
        BYTE                   Bn1
        BYTE   W96
// 051   ----------------------------------------
        BYTE                   As1
        BYTE   W96
// 052   ----------------------------------------
        BYTE                   Gs1
        BYTE   W96
// 053   ----------------------------------------
        BYTE                   As1
        BYTE   W96
// 054   ----------------------------------------
        BYTE           TIE     Ds2
        BYTE   W96
// 055   ----------------------------------------
        BYTE   W12
        BYTE           EOT
        BYTE           N12     As1
        BYTE   W12
        BYTE                   Fs2
        BYTE   W12
        BYTE                   Fn2
        BYTE   W12
        BYTE           N24     Ds2
        BYTE   W24
        BYTE                   As1
        BYTE   W24
// 056   ----------------------------------------
        BYTE           N96     Bn1
        BYTE   W96
// 057   ----------------------------------------
        BYTE                   Cs2
        BYTE   W96
// 058   ----------------------------------------
        BYTE           TIE     Ds2
        BYTE   W96
// 059   ----------------------------------------
LaLWordsofTrust2_11_59:
        BYTE   W72
        BYTE           EOT     Ds2
        BYTE           N22     As1   v100
        BYTE   W24
        BYTE   PEND
// 060   ----------------------------------------
        BYTE           N96     Bn1
        BYTE   W96
// 061   ----------------------------------------
        BYTE                   Cs2
        BYTE   W96
// 062   ----------------------------------------
        BYTE           TIE     Ds2
        BYTE   W96
// 063   ----------------------------------------
        BYTE   PATT
         POIN2  LaLWordsofTrust2_11_59
// 064   ----------------------------------------
        BYTE           PAN     c_v+0
        BYTE   GoTo
         POIN2  LaLWordsofTrust2_11_LOOP
        BYTE   W04
        BYTE   FINE

//***************** Track 12 (Midi-Chn.13) *****************//

LaLWordsofTrust2_12:
        BYTE   KEYSH   LaLWordsofTrust2_key+0
// 000   ----------------------------------------
        BYTE           VOL     64
        BYTE           VOICE   76
        BYTE   W96
// 001   ----------------------------------------
        BYTE   W96
// 002   ----------------------------------------
        BYTE   W96
// 003   ----------------------------------------
        BYTE   W96
// 004   ----------------------------------------
        BYTE   W96
// 005   ----------------------------------------
        BYTE   W96
// 006   ----------------------------------------
        BYTE   W96
// 007   ----------------------------------------
        BYTE   W96
// 008   ----------------------------------------
        BYTE   W96
// 009   ----------------------------------------
        BYTE   W96
// 010   ----------------------------------------
        BYTE   W96
// 011   ----------------------------------------
        BYTE   W96
// 012   ----------------------------------------
        BYTE   W96
// 013   ----------------------------------------
        BYTE   W96
// 014   ----------------------------------------
        BYTE   W96
// 015   ----------------------------------------
        BYTE   W96
// 016   ----------------------------------------
LaLWordsofTrust2_12_LOOP:
        BYTE   W96
// 017   ----------------------------------------
        BYTE   W96
// 018   ----------------------------------------
        BYTE   W96
// 019   ----------------------------------------
        BYTE   W96
// 020   ----------------------------------------
        BYTE   W96
// 021   ----------------------------------------
        BYTE   W96
// 022   ----------------------------------------
        BYTE   W96
// 023   ----------------------------------------
        BYTE   W96
// 024   ----------------------------------------
        BYTE   W96
// 025   ----------------------------------------
        BYTE   W96
// 026   ----------------------------------------
        BYTE   W96
// 027   ----------------------------------------
        BYTE   W96
// 028   ----------------------------------------
        BYTE   W96
// 029   ----------------------------------------
        BYTE   W96
// 030   ----------------------------------------
        BYTE   W96
// 031   ----------------------------------------
        BYTE   W96
// 032   ----------------------------------------
        BYTE   W96
// 033   ----------------------------------------
        BYTE   W96
// 034   ----------------------------------------
        BYTE   W96
// 035   ----------------------------------------
        BYTE   W96
// 036   ----------------------------------------
        BYTE   W96
// 037   ----------------------------------------
        BYTE   W96
// 038   ----------------------------------------
        BYTE   W96
// 039   ----------------------------------------
        BYTE   W96
// 040   ----------------------------------------
        BYTE   W96
// 041   ----------------------------------------
        BYTE   W96
// 042   ----------------------------------------
        BYTE   W96
// 043   ----------------------------------------
        BYTE   W96
// 044   ----------------------------------------
        BYTE   W96
// 045   ----------------------------------------
        BYTE   W96
// 046   ----------------------------------------
        BYTE   W96
// 047   ----------------------------------------
        BYTE   W96
// 048   ----------------------------------------
        BYTE           PAN     c_v-16
        BYTE   W06
        BYTE           N24     Ds1   v088
        BYTE   W22
        BYTE           N03     Ds3   v057
        BYTE   W02
        BYTE           N06     Fs3   v088
        BYTE   W22
        BYTE           N02     Fs3   v073
        BYTE   W02
        BYTE           N06     As3   v096
        BYTE   W42
// 049   ----------------------------------------
        BYTE   W06
        BYTE           N24     Cs1   v085
        BYTE   W22
        BYTE           N02     Cs3   v052
        BYTE   W02
        BYTE           N06     Fn3   v086
        BYTE   W22
        BYTE           N02     Fn3   v077
        BYTE   W02
        BYTE           N06     Gs3   v097
        BYTE   W42
// 050   ----------------------------------------
        BYTE   W06
        BYTE           N24     Bn0   v088
        BYTE   W22
        BYTE           N02     Bn2   v052
        BYTE   W02
        BYTE           N06     Ds3   v086
        BYTE   W22
        BYTE           N02     Ds3   v077
        BYTE   W02
        BYTE           N06     Fs3   v100
        BYTE   W42
// 051   ----------------------------------------
        BYTE   W06
        BYTE           N24     As0   v085
        BYTE   W22
        BYTE           N02     Cs3   v052
        BYTE   W02
        BYTE           N06     Fn3   v086
        BYTE   W22
        BYTE           N02     Fn3   v077
        BYTE   W02
        BYTE           N06     Gs3   v100
        BYTE   W22
        BYTE           N02     Cs3   v077
        BYTE   W02
        BYTE           N06     Fn3   v100
        BYTE   W18
// 052   ----------------------------------------
        BYTE   W06
        BYTE           N24     Gs0   v088
        BYTE   W22
        BYTE           N02     Gs2   v052
        BYTE   W02
        BYTE           N06     Bn2   v086
        BYTE   W10
        BYTE           N02     Bn2   v077
        BYTE   W02
        BYTE           N06     Ds3   v100
        BYTE   W10
        BYTE           N02     Ds3   v077
        BYTE   W02
        BYTE           N06     Fs3   v100
        BYTE   W24
        BYTE                   Gs2   v086
        BYTE           N21     Gs0
        BYTE   W18
// 053   ----------------------------------------
        BYTE   W06
        BYTE           N24     As0   v085
        BYTE   W22
        BYTE           N02     As2   v052
        BYTE   W02
        BYTE           N06     Dn3   v086
        BYTE   W10
        BYTE           N02     Dn3   v077
        BYTE   W02
        BYTE           N06     Fn3   v100
        BYTE   W10
        BYTE           N02     Fn3   v077
        BYTE   W02
        BYTE           N06     Gs3   v100
        BYTE   W24
        BYTE                   As2   v084
        BYTE           N22     As0
        BYTE   W18
// 054   ----------------------------------------
        BYTE   W06
        BYTE           N24     Ds1   v088
        BYTE   W22
        BYTE           N02     Ds3   v052
        BYTE   W02
        BYTE           N06     Fs3   v086
        BYTE   W22
        BYTE           N02     Fs3   v077
        BYTE   W02
        BYTE           N06     As3   v100
        BYTE   W42
// 055   ----------------------------------------
        BYTE   W06
        BYTE           N24     Ds1   v088
        BYTE   W22
        BYTE           N02     Ds3   v052
        BYTE   W02
        BYTE           N06     Fs3   v086
        BYTE   W22
        BYTE           N02     Fs3   v077
        BYTE   W02
        BYTE           N06     As3   v100
        BYTE   W24
        BYTE                   As2   v087
        BYTE           N22     As0
        BYTE   W18
// 056   ----------------------------------------
        BYTE   W06
        BYTE           N24     Bn0   v086
        BYTE   W22
        BYTE           N02     Ds3   v052
        BYTE   W02
        BYTE           N06     Fs3   v087
        BYTE   W22
        BYTE           N02     Fs3   v077
        BYTE   W02
        BYTE           N06     As3   v100
        BYTE   W42
// 057   ----------------------------------------
        BYTE   W06
        BYTE           N24     Cs1   v086
        BYTE   W22
        BYTE           N02     Cs3   v052
        BYTE   W02
        BYTE           N06     Fn3   v081
        BYTE   W22
        BYTE           N02     Fn3   v077
        BYTE   W02
        BYTE           N06     Gs3   v100
        BYTE   W42
// 058   ----------------------------------------
        BYTE   W06
        BYTE           N24     Ds1   v085
        BYTE   W22
        BYTE           N02     As2   v052
        BYTE   W02
        BYTE           N06     Ds3   v081
        BYTE   W10
        BYTE           N02     Ds3   v077
        BYTE   W02
        BYTE           N06     Fs3   v100
        BYTE   W10
        BYTE           N02     Fs3   v077
        BYTE   W02
        BYTE           N06     As3   v100
        BYTE   W24
        BYTE                   Ds3   v083
        BYTE   W18
// 059   ----------------------------------------
        BYTE   W06
        BYTE           N24     Ds1
        BYTE   W22
        BYTE           N02     Ds3   v052
        BYTE   W02
        BYTE           N06     Fs3   v081
        BYTE   W22
        BYTE           N02     Fs3   v077
        BYTE   W02
        BYTE           N06     As3   v100
        BYTE   W24
        BYTE                   As2   v084
        BYTE           N22     As0
        BYTE   W18
// 060   ----------------------------------------
        BYTE   W06
        BYTE           N24     Bn0
        BYTE   W22
        BYTE           N02     Ds3   v052
        BYTE   W02
        BYTE           N06     Fs3   v081
        BYTE   W22
        BYTE           N02     Fs3   v077
        BYTE   W02
        BYTE           N06     As3   v100
        BYTE   W42
// 061   ----------------------------------------
        BYTE   W06
        BYTE           N24     Cs1   v085
        BYTE   W22
        BYTE           N02     Cs3   v052
        BYTE   W02
        BYTE           N06     Fn3   v081
        BYTE   W22
        BYTE           N02     Fn3   v077
        BYTE   W02
        BYTE           N06     Gs3   v100
        BYTE   W42
// 062   ----------------------------------------
        BYTE   W06
        BYTE           N24     Ds1   v084
        BYTE   W22
        BYTE           N02     As2   v052
        BYTE   W02
        BYTE           N06     Ds3   v081
        BYTE   W10
        BYTE           N02     Ds3   v077
        BYTE   W02
        BYTE           N06     Fs3   v100
        BYTE   W10
        BYTE           N02     Fs3   v077
        BYTE   W02
        BYTE           N06     As3   v100
        BYTE   W24
        BYTE                   Ds3   v083
        BYTE   W18
// 063   ----------------------------------------
        BYTE   W06
        BYTE           N24     Ds1   v086
        BYTE   W22
        BYTE           N02     Ds3   v052
        BYTE   W02
        BYTE           N06     Fs3   v081
        BYTE   W22
        BYTE           N02     Fs3   v077
        BYTE   W02
        BYTE           N06     As3   v100
        BYTE   W24
        BYTE                   As2   v084
        BYTE           N06     As0
        BYTE   W18
// 064   ----------------------------------------
        BYTE           PAN     c_v+0
        BYTE   GoTo
         POIN2  LaLWordsofTrust2_12_LOOP
        BYTE   W04
        BYTE   FINE

//***************** Track 13 (Midi-Chn.14) *****************//

LaLWordsofTrust2_13:
        BYTE   KEYSH   LaLWordsofTrust2_key+0
// 000   ----------------------------------------
        BYTE           VOICE   79
        BYTE   W96
// 001   ----------------------------------------
        BYTE   W96
// 002   ----------------------------------------
        BYTE   W96
// 003   ----------------------------------------
        BYTE   W96
// 004   ----------------------------------------
        BYTE   W96
// 005   ----------------------------------------
        BYTE   W96
// 006   ----------------------------------------
        BYTE   W96
// 007   ----------------------------------------
        BYTE   W96
// 008   ----------------------------------------
        BYTE   W96
// 009   ----------------------------------------
        BYTE   W96
// 010   ----------------------------------------
        BYTE   W96
// 011   ----------------------------------------
        BYTE   W96
// 012   ----------------------------------------
        BYTE   W96
// 013   ----------------------------------------
        BYTE   W96
// 014   ----------------------------------------
        BYTE   W96
// 015   ----------------------------------------
        BYTE   W96
// 016   ----------------------------------------
LaLWordsofTrust2_13_LOOP:
        BYTE   W96
// 017   ----------------------------------------
        BYTE   W96
// 018   ----------------------------------------
        BYTE   W96
// 019   ----------------------------------------
        BYTE   W96
// 020   ----------------------------------------
        BYTE   W96
// 021   ----------------------------------------
        BYTE   W96
// 022   ----------------------------------------
        BYTE   W96
// 023   ----------------------------------------
        BYTE   W96
// 024   ----------------------------------------
        BYTE   W96
// 025   ----------------------------------------
        BYTE   W96
// 026   ----------------------------------------
        BYTE   W96
// 027   ----------------------------------------
        BYTE   W96
// 028   ----------------------------------------
        BYTE   W96
// 029   ----------------------------------------
        BYTE   W96
// 030   ----------------------------------------
        BYTE   W96
// 031   ----------------------------------------
        BYTE   W96
// 032   ----------------------------------------
        BYTE   W96
// 033   ----------------------------------------
        BYTE   W96
// 034   ----------------------------------------
        BYTE   W96
// 035   ----------------------------------------
        BYTE   W96
// 036   ----------------------------------------
        BYTE   W96
// 037   ----------------------------------------
        BYTE   W96
// 038   ----------------------------------------
        BYTE   W96
// 039   ----------------------------------------
        BYTE   W96
// 040   ----------------------------------------
        BYTE   W96
// 041   ----------------------------------------
        BYTE   W96
// 042   ----------------------------------------
        BYTE   W96
// 043   ----------------------------------------
        BYTE   W96
// 044   ----------------------------------------
        BYTE   W96
// 045   ----------------------------------------
        BYTE   W96
// 046   ----------------------------------------
        BYTE   W96
// 047   ----------------------------------------
        BYTE   W96
// 048   ----------------------------------------
        BYTE           VOL     30
        BYTE           PAN     c_v+16
        BYTE   W06
        BYTE           MOD     30
        BYTE   W12
        BYTE           N22     Fn3   v117
        BYTE           VOL     24
        BYTE   W01
        BYTE                   25
        BYTE   W04
        BYTE                   26
        BYTE   W05
        BYTE                   27
        BYTE   W04
        BYTE                   28
        BYTE   W04
        BYTE                   29
        BYTE   W04
        BYTE                   30
        BYTE   W02
        BYTE           N22     Fs3
        BYTE   W01
        BYTE           VOL     25
        BYTE   W02
        BYTE                   26
        BYTE   W06
        BYTE                   27
        BYTE   W05
        BYTE                   28
        BYTE   W04
        BYTE                   29
        BYTE   W05
        BYTE                   30
        BYTE   W01
        BYTE           N68     Cs4   v100   gtp2
        BYTE   W30
// 049   ----------------------------------------
        BYTE   W42
        BYTE           N06     Bn3
        BYTE   W06
        BYTE                   Cs4
        BYTE   W06
        BYTE           N24     Bn3
        BYTE           VOL     27
        BYTE   W08
        BYTE                   28
        BYTE   W07
        BYTE                   29
        BYTE   W08
        BYTE                   30
        BYTE   W01
        BYTE           N12     As3
        BYTE   W12
        BYTE                   Gs3
        BYTE   W06
// 050   ----------------------------------------
        BYTE   W06
        BYTE           N16     As3
        BYTE   W18
        BYTE           N04     Fn4
        BYTE   W05
        BYTE           VOL     26
        BYTE   W01
        BYTE           TIE
        BYTE   W11
        BYTE           VOL     27
        BYTE   W11
        BYTE                   28
        BYTE   W11
        BYTE                   29
        BYTE   W10
        BYTE                   30
        BYTE   W12
        BYTE                   29
        BYTE   W09
        BYTE                   28
        BYTE   W02
// 051   ----------------------------------------
        BYTE   W05
        BYTE                   27
        BYTE   W06
        BYTE                   26
        BYTE   W10
        BYTE                   25
        BYTE   W08
        BYTE                   24
        BYTE   W08
        BYTE                   23
        BYTE   W03
        BYTE           EOT
        BYTE           VOL     25
        BYTE   W01
        BYTE                   27
        BYTE   W01
        BYTE           N24     Gs4
        BYTE           VOL     29
        BYTE   W01
        BYTE                   30
        BYTE   W23
        BYTE           N24     Fs4
        BYTE   W24
        BYTE           N12     Fn4
        BYTE   W06
// 052   ----------------------------------------
        BYTE   W05
        BYTE           VOL     29
        BYTE   W01
        BYTE           TIE     Ds4
        BYTE           VOL     30
        BYTE   W07
        BYTE                   29
        BYTE   W07
        BYTE                   28
        BYTE   W07
        BYTE                   27
        BYTE   W07
        BYTE                   26
        BYTE   W08
        BYTE                   25
        BYTE   W07
        BYTE                   24
        BYTE   W07
        BYTE                   23
        BYTE   W07
        BYTE                   22
        BYTE   W07
        BYTE                   21
        BYTE   W08
        BYTE                   20
        BYTE   W07
        BYTE                   19
        BYTE   W07
        BYTE                   18
        BYTE   W04
// 053   ----------------------------------------
        BYTE   W03
        BYTE                   17
        BYTE   W09
        BYTE                   16
        BYTE   W06
        BYTE                   15
        BYTE   W07
        BYTE                   14
        BYTE   W14
        BYTE           EOT
        BYTE   W01
        BYTE           VOL     23
        BYTE   W01
        BYTE                   28
        BYTE   W01
        BYTE           N24     Gs4
        BYTE           VOL     30
        BYTE   W24
        BYTE           N24     Fs4
        BYTE   W24
        BYTE           N06     Fn4
        BYTE   W06
// 054   ----------------------------------------
        BYTE                   Fs4
        BYTE   W06
        BYTE           N36     Fn4   v100   gtp3
        BYTE           VOL     26
        BYTE   W09
        BYTE                   27
        BYTE   W09
        BYTE                   28
        BYTE   W10
        BYTE                   29
        BYTE   W09
        BYTE                   30
        BYTE   W02
        BYTE           N04     Fs4
        BYTE   W04
        BYTE           N05     Fn4
        BYTE   W04
        BYTE           VOL     27
        BYTE   W01
        BYTE           TIE     Ds4
        BYTE           VOL     28
        BYTE   W01
        BYTE                   29
        BYTE   W01
        BYTE                   30
        BYTE   W01
        BYTE                   29
        BYTE   W08
        BYTE                   28
        BYTE   W07
        BYTE                   27
        BYTE   W07
        BYTE                   26
        BYTE   W09
        BYTE                   25
        BYTE   W08
// 055   ----------------------------------------
        BYTE                   24
        BYTE   W07
        BYTE                   23
        BYTE   W07
        BYTE                   22
        BYTE   W07
        BYTE                   21
        BYTE   W09
        BYTE                   20
        BYTE   W08
        BYTE                   19
        BYTE   W07
        BYTE                   18
        BYTE   W07
        BYTE                   17
        BYTE   W09
        BYTE                   16
        BYTE   W07
        BYTE                   15
        BYTE   W04
        BYTE           EOT
        BYTE   W03
        BYTE           VOL     30
        BYTE   W03
        BYTE           N12     Fs4
        BYTE   W12
        BYTE                   Gs4
        BYTE   W06
// 056   ----------------------------------------
LaLWordsofTrust2_13_56:
        BYTE   W06
        BYTE           N16     As4   v100
        BYTE   W16
        BYTE           N17     Gs4
        BYTE   W17
        BYTE           N15     Fs4
        BYTE   W15
        BYTE           N48     Ds4
        BYTE   W42
        BYTE   PEND
// 057   ----------------------------------------
LaLWordsofTrust2_13_57:
        BYTE   W06
        BYTE           N16     Gs4   v100
        BYTE   W16
        BYTE           N17     Fs4
        BYTE   W17
        BYTE           N15     Fn4
        BYTE   W15
        BYTE           N44     Cs4   v100   gtp2
        BYTE   W42
        BYTE   PEND
// 058   ----------------------------------------
        BYTE   W05
        BYTE           VOL     28
        BYTE   W01
        BYTE           TIE     Ds4
        BYTE           VOL     29
        BYTE   W01
        BYTE                   30
        BYTE   W08
        BYTE                   29
        BYTE   W09
        BYTE                   28
        BYTE   W18
        BYTE                   27
        BYTE   W06
        BYTE                   26
        BYTE   W05
        BYTE                   25
        BYTE   W05
        BYTE                   24
        BYTE   W07
        BYTE                   23
        BYTE   W08
        BYTE                   22
        BYTE   W12
        BYTE                   21
        BYTE   W10
        BYTE                   20
        BYTE   W01
// 059   ----------------------------------------
        BYTE   W09
        BYTE                   19
        BYTE   W09
        BYTE                   18
        BYTE   W07
        BYTE                   17
        BYTE   W09
        BYTE                   16
        BYTE   W10
        BYTE                   15
        BYTE   W05
        BYTE                   14
        BYTE   W09
        BYTE                   13
        BYTE   W05
        BYTE                   12
        BYTE   W03
        BYTE                   11
        BYTE   W01
        BYTE                   10
        BYTE   W01
        BYTE                   9
        BYTE   W02
        BYTE                   8
        BYTE   W05
        BYTE           EOT
        BYTE   W02
        BYTE           VOL     29
        BYTE   W01
        BYTE           N12     Fs4
        BYTE           VOL     30
        BYTE   W12
        BYTE           N12     Gs4
        BYTE   W06
// 060   ----------------------------------------
        BYTE   PATT
         POIN2  LaLWordsofTrust2_13_56
// 061   ----------------------------------------
        BYTE   PATT
         POIN2  LaLWordsofTrust2_13_57
// 062   ----------------------------------------
        BYTE   W05
        BYTE           VOL     29
        BYTE   W01
        BYTE           TIE     Ds4   v100
        BYTE           VOL     30
        BYTE   W28
        BYTE                   29
        BYTE   W12
        BYTE                   28
        BYTE   W11
        BYTE                   27
        BYTE   W08
        BYTE                   26
        BYTE   W10
        BYTE                   25
        BYTE   W04
        BYTE                   24
        BYTE   W05
        BYTE                   23
        BYTE   W03
        BYTE                   22
        BYTE   W04
        BYTE                   21
        BYTE   W04
        BYTE                   20
        BYTE   W01
// 063   ----------------------------------------
        BYTE   W02
        BYTE                   19
        BYTE   W09
        BYTE                   18
        BYTE   W04
        BYTE                   17
        BYTE   W05
        BYTE                   16
        BYTE   W03
        BYTE                   15
        BYTE   W04
        BYTE                   14
        BYTE   W04
        BYTE                   13
        BYTE   W12
        BYTE                   12
        BYTE   W09
        BYTE                   11
        BYTE   W06
        BYTE                   10
        BYTE   W06
        BYTE                   9
        BYTE   W11
        BYTE                   8
        BYTE   W06
        BYTE                   7
        BYTE   W06
        BYTE                   6
        BYTE   W04
        BYTE                   5
        BYTE   W02
        BYTE           EOT
        BYTE   W01
        BYTE           VOL     4
        BYTE   W02
// 064   ----------------------------------------
        BYTE                   100
        BYTE           PAN     c_v+0
        BYTE           MOD     0
        BYTE   GoTo
         POIN2  LaLWordsofTrust2_13_LOOP
        BYTE   W01
        BYTE           VOL     3
        BYTE   W01
        BYTE                   2
        BYTE   W01
        BYTE                   1
        BYTE   W01
        BYTE                   0
        BYTE   FINE

//***************** Track 14 (Midi-Chn.15) *****************//

LaLWordsofTrust2_14:
        BYTE   KEYSH   LaLWordsofTrust2_key+0
// 000   ----------------------------------------
        BYTE           VOL     50
        BYTE           VOICE   68
        BYTE   W96
// 001   ----------------------------------------
        BYTE   W96
// 002   ----------------------------------------
        BYTE   W96
// 003   ----------------------------------------
        BYTE   W96
// 004   ----------------------------------------
        BYTE   W96
// 005   ----------------------------------------
        BYTE   W96
// 006   ----------------------------------------
        BYTE   W96
// 007   ----------------------------------------
        BYTE   W96
// 008   ----------------------------------------
        BYTE   W96
// 009   ----------------------------------------
        BYTE   W96
// 010   ----------------------------------------
        BYTE   W96
// 011   ----------------------------------------
        BYTE   W96
// 012   ----------------------------------------
        BYTE   W96
// 013   ----------------------------------------
        BYTE   W96
// 014   ----------------------------------------
        BYTE   W96
// 015   ----------------------------------------
        BYTE   W96
// 016   ----------------------------------------
LaLWordsofTrust2_14_LOOP:
        BYTE   W96
// 017   ----------------------------------------
        BYTE   W96
// 018   ----------------------------------------
        BYTE   W96
// 019   ----------------------------------------
        BYTE   W96
// 020   ----------------------------------------
        BYTE   W96
// 021   ----------------------------------------
        BYTE   W96
// 022   ----------------------------------------
        BYTE   W96
// 023   ----------------------------------------
        BYTE   W96
// 024   ----------------------------------------
        BYTE   W96
// 025   ----------------------------------------
        BYTE   W96
// 026   ----------------------------------------
        BYTE   W96
// 027   ----------------------------------------
        BYTE   W96
// 028   ----------------------------------------
        BYTE   W96
// 029   ----------------------------------------
        BYTE   W96
// 030   ----------------------------------------
        BYTE   W96
// 031   ----------------------------------------
        BYTE   W96
// 032   ----------------------------------------
        BYTE   W96
// 033   ----------------------------------------
        BYTE   W96
// 034   ----------------------------------------
        BYTE   W96
// 035   ----------------------------------------
        BYTE   W96
// 036   ----------------------------------------
        BYTE   W96
// 037   ----------------------------------------
        BYTE   W96
// 038   ----------------------------------------
        BYTE   W96
// 039   ----------------------------------------
        BYTE   W96
// 040   ----------------------------------------
        BYTE   W96
// 041   ----------------------------------------
        BYTE   W96
// 042   ----------------------------------------
        BYTE   W96
// 043   ----------------------------------------
        BYTE   W96
// 044   ----------------------------------------
        BYTE   W96
// 045   ----------------------------------------
        BYTE   W96
// 046   ----------------------------------------
        BYTE   W96
// 047   ----------------------------------------
        BYTE   W96
// 048   ----------------------------------------
        BYTE           PAN     c_v-16
        BYTE   W06
        BYTE           MOD     34
        BYTE   W12
        BYTE           N22     Fn3   v100
        BYTE           VOL     46
        BYTE   W04
        BYTE                   47
        BYTE   W05
        BYTE                   48
        BYTE   W07
        BYTE                   49
        BYTE   W05
        BYTE                   50
        BYTE   W03
        BYTE           N22     Fs3
        BYTE           VOL     44
        BYTE   W04
        BYTE                   45
        BYTE   W04
        BYTE                   46
        BYTE   W04
        BYTE                   47
        BYTE   W03
        BYTE                   48
        BYTE   W05
        BYTE                   49
        BYTE   W03
        BYTE                   50
        BYTE   W01
        BYTE           N68     Cs4   v100   gtp2
        BYTE           VOL     44
        BYTE   W03
        BYTE                   45
        BYTE   W03
        BYTE                   46
        BYTE   W05
        BYTE                   47
        BYTE   W03
        BYTE                   48
        BYTE   W05
        BYTE                   49
        BYTE   W03
        BYTE                   50
        BYTE   W08
// 049   ----------------------------------------
        BYTE   W42
        BYTE           N06     Bn3
        BYTE   W06
        BYTE                   Cs4   v103
        BYTE   W06
        BYTE           VOL     43
        BYTE           N24     Bn3   v100
        BYTE   W04
        BYTE           VOL     44
        BYTE   W04
        BYTE                   45
        BYTE   W03
        BYTE                   46
        BYTE   W04
        BYTE                   47
        BYTE   W02
        BYTE                   48
        BYTE   W05
        BYTE                   49
        BYTE   W02
        BYTE           N12     As3
        BYTE   W12
        BYTE                   Gs3
        BYTE   W06
// 050   ----------------------------------------
        BYTE   W06
        BYTE           N16     As3
        BYTE   W18
        BYTE           N04     Fn4
        BYTE   W06
        BYTE           TIE
        BYTE           VOL     44
        BYTE   W12
        BYTE                   45
        BYTE   W08
        BYTE                   46
        BYTE   W12
        BYTE                   47
        BYTE   W08
        BYTE                   48
        BYTE   W12
        BYTE                   49
        BYTE   W04
        BYTE                   50
        BYTE   W01
        BYTE                   49
        BYTE   W03
        BYTE                   48
        BYTE   W03
        BYTE                   47
        BYTE   W02
        BYTE                   46
        BYTE   W01
// 051   ----------------------------------------
        BYTE   W02
        BYTE                   45
        BYTE   W03
        BYTE                   44
        BYTE   W03
        BYTE                   43
        BYTE   W04
        BYTE                   42
        BYTE   W02
        BYTE                   41
        BYTE   W03
        BYTE                   40
        BYTE   W03
        BYTE                   39
        BYTE   W03
        BYTE                   38
        BYTE   W02
        BYTE                   37
        BYTE   W04
        BYTE                   36
        BYTE   W02
        BYTE                   35
        BYTE   W03
        BYTE                   34
        BYTE   W02
        BYTE                   33
        BYTE   W04
        BYTE           EOT
        BYTE           VOL     36
        BYTE   W01
        BYTE                   43
        BYTE   W01
        BYTE           N24     Gs4
        BYTE           VOL     48
        BYTE   W01
        BYTE                   50
        BYTE   W23
        BYTE           N24     Fs4
        BYTE   W24
        BYTE           N12     Fn4
        BYTE   W06
// 052   ----------------------------------------
        BYTE   W06
        BYTE           TIE     Ds4
        BYTE           VOL     45
        BYTE   W02
        BYTE                   46
        BYTE   W05
        BYTE                   47
        BYTE   W03
        BYTE                   48
        BYTE   W05
        BYTE                   49
        BYTE   W04
        BYTE                   50
        BYTE   W03
        BYTE                   49
        BYTE   W02
        BYTE                   48
        BYTE   W03
        BYTE                   47
        BYTE   W03
        BYTE                   46
        BYTE   W03
        BYTE                   45
        BYTE   W02
        BYTE                   44
        BYTE   W04
        BYTE                   43
        BYTE   W03
        BYTE                   42
        BYTE   W02
        BYTE                   41
        BYTE   W04
        BYTE                   40
        BYTE   W02
        BYTE                   39
        BYTE   W03
        BYTE                   38
        BYTE   W02
        BYTE                   37
        BYTE   W04
        BYTE                   36
        BYTE   W02
        BYTE                   35
        BYTE   W03
        BYTE                   34
        BYTE   W03
        BYTE                   33
        BYTE   W03
        BYTE                   32
        BYTE   W02
        BYTE                   31
        BYTE   W04
        BYTE                   30
        BYTE   W03
        BYTE                   29
        BYTE   W02
        BYTE                   28
        BYTE   W04
        BYTE                   27
        BYTE   W02
        BYTE                   26
        BYTE   W03
// 053   ----------------------------------------
        BYTE                   25
        BYTE   W03
        BYTE                   24
        BYTE   W03
        BYTE                   23
        BYTE   W02
        BYTE                   22
        BYTE   W03
        BYTE                   21
        BYTE   W03
        BYTE                   20
        BYTE   W03
        BYTE                   19
        BYTE   W03
        BYTE                   18
        BYTE   W03
        BYTE                   17
        BYTE   W03
        BYTE                   16
        BYTE   W02
        BYTE                   15
        BYTE   W04
        BYTE                   14
        BYTE   W02
        BYTE                   13
        BYTE   W03
        BYTE           EOT
        BYTE   W03
        BYTE           VOL     47
        BYTE   W01
        BYTE                   48
        BYTE   W01
        BYTE           N24     Gs4
        BYTE           VOL     49
        BYTE   W01
        BYTE                   50
        BYTE   W23
        BYTE           N24     Fs4
        BYTE   W24
        BYTE           N06     Fn4
        BYTE   W06
// 054   ----------------------------------------
        BYTE                   Fs4
        BYTE   W06
        BYTE           N36     Fn4   v100   gtp3
        BYTE           VOL     46
        BYTE   W02
        BYTE                   47
        BYTE   W01
        BYTE                   48
        BYTE   W02
        BYTE                   49
        BYTE   W01
        BYTE                   50
        BYTE   W23
        BYTE                   46
        BYTE   W01
        BYTE                   47
        BYTE   W01
        BYTE                   48
        BYTE   W02
        BYTE                   49
        BYTE   W01
        BYTE                   50
        BYTE   W05
        BYTE           N04     Fs4
        BYTE   W04
        BYTE           VOL     49
        BYTE           N05     Fn4
        BYTE   W05
        BYTE           TIE     Ds4
        BYTE   W03
        BYTE           VOL     48
        BYTE   W12
        BYTE                   47
        BYTE   W08
        BYTE                   46
        BYTE   W13
        BYTE                   45
        BYTE   W06
// 055   ----------------------------------------
        BYTE   W02
        BYTE                   44
        BYTE   W12
        BYTE                   43
        BYTE   W13
        BYTE                   42
        BYTE   W08
        BYTE                   41
        BYTE   W12
        BYTE                   40
        BYTE   W08
        BYTE                   39
        BYTE   W13
        BYTE                   38
        BYTE   W04
        BYTE           EOT
        BYTE   W04
        BYTE           VOL     48
        BYTE   W01
        BYTE                   49
        BYTE   W01
        BYTE           N12     Fs4
        BYTE           VOL     50
        BYTE   W12
        BYTE           N12     Gs4
        BYTE   W06
// 056   ----------------------------------------
        BYTE   PATT
         POIN2  LaLWordsofTrust2_13_56
// 057   ----------------------------------------
        BYTE   PATT
         POIN2  LaLWordsofTrust2_13_57
// 058   ----------------------------------------
        BYTE   W06
        BYTE           TIE     Ds4   v100
        BYTE   W32
        BYTE   W03
        BYTE           VOL     49
        BYTE   W07
        BYTE                   48
        BYTE   W06
        BYTE                   47
        BYTE   W05
        BYTE                   46
        BYTE   W05
        BYTE                   45
        BYTE   W02
        BYTE                   44
        BYTE   W03
        BYTE                   43
        BYTE   W05
        BYTE                   42
        BYTE   W01
        BYTE                   41
        BYTE   W03
        BYTE                   40
        BYTE   W06
        BYTE                   39
        BYTE   W05
        BYTE                   38
        BYTE   W04
        BYTE                   37
        BYTE   W03
// 059   ----------------------------------------
        BYTE   W03
        BYTE                   36
        BYTE   W04
        BYTE                   35
        BYTE   W03
        BYTE                   34
        BYTE   W04
        BYTE                   33
        BYTE   W03
        BYTE                   32
        BYTE   W05
        BYTE                   31
        BYTE   W07
        BYTE                   30
        BYTE   W05
        BYTE                   29
        BYTE   W03
        BYTE                   28
        BYTE   W03
        BYTE                   27
        BYTE   W02
        BYTE                   26
        BYTE   W05
        BYTE                   25
        BYTE   W02
        BYTE                   24
        BYTE   W02
        BYTE                   23
        BYTE   W01
        BYTE                   22
        BYTE   W02
        BYTE                   21
        BYTE   W02
        BYTE                   20
        BYTE   W03
        BYTE                   19
        BYTE   W02
        BYTE                   18
        BYTE   W01
        BYTE                   17
        BYTE   W02
        BYTE                   16
        BYTE   W01
        BYTE                   15
        BYTE   W02
        BYTE                   14
        BYTE   W01
        BYTE                   13
        BYTE   W01
        BYTE                   12
        BYTE   W01
        BYTE                   11
        BYTE   W01
        BYTE                   10
        BYTE   W01
        BYTE                   8
        BYTE   W01
        BYTE           EOT
        BYTE           VOL     5
        BYTE   W01
        BYTE                   1
        BYTE   W01
        BYTE                   0
        BYTE   W01
        BYTE                   16
        BYTE   W01
        BYTE                   26
        BYTE   W01
        BYTE           N12     Fs4
        BYTE           VOL     37
        BYTE   W01
        BYTE                   44
        BYTE   W01
        BYTE                   50
        BYTE   W10
        BYTE           N12     Gs4
        BYTE   W06
// 060   ----------------------------------------
        BYTE   PATT
         POIN2  LaLWordsofTrust2_13_56
// 061   ----------------------------------------
        BYTE   PATT
         POIN2  LaLWordsofTrust2_13_57
// 062   ----------------------------------------
        BYTE   W06
        BYTE           TIE     Ds4   v100
        BYTE           VOL     49
        BYTE   W03
        BYTE                   50
        BYTE   W11
        BYTE                   49
        BYTE   W06
        BYTE                   48
        BYTE   W09
        BYTE                   47
        BYTE   W04
        BYTE                   46
        BYTE   W07
        BYTE                   45
        BYTE   W04
        BYTE                   44
        BYTE   W09
        BYTE                   43
        BYTE   W10
        BYTE                   42
        BYTE   W09
        BYTE                   41
        BYTE   W11
        BYTE                   40
        BYTE   W07
// 063   ----------------------------------------
        BYTE   W01
        BYTE                   39
        BYTE   W06
        BYTE                   38
        BYTE   W04
        BYTE                   37
        BYTE   W08
        BYTE                   36
        BYTE   W08
        BYTE                   35
        BYTE   W07
        BYTE                   34
        BYTE   W07
        BYTE                   33
        BYTE   W07
        BYTE                   32
        BYTE   W06
        BYTE                   31
        BYTE   W07
        BYTE                   30
        BYTE   W04
        BYTE                   29
        BYTE   W01
        BYTE                   28
        BYTE   W03
        BYTE                   27
        BYTE   W02
        BYTE                   26
        BYTE   W04
        BYTE                   25
        BYTE   W02
        BYTE                   24
        BYTE   W02
        BYTE                   23
        BYTE   W01
        BYTE                   22
        BYTE   W03
        BYTE                   20
        BYTE   W02
        BYTE                   19
        BYTE   W02
        BYTE                   17
        BYTE   W01
        BYTE                   16
        BYTE   W01
        BYTE                   15
        BYTE   W01
        BYTE                   14
        BYTE   W01
        BYTE           EOT
        BYTE           VOL     13
        BYTE   W02
        BYTE                   11
        BYTE   W01
        BYTE                   10
        BYTE   W01
        BYTE                   9
        BYTE   W01
// 064   ----------------------------------------
        BYTE                   50
        BYTE           PAN     c_v+0
        BYTE           MOD     0
        BYTE   GoTo
         POIN2  LaLWordsofTrust2_14_LOOP
        BYTE   W01
        BYTE           VOL     6
        BYTE   W01
        BYTE                   5
        BYTE   W01
        BYTE                   3
        BYTE   W01
        BYTE                   2
        BYTE   FINE


//********************** End of Song ***********************//

        ALIGN 4
LaLWordsofTrust2:
        BYTE   15                      // Num Tracks
        BYTE   0                       // Unknown
        BYTE   LaLWordsofTrust2_pri    // Priority
        BYTE   LaLWordsofTrust2_rev    // Reverb

        POIN2   LaLWordsofTrust2_grp   

        POIN2   LaLWordsofTrust2_0
        POIN2   LaLWordsofTrust2_1
        POIN2   LaLWordsofTrust2_2
        POIN2   LaLWordsofTrust2_3
        POIN2   LaLWordsofTrust2_4
        POIN2   LaLWordsofTrust2_5
        POIN2   LaLWordsofTrust2_6
        POIN2   LaLWordsofTrust2_7
        POIN2   LaLWordsofTrust2_8
        POIN2   LaLWordsofTrust2_9
        POIN2   LaLWordsofTrust2_10
        POIN2   LaLWordsofTrust2_11
        POIN2   LaLWordsofTrust2_12
        POIN2   LaLWordsofTrust2_13
        POIN2   LaLWordsofTrust2_14

        
