//Event file generated from Sappy .s format.
        #include "MPlayDef.event"

        #define    MomentofSerenity_grp  voicegroup000
        #define    MomentofSerenity_pri  0
        #define    MomentofSerenity_rev  0
        #define    MomentofSerenity_key  0

        // .rodata
        // MomentofSerenity
        ALIGN 4

//****************** Track 0 (Midi-Chn.0) ******************//

MomentofSerenity_0:
        BYTE   KEYSH   MomentofSerenity_key+0
// 000   ----------------------------------------
        BYTE   TEMPO   88/2
        BYTE           VOICE   11
        BYTE           VOL     93
        BYTE           PAN     c_v-7
        BYTE           N92     Gn2   v096   gtp3
        BYTE   W12
        BYTE           N80     Dn3   v080   gtp2
        BYTE   W12
        BYTE           N23     An3
        BYTE   W12
        BYTE                   Bn3
        BYTE   W12
        BYTE                   Fs4
        BYTE   W12
        BYTE                   An3
        BYTE   W12
        BYTE                   Bn3
        BYTE   W12
        BYTE                   Fs4
        BYTE   W12
// 001   ----------------------------------------
MomentofSerenity_0_1:
        BYTE           N92     Gn2   v096   gtp3
        BYTE   W12
        BYTE           N80     En3   v080   gtp2
        BYTE   W12
        BYTE           N23     Bn3
        BYTE   W12
        BYTE                   Cn4
        BYTE   W12
        BYTE                   Gn4
        BYTE   W12
        BYTE                   Bn3
        BYTE   W12
        BYTE                   Cn4
        BYTE   W12
        BYTE                   Gn4
        BYTE   W12
        BYTE   PEND
// 002   ----------------------------------------
        BYTE           N92     Gn2   v096   gtp3
        BYTE   W12
        BYTE           N80     Fs3   v080   gtp2
        BYTE   W12
        BYTE           N23     Cs4
        BYTE   W12
        BYTE                   Dn4
        BYTE   W12
        BYTE                   An4
        BYTE   W12
        BYTE                   Cs4
        BYTE   W12
        BYTE                   Dn4
        BYTE   W12
        BYTE                   An4
        BYTE   W12
// 003   ----------------------------------------
        BYTE           N92     Gn2   v096   gtp3
        BYTE   W12
        BYTE           N32     En3   v080   gtp2
        BYTE   W12
        BYTE           N19     Bn3
        BYTE   W12
        BYTE           N09     Cn4
        BYTE   W10
        BYTE           N44     Bn3   v080   gtp2
        BYTE   W02
        BYTE                   Cn4
        BYTE   W01
        BYTE                   Gn4
        BYTE   W04
        BYTE   TEMPO   70/2
        BYTE   W42
        BYTE   W01
// 004   ----------------------------------------
        BYTE   TEMPO   88/2
        BYTE           N92     Gn2   v096   gtp3
        BYTE   W12
        BYTE           N80     Dn3   v080   gtp2
        BYTE   W12
        BYTE           N23     An3
        BYTE   W12
        BYTE                   Bn3
        BYTE   W12
        BYTE                   Fs4
        BYTE   W12
        BYTE                   An3
        BYTE   W12
        BYTE                   Bn3
        BYTE   W12
        BYTE                   Fs4
        BYTE   W12
// 005   ----------------------------------------
        BYTE   PATT
         POIN2  MomentofSerenity_0_1
// 006   ----------------------------------------
        BYTE           N92     Gn2   v096   gtp3
        BYTE   W12
        BYTE           N80     Fs3   v080   gtp2
        BYTE   W12
        BYTE           N23     Bn3
        BYTE   W12
        BYTE                   Dn4
        BYTE   W12
        BYTE                   An4
        BYTE   W12
        BYTE                   Bn3
        BYTE   W12
        BYTE                   Dn4
        BYTE   W12
        BYTE                   An4
        BYTE   W12
// 007   ----------------------------------------
        BYTE   PATT
         POIN2  MomentofSerenity_0_1
// 008   ----------------------------------------
        BYTE           N92     Gn2   v096   gtp3
        BYTE   W12
        BYTE           N80     Dn3   v080   gtp2
        BYTE   W12
        BYTE           N23     An3
        BYTE   W12
        BYTE                   Bn3
        BYTE   W12
        BYTE                   Fs4
        BYTE   W12
        BYTE                   An3
        BYTE   W12
        BYTE                   Bn3
        BYTE   W12
        BYTE                   Fs4
        BYTE   W12
// 009   ----------------------------------------
        BYTE           N92     Gn2   v096   gtp3
        BYTE   W12
        BYTE           N80     En3   v080   gtp2
        BYTE   W12
        BYTE           N23     Bn3
        BYTE   W12
        BYTE                   Cn4
        BYTE   W12
        BYTE                   Gn4
        BYTE   W12
        BYTE                   Bn3
        BYTE   W12
        BYTE                   Cn4
        BYTE   W12
        BYTE           N11     Gn4
        BYTE   W12
// 010   ----------------------------------------
        BYTE           N92     Bn2   v096   gtp3
        BYTE   W12
        BYTE           N80     Fs3   v080   gtp2
        BYTE   W12
        BYTE           N23     Cs4
        BYTE   W12
        BYTE                   Dn4
        BYTE   W12
        BYTE                   An4
        BYTE   W12
        BYTE                   Cs4
        BYTE   W12
        BYTE                   Dn4
        BYTE   W12
        BYTE                   An4
        BYTE   W12
// 011   ----------------------------------------
        BYTE           N92     En2   v096   gtp3
        BYTE   W12
        BYTE           N80     Bn2   v080   gtp2
        BYTE   W12
        BYTE           N23     An3
        BYTE   W12
        BYTE                   Bn3
        BYTE   W12
        BYTE                   Fs4
        BYTE   W12
        BYTE                   Fs3
        BYTE   W12
        BYTE                   Gn3
        BYTE   W12
        BYTE                   Dn4
        BYTE   W12
// 012   ----------------------------------------
MomentofSerenity_0_12:
        BYTE           N92     Ds2   v096   gtp3
        BYTE   W12
        BYTE           N80     As2   v080   gtp2
        BYTE   W12
        BYTE           N23     Gn3
        BYTE   W12
        BYTE                   As3
        BYTE   W12
        BYTE                   Fn4
        BYTE   W12
        BYTE                   Fn3
        BYTE   W12
        BYTE                   Gn3
        BYTE   W12
        BYTE           N21     Dn4
        BYTE   W12
        BYTE   PEND
// 013   ----------------------------------------
        BYTE           N92     Gs2   v096   gtp3
        BYTE           N23     Ds3   v080
        BYTE   W12
        BYTE                   Fn3
        BYTE   W12
        BYTE           N19     Cn4
        BYTE   W12
        BYTE           N23     Cn3
        BYTE   W12
        BYTE                   Ds3
        BYTE   W12
        BYTE                   As3
        BYTE   W12
        BYTE                   Gs3
        BYTE   W12
        BYTE                   Fn3
        BYTE   W12
// 014   ----------------------------------------
        BYTE   PATT
         POIN2  MomentofSerenity_0_12
// 015   ----------------------------------------
        BYTE           N68     Gs2   v096   gtp3
        BYTE           N23     Ds3   v080
        BYTE   W12
        BYTE                   Fn3
        BYTE   W12
        BYTE           N19     Cn4
        BYTE   W12
        BYTE           N23     Cn3
        BYTE   W12
        BYTE                   Ds3
        BYTE   W12
        BYTE                   As3
        BYTE   W12
        BYTE                   As1   v096
        BYTE           N23     Gs3   v080
        BYTE   W12
        BYTE                   Fn3
        BYTE   W12
// 016   ----------------------------------------
        BYTE           N92     Cn2   v096   gtp3
        BYTE   W12
        BYTE           N80     Gn2   v080   gtp2
        BYTE   W12
        BYTE           N23     Dn3
        BYTE   W12
        BYTE                   En3
        BYTE   W12
        BYTE                   Bn3
        BYTE   W12
        BYTE                   Gn3
        BYTE   W12
        BYTE                   Bn2
        BYTE   W12
        BYTE                   En3
        BYTE   W12
// 017   ----------------------------------------
        BYTE           N92     Dn2   v096   gtp3
        BYTE   W12
        BYTE           N80     An2   v080   gtp2
        BYTE   W12
        BYTE           N23     En3
        BYTE   W12
        BYTE                   Fn3
        BYTE   W12
        BYTE                   Cn4
        BYTE   W12
        BYTE                   An3
        BYTE   W12
        BYTE                   Cn3
        BYTE   W12
        BYTE           N11     Fn3
        BYTE   W12
// 018   ----------------------------------------
        BYTE           N92     En2   v096   gtp3
        BYTE   W12
        BYTE           N80     Bn2   v080   gtp2
        BYTE   W12
        BYTE           N23     Fs3
        BYTE   W12
        BYTE                   Gn3
        BYTE   W12
        BYTE                   Dn4
        BYTE   W12
        BYTE                   Bn3
        BYTE   W12
        BYTE                   Dn3
        BYTE   W12
        BYTE           N13     Gn3
        BYTE   W12
// 019   ----------------------------------------
        BYTE           N92     Fn2   v096   gtp3
        BYTE   W01
        BYTE           N92     Gn3   v080
        BYTE   W03
        BYTE           N90     An3   v080   gtp1
        BYTE   W03
        BYTE           N03     Cn4
        BYTE   W03
        BYTE           TIE     En4
        BYTE   W04
        BYTE   TEMPO   48/2
        BYTE   W10
        BYTE   TEMPO   66/2
        BYTE   W24
        BYTE   TEMPO   76/2
        BYTE   W48
// 020   ----------------------------------------
        BYTE   TEMPO   88/2
        BYTE           N23     En2   v096
        BYTE   W11
        BYTE           EOT     En4
        BYTE   W01
        BYTE           N32     Bn2   v080   gtp3
        BYTE           N23     Gs3
        BYTE   W12
        BYTE                   En3
        BYTE           N23     Bn3
        BYTE   W12
        BYTE                   En4
        BYTE   W12
        BYTE                   Cn2   v096
        BYTE           N23     Dn4   v080
        BYTE   W12
        BYTE           N32     Gn2   v080   gtp3
        BYTE           N23     En3
        BYTE   W12
        BYTE                   Cn3
        BYTE           N23     Gn3
        BYTE   W12
        BYTE                   Dn4
        BYTE   W12
// 021   ----------------------------------------
        BYTE                   An1   v096
        BYTE           N23     Bn3   v080
        BYTE   W12
        BYTE           N32     En2   v096   gtp3
        BYTE           N23     Cn3   v080
        BYTE   W12
        BYTE                   An2
        BYTE           N23     En3
        BYTE   W12
        BYTE           N13     An3
        BYTE   W12
        BYTE           TIE     Fn2   v096
        BYTE   W01
        BYTE                   Cn3   v080
        BYTE   W03
        BYTE                   En3
        BYTE   W01
        BYTE                   Bn3
        BYTE   W19
        BYTE   TEMPO   78/2
        BYTE   W24
// 022   ----------------------------------------
        BYTE   W72
        BYTE   TEMPO   88/2
        BYTE   W12
        BYTE           EOT     Cn3
        BYTE   W03
        BYTE                   En3
        BYTE   W01
        BYTE                   Bn3
        BYTE   W03
        BYTE                   Fn2
        BYTE   W05
// 023   ----------------------------------------
        BYTE   W03
        BYTE   FINE

//****************** Track 1 (Midi-Chn.1) ******************//

MomentofSerenity_1:
        BYTE   KEYSH   MomentofSerenity_key+0
// 000   ----------------------------------------
        BYTE           VOICE   11
        BYTE           VOL     44
        BYTE           PAN     c_v+63
        BYTE   W08
        BYTE           N92     Gn2   v096   gtp3
        BYTE   W12
        BYTE           N80     Dn3   v080   gtp2
        BYTE   W12
        BYTE           N23     An3
        BYTE   W12
        BYTE                   Bn3
        BYTE   W12
        BYTE                   Fs4
        BYTE   W12
        BYTE                   An3
        BYTE   W12
        BYTE                   Bn3
        BYTE   W12
        BYTE                   Fs4
        BYTE   W04
// 001   ----------------------------------------
MomentofSerenity_1_1:
        BYTE   W08
        BYTE           N92     Gn2   v096   gtp3
        BYTE   W12
        BYTE           N80     En3   v080   gtp2
        BYTE   W12
        BYTE           N23     Bn3
        BYTE   W12
        BYTE                   Cn4
        BYTE   W12
        BYTE                   Gn4
        BYTE   W12
        BYTE                   Bn3
        BYTE   W12
        BYTE                   Cn4
        BYTE   W12
        BYTE                   Gn4
        BYTE   W04
        BYTE   PEND
// 002   ----------------------------------------
        BYTE   W08
        BYTE           N92     Gn2   v096   gtp3
        BYTE   W12
        BYTE           N80     Fs3   v080   gtp2
        BYTE   W12
        BYTE           N23     Cs4
        BYTE   W12
        BYTE                   Dn4
        BYTE   W12
        BYTE                   An4
        BYTE   W12
        BYTE                   Cs4
        BYTE   W12
        BYTE                   Dn4
        BYTE   W12
        BYTE                   An4
        BYTE   W04
// 003   ----------------------------------------
        BYTE   W08
        BYTE           N92     Gn2   v096   gtp3
        BYTE   W12
        BYTE           N32     En3   v080   gtp2
        BYTE   W12
        BYTE           N19     Bn3
        BYTE   W12
        BYTE           N09     Cn4
        BYTE   W10
        BYTE           N44     Bn3   v080   gtp2
        BYTE   W02
        BYTE                   Cn4
        BYTE   W01
        BYTE                   Gn4
        BYTE   W36
        BYTE   W03
// 004   ----------------------------------------
MomentofSerenity_1_4:
        BYTE   W08
        BYTE           N92     Gn2   v096   gtp3
        BYTE   W12
        BYTE           N80     Dn3   v080   gtp2
        BYTE   W12
        BYTE           N23     An3
        BYTE   W12
        BYTE                   Bn3
        BYTE   W12
        BYTE                   Fs4
        BYTE   W12
        BYTE                   An3
        BYTE   W12
        BYTE                   Bn3
        BYTE   W12
        BYTE                   Fs4
        BYTE   W04
        BYTE   PEND
// 005   ----------------------------------------
        BYTE   PATT
         POIN2  MomentofSerenity_1_1
// 006   ----------------------------------------
        BYTE   W08
        BYTE           N92     Gn2   v096   gtp3
        BYTE   W12
        BYTE           N80     Fs3   v080   gtp2
        BYTE   W12
        BYTE           N23     Bn3
        BYTE   W12
        BYTE                   Dn4
        BYTE   W12
        BYTE                   An4
        BYTE   W12
        BYTE                   Bn3
        BYTE   W12
        BYTE                   Dn4
        BYTE   W12
        BYTE                   An4
        BYTE   W04
// 007   ----------------------------------------
        BYTE   PATT
         POIN2  MomentofSerenity_1_1
// 008   ----------------------------------------
        BYTE   PATT
         POIN2  MomentofSerenity_1_4
// 009   ----------------------------------------
        BYTE   W08
        BYTE           N92     Gn2   v096   gtp3
        BYTE   W12
        BYTE           N80     En3   v080   gtp2
        BYTE   W12
        BYTE           N23     Bn3
        BYTE   W12
        BYTE                   Cn4
        BYTE   W12
        BYTE                   Gn4
        BYTE   W12
        BYTE                   Bn3
        BYTE   W12
        BYTE                   Cn4
        BYTE   W12
        BYTE           N11     Gn4
        BYTE   W04
// 010   ----------------------------------------
        BYTE   W08
        BYTE           N92     Bn2   v096   gtp3
        BYTE   W12
        BYTE           N80     Fs3   v080   gtp2
        BYTE   W12
        BYTE           N23     Cs4
        BYTE   W12
        BYTE                   Dn4
        BYTE   W12
        BYTE                   An4
        BYTE   W12
        BYTE                   Cs4
        BYTE   W12
        BYTE                   Dn4
        BYTE   W12
        BYTE                   An4
        BYTE   W04
// 011   ----------------------------------------
        BYTE   W08
        BYTE           N92     En2   v096   gtp3
        BYTE   W12
        BYTE           N80     Bn2   v080   gtp2
        BYTE   W12
        BYTE           N23     An3
        BYTE   W12
        BYTE                   Bn3
        BYTE   W12
        BYTE                   Fs4
        BYTE   W12
        BYTE                   Fs3
        BYTE   W12
        BYTE                   Gn3
        BYTE   W12
        BYTE                   Dn4
        BYTE   W04
// 012   ----------------------------------------
MomentofSerenity_1_12:
        BYTE   W08
        BYTE           N92     Ds2   v096   gtp3
        BYTE   W12
        BYTE           N80     As2   v080   gtp2
        BYTE   W12
        BYTE           N23     Gn3
        BYTE   W12
        BYTE                   As3
        BYTE   W12
        BYTE                   Fn4
        BYTE   W12
        BYTE                   Fn3
        BYTE   W12
        BYTE                   Gn3
        BYTE   W12
        BYTE           N21     Dn4
        BYTE   W04
        BYTE   PEND
// 013   ----------------------------------------
        BYTE   W08
        BYTE           N92     Gs2   v096   gtp3
        BYTE           N23     Ds3   v080
        BYTE   W12
        BYTE                   Fn3
        BYTE   W12
        BYTE           N19     Cn4
        BYTE   W12
        BYTE           N23     Cn3
        BYTE   W12
        BYTE                   Ds3
        BYTE   W12
        BYTE                   As3
        BYTE   W12
        BYTE                   Gs3
        BYTE   W12
        BYTE                   Fn3
        BYTE   W04
// 014   ----------------------------------------
        BYTE   PATT
         POIN2  MomentofSerenity_1_12
// 015   ----------------------------------------
        BYTE   W08
        BYTE           N68     Gs2   v096   gtp3
        BYTE           N23     Ds3   v080
        BYTE   W12
        BYTE                   Fn3
        BYTE   W12
        BYTE           N19     Cn4
        BYTE   W12
        BYTE           N23     Cn3
        BYTE   W12
        BYTE                   Ds3
        BYTE   W12
        BYTE                   As3
        BYTE   W12
        BYTE                   Gs3
        BYTE   W12
        BYTE                   Fn3
        BYTE   W04
// 016   ----------------------------------------
        BYTE   W08
        BYTE           N92     Cn2   v096   gtp3
        BYTE   W12
        BYTE           N80     Gn2   v080   gtp2
        BYTE   W12
        BYTE           N23     Dn3
        BYTE   W12
        BYTE                   En3
        BYTE   W12
        BYTE                   Bn3
        BYTE   W12
        BYTE                   Gn3
        BYTE   W12
        BYTE                   Bn2
        BYTE   W12
        BYTE                   En3
        BYTE   W04
// 017   ----------------------------------------
        BYTE   W08
        BYTE           N92     Dn2   v096   gtp3
        BYTE   W12
        BYTE           N80     An2   v080   gtp2
        BYTE   W12
        BYTE           N23     En3
        BYTE   W12
        BYTE                   Fn3
        BYTE   W12
        BYTE                   Cn4
        BYTE   W12
        BYTE                   An3
        BYTE   W12
        BYTE                   Cn3
        BYTE   W12
        BYTE           N11     Fn3
        BYTE   W04
// 018   ----------------------------------------
        BYTE   W08
        BYTE           N92     En2   v096   gtp3
        BYTE   W12
        BYTE           N80     Bn2   v080   gtp2
        BYTE   W12
        BYTE           N23     Fs3
        BYTE   W12
        BYTE                   Gn3
        BYTE   W12
        BYTE                   Dn4
        BYTE   W12
        BYTE                   Bn3
        BYTE   W12
        BYTE                   Dn3
        BYTE   W12
        BYTE           N13     Gn3
        BYTE   W04
// 019   ----------------------------------------
        BYTE   W08
        BYTE           N92     Fn2   v096   gtp3
        BYTE   W01
        BYTE           N92     Gn3   v080
        BYTE   W03
        BYTE           N90     An3   v080   gtp1
        BYTE   W03
        BYTE           N03     Cn4
        BYTE   W03
        BYTE           TIE     En4
        BYTE   W78
// 020   ----------------------------------------
        BYTE   W08
        BYTE           N23     En2   v096
        BYTE   W11
        BYTE           EOT     En4
        BYTE   W01
        BYTE           N32     Bn2   v080   gtp3
        BYTE           N23     Gs3
        BYTE   W12
        BYTE                   En3
        BYTE           N23     Bn3
        BYTE   W12
        BYTE                   En4
        BYTE   W12
        BYTE                   Cn2   v096
        BYTE           N23     Dn4   v080
        BYTE   W12
        BYTE           N32     Gn2   v080   gtp3
        BYTE           N23     En3
        BYTE   W12
        BYTE                   Cn3
        BYTE           N23     Gn3
        BYTE   W12
        BYTE                   Dn4
        BYTE   W04
// 021   ----------------------------------------
        BYTE   W08
        BYTE                   An1   v096
        BYTE           N23     Bn3   v080
        BYTE   W12
        BYTE           N32     En2   v096   gtp3
        BYTE           N23     Cn3   v080
        BYTE   W12
        BYTE                   An2
        BYTE           N23     En3
        BYTE   W12
        BYTE           N13     An3
        BYTE   W12
        BYTE           TIE     Fn2   v096
        BYTE   W01
        BYTE                   Cn3   v080
        BYTE   W03
        BYTE                   En3
        BYTE   W01
        BYTE                   Bn3
        BYTE   W32
        BYTE   W03
// 022   ----------------------------------------
        BYTE   W92
        BYTE           EOT     Cn3
        BYTE   W03
        BYTE                   En3
        BYTE   W01
// 023   ----------------------------------------
        BYTE                   Bn3
        BYTE   W03
        BYTE                   Fn2
        BYTE   FINE

//****************** Track 2 (Midi-Chn.2) ******************//

MomentofSerenity_2:
        BYTE   KEYSH   MomentofSerenity_key+0
// 000   ----------------------------------------
        BYTE           VOICE   11
        BYTE           VOL     26
        BYTE           PAN     c_v-64
        BYTE   W40
        BYTE           N23     An3   v080
        BYTE   W12
        BYTE                   Bn3
        BYTE   W12
        BYTE                   Fs4
        BYTE   W12
        BYTE                   An3
        BYTE   W12
        BYTE                   Bn3
        BYTE   W08
// 001   ----------------------------------------
        BYTE   W04
        BYTE                   Fs4
        BYTE   W36
        BYTE                   Bn3
        BYTE   W12
        BYTE                   Cn4
        BYTE   W12
        BYTE                   Gn4
        BYTE   W12
        BYTE                   Bn3
        BYTE   W12
        BYTE                   Cn4
        BYTE   W08
// 002   ----------------------------------------
        BYTE   W04
        BYTE                   Gn4
        BYTE   W36
        BYTE                   Cs4
        BYTE   W12
        BYTE                   Dn4
        BYTE   W12
        BYTE                   An4
        BYTE   W12
        BYTE                   Cs4
        BYTE   W12
        BYTE                   Dn4
        BYTE   W08
// 003   ----------------------------------------
        BYTE   W04
        BYTE                   An4
        BYTE   W36
        BYTE           N19     Bn3
        BYTE   W12
        BYTE           N09     Cn4
        BYTE   W10
        BYTE           N30     Bn3
        BYTE   W02
        BYTE                   Cn4
        BYTE   W01
        BYTE                   Gn4
        BYTE   W30
        BYTE   W01
// 004   ----------------------------------------
        BYTE   W96
// 005   ----------------------------------------
        BYTE   W96
// 006   ----------------------------------------
        BYTE   W96
// 007   ----------------------------------------
        BYTE   W96
// 008   ----------------------------------------
        BYTE   W96
// 009   ----------------------------------------
        BYTE   W96
// 010   ----------------------------------------
        BYTE   W96
// 011   ----------------------------------------
        BYTE   W96
// 012   ----------------------------------------
        BYTE   W96
// 013   ----------------------------------------
        BYTE   W96
// 014   ----------------------------------------
        BYTE   W96
// 015   ----------------------------------------
        BYTE   W96
// 016   ----------------------------------------
        BYTE   W96
// 017   ----------------------------------------
        BYTE   W96
// 018   ----------------------------------------
        BYTE   W96
// 019   ----------------------------------------
        BYTE   W96
// 020   ----------------------------------------
        BYTE   W96
// 021   ----------------------------------------
        BYTE   W96
// 022   ----------------------------------------
        BYTE   W96
// 023   ----------------------------------------
        BYTE   W03
        BYTE   FINE

//****************** Track 3 (Midi-Chn.3) ******************//

MomentofSerenity_3:
        BYTE   KEYSH   MomentofSerenity_key+0
// 000   ----------------------------------------
        BYTE           VOICE   69
        BYTE           VOL     100
        BYTE           PAN     c_v-16
        BYTE   W96
// 001   ----------------------------------------
        BYTE   W96
// 002   ----------------------------------------
        BYTE   W96
// 003   ----------------------------------------
        BYTE   W84
        BYTE           VOL     2
        BYTE   W01
        BYTE                   4
        BYTE   W01
        BYTE                   7
        BYTE   W01
        BYTE                   13
        BYTE   W01
        BYTE                   15
        BYTE   W01
        BYTE                   18
        BYTE   W01
        BYTE                   24
        BYTE   W01
        BYTE                   27
        BYTE   W01
        BYTE                   29
        BYTE   W01
        BYTE                   35
        BYTE   W01
        BYTE                   38
        BYTE   W01
        BYTE                   41
        BYTE   W01
// 004   ----------------------------------------
        BYTE                   43
        BYTE           N22     Dn3   v103
        BYTE   W06
        BYTE           VOL     42
        BYTE   W04
        BYTE                   41
        BYTE   W01
        BYTE                   43
        BYTE   W02
        BYTE                   44
        BYTE   W01
        BYTE                   46
        BYTE   W02
        BYTE                   48
        BYTE   W01
        BYTE                   50
        BYTE   W02
        BYTE                   51
        BYTE   W01
        BYTE                   54
        BYTE   W02
        BYTE                   55
        BYTE   W01
        BYTE                   57
        BYTE   W01
        BYTE           N44     Gn3   v101   gtp3
        BYTE   W01
        BYTE           VOL     59
        BYTE   W01
        BYTE                   61
        BYTE   W02
        BYTE                   62
        BYTE   W01
        BYTE                   65
        BYTE   W02
        BYTE                   66
        BYTE   W01
        BYTE                   68
        BYTE   W02
        BYTE                   70
        BYTE   W01
        BYTE                   72
        BYTE   W04
        BYTE                   71
        BYTE   W03
        BYTE                   69
        BYTE   W03
        BYTE                   66
        BYTE   W03
        BYTE                   65
        BYTE   W03
        BYTE                   62
        BYTE   W03
        BYTE                   60
        BYTE   W02
        BYTE                   58
        BYTE   W05
        BYTE                   57
        BYTE   W10
        BYTE                   56
        BYTE   W01
        BYTE           N11     Fs3   v118
        BYTE   W04
        BYTE           VOL     55
        BYTE   W05
        BYTE                   54
        BYTE   W03
        BYTE           N11     Gn3
        BYTE   W07
        BYTE           VOL     53
        BYTE   W05
// 005   ----------------------------------------
        BYTE           N44     An3   v118   gtp3
        BYTE           VOL     52
        BYTE   W03
        BYTE                   53
        BYTE   W03
        BYTE                   54
        BYTE   W03
        BYTE                   56
        BYTE   W03
        BYTE                   57
        BYTE   W03
        BYTE                   59
        BYTE   W03
        BYTE                   61
        BYTE   W03
        BYTE                   62
        BYTE   W03
        BYTE                   64
        BYTE   W03
        BYTE                   65
        BYTE   W03
        BYTE                   66
        BYTE   W03
        BYTE                   68
        BYTE   W03
        BYTE                   69
        BYTE   W03
        BYTE                   71
        BYTE   W03
        BYTE                   72
        BYTE   W03
        BYTE                   74
        BYTE   W03
        BYTE           N44     Cn4   v118   gtp3
        BYTE           VOL     76
        BYTE   W05
        BYTE                   74
        BYTE   W01
        BYTE                   72
        BYTE   W03
        BYTE                   70
        BYTE   W02
        BYTE                   69
        BYTE   W01
        BYTE                   68
        BYTE   W02
        BYTE                   66
        BYTE   W01
        BYTE                   65
        BYTE   W02
        BYTE                   63
        BYTE   W01
        BYTE                   62
        BYTE   W02
        BYTE                   61
        BYTE   W01
        BYTE                   59
        BYTE   W02
        BYTE                   58
        BYTE   W01
        BYTE                   57
        BYTE   W03
        BYTE                   58
        BYTE   W03
        BYTE                   61
        BYTE   W03
        BYTE                   63
        BYTE   W03
        BYTE                   65
        BYTE   W03
        BYTE                   68
        BYTE   W03
        BYTE                   70
        BYTE   W03
        BYTE                   72
        BYTE   W03
// 006   ----------------------------------------
        BYTE                   75
        BYTE           N23     Bn3
        BYTE   W03
        BYTE           VOL     77
        BYTE   W03
        BYTE                   80
        BYTE   W02
        BYTE                   82
        BYTE   W01
        BYTE                   80
        BYTE   W02
        BYTE                   79
        BYTE   W01
        BYTE                   77
        BYTE   W02
        BYTE                   75
        BYTE   W01
        BYTE                   73
        BYTE   W02
        BYTE                   72
        BYTE   W01
        BYTE                   70
        BYTE   W02
        BYTE                   68
        BYTE   W01
        BYTE                   66
        BYTE   W02
        BYTE                   65
        BYTE   W01
        BYTE           TIE     Gn3   v102
        BYTE           VOL     62
        BYTE   W02
        BYTE                   61
        BYTE   W03
        BYTE                   60
        BYTE   W04
        BYTE                   59
        BYTE   W03
        BYTE                   58
        BYTE   W04
        BYTE                   57
        BYTE   W07
        BYTE                   56
        BYTE   W03
        BYTE                   55
        BYTE   W04
        BYTE                   54
        BYTE   W07
        BYTE                   53
        BYTE   W03
        BYTE                   52
        BYTE   W04
        BYTE                   51
        BYTE   W03
        BYTE                   50
        BYTE   W07
        BYTE                   49
        BYTE   W04
        BYTE                   48
        BYTE   W03
        BYTE                   47
        BYTE   W04
        BYTE                   46
        BYTE   W07
// 007   ----------------------------------------
        BYTE                   45
        BYTE   W03
        BYTE                   44
        BYTE   W04
        BYTE                   43
        BYTE   W07
        BYTE                   42
        BYTE   W03
        BYTE                   41
        BYTE   W04
        BYTE                   40
        BYTE   W03
        BYTE                   39
        BYTE   W07
        BYTE                   38
        BYTE   W04
        BYTE                   37
        BYTE   W03
        BYTE                   36
        BYTE   W04
        BYTE                   35
        BYTE   W01
        BYTE                   34
        BYTE   W02
        BYTE                   32
        BYTE   W01
        BYTE                   31
        BYTE   W02
        BYTE                   29
        BYTE   W01
        BYTE                   27
        BYTE   W02
        BYTE                   25
        BYTE   W01
        BYTE                   24
        BYTE   W02
        BYTE                   22
        BYTE   W01
        BYTE                   20
        BYTE   W02
        BYTE                   18
        BYTE   W01
        BYTE                   17
        BYTE   W02
        BYTE                   15
        BYTE   W01
        BYTE                   13
        BYTE   W02
        BYTE                   11
        BYTE   W01
        BYTE                   9
        BYTE   W02
        BYTE                   8
        BYTE   W01
        BYTE                   6
        BYTE   W02
        BYTE                   5
        BYTE   W01
        BYTE                   2
        BYTE   W02
        BYTE                   0
        BYTE   W03
        BYTE           EOT
        BYTE   W17
        BYTE           VOL     6
        BYTE   W01
        BYTE                   13
        BYTE   W01
        BYTE                   20
        BYTE   W01
        BYTE                   33
        BYTE   W01
// 008   ----------------------------------------
        BYTE           N23     Dn3
        BYTE           VOL     40
        BYTE   W01
        BYTE                   50
        BYTE   W03
        BYTE                   51
        BYTE   W03
        BYTE                   53
        BYTE   W03
        BYTE                   54
        BYTE   W03
        BYTE                   55
        BYTE   W03
        BYTE                   57
        BYTE   W06
        BYTE                   59
        BYTE   W02
        BYTE           N44     Gn3   v094   gtp3
        BYTE   W01
        BYTE           VOL     61
        BYTE   W06
        BYTE                   63
        BYTE   W03
        BYTE                   65
        BYTE   W06
        BYTE                   67
        BYTE   W03
        BYTE                   69
        BYTE   W06
        BYTE                   71
        BYTE   W01
        BYTE                   72
        BYTE   W03
        BYTE                   71
        BYTE   W03
        BYTE                   69
        BYTE   W06
        BYTE                   67
        BYTE   W03
        BYTE                   65
        BYTE   W06
        BYTE                   63
        BYTE   W01
        BYTE           N11     Fs3   v118
        BYTE   W02
        BYTE           VOL     62
        BYTE   W03
        BYTE                   61
        BYTE   W03
        BYTE                   59
        BYTE   W03
        BYTE                   58
        BYTE   W01
        BYTE           N11     Gn3
        BYTE   W02
        BYTE           VOL     57
        BYTE   W03
        BYTE                   56
        BYTE   W03
        BYTE                   54
        BYTE   W03
        BYTE                   53
        BYTE   W01
// 009   ----------------------------------------
        BYTE           N44     An3   v118   gtp3
        BYTE   W01
        BYTE           VOL     52
        BYTE   W03
        BYTE                   53
        BYTE   W03
        BYTE                   54
        BYTE   W06
        BYTE                   55
        BYTE   W03
        BYTE                   56
        BYTE   W03
        BYTE                   57
        BYTE   W03
        BYTE                   58
        BYTE   W03
        BYTE                   59
        BYTE   W03
        BYTE                   60
        BYTE   W03
        BYTE                   61
        BYTE   W03
        BYTE                   62
        BYTE   W03
        BYTE                   63
        BYTE   W03
        BYTE                   64
        BYTE   W03
        BYTE                   65
        BYTE   W05
        BYTE           N44     Cn4   v118   gtp3
        BYTE   W01
        BYTE           VOL     67
        BYTE   W03
        BYTE                   68
        BYTE   W02
        BYTE                   69
        BYTE   W03
        BYTE                   67
        BYTE   W03
        BYTE                   65
        BYTE   W03
        BYTE                   64
        BYTE   W03
        BYTE                   62
        BYTE   W03
        BYTE                   61
        BYTE   W03
        BYTE                   59
        BYTE   W03
        BYTE                   60
        BYTE   W03
        BYTE                   61
        BYTE   W03
        BYTE                   62
        BYTE   W03
        BYTE                   63
        BYTE   W03
        BYTE                   65
        BYTE   W06
        BYTE                   67
        BYTE   W01
        BYTE                   68
        BYTE   W02
// 010   ----------------------------------------
        BYTE           N23     Bn3
        BYTE   W08
        BYTE           VOL     67
        BYTE   W09
        BYTE                   66
        BYTE   W07
        BYTE           TIE     Dn4
        BYTE   W03
        BYTE           VOL     65
        BYTE   W06
        BYTE                   64
        BYTE   W03
        BYTE                   62
        BYTE   W03
        BYTE                   61
        BYTE   W06
        BYTE                   59
        BYTE   W03
        BYTE                   58
        BYTE   W03
        BYTE                   57
        BYTE   W03
        BYTE                   56
        BYTE   W03
        BYTE                   55
        BYTE   W03
        BYTE                   54
        BYTE   W03
        BYTE                   53
        BYTE   W03
        BYTE                   52
        BYTE   W03
        BYTE                   51
        BYTE   W03
        BYTE                   50
        BYTE   W03
        BYTE                   49
        BYTE   W03
        BYTE                   48
        BYTE   W03
        BYTE                   46
        BYTE   W06
        BYTE                   45
        BYTE   W03
        BYTE                   43
        BYTE   W06
// 011   ----------------------------------------
        BYTE                   42
        BYTE   W03
        BYTE                   40
        BYTE   W03
        BYTE                   39
        BYTE   W06
        BYTE                   37
        BYTE   W03
        BYTE                   36
        BYTE   W03
        BYTE                   35
        BYTE   W03
        BYTE                   34
        BYTE   W03
        BYTE                   33
        BYTE   W03
        BYTE                   32
        BYTE   W03
        BYTE                   31
        BYTE   W01
        BYTE                   30
        BYTE   W02
        BYTE                   29
        BYTE   W01
        BYTE                   28
        BYTE   W02
        BYTE                   27
        BYTE   W01
        BYTE                   25
        BYTE   W02
        BYTE                   24
        BYTE   W01
        BYTE                   23
        BYTE   W02
        BYTE                   21
        BYTE   W01
        BYTE                   20
        BYTE   W02
        BYTE                   19
        BYTE   W01
        BYTE                   17
        BYTE   W02
        BYTE                   16
        BYTE   W01
        BYTE                   15
        BYTE   W02
        BYTE                   13
        BYTE   W03
        BYTE                   11
        BYTE   W01
        BYTE                   9
        BYTE   W03
        BYTE                   7
        BYTE   W02
        BYTE                   6
        BYTE   W01
        BYTE                   5
        BYTE   W02
        BYTE           EOT
        BYTE           VOL     3
        BYTE   W01
        BYTE                   2
        BYTE   W02
        BYTE                   0
        BYTE   W30
// 012   ----------------------------------------
        BYTE   W96
// 013   ----------------------------------------
        BYTE   W96
// 014   ----------------------------------------
        BYTE   W96
// 015   ----------------------------------------
        BYTE   W96
// 016   ----------------------------------------
        BYTE   W96
// 017   ----------------------------------------
        BYTE   W96
// 018   ----------------------------------------
        BYTE   W96
// 019   ----------------------------------------
        BYTE   W96
// 020   ----------------------------------------
        BYTE   W96
// 021   ----------------------------------------
        BYTE   W96
// 022   ----------------------------------------
        BYTE   W96
// 023   ----------------------------------------
        BYTE   W03
        BYTE   FINE

//****************** Track 4 (Midi-Chn.4) ******************//

MomentofSerenity_4:
        BYTE   KEYSH   MomentofSerenity_key+0
// 000   ----------------------------------------
        BYTE           VOICE   69
        BYTE           VOL     48
        BYTE           PAN     c_v+35
        BYTE   W96
// 001   ----------------------------------------
        BYTE   W96
// 002   ----------------------------------------
        BYTE   W96
// 003   ----------------------------------------
        BYTE   W90
        BYTE           VOL     1
        BYTE   W01
        BYTE                   2
        BYTE   W01
        BYTE                   3
        BYTE   W01
        BYTE                   6
        BYTE   W01
        BYTE                   7
        BYTE   W01
        BYTE                   9
        BYTE   W01
// 004   ----------------------------------------
        BYTE                   11
        BYTE   W01
        BYTE                   13
        BYTE   W01
        BYTE                   14
        BYTE   W01
        BYTE                   17
        BYTE   W01
        BYTE                   18
        BYTE   W01
        BYTE                   20
        BYTE   W01
        BYTE                   21
        BYTE           N22     Dn3   v103
        BYTE   W03
        BYTE           VOL     20
        BYTE   W10
        BYTE                   21
        BYTE   W01
        BYTE                   22
        BYTE   W02
        BYTE                   23
        BYTE   W01
        BYTE                   24
        BYTE   W02
        BYTE                   25
        BYTE   W01
        BYTE                   26
        BYTE   W03
        BYTE                   27
        BYTE   W01
        BYTE           N44     Gn3   v101   gtp3
        BYTE   W01
        BYTE           VOL     28
        BYTE   W01
        BYTE                   29
        BYTE   W02
        BYTE                   30
        BYTE   W01
        BYTE                   31
        BYTE   W02
        BYTE                   32
        BYTE   W01
        BYTE                   33
        BYTE   W02
        BYTE                   34
        BYTE   W02
        BYTE                   35
        BYTE   W03
        BYTE                   34
        BYTE   W03
        BYTE                   33
        BYTE   W03
        BYTE                   32
        BYTE   W03
        BYTE                   31
        BYTE   W03
        BYTE                   30
        BYTE   W03
        BYTE                   29
        BYTE   W02
        BYTE                   28
        BYTE   W10
        BYTE                   27
        BYTE   W06
        BYTE           N11     Fs3   v118
        BYTE   W04
        BYTE           VOL     26
        BYTE   W08
        BYTE           N11     Gn3
        BYTE   W06
// 005   ----------------------------------------
        BYTE   W01
        BYTE           VOL     25
        BYTE   W05
        BYTE           N44     An3   v118   gtp3
        BYTE   W06
        BYTE           VOL     26
        BYTE   W03
        BYTE                   27
        BYTE   W03
        BYTE                   28
        BYTE   W06
        BYTE                   29
        BYTE   W03
        BYTE                   30
        BYTE   W03
        BYTE                   31
        BYTE   W06
        BYTE                   32
        BYTE   W03
        BYTE                   33
        BYTE   W06
        BYTE                   34
        BYTE   W03
        BYTE                   35
        BYTE   W03
        BYTE                   36
        BYTE   W03
        BYTE           N44     Cn4   v118   gtp3
        BYTE   W02
        BYTE           VOL     37
        BYTE   W01
        BYTE                   36
        BYTE   W03
        BYTE                   35
        BYTE   W02
        BYTE                   34
        BYTE   W03
        BYTE                   33
        BYTE   W03
        BYTE                   32
        BYTE   W01
        BYTE                   31
        BYTE   W02
        BYTE                   30
        BYTE   W03
        BYTE                   29
        BYTE   W01
        BYTE                   28
        BYTE   W03
        BYTE                   27
        BYTE   W03
        BYTE                   28
        BYTE   W03
        BYTE                   29
        BYTE   W03
        BYTE                   30
        BYTE   W03
        BYTE                   31
        BYTE   W03
        BYTE                   33
        BYTE   W03
// 006   ----------------------------------------
        BYTE                   34
        BYTE   W03
        BYTE                   35
        BYTE   W03
        BYTE                   36
        BYTE           N23     Bn3
        BYTE   W03
        BYTE           VOL     37
        BYTE   W03
        BYTE                   38
        BYTE   W02
        BYTE                   39
        BYTE   W03
        BYTE                   38
        BYTE   W01
        BYTE                   37
        BYTE   W02
        BYTE                   36
        BYTE   W01
        BYTE                   35
        BYTE   W02
        BYTE                   34
        BYTE   W03
        BYTE                   33
        BYTE   W01
        BYTE                   32
        BYTE   W02
        BYTE                   31
        BYTE   W01
        BYTE           TIE     Gn3   v102
        BYTE           VOL     30
        BYTE   W02
        BYTE                   29
        BYTE   W07
        BYTE                   28
        BYTE   W10
        BYTE                   27
        BYTE   W07
        BYTE                   26
        BYTE   W11
        BYTE                   25
        BYTE   W10
        BYTE                   24
        BYTE   W07
        BYTE                   23
        BYTE   W11
        BYTE                   22
        BYTE   W01
// 007   ----------------------------------------
        BYTE   W09
        BYTE                   21
        BYTE   W07
        BYTE                   20
        BYTE   W11
        BYTE                   19
        BYTE   W10
        BYTE                   18
        BYTE   W07
        BYTE                   17
        BYTE   W05
        BYTE                   16
        BYTE   W02
        BYTE                   15
        BYTE   W03
        BYTE                   14
        BYTE   W01
        BYTE                   13
        BYTE   W02
        BYTE                   12
        BYTE   W01
        BYTE                   11
        BYTE   W03
        BYTE                   10
        BYTE   W02
        BYTE                   9
        BYTE   W01
        BYTE                   8
        BYTE   W02
        BYTE                   7
        BYTE   W01
        BYTE                   6
        BYTE   W02
        BYTE                   5
        BYTE   W03
        BYTE                   4
        BYTE   W01
        BYTE                   3
        BYTE   W02
        BYTE                   2
        BYTE   W01
        BYTE                   1
        BYTE   W02
        BYTE                   0
        BYTE   W03
        BYTE           EOT
        BYTE   W15
// 008   ----------------------------------------
        BYTE   W02
        BYTE           VOL     3
        BYTE   W01
        BYTE                   6
        BYTE   W01
        BYTE                   9
        BYTE   W01
        BYTE                   16
        BYTE   W01
        BYTE           N23     Dn3
        BYTE           VOL     19
        BYTE   W01
        BYTE                   24
        BYTE   W03
        BYTE                   25
        BYTE   W06
        BYTE                   26
        BYTE   W06
        BYTE                   27
        BYTE   W03
        BYTE                   28
        BYTE   W05
        BYTE           N44     Gn3   v094   gtp3
        BYTE   W01
        BYTE           VOL     29
        BYTE   W06
        BYTE                   30
        BYTE   W03
        BYTE                   31
        BYTE   W06
        BYTE                   32
        BYTE   W03
        BYTE                   33
        BYTE   W06
        BYTE                   34
        BYTE   W07
        BYTE                   33
        BYTE   W06
        BYTE                   32
        BYTE   W03
        BYTE                   31
        BYTE   W06
        BYTE                   30
        BYTE   W01
        BYTE           N11     Fs3   v118
        BYTE   W05
        BYTE           VOL     29
        BYTE   W03
        BYTE                   28
        BYTE   W04
        BYTE           N11     Gn3
        BYTE   W02
        BYTE           VOL     27
        BYTE   W04
// 009   ----------------------------------------
        BYTE   W02
        BYTE                   26
        BYTE   W03
        BYTE                   25
        BYTE   W01
        BYTE           N44     An3   v118   gtp3
        BYTE   W07
        BYTE           VOL     26
        BYTE   W09
        BYTE                   27
        BYTE   W03
        BYTE                   28
        BYTE   W09
        BYTE                   29
        BYTE   W06
        BYTE                   30
        BYTE   W06
        BYTE                   31
        BYTE   W08
        BYTE           N44     Cn4   v118   gtp3
        BYTE   W01
        BYTE           VOL     32
        BYTE   W03
        BYTE                   33
        BYTE   W05
        BYTE                   32
        BYTE   W03
        BYTE                   31
        BYTE   W06
        BYTE                   30
        BYTE   W03
        BYTE                   29
        BYTE   W03
        BYTE                   28
        BYTE   W03
        BYTE                   29
        BYTE   W06
        BYTE                   30
        BYTE   W06
        BYTE                   31
        BYTE   W03
// 010   ----------------------------------------
        BYTE   W03
        BYTE                   32
        BYTE   W01
        BYTE                   33
        BYTE   W02
        BYTE           N23     Bn3
        BYTE   W08
        BYTE           VOL     32
        BYTE   W16
        BYTE           TIE     Dn4
        BYTE   W03
        BYTE           VOL     31
        BYTE   W09
        BYTE                   30
        BYTE   W03
        BYTE                   29
        BYTE   W06
        BYTE                   28
        BYTE   W09
        BYTE                   27
        BYTE   W03
        BYTE                   26
        BYTE   W06
        BYTE                   25
        BYTE   W09
        BYTE                   24
        BYTE   W03
        BYTE                   23
        BYTE   W06
        BYTE                   22
        BYTE   W09
// 011   ----------------------------------------
        BYTE                   21
        BYTE   W03
        BYTE                   20
        BYTE   W06
        BYTE                   19
        BYTE   W09
        BYTE                   18
        BYTE   W03
        BYTE                   17
        BYTE   W06
        BYTE                   16
        BYTE   W06
        BYTE                   15
        BYTE   W04
        BYTE                   14
        BYTE   W03
        BYTE                   13
        BYTE   W03
        BYTE                   12
        BYTE   W02
        BYTE                   11
        BYTE   W03
        BYTE                   10
        BYTE   W01
        BYTE                   9
        BYTE   W03
        BYTE                   8
        BYTE   W03
        BYTE                   7
        BYTE   W02
        BYTE                   6
        BYTE   W03
        BYTE                   5
        BYTE   W03
        BYTE                   4
        BYTE   W01
        BYTE                   3
        BYTE   W03
        BYTE                   2
        BYTE   W02
        BYTE           EOT
        BYTE   W01
        BYTE           VOL     1
        BYTE   W02
        BYTE                   0
        BYTE   W24
// 012   ----------------------------------------
        BYTE   W96
// 013   ----------------------------------------
        BYTE   W96
// 014   ----------------------------------------
        BYTE   W96
// 015   ----------------------------------------
        BYTE   W96
// 016   ----------------------------------------
        BYTE   W96
// 017   ----------------------------------------
        BYTE   W96
// 018   ----------------------------------------
        BYTE   W96
// 019   ----------------------------------------
        BYTE   W96
// 020   ----------------------------------------
        BYTE   W96
// 021   ----------------------------------------
        BYTE   W96
// 022   ----------------------------------------
        BYTE   W96
// 023   ----------------------------------------
        BYTE   W03
        BYTE   FINE

//****************** Track 5 (Midi-Chn.5) ******************//

MomentofSerenity_5:
        BYTE   KEYSH   MomentofSerenity_key+0
// 000   ----------------------------------------
        BYTE           VOICE   40
        BYTE           VOL     100
        BYTE           PAN     c_v+8
        BYTE   W96
// 001   ----------------------------------------
        BYTE   W96
// 002   ----------------------------------------
        BYTE   W96
// 003   ----------------------------------------
        BYTE   W96
// 004   ----------------------------------------
        BYTE   W96
// 005   ----------------------------------------
        BYTE   W96
// 006   ----------------------------------------
        BYTE   W96
// 007   ----------------------------------------
        BYTE   W96
// 008   ----------------------------------------
        BYTE   W96
// 009   ----------------------------------------
        BYTE   W96
// 010   ----------------------------------------
        BYTE   W96
// 011   ----------------------------------------
        BYTE   W48
        BYTE           VOL     54
        BYTE   W01
        BYTE                   52
        BYTE   W02
        BYTE                   50
        BYTE   W01
        BYTE                   49
        BYTE   W02
        BYTE                   47
        BYTE   W01
        BYTE                   45
        BYTE   W02
        BYTE                   43
        BYTE   W01
        BYTE                   42
        BYTE   W02
        BYTE                   40
        BYTE   W01
        BYTE                   38
        BYTE   W02
        BYTE                   36
        BYTE   W01
        BYTE                   35
        BYTE   W02
        BYTE                   33
        BYTE   W01
        BYTE                   31
        BYTE   W01
        BYTE                   29
        BYTE   W02
        BYTE                   31
        BYTE   W01
        BYTE                   33
        BYTE   W01
        BYTE           N23     Dn3   v101
        BYTE   W01
        BYTE           VOL     35
        BYTE   W01
        BYTE                   37
        BYTE   W02
        BYTE                   39
        BYTE   W01
        BYTE                   41
        BYTE   W02
        BYTE                   43
        BYTE   W01
        BYTE                   45
        BYTE   W02
        BYTE                   47
        BYTE   W01
        BYTE                   49
        BYTE   W02
        BYTE                   51
        BYTE   W01
        BYTE                   54
        BYTE   W02
        BYTE                   55
        BYTE   W01
        BYTE                   57
        BYTE   W02
        BYTE                   59
        BYTE   W01
        BYTE                   61
        BYTE   W02
        BYTE                   64
        BYTE   W01
        BYTE                   65
        BYTE   W01
// 012   ----------------------------------------
        BYTE           TIE     Fn3   v118
        BYTE   W05
        BYTE           VOL     64
        BYTE   W03
        BYTE                   63
        BYTE   W03
        BYTE                   61
        BYTE   W06
        BYTE                   60
        BYTE   W03
        BYTE                   59
        BYTE   W03
        BYTE                   57
        BYTE   W06
        BYTE                   56
        BYTE   W03
        BYTE                   55
        BYTE   W03
        BYTE                   54
        BYTE   W03
        BYTE                   53
        BYTE   W03
        BYTE                   52
        BYTE   W03
        BYTE                   51
        BYTE   W03
        BYTE                   50
        BYTE   W08
        BYTE                   51
        BYTE   W04
        BYTE                   52
        BYTE   W04
        BYTE                   53
        BYTE   W04
        BYTE                   54
        BYTE   W08
        BYTE                   55
        BYTE   W05
        BYTE                   56
        BYTE   W04
        BYTE                   57
        BYTE   W08
        BYTE                   58
        BYTE   W04
// 013   ----------------------------------------
        BYTE                   59
        BYTE   W01
        BYTE                   50
        BYTE   W01
        BYTE                   46
        BYTE   W01
        BYTE                   42
        BYTE   W01
        BYTE                   33
        BYTE   W01
        BYTE                   29
        BYTE   W01
        BYTE                   24
        BYTE   W01
        BYTE                   16
        BYTE   W01
        BYTE                   12
        BYTE   W01
        BYTE           EOT
        BYTE           VOL     7
        BYTE   W01
        BYTE                   0
        BYTE   W08
        BYTE                   6
        BYTE   W01
        BYTE                   17
        BYTE   W01
        BYTE                   24
        BYTE   W01
        BYTE                   29
        BYTE   W01
        BYTE                   40
        BYTE   W02
        BYTE                   42
        BYTE           N23     Ds3
        BYTE   W01
        BYTE           VOL     43
        BYTE   W02
        BYTE                   45
        BYTE   W01
        BYTE                   47
        BYTE   W02
        BYTE                   49
        BYTE   W01
        BYTE                   50
        BYTE   W02
        BYTE                   53
        BYTE   W01
        BYTE                   54
        BYTE   W02
        BYTE                   56
        BYTE   W01
        BYTE                   57
        BYTE   W02
        BYTE                   60
        BYTE   W01
        BYTE                   61
        BYTE   W02
        BYTE                   63
        BYTE   W01
        BYTE                   65
        BYTE   W02
        BYTE                   67
        BYTE   W01
        BYTE                   69
        BYTE   W01
        BYTE                   70
        BYTE   W01
        BYTE           N23     Fn3
        BYTE   W01
        BYTE           VOL     69
        BYTE   W01
        BYTE                   66
        BYTE   W02
        BYTE                   64
        BYTE   W01
        BYTE                   61
        BYTE   W02
        BYTE                   60
        BYTE   W01
        BYTE                   57
        BYTE   W02
        BYTE                   55
        BYTE   W01
        BYTE                   53
        BYTE   W01
        BYTE                   51
        BYTE   W02
        BYTE                   52
        BYTE   W01
        BYTE                   54
        BYTE   W03
        BYTE                   56
        BYTE   W02
        BYTE                   57
        BYTE   W01
        BYTE                   58
        BYTE   W02
        BYTE                   59
        BYTE   W01
        BYTE           N23     Ds3
        BYTE           VOL     61
        BYTE   W03
        BYTE                   63
        BYTE   W02
        BYTE                   65
        BYTE   W03
        BYTE                   67
        BYTE   W01
        BYTE                   68
        BYTE   W02
        BYTE                   69
        BYTE   W01
        BYTE                   70
        BYTE   W02
        BYTE                   72
        BYTE   W03
        BYTE                   74
        BYTE   W01
        BYTE                   76
        BYTE   W03
        BYTE                   78
        BYTE   W02
        BYTE                   79
        BYTE   W01
// 014   ----------------------------------------
        BYTE                   80
        BYTE           TIE     Fn3   v100
        BYTE   W06
        BYTE           VOL     78
        BYTE   W03
        BYTE                   76
        BYTE   W03
        BYTE                   75
        BYTE   W03
        BYTE                   73
        BYTE   W03
        BYTE                   72
        BYTE   W03
        BYTE                   71
        BYTE   W03
        BYTE                   69
        BYTE   W02
        BYTE                   68
        BYTE   W07
        BYTE                   67
        BYTE   W03
        BYTE                   66
        BYTE   W04
        BYTE                   65
        BYTE   W06
        BYTE                   64
        BYTE   W04
        BYTE                   63
        BYTE   W03
        BYTE                   62
        BYTE   W04
        BYTE                   61
        BYTE   W07
        BYTE                   60
        BYTE   W03
        BYTE                   59
        BYTE   W03
        BYTE                   58
        BYTE   W04
        BYTE                   57
        BYTE   W07
        BYTE                   56
        BYTE   W03
        BYTE                   55
        BYTE   W03
        BYTE                   54
        BYTE   W07
        BYTE                   53
        BYTE   W02
// 015   ----------------------------------------
        BYTE   W02
        BYTE                   52
        BYTE   W03
        BYTE                   50
        BYTE   W06
        BYTE                   48
        BYTE   W03
        BYTE                   46
        BYTE   W03
        BYTE                   45
        BYTE   W03
        BYTE                   43
        BYTE   W03
        BYTE                   42
        BYTE   W03
        BYTE                   40
        BYTE   W02
        BYTE                   39
        BYTE   W02
        BYTE                   36
        BYTE   W01
        BYTE                   33
        BYTE   W02
        BYTE                   30
        BYTE   W01
        BYTE                   27
        BYTE   W02
        BYTE                   24
        BYTE   W01
        BYTE                   20
        BYTE   W02
        BYTE                   17
        BYTE   W01
        BYTE                   14
        BYTE   W02
        BYTE                   11
        BYTE   W01
        BYTE                   8
        BYTE   W02
        BYTE                   5
        BYTE   W01
        BYTE                   2
        BYTE   W01
        BYTE           EOT
        BYTE           VOL     0
        BYTE   W19
        BYTE                   3
        BYTE   W01
        BYTE                   6
        BYTE   W01
        BYTE                   9
        BYTE   W01
        BYTE                   16
        BYTE   W01
        BYTE                   20
        BYTE   W01
        BYTE                   23
        BYTE   W01
        BYTE           N23     Fn3   v118
        BYTE           VOL     30
        BYTE   W02
        BYTE                   31
        BYTE   W01
        BYTE                   34
        BYTE   W02
        BYTE                   35
        BYTE   W01
        BYTE                   38
        BYTE   W02
        BYTE                   39
        BYTE   W01
        BYTE                   42
        BYTE   W02
        BYTE                   43
        BYTE   W01
        BYTE                   46
        BYTE   W02
        BYTE                   47
        BYTE   W01
        BYTE                   50
        BYTE   W02
        BYTE                   51
        BYTE   W01
        BYTE                   54
        BYTE   W02
        BYTE                   55
        BYTE   W01
        BYTE                   57
        BYTE   W02
        BYTE                   60
        BYTE   W01
// 016   ----------------------------------------
        BYTE           TIE     Gn3   v107
        BYTE   W02
        BYTE           VOL     61
        BYTE   W03
        BYTE                   62
        BYTE   W03
        BYTE                   64
        BYTE   W03
        BYTE                   65
        BYTE   W03
        BYTE                   67
        BYTE   W03
        BYTE                   69
        BYTE   W06
        BYTE                   71
        BYTE   W03
        BYTE                   72
        BYTE   W03
        BYTE                   74
        BYTE   W01
        BYTE                   75
        BYTE   W03
        BYTE                   74
        BYTE   W03
        BYTE                   73
        BYTE   W03
        BYTE                   72
        BYTE   W06
        BYTE                   70
        BYTE   W03
        BYTE                   69
        BYTE   W06
        BYTE                   68
        BYTE   W03
        BYTE                   67
        BYTE   W03
        BYTE                   65
        BYTE   W06
        BYTE                   64
        BYTE   W03
        BYTE                   63
        BYTE   W03
        BYTE                   62
        BYTE   W03
        BYTE                   61
        BYTE   W03
        BYTE                   60
        BYTE   W03
        BYTE                   59
        BYTE   W03
        BYTE                   58
        BYTE   W03
        BYTE                   57
        BYTE   W03
        BYTE                   56
        BYTE   W01
        BYTE                   51
        BYTE   W01
        BYTE                   49
        BYTE   W01
        BYTE                   46
        BYTE   W01
        BYTE                   42
        BYTE   W01
        BYTE                   39
        BYTE   W01
// 017   ----------------------------------------
        BYTE                   37
        BYTE   W01
        BYTE                   32
        BYTE   W01
        BYTE                   30
        BYTE   W01
        BYTE                   28
        BYTE   W01
        BYTE                   23
        BYTE   W01
        BYTE                   20
        BYTE   W01
        BYTE                   18
        BYTE   W01
        BYTE                   13
        BYTE   W01
        BYTE                   11
        BYTE   W01
        BYTE           EOT
        BYTE           VOL     9
        BYTE   W01
        BYTE                   4
        BYTE   W01
        BYTE                   2
        BYTE   W01
        BYTE                   0
        BYTE   W09
        BYTE                   8
        BYTE   W01
        BYTE                   16
        BYTE   W01
        BYTE                   24
        BYTE   W01
        BYTE           N23     Fn3   v118
        BYTE           VOL     38
        BYTE   W02
        BYTE                   39
        BYTE   W01
        BYTE                   42
        BYTE   W02
        BYTE                   43
        BYTE   W01
        BYTE                   46
        BYTE   W02
        BYTE                   47
        BYTE   W01
        BYTE                   50
        BYTE   W02
        BYTE                   51
        BYTE   W01
        BYTE                   54
        BYTE   W02
        BYTE                   55
        BYTE   W01
        BYTE                   57
        BYTE   W02
        BYTE                   59
        BYTE   W01
        BYTE                   61
        BYTE   W02
        BYTE                   63
        BYTE   W01
        BYTE                   65
        BYTE   W02
        BYTE                   67
        BYTE   W01
        BYTE                   69
        BYTE           N23     Cn3
        BYTE   W01
        BYTE           VOL     68
        BYTE   W02
        BYTE                   66
        BYTE   W01
        BYTE                   65
        BYTE   W02
        BYTE                   64
        BYTE   W01
        BYTE                   62
        BYTE   W02
        BYTE                   61
        BYTE   W01
        BYTE                   59
        BYTE   W02
        BYTE                   58
        BYTE   W01
        BYTE                   57
        BYTE   W02
        BYTE                   55
        BYTE   W01
        BYTE                   54
        BYTE   W02
        BYTE                   53
        BYTE   W01
        BYTE                   51
        BYTE   W01
        BYTE                   52
        BYTE   W02
        BYTE                   54
        BYTE   W01
        BYTE                   55
        BYTE   W01
        BYTE           N23     An3
        BYTE   W01
        BYTE           VOL     57
        BYTE   W01
        BYTE                   58
        BYTE   W02
        BYTE                   60
        BYTE   W01
        BYTE                   61
        BYTE   W02
        BYTE                   63
        BYTE   W01
        BYTE                   65
        BYTE   W02
        BYTE                   66
        BYTE   W01
        BYTE                   67
        BYTE   W02
        BYTE                   69
        BYTE   W01
        BYTE                   70
        BYTE   W02
        BYTE                   72
        BYTE   W01
        BYTE                   73
        BYTE   W02
        BYTE                   75
        BYTE   W01
        BYTE                   76
        BYTE   W02
        BYTE                   78
        BYTE   W02
// 018   ----------------------------------------
        BYTE           TIE     Gn3   v097
        BYTE   W01
        BYTE           VOL     76
        BYTE   W03
        BYTE                   75
        BYTE   W03
        BYTE                   73
        BYTE   W03
        BYTE                   72
        BYTE   W03
        BYTE                   70
        BYTE   W03
        BYTE                   69
        BYTE   W03
        BYTE                   66
        BYTE   W03
        BYTE                   65
        BYTE   W03
        BYTE                   63
        BYTE   W02
        BYTE                   61
        BYTE   W11
        BYTE                   60
        BYTE   W04
        BYTE                   59
        BYTE   W04
        BYTE                   58
        BYTE   W04
        BYTE                   57
        BYTE   W08
        BYTE                   56
        BYTE   W03
        BYTE                   55
        BYTE   W04
        BYTE                   54
        BYTE   W08
        BYTE                   53
        BYTE   W04
        BYTE                   52
        BYTE   W04
        BYTE                   51
        BYTE   W04
        BYTE                   50
        BYTE   W07
        BYTE                   48
        BYTE   W01
        BYTE                   46
        BYTE   W01
        BYTE                   43
        BYTE   W01
        BYTE                   39
        BYTE   W01
// 019   ----------------------------------------
        BYTE                   36
        BYTE   W01
        BYTE                   33
        BYTE   W01
        BYTE                   28
        BYTE   W01
        BYTE                   26
        BYTE   W01
        BYTE                   24
        BYTE   W01
        BYTE                   18
        BYTE   W01
        BYTE                   16
        BYTE   W01
        BYTE                   13
        BYTE   W01
        BYTE                   9
        BYTE   W01
        BYTE           EOT
        BYTE           VOL     6
        BYTE   W01
        BYTE                   3
        BYTE   W01
        BYTE                   0
        BYTE   W12
        BYTE                   7
        BYTE   W01
        BYTE           N23     Fn3   v118
        BYTE           VOL     14
        BYTE   W01
        BYTE                   21
        BYTE   W01
        BYTE                   35
        BYTE   W01
        BYTE                   38
        BYTE   W01
        BYTE                   39
        BYTE   W02
        BYTE                   41
        BYTE   W01
        BYTE                   43
        BYTE   W02
        BYTE                   45
        BYTE   W01
        BYTE                   46
        BYTE   W02
        BYTE                   48
        BYTE   W01
        BYTE                   50
        BYTE   W02
        BYTE                   52
        BYTE   W01
        BYTE                   54
        BYTE   W02
        BYTE                   55
        BYTE   W01
        BYTE                   57
        BYTE   W02
        BYTE                   59
        BYTE   W01
        BYTE                   61
        BYTE   W02
        BYTE                   62
        BYTE           N23     Cn3
        BYTE   W01
        BYTE           VOL     64
        BYTE   W01
        BYTE                   65
        BYTE   W06
        BYTE                   63
        BYTE   W03
        BYTE                   62
        BYTE   W03
        BYTE                   61
        BYTE   W03
        BYTE                   59
        BYTE   W03
        BYTE                   58
        BYTE   W02
        BYTE                   57
        BYTE   W02
        BYTE           N23     An3
        BYTE   W01
        BYTE           VOL     59
        BYTE   W01
        BYTE                   60
        BYTE   W02
        BYTE                   61
        BYTE   W01
        BYTE                   62
        BYTE   W02
        BYTE                   64
        BYTE   W01
        BYTE                   65
        BYTE   W02
        BYTE                   66
        BYTE   W01
        BYTE                   68
        BYTE   W02
        BYTE                   69
        BYTE   W01
        BYTE                   70
        BYTE   W02
        BYTE                   72
        BYTE   W03
        BYTE                   74
        BYTE   W01
        BYTE                   75
        BYTE   W02
        BYTE                   76
        BYTE   W01
        BYTE                   78
        BYTE   W01
// 020   ----------------------------------------
        BYTE           TIE     Bn3   v100
        BYTE           VOL     79
        BYTE   W03
        BYTE                   78
        BYTE   W03
        BYTE                   76
        BYTE   W06
        BYTE                   74
        BYTE   W03
        BYTE                   72
        BYTE   W06
        BYTE                   70
        BYTE   W03
        BYTE                   69
        BYTE   W03
        BYTE                   68
        BYTE   W03
        BYTE                   66
        BYTE   W03
        BYTE                   65
        BYTE   W03
        BYTE                   64
        BYTE   W03
        BYTE                   62
        BYTE   W03
        BYTE                   61
        BYTE   W03
        BYTE                   60
        BYTE   W01
        BYTE                   59
        BYTE   W04
        BYTE                   58
        BYTE   W03
        BYTE                   57
        BYTE   W07
        BYTE                   56
        BYTE   W03
        BYTE                   55
        BYTE   W04
        BYTE                   54
        BYTE   W07
        BYTE                   53
        BYTE   W03
        BYTE                   52
        BYTE   W03
        BYTE                   51
        BYTE   W04
        BYTE                   50
        BYTE   W07
        BYTE                   49
        BYTE   W03
        BYTE                   48
        BYTE   W02
// 021   ----------------------------------------
        BYTE   W01
        BYTE                   47
        BYTE   W04
        BYTE                   46
        BYTE   W07
        BYTE                   45
        BYTE   W03
        BYTE                   44
        BYTE   W03
        BYTE                   43
        BYTE   W07
        BYTE                   42
        BYTE   W04
        BYTE                   41
        BYTE   W03
        BYTE                   40
        BYTE   W03
        BYTE                   39
        BYTE   W03
        BYTE                   38
        BYTE   W03
        BYTE                   36
        BYTE   W03
        BYTE                   34
        BYTE   W03
        BYTE                   32
        BYTE   W03
        BYTE                   30
        BYTE   W03
        BYTE                   28
        BYTE   W03
        BYTE                   27
        BYTE   W03
        BYTE                   24
        BYTE   W03
        BYTE                   23
        BYTE   W03
        BYTE                   20
        BYTE   W03
        BYTE                   19
        BYTE   W03
        BYTE                   17
        BYTE   W03
        BYTE                   15
        BYTE   W03
        BYTE                   13
        BYTE   W03
        BYTE                   11
        BYTE   W03
        BYTE                   9
        BYTE   W03
        BYTE                   7
        BYTE   W03
        BYTE                   6
        BYTE   W03
        BYTE                   4
        BYTE   W03
        BYTE                   2
        BYTE   W01
// 022   ----------------------------------------
        BYTE   W01
        BYTE                   0
        BYTE   W02
        BYTE           EOT
        BYTE   W92
        BYTE   W01
// 023   ----------------------------------------
        BYTE   W03
        BYTE   FINE

//****************** Track 6 (Midi-Chn.6) ******************//

MomentofSerenity_6:
        BYTE   KEYSH   MomentofSerenity_key+0
// 000   ----------------------------------------
        BYTE           VOICE   40
        BYTE           VOL     42
        BYTE           PAN     c_v-34
        BYTE   W96
// 001   ----------------------------------------
        BYTE   W96
// 002   ----------------------------------------
        BYTE   W96
// 003   ----------------------------------------
        BYTE   W96
// 004   ----------------------------------------
        BYTE   W96
// 005   ----------------------------------------
        BYTE   W96
// 006   ----------------------------------------
        BYTE   W96
// 007   ----------------------------------------
        BYTE   W96
// 008   ----------------------------------------
        BYTE   W96
// 009   ----------------------------------------
        BYTE   W96
// 010   ----------------------------------------
        BYTE   W96
// 011   ----------------------------------------
        BYTE   W54
        BYTE           VOL     22
        BYTE   W03
        BYTE                   21
        BYTE   W03
        BYTE                   20
        BYTE   W01
        BYTE                   19
        BYTE   W02
        BYTE                   18
        BYTE   W03
        BYTE                   17
        BYTE   W01
        BYTE                   16
        BYTE   W02
        BYTE                   15
        BYTE   W03
        BYTE                   14
        BYTE   W01
        BYTE                   13
        BYTE   W01
        BYTE                   12
        BYTE   W02
        BYTE                   13
        BYTE   W01
        BYTE                   14
        BYTE   W01
        BYTE           N23     Dn3   v101
        BYTE   W01
        BYTE           VOL     15
        BYTE   W01
        BYTE                   16
        BYTE   W03
        BYTE                   17
        BYTE   W02
        BYTE                   18
        BYTE   W01
        BYTE                   19
        BYTE   W02
        BYTE                   20
        BYTE   W01
        BYTE                   21
        BYTE   W03
        BYTE                   22
        BYTE   W02
        BYTE                   23
        BYTE   W01
        BYTE                   24
        BYTE   W01
// 012   ----------------------------------------
        BYTE   W01
        BYTE                   25
        BYTE   W01
        BYTE                   26
        BYTE   W02
        BYTE                   27
        BYTE   W02
        BYTE           TIE     Fn3   v118
        BYTE   W08
        BYTE           VOL     26
        BYTE   W06
        BYTE                   25
        BYTE   W09
        BYTE                   24
        BYTE   W06
        BYTE                   23
        BYTE   W06
        BYTE                   22
        BYTE   W09
        BYTE                   21
        BYTE   W15
        BYTE                   22
        BYTE   W12
        BYTE                   23
        BYTE   W13
        BYTE                   24
        BYTE   W06
// 013   ----------------------------------------
        BYTE   W06
        BYTE                   25
        BYTE   W01
        BYTE                   21
        BYTE   W01
        BYTE                   20
        BYTE   W01
        BYTE                   18
        BYTE   W01
        BYTE                   14
        BYTE   W01
        BYTE                   12
        BYTE   W01
        BYTE                   10
        BYTE   W01
        BYTE                   7
        BYTE   W01
        BYTE                   5
        BYTE   W01
        BYTE           EOT
        BYTE           VOL     3
        BYTE   W01
        BYTE                   0
        BYTE   W08
        BYTE                   2
        BYTE   W01
        BYTE                   7
        BYTE   W01
        BYTE                   10
        BYTE   W01
        BYTE                   12
        BYTE   W01
        BYTE                   17
        BYTE   W02
        BYTE                   18
        BYTE           N23     Ds3
        BYTE   W03
        BYTE           VOL     19
        BYTE   W01
        BYTE                   20
        BYTE   W02
        BYTE                   21
        BYTE   W03
        BYTE                   22
        BYTE   W01
        BYTE                   23
        BYTE   W03
        BYTE                   24
        BYTE   W02
        BYTE                   25
        BYTE   W01
        BYTE                   26
        BYTE   W03
        BYTE                   27
        BYTE   W02
        BYTE                   28
        BYTE   W01
        BYTE                   29
        BYTE   W02
        BYTE           N23     Fn3
        BYTE   W02
        BYTE           VOL     28
        BYTE   W02
        BYTE                   27
        BYTE   W01
        BYTE                   26
        BYTE   W02
        BYTE                   25
        BYTE   W01
        BYTE                   24
        BYTE   W02
        BYTE                   23
        BYTE   W01
        BYTE                   22
        BYTE   W01
        BYTE                   21
        BYTE   W02
        BYTE                   22
        BYTE   W03
        BYTE                   23
        BYTE   W03
        BYTE                   24
        BYTE   W03
        BYTE                   25
        BYTE   W01
        BYTE           N23     Ds3
        BYTE   W02
        BYTE           VOL     26
        BYTE   W03
        BYTE                   27
        BYTE   W03
        BYTE                   28
        BYTE   W03
        BYTE                   29
        BYTE   W03
        BYTE                   30
        BYTE   W03
        BYTE                   31
        BYTE   W01
// 014   ----------------------------------------
        BYTE                   32
        BYTE   W03
        BYTE                   33
        BYTE   W03
        BYTE                   34
        BYTE           TIE     Fn3   v100
        BYTE   W03
        BYTE           VOL     33
        BYTE   W06
        BYTE                   32
        BYTE   W03
        BYTE                   31
        BYTE   W06
        BYTE                   30
        BYTE   W06
        BYTE                   29
        BYTE   W02
        BYTE                   28
        BYTE   W14
        BYTE                   27
        BYTE   W10
        BYTE                   26
        BYTE   W10
        BYTE                   25
        BYTE   W10
        BYTE                   24
        BYTE   W11
        BYTE                   23
        BYTE   W09
// 015   ----------------------------------------
        BYTE   W01
        BYTE                   22
        BYTE   W10
        BYTE                   21
        BYTE   W06
        BYTE                   20
        BYTE   W06
        BYTE                   19
        BYTE   W03
        BYTE                   18
        BYTE   W06
        BYTE                   17
        BYTE   W02
        BYTE                   16
        BYTE   W02
        BYTE                   15
        BYTE   W01
        BYTE                   14
        BYTE   W02
        BYTE                   13
        BYTE   W01
        BYTE                   11
        BYTE   W02
        BYTE                   10
        BYTE   W01
        BYTE                   9
        BYTE   W02
        BYTE                   7
        BYTE   W01
        BYTE                   6
        BYTE   W02
        BYTE                   5
        BYTE   W01
        BYTE                   3
        BYTE   W02
        BYTE                   2
        BYTE   W01
        BYTE                   1
        BYTE   W01
        BYTE           EOT
        BYTE           VOL     0
        BYTE   W19
        BYTE                   1
        BYTE   W01
        BYTE                   3
        BYTE   W01
        BYTE                   4
        BYTE   W01
        BYTE                   7
        BYTE   W01
        BYTE                   8
        BYTE   W01
        BYTE                   10
        BYTE   W01
        BYTE           N23     Fn3   v118
        BYTE           VOL     13
        BYTE   W03
        BYTE                   14
        BYTE   W02
        BYTE                   15
        BYTE   W01
        BYTE                   16
        BYTE   W02
        BYTE                   17
        BYTE   W01
        BYTE                   18
        BYTE   W03
        BYTE                   19
        BYTE   W02
        BYTE                   20
        BYTE   W01
        BYTE                   21
        BYTE   W03
// 016   ----------------------------------------
        BYTE                   22
        BYTE   W02
        BYTE                   23
        BYTE   W01
        BYTE                   24
        BYTE   W02
        BYTE                   25
        BYTE   W01
        BYTE           TIE     Gn3   v107
        BYTE   W05
        BYTE           VOL     26
        BYTE   W03
        BYTE                   27
        BYTE   W06
        BYTE                   28
        BYTE   W03
        BYTE                   29
        BYTE   W06
        BYTE                   30
        BYTE   W06
        BYTE                   31
        BYTE   W10
        BYTE                   30
        BYTE   W06
        BYTE                   29
        BYTE   W09
        BYTE                   28
        BYTE   W06
        BYTE                   27
        BYTE   W09
        BYTE                   26
        BYTE   W06
        BYTE                   25
        BYTE   W09
        BYTE                   24
        BYTE   W06
// 017   ----------------------------------------
        BYTE                   23
        BYTE   W01
        BYTE                   21
        BYTE   W02
        BYTE                   20
        BYTE   W01
        BYTE                   18
        BYTE   W01
        BYTE                   17
        BYTE   W01
        BYTE                   16
        BYTE   W01
        BYTE                   14
        BYTE   W01
        BYTE                   13
        BYTE   W01
        BYTE                   12
        BYTE   W01
        BYTE                   10
        BYTE   W01
        BYTE                   9
        BYTE   W01
        BYTE                   8
        BYTE   W01
        BYTE                   6
        BYTE   W01
        BYTE                   5
        BYTE   W01
        BYTE           EOT
        BYTE           VOL     4
        BYTE   W01
        BYTE                   2
        BYTE   W01
        BYTE                   1
        BYTE   W01
        BYTE                   0
        BYTE   W09
        BYTE                   3
        BYTE   W01
        BYTE                   7
        BYTE   W01
        BYTE                   10
        BYTE   W01
        BYTE           N23     Fn3   v118
        BYTE           VOL     16
        BYTE   W02
        BYTE                   17
        BYTE   W01
        BYTE                   18
        BYTE   W03
        BYTE                   19
        BYTE   W02
        BYTE                   20
        BYTE   W01
        BYTE                   21
        BYTE   W03
        BYTE                   22
        BYTE   W02
        BYTE                   23
        BYTE   W01
        BYTE                   24
        BYTE   W02
        BYTE                   25
        BYTE   W01
        BYTE                   26
        BYTE   W03
        BYTE                   27
        BYTE   W02
        BYTE                   28
        BYTE   W01
        BYTE                   29
        BYTE           N23     Cn3
        BYTE   W01
        BYTE           VOL     28
        BYTE   W03
        BYTE                   27
        BYTE   W03
        BYTE                   26
        BYTE   W02
        BYTE                   25
        BYTE   W03
        BYTE                   24
        BYTE   W03
        BYTE                   23
        BYTE   W03
        BYTE                   22
        BYTE   W01
        BYTE                   21
        BYTE   W01
        BYTE                   22
        BYTE   W03
        BYTE                   23
        BYTE   W01
        BYTE           N23     An3
        BYTE   W01
        BYTE           VOL     24
        BYTE   W03
        BYTE                   25
        BYTE   W01
        BYTE                   26
        BYTE   W03
        BYTE                   27
        BYTE   W02
        BYTE                   28
        BYTE   W03
        BYTE                   29
        BYTE   W03
        BYTE                   30
        BYTE   W01
        BYTE                   31
        BYTE   W01
// 018   ----------------------------------------
        BYTE   W02
        BYTE                   32
        BYTE   W02
        BYTE                   33
        BYTE   W02
        BYTE           TIE     Gn3   v097
        BYTE   W01
        BYTE           VOL     32
        BYTE   W03
        BYTE                   31
        BYTE   W06
        BYTE                   30
        BYTE   W03
        BYTE                   29
        BYTE   W06
        BYTE                   28
        BYTE   W03
        BYTE                   27
        BYTE   W03
        BYTE                   26
        BYTE   W09
        BYTE                   25
        BYTE   W12
        BYTE                   24
        BYTE   W12
        BYTE                   23
        BYTE   W11
        BYTE                   22
        BYTE   W12
        BYTE                   21
        BYTE   W09
// 019   ----------------------------------------
        BYTE   W02
        BYTE                   20
        BYTE   W01
        BYTE                   19
        BYTE   W01
        BYTE                   18
        BYTE   W01
        BYTE                   16
        BYTE   W01
        BYTE                   15
        BYTE   W01
        BYTE                   14
        BYTE   W01
        BYTE                   12
        BYTE   W01
        BYTE                   11
        BYTE   W01
        BYTE                   10
        BYTE   W01
        BYTE                   8
        BYTE   W01
        BYTE                   7
        BYTE   W01
        BYTE                   6
        BYTE   W01
        BYTE                   4
        BYTE   W01
        BYTE           EOT
        BYTE           VOL     2
        BYTE   W01
        BYTE                   1
        BYTE   W01
        BYTE                   0
        BYTE   W12
        BYTE                   3
        BYTE   W01
        BYTE           N23     Fn3   v118
        BYTE           VOL     6
        BYTE   W01
        BYTE                   9
        BYTE   W01
        BYTE                   15
        BYTE   W01
        BYTE                   16
        BYTE   W01
        BYTE                   17
        BYTE   W03
        BYTE                   18
        BYTE   W02
        BYTE                   19
        BYTE   W01
        BYTE                   20
        BYTE   W03
        BYTE                   21
        BYTE   W02
        BYTE                   22
        BYTE   W03
        BYTE                   23
        BYTE   W01
        BYTE                   24
        BYTE   W02
        BYTE                   25
        BYTE   W03
        BYTE                   26
        BYTE           N23     Cn3
        BYTE   W01
        BYTE           VOL     27
        BYTE   W07
        BYTE                   26
        BYTE   W06
        BYTE                   25
        BYTE   W06
        BYTE                   24
        BYTE   W04
        BYTE           N23     An3
        BYTE   W01
        BYTE           VOL     25
        BYTE   W03
        BYTE                   26
        BYTE   W03
        BYTE                   27
        BYTE   W03
        BYTE                   28
        BYTE   W03
        BYTE                   29
        BYTE   W03
        BYTE                   30
        BYTE   W02
// 020   ----------------------------------------
        BYTE   W01
        BYTE                   31
        BYTE   W03
        BYTE                   32
        BYTE   W01
        BYTE                   33
        BYTE   W01
        BYTE           TIE     Bn3   v100
        BYTE   W06
        BYTE           VOL     32
        BYTE   W06
        BYTE                   31
        BYTE   W03
        BYTE                   30
        BYTE   W06
        BYTE                   29
        BYTE   W06
        BYTE                   28
        BYTE   W06
        BYTE                   27
        BYTE   W06
        BYTE                   26
        BYTE   W06
        BYTE                   25
        BYTE   W05
        BYTE                   24
        BYTE   W10
        BYTE                   23
        BYTE   W10
        BYTE                   22
        BYTE   W10
        BYTE                   21
        BYTE   W10
// 021   ----------------------------------------
        BYTE   W04
        BYTE                   20
        BYTE   W10
        BYTE                   19
        BYTE   W10
        BYTE                   18
        BYTE   W11
        BYTE                   17
        BYTE   W09
        BYTE                   16
        BYTE   W03
        BYTE                   15
        BYTE   W03
        BYTE                   14
        BYTE   W06
        BYTE                   13
        BYTE   W03
        BYTE                   12
        BYTE   W03
        BYTE                   11
        BYTE   W03
        BYTE                   10
        BYTE   W06
        BYTE                   9
        BYTE   W03
        BYTE                   8
        BYTE   W03
        BYTE                   7
        BYTE   W03
        BYTE                   6
        BYTE   W06
        BYTE                   5
        BYTE   W03
        BYTE                   4
        BYTE   W03
        BYTE                   3
        BYTE   W03
        BYTE                   2
        BYTE   W01
// 022   ----------------------------------------
        BYTE   W05
        BYTE                   1
        BYTE   W02
        BYTE                   0
        BYTE   W02
        BYTE           EOT
        BYTE   W84
        BYTE   W03
// 023   ----------------------------------------
        BYTE   W03
        BYTE   FINE

//****************** Track 7 (Midi-Chn.7) ******************//

MomentofSerenity_7:
        BYTE   KEYSH   MomentofSerenity_key+0
// 000   ----------------------------------------
        BYTE           VOICE   48
        BYTE           VOL     127
        BYTE           PAN     c_v+15
        BYTE   W07
        BYTE           VOL     0
        BYTE   W17
        BYTE           TIE     Dn5   v127
        BYTE   W24
        BYTE   W01
        BYTE           VOL     1
        BYTE   W03
        BYTE                   2
        BYTE   W03
        BYTE                   3
        BYTE   W03
        BYTE                   4
        BYTE   W03
        BYTE                   5
        BYTE   W03
        BYTE                   6
        BYTE   W03
        BYTE                   7
        BYTE   W03
        BYTE                   8
        BYTE   W03
        BYTE                   9
        BYTE   W03
        BYTE                   10
        BYTE   W03
        BYTE                   11
        BYTE   W03
        BYTE                   12
        BYTE   W03
        BYTE                   13
        BYTE   W03
        BYTE                   14
        BYTE   W03
        BYTE                   15
        BYTE   W03
        BYTE                   16
        BYTE   W02
// 001   ----------------------------------------
MomentofSerenity_7_1:
        BYTE           VOL     17
        BYTE   W08
        BYTE                   18
        BYTE   W08
        BYTE                   19
        BYTE   W09
        BYTE                   20
        BYTE   W08
        BYTE                   21
        BYTE   W09
        BYTE                   22
        BYTE   W08
        BYTE                   23
        BYTE   W08
        BYTE                   24
        BYTE   W09
        BYTE                   25
        BYTE   W08
        BYTE                   26
        BYTE   W09
        BYTE                   27
        BYTE   W12
        BYTE   PEND
// 002   ----------------------------------------
MomentofSerenity_7_2:
        BYTE   W14
        BYTE           VOL     26
        BYTE   W14
        BYTE                   25
        BYTE   W13
        BYTE                   24
        BYTE   W14
        BYTE                   23
        BYTE   W13
        BYTE                   22
        BYTE   W14
        BYTE                   20
        BYTE   W10
        BYTE                   19
        BYTE   W04
        BYTE   PEND
// 003   ----------------------------------------
MomentofSerenity_7_3:
        BYTE   W01
        BYTE           VOL     18
        BYTE   W05
        BYTE                   17
        BYTE   W05
        BYTE                   16
        BYTE   W05
        BYTE                   15
        BYTE   W05
        BYTE                   14
        BYTE   W05
        BYTE                   13
        BYTE   W05
        BYTE                   12
        BYTE   W05
        BYTE                   11
        BYTE   W05
        BYTE                   10
        BYTE   W05
        BYTE                   9
        BYTE   W05
        BYTE                   8
        BYTE   W05
        BYTE                   7
        BYTE   W05
        BYTE                   6
        BYTE   W05
        BYTE                   5
        BYTE   W05
        BYTE                   4
        BYTE   W05
        BYTE                   3
        BYTE   W05
        BYTE                   2
        BYTE   W05
        BYTE                   0
        BYTE   W05
        BYTE           EOT     Dn5
        BYTE   W05
        BYTE   PEND
// 004   ----------------------------------------
        BYTE   W96
// 005   ----------------------------------------
        BYTE   W24
        BYTE           TIE     Dn5   v127
        BYTE   W24
        BYTE   W01
        BYTE           VOL     1
        BYTE   W03
        BYTE                   2
        BYTE   W03
        BYTE                   3
        BYTE   W03
        BYTE                   4
        BYTE   W03
        BYTE                   5
        BYTE   W03
        BYTE                   6
        BYTE   W03
        BYTE                   7
        BYTE   W03
        BYTE                   8
        BYTE   W03
        BYTE                   9
        BYTE   W03
        BYTE                   10
        BYTE   W03
        BYTE                   11
        BYTE   W03
        BYTE                   12
        BYTE   W03
        BYTE                   13
        BYTE   W03
        BYTE                   14
        BYTE   W03
        BYTE                   15
        BYTE   W03
        BYTE                   16
        BYTE   W02
// 006   ----------------------------------------
        BYTE   PATT
         POIN2  MomentofSerenity_7_1
// 007   ----------------------------------------
        BYTE   PATT
         POIN2  MomentofSerenity_7_2
// 008   ----------------------------------------
        BYTE   PATT
         POIN2  MomentofSerenity_7_3
// 009   ----------------------------------------
        BYTE   W96
// 010   ----------------------------------------
        BYTE   W96
// 011   ----------------------------------------
        BYTE   W96
// 012   ----------------------------------------
        BYTE   W06
        BYTE           VOL     2
        BYTE   W03
        BYTE                   5
        BYTE   W03
        BYTE                   8
        BYTE           TIE     As3   v095
        BYTE   W03
        BYTE           VOL     11
        BYTE   W03
        BYTE                   14
        BYTE   W03
        BYTE                   17
        BYTE   W03
        BYTE                   19
        BYTE   W03
        BYTE                   22
        BYTE   W03
        BYTE                   25
        BYTE   W03
        BYTE                   28
        BYTE   W03
        BYTE                   31
        BYTE   W03
        BYTE                   34
        BYTE   W03
        BYTE                   36
        BYTE   W03
        BYTE                   39
        BYTE   W03
        BYTE                   42
        BYTE   W03
        BYTE                   45
        BYTE   W03
        BYTE                   48
        BYTE   W03
        BYTE                   51
        BYTE   W03
        BYTE                   53
        BYTE   W03
        BYTE                   56
        BYTE   W03
        BYTE                   59
        BYTE   W03
        BYTE                   62
        BYTE   W03
        BYTE                   65
        BYTE   W03
        BYTE                   68
        BYTE   W03
        BYTE                   70
        BYTE   W03
        BYTE                   73
        BYTE   W03
        BYTE                   76
        BYTE   W03
        BYTE                   79
        BYTE   W03
        BYTE                   82
        BYTE   W03
        BYTE                   85
        BYTE   W03
// 013   ----------------------------------------
        BYTE                   88
        BYTE   W03
        BYTE                   87
        BYTE   W03
        BYTE                   86
        BYTE   W03
        BYTE                   85
        BYTE   W03
        BYTE                   84
        BYTE   W03
        BYTE                   83
        BYTE   W03
        BYTE                   82
        BYTE   W03
        BYTE                   81
        BYTE   W03
        BYTE                   80
        BYTE   W03
        BYTE                   79
        BYTE   W03
        BYTE                   78
        BYTE   W03
        BYTE                   77
        BYTE   W03
        BYTE                   76
        BYTE   W03
        BYTE                   75
        BYTE   W03
        BYTE                   74
        BYTE   W03
        BYTE                   73
        BYTE   W02
        BYTE           EOT
        BYTE   W01
        BYTE           VOL     71
        BYTE           N44     Gs3   v095   gtp3
        BYTE   W03
        BYTE           VOL     70
        BYTE   W03
        BYTE                   69
        BYTE   W03
        BYTE                   68
        BYTE   W03
        BYTE                   67
        BYTE   W03
        BYTE                   66
        BYTE   W03
        BYTE                   65
        BYTE   W03
        BYTE                   64
        BYTE   W03
        BYTE                   63
        BYTE   W03
        BYTE                   62
        BYTE   W01
        BYTE                   61
        BYTE   W02
        BYTE                   59
        BYTE   W01
        BYTE                   57
        BYTE   W02
        BYTE                   54
        BYTE   W01
        BYTE                   52
        BYTE   W02
        BYTE                   50
        BYTE   W01
        BYTE                   47
        BYTE   W02
        BYTE                   45
        BYTE   W01
        BYTE                   43
        BYTE   W02
        BYTE                   40
        BYTE   W01
        BYTE                   38
        BYTE   W02
        BYTE                   36
        BYTE   W01
        BYTE                   33
        BYTE   W02
// 014   ----------------------------------------
        BYTE                   31
        BYTE   W01
        BYTE                   29
        BYTE   W02
        BYTE                   26
        BYTE   W01
        BYTE                   24
        BYTE   W02
        BYTE                   21
        BYTE   W01
        BYTE                   19
        BYTE   W02
        BYTE                   17
        BYTE   W01
        BYTE                   14
        BYTE   W01
        BYTE                   13
        BYTE   W01
        BYTE           TIE     As3
        BYTE   W02
        BYTE           VOL     15
        BYTE   W03
        BYTE                   18
        BYTE   W03
        BYTE                   21
        BYTE   W03
        BYTE                   23
        BYTE   W03
        BYTE                   26
        BYTE   W03
        BYTE                   29
        BYTE   W03
        BYTE                   32
        BYTE   W03
        BYTE                   34
        BYTE   W03
        BYTE                   37
        BYTE   W03
        BYTE                   40
        BYTE   W03
        BYTE                   43
        BYTE   W03
        BYTE                   45
        BYTE   W03
        BYTE                   48
        BYTE   W03
        BYTE                   51
        BYTE   W03
        BYTE                   53
        BYTE   W03
        BYTE                   56
        BYTE   W03
        BYTE                   59
        BYTE   W03
        BYTE                   62
        BYTE   W03
        BYTE                   64
        BYTE   W03
        BYTE                   67
        BYTE   W03
        BYTE                   70
        BYTE   W03
        BYTE                   73
        BYTE   W03
        BYTE                   75
        BYTE   W03
        BYTE                   78
        BYTE   W03
        BYTE                   81
        BYTE   W03
        BYTE                   83
        BYTE   W03
        BYTE                   86
        BYTE   W03
        BYTE                   89
        BYTE   W01
// 015   ----------------------------------------
        BYTE   W01
        BYTE                   91
        BYTE   W03
        BYTE                   90
        BYTE   W03
        BYTE                   89
        BYTE   W03
        BYTE                   88
        BYTE   W03
        BYTE                   87
        BYTE   W03
        BYTE                   86
        BYTE   W03
        BYTE                   84
        BYTE   W03
        BYTE                   83
        BYTE   W03
        BYTE                   82
        BYTE   W03
        BYTE                   81
        BYTE   W03
        BYTE                   80
        BYTE   W03
        BYTE                   79
        BYTE   W03
        BYTE                   77
        BYTE   W03
        BYTE                   76
        BYTE   W03
        BYTE                   75
        BYTE   W03
        BYTE                   74
        BYTE   W01
        BYTE           EOT
        BYTE   W01
        BYTE           N44     Gs3   v095   gtp3
        BYTE   W01
        BYTE           VOL     73
        BYTE   W03
        BYTE                   72
        BYTE   W03
        BYTE                   70
        BYTE   W03
        BYTE                   69
        BYTE   W03
        BYTE                   68
        BYTE   W03
        BYTE                   67
        BYTE   W03
        BYTE                   66
        BYTE   W03
        BYTE                   65
        BYTE   W03
        BYTE                   63
        BYTE   W10
        BYTE                   62
        BYTE   W11
        BYTE                   61
        BYTE   W02
// 016   ----------------------------------------
        BYTE                   62
        BYTE           N44     En3   v095   gtp3
        BYTE   W01
        BYTE           VOL     64
        BYTE   W02
        BYTE                   66
        BYTE   W01
        BYTE                   67
        BYTE   W02
        BYTE                   69
        BYTE   W01
        BYTE                   71
        BYTE   W02
        BYTE                   73
        BYTE   W01
        BYTE                   74
        BYTE   W02
        BYTE                   76
        BYTE   W01
        BYTE                   78
        BYTE   W02
        BYTE                   79
        BYTE   W01
        BYTE                   81
        BYTE   W01
        BYTE                   83
        BYTE   W03
        BYTE                   82
        BYTE   W03
        BYTE                   80
        BYTE   W03
        BYTE                   78
        BYTE   W03
        BYTE                   76
        BYTE   W03
        BYTE                   75
        BYTE   W03
        BYTE                   73
        BYTE   W03
        BYTE                   71
        BYTE   W03
        BYTE                   69
        BYTE   W03
        BYTE                   68
        BYTE   W03
        BYTE                   66
        BYTE   W01
        BYTE           N44     Gn3   v095   gtp3
        BYTE   W02
        BYTE           VOL     64
        BYTE   W03
        BYTE                   62
        BYTE   W03
        BYTE                   61
        BYTE   W03
        BYTE                   59
        BYTE   W03
        BYTE                   57
        BYTE   W20
        BYTE                   56
        BYTE   W10
        BYTE                   54
        BYTE   W03
        BYTE                   55
        BYTE   W01
// 017   ----------------------------------------
        BYTE           N44     Fn3   v095   gtp3
        BYTE   W02
        BYTE           VOL     56
        BYTE   W03
        BYTE                   57
        BYTE   W03
        BYTE                   59
        BYTE   W03
        BYTE                   60
        BYTE   W03
        BYTE                   61
        BYTE   W03
        BYTE                   62
        BYTE   W03
        BYTE                   64
        BYTE   W03
        BYTE                   65
        BYTE   W03
        BYTE                   66
        BYTE   W03
        BYTE                   67
        BYTE   W03
        BYTE                   69
        BYTE   W03
        BYTE                   70
        BYTE   W03
        BYTE                   71
        BYTE   W03
        BYTE                   72
        BYTE   W03
        BYTE                   74
        BYTE   W03
        BYTE                   75
        BYTE   W01
        BYTE           N44     An3   v095   gtp3
        BYTE   W02
        BYTE           VOL     76
        BYTE   W03
        BYTE                   78
        BYTE   W03
        BYTE                   79
        BYTE   W03
        BYTE                   80
        BYTE   W03
        BYTE                   81
        BYTE   W02
        BYTE                   83
        BYTE   W02
        BYTE                   82
        BYTE   W01
        BYTE                   80
        BYTE   W02
        BYTE                   79
        BYTE   W01
        BYTE                   77
        BYTE   W02
        BYTE                   76
        BYTE   W01
        BYTE                   74
        BYTE   W02
        BYTE                   73
        BYTE   W01
        BYTE                   71
        BYTE   W02
        BYTE                   70
        BYTE   W01
        BYTE                   68
        BYTE   W02
        BYTE                   67
        BYTE   W01
        BYTE                   65
        BYTE   W02
        BYTE                   63
        BYTE   W01
        BYTE                   62
        BYTE   W02
        BYTE                   60
        BYTE   W09
// 018   ----------------------------------------
        BYTE           N44     Gn3   v095   gtp3
        BYTE   W02
        BYTE           VOL     61
        BYTE   W05
        BYTE                   62
        BYTE   W06
        BYTE                   63
        BYTE   W05
        BYTE                   64
        BYTE   W06
        BYTE                   65
        BYTE   W05
        BYTE                   67
        BYTE   W03
        BYTE                   68
        BYTE   W03
        BYTE                   69
        BYTE   W03
        BYTE                   70
        BYTE   W03
        BYTE                   71
        BYTE   W03
        BYTE                   72
        BYTE   W03
        BYTE                   73
        BYTE   W01
        BYTE           N44     Bn3   v095   gtp3
        BYTE   W01
        BYTE           VOL     74
        BYTE   W03
        BYTE                   75
        BYTE   W03
        BYTE                   76
        BYTE   W03
        BYTE                   77
        BYTE   W03
        BYTE                   79
        BYTE   W03
        BYTE                   80
        BYTE   W03
        BYTE                   81
        BYTE   W03
        BYTE                   82
        BYTE   W01
        BYTE                   83
        BYTE   W01
        BYTE                   82
        BYTE   W02
        BYTE                   80
        BYTE   W01
        BYTE                   78
        BYTE   W02
        BYTE                   77
        BYTE   W01
        BYTE                   75
        BYTE   W02
        BYTE                   73
        BYTE   W01
        BYTE                   72
        BYTE   W02
        BYTE                   70
        BYTE   W01
        BYTE                   68
        BYTE   W02
        BYTE                   67
        BYTE   W01
        BYTE                   65
        BYTE   W02
        BYTE                   63
        BYTE   W01
        BYTE                   62
        BYTE   W02
        BYTE                   60
        BYTE   W01
        BYTE                   58
        BYTE   W02
        BYTE                   57
        BYTE   W01
// 019   ----------------------------------------
        BYTE           N72     Cn4   v095   gtp3
        BYTE           VOL     55
        BYTE   W02
        BYTE                   53
        BYTE   W01
        BYTE                   52
        BYTE   W01
        BYTE                   51
        BYTE   W03
        BYTE                   50
        BYTE   W03
        BYTE                   49
        BYTE   W03
        BYTE                   47
        BYTE   W03
        BYTE                   46
        BYTE   W03
        BYTE                   44
        BYTE   W03
        BYTE                   43
        BYTE   W03
        BYTE                   41
        BYTE   W03
        BYTE                   40
        BYTE   W03
        BYTE                   38
        BYTE   W03
        BYTE                   37
        BYTE   W03
        BYTE                   35
        BYTE   W03
        BYTE                   34
        BYTE   W03
        BYTE                   32
        BYTE   W01
        BYTE                   31
        BYTE   W02
        BYTE                   29
        BYTE   W01
        BYTE                   27
        BYTE   W02
        BYTE                   26
        BYTE   W01
        BYTE                   24
        BYTE   W02
        BYTE                   22
        BYTE   W01
        BYTE                   20
        BYTE   W02
        BYTE                   19
        BYTE   W01
        BYTE                   17
        BYTE   W02
        BYTE                   15
        BYTE   W01
        BYTE                   14
        BYTE   W02
        BYTE                   12
        BYTE   W01
        BYTE                   10
        BYTE   W02
        BYTE                   8
        BYTE   W01
        BYTE                   7
        BYTE   W02
        BYTE                   5
        BYTE   W01
        BYTE                   3
        BYTE   W02
        BYTE                   0
        BYTE   W21
        BYTE                   3
        BYTE   W01
        BYTE                   7
        BYTE   W01
        BYTE                   14
        BYTE   W01
        BYTE                   18
        BYTE   W01
        BYTE                   21
        BYTE   W01
// 020   ----------------------------------------
        BYTE                   25
        BYTE           N44     Gs4   v095   gtp3
        BYTE   W03
        BYTE           VOL     27
        BYTE   W03
        BYTE                   30
        BYTE   W03
        BYTE                   32
        BYTE   W03
        BYTE                   35
        BYTE   W03
        BYTE                   38
        BYTE   W03
        BYTE                   40
        BYTE   W03
        BYTE                   43
        BYTE   W03
        BYTE                   45
        BYTE   W03
        BYTE                   48
        BYTE   W03
        BYTE                   51
        BYTE   W03
        BYTE                   54
        BYTE   W03
        BYTE                   53
        BYTE   W03
        BYTE                   52
        BYTE   W03
        BYTE                   51
        BYTE   W03
        BYTE                   50
        BYTE   W01
        BYTE                   49
        BYTE   W02
        BYTE           N44     Gn4   v095   gtp3
        BYTE   W01
        BYTE           VOL     51
        BYTE   W03
        BYTE                   54
        BYTE   W03
        BYTE                   56
        BYTE   W03
        BYTE                   59
        BYTE   W03
        BYTE                   61
        BYTE   W03
        BYTE                   64
        BYTE   W03
        BYTE                   67
        BYTE   W03
        BYTE                   70
        BYTE   W03
        BYTE                   68
        BYTE   W03
        BYTE                   66
        BYTE   W03
        BYTE                   63
        BYTE   W03
        BYTE                   61
        BYTE   W03
        BYTE                   58
        BYTE   W03
        BYTE                   56
        BYTE   W03
        BYTE                   53
        BYTE   W03
        BYTE                   51
        BYTE   W01
        BYTE                   50
        BYTE   W01
// 021   ----------------------------------------
        BYTE           N44     En4   v095   gtp3
        BYTE   W02
        BYTE           VOL     51
        BYTE   W03
        BYTE                   52
        BYTE   W03
        BYTE                   54
        BYTE   W03
        BYTE                   55
        BYTE   W03
        BYTE                   56
        BYTE   W03
        BYTE                   58
        BYTE   W03
        BYTE                   59
        BYTE   W03
        BYTE                   60
        BYTE   W03
        BYTE                   62
        BYTE   W03
        BYTE                   63
        BYTE   W03
        BYTE                   64
        BYTE   W03
        BYTE                   66
        BYTE   W03
        BYTE                   67
        BYTE   W03
        BYTE                   68
        BYTE   W03
        BYTE                   70
        BYTE   W03
        BYTE                   69
        BYTE   W01
        BYTE           TIE     Cn4
        BYTE   W02
        BYTE           VOL     68
        BYTE   W03
        BYTE                   66
        BYTE   W03
        BYTE                   65
        BYTE   W03
        BYTE                   63
        BYTE   W03
        BYTE                   62
        BYTE   W03
        BYTE                   60
        BYTE   W03
        BYTE                   59
        BYTE   W03
        BYTE                   57
        BYTE   W03
        BYTE                   56
        BYTE   W03
        BYTE                   54
        BYTE   W03
        BYTE                   53
        BYTE   W03
        BYTE                   51
        BYTE   W03
        BYTE                   50
        BYTE   W03
        BYTE                   48
        BYTE   W03
        BYTE                   47
        BYTE   W03
        BYTE                   45
        BYTE   W01
// 022   ----------------------------------------
        BYTE   W02
        BYTE                   44
        BYTE   W03
        BYTE                   42
        BYTE   W03
        BYTE                   41
        BYTE   W03
        BYTE                   39
        BYTE   W03
        BYTE                   38
        BYTE   W03
        BYTE                   36
        BYTE   W03
        BYTE                   35
        BYTE   W03
        BYTE                   33
        BYTE   W03
        BYTE                   32
        BYTE   W03
        BYTE                   30
        BYTE   W03
        BYTE                   29
        BYTE   W03
        BYTE                   27
        BYTE   W03
        BYTE                   26
        BYTE   W03
        BYTE                   24
        BYTE   W03
        BYTE                   23
        BYTE   W03
        BYTE                   21
        BYTE   W03
        BYTE                   20
        BYTE   W03
        BYTE                   18
        BYTE   W03
        BYTE                   17
        BYTE   W03
        BYTE                   15
        BYTE   W03
        BYTE                   14
        BYTE   W03
        BYTE                   12
        BYTE   W03
        BYTE                   11
        BYTE   W03
        BYTE                   9
        BYTE   W03
        BYTE                   8
        BYTE   W03
        BYTE                   6
        BYTE   W03
        BYTE                   5
        BYTE   W03
        BYTE                   3
        BYTE   W03
        BYTE                   2
        BYTE   W03
        BYTE                   0
        BYTE   W06
        BYTE           EOT
        BYTE   W01
// 023   ----------------------------------------
        BYTE   W03
        BYTE   FINE

//****************** Track 8 (Midi-Chn.8) ******************//

MomentofSerenity_8:
        BYTE   KEYSH   MomentofSerenity_key+0
// 000   ----------------------------------------
        BYTE           VOL     125
        BYTE           VOICE   48
        BYTE           PAN     c_v-9
        BYTE   W07
        BYTE           VOL     0
        BYTE   W17
        BYTE           TIE     Dn4   v127
        BYTE   W24
        BYTE   W01
        BYTE           VOL     1
        BYTE   W03
        BYTE                   2
        BYTE   W03
        BYTE                   3
        BYTE   W03
        BYTE                   4
        BYTE   W03
        BYTE                   5
        BYTE   W03
        BYTE                   6
        BYTE   W03
        BYTE                   7
        BYTE   W03
        BYTE                   8
        BYTE   W03
        BYTE                   9
        BYTE   W03
        BYTE                   10
        BYTE   W03
        BYTE                   11
        BYTE   W03
        BYTE                   12
        BYTE   W03
        BYTE                   13
        BYTE   W03
        BYTE                   14
        BYTE   W03
        BYTE                   15
        BYTE   W03
        BYTE                   16
        BYTE   W02
// 001   ----------------------------------------
        BYTE   PATT
         POIN2  MomentofSerenity_7_1
// 002   ----------------------------------------
        BYTE   PATT
         POIN2  MomentofSerenity_7_2
// 003   ----------------------------------------
MomentofSerenity_8_3:
        BYTE   W01
        BYTE           VOL     18
        BYTE   W05
        BYTE                   17
        BYTE   W05
        BYTE                   16
        BYTE   W05
        BYTE                   15
        BYTE   W05
        BYTE                   14
        BYTE   W05
        BYTE                   13
        BYTE   W05
        BYTE                   12
        BYTE   W05
        BYTE                   11
        BYTE   W05
        BYTE                   10
        BYTE   W05
        BYTE                   9
        BYTE   W05
        BYTE                   8
        BYTE   W05
        BYTE                   7
        BYTE   W05
        BYTE                   6
        BYTE   W05
        BYTE                   5
        BYTE   W05
        BYTE                   4
        BYTE   W05
        BYTE                   3
        BYTE   W05
        BYTE                   2
        BYTE   W05
        BYTE                   0
        BYTE   W05
        BYTE           EOT     Dn4
        BYTE   W05
        BYTE   PEND
// 004   ----------------------------------------
        BYTE   W96
// 005   ----------------------------------------
        BYTE   W24
        BYTE           TIE     Dn4   v127
        BYTE   W24
        BYTE   W01
        BYTE           VOL     1
        BYTE   W03
        BYTE                   2
        BYTE   W03
        BYTE                   3
        BYTE   W03
        BYTE                   4
        BYTE   W03
        BYTE                   5
        BYTE   W03
        BYTE                   6
        BYTE   W03
        BYTE                   7
        BYTE   W03
        BYTE                   8
        BYTE   W03
        BYTE                   9
        BYTE   W03
        BYTE                   10
        BYTE   W03
        BYTE                   11
        BYTE   W03
        BYTE                   12
        BYTE   W03
        BYTE                   13
        BYTE   W03
        BYTE                   14
        BYTE   W03
        BYTE                   15
        BYTE   W03
        BYTE                   16
        BYTE   W02
// 006   ----------------------------------------
        BYTE   PATT
         POIN2  MomentofSerenity_7_1
// 007   ----------------------------------------
        BYTE   PATT
         POIN2  MomentofSerenity_7_2
// 008   ----------------------------------------
        BYTE   PATT
         POIN2  MomentofSerenity_8_3
// 009   ----------------------------------------
        BYTE   W96
// 010   ----------------------------------------
        BYTE   W96
// 011   ----------------------------------------
        BYTE   W96
// 012   ----------------------------------------
        BYTE   W06
        BYTE           VOL     2
        BYTE   W03
        BYTE                   5
        BYTE   W03
        BYTE                   8
        BYTE           N80     Dn3   v095   gtp3
        BYTE   W03
        BYTE           VOL     11
        BYTE   W03
        BYTE                   14
        BYTE   W03
        BYTE                   17
        BYTE   W03
        BYTE                   19
        BYTE   W03
        BYTE                   22
        BYTE   W03
        BYTE                   25
        BYTE   W03
        BYTE                   28
        BYTE   W03
        BYTE                   31
        BYTE   W03
        BYTE                   33
        BYTE   W03
        BYTE                   35
        BYTE   W03
        BYTE                   38
        BYTE   W03
        BYTE                   41
        BYTE   W03
        BYTE                   44
        BYTE   W03
        BYTE                   47
        BYTE   W03
        BYTE                   50
        BYTE   W03
        BYTE                   52
        BYTE   W03
        BYTE                   55
        BYTE   W03
        BYTE                   58
        BYTE   W03
        BYTE                   61
        BYTE   W03
        BYTE                   64
        BYTE   W03
        BYTE                   67
        BYTE   W03
        BYTE                   69
        BYTE   W03
        BYTE                   72
        BYTE   W03
        BYTE                   75
        BYTE   W03
        BYTE                   78
        BYTE   W03
        BYTE                   81
        BYTE   W03
        BYTE                   84
        BYTE   W03
// 013   ----------------------------------------
        BYTE                   87
        BYTE           N68     Ds3   v095   gtp3
        BYTE   W03
        BYTE           VOL     86
        BYTE   W03
        BYTE                   85
        BYTE   W03
        BYTE                   84
        BYTE   W03
        BYTE                   83
        BYTE   W03
        BYTE                   82
        BYTE   W03
        BYTE                   81
        BYTE   W03
        BYTE                   80
        BYTE   W03
        BYTE                   79
        BYTE   W03
        BYTE                   78
        BYTE   W03
        BYTE                   77
        BYTE   W03
        BYTE                   76
        BYTE   W03
        BYTE                   75
        BYTE   W03
        BYTE                   74
        BYTE   W03
        BYTE                   73
        BYTE   W03
        BYTE                   72
        BYTE   W03
        BYTE                   70
        BYTE   W03
        BYTE                   69
        BYTE   W03
        BYTE                   68
        BYTE   W03
        BYTE                   67
        BYTE   W03
        BYTE                   66
        BYTE   W03
        BYTE                   65
        BYTE   W03
        BYTE                   64
        BYTE   W03
        BYTE                   63
        BYTE   W03
        BYTE                   62
        BYTE           N23     Cn3
        BYTE   W03
        BYTE           VOL     61
        BYTE   W01
        BYTE                   60
        BYTE   W02
        BYTE                   58
        BYTE   W01
        BYTE                   56
        BYTE   W02
        BYTE                   53
        BYTE   W01
        BYTE                   51
        BYTE   W02
        BYTE                   49
        BYTE   W01
        BYTE                   46
        BYTE   W02
        BYTE                   44
        BYTE   W01
        BYTE                   42
        BYTE   W02
        BYTE                   39
        BYTE   W01
        BYTE                   37
        BYTE   W02
        BYTE                   35
        BYTE   W01
        BYTE                   32
        BYTE   W02
// 014   ----------------------------------------
        BYTE                   31
        BYTE   W01
        BYTE                   29
        BYTE   W02
        BYTE                   26
        BYTE   W01
        BYTE                   24
        BYTE   W02
        BYTE                   21
        BYTE   W01
        BYTE                   19
        BYTE   W02
        BYTE                   17
        BYTE   W01
        BYTE                   14
        BYTE   W01
        BYTE                   13
        BYTE   W01
        BYTE           N80     Dn3   v095   gtp3
        BYTE   W02
        BYTE           VOL     15
        BYTE   W03
        BYTE                   18
        BYTE   W03
        BYTE                   21
        BYTE   W03
        BYTE                   23
        BYTE   W03
        BYTE                   26
        BYTE   W03
        BYTE                   29
        BYTE   W03
        BYTE                   31
        BYTE   W03
        BYTE                   33
        BYTE   W03
        BYTE                   36
        BYTE   W03
        BYTE                   39
        BYTE   W03
        BYTE                   42
        BYTE   W03
        BYTE                   44
        BYTE   W03
        BYTE                   47
        BYTE   W03
        BYTE                   50
        BYTE   W03
        BYTE                   52
        BYTE   W03
        BYTE                   55
        BYTE   W03
        BYTE                   58
        BYTE   W03
        BYTE                   61
        BYTE   W03
        BYTE                   63
        BYTE   W03
        BYTE                   66
        BYTE   W03
        BYTE                   69
        BYTE   W03
        BYTE                   72
        BYTE   W03
        BYTE                   74
        BYTE   W03
        BYTE                   77
        BYTE   W03
        BYTE                   80
        BYTE   W03
        BYTE                   82
        BYTE   W03
        BYTE                   85
        BYTE   W03
        BYTE                   88
        BYTE   W01
// 015   ----------------------------------------
        BYTE           N68     Ds3   v095   gtp3
        BYTE   W01
        BYTE           VOL     90
        BYTE   W03
        BYTE                   89
        BYTE   W03
        BYTE                   88
        BYTE   W03
        BYTE                   87
        BYTE   W03
        BYTE                   86
        BYTE   W03
        BYTE                   85
        BYTE   W03
        BYTE                   83
        BYTE   W03
        BYTE                   82
        BYTE   W03
        BYTE                   81
        BYTE   W03
        BYTE                   80
        BYTE   W03
        BYTE                   79
        BYTE   W03
        BYTE                   78
        BYTE   W03
        BYTE                   76
        BYTE   W03
        BYTE                   75
        BYTE   W03
        BYTE                   74
        BYTE   W03
        BYTE                   73
        BYTE   W03
        BYTE                   72
        BYTE   W03
        BYTE                   71
        BYTE   W03
        BYTE                   69
        BYTE   W03
        BYTE                   68
        BYTE   W03
        BYTE                   67
        BYTE   W03
        BYTE                   66
        BYTE   W03
        BYTE                   65
        BYTE   W03
        BYTE                   64
        BYTE   W02
        BYTE           N23     Cn3
        BYTE   W01
        BYTE           VOL     62
        BYTE   W10
        BYTE                   61
        BYTE   W11
        BYTE                   60
        BYTE   W02
// 016   ----------------------------------------
        BYTE                   61
        BYTE           N68     Gn2   v095   gtp3
        BYTE   W01
        BYTE           VOL     63
        BYTE   W02
        BYTE                   65
        BYTE   W01
        BYTE                   66
        BYTE   W02
        BYTE                   68
        BYTE   W01
        BYTE                   70
        BYTE   W02
        BYTE                   72
        BYTE   W01
        BYTE                   73
        BYTE   W02
        BYTE                   75
        BYTE   W01
        BYTE                   77
        BYTE   W02
        BYTE                   78
        BYTE   W01
        BYTE                   80
        BYTE   W01
        BYTE                   82
        BYTE   W03
        BYTE                   81
        BYTE   W03
        BYTE                   79
        BYTE   W03
        BYTE                   77
        BYTE   W03
        BYTE                   75
        BYTE   W03
        BYTE                   74
        BYTE   W03
        BYTE                   72
        BYTE   W03
        BYTE                   70
        BYTE   W03
        BYTE                   68
        BYTE   W03
        BYTE                   67
        BYTE   W03
        BYTE                   65
        BYTE   W03
        BYTE                   63
        BYTE   W03
        BYTE                   61
        BYTE   W03
        BYTE                   60
        BYTE   W03
        BYTE                   58
        BYTE   W03
        BYTE                   56
        BYTE   W10
        BYTE           N23     Bn2
        BYTE   W10
        BYTE           VOL     55
        BYTE   W10
        BYTE                   53
        BYTE   W03
        BYTE                   54
        BYTE   W01
// 017   ----------------------------------------
        BYTE           N68     An2   v095   gtp3
        BYTE   W02
        BYTE           VOL     55
        BYTE   W03
        BYTE                   56
        BYTE   W03
        BYTE                   58
        BYTE   W03
        BYTE                   59
        BYTE   W03
        BYTE                   60
        BYTE   W03
        BYTE                   61
        BYTE   W03
        BYTE                   63
        BYTE   W03
        BYTE                   64
        BYTE   W03
        BYTE                   65
        BYTE   W03
        BYTE                   66
        BYTE   W03
        BYTE                   68
        BYTE   W03
        BYTE                   69
        BYTE   W03
        BYTE                   70
        BYTE   W03
        BYTE                   71
        BYTE   W03
        BYTE                   73
        BYTE   W03
        BYTE                   74
        BYTE   W03
        BYTE                   75
        BYTE   W03
        BYTE                   77
        BYTE   W03
        BYTE                   78
        BYTE   W03
        BYTE                   79
        BYTE   W03
        BYTE                   80
        BYTE   W02
        BYTE                   82
        BYTE   W02
        BYTE                   81
        BYTE   W01
        BYTE                   79
        BYTE   W02
        BYTE                   78
        BYTE   W01
        BYTE                   76
        BYTE   W02
        BYTE                   75
        BYTE           N23     Cn3
        BYTE   W01
        BYTE           VOL     73
        BYTE   W02
        BYTE                   72
        BYTE   W01
        BYTE                   70
        BYTE   W02
        BYTE                   69
        BYTE   W01
        BYTE                   67
        BYTE   W02
        BYTE                   66
        BYTE   W01
        BYTE                   64
        BYTE   W02
        BYTE                   62
        BYTE   W01
        BYTE                   61
        BYTE   W02
        BYTE                   59
        BYTE   W09
// 018   ----------------------------------------
        BYTE           N68     Bn2   v095   gtp3
        BYTE   W02
        BYTE           VOL     60
        BYTE   W05
        BYTE                   61
        BYTE   W06
        BYTE                   62
        BYTE   W05
        BYTE                   63
        BYTE   W06
        BYTE                   64
        BYTE   W05
        BYTE                   66
        BYTE   W03
        BYTE                   67
        BYTE   W03
        BYTE                   68
        BYTE   W03
        BYTE                   69
        BYTE   W03
        BYTE                   70
        BYTE   W03
        BYTE                   71
        BYTE   W03
        BYTE                   72
        BYTE   W02
        BYTE                   73
        BYTE   W03
        BYTE                   74
        BYTE   W03
        BYTE                   75
        BYTE   W03
        BYTE                   76
        BYTE   W03
        BYTE                   78
        BYTE   W03
        BYTE                   79
        BYTE   W03
        BYTE                   80
        BYTE   W03
        BYTE                   81
        BYTE   W01
        BYTE                   82
        BYTE   W01
        BYTE           N23     Dn3
        BYTE           VOL     81
        BYTE   W02
        BYTE                   79
        BYTE   W01
        BYTE                   77
        BYTE   W02
        BYTE                   76
        BYTE   W01
        BYTE                   74
        BYTE   W02
        BYTE                   72
        BYTE   W01
        BYTE                   71
        BYTE   W02
        BYTE                   69
        BYTE   W01
        BYTE                   67
        BYTE   W02
        BYTE                   66
        BYTE   W01
        BYTE                   64
        BYTE   W02
        BYTE                   62
        BYTE   W01
        BYTE                   61
        BYTE   W02
        BYTE                   59
        BYTE   W01
        BYTE                   57
        BYTE   W02
        BYTE                   56
        BYTE   W01
// 019   ----------------------------------------
        BYTE           N72     En3   v095   gtp3
        BYTE           VOL     54
        BYTE   W02
        BYTE                   52
        BYTE   W01
        BYTE                   51
        BYTE   W01
        BYTE                   50
        BYTE   W03
        BYTE                   49
        BYTE   W03
        BYTE                   48
        BYTE   W03
        BYTE                   46
        BYTE   W03
        BYTE                   45
        BYTE   W03
        BYTE                   43
        BYTE   W03
        BYTE                   42
        BYTE   W03
        BYTE                   40
        BYTE   W03
        BYTE                   39
        BYTE   W03
        BYTE                   37
        BYTE   W03
        BYTE                   36
        BYTE   W03
        BYTE                   34
        BYTE   W03
        BYTE                   33
        BYTE   W03
        BYTE                   31
        BYTE   W03
        BYTE                   29
        BYTE   W01
        BYTE                   27
        BYTE   W02
        BYTE                   26
        BYTE   W01
        BYTE                   24
        BYTE   W02
        BYTE                   22
        BYTE   W01
        BYTE                   20
        BYTE   W02
        BYTE                   19
        BYTE   W01
        BYTE                   17
        BYTE   W02
        BYTE                   15
        BYTE   W01
        BYTE                   14
        BYTE   W02
        BYTE                   12
        BYTE   W01
        BYTE                   10
        BYTE   W02
        BYTE                   8
        BYTE   W01
        BYTE                   7
        BYTE   W02
        BYTE                   5
        BYTE   W01
        BYTE                   3
        BYTE   W02
        BYTE                   0
        BYTE   W21
        BYTE                   3
        BYTE   W01
        BYTE                   7
        BYTE   W01
        BYTE                   14
        BYTE   W01
        BYTE                   18
        BYTE   W01
        BYTE                   21
        BYTE   W01
// 020   ----------------------------------------
        BYTE                   25
        BYTE           N23     Fs4
        BYTE   W03
        BYTE           VOL     27
        BYTE   W03
        BYTE                   30
        BYTE   W03
        BYTE                   31
        BYTE   W03
        BYTE                   34
        BYTE   W03
        BYTE                   37
        BYTE   W03
        BYTE                   39
        BYTE   W03
        BYTE                   42
        BYTE   W03
        BYTE                   44
        BYTE           N23     En4
        BYTE   W03
        BYTE           VOL     47
        BYTE   W03
        BYTE                   50
        BYTE   W03
        BYTE                   53
        BYTE   W03
        BYTE                   52
        BYTE   W03
        BYTE                   51
        BYTE   W03
        BYTE                   50
        BYTE   W03
        BYTE                   49
        BYTE   W01
        BYTE                   48
        BYTE   W02
        BYTE           N23     Dn4
        BYTE   W01
        BYTE           VOL     50
        BYTE   W03
        BYTE                   53
        BYTE   W03
        BYTE                   55
        BYTE   W03
        BYTE                   58
        BYTE   W03
        BYTE                   60
        BYTE   W03
        BYTE                   63
        BYTE   W03
        BYTE                   66
        BYTE   W03
        BYTE                   69
        BYTE   W02
        BYTE           N23     Cn4
        BYTE   W01
        BYTE           VOL     67
        BYTE   W03
        BYTE                   65
        BYTE   W03
        BYTE                   62
        BYTE   W03
        BYTE                   60
        BYTE   W03
        BYTE                   57
        BYTE   W03
        BYTE                   55
        BYTE   W03
        BYTE                   52
        BYTE   W03
        BYTE                   50
        BYTE   W01
        BYTE                   49
        BYTE   W01
// 021   ----------------------------------------
        BYTE           N23     Bn3
        BYTE   W02
        BYTE           VOL     50
        BYTE   W03
        BYTE                   51
        BYTE   W03
        BYTE                   53
        BYTE   W03
        BYTE                   54
        BYTE   W03
        BYTE                   55
        BYTE   W03
        BYTE                   57
        BYTE   W03
        BYTE                   58
        BYTE   W03
        BYTE                   59
        BYTE   W01
        BYTE           N23     An3
        BYTE   W02
        BYTE           VOL     61
        BYTE   W03
        BYTE                   62
        BYTE   W03
        BYTE                   63
        BYTE   W03
        BYTE                   65
        BYTE   W03
        BYTE                   66
        BYTE   W03
        BYTE                   67
        BYTE   W03
        BYTE                   69
        BYTE   W03
        BYTE                   68
        BYTE   W01
        BYTE           TIE     Gn3
        BYTE   W02
        BYTE           VOL     67
        BYTE   W03
        BYTE                   65
        BYTE   W03
        BYTE                   64
        BYTE   W03
        BYTE                   62
        BYTE   W03
        BYTE                   61
        BYTE   W03
        BYTE                   59
        BYTE   W03
        BYTE                   58
        BYTE   W03
        BYTE                   56
        BYTE   W03
        BYTE                   55
        BYTE   W03
        BYTE                   53
        BYTE   W03
        BYTE                   52
        BYTE   W03
        BYTE                   50
        BYTE   W03
        BYTE                   49
        BYTE   W03
        BYTE                   47
        BYTE   W03
        BYTE                   46
        BYTE   W03
        BYTE                   44
        BYTE   W01
// 022   ----------------------------------------
        BYTE   W02
        BYTE                   43
        BYTE   W03
        BYTE                   41
        BYTE   W03
        BYTE                   40
        BYTE   W03
        BYTE                   38
        BYTE   W03
        BYTE                   37
        BYTE   W03
        BYTE                   35
        BYTE   W03
        BYTE                   34
        BYTE   W03
        BYTE                   32
        BYTE   W03
        BYTE                   31
        BYTE   W03
        BYTE                   30
        BYTE   W03
        BYTE                   29
        BYTE   W03
        BYTE                   27
        BYTE   W03
        BYTE                   26
        BYTE   W03
        BYTE                   24
        BYTE   W03
        BYTE                   23
        BYTE   W03
        BYTE                   21
        BYTE   W03
        BYTE                   20
        BYTE   W03
        BYTE                   18
        BYTE   W03
        BYTE                   17
        BYTE   W03
        BYTE                   15
        BYTE   W03
        BYTE                   14
        BYTE   W03
        BYTE                   12
        BYTE   W03
        BYTE                   11
        BYTE   W03
        BYTE                   9
        BYTE   W03
        BYTE                   8
        BYTE   W03
        BYTE                   6
        BYTE   W03
        BYTE                   5
        BYTE   W03
        BYTE                   3
        BYTE   W03
        BYTE                   2
        BYTE   W03
        BYTE                   0
        BYTE   W06
        BYTE           EOT
        BYTE   W01
// 023   ----------------------------------------
        BYTE   W03
        BYTE   FINE


//********************** End of Song ***********************//

        ALIGN 4
MomentofSerenity:
        BYTE   9                       // Num Tracks
        BYTE   0                       // Unknown
        BYTE   MomentofSerenity_pri    // Priority
        BYTE   MomentofSerenity_rev    // Reverb

        POIN2   MomentofSerenity_grp   

        POIN2   MomentofSerenity_0
        POIN2   MomentofSerenity_1
        POIN2   MomentofSerenity_2
        POIN2   MomentofSerenity_3
        POIN2   MomentofSerenity_4
        POIN2   MomentofSerenity_5
        POIN2   MomentofSerenity_6
        POIN2   MomentofSerenity_7
        POIN2   MomentofSerenity_8

        
