//Event file generated from Sappy .s format.
	#include "MPlayDef.event"

	#define	NoOneIsAlone_grp  voicegroup000
	#define	NoOneIsAlone_pri  0
	#define	NoOneIsAlone_rev  0
	#define	NoOneIsAlone_mvl  127
	#define	NoOneIsAlone_key  0
	#define	NoOneIsAlone_tbs  1
	#define	NoOneIsAlone_exg  0
	#define	NoOneIsAlone_cmp  1

	// .rodata
	//	NoOneIsAlone
	ALIGN 4


//**************** Track 1 (Midi-Chn.0) ****************//

NoOneIsAlone_001:
//  #01 //000   ----------------------------------------
 BYTE   KEYSH   NoOneIsAlone_key+0
Label_D3EA96:
 BYTE   TEMPO   120*NoOneIsAlone_tbs/2
 BYTE   VOICE   45
 BYTE   VOL   32*NoOneIsAlone_mvl/mxv
 BYTE   PAN   c_v+0
 BYTE   VOL   36*NoOneIsAlone_mvl/mxv
 BYTE   PAN   c_v+0
 BYTE   W48
 BYTE   TEMPO   120*NoOneIsAlone_tbs/2
 BYTE   W18
 BYTE   TEMPO   116*NoOneIsAlone_tbs/2
 BYTE   W18
 BYTE   TEMPO   112*NoOneIsAlone_tbs/2
 BYTE   W12
//  #01 //001   ----------------------------------------
Label_D3EAAC:
 BYTE   W06
 BYTE   TEMPO   108*NoOneIsAlone_tbs/2
 BYTE   W18
 BYTE   TEMPO   104*NoOneIsAlone_tbs/2
 BYTE   W18
 BYTE   TEMPO   100*NoOneIsAlone_tbs/2
 BYTE   W18
 BYTE   TEMPO   96*NoOneIsAlone_tbs/2
 BYTE   W18
 BYTE   TEMPO   92*NoOneIsAlone_tbs/2
 BYTE   W18
 BYTE   PEND
//  #01 //002   ----------------------------------------
Label_D3EABD:
 BYTE   TEMPO   120*NoOneIsAlone_tbs/2
 BYTE   W48
 BYTE   TEMPO   120*NoOneIsAlone_tbs/2
 BYTE   W18
 BYTE   TEMPO   116*NoOneIsAlone_tbs/2
 BYTE   W18
 BYTE   TEMPO   112*NoOneIsAlone_tbs/2
 BYTE   W12
 BYTE   PEND
//  #01 //003   ----------------------------------------
 BYTE   PATT
  POIN2 Label_D3EAAC
//  #01 //004   ----------------------------------------
 BYTE   PATT
  POIN2 Label_D3EABD
//  #01 //005   ----------------------------------------
 BYTE   PATT
  POIN2 Label_D3EAAC
//  #01 //006   ----------------------------------------
 BYTE   PATT
  POIN2 Label_D3EABD
//  #01 //007   ----------------------------------------
 BYTE   PATT
  POIN2 Label_D3EAAC
//  #01 //008   ----------------------------------------
 BYTE   PATT
  POIN2 Label_D3EABD
//  #01 //009   ----------------------------------------
 BYTE   PATT
  POIN2 Label_D3EAAC
//  #01 //010   ----------------------------------------
 BYTE   PATT
  POIN2 Label_D3EABD
//  #01 //011   ----------------------------------------
 BYTE   PATT
  POIN2 Label_D3EAAC
//  #01 //012   ----------------------------------------
 BYTE   PATT
  POIN2 Label_D3EABD
//  #01 //013   ----------------------------------------
 BYTE   PATT
  POIN2 Label_D3EAAC
//  #01 //014   ----------------------------------------
 BYTE   TEMPO   120*NoOneIsAlone_tbs/2
 BYTE   W48
 BYTE   TEMPO   120*NoOneIsAlone_tbs/2
 BYTE   W24
 BYTE   TEMPO   116*NoOneIsAlone_tbs/2
 BYTE   W24
//  #01 //015   ----------------------------------------
 BYTE   TEMPO   112*NoOneIsAlone_tbs/2
 BYTE   W24
 BYTE   TEMPO   110*NoOneIsAlone_tbs/2
 BYTE   W24
 BYTE   TEMPO   106*NoOneIsAlone_tbs/2
 BYTE   W24
 BYTE   TEMPO   104*NoOneIsAlone_tbs/2
 BYTE   W24
//  #01 //016   ----------------------------------------
 BYTE   TEMPO   102*NoOneIsAlone_tbs/2
 BYTE   W24
 BYTE   TEMPO   98*NoOneIsAlone_tbs/2
 BYTE   W24
 BYTE   TEMPO   96*NoOneIsAlone_tbs/2
 BYTE   W24
 BYTE   TEMPO   92*NoOneIsAlone_tbs/2
 BYTE   W24
//  #01 //017   ----------------------------------------
 BYTE   TEMPO   120*NoOneIsAlone_tbs/2
 BYTE   W96
//  #01 //018   ----------------------------------------
 BYTE   W96
//  #01 //019   ----------------------------------------
 BYTE   W96
//  #01 //020   ----------------------------------------
 BYTE   W96
//  #01 //021   ----------------------------------------
 BYTE   W96
//  #01 //022   ----------------------------------------
 BYTE   W96
//  #01 //023   ----------------------------------------
 BYTE   W96
//  #01 //024   ----------------------------------------
 BYTE   W96
//  #01 //025   ----------------------------------------
 BYTE   TEMPO   120*NoOneIsAlone_tbs/2
 BYTE   W12
 BYTE   TIE  Dn2  v064
 BYTE   W12
 BYTE   TEMPO   116*NoOneIsAlone_tbs/2
 BYTE   W24
 BYTE   TEMPO   114*NoOneIsAlone_tbs/2
 BYTE   W24
 BYTE   TEMPO   112*NoOneIsAlone_tbs/2
 BYTE   W24
//  #01 //026   ----------------------------------------
 BYTE   TEMPO   108*NoOneIsAlone_tbs/2
 BYTE   W24
 BYTE   TEMPO   106*NoOneIsAlone_tbs/2
 BYTE   W24
 BYTE   TEMPO   104*NoOneIsAlone_tbs/2
 BYTE   W24
 BYTE   TEMPO   102*NoOneIsAlone_tbs/2
 BYTE   W24
//  #01 //027   ----------------------------------------
 BYTE   TEMPO   100*NoOneIsAlone_tbs/2
 BYTE   W24
 BYTE   TEMPO   96*NoOneIsAlone_tbs/2
 BYTE   W24
 BYTE   TEMPO   50*NoOneIsAlone_tbs/2
 BYTE   W24
 BYTE   TEMPO   92*NoOneIsAlone_tbs/2
 BYTE   W23
 BYTE   EOT
 BYTE   W01
//  #01 //028   ----------------------------------------
 BYTE   TEMPO   120*NoOneIsAlone_tbs/2
 BYTE   W96
//  #01 //029   ----------------------------------------
 BYTE   W48
 BYTE   TEMPO   94*NoOneIsAlone_tbs/2
 BYTE   W48
//  #01 //030   ----------------------------------------
 BYTE   TEMPO   120*NoOneIsAlone_tbs/2
 BYTE   W96
//  #01 //031   ----------------------------------------
 BYTE   W96
//  #01 //032   ----------------------------------------
 BYTE   W96
//  #01 //033   ----------------------------------------
 BYTE   W96
//  #01 //034   ----------------------------------------
 BYTE   W96
//  #01 //035   ----------------------------------------
 BYTE   W96
//  #01 //036   ----------------------------------------
 BYTE   W96
//  #01 //037   ----------------------------------------
 BYTE   W96
//  #01 //038   ----------------------------------------
 BYTE   W96
//  #01 //039   ----------------------------------------
 BYTE   W96
//  #01 //040   ----------------------------------------
 BYTE   W96
//  #01 //041   ----------------------------------------
 BYTE   W72
 BYTE   TIE  Dn2  v080
 BYTE   W72
//  #01 //042   ----------------------------------------
 BYTE   W96
//  #01 //043   ----------------------------------------
Label_D3EB70:
 BYTE   W92
 BYTE   W03
 BYTE   PEND
 BYTE   EOT
 BYTE   Dn2
 BYTE   W01
//  #01 //044   ----------------------------------------
 BYTE   W96
//  #01 //045   ----------------------------------------
 BYTE   W96
//  #01 //046   ----------------------------------------
 BYTE   W96
//  #01 //047   ----------------------------------------
 BYTE   W96
//  #01 //048   ----------------------------------------
 BYTE   W96
//  #01 //049   ----------------------------------------
 BYTE   W24
 BYTE   TIE  Dn2  v080
 BYTE   W72
//  #01 //050   ----------------------------------------
 BYTE   W96
//  #01 //051   ----------------------------------------
 BYTE   PATT
  POIN2 Label_D3EB70
//  #01 //052   ----------------------------------------
 BYTE   EOT
 BYTE   Dn2
 BYTE   W01
 BYTE   W96
//  #01 //053   ----------------------------------------
 BYTE   W48
 BYTE   W96
//  #01 //054   ----------------------------------------
 BYTE   W96
//  #01 //055   ----------------------------------------
 BYTE   TEMPO   120*NoOneIsAlone_tbs/2
 BYTE   W24
 BYTE   TEMPO   118*NoOneIsAlone_tbs/2
 BYTE   W24
 BYTE   TEMPO   116*NoOneIsAlone_tbs/2
 BYTE   W24
 BYTE   TEMPO   114*NoOneIsAlone_tbs/2
 BYTE   W24
//  #01 //056   ----------------------------------------
 BYTE   TEMPO   112*NoOneIsAlone_tbs/2
 BYTE   W24
 BYTE   TEMPO   110*NoOneIsAlone_tbs/2
 BYTE   W24
 BYTE   TEMPO   108*NoOneIsAlone_tbs/2
 BYTE   W24
 BYTE   TEMPO   108*NoOneIsAlone_tbs/2
 BYTE   W24
//  #01 //057   ----------------------------------------
 BYTE   TEMPO   106*NoOneIsAlone_tbs/2
 BYTE   W24
 BYTE   TEMPO   104*NoOneIsAlone_tbs/2
 BYTE   W24
 BYTE   TEMPO   102*NoOneIsAlone_tbs/2
 BYTE   W24
 BYTE   TEMPO   100*NoOneIsAlone_tbs/2
 BYTE   W24
//  #01 //058   ----------------------------------------
 BYTE   TEMPO   60*NoOneIsAlone_tbs/2
 BYTE   W23
 BYTE   TEMPO   120*NoOneIsAlone_tbs/2
 BYTE   W01
 BYTE   TEMPO   98*NoOneIsAlone_tbs/2
 BYTE   W24
 BYTE   TEMPO   96*NoOneIsAlone_tbs/2
 BYTE   W24
 BYTE   TEMPO   94*NoOneIsAlone_tbs/2
 BYTE   W24
//  #01 //059   ----------------------------------------
 BYTE   TEMPO   92*NoOneIsAlone_tbs/2
 BYTE   W24
 BYTE   TEMPO   60*NoOneIsAlone_tbs/2
 BYTE   W23
 BYTE   TEMPO   120*NoOneIsAlone_tbs/2
 BYTE   W01
 BYTE   TEMPO   120*NoOneIsAlone_tbs/2
 BYTE   W96
//  #01 //060   ----------------------------------------
 BYTE   W96
//  #01 //061   ----------------------------------------
 BYTE   W96
//  #01 //062   ----------------------------------------
 BYTE   W96
//  #01 //063   ----------------------------------------
 BYTE   W96
//  #01 //064   ----------------------------------------
 BYTE   W96
//  #01 //065   ----------------------------------------
 BYTE   W96
//  #01 //066   ----------------------------------------
 BYTE   W96
//  #01 //067   ----------------------------------------
 BYTE   W96
//  #01 //068   ----------------------------------------
 BYTE   W96
//  #01 //069   ----------------------------------------
 BYTE   W96
//  #01 //070   ----------------------------------------
 BYTE   W96
//  #01 //071   ----------------------------------------
 BYTE   TEMPO   120*NoOneIsAlone_tbs/2
 BYTE   W24
 BYTE   TEMPO   118*NoOneIsAlone_tbs/2
 BYTE   W24
 BYTE   TEMPO   116*NoOneIsAlone_tbs/2
 BYTE   W24
 BYTE   TEMPO   114*NoOneIsAlone_tbs/2
 BYTE   W24
//  #01 //072   ----------------------------------------
 BYTE   TEMPO   112*NoOneIsAlone_tbs/2
 BYTE   W24
 BYTE   TEMPO   110*NoOneIsAlone_tbs/2
 BYTE   W24
 BYTE   TEMPO   108*NoOneIsAlone_tbs/2
 BYTE   W24
 BYTE   TEMPO   106*NoOneIsAlone_tbs/2
 BYTE   W24
//  #01 //073   ----------------------------------------
 BYTE   TEMPO   104*NoOneIsAlone_tbs/2
 BYTE   W24
 BYTE   TEMPO   102*NoOneIsAlone_tbs/2
 BYTE   W72
//  #01 //074   ----------------------------------------
 BYTE   W48
 BYTE   GoTo
  POIN2 Label_D3EA96
 BYTE   FINE

//**************** Track 2 (Midi-Chn.1) ****************//

NoOneIsAlone_002:
//  #02 //000   ----------------------------------------
 BYTE   KEYSH   NoOneIsAlone_key+0
Label_01000002:
 BYTE   VOICE   49
 BYTE   VOL   36*NoOneIsAlone_mvl/mxv
 BYTE   PAN   c_v+0
 BYTE   VOL   40*NoOneIsAlone_mvl/mxv
 BYTE   PAN   c_v+0
 BYTE   VOL   36*NoOneIsAlone_mvl/mxv
 BYTE   PAN   c_v+0
 BYTE   TIE  Cs2  v036
 BYTE   TIE  Gs2
 BYTE   W06
 BYTE   W06
 BYTE   W06
 BYTE   W06
 BYTE   W06
 BYTE   W06
 BYTE   W06
 BYTE   W06
 BYTE   W06
 BYTE   W06
 BYTE   W06
 BYTE   W06
 BYTE   W06
 BYTE   W06
 BYTE   W06
 BYTE   W06
//  #02 //001   ----------------------------------------
Label_01000025:
 BYTE   W06
 BYTE   W06
 BYTE   W06
 BYTE   W06
 BYTE   W06
 BYTE   W06
 BYTE   W06
 BYTE   W06
 BYTE   W06
 BYTE   W06
 BYTE   W06
 BYTE   W06
 BYTE   W06
 BYTE   W06
 BYTE   W06
 BYTE   W05
 BYTE   PEND
 BYTE   EOT
 BYTE   Cs2  v056
 BYTE   W01
//  #02 //002   ----------------------------------------
Label_0100003A:
 BYTE   TIE  Cs2  v036
 BYTE   TIE  Gs2
 BYTE   W06
 BYTE   W06
 BYTE   W06
 BYTE   W06
 BYTE   W06
 BYTE   W06
 BYTE   W06
 BYTE   W06
 BYTE   W06
 BYTE   W06
 BYTE   W06
 BYTE   W06
 BYTE   W06
 BYTE   W06
 BYTE   W06
 BYTE   W06
 BYTE   PEND
//  #02 //003   ----------------------------------------
 BYTE   PATT
  POIN2 Label_01000025
//  #02 //004   ----------------------------------------
 BYTE   EOT
 BYTE   Cs2  v056
 BYTE   W01
 BYTE   TIE  Cs2  v036
 BYTE   TIE  Gs2
 BYTE   N11  Fn3  v052
 BYTE   W06
 BYTE   W06
 BYTE   N17  Gs3
 BYTE   W06
 BYTE   W06
 BYTE   W06
 BYTE   N05
 BYTE   W06
 BYTE   N11  Fn3
 BYTE   W06
 BYTE   W06
 BYTE   N23  As3
 BYTE   W06
 BYTE   W06
 BYTE   W06
 BYTE   W06
 BYTE   N92  Gs3
 BYTE   W06
 BYTE   W06
 BYTE   W06
 BYTE   W06
//  #02 //005   ----------------------------------------
 BYTE   PATT
  POIN2 Label_01000025
//  #02 //006   ----------------------------------------
 BYTE   EOT
 BYTE   Cs2  v056
 BYTE   W01
 BYTE   TIE  Cs2  v036
 BYTE   TIE  Fs2
 BYTE   N11  As2  v052
 BYTE   W06
 BYTE   W06
 BYTE   Cs3
 BYTE   W06
 BYTE   W06
 BYTE   N11
 BYTE   W06
 BYTE   W06
 BYTE   As2
 BYTE   W06
 BYTE   W06
 BYTE   N92  Fn3
 BYTE   W06
 BYTE   W06
 BYTE   W06
 BYTE   W06
 BYTE   W06
 BYTE   W06
 BYTE   W06
 BYTE   W06
//  #02 //007   ----------------------------------------
 BYTE   PATT
  POIN2 Label_01000025
//  #02 //008   ----------------------------------------
 BYTE   EOT
 BYTE   Cs2  v054
 BYTE   W01
 BYTE   TIE  Cs2  v036
 BYTE   TIE  Gs2
 BYTE   N11  Fn3  v052
 BYTE   W06
 BYTE   W06
 BYTE   Gs3
 BYTE   W06
 BYTE   W06
 BYTE   N11
 BYTE   W06
 BYTE   W06
 BYTE   Fn3
 BYTE   W06
 BYTE   W06
 BYTE   N23  As3
 BYTE   W06
 BYTE   W06
 BYTE   W06
 BYTE   W06
 BYTE   N44  Gs3
 BYTE   W06
 BYTE   W06
 BYTE   W06
 BYTE   W06
//  #02 //009   ----------------------------------------
 BYTE   W06
 BYTE   W06
 BYTE   W06
 BYTE   W06
 BYTE   W06
 BYTE   W06
 BYTE   W06
 BYTE   W06
 BYTE   N15  As3
 BYTE   W06
 BYTE   W06
 BYTE   W04
 BYTE   Cs4
 BYTE   W02
 BYTE   W06
 BYTE   W06
 BYTE   W02
 BYTE   N07
 BYTE   W04
 BYTE   W04
 BYTE   As3
 BYTE   W02
 BYTE   W05
 BYTE   EOT
 BYTE   Cs2  v056
 BYTE   W01
//  #02 //010   ----------------------------------------
 BYTE   TIE  Cs2  v036
 BYTE   TIE  Fs2
 BYTE   TIE  Cs4  v052
 BYTE   W06
 BYTE   W06
 BYTE   W06
 BYTE   W06
 BYTE   W06
 BYTE   W06
 BYTE   W06
 BYTE   W06
 BYTE   W06
 BYTE   W06
 BYTE   W06
 BYTE   W06
 BYTE   W06
 BYTE   W06
 BYTE   W06
 BYTE   W06
//  #02 //011   ----------------------------------------
 BYTE   W06
 BYTE   W06
 BYTE   W06
 BYTE   W05
 BYTE   EOT
 BYTE   W01
 BYTE   W06
 BYTE   W06
 BYTE   W06
 BYTE   W06
 BYTE   N15  Gs3
 BYTE   W06
 BYTE   W06
 BYTE   W04
 BYTE   Fs3
 BYTE   W02
 BYTE   W06
 BYTE   W06
 BYTE   W02
 BYTE   N07  Cs3
 BYTE   W04
 BYTE   W04
 BYTE   Ds3
 BYTE   W02
 BYTE   W05
 BYTE   EOT
 BYTE   Cs2  v054
 BYTE   W01
//  #02 //012   ----------------------------------------
 BYTE   TIE  Cs2  v036
 BYTE   TIE  Fs2
 BYTE   N68  Fs3  v052
 BYTE   W06
 BYTE   W06
 BYTE   W06
 BYTE   W06
 BYTE   W06
 BYTE   W06
 BYTE   W06
 BYTE   W06
 BYTE   W06
 BYTE   W06
 BYTE   W06
 BYTE   W06
 BYTE   W06
 BYTE   W06
 BYTE   W06
 BYTE   W06
//  #02 //013   ----------------------------------------
 BYTE   N23
 BYTE   W06
 BYTE   W06
 BYTE   W06
 BYTE   W06
 BYTE   Fn3
 BYTE   W06
 BYTE   W06
 BYTE   W06
 BYTE   W06
 BYTE   N15  Gs3
 BYTE   W06
 BYTE   W06
 BYTE   W04
 BYTE   Fs3
 BYTE   W02
 BYTE   W06
 BYTE   W06
 BYTE   W02
 BYTE   N07  Cs3
 BYTE   W04
 BYTE   W04
 BYTE   Ds3
 BYTE   W02
 BYTE   W05
 BYTE   EOT
 BYTE   Cs2  v054
 BYTE   W01
//  #02 //014   ----------------------------------------
 BYTE   TIE  Cs2  v036
 BYTE   TIE  Fs2
 BYTE   N92  Fs3  v052
 BYTE   W06
 BYTE   W06
 BYTE   W06
 BYTE   W06
 BYTE   W06
 BYTE   W06
 BYTE   W06
 BYTE   W06
 BYTE   W06
 BYTE   W06
 BYTE   W06
 BYTE   W06
 BYTE   W06
 BYTE   W06
 BYTE   W06
 BYTE   W06
//  #02 //015   ----------------------------------------
 BYTE   W05
 BYTE   W05
 BYTE   W02
 BYTE   N11  Cs3
 BYTE   W02
 BYTE   W02
 BYTE   W01
 BYTE   W02
 BYTE   W02
 BYTE   W01
 BYTE   W02
 BYTE   N68  Ds3  v048
 BYTE   W03
 BYTE   W02
 BYTE   W03
 BYTE   W02
 BYTE   W03
 BYTE   W01
 BYTE   W02
 BYTE   W02
 BYTE   W01
 BYTE   W02
 BYTE   W02
 BYTE   W02
 BYTE   W01
 BYTE   W02
 BYTE   W02
 BYTE   W01
 BYTE   W02
 BYTE   W03
 BYTE   W02
 BYTE   W03
 BYTE   W03
 BYTE   W02
 BYTE   W03
 BYTE   W02
 BYTE   W01
 BYTE   W02
 BYTE   W02
 BYTE   W01
 BYTE   W02
 BYTE   W02
 BYTE   W02
 BYTE   W01
 BYTE   W02
 BYTE   W02
 BYTE   W01
 BYTE   W03
//  #02 //016   ----------------------------------------
 BYTE   W02
 BYTE   W05
 BYTE   W06
 BYTE   W05
 BYTE   W06
 BYTE   W05
 BYTE   W05
 BYTE   W06
 BYTE   W05
 BYTE   W06
 BYTE   W05
 BYTE   W06
 BYTE   W05
 BYTE   W06
 BYTE   W05
 BYTE   W06
 BYTE   W11
 BYTE   EOT
 BYTE   Cs2  v054
 BYTE   W01
//  #02 //017   ----------------------------------------
Label_010001B2:
 BYTE   TIE  Cs2  v052
 BYTE   TIE  Gs2
 BYTE   N23  Fn3
 BYTE   W24
 BYTE   Gs3
 BYTE   W24
 BYTE   N23
 BYTE   W24
 BYTE   Fn3
 BYTE   W24
 BYTE   PEND
//  #02 //018   ----------------------------------------
 BYTE   N44  As3
 BYTE   W48
 BYTE   TIE  Gs3
 BYTE   W48
//  #02 //019   ----------------------------------------
 BYTE   W92
 BYTE   W03
 BYTE   EOT
 BYTE   Cs2  v056
 BYTE   Gs3
 BYTE   W01
//  #02 //020   ----------------------------------------
 BYTE   TIE  Cs2
 BYTE   TIE  Fs2
 BYTE   N23  As2
 BYTE   W24
 BYTE   Cs3
 BYTE   W24
 BYTE   N23
 BYTE   W24
 BYTE   As2
 BYTE   W24
//  #02 //021   ----------------------------------------
 BYTE   TIE  Fn3
 BYTE   W96
//  #02 //022   ----------------------------------------
 BYTE   W68
 BYTE   W03
 BYTE   EOT
 BYTE   W24
 BYTE   EOT
 BYTE   Cs2  v054
 BYTE   W01
//  #02 //023   ----------------------------------------
 BYTE   PATT
  POIN2 Label_010001B2
//  #02 //024   ----------------------------------------
 BYTE   N44  As3  v052
 BYTE   W06
 BYTE   W06
 BYTE   W06
 BYTE   W06
 BYTE   W01
 BYTE   W06
 BYTE   W06
 BYTE   W01
 BYTE   W05
 BYTE   W05
 BYTE   TIE  Gs3  v056
 BYTE   W01
 BYTE   W02
 BYTE   W04
 BYTE   W06
 BYTE   W03
 BYTE   W04
 BYTE   W06
 BYTE   W02
 BYTE   W04
 BYTE   W06
 BYTE   W03
 BYTE   W03
 BYTE   W04
//  #02 //025   ----------------------------------------
 BYTE   W03
 BYTE   W03
 BYTE   W03
 BYTE   W06
 BYTE   W04
 BYTE   W02
 BYTE   W06
 BYTE   W05
 BYTE   W02
 BYTE   W06
 BYTE   W04
 BYTE   W02
 BYTE   W06
 BYTE   W05
 BYTE   W01
 BYTE   W07
 BYTE   W05
 BYTE   W01
 BYTE   EOT
 BYTE   W06
 BYTE   W06
 BYTE   W06
 BYTE   W06
 BYTE   Cs2  v056
 BYTE   W01
//  #02 //026   ----------------------------------------
 BYTE   TIE  Cs2  v064
 BYTE   N92  Gs2
 BYTE   N23  As3  v080
 BYTE   W03
 BYTE   W03
 BYTE   W03
 BYTE   W03
 BYTE   W03
 BYTE   W03
 BYTE   W03
 BYTE   W03
 BYTE   Cs4  v072
 BYTE   W03
 BYTE   W03
 BYTE   W01
 BYTE   W02
 BYTE   W03
 BYTE   W01
 BYTE   W02
 BYTE   W03
 BYTE   W01
 BYTE   W02
 BYTE   W03
 BYTE   Cs4  v064
 BYTE   W01
 BYTE   W02
 BYTE   W03
 BYTE   W01
 BYTE   W02
 BYTE   W03
 BYTE   W01
 BYTE   W02
 BYTE   W03
 BYTE   W02
 BYTE   W01
 BYTE   W03
 BYTE   As3  v056
 BYTE   W02
 BYTE   W01
 BYTE   W03
 BYTE   W02
 BYTE   W01
 BYTE   W03
 BYTE   W02
 BYTE   W01
 BYTE   W03
 BYTE   W02
 BYTE   W01
 BYTE   W03
//  #02 //027   ----------------------------------------
 BYTE   N92  As2  v052
 BYTE   N92  Cs4  v048
 BYTE   W03
 BYTE   W03
 BYTE   W03
 BYTE   W03
 BYTE   W03
 BYTE   W03
 BYTE   W03
 BYTE   W03
 BYTE   W03
 BYTE   W03
 BYTE   W03
 BYTE   W01
 BYTE   W02
 BYTE   W03
 BYTE   W01
 BYTE   W02
 BYTE   W03
 BYTE   W01
 BYTE   W02
 BYTE   W03
 BYTE   W01
 BYTE   W02
 BYTE   W03
 BYTE   W01
 BYTE   W02
 BYTE   W03
 BYTE   W02
 BYTE   W01
 BYTE   W03
 BYTE   W02
 BYTE   W01
 BYTE   W03
 BYTE   W02
 BYTE   W01
 BYTE   W03
 BYTE   W02
 BYTE   W01
 BYTE   W03
 BYTE   W02
 BYTE   W01
 BYTE   W03
 BYTE   W02
 BYTE   EOT
 BYTE   Cs2
 BYTE   W01
//  #02 //028   ----------------------------------------
 BYTE   PATT
  POIN2 Label_0100003A
//  #02 //029   ----------------------------------------
 BYTE   PATT
  POIN2 Label_01000025
//  #02 //030   ----------------------------------------
 BYTE   EOT
 BYTE   Cs2  v056
 BYTE   W01
 BYTE   TIE  Cs2  v036
 BYTE   TIE  Gs2
 BYTE   N11  Fn3  v064
 BYTE   W06
 BYTE   W06
 BYTE   Gs3
 BYTE   W06
 BYTE   W06
 BYTE   N11
 BYTE   W06
 BYTE   W06
 BYTE   Fn3
 BYTE   W06
 BYTE   W06
 BYTE   N23  As3
 BYTE   W06
 BYTE   W06
 BYTE   W06
 BYTE   W06
 BYTE   N92  Gs3
 BYTE   W06
 BYTE   W06
 BYTE   W06
 BYTE   W06
//  #02 //031   ----------------------------------------
 BYTE   PATT
  POIN2 Label_01000025
//  #02 //032   ----------------------------------------
 BYTE   EOT
 BYTE   Cs2  v056
 BYTE   W01
 BYTE   TIE  Cs2  v036
 BYTE   TIE  Fs2
 BYTE   N11  As2  v064
 BYTE   W06
 BYTE   W06
 BYTE   Cs3
 BYTE   W06
 BYTE   W06
 BYTE   N11
 BYTE   W06
 BYTE   W06
 BYTE   As2
 BYTE   W06
 BYTE   W06
 BYTE   N92  Fn3
 BYTE   W06
 BYTE   W06
 BYTE   W06
 BYTE   W06
 BYTE   W06
 BYTE   W06
 BYTE   W06
 BYTE   W06
//  #02 //033   ----------------------------------------
 BYTE   PATT
  POIN2 Label_01000025
//  #02 //034   ----------------------------------------
 BYTE   EOT
 BYTE   Cs2  v054
 BYTE   W01
 BYTE   TIE  Cs2  v036
 BYTE   TIE  Gs2
 BYTE   N11  Fn3  v064
 BYTE   W06
 BYTE   W06
 BYTE   Gs3
 BYTE   W06
 BYTE   W06
 BYTE   N11
 BYTE   W06
 BYTE   W06
 BYTE   Fn3
 BYTE   W06
 BYTE   W06
 BYTE   N23  As3
 BYTE   W06
 BYTE   W06
 BYTE   W06
 BYTE   W06
 BYTE   N68  Gs3
 BYTE   W06
 BYTE   W06
 BYTE   W06
 BYTE   W06
//  #02 //035   ----------------------------------------
 BYTE   PATT
  POIN2 Label_01000025
//  #02 //036   ----------------------------------------
 BYTE   EOT
 BYTE   Cs2  v056
 BYTE   W01
 BYTE   TIE  Cs2  v036
 BYTE   TIE  Fs2
 BYTE   N11  As2  v064
 BYTE   W06
 BYTE   W06
 BYTE   Cs3
 BYTE   W06
 BYTE   W06
 BYTE   N11
 BYTE   W06
 BYTE   W06
 BYTE   N05  As2
 BYTE   W06
 BYTE   Ds3
 BYTE   W06
 BYTE   N44  Fn3
 BYTE   W06
 BYTE   W06
 BYTE   W06
 BYTE   W06
 BYTE   W06
 BYTE   W06
 BYTE   W06
 BYTE   W06
//  #02 //037   ----------------------------------------
Label_01000331:
 BYTE   W06
 BYTE   W06
 BYTE   W06
 BYTE   W06
 BYTE   W06
 BYTE   W06
 BYTE   W06
 BYTE   W06
 BYTE   N15  As3  v064
 BYTE   W06
 BYTE   W06
 BYTE   W04
 BYTE   Gs3
 BYTE   W02
 BYTE   W06
 BYTE   W06
 BYTE   W02
 BYTE   N07  Cs3
 BYTE   W04
 BYTE   W04
 BYTE   Ds3
 BYTE   W02
 BYTE   W05
 BYTE   PEND
 BYTE   EOT
 BYTE   Cs2  v054
 BYTE   W01
//  #02 //038   ----------------------------------------
 BYTE   TIE  Cs2  v036
 BYTE   TIE  Fs2
 BYTE   N80  Fs3  v064
 BYTE   W06
 BYTE   W06
 BYTE   W06
 BYTE   W06
 BYTE   W06
 BYTE   W06
 BYTE   W06
 BYTE   W06
 BYTE   W06
 BYTE   W06
 BYTE   W06
 BYTE   W06
 BYTE   W06
 BYTE   W06
 BYTE   N11  Ds3
 BYTE   W06
 BYTE   W06
//  #02 //039   ----------------------------------------
 BYTE   N23  Fs3
 BYTE   W06
 BYTE   W06
 BYTE   W06
 BYTE   W06
 BYTE   N11  Fn3
 BYTE   W06
 BYTE   W06
 BYTE   W06
 BYTE   W06
 BYTE   N15  Gs3
 BYTE   W06
 BYTE   W06
 BYTE   W04
 BYTE   Fs3
 BYTE   W02
 BYTE   W06
 BYTE   W06
 BYTE   W02
 BYTE   N07  Cs3
 BYTE   W04
 BYTE   W04
 BYTE   Ds3
 BYTE   W02
 BYTE   W05
 BYTE   EOT
 BYTE   Cs2  v054
 BYTE   W01
//  #02 //040   ----------------------------------------
Label_0100038B:
 BYTE   TIE  Cs2  v036
 BYTE   TIE  Fs2
 BYTE   N92  Fs3  v064
 BYTE   W06
 BYTE   W06
 BYTE   W06
 BYTE   W06
 BYTE   W06
 BYTE   W06
 BYTE   W06
 BYTE   W06
 BYTE   W06
 BYTE   W06
 BYTE   W06
 BYTE   W06
 BYTE   W06
 BYTE   W06
 BYTE   W06
 BYTE   W06
 BYTE   PEND
//  #02 //041   ----------------------------------------
 BYTE   W06
 BYTE   W06
 BYTE   W06
 BYTE   W06
 BYTE   W06
 BYTE   W06
 BYTE   W06
 BYTE   W06
 BYTE   N23
 BYTE   W06
 BYTE   W06
 BYTE   W06
 BYTE   W06
 BYTE   Fn3
 BYTE   W06
 BYTE   W06
 BYTE   W06
 BYTE   W05
 BYTE   EOT
 BYTE   Cs2  v054
 BYTE   W01
//  #02 //042   ----------------------------------------
 BYTE   N23  Cn2  v036
 BYTE   N11  Cs3  v064
 BYTE   W01
 BYTE   W01
 BYTE   W01
 BYTE   W01
 BYTE   W01
 BYTE   W01
 BYTE   W01
 BYTE   W01
 BYTE   W01
 BYTE   W01
 BYTE   W01
 BYTE   W01
 BYTE   Gs3  v068
 BYTE   W01
 BYTE   W01
 BYTE   W01
 BYTE   W01
 BYTE   W01
 BYTE   W01
 BYTE   W01
 BYTE   W01
 BYTE   W01
 BYTE   W01
 BYTE   W01
 BYTE   W01
 BYTE   N23  As1  v056
 BYTE   N11  Fs3  v072
 BYTE   W01
 BYTE   W01
 BYTE   W01
 BYTE   W01
 BYTE   W01
 BYTE   W01
 BYTE   W01
 BYTE   W01
 BYTE   W01
 BYTE   W01
 BYTE   W01
 BYTE   W01
 BYTE   As3  v076
 BYTE   W01
 BYTE   W01
 BYTE   W01
 BYTE   W01
 BYTE   W01
 BYTE   W01
 BYTE   W01
 BYTE   W01
 BYTE   W01
 BYTE   W01
 BYTE   W01
 BYTE   W01
 BYTE   TIE  Gs1  v080
 BYTE   N44  Cn4
 BYTE   W96
//  #02 //043   ----------------------------------------
 BYTE   W48
 BYTE   N11  As3
 BYTE   W12
 BYTE   N32  Cn4
 BYTE   W12
 BYTE   W23
 BYTE   EOT
 BYTE   Gs1
 BYTE   W01
//  #02 //044   ----------------------------------------
 BYTE   N23  Cn2
 BYTE   N11  Cs3
 BYTE   W12
 BYTE   Gs3
 BYTE   W12
 BYTE   N23  As1
 BYTE   N11  Fs3
 BYTE   W12
 BYTE   As3
 BYTE   W12
 BYTE   TIE  Gs1
 BYTE   N44  Cn4
 BYTE   W48
//  #02 //045   ----------------------------------------
 BYTE   W48
 BYTE   N15  As3
 BYTE   W03
 BYTE   W03
 BYTE   W03
 BYTE   W03
 BYTE   W03
 BYTE   W01
 BYTE   Gs3  v076
 BYTE   W02
 BYTE   W03
 BYTE   W03
 BYTE   W03
 BYTE   W03
 BYTE   W02
 BYTE   N07  Cs3  v072
 BYTE   W01
 BYTE   W03
 BYTE   W03
 BYTE   W01
 BYTE   Ds3  v068
 BYTE   W02
 BYTE   W03
 BYTE   W02
 BYTE   EOT
 BYTE   Gs1
 BYTE   W01
//  #02 //046   ----------------------------------------
 BYTE   PATT
  POIN2 Label_0100038B
//  #02 //047   ----------------------------------------
Label_01000443:
 BYTE   W06
 BYTE   W06
 BYTE   W06
 BYTE   W06
 BYTE   W06
 BYTE   W06
 BYTE   W06
 BYTE   W06
 BYTE   N15  Gs3  v064
 BYTE   W06
 BYTE   W06
 BYTE   W04
 BYTE   Fs3
 BYTE   W02
 BYTE   W06
 BYTE   W06
 BYTE   W02
 BYTE   N07  Cs3
 BYTE   W04
 BYTE   W04
 BYTE   Ds3
 BYTE   W02
 BYTE   W05
 BYTE   PEND
 BYTE   EOT
 BYTE   Cs2  v054
 BYTE   W01
//  #02 //048   ----------------------------------------
 BYTE   TIE  Cs2  v036
 BYTE   TIE  Fs2
 BYTE   TIE  Fs3  v064
 BYTE   W06
 BYTE   W06
 BYTE   W06
 BYTE   W06
 BYTE   W06
 BYTE   W06
 BYTE   W06
 BYTE   W06
 BYTE   W06
 BYTE   W06
 BYTE   W06
 BYTE   W06
 BYTE   W06
 BYTE   W06
 BYTE   W06
 BYTE   W06
//  #02 //049   ----------------------------------------
 BYTE   W03
 BYTE   W03
 BYTE   W03
 BYTE   W03
 BYTE   W03
 BYTE   W03
 BYTE   W03
 BYTE   W02
 BYTE   EOT
 BYTE   W01
 BYTE   W03
 BYTE   W03
 BYTE   W03
 BYTE   W03
 BYTE   W03
 BYTE   W03
 BYTE   W03
 BYTE   W02
 BYTE   Cs2  v054
 BYTE   W01
 BYTE   N23  Cn2  v036
 BYTE   N11  Cs3  v064
 BYTE   W01
 BYTE   W01
 BYTE   W01
 BYTE   W01
 BYTE   W01
 BYTE   W01
 BYTE   W01
 BYTE   W01
 BYTE   W01
 BYTE   W01
 BYTE   W01
 BYTE   W01
 BYTE   Gs3  v068
 BYTE   W01
 BYTE   W01
 BYTE   W01
 BYTE   W01
 BYTE   W01
 BYTE   W01
 BYTE   W01
 BYTE   W01
 BYTE   W01
 BYTE   W01
 BYTE   W01
 BYTE   W01
 BYTE   N23  As1  v056
 BYTE   N11  Fs3  v072
 BYTE   W01
 BYTE   W01
 BYTE   W01
 BYTE   W01
 BYTE   W01
 BYTE   W01
 BYTE   W01
 BYTE   W01
 BYTE   W01
 BYTE   W01
 BYTE   W01
 BYTE   W01
 BYTE   As3  v076
 BYTE   W01
 BYTE   W01
 BYTE   W01
 BYTE   W01
 BYTE   W01
 BYTE   W01
 BYTE   W01
 BYTE   W01
 BYTE   W01
 BYTE   W01
 BYTE   W01
 BYTE   W01
//  #02 //050   ----------------------------------------
 BYTE   TIE  Gs1  v080
 BYTE   N23  Cn4
 BYTE   W48
 BYTE   N11  Cs3
 BYTE   W12
 BYTE   Gs3
 BYTE   W12
 BYTE   Fs3
 BYTE   W12
 BYTE   As3
 BYTE   W12
//  #02 //051   ----------------------------------------
 BYTE   N23  Cn4
 BYTE   W48
 BYTE   N11
 BYTE   W12
 BYTE   Cs4
 BYTE   W12
 BYTE   As3
 BYTE   W12
 BYTE   Cn4
 BYTE   W11
 BYTE   EOT
 BYTE   Gs1
 BYTE   W01
//  #02 //052   ----------------------------------------
 BYTE   N23  Cn2
 BYTE   N07  Cs3
 BYTE   W08
 BYTE   Gs3
 BYTE   W08
 BYTE   N15  Fs3
 BYTE   W08
 BYTE   N23  As1
 BYTE   W08
 BYTE   N15  As3
 BYTE   W16
 BYTE   TIE  Gs1
 BYTE   N44  Cn4
 BYTE   W96
//  #02 //053   ----------------------------------------
 BYTE   N15  Gs3  v064
 BYTE   W16
 BYTE   Fs3
 BYTE   W06
 BYTE   W10
 BYTE   N07  Cs3
 BYTE   W08
 BYTE   Ds3
 BYTE   W04
 BYTE   W04
 BYTE   N23  Fs3
 BYTE   W19
 BYTE   W05
 BYTE   N68  Fs4
 BYTE   N68  Gs4
 BYTE   W01
 BYTE   W02
 BYTE   W01
 BYTE   W02
 BYTE   W01
 BYTE   W02
 BYTE   W01
 BYTE   W02
 BYTE   W01
 BYTE   W02
 BYTE   W01
 BYTE   W01
 BYTE   W01
 BYTE   W01
 BYTE   W02
 BYTE   W01
 BYTE   W01
 BYTE   EOT
 BYTE   Gs1
 BYTE   W01
//  #02 //054   ----------------------------------------
 BYTE   N15  Gs3  v060
 BYTE   W01
 BYTE   W02
 BYTE   W01
 BYTE   W02
 BYTE   W01
 BYTE   W02
 BYTE   W01
 BYTE   W02
 BYTE   W01
 BYTE   W02
 BYTE   W01
 BYTE   Fs3
 BYTE   W02
 BYTE   W01
 BYTE   W02
 BYTE   W01
 BYTE   W02
 BYTE   W01
 BYTE   W02
 BYTE   W01
 BYTE   W02
 BYTE   W01
 BYTE   W01
 BYTE   N07  Cs3
 BYTE   W01
 BYTE   W01
 BYTE   W02
 BYTE   W01
 BYTE   W01
 BYTE   W01
 BYTE   W01
 BYTE   Ds3
 BYTE   W02
 BYTE   W01
 BYTE   W02
 BYTE   W01
 BYTE   W02
 BYTE   N23  Fs3
 BYTE   W12
 BYTE   W12
 BYTE   TIE  Fs4  v064
 BYTE   TIE  Gs4
 BYTE   W02
 BYTE   W03
 BYTE   W02
 BYTE   W03
 BYTE   W01
 BYTE   W01
 BYTE   W03
 BYTE   W02
 BYTE   W03
 BYTE   W02
 BYTE   W02
//  #02 //055   ----------------------------------------
 BYTE   N11  Gs3  v056
 BYTE   W01
 BYTE   W02
 BYTE   W03
 BYTE   W02
 BYTE   W01
 BYTE   W02
 BYTE   W01
 BYTE   Fs3
 BYTE   W01
 BYTE   W03
 BYTE   W02
 BYTE   W03
 BYTE   W02
 BYTE   W01
 BYTE   Cs3
 BYTE   W02
 BYTE   W02
 BYTE   W03
 BYTE   W01
 BYTE   W01
 BYTE   W03
 BYTE   Ds3
 BYTE   W02
 BYTE   W03
 BYTE   W02
 BYTE   W03
 BYTE   W02
 BYTE   N23  Fs3
 BYTE   W03
 BYTE   W02
 BYTE   W01
 BYTE   W02
 BYTE   W02
 BYTE   W03
 BYTE   W02
 BYTE   W03
 BYTE   W02
 BYTE   W03
 BYTE   W02
 BYTE   W03
 BYTE   W02
 BYTE   W03
 BYTE   W02
 BYTE   W03
 BYTE   W02
 BYTE   W03
 BYTE   W02
 BYTE   W02
 BYTE   EOT
 BYTE   Fs4  v080
 BYTE   W01
//  #02 //056   ----------------------------------------
 BYTE   N11  Gs3  v052
 BYTE   W03
 BYTE   W09
 BYTE   Fs3
 BYTE   W12
 BYTE   Cs3
 BYTE   W01
 BYTE   W11
 BYTE   Ds3
 BYTE   W12
 BYTE   N23  Fs3
 BYTE   W48
//  #02 //057   ----------------------------------------
 BYTE   Gs2
 BYTE   W24
 BYTE   Ds3
 BYTE   W24
 BYTE   Fs3
 BYTE   W24
 BYTE   Ds3
 BYTE   W24
//  #02 //058   ----------------------------------------
 BYTE   W96
//  #02 //059   ----------------------------------------
 BYTE   W48
 BYTE   TIE  Cs2
 BYTE   TIE  Gs2
 BYTE   N11  Fn3  v064
 BYTE   W06
 BYTE   W06
 BYTE   N17  Gs3
 BYTE   W07
 BYTE   W06
 BYTE   W05
 BYTE   N05
 BYTE   W02
 BYTE   W04
 BYTE   N11  Fn3
 BYTE   W02
 BYTE   W06
 BYTE   W04
//  #02 //060   ----------------------------------------
 BYTE   N23  As3
 BYTE   W03
 BYTE   W06
 BYTE   W07
 BYTE   W06
 BYTE   W02
 BYTE   N44  Gs3
 BYTE   W04
 BYTE   W07
 BYTE   W06
 BYTE   W07
Label_010005DB:
 BYTE   W06
 BYTE   W06
 BYTE   W07
 BYTE   W06
 BYTE   W07
 BYTE   W06
 BYTE   W06
 BYTE   W04
//  #02 //061   ----------------------------------------
 BYTE   N23  As3  v064
 BYTE   W03
 BYTE   W06
 BYTE   W07
 BYTE   W06
 BYTE   W02
 BYTE   Gs3
 BYTE   W04
 BYTE   W07
 BYTE   W06
 BYTE   W06
 BYTE   PEND
 BYTE   EOT
 BYTE   Cs2  v056
 BYTE   W01
 BYTE   TIE  Cs2  v052
 BYTE   TIE  Fs2
 BYTE   N11  As2  v064
 BYTE   W06
 BYTE   W06
 BYTE   Cs3
 BYTE   W07
 BYTE   W05
 BYTE   N11
 BYTE   W01
 BYTE   W07
 BYTE   W04
 BYTE   As2
 BYTE   W02
 BYTE   W06
 BYTE   W04
//  #02 //062   ----------------------------------------
 BYTE   N23  Fn3
 BYTE   W03
 BYTE   W06
 BYTE   W07
 BYTE   W06
 BYTE   W06
 BYTE   W07
 BYTE   W06
 BYTE   W07
 BYTE   W06
 BYTE   W06
 BYTE   W07
 BYTE   W06
 BYTE   W07
 BYTE   W06
 BYTE   W06
 BYTE   W07
//  #02 //063   ----------------------------------------
 BYTE   W06
 BYTE   W07
 BYTE   W06
 BYTE   W06
 BYTE   W07
 BYTE   W06
 BYTE   W06
 BYTE   EOT
 BYTE   Cs2  v054
 BYTE   W01
 BYTE   TIE  Cs2  v052
 BYTE   TIE  Gs2
 BYTE   N11  Fn3  v064
 BYTE   W06
 BYTE   W06
 BYTE   Gs3
 BYTE   W07
 BYTE   W05
 BYTE   N11
 BYTE   W01
 BYTE   W07
 BYTE   W04
 BYTE   Fn3
 BYTE   W02
 BYTE   W06
 BYTE   W04
 BYTE   N23  As3
 BYTE   W03
//  #02 //064   ----------------------------------------
 BYTE   W06
 BYTE   W07
 BYTE   W06
 BYTE   W02
 BYTE   N44  Gs3
 BYTE   W04
 BYTE   W07
 BYTE   W06
 BYTE   W07
//  #02 //065   ----------------------------------------
 BYTE   PATT
  POIN2 Label_010005DB
//  #02 //066   ----------------------------------------
 BYTE   EOT
 BYTE   Cs2  v056
 BYTE   W01
 BYTE   TIE  Cs2  v052
 BYTE   TIE  Fs2
 BYTE   N11  As3  v064
 BYTE   W12
 BYTE   Cs4
 BYTE   W12
 BYTE   N11
 BYTE   W12
 BYTE   As3
 BYTE   W12
 BYTE   N23  Cs4
 BYTE   W48
//  #02 //067   ----------------------------------------
 BYTE   PATT
  POIN2 Label_01000331
//  #02 //068   ----------------------------------------
 BYTE   EOT
 BYTE   Cs2  v054
 BYTE   W01
//  #02 //069   ----------------------------------------
 BYTE   PATT
  POIN2 Label_0100038B
//  #02 //070   ----------------------------------------
 BYTE   PATT
  POIN2 Label_01000443
//  #02 //071   ----------------------------------------
 BYTE   EOT
 BYTE   Cs2  v054
 BYTE   W01
//  #02 //072   ----------------------------------------
 BYTE   PATT
  POIN2 Label_0100038B
//  #02 //073   ----------------------------------------
 BYTE   W02
 BYTE   W03
 BYTE   W03
 BYTE   W03
 BYTE   W03
 BYTE   W03
 BYTE   W03
 BYTE   W03
 BYTE   W03
 BYTE   W03
 BYTE   W03
 BYTE   W02
 BYTE   W03
 BYTE   W03
 BYTE   W03
 BYTE   W03
 BYTE   W03
 BYTE   W03
 BYTE   W03
 BYTE   W03
 BYTE   W03
 BYTE   W03
 BYTE   W02
 BYTE   W03
 BYTE   W03
 BYTE   W03
 BYTE   W03
 BYTE   W03
 BYTE   W03
 BYTE   W03
 BYTE   W03
 BYTE   W03
 BYTE   W02
 BYTE   EOT
 BYTE   Cs2  v054
 BYTE   W01
//  #02 //074   ----------------------------------------
 BYTE   N23  Ds4  v064
 BYTE   W24
 BYTE   Fn4
 BYTE   W24
 BYTE   N23
 BYTE   W24
 BYTE   Cs4
 BYTE   W24
//  #02 //075   ----------------------------------------
 BYTE   N44  Fn4
 BYTE   W48
 BYTE   N92  Ds4
 BYTE   W48
//  #02 //076   ----------------------------------------
 BYTE   W96
//  #02 //077   ----------------------------------------
 BYTE   W48
 BYTE   GoTo
  POIN2 Label_01000002
 BYTE   FINE

//**************** Track 3 (Midi-Chn.2) ****************//

NoOneIsAlone_003:
//  #03 //000   ----------------------------------------
 BYTE   KEYSH   NoOneIsAlone_key+0
Label_D3EBFE:
 BYTE   VOICE   50
 BYTE   VOL   48*NoOneIsAlone_mvl/mxv
 BYTE   PAN   c_v+0
 BYTE   VOL   36*NoOneIsAlone_mvl/mxv
 BYTE   PAN   c_v+0
 BYTE   W96
//  #03 //001   ----------------------------------------
 BYTE   W96
//  #03 //002   ----------------------------------------
 BYTE   W96
//  #03 //003   ----------------------------------------
 BYTE   W96
//  #03 //004   ----------------------------------------
 BYTE   W96
//  #03 //005   ----------------------------------------
 BYTE   W96
//  #03 //006   ----------------------------------------
 BYTE   W96
//  #03 //007   ----------------------------------------
 BYTE   W96
//  #03 //008   ----------------------------------------
 BYTE   W96
//  #03 //009   ----------------------------------------
 BYTE   W96
//  #03 //010   ----------------------------------------
 BYTE   W96
//  #03 //011   ----------------------------------------
 BYTE   W96
//  #03 //012   ----------------------------------------
 BYTE   W96
//  #03 //013   ----------------------------------------
 BYTE   W96
//  #03 //014   ----------------------------------------
 BYTE   W96
//  #03 //015   ----------------------------------------
 BYTE   W96
//  #03 //016   ----------------------------------------
 BYTE   W96
//  #03 //017   ----------------------------------------
 BYTE   W96
//  #03 //018   ----------------------------------------
 BYTE   W96
//  #03 //019   ----------------------------------------
 BYTE   W96
//  #03 //020   ----------------------------------------
 BYTE   W96
//  #03 //021   ----------------------------------------
 BYTE   W96
//  #03 //022   ----------------------------------------
 BYTE   W96
//  #03 //023   ----------------------------------------
 BYTE   W96
//  #03 //024   ----------------------------------------
 BYTE   W96
//  #03 //025   ----------------------------------------
 BYTE   W96
//  #03 //026   ----------------------------------------
 BYTE   W96
//  #03 //027   ----------------------------------------
 BYTE   W96
//  #03 //028   ----------------------------------------
 BYTE   W96
//  #03 //029   ----------------------------------------
 BYTE   W96
//  #03 //030   ----------------------------------------
 BYTE   W96
//  #03 //031   ----------------------------------------
Label_D3EC27:
 BYTE   N23  As1  v064
 BYTE   W24
 BYTE   Cs2
 BYTE   W24
 BYTE   Ds2
 BYTE   W24
 BYTE   N44  Cs2
 BYTE   W24
 BYTE   PEND
//  #03 //032   ----------------------------------------
 BYTE   W96
//  #03 //033   ----------------------------------------
 BYTE   N23  Gs2
 BYTE   W24
 BYTE   Fs2
 BYTE   W24
 BYTE   Cs2
 BYTE   W24
 BYTE   Ds2
 BYTE   W24
//  #03 //034   ----------------------------------------
 BYTE   N44  Fn2
 BYTE   W96
//  #03 //035   ----------------------------------------
 BYTE   PATT
  POIN2 Label_D3EC27
//  #03 //036   ----------------------------------------
 BYTE   W96
//  #03 //037   ----------------------------------------
 BYTE   N11  Fn2  v064
 BYTE   W12
 BYTE   Gs2
 BYTE   W12
 BYTE   N11
 BYTE   W12
 BYTE   Fn2
 BYTE   W12
 BYTE   N15  As2
 BYTE   W16
 BYTE   Gs2
 BYTE   W16
 BYTE   N07  Cs2
 BYTE   W08
 BYTE   Ds2
 BYTE   W08
//  #03 //038   ----------------------------------------
 BYTE   N92  Fs2
 BYTE   W96
//  #03 //039   ----------------------------------------
 BYTE   W96
//  #03 //040   ----------------------------------------
 BYTE   N11  Gs2
 BYTE   W12
 BYTE   Fs2
 BYTE   W12
 BYTE   Cs2
 BYTE   W12
 BYTE   Ds2
 BYTE   W12
 BYTE   N32  Fs2
 BYTE   W24
 BYTE   W12
 BYTE   N11  Ds2
 BYTE   W12
//  #03 //041   ----------------------------------------
 BYTE   Fs2
 BYTE   W12
 BYTE   N11
 BYTE   W12
 BYTE   N17  Fn2
 BYTE   W18
 BYTE   N02  Ds2
 BYTE   W54
//  #03 //042   ----------------------------------------
 BYTE   N11  Cs2
 BYTE   W03
 BYTE   W03
 BYTE   W03
 BYTE   W03
 BYTE   Gs2  v068
 BYTE   W03
 BYTE   W03
 BYTE   W03
 BYTE   W03
 BYTE   Fs2  v072
 BYTE   W03
 BYTE   W03
 BYTE   W03
 BYTE   W03
 BYTE   As2  v076
 BYTE   W03
 BYTE   W03
 BYTE   W03
 BYTE   W03
 BYTE   N44  Cn3  v080
 BYTE   W96
//  #03 //043   ----------------------------------------
 BYTE   N23
 BYTE   W24
 BYTE   Cs3
 BYTE   W72
//  #03 //044   ----------------------------------------
 BYTE   N11  Cs2
 BYTE   W12
 BYTE   Gs2
 BYTE   W12
 BYTE   Fs2
 BYTE   W12
 BYTE   As2
 BYTE   W12
 BYTE   N44  Cn3
 BYTE   W48
//  #03 //045   ----------------------------------------
 BYTE   W48
 BYTE   N15  Fs2
 BYTE   W03
 BYTE   W03
 BYTE   W03
 BYTE   W03
 BYTE   W03
 BYTE   W01
 BYTE   Fn2  v076
 BYTE   W02
 BYTE   W03
 BYTE   W03
 BYTE   W03
 BYTE   W03
 BYTE   W02
 BYTE   N07  As1  v072
 BYTE   W01
 BYTE   W03
 BYTE   W03
 BYTE   W01
 BYTE   As1  v068
 BYTE   W02
 BYTE   W03
 BYTE   W03
//  #03 //046   ----------------------------------------
Label_D3ECC1:
 BYTE   N92  Ds2  v064
 BYTE   W96
 BYTE   PEND
//  #03 //047   ----------------------------------------
Label_D3ECC6:
 BYTE   W48
 BYTE   N15  Fn2  v064
 BYTE   W16
 BYTE   Ds2
 BYTE   W16
 BYTE   N07  As1
 BYTE   W08
 BYTE   N07
 BYTE   W08
 BYTE   PEND
//  #03 //048   ----------------------------------------
 BYTE   TIE  Ds2
 BYTE   W96
//  #03 //049   ----------------------------------------
 BYTE   W23
 BYTE   EOT
 BYTE   W72
 BYTE   W01
//  #03 //050   ----------------------------------------
 BYTE   N11  Cs2  v080
 BYTE   W12
 BYTE   Gs2
 BYTE   W12
 BYTE   Fs2
 BYTE   W12
 BYTE   As2
 BYTE   W12
 BYTE   N23  Cn3
 BYTE   W48
//  #03 //051   ----------------------------------------
 BYTE   W48
 BYTE   N11
 BYTE   W12
 BYTE   Cs3
 BYTE   W12
 BYTE   As2
 BYTE   W12
 BYTE   Cn3
 BYTE   W12
//  #03 //052   ----------------------------------------
 BYTE   N07  Cs2
 BYTE   W08
 BYTE   Gs2
 BYTE   W08
 BYTE   N15  Fs2
 BYTE   W16
 BYTE   As2
 BYTE   W16
 BYTE   N44  Cn3
 BYTE   W96
//  #03 //053   ----------------------------------------
 BYTE   N15  Gs2  v064
 BYTE   W16
 BYTE   Fs2
 BYTE   W06
 BYTE   W10
 BYTE   N07  Gs1
 BYTE   W08
 BYTE   N07
 BYTE   W04
 BYTE   W04
 BYTE   N23  Ds2
 BYTE   W19
 BYTE   W22
 BYTE   W07
//  #03 //054   ----------------------------------------
 BYTE   N15  Fn2  v060
 BYTE   W16
 BYTE   Ds2
 BYTE   W16
 BYTE   N07  Gs1
 BYTE   W06
 BYTE   W02
 BYTE   N07
 BYTE   W08
 BYTE   N23  Ds2
 BYTE   W12
 BYTE   W23
 BYTE   W13
//  #03 //055   ----------------------------------------
 BYTE   N11  Fn2  v056
 BYTE   W09
 BYTE   W03
 BYTE   Ds2
 BYTE   W12
 BYTE   Gs1
 BYTE   W08
 BYTE   W04
 BYTE   N11
 BYTE   W12
 BYTE   N23  Ds2
 BYTE   W06
 BYTE   W22
 BYTE   W20
//  #03 //056   ----------------------------------------
 BYTE   N11  Fn2  v052
 BYTE   W03
 BYTE   W09
 BYTE   Ds2
 BYTE   W12
 BYTE   Gs1
 BYTE   W01
 BYTE   W11
 BYTE   N11
 BYTE   W12
 BYTE   N23  Ds2
 BYTE   W48
//  #03 //057   ----------------------------------------
 BYTE   W96
//  #03 //058   ----------------------------------------
 BYTE   Cs2
 BYTE   W24
 BYTE   Ds2
 BYTE   W24
 BYTE   Fs2
 BYTE   W24
 BYTE   N44  Ds2
 BYTE   W72
//  #03 //059   ----------------------------------------
 BYTE   N11  Fn2  v064
 BYTE   W12
 BYTE   N17  Gs2
 BYTE   W18
 BYTE   N05
 BYTE   W06
 BYTE   N11  Fn2
 BYTE   W12
 BYTE   N23  As2
 BYTE   W24
 BYTE   N44  Gs2
 BYTE   W24
//  #03 //060   ----------------------------------------
Label_D3ED5C:
 BYTE   W48
 BYTE   N23  As2  v064
 BYTE   W24
 BYTE   Gs2
 BYTE   W24
 BYTE   PEND
//  #03 //061   ----------------------------------------
 BYTE   N11  As1
 BYTE   W12
 BYTE   Cs2
 BYTE   W12
 BYTE   N11
 BYTE   W12
 BYTE   As1
 BYTE   W12
 BYTE   N23  Fn2
 BYTE   W48
//  #03 //062   ----------------------------------------
 BYTE   W96
//  #03 //063   ----------------------------------------
 BYTE   N11
 BYTE   W12
 BYTE   Gs2
 BYTE   W12
 BYTE   N11
 BYTE   W12
 BYTE   Fn2
 BYTE   W12
 BYTE   N23  As2
 BYTE   W24
 BYTE   N44  Gs2
 BYTE   W24
//  #03 //064   ----------------------------------------
 BYTE   PATT
  POIN2 Label_D3ED5C
//  #03 //065   ----------------------------------------
 BYTE   N11  As1  v064
 BYTE   W12
 BYTE   Cs2
 BYTE   W12
 BYTE   N11
 BYTE   W12
 BYTE   As1
 BYTE   W12
 BYTE   N23  Cs2
 BYTE   W48
//  #03 //066   ----------------------------------------
 BYTE   W48
 BYTE   N15  Fs2
 BYTE   W16
 BYTE   Fn2
 BYTE   W16
 BYTE   N07  As1
 BYTE   W08
 BYTE   N07
 BYTE   W08
//  #03 //067   ----------------------------------------
 BYTE   PATT
  POIN2 Label_D3ECC1
//  #03 //068   ----------------------------------------
 BYTE   PATT
  POIN2 Label_D3ECC6
//  #03 //069   ----------------------------------------
 BYTE   PATT
  POIN2 Label_D3ECC1
//  #03 //070   ----------------------------------------
 BYTE   W96
//  #03 //071   ----------------------------------------
 BYTE   N23  Ds3  v064
 BYTE   W24
 BYTE   Fn3
 BYTE   W24
 BYTE   N23
 BYTE   W24
 BYTE   Cs3
 BYTE   W24
//  #03 //072   ----------------------------------------
 BYTE   N44  Fn3
 BYTE   W48
 BYTE   N92  Ds3
 BYTE   W48
//  #03 //073   ----------------------------------------
 BYTE   W96
//  #03 //074   ----------------------------------------
 BYTE   W48
 BYTE   GoTo
  POIN2 Label_D3EBFE
 BYTE   FINE

//**************** Track 4 (Midi-Chn.3) ****************//

NoOneIsAlone_004:
//  #04 //000   ----------------------------------------
 BYTE   KEYSH   NoOneIsAlone_key+0
Label_D3E582:
 BYTE   VOICE   45
 BYTE   VOL   46*NoOneIsAlone_mvl/mxv
 BYTE   PAN   c_v+0
 BYTE   VOL   36*NoOneIsAlone_mvl/mxv
 BYTE   PAN   c_v+0
 BYTE   W96
//  #04 //001   ----------------------------------------
 BYTE   W96
//  #04 //002   ----------------------------------------
 BYTE   W96
//  #04 //003   ----------------------------------------
 BYTE   W96
//  #04 //004   ----------------------------------------
 BYTE   W96
//  #04 //005   ----------------------------------------
 BYTE   W96
//  #04 //006   ----------------------------------------
 BYTE   W96
//  #04 //007   ----------------------------------------
 BYTE   W96
//  #04 //008   ----------------------------------------
 BYTE   W96
//  #04 //009   ----------------------------------------
 BYTE   W96
//  #04 //010   ----------------------------------------
 BYTE   W96
//  #04 //011   ----------------------------------------
 BYTE   W96
//  #04 //012   ----------------------------------------
 BYTE   W96
//  #04 //013   ----------------------------------------
 BYTE   W96
//  #04 //014   ----------------------------------------
 BYTE   W96
//  #04 //015   ----------------------------------------
 BYTE   W96
//  #04 //016   ----------------------------------------
 BYTE   W96
//  #04 //017   ----------------------------------------
 BYTE   W96
//  #04 //018   ----------------------------------------
 BYTE   W96
//  #04 //019   ----------------------------------------
 BYTE   W96
//  #04 //020   ----------------------------------------
 BYTE   W96
//  #04 //021   ----------------------------------------
 BYTE   W96
//  #04 //022   ----------------------------------------
 BYTE   W96
//  #04 //023   ----------------------------------------
 BYTE   W96
//  #04 //024   ----------------------------------------
 BYTE   W96
//  #04 //025   ----------------------------------------
 BYTE   W96
//  #04 //026   ----------------------------------------
 BYTE   W96
//  #04 //027   ----------------------------------------
 BYTE   W96
//  #04 //028   ----------------------------------------
 BYTE   W96
//  #04 //029   ----------------------------------------
 BYTE   W96
//  #04 //030   ----------------------------------------
 BYTE   W96
//  #04 //031   ----------------------------------------
 BYTE   W96
//  #04 //032   ----------------------------------------
 BYTE   W96
//  #04 //033   ----------------------------------------
 BYTE   W96
//  #04 //034   ----------------------------------------
 BYTE   W96
//  #04 //035   ----------------------------------------
 BYTE   W96
//  #04 //036   ----------------------------------------
 BYTE   W96
//  #04 //037   ----------------------------------------
 BYTE   W96
//  #04 //038   ----------------------------------------
 BYTE   W96
//  #04 //039   ----------------------------------------
 BYTE   W96
//  #04 //040   ----------------------------------------
 BYTE   W96
//  #04 //041   ----------------------------------------
 BYTE   W96
//  #04 //042   ----------------------------------------
 BYTE   W48
 BYTE   W96
//  #04 //043   ----------------------------------------
 BYTE   W96
//  #04 //044   ----------------------------------------
 BYTE   W96
//  #04 //045   ----------------------------------------
 BYTE   W96
//  #04 //046   ----------------------------------------
 BYTE   W96
//  #04 //047   ----------------------------------------
 BYTE   W96
//  #04 //048   ----------------------------------------
 BYTE   W96
//  #04 //049   ----------------------------------------
 BYTE   W96
//  #04 //050   ----------------------------------------
 BYTE   W96
//  #04 //051   ----------------------------------------
 BYTE   W96
//  #04 //052   ----------------------------------------
 BYTE   W96
//  #04 //053   ----------------------------------------
 BYTE   W48
 BYTE   W96
//  #04 //054   ----------------------------------------
 BYTE   W96
//  #04 //055   ----------------------------------------
 BYTE   W96
//  #04 //056   ----------------------------------------
 BYTE   W96
//  #04 //057   ----------------------------------------
 BYTE   W96
//  #04 //058   ----------------------------------------
 BYTE   W96
//  #04 //059   ----------------------------------------
 BYTE   W48
 BYTE   W96
//  #04 //060   ----------------------------------------
Label_D3E5CB:
 BYTE   N23  As3  v064
 BYTE   W24
 BYTE   Gs3
 BYTE   W72
 BYTE   PEND
//  #04 //061   ----------------------------------------
 BYTE   W96
//  #04 //062   ----------------------------------------
 BYTE   W96
//  #04 //063   ----------------------------------------
 BYTE   W96
//  #04 //064   ----------------------------------------
 BYTE   PATT
  POIN2 Label_D3E5CB
//  #04 //065   ----------------------------------------
 BYTE   N11  Gs3  v064
 BYTE   W12
 BYTE   Fs3
 BYTE   W12
 BYTE   Fn3
 BYTE   W12
 BYTE   Fs3
 BYTE   W12
 BYTE   N23  Fn3
 BYTE   W48
//  #04 //066   ----------------------------------------
 BYTE   W96
//  #04 //067   ----------------------------------------
 BYTE   W96
//  #04 //068   ----------------------------------------
 BYTE   W96
//  #04 //069   ----------------------------------------
 BYTE   W96
//  #04 //070   ----------------------------------------
 BYTE   W96
//  #04 //071   ----------------------------------------
 BYTE   Ds3
 BYTE   W24
 BYTE   Fn3
 BYTE   W24
 BYTE   N23
 BYTE   W24
 BYTE   Cs3
 BYTE   W24
//  #04 //072   ----------------------------------------
 BYTE   N44  Fn3
 BYTE   W48
 BYTE   N92  Ds3
 BYTE   W48
//  #04 //073   ----------------------------------------
 BYTE   W96
//  #04 //074   ----------------------------------------
 BYTE   W48
 BYTE   GoTo
  POIN2 Label_D3E582
 BYTE   FINE

//**************** Track 5 (Midi-Chn.4) ****************//

NoOneIsAlone_005:
//  #05 //000   ----------------------------------------
 BYTE   KEYSH   NoOneIsAlone_key+0
Label_D3E606:
 BYTE   VOICE   106
 BYTE   VOL   38*NoOneIsAlone_mvl/mxv
 BYTE   PAN   c_v+0
 BYTE   VOL   36*NoOneIsAlone_mvl/mxv
 BYTE   PAN   c_v+0
 BYTE   N92  Cs0  v080
 BYTE   N92  Cs1
 BYTE   W96
//  #05 //001   ----------------------------------------
 BYTE   W96
//  #05 //002   ----------------------------------------
Label_D3E617:
 BYTE   N92  Cs0  v080
 BYTE   N92  Cs1
 BYTE   W96
 BYTE   PEND
//  #05 //003   ----------------------------------------
 BYTE   W96
//  #05 //004   ----------------------------------------
 BYTE   PATT
  POIN2 Label_D3E617
//  #05 //005   ----------------------------------------
 BYTE   W96
//  #05 //006   ----------------------------------------
Label_D3E625:
 BYTE   N92  Fs0  v080
 BYTE   N92  Fs1
 BYTE   W96
 BYTE   PEND
//  #05 //007   ----------------------------------------
 BYTE   W96
//  #05 //008   ----------------------------------------
 BYTE   PATT
  POIN2 Label_D3E617
//  #05 //009   ----------------------------------------
 BYTE   W96
//  #05 //010   ----------------------------------------
 BYTE   PATT
  POIN2 Label_D3E625
//  #05 //011   ----------------------------------------
 BYTE   W96
//  #05 //012   ----------------------------------------
 BYTE   PATT
  POIN2 Label_D3E617
//  #05 //013   ----------------------------------------
Label_D3E63E:
 BYTE   W72
 BYTE   N23  Gs0  v080
 BYTE   N23  Gs1
 BYTE   W24
 BYTE   PEND
//  #05 //014   ----------------------------------------
 BYTE   PATT
  POIN2 Label_D3E617
//  #05 //015   ----------------------------------------
 BYTE   W96
//  #05 //016   ----------------------------------------
 BYTE   W96
//  #05 //017   ----------------------------------------
Label_D3E64D:
 BYTE   TIE  Cs1  v052
 BYTE   W96
 BYTE   PEND
//  #05 //018   ----------------------------------------
 BYTE   W96
//  #05 //019   ----------------------------------------
Label_D3E653:
 BYTE   W92
 BYTE   W03
 BYTE   PEND
 BYTE   EOT
 BYTE   Cs1
 BYTE   W01
//  #05 //020   ----------------------------------------
 BYTE   TIE  Fs1  v052
 BYTE   W96
//  #05 //021   ----------------------------------------
 BYTE   W96
//  #05 //022   ----------------------------------------
 BYTE   PATT
  POIN2 Label_D3E653
//  #05 //023   ----------------------------------------
 BYTE   EOT
 BYTE   Fs1
 BYTE   W01
//  #05 //024   ----------------------------------------
 BYTE   PATT
  POIN2 Label_D3E64D
//  #05 //025   ----------------------------------------
 BYTE   W12
 BYTE   W13
 BYTE   W13
 BYTE   W13
 BYTE   W13
 BYTE   W12
 BYTE   W13
 BYTE   W07
//  #05 //026   ----------------------------------------
 BYTE   W06
 BYTE   W13
 BYTE   W13
 BYTE   W12
 BYTE   W13
 BYTE   W13
 BYTE   W13
 BYTE   W12
 BYTE   EOT
 BYTE   Cs1
 BYTE   W01
//  #05 //027   ----------------------------------------
 BYTE   TIE  Fs1  v064
 BYTE   W03
 BYTE   W04
 BYTE   W03
 BYTE   W04
 BYTE   W03
 BYTE   W04
 BYTE   W03
 BYTE   W04
 BYTE   W03
 BYTE   W04
 BYTE   W03
 BYTE   W04
 BYTE   W03
 BYTE   W04
 BYTE   W03
 BYTE   W04
 BYTE   W03
 BYTE   W04
 BYTE   W03
 BYTE   W04
 BYTE   W03
 BYTE   W04
 BYTE   W03
 BYTE   W04
 BYTE   W03
 BYTE   W04
 BYTE   W03
 BYTE   W02
//  #05 //028   ----------------------------------------
 BYTE   W02
 BYTE   W03
 BYTE   W04
 BYTE   W03
 BYTE   W04
 BYTE   W03
 BYTE   W04
 BYTE   W03
 BYTE   W04
 BYTE   W03
 BYTE   W04
 BYTE   W03
 BYTE   W04
 BYTE   W03
 BYTE   W04
 BYTE   W03
 BYTE   W04
 BYTE   W03
 BYTE   W04
 BYTE   W03
 BYTE   W03
 BYTE   EOT
 BYTE   W01
 BYTE   W24
//  #05 //029   ----------------------------------------
 BYTE   PATT
  POIN2 Label_D3E617
//  #05 //030   ----------------------------------------
 BYTE   W96
//  #05 //031   ----------------------------------------
 BYTE   PATT
  POIN2 Label_D3E617
//  #05 //032   ----------------------------------------
 BYTE   W96
//  #05 //033   ----------------------------------------
 BYTE   PATT
  POIN2 Label_D3E625
//  #05 //034   ----------------------------------------
 BYTE   W96
//  #05 //035   ----------------------------------------
 BYTE   PATT
  POIN2 Label_D3E617
//  #05 //036   ----------------------------------------
 BYTE   W96
//  #05 //037   ----------------------------------------
 BYTE   PATT
  POIN2 Label_D3E625
//  #05 //038   ----------------------------------------
 BYTE   W96
//  #05 //039   ----------------------------------------
 BYTE   PATT
  POIN2 Label_D3E617
//  #05 //040   ----------------------------------------
 BYTE   PATT
  POIN2 Label_D3E63E
//  #05 //041   ----------------------------------------
 BYTE   PATT
  POIN2 Label_D3E617
//  #05 //042   ----------------------------------------
 BYTE   W96
//  #05 //043   ----------------------------------------
 BYTE   N23  Cn1  v080
 BYTE   N23  Cn2
 BYTE   W24
 BYTE   As0
 BYTE   N23  As1
 BYTE   W24
Label_D3E6ED:
 BYTE   N92  Gs0  v080
 BYTE   N92  Gs1
 BYTE   W96
 BYTE   PEND
//  #05 //044   ----------------------------------------
 BYTE   W96
//  #05 //045   ----------------------------------------
 BYTE   N23  Cn1  v052
 BYTE   N23  Cn2
 BYTE   W01
 BYTE   W02
 BYTE   W01
 BYTE   W02
 BYTE   W01
 BYTE   W02
 BYTE   W01
 BYTE   W02
 BYTE   W01
 BYTE   W02
 BYTE   W02
 BYTE   W01
 BYTE   W02
 BYTE   W01
 BYTE   W02
 BYTE   W01
 BYTE   As0  v064
 BYTE   N23  As1
 BYTE   W02
 BYTE   W01
 BYTE   W02
 BYTE   W02
 BYTE   W01
 BYTE   W02
 BYTE   W01
 BYTE   W02
 BYTE   W01
 BYTE   W02
 BYTE   W01
 BYTE   W02
 BYTE   W01
 BYTE   W02
 BYTE   W02
 BYTE   N44  Gs0  v080
 BYTE   N44  Gs1
 BYTE   W48
//  #05 //046   ----------------------------------------
 BYTE   W96
//  #05 //047   ----------------------------------------
Label_D3E724:
 BYTE   N92  Cs0  v052
 BYTE   N92  Cs1
 BYTE   W96
 BYTE   PEND
//  #05 //048   ----------------------------------------
 BYTE   W72
 BYTE   N23  Gs0
 BYTE   N23  Gs1
 BYTE   W24
//  #05 //049   ----------------------------------------
 BYTE   PATT
  POIN2 Label_D3E724
//  #05 //050   ----------------------------------------
 BYTE   W48
 BYTE   N23  Cn1  v052
 BYTE   N23  Cn2
 BYTE   W01
 BYTE   W02
 BYTE   W01
 BYTE   W02
 BYTE   W01
 BYTE   W02
 BYTE   W01
 BYTE   W02
 BYTE   W01
 BYTE   W02
 BYTE   W02
 BYTE   W01
 BYTE   W02
 BYTE   W01
 BYTE   W02
 BYTE   W01
 BYTE   As0  v064
 BYTE   N23  As1
 BYTE   W02
 BYTE   W01
 BYTE   W02
 BYTE   W02
 BYTE   W01
 BYTE   W02
 BYTE   W01
 BYTE   W02
 BYTE   W01
 BYTE   W02
 BYTE   W01
 BYTE   W02
 BYTE   W01
 BYTE   W02
 BYTE   W02
//  #05 //051   ----------------------------------------
 BYTE   PATT
  POIN2 Label_D3E6ED
//  #05 //052   ----------------------------------------
 BYTE   W96
//  #05 //053   ----------------------------------------
 BYTE   N23  Cn1  v052
 BYTE   N23  Cn2
 BYTE   W01
 BYTE   W02
 BYTE   W01
 BYTE   W02
 BYTE   W01
 BYTE   W02
 BYTE   W01
 BYTE   W02
 BYTE   W01
 BYTE   W02
 BYTE   W02
 BYTE   W01
 BYTE   W02
 BYTE   W01
 BYTE   W02
 BYTE   W01
 BYTE   As0  v064
 BYTE   N23  As1
 BYTE   W02
 BYTE   W01
 BYTE   W02
 BYTE   W02
 BYTE   W01
 BYTE   W02
 BYTE   W01
 BYTE   W02
 BYTE   W01
 BYTE   W02
 BYTE   W01
 BYTE   W02
 BYTE   W01
 BYTE   W02
 BYTE   W02
 BYTE   N92  Gs0  v080
 BYTE   N92  Gs1
 BYTE   W96
//  #05 //054   ----------------------------------------
 BYTE   Cs0  v064
 BYTE   N92  Cs1
 BYTE   W96
//  #05 //055   ----------------------------------------
 BYTE   W96
//  #05 //056   ----------------------------------------
 BYTE   W96
//  #05 //057   ----------------------------------------
 BYTE   W96
//  #05 //058   ----------------------------------------
 BYTE   W96
//  #05 //059   ----------------------------------------
 BYTE   W96
//  #05 //060   ----------------------------------------
 BYTE   W48
//  #05 //061   ----------------------------------------
 BYTE   PATT
  POIN2 Label_D3E617
//  #05 //062   ----------------------------------------
Label_D3E7A3:
 BYTE   N23  As2  v064
 BYTE   W24
 BYTE   Gs2
 BYTE   W72
 BYTE   PEND
//  #05 //063   ----------------------------------------
 BYTE   PATT
  POIN2 Label_D3E625
//  #05 //064   ----------------------------------------
 BYTE   W96
//  #05 //065   ----------------------------------------
 BYTE   PATT
  POIN2 Label_D3E617
//  #05 //066   ----------------------------------------
 BYTE   PATT
  POIN2 Label_D3E7A3
//  #05 //067   ----------------------------------------
 BYTE   N92  Fs0  v080
 BYTE   N92  Fs1
 BYTE   N11  As2  v064
 BYTE   W12
 BYTE   Cs3
 BYTE   W12
 BYTE   N11
 BYTE   W12
 BYTE   As2
 BYTE   W12
 BYTE   N23  Cs3
 BYTE   W48
//  #05 //068   ----------------------------------------
 BYTE   W96
//  #05 //069   ----------------------------------------
 BYTE   PATT
  POIN2 Label_D3E617
//  #05 //070   ----------------------------------------
 BYTE   PATT
  POIN2 Label_D3E63E
//  #05 //071   ----------------------------------------
 BYTE   PATT
  POIN2 Label_D3E617
//  #05 //072   ----------------------------------------
 BYTE   W96
//  #05 //073   ----------------------------------------
 BYTE   N23  Ds4  v064
 BYTE   W24
 BYTE   Fn4
 BYTE   W24
 BYTE   N23
 BYTE   W24
 BYTE   Cs4
 BYTE   W24
//  #05 //074   ----------------------------------------
 BYTE   N44  Fn4
 BYTE   W48
 BYTE   N92  Ds4
 BYTE   W48
//  #05 //075   ----------------------------------------
 BYTE   W96
//  #05 //076   ----------------------------------------
 BYTE   W48
 BYTE   GoTo
  POIN2 Label_D3E606
 BYTE   FINE

//**************** Track 6 (Midi-Chn.5) ****************//

NoOneIsAlone_006:
//  #06 //000   ----------------------------------------
 BYTE   KEYSH   NoOneIsAlone_key+0
Label_D3D70E:
 BYTE   VOICE   46
 BYTE   VOL   40*NoOneIsAlone_mvl/mxv
 BYTE   PAN   c_v+0
 BYTE   VOL   36*NoOneIsAlone_mvl/mxv
 BYTE   PAN   c_v+0
 BYTE   N44  Cs1  v036
 BYTE   N44  Cs2
 BYTE   W24
 BYTE   Ds3  v040
 BYTE   N44  Fn3
 BYTE   W24
 BYTE   Fn2  v044
 BYTE   W24
 BYTE   Ds3  v048
 BYTE   N44  Fn3
 BYTE   W24
//  #06 //001   ----------------------------------------
Label_D3D72B:
 BYTE   N44  Ds2  v052
 BYTE   W24
 BYTE   Ds3  v048
 BYTE   N44  Fn3
 BYTE   W24
 BYTE   Fn2  v044
 BYTE   W24
 BYTE   Ds3  v040
 BYTE   N44  Fn3
 BYTE   W24
 BYTE   PEND
//  #06 //002   ----------------------------------------
Label_D3D73D:
 BYTE   N44  Cs1  v036
 BYTE   N44  Cs2
 BYTE   W24
 BYTE   Ds3  v040
 BYTE   N44  Fn3
 BYTE   W24
 BYTE   Fn2  v044
 BYTE   W24
 BYTE   Ds3  v048
 BYTE   N44  Fn3
 BYTE   W24
 BYTE   PEND
//  #06 //003   ----------------------------------------
 BYTE   PATT
  POIN2 Label_D3D72B
//  #06 //004   ----------------------------------------
 BYTE   PATT
  POIN2 Label_D3D73D
//  #06 //005   ----------------------------------------
 BYTE   PATT
  POIN2 Label_D3D72B
//  #06 //006   ----------------------------------------
Label_D3D760:
 BYTE   N44  Fs1  v036
 BYTE   N44  Fs2
 BYTE   W24
 BYTE   Cs3  v040
 BYTE   N44  Ds3
 BYTE   W24
 BYTE   Ds2  v044
 BYTE   W24
 BYTE   Cs3  v048
 BYTE   N44  Ds3
 BYTE   W24
 BYTE   PEND
//  #06 //007   ----------------------------------------
Label_D3D774:
 BYTE   N44  Cs2  v052
 BYTE   W24
 BYTE   Cs3  v048
 BYTE   N44  Ds3
 BYTE   W24
 BYTE   Ds2  v044
 BYTE   W24
 BYTE   Cs3  v040
 BYTE   N44  Ds3
 BYTE   W24
 BYTE   PEND
//  #06 //008   ----------------------------------------
 BYTE   PATT
  POIN2 Label_D3D73D
//  #06 //009   ----------------------------------------
 BYTE   PATT
  POIN2 Label_D3D72B
//  #06 //010   ----------------------------------------
 BYTE   N44  Fs1  v036
 BYTE   N44  Fs2
 BYTE   W24
 BYTE   Cs3  v040
 BYTE   N44  Ds3
 BYTE   W24
 BYTE   Fn2  v044
 BYTE   W24
 BYTE   Cs3  v048
 BYTE   N44  Ds3
 BYTE   W24
//  #06 //011   ----------------------------------------
Label_D3D7A3:
 BYTE   N44  Ds2  v052
 BYTE   W24
 BYTE   Cs3  v048
 BYTE   N44  Ds3
 BYTE   W24
 BYTE   Fn2  v044
 BYTE   W24
 BYTE   Cs3  v040
 BYTE   N44  Ds3
 BYTE   W24
 BYTE   PEND
//  #06 //012   ----------------------------------------
Label_D3D7B5:
 BYTE   N44  Cs1  v036
 BYTE   N44  Cs2
 BYTE   W24
 BYTE   Cs3  v040
 BYTE   N44  Ds3
 BYTE   W24
 BYTE   Fn2  v044
 BYTE   W24
 BYTE   Cs3  v048
 BYTE   N44  Ds3
 BYTE   W24
 BYTE   PEND
//  #06 //013   ----------------------------------------
 BYTE   PATT
  POIN2 Label_D3D7A3
//  #06 //014   ----------------------------------------
 BYTE   PATT
  POIN2 Label_D3D7B5
//  #06 //015   ----------------------------------------
 BYTE   N44  Ds2  v052
 BYTE   W24
 BYTE   Cs3  v048
 BYTE   N44  Ds3
 BYTE   W24
 BYTE   Fn2  v044
 BYTE   W24
 BYTE   TIE  Cs3  v040
 BYTE   TIE  Ds3
 BYTE   W24
//  #06 //016   ----------------------------------------
 BYTE   N92  Ds2  v036
 BYTE   W96
//  #06 //017   ----------------------------------------
 BYTE   N44  Cs1
 BYTE   N44  Cs2
 BYTE   W23
 BYTE   EOT
 BYTE   Cs3  v063
 BYTE   W01
 BYTE   N44  Cs3
 BYTE   N44  Ds3
 BYTE   W24
 BYTE   Cn2  v040
 BYTE   W24
 BYTE   Cs3  v044
 BYTE   N44  Ds3
 BYTE   W24
//  #06 //018   ----------------------------------------
 BYTE   Cs2
 BYTE   W24
 BYTE   Cs3  v048
 BYTE   N44  Ds3
 BYTE   W24
 BYTE   Ds2  v052
 BYTE   W24
 BYTE   Cs3  v048
 BYTE   N44  Ds3
 BYTE   W24
//  #06 //019   ----------------------------------------
 BYTE   Fn2  v044
 BYTE   W24
 BYTE   Cs3
 BYTE   N44  Ds3
 BYTE   W24
 BYTE   Ds2  v040
 BYTE   W24
 BYTE   Cs3  v036
 BYTE   N44  Ds3
 BYTE   W24
//  #06 //020   ----------------------------------------
 BYTE   Fs1
 BYTE   N44  Fs2
 BYTE   W24
 BYTE   Cs3
 BYTE   N44  Ds3
 BYTE   W24
 BYTE   Ds2  v040
 BYTE   W24
 BYTE   Cs3  v044
 BYTE   N44  Ds3
 BYTE   W24
//  #06 //021   ----------------------------------------
 BYTE   Fn2
 BYTE   W24
 BYTE   Cs3  v048
 BYTE   N44  Ds3
 BYTE   W24
 BYTE   Fs2  v052
 BYTE   W24
 BYTE   Cs3  v048
 BYTE   N44  Ds3
 BYTE   W24
//  #06 //022   ----------------------------------------
 BYTE   Gs2  v044
 BYTE   W24
 BYTE   Cs3
 BYTE   N44  Ds3
 BYTE   W24
 BYTE   Fs2  v040
 BYTE   W24
 BYTE   Cs3  v036
 BYTE   N44  Ds3
 BYTE   W24
//  #06 //023   ----------------------------------------
 BYTE   Cs1
 BYTE   N44  Cs2
 BYTE   W24
 BYTE   Cs3
 BYTE   N44  Ds3
 BYTE   W24
 BYTE   Ds2  v040
 BYTE   W24
 BYTE   Cs3
 BYTE   N44  Ds3
 BYTE   W24
//  #06 //024   ----------------------------------------
 BYTE   Fn2  v044
 BYTE   W24
 BYTE   Cs3  v048
 BYTE   N44  Ds3
 BYTE   W24
 BYTE   Fs2
 BYTE   W24
 BYTE   Cs3  v052
 BYTE   N44  Ds3
 BYTE   W24
//  #06 //025   ----------------------------------------
 BYTE   Gs2  v056
 BYTE   W24
 BYTE   Cs3
 BYTE   N44  Ds3
 BYTE   W24
 BYTE   As2  v060
 BYTE   W24
 BYTE   Cs3  v064
 BYTE   N44  Ds3
 BYTE   W24
//  #06 //026   ----------------------------------------
 BYTE   Fs1
 BYTE   N44  Fs2
 BYTE   W24
 BYTE   Cs3
 BYTE   N44  Ds3
 BYTE   W24
 BYTE   Fs2  v060
 BYTE   W24
 BYTE   Cs3  v056
 BYTE   N44  Ds3
 BYTE   W24
//  #06 //027   ----------------------------------------
 BYTE   Fn2  v052
 BYTE   W24
 BYTE   N92  Cs3  v048
 BYTE   N92  Ds3
 BYTE   W24
 BYTE   N44  Ds2  v044
 BYTE   W48
//  #06 //028   ----------------------------------------
 BYTE   PATT
  POIN2 Label_D3D73D
//  #06 //029   ----------------------------------------
 BYTE   PATT
  POIN2 Label_D3D72B
//  #06 //030   ----------------------------------------
 BYTE   PATT
  POIN2 Label_D3D73D
//  #06 //031   ----------------------------------------
 BYTE   PATT
  POIN2 Label_D3D72B
//  #06 //032   ----------------------------------------
 BYTE   PATT
  POIN2 Label_D3D760
//  #06 //033   ----------------------------------------
 BYTE   PATT
  POIN2 Label_D3D774
//  #06 //034   ----------------------------------------
 BYTE   PATT
  POIN2 Label_D3D73D
//  #06 //035   ----------------------------------------
 BYTE   PATT
  POIN2 Label_D3D72B
//  #06 //036   ----------------------------------------
 BYTE   PATT
  POIN2 Label_D3D760
//  #06 //037   ----------------------------------------
 BYTE   PATT
  POIN2 Label_D3D774
//  #06 //038   ----------------------------------------
Label_D3D8C7:
 BYTE   N44  Cs1  v036
 BYTE   N44  Cs2
 BYTE   W24
 BYTE   Cs3  v040
 BYTE   N44  Ds3
 BYTE   W24
 BYTE   Ds2  v044
 BYTE   W24
 BYTE   Cs3  v048
 BYTE   N44  Ds3
 BYTE   W24
 BYTE   PEND
//  #06 //039   ----------------------------------------
 BYTE   PATT
  POIN2 Label_D3D774
//  #06 //040   ----------------------------------------
 BYTE   N44  Cs1  v036
 BYTE   N44  Cs2
 BYTE   W24
 BYTE   Cs3  v040
 BYTE   N44  Ds3
 BYTE   W24
 BYTE   Ds2  v044
 BYTE   W24
 BYTE   N23  Cs3  v048
 BYTE   N23  Ds3
 BYTE   W24
//  #06 //041   ----------------------------------------
 BYTE   N44  Cs2  v052
 BYTE   N23  Cs3
 BYTE   N23  Ds3
 BYTE   W24
 BYTE   N44  Cs3  v048
 BYTE   N44  Ds3
 BYTE   W24
 BYTE   Ds2  v044
 BYTE   W24
 BYTE   Cs3  v040
 BYTE   N44  Ds3
 BYTE   W24
//  #06 //042   ----------------------------------------
 BYTE   N23  Cn2  v036
 BYTE   W24
 BYTE   As1  v048
 BYTE   N23  Cs3
 BYTE   N23  Ds3
 BYTE   W24
Label_D3D915:
 BYTE   N44  Gs1  v064
 BYTE   N44  Gs2
 BYTE   N23  As2
 BYTE   N23  Cn3
 BYTE   W24
 BYTE   N44  As2
 BYTE   N44  Cn3
 BYTE   W24
//  #06 //043   ----------------------------------------
 BYTE   Ds2  v060
 BYTE   W24
 BYTE   As2  v056
 BYTE   N44  Cn3
 BYTE   W24
 BYTE   PEND
Label_D3D92D:
 BYTE   N44  Fn2  v052
 BYTE   W24
 BYTE   As2
 BYTE   N44  Cn3
 BYTE   W24
//  #06 //044   ----------------------------------------
 BYTE   Ds2
 BYTE   W24
 BYTE   As2  v056
 BYTE   N44  Cn3
 BYTE   W24
 BYTE   PEND
 BYTE   N23  Cn2  v060
 BYTE   W24
 BYTE   As1  v064
 BYTE   N44  As2
 BYTE   N44  Cn3
 BYTE   W24
//  #06 //045   ----------------------------------------
 BYTE   Gs1
 BYTE   N44  Gs2
 BYTE   W24
 BYTE   As2  v060
 BYTE   N44  Cn3
 BYTE   W24
 BYTE   Ds2  v056
 BYTE   W24
 BYTE   As2  v052
 BYTE   N44  Cn3
 BYTE   W24
//  #06 //046   ----------------------------------------
 BYTE   Fn2  v044
 BYTE   W24
 BYTE   As2  v040
 BYTE   N44  Cn3
 BYTE   W24
//  #06 //047   ----------------------------------------
 BYTE   PATT
  POIN2 Label_D3D8C7
//  #06 //048   ----------------------------------------
 BYTE   PATT
  POIN2 Label_D3D774
//  #06 //049   ----------------------------------------
 BYTE   N44  Cs1  v036
 BYTE   N44  Cs2
 BYTE   W24
 BYTE   Cs3
 BYTE   N44  Ds3
 BYTE   W24
 BYTE   Ds2  v040
 BYTE   W24
 BYTE   Cs3  v044
 BYTE   N44  Ds3
 BYTE   W24
//  #06 //050   ----------------------------------------
 BYTE   Ds2  v048
 BYTE   W24
 BYTE   N68  Cs3  v052
 BYTE   N68  Ds3
 BYTE   W24
 BYTE   N23  Cn2  v056
 BYTE   W24
 BYTE   As1  v060
 BYTE   W24
//  #06 //051   ----------------------------------------
 BYTE   PATT
  POIN2 Label_D3D915
//  #06 //052   ----------------------------------------
 BYTE   PATT
  POIN2 Label_D3D92D
//  #06 //053   ----------------------------------------
 BYTE   N23  Cn2  v060
 BYTE   W24
 BYTE   As1  v064
 BYTE   N44  As2
 BYTE   N44  Cn3
 BYTE   W24
 BYTE   Gs1
 BYTE   N44  Gs2
 BYTE   W24
 BYTE   As2  v060
 BYTE   N44  Cn3
 BYTE   W24
//  #06 //054   ----------------------------------------
 BYTE   Ds2  v052
 BYTE   W24
 BYTE   As2  v044
 BYTE   N44  Cn3
 BYTE   W24
//  #06 //055   ----------------------------------------
 BYTE   PATT
  POIN2 Label_D3D73D
//  #06 //056   ----------------------------------------
 BYTE   PATT
  POIN2 Label_D3D72B
//  #06 //057   ----------------------------------------
 BYTE   PATT
  POIN2 Label_D3D73D
//  #06 //058   ----------------------------------------
 BYTE   N44  Ds2  v052
 BYTE   W24
 BYTE   Ds3  v048
 BYTE   N44  Fn3
 BYTE   W24
 BYTE   Fn2  v044
 BYTE   W24
 BYTE   TIE  Ds3  v040
 BYTE   TIE  Fn3
 BYTE   W24
//  #06 //059   ----------------------------------------
 BYTE   N92  Gs1  v036
 BYTE   N92  Gs2
 BYTE   W92
 BYTE   W03
 BYTE   EOT
 BYTE   Ds3  v065
 BYTE   W01
//  #06 //060   ----------------------------------------
 BYTE   W96
//  #06 //061   ----------------------------------------
 BYTE   W48
 BYTE   W96
//  #06 //062   ----------------------------------------
 BYTE   W96
//  #06 //063   ----------------------------------------
 BYTE   W96
//  #06 //064   ----------------------------------------
 BYTE   W96
//  #06 //065   ----------------------------------------
 BYTE   W96
//  #06 //066   ----------------------------------------
 BYTE   W96
//  #06 //067   ----------------------------------------
 BYTE   W96
//  #06 //068   ----------------------------------------
 BYTE   W96
//  #06 //069   ----------------------------------------
 BYTE   W96
//  #06 //070   ----------------------------------------
 BYTE   W96
//  #06 //071   ----------------------------------------
 BYTE   W96
//  #06 //072   ----------------------------------------
 BYTE   W96
//  #06 //073   ----------------------------------------
 BYTE   W96
//  #06 //074   ----------------------------------------
 BYTE   W96
//  #06 //075   ----------------------------------------
 BYTE   W96
//  #06 //076   ----------------------------------------
 BYTE   W48
 BYTE   GoTo
  POIN2 Label_D3D70E
 BYTE   FINE

//**************** Track 7 (Midi-Chn.6) ****************//

NoOneIsAlone_007:
//  #07 //000   ----------------------------------------
 BYTE   KEYSH   NoOneIsAlone_key+0
Label_010006C2:
 BYTE   VOICE   48
 BYTE   VOL   40*NoOneIsAlone_mvl/mxv
 BYTE   PAN   c_v+0
 BYTE   VOL   32*NoOneIsAlone_mvl/mxv
 BYTE   PAN   c_v+0
 BYTE   W96
//  #07 //001   ----------------------------------------
 BYTE   W96
//  #07 //002   ----------------------------------------
 BYTE   W96
//  #07 //003   ----------------------------------------
 BYTE   W96
//  #07 //004   ----------------------------------------
 BYTE   W96
//  #07 //005   ----------------------------------------
 BYTE   W96
//  #07 //006   ----------------------------------------
 BYTE   W96
//  #07 //007   ----------------------------------------
 BYTE   W96
//  #07 //008   ----------------------------------------
 BYTE   W96
//  #07 //009   ----------------------------------------
 BYTE   W96
//  #07 //010   ----------------------------------------
 BYTE   W96
//  #07 //011   ----------------------------------------
 BYTE   W48
 BYTE   N44  Gs3  v016
 BYTE   W01
 BYTE   W01
 BYTE   W01
 BYTE   W01
 BYTE   W01
 BYTE   W01
 BYTE   W01
 BYTE   W01
 BYTE   W01
 BYTE   W01
 BYTE   W01
 BYTE   W01
 BYTE   W01
 BYTE   W01
 BYTE   W01
 BYTE   W01
 BYTE   W01
 BYTE   W01
 BYTE   W01
 BYTE   W01
 BYTE   W01
 BYTE   W01
 BYTE   W01
 BYTE   W01
 BYTE   W01
 BYTE   W01
 BYTE   W01
 BYTE   W01
 BYTE   W01
 BYTE   W01
 BYTE   W01
 BYTE   W01
 BYTE   W01
 BYTE   W01
 BYTE   W01
 BYTE   W01
 BYTE   W01
 BYTE   W01
 BYTE   W01
 BYTE   W01
 BYTE   W01
 BYTE   W01
 BYTE   W01
 BYTE   W01
 BYTE   W01
 BYTE   W01
 BYTE   W01
 BYTE   W01
//  #07 //012   ----------------------------------------
 BYTE   TIE  Fs3  v064
 BYTE   W03
 BYTE   W03
 BYTE   W03
 BYTE   W03
 BYTE   W03
 BYTE   W03
 BYTE   W03
 BYTE   W03
 BYTE   W03
 BYTE   W03
 BYTE   W03
 BYTE   W03
 BYTE   W03
 BYTE   W03
 BYTE   W03
 BYTE   W03
 BYTE   W03
 BYTE   W03
 BYTE   W03
 BYTE   W03
 BYTE   W03
 BYTE   W03
 BYTE   W03
 BYTE   W03
 BYTE   W03
 BYTE   W03
 BYTE   W03
 BYTE   W03
 BYTE   W03
 BYTE   W03
 BYTE   W03
 BYTE   W03
//  #07 //013   ----------------------------------------
 BYTE   W03
 BYTE   W03
 BYTE   W03
 BYTE   W03
 BYTE   W03
 BYTE   W03
 BYTE   W03
 BYTE   W03
 BYTE   W03
 BYTE   W03
 BYTE   W03
 BYTE   W03
 BYTE   W03
 BYTE   W03
 BYTE   W03
 BYTE   W02
 BYTE   EOT
 BYTE   W01
 BYTE   N44  Gs3  v016
 BYTE   W01
 BYTE   W01
 BYTE   W01
 BYTE   W01
 BYTE   W01
 BYTE   W01
 BYTE   W01
 BYTE   W01
 BYTE   W01
 BYTE   W01
 BYTE   W01
 BYTE   W01
 BYTE   W01
 BYTE   W01
 BYTE   W01
 BYTE   W01
 BYTE   W01
 BYTE   W01
 BYTE   W01
 BYTE   W01
 BYTE   W01
 BYTE   W01
 BYTE   W01
 BYTE   W01
 BYTE   W01
 BYTE   W01
 BYTE   W01
 BYTE   W01
 BYTE   W01
 BYTE   W01
 BYTE   W01
 BYTE   W01
 BYTE   W01
 BYTE   W01
 BYTE   W01
 BYTE   W01
 BYTE   W01
 BYTE   W01
 BYTE   W01
 BYTE   W01
 BYTE   W01
 BYTE   W01
 BYTE   W01
 BYTE   W01
 BYTE   W01
 BYTE   W01
 BYTE   W01
 BYTE   W01
//  #07 //014   ----------------------------------------
 BYTE   N05  Fs3  v064
 BYTE   W24
 BYTE   TIE
 BYTE   W05
 BYTE   W06
 BYTE   W05
 BYTE   W06
 BYTE   W05
 BYTE   W06
 BYTE   W05
 BYTE   W06
 BYTE   W05
 BYTE   W06
 BYTE   W05
 BYTE   W06
 BYTE   W05
 BYTE   W01
//  #07 //015   ----------------------------------------
 BYTE   W05
 BYTE   W05
 BYTE   W06
 BYTE   W05
 BYTE   W06
 BYTE   W05
 BYTE   W06
 BYTE   W05
 BYTE   W06
 BYTE   W05
 BYTE   W06
 BYTE   W05
 BYTE   W06
 BYTE   W05
 BYTE   W06
 BYTE   W05
 BYTE   W06
 BYTE   W03
//  #07 //016   ----------------------------------------
 BYTE   W02
 BYTE   W06
 BYTE   W05
 BYTE   W06
 BYTE   W05
 BYTE   W06
 BYTE   W05
 BYTE   W06
 BYTE   W05
 BYTE   W06
 BYTE   W05
 BYTE   W06
 BYTE   W05
 BYTE   W06
 BYTE   W05
 BYTE   W06
 BYTE   W05
 BYTE   W05
 BYTE   EOT
 BYTE   W01
//  #07 //017   ----------------------------------------
 BYTE   W96
//  #07 //018   ----------------------------------------
 BYTE   W96
//  #07 //019   ----------------------------------------
 BYTE   N44  Fn4  v036
 BYTE   N44  As4
 BYTE   W01
 BYTE   W01
 BYTE   W01
 BYTE   W01
 BYTE   W01
 BYTE   W01
 BYTE   W01
 BYTE   W01
 BYTE   W01
 BYTE   W01
 BYTE   W01
 BYTE   W01
 BYTE   W01
 BYTE   W01
 BYTE   W01
 BYTE   W01
 BYTE   W01
 BYTE   W01
 BYTE   W01
 BYTE   W01
 BYTE   W01
 BYTE   W01
 BYTE   W01
 BYTE   W01
 BYTE   W01
 BYTE   W01
 BYTE   W01
 BYTE   W01
 BYTE   W01
 BYTE   W01
 BYTE   W01
 BYTE   W01
 BYTE   W01
 BYTE   W01
 BYTE   W01
 BYTE   W01
 BYTE   W01
 BYTE   W01
 BYTE   W01
 BYTE   W01
 BYTE   W01
 BYTE   W01
 BYTE   W01
 BYTE   W01
 BYTE   W02
 BYTE   W01
 BYTE   W01
 BYTE   Ds4  v080
 BYTE   N44  Gs4
 BYTE   W01
 BYTE   W01
 BYTE   W01
 BYTE   W01
 BYTE   W01
 BYTE   W01
 BYTE   W01
 BYTE   W01
 BYTE   W01
 BYTE   W01
 BYTE   W01
 BYTE   W01
 BYTE   W01
 BYTE   W01
 BYTE   W01
 BYTE   W01
 BYTE   W01
 BYTE   W01
 BYTE   W01
 BYTE   W01
 BYTE   W01
 BYTE   W01
 BYTE   W01
 BYTE   W01
 BYTE   W01
 BYTE   W01
 BYTE   W01
 BYTE   W01
 BYTE   W01
 BYTE   W01
 BYTE   W01
 BYTE   W01
 BYTE   W01
 BYTE   W01
 BYTE   W01
 BYTE   W01
 BYTE   W01
 BYTE   W01
 BYTE   W01
 BYTE   W01
 BYTE   W01
 BYTE   W01
 BYTE   W01
 BYTE   W01
 BYTE   W02
 BYTE   W01
 BYTE   W01
//  #07 //020   ----------------------------------------
 BYTE   W96
//  #07 //021   ----------------------------------------
 BYTE   W96
//  #07 //022   ----------------------------------------
 BYTE   W96
//  #07 //023   ----------------------------------------
 BYTE   W96
//  #07 //024   ----------------------------------------
 BYTE   W96
//  #07 //025   ----------------------------------------
 BYTE   Fn4  v036
 BYTE   N44  As4
 BYTE   W02
 BYTE   W02
 BYTE   W02
 BYTE   W02
 BYTE   W02
 BYTE   W02
 BYTE   W02
 BYTE   W02
 BYTE   W02
 BYTE   W02
 BYTE   W02
 BYTE   W02
 BYTE   W02
 BYTE   W02
 BYTE   W02
 BYTE   W02
 BYTE   W02
 BYTE   W02
 BYTE   W02
 BYTE   W02
 BYTE   W02
 BYTE   W02
 BYTE   W03
 BYTE   W01
 BYTE   Ds4  v056
 BYTE   N44  Gs4
 BYTE   W01
 BYTE   W02
 BYTE   W02
 BYTE   W02
 BYTE   W02
 BYTE   W02
 BYTE   W02
 BYTE   W02
 BYTE   W02
 BYTE   W02
 BYTE   W02
 BYTE   W02
 BYTE   W02
 BYTE   W02
 BYTE   W02
 BYTE   W02
 BYTE   W02
 BYTE   W02
 BYTE   W02
 BYTE   W02
 BYTE   W02
 BYTE   W02
 BYTE   W03
 BYTE   W02
//  #07 //026   ----------------------------------------
 BYTE   N92  Gs3  v080
 BYTE   TIE  Cs4
 BYTE   W03
 BYTE   W03
 BYTE   W03
 BYTE   W03
 BYTE   W03
 BYTE   W03
 BYTE   W03
 BYTE   W03
 BYTE   W03
 BYTE   W03
 BYTE   W03
 BYTE   W03
 BYTE   W03
 BYTE   W03
 BYTE   W03
 BYTE   W03
 BYTE   W03
 BYTE   W03
 BYTE   W03
 BYTE   W03
 BYTE   W03
 BYTE   W03
 BYTE   W03
 BYTE   W03
 BYTE   W03
 BYTE   W03
 BYTE   W03
 BYTE   W03
 BYTE   W03
 BYTE   W03
 BYTE   W03
 BYTE   W03
//  #07 //027   ----------------------------------------
 BYTE   N92  Fs3  v048
 BYTE   W03
 BYTE   W03
 BYTE   W03
 BYTE   W03
 BYTE   W03
 BYTE   W03
 BYTE   W03
 BYTE   W03
 BYTE   W03
 BYTE   W03
 BYTE   W03
 BYTE   W03
 BYTE   W03
 BYTE   W03
 BYTE   W03
 BYTE   W03
 BYTE   W03
 BYTE   W03
 BYTE   W03
 BYTE   W03
 BYTE   W03
 BYTE   W03
 BYTE   W03
 BYTE   W03
 BYTE   W03
 BYTE   W03
 BYTE   W03
 BYTE   W03
 BYTE   W03
 BYTE   W03
 BYTE   W03
 BYTE   W02
 BYTE   EOT
 BYTE   Cs4
 BYTE   W01
//  #07 //028   ----------------------------------------
 BYTE   W96
//  #07 //029   ----------------------------------------
 BYTE   W96
//  #07 //030   ----------------------------------------
 BYTE   W96
//  #07 //031   ----------------------------------------
 BYTE   W96
//  #07 //032   ----------------------------------------
 BYTE   W96
//  #07 //033   ----------------------------------------
 BYTE   W96
//  #07 //034   ----------------------------------------
 BYTE   W96
//  #07 //035   ----------------------------------------
 BYTE   W96
//  #07 //036   ----------------------------------------
 BYTE   W96
//  #07 //037   ----------------------------------------
 BYTE   W48
 BYTE   N44  Gs3  v036
 BYTE   W01
 BYTE   W02
 BYTE   W01
 BYTE   W02
 BYTE   W01
 BYTE   W02
 BYTE   W01
 BYTE   W02
 BYTE   W01
 BYTE   W02
 BYTE   W02
 BYTE   W01
 BYTE   W02
 BYTE   W01
 BYTE   W02
 BYTE   W01
 BYTE   W02
 BYTE   W01
 BYTE   W02
 BYTE   W02
 BYTE   W01
 BYTE   W02
 BYTE   W01
 BYTE   W02
 BYTE   W01
 BYTE   W02
 BYTE   W01
 BYTE   W02
 BYTE   W01
 BYTE   W02
 BYTE   W02
//  #07 //038   ----------------------------------------
Label_010008C9:
 BYTE   N92  Fs3  v064
 BYTE   W02
 BYTE   W02
 BYTE   W02
 BYTE   W02
 BYTE   W02
 BYTE   W02
 BYTE   W02
 BYTE   W02
 BYTE   W02
 BYTE   W02
 BYTE   W02
 BYTE   W02
 BYTE   W02
 BYTE   W02
 BYTE   W02
 BYTE   W02
 BYTE   W02
 BYTE   W02
 BYTE   W02
 BYTE   W02
 BYTE   W02
 BYTE   W02
 BYTE   W02
 BYTE   W02
 BYTE   W02
 BYTE   W02
 BYTE   W02
 BYTE   W02
 BYTE   W02
 BYTE   W02
 BYTE   W02
 BYTE   W02
 BYTE   W02
 BYTE   W02
 BYTE   W02
 BYTE   W02
 BYTE   W02
 BYTE   W02
 BYTE   W02
 BYTE   W02
 BYTE   W02
 BYTE   W02
 BYTE   W02
 BYTE   W02
 BYTE   W02
 BYTE   W02
 BYTE   W02
 BYTE   W02
 BYTE   PEND
//  #07 //039   ----------------------------------------
Label_010008FD:
 BYTE   W48
 BYTE   N44  Gs3  v036
 BYTE   W01
 BYTE   W02
 BYTE   W01
 BYTE   W02
 BYTE   W01
 BYTE   W02
 BYTE   W01
 BYTE   W02
 BYTE   W01
 BYTE   W02
 BYTE   W02
 BYTE   W01
 BYTE   W02
 BYTE   W01
 BYTE   W02
 BYTE   W01
 BYTE   W02
 BYTE   W01
 BYTE   W02
 BYTE   W02
 BYTE   W01
 BYTE   W02
 BYTE   W01
 BYTE   W02
 BYTE   W01
 BYTE   W02
 BYTE   W01
 BYTE   W02
 BYTE   W01
 BYTE   W02
 BYTE   W02
 BYTE   PEND
//  #07 //040   ----------------------------------------
 BYTE   N11  Fs3  v064
 BYTE   W06
 BYTE   W18
 BYTE   TIE
 BYTE   W07
 BYTE   W06
 BYTE   W06
 BYTE   W06
 BYTE   W06
 BYTE   W06
 BYTE   W07
 BYTE   W06
 BYTE   W06
 BYTE   W06
 BYTE   W06
 BYTE   W04
//  #07 //041   ----------------------------------------
 BYTE   W03
 BYTE   W06
 BYTE   W06
 BYTE   W06
 BYTE   W06
 BYTE   W07
 BYTE   W06
 BYTE   W06
 BYTE   W06
 BYTE   W06
 BYTE   W07
 BYTE   W06
 BYTE   W06
 BYTE   W06
 BYTE   W06
 BYTE   W06
 BYTE   EOT
 BYTE   W01
//  #07 //042   ----------------------------------------
 BYTE   N32  Cs4  v036
 BYTE   W01
 BYTE   W01
 BYTE   W01
 BYTE   W01
 BYTE   W01
 BYTE   W01
 BYTE   W01
 BYTE   W01
 BYTE   W01
 BYTE   W01
 BYTE   W01
 BYTE   W01
 BYTE   W01
 BYTE   W01
 BYTE   W01
 BYTE   W01
 BYTE   W01
 BYTE   W01
 BYTE   W01
 BYTE   W01
 BYTE   W01
 BYTE   W01
 BYTE   W01
 BYTE   W01
 BYTE   W01
 BYTE   W01
 BYTE   W01
 BYTE   W01
 BYTE   W01
 BYTE   W01
 BYTE   W01
 BYTE   W01
 BYTE   W01
 BYTE   W01
 BYTE   W01
 BYTE   W01
 BYTE   N11  As4  v068
 BYTE   W01
 BYTE   W01
 BYTE   W01
 BYTE   W01
 BYTE   W01
 BYTE   W01
 BYTE   W01
 BYTE   W01
 BYTE   W02
 BYTE   W01
 BYTE   W01
Label_0100097A:
 BYTE   TIE  Cn5  v080
 BYTE   W96
 BYTE   PEND
//  #07 //043   ----------------------------------------
 BYTE   W23
 BYTE   EOT
 BYTE   W01
 BYTE   N23  Cs5
 BYTE   W24
 BYTE   As4
 BYTE   W24
 BYTE   Cn5
 BYTE   W24
//  #07 //044   ----------------------------------------
 BYTE   Cs5
 BYTE   W24
 BYTE   Ds5
 BYTE   W24
 BYTE   N92  Cn5
 BYTE   W02
 BYTE   W03
 BYTE   W02
 BYTE   W03
 BYTE   W02
 BYTE   W03
 BYTE   W02
 BYTE   W03
 BYTE   W03
 BYTE   W02
 BYTE   W03
 BYTE   W02
 BYTE   W03
 BYTE   W02
 BYTE   W03
 BYTE   W02
 BYTE   W03
 BYTE   W03
 BYTE   W02
//  #07 //045   ----------------------------------------
 BYTE   W03
 BYTE   W02
 BYTE   W03
 BYTE   W02
 BYTE   W03
 BYTE   W02
 BYTE   W03
 BYTE   W02
 BYTE   W03
 BYTE   W03
 BYTE   W02
 BYTE   W03
 BYTE   W02
 BYTE   W03
 BYTE   W02
 BYTE   W03
 BYTE   W02
 BYTE   W03
 BYTE   W02
 BYTE   N23  As4  v044
 BYTE   W01
 BYTE   W02
 BYTE   W03
 BYTE   W02
 BYTE   W03
 BYTE   W02
 BYTE   W03
 BYTE   W02
 BYTE   W03
 BYTE   W03
 BYTE   W24
//  #07 //046   ----------------------------------------
 BYTE   N11  Fs3  v052
 BYTE   N11  Gs3
 BYTE   W06
 BYTE   W18
 BYTE   N32  Fs3
 BYTE   N32  Gs3
 BYTE   W01
 BYTE   W07
 BYTE   W06
 BYTE   W06
 BYTE   W04
 BYTE   W03
 BYTE   W06
 BYTE   W07
 BYTE   W06
 BYTE   W02
 BYTE   Fs3  v060
 BYTE   N32  Gs3
 BYTE   W04
 BYTE   W07
 BYTE   W06
 BYTE   W07
//  #07 //047   ----------------------------------------
 BYTE   W06
 BYTE   W18
 BYTE   N11  Fs3  v064
 BYTE   N11  Gs3
 BYTE   W01
 BYTE   W07
 BYTE   W06
 BYTE   W06
 BYTE   W04
 BYTE   N44  Fs3  v060
 BYTE   N44  Gs3
 BYTE   W03
 BYTE   W06
 BYTE   W07
 BYTE   W06
 BYTE   W06
 BYTE   W07
 BYTE   W06
 BYTE   W07
//  #07 //048   ----------------------------------------
 BYTE   N11  Fs3  v052
 BYTE   N11  Gs3
 BYTE   W06
 BYTE   W18
 BYTE   N32  Fs3
 BYTE   N32  Gs3
 BYTE   W01
 BYTE   W07
 BYTE   W06
 BYTE   W06
 BYTE   W04
 BYTE   W03
 BYTE   W06
 BYTE   W07
 BYTE   W06
 BYTE   W02
 BYTE   N68  Fs3  v060
 BYTE   N68  Gs3
 BYTE   W04
 BYTE   W07
 BYTE   W06
 BYTE   W07
//  #07 //049   ----------------------------------------
 BYTE   W01
 BYTE   W02
 BYTE   W01
 BYTE   W02
 BYTE   W01
 BYTE   W02
 BYTE   W01
 BYTE   W02
 BYTE   W01
 BYTE   W02
 BYTE   W02
 BYTE   W01
 BYTE   W02
 BYTE   W01
 BYTE   W02
 BYTE   W01
 BYTE   W02
 BYTE   W01
 BYTE   W02
 BYTE   W02
 BYTE   W01
 BYTE   W02
 BYTE   W01
 BYTE   W02
 BYTE   W01
 BYTE   W02
 BYTE   W01
 BYTE   W02
 BYTE   W01
 BYTE   W02
 BYTE   W02
 BYTE   N23  Cs4  v036
 BYTE   W01
 BYTE   W01
 BYTE   W01
 BYTE   W01
 BYTE   W01
 BYTE   W01
 BYTE   W01
 BYTE   W01
 BYTE   W01
 BYTE   W01
 BYTE   W01
 BYTE   W01
 BYTE   W01
 BYTE   W01
 BYTE   W01
 BYTE   W01
 BYTE   W01
 BYTE   W01
 BYTE   W01
 BYTE   W01
 BYTE   W01
 BYTE   W01
 BYTE   W01
 BYTE   W01
 BYTE   As4  v056
 BYTE   W01
 BYTE   W01
 BYTE   W01
 BYTE   W01
 BYTE   W01
 BYTE   W01
 BYTE   W01
 BYTE   W01
 BYTE   W01
 BYTE   W01
 BYTE   W01
 BYTE   W01
 BYTE   W01
 BYTE   W01
 BYTE   W01
 BYTE   W01
 BYTE   W01
 BYTE   W01
 BYTE   W01
 BYTE   W01
 BYTE   W02
 BYTE   W01
 BYTE   W01
//  #07 //050   ----------------------------------------
 BYTE   PATT
  POIN2 Label_0100097A
//  #07 //051   ----------------------------------------
 BYTE   W92
 BYTE   W03
 BYTE   EOT
 BYTE   Cn5
 BYTE   W01
//  #07 //052   ----------------------------------------
 BYTE   N32  Cs5  v080
 BYTE   W24
 BYTE   W12
 BYTE   N11  Ds5
 BYTE   W12
 BYTE   N92  Cn5
 BYTE   W02
 BYTE   W03
 BYTE   W02
 BYTE   W03
 BYTE   W02
 BYTE   W03
 BYTE   W02
 BYTE   W03
 BYTE   W03
 BYTE   W02
 BYTE   W03
 BYTE   W02
 BYTE   W03
 BYTE   W02
 BYTE   W03
 BYTE   W02
 BYTE   W03
 BYTE   W03
 BYTE   W02
//  #07 //053   ----------------------------------------
 BYTE   W03
 BYTE   W02
 BYTE   W03
 BYTE   W02
 BYTE   W03
 BYTE   W02
 BYTE   W03
 BYTE   W02
 BYTE   W03
 BYTE   W03
 BYTE   W02
 BYTE   W03
 BYTE   W02
 BYTE   W03
 BYTE   W02
 BYTE   W03
 BYTE   W02
 BYTE   W03
 BYTE   W02
 BYTE   N23  As4  v044
 BYTE   W01
 BYTE   W02
 BYTE   W03
 BYTE   W02
 BYTE   W03
 BYTE   W02
 BYTE   W03
 BYTE   W02
 BYTE   W03
 BYTE   W03
 BYTE   W72
//  #07 //054   ----------------------------------------
 BYTE   W96
//  #07 //055   ----------------------------------------
 BYTE   W96
//  #07 //056   ----------------------------------------
 BYTE   W96
//  #07 //057   ----------------------------------------
 BYTE   W96
//  #07 //058   ----------------------------------------
 BYTE   W96
//  #07 //059   ----------------------------------------
 BYTE   W48
Label_01000AB8:
 BYTE   TIE  Fn4  v052
 BYTE   W06
 BYTE   W06
 BYTE   W07
 BYTE   W06
 BYTE   W07
 BYTE   W06
 BYTE   W06
 BYTE   W07
//  #07 //060   ----------------------------------------
 BYTE   W06
 BYTE   W07
 BYTE   W06
 BYTE   W06
 BYTE   W07
 BYTE   W06
 BYTE   W07
 BYTE   PEND
Label_01000ACB:
 BYTE   W06
 BYTE   W06
 BYTE   W07
 BYTE   W06
 BYTE   W07
 BYTE   W06
 BYTE   W06
 BYTE   W07
//  #07 //061   ----------------------------------------
 BYTE   W06
 BYTE   W07
 BYTE   W06
 BYTE   W06
 BYTE   W07
 BYTE   W06
 BYTE   W06
 BYTE   PEND
 BYTE   EOT
 BYTE   Fn4
 BYTE   W01
 BYTE   N92  Fs4  v052
 BYTE   W06
 BYTE   W06
 BYTE   W07
 BYTE   W06
 BYTE   W07
 BYTE   W06
 BYTE   W06
 BYTE   W07
//  #07 //062   ----------------------------------------
 BYTE   W06
 BYTE   W07
 BYTE   W06
 BYTE   W06
 BYTE   W07
 BYTE   W06
 BYTE   W07
 BYTE   N44  Gs4  v064
 BYTE   W06
 BYTE   W06
 BYTE   W07
 BYTE   W06
 BYTE   W07
 BYTE   W06
 BYTE   W06
 BYTE   W04
 BYTE   Fs4  v060
 BYTE   W03
//  #07 //063   ----------------------------------------
 BYTE   W06
 BYTE   W07
 BYTE   W06
 BYTE   W06
 BYTE   W07
 BYTE   W06
 BYTE   W07
//  #07 //064   ----------------------------------------
 BYTE   PATT
  POIN2 Label_01000AB8
//  #07 //065   ----------------------------------------
 BYTE   PATT
  POIN2 Label_01000ACB
//  #07 //066   ----------------------------------------
 BYTE   EOT
 BYTE   Fn4
 BYTE   W01
 BYTE   N92  Fs4  v052
 BYTE   W12
 BYTE   W13
 BYTE   W13
 BYTE   W13
 BYTE   W13
 BYTE   W12
 BYTE   W13
 BYTE   W07
//  #07 //067   ----------------------------------------
 BYTE   N44  Cs4  v056
 BYTE   W06
 BYTE   W13
 BYTE   W13
 BYTE   W12
 BYTE   W04
 BYTE   Gs3  v060
 BYTE   W09
 BYTE   W13
 BYTE   W13
 BYTE   W13
//  #07 //068   ----------------------------------------
 BYTE   PATT
  POIN2 Label_010008C9
//  #07 //069   ----------------------------------------
 BYTE   PATT
  POIN2 Label_010008FD
//  #07 //070   ----------------------------------------
 BYTE   TIE  Fs3  v064
 BYTE   W04
 BYTE   W04
 BYTE   W04
 BYTE   W04
 BYTE   W04
 BYTE   W04
 BYTE   W04
 BYTE   W04
 BYTE   W04
 BYTE   W04
 BYTE   W04
 BYTE   W04
 BYTE   W04
 BYTE   W04
 BYTE   W04
 BYTE   W04
 BYTE   W04
 BYTE   W04
 BYTE   W04
 BYTE   W04
 BYTE   W04
 BYTE   W04
 BYTE   W04
 BYTE   W04
//  #07 //071   ----------------------------------------
 BYTE   W04
 BYTE   W04
 BYTE   W04
 BYTE   W04
 BYTE   W04
 BYTE   W04
 BYTE   W04
 BYTE   W04
 BYTE   W04
 BYTE   W04
 BYTE   W04
 BYTE   W04
 BYTE   W04
 BYTE   W04
 BYTE   W04
 BYTE   W04
 BYTE   W04
 BYTE   W04
 BYTE   W04
 BYTE   W04
 BYTE   W04
 BYTE   W04
 BYTE   W04
 BYTE   W03
 BYTE   EOT
 BYTE   W01
//  #07 //072   ----------------------------------------
 BYTE   BEND   c_v-1
 BYTE   W96
//  #07 //073   ----------------------------------------
 BYTE   W96
//  #07 //074   ----------------------------------------
 BYTE   W96
//  #07 //075   ----------------------------------------
 BYTE   W48
 BYTE   GoTo
  POIN2 Label_010006C2
 BYTE   FINE

//**************** Track 8 (Midi-Chn.7) ****************//

NoOneIsAlone_008:
//  #08 //000   ----------------------------------------
 BYTE   KEYSH   NoOneIsAlone_key+0
Label_D3DEAA:
 BYTE   VOICE   46
 BYTE   VOL   36*NoOneIsAlone_mvl/mxv
 BYTE   PAN   c_v+0
 BYTE   VOL   32*NoOneIsAlone_mvl/mxv
 BYTE   PAN   c_v+0
 BYTE   W96
//  #08 //001   ----------------------------------------
 BYTE   W96
//  #08 //002   ----------------------------------------
 BYTE   W96
//  #08 //003   ----------------------------------------
 BYTE   W96
//  #08 //004   ----------------------------------------
 BYTE   W96
//  #08 //005   ----------------------------------------
 BYTE   W96
//  #08 //006   ----------------------------------------
 BYTE   W96
//  #08 //007   ----------------------------------------
 BYTE   W96
//  #08 //008   ----------------------------------------
 BYTE   W96
//  #08 //009   ----------------------------------------
 BYTE   W96
//  #08 //010   ----------------------------------------
 BYTE   W96
//  #08 //011   ----------------------------------------
 BYTE   W96
//  #08 //012   ----------------------------------------
 BYTE   W96
//  #08 //013   ----------------------------------------
 BYTE   W96
//  #08 //014   ----------------------------------------
 BYTE   W96
//  #08 //015   ----------------------------------------
 BYTE   W96
//  #08 //016   ----------------------------------------
 BYTE   W12
 BYTE   N11  Gs3  v052
 BYTE   W02
 BYTE   W03
 BYTE   W02
 BYTE   W03
 BYTE   W02
 BYTE   N68  As3  v048
 BYTE   W03
 BYTE   W02
 BYTE   W03
 BYTE   W02
 BYTE   W03
 BYTE   W03
 BYTE   W02
 BYTE   W03
 BYTE   W02
 BYTE   W03
 BYTE   W02
 BYTE   W03
 BYTE   W02
 BYTE   W03
 BYTE   W02
 BYTE   W03
 BYTE   W03
 BYTE   W02
 BYTE   W03
 BYTE   W02
 BYTE   W03
 BYTE   W02
 BYTE   W03
 BYTE   W02
 BYTE   W03
 BYTE   W02
 BYTE   W03
 BYTE   W03
//  #08 //017   ----------------------------------------
 BYTE   N92  Cs3  v016
 BYTE   W07
 BYTE   W07
 BYTE   W07
 BYTE   W08
 BYTE   W07
 BYTE   W07
 BYTE   W07
 BYTE   W08
 BYTE   W07
 BYTE   W07
 BYTE   W08
 BYTE   W07
 BYTE   W07
 BYTE   W02
//  #08 //018   ----------------------------------------
 BYTE   Ds3  v032
 BYTE   W05
 BYTE   W08
 BYTE   W07
 BYTE   W07
 BYTE   W07
 BYTE   W08
 BYTE   W07
 BYTE   W07
 BYTE   W08
 BYTE   W07
 BYTE   W07
 BYTE   W07
 BYTE   W08
 BYTE   W03
//  #08 //019   ----------------------------------------
 BYTE   N44  Fn3  v044
 BYTE   W04
 BYTE   W07
 BYTE   W07
 BYTE   W08
 BYTE   W07
 BYTE   W07
 BYTE   W08
 BYTE   N23  Ds3  v052
 BYTE   W48
//  #08 //020   ----------------------------------------
 BYTE   N92  Ds3  v036
 BYTE   W16
 BYTE   W17
 BYTE   W16
 BYTE   W17
 BYTE   W16
 BYTE   W14
//  #08 //021   ----------------------------------------
 BYTE   Cs3  v040
 BYTE   W03
 BYTE   W16
 BYTE   W17
 BYTE   W16
 BYTE   W17
 BYTE   W16
 BYTE   W11
//  #08 //022   ----------------------------------------
 BYTE   N68  Ds3  v044
 BYTE   W06
 BYTE   W16
 BYTE   W17
 BYTE   W16
 BYTE   W17
 BYTE   W24
//  #08 //023   ----------------------------------------
 BYTE   N92  Cs3  v036
 BYTE   W06
 BYTE   W06
 BYTE   W06
 BYTE   W06
 BYTE   W06
 BYTE   W06
 BYTE   W06
 BYTE   W07
 BYTE   W06
 BYTE   W06
 BYTE   W06
 BYTE   W06
 BYTE   W06
 BYTE   W06
 BYTE   W06
 BYTE   W05
//  #08 //024   ----------------------------------------
 BYTE   Ds3  v048
 BYTE   W02
 BYTE   W06
 BYTE   W06
 BYTE   W06
 BYTE   W06
 BYTE   W06
 BYTE   W06
 BYTE   W06
 BYTE   W07
 BYTE   W06
 BYTE   W06
 BYTE   W06
 BYTE   W06
 BYTE   W06
 BYTE   W06
 BYTE   W07
 BYTE   W02
//  #08 //025   ----------------------------------------
 BYTE   N68  Fn3  v064
 BYTE   W04
 BYTE   W06
 BYTE   W06
 BYTE   W06
 BYTE   W06
 BYTE   W06
 BYTE   W06
 BYTE   W07
 BYTE   W06
 BYTE   W06
 BYTE   W06
 BYTE   W06
 BYTE   W06
 BYTE   W06
 BYTE   W06
 BYTE   W07
//  #08 //026   ----------------------------------------
 BYTE   N44  Gs3  v080
 BYTE   W03
 BYTE   W03
 BYTE   W03
 BYTE   W03
 BYTE   W03
 BYTE   W03
 BYTE   W03
 BYTE   W03
 BYTE   W03
 BYTE   W03
 BYTE   W03
 BYTE   W03
 BYTE   W03
 BYTE   W03
 BYTE   W03
 BYTE   W03
 BYTE   Fs3  v064
 BYTE   W03
 BYTE   W03
 BYTE   W03
 BYTE   W03
 BYTE   W03
 BYTE   W03
 BYTE   W03
 BYTE   W03
 BYTE   W03
 BYTE   W03
 BYTE   W03
 BYTE   W03
 BYTE   W03
 BYTE   W03
 BYTE   W03
 BYTE   W03
//  #08 //027   ----------------------------------------
 BYTE   Fn3  v048
 BYTE   W03
 BYTE   W03
 BYTE   W03
 BYTE   W03
 BYTE   W03
 BYTE   W03
 BYTE   W03
 BYTE   W03
 BYTE   W03
 BYTE   W03
 BYTE   W03
 BYTE   W03
 BYTE   W03
 BYTE   W03
 BYTE   W03
 BYTE   W03
 BYTE   Ds3  v032
 BYTE   W03
 BYTE   W03
 BYTE   W03
 BYTE   W03
 BYTE   W03
 BYTE   W03
 BYTE   W03
 BYTE   W03
 BYTE   W03
 BYTE   W03
 BYTE   W03
 BYTE   W03
 BYTE   W03
 BYTE   W03
 BYTE   W03
 BYTE   W03
//  #08 //028   ----------------------------------------
 BYTE   W96
//  #08 //029   ----------------------------------------
 BYTE   W96
//  #08 //030   ----------------------------------------
 BYTE   W96
//  #08 //031   ----------------------------------------
 BYTE   W96
//  #08 //032   ----------------------------------------
 BYTE   W96
//  #08 //033   ----------------------------------------
 BYTE   W96
//  #08 //034   ----------------------------------------
 BYTE   W96
//  #08 //035   ----------------------------------------
 BYTE   W96
//  #08 //036   ----------------------------------------
 BYTE   W96
//  #08 //037   ----------------------------------------
 BYTE   W96
//  #08 //038   ----------------------------------------
 BYTE   W96
//  #08 //039   ----------------------------------------
 BYTE   W96
//  #08 //040   ----------------------------------------
 BYTE   W96
//  #08 //041   ----------------------------------------
 BYTE   W96
//  #08 //042   ----------------------------------------
 BYTE   W48
Label_D3DFC7:
 BYTE   N11  As3  v080
 BYTE   N11  Cn4
 BYTE   W24
 BYTE   N32  As3
 BYTE   N32  Cn4
 BYTE   W24
//  #08 //043   ----------------------------------------
 BYTE   W24
 BYTE   As3
 BYTE   N32  Cn4
 BYTE   W24
 BYTE   PEND
Label_D3DFD8:
 BYTE   W24
 BYTE   N68  As3  v080
 BYTE   N68  Cn4
 BYTE   W72
 BYTE   PEND
//  #08 //044   ----------------------------------------
 BYTE   N11  As3
 BYTE   N11  Cn4
 BYTE   W24
 BYTE   N32  As3
 BYTE   N32  Cn4
 BYTE   W24
 BYTE   W24
 BYTE   As3
 BYTE   N32  Cn4
 BYTE   W02
 BYTE   W03
 BYTE   W02
 BYTE   W03
 BYTE   W02
 BYTE   W03
 BYTE   W02
 BYTE   W03
 BYTE   W03
 BYTE   W01
//  #08 //045   ----------------------------------------
 BYTE   W01
 BYTE   W03
 BYTE   W02
 BYTE   W03
 BYTE   W02
 BYTE   W03
 BYTE   W02
 BYTE   W03
 BYTE   W03
 BYTE   W02
 BYTE   N68  As3  v064
 BYTE   N68  Cn4
 BYTE   W03
 BYTE   W02
 BYTE   W03
 BYTE   W02
 BYTE   W03
 BYTE   W02
 BYTE   W03
 BYTE   W02
 BYTE   W03
 BYTE   W03
 BYTE   W02
 BYTE   W03
 BYTE   W02
 BYTE   W03
 BYTE   W02
 BYTE   W03
 BYTE   W02
 BYTE   W03
 BYTE   W03
 BYTE   W02
 BYTE   W03
 BYTE   W02
 BYTE   W03
 BYTE   W02
 BYTE   W03
 BYTE   W02
 BYTE   W03
 BYTE   W03
//  #08 //046   ----------------------------------------
 BYTE   W96
//  #08 //047   ----------------------------------------
 BYTE   W96
//  #08 //048   ----------------------------------------
 BYTE   W96
//  #08 //049   ----------------------------------------
 BYTE   W96
//  #08 //050   ----------------------------------------
 BYTE   PATT
  POIN2 Label_D3DFC7
//  #08 //051   ----------------------------------------
 BYTE   PATT
  POIN2 Label_D3DFD8
//  #08 //052   ----------------------------------------
 BYTE   N11  As3  v080
 BYTE   N11  Cn4
 BYTE   W24
 BYTE   N32  As3
 BYTE   N32  Cn4
 BYTE   W24
 BYTE   W24
 BYTE   As3
 BYTE   N32  Cn4
 BYTE   W01
 BYTE   W02
 BYTE   W02
 BYTE   W02
 BYTE   W02
 BYTE   W02
 BYTE   W02
 BYTE   W02
 BYTE   W01
 BYTE   W02
 BYTE   W02
 BYTE   W02
 BYTE   W02
//  #08 //053   ----------------------------------------
 BYTE   W02
 BYTE   W02
 BYTE   W02
 BYTE   W01
 BYTE   W02
 BYTE   W02
 BYTE   W02
 BYTE   W02
 BYTE   W02
 BYTE   W02
 BYTE   W02
 BYTE   W01
 BYTE   W02
 BYTE   N68  As3  v056
 BYTE   N68  Cn4
 BYTE   W02
 BYTE   W02
 BYTE   W02
 BYTE   W02
 BYTE   W02
 BYTE   W02
 BYTE   W01
 BYTE   W02
 BYTE   W02
 BYTE   W02
 BYTE   W02
 BYTE   W02
 BYTE   W01
 BYTE   W01
 BYTE   W02
 BYTE   W01
 BYTE   W02
 BYTE   W02
 BYTE   W02
 BYTE   W02
 BYTE   W02
 BYTE   W02
 BYTE   W02
 BYTE   W01
 BYTE   W02
 BYTE   W02
 BYTE   W02
 BYTE   W02
 BYTE   W02
 BYTE   W02
 BYTE   W02
 BYTE   W01
 BYTE   W02
 BYTE   W02
 BYTE   W02
 BYTE   W02
 BYTE   W02
 BYTE   W02
 BYTE   W02
//  #08 //054   ----------------------------------------
 BYTE   W24
 BYTE   Cs4  v064
 BYTE   N68  Fs4
 BYTE   W01
 BYTE   W02
 BYTE   W01
 BYTE   W02
 BYTE   W01
 BYTE   W02
 BYTE   W01
 BYTE   W02
 BYTE   W01
 BYTE   W02
 BYTE   W01
 BYTE   W02
 BYTE   W01
 BYTE   W02
 BYTE   W01
 BYTE   W02
 BYTE   W01
 BYTE   W02
 BYTE   W01
 BYTE   W02
 BYTE   W01
 BYTE   W02
 BYTE   W01
 BYTE   W02
 BYTE   W01
 BYTE   W02
 BYTE   W01
 BYTE   W02
 BYTE   W01
 BYTE   W02
 BYTE   W01
 BYTE   W02
 BYTE   W01
 BYTE   W02
 BYTE   W01
 BYTE   W02
 BYTE   W01
 BYTE   W02
 BYTE   W01
 BYTE   W02
 BYTE   W01
 BYTE   W02
 BYTE   W01
 BYTE   W02
 BYTE   W01
 BYTE   W02
 BYTE   W01
 BYTE   W02
//  #08 //055   ----------------------------------------
 BYTE   W24
 BYTE   TIE  Cs4
 BYTE   TIE  Fs4
 BYTE   W02
 BYTE   W03
 BYTE   W02
 BYTE   W03
 BYTE   W02
 BYTE   W03
 BYTE   W02
 BYTE   W03
 BYTE   W02
 BYTE   W02
 BYTE   W01
 BYTE   W02
 BYTE   W03
 BYTE   W02
 BYTE   W03
 BYTE   W02
 BYTE   W03
 BYTE   W02
 BYTE   W03
 BYTE   W02
 BYTE   W03
 BYTE   W02
 BYTE   W03
 BYTE   W02
 BYTE   W03
 BYTE   W02
 BYTE   W03
 BYTE   W02
 BYTE   W03
 BYTE   W02
//  #08 //056   ----------------------------------------
 BYTE   W03
 BYTE   W02
 BYTE   W03
 BYTE   W02
 BYTE   W03
 BYTE   W02
 BYTE   W03
 BYTE   W02
 BYTE   W03
 BYTE   W02
 BYTE   W03
 BYTE   W02
 BYTE   W03
 BYTE   W02
 BYTE   W03
 BYTE   W02
 BYTE   W03
 BYTE   W02
 BYTE   W02
 BYTE   EOT
 BYTE   Cs4  v078
 BYTE   W01
 BYTE   W96
//  #08 //057   ----------------------------------------
 BYTE   W96
//  #08 //058   ----------------------------------------
 BYTE   W96
//  #08 //059   ----------------------------------------
 BYTE   W48
 BYTE   W96
//  #08 //060   ----------------------------------------
 BYTE   W96
//  #08 //061   ----------------------------------------
 BYTE   W96
//  #08 //062   ----------------------------------------
 BYTE   W96
//  #08 //063   ----------------------------------------
 BYTE   W96
//  #08 //064   ----------------------------------------
 BYTE   W96
//  #08 //065   ----------------------------------------
 BYTE   W96
//  #08 //066   ----------------------------------------
 BYTE   W96
//  #08 //067   ----------------------------------------
 BYTE   W96
//  #08 //068   ----------------------------------------
 BYTE   W96
//  #08 //069   ----------------------------------------
 BYTE   W96
//  #08 //070   ----------------------------------------
 BYTE   W96
//  #08 //071   ----------------------------------------
 BYTE   W96
//  #08 //072   ----------------------------------------
 BYTE   W96
//  #08 //073   ----------------------------------------
 BYTE   W96
//  #08 //074   ----------------------------------------
 BYTE   W48
 BYTE   GoTo
  POIN2 Label_D3DEAA
 BYTE   FINE

//**************** Track 9 (Midi-Chn.8) ****************//

NoOneIsAlone_009:
//  #09 //000   ----------------------------------------
 BYTE   KEYSH   NoOneIsAlone_key+0
Label_01000B7A:
 BYTE   VOICE   106
 BYTE   VOL   40*NoOneIsAlone_mvl/mxv
 BYTE   PAN   c_v+0
 BYTE   VOL   32*NoOneIsAlone_mvl/mxv
 BYTE   PAN   c_v+0
 BYTE   N92  Cs1  v064
 BYTE   W96
//  #09 //001   ----------------------------------------
 BYTE   W96
//  #09 //002   ----------------------------------------
 BYTE   N92
 BYTE   W96
//  #09 //003   ----------------------------------------
 BYTE   W96
//  #09 //004   ----------------------------------------
 BYTE   N92
 BYTE   W96
//  #09 //005   ----------------------------------------
 BYTE   W96
//  #09 //006   ----------------------------------------
 BYTE   Fs1
 BYTE   W96
//  #09 //007   ----------------------------------------
 BYTE   W96
//  #09 //008   ----------------------------------------
 BYTE   Cs1
 BYTE   W96
//  #09 //009   ----------------------------------------
 BYTE   W96
//  #09 //010   ----------------------------------------
 BYTE   Fs1
 BYTE   W96
//  #09 //011   ----------------------------------------
 BYTE   W48
 BYTE   N44  Ds3  v016
 BYTE   N44  Fn3
 BYTE   W01
 BYTE   W01
 BYTE   W01
 BYTE   W01
 BYTE   W01
 BYTE   W01
 BYTE   W01
 BYTE   W01
 BYTE   W01
 BYTE   W01
 BYTE   W01
 BYTE   W01
 BYTE   W01
 BYTE   W01
 BYTE   W01
 BYTE   W01
 BYTE   W01
 BYTE   W01
 BYTE   W01
 BYTE   W01
 BYTE   W01
 BYTE   W01
 BYTE   W01
 BYTE   W01
 BYTE   W01
 BYTE   W01
 BYTE   W01
 BYTE   W01
 BYTE   W01
 BYTE   W01
 BYTE   W01
 BYTE   W01
 BYTE   W01
 BYTE   W01
 BYTE   W01
 BYTE   W01
 BYTE   W01
 BYTE   W01
 BYTE   W01
 BYTE   W01
 BYTE   W01
 BYTE   W01
 BYTE   W01
 BYTE   W01
 BYTE   W01
 BYTE   W01
 BYTE   W01
 BYTE   W01
//  #09 //012   ----------------------------------------
 BYTE   N92  Cs1  v064
 BYTE   TIE  Cs3
 BYTE   TIE  Ds3
 BYTE   W03
 BYTE   W03
 BYTE   W03
 BYTE   W03
 BYTE   W03
 BYTE   W03
 BYTE   W03
 BYTE   W03
 BYTE   W03
 BYTE   W03
 BYTE   W03
 BYTE   W03
 BYTE   W03
 BYTE   W03
 BYTE   W03
 BYTE   W03
 BYTE   W03
 BYTE   W03
 BYTE   W03
 BYTE   W03
 BYTE   W03
 BYTE   W03
 BYTE   W03
 BYTE   W03
 BYTE   W03
 BYTE   W03
 BYTE   W03
 BYTE   W03
 BYTE   W03
 BYTE   W03
 BYTE   W03
 BYTE   W03
//  #09 //013   ----------------------------------------
 BYTE   W03
 BYTE   W03
 BYTE   W03
 BYTE   W03
 BYTE   W03
 BYTE   W03
 BYTE   W03
 BYTE   W03
 BYTE   W03
 BYTE   W03
 BYTE   W03
 BYTE   W03
 BYTE   W03
 BYTE   W03
 BYTE   W03
 BYTE   W02
 BYTE   EOT
 BYTE   Cs3  v063
 BYTE   W01
 BYTE   N44  Ds3  v016
 BYTE   N44  Fn3
 BYTE   W01
 BYTE   W01
 BYTE   W01
 BYTE   W01
 BYTE   W01
 BYTE   W01
 BYTE   W01
 BYTE   W01
 BYTE   W01
 BYTE   W01
 BYTE   W01
 BYTE   W01
 BYTE   W01
 BYTE   W01
 BYTE   W01
 BYTE   W01
 BYTE   W01
 BYTE   W01
 BYTE   W01
 BYTE   W01
 BYTE   W01
 BYTE   W01
 BYTE   W01
 BYTE   W01
 BYTE   N23  Gs1  v064
 BYTE   W01
 BYTE   W01
 BYTE   W01
 BYTE   W01
 BYTE   W01
 BYTE   W01
 BYTE   W01
 BYTE   W01
 BYTE   W01
 BYTE   W01
 BYTE   W01
 BYTE   W01
 BYTE   W01
 BYTE   W01
 BYTE   W01
 BYTE   W01
 BYTE   W01
 BYTE   W01
 BYTE   W01
 BYTE   W01
 BYTE   W01
 BYTE   W01
 BYTE   W01
 BYTE   W01
//  #09 //014   ----------------------------------------
 BYTE   N92  Cs1
 BYTE   N05  Cs3
 BYTE   N05  Ds3
 BYTE   W24
 BYTE   TIE  Cs3
 BYTE   TIE  Ds3
 BYTE   W05
 BYTE   W05
 BYTE   W05
 BYTE   W06
 BYTE   W05
 BYTE   W05
 BYTE   W05
 BYTE   W06
 BYTE   W05
 BYTE   W05
 BYTE   W05
 BYTE   W06
 BYTE   W05
 BYTE   W04
//  #09 //015   ----------------------------------------
 BYTE   W01
 BYTE   W05
 BYTE   W06
 BYTE   W05
 BYTE   W05
 BYTE   W05
 BYTE   W06
 BYTE   W05
 BYTE   W05
 BYTE   W05
 BYTE   W06
 BYTE   W05
 BYTE   W05
 BYTE   W05
 BYTE   W06
 BYTE   W05
 BYTE   W05
 BYTE   W05
 BYTE   W06
//  #09 //016   ----------------------------------------
 BYTE   W05
 BYTE   W05
 BYTE   W05
 BYTE   W06
 BYTE   W05
 BYTE   W05
 BYTE   W05
 BYTE   W06
 BYTE   W05
 BYTE   W05
 BYTE   W05
 BYTE   W06
 BYTE   W05
 BYTE   W05
 BYTE   W05
 BYTE   W06
 BYTE   W11
 BYTE   EOT
 BYTE   Cs3  v063
 BYTE   W01
//  #09 //017   ----------------------------------------
 BYTE   N92  Cs1  v076
 BYTE   TIE  Cs3  v036
 BYTE   W96
//  #09 //018   ----------------------------------------
Label_01000C88:
 BYTE   W92
 BYTE   W03
 BYTE   PEND
 BYTE   EOT
 BYTE   Cs3
 BYTE   W01
//  #09 //019   ----------------------------------------
 BYTE   N44  Fn3  v036
 BYTE   W01
 BYTE   W01
 BYTE   W01
 BYTE   W01
 BYTE   W01
 BYTE   W01
 BYTE   W01
 BYTE   W01
 BYTE   W01
 BYTE   W01
 BYTE   W01
 BYTE   W01
 BYTE   W01
 BYTE   W01
 BYTE   W01
 BYTE   W01
 BYTE   W01
 BYTE   W01
 BYTE   W01
 BYTE   W01
 BYTE   W01
 BYTE   W01
 BYTE   W01
 BYTE   W01
 BYTE   W01
 BYTE   W01
 BYTE   W01
 BYTE   W01
 BYTE   W01
 BYTE   W01
 BYTE   W01
 BYTE   W01
 BYTE   W01
 BYTE   W01
 BYTE   W01
 BYTE   W01
 BYTE   W01
 BYTE   W01
 BYTE   W01
 BYTE   W01
 BYTE   W01
 BYTE   W01
 BYTE   W01
 BYTE   W01
 BYTE   W02
 BYTE   W01
 BYTE   W01
 BYTE   Ds3  v080
 BYTE   W01
 BYTE   W01
 BYTE   W01
 BYTE   W01
 BYTE   W01
 BYTE   W01
 BYTE   W01
 BYTE   W01
 BYTE   W01
 BYTE   W01
 BYTE   W01
 BYTE   W01
 BYTE   W01
 BYTE   W01
 BYTE   W01
 BYTE   W01
 BYTE   W01
 BYTE   W01
 BYTE   W01
 BYTE   W01
 BYTE   W01
 BYTE   W01
 BYTE   W01
 BYTE   W01
 BYTE   W01
 BYTE   W01
 BYTE   W01
 BYTE   W01
 BYTE   W01
 BYTE   W01
 BYTE   W01
 BYTE   W01
 BYTE   W01
 BYTE   W01
 BYTE   W01
 BYTE   W01
 BYTE   W01
 BYTE   W01
 BYTE   W01
 BYTE   W01
 BYTE   W01
 BYTE   W01
 BYTE   W01
 BYTE   W01
 BYTE   W02
 BYTE   W01
 BYTE   W01
//  #09 //020   ----------------------------------------
 BYTE   N92  Fs1  v064
 BYTE   TIE  Cs3  v036
 BYTE   W96
//  #09 //021   ----------------------------------------
 BYTE   PATT
  POIN2 Label_01000C88
//  #09 //022   ----------------------------------------
 BYTE   EOT
 BYTE   Cs3
 BYTE   W01
 BYTE   N92  Ds3  v036
 BYTE   W96
//  #09 //023   ----------------------------------------
 BYTE   Cs1  v064
 BYTE   TIE  Cs3  v036
 BYTE   W96
//  #09 //024   ----------------------------------------
 BYTE   W04
 BYTE   W04
 BYTE   W04
 BYTE   W04
 BYTE   W04
 BYTE   W04
 BYTE   W04
 BYTE   W04
 BYTE   W04
 BYTE   W04
 BYTE   W04
 BYTE   W05
 BYTE   W04
 BYTE   W04
 BYTE   W04
 BYTE   W04
 BYTE   W04
 BYTE   W04
 BYTE   W04
 BYTE   W04
 BYTE   W04
 BYTE   W04
 BYTE   W05
 BYTE   W01
 BYTE   EOT
 BYTE   W01
//  #09 //025   ----------------------------------------
 BYTE   N44  Fn3  v056
 BYTE   W02
 BYTE   W04
 BYTE   W04
 BYTE   W04
 BYTE   W04
 BYTE   W04
 BYTE   W04
 BYTE   W04
 BYTE   W04
 BYTE   W04
 BYTE   W04
 BYTE   W05
 BYTE   W01
 BYTE   Ds3  v068
 BYTE   W03
 BYTE   W04
 BYTE   W04
 BYTE   W04
 BYTE   W04
 BYTE   W04
 BYTE   W04
 BYTE   W04
 BYTE   W04
 BYTE   W04
 BYTE   W04
 BYTE   W05
//  #09 //026   ----------------------------------------
 BYTE   N92  Fs1  v080
 BYTE   N48  Fs3
 BYTE   N44  Gs3
 BYTE   W03
 BYTE   W03
 BYTE   W03
 BYTE   W03
 BYTE   W03
 BYTE   W03
 BYTE   W03
 BYTE   W03
 BYTE   W03
 BYTE   W03
 BYTE   W03
 BYTE   W03
 BYTE   W03
 BYTE   W03
 BYTE   W03
 BYTE   W03
 BYTE   Fs3  v064
 BYTE   W03
 BYTE   W03
 BYTE   W03
 BYTE   W03
 BYTE   W03
 BYTE   W03
 BYTE   W03
 BYTE   W03
 BYTE   W03
 BYTE   W03
 BYTE   W03
 BYTE   W03
 BYTE   W03
 BYTE   W03
 BYTE   W03
 BYTE   W03
//  #09 //027   ----------------------------------------
 BYTE   N92  Cs3  v048
 BYTE   N44  Fn3
 BYTE   W03
 BYTE   W03
 BYTE   W03
 BYTE   W03
 BYTE   W03
 BYTE   W03
 BYTE   W03
 BYTE   W03
 BYTE   W03
 BYTE   W03
 BYTE   W03
 BYTE   W03
 BYTE   W03
 BYTE   W03
 BYTE   W03
 BYTE   W03
 BYTE   Ds3  v032
 BYTE   W03
 BYTE   W03
 BYTE   W03
 BYTE   W03
 BYTE   W03
 BYTE   W03
 BYTE   W03
 BYTE   W03
 BYTE   W03
 BYTE   W03
 BYTE   W03
 BYTE   W03
 BYTE   W03
 BYTE   W03
 BYTE   W03
 BYTE   W03
//  #09 //028   ----------------------------------------
 BYTE   N92  Cs1  v064
 BYTE   W96
//  #09 //029   ----------------------------------------
 BYTE   W96
//  #09 //030   ----------------------------------------
 BYTE   N92
 BYTE   W96
//  #09 //031   ----------------------------------------
 BYTE   W96
//  #09 //032   ----------------------------------------
 BYTE   Fs1
 BYTE   W96
//  #09 //033   ----------------------------------------
 BYTE   W96
//  #09 //034   ----------------------------------------
 BYTE   Cs1
 BYTE   W96
//  #09 //035   ----------------------------------------
 BYTE   W96
//  #09 //036   ----------------------------------------
 BYTE   Fs1
 BYTE   W96
//  #09 //037   ----------------------------------------
 BYTE   W48
 BYTE   N44  Ds3  v036
 BYTE   N44  Fn3
 BYTE   W01
 BYTE   W02
 BYTE   W01
 BYTE   W02
 BYTE   W01
 BYTE   W02
 BYTE   W01
 BYTE   W02
 BYTE   W01
 BYTE   W02
 BYTE   W02
 BYTE   W01
 BYTE   W02
 BYTE   W01
 BYTE   W02
 BYTE   W01
 BYTE   W02
 BYTE   W01
 BYTE   W02
 BYTE   W02
 BYTE   W01
 BYTE   W02
 BYTE   W01
 BYTE   W02
 BYTE   W01
 BYTE   W02
 BYTE   W01
 BYTE   W02
 BYTE   W01
 BYTE   W02
 BYTE   W02
//  #09 //038   ----------------------------------------
Label_01000DC7:
 BYTE   N92  Cs1  v064
 BYTE   N92  Cs3
 BYTE   N92  Ds3
 BYTE   W02
 BYTE   W02
 BYTE   W02
 BYTE   W02
 BYTE   W02
 BYTE   W02
 BYTE   W02
 BYTE   W02
 BYTE   W02
 BYTE   W02
 BYTE   W02
 BYTE   W02
 BYTE   W02
 BYTE   W02
 BYTE   W02
 BYTE   W02
 BYTE   W02
 BYTE   W02
 BYTE   W02
 BYTE   W02
 BYTE   W02
 BYTE   W02
 BYTE   W02
 BYTE   W02
 BYTE   W02
 BYTE   W02
 BYTE   W02
 BYTE   W02
 BYTE   W02
 BYTE   W02
 BYTE   W02
 BYTE   W02
 BYTE   W02
 BYTE   W02
 BYTE   W02
 BYTE   W02
 BYTE   W02
 BYTE   W02
 BYTE   W02
 BYTE   W02
 BYTE   W02
 BYTE   W02
 BYTE   W02
 BYTE   W02
 BYTE   W02
 BYTE   W02
 BYTE   W02
 BYTE   W02
 BYTE   PEND
//  #09 //039   ----------------------------------------
Label_01000DFF:
 BYTE   W48
 BYTE   N44  Ds3  v036
 BYTE   N44  Fn3
 BYTE   W01
 BYTE   W02
 BYTE   W01
 BYTE   W02
 BYTE   W01
 BYTE   W02
 BYTE   W01
 BYTE   W02
 BYTE   W01
 BYTE   W02
 BYTE   W02
 BYTE   W01
 BYTE   W02
 BYTE   W01
 BYTE   W02
 BYTE   W01
 BYTE   N23  Gs1  v064
 BYTE   W02
 BYTE   W01
 BYTE   W02
 BYTE   W02
 BYTE   W01
 BYTE   W02
 BYTE   W01
 BYTE   W02
 BYTE   W01
 BYTE   W02
 BYTE   W01
 BYTE   W02
 BYTE   W01
 BYTE   W02
 BYTE   W02
 BYTE   PEND
//  #09 //040   ----------------------------------------
 BYTE   N92  Cs1
 BYTE   N11  Cs3
 BYTE   N11  Ds3
 BYTE   W06
 BYTE   W18
 BYTE   TIE  Cs3
 BYTE   TIE  Ds3
 BYTE   W07
 BYTE   W06
 BYTE   W06
 BYTE   W06
 BYTE   W06
 BYTE   W06
 BYTE   W07
 BYTE   W06
 BYTE   W06
 BYTE   W06
 BYTE   W06
 BYTE   W04
//  #09 //041   ----------------------------------------
 BYTE   W03
 BYTE   W06
 BYTE   W06
 BYTE   W06
 BYTE   W06
 BYTE   W07
 BYTE   W06
 BYTE   W06
 BYTE   W06
 BYTE   W06
 BYTE   W07
 BYTE   W06
 BYTE   W06
 BYTE   W06
 BYTE   W06
 BYTE   W06
 BYTE   EOT
 BYTE   Cs3  v063
 BYTE   W01
//  #09 //042   ----------------------------------------
 BYTE   N23  Cn2
 BYTE   N32  Cs3  v036
 BYTE   W01
 BYTE   W01
 BYTE   W01
 BYTE   W01
 BYTE   W01
 BYTE   W01
 BYTE   W01
 BYTE   W01
 BYTE   W01
 BYTE   W01
 BYTE   W01
 BYTE   W01
 BYTE   W01
 BYTE   W01
 BYTE   W01
 BYTE   W01
 BYTE   W01
 BYTE   W01
 BYTE   W01
 BYTE   W01
 BYTE   W01
 BYTE   W01
 BYTE   W01
 BYTE   W01
 BYTE   N23  As1  v072
 BYTE   W01
 BYTE   W01
 BYTE   W01
 BYTE   W01
 BYTE   W01
 BYTE   W01
 BYTE   W01
 BYTE   W01
 BYTE   W01
 BYTE   W01
 BYTE   W01
 BYTE   W01
 BYTE   N11  As3  v068
 BYTE   W01
 BYTE   W01
 BYTE   W01
 BYTE   W01
 BYTE   W01
 BYTE   W01
 BYTE   W01
 BYTE   W01
 BYTE   W02
 BYTE   W01
 BYTE   W01
Label_01000E8E:
 BYTE   N92  Gs1  v080
 BYTE   TIE  Cn4
 BYTE   W96
 BYTE   PEND
//  #09 //043   ----------------------------------------
 BYTE   W23
 BYTE   EOT
 BYTE   W01
 BYTE   N23  Cs4
 BYTE   W24
 BYTE   As3
 BYTE   W24
 BYTE   Cn4
 BYTE   W24
//  #09 //044   ----------------------------------------
 BYTE   Cn2  v052
 BYTE   N23  Cs4  v080
 BYTE   W24
 BYTE   As1  v064
 BYTE   N23  Ds4  v080
 BYTE   W24
 BYTE   N44  Gs1
 BYTE   N92  Cn4
 BYTE   W02
 BYTE   W03
 BYTE   W02
 BYTE   W03
 BYTE   W02
 BYTE   W03
 BYTE   W02
 BYTE   W03
 BYTE   W03
 BYTE   W02
 BYTE   W03
 BYTE   W02
 BYTE   W03
 BYTE   W02
 BYTE   W03
 BYTE   W02
 BYTE   W03
 BYTE   W03
 BYTE   W02
//  #09 //045   ----------------------------------------
 BYTE   W03
 BYTE   W02
 BYTE   W03
 BYTE   W02
 BYTE   W03
 BYTE   W02
 BYTE   W03
 BYTE   W02
 BYTE   W03
 BYTE   W03
 BYTE   W02
 BYTE   W03
 BYTE   W02
 BYTE   W03
 BYTE   W02
 BYTE   W03
 BYTE   W02
 BYTE   W03
 BYTE   W02
 BYTE   N23  As3  v044
 BYTE   W01
 BYTE   W02
 BYTE   W03
 BYTE   W02
 BYTE   W03
 BYTE   W02
 BYTE   W03
 BYTE   W02
 BYTE   W03
 BYTE   W03
 BYTE   W24
//  #09 //046   ----------------------------------------
 BYTE   N92  Cs1  v052
 BYTE   N11  Cs3
 BYTE   N11  Ds3
 BYTE   W06
 BYTE   W18
 BYTE   N32  Cs3
 BYTE   N32  Ds3
 BYTE   W01
 BYTE   W07
 BYTE   W06
 BYTE   W06
 BYTE   W04
 BYTE   W03
 BYTE   W06
 BYTE   W07
 BYTE   W06
 BYTE   W02
 BYTE   Cs3  v060
 BYTE   N32  Ds3
 BYTE   W04
 BYTE   W07
 BYTE   W06
 BYTE   W07
//  #09 //047   ----------------------------------------
 BYTE   W06
 BYTE   W18
 BYTE   N11  Cs3  v064
 BYTE   N11  Ds3
 BYTE   W01
 BYTE   W07
 BYTE   W06
 BYTE   W06
 BYTE   W04
 BYTE   N44  Cs3  v060
 BYTE   N44  Ds3
 BYTE   W03
 BYTE   W06
 BYTE   W07
 BYTE   W06
 BYTE   W02
 BYTE   N23  Gs1  v052
 BYTE   W04
 BYTE   W07
 BYTE   W06
 BYTE   W07
//  #09 //048   ----------------------------------------
 BYTE   N92  Cs1
 BYTE   N11  Cs3
 BYTE   N11  Ds3
 BYTE   W06
 BYTE   W18
 BYTE   N32  Cs3
 BYTE   N32  Ds3
 BYTE   W01
 BYTE   W07
 BYTE   W06
 BYTE   W06
 BYTE   W04
 BYTE   W03
 BYTE   W06
 BYTE   W07
 BYTE   W06
 BYTE   W02
 BYTE   N68  Cs3  v060
 BYTE   N68  Ds3
 BYTE   W04
 BYTE   W07
 BYTE   W06
 BYTE   W07
//  #09 //049   ----------------------------------------
 BYTE   W01
 BYTE   W02
 BYTE   W01
 BYTE   W02
 BYTE   W01
 BYTE   W02
 BYTE   W01
 BYTE   W02
 BYTE   W01
 BYTE   W02
 BYTE   W02
 BYTE   W01
 BYTE   W02
 BYTE   W01
 BYTE   W02
 BYTE   W01
 BYTE   W02
 BYTE   W01
 BYTE   W02
 BYTE   W02
 BYTE   W01
 BYTE   W02
 BYTE   W01
 BYTE   W02
 BYTE   W01
 BYTE   W02
 BYTE   W01
 BYTE   W02
 BYTE   W01
 BYTE   W02
 BYTE   W02
 BYTE   N23  Cn2  v052
 BYTE   N23  Cs3  v036
 BYTE   W01
 BYTE   W01
 BYTE   W01
 BYTE   W01
 BYTE   W01
 BYTE   W01
 BYTE   W01
 BYTE   W01
 BYTE   W01
 BYTE   W01
 BYTE   W01
 BYTE   W01
 BYTE   W01
 BYTE   W01
 BYTE   W01
 BYTE   W01
 BYTE   W01
 BYTE   W01
 BYTE   W01
 BYTE   W01
 BYTE   W01
 BYTE   W01
 BYTE   W01
 BYTE   W01
 BYTE   As1  v064
 BYTE   N23  As3  v056
 BYTE   W01
 BYTE   W01
 BYTE   W01
 BYTE   W01
 BYTE   W01
 BYTE   W01
 BYTE   W01
 BYTE   W01
 BYTE   W01
 BYTE   W01
 BYTE   W01
 BYTE   W01
 BYTE   W01
 BYTE   W01
 BYTE   W01
 BYTE   W01
 BYTE   W01
 BYTE   W01
 BYTE   W01
 BYTE   W01
 BYTE   W02
 BYTE   W01
 BYTE   W01
//  #09 //050   ----------------------------------------
 BYTE   PATT
  POIN2 Label_01000E8E
//  #09 //051   ----------------------------------------
 BYTE   W92
 BYTE   W03
 BYTE   EOT
 BYTE   Cn4
 BYTE   W01
//  #09 //052   ----------------------------------------
 BYTE   N23  Cn2  v052
 BYTE   N32  Cs4  v080
 BYTE   W24
 BYTE   N23  As1  v064
 BYTE   W12
 BYTE   N11  Ds4  v080
 BYTE   W12
 BYTE   N92  Gs1
 BYTE   N92  Cn4
 BYTE   W02
 BYTE   W03
 BYTE   W02
 BYTE   W03
 BYTE   W02
 BYTE   W03
 BYTE   W02
 BYTE   W03
 BYTE   W03
 BYTE   W02
 BYTE   W03
 BYTE   W02
 BYTE   W03
 BYTE   W02
 BYTE   W03
 BYTE   W02
 BYTE   W03
 BYTE   W03
 BYTE   W02
//  #09 //053   ----------------------------------------
 BYTE   W03
 BYTE   W02
 BYTE   W03
 BYTE   W02
 BYTE   W03
 BYTE   W02
 BYTE   W03
 BYTE   W02
 BYTE   W03
 BYTE   W03
 BYTE   W02
 BYTE   W03
 BYTE   W02
 BYTE   W03
 BYTE   W02
 BYTE   W03
 BYTE   W02
 BYTE   W03
 BYTE   W02
 BYTE   Cs1
 BYTE   N23  As3  v044
 BYTE   W01
 BYTE   W02
 BYTE   W03
 BYTE   W02
 BYTE   W03
 BYTE   W02
 BYTE   W03
 BYTE   W02
 BYTE   W03
 BYTE   W03
 BYTE   W72
//  #09 //054   ----------------------------------------
 BYTE   W96
//  #09 //055   ----------------------------------------
 BYTE   W96
//  #09 //056   ----------------------------------------
 BYTE   W96
//  #09 //057   ----------------------------------------
 BYTE   W96
//  #09 //058   ----------------------------------------
 BYTE   W96
//  #09 //059   ----------------------------------------
 BYTE   W48
Label_01000FEF:
 BYTE   N92  Cs1  v064
 BYTE   TIE  Fn3  v052
 BYTE   W06
 BYTE   W06
 BYTE   W07
 BYTE   W06
 BYTE   W07
 BYTE   W06
 BYTE   W06
 BYTE   W07
//  #09 //060   ----------------------------------------
 BYTE   W06
 BYTE   W07
 BYTE   W06
 BYTE   W06
 BYTE   W07
 BYTE   W06
 BYTE   W07
 BYTE   PEND
Label_01001005:
 BYTE   W06
 BYTE   W06
 BYTE   W07
 BYTE   W06
 BYTE   W07
 BYTE   W06
 BYTE   W06
 BYTE   W07
//  #09 //061   ----------------------------------------
 BYTE   W06
 BYTE   W07
 BYTE   W06
 BYTE   W06
 BYTE   W07
 BYTE   W06
 BYTE   W06
 BYTE   PEND
 BYTE   EOT
 BYTE   Fn3
 BYTE   W01
 BYTE   N92  Fs1  v064
 BYTE   N92  Fs3  v052
 BYTE   W06
 BYTE   W06
 BYTE   W07
 BYTE   W06
 BYTE   W07
 BYTE   W06
 BYTE   W06
 BYTE   W07
//  #09 //062   ----------------------------------------
 BYTE   W06
 BYTE   W07
 BYTE   W06
 BYTE   W06
 BYTE   W07
 BYTE   W06
 BYTE   W07
 BYTE   N44  Gs3  v064
 BYTE   W06
 BYTE   W06
 BYTE   W07
 BYTE   W06
 BYTE   W07
 BYTE   W06
 BYTE   W06
 BYTE   W04
 BYTE   Fs3  v060
 BYTE   W03
//  #09 //063   ----------------------------------------
 BYTE   W06
 BYTE   W07
 BYTE   W06
 BYTE   W06
 BYTE   W07
 BYTE   W06
 BYTE   W07
//  #09 //064   ----------------------------------------
 BYTE   PATT
  POIN2 Label_01000FEF
//  #09 //065   ----------------------------------------
 BYTE   PATT
  POIN2 Label_01001005
//  #09 //066   ----------------------------------------
 BYTE   EOT
 BYTE   Fn3
 BYTE   W01
 BYTE   N92  Fs1  v064
 BYTE   N92  Fs3  v052
 BYTE   W12
 BYTE   W13
 BYTE   W13
 BYTE   W13
 BYTE   W13
 BYTE   W12
 BYTE   W13
 BYTE   W07
//  #09 //067   ----------------------------------------
 BYTE   N44  Gs3  v056
 BYTE   W06
 BYTE   W13
 BYTE   W13
 BYTE   W12
 BYTE   W04
 BYTE   Fs3  v060
 BYTE   W09
 BYTE   W13
 BYTE   W13
 BYTE   W13
//  #09 //068   ----------------------------------------
 BYTE   PATT
  POIN2 Label_01000DC7
//  #09 //069   ----------------------------------------
 BYTE   PATT
  POIN2 Label_01000DFF
//  #09 //070   ----------------------------------------
 BYTE   N92  Cs1  v064
 BYTE   TIE  Cs3
 BYTE   TIE  Ds3
 BYTE   W04
 BYTE   W04
 BYTE   W04
 BYTE   W04
 BYTE   W04
 BYTE   W04
 BYTE   W04
 BYTE   W04
 BYTE   W04
 BYTE   W04
 BYTE   W04
 BYTE   W04
 BYTE   W04
 BYTE   W04
 BYTE   W04
 BYTE   W04
 BYTE   W04
 BYTE   W04
 BYTE   W04
 BYTE   W04
 BYTE   W04
 BYTE   W04
 BYTE   W04
 BYTE   W04
//  #09 //071   ----------------------------------------
 BYTE   W04
 BYTE   W04
 BYTE   W04
 BYTE   W04
 BYTE   W04
 BYTE   W04
 BYTE   W04
 BYTE   W04
 BYTE   W04
 BYTE   W04
 BYTE   W04
 BYTE   W04
 BYTE   W04
 BYTE   W04
 BYTE   W04
 BYTE   W04
 BYTE   W04
 BYTE   W04
 BYTE   W04
 BYTE   W04
 BYTE   W04
 BYTE   W04
 BYTE   W04
 BYTE   W03
 BYTE   EOT
 BYTE   Cs3  v063
 BYTE   W01
//  #09 //072   ----------------------------------------
 BYTE   BEND   c_v-1
 BYTE   W96
//  #09 //073   ----------------------------------------
 BYTE   W96
//  #09 //074   ----------------------------------------
 BYTE   W96
//  #09 //075   ----------------------------------------
 BYTE   W48
 BYTE   GoTo
  POIN2 Label_01000B7A
 BYTE   FINE

//**************** Track 10 (Midi-Chn.9) ****************//

NoOneIsAlone_010:
//  #10 //000   ----------------------------------------
 BYTE   KEYSH   NoOneIsAlone_key+0
Label_010010BE:
 BYTE   VOICE   48
 BYTE   VOL   36*NoOneIsAlone_mvl/mxv
 BYTE   PAN   c_v+0
 BYTE   W24
 BYTE   N23  Ds2  v036
 BYTE   W02
 BYTE   W02
 BYTE   W03
 BYTE   W02
 BYTE   W02
 BYTE   W02
 BYTE   W03
 BYTE   W02
 BYTE   W02
 BYTE   W03
 BYTE   W01
 BYTE   N44  Fn2  v044
 BYTE   W01
 BYTE   W02
 BYTE   W03
 BYTE   W02
 BYTE   W02
 BYTE   W03
 BYTE   W02
 BYTE   W02
 BYTE   W03
 BYTE   W02
 BYTE   W02
 BYTE   W03
 BYTE   W02
 BYTE   W02
 BYTE   W03
 BYTE   W02
 BYTE   W02
 BYTE   W03
 BYTE   W02
 BYTE   W02
 BYTE   W03
//  #10 //001   ----------------------------------------
Label_010010EB:
 BYTE   N44  Ds2  v064
 BYTE   W03
 BYTE   W03
 BYTE   W03
 BYTE   W03
 BYTE   W03
 BYTE   W03
 BYTE   W03
 BYTE   W03
 BYTE   W03
 BYTE   W04
 BYTE   W03
 BYTE   W03
 BYTE   W03
 BYTE   W03
 BYTE   W03
 BYTE   W02
 BYTE   Fn2  v052
 BYTE   W01
 BYTE   W03
 BYTE   W03
 BYTE   W03
 BYTE   W03
 BYTE   W04
 BYTE   W03
 BYTE   W03
 BYTE   W03
 BYTE   W03
 BYTE   W03
 BYTE   W03
 BYTE   W03
 BYTE   W03
 BYTE   W03
 BYTE   W04
 BYTE   PEND
//  #10 //002   ----------------------------------------
Label_01001111:
 BYTE   W24
 BYTE   N23  Ds2  v036
 BYTE   W02
 BYTE   W02
 BYTE   W03
 BYTE   W02
 BYTE   W02
 BYTE   W02
 BYTE   W03
 BYTE   W02
 BYTE   W02
 BYTE   W03
 BYTE   W01
 BYTE   N44  Fn2  v044
 BYTE   W01
 BYTE   W02
 BYTE   W03
 BYTE   W02
 BYTE   W02
 BYTE   W03
 BYTE   W02
 BYTE   W02
 BYTE   W03
 BYTE   W02
 BYTE   W02
 BYTE   W03
 BYTE   W02
 BYTE   W02
 BYTE   W03
 BYTE   W02
 BYTE   W02
 BYTE   W03
 BYTE   W02
 BYTE   W02
 BYTE   W03
 BYTE   PEND
//  #10 //003   ----------------------------------------
 BYTE   PATT
  POIN2 Label_010010EB
//  #10 //004   ----------------------------------------
 BYTE   PATT
  POIN2 Label_01001111
//  #10 //005   ----------------------------------------
 BYTE   PATT
  POIN2 Label_010010EB
//  #10 //006   ----------------------------------------
Label_01001148:
 BYTE   N44  Cs2  v036
 BYTE   W03
 BYTE   W03
 BYTE   W03
 BYTE   W03
 BYTE   W03
 BYTE   W03
 BYTE   W03
 BYTE   W03
 BYTE   W03
 BYTE   W04
 BYTE   W03
 BYTE   W03
 BYTE   W03
 BYTE   W03
 BYTE   W03
 BYTE   W02
 BYTE   Ds2  v048
 BYTE   W01
 BYTE   W03
 BYTE   W03
 BYTE   W03
 BYTE   W03
 BYTE   W04
 BYTE   W03
 BYTE   W03
 BYTE   W03
 BYTE   W03
 BYTE   W03
 BYTE   W03
 BYTE   W03
 BYTE   W03
 BYTE   W03
 BYTE   W04
 BYTE   PEND
//  #10 //007   ----------------------------------------
Label_0100116E:
 BYTE   N44  Cs2  v064
 BYTE   W03
 BYTE   W03
 BYTE   W03
 BYTE   W03
 BYTE   W03
 BYTE   W03
 BYTE   W03
 BYTE   W03
 BYTE   W03
 BYTE   W04
 BYTE   W03
 BYTE   W03
 BYTE   W03
 BYTE   W03
 BYTE   W03
 BYTE   W02
 BYTE   Ds2  v052
 BYTE   W01
 BYTE   W03
 BYTE   W03
 BYTE   W03
 BYTE   W03
 BYTE   W04
 BYTE   W03
 BYTE   W03
 BYTE   W03
 BYTE   W03
 BYTE   W03
 BYTE   W03
 BYTE   W03
 BYTE   W03
 BYTE   W03
 BYTE   W04
 BYTE   PEND
//  #10 //008   ----------------------------------------
 BYTE   PATT
  POIN2 Label_01001111
//  #10 //009   ----------------------------------------
 BYTE   PATT
  POIN2 Label_010010EB
//  #10 //010   ----------------------------------------
Label_0100119E:
 BYTE   N44  Ds2  v036
 BYTE   W03
 BYTE   W03
 BYTE   W03
 BYTE   W03
 BYTE   W03
 BYTE   W03
 BYTE   W03
 BYTE   W03
 BYTE   W03
 BYTE   W04
 BYTE   W03
 BYTE   W03
 BYTE   W03
 BYTE   W03
 BYTE   W03
 BYTE   W02
 BYTE   Fn2  v048
 BYTE   W01
 BYTE   W03
 BYTE   W03
 BYTE   W03
 BYTE   W03
 BYTE   W04
 BYTE   W03
 BYTE   W03
 BYTE   W03
 BYTE   W03
 BYTE   W03
 BYTE   W03
 BYTE   W03
 BYTE   W03
 BYTE   W03
 BYTE   W04
 BYTE   PEND
//  #10 //011   ----------------------------------------
 BYTE   PATT
  POIN2 Label_010010EB
//  #10 //012   ----------------------------------------
 BYTE   PATT
  POIN2 Label_0100119E
//  #10 //013   ----------------------------------------
Label_010011CE:
 BYTE   N92  Fs2  v064
 BYTE   W03
 BYTE   W03
 BYTE   W03
 BYTE   W03
 BYTE   W03
 BYTE   W03
 BYTE   W03
 BYTE   W03
 BYTE   W03
 BYTE   W04
 BYTE   W03
 BYTE   W03
 BYTE   W03
 BYTE   W03
 BYTE   W03
 BYTE   W03
 BYTE   W03
 BYTE   W03
 BYTE   W03
 BYTE   W03
 BYTE   W04
 BYTE   W03
 BYTE   W03
 BYTE   W03
 BYTE   W03
 BYTE   W03
 BYTE   W03
 BYTE   W03
 BYTE   W03
 BYTE   W03
 BYTE   W04
 BYTE   PEND
//  #10 //014   ----------------------------------------
 BYTE   PATT
  POIN2 Label_0100119E
//  #10 //015   ----------------------------------------
 BYTE   TIE  Fs2  v064
 BYTE   W03
 BYTE   W04
 BYTE   W04
 BYTE   W04
 BYTE   W03
 BYTE   W04
 BYTE   W04
 BYTE   W04
 BYTE   W03
 BYTE   W04
 BYTE   W04
 BYTE   W04
 BYTE   W03
 BYTE   W04
 BYTE   W04
 BYTE   W04
 BYTE   W03
 BYTE   W04
 BYTE   W04
 BYTE   W04
 BYTE   W03
 BYTE   W04
 BYTE   W04
 BYTE   W04
 BYTE   W03
 BYTE   W03
//  #10 //016   ----------------------------------------
 BYTE   W01
 BYTE   W04
 BYTE   W04
 BYTE   W03
 BYTE   W04
 BYTE   W04
 BYTE   W04
 BYTE   W03
 BYTE   W04
 BYTE   W04
 BYTE   W04
 BYTE   W03
 BYTE   W04
 BYTE   W04
 BYTE   W04
 BYTE   W03
 BYTE   W04
 BYTE   W04
 BYTE   W04
 BYTE   W03
 BYTE   W04
 BYTE   W04
 BYTE   W04
 BYTE   W11
 BYTE   EOT
 BYTE   W01
//  #10 //017   ----------------------------------------
 BYTE   N44  Cs2  v052
 BYTE   N44  Gs2
 BYTE   W48
 BYTE   Cn2
 BYTE   N44  Fs2
 BYTE   W48
//  #10 //018   ----------------------------------------
Label_01001237:
 BYTE   N44  Cs2  v052
 BYTE   N44  Gs2
 BYTE   W48
 BYTE   Ds2
 BYTE   N44  As2
 BYTE   W48
 BYTE   PEND
//  #10 //019   ----------------------------------------
 BYTE   Fn2
 BYTE   N44  Cn3
 BYTE   W48
 BYTE   Ds2
 BYTE   N44  As2
 BYTE   W48
//  #10 //020   ----------------------------------------
 BYTE   PATT
  POIN2 Label_01001237
//  #10 //021   ----------------------------------------
 BYTE   N44  Fn2  v052
 BYTE   N44  Cn3
 BYTE   W48
 BYTE   Fs2
 BYTE   N44  Cs3
 BYTE   W48
//  #10 //022   ----------------------------------------
 BYTE   Gs2
 BYTE   N44  Ds3
 BYTE   W48
 BYTE   Fs2
 BYTE   N44  Cs3
 BYTE   W48
//  #10 //023   ----------------------------------------
 BYTE   Cs2
 BYTE   N44  Gs2
 BYTE   W48
 BYTE   Ds2
 BYTE   N44  Cn3
 BYTE   W48
//  #10 //024   ----------------------------------------
 BYTE   Fn2
 BYTE   N44  Cs3
 BYTE   W12
 BYTE   W13
 BYTE   W13
 BYTE   W10
 BYTE   Fs2
 BYTE   N44  Ds3
 BYTE   W03
 BYTE   W13
 BYTE   W12
 BYTE   W13
 BYTE   W07
//  #10 //025   ----------------------------------------
 BYTE   Gs2  v056
 BYTE   N44  Fn3
 BYTE   W06
 BYTE   W13
 BYTE   W13
 BYTE   W12
 BYTE   W04
 BYTE   As2  v060
 BYTE   N44  Fs3
 BYTE   W09
 BYTE   W13
 BYTE   W13
 BYTE   W13
//  #10 //026   ----------------------------------------
 BYTE   Cs3  v064
 BYTE   N44  Gs3
 BYTE   W04
 BYTE   W04
 BYTE   W04
 BYTE   W04
 BYTE   W04
 BYTE   W04
 BYTE   W04
 BYTE   W04
 BYTE   W04
 BYTE   W04
 BYTE   W04
 BYTE   W04
 BYTE   Cn3  v052
 BYTE   N44  Fs3
 BYTE   W04
 BYTE   W04
 BYTE   W04
 BYTE   W04
 BYTE   W04
 BYTE   W04
 BYTE   W04
 BYTE   W04
 BYTE   W04
 BYTE   W04
 BYTE   W04
 BYTE   W04
//  #10 //027   ----------------------------------------
 BYTE   As2  v040
 BYTE   N44  Fn3
 BYTE   W04
 BYTE   W04
 BYTE   W04
 BYTE   W04
 BYTE   W04
 BYTE   W04
 BYTE   W04
 BYTE   W04
 BYTE   W04
 BYTE   W04
 BYTE   W04
 BYTE   W04
 BYTE   Gs2  v028
 BYTE   N44  Ds3
 BYTE   W04
 BYTE   W04
 BYTE   W04
 BYTE   W04
 BYTE   W04
 BYTE   W04
 BYTE   W04
 BYTE   W04
 BYTE   W04
 BYTE   W04
 BYTE   W04
 BYTE   W04
//  #10 //028   ----------------------------------------
 BYTE   W24
 BYTE   N23  Ds2  v036
 BYTE   W02
 BYTE   W02
 BYTE   W03
 BYTE   W02
 BYTE   W02
 BYTE   W02
 BYTE   W03
 BYTE   W02
 BYTE   W02
 BYTE   W03
 BYTE   W01
 BYTE   N44  Fn2  v044
 BYTE   W01
 BYTE   W02
 BYTE   W03
 BYTE   W02
 BYTE   W02
 BYTE   W03
 BYTE   W02
 BYTE   W02
 BYTE   W03
 BYTE   W02
 BYTE   W02
 BYTE   W03
 BYTE   W02
 BYTE   W02
 BYTE   W03
 BYTE   W02
 BYTE   W02
 BYTE   W03
 BYTE   W02
 BYTE   W02
 BYTE   W03
//  #10 //029   ----------------------------------------
 BYTE   PATT
  POIN2 Label_010010EB
//  #10 //030   ----------------------------------------
 BYTE   PATT
  POIN2 Label_01001111
//  #10 //031   ----------------------------------------
 BYTE   PATT
  POIN2 Label_010010EB
//  #10 //032   ----------------------------------------
 BYTE   PATT
  POIN2 Label_01001148
//  #10 //033   ----------------------------------------
 BYTE   PATT
  POIN2 Label_0100116E
//  #10 //034   ----------------------------------------
 BYTE   PATT
  POIN2 Label_01001111
//  #10 //035   ----------------------------------------
 BYTE   PATT
  POIN2 Label_010010EB
//  #10 //036   ----------------------------------------
 BYTE   PATT
  POIN2 Label_0100119E
//  #10 //037   ----------------------------------------
 BYTE   PATT
  POIN2 Label_010010EB
//  #10 //038   ----------------------------------------
 BYTE   PATT
  POIN2 Label_0100119E
//  #10 //039   ----------------------------------------
 BYTE   PATT
  POIN2 Label_010011CE
//  #10 //040   ----------------------------------------
 BYTE   PATT
  POIN2 Label_0100119E
//  #10 //041   ----------------------------------------
 BYTE   N92  Fs2  v064
 BYTE   W03
 BYTE   W03
 BYTE   W03
 BYTE   W03
 BYTE   W03
 BYTE   W03
 BYTE   W03
 BYTE   W03
 BYTE   W03
 BYTE   W04
 BYTE   W03
 BYTE   W03
 BYTE   W03
 BYTE   W03
 BYTE   W03
 BYTE   W03
 BYTE   W03
 BYTE   W03
 BYTE   W03
 BYTE   W03
 BYTE   W04
 BYTE   W03
 BYTE   W03
 BYTE   W03
 BYTE   W03
 BYTE   W03
 BYTE   W03
 BYTE   W03
 BYTE   W03
 BYTE   W03
 BYTE   W04
//  #10 //042   ----------------------------------------
 BYTE   N23  Fn2  v036
 BYTE   W01
 BYTE   W01
 BYTE   W01
 BYTE   W01
 BYTE   W01
 BYTE   W01
 BYTE   W01
 BYTE   W01
 BYTE   W01
 BYTE   W01
 BYTE   W01
 BYTE   W01
 BYTE   W01
 BYTE   W01
 BYTE   W01
 BYTE   W01
 BYTE   W01
 BYTE   W01
 BYTE   W01
 BYTE   W01
 BYTE   W01
 BYTE   W01
 BYTE   W01
 BYTE   W01
 BYTE   Fs2  v056
 BYTE   W01
 BYTE   W01
 BYTE   W01
 BYTE   W01
 BYTE   W01
 BYTE   W01
 BYTE   W01
 BYTE   W01
 BYTE   W01
 BYTE   W01
 BYTE   W01
 BYTE   W01
 BYTE   W01
 BYTE   W01
 BYTE   W01
 BYTE   W01
 BYTE   W01
 BYTE   W01
 BYTE   W01
 BYTE   W01
 BYTE   W02
 BYTE   W01
 BYTE   W01
 BYTE   Gs2  v080
 BYTE   W03
 BYTE   W03
 BYTE   W03
 BYTE   W03
 BYTE   W03
 BYTE   W03
 BYTE   W03
 BYTE   W03
 BYTE   N11  As2  v088
 BYTE   W03
 BYTE   W03
 BYTE   W03
 BYTE   W03
 BYTE   Gs2  v092
 BYTE   W03
 BYTE   W03
 BYTE   W03
 BYTE   W03
//  #10 //043   ----------------------------------------
 BYTE   N23  Cs3  v096
 BYTE   W03
 BYTE   W03
 BYTE   W03
 BYTE   W03
 BYTE   W03
 BYTE   W03
 BYTE   W03
 BYTE   W03
 BYTE   As2  v088
 BYTE   W03
 BYTE   W03
 BYTE   W03
 BYTE   W03
 BYTE   W03
 BYTE   W03
 BYTE   W03
 BYTE   W03
 BYTE   N92  Gs2  v080
 BYTE   W96
//  #10 //044   ----------------------------------------
 BYTE   W96
//  #10 //045   ----------------------------------------
 BYTE   W96
//  #10 //046   ----------------------------------------
 BYTE   PATT
  POIN2 Label_0100119E
//  #10 //047   ----------------------------------------
 BYTE   N44  Fs2  v064
 BYTE   W03
 BYTE   W03
 BYTE   W03
 BYTE   W03
 BYTE   W03
 BYTE   W03
 BYTE   W03
 BYTE   W03
 BYTE   W03
 BYTE   W04
 BYTE   W03
 BYTE   W03
 BYTE   W03
 BYTE   W03
 BYTE   W03
 BYTE   W02
 BYTE   Fn2  v052
 BYTE   W01
 BYTE   W03
 BYTE   W03
 BYTE   W03
 BYTE   W03
 BYTE   W04
 BYTE   W03
 BYTE   W03
 BYTE   W03
 BYTE   W03
 BYTE   W03
 BYTE   W03
 BYTE   W03
 BYTE   W03
 BYTE   W03
 BYTE   W04
//  #10 //048   ----------------------------------------
 BYTE   PATT
  POIN2 Label_0100119E
//  #10 //049   ----------------------------------------
 BYTE   N44  Fs2  v064
 BYTE   W01
 BYTE   W02
 BYTE   W01
 BYTE   W02
 BYTE   W01
 BYTE   W02
 BYTE   W01
 BYTE   W02
 BYTE   W01
 BYTE   W02
 BYTE   W02
 BYTE   W01
 BYTE   W02
 BYTE   W01
 BYTE   W02
 BYTE   W01
 BYTE   W02
 BYTE   W01
 BYTE   W02
 BYTE   W02
 BYTE   W01
 BYTE   W02
 BYTE   W01
 BYTE   W02
 BYTE   W01
 BYTE   W02
 BYTE   W01
 BYTE   W02
 BYTE   W01
 BYTE   W02
 BYTE   W02
 BYTE   N23  Fn2  v036
 BYTE   W01
 BYTE   W01
 BYTE   W01
 BYTE   W01
 BYTE   W01
 BYTE   W01
 BYTE   W01
 BYTE   W01
 BYTE   W01
 BYTE   W01
 BYTE   W01
 BYTE   W01
 BYTE   W01
 BYTE   W01
 BYTE   W01
 BYTE   W01
 BYTE   W01
 BYTE   W01
 BYTE   W01
 BYTE   W01
 BYTE   W01
 BYTE   W01
 BYTE   W01
 BYTE   W01
 BYTE   Fs2  v056
 BYTE   W01
 BYTE   W01
 BYTE   W01
 BYTE   W01
 BYTE   W01
 BYTE   W01
 BYTE   W01
 BYTE   W01
 BYTE   W01
 BYTE   W01
 BYTE   W01
 BYTE   W01
 BYTE   W01
 BYTE   W01
 BYTE   W01
 BYTE   W01
 BYTE   W01
 BYTE   W01
 BYTE   W01
 BYTE   W01
 BYTE   W02
 BYTE   W01
 BYTE   W01
//  #10 //050   ----------------------------------------
 BYTE   N68  Gs2  v080
 BYTE   W06
 BYTE   W06
 BYTE   W06
 BYTE   W06
 BYTE   W06
 BYTE   W06
 BYTE   W06
 BYTE   W06
 BYTE   W06
 BYTE   W06
 BYTE   W06
 BYTE   W06
 BYTE   N23  As2  v092
 BYTE   W06
 BYTE   W06
 BYTE   W06
 BYTE   W06
//  #10 //051   ----------------------------------------
 BYTE   N92  Cn3  v096
 BYTE   W06
 BYTE   W06
 BYTE   W06
 BYTE   W06
 BYTE   W06
 BYTE   W06
 BYTE   W06
 BYTE   W06
 BYTE   W06
 BYTE   W06
 BYTE   W06
 BYTE   W06
 BYTE   W06
 BYTE   W06
 BYTE   W06
 BYTE   W06
//  #10 //052   ----------------------------------------
 BYTE   N23  Fn2  v080
 BYTE   W09
 BYTE   W09
 BYTE   W06
 BYTE   Fs2  v084
 BYTE   W03
 BYTE   W09
 BYTE   W09
 BYTE   W03
 BYTE   N92  Gs2  v088
 BYTE   W06
 BYTE   W09
 BYTE   W09
 BYTE   W09
 BYTE   W09
 BYTE   W09
//  #10 //053   ----------------------------------------
 BYTE   W09
 BYTE   W09
 BYTE   W09
 BYTE   W09
 BYTE   W09
 BYTE   Cs3  v096
 BYTE   W96
//  #10 //054   ----------------------------------------
 BYTE   W96
//  #10 //055   ----------------------------------------
 BYTE   W96
//  #10 //056   ----------------------------------------
 BYTE   W96
//  #10 //057   ----------------------------------------
 BYTE   W96
//  #10 //058   ----------------------------------------
 BYTE   W96
//  #10 //059   ----------------------------------------
 BYTE   W48
 BYTE   W24
 BYTE   N23  Ds2  v052
 BYTE   W04
 BYTE   W05
 BYTE   W05
 BYTE   W05
 BYTE   W05
//  #10 //060   ----------------------------------------
 BYTE   N44  Fn2  v056
 BYTE   W04
 BYTE   W05
 BYTE   W05
 BYTE   W05
 BYTE   W05
 BYTE   W04
 BYTE   W05
 BYTE   W05
 BYTE   W05
 BYTE   W05
Label_0100149B:
 BYTE   N44  Ds2  v064
 BYTE   W06
 BYTE   W06
 BYTE   W07
 BYTE   W06
 BYTE   W07
 BYTE   W06
 BYTE   W06
 BYTE   W04
//  #10 //061   ----------------------------------------
 BYTE   Fn2  v060
 BYTE   W03
 BYTE   W06
 BYTE   W07
 BYTE   W06
 BYTE   W06
 BYTE   W07
 BYTE   W06
 BYTE   W07
 BYTE   PEND
 BYTE   Cs2  v052
 BYTE   W06
 BYTE   W06
 BYTE   W07
 BYTE   W06
 BYTE   W07
 BYTE   W06
 BYTE   W06
 BYTE   W04
//  #10 //062   ----------------------------------------
 BYTE   Ds2  v056
 BYTE   W03
 BYTE   W06
 BYTE   W07
 BYTE   W06
 BYTE   W06
 BYTE   W07
 BYTE   W06
 BYTE   W07
 BYTE   Cs2  v064
 BYTE   W06
 BYTE   W06
 BYTE   W07
 BYTE   W06
 BYTE   W07
 BYTE   W06
 BYTE   W06
 BYTE   W04
//  #10 //063   ----------------------------------------
 BYTE   Ds2  v060
 BYTE   W03
 BYTE   W06
 BYTE   W07
 BYTE   W06
 BYTE   W06
 BYTE   W07
 BYTE   W06
 BYTE   W07
 BYTE   W24
 BYTE   N23  Ds2  v052
 BYTE   W04
 BYTE   W05
 BYTE   W05
 BYTE   W05
 BYTE   W05
//  #10 //064   ----------------------------------------
 BYTE   N44  Fn2  v056
 BYTE   W04
 BYTE   W05
 BYTE   W05
 BYTE   W05
 BYTE   W05
 BYTE   W04
 BYTE   W05
 BYTE   W05
 BYTE   W05
 BYTE   W05
//  #10 //065   ----------------------------------------
 BYTE   PATT
  POIN2 Label_0100149B
//  #10 //066   ----------------------------------------
 BYTE   N44  Ds2  v052
 BYTE   W06
 BYTE   W06
 BYTE   W07
 BYTE   W06
 BYTE   W07
 BYTE   W06
 BYTE   W06
 BYTE   W04
 BYTE   Fn2  v056
 BYTE   W03
 BYTE   W06
 BYTE   W07
 BYTE   W06
 BYTE   W06
 BYTE   W07
 BYTE   W06
 BYTE   W07
//  #10 //067   ----------------------------------------
 BYTE   PATT
  POIN2 Label_010010EB
//  #10 //068   ----------------------------------------
 BYTE   PATT
  POIN2 Label_0100119E
//  #10 //069   ----------------------------------------
 BYTE   PATT
  POIN2 Label_010011CE
//  #10 //070   ----------------------------------------
 BYTE   PATT
  POIN2 Label_0100119E
//  #10 //071   ----------------------------------------
 BYTE   N92  Fs2  v064
 BYTE   W02
 BYTE   W02
 BYTE   W02
 BYTE   W02
 BYTE   W02
 BYTE   W02
 BYTE   W02
 BYTE   W02
 BYTE   W02
 BYTE   W02
 BYTE   W02
 BYTE   W02
 BYTE   W02
 BYTE   W02
 BYTE   W02
 BYTE   W02
 BYTE   W02
 BYTE   W02
 BYTE   W02
 BYTE   W02
 BYTE   W02
 BYTE   W02
 BYTE   W02
 BYTE   W02
 BYTE   W02
 BYTE   W02
 BYTE   W02
 BYTE   W02
 BYTE   W02
 BYTE   W02
 BYTE   W02
 BYTE   W02
 BYTE   W02
 BYTE   W02
 BYTE   W02
 BYTE   W02
 BYTE   W02
 BYTE   W02
 BYTE   W02
 BYTE   W02
 BYTE   W02
 BYTE   W02
 BYTE   W02
 BYTE   W02
 BYTE   W02
 BYTE   W02
 BYTE   W02
 BYTE   W02
//  #10 //072   ----------------------------------------
 BYTE   W96
//  #10 //073   ----------------------------------------
 BYTE   W96
//  #10 //074   ----------------------------------------
 BYTE   W96
//  #10 //075   ----------------------------------------
 BYTE   W48
 BYTE   GoTo
  POIN2 Label_010010BE
 BYTE   FINE

//******************************************************//
	ALIGN 4

NoOneIsAlone:
	BYTE	10
	BYTE	0
	BYTE	NoOneIsAlone_pri
	BYTE	NoOneIsAlone_rev

	POIN2	NoOneIsAlone_grp

	POIN2	NoOneIsAlone_001
	POIN2	NoOneIsAlone_002
	POIN2	NoOneIsAlone_003
	POIN2	NoOneIsAlone_004
	POIN2	NoOneIsAlone_005
	POIN2	NoOneIsAlone_006
	POIN2	NoOneIsAlone_007
	POIN2	NoOneIsAlone_008
	POIN2	NoOneIsAlone_009
	POIN2	NoOneIsAlone_010
