//Event file generated from Sappy .s format.
	#include "MPlayDef.event"

	#define	song2C_grp  voicegroup000
	#define	song2C_pri  0
	#define	song2C_rev  0
	#define	song2C_mvl  127
	#define	song2C_key  0
	#define	song2C_tbs  1
	#define	song2C_exg  0
	#define	song2C_cmp  1

	// .rodata
	//	song2C
	ALIGN 4


//**************** Track 1 (Midi-Chn.0) ****************//

song2C_001:
//  #01 //000   ----------------------------------------
 BYTE   KEYSH   song2C_key+0
 BYTE   TEMPO   84*song2C_tbs/2
 BYTE   VOICE   42
 BYTE   MODT 0
 BYTE   LFOS 44
 BYTE   VOL   68*song2C_mvl/mxv
 BYTE   PAN   c_v-34
 BYTE   VOL   66*song2C_mvl/mxv
 BYTE   VOL   67*song2C_mvl/mxv
 BYTE   TIE  En0  v092
 BYTE   TIE  En1
 BYTE   W02
 BYTE   VOL   70*song2C_mvl/mxv
 BYTE   W02
 BYTE   VOL   70*song2C_mvl/mxv
 BYTE   W04
 BYTE   VOL   71*song2C_mvl/mxv
 BYTE   W04
 BYTE   VOL   72*song2C_mvl/mxv
 BYTE   W05
 BYTE   VOL   73*song2C_mvl/mxv
 BYTE   W06
 BYTE   VOL   74*song2C_mvl/mxv
 BYTE   W07
 BYTE   VOL   74*song2C_mvl/mxv
 BYTE   W08
 BYTE   VOL   76*song2C_mvl/mxv
 BYTE   W08
 BYTE   VOL   78*song2C_mvl/mxv
 BYTE   W10
 BYTE   VOL   78*song2C_mvl/mxv
 BYTE   W11
 BYTE   VOL   79*song2C_mvl/mxv
 BYTE   W05
 BYTE   W06
 BYTE   VOL   81*song2C_mvl/mxv
 BYTE   W13
 BYTE   VOL   82*song2C_mvl/mxv
 BYTE   W13
//  #01 //001   ----------------------------------------
 BYTE   VOL   83*song2C_mvl/mxv
 BYTE   W15
 BYTE   VOL   84*song2C_mvl/mxv
 BYTE   W15
 BYTE   VOL   85*song2C_mvl/mxv
 BYTE   W10
 BYTE   W06
 BYTE   VOL   86*song2C_mvl/mxv
 BYTE   W17
 BYTE   VOL   88*song2C_mvl/mxv
 BYTE   W18
 BYTE   VOL   89*song2C_mvl/mxv
 BYTE   W19
//  #01 //002   ----------------------------------------
 BYTE   VOL   92*song2C_mvl/mxv
 BYTE   W12
 BYTE   W08
 BYTE   VOL   93*song2C_mvl/mxv
 BYTE   W21
 BYTE   VOL   94*song2C_mvl/mxv
 BYTE   W22
 BYTE   VOL   96*song2C_mvl/mxv
 BYTE   W21
 BYTE   W01
 BYTE   VOL   97*song2C_mvl/mxv
 BYTE   W24
//  #01 //003   ----------------------------------------
 BYTE   VOL   98*song2C_mvl/mxv
 BYTE   W24
 BYTE   VOL   99*song2C_mvl/mxv
 BYTE   W23
 BYTE   EOT
 BYTE   En0  v040
Label_010DAA51:
 BYTE   VOL   99*song2C_mvl/mxv
 BYTE   TIE  En0  v092
 BYTE   TIE  En1
 BYTE   W03
 BYTE   VOL   101*song2C_mvl/mxv
 BYTE   W24
 BYTE   W02
 BYTE   VOL   103*song2C_mvl/mxv
 BYTE   W24
//  #01 //004   ----------------------------------------
 BYTE   W03
 BYTE   VOL   104*song2C_mvl/mxv
 BYTE   W16
 BYTE   W13
 BYTE   VOL   106*song2C_mvl/mxv
 BYTE   W28
 BYTE   W01
 BYTE   VOL   108*song2C_mvl/mxv
 BYTE   W30
 BYTE   VOL   110*song2C_mvl/mxv
 BYTE   W60
//  #01 //005   ----------------------------------------
 BYTE   W02
 BYTE   VOL   110*song2C_mvl/mxv
 BYTE   W08
 BYTE   VOL   111*song2C_mvl/mxv
 BYTE   W02
Label_010DAA76:
 BYTE   W06
 BYTE   VOL   113*song2C_mvl/mxv
 BYTE   W08
 BYTE   VOL   115*song2C_mvl/mxv
 BYTE   W09
 BYTE   VOL   116*song2C_mvl/mxv
 BYTE   W08
 BYTE   VOL   118*song2C_mvl/mxv
 BYTE   W08
 BYTE   VOL   120*song2C_mvl/mxv
 BYTE   W08
 BYTE   VOL   122*song2C_mvl/mxv
 BYTE   W08
 BYTE   VOL   123*song2C_mvl/mxv
 BYTE   W08
 BYTE   VOL   126*song2C_mvl/mxv
 BYTE   W09
 BYTE   PEND 
 BYTE   EOT
 BYTE   En0  v040
Label_010DAA93:
 BYTE   TIE  En0  v092
 BYTE   TIE  En1
 BYTE   W72
 BYTE   PEND 
//  #01 //006   ----------------------------------------
Label_010DAA9A:
 BYTE   VOL   122*song2C_mvl/mxv
 BYTE   W10
 BYTE   VOL   120*song2C_mvl/mxv
 BYTE   W10
 BYTE   VOL   118*song2C_mvl/mxv
 BYTE   W09
 BYTE   VOL   116*song2C_mvl/mxv
 BYTE   W10
 BYTE   VOL   115*song2C_mvl/mxv
 BYTE   W10
 BYTE   VOL   113*song2C_mvl/mxv
 BYTE   W10
 BYTE   VOL   111*song2C_mvl/mxv
 BYTE   W09
 BYTE   VOL   110*song2C_mvl/mxv
 BYTE   W04
 BYTE   PEND 
Label_010DAAB3:
 BYTE   W06
 BYTE   VOL   108*song2C_mvl/mxv
 BYTE   W10
 BYTE   VOL   106*song2C_mvl/mxv
 BYTE   W10
//  #01 //007   ----------------------------------------
 BYTE   VOL   104*song2C_mvl/mxv
 BYTE   W10
 BYTE   VOL   103*song2C_mvl/mxv
 BYTE   W09
 BYTE   VOL   101*song2C_mvl/mxv
 BYTE   W10
 BYTE   VOL   99*song2C_mvl/mxv
 BYTE   W10
 BYTE   VOL   98*song2C_mvl/mxv
 BYTE   W07
 BYTE   PEND 
Label_010DAACA:
 BYTE   W03
 BYTE   VOL   97*song2C_mvl/mxv
 BYTE   W10
 BYTE   VOL   96*song2C_mvl/mxv
 BYTE   W09
 BYTE   VOL   94*song2C_mvl/mxv
 BYTE   W10
 BYTE   VOL   93*song2C_mvl/mxv
 BYTE   W10
 BYTE   VOL   92*song2C_mvl/mxv
 BYTE   W10
//  #01 //008   ----------------------------------------
 BYTE   VOL   89*song2C_mvl/mxv
 BYTE   W09
 BYTE   VOL   88*song2C_mvl/mxv
 BYTE   W09
 BYTE   PEND 
 BYTE   EOT
 BYTE   En0
 BYTE   W01
 BYTE   En1
 BYTE   VOL   86*song2C_mvl/mxv
 BYTE   N01  En0  v052
 BYTE   W01
 BYTE   VOL   76*song2C_mvl/mxv
 BYTE   TIE
 BYTE   TIE  En1  v084
 BYTE   W05
 BYTE   VOL   78*song2C_mvl/mxv
 BYTE   W05
 BYTE   VOL   78*song2C_mvl/mxv
 BYTE   W05
 BYTE   VOL   79*song2C_mvl/mxv
 BYTE   W05
 BYTE   VOL   81*song2C_mvl/mxv
 BYTE   W05
 BYTE   VOL   82*song2C_mvl/mxv
 BYTE   W05
 BYTE   VOL   83*song2C_mvl/mxv
 BYTE   W05
 BYTE   VOL   84*song2C_mvl/mxv
 BYTE   W05
 BYTE   VOL   85*song2C_mvl/mxv
 BYTE   W05
 BYTE   VOL   86*song2C_mvl/mxv
 BYTE   W05
 BYTE   VOL   88*song2C_mvl/mxv
 BYTE   W05
 BYTE   VOL   89*song2C_mvl/mxv
 BYTE   W05
 BYTE   VOL   92*song2C_mvl/mxv
 BYTE   W04
 BYTE   VOL   93*song2C_mvl/mxv
 BYTE   W05
 BYTE   VOL   94*song2C_mvl/mxv
 BYTE   W03
 BYTE   W02
 BYTE   VOL   96*song2C_mvl/mxv
 BYTE   W05
//  #01 //009   ----------------------------------------
 BYTE   VOL   97*song2C_mvl/mxv
 BYTE   W05
 BYTE   VOL   98*song2C_mvl/mxv
 BYTE   W05
 BYTE   VOL   99*song2C_mvl/mxv
 BYTE   W05
 BYTE   VOL   101*song2C_mvl/mxv
 BYTE   W05
 BYTE   VOL   103*song2C_mvl/mxv
 BYTE   W05
 BYTE   VOL   104*song2C_mvl/mxv
 BYTE   W05
 BYTE   VOL   106*song2C_mvl/mxv
 BYTE   W05
 BYTE   VOL   108*song2C_mvl/mxv
 BYTE   W05
 BYTE   VOL   110*song2C_mvl/mxv
 BYTE   W05
 BYTE   VOL   111*song2C_mvl/mxv
 BYTE   W05
 BYTE   VOL   113*song2C_mvl/mxv
 BYTE   W05
 BYTE   VOL   115*song2C_mvl/mxv
 BYTE   W05
 BYTE   VOL   116*song2C_mvl/mxv
 BYTE   W05
 BYTE   W72
//  #01 //010   ----------------------------------------
 BYTE   W72
 BYTE   EOT
 BYTE   En0  v040
Label_010DAB4C:
 BYTE   TIE  En0  v052
 BYTE   TIE  En1  v084
 BYTE   W72
 BYTE   PEND 
//  #01 //011   ----------------------------------------
 BYTE   W72
 BYTE   W72
//  #01 //012   ----------------------------------------
 BYTE   W68
 BYTE   W03
 BYTE   EOT
 BYTE   En0  v040
 BYTE   W01
//  #01 //013   ----------------------------------------
 BYTE   PATT
  POIN2 Label_010DAB4C
//  #01 //014   ----------------------------------------
 BYTE   W72
 BYTE   W72
//  #01 //015   ----------------------------------------
 BYTE   W72
Label_010DAB64:
 BYTE   W24
//  #01 //016   ----------------------------------------
 BYTE   VOL   115*song2C_mvl/mxv
 BYTE   W10
 BYTE   VOL   113*song2C_mvl/mxv
 BYTE   W04
 BYTE   VOL   111*song2C_mvl/mxv
 BYTE   W03
 BYTE   VOL   110*song2C_mvl/mxv
 BYTE   W03
 BYTE   VOL   108*song2C_mvl/mxv
 BYTE   W02
 BYTE   VOL   106*song2C_mvl/mxv
 BYTE   W02
 BYTE   VOL   104*song2C_mvl/mxv
 BYTE   W02
 BYTE   VOL   103*song2C_mvl/mxv
 BYTE   W02
 BYTE   VOL   101*song2C_mvl/mxv
 BYTE   W03
 BYTE   VOL   98*song2C_mvl/mxv
 BYTE   W03
 BYTE   VOL   96*song2C_mvl/mxv
 BYTE   W01
 BYTE   VOL   94*song2C_mvl/mxv
 BYTE   W02
 BYTE   VOL   93*song2C_mvl/mxv
 BYTE   W02
 BYTE   VOL   89*song2C_mvl/mxv
 BYTE   W03
 BYTE   VOL   86*song2C_mvl/mxv
 BYTE   W02
 BYTE   VOL   84*song2C_mvl/mxv
 BYTE   W02
 BYTE   VOL   82*song2C_mvl/mxv
 BYTE   W01
 BYTE   VOL   78*song2C_mvl/mxv
 BYTE   W01
 BYTE   PEND 
Label_010DAB9C:
 BYTE   W14
 BYTE   VOL   78*song2C_mvl/mxv
 BYTE   W06
 BYTE   VOL   79*song2C_mvl/mxv
 BYTE   W04
 BYTE   VOL   81*song2C_mvl/mxv
 BYTE   W04
 BYTE   VOL   82*song2C_mvl/mxv
 BYTE   W03
 BYTE   VOL   83*song2C_mvl/mxv
 BYTE   W03
 BYTE   VOL   84*song2C_mvl/mxv
 BYTE   W03
 BYTE   VOL   85*song2C_mvl/mxv
 BYTE   W03
 BYTE   VOL   86*song2C_mvl/mxv
 BYTE   W02
 BYTE   VOL   88*song2C_mvl/mxv
 BYTE   W02
 BYTE   VOL   89*song2C_mvl/mxv
 BYTE   W02
 BYTE   VOL   92*song2C_mvl/mxv
 BYTE   W03
//  #01 //017   ----------------------------------------
 BYTE   VOL   93*song2C_mvl/mxv
 BYTE   W03
 BYTE   VOL   96*song2C_mvl/mxv
 BYTE   W02
 BYTE   VOL   97*song2C_mvl/mxv
 BYTE   W02
 BYTE   VOL   98*song2C_mvl/mxv
 BYTE   W02
 BYTE   VOL   99*song2C_mvl/mxv
 BYTE   W03
 BYTE   VOL   103*song2C_mvl/mxv
 BYTE   W02
 BYTE   VOL   104*song2C_mvl/mxv
 BYTE   W01
 BYTE   VOL   106*song2C_mvl/mxv
 BYTE   W03
 BYTE   VOL   110*song2C_mvl/mxv
 BYTE   W02
 BYTE   VOL   111*song2C_mvl/mxv
 BYTE   W02
 BYTE   PEND 
 BYTE   EOT
 BYTE   En1
 BYTE   W01
 BYTE   En0
 BYTE   VOL   115*song2C_mvl/mxv
 BYTE   TIE  En0  v032
 BYTE   TIE  En1  v072
 BYTE   W72
 BYTE   W72
//  #01 //018   ----------------------------------------
 BYTE   W72
 BYTE   W68
//  #01 //019   ----------------------------------------
 BYTE   W03
 BYTE   EOT
 BYTE   En0
 BYTE   W01
 BYTE   En1
Label_010DABF2:
 BYTE   TIE  En0  v032
 BYTE   TIE  En1  v072
 BYTE   W72
 BYTE   PEND 
 BYTE   W72
//  #01 //020   ----------------------------------------
 BYTE   W72
 BYTE   W68
//  #01 //021   ----------------------------------------
 BYTE   W03
 BYTE   EOT
 BYTE   En0  v040
 BYTE   W01
 BYTE   TIE  En0  v032
 BYTE   TIE  En1  v072
 BYTE   W30
 BYTE   VOL   111*song2C_mvl/mxv
 BYTE   W24
 BYTE   W02
 BYTE   VOL   110*song2C_mvl/mxv
 BYTE   W11
 BYTE   VOL   108*song2C_mvl/mxv
 BYTE   W05
 BYTE   W03
 BYTE   VOL   106*song2C_mvl/mxv
 BYTE   W06
 BYTE   VOL   104*song2C_mvl/mxv
 BYTE   W06
 BYTE   VOL   103*song2C_mvl/mxv
 BYTE   W06
//  #01 //022   ----------------------------------------
 BYTE   VOL   101*song2C_mvl/mxv
 BYTE   W05
 BYTE   VOL   99*song2C_mvl/mxv
 BYTE   W05
 BYTE   VOL   98*song2C_mvl/mxv
 BYTE   W04
 BYTE   VOL   97*song2C_mvl/mxv
 BYTE   W04
 BYTE   VOL   96*song2C_mvl/mxv
 BYTE   W04
 BYTE   VOL   94*song2C_mvl/mxv
 BYTE   W04
 BYTE   VOL   93*song2C_mvl/mxv
 BYTE   W03
 BYTE   VOL   92*song2C_mvl/mxv
 BYTE   W04
 BYTE   VOL   89*song2C_mvl/mxv
 BYTE   W03
 BYTE   VOL   88*song2C_mvl/mxv
 BYTE   W03
 BYTE   VOL   86*song2C_mvl/mxv
 BYTE   W04
 BYTE   VOL   85*song2C_mvl/mxv
 BYTE   W03
 BYTE   VOL   84*song2C_mvl/mxv
 BYTE   W03
 BYTE   VOL   83*song2C_mvl/mxv
 BYTE   W01
 BYTE   EOT
 BYTE   En0  v040
 BYTE   W01
 BYTE   VOL   76*song2C_mvl/mxv
 BYTE   TIE  En0  v052
 BYTE   TIE  En1
 BYTE   W02
 BYTE   VOL   79*song2C_mvl/mxv
 BYTE   W01
 BYTE   VOL   81*song2C_mvl/mxv
 BYTE   W02
 BYTE   VOL   82*song2C_mvl/mxv
 BYTE   W02
 BYTE   VOL   83*song2C_mvl/mxv
 BYTE   W03
 BYTE   VOL   84*song2C_mvl/mxv
 BYTE   W03
 BYTE   VOL   85*song2C_mvl/mxv
 BYTE   W03
 BYTE   VOL   86*song2C_mvl/mxv
 BYTE   W04
 BYTE   VOL   88*song2C_mvl/mxv
 BYTE   W04
 BYTE   VOL   89*song2C_mvl/mxv
 BYTE   W05
 BYTE   VOL   92*song2C_mvl/mxv
 BYTE   W05
 BYTE   VOL   93*song2C_mvl/mxv
 BYTE   W05
 BYTE   VOL   94*song2C_mvl/mxv
 BYTE   W06
//  #01 //023   ----------------------------------------
 BYTE   VOL   96*song2C_mvl/mxv
 BYTE   W06
 BYTE   VOL   97*song2C_mvl/mxv
 BYTE   W06
 BYTE   VOL   98*song2C_mvl/mxv
 BYTE   W07
 BYTE   VOL   99*song2C_mvl/mxv
 BYTE   W07
 BYTE   VOL   122*song2C_mvl/mxv
 BYTE   W01
 BYTE   W72
//  #01 //024   ----------------------------------------
 BYTE   W72
 BYTE   W72
//  #01 //025   ----------------------------------------
 BYTE   VOL   93*song2C_mvl/mxv
 BYTE   W02
 BYTE   VOL   96*song2C_mvl/mxv
 BYTE   W01
 BYTE   VOL   98*song2C_mvl/mxv
 BYTE   W03
 BYTE   VOL   101*song2C_mvl/mxv
 BYTE   W01
 BYTE   VOL   103*song2C_mvl/mxv
 BYTE   W02
 BYTE   VOL   104*song2C_mvl/mxv
 BYTE   W02
 BYTE   VOL   106*song2C_mvl/mxv
 BYTE   W02
 BYTE   VOL   108*song2C_mvl/mxv
 BYTE   W02
 BYTE   VOL   110*song2C_mvl/mxv
 BYTE   W02
 BYTE   VOL   111*song2C_mvl/mxv
 BYTE   W03
 BYTE   VOL   113*song2C_mvl/mxv
 BYTE   W03
 BYTE   VOL   115*song2C_mvl/mxv
 BYTE   W03
 BYTE   VOL   116*song2C_mvl/mxv
 BYTE   W03
 BYTE   VOL   118*song2C_mvl/mxv
 BYTE   W03
 BYTE   VOL   120*song2C_mvl/mxv
 BYTE   W03
 BYTE   VOL   122*song2C_mvl/mxv
 BYTE   W36
 BYTE   W01
 BYTE   W68
//  #01 //026   ----------------------------------------
 BYTE   W03
 BYTE   EOT
 BYTE   En0  v040
 BYTE   W01
 BYTE   VOL   93*song2C_mvl/mxv
 BYTE   TIE  En0  v080
 BYTE   TIE  En1
 BYTE   W01
 BYTE   VOL   97*song2C_mvl/mxv
 BYTE   W01
 BYTE   VOL   99*song2C_mvl/mxv
 BYTE   W01
 BYTE   VOL   103*song2C_mvl/mxv
 BYTE   W01
 BYTE   VOL   104*song2C_mvl/mxv
 BYTE   W03
 BYTE   VOL   108*song2C_mvl/mxv
 BYTE   W01
 BYTE   VOL   110*song2C_mvl/mxv
 BYTE   W02
 BYTE   VOL   111*song2C_mvl/mxv
 BYTE   W01
 BYTE   VOL   113*song2C_mvl/mxv
 BYTE   W02
 BYTE   VOL   115*song2C_mvl/mxv
 BYTE   W02
 BYTE   VOL   116*song2C_mvl/mxv
 BYTE   W02
 BYTE   VOL   118*song2C_mvl/mxv
 BYTE   W02
 BYTE   VOL   120*song2C_mvl/mxv
 BYTE   W02
 BYTE   VOL   122*song2C_mvl/mxv
 BYTE   W02
 BYTE   VOL   123*song2C_mvl/mxv
 BYTE   W48
 BYTE   W01
 BYTE   W68
//  #01 //027   ----------------------------------------
 BYTE   W02
 BYTE   EOT
 BYTE   En0  v040
 BYTE   W02
 BYTE   VOL   97*song2C_mvl/mxv
 BYTE   TIE  En0  v092
 BYTE   TIE  En1
 BYTE   W01
 BYTE   VOL   103*song2C_mvl/mxv
 BYTE   W02
 BYTE   VOL   106*song2C_mvl/mxv
 BYTE   W02
 BYTE   VOL   110*song2C_mvl/mxv
 BYTE   W01
 BYTE   VOL   111*song2C_mvl/mxv
 BYTE   W01
 BYTE   VOL   113*song2C_mvl/mxv
 BYTE   W02
 BYTE   VOL   115*song2C_mvl/mxv
 BYTE   W02
 BYTE   VOL   116*song2C_mvl/mxv
 BYTE   W02
 BYTE   VOL   118*song2C_mvl/mxv
 BYTE   W01
 BYTE   VOL   120*song2C_mvl/mxv
 BYTE   W03
 BYTE   VOL   122*song2C_mvl/mxv
 BYTE   W02
 BYTE   VOL   123*song2C_mvl/mxv
 BYTE   W02
 BYTE   VOL   126*song2C_mvl/mxv
 BYTE   W03
 BYTE   VOL   127*song2C_mvl/mxv
 BYTE   W48
 BYTE   W68
//  #01 //028   ----------------------------------------
 BYTE   W03
 BYTE   EOT
 BYTE   W01
 BYTE   EOT
 BYTE   En0
 BYTE   VOL   85*song2C_mvl/mxv
 BYTE   TIE  En0  v096
 BYTE   TIE  En1
 BYTE   W01
 BYTE   VOL   92*song2C_mvl/mxv
 BYTE   W01
 BYTE   VOL   94*song2C_mvl/mxv
 BYTE   W01
 BYTE   VOL   97*song2C_mvl/mxv
 BYTE   W02
 BYTE   VOL   99*song2C_mvl/mxv
 BYTE   W02
 BYTE   VOL   101*song2C_mvl/mxv
 BYTE   W02
 BYTE   VOL   104*song2C_mvl/mxv
 BYTE   W02
 BYTE   VOL   106*song2C_mvl/mxv
 BYTE   W01
 BYTE   VOL   108*song2C_mvl/mxv
 BYTE   W02
 BYTE   VOL   110*song2C_mvl/mxv
 BYTE   W01
 BYTE   VOL   111*song2C_mvl/mxv
 BYTE   W02
 BYTE   VOL   113*song2C_mvl/mxv
 BYTE   W02
 BYTE   VOL   115*song2C_mvl/mxv
 BYTE   W02
 BYTE   VOL   116*song2C_mvl/mxv
 BYTE   W02
 BYTE   VOL   118*song2C_mvl/mxv
 BYTE   W01
 BYTE   VOL   123*song2C_mvl/mxv
 BYTE   W48
 BYTE   W68
//  #01 //029   ----------------------------------------
 BYTE   W03
 BYTE   EOT
 BYTE   En0
 BYTE   W01
 BYTE   En1
Label_010DAD69:
 BYTE   VOL   94*song2C_mvl/mxv
 BYTE   TIE  En0  v112
 BYTE   TIE  En1
 BYTE   W01
 BYTE   VOL   96*song2C_mvl/mxv
 BYTE   W02
 BYTE   VOL   97*song2C_mvl/mxv
 BYTE   W01
 BYTE   VOL   98*song2C_mvl/mxv
 BYTE   W03
 BYTE   VOL   99*song2C_mvl/mxv
 BYTE   W03
 BYTE   VOL   101*song2C_mvl/mxv
 BYTE   W03
 BYTE   VOL   103*song2C_mvl/mxv
 BYTE   W05
 BYTE   VOL   104*song2C_mvl/mxv
 BYTE   W04
 BYTE   VOL   106*song2C_mvl/mxv
 BYTE   W05
 BYTE   VOL   108*song2C_mvl/mxv
 BYTE   W06
 BYTE   VOL   110*song2C_mvl/mxv
 BYTE   W06
 BYTE   VOL   111*song2C_mvl/mxv
 BYTE   W07
 BYTE   VOL   113*song2C_mvl/mxv
 BYTE   W07
 BYTE   VOL   115*song2C_mvl/mxv
 BYTE   W08
 BYTE   VOL   116*song2C_mvl/mxv
 BYTE   W09
 BYTE   VOL   118*song2C_mvl/mxv
 BYTE   W02
 BYTE   PEND 
Label_010DAD9F:
 BYTE   W07
 BYTE   VOL   120*song2C_mvl/mxv
 BYTE   W09
 BYTE   VOL   122*song2C_mvl/mxv
 BYTE   W10
//  #01 //030   ----------------------------------------
 BYTE   VOL   123*song2C_mvl/mxv
 BYTE   W11
 BYTE   VOL   126*song2C_mvl/mxv
 BYTE   W11
 BYTE   VOL   127*song2C_mvl/mxv
 BYTE   W12
 BYTE   VOL   127*song2C_mvl/mxv
 BYTE   W11
 BYTE   PEND 
 BYTE   EOT
 BYTE   En0  v040
 BYTE   W01
Label_010DADB7:
 BYTE   VOL   127*song2C_mvl/mxv
 BYTE   TIE  En0  v076
 BYTE   TIE  En1
 BYTE   W72
 BYTE   PEND 
//  #01 //031   ----------------------------------------
 BYTE   W68
 BYTE   W03
 BYTE   EOT
 BYTE   En0  v040
 BYTE   W01
Label_010DADC6:
 BYTE   TIE  En0  v032
 BYTE   TIE  En1
 BYTE   W23
 BYTE   VOL   127*song2C_mvl/mxv
 BYTE   W23
//  #01 //032   ----------------------------------------
 BYTE   VOL   126*song2C_mvl/mxv
 BYTE   W09
 BYTE   VOL   123*song2C_mvl/mxv
 BYTE   W08
 BYTE   VOL   122*song2C_mvl/mxv
 BYTE   W06
 BYTE   VOL   120*song2C_mvl/mxv
 BYTE   W03
 BYTE   PEND 
Label_010DADDC:
 BYTE   W02
 BYTE   VOL   118*song2C_mvl/mxv
 BYTE   W05
 BYTE   VOL   116*song2C_mvl/mxv
 BYTE   W04
 BYTE   VOL   115*song2C_mvl/mxv
 BYTE   W05
 BYTE   VOL   113*song2C_mvl/mxv
 BYTE   W03
 BYTE   VOL   111*song2C_mvl/mxv
 BYTE   W04
 BYTE   VOL   110*song2C_mvl/mxv
 BYTE   W04
 BYTE   VOL   108*song2C_mvl/mxv
 BYTE   W03
 BYTE   VOL   106*song2C_mvl/mxv
 BYTE   W03
 BYTE   VOL   104*song2C_mvl/mxv
 BYTE   W03
 BYTE   VOL   103*song2C_mvl/mxv
 BYTE   W03
 BYTE   VOL   101*song2C_mvl/mxv
 BYTE   W03
 BYTE   VOL   99*song2C_mvl/mxv
 BYTE   W03
 BYTE   VOL   98*song2C_mvl/mxv
 BYTE   W03
 BYTE   VOL   97*song2C_mvl/mxv
 BYTE   W03
 BYTE   VOL   96*song2C_mvl/mxv
 BYTE   W02
 BYTE   VOL   94*song2C_mvl/mxv
 BYTE   W03
 BYTE   VOL   93*song2C_mvl/mxv
 BYTE   W02
 BYTE   VOL   92*song2C_mvl/mxv
 BYTE   W02
 BYTE   VOL   89*song2C_mvl/mxv
 BYTE   W03
 BYTE   VOL   88*song2C_mvl/mxv
 BYTE   W02
 BYTE   VOL   86*song2C_mvl/mxv
 BYTE   W02
 BYTE   VOL   85*song2C_mvl/mxv
 BYTE   W03
//  #01 //033   ----------------------------------------
 BYTE   VOL   84*song2C_mvl/mxv
 BYTE   W01
 BYTE   PEND 
 BYTE   EOT
 BYTE   En1
 BYTE   W01
 BYTE   En0
 BYTE   VOL   83*song2C_mvl/mxv
 BYTE   TIE  En0  v052
 BYTE   TIE  En1
 BYTE   W01
 BYTE   VOL   84*song2C_mvl/mxv
 BYTE   W01
 BYTE   VOL   85*song2C_mvl/mxv
 BYTE   W01
 BYTE   VOL   86*song2C_mvl/mxv
 BYTE   W02
 BYTE   VOL   88*song2C_mvl/mxv
 BYTE   W02
 BYTE   VOL   89*song2C_mvl/mxv
 BYTE   W03
 BYTE   VOL   92*song2C_mvl/mxv
 BYTE   W03
 BYTE   VOL   93*song2C_mvl/mxv
 BYTE   W03
 BYTE   VOL   94*song2C_mvl/mxv
 BYTE   W04
 BYTE   VOL   96*song2C_mvl/mxv
 BYTE   W04
 BYTE   VOL   97*song2C_mvl/mxv
 BYTE   W05
 BYTE   VOL   98*song2C_mvl/mxv
 BYTE   W04
 BYTE   VOL   99*song2C_mvl/mxv
 BYTE   W06
 BYTE   VOL   101*song2C_mvl/mxv
 BYTE   W05
 BYTE   VOL   103*song2C_mvl/mxv
 BYTE   W07
 BYTE   VOL   104*song2C_mvl/mxv
 BYTE   W06
 BYTE   VOL   106*song2C_mvl/mxv
 BYTE   W07
 BYTE   VOL   108*song2C_mvl/mxv
 BYTE   W07
 BYTE   VOL   110*song2C_mvl/mxv
 BYTE   W01
 BYTE   W07
 BYTE   VOL   111*song2C_mvl/mxv
 BYTE   W08
 BYTE   VOL   113*song2C_mvl/mxv
 BYTE   W09
//  #01 //034   ----------------------------------------
 BYTE   VOL   115*song2C_mvl/mxv
 BYTE   W08
 BYTE   VOL   116*song2C_mvl/mxv
 BYTE   W10
 BYTE   VOL   118*song2C_mvl/mxv
 BYTE   W09
 BYTE   VOL   120*song2C_mvl/mxv
 BYTE   W10
 BYTE   VOL   122*song2C_mvl/mxv
 BYTE   W10
 BYTE   EOT
 BYTE   En0  v040
 BYTE   W01
 BYTE   VOL   123*song2C_mvl/mxv
 BYTE   TIE  En0
 BYTE   TIE  En1
 BYTE   W72
//  #01 //035   ----------------------------------------
 BYTE   W68
 BYTE   W03
 BYTE   EOT
 BYTE   En0  v040
 BYTE   W01
 BYTE   GoTo
  POIN2 Label_010DAA51
//  #01 //036   ----------------------------------------
Label_010DAE91:
 BYTE   N01  En0  v092
 BYTE   TIE  En1
 BYTE   W03
 BYTE   VOL   101*song2C_mvl/mxv
 BYTE   W24
 BYTE   W02
 BYTE   VOL   103*song2C_mvl/mxv
 BYTE   W24
 BYTE   W03
 BYTE   VOL   104*song2C_mvl/mxv
 BYTE   W16
 BYTE   PEND 
Label_010DAEA3:
 BYTE   W13
 BYTE   VOL   106*song2C_mvl/mxv
 BYTE   W28
//  #01 //037   ----------------------------------------
 BYTE   W01
 BYTE   VOL   108*song2C_mvl/mxv
 BYTE   W28
 BYTE   W01
 BYTE   VOL   110*song2C_mvl/mxv
 BYTE   W01
 BYTE   PEND 
Label_010DAEB0:
 BYTE   W60
 BYTE   W02
 BYTE   VOL   110*song2C_mvl/mxv
 BYTE   W08
//  #01 //038   ----------------------------------------
 BYTE   VOL   111*song2C_mvl/mxv
 BYTE   W02
 BYTE   PEND 
//  #01 //039   ----------------------------------------
 BYTE   PATT
  POIN2 Label_010DAA76
//  #01 //040   ----------------------------------------
 BYTE   EOT
 BYTE   En1
//  #01 //041   ----------------------------------------
 BYTE   PATT
  POIN2 Label_010DAA93
//  #01 //042   ----------------------------------------
 BYTE   PATT
  POIN2 Label_010DAA9A
//  #01 //043   ----------------------------------------
 BYTE   PATT
  POIN2 Label_010DAAB3
//  #01 //044   ----------------------------------------
 BYTE   PATT
  POIN2 Label_010DAACA
//  #01 //045   ----------------------------------------
 BYTE   EOT
 BYTE   En0
 BYTE   W01
 BYTE   En1
 BYTE   VOL   76*song2C_mvl/mxv
 BYTE   N01  En0  v052
 BYTE   W01
 BYTE   TIE
 BYTE   TIE  En1  v084
 BYTE   W04
 BYTE   VOL   78*song2C_mvl/mxv
 BYTE   W05
 BYTE   VOL   78*song2C_mvl/mxv
 BYTE   W05
 BYTE   VOL   79*song2C_mvl/mxv
 BYTE   W05
 BYTE   VOL   81*song2C_mvl/mxv
 BYTE   W05
 BYTE   VOL   82*song2C_mvl/mxv
 BYTE   W05
 BYTE   VOL   83*song2C_mvl/mxv
 BYTE   W05
 BYTE   VOL   84*song2C_mvl/mxv
 BYTE   W05
 BYTE   VOL   85*song2C_mvl/mxv
 BYTE   W05
 BYTE   VOL   86*song2C_mvl/mxv
 BYTE   W05
 BYTE   VOL   88*song2C_mvl/mxv
 BYTE   W05
 BYTE   VOL   89*song2C_mvl/mxv
 BYTE   W05
 BYTE   VOL   92*song2C_mvl/mxv
 BYTE   W05
 BYTE   VOL   93*song2C_mvl/mxv
 BYTE   W05
 BYTE   VOL   94*song2C_mvl/mxv
 BYTE   W03
 BYTE   W02
 BYTE   VOL   96*song2C_mvl/mxv
 BYTE   W05
 BYTE   VOL   97*song2C_mvl/mxv
 BYTE   W05
 BYTE   VOL   98*song2C_mvl/mxv
 BYTE   W05
 BYTE   VOL   99*song2C_mvl/mxv
 BYTE   W05
//  #01 //046   ----------------------------------------
 BYTE   VOL   101*song2C_mvl/mxv
 BYTE   W05
 BYTE   VOL   103*song2C_mvl/mxv
 BYTE   W05
 BYTE   VOL   104*song2C_mvl/mxv
 BYTE   W05
 BYTE   VOL   106*song2C_mvl/mxv
 BYTE   W05
 BYTE   VOL   108*song2C_mvl/mxv
 BYTE   W05
 BYTE   VOL   110*song2C_mvl/mxv
 BYTE   W04
 BYTE   VOL   111*song2C_mvl/mxv
 BYTE   W05
 BYTE   VOL   113*song2C_mvl/mxv
 BYTE   W05
 BYTE   VOL   115*song2C_mvl/mxv
 BYTE   W05
 BYTE   VOL   116*song2C_mvl/mxv
 BYTE   W06
 BYTE   W72
//  #01 //047   ----------------------------------------
 BYTE   W72
 BYTE   EOT
 BYTE   En0  v040
//  #01 //048   ----------------------------------------
 BYTE   PATT
  POIN2 Label_010DAB4C
//  #01 //049   ----------------------------------------
 BYTE   W72
 BYTE   W72
//  #01 //050   ----------------------------------------
 BYTE   W68
 BYTE   W03
 BYTE   EOT
 BYTE   En0  v040
 BYTE   W01
//  #01 //051   ----------------------------------------
 BYTE   PATT
  POIN2 Label_010DAB4C
//  #01 //052   ----------------------------------------
 BYTE   W72
 BYTE   W72
//  #01 //053   ----------------------------------------
 BYTE   W72
//  #01 //054   ----------------------------------------
 BYTE   PATT
  POIN2 Label_010DAB64
//  #01 //055   ----------------------------------------
 BYTE   PATT
  POIN2 Label_010DAB9C
//  #01 //056   ----------------------------------------
 BYTE   EOT
 BYTE   En1
 BYTE   VOL   115*song2C_mvl/mxv
 BYTE   TIE  En1  v072
 BYTE   W01
 BYTE   EOT
 BYTE   En0
 BYTE   TIE  En0  v032
 BYTE   W72
 BYTE   W72
//  #01 //057   ----------------------------------------
 BYTE   W72
 BYTE   W68
//  #01 //058   ----------------------------------------
 BYTE   W03
 BYTE   EOT
 BYTE   EOT
 BYTE   En1
 BYTE   W01
//  #01 //059   ----------------------------------------
 BYTE   PATT
  POIN2 Label_010DABF2
//  #01 //060   ----------------------------------------
 BYTE   W72
 BYTE   W72
//  #01 //061   ----------------------------------------
 BYTE   W68
 BYTE   W03
 BYTE   EOT
 BYTE   En0  v040
 BYTE   W01
 BYTE   TIE  En0  v032
 BYTE   TIE  En1  v072
 BYTE   W30
//  #01 //062   ----------------------------------------
 BYTE   VOL   111*song2C_mvl/mxv
 BYTE   W24
 BYTE   W01
 BYTE   VOL   110*song2C_mvl/mxv
 BYTE   W11
 BYTE   VOL   108*song2C_mvl/mxv
 BYTE   W06
 BYTE   W02
 BYTE   VOL   106*song2C_mvl/mxv
 BYTE   W07
 BYTE   VOL   104*song2C_mvl/mxv
 BYTE   W06
 BYTE   VOL   103*song2C_mvl/mxv
 BYTE   W05
 BYTE   VOL   101*song2C_mvl/mxv
 BYTE   W05
 BYTE   VOL   99*song2C_mvl/mxv
 BYTE   W05
 BYTE   VOL   98*song2C_mvl/mxv
 BYTE   W04
 BYTE   VOL   97*song2C_mvl/mxv
 BYTE   W05
 BYTE   VOL   96*song2C_mvl/mxv
 BYTE   W04
 BYTE   VOL   94*song2C_mvl/mxv
 BYTE   W03
 BYTE   VOL   93*song2C_mvl/mxv
 BYTE   W04
 BYTE   VOL   92*song2C_mvl/mxv
 BYTE   W03
 BYTE   VOL   89*song2C_mvl/mxv
 BYTE   W04
//  #01 //063   ----------------------------------------
 BYTE   VOL   88*song2C_mvl/mxv
 BYTE   W03
 BYTE   VOL   86*song2C_mvl/mxv
 BYTE   W03
 BYTE   VOL   85*song2C_mvl/mxv
 BYTE   W03
 BYTE   VOL   84*song2C_mvl/mxv
 BYTE   W03
 BYTE   VOL   83*song2C_mvl/mxv
 BYTE   W02
 BYTE   EOT
 BYTE   En0  v040
 BYTE   TIE  En0  v052
 BYTE   W01
 BYTE   VOL   76*song2C_mvl/mxv
 BYTE   TIE  En1
 BYTE   W02
 BYTE   VOL   79*song2C_mvl/mxv
 BYTE   W01
 BYTE   VOL   81*song2C_mvl/mxv
 BYTE   W02
 BYTE   VOL   82*song2C_mvl/mxv
 BYTE   W02
 BYTE   VOL   83*song2C_mvl/mxv
 BYTE   W03
 BYTE   VOL   84*song2C_mvl/mxv
 BYTE   W03
 BYTE   VOL   85*song2C_mvl/mxv
 BYTE   W03
 BYTE   VOL   86*song2C_mvl/mxv
 BYTE   W04
 BYTE   VOL   88*song2C_mvl/mxv
 BYTE   W04
 BYTE   VOL   89*song2C_mvl/mxv
 BYTE   W05
 BYTE   VOL   92*song2C_mvl/mxv
 BYTE   W05
 BYTE   VOL   93*song2C_mvl/mxv
 BYTE   W05
 BYTE   VOL   94*song2C_mvl/mxv
 BYTE   W06
 BYTE   VOL   96*song2C_mvl/mxv
 BYTE   W06
 BYTE   VOL   97*song2C_mvl/mxv
 BYTE   W06
 BYTE   VOL   98*song2C_mvl/mxv
 BYTE   W07
 BYTE   VOL   99*song2C_mvl/mxv
 BYTE   W07
 BYTE   VOL   122*song2C_mvl/mxv
 BYTE   W01
 BYTE   W72
//  #01 //064   ----------------------------------------
 BYTE   W72
 BYTE   W68
//  #01 //065   ----------------------------------------
 BYTE   W03
 BYTE   VOL   89*song2C_mvl/mxv
 BYTE   W01
 BYTE   VOL   93*song2C_mvl/mxv
 BYTE   W01
 BYTE   VOL   96*song2C_mvl/mxv
 BYTE   W02
 BYTE   VOL   98*song2C_mvl/mxv
 BYTE   W02
 BYTE   VOL   101*song2C_mvl/mxv
 BYTE   W02
 BYTE   VOL   103*song2C_mvl/mxv
 BYTE   W01
 BYTE   VOL   104*song2C_mvl/mxv
 BYTE   W02
 BYTE   VOL   106*song2C_mvl/mxv
 BYTE   W02
 BYTE   VOL   108*song2C_mvl/mxv
 BYTE   W02
 BYTE   VOL   110*song2C_mvl/mxv
 BYTE   W03
 BYTE   VOL   111*song2C_mvl/mxv
 BYTE   W02
 BYTE   VOL   113*song2C_mvl/mxv
 BYTE   W03
 BYTE   VOL   115*song2C_mvl/mxv
 BYTE   W03
 BYTE   VOL   116*song2C_mvl/mxv
 BYTE   W03
 BYTE   VOL   118*song2C_mvl/mxv
 BYTE   W03
 BYTE   VOL   120*song2C_mvl/mxv
 BYTE   W04
 BYTE   VOL   122*song2C_mvl/mxv
 BYTE   W36
 BYTE   W01
 BYTE   W68
//  #01 //066   ----------------------------------------
 BYTE   W02
 BYTE   EOT
 BYTE   En0
 BYTE   W01
 BYTE   En1
 BYTE   VOL   93*song2C_mvl/mxv
 BYTE   W01
 BYTE   VOL   97*song2C_mvl/mxv
 BYTE   TIE  En0  v080
 BYTE   TIE  En1
 BYTE   W02
 BYTE   VOL   99*song2C_mvl/mxv
 BYTE   W01
 BYTE   VOL   103*song2C_mvl/mxv
 BYTE   W01
 BYTE   VOL   104*song2C_mvl/mxv
 BYTE   W02
 BYTE   VOL   108*song2C_mvl/mxv
 BYTE   W01
 BYTE   VOL   110*song2C_mvl/mxv
 BYTE   W02
 BYTE   VOL   111*song2C_mvl/mxv
 BYTE   W02
 BYTE   VOL   113*song2C_mvl/mxv
 BYTE   W01
 BYTE   VOL   115*song2C_mvl/mxv
 BYTE   W02
 BYTE   VOL   116*song2C_mvl/mxv
 BYTE   W02
 BYTE   VOL   118*song2C_mvl/mxv
 BYTE   W03
 BYTE   VOL   120*song2C_mvl/mxv
 BYTE   W02
 BYTE   VOL   122*song2C_mvl/mxv
 BYTE   W02
 BYTE   VOL   123*song2C_mvl/mxv
 BYTE   W48
 BYTE   W01
 BYTE   W68
//  #01 //067   ----------------------------------------
 BYTE   W02
 BYTE   EOT
 BYTE   En0  v040
 BYTE   W02
 BYTE   VOL   97*song2C_mvl/mxv
 BYTE   TIE  En0  v092
 BYTE   TIE  En1
 BYTE   W01
 BYTE   VOL   103*song2C_mvl/mxv
 BYTE   W02
 BYTE   VOL   106*song2C_mvl/mxv
 BYTE   W02
 BYTE   VOL   110*song2C_mvl/mxv
 BYTE   W01
 BYTE   VOL   111*song2C_mvl/mxv
 BYTE   W01
 BYTE   VOL   113*song2C_mvl/mxv
 BYTE   W02
 BYTE   VOL   115*song2C_mvl/mxv
 BYTE   W02
 BYTE   VOL   116*song2C_mvl/mxv
 BYTE   W02
 BYTE   VOL   118*song2C_mvl/mxv
 BYTE   W01
 BYTE   VOL   120*song2C_mvl/mxv
 BYTE   W03
 BYTE   VOL   122*song2C_mvl/mxv
 BYTE   W02
 BYTE   VOL   123*song2C_mvl/mxv
 BYTE   W02
 BYTE   VOL   126*song2C_mvl/mxv
 BYTE   W02
 BYTE   VOL   127*song2C_mvl/mxv
 BYTE   W48
 BYTE   W01
 BYTE   W68
//  #01 //068   ----------------------------------------
 BYTE   W03
 BYTE   EOT
 BYTE   VOL   85*song2C_mvl/mxv
 BYTE   W01
 BYTE   EOT
 BYTE   En0
 BYTE   VOL   92*song2C_mvl/mxv
 BYTE   TIE  En0  v096
 BYTE   TIE  En1
 BYTE   W01
 BYTE   VOL   94*song2C_mvl/mxv
 BYTE   W02
 BYTE   VOL   97*song2C_mvl/mxv
 BYTE   W02
 BYTE   VOL   99*song2C_mvl/mxv
 BYTE   W01
 BYTE   VOL   101*song2C_mvl/mxv
 BYTE   W02
 BYTE   VOL   104*song2C_mvl/mxv
 BYTE   W02
 BYTE   VOL   106*song2C_mvl/mxv
 BYTE   W01
 BYTE   VOL   108*song2C_mvl/mxv
 BYTE   W02
 BYTE   VOL   110*song2C_mvl/mxv
 BYTE   W02
 BYTE   VOL   111*song2C_mvl/mxv
 BYTE   W02
 BYTE   VOL   113*song2C_mvl/mxv
 BYTE   W02
 BYTE   VOL   115*song2C_mvl/mxv
 BYTE   W02
 BYTE   VOL   116*song2C_mvl/mxv
 BYTE   W02
 BYTE   VOL   123*song2C_mvl/mxv
 BYTE   W48
 BYTE   W01
 BYTE   W68
//  #01 //069   ----------------------------------------
 BYTE   W03
 BYTE   EOT
 BYTE   En0
 BYTE   W01
 BYTE   En1
//  #01 //070   ----------------------------------------
 BYTE   PATT
  POIN2 Label_010DAD69
//  #01 //071   ----------------------------------------
 BYTE   PATT
  POIN2 Label_010DAD9F
//  #01 //072   ----------------------------------------
 BYTE   EOT
 BYTE   En0  v040
 BYTE   W01
//  #01 //073   ----------------------------------------
 BYTE   PATT
  POIN2 Label_010DADB7
//  #01 //074   ----------------------------------------
 BYTE   W68
 BYTE   W03
 BYTE   EOT
 BYTE   En0  v040
 BYTE   W01
//  #01 //075   ----------------------------------------
 BYTE   PATT
  POIN2 Label_010DADC6
//  #01 //076   ----------------------------------------
 BYTE   PATT
  POIN2 Label_010DADDC
//  #01 //077   ----------------------------------------
 BYTE   EOT
 BYTE   En1
 BYTE   VOL   83*song2C_mvl/mxv
 BYTE   TIE  En1  v052
 BYTE   W01
 BYTE   EOT
 BYTE   En0
 BYTE   VOL   83*song2C_mvl/mxv
 BYTE   TIE
 BYTE   W01
 BYTE   VOL   84*song2C_mvl/mxv
 BYTE   W01
 BYTE   VOL   85*song2C_mvl/mxv
 BYTE   W01
 BYTE   VOL   86*song2C_mvl/mxv
 BYTE   W02
 BYTE   VOL   88*song2C_mvl/mxv
 BYTE   W02
 BYTE   VOL   89*song2C_mvl/mxv
 BYTE   W03
 BYTE   VOL   92*song2C_mvl/mxv
 BYTE   W03
 BYTE   VOL   93*song2C_mvl/mxv
 BYTE   W03
 BYTE   VOL   94*song2C_mvl/mxv
 BYTE   W04
 BYTE   VOL   96*song2C_mvl/mxv
 BYTE   W04
 BYTE   VOL   97*song2C_mvl/mxv
 BYTE   W05
 BYTE   VOL   98*song2C_mvl/mxv
 BYTE   W04
 BYTE   VOL   99*song2C_mvl/mxv
 BYTE   W06
 BYTE   VOL   101*song2C_mvl/mxv
 BYTE   W05
 BYTE   VOL   103*song2C_mvl/mxv
 BYTE   W07
 BYTE   VOL   104*song2C_mvl/mxv
 BYTE   W06
 BYTE   VOL   106*song2C_mvl/mxv
 BYTE   W07
 BYTE   VOL   108*song2C_mvl/mxv
 BYTE   W07
 BYTE   VOL   110*song2C_mvl/mxv
 BYTE   W01
 BYTE   W07
 BYTE   VOL   111*song2C_mvl/mxv
 BYTE   W08
 BYTE   VOL   113*song2C_mvl/mxv
 BYTE   W09
//  #01 //078   ----------------------------------------
 BYTE   VOL   115*song2C_mvl/mxv
 BYTE   W08
 BYTE   VOL   116*song2C_mvl/mxv
 BYTE   W10
 BYTE   VOL   118*song2C_mvl/mxv
 BYTE   W09
 BYTE   VOL   120*song2C_mvl/mxv
 BYTE   W10
 BYTE   VOL   122*song2C_mvl/mxv
 BYTE   W09
 BYTE   EOT
 BYTE   En1
 BYTE   W01
 BYTE   En0
 BYTE   VOL   123*song2C_mvl/mxv
 BYTE   W01
 BYTE   TIE
 BYTE   TIE  En1
 BYTE   W72
//  #01 //079   ----------------------------------------
 BYTE   W68
 BYTE   W03
 BYTE   EOT
 BYTE   En0  v040
 BYTE   W01
//  #01 //080   ----------------------------------------
 BYTE   PATT
  POIN2 Label_010DAE91
//  #01 //081   ----------------------------------------
 BYTE   PATT
  POIN2 Label_010DAEA3
//  #01 //082   ----------------------------------------
 BYTE   PATT
  POIN2 Label_010DAEB0
//  #01 //083   ----------------------------------------
 BYTE   PATT
  POIN2 Label_010DAA76
//  #01 //084   ----------------------------------------
 BYTE   EOT
 BYTE   En1
//  #01 //085   ----------------------------------------
 BYTE   PATT
  POIN2 Label_010DAA93
//  #01 //086   ----------------------------------------
 BYTE   PATT
  POIN2 Label_010DAA9A
//  #01 //087   ----------------------------------------
 BYTE   VOL   108*song2C_mvl/mxv
 BYTE   W72
 BYTE   W12
 BYTE   VOL   106*song2C_mvl/mxv
 BYTE   W32
//  #01 //088   ----------------------------------------
 BYTE   W03
 BYTE   VOL   104*song2C_mvl/mxv
 BYTE   W23
 BYTE   EOT
 BYTE   En0
 BYTE   W01
 BYTE   En1
 BYTE   N01  En0  v052
 BYTE   W01
 BYTE   TIE
 BYTE   TIE  En1  v084
 BYTE   W02
 BYTE   VOL   103*song2C_mvl/mxv
 BYTE   W22
 BYTE   VOL   101*song2C_mvl/mxv
 BYTE   W20
 BYTE   VOL   99*song2C_mvl/mxv
 BYTE   W18
 BYTE   VOL   98*song2C_mvl/mxv
 BYTE   W10
//  #01 //089   ----------------------------------------
 BYTE   W06
 BYTE   VOL   97*song2C_mvl/mxv
 BYTE   W16
 BYTE   VOL   96*song2C_mvl/mxv
 BYTE   W14
 BYTE   VOL   94*song2C_mvl/mxv
 BYTE   W14
 BYTE   VOL   93*song2C_mvl/mxv
 BYTE   W13
 BYTE   VOL   92*song2C_mvl/mxv
 BYTE   W09
 BYTE   W03
 BYTE   VOL   89*song2C_mvl/mxv
 BYTE   W12
 BYTE   VOL   88*song2C_mvl/mxv
 BYTE   W11
//  #01 //090   ----------------------------------------
 BYTE   VOL   86*song2C_mvl/mxv
 BYTE   W11
 BYTE   VOL   85*song2C_mvl/mxv
 BYTE   W11
 BYTE   VOL   84*song2C_mvl/mxv
 BYTE   W10
 BYTE   VOL   83*song2C_mvl/mxv
 BYTE   W11
 BYTE   VOL   82*song2C_mvl/mxv
 BYTE   W03
 BYTE   W06
 BYTE   VOL   81*song2C_mvl/mxv
 BYTE   W10
 BYTE   VOL   79*song2C_mvl/mxv
 BYTE   W09
 BYTE   VOL   78*song2C_mvl/mxv
 BYTE   W09
 BYTE   VOL   78*song2C_mvl/mxv
 BYTE   W09
 BYTE   VOL   76*song2C_mvl/mxv
 BYTE   W09
//  #01 //091   ----------------------------------------
 BYTE   VOL   74*song2C_mvl/mxv
 BYTE   W08
 BYTE   VOL   74*song2C_mvl/mxv
 BYTE   W08
 BYTE   VOL   73*song2C_mvl/mxv
 BYTE   W04
 BYTE   EOT
 BYTE   En0  v040
 BYTE   N68
 BYTE   W05
 BYTE   VOL   72*song2C_mvl/mxv
 BYTE   W08
 BYTE   VOL   71*song2C_mvl/mxv
 BYTE   W08
 BYTE   VOL   70*song2C_mvl/mxv
 BYTE   W07
 BYTE   VOL   70*song2C_mvl/mxv
 BYTE   W08
 BYTE   VOL   68*song2C_mvl/mxv
 BYTE   W07
 BYTE   VOL   67*song2C_mvl/mxv
 BYTE   W08
 BYTE   VOL   67*song2C_mvl/mxv
 BYTE   W07
 BYTE   VOL   66*song2C_mvl/mxv
 BYTE   W07
 BYTE   VOL   65*song2C_mvl/mxv
 BYTE   W07
 BYTE   VOL   64*song2C_mvl/mxv
 BYTE   FINE

//**************** Track 2 (Midi-Chn.1) ****************//

song2C_002:
//  #02 //000   ----------------------------------------
 BYTE   KEYSH   song2C_key+0
 BYTE   VOICE   46
 BYTE   MODT 0
 BYTE   LFOS 44
 BYTE   PAN   c_v-22
 BYTE   VOL   61*song2C_mvl/mxv
 BYTE   W68
 BYTE   W03
 BYTE   VOL   22*song2C_mvl/mxv
 BYTE   W01
 BYTE   N11  En3  v092
 BYTE   W01
 BYTE   VOL   22*song2C_mvl/mxv
 BYTE   W01
 BYTE   VOL   23*song2C_mvl/mxv
 BYTE   W03
 BYTE   VOL   23*song2C_mvl/mxv
 BYTE   W03
 BYTE   VOL   23*song2C_mvl/mxv
 BYTE   W04
 BYTE   VOL   23*song2C_mvl/mxv
 BYTE   N11  Gn3  v048
 BYTE   W05
 BYTE   VOL   24*song2C_mvl/mxv
 BYTE   W05
 BYTE   VOL   24*song2C_mvl/mxv
 BYTE   W02
//  #02 //001   ----------------------------------------
 BYTE   N11  En4  v080
 BYTE   W04
 BYTE   VOL   25*song2C_mvl/mxv
 BYTE   W07
 BYTE   VOL   26*song2C_mvl/mxv
 BYTE   W01
 BYTE   N11  Fs3  v092
 BYTE   W07
 BYTE   VOL   26*song2C_mvl/mxv
 BYTE   W05
 BYTE   N12  Gn3  v064
 BYTE   W03
 BYTE   VOL   26*song2C_mvl/mxv
 BYTE   W09
 BYTE   VOL   27*song2C_mvl/mxv
 BYTE   N11  Dn4  v112
 BYTE   W10
 BYTE   VOL   27*song2C_mvl/mxv
 BYTE   W02
 BYTE   N11  En3  v092
 BYTE   W08
 BYTE   VOL   28*song2C_mvl/mxv
 BYTE   W04
 BYTE   N11  Gn3  v048
 BYTE   W07
 BYTE   VOL   28*song2C_mvl/mxv
 BYTE   W05
 BYTE   N11  En4  v080
 BYTE   W07
 BYTE   VOL   29*song2C_mvl/mxv
 BYTE   W05
 BYTE   N11  Fs3  v092
 BYTE   W08
 BYTE   VOL   30*song2C_mvl/mxv
 BYTE   W04
//  #02 //002   ----------------------------------------
 BYTE   N12  Gn3  v064
 BYTE   W09
 BYTE   VOL   31*song2C_mvl/mxv
 BYTE   W03
 BYTE   N11  Dn4  v112
 BYTE   W11
 BYTE   VOL   31*song2C_mvl/mxv
 BYTE   W01
 BYTE   N11  En3  v092
 BYTE   W03
 BYTE   VOL   31*song2C_mvl/mxv
 BYTE   W04
 BYTE   VOL   32*song2C_mvl/mxv
 BYTE   W04
 BYTE   VOL   32*song2C_mvl/mxv
 BYTE   W01
 BYTE   N11  Gn3  v048
 BYTE   W03
 BYTE   VOL   33*song2C_mvl/mxv
 BYTE   W04
 BYTE   VOL   34*song2C_mvl/mxv
 BYTE   W04
 BYTE   VOL   34*song2C_mvl/mxv
 BYTE   W01
 BYTE   N11  En4  v080
 BYTE   W03
 BYTE   VOL   35*song2C_mvl/mxv
 BYTE   W04
 BYTE   VOL   36*song2C_mvl/mxv
 BYTE   W04
 BYTE   VOL   37*song2C_mvl/mxv
 BYTE   W01
 BYTE   N11  Fs3  v092
 BYTE   W03
 BYTE   VOL   38*song2C_mvl/mxv
 BYTE   W04
 BYTE   VOL   38*song2C_mvl/mxv
 BYTE   W05
 BYTE   VOL   39*song2C_mvl/mxv
 BYTE   N12  Gn3  v064
 BYTE   W04
 BYTE   VOL   40*song2C_mvl/mxv
 BYTE   W04
 BYTE   VOL   41*song2C_mvl/mxv
 BYTE   W04
 BYTE   VOL   42*song2C_mvl/mxv
 BYTE   N11  Dn4  v112
 BYTE   W04
 BYTE   VOL   42*song2C_mvl/mxv
 BYTE   W04
 BYTE   VOL   43*song2C_mvl/mxv
 BYTE   W04
//  #02 //003   ----------------------------------------
Label_010DB2DD:
 BYTE   N11  En3  v092
 BYTE   W12
 BYTE   Gn3  v048
 BYTE   W12
 BYTE   En4  v080
 BYTE   W12
 BYTE   Fs3  v092
 BYTE   W12
 BYTE   N12  Gn3  v064
 BYTE   W12
 BYTE   N11  Dn4  v112
 BYTE   W12
 BYTE   PEND 
Label_010DB2F3:
 BYTE   VOL   43*song2C_mvl/mxv
 BYTE   N11  En3  v092
 BYTE   W12
 BYTE   Gn3  v048
 BYTE   W12
//  #02 //004   ----------------------------------------
 BYTE   En4  v080
 BYTE   W12
 BYTE   Fs3  v092
 BYTE   W12
 BYTE   N12  Gn3  v064
 BYTE   W12
 BYTE   N11  Dn4  v112
 BYTE   W12
//  #02 //005   ----------------------------------------
 BYTE   PATT
  POIN2 Label_010DB2DD
//  #02 //006   ----------------------------------------
 BYTE   N11  En3  v092
 BYTE   W12
 BYTE   Gn3  v048
 BYTE   W12
 BYTE   En4  v080
 BYTE   W12
 BYTE   Fs3  v092
 BYTE   W12
 BYTE   N12  Gn3  v064
 BYTE   W12
 BYTE   N11  Dn4  v112
 BYTE   W02
 BYTE   VOL   39*song2C_mvl/mxv
 BYTE   W10
 BYTE   N11  En3  v092
 BYTE   W09
 BYTE   VOL   38*song2C_mvl/mxv
 BYTE   W03
 BYTE   N11  Gn3  v048
 BYTE   W05
 BYTE   VOL   38*song2C_mvl/mxv
 BYTE   W06
 BYTE   VOL   37*song2C_mvl/mxv
 BYTE   W01
//  #02 //007   ----------------------------------------
 BYTE   N11  En4  v080
 BYTE   W05
 BYTE   VOL   36*song2C_mvl/mxv
 BYTE   W04
 BYTE   VOL   35*song2C_mvl/mxv
 BYTE   W03
 BYTE   N11  Fs3  v092
 BYTE   W01
 BYTE   VOL   34*song2C_mvl/mxv
 BYTE   W04
 BYTE   VOL   34*song2C_mvl/mxv
 BYTE   W04
 BYTE   VOL   33*song2C_mvl/mxv
 BYTE   W03
 BYTE   VOL   32*song2C_mvl/mxv
 BYTE   N12  Gn3  v064
 BYTE   W03
 BYTE   VOL   32*song2C_mvl/mxv
 BYTE   W03
 BYTE   VOL   31*song2C_mvl/mxv
 BYTE   W03
 BYTE   VOL   31*song2C_mvl/mxv
 BYTE   W03
 BYTE   VOL   30*song2C_mvl/mxv
 BYTE   N11  Dn4  v112
 BYTE   W02
 BYTE   VOL   29*song2C_mvl/mxv
 BYTE   W03
 BYTE   VOL   28*song2C_mvl/mxv
 BYTE   W02
 BYTE   VOL   28*song2C_mvl/mxv
 BYTE   W02
 BYTE   VOL   27*song2C_mvl/mxv
 BYTE   W02
 BYTE   VOL   27*song2C_mvl/mxv
 BYTE   W01
Label_010DB373:
 BYTE   N11  En3  v092
 BYTE   W12
 BYTE   Gn3  v048
 BYTE   W12
 BYTE   En4  v080
 BYTE   W12
 BYTE   Fs3  v092
 BYTE   W11
 BYTE   VOL   24*song2C_mvl/mxv
 BYTE   W01
//  #02 //008   ----------------------------------------
 BYTE   VOL   26*song2C_mvl/mxv
 BYTE   N12  Gn3  v064
 BYTE   W01
 BYTE   VOL   27*song2C_mvl/mxv
 BYTE   W01
 BYTE   VOL   28*song2C_mvl/mxv
 BYTE   W02
 BYTE   VOL   29*song2C_mvl/mxv
 BYTE   W02
 BYTE   VOL   30*song2C_mvl/mxv
 BYTE   W03
 BYTE   VOL   31*song2C_mvl/mxv
 BYTE   W03
 BYTE   VOL   32*song2C_mvl/mxv
 BYTE   N11  Dn4  v112
 BYTE   W02
 BYTE   VOL   33*song2C_mvl/mxv
 BYTE   W02
 BYTE   VOL   34*song2C_mvl/mxv
 BYTE   W02
 BYTE   VOL   34*song2C_mvl/mxv
 BYTE   W03
 BYTE   VOL   35*song2C_mvl/mxv
 BYTE   W02
 BYTE   VOL   36*song2C_mvl/mxv
 BYTE   W01
 BYTE   PEND 
Label_010DB3AE:
 BYTE   N11  En3  v092
 BYTE   W02
 BYTE   VOL   37*song2C_mvl/mxv
 BYTE   W02
 BYTE   VOL   38*song2C_mvl/mxv
 BYTE   W03
 BYTE   VOL   38*song2C_mvl/mxv
 BYTE   W03
 BYTE   VOL   39*song2C_mvl/mxv
 BYTE   W02
 BYTE   N11  Gn3  v048
 BYTE   W01
 BYTE   VOL   40*song2C_mvl/mxv
 BYTE   W03
 BYTE   VOL   41*song2C_mvl/mxv
 BYTE   W04
 BYTE   VOL   42*song2C_mvl/mxv
 BYTE   W03
 BYTE   VOL   42*song2C_mvl/mxv
 BYTE   W01
 BYTE   N11  En4  v080
 BYTE   W03
 BYTE   VOL   43*song2C_mvl/mxv
 BYTE   W04
 BYTE   VOL   44*song2C_mvl/mxv
 BYTE   W04
 BYTE   VOL   45*song2C_mvl/mxv
 BYTE   W01
 BYTE   N11  Fs3  v092
 BYTE   W03
 BYTE   VOL   45*song2C_mvl/mxv
 BYTE   W04
 BYTE   VOL   46*song2C_mvl/mxv
 BYTE   W04
 BYTE   VOL   47*song2C_mvl/mxv
 BYTE   W01
 BYTE   N12  Gn3  v064
 BYTE   W12
 BYTE   N11  Dn4  v112
 BYTE   W12
 BYTE   PEND 
//  #02 //009   ----------------------------------------
Label_010DB3F1:
 BYTE   N11  En3  v092
 BYTE   W12
 BYTE   Gn3  v048
 BYTE   W12
 BYTE   En4  v080
 BYTE   W08
 BYTE   VOL   46*song2C_mvl/mxv
 BYTE   W04
 BYTE   N11  Fs3  v092
 BYTE   W12
 BYTE   N12  Gn3  v064
 BYTE   W12
 BYTE   N11  Dn4  v112
 BYTE   W12
 BYTE   PEND 
Label_010DB40B:
 BYTE   N11  En3  v092
 BYTE   W08
 BYTE   VOL   45*song2C_mvl/mxv
 BYTE   W04
 BYTE   N11  Gn3  v048
 BYTE   W12
//  #02 //010   ----------------------------------------
 BYTE   En4  v080
 BYTE   W03
 BYTE   VOL   45*song2C_mvl/mxv
 BYTE   W09
 BYTE   N11  Fs3  v092
 BYTE   W06
 BYTE   VOL   44*song2C_mvl/mxv
 BYTE   W06
 BYTE   N12  Gn3  v064
 BYTE   W07
 BYTE   VOL   43*song2C_mvl/mxv
 BYTE   W05
 BYTE   N11  Dn4  v112
 BYTE   W06
 BYTE   VOL   42*song2C_mvl/mxv
 BYTE   W06
 BYTE   PEND 
Label_010DB432:
 BYTE   N11  En3  v092
 BYTE   W04
 BYTE   VOL   42*song2C_mvl/mxv
 BYTE   W08
 BYTE   N11  Gn3  v048
 BYTE   W02
 BYTE   VOL   41*song2C_mvl/mxv
 BYTE   W08
 BYTE   VOL   40*song2C_mvl/mxv
 BYTE   W02
 BYTE   N11  En4  v080
 BYTE   W07
 BYTE   VOL   39*song2C_mvl/mxv
 BYTE   W05
 BYTE   N11  Fs3  v092
 BYTE   W02
 BYTE   VOL   38*song2C_mvl/mxv
 BYTE   W08
 BYTE   VOL   38*song2C_mvl/mxv
 BYTE   W02
//  #02 //011   ----------------------------------------
 BYTE   N12  Gn3  v064
 BYTE   W05
 BYTE   VOL   37*song2C_mvl/mxv
 BYTE   W06
 BYTE   VOL   36*song2C_mvl/mxv
 BYTE   W01
 BYTE   N11  Dn4  v112
 BYTE   W06
 BYTE   VOL   35*song2C_mvl/mxv
 BYTE   W06
 BYTE   PEND 
//  #02 //012   ----------------------------------------
 BYTE   PATT
  POIN2 Label_010DB2DD
//  #02 //013   ----------------------------------------
 BYTE   PATT
  POIN2 Label_010DB2DD
//  #02 //014   ----------------------------------------
 BYTE   PATT
  POIN2 Label_010DB2DD
//  #02 //015   ----------------------------------------
 BYTE   PATT
  POIN2 Label_010DB2DD
//  #02 //016   ----------------------------------------
 BYTE   PATT
  POIN2 Label_010DB2DD
//  #02 //017   ----------------------------------------
 BYTE   PATT
  POIN2 Label_010DB2DD
//  #02 //018   ----------------------------------------
 BYTE   PATT
  POIN2 Label_010DB2DD
//  #02 //019   ----------------------------------------
 BYTE   PATT
  POIN2 Label_010DB2DD
//  #02 //020   ----------------------------------------
 BYTE   PATT
  POIN2 Label_010DB2DD
//  #02 //021   ----------------------------------------
 BYTE   PATT
  POIN2 Label_010DB2DD
//  #02 //022   ----------------------------------------
 BYTE   PATT
  POIN2 Label_010DB2DD
//  #02 //023   ----------------------------------------
 BYTE   PATT
  POIN2 Label_010DB2DD
//  #02 //024   ----------------------------------------
 BYTE   PATT
  POIN2 Label_010DB2DD
//  #02 //025   ----------------------------------------
 BYTE   PATT
  POIN2 Label_010DB2DD
//  #02 //026   ----------------------------------------
 BYTE   PATT
  POIN2 Label_010DB2DD
//  #02 //027   ----------------------------------------
 BYTE   PATT
  POIN2 Label_010DB2DD
//  #02 //028   ----------------------------------------
 BYTE   PATT
  POIN2 Label_010DB2DD
//  #02 //029   ----------------------------------------
 BYTE   PATT
  POIN2 Label_010DB2DD
//  #02 //030   ----------------------------------------
 BYTE   N11  En3  v092
 BYTE   W12
 BYTE   Gn3  v048
 BYTE   W12
 BYTE   En4  v080
 BYTE   W12
 BYTE   Fs3  v092
 BYTE   W12
 BYTE   N12  Gn3  v064
 BYTE   W10
 BYTE   VOL   34*song2C_mvl/mxv
 BYTE   W02
 BYTE   N11  Dn4  v112
 BYTE   W11
 BYTE   VOL   34*song2C_mvl/mxv
 BYTE   W01
 BYTE   N11  En3  v092
 BYTE   W12
 BYTE   VOL   33*song2C_mvl/mxv
 BYTE   N11  Gn3  v048
 BYTE   W12
//  #02 //031   ----------------------------------------
 BYTE   VOL   32*song2C_mvl/mxv
 BYTE   N11  En4  v080
 BYTE   W12
 BYTE   Fs3  v092
 BYTE   W01
 BYTE   VOL   32*song2C_mvl/mxv
 BYTE   W11
 BYTE   N12  Gn3  v064
 BYTE   W02
 BYTE   VOL   31*song2C_mvl/mxv
 BYTE   W10
 BYTE   N11  Dn4  v112
 BYTE   W03
 BYTE   VOL   31*song2C_mvl/mxv
 BYTE   W09
 BYTE   N11  En3  v092
 BYTE   W04
 BYTE   VOL   30*song2C_mvl/mxv
 BYTE   W08
 BYTE   N11  Gn3  v048
 BYTE   W05
 BYTE   VOL   29*song2C_mvl/mxv
 BYTE   W07
 BYTE   N11  En4  v080
 BYTE   W05
 BYTE   VOL   28*song2C_mvl/mxv
 BYTE   W07
 BYTE   N11  Fs3  v092
 BYTE   W06
 BYTE   VOL   28*song2C_mvl/mxv
 BYTE   W06
//  #02 //032   ----------------------------------------
 BYTE   N12  Gn3  v064
 BYTE   W07
 BYTE   VOL   27*song2C_mvl/mxv
 BYTE   W05
 BYTE   N11  Dn4  v112
 BYTE   W08
 BYTE   VOL   27*song2C_mvl/mxv
 BYTE   W04
 BYTE   N11  En3  v092
 BYTE   W09
 BYTE   VOL   26*song2C_mvl/mxv
 BYTE   W03
 BYTE   N11  Gn3  v048
 BYTE   W10
 BYTE   VOL   26*song2C_mvl/mxv
 BYTE   W02
 BYTE   N11  En4  v080
 BYTE   W10
 BYTE   VOL   26*song2C_mvl/mxv
 BYTE   W02
 BYTE   N11  Fs3  v092
 BYTE   W11
 BYTE   VOL   25*song2C_mvl/mxv
 BYTE   W01
 BYTE   N12  Gn3  v064
 BYTE   W12
 BYTE   VOL   24*song2C_mvl/mxv
 BYTE   N11  Dn4  v112
 BYTE   W12
//  #02 //033   ----------------------------------------
 BYTE   En3  v092
 BYTE   W01
 BYTE   VOL   24*song2C_mvl/mxv
 BYTE   W11
 BYTE   N11  Gn3  v048
 BYTE   W02
 BYTE   VOL   23*song2C_mvl/mxv
 BYTE   W10
 BYTE   N11  En4  v080
 BYTE   W03
 BYTE   VOL   23*song2C_mvl/mxv
 BYTE   W09
 BYTE   N11  Fs3  v092
 BYTE   W03
 BYTE   VOL   23*song2C_mvl/mxv
 BYTE   W09
 BYTE   N12  Gn3  v064
 BYTE   W04
 BYTE   VOL   23*song2C_mvl/mxv
 BYTE   W08
 BYTE   N11  Dn4  v112
 BYTE   W05
 BYTE   VOL   22*song2C_mvl/mxv
 BYTE   W07
//  #02 //034   ----------------------------------------
 BYTE   PATT
  POIN2 Label_010DB2DD
//  #02 //035   ----------------------------------------
 BYTE   W72
 BYTE   W72
//  #02 //036   ----------------------------------------
 BYTE   W72
 BYTE   W72
//  #02 //037   ----------------------------------------
 BYTE   W72
 BYTE   W72
//  #02 //038   ----------------------------------------
 BYTE   W72
 BYTE   W72
//  #02 //039   ----------------------------------------
 BYTE   W72
 BYTE   W72
//  #02 //040   ----------------------------------------
 BYTE   W72
 BYTE   W72
//  #02 //041   ----------------------------------------
 BYTE   W72
 BYTE   W72
//  #02 //042   ----------------------------------------
 BYTE   W72
 BYTE   W72
//  #02 //043   ----------------------------------------
 BYTE   W72
 BYTE   VOL   21*song2C_mvl/mxv
 BYTE   N11  En3  v092
 BYTE   W12
 BYTE   Gn3  v048
 BYTE   W11
 BYTE   VOL   22*song2C_mvl/mxv
 BYTE   W01
//  #02 //044   ----------------------------------------
 BYTE   N11  En4  v080
 BYTE   W09
 BYTE   VOL   22*song2C_mvl/mxv
 BYTE   W03
 BYTE   N11  Fs3  v092
 BYTE   W04
 BYTE   VOL   23*song2C_mvl/mxv
 BYTE   W07
 BYTE   VOL   23*song2C_mvl/mxv
 BYTE   W01
 BYTE   N12  Gn3  v064
 BYTE   W04
 BYTE   VOL   23*song2C_mvl/mxv
 BYTE   W05
 BYTE   VOL   23*song2C_mvl/mxv
 BYTE   W03
 BYTE   N11  Dn4  v112
 BYTE   W02
 BYTE   VOL   24*song2C_mvl/mxv
 BYTE   W04
 BYTE   VOL   24*song2C_mvl/mxv
 BYTE   W04
 BYTE   VOL   25*song2C_mvl/mxv
 BYTE   W02
 BYTE   N11  En3  v092
 BYTE   W02
 BYTE   VOL   26*song2C_mvl/mxv
 BYTE   W03
 BYTE   VOL   26*song2C_mvl/mxv
 BYTE   W04
 BYTE   VOL   26*song2C_mvl/mxv
 BYTE   W03
 BYTE   VOL   27*song2C_mvl/mxv
 BYTE   N11  Gn3  v048
 BYTE   W03
 BYTE   VOL   27*song2C_mvl/mxv
 BYTE   W03
 BYTE   VOL   28*song2C_mvl/mxv
 BYTE   W03
 BYTE   VOL   28*song2C_mvl/mxv
 BYTE   W03
 BYTE   VOL   29*song2C_mvl/mxv
 BYTE   N11  En4  v080
 BYTE   W03
 BYTE   VOL   30*song2C_mvl/mxv
 BYTE   W03
 BYTE   VOL   31*song2C_mvl/mxv
 BYTE   W02
 BYTE   VOL   31*song2C_mvl/mxv
 BYTE   W03
 BYTE   VOL   32*song2C_mvl/mxv
 BYTE   W01
 BYTE   N11  Fs3  v092
 BYTE   W02
 BYTE   VOL   32*song2C_mvl/mxv
 BYTE   W02
 BYTE   VOL   33*song2C_mvl/mxv
 BYTE   W02
 BYTE   VOL   34*song2C_mvl/mxv
 BYTE   W03
 BYTE   VOL   34*song2C_mvl/mxv
 BYTE   W02
 BYTE   VOL   35*song2C_mvl/mxv
 BYTE   W01
//  #02 //045   ----------------------------------------
 BYTE   N12  Gn3  v064
 BYTE   W01
 BYTE   VOL   36*song2C_mvl/mxv
 BYTE   W03
 BYTE   VOL   37*song2C_mvl/mxv
 BYTE   W02
 BYTE   VOL   38*song2C_mvl/mxv
 BYTE   W02
 BYTE   VOL   38*song2C_mvl/mxv
 BYTE   W02
 BYTE   VOL   39*song2C_mvl/mxv
 BYTE   W02
 BYTE   VOL   40*song2C_mvl/mxv
 BYTE   N11  Dn4  v112
 BYTE   W02
 BYTE   VOL   41*song2C_mvl/mxv
 BYTE   W02
 BYTE   VOL   42*song2C_mvl/mxv
 BYTE   W02
 BYTE   VOL   42*song2C_mvl/mxv
 BYTE   W02
 BYTE   VOL   43*song2C_mvl/mxv
 BYTE   W02
 BYTE   VOL   44*song2C_mvl/mxv
 BYTE   W02
 BYTE   VOL   45*song2C_mvl/mxv
 BYTE   N11  En3  v092
 BYTE   W12
 BYTE   Gn3  v048
 BYTE   W12
 BYTE   En4  v080
 BYTE   W12
 BYTE   Fs3  v092
 BYTE   W12
 BYTE   N12  Gn3  v064
 BYTE   W12
 BYTE   N11  Dn4  v112
 BYTE   W12
//  #02 //046   ----------------------------------------
 BYTE   PATT
  POIN2 Label_010DB2DD
//  #02 //047   ----------------------------------------
 BYTE   GoTo
  POIN2 Label_010DB2F3
//  #02 //048   ----------------------------------------
Label_010DB64C:
 BYTE   N11  En3  v092
 BYTE   W12
 BYTE   Gn3  v048
 BYTE   W12
 BYTE   En4  v080
 BYTE   W12
 BYTE   Fs3  v092
 BYTE   W12
 BYTE   N12  Gn3  v064
 BYTE   W12
 BYTE   N11  Dn4  v112
 BYTE   W11
 BYTE   En3  v092
 BYTE   W01
 BYTE   PEND 
Label_010DB665:
 BYTE   W11
 BYTE   N11  Gn3  v048
 BYTE   W12
 BYTE   En4  v080
 BYTE   W12
//  #02 //049   ----------------------------------------
 BYTE   Fs3  v092
 BYTE   W12
 BYTE   N12  Gn3  v064
 BYTE   W12
 BYTE   N11  Dn4  v112
 BYTE   W13
 BYTE   PEND 
Label_010DB679:
 BYTE   N11  En3  v092
 BYTE   W12
 BYTE   Gn3  v048
 BYTE   W12
 BYTE   En4  v080
 BYTE   W12
 BYTE   Fs3  v092
 BYTE   W12
 BYTE   N12  Gn3  v064
 BYTE   W12
//  #02 //050   ----------------------------------------
 BYTE   N11  Dn4  v112
 BYTE   W01
 BYTE   VOL   39*song2C_mvl/mxv
 BYTE   W11
 BYTE   PEND 
Label_010DB692:
 BYTE   N11  En3  v092
 BYTE   W09
 BYTE   VOL   38*song2C_mvl/mxv
 BYTE   W03
 BYTE   N11  Gn3  v048
 BYTE   W05
 BYTE   VOL   38*song2C_mvl/mxv
 BYTE   W06
 BYTE   VOL   37*song2C_mvl/mxv
 BYTE   W01
 BYTE   N11  En4  v080
 BYTE   W04
 BYTE   VOL   36*song2C_mvl/mxv
 BYTE   W05
 BYTE   VOL   35*song2C_mvl/mxv
 BYTE   W03
 BYTE   N11  Fs3  v092
 BYTE   W01
 BYTE   VOL   34*song2C_mvl/mxv
 BYTE   W04
 BYTE   VOL   34*song2C_mvl/mxv
 BYTE   W03
 BYTE   VOL   33*song2C_mvl/mxv
 BYTE   W03
 BYTE   VOL   32*song2C_mvl/mxv
 BYTE   W01
 BYTE   N12  Gn3  v064
 BYTE   W02
 BYTE   VOL   32*song2C_mvl/mxv
 BYTE   W03
 BYTE   VOL   31*song2C_mvl/mxv
 BYTE   W03
 BYTE   VOL   31*song2C_mvl/mxv
 BYTE   W03
 BYTE   VOL   30*song2C_mvl/mxv
 BYTE   W01
 BYTE   N11  Dn4  v112
 BYTE   W02
 BYTE   VOL   29*song2C_mvl/mxv
 BYTE   W02
 BYTE   VOL   28*song2C_mvl/mxv
 BYTE   W03
 BYTE   VOL   28*song2C_mvl/mxv
 BYTE   W02
 BYTE   VOL   27*song2C_mvl/mxv
 BYTE   W02
 BYTE   VOL   27*song2C_mvl/mxv
 BYTE   W01
 BYTE   PEND 
//  #02 //051   ----------------------------------------
 BYTE   PATT
  POIN2 Label_010DB373
//  #02 //052   ----------------------------------------
 BYTE   PATT
  POIN2 Label_010DB3AE
//  #02 //053   ----------------------------------------
 BYTE   PATT
  POIN2 Label_010DB3F1
//  #02 //054   ----------------------------------------
 BYTE   PATT
  POIN2 Label_010DB40B
//  #02 //055   ----------------------------------------
 BYTE   PATT
  POIN2 Label_010DB432
//  #02 //056   ----------------------------------------
 BYTE   PATT
  POIN2 Label_010DB2DD
//  #02 //057   ----------------------------------------
 BYTE   PATT
  POIN2 Label_010DB2DD
//  #02 //058   ----------------------------------------
 BYTE   PATT
  POIN2 Label_010DB2DD
//  #02 //059   ----------------------------------------
 BYTE   PATT
  POIN2 Label_010DB64C
//  #02 //060   ----------------------------------------
Label_010DB70E:
 BYTE   W11
 BYTE   N11  Gn3  v048
 BYTE   W12
 BYTE   En4  v080
 BYTE   W12
 BYTE   Fs3  v092
 BYTE   W12
 BYTE   N12  Gn3  v064
 BYTE   W12
 BYTE   N11  Dn4  v112
 BYTE   W12
 BYTE   En3  v092
 BYTE   W01
 BYTE   PEND 
//  #02 //061   ----------------------------------------
 BYTE   PATT
  POIN2 Label_010DB70E
//  #02 //062   ----------------------------------------
 BYTE   PATT
  POIN2 Label_010DB665
//  #02 //063   ----------------------------------------
 BYTE   PATT
  POIN2 Label_010DB2DD
//  #02 //064   ----------------------------------------
 BYTE   PATT
  POIN2 Label_010DB64C
//  #02 //065   ----------------------------------------
 BYTE   PATT
  POIN2 Label_010DB70E
//  #02 //066   ----------------------------------------
 BYTE   PATT
  POIN2 Label_010DB70E
//  #02 //067   ----------------------------------------
 BYTE   PATT
  POIN2 Label_010DB665
//  #02 //068   ----------------------------------------
 BYTE   PATT
  POIN2 Label_010DB2DD
//  #02 //069   ----------------------------------------
 BYTE   PATT
  POIN2 Label_010DB64C
//  #02 //070   ----------------------------------------
 BYTE   PATT
  POIN2 Label_010DB70E
//  #02 //071   ----------------------------------------
 BYTE   PATT
  POIN2 Label_010DB70E
//  #02 //072   ----------------------------------------
 BYTE   PATT
  POIN2 Label_010DB665
//  #02 //073   ----------------------------------------
 BYTE   PATT
  POIN2 Label_010DB2DD
//  #02 //074   ----------------------------------------
 BYTE   N11  En3  v092
 BYTE   W12
 BYTE   Gn3  v048
 BYTE   W12
 BYTE   En4  v080
 BYTE   W12
 BYTE   Fs3  v092
 BYTE   W12
 BYTE   N12  Gn3  v064
 BYTE   W09
 BYTE   VOL   35*song2C_mvl/mxv
 BYTE   W01
 BYTE   VOL   34*song2C_mvl/mxv
 BYTE   W02
 BYTE   N11  Dn4  v112
 BYTE   W10
 BYTE   VOL   34*song2C_mvl/mxv
 BYTE   W01
 BYTE   N11  En3  v092
 BYTE   W01
 BYTE   W11
 BYTE   VOL   33*song2C_mvl/mxv
 BYTE   N11  Gn3  v048
 BYTE   W12
 BYTE   En4  v080
 BYTE   W01
//  #02 //075   ----------------------------------------
 BYTE   VOL   32*song2C_mvl/mxv
 BYTE   W11
 BYTE   N11  Fs3  v092
 BYTE   W02
 BYTE   VOL   32*song2C_mvl/mxv
 BYTE   W10
 BYTE   N12  Gn3  v064
 BYTE   W03
 BYTE   VOL   31*song2C_mvl/mxv
 BYTE   W09
 BYTE   N11  Dn4  v112
 BYTE   W03
 BYTE   VOL   31*song2C_mvl/mxv
 BYTE   W09
 BYTE   N11  En3  v092
 BYTE   W01
 BYTE   W03
 BYTE   VOL   30*song2C_mvl/mxv
 BYTE   W08
 BYTE   N11  Gn3  v048
 BYTE   W05
 BYTE   VOL   29*song2C_mvl/mxv
 BYTE   W07
 BYTE   N11  En4  v080
 BYTE   W06
 BYTE   VOL   28*song2C_mvl/mxv
 BYTE   W06
 BYTE   N11  Fs3  v092
 BYTE   W07
 BYTE   VOL   28*song2C_mvl/mxv
 BYTE   W05
 BYTE   N12  Gn3  v064
 BYTE   W08
//  #02 //076   ----------------------------------------
 BYTE   VOL   27*song2C_mvl/mxv
 BYTE   W04
 BYTE   N11  Dn4  v112
 BYTE   W08
 BYTE   VOL   27*song2C_mvl/mxv
 BYTE   W04
 BYTE   N11  En3  v092
 BYTE   W01
 BYTE   W08
 BYTE   VOL   26*song2C_mvl/mxv
 BYTE   W03
 BYTE   N11  Gn3  v048
 BYTE   W10
 BYTE   VOL   26*song2C_mvl/mxv
 BYTE   W02
 BYTE   N11  En4  v080
 BYTE   W11
 BYTE   VOL   26*song2C_mvl/mxv
 BYTE   W01
 BYTE   N11  Fs3  v092
 BYTE   W12
 BYTE   VOL   25*song2C_mvl/mxv
 BYTE   N12  Gn3  v064
 BYTE   W12
 BYTE   N11  Dn4  v112
 BYTE   W01
 BYTE   VOL   24*song2C_mvl/mxv
 BYTE   W12
 BYTE   VOL   24*song2C_mvl/mxv
 BYTE   N11  En3  v092
 BYTE   W12
//  #02 //077   ----------------------------------------
 BYTE   Gn3  v048
 BYTE   W01
 BYTE   VOL   23*song2C_mvl/mxv
 BYTE   W11
 BYTE   N11  En4  v080
 BYTE   W02
 BYTE   VOL   23*song2C_mvl/mxv
 BYTE   W10
 BYTE   N11  Fs3  v092
 BYTE   W03
 BYTE   VOL   23*song2C_mvl/mxv
 BYTE   W09
 BYTE   N12  Gn3  v064
 BYTE   W04
 BYTE   VOL   23*song2C_mvl/mxv
 BYTE   W08
 BYTE   N11  Dn4  v112
 BYTE   W04
 BYTE   VOL   22*song2C_mvl/mxv
 BYTE   W08
//  #02 //078   ----------------------------------------
 BYTE   PATT
  POIN2 Label_010DB2DD
//  #02 //079   ----------------------------------------
 BYTE   W72
 BYTE   W72
//  #02 //080   ----------------------------------------
 BYTE   W72
 BYTE   W72
//  #02 //081   ----------------------------------------
 BYTE   W72
 BYTE   W72
//  #02 //082   ----------------------------------------
 BYTE   W72
 BYTE   W72
//  #02 //083   ----------------------------------------
 BYTE   W72
 BYTE   W72
//  #02 //084   ----------------------------------------
 BYTE   W72
 BYTE   W72
//  #02 //085   ----------------------------------------
 BYTE   W72
 BYTE   W72
//  #02 //086   ----------------------------------------
 BYTE   W72
 BYTE   W72
//  #02 //087   ----------------------------------------
 BYTE   W68
 BYTE   W03
 BYTE   VOL   21*song2C_mvl/mxv
 BYTE   W01
 BYTE   VOL   21*song2C_mvl/mxv
 BYTE   N11  En3  v092
 BYTE   W12
 BYTE   Gn3  v048
 BYTE   W11
 BYTE   VOL   22*song2C_mvl/mxv
 BYTE   W01
//  #02 //088   ----------------------------------------
 BYTE   N11  En4  v080
 BYTE   W09
 BYTE   VOL   22*song2C_mvl/mxv
 BYTE   W03
 BYTE   N11  Fs3  v092
 BYTE   W04
 BYTE   VOL   23*song2C_mvl/mxv
 BYTE   W07
 BYTE   VOL   23*song2C_mvl/mxv
 BYTE   W01
 BYTE   N12  Gn3  v064
 BYTE   W04
 BYTE   VOL   23*song2C_mvl/mxv
 BYTE   W05
 BYTE   VOL   23*song2C_mvl/mxv
 BYTE   W03
 BYTE   N11  Dn4  v112
 BYTE   W02
 BYTE   VOL   24*song2C_mvl/mxv
 BYTE   W04
 BYTE   VOL   24*song2C_mvl/mxv
 BYTE   W04
 BYTE   VOL   25*song2C_mvl/mxv
 BYTE   W01
 BYTE   N11  En3  v092
 BYTE   W01
 BYTE   W02
 BYTE   VOL   26*song2C_mvl/mxv
 BYTE   W03
 BYTE   VOL   26*song2C_mvl/mxv
 BYTE   W04
 BYTE   VOL   26*song2C_mvl/mxv
 BYTE   W02
 BYTE   N11  Gn3  v048
 BYTE   W01
 BYTE   VOL   27*song2C_mvl/mxv
 BYTE   W03
 BYTE   VOL   27*song2C_mvl/mxv
 BYTE   W03
 BYTE   VOL   28*song2C_mvl/mxv
 BYTE   W03
 BYTE   VOL   28*song2C_mvl/mxv
 BYTE   W02
 BYTE   N11  En4  v080
 BYTE   W01
 BYTE   VOL   29*song2C_mvl/mxv
 BYTE   W03
 BYTE   VOL   30*song2C_mvl/mxv
 BYTE   W03
 BYTE   VOL   31*song2C_mvl/mxv
 BYTE   W02
 BYTE   VOL   31*song2C_mvl/mxv
 BYTE   W03
 BYTE   VOL   32*song2C_mvl/mxv
 BYTE   N11  Fs3  v092
 BYTE   W03
 BYTE   VOL   32*song2C_mvl/mxv
 BYTE   W02
 BYTE   VOL   33*song2C_mvl/mxv
 BYTE   W02
 BYTE   VOL   34*song2C_mvl/mxv
 BYTE   W03
 BYTE   VOL   34*song2C_mvl/mxv
 BYTE   W02
 BYTE   VOL   35*song2C_mvl/mxv
 BYTE   N12  Gn3  v064
 BYTE   W02
//  #02 //089   ----------------------------------------
 BYTE   VOL   36*song2C_mvl/mxv
 BYTE   W03
 BYTE   VOL   37*song2C_mvl/mxv
 BYTE   W02
 BYTE   VOL   38*song2C_mvl/mxv
 BYTE   W02
 BYTE   VOL   38*song2C_mvl/mxv
 BYTE   W02
 BYTE   VOL   39*song2C_mvl/mxv
 BYTE   W01
 BYTE   N11  Dn4  v112
 BYTE   W01
 BYTE   VOL   40*song2C_mvl/mxv
 BYTE   W02
 BYTE   VOL   41*song2C_mvl/mxv
 BYTE   W02
 BYTE   VOL   42*song2C_mvl/mxv
 BYTE   W02
 BYTE   VOL   42*song2C_mvl/mxv
 BYTE   W02
 BYTE   VOL   43*song2C_mvl/mxv
 BYTE   W02
 BYTE   VOL   44*song2C_mvl/mxv
 BYTE   W01
 BYTE   N11  En3  v092
 BYTE   W01
 BYTE   VOL   45*song2C_mvl/mxv
 BYTE   W11
 BYTE   N11  Gn3  v048
 BYTE   W12
 BYTE   En4  v080
 BYTE   W12
 BYTE   Fs3  v092
 BYTE   W12
 BYTE   N12  Gn3  v064
 BYTE   W12
 BYTE   N11  Dn4  v112
 BYTE   W12
 BYTE   En3  v092
 BYTE   W01
//  #02 //090   ----------------------------------------
 BYTE   PATT
  POIN2 Label_010DB665
//  #02 //091   ----------------------------------------
 BYTE   PATT
  POIN2 Label_010DB64C
//  #02 //092   ----------------------------------------
 BYTE   PATT
  POIN2 Label_010DB665
//  #02 //093   ----------------------------------------
 BYTE   PATT
  POIN2 Label_010DB679
//  #02 //094   ----------------------------------------
 BYTE   PATT
  POIN2 Label_010DB692
//  #02 //095   ----------------------------------------
 BYTE   PATT
  POIN2 Label_010DB373
//  #02 //096   ----------------------------------------
 BYTE   PATT
  POIN2 Label_010DB3AE
//  #02 //097   ----------------------------------------
 BYTE   VOL   46*song2C_mvl/mxv
 BYTE   N11  En3  v092
 BYTE   W12
 BYTE   Gn3  v048
 BYTE   W12
 BYTE   En4  v080
 BYTE   W12
 BYTE   Fs3  v092
 BYTE   W12
 BYTE   N12  Gn3  v064
 BYTE   W12
 BYTE   N11  Dn4  v112
 BYTE   W12
 BYTE   En3  v092
 BYTE   W09
 BYTE   VOL   45*song2C_mvl/mxv
 BYTE   W03
 BYTE   N11  Gn3  v048
 BYTE   W12
//  #02 //098   ----------------------------------------
 BYTE   En4  v080
 BYTE   W12
 BYTE   Fs3  v092
 BYTE   W06
 BYTE   VOL   45*song2C_mvl/mxv
 BYTE   W06
 BYTE   N12  Gn3  v064
 BYTE   W12
 BYTE   N11  Dn4  v112
 BYTE   W08
 BYTE   VOL   44*song2C_mvl/mxv
 BYTE   W04
 BYTE   N11  En3  v092
 BYTE   W12
 BYTE   Gn3  v048
 BYTE   W05
 BYTE   VOL   43*song2C_mvl/mxv
 BYTE   W07
 BYTE   N11  En4  v080
 BYTE   W12
 BYTE   VOL   42*song2C_mvl/mxv
 BYTE   N11  Fs3  v092
 BYTE   W12
//  #02 //099   ----------------------------------------
 BYTE   N12  Gn3  v064
 BYTE   W06
 BYTE   VOL   42*song2C_mvl/mxv
 BYTE   W06
 BYTE   N11  Dn4  v112
 BYTE   W09
 BYTE   VOL   41*song2C_mvl/mxv
 BYTE   W03
 BYTE   N11  En3  v092
 BYTE   W12
 BYTE   VOL   40*song2C_mvl/mxv
 BYTE   N11  Gn3  v048
 BYTE   W12
 BYTE   En4  v080
 BYTE   W02
 BYTE   VOL   39*song2C_mvl/mxv
 BYTE   W10
 BYTE   N11  Fs3  v092
 BYTE   W03
 BYTE   VOL   38*song2C_mvl/mxv
 BYTE   W09
 BYTE   N12  Gn3  v064
 BYTE   W04
 BYTE   VOL   38*song2C_mvl/mxv
 BYTE   W08
 BYTE   N11  Dn4  v112
 BYTE   W03
 BYTE   VOL   37*song2C_mvl/mxv
 BYTE   W09
//  #02 //100   ----------------------------------------
 BYTE   N11  En3  v092
 BYTE   W03
 BYTE   VOL   36*song2C_mvl/mxv
 BYTE   W09
 BYTE   N11  Gn3  v048
 BYTE   W02
 BYTE   VOL   35*song2C_mvl/mxv
 BYTE   W10
 BYTE   VOL   34*song2C_mvl/mxv
 BYTE   N11  En4  v080
 BYTE   W11
 BYTE   VOL   34*song2C_mvl/mxv
 BYTE   W01
 BYTE   N11  Fs3  v092
 BYTE   W09
 BYTE   VOL   33*song2C_mvl/mxv
 BYTE   W03
 BYTE   N12  Gn3  v064
 BYTE   W06
 BYTE   VOL   32*song2C_mvl/mxv
 BYTE   W06
 BYTE   N11  Dn4  v112
 BYTE   W04
 BYTE   VOL   32*song2C_mvl/mxv
 BYTE   W08
 BYTE   N11  En3  v092
 BYTE   W01
 BYTE   VOL   31*song2C_mvl/mxv
 BYTE   W09
 BYTE   VOL   31*song2C_mvl/mxv
 BYTE   W02
 BYTE   N11  Gn3  v048
 BYTE   W06
 BYTE   VOL   30*song2C_mvl/mxv
 BYTE   W06
//  #02 //101   ----------------------------------------
 BYTE   N11  En4  v080
 BYTE   W03
 BYTE   VOL   29*song2C_mvl/mxv
 BYTE   W08
 BYTE   VOL   28*song2C_mvl/mxv
 BYTE   W01
 BYTE   N11  Fs3  v092
 BYTE   W07
 BYTE   VOL   28*song2C_mvl/mxv
 BYTE   W05
 BYTE   N12  Gn3  v064
 BYTE   W03
 BYTE   VOL   27*song2C_mvl/mxv
 BYTE   W08
 BYTE   VOL   27*song2C_mvl/mxv
 BYTE   W01
 BYTE   N11  Dn4  v112
 BYTE   W07
 BYTE   VOL   26*song2C_mvl/mxv
 BYTE   W05
 BYTE   N11  En3  v092
 BYTE   W02
 BYTE   VOL   26*song2C_mvl/mxv
 BYTE   W08
 BYTE   VOL   26*song2C_mvl/mxv
 BYTE   W02
 BYTE   N11  Gn3  v048
 BYTE   W05
 BYTE   VOL   25*song2C_mvl/mxv
 BYTE   W07
 BYTE   VOL   24*song2C_mvl/mxv
 BYTE   N11  En4  v080
 BYTE   W07
 BYTE   VOL   24*song2C_mvl/mxv
 BYTE   W05
 BYTE   N11  Fs3  v092
 BYTE   W02
 BYTE   VOL   23*song2C_mvl/mxv
 BYTE   W07
 BYTE   VOL   23*song2C_mvl/mxv
 BYTE   W03
//  #02 //102   ----------------------------------------
 BYTE   N12  Gn3  v064
 BYTE   W04
 BYTE   VOL   23*song2C_mvl/mxv
 BYTE   W07
 BYTE   VOL   23*song2C_mvl/mxv
 BYTE   W01
 BYTE   N11  Dn4  v112
 BYTE   W05
 BYTE   VOL   22*song2C_mvl/mxv
 BYTE   W07
 BYTE   VOL   22*song2C_mvl/mxv
 BYTE   FINE

//**************** Track 3 (Midi-Chn.2) ****************//

song2C_003:
//  #03 //000   ----------------------------------------
 BYTE   KEYSH   song2C_key+0
 BYTE   MODT 0
 BYTE   LFOS 44
 BYTE   W72
 BYTE   W72
//  #03 //001   ----------------------------------------
 BYTE   W72
 BYTE   W72
//  #03 //002   ----------------------------------------
 BYTE   W72
Label_010DBA3B:
 BYTE   VOICE   1
 BYTE   VOL   100*song2C_mvl/mxv
 BYTE   VOL   77*song2C_mvl/mxv
 BYTE   N11  En5  v092
 BYTE   W12
 BYTE   N06  Fs4  v056
 BYTE   W06
 BYTE   N05  Gn4  v076
 BYTE   W06
//  #03 //003   ----------------------------------------
 BYTE   N12  An4  v092
 BYTE   W12
 BYTE   N11  Dn5
 BYTE   W12
 BYTE   Gn4  v048
 BYTE   W12
 BYTE   An4  v068
 BYTE   W12
Label_010DBA5A:
 BYTE   N11  En5  v092
 BYTE   W12
 BYTE   N06  Fs4  v048
 BYTE   W06
 BYTE   N05  Gn4  v076
 BYTE   W06
 BYTE   N12  An4  v104
 BYTE   W12
 BYTE   N28  Dn5  v108
 BYTE   W36
 BYTE   PEND 
//  #03 //004   ----------------------------------------
 BYTE   N11  En5  v092
 BYTE   W12
 BYTE   N06  Fs4  v056
 BYTE   W06
 BYTE   N05  Gn4  v076
 BYTE   W06
 BYTE   N12  An4  v092
 BYTE   W12
 BYTE   N11  Dn5
 BYTE   W12
 BYTE   Gn4  v048
 BYTE   W12
 BYTE   An4  v068
 BYTE   W11
 BYTE   VOL   74*song2C_mvl/mxv
 BYTE   W01
 BYTE   VOL   72*song2C_mvl/mxv
 BYTE   N11  En5  v092
 BYTE   W12
 BYTE   N06  Fs4  v048
 BYTE   W06
 BYTE   VOL   70*song2C_mvl/mxv
 BYTE   N05  Gn4  v076
 BYTE   W06
//  #03 //005   ----------------------------------------
 BYTE   N12  An4  v104
 BYTE   W02
 BYTE   VOL   68*song2C_mvl/mxv
 BYTE   W06
 BYTE   VOL   66*song2C_mvl/mxv
 BYTE   W04
 BYTE   N28  Dn5  v108
 BYTE   W01
 BYTE   VOL   63*song2C_mvl/mxv
 BYTE   W04
 BYTE   VOL   61*song2C_mvl/mxv
 BYTE   W04
 BYTE   VOL   59*song2C_mvl/mxv
 BYTE   W04
 BYTE   VOL   57*song2C_mvl/mxv
 BYTE   W03
 BYTE   VOL   55*song2C_mvl/mxv
 BYTE   W03
 BYTE   VOL   53*song2C_mvl/mxv
 BYTE   W03
 BYTE   VOL   51*song2C_mvl/mxv
 BYTE   W03
 BYTE   VOL   50*song2C_mvl/mxv
 BYTE   W03
 BYTE   VOL   48*song2C_mvl/mxv
 BYTE   W03
 BYTE   VOL   46*song2C_mvl/mxv
 BYTE   W02
 BYTE   VOL   44*song2C_mvl/mxv
 BYTE   W02
 BYTE   VOL   42*song2C_mvl/mxv
 BYTE   W01
Label_010DBACD:
 BYTE   N11  En5  v092
 BYTE   W12
 BYTE   N06  Fs4  v056
 BYTE   W06
 BYTE   N05  Gn4  v076
 BYTE   W06
 BYTE   N12  An4  v092
 BYTE   W12
 BYTE   N11  Dn5
 BYTE   W12
//  #03 //006   ----------------------------------------
 BYTE   Gn4  v048
 BYTE   W12
 BYTE   An4  v068
 BYTE   W12
 BYTE   PEND 
 BYTE   En5  v092
 BYTE   W12
 BYTE   VOL   38*song2C_mvl/mxv
 BYTE   N06  Fs4  v048
 BYTE   W01
 BYTE   VOL   42*song2C_mvl/mxv
 BYTE   W02
 BYTE   VOL   46*song2C_mvl/mxv
 BYTE   W02
 BYTE   VOL   48*song2C_mvl/mxv
 BYTE   W01
 BYTE   N05  Gn4  v076
 BYTE   W02
 BYTE   VOL   51*song2C_mvl/mxv
 BYTE   W03
 BYTE   VOL   53*song2C_mvl/mxv
 BYTE   W01
 BYTE   N12  An4  v104
 BYTE   W02
 BYTE   VOL   55*song2C_mvl/mxv
 BYTE   W03
 BYTE   VOL   57*song2C_mvl/mxv
 BYTE   W03
 BYTE   VOL   59*song2C_mvl/mxv
 BYTE   W04
 BYTE   VOL   61*song2C_mvl/mxv
 BYTE   N28  Dn5  v108
 BYTE   W04
 BYTE   VOL   63*song2C_mvl/mxv
 BYTE   W04
 BYTE   VOL   66*song2C_mvl/mxv
 BYTE   W05
 BYTE   VOL   68*song2C_mvl/mxv
 BYTE   W05
 BYTE   VOL   70*song2C_mvl/mxv
 BYTE   W05
 BYTE   VOL   72*song2C_mvl/mxv
 BYTE   W06
 BYTE   VOL   74*song2C_mvl/mxv
 BYTE   W06
 BYTE   VOL   77*song2C_mvl/mxv
 BYTE   W01
//  #03 //007   ----------------------------------------
 BYTE   N11  En5  v092
 BYTE   W05
 BYTE   VOL   79*song2C_mvl/mxv
 BYTE   W07
 BYTE   VOL   82*song2C_mvl/mxv
 BYTE   N06  Fs4  v056
 BYTE   W06
 BYTE   N05  Gn4  v076
 BYTE   W06
 BYTE   N12  An4  v092
 BYTE   W12
 BYTE   N11  Dn5
 BYTE   W12
 BYTE   Gn4  v048
 BYTE   W12
 BYTE   An4  v068
 BYTE   W12
 BYTE   VOL   77*song2C_mvl/mxv
 BYTE   N11  En5  v092
 BYTE   W12
 BYTE   N06  Fs4  v048
 BYTE   W05
 BYTE   VOL   74*song2C_mvl/mxv
 BYTE   W01
 BYTE   N05  Gn4  v076
 BYTE   W06
//  #03 //008   ----------------------------------------
 BYTE   VOL   72*song2C_mvl/mxv
 BYTE   N12  An4  v104
 BYTE   W05
 BYTE   VOL   70*song2C_mvl/mxv
 BYTE   W04
 BYTE   VOL   68*song2C_mvl/mxv
 BYTE   W03
 BYTE   N28  Dn5  v108
 BYTE   W01
 BYTE   VOL   66*song2C_mvl/mxv
 BYTE   W04
 BYTE   VOL   63*song2C_mvl/mxv
 BYTE   W03
 BYTE   VOL   61*song2C_mvl/mxv
 BYTE   W03
 BYTE   VOL   59*song2C_mvl/mxv
 BYTE   W03
 BYTE   VOL   57*song2C_mvl/mxv
 BYTE   W02
 BYTE   VOL   55*song2C_mvl/mxv
 BYTE   W03
 BYTE   VOL   53*song2C_mvl/mxv
 BYTE   W02
 BYTE   VOL   51*song2C_mvl/mxv
 BYTE   W03
 BYTE   VOL   50*song2C_mvl/mxv
 BYTE   W02
 BYTE   VOL   48*song2C_mvl/mxv
 BYTE   W02
 BYTE   VOL   46*song2C_mvl/mxv
 BYTE   W02
 BYTE   VOL   44*song2C_mvl/mxv
 BYTE   W02
 BYTE   VOL   42*song2C_mvl/mxv
 BYTE   W02
 BYTE   VOL   40*song2C_mvl/mxv
 BYTE   W02
 BYTE   VOL   38*song2C_mvl/mxv
 BYTE   N11  En5  v092
 BYTE   W12
 BYTE   N06  Fs4  v056
 BYTE   W06
 BYTE   N05  Gn4  v076
 BYTE   W06
 BYTE   N12  An4  v092
 BYTE   W12
 BYTE   N11  Dn5
 BYTE   W12
//  #03 //009   ----------------------------------------
 BYTE   Gn4  v048
 BYTE   W12
 BYTE   An4  v068
 BYTE   W12
 BYTE   En5  v092
 BYTE   W12
 BYTE   N06  Fs4  v048
 BYTE   W06
 BYTE   N05  Gn4  v076
 BYTE   W06
 BYTE   N12  An4  v104
 BYTE   W12
 BYTE   N28  Dn5  v108
 BYTE   W32
 BYTE   W03
 BYTE   N11  En5  v092
 BYTE   W01
//  #03 //010   ----------------------------------------
Label_010DBBC7:
 BYTE   W11
 BYTE   N06  Fs4  v056
 BYTE   W06
 BYTE   N05  Gn4  v076
 BYTE   W06
 BYTE   N12  An4  v092
 BYTE   W12
 BYTE   N11  Dn5
 BYTE   W12
 BYTE   Gn4  v048
 BYTE   W12
 BYTE   An4  v068
 BYTE   W12
 BYTE   En5  v092
 BYTE   W01
 BYTE   PEND 
Label_010DBBE1:
 BYTE   W11
 BYTE   N06  Fs4  v048
 BYTE   W06
 BYTE   N05  Gn4  v076
 BYTE   W06
 BYTE   N12  An4  v104
 BYTE   W12
//  #03 //011   ----------------------------------------
 BYTE   N28  Dn5  v108
 BYTE   W36
 BYTE   N11  En5  v092
 BYTE   W01
 BYTE   PEND 
Label_010DBBF7:
 BYTE   W11
 BYTE   N06  Fs4  v056
 BYTE   W06
 BYTE   N05  Gn4  v076
 BYTE   W06
 BYTE   N12  An4  v092
 BYTE   W12
 BYTE   N11  Dn5
 BYTE   W13
 BYTE   Gn4  v048
 BYTE   W11
//  #03 //012   ----------------------------------------
 BYTE   An4  v068
 BYTE   W12
 BYTE   En5  v092
 BYTE   W01
 BYTE   PEND 
Label_010DBC11:
 BYTE   W11
 BYTE   N06  Fs4  v048
 BYTE   W06
 BYTE   N05  Gn4  v076
 BYTE   W06
 BYTE   N12  An4  v104
 BYTE   W12
 BYTE   N28  Dn5  v108
 BYTE   W36
 BYTE   W01
 BYTE   PEND 
Label_010DBC24:
 BYTE   N11  En5  v092
 BYTE   W12
//  #03 //013   ----------------------------------------
 BYTE   N06  Fs4  v056
 BYTE   W06
 BYTE   N05  Gn4  v076
 BYTE   W06
 BYTE   N12  An4  v092
 BYTE   W12
 BYTE   N11  Cs5
 BYTE   W12
 BYTE   Fs4  v048
 BYTE   W12
 BYTE   Gn4  v068
 BYTE   W12
 BYTE   PEND 
 BYTE   Fn5  v092
 BYTE   W12
 BYTE   N06  Fs4  v048
 BYTE   W06
 BYTE   N05  Gn4  v076
 BYTE   W06
 BYTE   N12  An4  v104
 BYTE   W12
//  #03 //014   ----------------------------------------
 BYTE   N28  Cs5  v108
 BYTE   W36
Label_010DBC51:
 BYTE   N11  Ds5  v092
 BYTE   W12
 BYTE   N06  Fs4  v056
 BYTE   W06
 BYTE   N05  Gn4  v076
 BYTE   W06
 BYTE   N12  An4  v092
 BYTE   W12
 BYTE   N11  Cn5
 BYTE   W12
 BYTE   Fs4  v048
 BYTE   W12
//  #03 //015   ----------------------------------------
 BYTE   Gn4  v068
 BYTE   W12
 BYTE   PEND 
 BYTE   Ds5  v092
 BYTE   W12
 BYTE   N06  Fs4  v048
 BYTE   W06
 BYTE   N05  Gn4  v076
 BYTE   W06
 BYTE   N12  An4  v104
 BYTE   W12
 BYTE   N28  Cn5  v108
 BYTE   W32
 BYTE   W03
 BYTE   N11  En5  v092
 BYTE   W01
//  #03 //016   ----------------------------------------
 BYTE   PATT
  POIN2 Label_010DBBC7
//  #03 //017   ----------------------------------------
 BYTE   PATT
  POIN2 Label_010DBBE1
//  #03 //018   ----------------------------------------
 BYTE   PATT
  POIN2 Label_010DBBF7
//  #03 //019   ----------------------------------------
 BYTE   PATT
  POIN2 Label_010DBC11
//  #03 //020   ----------------------------------------
 BYTE   PATT
  POIN2 Label_010DBACD
//  #03 //021   ----------------------------------------
 BYTE   PATT
  POIN2 Label_010DBA5A
//  #03 //022   ----------------------------------------
 BYTE   PATT
  POIN2 Label_010DBACD
//  #03 //023   ----------------------------------------
 BYTE   PATT
  POIN2 Label_010DBA5A
//  #03 //024   ----------------------------------------
 BYTE   PATT
  POIN2 Label_010DBACD
//  #03 //025   ----------------------------------------
 BYTE   N11  En5  v092
 BYTE   W12
 BYTE   N06  Fs4  v048
 BYTE   W06
 BYTE   N05  Gn4  v076
 BYTE   W06
 BYTE   N12  An4  v104
 BYTE   W12
 BYTE   N28  Dn5  v108
 BYTE   W32
 BYTE   W03
 BYTE   VOL   37*song2C_mvl/mxv
 BYTE   W01
 BYTE   N11  En5  v092
 BYTE   W10
 BYTE   VOL   35*song2C_mvl/mxv
 BYTE   W02
 BYTE   N06  Fs4  v056
 BYTE   W06
 BYTE   N05  Gn4  v076
 BYTE   W03
 BYTE   VOL   33*song2C_mvl/mxv
 BYTE   W03
//  #03 //026   ----------------------------------------
 BYTE   N12  An4  v092
 BYTE   W08
 BYTE   VOL   32*song2C_mvl/mxv
 BYTE   W04
 BYTE   N11  Dn5
 BYTE   W07
 BYTE   VOL   29*song2C_mvl/mxv
 BYTE   W05
 BYTE   N11  Gn4  v048
 BYTE   W07
 BYTE   VOL   28*song2C_mvl/mxv
 BYTE   W05
 BYTE   N11  An4  v068
 BYTE   W06
 BYTE   VOL   26*song2C_mvl/mxv
 BYTE   W06
 BYTE   N11  En5  v092
 BYTE   W05
 BYTE   VOL   25*song2C_mvl/mxv
 BYTE   W07
 BYTE   N06  Fs4  v048
 BYTE   W04
 BYTE   VOL   24*song2C_mvl/mxv
 BYTE   W02
 BYTE   N05  Gn4  v076
 BYTE   W06
 BYTE   N12  An4  v104
 BYTE   W03
 BYTE   VOL   22*song2C_mvl/mxv
 BYTE   W09
 BYTE   N28  Dn5  v108
 BYTE   W02
 BYTE   VOL   21*song2C_mvl/mxv
 BYTE   W11
//  #03 //027   ----------------------------------------
 BYTE   VOL   19*song2C_mvl/mxv
 BYTE   W11
 BYTE   VOL   18*song2C_mvl/mxv
 BYTE   W12
 BYTE   VOL   17*song2C_mvl/mxv
 BYTE   N11  En5  v092
 BYTE   W11
 BYTE   VOL   15*song2C_mvl/mxv
 BYTE   W01
 BYTE   N06  Fs4  v056
 BYTE   W06
 BYTE   N05  Gn4  v076
 BYTE   W04
 BYTE   VOL   14*song2C_mvl/mxv
 BYTE   W02
 BYTE   N12  An4  v092
 BYTE   W09
 BYTE   VOL   14*song2C_mvl/mxv
 BYTE   W03
 BYTE   N11  Dn5
 BYTE   W08
 BYTE   VOL   12*song2C_mvl/mxv
 BYTE   W04
 BYTE   N11  Gn4  v048
 BYTE   W07
 BYTE   VOL   11*song2C_mvl/mxv
 BYTE   W05
 BYTE   N11  An4  v068
 BYTE   W06
 BYTE   VOL   10*song2C_mvl/mxv
 BYTE   W06
 BYTE   N11  En5  v092
 BYTE   W05
//  #03 //028   ----------------------------------------
 BYTE   VOL   9*song2C_mvl/mxv
 BYTE   W07
 BYTE   N06  Fs4  v048
 BYTE   W05
 BYTE   VOL   8*song2C_mvl/mxv
 BYTE   W01
 BYTE   N05  Gn4  v076
 BYTE   W06
 BYTE   N12  An4  v104
 BYTE   W04
 BYTE   VOL   7*song2C_mvl/mxv
 BYTE   W08
 BYTE   N28  Dn5  v108
 BYTE   W03
 BYTE   VOL   6*song2C_mvl/mxv
 BYTE   W11
 BYTE   VOL   5*song2C_mvl/mxv
 BYTE   W11
 BYTE   VOL   4*song2C_mvl/mxv
 BYTE   W11
 BYTE   VOL   3*song2C_mvl/mxv
 BYTE   N11  En5  v092
 BYTE   W12
 BYTE   N06  Fs4  v056
 BYTE   W06
 BYTE   N05  Gn4  v076
 BYTE   W06
 BYTE   N12  An4  v092
 BYTE   W12
//  #03 //029   ----------------------------------------
 BYTE   N11  Dn5
 BYTE   W12
 BYTE   Gn4  v048
 BYTE   W12
 BYTE   An4  v068
 BYTE   W12
//  #03 //030   ----------------------------------------
 BYTE   PATT
  POIN2 Label_010DBA5A
//  #03 //031   ----------------------------------------
 BYTE   PATT
  POIN2 Label_010DBACD
//  #03 //032   ----------------------------------------
 BYTE   PATT
  POIN2 Label_010DBA5A
//  #03 //033   ----------------------------------------
 BYTE   PATT
  POIN2 Label_010DBACD
//  #03 //034   ----------------------------------------
 BYTE   PATT
  POIN2 Label_010DBA5A
//  #03 //035   ----------------------------------------
 BYTE   PATT
  POIN2 Label_010DBACD
//  #03 //036   ----------------------------------------
 BYTE   PATT
  POIN2 Label_010DBA5A
//  #03 //037   ----------------------------------------
 BYTE   W72
 BYTE   W72
//  #03 //038   ----------------------------------------
 BYTE   W72
 BYTE   W72
//  #03 //039   ----------------------------------------
 BYTE   W72
 BYTE   W72
//  #03 //040   ----------------------------------------
 BYTE   W72
 BYTE   W72
//  #03 //041   ----------------------------------------
 BYTE   W72
 BYTE   W72
//  #03 //042   ----------------------------------------
 BYTE   W72
 BYTE   W72
//  #03 //043   ----------------------------------------
 BYTE   W72
Label_010DBDBB:
 BYTE   W68
//  #03 //044   ----------------------------------------
 BYTE   W03
 BYTE   VOL   61*song2C_mvl/mxv
 BYTE   W01
 BYTE   PEND 
 BYTE   GoTo
  POIN2 Label_010DBA3B
//  #03 //045   ----------------------------------------
 BYTE   PATT
  POIN2 Label_010DBACD
//  #03 //046   ----------------------------------------
 BYTE   PATT
  POIN2 Label_010DBA5A
//  #03 //047   ----------------------------------------
 BYTE   PATT
  POIN2 Label_010DBACD
//  #03 //048   ----------------------------------------
 BYTE   PATT
  POIN2 Label_010DBA5A
//  #03 //049   ----------------------------------------
 BYTE   PATT
  POIN2 Label_010DBACD
//  #03 //050   ----------------------------------------
 BYTE   PATT
  POIN2 Label_010DBA5A
//  #03 //051   ----------------------------------------
 BYTE   PATT
  POIN2 Label_010DBACD
//  #03 //052   ----------------------------------------
 BYTE   PATT
  POIN2 Label_010DBA5A
//  #03 //053   ----------------------------------------
 BYTE   PATT
  POIN2 Label_010DBACD
//  #03 //054   ----------------------------------------
 BYTE   PATT
  POIN2 Label_010DBA5A
//  #03 //055   ----------------------------------------
 BYTE   PATT
  POIN2 Label_010DBACD
//  #03 //056   ----------------------------------------
 BYTE   PATT
  POIN2 Label_010DBA5A
//  #03 //057   ----------------------------------------
 BYTE   PATT
  POIN2 Label_010DBACD
//  #03 //058   ----------------------------------------
 BYTE   PATT
  POIN2 Label_010DBA5A
//  #03 //059   ----------------------------------------
 BYTE   PATT
  POIN2 Label_010DBC24
//  #03 //060   ----------------------------------------
 BYTE   N11  En5  v092
 BYTE   W12
 BYTE   N06  Fs4  v048
 BYTE   W06
 BYTE   N05  Gn4  v076
 BYTE   W06
 BYTE   N12  An4  v104
 BYTE   W12
 BYTE   N28  Cs5  v108
 BYTE   W36
//  #03 //061   ----------------------------------------
 BYTE   PATT
  POIN2 Label_010DBC51
//  #03 //062   ----------------------------------------
 BYTE   N11  Ds5  v092
 BYTE   W12
 BYTE   N06  Fs4  v048
 BYTE   W06
 BYTE   N05  Gn4  v076
 BYTE   W06
 BYTE   N12  An4  v104
 BYTE   W12
 BYTE   N28  Cn5  v108
 BYTE   W36
//  #03 //063   ----------------------------------------
 BYTE   PATT
  POIN2 Label_010DBACD
//  #03 //064   ----------------------------------------
 BYTE   PATT
  POIN2 Label_010DBA5A
//  #03 //065   ----------------------------------------
 BYTE   PATT
  POIN2 Label_010DBACD
//  #03 //066   ----------------------------------------
 BYTE   PATT
  POIN2 Label_010DBA5A
//  #03 //067   ----------------------------------------
 BYTE   PATT
  POIN2 Label_010DBACD
//  #03 //068   ----------------------------------------
 BYTE   PATT
  POIN2 Label_010DBA5A
//  #03 //069   ----------------------------------------
 BYTE   PATT
  POIN2 Label_010DBACD
//  #03 //070   ----------------------------------------
 BYTE   PATT
  POIN2 Label_010DBA5A
//  #03 //071   ----------------------------------------
 BYTE   PATT
  POIN2 Label_010DBACD
//  #03 //072   ----------------------------------------
 BYTE   PATT
  POIN2 Label_010DBA5A
//  #03 //073   ----------------------------------------
 BYTE   PATT
  POIN2 Label_010DBACD
//  #03 //074   ----------------------------------------
 BYTE   PATT
  POIN2 Label_010DBA5A
//  #03 //075   ----------------------------------------
 BYTE   PATT
  POIN2 Label_010DBACD
//  #03 //076   ----------------------------------------
 BYTE   VOL   61*song2C_mvl/mxv
 BYTE   N11  En5  v092
 BYTE   W12
 BYTE   N06  Fs4  v048
 BYTE   W06
 BYTE   N05  Gn4  v076
 BYTE   W06
 BYTE   N12  An4  v104
 BYTE   W02
 BYTE   VOL   59*song2C_mvl/mxv
 BYTE   W10
 BYTE   N28  Dn5  v108
 BYTE   W01
 BYTE   VOL   57*song2C_mvl/mxv
 BYTE   W08
 BYTE   VOL   55*song2C_mvl/mxv
 BYTE   W08
 BYTE   VOL   53*song2C_mvl/mxv
 BYTE   W06
 BYTE   VOL   51*song2C_mvl/mxv
 BYTE   W05
 BYTE   VOL   50*song2C_mvl/mxv
 BYTE   W05
 BYTE   VOL   48*song2C_mvl/mxv
 BYTE   W03
 BYTE   N11  En5  v092
 BYTE   W02
 BYTE   VOL   46*song2C_mvl/mxv
 BYTE   W06
 BYTE   VOL   42*song2C_mvl/mxv
 BYTE   W04
 BYTE   N06  Fs4  v056
 BYTE   W06
 BYTE   N05  Gn4  v076
 BYTE   W06
//  #03 //077   ----------------------------------------
 BYTE   N12  An4  v092
 BYTE   W04
 BYTE   VOL   40*song2C_mvl/mxv
 BYTE   W08
 BYTE   N11  Dn5
 BYTE   W01
 BYTE   VOL   38*song2C_mvl/mxv
 BYTE   W06
 BYTE   VOL   37*song2C_mvl/mxv
 BYTE   W05
 BYTE   VOL   35*song2C_mvl/mxv
 BYTE   N11  Gn4  v048
 BYTE   W05
 BYTE   VOL   33*song2C_mvl/mxv
 BYTE   W07
 BYTE   N11  An4  v068
 BYTE   W12
 BYTE   En5  v092
 BYTE   W04
 BYTE   VOL   26*song2C_mvl/mxv
 BYTE   W08
 BYTE   N06  Fs4  v048
 BYTE   W01
 BYTE   VOL   25*song2C_mvl/mxv
 BYTE   W05
 BYTE   N05  Gn4  v076
 BYTE   W02
 BYTE   VOL   24*song2C_mvl/mxv
 BYTE   W04
 BYTE   N12  An4  v104
 BYTE   W02
 BYTE   VOL   22*song2C_mvl/mxv
 BYTE   W05
 BYTE   VOL   21*song2C_mvl/mxv
 BYTE   W04
 BYTE   VOL   19*song2C_mvl/mxv
 BYTE   W01
 BYTE   N28  Dn5  v108
 BYTE   W04
 BYTE   VOL   18*song2C_mvl/mxv
 BYTE   W04
 BYTE   VOL   17*song2C_mvl/mxv
 BYTE   W03
 BYTE   VOL   15*song2C_mvl/mxv
 BYTE   W04
//  #03 //078   ----------------------------------------
 BYTE   VOL   14*song2C_mvl/mxv
 BYTE   W03
 BYTE   VOL   14*song2C_mvl/mxv
 BYTE   W03
 BYTE   VOL   12*song2C_mvl/mxv
 BYTE   W04
 BYTE   VOL   11*song2C_mvl/mxv
 BYTE   W02
 BYTE   VOL   10*song2C_mvl/mxv
 BYTE   W03
 BYTE   VOL   9*song2C_mvl/mxv
 BYTE   W03
 BYTE   VOL   8*song2C_mvl/mxv
 BYTE   W03
 BYTE   VOL   7*song2C_mvl/mxv
 BYTE   N11  En5  v092
 BYTE   W12
 BYTE   N06  Fs4  v056
 BYTE   W06
 BYTE   N05  Gn4  v076
 BYTE   W06
 BYTE   N12  An4  v092
 BYTE   W12
 BYTE   N11  Dn5
 BYTE   W12
 BYTE   Gn4  v048
 BYTE   W12
 BYTE   An4  v068
 BYTE   W12
//  #03 //079   ----------------------------------------
 BYTE   PATT
  POIN2 Label_010DBA5A
//  #03 //080   ----------------------------------------
 BYTE   PATT
  POIN2 Label_010DBACD
//  #03 //081   ----------------------------------------
 BYTE   PATT
  POIN2 Label_010DBA5A
//  #03 //082   ----------------------------------------
 BYTE   PATT
  POIN2 Label_010DBACD
//  #03 //083   ----------------------------------------
 BYTE   PATT
  POIN2 Label_010DBA5A
//  #03 //084   ----------------------------------------
 BYTE   W72
 BYTE   W72
//  #03 //085   ----------------------------------------
 BYTE   W72
 BYTE   W72
//  #03 //086   ----------------------------------------
 BYTE   W72
 BYTE   W72
//  #03 //087   ----------------------------------------
 BYTE   W72
 BYTE   W72
//  #03 //088   ----------------------------------------
 BYTE   W72
 BYTE   W72
//  #03 //089   ----------------------------------------
 BYTE   W72
 BYTE   W72
//  #03 //090   ----------------------------------------
 BYTE   W72
//  #03 //091   ----------------------------------------
 BYTE   PATT
  POIN2 Label_010DBDBB
//  #03 //092   ----------------------------------------
 BYTE   PATT
  POIN2 Label_010DBACD
//  #03 //093   ----------------------------------------
 BYTE   PATT
  POIN2 Label_010DBA5A
//  #03 //094   ----------------------------------------
 BYTE   PATT
  POIN2 Label_010DBACD
//  #03 //095   ----------------------------------------
 BYTE   PATT
  POIN2 Label_010DBA5A
//  #03 //096   ----------------------------------------
 BYTE   PATT
  POIN2 Label_010DBACD
//  #03 //097   ----------------------------------------
 BYTE   N11  En5  v092
 BYTE   W12
 BYTE   N06  Fs4  v048
 BYTE   W06
 BYTE   N05  Gn4  v076
 BYTE   W06
 BYTE   N12  An4  v104
 BYTE   W12
 BYTE   N28  Dn5  v108
 BYTE   W32
 BYTE   W03
 BYTE   VOL   59*song2C_mvl/mxv
 BYTE   W01
//  #03 //098   ----------------------------------------
 BYTE   PATT
  POIN2 Label_010DBACD
//  #03 //099   ----------------------------------------
 BYTE   N11  En5  v092
 BYTE   W09
 BYTE   VOL   57*song2C_mvl/mxv
 BYTE   W03
 BYTE   N06  Fs4  v048
 BYTE   W06
 BYTE   N05  Gn4  v076
 BYTE   W06
 BYTE   N12  An4  v104
 BYTE   W12
 BYTE   N28  Dn5  v108
 BYTE   W07
 BYTE   VOL   55*song2C_mvl/mxv
 BYTE   W24
 BYTE   W02
 BYTE   VOL   53*song2C_mvl/mxv
 BYTE   W03
 BYTE   N11  En5  v092
 BYTE   W12
 BYTE   N06  Fs4  v056
 BYTE   W06
 BYTE   N05  Gn4  v076
 BYTE   W01
 BYTE   VOL   51*song2C_mvl/mxv
 BYTE   W05
//  #03 //100   ----------------------------------------
 BYTE   N12  An4  v092
 BYTE   W12
 BYTE   N11  Dn5
 BYTE   W02
 BYTE   VOL   50*song2C_mvl/mxv
 BYTE   W10
 BYTE   N11  Gn4  v048
 BYTE   W08
 BYTE   VOL   48*song2C_mvl/mxv
 BYTE   W04
 BYTE   N11  An4  v068
 BYTE   W12
 BYTE   VOL   46*song2C_mvl/mxv
 BYTE   N11  En5  v092
 BYTE   W12
 BYTE   N06  Fs4  v048
 BYTE   W03
 BYTE   VOL   44*song2C_mvl/mxv
 BYTE   W03
 BYTE   N05  Gn4  v076
 BYTE   W06
 BYTE   N12  An4  v104
 BYTE   W05
 BYTE   VOL   42*song2C_mvl/mxv
 BYTE   W07
 BYTE   N28  Dn5  v108
 BYTE   W06
 BYTE   VOL   40*song2C_mvl/mxv
 BYTE   W13
//  #03 //101   ----------------------------------------
 BYTE   VOL   38*song2C_mvl/mxv
 BYTE   W12
 BYTE   VOL   37*song2C_mvl/mxv
 BYTE   W05
 BYTE   N11  En5  v092
 BYTE   W06
 BYTE   VOL   35*song2C_mvl/mxv
 BYTE   W06
 BYTE   N06  Fs4  v056
 BYTE   W06
 BYTE   VOL   33*song2C_mvl/mxv
 BYTE   N05  Gn4  v076
 BYTE   W06
 BYTE   N12  An4  v092
 BYTE   W04
 BYTE   VOL   32*song2C_mvl/mxv
 BYTE   W08
 BYTE   N11  Dn5
 BYTE   W03
 BYTE   VOL   29*song2C_mvl/mxv
 BYTE   W09
 BYTE   N11  Gn4  v048
 BYTE   W01
 BYTE   VOL   28*song2C_mvl/mxv
 BYTE   W10
 BYTE   VOL   26*song2C_mvl/mxv
 BYTE   W01
 BYTE   N11  An4  v068
 BYTE   W08
 BYTE   VOL   25*song2C_mvl/mxv
 BYTE   W04
 BYTE   N11  En5  v092
 BYTE   W05
 BYTE   VOL   24*song2C_mvl/mxv
 BYTE   W07
//  #03 //102   ----------------------------------------
 BYTE   N06  Fs4  v048
 BYTE   W02
 BYTE   VOL   22*song2C_mvl/mxv
 BYTE   W04
 BYTE   N05  Gn4  v076
 BYTE   W05
 BYTE   VOL   21*song2C_mvl/mxv
 BYTE   W01
 BYTE   N12  An4  v104
 BYTE   W08
 BYTE   VOL   19*song2C_mvl/mxv
 BYTE   W04
 BYTE   N28  Dn5  v108
 BYTE   W04
 BYTE   VOL   18*song2C_mvl/mxv
 BYTE   W08
 BYTE   VOL   17*song2C_mvl/mxv
 BYTE   W09
 BYTE   VOL   15*song2C_mvl/mxv
 BYTE   W08
 BYTE   VOL   14*song2C_mvl/mxv
 BYTE   W07
 BYTE   VOL   14*song2C_mvl/mxv
 BYTE   N11  En5  v092
 BYTE   W08
 BYTE   VOL   12*song2C_mvl/mxv
 BYTE   W04
 BYTE   N06  Fs4  v056
 BYTE   W03
 BYTE   VOL   11*song2C_mvl/mxv
 BYTE   W03
 BYTE   N05  Gn4  v076
 BYTE   W05
 BYTE   VOL   10*song2C_mvl/mxv
 BYTE   W01
 BYTE   N12  An4  v092
 BYTE   W06
 BYTE   VOL   9*song2C_mvl/mxv
 BYTE   W06
//  #03 //103   ----------------------------------------
 BYTE   N11  Dn5
 BYTE   W01
 BYTE   VOL   8*song2C_mvl/mxv
 BYTE   W07
 BYTE   VOL   7*song2C_mvl/mxv
 BYTE   W04
 BYTE   N11  Gn4  v048
 BYTE   W03
 BYTE   VOL   6*song2C_mvl/mxv
 BYTE   W07
 BYTE   VOL   5*song2C_mvl/mxv
 BYTE   W02
 BYTE   N11  An4  v068
 BYTE   W05
 BYTE   VOL   4*song2C_mvl/mxv
 BYTE   W07
 BYTE   VOL   3*song2C_mvl/mxv
 BYTE   FINE

//**************** Track 4 (Midi-Chn.3) ****************//

song2C_004:
//  #04 //000   ----------------------------------------
 BYTE   KEYSH   song2C_key+0
 BYTE   VOICE   47
 BYTE   MODT 0
 BYTE   LFOS 44
 BYTE   PAN   c_v+53
 BYTE   VOL   98*song2C_mvl/mxv
 BYTE   W72
 BYTE   W72
//  #04 //001   ----------------------------------------
 BYTE   W72
 BYTE   N24  CnM1  v084
 BYTE   W72
//  #04 //002   ----------------------------------------
 BYTE   W72
Label_568180:
 BYTE   N24  CnM1  v072
 BYTE   W72
//  #04 //003   ----------------------------------------
 BYTE   W72
 BYTE   N24
 BYTE   W72
//  #04 //004   ----------------------------------------
 BYTE   W60
 BYTE   W02
 BYTE   N03  CnM1  v040
 BYTE   W03
 BYTE   N01  CnM1  v056
 BYTE   W01
 BYTE   N02  CnM1  v064
 BYTE   N03  Cn0
 BYTE   W03
 BYTE   N02  CnM1  v084
 BYTE   N01  Cn0  v080
 BYTE   W02
 BYTE   Cn0  v092
 BYTE   W01
 BYTE   CnM1
 BYTE   W72
//  #04 //005   ----------------------------------------
 BYTE   W72
 BYTE   N24  CnM1  v072
 BYTE   W72
//  #04 //006   ----------------------------------------
 BYTE   W72
 BYTE   N24
 BYTE   W72
//  #04 //007   ----------------------------------------
 BYTE   W72
 BYTE   N24
 BYTE   W72
//  #04 //008   ----------------------------------------
 BYTE   W72
 BYTE   N24
 BYTE   W72
//  #04 //009   ----------------------------------------
 BYTE   W72
 BYTE   N24
 BYTE   W72
//  #04 //010   ----------------------------------------
 BYTE   N24
 BYTE   W72
 BYTE   N24
 BYTE   W72
//  #04 //011   ----------------------------------------
 BYTE   W72
 BYTE   N24
 BYTE   W72
//  #04 //012   ----------------------------------------
 BYTE   W72
 BYTE   N24
 BYTE   W72
//  #04 //013   ----------------------------------------
 BYTE   W54
 BYTE   N01  CnM1  v016
 BYTE   N01  Cn0
 BYTE   W01
 BYTE   Cn0  v020
 BYTE   W01
 BYTE   CnM1
 BYTE   N01  Cn0  v024
 BYTE   W01
 BYTE   CnM1
 BYTE   W01
 BYTE   CnM1  v032
 BYTE   N01  Cn0
 BYTE   W01
 BYTE   Cn0  v036
 BYTE   W01
 BYTE   CnM1
 BYTE   W03
 BYTE   N03  CnM1  v052
 BYTE   N03  Cn0
 BYTE   W04
 BYTE   N02  CnM1  v068
 BYTE   N02  Cn0
 BYTE   W02
 BYTE   N01  CnM1  v072
 BYTE   N01  Cn0
 BYTE   W03
 BYTE   N32  CnM1
 BYTE   N32  Cn0
 BYTE   W72
//  #04 //014   ----------------------------------------
 BYTE   W72
 BYTE   N24  CnM1
 BYTE   W72
//  #04 //015   ----------------------------------------
 BYTE   W72
 BYTE   N24
 BYTE   W72
//  #04 //016   ----------------------------------------
 BYTE   W72
 BYTE   N24
 BYTE   W72
//  #04 //017   ----------------------------------------
 BYTE   W72
 BYTE   N24
 BYTE   W72
//  #04 //018   ----------------------------------------
 BYTE   W72
 BYTE   N24
 BYTE   W72
//  #04 //019   ----------------------------------------
 BYTE   W72
 BYTE   N24
 BYTE   W72
//  #04 //020   ----------------------------------------
 BYTE   W72
 BYTE   N24
 BYTE   W72
//  #04 //021   ----------------------------------------
 BYTE   W72
 BYTE   N24
 BYTE   W72
//  #04 //022   ----------------------------------------
 BYTE   W72
 BYTE   N24
 BYTE   W72
//  #04 //023   ----------------------------------------
 BYTE   W72
 BYTE   N24
 BYTE   W72
//  #04 //024   ----------------------------------------
 BYTE   W72
 BYTE   N24
 BYTE   W72
//  #04 //025   ----------------------------------------
 BYTE   N12  CnM1  v104
 BYTE   W36
 BYTE   N02  CnM1  v036
 BYTE   W02
 BYTE   N01  CnM1  v044
 BYTE   W02
 BYTE   N02
 BYTE   W02
 BYTE   N03  CnM1  v052
 BYTE   W04
 BYTE   N02  CnM1  v056
 BYTE   W02
 BYTE   CnM1  v064
 BYTE   W02
 BYTE   N01  CnM1  v068
 BYTE   W01
 BYTE   CnM1  v072
 BYTE   W02
 BYTE   CnM1  v076
 BYTE   W01
 BYTE   CnM1  v080
 BYTE   N02  Cn0  v076
 BYTE   W01
 BYTE   N01  CnM1  v080
 BYTE   W01
 BYTE   Cn0  v084
 BYTE   W01
 BYTE   CnM1
 BYTE   N01  Cn0  v088
 BYTE   W02
 BYTE   CnM1  v092
 BYTE   N01  Cn0
 BYTE   W03
 BYTE   CnM1  v100
 BYTE   N01  Cn0  v104
 BYTE   W03
 BYTE   N02  CnM1  v112
 BYTE   N01  Cn0
 BYTE   W01
 BYTE   N02
 BYTE   W03
 BYTE   N01  CnM1  v120
 BYTE   N01  Cn0  v124
 BYTE   W01
 BYTE   CnM1  v127
 BYTE   W01
 BYTE   Cn0
 BYTE   W01
 BYTE   CnM1
 BYTE   N01  Cn0
 BYTE   W72
//  #04 //026   ----------------------------------------
 BYTE   W72
 BYTE   N24  CnM1  v072
 BYTE   W72
//  #04 //027   ----------------------------------------
 BYTE   W72
 BYTE   N24
 BYTE   W72
//  #04 //028   ----------------------------------------
 BYTE   W72
 BYTE   W72
//  #04 //029   ----------------------------------------
 BYTE   W72
 BYTE   GoTo
  POIN2 Label_568180
//  #04 //030   ----------------------------------------
 BYTE   N24  CnM1  v072
 BYTE   W72
 BYTE   W72
//  #04 //031   ----------------------------------------
 BYTE   N24
 BYTE   W72
Label_568281:
 BYTE   W60
//  #04 //032   ----------------------------------------
 BYTE   W01
 BYTE   N03  CnM1  v040
 BYTE   W04
 BYTE   N01  CnM1  v056
 BYTE   N03  Cn0  v064
 BYTE   W01
 BYTE   N02  CnM1
 BYTE   W02
 BYTE   N01  Cn0  v080
 BYTE   W01
 BYTE   N02  CnM1  v084
 BYTE   W01
 BYTE   N01  Cn0  v092
 BYTE   W01
 BYTE   CnM1
 BYTE   W01
 BYTE   PEND 
 BYTE   W72
 BYTE   W72
//  #04 //033   ----------------------------------------
 BYTE   N24  CnM1  v072
 BYTE   W72
Label_5682A6:
 BYTE   W68
//  #04 //034   ----------------------------------------
 BYTE   W03
 BYTE   N24  CnM1  v072
 BYTE   W01
 BYTE   PEND 
 BYTE   W72
//  #04 //035   ----------------------------------------
 BYTE   PATT
  POIN2 Label_5682A6
//  #04 //036   ----------------------------------------
 BYTE   W72
//  #04 //037   ----------------------------------------
 BYTE   PATT
  POIN2 Label_5682A6
//  #04 //038   ----------------------------------------
 BYTE   W72
//  #04 //039   ----------------------------------------
 BYTE   PATT
  POIN2 Label_5682A6
//  #04 //040   ----------------------------------------
 BYTE   PATT
  POIN2 Label_5682A6
//  #04 //041   ----------------------------------------
 BYTE   PATT
  POIN2 Label_5682A6
//  #04 //042   ----------------------------------------
 BYTE   W72
//  #04 //043   ----------------------------------------
 BYTE   PATT
  POIN2 Label_5682A6
//  #04 //044   ----------------------------------------
 BYTE   W72
//  #04 //045   ----------------------------------------
 BYTE   PATT
  POIN2 Label_5682A6
//  #04 //046   ----------------------------------------
 BYTE   W72
 BYTE   W52
//  #04 //047   ----------------------------------------
 BYTE   W01
 BYTE   N01  Cn0  v016
 BYTE   W01
 BYTE   CnM1
 BYTE   W01
 BYTE   CnM1  v020
 BYTE   N01  Cn0
 BYTE   W01
 BYTE   CnM1  v024
 BYTE   N01  Cn0
 BYTE   W01
 BYTE   Cn0  v032
 BYTE   W01
 BYTE   CnM1
 BYTE   W01
 BYTE   CnM1  v036
 BYTE   N01  Cn0
 BYTE   W03
 BYTE   N03  Cn0  v052
 BYTE   W01
 BYTE   CnM1
 BYTE   W03
 BYTE   N02  CnM1  v068
 BYTE   N02  Cn0
 BYTE   W02
 BYTE   N01  CnM1  v072
 BYTE   N01  Cn0
 BYTE   W03
 BYTE   N32  CnM1
 BYTE   N32  Cn0
 BYTE   W01
 BYTE   W72
//  #04 //048   ----------------------------------------
 BYTE   PATT
  POIN2 Label_5682A6
//  #04 //049   ----------------------------------------
 BYTE   W72
//  #04 //050   ----------------------------------------
 BYTE   PATT
  POIN2 Label_5682A6
//  #04 //051   ----------------------------------------
 BYTE   W72
//  #04 //052   ----------------------------------------
 BYTE   PATT
  POIN2 Label_5682A6
//  #04 //053   ----------------------------------------
 BYTE   W72
//  #04 //054   ----------------------------------------
 BYTE   PATT
  POIN2 Label_5682A6
//  #04 //055   ----------------------------------------
 BYTE   W72
//  #04 //056   ----------------------------------------
 BYTE   PATT
  POIN2 Label_5682A6
//  #04 //057   ----------------------------------------
 BYTE   W72
//  #04 //058   ----------------------------------------
 BYTE   PATT
  POIN2 Label_5682A6
//  #04 //059   ----------------------------------------
 BYTE   W72
//  #04 //060   ----------------------------------------
 BYTE   PATT
  POIN2 Label_5682A6
//  #04 //061   ----------------------------------------
 BYTE   W72
//  #04 //062   ----------------------------------------
 BYTE   PATT
  POIN2 Label_5682A6
//  #04 //063   ----------------------------------------
 BYTE   W72
//  #04 //064   ----------------------------------------
 BYTE   PATT
  POIN2 Label_5682A6
//  #04 //065   ----------------------------------------
 BYTE   W72
//  #04 //066   ----------------------------------------
 BYTE   PATT
  POIN2 Label_5682A6
//  #04 //067   ----------------------------------------
 BYTE   W72
//  #04 //068   ----------------------------------------
 BYTE   PATT
  POIN2 Label_5682A6
//  #04 //069   ----------------------------------------
 BYTE   W68
 BYTE   W03
 BYTE   N12  CnM1  v104
 BYTE   W01
 BYTE   W32
//  #04 //070   ----------------------------------------
 BYTE   W03
 BYTE   N02  CnM1  v036
 BYTE   W03
 BYTE   N01  CnM1  v044
 BYTE   W01
 BYTE   N02
 BYTE   W03
 BYTE   N03  CnM1  v052
 BYTE   W03
 BYTE   N02  CnM1  v056
 BYTE   W02
 BYTE   CnM1  v064
 BYTE   W02
 BYTE   N01  CnM1  v068
 BYTE   W02
 BYTE   CnM1  v072
 BYTE   W01
 BYTE   CnM1  v076
 BYTE   W01
 BYTE   N02  Cn0
 BYTE   W01
 BYTE   N01  CnM1  v080
 BYTE   W01
 BYTE   Cn0  v084
 BYTE   W01
 BYTE   CnM1
 BYTE   W01
 BYTE   Cn0  v088
 BYTE   W01
 BYTE   CnM1  v092
 BYTE   W01
 BYTE   Cn0
 BYTE   W02
 BYTE   CnM1  v100
 BYTE   N01  Cn0  v104
 BYTE   W01
 BYTE   N01
 BYTE   W02
 BYTE   CnM1  v108
 BYTE   W01
 BYTE   N02  CnM1  v112
 BYTE   N02  Cn0
 BYTE   W03
 BYTE   N01  CnM1  v120
 BYTE   N01  Cn0  v124
 BYTE   W02
 BYTE   CnM1  v127
 BYTE   N01  Cn0
 BYTE   W01
 BYTE   CnM1
 BYTE   N01  Cn0
 BYTE   W01
 BYTE   W72
//  #04 //071   ----------------------------------------
 BYTE   PATT
  POIN2 Label_5682A6
//  #04 //072   ----------------------------------------
 BYTE   W72
//  #04 //073   ----------------------------------------
 BYTE   PATT
  POIN2 Label_5682A6
//  #04 //074   ----------------------------------------
 BYTE   W72
 BYTE   W72
//  #04 //075   ----------------------------------------
 BYTE   N32  CnM1  v052
 BYTE   W72
 BYTE   W72
//  #04 //076   ----------------------------------------
 BYTE   N24  CnM1  v072
 BYTE   W72
 BYTE   W72
//  #04 //077   ----------------------------------------
 BYTE   N24
 BYTE   W72
//  #04 //078   ----------------------------------------
 BYTE   PATT
  POIN2 Label_568281
//  #04 //079   ----------------------------------------
 BYTE   W72
 BYTE   W72
//  #04 //080   ----------------------------------------
 BYTE   N24  CnM1  v072
 BYTE   W72
 BYTE   W68
//  #04 //081   ----------------------------------------
 BYTE   W03
 BYTE   CnM1  v024
 BYTE   W01
 BYTE   W72
 BYTE   W68
//  #04 //082   ----------------------------------------
 BYTE   W03
 BYTE   CnM1  v016
 BYTE   W01
 BYTE   W72
 BYTE   W68
//  #04 //083   ----------------------------------------
 BYTE   W03
 BYTE   CnM1  v008
 BYTE   W01
 BYTE   W23
 BYTE   FINE

//**************** Track 5 (Midi-Chn.4) ****************//

song2C_005:
//  #05 //000   ----------------------------------------
 BYTE   KEYSH   song2C_key+0
 BYTE   VOICE   14
 BYTE   MODT 0
 BYTE   LFOS 44
 BYTE   PAN   c_v+26
 BYTE   VOL   91*song2C_mvl/mxv
 BYTE   BENDR  74
 BYTE   W72
 BYTE   W72
//  #05 //001   ----------------------------------------
 BYTE   W72
 BYTE   W72
//  #05 //002   ----------------------------------------
 BYTE   W72
Label_010DC0AB:
 BYTE   W24
//  #05 //003   ----------------------------------------
 BYTE   N09  Bn3  v032
 BYTE   W48
 BYTE   W72
//  #05 //004   ----------------------------------------
 BYTE   W24
 BYTE   N24  Bn3  v044
 BYTE   W48
 BYTE   W72
//  #05 //005   ----------------------------------------
 BYTE   W24
 BYTE   N24
 BYTE   W48
 BYTE   W72
//  #05 //006   ----------------------------------------
 BYTE   W24
 BYTE   N24
 BYTE   W48
 BYTE   W72
//  #05 //007   ----------------------------------------
 BYTE   W24
 BYTE   N24
 BYTE   W48
 BYTE   W72
//  #05 //008   ----------------------------------------
Label_010DC0C3:
 BYTE   W23
 BYTE   N24  Bn3  v044
 BYTE   W48
 BYTE   W01
 BYTE   PEND 
 BYTE   W72
//  #05 //009   ----------------------------------------
 BYTE   W24
 BYTE   N24
 BYTE   W48
 BYTE   W72
//  #05 //010   ----------------------------------------
 BYTE   W24
 BYTE   N24
 BYTE   W48
 BYTE   W72
//  #05 //011   ----------------------------------------
 BYTE   W24
 BYTE   N24
 BYTE   W48
 BYTE   W72
//  #05 //012   ----------------------------------------
 BYTE   W24
 BYTE   N24
 BYTE   W48
 BYTE   W72
//  #05 //013   ----------------------------------------
 BYTE   PATT
  POIN2 Label_010DC0C3
//  #05 //014   ----------------------------------------
 BYTE   W72
//  #05 //015   ----------------------------------------
 BYTE   PATT
  POIN2 Label_010DC0C3
//  #05 //016   ----------------------------------------
 BYTE   W72
//  #05 //017   ----------------------------------------
 BYTE   PATT
  POIN2 Label_010DC0C3
//  #05 //018   ----------------------------------------
 BYTE   W72
//  #05 //019   ----------------------------------------
 BYTE   PATT
  POIN2 Label_010DC0C3
//  #05 //020   ----------------------------------------
 BYTE   W72
//  #05 //021   ----------------------------------------
 BYTE   PATT
  POIN2 Label_010DC0C3
//  #05 //022   ----------------------------------------
 BYTE   W72
 BYTE   W24
//  #05 //023   ----------------------------------------
 BYTE   N24  Bn3  v044
 BYTE   W48
 BYTE   W72
//  #05 //024   ----------------------------------------
 BYTE   PATT
  POIN2 Label_010DC0C3
//  #05 //025   ----------------------------------------
 BYTE   W72
 BYTE   W24
//  #05 //026   ----------------------------------------
 BYTE   N24  Bn3  v044
 BYTE   W48
 BYTE   W72
//  #05 //027   ----------------------------------------
 BYTE   PATT
  POIN2 Label_010DC0C3
//  #05 //028   ----------------------------------------
 BYTE   W72
//  #05 //029   ----------------------------------------
 BYTE   PATT
  POIN2 Label_010DC0C3
//  #05 //030   ----------------------------------------
 BYTE   W72
//  #05 //031   ----------------------------------------
 BYTE   PATT
  POIN2 Label_010DC0C3
//  #05 //032   ----------------------------------------
 BYTE   W72
 BYTE   W24
//  #05 //033   ----------------------------------------
 BYTE   N24  Bn3  v044
 BYTE   W48
 BYTE   W72
//  #05 //034   ----------------------------------------
 BYTE   PATT
  POIN2 Label_010DC0C3
//  #05 //035   ----------------------------------------
 BYTE   W72
 BYTE   W24
//  #05 //036   ----------------------------------------
 BYTE   N24  Bn3  v044
 BYTE   W48
 BYTE   W72
//  #05 //037   ----------------------------------------
 BYTE   W24
 BYTE   N24
 BYTE   W48
 BYTE   W72
//  #05 //038   ----------------------------------------
 BYTE   W24
 BYTE   N24
 BYTE   W48
 BYTE   W72
//  #05 //039   ----------------------------------------
 BYTE   PATT
  POIN2 Label_010DC0C3
//  #05 //040   ----------------------------------------
 BYTE   W72
 BYTE   GoTo
  POIN2 Label_010DC0AB
//  #05 //041   ----------------------------------------
 BYTE   W24
 BYTE   N09  Bn3  v032
 BYTE   W48
 BYTE   W72
//  #05 //042   ----------------------------------------
 BYTE   W24
 BYTE   N24  Bn3  v044
 BYTE   W48
 BYTE   W72
//  #05 //043   ----------------------------------------
 BYTE   W24
 BYTE   N24
 BYTE   W48
 BYTE   W72
//  #05 //044   ----------------------------------------
 BYTE   W24
 BYTE   N24
 BYTE   W48
 BYTE   W72
//  #05 //045   ----------------------------------------
 BYTE   W24
 BYTE   N24
 BYTE   W48
 BYTE   W72
//  #05 //046   ----------------------------------------
 BYTE   PATT
  POIN2 Label_010DC0C3
//  #05 //047   ----------------------------------------
 BYTE   W72
 BYTE   W24
//  #05 //048   ----------------------------------------
 BYTE   N24  Bn3  v044
 BYTE   W48
 BYTE   W72
//  #05 //049   ----------------------------------------
 BYTE   W24
 BYTE   N24
 BYTE   W48
 BYTE   W72
//  #05 //050   ----------------------------------------
 BYTE   W24
 BYTE   N24
 BYTE   W48
 BYTE   W72
//  #05 //051   ----------------------------------------
 BYTE   W24
 BYTE   N24
 BYTE   W48
 BYTE   W72
//  #05 //052   ----------------------------------------
 BYTE   PATT
  POIN2 Label_010DC0C3
//  #05 //053   ----------------------------------------
 BYTE   W72
//  #05 //054   ----------------------------------------
 BYTE   PATT
  POIN2 Label_010DC0C3
//  #05 //055   ----------------------------------------
 BYTE   W72
//  #05 //056   ----------------------------------------
 BYTE   PATT
  POIN2 Label_010DC0C3
//  #05 //057   ----------------------------------------
 BYTE   W72
//  #05 //058   ----------------------------------------
 BYTE   PATT
  POIN2 Label_010DC0C3
//  #05 //059   ----------------------------------------
 BYTE   W72
//  #05 //060   ----------------------------------------
 BYTE   PATT
  POIN2 Label_010DC0C3
//  #05 //061   ----------------------------------------
 BYTE   W72
//  #05 //062   ----------------------------------------
 BYTE   PATT
  POIN2 Label_010DC0C3
//  #05 //063   ----------------------------------------
 BYTE   W72
//  #05 //064   ----------------------------------------
 BYTE   PATT
  POIN2 Label_010DC0C3
//  #05 //065   ----------------------------------------
 BYTE   W72
//  #05 //066   ----------------------------------------
 BYTE   PATT
  POIN2 Label_010DC0C3
//  #05 //067   ----------------------------------------
 BYTE   W72
//  #05 //068   ----------------------------------------
 BYTE   PATT
  POIN2 Label_010DC0C3
//  #05 //069   ----------------------------------------
 BYTE   W72
//  #05 //070   ----------------------------------------
 BYTE   PATT
  POIN2 Label_010DC0C3
//  #05 //071   ----------------------------------------
 BYTE   W72
//  #05 //072   ----------------------------------------
 BYTE   PATT
  POIN2 Label_010DC0C3
//  #05 //073   ----------------------------------------
 BYTE   W72
//  #05 //074   ----------------------------------------
 BYTE   PATT
  POIN2 Label_010DC0C3
//  #05 //075   ----------------------------------------
 BYTE   W72
//  #05 //076   ----------------------------------------
 BYTE   PATT
  POIN2 Label_010DC0C3
//  #05 //077   ----------------------------------------
 BYTE   W72
//  #05 //078   ----------------------------------------
 BYTE   PATT
  POIN2 Label_010DC0C3
//  #05 //079   ----------------------------------------
 BYTE   W72
//  #05 //080   ----------------------------------------
 BYTE   PATT
  POIN2 Label_010DC0C3
//  #05 //081   ----------------------------------------
 BYTE   W72
 BYTE   W24
//  #05 //082   ----------------------------------------
 BYTE   N24  Bn3  v044
 BYTE   W48
 BYTE   W72
//  #05 //083   ----------------------------------------
 BYTE   PATT
  POIN2 Label_010DC0C3
//  #05 //084   ----------------------------------------
 BYTE   W72
 BYTE   W24
//  #05 //085   ----------------------------------------
 BYTE   N09  Bn3  v032
 BYTE   W48
 BYTE   W72
//  #05 //086   ----------------------------------------
 BYTE   W24
 BYTE   N24  Bn3  v044
 BYTE   W48
 BYTE   W72
//  #05 //087   ----------------------------------------
 BYTE   W24
 BYTE   N24
 BYTE   W48
 BYTE   W72
//  #05 //088   ----------------------------------------
 BYTE   W24
 BYTE   N24
 BYTE   W48
 BYTE   W72
//  #05 //089   ----------------------------------------
 BYTE   W24
 BYTE   N24
 BYTE   W48
 BYTE   W72
//  #05 //090   ----------------------------------------
 BYTE   W23
 BYTE   N24
 BYTE   W24
 BYTE   FINE

//**************** Track 6 (Midi-Chn.5) ****************//

song2C_006:
//  #06 //000   ----------------------------------------
 BYTE   KEYSH   song2C_key+0
 BYTE   VOICE   52
 BYTE   MODT 0
 BYTE   LFOS 44
 BYTE   PAN   c_v-22
 BYTE   VOL   76*song2C_mvl/mxv
 BYTE   W72
 BYTE   W72
//  #06 //001   ----------------------------------------
 BYTE   W72
 BYTE   W72
//  #06 //002   ----------------------------------------
 BYTE   W72
Label_010DC205:
 BYTE   VOL   76*song2C_mvl/mxv
 BYTE   W72
//  #06 //003   ----------------------------------------
 BYTE   W72
 BYTE   W68
//  #06 //004   ----------------------------------------
 BYTE   W03
 BYTE   VOL   18*song2C_mvl/mxv
 BYTE   W01
 BYTE   TIE  Bn3  v024
 BYTE   TIE  En4  v072
 BYTE   W02
 BYTE   VOL   18*song2C_mvl/mxv
 BYTE   W02
 BYTE   VOL   20*song2C_mvl/mxv
 BYTE   W02
 BYTE   VOL   22*song2C_mvl/mxv
 BYTE   W02
 BYTE   VOL   22*song2C_mvl/mxv
 BYTE   W02
 BYTE   VOL   24*song2C_mvl/mxv
 BYTE   W02
 BYTE   VOL   25*song2C_mvl/mxv
 BYTE   W02
 BYTE   VOL   25*song2C_mvl/mxv
 BYTE   W02
 BYTE   VOL   27*song2C_mvl/mxv
 BYTE   W02
 BYTE   VOL   29*song2C_mvl/mxv
 BYTE   W02
 BYTE   VOL   29*song2C_mvl/mxv
 BYTE   W02
 BYTE   VOL   32*song2C_mvl/mxv
 BYTE   W02
 BYTE   VOL   33*song2C_mvl/mxv
 BYTE   W02
 BYTE   VOL   35*song2C_mvl/mxv
 BYTE   W02
 BYTE   VOL   36*song2C_mvl/mxv
 BYTE   W03
 BYTE   VOL   37*song2C_mvl/mxv
 BYTE   W02
 BYTE   VOL   38*song2C_mvl/mxv
 BYTE   W02
 BYTE   VOL   39*song2C_mvl/mxv
 BYTE   W02
 BYTE   VOL   41*song2C_mvl/mxv
 BYTE   W02
 BYTE   VOL   43*song2C_mvl/mxv
 BYTE   W02
 BYTE   VOL   45*song2C_mvl/mxv
 BYTE   W02
 BYTE   VOL   46*song2C_mvl/mxv
 BYTE   W02
 BYTE   VOL   48*song2C_mvl/mxv
 BYTE   W02
 BYTE   VOL   50*song2C_mvl/mxv
 BYTE   W02
 BYTE   VOL   51*song2C_mvl/mxv
 BYTE   W02
 BYTE   VOL   53*song2C_mvl/mxv
 BYTE   W02
 BYTE   VOL   55*song2C_mvl/mxv
 BYTE   W02
 BYTE   VOL   56*song2C_mvl/mxv
 BYTE   W02
 BYTE   VOL   58*song2C_mvl/mxv
 BYTE   W02
 BYTE   VOL   60*song2C_mvl/mxv
 BYTE   W03
 BYTE   VOL   62*song2C_mvl/mxv
 BYTE   W02
 BYTE   VOL   63*song2C_mvl/mxv
 BYTE   W02
 BYTE   VOL   66*song2C_mvl/mxv
 BYTE   W02
 BYTE   VOL   68*song2C_mvl/mxv
 BYTE   W02
 BYTE   VOL   69*song2C_mvl/mxv
 BYTE   W02
 BYTE   W48
//  #06 //005   ----------------------------------------
 BYTE   VOL   63*song2C_mvl/mxv
 BYTE   W05
 BYTE   VOL   62*song2C_mvl/mxv
 BYTE   W06
 BYTE   VOL   60*song2C_mvl/mxv
 BYTE   W05
 BYTE   VOL   58*song2C_mvl/mxv
 BYTE   W06
 BYTE   VOL   56*song2C_mvl/mxv
 BYTE   W02
 BYTE   W03
 BYTE   VOL   55*song2C_mvl/mxv
 BYTE   W05
 BYTE   VOL   53*song2C_mvl/mxv
 BYTE   W06
 BYTE   VOL   51*song2C_mvl/mxv
 BYTE   W05
 BYTE   VOL   50*song2C_mvl/mxv
 BYTE   W06
 BYTE   VOL   48*song2C_mvl/mxv
 BYTE   W05
 BYTE   VOL   46*song2C_mvl/mxv
 BYTE   W05
 BYTE   VOL   45*song2C_mvl/mxv
 BYTE   W06
 BYTE   VOL   43*song2C_mvl/mxv
 BYTE   W05
 BYTE   VOL   41*song2C_mvl/mxv
 BYTE   W06
 BYTE   VOL   39*song2C_mvl/mxv
 BYTE   W05
 BYTE   VOL   38*song2C_mvl/mxv
 BYTE   W05
 BYTE   VOL   37*song2C_mvl/mxv
 BYTE   W06
 BYTE   VOL   36*song2C_mvl/mxv
 BYTE   W04
//  #06 //006   ----------------------------------------
 BYTE   W01
 BYTE   VOL   35*song2C_mvl/mxv
 BYTE   W05
 BYTE   VOL   33*song2C_mvl/mxv
 BYTE   W06
 BYTE   VOL   32*song2C_mvl/mxv
 BYTE   W05
 BYTE   VOL   29*song2C_mvl/mxv
 BYTE   W06
 BYTE   VOL   29*song2C_mvl/mxv
 BYTE   W05
 BYTE   VOL   27*song2C_mvl/mxv
 BYTE   W05
 BYTE   VOL   25*song2C_mvl/mxv
 BYTE   W06
 BYTE   VOL   25*song2C_mvl/mxv
 BYTE   W05
 BYTE   VOL   24*song2C_mvl/mxv
 BYTE   W06
 BYTE   VOL   22*song2C_mvl/mxv
 BYTE   W05
 BYTE   VOL   22*song2C_mvl/mxv
 BYTE   W05
 BYTE   VOL   20*song2C_mvl/mxv
 BYTE   W06
 BYTE   VOL   18*song2C_mvl/mxv
 BYTE   W05
 BYTE   VOL   18*song2C_mvl/mxv
 BYTE   W01
 BYTE   W68
//  #06 //007   ----------------------------------------
 BYTE   W03
 BYTE   EOT
 BYTE   Bn3  v076
 BYTE   W01
 BYTE   W72
 BYTE   W72
//  #06 //008   ----------------------------------------
 BYTE   W72
 BYTE   W72
//  #06 //009   ----------------------------------------
 BYTE   W72
 BYTE   W72
//  #06 //010   ----------------------------------------
 BYTE   W72
 BYTE   W72
//  #06 //011   ----------------------------------------
 BYTE   W72
 BYTE   W72
//  #06 //012   ----------------------------------------
 BYTE   W72
 BYTE   W72
//  #06 //013   ----------------------------------------
 BYTE   W72
Label_010DC2F1:
 BYTE   W68
//  #06 //014   ----------------------------------------
 BYTE   W03
 BYTE   VOL   20*song2C_mvl/mxv
 BYTE   W01
 BYTE   PEND 
 BYTE   TIE  An3  v092
 BYTE   TIE  Dn4  v100
 BYTE   W02
 BYTE   VOL   17*song2C_mvl/mxv
 BYTE   W02
 BYTE   VOL   18*song2C_mvl/mxv
 BYTE   W01
 BYTE   VOL   20*song2C_mvl/mxv
 BYTE   W01
 BYTE   VOL   22*song2C_mvl/mxv
 BYTE   W01
 BYTE   VOL   24*song2C_mvl/mxv
 BYTE   W01
 BYTE   VOL   25*song2C_mvl/mxv
 BYTE   W01
 BYTE   VOL   27*song2C_mvl/mxv
 BYTE   W01
 BYTE   VOL   29*song2C_mvl/mxv
 BYTE   W01
 BYTE   VOL   35*song2C_mvl/mxv
 BYTE   W01
 BYTE   VOL   37*song2C_mvl/mxv
 BYTE   W01
 BYTE   VOL   41*song2C_mvl/mxv
 BYTE   W01
 BYTE   VOL   46*song2C_mvl/mxv
 BYTE   W01
 BYTE   VOL   51*song2C_mvl/mxv
 BYTE   W01
 BYTE   VOL   58*song2C_mvl/mxv
 BYTE   W01
 BYTE   VOL   63*song2C_mvl/mxv
 BYTE   W01
 BYTE   VOL   66*song2C_mvl/mxv
 BYTE   W54
 BYTE   W32
//  #06 //015   ----------------------------------------
 BYTE   W02
 BYTE   EOT
 BYTE   W02
 BYTE   N32  Cs4  v072
 BYTE   W32
 BYTE   W03
 BYTE   EOT
 BYTE   An3
 BYTE   TIE
 BYTE   W01
 BYTE   Bn3
 BYTE   W72
//  #06 //016   ----------------------------------------
 BYTE   W32
 BYTE   W03
 BYTE   EOT
 BYTE   An3  v071
 BYTE   W01
 BYTE   N32  An3
 BYTE   W36
Label_010DC346:
 BYTE   N32  Gn3  v072
 BYTE   N72  An3  v032
 BYTE   W36
//  #06 //017   ----------------------------------------
 BYTE   N32  Fs3  v072
 BYTE   W36
 BYTE   PEND 
Label_010DC352:
 BYTE   N68  Dn3  v072
 BYTE   N68  Bn3  v020
 BYTE   W36
 BYTE   N36  Fs3  v072
 BYTE   W36
 BYTE   PEND 
//  #06 //018   ----------------------------------------
Label_010DC35E:
 BYTE   TIE  En3  v072
 BYTE   TIE  Bn3  v040
 BYTE   W72
 BYTE   PEND 
 BYTE   W24
//  #06 //019   ----------------------------------------
 BYTE   VOL   62*song2C_mvl/mxv
 BYTE   W18
 BYTE   VOL   60*song2C_mvl/mxv
 BYTE   W07
 BYTE   VOL   58*song2C_mvl/mxv
 BYTE   W06
 BYTE   VOL   56*song2C_mvl/mxv
 BYTE   W04
 BYTE   VOL   55*song2C_mvl/mxv
 BYTE   W05
 BYTE   VOL   53*song2C_mvl/mxv
 BYTE   W03
 BYTE   VOL   51*song2C_mvl/mxv
 BYTE   W04
 BYTE   VOL   50*song2C_mvl/mxv
 BYTE   W01
 BYTE   W02
 BYTE   VOL   48*song2C_mvl/mxv
 BYTE   W03
 BYTE   VOL   46*song2C_mvl/mxv
 BYTE   W03
 BYTE   VOL   45*song2C_mvl/mxv
 BYTE   W02
 BYTE   VOL   43*song2C_mvl/mxv
 BYTE   W03
 BYTE   VOL   41*song2C_mvl/mxv
 BYTE   W02
 BYTE   VOL   39*song2C_mvl/mxv
 BYTE   W03
 BYTE   VOL   38*song2C_mvl/mxv
 BYTE   W02
 BYTE   VOL   37*song2C_mvl/mxv
 BYTE   W02
 BYTE   VOL   36*song2C_mvl/mxv
 BYTE   W02
 BYTE   VOL   35*song2C_mvl/mxv
 BYTE   W03
 BYTE   VOL   33*song2C_mvl/mxv
 BYTE   W02
 BYTE   VOL   32*song2C_mvl/mxv
 BYTE   W02
 BYTE   VOL   29*song2C_mvl/mxv
 BYTE   W01
 BYTE   VOL   29*song2C_mvl/mxv
 BYTE   W02
 BYTE   VOL   27*song2C_mvl/mxv
 BYTE   W02
 BYTE   VOL   25*song2C_mvl/mxv
 BYTE   W02
 BYTE   VOL   25*song2C_mvl/mxv
 BYTE   W02
 BYTE   VOL   24*song2C_mvl/mxv
 BYTE   W02
 BYTE   VOL   22*song2C_mvl/mxv
 BYTE   W01
 BYTE   VOL   22*song2C_mvl/mxv
 BYTE   W02
 BYTE   VOL   20*song2C_mvl/mxv
 BYTE   W02
 BYTE   VOL   18*song2C_mvl/mxv
 BYTE   W01
//  #06 //020   ----------------------------------------
 BYTE   VOL   18*song2C_mvl/mxv
 BYTE   W02
 BYTE   VOL   17*song2C_mvl/mxv
 BYTE   W01
 BYTE   VOL   15*song2C_mvl/mxv
 BYTE   W02
 BYTE   VOL   14*song2C_mvl/mxv
 BYTE   W01
 BYTE   VOL   14*song2C_mvl/mxv
 BYTE   W02
 BYTE   VOL   12*song2C_mvl/mxv
 BYTE   W01
 BYTE   VOL   11*song2C_mvl/mxv
 BYTE   W02
 BYTE   VOL   11*song2C_mvl/mxv
 BYTE   W01
 BYTE   VOL   10*song2C_mvl/mxv
 BYTE   W02
 BYTE   VOL   9*song2C_mvl/mxv
 BYTE   W01
 BYTE   VOL   8*song2C_mvl/mxv
 BYTE   W01
 BYTE   VOL   7*song2C_mvl/mxv
 BYTE   W02
 BYTE   VOL   7*song2C_mvl/mxv
 BYTE   W01
 BYTE   VOL   6*song2C_mvl/mxv
 BYTE   W01
 BYTE   VOL   5*song2C_mvl/mxv
 BYTE   W02
 BYTE   EOT
 BYTE   En3
 BYTE   VOL   4*song2C_mvl/mxv
 BYTE   W01
 BYTE   EOT
 BYTE   Bn3
 BYTE   VOL   3*song2C_mvl/mxv
 BYTE   W01
 BYTE   W72
//  #06 //021   ----------------------------------------
 BYTE   W72
 BYTE   W72
//  #06 //022   ----------------------------------------
 BYTE   W72
 BYTE   W72
//  #06 //023   ----------------------------------------
 BYTE   W72
 BYTE   W72
//  #06 //024   ----------------------------------------
 BYTE   W72
 BYTE   W72
//  #06 //025   ----------------------------------------
 BYTE   W72
 BYTE   W72
//  #06 //026   ----------------------------------------
 BYTE   W72
 BYTE   W72
//  #06 //027   ----------------------------------------
 BYTE   W72
 BYTE   W72
//  #06 //028   ----------------------------------------
 BYTE   W72
 BYTE   W72
//  #06 //029   ----------------------------------------
 BYTE   W72
 BYTE   W72
//  #06 //030   ----------------------------------------
 BYTE   W72
 BYTE   W72
//  #06 //031   ----------------------------------------
 BYTE   W72
 BYTE   W72
//  #06 //032   ----------------------------------------
 BYTE   GoTo
  POIN2 Label_010DC205
//  #06 //033   ----------------------------------------
 BYTE   W72
 BYTE   W72
//  #06 //034   ----------------------------------------
 BYTE   W72
 BYTE   VOL   18*song2C_mvl/mxv
 BYTE   TIE  En4  v072
 BYTE   W01
 BYTE   Bn3  v024
 BYTE   W01
 BYTE   VOL   18*song2C_mvl/mxv
 BYTE   W02
 BYTE   VOL   20*song2C_mvl/mxv
 BYTE   W02
 BYTE   VOL   22*song2C_mvl/mxv
 BYTE   W02
 BYTE   VOL   22*song2C_mvl/mxv
 BYTE   W02
 BYTE   VOL   24*song2C_mvl/mxv
 BYTE   W02
 BYTE   VOL   25*song2C_mvl/mxv
 BYTE   W02
 BYTE   VOL   25*song2C_mvl/mxv
 BYTE   W03
 BYTE   VOL   27*song2C_mvl/mxv
 BYTE   W02
 BYTE   VOL   29*song2C_mvl/mxv
 BYTE   W02
 BYTE   VOL   29*song2C_mvl/mxv
 BYTE   W02
 BYTE   VOL   32*song2C_mvl/mxv
 BYTE   W02
//  #06 //035   ----------------------------------------
 BYTE   VOL   33*song2C_mvl/mxv
 BYTE   W02
 BYTE   VOL   35*song2C_mvl/mxv
 BYTE   W02
 BYTE   VOL   36*song2C_mvl/mxv
 BYTE   W02
 BYTE   VOL   37*song2C_mvl/mxv
 BYTE   W02
 BYTE   VOL   38*song2C_mvl/mxv
 BYTE   W02
 BYTE   VOL   39*song2C_mvl/mxv
 BYTE   W02
 BYTE   VOL   41*song2C_mvl/mxv
 BYTE   W02
 BYTE   VOL   43*song2C_mvl/mxv
 BYTE   W02
 BYTE   VOL   45*song2C_mvl/mxv
 BYTE   W02
 BYTE   VOL   46*song2C_mvl/mxv
 BYTE   W03
 BYTE   VOL   48*song2C_mvl/mxv
 BYTE   W02
 BYTE   VOL   50*song2C_mvl/mxv
 BYTE   W02
 BYTE   VOL   51*song2C_mvl/mxv
 BYTE   W02
 BYTE   VOL   53*song2C_mvl/mxv
 BYTE   W02
 BYTE   VOL   55*song2C_mvl/mxv
 BYTE   W02
 BYTE   VOL   56*song2C_mvl/mxv
 BYTE   W02
 BYTE   VOL   58*song2C_mvl/mxv
 BYTE   W02
 BYTE   VOL   60*song2C_mvl/mxv
 BYTE   W02
 BYTE   VOL   62*song2C_mvl/mxv
 BYTE   W02
 BYTE   VOL   63*song2C_mvl/mxv
 BYTE   W02
 BYTE   VOL   66*song2C_mvl/mxv
 BYTE   W02
 BYTE   VOL   68*song2C_mvl/mxv
 BYTE   W02
 BYTE   VOL   69*song2C_mvl/mxv
 BYTE   W02
 BYTE   W48
 BYTE   VOL   63*song2C_mvl/mxv
 BYTE   W06
//  #06 //036   ----------------------------------------
 BYTE   VOL   62*song2C_mvl/mxv
 BYTE   W05
 BYTE   VOL   60*song2C_mvl/mxv
 BYTE   W06
 BYTE   VOL   58*song2C_mvl/mxv
 BYTE   W05
 BYTE   VOL   56*song2C_mvl/mxv
 BYTE   W02
 BYTE   W03
 BYTE   VOL   55*song2C_mvl/mxv
 BYTE   W06
 BYTE   VOL   53*song2C_mvl/mxv
 BYTE   W05
 BYTE   VOL   51*song2C_mvl/mxv
 BYTE   W06
 BYTE   VOL   50*song2C_mvl/mxv
 BYTE   W05
 BYTE   VOL   48*song2C_mvl/mxv
 BYTE   W05
 BYTE   VOL   46*song2C_mvl/mxv
 BYTE   W06
 BYTE   VOL   45*song2C_mvl/mxv
 BYTE   W05
 BYTE   VOL   43*song2C_mvl/mxv
 BYTE   W06
 BYTE   VOL   41*song2C_mvl/mxv
 BYTE   W05
 BYTE   VOL   39*song2C_mvl/mxv
 BYTE   W05
 BYTE   VOL   38*song2C_mvl/mxv
 BYTE   W06
 BYTE   VOL   37*song2C_mvl/mxv
 BYTE   W05
 BYTE   VOL   36*song2C_mvl/mxv
 BYTE   W04
 BYTE   W02
 BYTE   VOL   35*song2C_mvl/mxv
 BYTE   W05
//  #06 //037   ----------------------------------------
 BYTE   VOL   33*song2C_mvl/mxv
 BYTE   W05
 BYTE   VOL   32*song2C_mvl/mxv
 BYTE   W06
 BYTE   VOL   29*song2C_mvl/mxv
 BYTE   W05
 BYTE   VOL   29*song2C_mvl/mxv
 BYTE   W06
 BYTE   VOL   27*song2C_mvl/mxv
 BYTE   W05
 BYTE   VOL   25*song2C_mvl/mxv
 BYTE   W05
 BYTE   VOL   25*song2C_mvl/mxv
 BYTE   W06
 BYTE   VOL   24*song2C_mvl/mxv
 BYTE   W05
 BYTE   VOL   22*song2C_mvl/mxv
 BYTE   W06
 BYTE   VOL   22*song2C_mvl/mxv
 BYTE   W05
 BYTE   VOL   20*song2C_mvl/mxv
 BYTE   W05
 BYTE   VOL   18*song2C_mvl/mxv
 BYTE   W05
 BYTE   VOL   18*song2C_mvl/mxv
 BYTE   W01
 BYTE   W68
//  #06 //038   ----------------------------------------
 BYTE   W03
 BYTE   EOT
 BYTE   En4
 BYTE   W01
 BYTE   Bn3
 BYTE   W72
 BYTE   W72
//  #06 //039   ----------------------------------------
 BYTE   W72
 BYTE   W72
//  #06 //040   ----------------------------------------
 BYTE   W72
 BYTE   W72
//  #06 //041   ----------------------------------------
 BYTE   W72
 BYTE   W72
//  #06 //042   ----------------------------------------
 BYTE   W72
 BYTE   W72
//  #06 //043   ----------------------------------------
 BYTE   W72
 BYTE   W72
//  #06 //044   ----------------------------------------
 BYTE   W72
//  #06 //045   ----------------------------------------
 BYTE   PATT
  POIN2 Label_010DC2F1
//  #06 //046   ----------------------------------------
 BYTE   TIE  An3  v092
 BYTE   TIE  Dn4  v100
 BYTE   W03
 BYTE   VOL   17*song2C_mvl/mxv
 BYTE   W01
 BYTE   VOL   18*song2C_mvl/mxv
 BYTE   W01
 BYTE   VOL   18*song2C_mvl/mxv
 BYTE   W01
 BYTE   VOL   20*song2C_mvl/mxv
 BYTE   W01
 BYTE   VOL   22*song2C_mvl/mxv
 BYTE   W01
 BYTE   VOL   24*song2C_mvl/mxv
 BYTE   W01
 BYTE   VOL   25*song2C_mvl/mxv
 BYTE   W01
 BYTE   VOL   29*song2C_mvl/mxv
 BYTE   W01
 BYTE   VOL   33*song2C_mvl/mxv
 BYTE   W01
 BYTE   VOL   36*song2C_mvl/mxv
 BYTE   W01
 BYTE   VOL   39*song2C_mvl/mxv
 BYTE   W01
 BYTE   VOL   45*song2C_mvl/mxv
 BYTE   W01
 BYTE   VOL   50*song2C_mvl/mxv
 BYTE   W01
 BYTE   VOL   55*song2C_mvl/mxv
 BYTE   W01
 BYTE   VOL   60*song2C_mvl/mxv
 BYTE   W01
 BYTE   VOL   66*song2C_mvl/mxv
 BYTE   W54
 BYTE   W32
//  #06 //047   ----------------------------------------
 BYTE   W02
 BYTE   EOT
 BYTE   W02
 BYTE   N32  Cs4  v072
 BYTE   W32
 BYTE   W03
 BYTE   EOT
 BYTE   An3
 BYTE   W01
 BYTE   TIE
 BYTE   TIE  Bn3
 BYTE   W72
//  #06 //048   ----------------------------------------
 BYTE   W32
 BYTE   W03
 BYTE   EOT
 BYTE   W01
 BYTE   EOT
 BYTE   An3
 BYTE   N32
 BYTE   W36
//  #06 //049   ----------------------------------------
 BYTE   PATT
  POIN2 Label_010DC346
//  #06 //050   ----------------------------------------
 BYTE   PATT
  POIN2 Label_010DC352
//  #06 //051   ----------------------------------------
 BYTE   PATT
  POIN2 Label_010DC35E
//  #06 //052   ----------------------------------------
 BYTE   W24
 BYTE   W01
 BYTE   VOL   62*song2C_mvl/mxv
 BYTE   W17
 BYTE   VOL   60*song2C_mvl/mxv
 BYTE   W08
 BYTE   VOL   58*song2C_mvl/mxv
 BYTE   W05
 BYTE   VOL   56*song2C_mvl/mxv
 BYTE   W05
 BYTE   VOL   55*song2C_mvl/mxv
 BYTE   W04
 BYTE   VOL   53*song2C_mvl/mxv
 BYTE   W04
 BYTE   VOL   51*song2C_mvl/mxv
 BYTE   W03
 BYTE   VOL   50*song2C_mvl/mxv
 BYTE   W01
 BYTE   W02
 BYTE   VOL   48*song2C_mvl/mxv
 BYTE   W03
 BYTE   VOL   46*song2C_mvl/mxv
 BYTE   W03
 BYTE   VOL   45*song2C_mvl/mxv
 BYTE   W03
 BYTE   VOL   43*song2C_mvl/mxv
 BYTE   W02
 BYTE   VOL   41*song2C_mvl/mxv
 BYTE   W03
 BYTE   VOL   39*song2C_mvl/mxv
 BYTE   W02
 BYTE   VOL   38*song2C_mvl/mxv
 BYTE   W03
 BYTE   VOL   37*song2C_mvl/mxv
 BYTE   W02
 BYTE   VOL   36*song2C_mvl/mxv
 BYTE   W02
//  #06 //053   ----------------------------------------
 BYTE   VOL   35*song2C_mvl/mxv
 BYTE   W02
 BYTE   VOL   33*song2C_mvl/mxv
 BYTE   W02
 BYTE   VOL   32*song2C_mvl/mxv
 BYTE   W02
 BYTE   VOL   29*song2C_mvl/mxv
 BYTE   W02
 BYTE   VOL   29*song2C_mvl/mxv
 BYTE   W02
 BYTE   VOL   27*song2C_mvl/mxv
 BYTE   W02
 BYTE   VOL   25*song2C_mvl/mxv
 BYTE   W02
 BYTE   VOL   25*song2C_mvl/mxv
 BYTE   W01
 BYTE   VOL   24*song2C_mvl/mxv
 BYTE   W02
 BYTE   VOL   22*song2C_mvl/mxv
 BYTE   W02
 BYTE   VOL   22*song2C_mvl/mxv
 BYTE   W01
 BYTE   VOL   20*song2C_mvl/mxv
 BYTE   W02
 BYTE   VOL   18*song2C_mvl/mxv
 BYTE   W02
 BYTE   VOL   18*song2C_mvl/mxv
 BYTE   W01
 BYTE   VOL   17*song2C_mvl/mxv
 BYTE   W02
 BYTE   VOL   15*song2C_mvl/mxv
 BYTE   W01
 BYTE   VOL   14*song2C_mvl/mxv
 BYTE   W02
 BYTE   VOL   14*song2C_mvl/mxv
 BYTE   W01
 BYTE   VOL   12*song2C_mvl/mxv
 BYTE   W02
 BYTE   VOL   11*song2C_mvl/mxv
 BYTE   W01
 BYTE   VOL   11*song2C_mvl/mxv
 BYTE   W02
 BYTE   VOL   10*song2C_mvl/mxv
 BYTE   W01
 BYTE   VOL   9*song2C_mvl/mxv
 BYTE   W01
 BYTE   VOL   8*song2C_mvl/mxv
 BYTE   W02
 BYTE   VOL   7*song2C_mvl/mxv
 BYTE   W01
 BYTE   VOL   7*song2C_mvl/mxv
 BYTE   W01
 BYTE   VOL   6*song2C_mvl/mxv
 BYTE   W02
 BYTE   VOL   5*song2C_mvl/mxv
 BYTE   W01
 BYTE   EOT
 BYTE   En3
 BYTE   VOL   4*song2C_mvl/mxv
 BYTE   W01
 BYTE   EOT
 BYTE   Bn3
 BYTE   VOL   3*song2C_mvl/mxv
 BYTE   W01
 BYTE   W72
//  #06 //054   ----------------------------------------
 BYTE   W72
 BYTE   W72
//  #06 //055   ----------------------------------------
 BYTE   W72
 BYTE   W72
//  #06 //056   ----------------------------------------
 BYTE   W72
 BYTE   W72
//  #06 //057   ----------------------------------------
 BYTE   W72
 BYTE   W72
//  #06 //058   ----------------------------------------
 BYTE   W72
 BYTE   W72
//  #06 //059   ----------------------------------------
 BYTE   W72
 BYTE   W72
//  #06 //060   ----------------------------------------
 BYTE   W72
 BYTE   W72
//  #06 //061   ----------------------------------------
 BYTE   W72
 BYTE   W72
//  #06 //062   ----------------------------------------
 BYTE   W72
 BYTE   W72
//  #06 //063   ----------------------------------------
 BYTE   W72
 BYTE   W72
//  #06 //064   ----------------------------------------
 BYTE   W72
 BYTE   W72
//  #06 //065   ----------------------------------------
 BYTE   W72
 BYTE   W72
//  #06 //066   ----------------------------------------
 BYTE   W72
 BYTE   VOL   9*song2C_mvl/mxv
 BYTE   TIE  En4  v072
 BYTE   W01
 BYTE   Bn3  v024
 BYTE   W10
 BYTE   VOL   10*song2C_mvl/mxv
 BYTE   W05
 BYTE   VOL   11*song2C_mvl/mxv
 BYTE   W03
 BYTE   VOL   11*song2C_mvl/mxv
 BYTE   W03
 BYTE   VOL   12*song2C_mvl/mxv
 BYTE   W03
//  #06 //067   ----------------------------------------
 BYTE   VOL   14*song2C_mvl/mxv
 BYTE   W02
 BYTE   VOL   14*song2C_mvl/mxv
 BYTE   W03
 BYTE   VOL   15*song2C_mvl/mxv
 BYTE   W02
 BYTE   VOL   17*song2C_mvl/mxv
 BYTE   W02
 BYTE   VOL   18*song2C_mvl/mxv
 BYTE   W01
 BYTE   VOL   18*song2C_mvl/mxv
 BYTE   W02
 BYTE   VOL   20*song2C_mvl/mxv
 BYTE   W03
 BYTE   VOL   22*song2C_mvl/mxv
 BYTE   W02
 BYTE   VOL   24*song2C_mvl/mxv
 BYTE   W03
 BYTE   VOL   25*song2C_mvl/mxv
 BYTE   W03
 BYTE   VOL   29*song2C_mvl/mxv
 BYTE   W02
 BYTE   VOL   32*song2C_mvl/mxv
 BYTE   W01
 BYTE   VOL   33*song2C_mvl/mxv
 BYTE   W02
 BYTE   VOL   35*song2C_mvl/mxv
 BYTE   W02
 BYTE   VOL   37*song2C_mvl/mxv
 BYTE   W01
 BYTE   VOL   38*song2C_mvl/mxv
 BYTE   W01
 BYTE   VOL   39*song2C_mvl/mxv
 BYTE   W01
 BYTE   VOL   41*song2C_mvl/mxv
 BYTE   W02
 BYTE   VOL   45*song2C_mvl/mxv
 BYTE   W02
 BYTE   VOL   48*song2C_mvl/mxv
 BYTE   W01
 BYTE   VOL   50*song2C_mvl/mxv
 BYTE   W02
 BYTE   VOL   53*song2C_mvl/mxv
 BYTE   W02
 BYTE   VOL   56*song2C_mvl/mxv
 BYTE   W02
 BYTE   VOL   60*song2C_mvl/mxv
 BYTE   W01
 BYTE   VOL   62*song2C_mvl/mxv
 BYTE   W01
 BYTE   VOL   69*song2C_mvl/mxv
 BYTE   W01
 BYTE   W30
 BYTE   W01
 BYTE   VOL   68*song2C_mvl/mxv
 BYTE   W14
 BYTE   VOL   66*song2C_mvl/mxv
 BYTE   W10
//  #06 //068   ----------------------------------------
 BYTE   VOL   63*song2C_mvl/mxv
 BYTE   W08
 BYTE   VOL   62*song2C_mvl/mxv
 BYTE   W08
 BYTE   VOL   60*song2C_mvl/mxv
 BYTE   W01
 BYTE   W06
 BYTE   VOL   58*song2C_mvl/mxv
 BYTE   W06
 BYTE   VOL   56*song2C_mvl/mxv
 BYTE   W06
 BYTE   VOL   55*song2C_mvl/mxv
 BYTE   W05
 BYTE   VOL   53*song2C_mvl/mxv
 BYTE   W05
 BYTE   VOL   51*song2C_mvl/mxv
 BYTE   W05
 BYTE   VOL   50*song2C_mvl/mxv
 BYTE   W05
 BYTE   VOL   48*song2C_mvl/mxv
 BYTE   W05
 BYTE   VOL   46*song2C_mvl/mxv
 BYTE   W04
 BYTE   VOL   45*song2C_mvl/mxv
 BYTE   W04
 BYTE   VOL   43*song2C_mvl/mxv
 BYTE   W04
 BYTE   VOL   41*song2C_mvl/mxv
 BYTE   W04
 BYTE   VOL   39*song2C_mvl/mxv
 BYTE   W04
 BYTE   VOL   38*song2C_mvl/mxv
 BYTE   W04
 BYTE   VOL   37*song2C_mvl/mxv
 BYTE   W03
 BYTE   VOL   36*song2C_mvl/mxv
 BYTE   W02
 BYTE   W02
 BYTE   VOL   35*song2C_mvl/mxv
 BYTE   W03
 BYTE   VOL   33*song2C_mvl/mxv
 BYTE   W04
//  #06 //069   ----------------------------------------
 BYTE   VOL   32*song2C_mvl/mxv
 BYTE   W03
 BYTE   VOL   29*song2C_mvl/mxv
 BYTE   W03
 BYTE   VOL   29*song2C_mvl/mxv
 BYTE   W03
 BYTE   VOL   27*song2C_mvl/mxv
 BYTE   W03
 BYTE   VOL   25*song2C_mvl/mxv
 BYTE   W03
 BYTE   VOL   25*song2C_mvl/mxv
 BYTE   W03
 BYTE   VOL   24*song2C_mvl/mxv
 BYTE   W03
 BYTE   VOL   22*song2C_mvl/mxv
 BYTE   W03
 BYTE   VOL   22*song2C_mvl/mxv
 BYTE   W03
 BYTE   VOL   20*song2C_mvl/mxv
 BYTE   W03
 BYTE   VOL   18*song2C_mvl/mxv
 BYTE   W03
 BYTE   VOL   18*song2C_mvl/mxv
 BYTE   W02
 BYTE   VOL   17*song2C_mvl/mxv
 BYTE   W03
 BYTE   VOL   15*song2C_mvl/mxv
 BYTE   W03
 BYTE   VOL   14*song2C_mvl/mxv
 BYTE   W02
 BYTE   VOL   14*song2C_mvl/mxv
 BYTE   W03
 BYTE   VOL   12*song2C_mvl/mxv
 BYTE   W02
 BYTE   VOL   11*song2C_mvl/mxv
 BYTE   W03
 BYTE   VOL   11*song2C_mvl/mxv
 BYTE   W02
 BYTE   VOL   10*song2C_mvl/mxv
 BYTE   W03
 BYTE   VOL   9*song2C_mvl/mxv
 BYTE   W02
 BYTE   VOL   8*song2C_mvl/mxv
 BYTE   W03
 BYTE   VOL   7*song2C_mvl/mxv
 BYTE   W02
 BYTE   VOL   7*song2C_mvl/mxv
 BYTE   W68
//  #06 //070   ----------------------------------------
 BYTE   W03
 BYTE   EOT
 BYTE   En4
 BYTE   W01
 BYTE   Bn3
 BYTE   FINE

//**************** Track 7 (Midi-Chn.6) ****************//

song2C_007:
//  #07 //000   ----------------------------------------
 BYTE   KEYSH   song2C_key+0
 BYTE   VOICE   49
 BYTE   MODT 0
 BYTE   LFOS 44
 BYTE   W72
 BYTE   W72
//  #07 //001   ----------------------------------------
 BYTE   W72
 BYTE   W72
//  #07 //002   ----------------------------------------
 BYTE   W72
Label_010DC715:
 BYTE   PAN   c_v+0
 BYTE   VOL   100*song2C_mvl/mxv
 BYTE   W72
//  #07 //003   ----------------------------------------
 BYTE   W72
 BYTE   W72
//  #07 //004   ----------------------------------------
 BYTE   W72
 BYTE   W72
//  #07 //005   ----------------------------------------
 BYTE   W72
 BYTE   W01
 BYTE   VOL   66*song2C_mvl/mxv
 BYTE   W01
 BYTE   PAN   c_v-35
 BYTE   W01
 BYTE   W68
//  #07 //006   ----------------------------------------
 BYTE   W01
 BYTE   W72
Label_010DC729:
 BYTE   VOL   33*song2C_mvl/mxv
 BYTE   N68  Gn4  v088
 BYTE   W01
 BYTE   VOL   33*song2C_mvl/mxv
 BYTE   W02
 BYTE   VOL   35*song2C_mvl/mxv
 BYTE   N68  Gn3  v052
 BYTE   W02
 BYTE   VOL   37*song2C_mvl/mxv
 BYTE   W02
 BYTE   VOL   37*song2C_mvl/mxv
 BYTE   W03
 BYTE   VOL   39*song2C_mvl/mxv
 BYTE   W04
 BYTE   VOL   40*song2C_mvl/mxv
 BYTE   W04
 BYTE   VOL   42*song2C_mvl/mxv
 BYTE   W05
//  #07 //007   ----------------------------------------
 BYTE   VOL   43*song2C_mvl/mxv
 BYTE   W06
 BYTE   VOL   45*song2C_mvl/mxv
 BYTE   W06
 BYTE   VOL   47*song2C_mvl/mxv
 BYTE   W06
 BYTE   VOL   48*song2C_mvl/mxv
 BYTE   W07
 BYTE   VOL   50*song2C_mvl/mxv
 BYTE   W24
 BYTE   PEND 
Label_010DC757:
 BYTE   N68  Fs4  v092
 BYTE   W03
 BYTE   Fs3
 BYTE   W68
//  #07 //008   ----------------------------------------
 BYTE   W01
 BYTE   PEND 
Label_010DC75F:
 BYTE   N01  Fs4  v072
 BYTE   TIE  An4
 BYTE   W01
 BYTE   Fs4
 BYTE   W02
 BYTE   N01  Fs3
 BYTE   TIE  An3
 BYTE   W01
 BYTE   VOL   50*song2C_mvl/mxv
 BYTE   TIE  Fs3
 BYTE   W23
 BYTE   VOL   51*song2C_mvl/mxv
 BYTE   W24
 BYTE   VOL   53*song2C_mvl/mxv
 BYTE   W21
 BYTE   PEND 
Label_010DC778:
 BYTE   W02
 BYTE   VOL   54*song2C_mvl/mxv
 BYTE   W23
//  #07 //009   ----------------------------------------
 BYTE   VOL   56*song2C_mvl/mxv
 BYTE   W10
 BYTE   PEND 
 BYTE   EOT
 BYTE   An4
 BYTE   W01
 BYTE   N24  Bn4  v072
 BYTE   W02
 BYTE   EOT
 BYTE   An3
 BYTE   W01
 BYTE   N24  Bn3
 BYTE   W10
 BYTE   VOL   58*song2C_mvl/mxv
 BYTE   W11
 BYTE   N12  Cn4
 BYTE   N12  Cn5
 BYTE   W11
 BYTE   EOT
 BYTE   Fs4
 BYTE   W01
Label_010DC798:
 BYTE   TIE  Gn4  v072
 BYTE   TIE  Bn4
 BYTE   W02
 BYTE   PEND 
 BYTE   EOT
 BYTE   Fs3
 BYTE   W01
 BYTE   TIE  Gn3
 BYTE   TIE  Bn3
 BYTE   W68
//  #07 //010   ----------------------------------------
 BYTE   W01
 BYTE   W32
 BYTE   W02
 BYTE   EOT
 BYTE   Bn4
 BYTE   W03
 BYTE   Bn3
 BYTE   W32
 BYTE   W01
 BYTE   Gn4
 BYTE   W02
Label_010DC7B2:
 BYTE   TIE  Fs3  v072
 BYTE   TIE  As4
 BYTE   W01
 BYTE   PEND 
 BYTE   EOT
 BYTE   Gn3
 BYTE   W68
//  #07 //011   ----------------------------------------
 BYTE   W03
 BYTE   W32
 BYTE   W03
 BYTE   As4
 BYTE   W01
 BYTE   N32  Fs4
 BYTE   W32
 BYTE   W02
 BYTE   EOT
 BYTE   Fs3
 BYTE   W02
Label_010DC7C8:
 BYTE   TIE  An4  v072
 BYTE   W01
 BYTE   Fs3
 BYTE   W68
//  #07 //012   ----------------------------------------
 BYTE   W03
 BYTE   PEND 
 BYTE   W32
 BYTE   W03
 BYTE   EOT
 BYTE   An4
 BYTE   W01
 BYTE   N36  Fs4
 BYTE   W32
 BYTE   W03
 BYTE   EOT
 BYTE   Fs3
 BYTE   W01
Label_010DC7DC:
 BYTE   TIE  Gn3  v072
 BYTE   TIE  Gn4
 BYTE   TIE  Bn4  v040
 BYTE   W72
 BYTE   PEND 
//  #07 //013   ----------------------------------------
Label_010DC7E6:
 BYTE   VOL   53*song2C_mvl/mxv
 BYTE   W36
 BYTE   VOL   51*song2C_mvl/mxv
 BYTE   W14
 BYTE   VOL   50*song2C_mvl/mxv
 BYTE   W12
 BYTE   VOL   48*song2C_mvl/mxv
 BYTE   W09
 BYTE   VOL   43*song2C_mvl/mxv
 BYTE   W01
 BYTE   PEND 
Label_010DC7F6:
 BYTE   VOL   42*song2C_mvl/mxv
 BYTE   W13
 BYTE   VOL   43*song2C_mvl/mxv
 BYTE   W13
//  #07 //014   ----------------------------------------
 BYTE   VOL   45*song2C_mvl/mxv
 BYTE   W13
 BYTE   VOL   47*song2C_mvl/mxv
 BYTE   W13
 BYTE   VOL   48*song2C_mvl/mxv
 BYTE   W13
 BYTE   VOL   50*song2C_mvl/mxv
 BYTE   W07
 BYTE   PEND 
Label_010DC809:
 BYTE   W06
 BYTE   VOL   51*song2C_mvl/mxv
 BYTE   W13
 BYTE   VOL   53*song2C_mvl/mxv
 BYTE   W13
 BYTE   VOL   54*song2C_mvl/mxv
 BYTE   W13
 BYTE   VOL   56*song2C_mvl/mxv
 BYTE   W14
//  #07 //015   ----------------------------------------
 BYTE   VOL   58*song2C_mvl/mxv
 BYTE   W07
 BYTE   PEND 
 BYTE   EOT
 BYTE   Bn4
 BYTE   W03
 BYTE   Gn3  v079
 BYTE   W03
 BYTE   W72
 BYTE   W72
//  #07 //016   ----------------------------------------
 BYTE   W72
 BYTE   W72
//  #07 //017   ----------------------------------------
 BYTE   W72
 BYTE   W72
//  #07 //018   ----------------------------------------
 BYTE   W72
 BYTE   W72
//  #07 //019   ----------------------------------------
 BYTE   W72
 BYTE   W72
//  #07 //020   ----------------------------------------
 BYTE   W72
 BYTE   W72
//  #07 //021   ----------------------------------------
Label_010DC82C:
 BYTE   W01
 BYTE   BENDR  80
 BYTE   W68
 BYTE   W03
 BYTE   PEND 
 BYTE   W72
//  #07 //022   ----------------------------------------
 BYTE   W72
 BYTE   W72
//  #07 //023   ----------------------------------------
 BYTE   W72
Label_010DC836:
 BYTE   W68
//  #07 //024   ----------------------------------------
 BYTE   W03
 BYTE   VOL   10*song2C_mvl/mxv
 BYTE   W01
 BYTE   PEND 
Label_010DC83C:
 BYTE   VOL   14*song2C_mvl/mxv
 BYTE   TIE  An3  v092
 BYTE   W01
 BYTE   VOL   17*song2C_mvl/mxv
 BYTE   W02
 BYTE   VOL   19*song2C_mvl/mxv
 BYTE   W02
 BYTE   VOL   23*song2C_mvl/mxv
 BYTE   W02
 BYTE   VOL   25*song2C_mvl/mxv
 BYTE   W01
 BYTE   VOL   26*song2C_mvl/mxv
 BYTE   W02
 BYTE   VOL   29*song2C_mvl/mxv
 BYTE   W02
 BYTE   VOL   29*song2C_mvl/mxv
 BYTE   W03
 BYTE   VOL   33*song2C_mvl/mxv
 BYTE   W02
 BYTE   VOL   35*song2C_mvl/mxv
 BYTE   W01
 BYTE   VOL   37*song2C_mvl/mxv
 BYTE   W03
 BYTE   VOL   39*song2C_mvl/mxv
 BYTE   W02
 BYTE   VOL   40*song2C_mvl/mxv
 BYTE   W48
 BYTE   W01
 BYTE   PEND 
 BYTE   W68
//  #07 //025   ----------------------------------------
 BYTE   W03
 BYTE   EOT
 BYTE   W01
Label_010DC86C:
 BYTE   VOL   23*song2C_mvl/mxv
 BYTE   TIE  An3  v052
 BYTE   TIE  Dn4  v108
 BYTE   W01
 BYTE   VOL   26*song2C_mvl/mxv
 BYTE   W01
 BYTE   VOL   27*song2C_mvl/mxv
 BYTE   W01
 BYTE   VOL   29*song2C_mvl/mxv
 BYTE   W01
 BYTE   VOL   32*song2C_mvl/mxv
 BYTE   W01
 BYTE   VOL   33*song2C_mvl/mxv
 BYTE   W01
 BYTE   VOL   35*song2C_mvl/mxv
 BYTE   W03
 BYTE   VOL   37*song2C_mvl/mxv
 BYTE   W01
 BYTE   VOL   39*song2C_mvl/mxv
 BYTE   W02
 BYTE   VOL   42*song2C_mvl/mxv
 BYTE   W02
 BYTE   VOL   43*song2C_mvl/mxv
 BYTE   W01
 BYTE   VOL   45*song2C_mvl/mxv
 BYTE   W02
 BYTE   VOL   47*song2C_mvl/mxv
 BYTE   W01
 BYTE   VOL   48*song2C_mvl/mxv
 BYTE   W02
 BYTE   VOL   50*song2C_mvl/mxv
 BYTE   W02
 BYTE   VOL   51*song2C_mvl/mxv
 BYTE   W01
 BYTE   VOL   53*song2C_mvl/mxv
 BYTE   W48
 BYTE   W01
 BYTE   PEND 
 BYTE   W68
//  #07 //026   ----------------------------------------
 BYTE   W03
 BYTE   EOT
 BYTE   An3  v074
 BYTE   VOL   29*song2C_mvl/mxv
 BYTE   W01
Label_010DC8AF:
 BYTE   VOL   32*song2C_mvl/mxv
 BYTE   TIE  An3  v044
 BYTE   TIE  Dn4  v064
 BYTE   TIE  Gn4  v127
 BYTE   W06
 BYTE   VOL   33*song2C_mvl/mxv
 BYTE   W07
 BYTE   VOL   33*song2C_mvl/mxv
 BYTE   W07
 BYTE   VOL   35*song2C_mvl/mxv
 BYTE   W07
 BYTE   VOL   37*song2C_mvl/mxv
 BYTE   W07
 BYTE   VOL   37*song2C_mvl/mxv
 BYTE   W07
 BYTE   VOL   39*song2C_mvl/mxv
 BYTE   W06
 BYTE   VOL   40*song2C_mvl/mxv
 BYTE   W07
 BYTE   VOL   42*song2C_mvl/mxv
 BYTE   W07
 BYTE   VOL   43*song2C_mvl/mxv
 BYTE   W07
 BYTE   VOL   45*song2C_mvl/mxv
 BYTE   W04
 BYTE   PEND 
Label_010DC8DA:
 BYTE   W03
 BYTE   VOL   47*song2C_mvl/mxv
 BYTE   W07
 BYTE   VOL   48*song2C_mvl/mxv
 BYTE   W06
 BYTE   VOL   50*song2C_mvl/mxv
 BYTE   W07
//  #07 //027   ----------------------------------------
 BYTE   VOL   51*song2C_mvl/mxv
 BYTE   W07
 BYTE   VOL   53*song2C_mvl/mxv
 BYTE   W07
 BYTE   VOL   54*song2C_mvl/mxv
 BYTE   W07
 BYTE   VOL   56*song2C_mvl/mxv
 BYTE   W07
 BYTE   VOL   58*song2C_mvl/mxv
 BYTE   W10
 BYTE   VOL   58*song2C_mvl/mxv
 BYTE   W09
 BYTE   PEND 
 BYTE   EOT
 BYTE   Dn4
 BYTE   W01
 BYTE   An3  v079
 BYTE   W01
Label_010DC8FD:
 BYTE   VOL   66*song2C_mvl/mxv
 BYTE   TIE  Bn3  v032
 BYTE   TIE  En4
 BYTE   TIE  Fs4  v108
 BYTE   W72
 BYTE   PEND 
//  #07 //028   ----------------------------------------
 BYTE   W48
 BYTE   VOL   66*song2C_mvl/mxv
 BYTE   W24
Label_010DC90D:
 BYTE   W17
 BYTE   VOL   64*song2C_mvl/mxv
 BYTE   W06
 BYTE   VOL   62*song2C_mvl/mxv
 BYTE   W06
//  #07 //029   ----------------------------------------
 BYTE   VOL   61*song2C_mvl/mxv
 BYTE   W05
 BYTE   VOL   59*song2C_mvl/mxv
 BYTE   W05
 BYTE   VOL   58*song2C_mvl/mxv
 BYTE   W04
 BYTE   VOL   56*song2C_mvl/mxv
 BYTE   W04
 BYTE   VOL   54*song2C_mvl/mxv
 BYTE   W04
 BYTE   VOL   53*song2C_mvl/mxv
 BYTE   W04
 BYTE   VOL   51*song2C_mvl/mxv
 BYTE   W03
 BYTE   VOL   50*song2C_mvl/mxv
 BYTE   W03
 BYTE   VOL   48*song2C_mvl/mxv
 BYTE   W04
 BYTE   VOL   47*song2C_mvl/mxv
 BYTE   W03
 BYTE   VOL   45*song2C_mvl/mxv
 BYTE   W03
 BYTE   VOL   43*song2C_mvl/mxv
 BYTE   W01
 BYTE   PEND 
Label_010DC939:
 BYTE   W02
 BYTE   VOL   42*song2C_mvl/mxv
 BYTE   W03
 BYTE   VOL   40*song2C_mvl/mxv
 BYTE   W02
 BYTE   VOL   39*song2C_mvl/mxv
 BYTE   W03
 BYTE   VOL   37*song2C_mvl/mxv
 BYTE   W03
 BYTE   VOL   37*song2C_mvl/mxv
 BYTE   W02
 BYTE   VOL   35*song2C_mvl/mxv
 BYTE   W03
 BYTE   VOL   33*song2C_mvl/mxv
 BYTE   W02
 BYTE   VOL   33*song2C_mvl/mxv
 BYTE   W03
 BYTE   VOL   32*song2C_mvl/mxv
 BYTE   W02
 BYTE   VOL   29*song2C_mvl/mxv
 BYTE   W02
 BYTE   VOL   29*song2C_mvl/mxv
 BYTE   W02
 BYTE   VOL   27*song2C_mvl/mxv
 BYTE   W03
 BYTE   VOL   26*song2C_mvl/mxv
 BYTE   W02
 BYTE   VOL   25*song2C_mvl/mxv
 BYTE   W02
 BYTE   VOL   24*song2C_mvl/mxv
 BYTE   W02
 BYTE   VOL   23*song2C_mvl/mxv
 BYTE   W02
 BYTE   VOL   22*song2C_mvl/mxv
 BYTE   W02
 BYTE   VOL   21*song2C_mvl/mxv
 BYTE   W02
 BYTE   VOL   19*song2C_mvl/mxv
 BYTE   W02
 BYTE   VOL   18*song2C_mvl/mxv
 BYTE   W02
 BYTE   VOL   18*song2C_mvl/mxv
 BYTE   W02
 BYTE   VOL   17*song2C_mvl/mxv
 BYTE   W04
//  #07 //030   ----------------------------------------
 BYTE   VOL   14*song2C_mvl/mxv
 BYTE   W02
 BYTE   VOL   14*song2C_mvl/mxv
 BYTE   W02
 BYTE   VOL   12*song2C_mvl/mxv
 BYTE   W01
 BYTE   VOL   12*song2C_mvl/mxv
 BYTE   W04
 BYTE   VOL   10*song2C_mvl/mxv
 BYTE   W02
 BYTE   VOL   10*song2C_mvl/mxv
 BYTE   W01
 BYTE   VOL   8*song2C_mvl/mxv
 BYTE   W02
 BYTE   VOL   8*song2C_mvl/mxv
 BYTE   W03
 BYTE   PEND 
 BYTE   EOT
 BYTE   Bn3  v076
 BYTE   Fs4
 BYTE   W01
 BYTE   VOL   6*song2C_mvl/mxv
 BYTE   W72
 BYTE   W01
 BYTE   BENDR  64
 BYTE   W68
//  #07 //031   ----------------------------------------
 BYTE   W03
 BYTE   W72
 BYTE   W72
//  #07 //032   ----------------------------------------
 BYTE   GoTo
  POIN2 Label_010DC715
//  #07 //033   ----------------------------------------
 BYTE   W72
 BYTE   W72
//  #07 //034   ----------------------------------------
 BYTE   W72
 BYTE   W72
//  #07 //035   ----------------------------------------
 BYTE   W72
 BYTE   W72
//  #07 //036   ----------------------------------------
 BYTE   W72
 BYTE   W72
//  #07 //037   ----------------------------------------
 BYTE   PATT
  POIN2 Label_010DC729
//  #07 //038   ----------------------------------------
 BYTE   PATT
  POIN2 Label_010DC757
//  #07 //039   ----------------------------------------
 BYTE   PATT
  POIN2 Label_010DC75F
//  #07 //040   ----------------------------------------
 BYTE   PATT
  POIN2 Label_010DC778
//  #07 //041   ----------------------------------------
 BYTE   EOT
 BYTE   An4
 BYTE   W01
 BYTE   N24  Bn4  v072
 BYTE   W02
 BYTE   EOT
 BYTE   An3
 BYTE   W01
 BYTE   N24  Bn3
 BYTE   W10
 BYTE   VOL   58*song2C_mvl/mxv
 BYTE   W11
 BYTE   N12  Cn4
 BYTE   N12  Cn5
 BYTE   W11
 BYTE   EOT
 BYTE   Fs4
 BYTE   W01
//  #07 //042   ----------------------------------------
 BYTE   PATT
  POIN2 Label_010DC798
//  #07 //043   ----------------------------------------
 BYTE   EOT
 BYTE   Fs3
 BYTE   W01
 BYTE   TIE  Gn3  v072
 BYTE   TIE  Bn3
 BYTE   W68
 BYTE   W01
 BYTE   W32
//  #07 //044   ----------------------------------------
 BYTE   W02
 BYTE   EOT
 BYTE   Bn4
 BYTE   W03
 BYTE   Bn3
 BYTE   W32
 BYTE   W01
 BYTE   Gn4
 BYTE   W02
//  #07 //045   ----------------------------------------
 BYTE   PATT
  POIN2 Label_010DC7B2
//  #07 //046   ----------------------------------------
 BYTE   EOT
 BYTE   Gn3
 BYTE   W68
 BYTE   W03
 BYTE   W32
//  #07 //047   ----------------------------------------
 BYTE   W03
 BYTE   As4
 BYTE   W01
 BYTE   N32  Fs4  v072
 BYTE   W32
 BYTE   W02
 BYTE   EOT
 BYTE   Fs3
 BYTE   W02
//  #07 //048   ----------------------------------------
 BYTE   PATT
  POIN2 Label_010DC7C8
//  #07 //049   ----------------------------------------
 BYTE   W32
 BYTE   W03
 BYTE   EOT
 BYTE   An4
 BYTE   W01
 BYTE   N36  Fs4  v072
 BYTE   W32
 BYTE   W03
 BYTE   EOT
 BYTE   Fs3
 BYTE   W01
//  #07 //050   ----------------------------------------
 BYTE   PATT
  POIN2 Label_010DC7DC
//  #07 //051   ----------------------------------------
 BYTE   PATT
  POIN2 Label_010DC7E6
//  #07 //052   ----------------------------------------
 BYTE   PATT
  POIN2 Label_010DC7F6
//  #07 //053   ----------------------------------------
 BYTE   PATT
  POIN2 Label_010DC809
//  #07 //054   ----------------------------------------
 BYTE   EOT
 BYTE   Bn4
 BYTE   W03
 BYTE   Gn3  v079
 BYTE   W03
 BYTE   W72
 BYTE   W72
//  #07 //055   ----------------------------------------
 BYTE   W72
 BYTE   W72
//  #07 //056   ----------------------------------------
 BYTE   W72
 BYTE   W72
//  #07 //057   ----------------------------------------
 BYTE   W72
 BYTE   W72
//  #07 //058   ----------------------------------------
 BYTE   W72
 BYTE   W72
//  #07 //059   ----------------------------------------
 BYTE   W72
 BYTE   W72
//  #07 //060   ----------------------------------------
 BYTE   PATT
  POIN2 Label_010DC82C
//  #07 //061   ----------------------------------------
 BYTE   W72
 BYTE   W72
//  #07 //062   ----------------------------------------
 BYTE   W72
 BYTE   W72
//  #07 //063   ----------------------------------------
 BYTE   PATT
  POIN2 Label_010DC836
//  #07 //064   ----------------------------------------
 BYTE   PATT
  POIN2 Label_010DC83C
//  #07 //065   ----------------------------------------
 BYTE   W68
 BYTE   W03
 BYTE   EOT
 BYTE   An3
 BYTE   W01
//  #07 //066   ----------------------------------------
 BYTE   PATT
  POIN2 Label_010DC86C
//  #07 //067   ----------------------------------------
 BYTE   W68
 BYTE   W03
 BYTE   EOT
 BYTE   An3  v074
 BYTE   VOL   29*song2C_mvl/mxv
 BYTE   W01
//  #07 //068   ----------------------------------------
 BYTE   PATT
  POIN2 Label_010DC8AF
//  #07 //069   ----------------------------------------
 BYTE   PATT
  POIN2 Label_010DC8DA
//  #07 //070   ----------------------------------------
 BYTE   EOT
 BYTE   Dn4
 BYTE   W01
 BYTE   An3  v079
 BYTE   W01
//  #07 //071   ----------------------------------------
 BYTE   PATT
  POIN2 Label_010DC8FD
//  #07 //072   ----------------------------------------
 BYTE   W48
 BYTE   VOL   66*song2C_mvl/mxv
 BYTE   W24
//  #07 //073   ----------------------------------------
 BYTE   PATT
  POIN2 Label_010DC90D
//  #07 //074   ----------------------------------------
 BYTE   PATT
  POIN2 Label_010DC939
//  #07 //075   ----------------------------------------
 BYTE   EOT
 BYTE   Bn3  v076
 BYTE   Fs4
 BYTE   W01
 BYTE   VOL   6*song2C_mvl/mxv
 BYTE   W72
 BYTE   W72
//  #07 //076   ----------------------------------------
 BYTE   W72
 BYTE   W72
//  #07 //077   ----------------------------------------
 BYTE   W72
 BYTE   W72
//  #07 //078   ----------------------------------------
 BYTE   W72
 BYTE   W72
//  #07 //079   ----------------------------------------
 BYTE   W72
 BYTE   W72
//  #07 //080   ----------------------------------------
 BYTE   W72
 BYTE   VOL   47*song2C_mvl/mxv
 BYTE   W56
//  #07 //081   ----------------------------------------
 BYTE   W03
 BYTE   VOL   45*song2C_mvl/mxv
 BYTE   W13
 BYTE   N68  Gn4  v088
 BYTE   W03
 BYTE   Gn3  v052
 BYTE   W09
 BYTE   VOL   43*song2C_mvl/mxv
 BYTE   W19
 BYTE   VOL   42*song2C_mvl/mxv
 BYTE   W16
 BYTE   VOL   40*song2C_mvl/mxv
 BYTE   W14
 BYTE   VOL   39*song2C_mvl/mxv
 BYTE   W11
 BYTE   N68  Fs4  v092
 BYTE   W01
 BYTE   VOL   37*song2C_mvl/mxv
 BYTE   W02
 BYTE   N68  Fs3
 BYTE   W10
//  #07 //082   ----------------------------------------
 BYTE   VOL   37*song2C_mvl/mxv
 BYTE   W11
 BYTE   VOL   35*song2C_mvl/mxv
 BYTE   W10
 BYTE   VOL   33*song2C_mvl/mxv
 BYTE   W10
 BYTE   VOL   33*song2C_mvl/mxv
 BYTE   W09
 BYTE   VOL   32*song2C_mvl/mxv
 BYTE   W09
 BYTE   VOL   29*song2C_mvl/mxv
 BYTE   W08
 BYTE   VOL   29*song2C_mvl/mxv
 BYTE   W02
 BYTE   N01  Fs4  v072
 BYTE   TIE  An4
 BYTE   W01
 BYTE   Fs4
 BYTE   W02
 BYTE   N01  Fs3
 BYTE   TIE  An3
 BYTE   W01
 BYTE   Fs3
 BYTE   W02
 BYTE   VOL   27*song2C_mvl/mxv
 BYTE   W08
 BYTE   VOL   26*song2C_mvl/mxv
 BYTE   W08
 BYTE   VOL   25*song2C_mvl/mxv
 BYTE   W07
 BYTE   VOL   24*song2C_mvl/mxv
 BYTE   W07
 BYTE   VOL   23*song2C_mvl/mxv
 BYTE   W07
//  #07 //083   ----------------------------------------
 BYTE   VOL   22*song2C_mvl/mxv
 BYTE   W07
 BYTE   VOL   21*song2C_mvl/mxv
 BYTE   W06
 BYTE   VOL   19*song2C_mvl/mxv
 BYTE   W07
 BYTE   VOL   18*song2C_mvl/mxv
 BYTE   W06
 BYTE   VOL   18*song2C_mvl/mxv
 BYTE   W03
 BYTE   W03
 BYTE   VOL   17*song2C_mvl/mxv
 BYTE   W06
 BYTE   VOL   15*song2C_mvl/mxv
 BYTE   W06
 BYTE   VOL   14*song2C_mvl/mxv
 BYTE   W06
 BYTE   VOL   14*song2C_mvl/mxv
 BYTE   W05
 BYTE   VOL   12*song2C_mvl/mxv
 BYTE   W06
 BYTE   VOL   12*song2C_mvl/mxv
 BYTE   W03
 BYTE   EOT
 BYTE   An4
 BYTE   W01
 BYTE   N24  Bn4
 BYTE   W01
 BYTE   VOL   11*song2C_mvl/mxv
 BYTE   W01
 BYTE   EOT
 BYTE   An3
 BYTE   W01
 BYTE   N24  Bn3
 BYTE   W04
 BYTE   VOL   10*song2C_mvl/mxv
 BYTE   W05
 BYTE   VOL   10*song2C_mvl/mxv
 BYTE   W05
 BYTE   VOL   8*song2C_mvl/mxv
 BYTE   W05
 BYTE   VOL   8*song2C_mvl/mxv
 BYTE   W02
 BYTE   N12  Cn4
 BYTE   N12  Cn5
 BYTE   W03
 BYTE   VOL   7*song2C_mvl/mxv
 BYTE   W05
//  #07 //084   ----------------------------------------
 BYTE   VOL   6*song2C_mvl/mxv
 BYTE   W03
 BYTE   EOT
 BYTE   Fs4
 BYTE   W01
 BYTE   W01
 BYTE   VOL   6*song2C_mvl/mxv
 BYTE   W01
 BYTE   EOT
 BYTE   Fs3
 BYTE   W04
 BYTE   VOL   5*song2C_mvl/mxv
 BYTE   W05
 BYTE   VOL   4*song2C_mvl/mxv
 BYTE   W05
 BYTE   VOL   3*song2C_mvl/mxv
 BYTE   W04
 BYTE   VOL   3*song2C_mvl/mxv
 BYTE   W05
 BYTE   VOL   3*song2C_mvl/mxv
 BYTE   W04
 BYTE   VOL   2*song2C_mvl/mxv
 BYTE   W05
 BYTE   VOL   2*song2C_mvl/mxv
 BYTE   W04
 BYTE   VOL   1*song2C_mvl/mxv
 BYTE   W05
 BYTE   VOL   1*song2C_mvl/mxv
 BYTE   W04
 BYTE   VOL   0*song2C_mvl/mxv
 BYTE   W04
 BYTE   VOL   0*song2C_mvl/mxv
 BYTE   W05
 BYTE   VOL   0*song2C_mvl/mxv
 BYTE   W04
 BYTE   VOL   0*song2C_mvl/mxv
 BYTE   W04
 BYTE   VOL   0*song2C_mvl/mxv
 BYTE   W04
 BYTE   VOL   0*song2C_mvl/mxv
 BYTE   W04
 BYTE   VOL   0*song2C_mvl/mxv
 BYTE   FINE

//**************** Track 8 (Midi-Chn.7) ****************//

song2C_008:
//  #08 //000   ----------------------------------------
 BYTE   KEYSH   song2C_key+0
 BYTE   VOICE   124
 BYTE   MODT 0
 BYTE   LFOS 44
 BYTE   PAN   c_v+21
 BYTE   VOL   57*song2C_mvl/mxv
 BYTE   BENDR  100
 BYTE   W72
 BYTE   W72
//  #08 //001   ----------------------------------------
 BYTE   W72
 BYTE   W32
//  #08 //002   ----------------------------------------
 BYTE   W03
 BYTE   N24  Fs2  v084
 BYTE   W36
 BYTE   W01
 BYTE   En2  v028
 BYTE   W36
 BYTE   Fs2  v052
 BYTE   W36
//  #08 //003   ----------------------------------------
Label_010DCB96:
 BYTE   W36
 BYTE   N24  Fs2  v084
 BYTE   W36
Label_010DCB9B:
 BYTE   N24  En2  v024
 BYTE   N06  Bn4
 BYTE   W32
//  #08 //004   ----------------------------------------
 BYTE   W03
 BYTE   N24  Fs2  v052
 BYTE   W36
 BYTE   W01
 BYTE   PEND 
 BYTE   W36
 BYTE   N24
 BYTE   W36
//  #08 //005   ----------------------------------------
Label_010DCBAB:
 BYTE   N06  En2  v020
 BYTE   N06  Bn4
 BYTE   W36
 BYTE   N24  Fs2  v052
 BYTE   W36
 BYTE   PEND 
Label_010DCBB6:
 BYTE   W32
//  #08 //006   ----------------------------------------
 BYTE   W03
 BYTE   N24  Fs2  v084
 BYTE   W36
 BYTE   En2  v028
 BYTE   W01
 BYTE   PEND 
Label_010DCBC0:
 BYTE   W32
 BYTE   W03
 BYTE   N24  Fs2  v052
 BYTE   W36
//  #08 //007   ----------------------------------------
 BYTE   W01
 BYTE   PEND 
Label_010DCBC8:
 BYTE   W32
 BYTE   W03
 BYTE   N24  Fs2  v084
 BYTE   W36
 BYTE   En2  v024
 BYTE   W01
 BYTE   PEND 
Label_010DCBD2:
 BYTE   N06  Bn4  v024
 BYTE   W32
//  #08 //008   ----------------------------------------
 BYTE   W03
 BYTE   N24  Fs2  v052
 BYTE   W36
 BYTE   W01
 BYTE   PEND 
 BYTE   W36
 BYTE   Fs2  v084
 BYTE   W36
//  #08 //009   ----------------------------------------
 BYTE   PATT
  POIN2 Label_010DCB9B
//  #08 //010   ----------------------------------------
 BYTE   W36
 BYTE   N24  Fs2  v084
 BYTE   W36
Label_010DCBEB:
 BYTE   N24  En2  v024
 BYTE   N06  Bn4
 BYTE   W36
//  #08 //011   ----------------------------------------
 BYTE   N24  Fs2  v052
 BYTE   W36
 BYTE   PEND 
 BYTE   W36
 BYTE   Fs2  v084
 BYTE   W36
//  #08 //012   ----------------------------------------
 BYTE   PATT
  POIN2 Label_010DCB9B
//  #08 //013   ----------------------------------------
 BYTE   PATT
  POIN2 Label_010DCBC8
//  #08 //014   ----------------------------------------
 BYTE   PATT
  POIN2 Label_010DCBD2
//  #08 //015   ----------------------------------------
 BYTE   PATT
  POIN2 Label_010DCBC8
//  #08 //016   ----------------------------------------
 BYTE   PATT
  POIN2 Label_010DCBD2
//  #08 //017   ----------------------------------------
 BYTE   PATT
  POIN2 Label_010DCBC8
//  #08 //018   ----------------------------------------
 BYTE   PATT
  POIN2 Label_010DCBD2
//  #08 //019   ----------------------------------------
 BYTE   PATT
  POIN2 Label_010DCBC8
//  #08 //020   ----------------------------------------
 BYTE   PATT
  POIN2 Label_010DCBD2
//  #08 //021   ----------------------------------------
 BYTE   W36
 BYTE   N24  Fs2  v084
 BYTE   W36
//  #08 //022   ----------------------------------------
 BYTE   PATT
  POIN2 Label_010DCB9B
//  #08 //023   ----------------------------------------
 BYTE   W36
 BYTE   N24  Fs2  v084
 BYTE   W36
//  #08 //024   ----------------------------------------
 BYTE   PATT
  POIN2 Label_010DCB9B
//  #08 //025   ----------------------------------------
 BYTE   PATT
  POIN2 Label_010DCBC8
//  #08 //026   ----------------------------------------
 BYTE   PATT
  POIN2 Label_010DCBD2
//  #08 //027   ----------------------------------------
 BYTE   PATT
  POIN2 Label_010DCBC8
//  #08 //028   ----------------------------------------
 BYTE   PATT
  POIN2 Label_010DCBD2
//  #08 //029   ----------------------------------------
 BYTE   W36
 BYTE   N24  Fs2  v084
 BYTE   W36
//  #08 //030   ----------------------------------------
 BYTE   PATT
  POIN2 Label_010DCB9B
//  #08 //031   ----------------------------------------
 BYTE   W36
 BYTE   N24  Fs2  v084
 BYTE   W36
//  #08 //032   ----------------------------------------
 BYTE   PATT
  POIN2 Label_010DCB9B
//  #08 //033   ----------------------------------------
 BYTE   PATT
  POIN2 Label_010DCBC8
//  #08 //034   ----------------------------------------
 BYTE   PATT
  POIN2 Label_010DCBD2
//  #08 //035   ----------------------------------------
 BYTE   PATT
  POIN2 Label_010DCBC8
//  #08 //036   ----------------------------------------
 BYTE   PATT
  POIN2 Label_010DCBD2
//  #08 //037   ----------------------------------------
 BYTE   PATT
  POIN2 Label_010DCBC8
//  #08 //038   ----------------------------------------
 BYTE   PATT
  POIN2 Label_010DCBD2
//  #08 //039   ----------------------------------------
 BYTE   PATT
  POIN2 Label_010DCBC8
//  #08 //040   ----------------------------------------
 BYTE   PATT
  POIN2 Label_010DCBD2
//  #08 //041   ----------------------------------------
 BYTE   W36
 BYTE   N24  Fs2  v084
 BYTE   W36
//  #08 //042   ----------------------------------------
 BYTE   PATT
  POIN2 Label_010DCB9B
//  #08 //043   ----------------------------------------
 BYTE   PATT
  POIN2 Label_010DCBC8
//  #08 //044   ----------------------------------------
 BYTE   PATT
  POIN2 Label_010DCBD2
//  #08 //045   ----------------------------------------
 BYTE   W36
 BYTE   N24  Fs2  v084
 BYTE   W36
//  #08 //046   ----------------------------------------
 BYTE   PATT
  POIN2 Label_010DCB9B
//  #08 //047   ----------------------------------------
 BYTE   W36
 BYTE   N24  Fs2  v084
 BYTE   W36
//  #08 //048   ----------------------------------------
 BYTE   PATT
  POIN2 Label_010DCB9B
//  #08 //049   ----------------------------------------
 BYTE   W36
 BYTE   N24  Fs2  v084
 BYTE   W36
//  #08 //050   ----------------------------------------
 BYTE   PATT
  POIN2 Label_010DCB9B
//  #08 //051   ----------------------------------------
 BYTE   W36
 BYTE   N24  Fs2  v084
 BYTE   W36
Label_010DCCC2:
 BYTE   N24  En2  v024
 BYTE   W01
 BYTE   N06  Bn4
 BYTE   W32
//  #08 //052   ----------------------------------------
 BYTE   W03
 BYTE   N24  Fs2  v052
 BYTE   W36
 BYTE   PEND 
 BYTE   GoTo
  POIN2 Label_010DCB96
//  #08 //053   ----------------------------------------
 BYTE   W36
 BYTE   N24  Fs2  v084
 BYTE   W36
//  #08 //054   ----------------------------------------
 BYTE   PATT
  POIN2 Label_010DCB9B
//  #08 //055   ----------------------------------------
 BYTE   W36
 BYTE   N24  Fs2  v052
 BYTE   W36
//  #08 //056   ----------------------------------------
 BYTE   PATT
  POIN2 Label_010DCBAB
//  #08 //057   ----------------------------------------
 BYTE   PATT
  POIN2 Label_010DCBB6
//  #08 //058   ----------------------------------------
 BYTE   PATT
  POIN2 Label_010DCBC0
//  #08 //059   ----------------------------------------
 BYTE   PATT
  POIN2 Label_010DCBC8
//  #08 //060   ----------------------------------------
 BYTE   PATT
  POIN2 Label_010DCBD2
//  #08 //061   ----------------------------------------
 BYTE   W36
 BYTE   N24  Fs2  v084
 BYTE   W36
//  #08 //062   ----------------------------------------
 BYTE   PATT
  POIN2 Label_010DCB9B
//  #08 //063   ----------------------------------------
 BYTE   W36
 BYTE   N24  Fs2  v084
 BYTE   W36
//  #08 //064   ----------------------------------------
 BYTE   PATT
  POIN2 Label_010DCBEB
//  #08 //065   ----------------------------------------
 BYTE   W36
 BYTE   N24  Fs2  v084
 BYTE   W36
//  #08 //066   ----------------------------------------
 BYTE   PATT
  POIN2 Label_010DCB9B
//  #08 //067   ----------------------------------------
 BYTE   PATT
  POIN2 Label_010DCBC8
//  #08 //068   ----------------------------------------
 BYTE   PATT
  POIN2 Label_010DCBD2
//  #08 //069   ----------------------------------------
 BYTE   PATT
  POIN2 Label_010DCBC8
//  #08 //070   ----------------------------------------
 BYTE   PATT
  POIN2 Label_010DCBD2
//  #08 //071   ----------------------------------------
 BYTE   PATT
  POIN2 Label_010DCBC8
//  #08 //072   ----------------------------------------
 BYTE   PATT
  POIN2 Label_010DCBD2
//  #08 //073   ----------------------------------------
 BYTE   PATT
  POIN2 Label_010DCBC8
//  #08 //074   ----------------------------------------
 BYTE   PATT
  POIN2 Label_010DCBD2
//  #08 //075   ----------------------------------------
 BYTE   W36
 BYTE   N24  Fs2  v084
 BYTE   W36
//  #08 //076   ----------------------------------------
 BYTE   PATT
  POIN2 Label_010DCB9B
//  #08 //077   ----------------------------------------
 BYTE   W36
 BYTE   N24  Fs2  v084
 BYTE   W36
//  #08 //078   ----------------------------------------
 BYTE   PATT
  POIN2 Label_010DCB9B
//  #08 //079   ----------------------------------------
 BYTE   PATT
  POIN2 Label_010DCBC8
//  #08 //080   ----------------------------------------
 BYTE   PATT
  POIN2 Label_010DCBD2
//  #08 //081   ----------------------------------------
 BYTE   PATT
  POIN2 Label_010DCBC8
//  #08 //082   ----------------------------------------
 BYTE   PATT
  POIN2 Label_010DCBD2
//  #08 //083   ----------------------------------------
 BYTE   W36
 BYTE   N24  Fs2  v084
 BYTE   W36
//  #08 //084   ----------------------------------------
 BYTE   PATT
  POIN2 Label_010DCB9B
//  #08 //085   ----------------------------------------
 BYTE   W36
 BYTE   N24  Fs2  v084
 BYTE   W36
//  #08 //086   ----------------------------------------
 BYTE   PATT
  POIN2 Label_010DCB9B
//  #08 //087   ----------------------------------------
 BYTE   PATT
  POIN2 Label_010DCBC8
//  #08 //088   ----------------------------------------
 BYTE   PATT
  POIN2 Label_010DCBD2
//  #08 //089   ----------------------------------------
 BYTE   PATT
  POIN2 Label_010DCBC8
//  #08 //090   ----------------------------------------
 BYTE   PATT
  POIN2 Label_010DCBD2
//  #08 //091   ----------------------------------------
 BYTE   PATT
  POIN2 Label_010DCBC8
//  #08 //092   ----------------------------------------
 BYTE   PATT
  POIN2 Label_010DCBD2
//  #08 //093   ----------------------------------------
 BYTE   PATT
  POIN2 Label_010DCBC8
//  #08 //094   ----------------------------------------
 BYTE   PATT
  POIN2 Label_010DCBD2
//  #08 //095   ----------------------------------------
 BYTE   W36
 BYTE   N24  Fs2  v084
 BYTE   W36
//  #08 //096   ----------------------------------------
 BYTE   PATT
  POIN2 Label_010DCB9B
//  #08 //097   ----------------------------------------
 BYTE   PATT
  POIN2 Label_010DCBC8
//  #08 //098   ----------------------------------------
 BYTE   PATT
  POIN2 Label_010DCBD2
//  #08 //099   ----------------------------------------
 BYTE   W36
 BYTE   N24  Fs2  v084
 BYTE   W36
//  #08 //100   ----------------------------------------
 BYTE   PATT
  POIN2 Label_010DCB9B
//  #08 //101   ----------------------------------------
 BYTE   W36
 BYTE   N24  Fs2  v084
 BYTE   W36
//  #08 //102   ----------------------------------------
 BYTE   PATT
  POIN2 Label_010DCB9B
//  #08 //103   ----------------------------------------
 BYTE   W36
 BYTE   N24  Fs2  v084
 BYTE   W36
//  #08 //104   ----------------------------------------
 BYTE   PATT
  POIN2 Label_010DCB9B
//  #08 //105   ----------------------------------------
 BYTE   W36
 BYTE   N24  Fs2  v084
 BYTE   W36
//  #08 //106   ----------------------------------------
 BYTE   PATT
  POIN2 Label_010DCCC2
//  #08 //107   ----------------------------------------
 BYTE   W36
 BYTE   N24  Fs2  v084
 BYTE   W36
//  #08 //108   ----------------------------------------
 BYTE   PATT
  POIN2 Label_010DCB9B
//  #08 //109   ----------------------------------------
 BYTE   W36
 BYTE   N24  Fs2  v052
 BYTE   W36
//  #08 //110   ----------------------------------------
 BYTE   PATT
  POIN2 Label_010DCBAB
//  #08 //111   ----------------------------------------
 BYTE   PATT
  POIN2 Label_010DCBB6
//  #08 //112   ----------------------------------------
 BYTE   W32
 BYTE   W03
 BYTE   N24  Fs2  v052
 BYTE   W36
 BYTE   VOL   48*song2C_mvl/mxv
 BYTE   W01
//  #08 //113   ----------------------------------------
 BYTE   PATT
  POIN2 Label_010DCBC8
//  #08 //114   ----------------------------------------
 BYTE   N06  Bn4  v024
 BYTE   W04
 BYTE   VOL   46*song2C_mvl/mxv
 BYTE   W30
 BYTE   W01
 BYTE   N24  Fs2  v052
 BYTE   W01
 BYTE   VOL   45*song2C_mvl/mxv
 BYTE   W24
 BYTE   W01
 BYTE   VOL   45*song2C_mvl/mxv
 BYTE   W11
 BYTE   W09
 BYTE   VOL   44*song2C_mvl/mxv
 BYTE   W19
//  #08 //115   ----------------------------------------
 BYTE   VOL   44*song2C_mvl/mxv
 BYTE   W08
 BYTE   N24  Fs2  v084
 BYTE   W08
 BYTE   VOL   43*song2C_mvl/mxv
 BYTE   W15
 BYTE   VOL   42*song2C_mvl/mxv
 BYTE   W13
 BYTE   N24  En2  v024
 BYTE   N06  Bn4
 BYTE   W01
 BYTE   VOL   42*song2C_mvl/mxv
 BYTE   W13
 BYTE   VOL   41*song2C_mvl/mxv
 BYTE   W13
 BYTE   VOL   40*song2C_mvl/mxv
 BYTE   W08
 BYTE   N24  Fs2  v052
 BYTE   W04
 BYTE   VOL   38*song2C_mvl/mxv
 BYTE   W11
 BYTE   VOL   38*song2C_mvl/mxv
 BYTE   W11
//  #08 //116   ----------------------------------------
 BYTE   VOL   38*song2C_mvl/mxv
 BYTE   W10
 BYTE   VOL   38*song2C_mvl/mxv
 BYTE   W01
 BYTE   W10
 BYTE   VOL   37*song2C_mvl/mxv
 BYTE   W09
 BYTE   VOL   35*song2C_mvl/mxv
 BYTE   W10
 BYTE   VOL   34*song2C_mvl/mxv
 BYTE   W07
 BYTE   N24  Fs2  v084
 BYTE   W02
 BYTE   VOL   34*song2C_mvl/mxv
 BYTE   W09
 BYTE   VOL   34*song2C_mvl/mxv
 BYTE   W09
 BYTE   VOL   33*song2C_mvl/mxv
 BYTE   W08
 BYTE   VOL   32*song2C_mvl/mxv
 BYTE   W08
 BYTE   VOL   32*song2C_mvl/mxv
 BYTE   N24  En2  v024
 BYTE   N06  Bn4
 BYTE   W09
 BYTE   VOL   31*song2C_mvl/mxv
 BYTE   W07
//  #08 //117   ----------------------------------------
 BYTE   VOL   31*song2C_mvl/mxv
 BYTE   W08
 BYTE   VOL   30*song2C_mvl/mxv
 BYTE   W08
 BYTE   VOL   29*song2C_mvl/mxv
 BYTE   W04
 BYTE   N24  Fs2  v052
 BYTE   W03
 BYTE   VOL   28*song2C_mvl/mxv
 BYTE   W08
 BYTE   VOL   28*song2C_mvl/mxv
 BYTE   W07
 BYTE   VOL   27*song2C_mvl/mxv
 BYTE   W07
 BYTE   VOL   27*song2C_mvl/mxv
 BYTE   W07
 BYTE   VOL   27*song2C_mvl/mxv
 BYTE   W04
 BYTE   W03
 BYTE   VOL   26*song2C_mvl/mxv
 BYTE   W07
 BYTE   VOL   26*song2C_mvl/mxv
 BYTE   W06
 BYTE   VOL   25*song2C_mvl/mxv
 BYTE   W07
 BYTE   VOL   25*song2C_mvl/mxv
 BYTE   W06
 BYTE   VOL   24*song2C_mvl/mxv
 BYTE   W07
 BYTE   VOL   24*song2C_mvl/mxv
 BYTE   N24
 BYTE   W06
//  #08 //118   ----------------------------------------
 BYTE   VOL   23*song2C_mvl/mxv
 BYTE   W06
 BYTE   VOL   23*song2C_mvl/mxv
 BYTE   W06
 BYTE   VOL   23*song2C_mvl/mxv
 BYTE   W06
 BYTE   VOL   23*song2C_mvl/mxv
 BYTE   W06
 BYTE   VOL   22*song2C_mvl/mxv
 BYTE   W06
 BYTE   VOL   22*song2C_mvl/mxv
 BYTE   FINE

//**************** Track 9 (Midi-Chn.8) ****************//

song2C_009:
//  #09 //000   ----------------------------------------
 BYTE   KEYSH   song2C_key+0
 BYTE   VOICE   14
 BYTE   MODT 0
 BYTE   LFOS 44
 BYTE   PAN   c_v-45
 BYTE   VOL   81*song2C_mvl/mxv
 BYTE   W72
 BYTE   W72
//  #09 //001   ----------------------------------------
 BYTE   W72
 BYTE   W72
//  #09 //002   ----------------------------------------
 BYTE   W72
Label_5680A1:
 BYTE   W72
//  #09 //003   ----------------------------------------
 BYTE   W72
 BYTE   W72
//  #09 //004   ----------------------------------------
 BYTE   W72
 BYTE   N48  Gs3  v100
 BYTE   W72
//  #09 //005   ----------------------------------------
 BYTE   W72
 BYTE   W72
//  #09 //006   ----------------------------------------
 BYTE   W72
 BYTE   W72
//  #09 //007   ----------------------------------------
 BYTE   W72
 BYTE   W72
//  #09 //008   ----------------------------------------
 BYTE   W72
 BYTE   W72
//  #09 //009   ----------------------------------------
 BYTE   W72
 BYTE   W72
//  #09 //010   ----------------------------------------
 BYTE   W72
 BYTE   W72
//  #09 //011   ----------------------------------------
 BYTE   W72
 BYTE   W72
//  #09 //012   ----------------------------------------
 BYTE   W72
 BYTE   W72
//  #09 //013   ----------------------------------------
 BYTE   W72
 BYTE   N24
 BYTE   W72
//  #09 //014   ----------------------------------------
 BYTE   W72
 BYTE   W72
//  #09 //015   ----------------------------------------
 BYTE   W72
 BYTE   W72
//  #09 //016   ----------------------------------------
 BYTE   W72
 BYTE   W72
//  #09 //017   ----------------------------------------
 BYTE   W72
 BYTE   W72
//  #09 //018   ----------------------------------------
 BYTE   W72
 BYTE   W72
//  #09 //019   ----------------------------------------
 BYTE   W72
 BYTE   W72
//  #09 //020   ----------------------------------------
 BYTE   W72
 BYTE   W72
//  #09 //021   ----------------------------------------
 BYTE   W72
 BYTE   W72
//  #09 //022   ----------------------------------------
 BYTE   W72
 BYTE   W72
//  #09 //023   ----------------------------------------
 BYTE   W72
 BYTE   W72
//  #09 //024   ----------------------------------------
 BYTE   W72
 BYTE   W72
//  #09 //025   ----------------------------------------
 BYTE   W72
 BYTE   N22  As3  v104
 BYTE   W72
//  #09 //026   ----------------------------------------
 BYTE   W72
 BYTE   W72
//  #09 //027   ----------------------------------------
 BYTE   W72
 BYTE   W72
//  #09 //028   ----------------------------------------
 BYTE   W72
 BYTE   W72
//  #09 //029   ----------------------------------------
 BYTE   W72
 BYTE   GoTo
  POIN2 Label_5680A1
//  #09 //030   ----------------------------------------
 BYTE   W72
 BYTE   W72
//  #09 //031   ----------------------------------------
 BYTE   W72
 BYTE   W72
//  #09 //032   ----------------------------------------
 BYTE   N48  Gs3  v100
 BYTE   W72
 BYTE   W72
//  #09 //033   ----------------------------------------
 BYTE   W72
 BYTE   W72
//  #09 //034   ----------------------------------------
 BYTE   W72
 BYTE   W72
//  #09 //035   ----------------------------------------
 BYTE   W72
 BYTE   W72
//  #09 //036   ----------------------------------------
 BYTE   W72
 BYTE   W72
//  #09 //037   ----------------------------------------
 BYTE   W72
 BYTE   W72
//  #09 //038   ----------------------------------------
 BYTE   W72
 BYTE   W72
//  #09 //039   ----------------------------------------
 BYTE   W72
 BYTE   W72
//  #09 //040   ----------------------------------------
 BYTE   W72
 BYTE   W72
//  #09 //041   ----------------------------------------
 BYTE   N24
 BYTE   W72
 BYTE   W72
//  #09 //042   ----------------------------------------
 BYTE   W72
 BYTE   W72
//  #09 //043   ----------------------------------------
 BYTE   W72
 BYTE   W72
//  #09 //044   ----------------------------------------
 BYTE   W72
 BYTE   W72
//  #09 //045   ----------------------------------------
 BYTE   W72
 BYTE   W72
//  #09 //046   ----------------------------------------
 BYTE   W72
 BYTE   W72
//  #09 //047   ----------------------------------------
 BYTE   W72
 BYTE   W72
//  #09 //048   ----------------------------------------
 BYTE   W72
 BYTE   W72
//  #09 //049   ----------------------------------------
 BYTE   W72
 BYTE   W72
//  #09 //050   ----------------------------------------
 BYTE   W72
 BYTE   W72
//  #09 //051   ----------------------------------------
 BYTE   W72
 BYTE   W72
//  #09 //052   ----------------------------------------
 BYTE   W72
 BYTE   W72
//  #09 //053   ----------------------------------------
 BYTE   N22  As3  v104
 BYTE   W72
 BYTE   W72
//  #09 //054   ----------------------------------------
 BYTE   W72
 BYTE   W72
//  #09 //055   ----------------------------------------
 BYTE   W72
 BYTE   W72
//  #09 //056   ----------------------------------------
 BYTE   W72
 BYTE   W72
//  #09 //057   ----------------------------------------
 BYTE   W72
 BYTE   W72
//  #09 //058   ----------------------------------------
 BYTE   W72
 BYTE   W68
//  #09 //059   ----------------------------------------
 BYTE   W03
 BYTE   N48  Gs3  v052
 BYTE   W01
 BYTE   W44
 BYTE   W03
 BYTE   FINE

//**************** Track 10 (Midi-Chn.9) ****************//

song2C_010:
//  #10 //000   ----------------------------------------
 BYTE   KEYSH   song2C_key+0
 BYTE   VOICE   49
 BYTE   MODT 0
 BYTE   LFOS 44
 BYTE   PAN   c_v-30
 BYTE   VOL   61*song2C_mvl/mxv
 BYTE   W72
 BYTE   W72
//  #10 //001   ----------------------------------------
 BYTE   W72
 BYTE   W72
//  #10 //002   ----------------------------------------
 BYTE   W72
Label_010DCEC5:
 BYTE   VOL   61*song2C_mvl/mxv
 BYTE   W72
//  #10 //003   ----------------------------------------
 BYTE   W72
 BYTE   W72
//  #10 //004   ----------------------------------------
 BYTE   W72
 BYTE   W72
//  #10 //005   ----------------------------------------
 BYTE   W72
 BYTE   W72
//  #10 //006   ----------------------------------------
 BYTE   W68
 BYTE   W03
 BYTE   VOL   20*song2C_mvl/mxv
 BYTE   W01
 BYTE   VOL   24*song2C_mvl/mxv
 BYTE   N68  Bn2  v048
 BYTE   W01
 BYTE   VOL   24*song2C_mvl/mxv
 BYTE   W02
 BYTE   VOL   29*song2C_mvl/mxv
 BYTE   W01
 BYTE   VOL   30*song2C_mvl/mxv
 BYTE   W01
 BYTE   VOL   32*song2C_mvl/mxv
 BYTE   W02
 BYTE   VOL   34*song2C_mvl/mxv
 BYTE   W02
 BYTE   VOL   35*song2C_mvl/mxv
 BYTE   W02
 BYTE   VOL   36*song2C_mvl/mxv
 BYTE   W01
 BYTE   VOL   37*song2C_mvl/mxv
 BYTE   W01
 BYTE   VOL   38*song2C_mvl/mxv
 BYTE   W01
 BYTE   VOL   39*song2C_mvl/mxv
 BYTE   W02
 BYTE   VOL   40*song2C_mvl/mxv
 BYTE   W01
 BYTE   VOL   42*song2C_mvl/mxv
 BYTE   W02
 BYTE   VOL   43*song2C_mvl/mxv
 BYTE   W01
 BYTE   VOL   44*song2C_mvl/mxv
 BYTE   W02
 BYTE   VOL   45*song2C_mvl/mxv
 BYTE   W01
 BYTE   VOL   47*song2C_mvl/mxv
 BYTE   W48
//  #10 //007   ----------------------------------------
 BYTE   W01
 BYTE   N68  Bn2  v032
 BYTE   W72
 BYTE   TIE  Bn2  v044
 BYTE   W72
//  #10 //008   ----------------------------------------
 BYTE   W48
 BYTE   EOT
 BYTE   W24
 BYTE   TIE
 BYTE   W72
//  #10 //009   ----------------------------------------
 BYTE   W56
 BYTE   W03
 BYTE   EOT
 BYTE   W13
Label_010DCF1B:
 BYTE   VOL   33*song2C_mvl/mxv
 BYTE   TIE  Cs3  v072
 BYTE   W01
 BYTE   VOL   34*song2C_mvl/mxv
 BYTE   W01
 BYTE   VOL   35*song2C_mvl/mxv
 BYTE   W03
 BYTE   VOL   35*song2C_mvl/mxv
 BYTE   W03
 BYTE   VOL   36*song2C_mvl/mxv
 BYTE   W05
 BYTE   VOL   37*song2C_mvl/mxv
 BYTE   W05
 BYTE   VOL   38*song2C_mvl/mxv
 BYTE   W07
//  #10 //010   ----------------------------------------
 BYTE   VOL   39*song2C_mvl/mxv
 BYTE   W07
 BYTE   VOL   40*song2C_mvl/mxv
 BYTE   W08
 BYTE   VOL   42*song2C_mvl/mxv
 BYTE   W10
 BYTE   VOL   43*song2C_mvl/mxv
 BYTE   W10
 BYTE   VOL   44*song2C_mvl/mxv
 BYTE   W12
 BYTE   PEND 
Label_010DCF43:
 BYTE   VOL   45*song2C_mvl/mxv
 BYTE   W12
 BYTE   VOL   47*song2C_mvl/mxv
 BYTE   W14
 BYTE   VOL   47*song2C_mvl/mxv
 BYTE   W14
 BYTE   VOL   48*song2C_mvl/mxv
 BYTE   W16
//  #10 //011   ----------------------------------------
 BYTE   VOL   50*song2C_mvl/mxv
 BYTE   W15
 BYTE   PEND 
 BYTE   EOT
 BYTE   Cs3
 BYTE   W01
Label_010DCF56:
 BYTE   VOL   51*song2C_mvl/mxv
 BYTE   TIE  Cn3  v072
 BYTE   W72
 BYTE   PEND 
 BYTE   W68
//  #10 //012   ----------------------------------------
 BYTE   W03
 BYTE   EOT
 BYTE   W01
 BYTE   TIE  Bn2
 BYTE   W72
Label_010DCF64:
 BYTE   VOL   51*song2C_mvl/mxv
 BYTE   W32
//  #10 //013   ----------------------------------------
 BYTE   W01
 BYTE   VOL   50*song2C_mvl/mxv
 BYTE   W13
 BYTE   VOL   48*song2C_mvl/mxv
 BYTE   W10
 BYTE   VOL   47*song2C_mvl/mxv
 BYTE   W09
 BYTE   VOL   47*song2C_mvl/mxv
 BYTE   W07
 BYTE   PEND 
Label_010DCF75:
 BYTE   VOL   43*song2C_mvl/mxv
 BYTE   W13
 BYTE   VOL   44*song2C_mvl/mxv
 BYTE   W13
 BYTE   VOL   45*song2C_mvl/mxv
 BYTE   W13
 BYTE   VOL   47*song2C_mvl/mxv
 BYTE   W13
 BYTE   VOL   47*song2C_mvl/mxv
 BYTE   W13
//  #10 //014   ----------------------------------------
 BYTE   VOL   48*song2C_mvl/mxv
 BYTE   W07
 BYTE   PEND 
Label_010DCF88:
 BYTE   W06
 BYTE   VOL   50*song2C_mvl/mxv
 BYTE   W13
 BYTE   VOL   51*song2C_mvl/mxv
 BYTE   W13
 BYTE   VOL   52*song2C_mvl/mxv
 BYTE   W13
 BYTE   VOL   54*song2C_mvl/mxv
 BYTE   W14
 BYTE   VOL   55*song2C_mvl/mxv
 BYTE   W12
 BYTE   PEND 
 BYTE   EOT
 BYTE   Bn2
 BYTE   W01
 BYTE   W72
//  #10 //015   ----------------------------------------
 BYTE   W72
 BYTE   W72
//  #10 //016   ----------------------------------------
 BYTE   W72
 BYTE   W72
//  #10 //017   ----------------------------------------
 BYTE   W72
 BYTE   W72
//  #10 //018   ----------------------------------------
 BYTE   W72
 BYTE   W72
//  #10 //019   ----------------------------------------
 BYTE   W72
 BYTE   W72
//  #10 //020   ----------------------------------------
Label_010DCFA7:
 BYTE   W01
 BYTE   BENDR  100
 BYTE   W68
 BYTE   W03
 BYTE   PEND 
Label_010DCFAD:
 BYTE   VOL   17*song2C_mvl/mxv
 BYTE   TIE  Cn3  v116
 BYTE   W02
 BYTE   VOL   21*song2C_mvl/mxv
 BYTE   W01
 BYTE   VOL   22*song2C_mvl/mxv
 BYTE   W01
 BYTE   VOL   23*song2C_mvl/mxv
 BYTE   W01
 BYTE   VOL   24*song2C_mvl/mxv
 BYTE   W02
 BYTE   VOL   27*song2C_mvl/mxv
 BYTE   W02
 BYTE   VOL   28*song2C_mvl/mxv
 BYTE   W02
 BYTE   VOL   30*song2C_mvl/mxv
 BYTE   W02
 BYTE   VOL   32*song2C_mvl/mxv
 BYTE   W03
 BYTE   VOL   34*song2C_mvl/mxv
 BYTE   W01
 BYTE   VOL   35*song2C_mvl/mxv
 BYTE   W02
 BYTE   VOL   35*song2C_mvl/mxv
 BYTE   W01
 BYTE   VOL   36*song2C_mvl/mxv
 BYTE   W02
 BYTE   VOL   37*song2C_mvl/mxv
 BYTE   W01
 BYTE   VOL   38*song2C_mvl/mxv
 BYTE   W48
//  #10 //021   ----------------------------------------
 BYTE   W01
 BYTE   PEND 
 BYTE   W72
 BYTE   EOT
Label_010DCFE1:
 BYTE   VOL   17*song2C_mvl/mxv
 BYTE   TIE  Bn2  v072
 BYTE   W01
 BYTE   VOL   20*song2C_mvl/mxv
 BYTE   W01
 BYTE   VOL   22*song2C_mvl/mxv
 BYTE   W02
 BYTE   VOL   23*song2C_mvl/mxv
 BYTE   W01
 BYTE   VOL   24*song2C_mvl/mxv
 BYTE   W01
 BYTE   VOL   25*song2C_mvl/mxv
 BYTE   W02
 BYTE   VOL   28*song2C_mvl/mxv
 BYTE   W01
 BYTE   VOL   28*song2C_mvl/mxv
 BYTE   W01
 BYTE   VOL   29*song2C_mvl/mxv
 BYTE   W03
 BYTE   VOL   31*song2C_mvl/mxv
 BYTE   W01
 BYTE   VOL   32*song2C_mvl/mxv
 BYTE   W01
 BYTE   VOL   33*song2C_mvl/mxv
 BYTE   W02
 BYTE   VOL   34*song2C_mvl/mxv
 BYTE   W02
 BYTE   VOL   35*song2C_mvl/mxv
 BYTE   W01
 BYTE   VOL   35*song2C_mvl/mxv
 BYTE   W02
 BYTE   VOL   36*song2C_mvl/mxv
 BYTE   W01
//  #10 //022   ----------------------------------------
 BYTE   VOL   37*song2C_mvl/mxv
 BYTE   W48
 BYTE   W01
 BYTE   PEND 
 BYTE   W68
//  #10 //023   ----------------------------------------
 BYTE   W03
 BYTE   EOT
 BYTE   W01
Label_010DD01D:
 BYTE   VOL   17*song2C_mvl/mxv
 BYTE   TIE  Bn2  v068
 BYTE   TIE  En3  v116
 BYTE   W01
 BYTE   VOL   20*song2C_mvl/mxv
 BYTE   W01
 BYTE   VOL   22*song2C_mvl/mxv
 BYTE   W02
 BYTE   VOL   23*song2C_mvl/mxv
 BYTE   W01
 BYTE   VOL   24*song2C_mvl/mxv
 BYTE   W01
 BYTE   VOL   24*song2C_mvl/mxv
 BYTE   W02
 BYTE   VOL   27*song2C_mvl/mxv
 BYTE   W02
 BYTE   VOL   28*song2C_mvl/mxv
 BYTE   W01
 BYTE   VOL   28*song2C_mvl/mxv
 BYTE   W02
 BYTE   VOL   29*song2C_mvl/mxv
 BYTE   W01
 BYTE   VOL   30*song2C_mvl/mxv
 BYTE   W02
 BYTE   VOL   31*song2C_mvl/mxv
 BYTE   W02
 BYTE   VOL   32*song2C_mvl/mxv
 BYTE   W02
 BYTE   VOL   33*song2C_mvl/mxv
 BYTE   W02
 BYTE   VOL   34*song2C_mvl/mxv
 BYTE   W02
 BYTE   VOL   35*song2C_mvl/mxv
 BYTE   W48
 BYTE   PEND 
 BYTE   W68
//  #10 //024   ----------------------------------------
 BYTE   W03
 BYTE   EOT
 BYTE   Bn2
 BYTE   W01
 BYTE   En3
Label_010DD05A:
 BYTE   VOL   35*song2C_mvl/mxv
 BYTE   TIE  Bn2  v056
 BYTE   TIE  En3  v084
 BYTE   W20
 BYTE   VOL   35*song2C_mvl/mxv
 BYTE   W19
 BYTE   VOL   36*song2C_mvl/mxv
 BYTE   W20
 BYTE   VOL   37*song2C_mvl/mxv
 BYTE   W13
 BYTE   PEND 
Label_010DD06D:
 BYTE   W06
 BYTE   VOL   38*song2C_mvl/mxv
 BYTE   W20
//  #10 //025   ----------------------------------------
 BYTE   VOL   39*song2C_mvl/mxv
 BYTE   W20
 BYTE   VOL   40*song2C_mvl/mxv
 BYTE   W19
 BYTE   PEND 
 BYTE   EOT
 BYTE   Bn2  v064
 BYTE   VOL   42*song2C_mvl/mxv
 BYTE   W07
Label_010DD07E:
 BYTE   TIE  Bn2  v052
 BYTE   TIE  En3  v084
 BYTE   W13
 BYTE   VOL   43*song2C_mvl/mxv
 BYTE   W20
 BYTE   VOL   44*song2C_mvl/mxv
 BYTE   W19
//  #10 //026   ----------------------------------------
 BYTE   VOL   45*song2C_mvl/mxv
 BYTE   W20
 BYTE   PEND 
Label_010DD08F:
 BYTE   VOL   47*song2C_mvl/mxv
 BYTE   W19
 BYTE   VOL   47*song2C_mvl/mxv
 BYTE   W20
 BYTE   VOL   48*song2C_mvl/mxv
 BYTE   W20
 BYTE   VOL   50*song2C_mvl/mxv
 BYTE   W06
 BYTE   PEND 
 BYTE   EOT
 BYTE   Bn2  v064
 BYTE   W07
Label_010DD0A0:
 BYTE   TIE  Bn2  v052
 BYTE   TIE  En3  v084
 BYTE   W06
//  #10 //027   ----------------------------------------
 BYTE   VOL   51*song2C_mvl/mxv
 BYTE   W20
 BYTE   VOL   52*song2C_mvl/mxv
 BYTE   W20
 BYTE   VOL   54*song2C_mvl/mxv
 BYTE   W19
 BYTE   VOL   55*song2C_mvl/mxv
 BYTE   W07
 BYTE   PEND 
Label_010DD0B4:
 BYTE   W13
 BYTE   VOL   56*song2C_mvl/mxv
 BYTE   W19
//  #10 //028   ----------------------------------------
 BYTE   VOL   58*song2C_mvl/mxv
 BYTE   W20
 BYTE   VOL   59*song2C_mvl/mxv
 BYTE   W20
 BYTE   PEND 
 BYTE   EOT
 BYTE   Bn2  v064
Label_010DD0C2:
 BYTE   VOL   61*song2C_mvl/mxv
 BYTE   TIE  Bn2  v060
 BYTE   W01
 BYTE   En3  v032
 BYTE   W68
//  #10 //029   ----------------------------------------
 BYTE   W03
 BYTE   PEND 
Label_010DD0CD:
 BYTE   W36
 BYTE   VOL   56*song2C_mvl/mxv
 BYTE   W24
 BYTE   W02
 BYTE   VOL   55*song2C_mvl/mxv
 BYTE   W10
 BYTE   PEND 
Label_010DD0D6:
 BYTE   W01
 BYTE   VOL   54*song2C_mvl/mxv
 BYTE   W09
 BYTE   VOL   52*song2C_mvl/mxv
 BYTE   W07
 BYTE   VOL   51*song2C_mvl/mxv
 BYTE   W06
//  #10 //030   ----------------------------------------
 BYTE   VOL   50*song2C_mvl/mxv
 BYTE   W05
 BYTE   VOL   48*song2C_mvl/mxv
 BYTE   W06
 BYTE   VOL   47*song2C_mvl/mxv
 BYTE   W04
 BYTE   VOL   47*song2C_mvl/mxv
 BYTE   W05
 BYTE   VOL   45*song2C_mvl/mxv
 BYTE   W04
 BYTE   VOL   44*song2C_mvl/mxv
 BYTE   W04
 BYTE   VOL   43*song2C_mvl/mxv
 BYTE   W04
 BYTE   VOL   42*song2C_mvl/mxv
 BYTE   W04
 BYTE   VOL   40*song2C_mvl/mxv
 BYTE   W03
 BYTE   VOL   39*song2C_mvl/mxv
 BYTE   W04
 BYTE   VOL   38*song2C_mvl/mxv
 BYTE   W03
 BYTE   VOL   37*song2C_mvl/mxv
 BYTE   W03
 BYTE   PEND 
Label_010DD105:
 BYTE   VOL   36*song2C_mvl/mxv
 BYTE   W04
 BYTE   VOL   35*song2C_mvl/mxv
 BYTE   W03
 BYTE   VOL   35*song2C_mvl/mxv
 BYTE   W03
 BYTE   VOL   34*song2C_mvl/mxv
 BYTE   W02
 BYTE   VOL   33*song2C_mvl/mxv
 BYTE   W03
 BYTE   VOL   32*song2C_mvl/mxv
 BYTE   W03
 BYTE   VOL   31*song2C_mvl/mxv
 BYTE   W03
 BYTE   VOL   30*song2C_mvl/mxv
 BYTE   W02
 BYTE   VOL   29*song2C_mvl/mxv
 BYTE   W03
 BYTE   VOL   28*song2C_mvl/mxv
 BYTE   W03
 BYTE   VOL   28*song2C_mvl/mxv
 BYTE   W02
 BYTE   VOL   27*song2C_mvl/mxv
 BYTE   W03
 BYTE   VOL   25*song2C_mvl/mxv
 BYTE   W02
 BYTE   VOL   24*song2C_mvl/mxv
 BYTE   W02
 BYTE   VOL   24*song2C_mvl/mxv
 BYTE   W03
 BYTE   VOL   23*song2C_mvl/mxv
 BYTE   W02
 BYTE   VOL   22*song2C_mvl/mxv
 BYTE   W02
 BYTE   VOL   22*song2C_mvl/mxv
 BYTE   W03
//  #10 //031   ----------------------------------------
 BYTE   VOL   21*song2C_mvl/mxv
 BYTE   W02
 BYTE   VOL   20*song2C_mvl/mxv
 BYTE   W02
 BYTE   VOL   20*song2C_mvl/mxv
 BYTE   W02
 BYTE   VOL   18*song2C_mvl/mxv
 BYTE   W02
 BYTE   VOL   18*song2C_mvl/mxv
 BYTE   W02
 BYTE   VOL   17*song2C_mvl/mxv
 BYTE   W02
 BYTE   VOL   17*song2C_mvl/mxv
 BYTE   W02
 BYTE   VOL   17*song2C_mvl/mxv
 BYTE   W02
 BYTE   VOL   16*song2C_mvl/mxv
 BYTE   W02
 BYTE   VOL   15*song2C_mvl/mxv
 BYTE   W02
 BYTE   VOL   15*song2C_mvl/mxv
 BYTE   W02
 BYTE   PEND 
 BYTE   EOT
 BYTE   Bn2  v064
 BYTE   VOL   14*song2C_mvl/mxv
 BYTE   W02
 BYTE   VOL   13*song2C_mvl/mxv
 BYTE   W72
//  #10 //032   ----------------------------------------
 BYTE   W72
 BYTE   W72
//  #10 //033   ----------------------------------------
 BYTE   W72
 BYTE   GoTo
  POIN2 Label_010DCEC5
//  #10 //034   ----------------------------------------
 BYTE   W72
 BYTE   W72
//  #10 //035   ----------------------------------------
 BYTE   W72
 BYTE   W72
//  #10 //036   ----------------------------------------
 BYTE   W72
 BYTE   W72
//  #10 //037   ----------------------------------------
 BYTE   W72
 BYTE   W72
//  #10 //038   ----------------------------------------
 BYTE   N68  Bn2  v048
 BYTE   W72
 BYTE   Bn2  v032
 BYTE   W72
//  #10 //039   ----------------------------------------
 BYTE   TIE  Bn2  v044
 BYTE   W72
 BYTE   W48
//  #10 //040   ----------------------------------------
 BYTE   EOT
 BYTE   W24
 BYTE   TIE
 BYTE   W72
//  #10 //041   ----------------------------------------
 BYTE   W56
 BYTE   W03
 BYTE   EOT
 BYTE   W13
//  #10 //042   ----------------------------------------
 BYTE   PATT
  POIN2 Label_010DCF1B
//  #10 //043   ----------------------------------------
 BYTE   PATT
  POIN2 Label_010DCF43
//  #10 //044   ----------------------------------------
 BYTE   EOT
 BYTE   Cs3
 BYTE   W01
//  #10 //045   ----------------------------------------
 BYTE   PATT
  POIN2 Label_010DCF56
//  #10 //046   ----------------------------------------
 BYTE   W68
 BYTE   W03
 BYTE   EOT
 BYTE   Cn3
 BYTE   W01
 BYTE   TIE  Bn2  v072
 BYTE   W72
//  #10 //047   ----------------------------------------
 BYTE   PATT
  POIN2 Label_010DCF64
//  #10 //048   ----------------------------------------
 BYTE   PATT
  POIN2 Label_010DCF75
//  #10 //049   ----------------------------------------
 BYTE   PATT
  POIN2 Label_010DCF88
//  #10 //050   ----------------------------------------
 BYTE   EOT
 BYTE   Bn2
 BYTE   W01
 BYTE   W72
 BYTE   W72
//  #10 //051   ----------------------------------------
 BYTE   W72
 BYTE   W72
//  #10 //052   ----------------------------------------
 BYTE   W72
 BYTE   W72
//  #10 //053   ----------------------------------------
 BYTE   W72
 BYTE   W72
//  #10 //054   ----------------------------------------
 BYTE   W72
 BYTE   W72
//  #10 //055   ----------------------------------------
 BYTE   W72
//  #10 //056   ----------------------------------------
 BYTE   PATT
  POIN2 Label_010DCFA7
//  #10 //057   ----------------------------------------
 BYTE   PATT
  POIN2 Label_010DCFAD
//  #10 //058   ----------------------------------------
 BYTE   W72
 BYTE   EOT
 BYTE   Cn3
//  #10 //059   ----------------------------------------
 BYTE   PATT
  POIN2 Label_010DCFE1
//  #10 //060   ----------------------------------------
 BYTE   W68
 BYTE   W03
 BYTE   EOT
 BYTE   Bn2
 BYTE   W01
//  #10 //061   ----------------------------------------
 BYTE   PATT
  POIN2 Label_010DD01D
//  #10 //062   ----------------------------------------
 BYTE   W68
 BYTE   W03
 BYTE   EOT
 BYTE   Bn2
 BYTE   W01
 BYTE   En3
//  #10 //063   ----------------------------------------
 BYTE   PATT
  POIN2 Label_010DD05A
//  #10 //064   ----------------------------------------
 BYTE   PATT
  POIN2 Label_010DD06D
//  #10 //065   ----------------------------------------
 BYTE   EOT
 BYTE   Bn2  v064
 BYTE   VOL   42*song2C_mvl/mxv
 BYTE   W07
//  #10 //066   ----------------------------------------
 BYTE   PATT
  POIN2 Label_010DD07E
//  #10 //067   ----------------------------------------
 BYTE   PATT
  POIN2 Label_010DD08F
//  #10 //068   ----------------------------------------
 BYTE   EOT
 BYTE   Bn2  v064
 BYTE   W07
//  #10 //069   ----------------------------------------
 BYTE   PATT
  POIN2 Label_010DD0A0
//  #10 //070   ----------------------------------------
 BYTE   PATT
  POIN2 Label_010DD0B4
//  #10 //071   ----------------------------------------
 BYTE   EOT
 BYTE   Bn2  v064
//  #10 //072   ----------------------------------------
 BYTE   PATT
  POIN2 Label_010DD0C2
//  #10 //073   ----------------------------------------
 BYTE   PATT
  POIN2 Label_010DD0CD
//  #10 //074   ----------------------------------------
 BYTE   PATT
  POIN2 Label_010DD0D6
//  #10 //075   ----------------------------------------
 BYTE   PATT
  POIN2 Label_010DD105
//  #10 //076   ----------------------------------------
 BYTE   EOT
 BYTE   Bn2  v064
 BYTE   VOL   14*song2C_mvl/mxv
 BYTE   W02
 BYTE   VOL   13*song2C_mvl/mxv
 BYTE   W72
 BYTE   W72
//  #10 //077   ----------------------------------------
 BYTE   W72
 BYTE   W72
//  #10 //078   ----------------------------------------
 BYTE   W72
 BYTE   W72
//  #10 //079   ----------------------------------------
 BYTE   W72
 BYTE   W72
//  #10 //080   ----------------------------------------
 BYTE   W72
 BYTE   W72
//  #10 //081   ----------------------------------------
 BYTE   VOL   50*song2C_mvl/mxv
 BYTE   W72
 BYTE   W09
 BYTE   VOL   48*song2C_mvl/mxv
 BYTE   W32
//  #10 //082   ----------------------------------------
 BYTE   W01
 BYTE   VOL   47*song2C_mvl/mxv
 BYTE   W24
 BYTE   W02
 BYTE   VOL   47*song2C_mvl/mxv
 BYTE   W04
 BYTE   N68  Bn2  v048
 BYTE   W17
 BYTE   VOL   45*song2C_mvl/mxv
 BYTE   W19
 BYTE   VOL   44*song2C_mvl/mxv
 BYTE   W18
 BYTE   VOL   43*song2C_mvl/mxv
 BYTE   W15
//  #10 //083   ----------------------------------------
 BYTE   VOL   42*song2C_mvl/mxv
 BYTE   W03
 BYTE   N68  Bn2  v056
 BYTE   W12
 BYTE   VOL   40*song2C_mvl/mxv
 BYTE   W14
 BYTE   VOL   39*song2C_mvl/mxv
 BYTE   W13
 BYTE   VOL   38*song2C_mvl/mxv
 BYTE   W13
 BYTE   VOL   37*song2C_mvl/mxv
 BYTE   W11
 BYTE   VOL   36*song2C_mvl/mxv
 BYTE   W09
 BYTE   TIE  Bn2  v044
 BYTE   W03
 BYTE   VOL   35*song2C_mvl/mxv
 BYTE   W11
 BYTE   VOL   35*song2C_mvl/mxv
 BYTE   W10
//  #10 //084   ----------------------------------------
 BYTE   VOL   34*song2C_mvl/mxv
 BYTE   W11
 BYTE   VOL   33*song2C_mvl/mxv
 BYTE   W10
 BYTE   VOL   32*song2C_mvl/mxv
 BYTE   W09
 BYTE   VOL   31*song2C_mvl/mxv
 BYTE   W10
 BYTE   VOL   30*song2C_mvl/mxv
 BYTE   W08
 BYTE   W01
 BYTE   VOL   29*song2C_mvl/mxv
 BYTE   W09
 BYTE   VOL   28*song2C_mvl/mxv
 BYTE   W08
 BYTE   VOL   28*song2C_mvl/mxv
 BYTE   W09
 BYTE   VOL   27*song2C_mvl/mxv
 BYTE   W08
 BYTE   VOL   25*song2C_mvl/mxv
 BYTE   W08
 BYTE   VOL   24*song2C_mvl/mxv
 BYTE   W05
//  #10 //085   ----------------------------------------
 BYTE   EOT
 BYTE   W03
 BYTE   VOL   24*song2C_mvl/mxv
 BYTE   W08
 BYTE   VOL   23*song2C_mvl/mxv
 BYTE   W08
 BYTE   VOL   22*song2C_mvl/mxv
 BYTE   W05
 BYTE   W02
 BYTE   VOL   22*song2C_mvl/mxv
 BYTE   W08
 BYTE   VOL   21*song2C_mvl/mxv
 BYTE   W07
 BYTE   VOL   20*song2C_mvl/mxv
 BYTE   W07
 BYTE   VOL   20*song2C_mvl/mxv
 BYTE   W07
 BYTE   VOL   18*song2C_mvl/mxv
 BYTE   W07
 BYTE   VOL   18*song2C_mvl/mxv
 BYTE   W07
 BYTE   VOL   17*song2C_mvl/mxv
 BYTE   W07
 BYTE   VOL   17*song2C_mvl/mxv
 BYTE   W07
 BYTE   VOL   17*song2C_mvl/mxv
 BYTE   W06
 BYTE   VOL   16*song2C_mvl/mxv
 BYTE   W06
 BYTE   VOL   15*song2C_mvl/mxv
 BYTE   FINE

//******************************************************//
	ALIGN 4

song2C:
	BYTE	10	// NumTrks
	BYTE	0	// NumBlks
	BYTE	song2C_pri	// Priority
	BYTE	song2C_rev	// Reverb.
    
	POIN2	song2C_grp
    
	POIN2	song2C_001
	POIN2	song2C_002
	POIN2	song2C_003
	POIN2	song2C_004
	POIN2	song2C_005
	POIN2	song2C_006
	POIN2	song2C_007
	POIN2	song2C_008
	POIN2	song2C_009
	POIN2	song2C_010

	
