//Event file generated from Sappy .s format.
	#include "MPlayDef.event"

	#define	song42_grp  voicegroup000
	#define	song42_pri  10
	#define	song42_rev  128
	#define	song42_mvl  127
	#define	song42_key  0
	#define	song42_tbs  1
	#define	song42_exg  0
	#define	song42_cmp  1

	// .rodata
	//	song42
	ALIGN 4


//**************** Track 1 (Midi-Chn.0) ****************//

song42_001:
//  #01 //000   ----------------------------------------
 BYTE   KEYSH   song42_key+0
 BYTE   TEMPO   104*song42_tbs/2
 BYTE   W96
//  #01 //001   ----------------------------------------
 BYTE   W96
//  #01 //002   ----------------------------------------
 BYTE   W96
//  #01 //003   ----------------------------------------
 BYTE   W96
//  #01 //004   ----------------------------------------
 BYTE   W96
//  #01 //005   ----------------------------------------
 BYTE   W96
//  #01 //006   ----------------------------------------
 BYTE   W96
//  #01 //007   ----------------------------------------
 BYTE   W96
//  #01 //008   ----------------------------------------
 BYTE   W96
//  #01 //009   ----------------------------------------
Label_01AD86B1:
 BYTE   VOICE   1
 BYTE   VOL   105*song42_mvl/mxv
 BYTE   PAN   c_v+0
 BYTE   N48  Bn1  v127
 BYTE   W96
//  #01 //010   ----------------------------------------
 BYTE   An1
 BYTE   W96
//  #01 //011   ----------------------------------------
 BYTE   Bn1
 BYTE   W96
//  #01 //012   ----------------------------------------
 BYTE   An1
 BYTE   W96
//  #01 //013   ----------------------------------------
 BYTE   Bn1
 BYTE   W96
//  #01 //014   ----------------------------------------
 BYTE   An1
 BYTE   W96
//  #01 //015   ----------------------------------------
 BYTE   Bn1
 BYTE   W96
//  #01 //016   ----------------------------------------
 BYTE   An1
 BYTE   W84
 BYTE   N06
 BYTE   W06
 BYTE   N06
 BYTE   W06
//  #01 //017   ----------------------------------------
 BYTE   N24  Bn1
 BYTE   W96
//  #01 //018   ----------------------------------------
 BYTE   An1
 BYTE   W96
//  #01 //019   ----------------------------------------
 BYTE   Bn1
 BYTE   W96
//  #01 //020   ----------------------------------------
 BYTE   An1
 BYTE   W96
//  #01 //021   ----------------------------------------
 BYTE   Bn1
 BYTE   W96
//  #01 //022   ----------------------------------------
 BYTE   An1
 BYTE   W96
//  #01 //023   ----------------------------------------
 BYTE   Bn1
 BYTE   W96
//  #01 //024   ----------------------------------------
 BYTE   An1
 BYTE   W48
 BYTE   VOL   105*song42_mvl/mxv
 BYTE   N04
 BYTE   W04
 BYTE   An1  v052
 BYTE   W04
 BYTE   An1  v056
 BYTE   W04
 BYTE   An1  v048
 BYTE   W04
 BYTE   An1  v060
 BYTE   W04
 BYTE   An1  v072
 BYTE   W04
 BYTE   An1  v076
 BYTE   W04
 BYTE   An1  v084
 BYTE   W04
 BYTE   An1  v096
 BYTE   W04
 BYTE   An1  v108
 BYTE   W04
 BYTE   An1  v120
 BYTE   W04
 BYTE   An1  v127
 BYTE   W04
//  #01 //025   ----------------------------------------
Label_01AD8703:
 BYTE   N24  Gn1  v127
 BYTE   W36
 BYTE   N24
 BYTE   W60
 BYTE   PEND 
//  #01 //026   ----------------------------------------
 BYTE   PATT
  POIN2 Label_01AD8703
//  #01 //027   ----------------------------------------
 BYTE   PATT
  POIN2 Label_01AD8703
//  #01 //028   ----------------------------------------
 BYTE   PATT
  POIN2 Label_01AD8703
//  #01 //029   ----------------------------------------
 BYTE   N24  As1  v127
 BYTE   W36
 BYTE   N24
 BYTE   W60
//  #01 //030   ----------------------------------------
 BYTE   An1
 BYTE   W36
 BYTE   N24
 BYTE   W60
//  #01 //031   ----------------------------------------
 BYTE   PATT
  POIN2 Label_01AD8703
//  #01 //032   ----------------------------------------
 BYTE   N24  An1  v127
 BYTE   W48
 BYTE   As1
 BYTE   W48
//  #01 //033   ----------------------------------------
 BYTE   N06  Bn1
 BYTE   W12
 BYTE   Bn1  v116
 BYTE   W06
 BYTE   N06
 BYTE   W18
 BYTE   N24
 BYTE   W60
//  #01 //034   ----------------------------------------
Label_01AD8738:
 BYTE   N06  Bn1  v116
 BYTE   W12
 BYTE   N06
 BYTE   W06
 BYTE   N06
 BYTE   W18
 BYTE   N24
 BYTE   W60
 BYTE   PEND 
//  #01 //035   ----------------------------------------
 BYTE   PATT
  POIN2 Label_01AD8738
//  #01 //036   ----------------------------------------
 BYTE   N06  Bn1  v116
 BYTE   W12
 BYTE   N06
 BYTE   W06
 BYTE   N06
 BYTE   W18
 BYTE   N24
 BYTE   W48
 BYTE   N12  Fs1
 BYTE   W12
//  #01 //037   ----------------------------------------
 BYTE   PATT
  POIN2 Label_01AD8738
//  #01 //038   ----------------------------------------
Label_01AD875A:
 BYTE   N06  An1  v116
 BYTE   W12
 BYTE   N06
 BYTE   W06
 BYTE   N06
 BYTE   W18
 BYTE   N24
 BYTE   W60
 BYTE   PEND 
//  #01 //039   ----------------------------------------
 BYTE   PATT
  POIN2 Label_01AD8738
//  #01 //040   ----------------------------------------
 BYTE   PATT
  POIN2 Label_01AD875A
//  #01 //041   ----------------------------------------
 BYTE   W96
//  #01 //042   ----------------------------------------
 BYTE   W96
//  #01 //043   ----------------------------------------
 BYTE   W96
//  #01 //044   ----------------------------------------
 BYTE   W96
//  #01 //045   ----------------------------------------
 BYTE   W96
//  #01 //046   ----------------------------------------
 BYTE   W96
//  #01 //047   ----------------------------------------
 BYTE   W96
//  #01 //048   ----------------------------------------
 BYTE   W96
//  #01 //049   ----------------------------------------
 BYTE   W96
//  #01 //050   ----------------------------------------
 BYTE   GoTo
  POIN2 Label_01AD86B1
 BYTE   FINE

//**************** Track 2 (Midi-Chn.1) ****************//

song42_002:
//  #02 //000   ----------------------------------------
 BYTE   KEYSH   song42_key+0
 BYTE   W96
//  #02 //001   ----------------------------------------
 BYTE   W96
//  #02 //002   ----------------------------------------
 BYTE   W96
//  #02 //003   ----------------------------------------
 BYTE   W96
//  #02 //004   ----------------------------------------
 BYTE   W96
//  #02 //005   ----------------------------------------
 BYTE   W96
//  #02 //006   ----------------------------------------
 BYTE   W96
//  #02 //007   ----------------------------------------
 BYTE   W96
//  #02 //008   ----------------------------------------
 BYTE   W96
//  #02 //009   ----------------------------------------
Label_01AD8789:
 BYTE   VOICE   5
 BYTE   MOD 0
 BYTE   PAN   c_v+6
 BYTE   VOL   82*song42_mvl/mxv
 BYTE   LFOS 20
 BYTE   MODT 0
 BYTE   N12  Bn3  v096
 BYTE   W12
 BYTE   VOL   82*song42_mvl/mxv
 BYTE   N12  Dn4  v072
 BYTE   W06
 BYTE   VOL   33*song42_mvl/mxv
 BYTE   W06
 BYTE   VOL   82*song42_mvl/mxv
 BYTE   N36  Fs4  v052
 BYTE   W24
 BYTE   MOD 4
 BYTE   VOL   41*song42_mvl/mxv
 BYTE   W12
 BYTE   MOD 0
 BYTE   VOL   82*song42_mvl/mxv
 BYTE   N12  En4  v072
 BYTE   W12
 BYTE   Dn4  v076
 BYTE   W06
 BYTE   VOL   41*song42_mvl/mxv
 BYTE   W06
 BYTE   VOL   82*song42_mvl/mxv
 BYTE   N06  Cs4  v072
 BYTE   W06
 BYTE   Dn4  v080
 BYTE   W06
//  #02 //010   ----------------------------------------
 BYTE   VOL   82*song42_mvl/mxv
 BYTE   N12  En4  v076
 BYTE   W12
 BYTE   VOL   82*song42_mvl/mxv
 BYTE   N12  Cs4  v084
 BYTE   W03
 BYTE   VOL   47*song42_mvl/mxv
 BYTE   W03
 BYTE   VOL   17*song42_mvl/mxv
 BYTE   W06
 BYTE   VOL   82*song42_mvl/mxv
 BYTE   N72  An3  v072
 BYTE   W24
 BYTE   MOD 4
 BYTE   VOL   36*song42_mvl/mxv
 BYTE   W48
//  #02 //011   ----------------------------------------
 BYTE   MOD 0
 BYTE   VOL   82*song42_mvl/mxv
 BYTE   N12  Bn3  v096
 BYTE   W12
 BYTE   VOL   82*song42_mvl/mxv
 BYTE   N12  Dn4  v084
 BYTE   W03
 BYTE   VOL   42*song42_mvl/mxv
 BYTE   W03
 BYTE   VOL   14*song42_mvl/mxv
 BYTE   W06
 BYTE   VOL   82*song42_mvl/mxv
 BYTE   N36  Bn4  v052
 BYTE   W24
 BYTE   MOD 4
 BYTE   VOL   24*song42_mvl/mxv
 BYTE   W12
 BYTE   MOD 0
 BYTE   VOL   82*song42_mvl/mxv
 BYTE   N12  An4  v060
 BYTE   W12
 BYTE   Gn4  v056
 BYTE   W12
 BYTE   N06  Fs4  v072
 BYTE   W06
 BYTE   Gn4
 BYTE   W06
//  #02 //012   ----------------------------------------
 BYTE   VOL   82*song42_mvl/mxv
 BYTE   N72  An4  v060
 BYTE   W48
 BYTE   MOD 4
 BYTE   VOL   30*song42_mvl/mxv
 BYTE   W18
 BYTE   VOL   23*song42_mvl/mxv
 BYTE   W06
 BYTE   MOD 0
 BYTE   VOL   80*song42_mvl/mxv
 BYTE   N24  An4  v056
 BYTE   W12
 BYTE   VOL   65*song42_mvl/mxv
 BYTE   W06
 BYTE   VOL   47*song42_mvl/mxv
 BYTE   W06
//  #02 //013   ----------------------------------------
 BYTE   VOL   82*song42_mvl/mxv
 BYTE   N48
 BYTE   W12
 BYTE   VOL   70*song42_mvl/mxv
 BYTE   W12
 BYTE   MOD 4
 BYTE   VOL   53*song42_mvl/mxv
 BYTE   W12
 BYTE   VOL   38*song42_mvl/mxv
 BYTE   W12
 BYTE   MOD 0
 BYTE   VOL   82*song42_mvl/mxv
 BYTE   N36  Gn4  v052
 BYTE   W24
 BYTE   MOD 4
 BYTE   VOL   53*song42_mvl/mxv
 BYTE   W06
 BYTE   VOL   36*song42_mvl/mxv
 BYTE   W02
 BYTE   MOD 0
 BYTE   W04
 BYTE   VOL   82*song42_mvl/mxv
 BYTE   N12  Fs4  v056
 BYTE   W12
//  #02 //014   ----------------------------------------
 BYTE   N48  En4  v068
 BYTE   W24
 BYTE   MOD 4
 BYTE   VOL   53*song42_mvl/mxv
 BYTE   W18
 BYTE   VOL   25*song42_mvl/mxv
 BYTE   W06
 BYTE   MOD 0
 BYTE   VOL   82*song42_mvl/mxv
 BYTE   N36  Dn4  v084
 BYTE   W24
 BYTE   MOD 4
 BYTE   VOL   53*song42_mvl/mxv
 BYTE   W08
 BYTE   MOD 0
 BYTE   W04
 BYTE   VOL   82*song42_mvl/mxv
 BYTE   N12  Cs4  v068
 BYTE   W12
//  #02 //015   ----------------------------------------
 BYTE   TIE  Dn4  v092
 BYTE   W48
 BYTE   MOD 4
 BYTE   VOL   56*song42_mvl/mxv
 BYTE   W06
 BYTE   VOL   52*song42_mvl/mxv
 BYTE   W06
 BYTE   VOL   52*song42_mvl/mxv
 BYTE   W06
 BYTE   VOL   52*song42_mvl/mxv
 BYTE   W06
 BYTE   VOL   49*song42_mvl/mxv
 BYTE   W06
 BYTE   VOL   45*song42_mvl/mxv
 BYTE   W06
 BYTE   VOL   42*song42_mvl/mxv
 BYTE   W06
 BYTE   VOL   42*song42_mvl/mxv
 BYTE   W06
//  #02 //016   ----------------------------------------
 BYTE   VOL   32*song42_mvl/mxv
 BYTE   W24
 BYTE   VOL   19*song42_mvl/mxv
 BYTE   W24
 BYTE   EOT
 BYTE   MOD 0
 BYTE   VOL   82*song42_mvl/mxv
 BYTE   N48  Cs4  v088
 BYTE   W24
 BYTE   MOD 4
 BYTE   VOL   36*song42_mvl/mxv
 BYTE   W24
//  #02 //017   ----------------------------------------
 BYTE   MOD 0
 BYTE   VOL   82*song42_mvl/mxv
 BYTE   N12  Bn3  v092
 BYTE   W11
 BYTE   VOL   82*song42_mvl/mxv
 BYTE   W01
 BYTE   N10  Dn4  v072
 BYTE   W05
 BYTE   VOL   33*song42_mvl/mxv
 BYTE   W06
 BYTE   VOL   82*song42_mvl/mxv
 BYTE   W01
 BYTE   N32  Fs4  v052
 BYTE   W23
 BYTE   VOL   41*song42_mvl/mxv
 BYTE   W01
 BYTE   MOD 4
 BYTE   W11
 BYTE   VOL   82*song42_mvl/mxv
 BYTE   W01
 BYTE   MOD 0
 BYTE   N11  En4  v072
 BYTE   W12
 BYTE   N10  Dn4  v076
 BYTE   W05
 BYTE   VOL   41*song42_mvl/mxv
 BYTE   W06
 BYTE   VOL   82*song42_mvl/mxv
 BYTE   W01
 BYTE   N06  Cs4  v072
 BYTE   W06
 BYTE   Dn4  v080
 BYTE   W05
 BYTE   VOL   82*song42_mvl/mxv
 BYTE   W01
//  #02 //018   ----------------------------------------
 BYTE   N10  En4  v076
 BYTE   W12
 BYTE   VOL   85*song42_mvl/mxv
 BYTE   N10  Cs4  v084
 BYTE   W03
 BYTE   VOL   56*song42_mvl/mxv
 BYTE   W03
 BYTE   VOL   19*song42_mvl/mxv
 BYTE   W05
 BYTE   VOL   92*song42_mvl/mxv
 BYTE   W01
 BYTE   N68  An3  v072
 BYTE   W23
 BYTE   VOL   36*song42_mvl/mxv
 BYTE   W01
 BYTE   MOD 4
 BYTE   W44
 BYTE   W03
 BYTE   VOL   82*song42_mvl/mxv
 BYTE   W01
//  #02 //019   ----------------------------------------
 BYTE   MOD 0
 BYTE   N12  Bn3
 BYTE   W11
 BYTE   VOL   82*song42_mvl/mxv
 BYTE   W01
 BYTE   N10  Dn4  v084
 BYTE   W03
 BYTE   VOL   45*song42_mvl/mxv
 BYTE   W03
 BYTE   VOL   23*song42_mvl/mxv
 BYTE   W05
 BYTE   VOL   82*song42_mvl/mxv
 BYTE   W01
 BYTE   N36  Bn4  v052
 BYTE   W23
 BYTE   VOL   41*song42_mvl/mxv
 BYTE   W01
 BYTE   MOD 4
 BYTE   W11
 BYTE   VOL   82*song42_mvl/mxv
 BYTE   W01
 BYTE   MOD 0
 BYTE   N12  An4  v056
 BYTE   W12
 BYTE   Gn4
 BYTE   W12
 BYTE   N06  Fs4  v072
 BYTE   W06
 BYTE   Gn4
 BYTE   W05
 BYTE   VOL   82*song42_mvl/mxv
 BYTE   W01
//  #02 //020   ----------------------------------------
 BYTE   N72  An4  v056
 BYTE   W44
 BYTE   W03
 BYTE   VOL   41*song42_mvl/mxv
 BYTE   W01
 BYTE   MOD 4
 BYTE   W23
 BYTE   VOL   80*song42_mvl/mxv
 BYTE   W01
 BYTE   MOD 0
 BYTE   N24  An4  v060
 BYTE   W12
 BYTE   VOL   65*song42_mvl/mxv
 BYTE   W06
 BYTE   VOL   52*song42_mvl/mxv
 BYTE   W06
//  #02 //021   ----------------------------------------
 BYTE   VOL   82*song42_mvl/mxv
 BYTE   N48
 BYTE   W24
 BYTE   MOD 4
 BYTE   VOL   49*song42_mvl/mxv
 BYTE   W18
 BYTE   VOL   30*song42_mvl/mxv
 BYTE   W06
 BYTE   MOD 0
 BYTE   VOL   82*song42_mvl/mxv
 BYTE   N36  Gn4  v052
 BYTE   W24
 BYTE   MOD 4
 BYTE   VOL   58*song42_mvl/mxv
 BYTE   W06
 BYTE   VOL   32*song42_mvl/mxv
 BYTE   W02
 BYTE   MOD 0
 BYTE   W04
 BYTE   VOL   82*song42_mvl/mxv
 BYTE   N12  Fs4  v056
 BYTE   W12
//  #02 //022   ----------------------------------------
 BYTE   VOL   82*song42_mvl/mxv
 BYTE   N48  En4  v064
 BYTE   W24
 BYTE   MOD 4
 BYTE   VOL   42*song42_mvl/mxv
 BYTE   W24
 BYTE   MOD 0
 BYTE   VOL   82*song42_mvl/mxv
 BYTE   N18  An4  v052
 BYTE   W12
 BYTE   VOL   45*song42_mvl/mxv
 BYTE   W06
 BYTE   VOL   78*song42_mvl/mxv
 BYTE   N18  Bn4
 BYTE   W06
 BYTE   MOD 4
 BYTE   W06
 BYTE   VOL   42*song42_mvl/mxv
 BYTE   W02
 BYTE   MOD 0
 BYTE   W04
 BYTE   VOL   82*song42_mvl/mxv
 BYTE   N12  Cs5  v064
 BYTE   W06
 BYTE   VOL   52*song42_mvl/mxv
 BYTE   W06
//  #02 //023   ----------------------------------------
 BYTE   VOL   82*song42_mvl/mxv
 BYTE   TIE  Dn5  v056
 BYTE   W48
 BYTE   MOD 4
 BYTE   VOL   49*song42_mvl/mxv
 BYTE   W48
//  #02 //024   ----------------------------------------
 BYTE   VOL   21*song42_mvl/mxv
 BYTE   W48
 BYTE   MOD 0
 BYTE   VOL   10*song42_mvl/mxv
 BYTE   W48
//  #02 //025   ----------------------------------------
 BYTE   EOT
 BYTE   VOICE   6
 BYTE   VOL   80*song42_mvl/mxv
 BYTE   PAN   c_v+0
 BYTE   N12  Dn3  v040
 BYTE   W03
 BYTE   VOL   16*song42_mvl/mxv
 BYTE   W09
 BYTE   VOL   80*song42_mvl/mxv
 BYTE   N06
 BYTE   W03
 BYTE   VOL   16*song42_mvl/mxv
 BYTE   W03
 BYTE   VOL   80*song42_mvl/mxv
 BYTE   N12
 BYTE   W03
 BYTE   VOL   16*song42_mvl/mxv
 BYTE   W09
 BYTE   VOL   80*song42_mvl/mxv
 BYTE   N12
 BYTE   W03
 BYTE   VOL   16*song42_mvl/mxv
 BYTE   W09
 BYTE   VOL   78*song42_mvl/mxv
 BYTE   N12
 BYTE   W03
 BYTE   VOL   16*song42_mvl/mxv
 BYTE   W09
 BYTE   VOL   80*song42_mvl/mxv
 BYTE   N12
 BYTE   W03
 BYTE   VOL   16*song42_mvl/mxv
 BYTE   W09
 BYTE   VOL   80*song42_mvl/mxv
 BYTE   N06
 BYTE   W03
 BYTE   VOL   16*song42_mvl/mxv
 BYTE   W03
 BYTE   VOL   82*song42_mvl/mxv
 BYTE   N12
 BYTE   W03
 BYTE   VOL   16*song42_mvl/mxv
 BYTE   W09
 BYTE   VOL   76*song42_mvl/mxv
 BYTE   N12
 BYTE   W03
 BYTE   VOL   62*song42_mvl/mxv
 BYTE   W09
//  #02 //026   ----------------------------------------
Label_01AD89D4:
 BYTE   VOL   80*song42_mvl/mxv
 BYTE   PAN   c_v+0
 BYTE   N12  En3  v040
 BYTE   W03
 BYTE   VOL   16*song42_mvl/mxv
 BYTE   W09
 BYTE   VOL   80*song42_mvl/mxv
 BYTE   N06
 BYTE   W03
 BYTE   VOL   16*song42_mvl/mxv
 BYTE   W03
 BYTE   VOL   80*song42_mvl/mxv
 BYTE   N12
 BYTE   W03
 BYTE   VOL   16*song42_mvl/mxv
 BYTE   W09
 BYTE   VOL   80*song42_mvl/mxv
 BYTE   N12
 BYTE   W03
 BYTE   VOL   16*song42_mvl/mxv
 BYTE   W09
 BYTE   VOL   78*song42_mvl/mxv
 BYTE   N12
 BYTE   W03
 BYTE   VOL   16*song42_mvl/mxv
 BYTE   W09
 BYTE   VOL   80*song42_mvl/mxv
 BYTE   N12
 BYTE   W03
 BYTE   VOL   16*song42_mvl/mxv
 BYTE   W09
 BYTE   VOL   80*song42_mvl/mxv
 BYTE   N06
 BYTE   W03
 BYTE   VOL   16*song42_mvl/mxv
 BYTE   W03
 BYTE   VOL   82*song42_mvl/mxv
 BYTE   N12
 BYTE   W03
 BYTE   VOL   16*song42_mvl/mxv
 BYTE   W09
 BYTE   VOL   76*song42_mvl/mxv
 BYTE   N12
 BYTE   W03
 BYTE   VOL   62*song42_mvl/mxv
 BYTE   W09
 BYTE   PEND 
//  #02 //027   ----------------------------------------
 BYTE   Gs4
 BYTE   PAN   c_v+0
 BYTE   N12  Fs3
 BYTE   W03
 BYTE   VOL   16*song42_mvl/mxv
 BYTE   W09
 BYTE   VOL   80*song42_mvl/mxv
 BYTE   N06
 BYTE   W03
 BYTE   VOL   16*song42_mvl/mxv
 BYTE   W03
 BYTE   VOL   80*song42_mvl/mxv
 BYTE   N12
 BYTE   W03
 BYTE   VOL   16*song42_mvl/mxv
 BYTE   W09
 BYTE   VOL   80*song42_mvl/mxv
 BYTE   N12
 BYTE   W03
 BYTE   VOL   16*song42_mvl/mxv
 BYTE   W09
 BYTE   VOL   78*song42_mvl/mxv
 BYTE   N12
 BYTE   W03
 BYTE   VOL   16*song42_mvl/mxv
 BYTE   W09
 BYTE   VOL   80*song42_mvl/mxv
 BYTE   N12
 BYTE   W03
 BYTE   VOL   16*song42_mvl/mxv
 BYTE   W09
 BYTE   VOL   80*song42_mvl/mxv
 BYTE   N06
 BYTE   W03
 BYTE   VOL   16*song42_mvl/mxv
 BYTE   W03
 BYTE   VOL   82*song42_mvl/mxv
 BYTE   N12
 BYTE   W03
 BYTE   VOL   16*song42_mvl/mxv
 BYTE   W09
 BYTE   VOL   76*song42_mvl/mxv
 BYTE   N12
 BYTE   W03
 BYTE   VOL   62*song42_mvl/mxv
 BYTE   W09
//  #02 //028   ----------------------------------------
 BYTE   PATT
  POIN2 Label_01AD89D4
//  #02 //029   ----------------------------------------
 BYTE   VOL   80*song42_mvl/mxv
 BYTE   PAN   c_v+0
 BYTE   N12  Fn3  v044
 BYTE   W03
 BYTE   VOL   16*song42_mvl/mxv
 BYTE   W09
 BYTE   VOL   80*song42_mvl/mxv
 BYTE   N06
 BYTE   W03
 BYTE   VOL   16*song42_mvl/mxv
 BYTE   W03
 BYTE   VOL   80*song42_mvl/mxv
 BYTE   N12
 BYTE   W03
 BYTE   VOL   16*song42_mvl/mxv
 BYTE   W09
 BYTE   VOL   80*song42_mvl/mxv
 BYTE   N12
 BYTE   W03
 BYTE   VOL   16*song42_mvl/mxv
 BYTE   W09
 BYTE   VOL   78*song42_mvl/mxv
 BYTE   N12
 BYTE   W03
 BYTE   VOL   16*song42_mvl/mxv
 BYTE   W09
 BYTE   VOL   80*song42_mvl/mxv
 BYTE   N12
 BYTE   W03
 BYTE   VOL   16*song42_mvl/mxv
 BYTE   W09
 BYTE   VOL   80*song42_mvl/mxv
 BYTE   N06
 BYTE   W03
 BYTE   VOL   16*song42_mvl/mxv
 BYTE   W03
 BYTE   VOL   82*song42_mvl/mxv
 BYTE   N12
 BYTE   W03
 BYTE   VOL   16*song42_mvl/mxv
 BYTE   W09
 BYTE   VOL   76*song42_mvl/mxv
 BYTE   N12
 BYTE   W03
 BYTE   VOL   62*song42_mvl/mxv
 BYTE   W09
//  #02 //030   ----------------------------------------
 BYTE   VOL   80*song42_mvl/mxv
 BYTE   PAN   c_v+0
 BYTE   N12  Gn3  v040
 BYTE   W03
 BYTE   VOL   16*song42_mvl/mxv
 BYTE   W09
 BYTE   VOL   80*song42_mvl/mxv
 BYTE   N06
 BYTE   W03
 BYTE   VOL   16*song42_mvl/mxv
 BYTE   W03
 BYTE   VOL   80*song42_mvl/mxv
 BYTE   N12
 BYTE   W03
 BYTE   VOL   16*song42_mvl/mxv
 BYTE   W09
 BYTE   VOL   80*song42_mvl/mxv
 BYTE   N12
 BYTE   W03
 BYTE   VOL   16*song42_mvl/mxv
 BYTE   W09
 BYTE   VOL   78*song42_mvl/mxv
 BYTE   N12
 BYTE   W03
 BYTE   VOL   16*song42_mvl/mxv
 BYTE   W09
 BYTE   VOL   80*song42_mvl/mxv
 BYTE   N12
 BYTE   W03
 BYTE   VOL   16*song42_mvl/mxv
 BYTE   W09
 BYTE   VOL   80*song42_mvl/mxv
 BYTE   N06
 BYTE   W03
 BYTE   VOL   16*song42_mvl/mxv
 BYTE   W03
 BYTE   VOL   82*song42_mvl/mxv
 BYTE   N12
 BYTE   W03
 BYTE   VOL   16*song42_mvl/mxv
 BYTE   W09
 BYTE   VOL   76*song42_mvl/mxv
 BYTE   N12
 BYTE   W03
 BYTE   VOL   62*song42_mvl/mxv
 BYTE   W09
//  #02 //031   ----------------------------------------
 BYTE   VOL   80*song42_mvl/mxv
 BYTE   PAN   c_v+0
 BYTE   N12  An3
 BYTE   W03
 BYTE   VOL   16*song42_mvl/mxv
 BYTE   W09
 BYTE   VOL   80*song42_mvl/mxv
 BYTE   N06
 BYTE   W03
 BYTE   VOL   16*song42_mvl/mxv
 BYTE   W03
 BYTE   VOL   80*song42_mvl/mxv
 BYTE   N12
 BYTE   W03
 BYTE   VOL   16*song42_mvl/mxv
 BYTE   W09
 BYTE   VOL   80*song42_mvl/mxv
 BYTE   N12
 BYTE   W03
 BYTE   VOL   16*song42_mvl/mxv
 BYTE   W09
 BYTE   VOL   78*song42_mvl/mxv
 BYTE   N12
 BYTE   W03
 BYTE   VOL   16*song42_mvl/mxv
 BYTE   W09
 BYTE   VOL   80*song42_mvl/mxv
 BYTE   N12
 BYTE   W03
 BYTE   VOL   16*song42_mvl/mxv
 BYTE   W09
 BYTE   VOL   80*song42_mvl/mxv
 BYTE   N06
 BYTE   W03
 BYTE   VOL   16*song42_mvl/mxv
 BYTE   W03
 BYTE   VOL   82*song42_mvl/mxv
 BYTE   N12
 BYTE   W03
 BYTE   VOL   16*song42_mvl/mxv
 BYTE   W09
 BYTE   VOL   76*song42_mvl/mxv
 BYTE   N12
 BYTE   W03
 BYTE   VOL   62*song42_mvl/mxv
 BYTE   W09
//  #02 //032   ----------------------------------------
 BYTE   VOICE   12
 BYTE   PAN   c_v+25
 BYTE   VOL   82*song42_mvl/mxv
 BYTE   N10  Fs3  v072
 BYTE   W06
 BYTE   PAN   c_v+17
 BYTE   W02
 BYTE   N10  An3  v060
 BYTE   W04
 BYTE   PAN   c_v+9
 BYTE   W04
 BYTE   N10  Cs4
 BYTE   W02
 BYTE   PAN   c_v+0
 BYTE   W06
 BYTE   PAN   c_v-8
 BYTE   N10  Fs4
 BYTE   W06
 BYTE   PAN   c_v-16
 BYTE   W02
 BYTE   N10  An4  v048
 BYTE   W04
 BYTE   PAN   c_v-24
 BYTE   W04
 BYTE   N08  Cs5
 BYTE   W02
 BYTE   PAN   c_v-33
 BYTE   W02
 BYTE   N10  En5  v040
 BYTE   W04
 BYTE   PAN   c_v-35
 BYTE   N10  As3  v060
 BYTE   W06
 BYTE   PAN   c_v-29
 BYTE   W02
 BYTE   N10  Cs4
 BYTE   W04
 BYTE   PAN   c_v-23
 BYTE   W04
 BYTE   N10  Fs4
 BYTE   W02
 BYTE   PAN   c_v-17
 BYTE   W06
 BYTE   PAN   c_v-11
 BYTE   N10  As4  v048
 BYTE   W06
 BYTE   PAN   c_v-5
 BYTE   W02
 BYTE   N10  Cs5
 BYTE   W04
 BYTE   PAN   c_v+1
 BYTE   W04
 BYTE   N07  En5  v040
 BYTE   W02
 BYTE   PAN   c_v+7
 BYTE   W02
 BYTE   N10  Gn5
 BYTE   W04
//  #02 //033   ----------------------------------------
 BYTE   W96
//  #02 //034   ----------------------------------------
 BYTE   W96
//  #02 //035   ----------------------------------------
 BYTE   W96
//  #02 //036   ----------------------------------------
 BYTE   W96
//  #02 //037   ----------------------------------------
 BYTE   W96
//  #02 //038   ----------------------------------------
 BYTE   W96
//  #02 //039   ----------------------------------------
 BYTE   W96
//  #02 //040   ----------------------------------------
 BYTE   W96
//  #02 //041   ----------------------------------------
 BYTE   W96
//  #02 //042   ----------------------------------------
 BYTE   W96
//  #02 //043   ----------------------------------------
 BYTE   W96
//  #02 //044   ----------------------------------------
 BYTE   W96
//  #02 //045   ----------------------------------------
 BYTE   W96
//  #02 //046   ----------------------------------------
 BYTE   W96
//  #02 //047   ----------------------------------------
 BYTE   W96
//  #02 //048   ----------------------------------------
 BYTE   W96
//  #02 //049   ----------------------------------------
 BYTE   W96
//  #02 //050   ----------------------------------------
 BYTE   GoTo
  POIN2 Label_01AD8789
 BYTE   FINE

//**************** Track 3 (Midi-Chn.2) ****************//

song42_003:
//  #03 //000   ----------------------------------------
 BYTE   KEYSH   song42_key+0
 BYTE   W96
//  #03 //001   ----------------------------------------
 BYTE   W96
//  #03 //002   ----------------------------------------
 BYTE   W96
//  #03 //003   ----------------------------------------
 BYTE   W96
//  #03 //004   ----------------------------------------
 BYTE   W96
//  #03 //005   ----------------------------------------
 BYTE   W96
//  #03 //006   ----------------------------------------
 BYTE   W96
//  #03 //007   ----------------------------------------
 BYTE   W96
//  #03 //008   ----------------------------------------
 BYTE   W96
//  #03 //009   ----------------------------------------
Label_01AD8B7D:
 BYTE   VOICE   5
 BYTE   MOD 3
 BYTE   VOL   13*song42_mvl/mxv
 BYTE   PAN   c_v-6
 BYTE   LFOS 20
 BYTE   MODT 0
 BYTE   W06
 BYTE   N12  Bn3  v100
 BYTE   W12
 BYTE   Dn4
 BYTE   W12
 BYTE   N36  Fs4
 BYTE   W36
 BYTE   N12  En4
 BYTE   W12
 BYTE   Dn4
 BYTE   W12
 BYTE   N06  Cs4
 BYTE   W06
//  #03 //010   ----------------------------------------
Label_01AD8B9B:
 BYTE   N06  Dn4  v100
 BYTE   W06
 BYTE   N12  En4
 BYTE   W12
 BYTE   Cs4
 BYTE   W12
 BYTE   N66  An3
 BYTE   W66
 BYTE   PEND 
//  #03 //011   ----------------------------------------
Label_01AD8BA8:
 BYTE   W06
 BYTE   N12  Bn3  v100
 BYTE   W12
 BYTE   Dn4
 BYTE   W12
 BYTE   N36  Bn4
 BYTE   W36
 BYTE   N12  An4
 BYTE   W12
 BYTE   Gn4
 BYTE   W12
 BYTE   N06  Fs4
 BYTE   W06
 BYTE   PEND 
//  #03 //012   ----------------------------------------
Label_01AD8BBB:
 BYTE   N06  Gn4  v100
 BYTE   W06
 BYTE   N66  An4
 BYTE   W72
 BYTE   N24
 BYTE   W18
 BYTE   PEND 
//  #03 //013   ----------------------------------------
Label_01AD8BC5:
 BYTE   W06
 BYTE   N48  An4  v100
 BYTE   W48
 BYTE   N36  Gn4
 BYTE   W36
 BYTE   N12  Fs4
 BYTE   W06
 BYTE   PEND 
//  #03 //014   ----------------------------------------
 BYTE   W06
 BYTE   N44  En4
 BYTE   W48
 BYTE   N36  Dn4
 BYTE   W36
 BYTE   N12  Cs4
 BYTE   W06
//  #03 //015   ----------------------------------------
 BYTE   W06
 BYTE   TIE  Dn4
 BYTE   W90
//  #03 //016   ----------------------------------------
 BYTE   W48
 BYTE   VOL   14*song42_mvl/mxv
 BYTE   W06
 BYTE   EOT
 BYTE   N42  Cs4
 BYTE   W42
//  #03 //017   ----------------------------------------
 BYTE   W06
 BYTE   N12  Bn3
 BYTE   W12
 BYTE   Dn4
 BYTE   W12
 BYTE   N36  Fs4
 BYTE   W36
 BYTE   N12  En4
 BYTE   W12
 BYTE   Dn4
 BYTE   W12
 BYTE   N06  Cs4
 BYTE   W06
//  #03 //018   ----------------------------------------
 BYTE   PATT
  POIN2 Label_01AD8B9B
//  #03 //019   ----------------------------------------
 BYTE   PATT
  POIN2 Label_01AD8BA8
//  #03 //020   ----------------------------------------
 BYTE   PATT
  POIN2 Label_01AD8BBB
//  #03 //021   ----------------------------------------
 BYTE   PATT
  POIN2 Label_01AD8BC5
//  #03 //022   ----------------------------------------
 BYTE   W06
 BYTE   N48  En4  v100
 BYTE   W48
 BYTE   N18  An4
 BYTE   W18
 BYTE   Bn4
 BYTE   W18
 BYTE   N12  Cs5
 BYTE   W06
//  #03 //023   ----------------------------------------
 BYTE   W06
 BYTE   TIE  Dn5
 BYTE   W90
//  #03 //024   ----------------------------------------
 BYTE   VOL   14*song42_mvl/mxv
 BYTE   W05
 BYTE   VOL   14*song42_mvl/mxv
 BYTE   W02
 BYTE   VOL   13*song42_mvl/mxv
 BYTE   W03
 BYTE   VOL   12*song42_mvl/mxv
 BYTE   W03
 BYTE   VOL   11*song42_mvl/mxv
 BYTE   W02
 BYTE   VOL   10*song42_mvl/mxv
 BYTE   W03
 BYTE   VOL   9*song42_mvl/mxv
 BYTE   W03
 BYTE   VOL   9*song42_mvl/mxv
 BYTE   W02
 BYTE   VOL   8*song42_mvl/mxv
 BYTE   W03
 BYTE   VOL   7*song42_mvl/mxv
 BYTE   W03
 BYTE   VOL   6*song42_mvl/mxv
 BYTE   W02
 BYTE   VOL   5*song42_mvl/mxv
 BYTE   W03
 BYTE   VOL   4*song42_mvl/mxv
 BYTE   W03
 BYTE   VOL   4*song42_mvl/mxv
 BYTE   W02
 BYTE   VOL   3*song42_mvl/mxv
 BYTE   W03
 BYTE   VOL   2*song42_mvl/mxv
 BYTE   W03
 BYTE   VOL   1*song42_mvl/mxv
 BYTE   W02
 BYTE   VOL   0*song42_mvl/mxv
 BYTE   W01
 BYTE   VOL   0*song42_mvl/mxv
 BYTE   W03
 BYTE   EOT
 BYTE   W11
 BYTE   VOL   0*song42_mvl/mxv
 BYTE   W01
 BYTE   VOL   12*song42_mvl/mxv
 BYTE   W01
 BYTE   VOL   20*song42_mvl/mxv
 BYTE   W01
 BYTE   VOL   33*song42_mvl/mxv
 BYTE   W01
 BYTE   VOL   46*song42_mvl/mxv
 BYTE   W01
 BYTE   VOL   55*song42_mvl/mxv
 BYTE   W01
 BYTE   VOL   67*song42_mvl/mxv
 BYTE   W01
 BYTE   VOL   81*song42_mvl/mxv
 BYTE   W01
 BYTE   VOL   89*song42_mvl/mxv
 BYTE   W01
 BYTE   VOL   102*song42_mvl/mxv
 BYTE   W01
 BYTE   VOICE   24
 BYTE   MOD 0
 BYTE   VOL   105*song42_mvl/mxv
 BYTE   PAN   c_v+0
 BYTE   LFOS 22
 BYTE   MODT 0
 BYTE   VOL   101*song42_mvl/mxv
 BYTE   N24  An2  v108
 BYTE   W01
 BYTE   VOL   96*song42_mvl/mxv
 BYTE   W01
 BYTE   VOL   92*song42_mvl/mxv
 BYTE   W01
 BYTE   VOL   87*song42_mvl/mxv
 BYTE   W01
 BYTE   VOL   81*song42_mvl/mxv
 BYTE   W01
 BYTE   VOL   78*song42_mvl/mxv
 BYTE   W01
 BYTE   VOL   73*song42_mvl/mxv
 BYTE   W01
 BYTE   VOL   67*song42_mvl/mxv
 BYTE   W01
 BYTE   VOL   64*song42_mvl/mxv
 BYTE   W01
 BYTE   VOL   58*song42_mvl/mxv
 BYTE   W01
 BYTE   VOL   53*song42_mvl/mxv
 BYTE   W01
 BYTE   VOL   49*song42_mvl/mxv
 BYTE   W01
 BYTE   VOL   44*song42_mvl/mxv
 BYTE   W01
 BYTE   VOL   38*song42_mvl/mxv
 BYTE   W01
 BYTE   VOL   35*song42_mvl/mxv
 BYTE   W01
 BYTE   VOL   30*song42_mvl/mxv
 BYTE   W01
 BYTE   VOL   24*song42_mvl/mxv
 BYTE   W01
 BYTE   VOL   21*song42_mvl/mxv
 BYTE   W01
 BYTE   VOL   15*song42_mvl/mxv
 BYTE   W01
 BYTE   VOL   10*song42_mvl/mxv
 BYTE   W01
 BYTE   VOL   6*song42_mvl/mxv
 BYTE   W01
 BYTE   VOL   1*song42_mvl/mxv
 BYTE   W01
 BYTE   VOL   0*song42_mvl/mxv
 BYTE   W02
//  #03 //025   ----------------------------------------
 BYTE   N24  Bn2  v100
 BYTE   W48
 BYTE   MOD 2
 BYTE   W12
 BYTE   MOD 0
 BYTE   W36
//  #03 //026   ----------------------------------------
Label_01AD8CA3:
 BYTE   W48
 BYTE   MOD 2
 BYTE   W12
 BYTE   MOD 0
 BYTE   W36
 BYTE   PEND 
//  #03 //027   ----------------------------------------
 BYTE   W96
//  #03 //028   ----------------------------------------
 BYTE   W48
 BYTE   DnM2
 BYTE   W48
//  #03 //029   ----------------------------------------
 BYTE   CnM2
 BYTE   W48
 BYTE   DnM2
 BYTE   W12
 BYTE   CnM2
 BYTE   W36
//  #03 //030   ----------------------------------------
 BYTE   PATT
  POIN2 Label_01AD8CA3
//  #03 //031   ----------------------------------------
 BYTE   W48
 BYTE   MOD 2
 BYTE   W48
//  #03 //032   ----------------------------------------
 BYTE   MOD 0
 BYTE   W96
//  #03 //033   ----------------------------------------
 BYTE   PATT
  POIN2 Label_01AD8CA3
//  #03 //034   ----------------------------------------
 BYTE   PATT
  POIN2 Label_01AD8CA3
//  #03 //035   ----------------------------------------
 BYTE   W96
//  #03 //036   ----------------------------------------
 BYTE   PATT
  POIN2 Label_01AD8CA3
//  #03 //037   ----------------------------------------
 BYTE   PATT
  POIN2 Label_01AD8CA3
//  #03 //038   ----------------------------------------
 BYTE   PATT
  POIN2 Label_01AD8CA3
//  #03 //039   ----------------------------------------
 BYTE   PATT
  POIN2 Label_01AD8CA3
//  #03 //040   ----------------------------------------
 BYTE   W48
 BYTE   MOD 2
 BYTE   W44
 BYTE   W03
 BYTE   MOD 0
 BYTE   W01
//  #03 //041   ----------------------------------------
 BYTE   W96
//  #03 //042   ----------------------------------------
 BYTE   W96
//  #03 //043   ----------------------------------------
 BYTE   W96
//  #03 //044   ----------------------------------------
 BYTE   W96
//  #03 //045   ----------------------------------------
 BYTE   W96
//  #03 //046   ----------------------------------------
 BYTE   W96
//  #03 //047   ----------------------------------------
 BYTE   W96
//  #03 //048   ----------------------------------------
 BYTE   W96
//  #03 //049   ----------------------------------------
 BYTE   W96
//  #03 //050   ----------------------------------------
 BYTE   GoTo
  POIN2 Label_01AD8B7D
 BYTE   FINE

//**************** Track 4 (Midi-Chn.3) ****************//

song42_004:
//  #04 //000   ----------------------------------------
 BYTE   KEYSH   song42_key+0
 BYTE   W96
//  #04 //001   ----------------------------------------
 BYTE   W96
//  #04 //002   ----------------------------------------
 BYTE   W96
//  #04 //003   ----------------------------------------
 BYTE   W96
//  #04 //004   ----------------------------------------
 BYTE   W96
//  #04 //005   ----------------------------------------
 BYTE   W96
//  #04 //006   ----------------------------------------
 BYTE   W96
//  #04 //007   ----------------------------------------
 BYTE   W96
//  #04 //008   ----------------------------------------
 BYTE   W96
//  #04 //009   ----------------------------------------
Label_01AD8CFF:
 BYTE   W96
//  #04 //010   ----------------------------------------
 BYTE   W96
//  #04 //011   ----------------------------------------
 BYTE   W96
//  #04 //012   ----------------------------------------
 BYTE   W96
//  #04 //013   ----------------------------------------
 BYTE   W96
//  #04 //014   ----------------------------------------
 BYTE   W96
//  #04 //015   ----------------------------------------
 BYTE   W96
//  #04 //016   ----------------------------------------
 BYTE   W96
//  #04 //017   ----------------------------------------
 BYTE   W96
//  #04 //018   ----------------------------------------
 BYTE   W96
//  #04 //019   ----------------------------------------
 BYTE   W96
//  #04 //020   ----------------------------------------
 BYTE   W96
//  #04 //021   ----------------------------------------
 BYTE   W96
//  #04 //022   ----------------------------------------
 BYTE   W96
//  #04 //023   ----------------------------------------
 BYTE   W96
//  #04 //024   ----------------------------------------
 BYTE   VOL   105*song42_mvl/mxv
 BYTE   PAN   c_v+0
 BYTE   W68
 BYTE   W03
 BYTE   VOICE   24
 BYTE   W01
 BYTE   N42  An2  v127
 BYTE   W23
 BYTE   VOL   101*song42_mvl/mxv
 BYTE   W01
//  #04 //025   ----------------------------------------
 BYTE   VOL   98*song42_mvl/mxv
 BYTE   W01
 BYTE   VOL   93*song42_mvl/mxv
 BYTE   W01
 BYTE   VOL   87*song42_mvl/mxv
 BYTE   W01
 BYTE   VOL   84*song42_mvl/mxv
 BYTE   W01
 BYTE   VOL   79*song42_mvl/mxv
 BYTE   W01
 BYTE   VOL   74*song42_mvl/mxv
 BYTE   W01
 BYTE   VOL   70*song42_mvl/mxv
 BYTE   W01
 BYTE   VOL   65*song42_mvl/mxv
 BYTE   W01
 BYTE   VOL   60*song42_mvl/mxv
 BYTE   W01
 BYTE   VOL   56*song42_mvl/mxv
 BYTE   W01
 BYTE   VOL   51*song42_mvl/mxv
 BYTE   W01
 BYTE   VOL   46*song42_mvl/mxv
 BYTE   W01
 BYTE   VOL   42*song42_mvl/mxv
 BYTE   W01
 BYTE   VOL   37*song42_mvl/mxv
 BYTE   W01
 BYTE   VOL   32*song42_mvl/mxv
 BYTE   W01
 BYTE   VOL   28*song42_mvl/mxv
 BYTE   W01
 BYTE   VOL   23*song42_mvl/mxv
 BYTE   W01
 BYTE   VOL   18*song42_mvl/mxv
 BYTE   W01
 BYTE   VOL   14*song42_mvl/mxv
 BYTE   W01
 BYTE   VOL   9*song42_mvl/mxv
 BYTE   W01
 BYTE   VOL   4*song42_mvl/mxv
 BYTE   W01
 BYTE   VOL   0*song42_mvl/mxv
 BYTE   W01
 BYTE   VOL   105*song42_mvl/mxv
 BYTE   W02
 BYTE   N44  Fs3  v108
 BYTE   W04
 BYTE   VOL   104*song42_mvl/mxv
 BYTE   W03
 BYTE   VOL   103*song42_mvl/mxv
 BYTE   W03
 BYTE   VOL   102*song42_mvl/mxv
 BYTE   W03
 BYTE   VOL   101*song42_mvl/mxv
 BYTE   W02
 BYTE   VOL   100*song42_mvl/mxv
 BYTE   W03
 BYTE   VOL   100*song42_mvl/mxv
 BYTE   W03
 BYTE   VOL   99*song42_mvl/mxv
 BYTE   W03
 BYTE   VOL   98*song42_mvl/mxv
 BYTE   W03
 BYTE   VOL   97*song42_mvl/mxv
 BYTE   W03
 BYTE   VOL   96*song42_mvl/mxv
 BYTE   W03
 BYTE   VOL   95*song42_mvl/mxv
 BYTE   W02
 BYTE   VOL   95*song42_mvl/mxv
 BYTE   W01
 BYTE   VOL   88*song42_mvl/mxv
 BYTE   W01
 BYTE   VOL   78*song42_mvl/mxv
 BYTE   W01
 BYTE   VOL   71*song42_mvl/mxv
 BYTE   W01
 BYTE   VOL   62*song42_mvl/mxv
 BYTE   W01
 BYTE   VOL   52*song42_mvl/mxv
 BYTE   W01
 BYTE   VOL   45*song42_mvl/mxv
 BYTE   W01
 BYTE   VOL   35*song42_mvl/mxv
 BYTE   W01
 BYTE   VOL   25*song42_mvl/mxv
 BYTE   W01
 BYTE   VOL   19*song42_mvl/mxv
 BYTE   W01
 BYTE   VOL   9*song42_mvl/mxv
 BYTE   W01
 BYTE   VOL   0*song42_mvl/mxv
 BYTE   W01
 BYTE   VOL   105*song42_mvl/mxv
 BYTE   W01
 BYTE   N16  Dn3  v120
 BYTE   W11
 BYTE   VOL   105*song42_mvl/mxv
 BYTE   W01
 BYTE   VOL   83*song42_mvl/mxv
 BYTE   W01
 BYTE   VOL   69*song42_mvl/mxv
 BYTE   W01
 BYTE   VOL   47*song42_mvl/mxv
 BYTE   W01
 BYTE   VOL   26*song42_mvl/mxv
 BYTE   W01
 BYTE   VOL   11*song42_mvl/mxv
 BYTE   W01
 BYTE   VOL   105*song42_mvl/mxv
 BYTE   W01
 BYTE   N16
 BYTE   W05
 BYTE   VOL   105*song42_mvl/mxv
 BYTE   W01
//  #04 //026   ----------------------------------------
 BYTE   VOL   90*song42_mvl/mxv
 BYTE   W01
 BYTE   VOL   79*song42_mvl/mxv
 BYTE   W01
 BYTE   VOL   64*song42_mvl/mxv
 BYTE   W01
 BYTE   VOL   48*song42_mvl/mxv
 BYTE   W01
 BYTE   VOL   38*song42_mvl/mxv
 BYTE   W01
 BYTE   VOL   28*song42_mvl/mxv
 BYTE   W01
 BYTE   VOL   24*song42_mvl/mxv
 BYTE   W01
 BYTE   VOL   18*song42_mvl/mxv
 BYTE   W01
 BYTE   VOL   12*song42_mvl/mxv
 BYTE   W01
 BYTE   VOL   8*song42_mvl/mxv
 BYTE   W01
 BYTE   VOL   1*song42_mvl/mxv
 BYTE   W01
 BYTE   VOL   82*song42_mvl/mxv
 BYTE   W01
 BYTE   VOL   105*song42_mvl/mxv
 BYTE   N24  Cs3
 BYTE   W11
 BYTE   VOL   105*song42_mvl/mxv
 BYTE   W01
 BYTE   VOL   99*song42_mvl/mxv
 BYTE   W01
 BYTE   VOL   89*song42_mvl/mxv
 BYTE   W01
 BYTE   VOL   79*song42_mvl/mxv
 BYTE   W01
 BYTE   VOL   72*song42_mvl/mxv
 BYTE   W01
 BYTE   VOL   62*song42_mvl/mxv
 BYTE   W01
 BYTE   VOL   52*song42_mvl/mxv
 BYTE   W01
 BYTE   VOL   47*song42_mvl/mxv
 BYTE   W01
 BYTE   VOL   37*song42_mvl/mxv
 BYTE   W01
 BYTE   VOL   27*song42_mvl/mxv
 BYTE   W01
 BYTE   VOL   20*song42_mvl/mxv
 BYTE   W01
 BYTE   VOL   10*song42_mvl/mxv
 BYTE   W01
 BYTE   VOL   0*song42_mvl/mxv
 BYTE   W03
 BYTE   VOL   12*song42_mvl/mxv
 BYTE   W01
 BYTE   VOL   38*song42_mvl/mxv
 BYTE   W01
 BYTE   VOL   76*song42_mvl/mxv
 BYTE   W01
 BYTE   VOL   105*song42_mvl/mxv
 BYTE   W18
 BYTE   VOL   105*song42_mvl/mxv
 BYTE   W01
 BYTE   N22  An2  v127
 BYTE   W11
 BYTE   VOL   102*song42_mvl/mxv
 BYTE   W01
 BYTE   VOL   95*song42_mvl/mxv
 BYTE   W01
 BYTE   VOL   85*song42_mvl/mxv
 BYTE   W01
 BYTE   VOL   76*song42_mvl/mxv
 BYTE   W01
 BYTE   VOL   69*song42_mvl/mxv
 BYTE   W01
 BYTE   VOL   60*song42_mvl/mxv
 BYTE   W01
 BYTE   VOL   50*song42_mvl/mxv
 BYTE   W01
 BYTE   VOL   43*song42_mvl/mxv
 BYTE   W01
 BYTE   VOL   33*song42_mvl/mxv
 BYTE   W01
 BYTE   VOL   24*song42_mvl/mxv
 BYTE   W01
 BYTE   VOL   18*song42_mvl/mxv
 BYTE   W01
 BYTE   VOL   8*song42_mvl/mxv
 BYTE   W01
 BYTE   VOL   105*song42_mvl/mxv
 BYTE   W01
 BYTE   N24
 BYTE   W12
//  #04 //027   ----------------------------------------
 BYTE   VOL   99*song42_mvl/mxv
 BYTE   W01
 BYTE   VOL   89*song42_mvl/mxv
 BYTE   W01
 BYTE   VOL   82*song42_mvl/mxv
 BYTE   W01
 BYTE   VOL   73*song42_mvl/mxv
 BYTE   W01
 BYTE   VOL   63*song42_mvl/mxv
 BYTE   W01
 BYTE   VOL   57*song42_mvl/mxv
 BYTE   W01
 BYTE   VOL   47*song42_mvl/mxv
 BYTE   W01
 BYTE   VOL   38*song42_mvl/mxv
 BYTE   W01
 BYTE   VOL   31*song42_mvl/mxv
 BYTE   W01
 BYTE   VOL   21*song42_mvl/mxv
 BYTE   W01
 BYTE   VOL   12*song42_mvl/mxv
 BYTE   W01
 BYTE   VOL   5*song42_mvl/mxv
 BYTE   W01
 BYTE   VOL   0*song42_mvl/mxv
 BYTE   W01
 BYTE   VOL   105*song42_mvl/mxv
 BYTE   W10
 BYTE   VOL   105*song42_mvl/mxv
 BYTE   W01
 BYTE   N32  Bn3  v100
 BYTE   W17
 BYTE   VOL   105*song42_mvl/mxv
 BYTE   W01
 BYTE   VOL   97*song42_mvl/mxv
 BYTE   W01
 BYTE   VOL   92*song42_mvl/mxv
 BYTE   W01
 BYTE   VOL   85*song42_mvl/mxv
 BYTE   W01
 BYTE   VOL   77*song42_mvl/mxv
 BYTE   W01
 BYTE   VOL   72*song42_mvl/mxv
 BYTE   W01
 BYTE   VOL   65*song42_mvl/mxv
 BYTE   W01
 BYTE   VOL   57*song42_mvl/mxv
 BYTE   W01
 BYTE   VOL   52*song42_mvl/mxv
 BYTE   W01
 BYTE   VOL   45*song42_mvl/mxv
 BYTE   W01
 BYTE   VOL   38*song42_mvl/mxv
 BYTE   W01
 BYTE   VOL   33*song42_mvl/mxv
 BYTE   W01
 BYTE   VOL   25*song42_mvl/mxv
 BYTE   W01
 BYTE   VOL   18*song42_mvl/mxv
 BYTE   W01
 BYTE   VOL   13*song42_mvl/mxv
 BYTE   W01
 BYTE   VOL   5*song42_mvl/mxv
 BYTE   W01
 BYTE   VOL   0*song42_mvl/mxv
 BYTE   W02
 BYTE   VOL   105*song42_mvl/mxv
 BYTE   W01
 BYTE   N28  Gn3  v092
 BYTE   W04
 BYTE   VOL   104*song42_mvl/mxv
 BYTE   W02
 BYTE   VOL   103*song42_mvl/mxv
 BYTE   W03
 BYTE   VOL   102*song42_mvl/mxv
 BYTE   W02
 BYTE   VOL   101*song42_mvl/mxv
 BYTE   W03
 BYTE   VOL   100*song42_mvl/mxv
 BYTE   W02
 BYTE   VOL   98*song42_mvl/mxv
 BYTE   W01
 BYTE   VOL   95*song42_mvl/mxv
 BYTE   W01
 BYTE   VOL   92*song42_mvl/mxv
 BYTE   W01
 BYTE   VOL   89*song42_mvl/mxv
 BYTE   W01
 BYTE   VOL   85*song42_mvl/mxv
 BYTE   W01
 BYTE   VOL   83*song42_mvl/mxv
 BYTE   W01
 BYTE   VOL   80*song42_mvl/mxv
 BYTE   W01
 BYTE   VOL   72*song42_mvl/mxv
 BYTE   W01
 BYTE   VOL   62*song42_mvl/mxv
 BYTE   W01
 BYTE   VOL   47*song42_mvl/mxv
 BYTE   W01
 BYTE   VOL   33*song42_mvl/mxv
 BYTE   W01
 BYTE   VOL   23*song42_mvl/mxv
 BYTE   W01
 BYTE   VOL   8*song42_mvl/mxv
 BYTE   W01
 BYTE   VOL   105*song42_mvl/mxv
 BYTE   W01
 BYTE   N13  Gn3  v096
 BYTE   W05
 BYTE   VOL   105*song42_mvl/mxv
 BYTE   W01
//  #04 //028   ----------------------------------------
 BYTE   VOL   93*song42_mvl/mxv
 BYTE   W01
 BYTE   VOL   74*song42_mvl/mxv
 BYTE   W01
 BYTE   VOL   56*song42_mvl/mxv
 BYTE   W01
 BYTE   VOL   43*song42_mvl/mxv
 BYTE   W01
 BYTE   VOL   25*song42_mvl/mxv
 BYTE   W01
 BYTE   VOL   6*song42_mvl/mxv
 BYTE   W01
 BYTE   VOL   0*song42_mvl/mxv
 BYTE   W03
 BYTE   VOL   105*song42_mvl/mxv
 BYTE   W84
 BYTE   W02
 BYTE   VOL   105*song42_mvl/mxv
 BYTE   W01
//  #04 //029   ----------------------------------------
 BYTE   N44  Dn3  v120
 BYTE   W23
 BYTE   VOL   105*song42_mvl/mxv
 BYTE   W01
 BYTE   VOL   100*song42_mvl/mxv
 BYTE   W01
 BYTE   VOL   97*song42_mvl/mxv
 BYTE   W01
 BYTE   VOL   93*song42_mvl/mxv
 BYTE   W01
 BYTE   VOL   88*song42_mvl/mxv
 BYTE   W01
 BYTE   VOL   85*song42_mvl/mxv
 BYTE   W01
 BYTE   VOL   81*song42_mvl/mxv
 BYTE   W01
 BYTE   VOL   76*song42_mvl/mxv
 BYTE   W01
 BYTE   VOL   73*song42_mvl/mxv
 BYTE   W01
 BYTE   VOL   68*song42_mvl/mxv
 BYTE   W01
 BYTE   VOL   64*song42_mvl/mxv
 BYTE   W01
 BYTE   VOL   61*song42_mvl/mxv
 BYTE   W01
 BYTE   VOL   56*song42_mvl/mxv
 BYTE   W01
 BYTE   VOL   52*song42_mvl/mxv
 BYTE   W01
 BYTE   VOL   48*song42_mvl/mxv
 BYTE   W01
 BYTE   VOL   44*song42_mvl/mxv
 BYTE   W01
 BYTE   VOL   39*song42_mvl/mxv
 BYTE   W01
 BYTE   VOL   36*song42_mvl/mxv
 BYTE   W01
 BYTE   VOL   32*song42_mvl/mxv
 BYTE   W01
 BYTE   VOL   27*song42_mvl/mxv
 BYTE   W01
 BYTE   VOL   24*song42_mvl/mxv
 BYTE   W01
 BYTE   VOL   19*song42_mvl/mxv
 BYTE   W01
 BYTE   VOL   15*song42_mvl/mxv
 BYTE   W01
 BYTE   VOL   12*song42_mvl/mxv
 BYTE   W01
 BYTE   VOL   7*song42_mvl/mxv
 BYTE   W01
 BYTE   VOL   3*song42_mvl/mxv
 BYTE   W01
 BYTE   VOL   0*song42_mvl/mxv
 BYTE   W07
 BYTE   VOL   24*song42_mvl/mxv
 BYTE   W01
 BYTE   VOL   62*song42_mvl/mxv
 BYTE   W01
 BYTE   VOL   86*song42_mvl/mxv
 BYTE   W01
 BYTE   VOL   105*song42_mvl/mxv
 BYTE   W01
 BYTE   N22  Gn3
 BYTE   W11
 BYTE   VOL   105*song42_mvl/mxv
 BYTE   W01
 BYTE   VOL   94*song42_mvl/mxv
 BYTE   W01
 BYTE   VOL   86*song42_mvl/mxv
 BYTE   W01
 BYTE   VOL   76*song42_mvl/mxv
 BYTE   W01
 BYTE   VOL   65*song42_mvl/mxv
 BYTE   W01
 BYTE   VOL   57*song42_mvl/mxv
 BYTE   W01
 BYTE   VOL   47*song42_mvl/mxv
 BYTE   W01
 BYTE   VOL   36*song42_mvl/mxv
 BYTE   W01
 BYTE   VOL   28*song42_mvl/mxv
 BYTE   W01
 BYTE   VOL   18*song42_mvl/mxv
 BYTE   W01
 BYTE   VOL   6*song42_mvl/mxv
 BYTE   W01
 BYTE   VOL   0*song42_mvl/mxv
 BYTE   W01
 BYTE   VOL   105*song42_mvl/mxv
 BYTE   W01
 BYTE   N10  En3
 BYTE   W04
 BYTE   VOL   99*song42_mvl/mxv
 BYTE   W01
 BYTE   VOL   81*song42_mvl/mxv
 BYTE   W01
 BYTE   VOL   70*song42_mvl/mxv
 BYTE   W01
 BYTE   VOL   52*song42_mvl/mxv
 BYTE   W01
 BYTE   VOL   35*song42_mvl/mxv
 BYTE   W01
 BYTE   VOL   23*song42_mvl/mxv
 BYTE   W01
 BYTE   VOL   6*song42_mvl/mxv
 BYTE   W01
 BYTE   VOL   105*song42_mvl/mxv
 BYTE   W01
//  #04 //030   ----------------------------------------
 BYTE   N23  Gn3  v112
 BYTE   W08
 BYTE   VOL   102*song42_mvl/mxv
 BYTE   W01
 BYTE   VOL   95*song42_mvl/mxv
 BYTE   W01
 BYTE   VOL   90*song42_mvl/mxv
 BYTE   W01
 BYTE   VOL   82*song42_mvl/mxv
 BYTE   W01
 BYTE   VOL   74*song42_mvl/mxv
 BYTE   W01
 BYTE   VOL   69*song42_mvl/mxv
 BYTE   W01
 BYTE   VOL   62*song42_mvl/mxv
 BYTE   W01
 BYTE   VOL   54*song42_mvl/mxv
 BYTE   W01
 BYTE   VOL   48*song42_mvl/mxv
 BYTE   W01
 BYTE   VOL   41*song42_mvl/mxv
 BYTE   W01
 BYTE   VOL   33*song42_mvl/mxv
 BYTE   W01
 BYTE   VOL   28*song42_mvl/mxv
 BYTE   W01
 BYTE   VOL   20*song42_mvl/mxv
 BYTE   W01
 BYTE   VOL   13*song42_mvl/mxv
 BYTE   W01
 BYTE   VOL   8*song42_mvl/mxv
 BYTE   W01
 BYTE   VOL   105*song42_mvl/mxv
 BYTE   W01
 BYTE   N44  Cn3  v120
 BYTE   W17
 BYTE   VOL   105*song42_mvl/mxv
 BYTE   W02
 BYTE   VOL   103*song42_mvl/mxv
 BYTE   W01
 BYTE   VOL   102*song42_mvl/mxv
 BYTE   W01
 BYTE   VOL   100*song42_mvl/mxv
 BYTE   W01
 BYTE   VOL   99*song42_mvl/mxv
 BYTE   W01
 BYTE   VOL   98*song42_mvl/mxv
 BYTE   W01
 BYTE   VOL   96*song42_mvl/mxv
 BYTE   W01
 BYTE   VOL   95*song42_mvl/mxv
 BYTE   W01
 BYTE   VOL   94*song42_mvl/mxv
 BYTE   W01
 BYTE   VOL   92*song42_mvl/mxv
 BYTE   W01
 BYTE   VOL   91*song42_mvl/mxv
 BYTE   W01
 BYTE   VOL   90*song42_mvl/mxv
 BYTE   W01
 BYTE   VOL   89*song42_mvl/mxv
 BYTE   W01
 BYTE   VOL   87*song42_mvl/mxv
 BYTE   W01
 BYTE   VOL   85*song42_mvl/mxv
 BYTE   W01
 BYTE   VOL   85*song42_mvl/mxv
 BYTE   W01
 BYTE   VOL   83*song42_mvl/mxv
 BYTE   W01
 BYTE   VOL   79*song42_mvl/mxv
 BYTE   W01
 BYTE   VOL   73*song42_mvl/mxv
 BYTE   W01
 BYTE   VOL   65*song42_mvl/mxv
 BYTE   W01
 BYTE   VOL   57*song42_mvl/mxv
 BYTE   W01
 BYTE   VOL   51*song42_mvl/mxv
 BYTE   W01
 BYTE   VOL   42*song42_mvl/mxv
 BYTE   W01
 BYTE   VOL   34*song42_mvl/mxv
 BYTE   W01
 BYTE   VOL   28*song42_mvl/mxv
 BYTE   W01
 BYTE   VOL   20*song42_mvl/mxv
 BYTE   W01
 BYTE   VOL   12*song42_mvl/mxv
 BYTE   W01
 BYTE   VOL   6*song42_mvl/mxv
 BYTE   W01
 BYTE   VOL   38*song42_mvl/mxv
 BYTE   W01
 BYTE   VOL   105*song42_mvl/mxv
 BYTE   W01
 BYTE   N21  An2  v127
 BYTE   W11
 BYTE   VOL   105*song42_mvl/mxv
 BYTE   W01
 BYTE   VOL   95*song42_mvl/mxv
 BYTE   W01
 BYTE   VOL   84*song42_mvl/mxv
 BYTE   W01
 BYTE   VOL   76*song42_mvl/mxv
 BYTE   W01
 BYTE   VOL   66*song42_mvl/mxv
 BYTE   W01
 BYTE   VOL   56*song42_mvl/mxv
 BYTE   W01
 BYTE   VOL   48*song42_mvl/mxv
 BYTE   W01
 BYTE   VOL   38*song42_mvl/mxv
 BYTE   W01
 BYTE   VOL   28*song42_mvl/mxv
 BYTE   W01
 BYTE   VOL   20*song42_mvl/mxv
 BYTE   W01
 BYTE   VOL   9*song42_mvl/mxv
 BYTE   W01
 BYTE   VOL   0*song42_mvl/mxv
 BYTE   W01
 BYTE   VOL   105*song42_mvl/mxv
 BYTE   W01
//  #04 //031   ----------------------------------------
 BYTE   TIE  Dn3  v120
 BYTE   W48
 BYTE   VOL   105*song42_mvl/mxv
 BYTE   W02
 BYTE   VOL   104*song42_mvl/mxv
 BYTE   W01
 BYTE   VOL   103*song42_mvl/mxv
 BYTE   W01
 BYTE   VOL   102*song42_mvl/mxv
 BYTE   W01
 BYTE   VOL   101*song42_mvl/mxv
 BYTE   W01
 BYTE   VOL   100*song42_mvl/mxv
 BYTE   W01
 BYTE   VOL   100*song42_mvl/mxv
 BYTE   W01
 BYTE   VOL   99*song42_mvl/mxv
 BYTE   W01
 BYTE   VOL   98*song42_mvl/mxv
 BYTE   W01
 BYTE   VOL   97*song42_mvl/mxv
 BYTE   W01
 BYTE   VOL   96*song42_mvl/mxv
 BYTE   W01
 BYTE   VOL   95*song42_mvl/mxv
 BYTE   W01
 BYTE   VOL   95*song42_mvl/mxv
 BYTE   W02
 BYTE   VOL   94*song42_mvl/mxv
 BYTE   W01
 BYTE   VOL   93*song42_mvl/mxv
 BYTE   W01
 BYTE   VOL   92*song42_mvl/mxv
 BYTE   W01
 BYTE   VOL   91*song42_mvl/mxv
 BYTE   W01
 BYTE   VOL   90*song42_mvl/mxv
 BYTE   W01
 BYTE   VOL   90*song42_mvl/mxv
 BYTE   W01
 BYTE   VOL   89*song42_mvl/mxv
 BYTE   W01
 BYTE   VOL   88*song42_mvl/mxv
 BYTE   W01
 BYTE   VOL   87*song42_mvl/mxv
 BYTE   W01
 BYTE   VOL   86*song42_mvl/mxv
 BYTE   W01
 BYTE   VOL   85*song42_mvl/mxv
 BYTE   W01
 BYTE   VOL   85*song42_mvl/mxv
 BYTE   W01
 BYTE   VOL   84*song42_mvl/mxv
 BYTE   W02
 BYTE   VOL   83*song42_mvl/mxv
 BYTE   W01
 BYTE   VOL   82*song42_mvl/mxv
 BYTE   W01
 BYTE   VOL   78*song42_mvl/mxv
 BYTE   W01
 BYTE   VOL   75*song42_mvl/mxv
 BYTE   W01
 BYTE   VOL   71*song42_mvl/mxv
 BYTE   W01
 BYTE   VOL   66*song42_mvl/mxv
 BYTE   W01
 BYTE   VOL   63*song42_mvl/mxv
 BYTE   W01
 BYTE   VOL   59*song42_mvl/mxv
 BYTE   W01
 BYTE   VOL   54*song42_mvl/mxv
 BYTE   W01
 BYTE   VOL   52*song42_mvl/mxv
 BYTE   W01
 BYTE   VOL   47*song42_mvl/mxv
 BYTE   W01
 BYTE   VOL   42*song42_mvl/mxv
 BYTE   W01
 BYTE   VOL   39*song42_mvl/mxv
 BYTE   W01
 BYTE   VOL   35*song42_mvl/mxv
 BYTE   W01
 BYTE   VOL   30*song42_mvl/mxv
 BYTE   W01
 BYTE   VOL   28*song42_mvl/mxv
 BYTE   W01
 BYTE   VOL   23*song42_mvl/mxv
 BYTE   W01
 BYTE   VOL   19*song42_mvl/mxv
 BYTE   W01
 BYTE   VOL   15*song42_mvl/mxv
 BYTE   W01
//  #04 //032   ----------------------------------------
 BYTE   VOL   13*song42_mvl/mxv
 BYTE   W08
 BYTE   VOL   12*song42_mvl/mxv
 BYTE   W03
 BYTE   VOL   11*song42_mvl/mxv
 BYTE   W01
 BYTE   EOT
 BYTE   W03
 BYTE   VOL   10*song42_mvl/mxv
 BYTE   W04
 BYTE   VOL   9*song42_mvl/mxv
 BYTE   W01
 BYTE   VOL   44*song42_mvl/mxv
 BYTE   W01
 BYTE   VOL   81*song42_mvl/mxv
 BYTE   W01
 BYTE   VOL   105*song42_mvl/mxv
 BYTE   W02
 BYTE   N42  Fs3  v096
 BYTE   W16
 BYTE   VOL   105*song42_mvl/mxv
 BYTE   W07
 BYTE   VOL   105*song42_mvl/mxv
 BYTE   W01
 BYTE   VOL   100*song42_mvl/mxv
 BYTE   W01
 BYTE   VOL   95*song42_mvl/mxv
 BYTE   W01
 BYTE   VOL   90*song42_mvl/mxv
 BYTE   W01
 BYTE   VOL   85*song42_mvl/mxv
 BYTE   W01
 BYTE   VOL   81*song42_mvl/mxv
 BYTE   W01
 BYTE   VOL   76*song42_mvl/mxv
 BYTE   W01
 BYTE   VOL   70*song42_mvl/mxv
 BYTE   W01
 BYTE   VOL   66*song42_mvl/mxv
 BYTE   W01
 BYTE   VOL   61*song42_mvl/mxv
 BYTE   W01
 BYTE   VOL   56*song42_mvl/mxv
 BYTE   W01
 BYTE   VOL   52*song42_mvl/mxv
 BYTE   W01
 BYTE   VOL   46*song42_mvl/mxv
 BYTE   W01
 BYTE   VOL   41*song42_mvl/mxv
 BYTE   W01
 BYTE   VOL   37*song42_mvl/mxv
 BYTE   W01
 BYTE   VOL   32*song42_mvl/mxv
 BYTE   W01
 BYTE   VOL   26*song42_mvl/mxv
 BYTE   W01
 BYTE   VOL   23*song42_mvl/mxv
 BYTE   W01
 BYTE   VOL   17*song42_mvl/mxv
 BYTE   W01
 BYTE   VOL   11*song42_mvl/mxv
 BYTE   W01
 BYTE   VOL   8*song42_mvl/mxv
 BYTE   W01
 BYTE   VOL   2*song42_mvl/mxv
 BYTE   W01
 BYTE   VOL   20*song42_mvl/mxv
 BYTE   W01
 BYTE   VOL   82*song42_mvl/mxv
 BYTE   W01
 BYTE   VOL   105*song42_mvl/mxv
 BYTE   W01
 BYTE   N14  Gn3  v104
 BYTE   W11
 BYTE   VOL   62*song42_mvl/mxv
 BYTE   W01
 BYTE   VOL   4*song42_mvl/mxv
 BYTE   W01
 BYTE   VOL   3*song42_mvl/mxv
 BYTE   W01
 BYTE   VOL   1*song42_mvl/mxv
 BYTE   W01
 BYTE   VOL   105*song42_mvl/mxv
 BYTE   W01
 BYTE   N17  Gn3  v108
 BYTE   W07
 BYTE   VOL   105*song42_mvl/mxv
 BYTE   W01
//  #04 //033   ----------------------------------------
 BYTE   VOL   94*song42_mvl/mxv
 BYTE   W01
 BYTE   VOL   86*song42_mvl/mxv
 BYTE   W01
 BYTE   VOL   76*song42_mvl/mxv
 BYTE   W01
 BYTE   VOL   64*song42_mvl/mxv
 BYTE   W01
 BYTE   VOL   57*song42_mvl/mxv
 BYTE   W01
 BYTE   VOL   46*song42_mvl/mxv
 BYTE   W01
 BYTE   VOL   34*song42_mvl/mxv
 BYTE   W01
 BYTE   VOL   27*song42_mvl/mxv
 BYTE   W01
 BYTE   VOL   16*song42_mvl/mxv
 BYTE   W01
 BYTE   VOL   4*song42_mvl/mxv
 BYTE   W01
 BYTE   VOL   0*song42_mvl/mxv
 BYTE   W40
 BYTE   W01
 BYTE   VOL   5*song42_mvl/mxv
 BYTE   W01
 BYTE   VOL   17*song42_mvl/mxv
 BYTE   W01
 BYTE   VOL   35*song42_mvl/mxv
 BYTE   W01
 BYTE   VOL   52*song42_mvl/mxv
 BYTE   W01
 BYTE   VOL   65*song42_mvl/mxv
 BYTE   W01
 BYTE   VOL   83*song42_mvl/mxv
 BYTE   W01
 BYTE   VOL   100*song42_mvl/mxv
 BYTE   W01
 BYTE   VOL   105*song42_mvl/mxv
 BYTE   W02
 BYTE   N22  Bn2  v112
 BYTE   W12
 BYTE   VOL   98*song42_mvl/mxv
 BYTE   W01
 BYTE   VOL   87*song42_mvl/mxv
 BYTE   W01
 BYTE   VOL   80*song42_mvl/mxv
 BYTE   W01
 BYTE   VOL   69*song42_mvl/mxv
 BYTE   W01
 BYTE   VOL   58*song42_mvl/mxv
 BYTE   W01
 BYTE   VOL   51*song42_mvl/mxv
 BYTE   W01
 BYTE   VOL   40*song42_mvl/mxv
 BYTE   W01
 BYTE   VOL   29*song42_mvl/mxv
 BYTE   W01
 BYTE   VOL   22*song42_mvl/mxv
 BYTE   W01
 BYTE   VOL   11*song42_mvl/mxv
 BYTE   W01
 BYTE   VOL   0*song42_mvl/mxv
 BYTE   W01
 BYTE   VOL   105*song42_mvl/mxv
 BYTE   W01
 BYTE   N24  Fs3  v108
 BYTE   W11
 BYTE   VOL   105*song42_mvl/mxv
 BYTE   W01
//  #04 //034   ----------------------------------------
 BYTE   VOL   96*song42_mvl/mxv
 BYTE   W01
 BYTE   VOL   90*song42_mvl/mxv
 BYTE   W01
 BYTE   VOL   82*song42_mvl/mxv
 BYTE   W01
 BYTE   VOL   74*song42_mvl/mxv
 BYTE   W01
 BYTE   VOL   68*song42_mvl/mxv
 BYTE   W01
 BYTE   VOL   60*song42_mvl/mxv
 BYTE   W01
 BYTE   VOL   52*song42_mvl/mxv
 BYTE   W01
 BYTE   VOL   46*song42_mvl/mxv
 BYTE   W01
 BYTE   VOL   38*song42_mvl/mxv
 BYTE   W01
 BYTE   VOL   29*song42_mvl/mxv
 BYTE   W01
 BYTE   VOL   23*song42_mvl/mxv
 BYTE   W01
 BYTE   VOL   15*song42_mvl/mxv
 BYTE   W01
 BYTE   VOL   6*song42_mvl/mxv
 BYTE   W01
 BYTE   VOL   0*song42_mvl/mxv
 BYTE   W08
 BYTE   VOL   17*song42_mvl/mxv
 BYTE   W01
 BYTE   VOL   34*song42_mvl/mxv
 BYTE   W01
 BYTE   VOL   61*song42_mvl/mxv
 BYTE   W01
 BYTE   VOL   86*song42_mvl/mxv
 BYTE   W01
 BYTE   VOL   105*song42_mvl/mxv
 BYTE   W32
 BYTE   W02
 BYTE   VOL   105*song42_mvl/mxv
 BYTE   W01
 BYTE   N22  An2  v127
 BYTE   W12
 BYTE   VOL   98*song42_mvl/mxv
 BYTE   W01
 BYTE   VOL   87*song42_mvl/mxv
 BYTE   W01
 BYTE   VOL   80*song42_mvl/mxv
 BYTE   W01
 BYTE   VOL   69*song42_mvl/mxv
 BYTE   W01
 BYTE   VOL   58*song42_mvl/mxv
 BYTE   W01
 BYTE   VOL   52*song42_mvl/mxv
 BYTE   W01
 BYTE   VOL   41*song42_mvl/mxv
 BYTE   W01
 BYTE   VOL   30*song42_mvl/mxv
 BYTE   W01
 BYTE   VOL   23*song42_mvl/mxv
 BYTE   W01
 BYTE   VOL   12*song42_mvl/mxv
 BYTE   W01
 BYTE   VOL   1*song42_mvl/mxv
 BYTE   W01
 BYTE   VOL   105*song42_mvl/mxv
 BYTE   W01
 BYTE   N24  En3  v120
 BYTE   W12
//  #04 //035   ----------------------------------------
 BYTE   VOL   100*song42_mvl/mxv
 BYTE   W01
 BYTE   VOL   92*song42_mvl/mxv
 BYTE   W01
 BYTE   VOL   87*song42_mvl/mxv
 BYTE   W01
 BYTE   VOL   79*song42_mvl/mxv
 BYTE   W01
 BYTE   VOL   71*song42_mvl/mxv
 BYTE   W01
 BYTE   VOL   66*song42_mvl/mxv
 BYTE   W01
 BYTE   VOL   58*song42_mvl/mxv
 BYTE   W01
 BYTE   VOL   51*song42_mvl/mxv
 BYTE   W01
 BYTE   VOL   45*song42_mvl/mxv
 BYTE   W01
 BYTE   VOL   38*song42_mvl/mxv
 BYTE   W01
 BYTE   VOL   30*song42_mvl/mxv
 BYTE   W01
 BYTE   VOL   24*song42_mvl/mxv
 BYTE   W01
 BYTE   VOL   17*song42_mvl/mxv
 BYTE   W01
 BYTE   VOL   9*song42_mvl/mxv
 BYTE   W01
 BYTE   VOL   4*song42_mvl/mxv
 BYTE   W01
 BYTE   VOL   0*song42_mvl/mxv
 BYTE   W09
 BYTE   VOL   6*song42_mvl/mxv
 BYTE   W01
 BYTE   VOL   21*song42_mvl/mxv
 BYTE   W01
 BYTE   VOL   42*song42_mvl/mxv
 BYTE   W01
 BYTE   VOL   65*song42_mvl/mxv
 BYTE   W01
 BYTE   VOL   80*song42_mvl/mxv
 BYTE   W01
 BYTE   VOL   101*song42_mvl/mxv
 BYTE   W01
 BYTE   VOL   105*song42_mvl/mxv
 BYTE   W30
 BYTE   N12  Gn2  v127
 BYTE   W11
 BYTE   VOL   105*song42_mvl/mxv
 BYTE   W01
 BYTE   VOL   95*song42_mvl/mxv
 BYTE   W01
 BYTE   VOL   85*song42_mvl/mxv
 BYTE   W01
 BYTE   VOL   78*song42_mvl/mxv
 BYTE   W01
 BYTE   VOL   68*song42_mvl/mxv
 BYTE   W01
 BYTE   VOL   58*song42_mvl/mxv
 BYTE   W01
 BYTE   VOL   51*song42_mvl/mxv
 BYTE   W01
 BYTE   VOL   41*song42_mvl/mxv
 BYTE   W01
 BYTE   VOL   31*song42_mvl/mxv
 BYTE   W01
 BYTE   VOL   24*song42_mvl/mxv
 BYTE   W01
 BYTE   VOL   14*song42_mvl/mxv
 BYTE   W01
 BYTE   VOL   4*song42_mvl/mxv
 BYTE   W01
 BYTE   VOL   105*song42_mvl/mxv
 BYTE   W01
 BYTE   N24  Dn3  v124
 BYTE   W11
 BYTE   VOL   105*song42_mvl/mxv
 BYTE   W01
//  #04 //036   ----------------------------------------
 BYTE   VOL   100*song42_mvl/mxv
 BYTE   W01
 BYTE   VOL   92*song42_mvl/mxv
 BYTE   W01
 BYTE   VOL   84*song42_mvl/mxv
 BYTE   W01
 BYTE   VOL   79*song42_mvl/mxv
 BYTE   W01
 BYTE   VOL   71*song42_mvl/mxv
 BYTE   W01
 BYTE   VOL   63*song42_mvl/mxv
 BYTE   W01
 BYTE   VOL   57*song42_mvl/mxv
 BYTE   W01
 BYTE   VOL   50*song42_mvl/mxv
 BYTE   W01
 BYTE   VOL   42*song42_mvl/mxv
 BYTE   W01
 BYTE   VOL   37*song42_mvl/mxv
 BYTE   W01
 BYTE   VOL   28*song42_mvl/mxv
 BYTE   W01
 BYTE   VOL   21*song42_mvl/mxv
 BYTE   W01
 BYTE   VOL   16*song42_mvl/mxv
 BYTE   W01
 BYTE   VOL   8*song42_mvl/mxv
 BYTE   W01
 BYTE   VOL   0*song42_mvl/mxv
 BYTE   W40
 BYTE   W01
 BYTE   VOL   0*song42_mvl/mxv
 BYTE   W01
 BYTE   VOL   35*song42_mvl/mxv
 BYTE   W01
 BYTE   VOL   59*song42_mvl/mxv
 BYTE   W01
 BYTE   VOL   95*song42_mvl/mxv
 BYTE   W01
 BYTE   VOL   105*song42_mvl/mxv
 BYTE   W01
 BYTE   N21  An2  v127
 BYTE   W11
 BYTE   VOL   105*song42_mvl/mxv
 BYTE   W01
 BYTE   VOL   94*song42_mvl/mxv
 BYTE   W01
 BYTE   VOL   82*song42_mvl/mxv
 BYTE   W01
 BYTE   VOL   75*song42_mvl/mxv
 BYTE   W01
 BYTE   VOL   64*song42_mvl/mxv
 BYTE   W01
 BYTE   VOL   52*song42_mvl/mxv
 BYTE   W01
 BYTE   VOL   45*song42_mvl/mxv
 BYTE   W01
 BYTE   VOL   33*song42_mvl/mxv
 BYTE   W01
 BYTE   VOL   23*song42_mvl/mxv
 BYTE   W01
 BYTE   VOL   15*song42_mvl/mxv
 BYTE   W01
 BYTE   VOL   4*song42_mvl/mxv
 BYTE   W01
 BYTE   VOL   52*song42_mvl/mxv
 BYTE   W01
 BYTE   VOL   105*song42_mvl/mxv
 BYTE   W01
 BYTE   N24  En3  v108
 BYTE   W11
 BYTE   VOL   102*song42_mvl/mxv
 BYTE   W01
//  #04 //037   ----------------------------------------
 BYTE   VOL   96*song42_mvl/mxv
 BYTE   W01
 BYTE   VOL   88*song42_mvl/mxv
 BYTE   W01
 BYTE   VOL   80*song42_mvl/mxv
 BYTE   W01
 BYTE   VOL   74*song42_mvl/mxv
 BYTE   W01
 BYTE   VOL   66*song42_mvl/mxv
 BYTE   W01
 BYTE   VOL   57*song42_mvl/mxv
 BYTE   W01
 BYTE   VOL   52*song42_mvl/mxv
 BYTE   W01
 BYTE   VOL   43*song42_mvl/mxv
 BYTE   W01
 BYTE   VOL   34*song42_mvl/mxv
 BYTE   W01
 BYTE   VOL   29*song42_mvl/mxv
 BYTE   W01
 BYTE   VOL   20*song42_mvl/mxv
 BYTE   W01
 BYTE   VOL   12*song42_mvl/mxv
 BYTE   W01
 BYTE   VOL   6*song42_mvl/mxv
 BYTE   W01
 BYTE   VOL   0*song42_mvl/mxv
 BYTE   W13
 BYTE   VOL   0*song42_mvl/mxv
 BYTE   W01
 BYTE   VOL   28*song42_mvl/mxv
 BYTE   W01
 BYTE   VOL   48*song42_mvl/mxv
 BYTE   W01
 BYTE   VOL   78*song42_mvl/mxv
 BYTE   W01
 BYTE   VOL   105*song42_mvl/mxv
 BYTE   W28
 BYTE   W01
 BYTE   VOL   105*song42_mvl/mxv
 BYTE   W01
 BYTE   N21  Bn2  v124
 BYTE   W12
 BYTE   VOL   98*song42_mvl/mxv
 BYTE   W01
 BYTE   VOL   87*song42_mvl/mxv
 BYTE   W01
 BYTE   VOL   81*song42_mvl/mxv
 BYTE   W01
 BYTE   VOL   70*song42_mvl/mxv
 BYTE   W01
 BYTE   VOL   59*song42_mvl/mxv
 BYTE   W01
 BYTE   VOL   52*song42_mvl/mxv
 BYTE   W01
 BYTE   VOL   42*song42_mvl/mxv
 BYTE   W01
 BYTE   VOL   31*song42_mvl/mxv
 BYTE   W01
 BYTE   VOL   24*song42_mvl/mxv
 BYTE   W01
 BYTE   VOL   14*song42_mvl/mxv
 BYTE   W01
 BYTE   VOL   3*song42_mvl/mxv
 BYTE   W01
 BYTE   VOL   105*song42_mvl/mxv
 BYTE   W01
 BYTE   N24  Fs3  v104
 BYTE   W11
 BYTE   VOL   105*song42_mvl/mxv
 BYTE   W01
//  #04 //038   ----------------------------------------
 BYTE   VOL   99*song42_mvl/mxv
 BYTE   W01
 BYTE   VOL   90*song42_mvl/mxv
 BYTE   W01
 BYTE   VOL   81*song42_mvl/mxv
 BYTE   W01
 BYTE   VOL   75*song42_mvl/mxv
 BYTE   W01
 BYTE   VOL   66*song42_mvl/mxv
 BYTE   W01
 BYTE   VOL   57*song42_mvl/mxv
 BYTE   W01
 BYTE   VOL   52*song42_mvl/mxv
 BYTE   W01
 BYTE   VOL   42*song42_mvl/mxv
 BYTE   W01
 BYTE   VOL   33*song42_mvl/mxv
 BYTE   W01
 BYTE   VOL   28*song42_mvl/mxv
 BYTE   W01
 BYTE   VOL   19*song42_mvl/mxv
 BYTE   W01
 BYTE   VOL   9*song42_mvl/mxv
 BYTE   W01
 BYTE   VOL   4*song42_mvl/mxv
 BYTE   W01
 BYTE   VOL   0*song42_mvl/mxv
 BYTE   W24
 BYTE   W01
 BYTE   VOL   4*song42_mvl/mxv
 BYTE   W01
 BYTE   VOL   15*song42_mvl/mxv
 BYTE   W01
 BYTE   VOL   31*song42_mvl/mxv
 BYTE   W01
 BYTE   VOL   47*song42_mvl/mxv
 BYTE   W01
 BYTE   VOL   57*song42_mvl/mxv
 BYTE   W01
 BYTE   VOL   74*song42_mvl/mxv
 BYTE   W01
 BYTE   VOL   90*song42_mvl/mxv
 BYTE   W01
 BYTE   VOL   105*song42_mvl/mxv
 BYTE   W14
 BYTE   VOL   105*song42_mvl/mxv
 BYTE   W01
 BYTE   N21  An3
 BYTE   W11
 BYTE   VOL   105*song42_mvl/mxv
 BYTE   W01
 BYTE   VOL   93*song42_mvl/mxv
 BYTE   W01
 BYTE   VOL   81*song42_mvl/mxv
 BYTE   W01
 BYTE   VOL   72*song42_mvl/mxv
 BYTE   W01
 BYTE   VOL   61*song42_mvl/mxv
 BYTE   W01
 BYTE   VOL   48*song42_mvl/mxv
 BYTE   W01
 BYTE   VOL   40*song42_mvl/mxv
 BYTE   W01
 BYTE   VOL   28*song42_mvl/mxv
 BYTE   W01
 BYTE   VOL   16*song42_mvl/mxv
 BYTE   W01
 BYTE   VOL   8*song42_mvl/mxv
 BYTE   W01
 BYTE   VOL   0*song42_mvl/mxv
 BYTE   W01
 BYTE   VOL   0*song42_mvl/mxv
 BYTE   W01
 BYTE   VOL   105*song42_mvl/mxv
 BYTE   W01
 BYTE   N24  Cs4
 BYTE   W11
 BYTE   VOL   105*song42_mvl/mxv
 BYTE   W01
//  #04 //039   ----------------------------------------
 BYTE   VOL   94*song42_mvl/mxv
 BYTE   W01
 BYTE   VOL   86*song42_mvl/mxv
 BYTE   W01
 BYTE   VOL   75*song42_mvl/mxv
 BYTE   W01
 BYTE   VOL   64*song42_mvl/mxv
 BYTE   W01
 BYTE   VOL   57*song42_mvl/mxv
 BYTE   W01
 BYTE   VOL   45*song42_mvl/mxv
 BYTE   W01
 BYTE   VOL   33*song42_mvl/mxv
 BYTE   W01
 BYTE   VOL   26*song42_mvl/mxv
 BYTE   W01
 BYTE   VOL   15*song42_mvl/mxv
 BYTE   W01
 BYTE   VOL   4*song42_mvl/mxv
 BYTE   W01
 BYTE   VOL   0*song42_mvl/mxv
 BYTE   W09
 BYTE   VOL   0*song42_mvl/mxv
 BYTE   W01
 BYTE   VOL   32*song42_mvl/mxv
 BYTE   W01
 BYTE   VOL   54*song42_mvl/mxv
 BYTE   W01
 BYTE   VOL   86*song42_mvl/mxv
 BYTE   W01
 BYTE   VOL   105*song42_mvl/mxv
 BYTE   W36
 BYTE   VOL   105*song42_mvl/mxv
 BYTE   W01
 BYTE   N20  Gn3  v092
 BYTE   W12
 BYTE   VOL   97*song42_mvl/mxv
 BYTE   W01
 BYTE   VOL   85*song42_mvl/mxv
 BYTE   W01
 BYTE   VOL   77*song42_mvl/mxv
 BYTE   W01
 BYTE   VOL   65*song42_mvl/mxv
 BYTE   W01
 BYTE   VOL   53*song42_mvl/mxv
 BYTE   W01
 BYTE   VOL   45*song42_mvl/mxv
 BYTE   W01
 BYTE   VOL   33*song42_mvl/mxv
 BYTE   W01
 BYTE   VOL   21*song42_mvl/mxv
 BYTE   W01
 BYTE   VOL   14*song42_mvl/mxv
 BYTE   W01
 BYTE   VOL   0*song42_mvl/mxv
 BYTE   W02
 BYTE   VOL   105*song42_mvl/mxv
 BYTE   W01
 BYTE   N24  Dn4
 BYTE   W11
 BYTE   VOL   105*song42_mvl/mxv
 BYTE   W01
//  #04 //040   ----------------------------------------
 BYTE   VOL   96*song42_mvl/mxv
 BYTE   W01
 BYTE   VOL   88*song42_mvl/mxv
 BYTE   W01
 BYTE   VOL   82*song42_mvl/mxv
 BYTE   W01
 BYTE   VOL   73*song42_mvl/mxv
 BYTE   W01
 BYTE   VOL   65*song42_mvl/mxv
 BYTE   W01
 BYTE   VOL   59*song42_mvl/mxv
 BYTE   W01
 BYTE   VOL   50*song42_mvl/mxv
 BYTE   W01
 BYTE   VOL   42*song42_mvl/mxv
 BYTE   W01
 BYTE   VOL   36*song42_mvl/mxv
 BYTE   W01
 BYTE   VOL   27*song42_mvl/mxv
 BYTE   W01
 BYTE   VOL   19*song42_mvl/mxv
 BYTE   W01
 BYTE   VOL   13*song42_mvl/mxv
 BYTE   W01
 BYTE   VOL   4*song42_mvl/mxv
 BYTE   W01
 BYTE   VOL   0*song42_mvl/mxv
 BYTE   W80
 BYTE   W03
//  #04 //041   ----------------------------------------
 BYTE   W96
//  #04 //042   ----------------------------------------
 BYTE   W96
//  #04 //043   ----------------------------------------
 BYTE   W96
//  #04 //044   ----------------------------------------
 BYTE   W96
//  #04 //045   ----------------------------------------
 BYTE   W96
//  #04 //046   ----------------------------------------
 BYTE   W96
//  #04 //047   ----------------------------------------
 BYTE   W96
//  #04 //048   ----------------------------------------
 BYTE   W96
//  #04 //049   ----------------------------------------
 BYTE   W96
//  #04 //050   ----------------------------------------
 BYTE   GoTo
  POIN2 Label_01AD8CFF
 BYTE   FINE

//**************** Track 5 (Midi-Chn.4) ****************//

song42_005:
//  #05 //000   ----------------------------------------
 BYTE   KEYSH   song42_key+0
Label_01AD928D:
 BYTE   VOICE   30
 BYTE   VOL   21*song42_mvl/mxv
 BYTE   PAN   c_v+10
 BYTE   N96  Bn2  v076
 BYTE   TIE  Fs3
 BYTE   W06
 BYTE   VOL   24*song42_mvl/mxv
 BYTE   W06
 BYTE   VOL   27*song42_mvl/mxv
 BYTE   W06
 BYTE   VOL   30*song42_mvl/mxv
 BYTE   W06
 BYTE   VOL   33*song42_mvl/mxv
 BYTE   W06
 BYTE   VOL   36*song42_mvl/mxv
 BYTE   W06
 BYTE   VOL   39*song42_mvl/mxv
 BYTE   W06
 BYTE   VOL   42*song42_mvl/mxv
 BYTE   W06
 BYTE   VOL   45*song42_mvl/mxv
 BYTE   W06
 BYTE   VOL   47*song42_mvl/mxv
 BYTE   W06
 BYTE   VOL   51*song42_mvl/mxv
 BYTE   W06
 BYTE   VOL   54*song42_mvl/mxv
 BYTE   W06
 BYTE   VOL   57*song42_mvl/mxv
 BYTE   W06
 BYTE   VOL   60*song42_mvl/mxv
 BYTE   W06
 BYTE   VOL   62*song42_mvl/mxv
 BYTE   W06
 BYTE   VOL   66*song42_mvl/mxv
 BYTE   W06
 BYTE   PEND 
//  #05 //001   ----------------------------------------
Label_01AD92B9:
 BYTE   VOL   69*song42_mvl/mxv
 BYTE   N96  An2  v076
 BYTE   W06
 BYTE   VOL   66*song42_mvl/mxv
 BYTE   W06
 BYTE   VOL   62*song42_mvl/mxv
 BYTE   W06
 BYTE   VOL   59*song42_mvl/mxv
 BYTE   W06
 BYTE   VOL   56*song42_mvl/mxv
 BYTE   W06
 BYTE   VOL   52*song42_mvl/mxv
 BYTE   W06
 BYTE   VOL   48*song42_mvl/mxv
 BYTE   W06
 BYTE   VOL   45*song42_mvl/mxv
 BYTE   W06
 BYTE   VOL   42*song42_mvl/mxv
 BYTE   W06
 BYTE   VOL   38*song42_mvl/mxv
 BYTE   W06
 BYTE   VOL   34*song42_mvl/mxv
 BYTE   W06
 BYTE   VOL   31*song42_mvl/mxv
 BYTE   W06
 BYTE   VOL   28*song42_mvl/mxv
 BYTE   W06
 BYTE   VOL   24*song42_mvl/mxv
 BYTE   W06
 BYTE   VOL   21*song42_mvl/mxv
 BYTE   W06
 BYTE   VOL   17*song42_mvl/mxv
 BYTE   W06
 BYTE   PEND 
//  #05 //002   ----------------------------------------
Label_01AD92DF:
 BYTE   VOL   21*song42_mvl/mxv
 BYTE   TIE  Gn2  v076
 BYTE   W06
 BYTE   VOL   24*song42_mvl/mxv
 BYTE   W06
 BYTE   VOL   27*song42_mvl/mxv
 BYTE   W06
 BYTE   VOL   30*song42_mvl/mxv
 BYTE   W06
 BYTE   VOL   33*song42_mvl/mxv
 BYTE   W06
 BYTE   VOL   36*song42_mvl/mxv
 BYTE   W06
 BYTE   VOL   39*song42_mvl/mxv
 BYTE   W06
 BYTE   VOL   42*song42_mvl/mxv
 BYTE   W06
 BYTE   VOL   45*song42_mvl/mxv
 BYTE   W06
 BYTE   VOL   47*song42_mvl/mxv
 BYTE   W06
 BYTE   VOL   51*song42_mvl/mxv
 BYTE   W06
 BYTE   VOL   54*song42_mvl/mxv
 BYTE   W06
 BYTE   VOL   57*song42_mvl/mxv
 BYTE   W06
 BYTE   VOL   60*song42_mvl/mxv
 BYTE   W06
 BYTE   VOL   62*song42_mvl/mxv
 BYTE   W06
 BYTE   VOL   66*song42_mvl/mxv
 BYTE   W06
 BYTE   PEND 
//  #05 //003   ----------------------------------------
Label_01AD9305:
 BYTE   VOL   69*song42_mvl/mxv
 BYTE   W06
 BYTE   VOL   66*song42_mvl/mxv
 BYTE   W06
 BYTE   VOL   62*song42_mvl/mxv
 BYTE   W06
 BYTE   VOL   59*song42_mvl/mxv
 BYTE   W06
 BYTE   VOL   56*song42_mvl/mxv
 BYTE   W06
 BYTE   VOL   52*song42_mvl/mxv
 BYTE   W06
 BYTE   VOL   48*song42_mvl/mxv
 BYTE   W06
 BYTE   VOL   45*song42_mvl/mxv
 BYTE   W06
 BYTE   VOL   42*song42_mvl/mxv
 BYTE   W06
 BYTE   VOL   38*song42_mvl/mxv
 BYTE   W06
 BYTE   VOL   34*song42_mvl/mxv
 BYTE   W06
 BYTE   VOL   31*song42_mvl/mxv
 BYTE   W06
 BYTE   VOL   28*song42_mvl/mxv
 BYTE   W06
 BYTE   VOL   24*song42_mvl/mxv
 BYTE   W06
 BYTE   VOL   21*song42_mvl/mxv
 BYTE   W06
 BYTE   VOL   17*song42_mvl/mxv
 BYTE   W03
 BYTE   VOL   21*song42_mvl/mxv
 BYTE   W03
 BYTE   PEND 
//  #05 //004   ----------------------------------------
 BYTE   EOT
 BYTE   Gn2
Label_01AD932B:
 BYTE   N96  Bn2  v076
 BYTE   W03
 BYTE   VOL   24*song42_mvl/mxv
 BYTE   W06
 BYTE   VOL   27*song42_mvl/mxv
 BYTE   W06
 BYTE   VOL   30*song42_mvl/mxv
 BYTE   W06
 BYTE   VOL   33*song42_mvl/mxv
 BYTE   W06
 BYTE   VOL   36*song42_mvl/mxv
 BYTE   W06
 BYTE   VOL   39*song42_mvl/mxv
 BYTE   W06
 BYTE   VOL   42*song42_mvl/mxv
 BYTE   W06
 BYTE   VOL   45*song42_mvl/mxv
 BYTE   W06
 BYTE   VOL   47*song42_mvl/mxv
 BYTE   W06
 BYTE   VOL   51*song42_mvl/mxv
 BYTE   W06
 BYTE   VOL   54*song42_mvl/mxv
 BYTE   W06
 BYTE   VOL   57*song42_mvl/mxv
 BYTE   W06
 BYTE   VOL   60*song42_mvl/mxv
 BYTE   W06
 BYTE   VOL   62*song42_mvl/mxv
 BYTE   W06
 BYTE   VOL   66*song42_mvl/mxv
 BYTE   W06
 BYTE   VOL   69*song42_mvl/mxv
 BYTE   W03
 BYTE   PEND 
//  #05 //005   ----------------------------------------
Label_01AD9351:
 BYTE   N96  An2  v076
 BYTE   W03
 BYTE   VOL   66*song42_mvl/mxv
 BYTE   W06
 BYTE   VOL   62*song42_mvl/mxv
 BYTE   W06
 BYTE   VOL   59*song42_mvl/mxv
 BYTE   W06
 BYTE   VOL   56*song42_mvl/mxv
 BYTE   W06
 BYTE   VOL   52*song42_mvl/mxv
 BYTE   W06
 BYTE   VOL   48*song42_mvl/mxv
 BYTE   W06
 BYTE   VOL   45*song42_mvl/mxv
 BYTE   W06
 BYTE   VOL   42*song42_mvl/mxv
 BYTE   W06
 BYTE   VOL   38*song42_mvl/mxv
 BYTE   W06
 BYTE   VOL   34*song42_mvl/mxv
 BYTE   W06
 BYTE   VOL   31*song42_mvl/mxv
 BYTE   W06
 BYTE   VOL   28*song42_mvl/mxv
 BYTE   W06
 BYTE   VOL   24*song42_mvl/mxv
 BYTE   W06
 BYTE   VOL   21*song42_mvl/mxv
 BYTE   W06
 BYTE   VOL   17*song42_mvl/mxv
 BYTE   W09
 BYTE   PEND 
//  #05 //006   ----------------------------------------
 BYTE   PATT
  POIN2 Label_01AD92DF
//  #05 //007   ----------------------------------------
Label_01AD937A:
 BYTE   VOL   67*song42_mvl/mxv
 BYTE   W06
 BYTE   VOL   66*song42_mvl/mxv
 BYTE   W06
 BYTE   VOL   63*song42_mvl/mxv
 BYTE   W06
 BYTE   VOL   62*song42_mvl/mxv
 BYTE   W06
 BYTE   VOL   59*song42_mvl/mxv
 BYTE   W06
 BYTE   VOL   57*song42_mvl/mxv
 BYTE   W06
 BYTE   VOL   55*song42_mvl/mxv
 BYTE   W06
 BYTE   VOL   52*song42_mvl/mxv
 BYTE   W06
 BYTE   VOL   50*song42_mvl/mxv
 BYTE   W06
 BYTE   VOL   48*song42_mvl/mxv
 BYTE   W06
 BYTE   VOL   46*song42_mvl/mxv
 BYTE   W06
 BYTE   VOL   43*song42_mvl/mxv
 BYTE   W06
 BYTE   VOL   42*song42_mvl/mxv
 BYTE   W06
 BYTE   VOL   39*song42_mvl/mxv
 BYTE   W06
 BYTE   VOL   37*song42_mvl/mxv
 BYTE   W06
 BYTE   VOL   35*song42_mvl/mxv
 BYTE   W06
 BYTE   PEND 
//  #05 //008   ----------------------------------------
Label_01AD939C:
 BYTE   VOL   33*song42_mvl/mxv
 BYTE   W06
 BYTE   VOL   31*song42_mvl/mxv
 BYTE   W06
 BYTE   VOL   28*song42_mvl/mxv
 BYTE   W06
 BYTE   VOL   26*song42_mvl/mxv
 BYTE   W06
 BYTE   VOL   24*song42_mvl/mxv
 BYTE   W06
 BYTE   VOL   22*song42_mvl/mxv
 BYTE   W06
 BYTE   VOL   19*song42_mvl/mxv
 BYTE   W06
 BYTE   VOL   18*song42_mvl/mxv
 BYTE   W06
 BYTE   VOL   15*song42_mvl/mxv
 BYTE   W06
 BYTE   VOL   13*song42_mvl/mxv
 BYTE   W06
 BYTE   VOL   11*song42_mvl/mxv
 BYTE   W06
 BYTE   VOL   9*song42_mvl/mxv
 BYTE   W06
 BYTE   VOL   6*song42_mvl/mxv
 BYTE   W06
 BYTE   VOL   4*song42_mvl/mxv
 BYTE   W06
 BYTE   VOL   2*song42_mvl/mxv
 BYTE   W06
 BYTE   VOL   0*song42_mvl/mxv
 BYTE   W06
 BYTE   PEND 
//  #05 //009   ----------------------------------------
 BYTE   EOT
 BYTE   Gn2  v066
Label_01AD93C1:
 BYTE   W96
//  #05 //010   ----------------------------------------
 BYTE   W96
//  #05 //011   ----------------------------------------
 BYTE   W96
//  #05 //012   ----------------------------------------
 BYTE   W96
//  #05 //013   ----------------------------------------
 BYTE   W96
//  #05 //014   ----------------------------------------
 BYTE   W96
//  #05 //015   ----------------------------------------
 BYTE   W96
//  #05 //016   ----------------------------------------
 BYTE   W96
//  #05 //017   ----------------------------------------
 BYTE   W96
//  #05 //018   ----------------------------------------
 BYTE   W96
//  #05 //019   ----------------------------------------
 BYTE   W96
//  #05 //020   ----------------------------------------
 BYTE   W96
//  #05 //021   ----------------------------------------
 BYTE   W96
//  #05 //022   ----------------------------------------
 BYTE   W96
//  #05 //023   ----------------------------------------
 BYTE   W96
//  #05 //024   ----------------------------------------
 BYTE   W96
//  #05 //025   ----------------------------------------
 BYTE   W96
//  #05 //026   ----------------------------------------
 BYTE   W96
//  #05 //027   ----------------------------------------
 BYTE   W96
//  #05 //028   ----------------------------------------
 BYTE   W96
//  #05 //029   ----------------------------------------
 BYTE   W96
//  #05 //030   ----------------------------------------
 BYTE   W96
//  #05 //031   ----------------------------------------
 BYTE   W96
//  #05 //032   ----------------------------------------
 BYTE   W96
//  #05 //033   ----------------------------------------
 BYTE   VOICE   30
 BYTE   MOD 0
 BYTE   PAN   c_v-30
 BYTE   VOL   95*song42_mvl/mxv
 BYTE   N96  Bn3  v036
 BYTE   W12
 BYTE   MOD 3
 BYTE   VOL   66*song42_mvl/mxv
 BYTE   W72
 BYTE   VOL   49*song42_mvl/mxv
 BYTE   W12
//  #05 //034   ----------------------------------------
Label_01AD93EC:
 BYTE   MOD 0
 BYTE   VOL   95*song42_mvl/mxv
 BYTE   N96  An3  v036
 BYTE   W12
 BYTE   MOD 3
 BYTE   VOL   66*song42_mvl/mxv
 BYTE   W72
 BYTE   VOL   49*song42_mvl/mxv
 BYTE   W12
 BYTE   PEND 
//  #05 //035   ----------------------------------------
Label_01AD93FC:
 BYTE   MOD 0
 BYTE   VOL   95*song42_mvl/mxv
 BYTE   N96  Gn3  v036
 BYTE   W12
 BYTE   MOD 3
 BYTE   VOL   66*song42_mvl/mxv
 BYTE   W72
 BYTE   VOL   49*song42_mvl/mxv
 BYTE   W12
 BYTE   PEND 
//  #05 //036   ----------------------------------------
 BYTE   PATT
  POIN2 Label_01AD93EC
//  #05 //037   ----------------------------------------
 BYTE   MOD 0
 BYTE   VOL   95*song42_mvl/mxv
 BYTE   N96  Bn3  v036
 BYTE   W96
//  #05 //038   ----------------------------------------
 BYTE   PATT
  POIN2 Label_01AD93EC
//  #05 //039   ----------------------------------------
 BYTE   PATT
  POIN2 Label_01AD93FC
//  #05 //040   ----------------------------------------
 BYTE   VOICE   30
 BYTE   MOD 0
 BYTE   PAN   c_v+10
 BYTE   N96  En3  v036
 BYTE   W96
//  #05 //041   ----------------------------------------
 BYTE   PATT
  POIN2 Label_01AD928D
//  #05 //042   ----------------------------------------
 BYTE   PATT
  POIN2 Label_01AD92B9
//  #05 //043   ----------------------------------------
 BYTE   PATT
  POIN2 Label_01AD92DF
//  #05 //044   ----------------------------------------
 BYTE   PATT
  POIN2 Label_01AD9305
//  #05 //045   ----------------------------------------
 BYTE   EOT
 BYTE   Gn2
//  #05 //046   ----------------------------------------
 BYTE   PATT
  POIN2 Label_01AD932B
//  #05 //047   ----------------------------------------
 BYTE   PATT
  POIN2 Label_01AD9351
//  #05 //048   ----------------------------------------
 BYTE   PATT
  POIN2 Label_01AD92DF
//  #05 //049   ----------------------------------------
 BYTE   PATT
  POIN2 Label_01AD937A
//  #05 //050   ----------------------------------------
 BYTE   PATT
  POIN2 Label_01AD939C
//  #05 //051   ----------------------------------------
 BYTE   EOT
 BYTE   Gn2  v066
 BYTE   GoTo
  POIN2 Label_01AD93C1
 BYTE   FINE

//**************** Track 6 (Midi-Chn.5) ****************//

song42_006:
//  #06 //000   ----------------------------------------
 BYTE   KEYSH   song42_key+0
Label_01AD9467:
 BYTE   VOICE   30
 BYTE   MOD 0
 BYTE   VOL   21*song42_mvl/mxv
 BYTE   LFOS 50
 BYTE   MODT 0
 BYTE   PAN   c_v-10
 BYTE   N96  Dn3  v084
 BYTE   W06
 BYTE   VOL   24*song42_mvl/mxv
 BYTE   W06
 BYTE   VOL   27*song42_mvl/mxv
 BYTE   W06
 BYTE   VOL   30*song42_mvl/mxv
 BYTE   W06
 BYTE   VOL   33*song42_mvl/mxv
 BYTE   W06
 BYTE   VOL   36*song42_mvl/mxv
 BYTE   W06
 BYTE   VOL   39*song42_mvl/mxv
 BYTE   W06
 BYTE   VOL   42*song42_mvl/mxv
 BYTE   W06
 BYTE   VOL   45*song42_mvl/mxv
 BYTE   W06
 BYTE   VOL   47*song42_mvl/mxv
 BYTE   W06
 BYTE   VOL   51*song42_mvl/mxv
 BYTE   W06
 BYTE   VOL   54*song42_mvl/mxv
 BYTE   W06
 BYTE   VOL   57*song42_mvl/mxv
 BYTE   W06
 BYTE   VOL   60*song42_mvl/mxv
 BYTE   W06
 BYTE   VOL   62*song42_mvl/mxv
 BYTE   W06
 BYTE   VOL   66*song42_mvl/mxv
 BYTE   W06
 BYTE   PEND 
//  #06 //001   ----------------------------------------
Label_01AD9497:
 BYTE   VOL   69*song42_mvl/mxv
 BYTE   N96  Cs3  v084
 BYTE   W06
 BYTE   VOL   66*song42_mvl/mxv
 BYTE   W06
 BYTE   VOL   62*song42_mvl/mxv
 BYTE   W06
 BYTE   VOL   59*song42_mvl/mxv
 BYTE   W06
 BYTE   VOL   56*song42_mvl/mxv
 BYTE   W06
 BYTE   VOL   52*song42_mvl/mxv
 BYTE   W06
 BYTE   VOL   48*song42_mvl/mxv
 BYTE   W06
 BYTE   VOL   45*song42_mvl/mxv
 BYTE   W06
 BYTE   VOL   42*song42_mvl/mxv
 BYTE   W06
 BYTE   VOL   38*song42_mvl/mxv
 BYTE   W06
 BYTE   VOL   34*song42_mvl/mxv
 BYTE   W06
 BYTE   VOL   31*song42_mvl/mxv
 BYTE   W06
 BYTE   VOL   28*song42_mvl/mxv
 BYTE   W06
 BYTE   VOL   24*song42_mvl/mxv
 BYTE   W06
 BYTE   VOL   21*song42_mvl/mxv
 BYTE   W06
 BYTE   VOL   17*song42_mvl/mxv
 BYTE   W06
 BYTE   PEND 
//  #06 //002   ----------------------------------------
Label_01AD94BD:
 BYTE   VOL   21*song42_mvl/mxv
 BYTE   TIE  Bn2  v084
 BYTE   W06
 BYTE   VOL   24*song42_mvl/mxv
 BYTE   W06
 BYTE   VOL   27*song42_mvl/mxv
 BYTE   W06
 BYTE   VOL   30*song42_mvl/mxv
 BYTE   W06
 BYTE   VOL   33*song42_mvl/mxv
 BYTE   W06
 BYTE   VOL   36*song42_mvl/mxv
 BYTE   W06
 BYTE   VOL   39*song42_mvl/mxv
 BYTE   W06
 BYTE   VOL   42*song42_mvl/mxv
 BYTE   W06
 BYTE   VOL   45*song42_mvl/mxv
 BYTE   W06
 BYTE   VOL   47*song42_mvl/mxv
 BYTE   W06
 BYTE   VOL   51*song42_mvl/mxv
 BYTE   W06
 BYTE   VOL   54*song42_mvl/mxv
 BYTE   W06
 BYTE   VOL   57*song42_mvl/mxv
 BYTE   W06
 BYTE   VOL   60*song42_mvl/mxv
 BYTE   W06
 BYTE   VOL   62*song42_mvl/mxv
 BYTE   W06
 BYTE   VOL   66*song42_mvl/mxv
 BYTE   W06
 BYTE   PEND 
//  #06 //003   ----------------------------------------
Label_01AD94E3:
 BYTE   VOL   69*song42_mvl/mxv
 BYTE   W06
 BYTE   VOL   66*song42_mvl/mxv
 BYTE   W06
 BYTE   VOL   62*song42_mvl/mxv
 BYTE   W06
 BYTE   VOL   59*song42_mvl/mxv
 BYTE   W06
 BYTE   VOL   56*song42_mvl/mxv
 BYTE   W06
 BYTE   VOL   52*song42_mvl/mxv
 BYTE   W06
 BYTE   VOL   48*song42_mvl/mxv
 BYTE   W06
 BYTE   VOL   45*song42_mvl/mxv
 BYTE   W06
 BYTE   VOL   42*song42_mvl/mxv
 BYTE   W06
 BYTE   VOL   38*song42_mvl/mxv
 BYTE   W06
 BYTE   VOL   34*song42_mvl/mxv
 BYTE   W06
 BYTE   VOL   31*song42_mvl/mxv
 BYTE   W06
 BYTE   VOL   28*song42_mvl/mxv
 BYTE   W06
 BYTE   VOL   24*song42_mvl/mxv
 BYTE   W06
 BYTE   VOL   21*song42_mvl/mxv
 BYTE   W06
 BYTE   VOL   17*song42_mvl/mxv
 BYTE   W03
 BYTE   VOL   21*song42_mvl/mxv
 BYTE   W03
 BYTE   PEND 
//  #06 //004   ----------------------------------------
 BYTE   EOT
 BYTE   Bn2
Label_01AD9509:
 BYTE   N96  Dn3  v084
 BYTE   W03
 BYTE   VOL   24*song42_mvl/mxv
 BYTE   W06
 BYTE   VOL   27*song42_mvl/mxv
 BYTE   W06
 BYTE   VOL   30*song42_mvl/mxv
 BYTE   W06
 BYTE   VOL   33*song42_mvl/mxv
 BYTE   W06
 BYTE   VOL   36*song42_mvl/mxv
 BYTE   W06
 BYTE   VOL   39*song42_mvl/mxv
 BYTE   W06
 BYTE   VOL   42*song42_mvl/mxv
 BYTE   W06
 BYTE   VOL   45*song42_mvl/mxv
 BYTE   W06
 BYTE   VOL   47*song42_mvl/mxv
 BYTE   W06
 BYTE   VOL   51*song42_mvl/mxv
 BYTE   W06
 BYTE   VOL   54*song42_mvl/mxv
 BYTE   W06
 BYTE   VOL   57*song42_mvl/mxv
 BYTE   W06
 BYTE   VOL   60*song42_mvl/mxv
 BYTE   W06
 BYTE   VOL   62*song42_mvl/mxv
 BYTE   W06
 BYTE   VOL   66*song42_mvl/mxv
 BYTE   W06
 BYTE   VOL   69*song42_mvl/mxv
 BYTE   W03
 BYTE   PEND 
//  #06 //005   ----------------------------------------
Label_01AD952F:
 BYTE   N96  Cs3  v084
 BYTE   W03
 BYTE   VOL   66*song42_mvl/mxv
 BYTE   W06
 BYTE   VOL   62*song42_mvl/mxv
 BYTE   W06
 BYTE   VOL   59*song42_mvl/mxv
 BYTE   W06
 BYTE   VOL   56*song42_mvl/mxv
 BYTE   W06
 BYTE   VOL   52*song42_mvl/mxv
 BYTE   W06
 BYTE   VOL   48*song42_mvl/mxv
 BYTE   W06
 BYTE   VOL   45*song42_mvl/mxv
 BYTE   W06
 BYTE   VOL   42*song42_mvl/mxv
 BYTE   W06
 BYTE   VOL   38*song42_mvl/mxv
 BYTE   W06
 BYTE   VOL   34*song42_mvl/mxv
 BYTE   W06
 BYTE   VOL   31*song42_mvl/mxv
 BYTE   W06
 BYTE   VOL   28*song42_mvl/mxv
 BYTE   W06
 BYTE   VOL   24*song42_mvl/mxv
 BYTE   W06
 BYTE   VOL   21*song42_mvl/mxv
 BYTE   W06
 BYTE   VOL   17*song42_mvl/mxv
 BYTE   W09
 BYTE   PEND 
//  #06 //006   ----------------------------------------
 BYTE   PATT
  POIN2 Label_01AD94BD
//  #06 //007   ----------------------------------------
Label_01AD9558:
 BYTE   VOL   67*song42_mvl/mxv
 BYTE   W06
 BYTE   VOL   66*song42_mvl/mxv
 BYTE   W06
 BYTE   VOL   63*song42_mvl/mxv
 BYTE   W06
 BYTE   VOL   62*song42_mvl/mxv
 BYTE   W06
 BYTE   VOL   59*song42_mvl/mxv
 BYTE   W06
 BYTE   VOL   57*song42_mvl/mxv
 BYTE   W06
 BYTE   VOL   55*song42_mvl/mxv
 BYTE   W06
 BYTE   VOL   52*song42_mvl/mxv
 BYTE   W06
 BYTE   VOL   50*song42_mvl/mxv
 BYTE   W06
 BYTE   VOL   48*song42_mvl/mxv
 BYTE   W06
 BYTE   VOL   46*song42_mvl/mxv
 BYTE   W06
 BYTE   VOL   43*song42_mvl/mxv
 BYTE   W06
 BYTE   VOL   42*song42_mvl/mxv
 BYTE   W06
 BYTE   VOL   39*song42_mvl/mxv
 BYTE   W06
 BYTE   VOL   37*song42_mvl/mxv
 BYTE   W06
 BYTE   VOL   35*song42_mvl/mxv
 BYTE   W06
 BYTE   PEND 
//  #06 //008   ----------------------------------------
Label_01AD957A:
 BYTE   VOL   33*song42_mvl/mxv
 BYTE   W06
 BYTE   VOL   31*song42_mvl/mxv
 BYTE   W06
 BYTE   VOL   28*song42_mvl/mxv
 BYTE   W06
 BYTE   VOL   26*song42_mvl/mxv
 BYTE   W06
 BYTE   VOL   24*song42_mvl/mxv
 BYTE   W06
 BYTE   VOL   22*song42_mvl/mxv
 BYTE   W06
 BYTE   VOL   19*song42_mvl/mxv
 BYTE   W06
 BYTE   VOL   18*song42_mvl/mxv
 BYTE   W06
 BYTE   VOL   15*song42_mvl/mxv
 BYTE   W06
 BYTE   VOL   13*song42_mvl/mxv
 BYTE   W06
 BYTE   VOL   11*song42_mvl/mxv
 BYTE   W06
 BYTE   VOL   9*song42_mvl/mxv
 BYTE   W06
 BYTE   VOL   6*song42_mvl/mxv
 BYTE   W06
 BYTE   VOL   4*song42_mvl/mxv
 BYTE   W06
 BYTE   VOL   2*song42_mvl/mxv
 BYTE   W06
 BYTE   VOL   0*song42_mvl/mxv
 BYTE   W06
 BYTE   PEND 
//  #06 //009   ----------------------------------------
 BYTE   EOT
 BYTE   Bn2
Label_01AD959E:
 BYTE   N12  Bn1  v127
 BYTE   W06
 BYTE   VOL   37*song42_mvl/mxv
 BYTE   W06
 BYTE   VOL   98*song42_mvl/mxv
 BYTE   N12  Fs2  v060
 BYTE   W06
 BYTE   VOL   41*song42_mvl/mxv
 BYTE   W06
 BYTE   VOL   98*song42_mvl/mxv
 BYTE   N12  Cs3  v056
 BYTE   W12
 BYTE   N60  Dn3  v072
 BYTE   W36
 BYTE   VOL   65*song42_mvl/mxv
 BYTE   W21
 BYTE   VOL   54*song42_mvl/mxv
 BYTE   W03
//  #06 //010   ----------------------------------------
Label_01AD95BB:
 BYTE   VOL   95*song42_mvl/mxv
 BYTE   N12  An1  v127
 BYTE   W06
 BYTE   VOL   37*song42_mvl/mxv
 BYTE   W06
 BYTE   VOL   98*song42_mvl/mxv
 BYTE   N12  Fs2  v060
 BYTE   W06
 BYTE   VOL   41*song42_mvl/mxv
 BYTE   W06
 BYTE   VOL   98*song42_mvl/mxv
 BYTE   N12  Bn2  v068
 BYTE   W12
 BYTE   N60  Cs3  v072
 BYTE   W36
 BYTE   VOL   65*song42_mvl/mxv
 BYTE   W21
 BYTE   VOL   54*song42_mvl/mxv
 BYTE   W03
 BYTE   PEND 
//  #06 //011   ----------------------------------------
 BYTE   Bn5
 BYTE   N12  Gn1  v127
 BYTE   W06
 BYTE   VOL   37*song42_mvl/mxv
 BYTE   W06
 BYTE   VOL   98*song42_mvl/mxv
 BYTE   N12  Dn2  v060
 BYTE   W06
 BYTE   VOL   41*song42_mvl/mxv
 BYTE   W06
 BYTE   VOL   98*song42_mvl/mxv
 BYTE   N12  An2  v076
 BYTE   W12
 BYTE   N60  Bn2  v072
 BYTE   W36
 BYTE   VOL   65*song42_mvl/mxv
 BYTE   W21
 BYTE   VOL   54*song42_mvl/mxv
 BYTE   W03
//  #06 //012   ----------------------------------------
Label_01AD95F9:
 BYTE   VOL   95*song42_mvl/mxv
 BYTE   N12  Fs1  v127
 BYTE   W06
 BYTE   VOL   37*song42_mvl/mxv
 BYTE   W06
 BYTE   VOL   98*song42_mvl/mxv
 BYTE   N12  Cs2  v060
 BYTE   W06
 BYTE   VOL   41*song42_mvl/mxv
 BYTE   W06
 BYTE   VOL   98*song42_mvl/mxv
 BYTE   N12  Gs2  v056
 BYTE   W12
 BYTE   N60  An2  v072
 BYTE   W36
 BYTE   VOL   65*song42_mvl/mxv
 BYTE   W21
 BYTE   VOL   54*song42_mvl/mxv
 BYTE   W03
 BYTE   PEND 
//  #06 //013   ----------------------------------------
Label_01AD9619:
 BYTE   VOL   95*song42_mvl/mxv
 BYTE   N12  En1  v096
 BYTE   W06
 BYTE   VOL   37*song42_mvl/mxv
 BYTE   W06
 BYTE   VOL   98*song42_mvl/mxv
 BYTE   N12  Bn1  v060
 BYTE   W06
 BYTE   VOL   41*song42_mvl/mxv
 BYTE   W06
 BYTE   VOL   98*song42_mvl/mxv
 BYTE   N12  Fs2  v068
 BYTE   W12
 BYTE   N60  Gn2  v072
 BYTE   W36
 BYTE   VOL   65*song42_mvl/mxv
 BYTE   W21
 BYTE   VOL   54*song42_mvl/mxv
 BYTE   W03
 BYTE   PEND 
//  #06 //014   ----------------------------------------
 BYTE   PATT
  POIN2 Label_01AD95F9
//  #06 //015   ----------------------------------------
Label_01AD963E:
 BYTE   VOL   95*song42_mvl/mxv
 BYTE   N12  Gn1  v127
 BYTE   W06
 BYTE   VOL   37*song42_mvl/mxv
 BYTE   W06
 BYTE   VOL   98*song42_mvl/mxv
 BYTE   N12  Dn2  v060
 BYTE   W06
 BYTE   VOL   41*song42_mvl/mxv
 BYTE   W06
 BYTE   VOL   98*song42_mvl/mxv
 BYTE   N12  An2  v068
 BYTE   W12
 BYTE   N60  Bn2  v072
 BYTE   W36
 BYTE   VOL   65*song42_mvl/mxv
 BYTE   W21
 BYTE   VOL   54*song42_mvl/mxv
 BYTE   W03
 BYTE   PEND 
//  #06 //016   ----------------------------------------
Label_01AD965E:
 BYTE   VOL   95*song42_mvl/mxv
 BYTE   N12  An1  v127
 BYTE   W06
 BYTE   VOL   37*song42_mvl/mxv
 BYTE   W06
 BYTE   VOL   98*song42_mvl/mxv
 BYTE   N12  En2  v060
 BYTE   W06
 BYTE   VOL   41*song42_mvl/mxv
 BYTE   W06
 BYTE   VOL   98*song42_mvl/mxv
 BYTE   N12  Bn2  v068
 BYTE   W12
 BYTE   N60  Cs3  v072
 BYTE   W36
 BYTE   VOL   65*song42_mvl/mxv
 BYTE   W21
 BYTE   VOL   54*song42_mvl/mxv
 BYTE   W03
 BYTE   PEND 
//  #06 //017   ----------------------------------------
 BYTE   Bn5
 BYTE   N12  Bn1  v127
 BYTE   W06
 BYTE   VOL   37*song42_mvl/mxv
 BYTE   W06
 BYTE   VOL   98*song42_mvl/mxv
 BYTE   N12  Fs2  v060
 BYTE   W06
 BYTE   VOL   41*song42_mvl/mxv
 BYTE   W06
 BYTE   VOL   98*song42_mvl/mxv
 BYTE   N12  Cs3  v056
 BYTE   W12
 BYTE   N60  Dn3  v072
 BYTE   W36
 BYTE   VOL   65*song42_mvl/mxv
 BYTE   W21
 BYTE   VOL   54*song42_mvl/mxv
 BYTE   W03
//  #06 //018   ----------------------------------------
 BYTE   PATT
  POIN2 Label_01AD95BB
//  #06 //019   ----------------------------------------
 BYTE   PATT
  POIN2 Label_01AD963E
//  #06 //020   ----------------------------------------
 BYTE   PATT
  POIN2 Label_01AD95F9
//  #06 //021   ----------------------------------------
 BYTE   PATT
  POIN2 Label_01AD9619
//  #06 //022   ----------------------------------------
 BYTE   PATT
  POIN2 Label_01AD95F9
//  #06 //023   ----------------------------------------
 BYTE   PATT
  POIN2 Label_01AD963E
//  #06 //024   ----------------------------------------
 BYTE   PATT
  POIN2 Label_01AD965E
//  #06 //025   ----------------------------------------
 BYTE   VOICE   36
 BYTE   MOD 0
 BYTE   VOL   67*song42_mvl/mxv
 BYTE   PAN   c_v+0
 BYTE   N12  Gn1  v127
 BYTE   W03
 BYTE   VOL   36*song42_mvl/mxv
 BYTE   W03
 BYTE   VOL   23*song42_mvl/mxv
 BYTE   W03
 BYTE   VOL   19*song42_mvl/mxv
 BYTE   W03
 BYTE   VOL   65*song42_mvl/mxv
 BYTE   N24
 BYTE   W03
 BYTE   VOL   36*song42_mvl/mxv
 BYTE   W03
 BYTE   VOL   23*song42_mvl/mxv
 BYTE   W03
 BYTE   VOL   19*song42_mvl/mxv
 BYTE   W15
 BYTE   VOL   67*song42_mvl/mxv
 BYTE   N24
 BYTE   W03
 BYTE   VOL   38*song42_mvl/mxv
 BYTE   W03
 BYTE   VOL   28*song42_mvl/mxv
 BYTE   W03
 BYTE   VOL   23*song42_mvl/mxv
 BYTE   W15
 BYTE   VOL   67*song42_mvl/mxv
 BYTE   N36  Gn1  v112
 BYTE   W12
 BYTE   MOD 3
 BYTE   VOL   32*song42_mvl/mxv
 BYTE   W09
 BYTE   VOL   25*song42_mvl/mxv
 BYTE   W15
//  #06 //026   ----------------------------------------
Label_01AD96F2:
 BYTE   MOD 0
 BYTE   VOL   67*song42_mvl/mxv
 BYTE   PAN   c_v+0
 BYTE   VOL   95*song42_mvl/mxv
 BYTE   N12  Gn1  v127
 BYTE   W03
 BYTE   VOL   36*song42_mvl/mxv
 BYTE   W03
 BYTE   VOL   23*song42_mvl/mxv
 BYTE   W03
 BYTE   VOL   19*song42_mvl/mxv
 BYTE   W03
 BYTE   VOL   65*song42_mvl/mxv
 BYTE   N24
 BYTE   W03
 BYTE   VOL   36*song42_mvl/mxv
 BYTE   W03
 BYTE   VOL   23*song42_mvl/mxv
 BYTE   W03
 BYTE   VOL   19*song42_mvl/mxv
 BYTE   W15
 BYTE   VOL   67*song42_mvl/mxv
 BYTE   N24
 BYTE   W03
 BYTE   VOL   38*song42_mvl/mxv
 BYTE   W03
 BYTE   VOL   28*song42_mvl/mxv
 BYTE   W03
 BYTE   VOL   23*song42_mvl/mxv
 BYTE   W15
 BYTE   VOL   67*song42_mvl/mxv
 BYTE   N36  Gn1  v112
 BYTE   W12
 BYTE   MOD 3
 BYTE   VOL   53*song42_mvl/mxv
 BYTE   W09
 BYTE   VOL   25*song42_mvl/mxv
 BYTE   W15
 BYTE   PEND 
//  #06 //027   ----------------------------------------
 BYTE   PATT
  POIN2 Label_01AD96F2
//  #06 //028   ----------------------------------------
 BYTE   PATT
  POIN2 Label_01AD96F2
//  #06 //029   ----------------------------------------
 BYTE   MOD 0
 BYTE   VOL   67*song42_mvl/mxv
 BYTE   PAN   c_v+0
 BYTE   VOL   95*song42_mvl/mxv
 BYTE   N12  As1  v104
 BYTE   W03
 BYTE   VOL   36*song42_mvl/mxv
 BYTE   W03
 BYTE   VOL   23*song42_mvl/mxv
 BYTE   W03
 BYTE   VOL   19*song42_mvl/mxv
 BYTE   W03
 BYTE   VOL   65*song42_mvl/mxv
 BYTE   N24
 BYTE   W03
 BYTE   VOL   36*song42_mvl/mxv
 BYTE   W03
 BYTE   VOL   23*song42_mvl/mxv
 BYTE   W03
 BYTE   VOL   19*song42_mvl/mxv
 BYTE   W15
 BYTE   VOL   67*song42_mvl/mxv
 BYTE   N24
 BYTE   W03
 BYTE   VOL   38*song42_mvl/mxv
 BYTE   W03
 BYTE   VOL   28*song42_mvl/mxv
 BYTE   W03
 BYTE   VOL   23*song42_mvl/mxv
 BYTE   W15
 BYTE   VOL   67*song42_mvl/mxv
 BYTE   N36  As1  v092
 BYTE   W12
 BYTE   MOD 3
 BYTE   VOL   53*song42_mvl/mxv
 BYTE   W09
 BYTE   VOL   25*song42_mvl/mxv
 BYTE   W15
//  #06 //030   ----------------------------------------
 BYTE   MOD 0
 BYTE   VOL   67*song42_mvl/mxv
 BYTE   PAN   c_v+0
 BYTE   VOL   95*song42_mvl/mxv
 BYTE   N12  An1  v120
 BYTE   W03
 BYTE   VOL   36*song42_mvl/mxv
 BYTE   W03
 BYTE   VOL   23*song42_mvl/mxv
 BYTE   W03
 BYTE   VOL   19*song42_mvl/mxv
 BYTE   W03
 BYTE   VOL   65*song42_mvl/mxv
 BYTE   N24
 BYTE   W03
 BYTE   VOL   36*song42_mvl/mxv
 BYTE   W03
 BYTE   VOL   23*song42_mvl/mxv
 BYTE   W03
 BYTE   VOL   19*song42_mvl/mxv
 BYTE   W15
 BYTE   VOL   67*song42_mvl/mxv
 BYTE   N24
 BYTE   W03
 BYTE   VOL   38*song42_mvl/mxv
 BYTE   W03
 BYTE   VOL   28*song42_mvl/mxv
 BYTE   W03
 BYTE   VOL   23*song42_mvl/mxv
 BYTE   W15
 BYTE   VOL   67*song42_mvl/mxv
 BYTE   N36  An1  v108
 BYTE   W12
 BYTE   MOD 3
 BYTE   VOL   53*song42_mvl/mxv
 BYTE   W09
 BYTE   VOL   25*song42_mvl/mxv
 BYTE   W15
//  #06 //031   ----------------------------------------
 BYTE   MOD 0
 BYTE   VOL   67*song42_mvl/mxv
 BYTE   PAN   c_v+0
 BYTE   VOL   95*song42_mvl/mxv
 BYTE   N12  Gn1  v124
 BYTE   W03
 BYTE   VOL   36*song42_mvl/mxv
 BYTE   W03
 BYTE   VOL   23*song42_mvl/mxv
 BYTE   W03
 BYTE   VOL   19*song42_mvl/mxv
 BYTE   W03
 BYTE   VOL   65*song42_mvl/mxv
 BYTE   N24
 BYTE   W03
 BYTE   VOL   36*song42_mvl/mxv
 BYTE   W03
 BYTE   VOL   23*song42_mvl/mxv
 BYTE   W03
 BYTE   VOL   19*song42_mvl/mxv
 BYTE   W15
 BYTE   VOL   67*song42_mvl/mxv
 BYTE   N24
 BYTE   W03
 BYTE   VOL   38*song42_mvl/mxv
 BYTE   W03
 BYTE   VOL   28*song42_mvl/mxv
 BYTE   W03
 BYTE   VOL   23*song42_mvl/mxv
 BYTE   W15
 BYTE   VOL   67*song42_mvl/mxv
 BYTE   N36  Gn1  v112
 BYTE   W12
 BYTE   MOD 3
 BYTE   VOL   53*song42_mvl/mxv
 BYTE   W09
 BYTE   VOL   25*song42_mvl/mxv
 BYTE   W15
//  #06 //032   ----------------------------------------
 BYTE   VOICE   30
 BYTE   MOD 0
 BYTE   VOL   95*song42_mvl/mxv
 BYTE   PAN   c_v+0
 BYTE   N48  Gn2
 BYTE   W48
 BYTE   Fs2
 BYTE   W48
//  #06 //033   ----------------------------------------
 BYTE   VOICE   30
 BYTE   MOD 0
 BYTE   VOL   95*song42_mvl/mxv
 BYTE   N96  Dn3  v044
 BYTE   W12
 BYTE   MOD 3
 BYTE   VOL   66*song42_mvl/mxv
 BYTE   W72
 BYTE   VOL   49*song42_mvl/mxv
 BYTE   W12
//  #06 //034   ----------------------------------------
Label_01AD97E7:
 BYTE   MOD 0
 BYTE   VOL   95*song42_mvl/mxv
 BYTE   N96  Cs3  v044
 BYTE   W12
 BYTE   MOD 3
 BYTE   VOL   66*song42_mvl/mxv
 BYTE   W72
 BYTE   VOL   49*song42_mvl/mxv
 BYTE   W12
 BYTE   PEND 
//  #06 //035   ----------------------------------------
Label_01AD97F7:
 BYTE   MOD 0
 BYTE   VOL   95*song42_mvl/mxv
 BYTE   N96  Dn3  v044
 BYTE   W12
 BYTE   MOD 3
 BYTE   VOL   66*song42_mvl/mxv
 BYTE   W72
 BYTE   VOL   49*song42_mvl/mxv
 BYTE   W12
 BYTE   PEND 
//  #06 //036   ----------------------------------------
 BYTE   PATT
  POIN2 Label_01AD97E7
//  #06 //037   ----------------------------------------
 BYTE   PATT
  POIN2 Label_01AD97F7
//  #06 //038   ----------------------------------------
 BYTE   PATT
  POIN2 Label_01AD97E7
//  #06 //039   ----------------------------------------
 BYTE   MOD 0
 BYTE   VOL   95*song42_mvl/mxv
 BYTE   N96  Bn2  v044
 BYTE   W12
 BYTE   MOD 3
 BYTE   VOL   66*song42_mvl/mxv
 BYTE   W72
 BYTE   VOL   49*song42_mvl/mxv
 BYTE   W12
//  #06 //040   ----------------------------------------
 BYTE   MOD 0
 BYTE   VOL   95*song42_mvl/mxv
 BYTE   N96  Cs3
 BYTE   W96
//  #06 //041   ----------------------------------------
 BYTE   PATT
  POIN2 Label_01AD9467
//  #06 //042   ----------------------------------------
 BYTE   PATT
  POIN2 Label_01AD9497
//  #06 //043   ----------------------------------------
 BYTE   PATT
  POIN2 Label_01AD94BD
//  #06 //044   ----------------------------------------
 BYTE   PATT
  POIN2 Label_01AD94E3
//  #06 //045   ----------------------------------------
 BYTE   EOT
 BYTE   Bn2
//  #06 //046   ----------------------------------------
 BYTE   PATT
  POIN2 Label_01AD9509
//  #06 //047   ----------------------------------------
 BYTE   PATT
  POIN2 Label_01AD952F
//  #06 //048   ----------------------------------------
 BYTE   PATT
  POIN2 Label_01AD94BD
//  #06 //049   ----------------------------------------
 BYTE   PATT
  POIN2 Label_01AD9558
//  #06 //050   ----------------------------------------
 BYTE   PATT
  POIN2 Label_01AD957A
//  #06 //051   ----------------------------------------
 BYTE   EOT
 BYTE   Bn2
 BYTE   GoTo
  POIN2 Label_01AD959E
 BYTE   FINE

//**************** Track 7 (Midi-Chn.6) ****************//

song42_007:
//  #07 //000   ----------------------------------------
 BYTE   KEYSH   song42_key+0
 BYTE   W96
//  #07 //001   ----------------------------------------
 BYTE   W96
//  #07 //002   ----------------------------------------
 BYTE   W96
//  #07 //003   ----------------------------------------
 BYTE   W96
//  #07 //004   ----------------------------------------
 BYTE   VOICE   42
 BYTE   MOD 0
 BYTE   VOL   8*song42_mvl/mxv
 BYTE   PAN   c_v-64
 BYTE   LFOS 30
 BYTE   MODT 0
 BYTE   TIE  Bn1  v092
 BYTE   W03
 BYTE   VOL   9*song42_mvl/mxv
 BYTE   W02
 BYTE   VOL   9*song42_mvl/mxv
 BYTE   W03
 BYTE   VOL   10*song42_mvl/mxv
 BYTE   W02
 BYTE   VOL   11*song42_mvl/mxv
 BYTE   W02
 BYTE   VOL   12*song42_mvl/mxv
 BYTE   W03
 BYTE   VOL   13*song42_mvl/mxv
 BYTE   W02
 BYTE   VOL   14*song42_mvl/mxv
 BYTE   W02
 BYTE   VOL   14*song42_mvl/mxv
 BYTE   W03
 BYTE   VOL   15*song42_mvl/mxv
 BYTE   W02
 BYTE   VOL   16*song42_mvl/mxv
 BYTE   W02
 BYTE   VOL   17*song42_mvl/mxv
 BYTE   W02
 BYTE   VOL   18*song42_mvl/mxv
 BYTE   W03
 BYTE   VOL   19*song42_mvl/mxv
 BYTE   W02
 BYTE   VOL   19*song42_mvl/mxv
 BYTE   W02
 BYTE   VOL   20*song42_mvl/mxv
 BYTE   W03
 BYTE   VOL   21*song42_mvl/mxv
 BYTE   W02
 BYTE   VOL   22*song42_mvl/mxv
 BYTE   W02
 BYTE   VOL   23*song42_mvl/mxv
 BYTE   W03
 BYTE   VOL   23*song42_mvl/mxv
 BYTE   W02
 BYTE   VOL   24*song42_mvl/mxv
 BYTE   W02
 BYTE   VOL   25*song42_mvl/mxv
 BYTE   W02
 BYTE   VOL   26*song42_mvl/mxv
 BYTE   W03
 BYTE   VOL   27*song42_mvl/mxv
 BYTE   W02
 BYTE   VOL   28*song42_mvl/mxv
 BYTE   W02
 BYTE   VOL   28*song42_mvl/mxv
 BYTE   W03
 BYTE   VOL   29*song42_mvl/mxv
 BYTE   W02
 BYTE   VOL   30*song42_mvl/mxv
 BYTE   W02
 BYTE   VOL   31*song42_mvl/mxv
 BYTE   W03
 BYTE   VOL   32*song42_mvl/mxv
 BYTE   W02
 BYTE   VOL   33*song42_mvl/mxv
 BYTE   W02
 BYTE   VOL   33*song42_mvl/mxv
 BYTE   W02
 BYTE   VOL   34*song42_mvl/mxv
 BYTE   W03
 BYTE   VOL   35*song42_mvl/mxv
 BYTE   W02
 BYTE   VOL   36*song42_mvl/mxv
 BYTE   W02
 BYTE   VOL   37*song42_mvl/mxv
 BYTE   W03
 BYTE   VOL   38*song42_mvl/mxv
 BYTE   W02
 BYTE   VOL   38*song42_mvl/mxv
 BYTE   W02
 BYTE   VOL   39*song42_mvl/mxv
 BYTE   W03
 BYTE   VOL   40*song42_mvl/mxv
 BYTE   W02
 BYTE   VOL   41*song42_mvl/mxv
 BYTE   W02
 BYTE   VOL   42*song42_mvl/mxv
 BYTE   W01
//  #07 //005   ----------------------------------------
Label_01AD98CC:
 BYTE   W01
 BYTE   VOL   42*song42_mvl/mxv
 BYTE   W03
 BYTE   VOL   43*song42_mvl/mxv
 BYTE   W02
 BYTE   VOL   44*song42_mvl/mxv
 BYTE   W02
 BYTE   VOL   45*song42_mvl/mxv
 BYTE   W03
 BYTE   VOL   46*song42_mvl/mxv
 BYTE   W02
 BYTE   VOL   47*song42_mvl/mxv
 BYTE   W02
 BYTE   VOL   47*song42_mvl/mxv
 BYTE   W03
 BYTE   VOL   48*song42_mvl/mxv
 BYTE   W02
 BYTE   VOL   49*song42_mvl/mxv
 BYTE   W02
 BYTE   VOL   50*song42_mvl/mxv
 BYTE   W02
 BYTE   VOL   51*song42_mvl/mxv
 BYTE   W03
 BYTE   VOL   52*song42_mvl/mxv
 BYTE   W02
 BYTE   VOL   52*song42_mvl/mxv
 BYTE   W02
 BYTE   VOL   53*song42_mvl/mxv
 BYTE   W03
 BYTE   VOL   54*song42_mvl/mxv
 BYTE   W02
 BYTE   VOL   55*song42_mvl/mxv
 BYTE   W02
 BYTE   VOL   56*song42_mvl/mxv
 BYTE   W03
 BYTE   VOL   57*song42_mvl/mxv
 BYTE   W02
 BYTE   VOL   57*song42_mvl/mxv
 BYTE   W02
 BYTE   VOL   58*song42_mvl/mxv
 BYTE   W02
 BYTE   VOL   59*song42_mvl/mxv
 BYTE   W03
 BYTE   VOL   60*song42_mvl/mxv
 BYTE   W02
 BYTE   VOL   61*song42_mvl/mxv
 BYTE   W02
 BYTE   VOL   62*song42_mvl/mxv
 BYTE   W03
 BYTE   VOL   62*song42_mvl/mxv
 BYTE   W02
 BYTE   VOL   63*song42_mvl/mxv
 BYTE   W02
 BYTE   VOL   64*song42_mvl/mxv
 BYTE   W03
 BYTE   VOL   65*song42_mvl/mxv
 BYTE   W02
 BYTE   VOL   66*song42_mvl/mxv
 BYTE   W02
 BYTE   VOL   66*song42_mvl/mxv
 BYTE   W02
 BYTE   VOL   67*song42_mvl/mxv
 BYTE   W03
 BYTE   VOL   68*song42_mvl/mxv
 BYTE   W02
 BYTE   VOL   69*song42_mvl/mxv
 BYTE   W02
 BYTE   VOL   70*song42_mvl/mxv
 BYTE   W03
 BYTE   VOL   71*song42_mvl/mxv
 BYTE   W02
 BYTE   VOL   71*song42_mvl/mxv
 BYTE   W02
 BYTE   VOL   72*song42_mvl/mxv
 BYTE   W03
 BYTE   VOL   73*song42_mvl/mxv
 BYTE   W02
 BYTE   VOL   74*song42_mvl/mxv
 BYTE   W02
 BYTE   VOL   75*song42_mvl/mxv
 BYTE   W02
 BYTE   VOL   76*song42_mvl/mxv
 BYTE   W03
 BYTE   PEND 
//  #07 //006   ----------------------------------------
Label_01AD9921:
 BYTE   VOL   76*song42_mvl/mxv
 BYTE   W03
 BYTE   VOL   73*song42_mvl/mxv
 BYTE   W03
 BYTE   VOL   80*song42_mvl/mxv
 BYTE   W04
 BYTE   VOL   79*song42_mvl/mxv
 BYTE   W03
 BYTE   VOL   74*song42_mvl/mxv
 BYTE   W03
 BYTE   VOL   73*song42_mvl/mxv
 BYTE   W04
 BYTE   VOL   72*song42_mvl/mxv
 BYTE   W03
 BYTE   VOL   71*song42_mvl/mxv
 BYTE   W03
 BYTE   VOL   71*song42_mvl/mxv
 BYTE   W04
 BYTE   VOL   70*song42_mvl/mxv
 BYTE   W03
 BYTE   VOL   69*song42_mvl/mxv
 BYTE   W03
 BYTE   VOL   68*song42_mvl/mxv
 BYTE   W04
 BYTE   VOL   67*song42_mvl/mxv
 BYTE   W03
 BYTE   VOL   66*song42_mvl/mxv
 BYTE   W03
 BYTE   VOL   66*song42_mvl/mxv
 BYTE   W04
 BYTE   VOL   65*song42_mvl/mxv
 BYTE   W03
 BYTE   VOL   64*song42_mvl/mxv
 BYTE   W03
 BYTE   VOL   63*song42_mvl/mxv
 BYTE   W04
 BYTE   VOL   62*song42_mvl/mxv
 BYTE   W03
 BYTE   VOL   62*song42_mvl/mxv
 BYTE   W04
 BYTE   VOL   61*song42_mvl/mxv
 BYTE   W03
 BYTE   VOL   60*song42_mvl/mxv
 BYTE   W03
 BYTE   VOL   59*song42_mvl/mxv
 BYTE   W04
 BYTE   VOL   58*song42_mvl/mxv
 BYTE   W03
 BYTE   VOL   57*song42_mvl/mxv
 BYTE   W03
 BYTE   VOL   57*song42_mvl/mxv
 BYTE   W04
 BYTE   VOL   56*song42_mvl/mxv
 BYTE   W03
 BYTE   VOL   55*song42_mvl/mxv
 BYTE   W03
 BYTE   VOL   54*song42_mvl/mxv
 BYTE   W03
 BYTE   PEND 
//  #07 //007   ----------------------------------------
Label_01AD995D:
 BYTE   W01
 BYTE   VOL   53*song42_mvl/mxv
 BYTE   W03
 BYTE   VOL   52*song42_mvl/mxv
 BYTE   W03
 BYTE   VOL   52*song42_mvl/mxv
 BYTE   W04
 BYTE   VOL   51*song42_mvl/mxv
 BYTE   W03
 BYTE   VOL   50*song42_mvl/mxv
 BYTE   W03
 BYTE   VOL   49*song42_mvl/mxv
 BYTE   W04
 BYTE   VOL   48*song42_mvl/mxv
 BYTE   W03
 BYTE   VOL   47*song42_mvl/mxv
 BYTE   W03
 BYTE   VOL   47*song42_mvl/mxv
 BYTE   W04
 BYTE   VOL   46*song42_mvl/mxv
 BYTE   W03
 BYTE   VOL   45*song42_mvl/mxv
 BYTE   W04
 BYTE   VOL   44*song42_mvl/mxv
 BYTE   W03
 BYTE   VOL   43*song42_mvl/mxv
 BYTE   W03
 BYTE   VOL   42*song42_mvl/mxv
 BYTE   W04
 BYTE   VOL   42*song42_mvl/mxv
 BYTE   W03
 BYTE   VOL   41*song42_mvl/mxv
 BYTE   W03
 BYTE   VOL   40*song42_mvl/mxv
 BYTE   W04
 BYTE   VOL   39*song42_mvl/mxv
 BYTE   W03
 BYTE   VOL   38*song42_mvl/mxv
 BYTE   W03
 BYTE   VOL   38*song42_mvl/mxv
 BYTE   W04
 BYTE   VOL   37*song42_mvl/mxv
 BYTE   W03
 BYTE   VOL   36*song42_mvl/mxv
 BYTE   W03
 BYTE   VOL   35*song42_mvl/mxv
 BYTE   W04
 BYTE   VOL   34*song42_mvl/mxv
 BYTE   W03
 BYTE   VOL   33*song42_mvl/mxv
 BYTE   W03
 BYTE   VOL   33*song42_mvl/mxv
 BYTE   W04
 BYTE   VOL   32*song42_mvl/mxv
 BYTE   W03
 BYTE   VOL   31*song42_mvl/mxv
 BYTE   W03
 BYTE   VOL   30*song42_mvl/mxv
 BYTE   W02
 BYTE   PEND 
//  #07 //008   ----------------------------------------
 BYTE   MOD 4
 BYTE   W02
 BYTE   VOL   29*song42_mvl/mxv
 BYTE   W03
 BYTE   VOL   28*song42_mvl/mxv
 BYTE   W04
 BYTE   VOL   28*song42_mvl/mxv
 BYTE   W03
 BYTE   VOL   27*song42_mvl/mxv
 BYTE   W03
 BYTE   VOL   26*song42_mvl/mxv
 BYTE   W04
 BYTE   VOL   25*song42_mvl/mxv
 BYTE   W03
 BYTE   VOL   24*song42_mvl/mxv
 BYTE   W03
 BYTE   VOL   23*song42_mvl/mxv
 BYTE   W04
 BYTE   VOL   23*song42_mvl/mxv
 BYTE   W03
 BYTE   VOL   22*song42_mvl/mxv
 BYTE   W03
 BYTE   VOL   21*song42_mvl/mxv
 BYTE   W04
 BYTE   VOL   20*song42_mvl/mxv
 BYTE   W03
 BYTE   VOL   19*song42_mvl/mxv
 BYTE   W03
 BYTE   VOL   19*song42_mvl/mxv
 BYTE   W04
 BYTE   VOL   18*song42_mvl/mxv
 BYTE   W03
 BYTE   VOL   17*song42_mvl/mxv
 BYTE   W03
 BYTE   VOL   16*song42_mvl/mxv
 BYTE   W04
 BYTE   VOL   15*song42_mvl/mxv
 BYTE   W03
 BYTE   VOL   14*song42_mvl/mxv
 BYTE   W03
 BYTE   VOL   14*song42_mvl/mxv
 BYTE   W04
 BYTE   VOL   13*song42_mvl/mxv
 BYTE   W03
 BYTE   VOL   12*song42_mvl/mxv
 BYTE   W04
 BYTE   VOL   11*song42_mvl/mxv
 BYTE   W03
 BYTE   VOL   10*song42_mvl/mxv
 BYTE   W03
 BYTE   VOL   9*song42_mvl/mxv
 BYTE   W04
 BYTE   VOL   9*song42_mvl/mxv
 BYTE   W03
 BYTE   VOL   8*song42_mvl/mxv
 BYTE   W03
 BYTE   VOL   7*song42_mvl/mxv
 BYTE   W04
//  #07 //009   ----------------------------------------
 BYTE   EOT
 BYTE   Bn1
Label_01AD99D8:
 BYTE   VOICE   43
 BYTE   MOD 0
 BYTE   VOL   28*song42_mvl/mxv
 BYTE   PAN   c_v+0
 BYTE   LFOS 50
 BYTE   MODT 0
 BYTE   N92  Fs3  v036
 BYTE   W06
 BYTE   VOL   33*song42_mvl/mxv
 BYTE   W06
 BYTE   VOL   38*song42_mvl/mxv
 BYTE   W06
 BYTE   VOL   42*song42_mvl/mxv
 BYTE   W06
 BYTE   VOL   47*song42_mvl/mxv
 BYTE   W06
 BYTE   VOL   52*song42_mvl/mxv
 BYTE   W06
 BYTE   VOL   57*song42_mvl/mxv
 BYTE   W06
 BYTE   VOL   62*song42_mvl/mxv
 BYTE   W06
 BYTE   VOL   66*song42_mvl/mxv
 BYTE   W06
 BYTE   VOL   71*song42_mvl/mxv
 BYTE   W06
 BYTE   VOL   76*song42_mvl/mxv
 BYTE   W06
 BYTE   VOL   81*song42_mvl/mxv
 BYTE   W06
 BYTE   VOL   85*song42_mvl/mxv
 BYTE   W06
 BYTE   VOL   90*song42_mvl/mxv
 BYTE   W06
 BYTE   VOL   95*song42_mvl/mxv
 BYTE   W06
 BYTE   VOL   100*song42_mvl/mxv
 BYTE   W06
//  #07 //010   ----------------------------------------
 BYTE   VOL   28*song42_mvl/mxv
 BYTE   N92  En3  v044
 BYTE   W06
 BYTE   VOL   33*song42_mvl/mxv
 BYTE   W06
 BYTE   VOL   38*song42_mvl/mxv
 BYTE   W06
 BYTE   VOL   42*song42_mvl/mxv
 BYTE   W06
 BYTE   VOL   47*song42_mvl/mxv
 BYTE   W06
 BYTE   VOL   52*song42_mvl/mxv
 BYTE   W06
 BYTE   VOL   57*song42_mvl/mxv
 BYTE   W06
 BYTE   VOL   62*song42_mvl/mxv
 BYTE   W06
 BYTE   VOL   66*song42_mvl/mxv
 BYTE   W06
 BYTE   VOL   71*song42_mvl/mxv
 BYTE   W06
 BYTE   VOL   76*song42_mvl/mxv
 BYTE   W06
 BYTE   VOL   81*song42_mvl/mxv
 BYTE   W06
 BYTE   VOL   85*song42_mvl/mxv
 BYTE   W06
 BYTE   VOL   90*song42_mvl/mxv
 BYTE   W06
 BYTE   VOL   95*song42_mvl/mxv
 BYTE   W06
 BYTE   VOL   100*song42_mvl/mxv
 BYTE   W06
//  #07 //011   ----------------------------------------
 BYTE   VOL   28*song42_mvl/mxv
 BYTE   N92  Dn3
 BYTE   W06
 BYTE   VOL   33*song42_mvl/mxv
 BYTE   W06
 BYTE   VOL   38*song42_mvl/mxv
 BYTE   W06
 BYTE   VOL   42*song42_mvl/mxv
 BYTE   W06
 BYTE   VOL   47*song42_mvl/mxv
 BYTE   W06
 BYTE   VOL   52*song42_mvl/mxv
 BYTE   W06
 BYTE   VOL   57*song42_mvl/mxv
 BYTE   W06
 BYTE   VOL   62*song42_mvl/mxv
 BYTE   W06
 BYTE   VOL   66*song42_mvl/mxv
 BYTE   W06
 BYTE   VOL   71*song42_mvl/mxv
 BYTE   W06
 BYTE   VOL   76*song42_mvl/mxv
 BYTE   W06
 BYTE   VOL   81*song42_mvl/mxv
 BYTE   W06
 BYTE   VOL   85*song42_mvl/mxv
 BYTE   W06
 BYTE   VOL   90*song42_mvl/mxv
 BYTE   W06
 BYTE   VOL   95*song42_mvl/mxv
 BYTE   W06
 BYTE   VOL   100*song42_mvl/mxv
 BYTE   W06
//  #07 //012   ----------------------------------------
 BYTE   VOL   28*song42_mvl/mxv
 BYTE   N92  Cs3  v048
 BYTE   W06
 BYTE   VOL   33*song42_mvl/mxv
 BYTE   W06
 BYTE   VOL   38*song42_mvl/mxv
 BYTE   W06
 BYTE   VOL   42*song42_mvl/mxv
 BYTE   W06
 BYTE   VOL   47*song42_mvl/mxv
 BYTE   W06
 BYTE   VOL   52*song42_mvl/mxv
 BYTE   W06
 BYTE   VOL   57*song42_mvl/mxv
 BYTE   W06
 BYTE   VOL   62*song42_mvl/mxv
 BYTE   W06
 BYTE   VOL   66*song42_mvl/mxv
 BYTE   W06
 BYTE   VOL   71*song42_mvl/mxv
 BYTE   W06
 BYTE   VOL   76*song42_mvl/mxv
 BYTE   W06
 BYTE   VOL   81*song42_mvl/mxv
 BYTE   W06
 BYTE   VOL   85*song42_mvl/mxv
 BYTE   W06
 BYTE   VOL   90*song42_mvl/mxv
 BYTE   W06
 BYTE   VOL   95*song42_mvl/mxv
 BYTE   W06
 BYTE   VOL   100*song42_mvl/mxv
 BYTE   W06
//  #07 //013   ----------------------------------------
 BYTE   VOL   91*song42_mvl/mxv
 BYTE   N92  Bn2
 BYTE   W36
 BYTE   VOL   57*song42_mvl/mxv
 BYTE   W06
 BYTE   VOL   62*song42_mvl/mxv
 BYTE   W06
 BYTE   VOL   66*song42_mvl/mxv
 BYTE   W06
 BYTE   VOL   71*song42_mvl/mxv
 BYTE   W06
 BYTE   VOL   76*song42_mvl/mxv
 BYTE   W06
 BYTE   VOL   81*song42_mvl/mxv
 BYTE   W06
 BYTE   VOL   85*song42_mvl/mxv
 BYTE   W06
 BYTE   VOL   90*song42_mvl/mxv
 BYTE   W06
 BYTE   VOL   95*song42_mvl/mxv
 BYTE   W06
 BYTE   VOL   100*song42_mvl/mxv
 BYTE   W06
//  #07 //014   ----------------------------------------
 BYTE   VOL   91*song42_mvl/mxv
 BYTE   N92  Cs3  v044
 BYTE   W36
 BYTE   VOL   57*song42_mvl/mxv
 BYTE   W06
 BYTE   VOL   62*song42_mvl/mxv
 BYTE   W06
 BYTE   VOL   66*song42_mvl/mxv
 BYTE   W06
 BYTE   VOL   71*song42_mvl/mxv
 BYTE   W06
 BYTE   VOL   76*song42_mvl/mxv
 BYTE   W06
 BYTE   VOL   81*song42_mvl/mxv
 BYTE   W06
 BYTE   VOL   85*song42_mvl/mxv
 BYTE   W06
 BYTE   VOL   90*song42_mvl/mxv
 BYTE   W06
 BYTE   VOL   95*song42_mvl/mxv
 BYTE   W06
 BYTE   VOL   100*song42_mvl/mxv
 BYTE   W06
//  #07 //015   ----------------------------------------
 BYTE   VOL   91*song42_mvl/mxv
 BYTE   N92  Bn2  v032
 BYTE   W36
 BYTE   VOL   57*song42_mvl/mxv
 BYTE   W06
 BYTE   VOL   62*song42_mvl/mxv
 BYTE   W06
 BYTE   VOL   66*song42_mvl/mxv
 BYTE   W06
 BYTE   VOL   71*song42_mvl/mxv
 BYTE   W06
 BYTE   VOL   76*song42_mvl/mxv
 BYTE   W06
 BYTE   VOL   81*song42_mvl/mxv
 BYTE   W06
 BYTE   VOL   85*song42_mvl/mxv
 BYTE   W06
 BYTE   VOL   90*song42_mvl/mxv
 BYTE   W06
 BYTE   VOL   95*song42_mvl/mxv
 BYTE   W12
//  #07 //016   ----------------------------------------
 BYTE   VOL   91*song42_mvl/mxv
 BYTE   N92  Cs3
 BYTE   W06
 BYTE   VOL   86*song42_mvl/mxv
 BYTE   W06
 BYTE   VOL   82*song42_mvl/mxv
 BYTE   W06
 BYTE   VOL   77*song42_mvl/mxv
 BYTE   W06
 BYTE   VOL   72*song42_mvl/mxv
 BYTE   W06
 BYTE   VOL   68*song42_mvl/mxv
 BYTE   W06
 BYTE   VOL   63*song42_mvl/mxv
 BYTE   W06
 BYTE   VOL   58*song42_mvl/mxv
 BYTE   W06
 BYTE   VOL   54*song42_mvl/mxv
 BYTE   W06
 BYTE   VOL   49*song42_mvl/mxv
 BYTE   W06
 BYTE   VOL   45*song42_mvl/mxv
 BYTE   W06
 BYTE   VOL   40*song42_mvl/mxv
 BYTE   W06
 BYTE   VOL   35*song42_mvl/mxv
 BYTE   W06
 BYTE   VOL   31*song42_mvl/mxv
 BYTE   W06
 BYTE   VOL   26*song42_mvl/mxv
 BYTE   W06
 BYTE   VOL   21*song42_mvl/mxv
 BYTE   W06
//  #07 //017   ----------------------------------------
 BYTE   VOL   28*song42_mvl/mxv
 BYTE   N90  Fs3
 BYTE   W06
 BYTE   VOL   33*song42_mvl/mxv
 BYTE   W06
 BYTE   VOL   38*song42_mvl/mxv
 BYTE   W06
 BYTE   VOL   42*song42_mvl/mxv
 BYTE   W06
 BYTE   VOL   47*song42_mvl/mxv
 BYTE   W06
 BYTE   VOL   52*song42_mvl/mxv
 BYTE   W06
 BYTE   VOL   57*song42_mvl/mxv
 BYTE   W06
 BYTE   VOL   62*song42_mvl/mxv
 BYTE   W06
 BYTE   VOL   66*song42_mvl/mxv
 BYTE   W06
 BYTE   VOL   71*song42_mvl/mxv
 BYTE   W06
 BYTE   VOL   76*song42_mvl/mxv
 BYTE   W06
 BYTE   VOL   81*song42_mvl/mxv
 BYTE   W06
 BYTE   VOL   85*song42_mvl/mxv
 BYTE   W06
 BYTE   VOL   90*song42_mvl/mxv
 BYTE   W06
 BYTE   VOL   95*song42_mvl/mxv
 BYTE   W06
 BYTE   VOL   100*song42_mvl/mxv
 BYTE   W03
 BYTE   VOL   61*song42_mvl/mxv
 BYTE   W03
//  #07 //018   ----------------------------------------
 BYTE   VOL   28*song42_mvl/mxv
 BYTE   N90  En3  v044
 BYTE   W06
 BYTE   VOL   33*song42_mvl/mxv
 BYTE   W06
 BYTE   VOL   38*song42_mvl/mxv
 BYTE   W06
 BYTE   VOL   42*song42_mvl/mxv
 BYTE   W06
 BYTE   VOL   47*song42_mvl/mxv
 BYTE   W06
 BYTE   VOL   52*song42_mvl/mxv
 BYTE   W06
 BYTE   VOL   57*song42_mvl/mxv
 BYTE   W06
 BYTE   VOL   62*song42_mvl/mxv
 BYTE   W06
 BYTE   VOL   66*song42_mvl/mxv
 BYTE   W06
 BYTE   VOL   71*song42_mvl/mxv
 BYTE   W06
 BYTE   VOL   76*song42_mvl/mxv
 BYTE   W06
 BYTE   VOL   81*song42_mvl/mxv
 BYTE   W06
 BYTE   VOL   85*song42_mvl/mxv
 BYTE   W06
 BYTE   VOL   90*song42_mvl/mxv
 BYTE   W06
 BYTE   VOL   95*song42_mvl/mxv
 BYTE   W06
 BYTE   VOL   100*song42_mvl/mxv
 BYTE   W03
 BYTE   VOL   52*song42_mvl/mxv
 BYTE   W03
//  #07 //019   ----------------------------------------
 BYTE   VOL   28*song42_mvl/mxv
 BYTE   N90  Dn3
 BYTE   W06
 BYTE   VOL   33*song42_mvl/mxv
 BYTE   W06
 BYTE   VOL   38*song42_mvl/mxv
 BYTE   W06
 BYTE   VOL   42*song42_mvl/mxv
 BYTE   W06
 BYTE   VOL   47*song42_mvl/mxv
 BYTE   W06
 BYTE   VOL   52*song42_mvl/mxv
 BYTE   W06
 BYTE   VOL   57*song42_mvl/mxv
 BYTE   W06
 BYTE   VOL   62*song42_mvl/mxv
 BYTE   W06
 BYTE   VOL   66*song42_mvl/mxv
 BYTE   W06
 BYTE   VOL   71*song42_mvl/mxv
 BYTE   W06
 BYTE   VOL   76*song42_mvl/mxv
 BYTE   W06
 BYTE   VOL   81*song42_mvl/mxv
 BYTE   W06
 BYTE   VOL   85*song42_mvl/mxv
 BYTE   W06
 BYTE   VOL   90*song42_mvl/mxv
 BYTE   W06
 BYTE   VOL   95*song42_mvl/mxv
 BYTE   W06
 BYTE   VOL   100*song42_mvl/mxv
 BYTE   W03
 BYTE   VOL   54*song42_mvl/mxv
 BYTE   W03
//  #07 //020   ----------------------------------------
 BYTE   VOL   28*song42_mvl/mxv
 BYTE   N90  Cs3
 BYTE   W06
 BYTE   VOL   33*song42_mvl/mxv
 BYTE   W06
 BYTE   VOL   38*song42_mvl/mxv
 BYTE   W06
 BYTE   VOL   42*song42_mvl/mxv
 BYTE   W06
 BYTE   VOL   47*song42_mvl/mxv
 BYTE   W06
 BYTE   VOL   52*song42_mvl/mxv
 BYTE   W06
 BYTE   VOL   57*song42_mvl/mxv
 BYTE   W06
 BYTE   VOL   62*song42_mvl/mxv
 BYTE   W06
 BYTE   VOL   66*song42_mvl/mxv
 BYTE   W06
 BYTE   VOL   71*song42_mvl/mxv
 BYTE   W06
 BYTE   VOL   76*song42_mvl/mxv
 BYTE   W06
 BYTE   VOL   81*song42_mvl/mxv
 BYTE   W06
 BYTE   VOL   85*song42_mvl/mxv
 BYTE   W06
 BYTE   VOL   90*song42_mvl/mxv
 BYTE   W06
 BYTE   VOL   95*song42_mvl/mxv
 BYTE   W06
 BYTE   VOL   100*song42_mvl/mxv
 BYTE   W03
 BYTE   VOL   61*song42_mvl/mxv
 BYTE   W03
//  #07 //021   ----------------------------------------
 BYTE   VOL   28*song42_mvl/mxv
 BYTE   N92  Dn3  v056
 BYTE   W06
 BYTE   VOL   33*song42_mvl/mxv
 BYTE   W06
 BYTE   VOL   38*song42_mvl/mxv
 BYTE   W06
 BYTE   VOL   42*song42_mvl/mxv
 BYTE   W06
 BYTE   VOL   47*song42_mvl/mxv
 BYTE   W06
 BYTE   VOL   52*song42_mvl/mxv
 BYTE   W06
 BYTE   VOL   57*song42_mvl/mxv
 BYTE   W06
 BYTE   VOL   62*song42_mvl/mxv
 BYTE   W06
 BYTE   VOL   66*song42_mvl/mxv
 BYTE   W06
 BYTE   VOL   71*song42_mvl/mxv
 BYTE   W06
 BYTE   VOL   76*song42_mvl/mxv
 BYTE   W06
 BYTE   VOL   81*song42_mvl/mxv
 BYTE   W06
 BYTE   VOL   85*song42_mvl/mxv
 BYTE   W06
 BYTE   VOL   90*song42_mvl/mxv
 BYTE   W06
 BYTE   VOL   95*song42_mvl/mxv
 BYTE   W06
 BYTE   VOL   100*song42_mvl/mxv
 BYTE   W03
 BYTE   VOL   62*song42_mvl/mxv
 BYTE   W03
//  #07 //022   ----------------------------------------
 BYTE   VOL   28*song42_mvl/mxv
 BYTE   N92  En3  v044
 BYTE   W06
 BYTE   VOL   33*song42_mvl/mxv
 BYTE   W06
 BYTE   VOL   38*song42_mvl/mxv
 BYTE   W06
 BYTE   VOL   42*song42_mvl/mxv
 BYTE   W06
 BYTE   VOL   47*song42_mvl/mxv
 BYTE   W06
 BYTE   VOL   52*song42_mvl/mxv
 BYTE   W06
 BYTE   VOL   57*song42_mvl/mxv
 BYTE   W06
 BYTE   VOL   62*song42_mvl/mxv
 BYTE   W06
 BYTE   VOL   66*song42_mvl/mxv
 BYTE   W06
 BYTE   VOL   71*song42_mvl/mxv
 BYTE   W06
 BYTE   VOL   76*song42_mvl/mxv
 BYTE   W06
 BYTE   VOL   81*song42_mvl/mxv
 BYTE   W06
 BYTE   VOL   85*song42_mvl/mxv
 BYTE   W06
 BYTE   VOL   90*song42_mvl/mxv
 BYTE   W06
 BYTE   VOL   95*song42_mvl/mxv
 BYTE   W06
 BYTE   VOL   100*song42_mvl/mxv
 BYTE   W03
 BYTE   VOL   61*song42_mvl/mxv
 BYTE   W03
//  #07 //023   ----------------------------------------
 BYTE   VOL   28*song42_mvl/mxv
 BYTE   N92  Gn3
 BYTE   W06
 BYTE   VOL   33*song42_mvl/mxv
 BYTE   W06
 BYTE   VOL   38*song42_mvl/mxv
 BYTE   W06
 BYTE   VOL   42*song42_mvl/mxv
 BYTE   W06
 BYTE   VOL   47*song42_mvl/mxv
 BYTE   W06
 BYTE   VOL   52*song42_mvl/mxv
 BYTE   W06
 BYTE   VOL   57*song42_mvl/mxv
 BYTE   W06
 BYTE   VOL   62*song42_mvl/mxv
 BYTE   W06
 BYTE   VOL   66*song42_mvl/mxv
 BYTE   W06
 BYTE   VOL   71*song42_mvl/mxv
 BYTE   W06
 BYTE   VOL   76*song42_mvl/mxv
 BYTE   W06
 BYTE   VOL   81*song42_mvl/mxv
 BYTE   W06
 BYTE   VOL   85*song42_mvl/mxv
 BYTE   W06
 BYTE   VOL   90*song42_mvl/mxv
 BYTE   W06
 BYTE   VOL   95*song42_mvl/mxv
 BYTE   W06
 BYTE   VOL   100*song42_mvl/mxv
 BYTE   W03
 BYTE   VOL   54*song42_mvl/mxv
 BYTE   W03
//  #07 //024   ----------------------------------------
 BYTE   VOL   28*song42_mvl/mxv
 BYTE   N92  An3  v040
 BYTE   W06
 BYTE   VOL   33*song42_mvl/mxv
 BYTE   W06
 BYTE   VOL   38*song42_mvl/mxv
 BYTE   W06
 BYTE   VOL   42*song42_mvl/mxv
 BYTE   W06
 BYTE   VOL   47*song42_mvl/mxv
 BYTE   W06
 BYTE   VOL   52*song42_mvl/mxv
 BYTE   W06
 BYTE   VOL   57*song42_mvl/mxv
 BYTE   W06
 BYTE   VOL   62*song42_mvl/mxv
 BYTE   W06
 BYTE   VOL   66*song42_mvl/mxv
 BYTE   W06
 BYTE   VOL   71*song42_mvl/mxv
 BYTE   W06
 BYTE   VOL   76*song42_mvl/mxv
 BYTE   W06
 BYTE   VOL   81*song42_mvl/mxv
 BYTE   W06
 BYTE   VOL   85*song42_mvl/mxv
 BYTE   W06
 BYTE   VOL   90*song42_mvl/mxv
 BYTE   W06
 BYTE   VOL   95*song42_mvl/mxv
 BYTE   W06
 BYTE   VOL   100*song42_mvl/mxv
 BYTE   W03
 BYTE   VOL   80*song42_mvl/mxv
 BYTE   W03
//  #07 //025   ----------------------------------------
 BYTE   VOICE   5
 BYTE   VOL   66*song42_mvl/mxv
 BYTE   PAN   c_v-40
 BYTE   W06
 BYTE   N06  Bn3  v060
 BYTE   W06
 BYTE   Fs4  v052
 BYTE   W06
 BYTE   Bn3  v060
 BYTE   W06
 BYTE   Bn4  v040
 BYTE   W06
 BYTE   PAN   c_v+40
 BYTE   N06  Bn3  v036
 BYTE   W06
 BYTE   Fs4
 BYTE   W06
 BYTE   Bn3
 BYTE   W06
 BYTE   Bn4  v016
 BYTE   W06
 BYTE   Bn3  v028
 BYTE   W06
 BYTE   Fs4
 BYTE   W06
 BYTE   Bn3
 BYTE   W06
 BYTE   Bn4  v016
 BYTE   W06
 BYTE   Bn3  v008
 BYTE   W06
 BYTE   Fs4
 BYTE   W06
 BYTE   Bn3
 BYTE   W06
//  #07 //026   ----------------------------------------
 BYTE   PAN   c_v-40
 BYTE   W06
 BYTE   N06  An3  v060
 BYTE   W06
 BYTE   En4  v052
 BYTE   W06
 BYTE   An3  v060
 BYTE   W06
 BYTE   An4  v036
 BYTE   W06
 BYTE   PAN   c_v+40
 BYTE   N06  An3
 BYTE   W06
 BYTE   En4
 BYTE   W06
 BYTE   An3
 BYTE   W06
 BYTE   An4  v012
 BYTE   W06
 BYTE   An3  v028
 BYTE   W06
 BYTE   En4
 BYTE   W06
 BYTE   An3
 BYTE   W06
 BYTE   An4  v016
 BYTE   W06
 BYTE   An3  v008
 BYTE   W06
 BYTE   En4
 BYTE   W06
 BYTE   An3
 BYTE   W06
//  #07 //027   ----------------------------------------
 BYTE   PAN   c_v-40
 BYTE   W06
 BYTE   N06  Bn3  v060
 BYTE   W06
 BYTE   Fs4  v048
 BYTE   W06
 BYTE   Bn3  v060
 BYTE   W06
 BYTE   Bn4  v036
 BYTE   W06
 BYTE   PAN   c_v+40
 BYTE   N06  Bn3
 BYTE   W06
 BYTE   Fs4
 BYTE   W06
 BYTE   Bn3
 BYTE   W06
 BYTE   PAN   c_v-40
 BYTE   N06  Bn4  v004
 BYTE   W06
 BYTE   Bn3  v028
 BYTE   W06
 BYTE   Fs4
 BYTE   W06
 BYTE   Bn3
 BYTE   W06
 BYTE   Bn4  v016
 BYTE   W06
 BYTE   PAN   c_v+40
 BYTE   N06  Bn3  v008
 BYTE   W06
 BYTE   Fs4
 BYTE   W06
 BYTE   Bn3
 BYTE   W06
//  #07 //028   ----------------------------------------
 BYTE   PAN   c_v-40
 BYTE   W06
 BYTE   N06  An3  v060
 BYTE   W06
 BYTE   En4  v048
 BYTE   W06
 BYTE   An3  v060
 BYTE   W06
 BYTE   An4  v036
 BYTE   W06
 BYTE   PAN   c_v+40
 BYTE   N06  An3
 BYTE   W06
 BYTE   En4
 BYTE   W06
 BYTE   An3
 BYTE   W06
 BYTE   An4  v004
 BYTE   W06
 BYTE   An3  v028
 BYTE   W06
 BYTE   En4
 BYTE   W06
 BYTE   An3
 BYTE   W06
 BYTE   An4  v016
 BYTE   W06
 BYTE   An3  v008
 BYTE   W06
 BYTE   En4
 BYTE   W06
 BYTE   An3
 BYTE   W06
//  #07 //029   ----------------------------------------
 BYTE   PAN   c_v-40
 BYTE   W06
 BYTE   N06  Dn4  v060
 BYTE   W06
 BYTE   An4  v048
 BYTE   W06
 BYTE   Dn4  v060
 BYTE   W06
 BYTE   Dn5  v036
 BYTE   W06
 BYTE   PAN   c_v+40
 BYTE   N06  Dn4
 BYTE   W06
 BYTE   An4
 BYTE   W06
 BYTE   Dn4
 BYTE   W06
 BYTE   Dn5  v004
 BYTE   W06
 BYTE   Dn4  v028
 BYTE   W06
 BYTE   An4
 BYTE   W06
 BYTE   Dn4
 BYTE   W06
 BYTE   Dn5  v016
 BYTE   W06
 BYTE   Dn4  v008
 BYTE   W06
 BYTE   An4
 BYTE   W06
 BYTE   Dn4
 BYTE   W06
//  #07 //030   ----------------------------------------
 BYTE   PAN   c_v-40
 BYTE   W06
 BYTE   N06  Cn4  v060
 BYTE   W06
 BYTE   Gn4  v052
 BYTE   W06
 BYTE   Cn4  v060
 BYTE   W06
 BYTE   Cn5  v040
 BYTE   W06
 BYTE   PAN   c_v+40
 BYTE   N06  Cn4  v036
 BYTE   W06
 BYTE   Gn4
 BYTE   W06
 BYTE   Cn4
 BYTE   W06
 BYTE   Cn5  v004
 BYTE   W06
 BYTE   Cn4  v028
 BYTE   W06
 BYTE   Gn4
 BYTE   W06
 BYTE   Cn4
 BYTE   W06
 BYTE   Cn5  v016
 BYTE   W06
 BYTE   Cn4  v008
 BYTE   W06
 BYTE   Gn4
 BYTE   W06
 BYTE   Cn4
 BYTE   W06
//  #07 //031   ----------------------------------------
 BYTE   PAN   c_v-40
 BYTE   W06
 BYTE   N06  Dn4  v060
 BYTE   W06
 BYTE   An4  v052
 BYTE   W06
 BYTE   Dn4  v060
 BYTE   W06
 BYTE   Dn5  v044
 BYTE   W06
 BYTE   PAN   c_v+40
 BYTE   N06  Dn4  v036
 BYTE   W06
 BYTE   An4
 BYTE   W06
 BYTE   Dn4
 BYTE   W06
 BYTE   Dn5  v008
 BYTE   W06
 BYTE   Dn4  v028
 BYTE   W06
 BYTE   An4
 BYTE   W06
 BYTE   Dn4
 BYTE   W06
 BYTE   Dn5  v016
 BYTE   W06
 BYTE   Dn4  v008
 BYTE   W06
 BYTE   An4
 BYTE   W06
 BYTE   Dn4
 BYTE   W06
//  #07 //032   ----------------------------------------
 BYTE   VOICE   36
 BYTE   N48  An1  v104
 BYTE   W48
 BYTE   As1
 BYTE   W48
//  #07 //033   ----------------------------------------
 BYTE   VOICE   47
 BYTE   W48
 BYTE   PAN   c_v-40
 BYTE   W06
 BYTE   N06  Bn4  v044
 BYTE   W06
 BYTE   Fs5
 BYTE   W06
 BYTE   Bn4
 BYTE   W06
 BYTE   Bn5  v040
 BYTE   W06
 BYTE   PAN   c_v+40
 BYTE   N06  Bn4  v032
 BYTE   W06
 BYTE   Fs5
 BYTE   W06
 BYTE   Bn4
 BYTE   W06
//  #07 //034   ----------------------------------------
 BYTE   W48
 BYTE   PAN   c_v-40
 BYTE   W06
 BYTE   N06  An4  v044
 BYTE   W06
 BYTE   En5
 BYTE   W06
 BYTE   An4
 BYTE   W06
 BYTE   An5  v040
 BYTE   W06
 BYTE   PAN   c_v+40
 BYTE   N06  An4  v032
 BYTE   W06
 BYTE   En5
 BYTE   W06
 BYTE   An4
 BYTE   W06
//  #07 //035   ----------------------------------------
 BYTE   W48
 BYTE   PAN   c_v-40
 BYTE   W06
 BYTE   N06  Gn4  v044
 BYTE   W06
 BYTE   Dn5
 BYTE   W06
 BYTE   Gn4
 BYTE   W06
 BYTE   Gn5  v040
 BYTE   W06
 BYTE   PAN   c_v+40
 BYTE   N06  Gn4  v032
 BYTE   W06
 BYTE   Dn5
 BYTE   W06
 BYTE   Gn4
 BYTE   W06
//  #07 //036   ----------------------------------------
 BYTE   W48
 BYTE   PAN   c_v-40
 BYTE   W06
 BYTE   N06  An4  v044
 BYTE   W06
 BYTE   En5
 BYTE   W06
 BYTE   An4
 BYTE   W06
 BYTE   An5
 BYTE   W06
 BYTE   PAN   c_v+40
 BYTE   N06  An4  v032
 BYTE   W06
 BYTE   En5
 BYTE   W06
 BYTE   An4
 BYTE   W06
//  #07 //037   ----------------------------------------
 BYTE   W48
 BYTE   PAN   c_v-40
 BYTE   W06
 BYTE   N06  Bn4  v044
 BYTE   W06
 BYTE   Fs5
 BYTE   W06
 BYTE   Bn4
 BYTE   W06
 BYTE   Bn5  v040
 BYTE   W06
 BYTE   PAN   c_v+40
 BYTE   N06  Bn4  v032
 BYTE   W06
 BYTE   Fs5
 BYTE   W06
 BYTE   Bn4
 BYTE   W06
//  #07 //038   ----------------------------------------
 BYTE   PAN   c_v-40
 BYTE   W30
 BYTE   PAN   c_v+40
 BYTE   W24
 BYTE   N06  An4  v044
 BYTE   W06
 BYTE   En5
 BYTE   W06
 BYTE   An4
 BYTE   W06
 BYTE   An5
 BYTE   W06
 BYTE   An4  v032
 BYTE   W06
 BYTE   En5
 BYTE   W06
 BYTE   An4
 BYTE   W06
//  #07 //039   ----------------------------------------
 BYTE   PAN   c_v-40
 BYTE   W30
 BYTE   PAN   c_v+40
 BYTE   W24
 BYTE   N06  Gn4  v044
 BYTE   W06
 BYTE   Dn5
 BYTE   W06
 BYTE   Gn4
 BYTE   W06
 BYTE   Gn5  v040
 BYTE   W06
 BYTE   Gn4  v032
 BYTE   W06
 BYTE   Dn5
 BYTE   W06
 BYTE   Gn4
 BYTE   W06
//  #07 //040   ----------------------------------------
 BYTE   W48
 BYTE   PAN   c_v-40
 BYTE   W30
 BYTE   PAN   c_v+40
 BYTE   W18
//  #07 //041   ----------------------------------------
 BYTE   W96
//  #07 //042   ----------------------------------------
 BYTE   W96
//  #07 //043   ----------------------------------------
 BYTE   W96
//  #07 //044   ----------------------------------------
 BYTE   W96
//  #07 //045   ----------------------------------------
 BYTE   VOICE   42
 BYTE   VOL   8*song42_mvl/mxv
 BYTE   PAN   c_v-64
 BYTE   TIE  Bn1  v092
 BYTE   W03
 BYTE   VOL   9*song42_mvl/mxv
 BYTE   W02
 BYTE   VOL   9*song42_mvl/mxv
 BYTE   W03
 BYTE   VOL   10*song42_mvl/mxv
 BYTE   W02
 BYTE   VOL   11*song42_mvl/mxv
 BYTE   W02
 BYTE   VOL   12*song42_mvl/mxv
 BYTE   W03
 BYTE   VOL   13*song42_mvl/mxv
 BYTE   W02
 BYTE   VOL   14*song42_mvl/mxv
 BYTE   W02
 BYTE   VOL   14*song42_mvl/mxv
 BYTE   W03
 BYTE   VOL   15*song42_mvl/mxv
 BYTE   W02
 BYTE   VOL   16*song42_mvl/mxv
 BYTE   W02
 BYTE   VOL   17*song42_mvl/mxv
 BYTE   W02
 BYTE   VOL   18*song42_mvl/mxv
 BYTE   W03
 BYTE   VOL   19*song42_mvl/mxv
 BYTE   W02
 BYTE   VOL   19*song42_mvl/mxv
 BYTE   W02
 BYTE   VOL   20*song42_mvl/mxv
 BYTE   W03
 BYTE   VOL   21*song42_mvl/mxv
 BYTE   W02
 BYTE   VOL   22*song42_mvl/mxv
 BYTE   W02
 BYTE   VOL   23*song42_mvl/mxv
 BYTE   W03
 BYTE   VOL   23*song42_mvl/mxv
 BYTE   W02
 BYTE   VOL   24*song42_mvl/mxv
 BYTE   W02
 BYTE   VOL   25*song42_mvl/mxv
 BYTE   W02
 BYTE   VOL   26*song42_mvl/mxv
 BYTE   W03
 BYTE   VOL   27*song42_mvl/mxv
 BYTE   W02
 BYTE   VOL   28*song42_mvl/mxv
 BYTE   W02
 BYTE   VOL   28*song42_mvl/mxv
 BYTE   W03
 BYTE   VOL   29*song42_mvl/mxv
 BYTE   W02
 BYTE   VOL   30*song42_mvl/mxv
 BYTE   W02
 BYTE   VOL   31*song42_mvl/mxv
 BYTE   W03
 BYTE   VOL   32*song42_mvl/mxv
 BYTE   W02
 BYTE   VOL   33*song42_mvl/mxv
 BYTE   W02
 BYTE   VOL   33*song42_mvl/mxv
 BYTE   W02
 BYTE   VOL   34*song42_mvl/mxv
 BYTE   W03
 BYTE   VOL   35*song42_mvl/mxv
 BYTE   W02
 BYTE   VOL   36*song42_mvl/mxv
 BYTE   W02
 BYTE   VOL   37*song42_mvl/mxv
 BYTE   W03
 BYTE   VOL   38*song42_mvl/mxv
 BYTE   W02
 BYTE   VOL   38*song42_mvl/mxv
 BYTE   W02
 BYTE   VOL   39*song42_mvl/mxv
 BYTE   W03
 BYTE   VOL   40*song42_mvl/mxv
 BYTE   W02
 BYTE   VOL   41*song42_mvl/mxv
 BYTE   W02
 BYTE   VOL   42*song42_mvl/mxv
 BYTE   W01
//  #07 //046   ----------------------------------------
 BYTE   PATT
  POIN2 Label_01AD98CC
//  #07 //047   ----------------------------------------
 BYTE   PATT
  POIN2 Label_01AD9921
//  #07 //048   ----------------------------------------
 BYTE   PATT
  POIN2 Label_01AD995D
//  #07 //049   ----------------------------------------
 BYTE   W02
 BYTE   VOL   29*song42_mvl/mxv
 BYTE   W03
 BYTE   VOL   28*song42_mvl/mxv
 BYTE   W04
 BYTE   VOL   28*song42_mvl/mxv
 BYTE   W03
 BYTE   VOL   27*song42_mvl/mxv
 BYTE   W03
 BYTE   VOL   26*song42_mvl/mxv
 BYTE   W04
 BYTE   VOL   25*song42_mvl/mxv
 BYTE   W03
 BYTE   VOL   24*song42_mvl/mxv
 BYTE   W03
 BYTE   VOL   23*song42_mvl/mxv
 BYTE   W04
 BYTE   VOL   23*song42_mvl/mxv
 BYTE   W03
 BYTE   VOL   22*song42_mvl/mxv
 BYTE   W03
 BYTE   VOL   21*song42_mvl/mxv
 BYTE   W04
 BYTE   VOL   20*song42_mvl/mxv
 BYTE   W03
 BYTE   VOL   19*song42_mvl/mxv
 BYTE   W03
 BYTE   VOL   19*song42_mvl/mxv
 BYTE   W04
 BYTE   VOL   18*song42_mvl/mxv
 BYTE   W03
 BYTE   VOL   17*song42_mvl/mxv
 BYTE   W03
 BYTE   VOL   16*song42_mvl/mxv
 BYTE   W04
 BYTE   VOL   15*song42_mvl/mxv
 BYTE   W03
 BYTE   VOL   14*song42_mvl/mxv
 BYTE   W03
 BYTE   VOL   14*song42_mvl/mxv
 BYTE   W04
 BYTE   VOL   13*song42_mvl/mxv
 BYTE   W03
 BYTE   VOL   12*song42_mvl/mxv
 BYTE   W04
 BYTE   VOL   11*song42_mvl/mxv
 BYTE   W03
 BYTE   VOL   10*song42_mvl/mxv
 BYTE   W03
 BYTE   VOL   9*song42_mvl/mxv
 BYTE   W04
 BYTE   VOL   9*song42_mvl/mxv
 BYTE   W03
 BYTE   VOL   8*song42_mvl/mxv
 BYTE   W03
 BYTE   VOL   7*song42_mvl/mxv
 BYTE   W04
//  #07 //050   ----------------------------------------
 BYTE   EOT
 BYTE   Bn1
 BYTE   GoTo
  POIN2 Label_01AD99D8
 BYTE   FINE

//**************** Track 8 (Midi-Chn.7) ****************//

song42_008:
//  #08 //000   ----------------------------------------
 BYTE   KEYSH   song42_key+0
 BYTE   W96
//  #08 //001   ----------------------------------------
 BYTE   W96
//  #08 //002   ----------------------------------------
 BYTE   W96
//  #08 //003   ----------------------------------------
 BYTE   W96
//  #08 //004   ----------------------------------------
Label_01AD9EC5:
 BYTE   VOICE   42
 BYTE   MOD 7
 BYTE   VOL   7*song42_mvl/mxv
 BYTE   PAN   c_v+63
 BYTE   LFOS 30
 BYTE   MODT 0
 BYTE   W01
 BYTE   VOL   8*song42_mvl/mxv
 BYTE   W01
 BYTE   TIE  Bn0  v080
 BYTE   W01
 BYTE   VOL   9*song42_mvl/mxv
 BYTE   W02
 BYTE   VOL   9*song42_mvl/mxv
 BYTE   W03
 BYTE   VOL   10*song42_mvl/mxv
 BYTE   W02
 BYTE   VOL   11*song42_mvl/mxv
 BYTE   W02
 BYTE   VOL   12*song42_mvl/mxv
 BYTE   W03
 BYTE   VOL   13*song42_mvl/mxv
 BYTE   W02
 BYTE   VOL   14*song42_mvl/mxv
 BYTE   W02
 BYTE   VOL   14*song42_mvl/mxv
 BYTE   W03
 BYTE   VOL   15*song42_mvl/mxv
 BYTE   W02
 BYTE   VOL   16*song42_mvl/mxv
 BYTE   W02
 BYTE   VOL   17*song42_mvl/mxv
 BYTE   W02
 BYTE   VOL   18*song42_mvl/mxv
 BYTE   W03
 BYTE   VOL   19*song42_mvl/mxv
 BYTE   W02
 BYTE   VOL   19*song42_mvl/mxv
 BYTE   W02
 BYTE   VOL   20*song42_mvl/mxv
 BYTE   W03
 BYTE   VOL   21*song42_mvl/mxv
 BYTE   W02
 BYTE   VOL   22*song42_mvl/mxv
 BYTE   W02
 BYTE   VOL   23*song42_mvl/mxv
 BYTE   W03
 BYTE   VOL   23*song42_mvl/mxv
 BYTE   W02
 BYTE   VOL   24*song42_mvl/mxv
 BYTE   W02
 BYTE   VOL   25*song42_mvl/mxv
 BYTE   W02
 BYTE   VOL   26*song42_mvl/mxv
 BYTE   W03
 BYTE   VOL   27*song42_mvl/mxv
 BYTE   W02
 BYTE   VOL   28*song42_mvl/mxv
 BYTE   W02
 BYTE   VOL   28*song42_mvl/mxv
 BYTE   W03
 BYTE   VOL   29*song42_mvl/mxv
 BYTE   W02
 BYTE   VOL   30*song42_mvl/mxv
 BYTE   W02
 BYTE   VOL   31*song42_mvl/mxv
 BYTE   W03
 BYTE   VOL   32*song42_mvl/mxv
 BYTE   W02
 BYTE   VOL   33*song42_mvl/mxv
 BYTE   W02
 BYTE   VOL   33*song42_mvl/mxv
 BYTE   W02
 BYTE   VOL   34*song42_mvl/mxv
 BYTE   W03
 BYTE   VOL   35*song42_mvl/mxv
 BYTE   W02
 BYTE   VOL   36*song42_mvl/mxv
 BYTE   W02
 BYTE   VOL   37*song42_mvl/mxv
 BYTE   W03
 BYTE   VOL   38*song42_mvl/mxv
 BYTE   W02
 BYTE   VOL   38*song42_mvl/mxv
 BYTE   W02
 BYTE   VOL   39*song42_mvl/mxv
 BYTE   W03
 BYTE   VOL   40*song42_mvl/mxv
 BYTE   W02
 BYTE   VOL   41*song42_mvl/mxv
 BYTE   W02
 BYTE   VOL   42*song42_mvl/mxv
 BYTE   W01
 BYTE   PEND 
//  #08 //005   ----------------------------------------
Label_01AD9F2D:
 BYTE   W01
 BYTE   VOL   42*song42_mvl/mxv
 BYTE   W03
 BYTE   VOL   43*song42_mvl/mxv
 BYTE   W02
 BYTE   VOL   44*song42_mvl/mxv
 BYTE   W02
 BYTE   VOL   45*song42_mvl/mxv
 BYTE   W03
 BYTE   VOL   46*song42_mvl/mxv
 BYTE   W02
 BYTE   VOL   47*song42_mvl/mxv
 BYTE   W02
 BYTE   VOL   47*song42_mvl/mxv
 BYTE   W03
 BYTE   VOL   48*song42_mvl/mxv
 BYTE   W02
 BYTE   VOL   49*song42_mvl/mxv
 BYTE   W02
 BYTE   VOL   50*song42_mvl/mxv
 BYTE   W02
 BYTE   VOL   51*song42_mvl/mxv
 BYTE   W03
 BYTE   VOL   52*song42_mvl/mxv
 BYTE   W02
 BYTE   VOL   52*song42_mvl/mxv
 BYTE   W02
 BYTE   VOL   53*song42_mvl/mxv
 BYTE   W03
 BYTE   VOL   54*song42_mvl/mxv
 BYTE   W02
 BYTE   VOL   55*song42_mvl/mxv
 BYTE   W02
 BYTE   VOL   56*song42_mvl/mxv
 BYTE   W03
 BYTE   VOL   57*song42_mvl/mxv
 BYTE   W02
 BYTE   VOL   57*song42_mvl/mxv
 BYTE   W02
 BYTE   VOL   58*song42_mvl/mxv
 BYTE   W02
 BYTE   VOL   59*song42_mvl/mxv
 BYTE   W03
 BYTE   VOL   60*song42_mvl/mxv
 BYTE   W02
 BYTE   VOL   61*song42_mvl/mxv
 BYTE   W02
 BYTE   VOL   62*song42_mvl/mxv
 BYTE   W03
 BYTE   VOL   62*song42_mvl/mxv
 BYTE   W02
 BYTE   VOL   63*song42_mvl/mxv
 BYTE   W02
 BYTE   VOL   64*song42_mvl/mxv
 BYTE   W03
 BYTE   VOL   65*song42_mvl/mxv
 BYTE   W02
 BYTE   VOL   66*song42_mvl/mxv
 BYTE   W02
 BYTE   VOL   66*song42_mvl/mxv
 BYTE   W02
 BYTE   VOL   67*song42_mvl/mxv
 BYTE   W03
 BYTE   VOL   68*song42_mvl/mxv
 BYTE   W02
 BYTE   VOL   69*song42_mvl/mxv
 BYTE   W02
 BYTE   VOL   70*song42_mvl/mxv
 BYTE   W03
 BYTE   VOL   71*song42_mvl/mxv
 BYTE   W02
 BYTE   VOL   71*song42_mvl/mxv
 BYTE   W02
 BYTE   VOL   72*song42_mvl/mxv
 BYTE   W03
 BYTE   VOL   73*song42_mvl/mxv
 BYTE   W02
 BYTE   VOL   74*song42_mvl/mxv
 BYTE   W02
 BYTE   VOL   75*song42_mvl/mxv
 BYTE   W02
 BYTE   VOL   76*song42_mvl/mxv
 BYTE   W03
 BYTE   PEND 
//  #08 //006   ----------------------------------------
Label_01AD9F82:
 BYTE   VOL   76*song42_mvl/mxv
 BYTE   W03
 BYTE   VOL   78*song42_mvl/mxv
 BYTE   W04
 BYTE   VOL   76*song42_mvl/mxv
 BYTE   W03
 BYTE   VOL   75*song42_mvl/mxv
 BYTE   W04
 BYTE   VOL   74*song42_mvl/mxv
 BYTE   W04
 BYTE   VOL   73*song42_mvl/mxv
 BYTE   W03
 BYTE   VOL   72*song42_mvl/mxv
 BYTE   W04
 BYTE   VOL   71*song42_mvl/mxv
 BYTE   W03
 BYTE   VOL   71*song42_mvl/mxv
 BYTE   W04
 BYTE   VOL   70*song42_mvl/mxv
 BYTE   W04
 BYTE   VOL   69*song42_mvl/mxv
 BYTE   W03
 BYTE   VOL   68*song42_mvl/mxv
 BYTE   W04
 BYTE   VOL   67*song42_mvl/mxv
 BYTE   W03
 BYTE   VOL   66*song42_mvl/mxv
 BYTE   W04
 BYTE   VOL   66*song42_mvl/mxv
 BYTE   W04
 BYTE   VOL   65*song42_mvl/mxv
 BYTE   W03
 BYTE   VOL   64*song42_mvl/mxv
 BYTE   W04
 BYTE   VOL   63*song42_mvl/mxv
 BYTE   W03
 BYTE   VOL   62*song42_mvl/mxv
 BYTE   W04
 BYTE   VOL   62*song42_mvl/mxv
 BYTE   W04
 BYTE   VOL   61*song42_mvl/mxv
 BYTE   W03
 BYTE   VOL   60*song42_mvl/mxv
 BYTE   W04
 BYTE   VOL   59*song42_mvl/mxv
 BYTE   W03
 BYTE   VOL   58*song42_mvl/mxv
 BYTE   W04
 BYTE   VOL   57*song42_mvl/mxv
 BYTE   W04
 BYTE   VOL   57*song42_mvl/mxv
 BYTE   W03
 BYTE   VOL   56*song42_mvl/mxv
 BYTE   W03
 BYTE   PEND 
//  #08 //007   ----------------------------------------
Label_01AD9FBA:
 BYTE   W01
 BYTE   VOL   55*song42_mvl/mxv
 BYTE   W03
 BYTE   VOL   54*song42_mvl/mxv
 BYTE   W04
 BYTE   VOL   53*song42_mvl/mxv
 BYTE   W04
 BYTE   VOL   52*song42_mvl/mxv
 BYTE   W03
 BYTE   VOL   52*song42_mvl/mxv
 BYTE   W04
 BYTE   VOL   51*song42_mvl/mxv
 BYTE   W03
 BYTE   VOL   50*song42_mvl/mxv
 BYTE   W04
 BYTE   VOL   49*song42_mvl/mxv
 BYTE   W04
 BYTE   VOL   48*song42_mvl/mxv
 BYTE   W03
 BYTE   VOL   47*song42_mvl/mxv
 BYTE   W04
 BYTE   VOL   47*song42_mvl/mxv
 BYTE   W03
 BYTE   VOL   46*song42_mvl/mxv
 BYTE   W04
 BYTE   VOL   45*song42_mvl/mxv
 BYTE   W04
 BYTE   VOL   44*song42_mvl/mxv
 BYTE   W03
 BYTE   VOL   43*song42_mvl/mxv
 BYTE   W04
 BYTE   VOL   42*song42_mvl/mxv
 BYTE   W03
 BYTE   VOL   42*song42_mvl/mxv
 BYTE   W04
 BYTE   VOL   41*song42_mvl/mxv
 BYTE   W04
 BYTE   VOL   40*song42_mvl/mxv
 BYTE   W03
 BYTE   VOL   39*song42_mvl/mxv
 BYTE   W04
 BYTE   VOL   38*song42_mvl/mxv
 BYTE   W03
 BYTE   VOL   38*song42_mvl/mxv
 BYTE   W04
 BYTE   VOL   37*song42_mvl/mxv
 BYTE   W04
 BYTE   VOL   36*song42_mvl/mxv
 BYTE   W03
 BYTE   VOL   35*song42_mvl/mxv
 BYTE   W04
 BYTE   VOL   34*song42_mvl/mxv
 BYTE   W03
 BYTE   VOL   33*song42_mvl/mxv
 BYTE   W02
 BYTE   PEND 
//  #08 //008   ----------------------------------------
Label_01AD9FF3:
 BYTE   W02
 BYTE   VOL   33*song42_mvl/mxv
 BYTE   W04
 BYTE   VOL   32*song42_mvl/mxv
 BYTE   W03
 BYTE   VOL   31*song42_mvl/mxv
 BYTE   W04
 BYTE   VOL   30*song42_mvl/mxv
 BYTE   W03
 BYTE   VOL   29*song42_mvl/mxv
 BYTE   W04
 BYTE   VOL   28*song42_mvl/mxv
 BYTE   W04
 BYTE   VOL   28*song42_mvl/mxv
 BYTE   W03
 BYTE   VOL   27*song42_mvl/mxv
 BYTE   W04
 BYTE   VOL   26*song42_mvl/mxv
 BYTE   W03
 BYTE   VOL   25*song42_mvl/mxv
 BYTE   W04
 BYTE   VOL   24*song42_mvl/mxv
 BYTE   W04
 BYTE   VOL   23*song42_mvl/mxv
 BYTE   W03
 BYTE   VOL   23*song42_mvl/mxv
 BYTE   W04
 BYTE   VOL   22*song42_mvl/mxv
 BYTE   W03
 BYTE   VOL   21*song42_mvl/mxv
 BYTE   W04
 BYTE   VOL   20*song42_mvl/mxv
 BYTE   W04
 BYTE   VOL   19*song42_mvl/mxv
 BYTE   W03
 BYTE   VOL   19*song42_mvl/mxv
 BYTE   W04
 BYTE   VOL   18*song42_mvl/mxv
 BYTE   W03
 BYTE   VOL   17*song42_mvl/mxv
 BYTE   W04
 BYTE   VOL   16*song42_mvl/mxv
 BYTE   W04
 BYTE   VOL   15*song42_mvl/mxv
 BYTE   W03
 BYTE   VOL   14*song42_mvl/mxv
 BYTE   W04
 BYTE   VOL   14*song42_mvl/mxv
 BYTE   W03
 BYTE   VOL   13*song42_mvl/mxv
 BYTE   W04
 BYTE   VOL   12*song42_mvl/mxv
 BYTE   W04
 BYTE   PEND 
//  #08 //009   ----------------------------------------
Label_01ADA02A:
 BYTE   VOICE   43
 BYTE   MOD 0
 BYTE   VOL   28*song42_mvl/mxv
 BYTE   PAN   c_v-10
 BYTE   LFOS 50
 BYTE   MODT 0
 BYTE   N92  Bn2  v064
 BYTE   W02
 BYTE   EOT
 BYTE   Bn0
 BYTE   W04
 BYTE   VOL   33*song42_mvl/mxv
 BYTE   W06
 BYTE   VOL   38*song42_mvl/mxv
 BYTE   W06
 BYTE   VOL   42*song42_mvl/mxv
 BYTE   W06
 BYTE   VOL   47*song42_mvl/mxv
 BYTE   W06
 BYTE   VOL   52*song42_mvl/mxv
 BYTE   W06
 BYTE   VOL   57*song42_mvl/mxv
 BYTE   W06
 BYTE   VOL   62*song42_mvl/mxv
 BYTE   W06
 BYTE   VOL   66*song42_mvl/mxv
 BYTE   W06
 BYTE   VOL   71*song42_mvl/mxv
 BYTE   W06
 BYTE   VOL   76*song42_mvl/mxv
 BYTE   W06
 BYTE   VOL   81*song42_mvl/mxv
 BYTE   W06
 BYTE   VOL   85*song42_mvl/mxv
 BYTE   W06
 BYTE   VOL   90*song42_mvl/mxv
 BYTE   W06
 BYTE   VOL   95*song42_mvl/mxv
 BYTE   W06
 BYTE   VOL   100*song42_mvl/mxv
 BYTE   W06
//  #08 //010   ----------------------------------------
 BYTE   VOL   28*song42_mvl/mxv
 BYTE   N92  An2
 BYTE   W06
 BYTE   VOL   33*song42_mvl/mxv
 BYTE   W06
 BYTE   VOL   38*song42_mvl/mxv
 BYTE   W06
 BYTE   VOL   42*song42_mvl/mxv
 BYTE   W06
 BYTE   VOL   47*song42_mvl/mxv
 BYTE   W06
 BYTE   VOL   52*song42_mvl/mxv
 BYTE   W06
 BYTE   VOL   57*song42_mvl/mxv
 BYTE   W06
 BYTE   VOL   62*song42_mvl/mxv
 BYTE   W06
 BYTE   VOL   66*song42_mvl/mxv
 BYTE   W06
 BYTE   VOL   71*song42_mvl/mxv
 BYTE   W06
 BYTE   VOL   76*song42_mvl/mxv
 BYTE   W06
 BYTE   VOL   81*song42_mvl/mxv
 BYTE   W06
 BYTE   VOL   85*song42_mvl/mxv
 BYTE   W06
 BYTE   VOL   90*song42_mvl/mxv
 BYTE   W06
 BYTE   VOL   95*song42_mvl/mxv
 BYTE   W06
 BYTE   VOL   100*song42_mvl/mxv
 BYTE   W06
//  #08 //011   ----------------------------------------
 BYTE   VOL   28*song42_mvl/mxv
 BYTE   N92  Gn2
 BYTE   W06
 BYTE   VOL   33*song42_mvl/mxv
 BYTE   W06
 BYTE   VOL   38*song42_mvl/mxv
 BYTE   W06
 BYTE   VOL   42*song42_mvl/mxv
 BYTE   W06
 BYTE   VOL   47*song42_mvl/mxv
 BYTE   W06
 BYTE   VOL   52*song42_mvl/mxv
 BYTE   W06
 BYTE   VOL   57*song42_mvl/mxv
 BYTE   W06
 BYTE   VOL   62*song42_mvl/mxv
 BYTE   W06
 BYTE   VOL   66*song42_mvl/mxv
 BYTE   W06
 BYTE   VOL   71*song42_mvl/mxv
 BYTE   W06
 BYTE   VOL   76*song42_mvl/mxv
 BYTE   W06
 BYTE   VOL   81*song42_mvl/mxv
 BYTE   W06
 BYTE   VOL   85*song42_mvl/mxv
 BYTE   W06
 BYTE   VOL   90*song42_mvl/mxv
 BYTE   W06
 BYTE   VOL   95*song42_mvl/mxv
 BYTE   W06
 BYTE   VOL   100*song42_mvl/mxv
 BYTE   W06
//  #08 //012   ----------------------------------------
 BYTE   VOL   28*song42_mvl/mxv
 BYTE   N92  Fs2
 BYTE   W06
 BYTE   VOL   33*song42_mvl/mxv
 BYTE   W06
 BYTE   VOL   38*song42_mvl/mxv
 BYTE   W06
 BYTE   VOL   42*song42_mvl/mxv
 BYTE   W06
 BYTE   VOL   47*song42_mvl/mxv
 BYTE   W06
 BYTE   VOL   52*song42_mvl/mxv
 BYTE   W06
 BYTE   VOL   57*song42_mvl/mxv
 BYTE   W06
 BYTE   VOL   62*song42_mvl/mxv
 BYTE   W06
 BYTE   VOL   66*song42_mvl/mxv
 BYTE   W06
 BYTE   VOL   71*song42_mvl/mxv
 BYTE   W06
 BYTE   VOL   76*song42_mvl/mxv
 BYTE   W06
 BYTE   VOL   81*song42_mvl/mxv
 BYTE   W06
 BYTE   VOL   85*song42_mvl/mxv
 BYTE   W06
 BYTE   VOL   90*song42_mvl/mxv
 BYTE   W06
 BYTE   VOL   95*song42_mvl/mxv
 BYTE   W06
 BYTE   VOL   100*song42_mvl/mxv
 BYTE   W06
//  #08 //013   ----------------------------------------
 BYTE   VOL   95*song42_mvl/mxv
 BYTE   TIE  En2  v044
 BYTE   W36
 BYTE   VOL   57*song42_mvl/mxv
 BYTE   W06
 BYTE   VOL   62*song42_mvl/mxv
 BYTE   W06
 BYTE   VOL   66*song42_mvl/mxv
 BYTE   W06
 BYTE   VOL   71*song42_mvl/mxv
 BYTE   W06
 BYTE   VOL   76*song42_mvl/mxv
 BYTE   W06
 BYTE   VOL   81*song42_mvl/mxv
 BYTE   W06
 BYTE   VOL   85*song42_mvl/mxv
 BYTE   W06
 BYTE   VOL   90*song42_mvl/mxv
 BYTE   W06
 BYTE   VOL   95*song42_mvl/mxv
 BYTE   W06
 BYTE   VOL   100*song42_mvl/mxv
 BYTE   W06
//  #08 //014   ----------------------------------------
 BYTE   VOL   95*song42_mvl/mxv
 BYTE   TIE  Fs2  v064
 BYTE   W02
 BYTE   EOT
 BYTE   En2
 BYTE   W32
 BYTE   W02
 BYTE   VOL   57*song42_mvl/mxv
 BYTE   W06
 BYTE   VOL   62*song42_mvl/mxv
 BYTE   W06
 BYTE   VOL   66*song42_mvl/mxv
 BYTE   W06
 BYTE   VOL   71*song42_mvl/mxv
 BYTE   W06
 BYTE   VOL   76*song42_mvl/mxv
 BYTE   W06
 BYTE   VOL   81*song42_mvl/mxv
 BYTE   W06
 BYTE   VOL   85*song42_mvl/mxv
 BYTE   W06
 BYTE   VOL   90*song42_mvl/mxv
 BYTE   W06
 BYTE   VOL   95*song42_mvl/mxv
 BYTE   W06
 BYTE   VOL   100*song42_mvl/mxv
 BYTE   W06
//  #08 //015   ----------------------------------------
 BYTE   VOL   95*song42_mvl/mxv
 BYTE   TIE  Gn2
 BYTE   W02
 BYTE   EOT
 BYTE   Fs2
 BYTE   W32
 BYTE   W02
 BYTE   VOL   57*song42_mvl/mxv
 BYTE   W06
 BYTE   VOL   62*song42_mvl/mxv
 BYTE   W06
 BYTE   VOL   66*song42_mvl/mxv
 BYTE   W06
 BYTE   VOL   71*song42_mvl/mxv
 BYTE   W06
 BYTE   VOL   76*song42_mvl/mxv
 BYTE   W06
 BYTE   VOL   81*song42_mvl/mxv
 BYTE   W06
 BYTE   VOL   85*song42_mvl/mxv
 BYTE   W06
 BYTE   VOL   90*song42_mvl/mxv
 BYTE   W06
 BYTE   VOL   95*song42_mvl/mxv
 BYTE   W12
//  #08 //016   ----------------------------------------
 BYTE   VOL   91*song42_mvl/mxv
 BYTE   N92  An2  v048
 BYTE   W02
 BYTE   EOT
 BYTE   Gn2
 BYTE   W04
 BYTE   VOL   86*song42_mvl/mxv
 BYTE   W06
 BYTE   VOL   82*song42_mvl/mxv
 BYTE   W06
 BYTE   VOL   77*song42_mvl/mxv
 BYTE   W06
 BYTE   VOL   72*song42_mvl/mxv
 BYTE   W06
 BYTE   VOL   68*song42_mvl/mxv
 BYTE   W06
 BYTE   VOL   63*song42_mvl/mxv
 BYTE   W06
 BYTE   VOL   58*song42_mvl/mxv
 BYTE   W06
 BYTE   VOL   54*song42_mvl/mxv
 BYTE   W06
 BYTE   VOL   49*song42_mvl/mxv
 BYTE   W06
 BYTE   VOL   45*song42_mvl/mxv
 BYTE   W06
 BYTE   VOL   40*song42_mvl/mxv
 BYTE   W06
 BYTE   VOL   35*song42_mvl/mxv
 BYTE   W06
 BYTE   VOL   31*song42_mvl/mxv
 BYTE   W06
 BYTE   VOL   26*song42_mvl/mxv
 BYTE   W06
 BYTE   VOL   21*song42_mvl/mxv
 BYTE   W06
//  #08 //017   ----------------------------------------
 BYTE   VOL   28*song42_mvl/mxv
 BYTE   N90  Bn2  v064
 BYTE   W06
 BYTE   VOL   33*song42_mvl/mxv
 BYTE   W06
 BYTE   VOL   38*song42_mvl/mxv
 BYTE   W06
 BYTE   VOL   42*song42_mvl/mxv
 BYTE   W06
 BYTE   VOL   47*song42_mvl/mxv
 BYTE   W06
 BYTE   VOL   52*song42_mvl/mxv
 BYTE   W06
 BYTE   VOL   57*song42_mvl/mxv
 BYTE   W06
 BYTE   VOL   62*song42_mvl/mxv
 BYTE   W06
 BYTE   VOL   66*song42_mvl/mxv
 BYTE   W06
 BYTE   VOL   71*song42_mvl/mxv
 BYTE   W06
 BYTE   VOL   76*song42_mvl/mxv
 BYTE   W06
 BYTE   VOL   81*song42_mvl/mxv
 BYTE   W06
 BYTE   VOL   85*song42_mvl/mxv
 BYTE   W06
 BYTE   VOL   90*song42_mvl/mxv
 BYTE   W06
 BYTE   VOL   95*song42_mvl/mxv
 BYTE   W06
 BYTE   VOL   100*song42_mvl/mxv
 BYTE   W03
 BYTE   VOL   65*song42_mvl/mxv
 BYTE   W03
//  #08 //018   ----------------------------------------
 BYTE   VOL   28*song42_mvl/mxv
 BYTE   N90  An2
 BYTE   W06
 BYTE   VOL   33*song42_mvl/mxv
 BYTE   W06
 BYTE   VOL   38*song42_mvl/mxv
 BYTE   W06
 BYTE   VOL   42*song42_mvl/mxv
 BYTE   W06
 BYTE   VOL   47*song42_mvl/mxv
 BYTE   W06
 BYTE   VOL   52*song42_mvl/mxv
 BYTE   W06
 BYTE   VOL   57*song42_mvl/mxv
 BYTE   W06
 BYTE   VOL   62*song42_mvl/mxv
 BYTE   W06
 BYTE   VOL   66*song42_mvl/mxv
 BYTE   W06
 BYTE   VOL   71*song42_mvl/mxv
 BYTE   W06
 BYTE   VOL   76*song42_mvl/mxv
 BYTE   W06
 BYTE   VOL   81*song42_mvl/mxv
 BYTE   W06
 BYTE   VOL   85*song42_mvl/mxv
 BYTE   W06
 BYTE   VOL   90*song42_mvl/mxv
 BYTE   W06
 BYTE   VOL   95*song42_mvl/mxv
 BYTE   W06
 BYTE   VOL   100*song42_mvl/mxv
 BYTE   W03
 BYTE   VOL   65*song42_mvl/mxv
 BYTE   W03
//  #08 //019   ----------------------------------------
 BYTE   VOL   28*song42_mvl/mxv
 BYTE   N90  Gn2
 BYTE   W06
 BYTE   VOL   33*song42_mvl/mxv
 BYTE   W06
 BYTE   VOL   38*song42_mvl/mxv
 BYTE   W06
 BYTE   VOL   42*song42_mvl/mxv
 BYTE   W06
 BYTE   VOL   47*song42_mvl/mxv
 BYTE   W06
 BYTE   VOL   52*song42_mvl/mxv
 BYTE   W06
 BYTE   VOL   57*song42_mvl/mxv
 BYTE   W06
 BYTE   VOL   62*song42_mvl/mxv
 BYTE   W06
 BYTE   VOL   66*song42_mvl/mxv
 BYTE   W06
 BYTE   VOL   71*song42_mvl/mxv
 BYTE   W06
 BYTE   VOL   76*song42_mvl/mxv
 BYTE   W06
 BYTE   VOL   81*song42_mvl/mxv
 BYTE   W06
 BYTE   VOL   85*song42_mvl/mxv
 BYTE   W06
 BYTE   VOL   90*song42_mvl/mxv
 BYTE   W06
 BYTE   VOL   95*song42_mvl/mxv
 BYTE   W06
 BYTE   VOL   100*song42_mvl/mxv
 BYTE   W03
 BYTE   VOL   61*song42_mvl/mxv
 BYTE   W03
//  #08 //020   ----------------------------------------
 BYTE   VOL   28*song42_mvl/mxv
 BYTE   N90  Fs2
 BYTE   W06
 BYTE   VOL   33*song42_mvl/mxv
 BYTE   W06
 BYTE   VOL   38*song42_mvl/mxv
 BYTE   W06
 BYTE   VOL   42*song42_mvl/mxv
 BYTE   W06
 BYTE   VOL   47*song42_mvl/mxv
 BYTE   W06
 BYTE   VOL   52*song42_mvl/mxv
 BYTE   W06
 BYTE   VOL   57*song42_mvl/mxv
 BYTE   W06
 BYTE   VOL   62*song42_mvl/mxv
 BYTE   W06
 BYTE   VOL   66*song42_mvl/mxv
 BYTE   W06
 BYTE   VOL   71*song42_mvl/mxv
 BYTE   W06
 BYTE   VOL   76*song42_mvl/mxv
 BYTE   W06
 BYTE   VOL   81*song42_mvl/mxv
 BYTE   W06
 BYTE   VOL   85*song42_mvl/mxv
 BYTE   W06
 BYTE   VOL   90*song42_mvl/mxv
 BYTE   W06
 BYTE   VOL   95*song42_mvl/mxv
 BYTE   W06
 BYTE   VOL   100*song42_mvl/mxv
 BYTE   W03
 BYTE   VOL   62*song42_mvl/mxv
 BYTE   W03
//  #08 //021   ----------------------------------------
 BYTE   VOL   28*song42_mvl/mxv
 BYTE   TIE  Gn2  v044
 BYTE   W06
 BYTE   VOL   33*song42_mvl/mxv
 BYTE   W06
 BYTE   VOL   38*song42_mvl/mxv
 BYTE   W06
 BYTE   VOL   42*song42_mvl/mxv
 BYTE   W06
 BYTE   VOL   47*song42_mvl/mxv
 BYTE   W06
 BYTE   VOL   52*song42_mvl/mxv
 BYTE   W06
 BYTE   VOL   57*song42_mvl/mxv
 BYTE   W06
 BYTE   VOL   62*song42_mvl/mxv
 BYTE   W06
 BYTE   VOL   66*song42_mvl/mxv
 BYTE   W06
 BYTE   VOL   71*song42_mvl/mxv
 BYTE   W06
 BYTE   VOL   76*song42_mvl/mxv
 BYTE   W06
 BYTE   VOL   81*song42_mvl/mxv
 BYTE   W06
 BYTE   VOL   85*song42_mvl/mxv
 BYTE   W06
 BYTE   VOL   90*song42_mvl/mxv
 BYTE   W06
 BYTE   VOL   95*song42_mvl/mxv
 BYTE   W06
 BYTE   VOL   100*song42_mvl/mxv
 BYTE   W03
 BYTE   VOL   58*song42_mvl/mxv
 BYTE   W03
//  #08 //022   ----------------------------------------
 BYTE   VOL   28*song42_mvl/mxv
 BYTE   TIE  An2  v064
 BYTE   W02
 BYTE   EOT
 BYTE   Gn2
 BYTE   W04
 BYTE   VOL   33*song42_mvl/mxv
 BYTE   W06
 BYTE   VOL   38*song42_mvl/mxv
 BYTE   W06
 BYTE   VOL   42*song42_mvl/mxv
 BYTE   W06
 BYTE   VOL   47*song42_mvl/mxv
 BYTE   W06
 BYTE   VOL   52*song42_mvl/mxv
 BYTE   W06
 BYTE   VOL   57*song42_mvl/mxv
 BYTE   W06
 BYTE   VOL   62*song42_mvl/mxv
 BYTE   W06
 BYTE   VOL   66*song42_mvl/mxv
 BYTE   W06
 BYTE   VOL   71*song42_mvl/mxv
 BYTE   W06
 BYTE   VOL   76*song42_mvl/mxv
 BYTE   W06
 BYTE   VOL   81*song42_mvl/mxv
 BYTE   W06
 BYTE   VOL   85*song42_mvl/mxv
 BYTE   W06
 BYTE   VOL   90*song42_mvl/mxv
 BYTE   W06
 BYTE   VOL   95*song42_mvl/mxv
 BYTE   W06
 BYTE   VOL   100*song42_mvl/mxv
 BYTE   W03
 BYTE   VOL   65*song42_mvl/mxv
 BYTE   W03
//  #08 //023   ----------------------------------------
 BYTE   VOL   28*song42_mvl/mxv
 BYTE   N72  Bn2
 BYTE   W02
 BYTE   EOT
 BYTE   An2
 BYTE   W04
 BYTE   VOL   33*song42_mvl/mxv
 BYTE   W06
 BYTE   VOL   38*song42_mvl/mxv
 BYTE   W06
 BYTE   VOL   42*song42_mvl/mxv
 BYTE   W06
 BYTE   VOL   47*song42_mvl/mxv
 BYTE   W06
 BYTE   VOL   52*song42_mvl/mxv
 BYTE   W06
 BYTE   VOL   57*song42_mvl/mxv
 BYTE   W06
 BYTE   VOL   62*song42_mvl/mxv
 BYTE   W06
 BYTE   VOL   66*song42_mvl/mxv
 BYTE   W06
 BYTE   VOL   71*song42_mvl/mxv
 BYTE   W06
 BYTE   VOL   76*song42_mvl/mxv
 BYTE   W06
 BYTE   VOL   81*song42_mvl/mxv
 BYTE   W06
 BYTE   VOL   85*song42_mvl/mxv
 BYTE   N23  En3  v044
 BYTE   W06
 BYTE   VOL   90*song42_mvl/mxv
 BYTE   W06
 BYTE   VOL   95*song42_mvl/mxv
 BYTE   W06
 BYTE   VOL   100*song42_mvl/mxv
 BYTE   W03
 BYTE   VOL   58*song42_mvl/mxv
 BYTE   W03
//  #08 //024   ----------------------------------------
 BYTE   MOD 0
 BYTE   VOL   28*song42_mvl/mxv
 BYTE   N92  Fs3  v056
 BYTE   W06
 BYTE   VOL   33*song42_mvl/mxv
 BYTE   W06
 BYTE   VOL   38*song42_mvl/mxv
 BYTE   W06
 BYTE   VOL   42*song42_mvl/mxv
 BYTE   W06
 BYTE   VOL   47*song42_mvl/mxv
 BYTE   W06
 BYTE   VOL   52*song42_mvl/mxv
 BYTE   W06
 BYTE   VOL   57*song42_mvl/mxv
 BYTE   W06
 BYTE   VOL   62*song42_mvl/mxv
 BYTE   W06
 BYTE   VOL   66*song42_mvl/mxv
 BYTE   W06
 BYTE   VOL   71*song42_mvl/mxv
 BYTE   W06
 BYTE   VOL   76*song42_mvl/mxv
 BYTE   W06
 BYTE   VOL   81*song42_mvl/mxv
 BYTE   W06
 BYTE   VOL   85*song42_mvl/mxv
 BYTE   W06
 BYTE   VOL   90*song42_mvl/mxv
 BYTE   W06
 BYTE   VOL   95*song42_mvl/mxv
 BYTE   W06
 BYTE   VOL   100*song42_mvl/mxv
 BYTE   W03
 BYTE   VOL   91*song42_mvl/mxv
 BYTE   W03
//  #08 //025   ----------------------------------------
 BYTE   VOICE   48
 BYTE   VOL   82*song42_mvl/mxv
 BYTE   PAN   c_v+16
 BYTE   N12  Bn2  v116
 BYTE   W03
 BYTE   VOL   36*song42_mvl/mxv
 BYTE   W03
 BYTE   VOL   19*song42_mvl/mxv
 BYTE   W06
 BYTE   VOL   85*song42_mvl/mxv
 BYTE   N24  Bn2  v092
 BYTE   W03
 BYTE   VOL   38*song42_mvl/mxv
 BYTE   W03
 BYTE   VOL   19*song42_mvl/mxv
 BYTE   W18
 BYTE   VOL   86*song42_mvl/mxv
 BYTE   N24
 BYTE   W03
 BYTE   VOL   42*song42_mvl/mxv
 BYTE   W03
 BYTE   VOL   21*song42_mvl/mxv
 BYTE   W18
 BYTE   VOL   85*song42_mvl/mxv
 BYTE   N36
 BYTE   W03
 BYTE   VOL   58*song42_mvl/mxv
 BYTE   W09
 BYTE   MOD 3
 BYTE   VOL   34*song42_mvl/mxv
 BYTE   W24
//  #08 //026   ----------------------------------------
 BYTE   MOD 0
 BYTE   VOL   82*song42_mvl/mxv
 BYTE   PAN   c_v+60
 BYTE   N12  Cs3
 BYTE   W03
 BYTE   VOL   36*song42_mvl/mxv
 BYTE   W03
 BYTE   VOL   19*song42_mvl/mxv
 BYTE   W06
 BYTE   VOL   85*song42_mvl/mxv
 BYTE   N24
 BYTE   W03
 BYTE   VOL   38*song42_mvl/mxv
 BYTE   W03
 BYTE   VOL   19*song42_mvl/mxv
 BYTE   W18
 BYTE   VOL   86*song42_mvl/mxv
 BYTE   N24
 BYTE   W03
 BYTE   VOL   42*song42_mvl/mxv
 BYTE   W03
 BYTE   VOL   21*song42_mvl/mxv
 BYTE   W18
 BYTE   VOL   85*song42_mvl/mxv
 BYTE   N36
 BYTE   W03
 BYTE   VOL   58*song42_mvl/mxv
 BYTE   W09
 BYTE   MOD 3
 BYTE   VOL   34*song42_mvl/mxv
 BYTE   W24
//  #08 //027   ----------------------------------------
Label_01ADA2CD:
 BYTE   MOD 0
 BYTE   VOL   82*song42_mvl/mxv
 BYTE   PAN   c_v+16
 BYTE   N12  Bn2  v092
 BYTE   W03
 BYTE   VOL   36*song42_mvl/mxv
 BYTE   W03
 BYTE   VOL   19*song42_mvl/mxv
 BYTE   W06
 BYTE   VOL   85*song42_mvl/mxv
 BYTE   N24
 BYTE   W03
 BYTE   VOL   38*song42_mvl/mxv
 BYTE   W03
 BYTE   VOL   19*song42_mvl/mxv
 BYTE   W18
 BYTE   VOL   86*song42_mvl/mxv
 BYTE   N24
 BYTE   W03
 BYTE   VOL   42*song42_mvl/mxv
 BYTE   W03
 BYTE   VOL   21*song42_mvl/mxv
 BYTE   W18
 BYTE   VOL   85*song42_mvl/mxv
 BYTE   N36
 BYTE   W03
 BYTE   VOL   58*song42_mvl/mxv
 BYTE   W09
 BYTE   MOD 3
 BYTE   VOL   34*song42_mvl/mxv
 BYTE   W24
 BYTE   PEND 
//  #08 //028   ----------------------------------------
 BYTE   MOD 0
 BYTE   VOL   82*song42_mvl/mxv
 BYTE   PAN   c_v+16
 BYTE   N12  Cs3
 BYTE   W03
 BYTE   VOL   36*song42_mvl/mxv
 BYTE   W03
 BYTE   VOL   19*song42_mvl/mxv
 BYTE   W06
 BYTE   VOL   85*song42_mvl/mxv
 BYTE   N24
 BYTE   W03
 BYTE   VOL   38*song42_mvl/mxv
 BYTE   W03
 BYTE   VOL   19*song42_mvl/mxv
 BYTE   W18
 BYTE   VOL   86*song42_mvl/mxv
 BYTE   N24
 BYTE   W03
 BYTE   VOL   42*song42_mvl/mxv
 BYTE   W03
 BYTE   VOL   21*song42_mvl/mxv
 BYTE   W18
 BYTE   VOL   85*song42_mvl/mxv
 BYTE   N36
 BYTE   W03
 BYTE   VOL   58*song42_mvl/mxv
 BYTE   W09
 BYTE   MOD 3
 BYTE   VOL   34*song42_mvl/mxv
 BYTE   W24
//  #08 //029   ----------------------------------------
 BYTE   MOD 0
 BYTE   VOL   82*song42_mvl/mxv
 BYTE   PAN   c_v+16
 BYTE   N12  Dn3
 BYTE   W03
 BYTE   VOL   36*song42_mvl/mxv
 BYTE   W03
 BYTE   VOL   19*song42_mvl/mxv
 BYTE   W06
 BYTE   VOL   85*song42_mvl/mxv
 BYTE   N24
 BYTE   W03
 BYTE   VOL   38*song42_mvl/mxv
 BYTE   W03
 BYTE   VOL   19*song42_mvl/mxv
 BYTE   W18
 BYTE   VOL   86*song42_mvl/mxv
 BYTE   N24
 BYTE   W03
 BYTE   VOL   42*song42_mvl/mxv
 BYTE   W03
 BYTE   VOL   21*song42_mvl/mxv
 BYTE   W18
 BYTE   VOL   85*song42_mvl/mxv
 BYTE   N36
 BYTE   W03
 BYTE   VOL   58*song42_mvl/mxv
 BYTE   W09
 BYTE   MOD 3
 BYTE   VOL   34*song42_mvl/mxv
 BYTE   W24
//  #08 //030   ----------------------------------------
 BYTE   MOD 0
 BYTE   VOL   82*song42_mvl/mxv
 BYTE   PAN   c_v+16
 BYTE   N12  Cn3
 BYTE   W03
 BYTE   VOL   36*song42_mvl/mxv
 BYTE   W03
 BYTE   VOL   19*song42_mvl/mxv
 BYTE   W06
 BYTE   VOL   85*song42_mvl/mxv
 BYTE   N24
 BYTE   W03
 BYTE   VOL   38*song42_mvl/mxv
 BYTE   W03
 BYTE   VOL   19*song42_mvl/mxv
 BYTE   W18
 BYTE   VOL   86*song42_mvl/mxv
 BYTE   N24
 BYTE   W03
 BYTE   VOL   42*song42_mvl/mxv
 BYTE   W03
 BYTE   VOL   21*song42_mvl/mxv
 BYTE   W18
 BYTE   VOL   85*song42_mvl/mxv
 BYTE   N36
 BYTE   W03
 BYTE   VOL   58*song42_mvl/mxv
 BYTE   W09
 BYTE   MOD 3
 BYTE   VOL   34*song42_mvl/mxv
 BYTE   W24
//  #08 //031   ----------------------------------------
 BYTE   PATT
  POIN2 Label_01ADA2CD
//  #08 //032   ----------------------------------------
 BYTE   MOD 0
 BYTE   PAN   c_v+0
 BYTE   N96  Cs3  v092
 BYTE   W96
//  #08 //033   ----------------------------------------
 BYTE   VOICE   30
 BYTE   MOD 0
 BYTE   VOL   95*song42_mvl/mxv
 BYTE   PAN   c_v+0
 BYTE   N96  Bn0  v080
 BYTE   W96
//  #08 //034   ----------------------------------------
 BYTE   N96
 BYTE   W96
//  #08 //035   ----------------------------------------
 BYTE   N96
 BYTE   W96
//  #08 //036   ----------------------------------------
 BYTE   N96
 BYTE   W96
//  #08 //037   ----------------------------------------
 BYTE   N96
 BYTE   W96
//  #08 //038   ----------------------------------------
 BYTE   An0
 BYTE   W96
//  #08 //039   ----------------------------------------
 BYTE   Gn0
 BYTE   W96
//  #08 //040   ----------------------------------------
 BYTE   An0
 BYTE   W96
//  #08 //041   ----------------------------------------
 BYTE   W96
//  #08 //042   ----------------------------------------
 BYTE   W96
//  #08 //043   ----------------------------------------
 BYTE   W96
//  #08 //044   ----------------------------------------
 BYTE   W96
//  #08 //045   ----------------------------------------
 BYTE   PATT
  POIN2 Label_01AD9EC5
//  #08 //046   ----------------------------------------
 BYTE   PATT
  POIN2 Label_01AD9F2D
//  #08 //047   ----------------------------------------
 BYTE   PATT
  POIN2 Label_01AD9F82
//  #08 //048   ----------------------------------------
 BYTE   PATT
  POIN2 Label_01AD9FBA
//  #08 //049   ----------------------------------------
 BYTE   PATT
  POIN2 Label_01AD9FF3
//  #08 //050   ----------------------------------------
 BYTE   GoTo
  POIN2 Label_01ADA02A
//  #08 //051   ----------------------------------------
 BYTE   W02
 BYTE   EOT
 BYTE   Bn0
 BYTE   FINE

//**************** Track 9 (Midi-Chn.8) ****************//

song42_009:
//  #09 //000   ----------------------------------------
 BYTE   KEYSH   song42_key+0
Label_01ADA3C2:
 BYTE   VOICE   12
 BYTE   VOL   33*song42_mvl/mxv
 BYTE   PAN   c_v+0
 BYTE   N06  Dn5  v072
 BYTE   W04
 BYTE   VOL   35*song42_mvl/mxv
 BYTE   W02
 BYTE   N06  Cs5
 BYTE   W05
 BYTE   VOL   38*song42_mvl/mxv
 BYTE   W01
 BYTE   N06  An4
 BYTE   W05
 BYTE   VOL   42*song42_mvl/mxv
 BYTE   W01
 BYTE   N06  Fs4
 BYTE   W04
 BYTE   VOL   44*song42_mvl/mxv
 BYTE   W02
 BYTE   N06  Dn5
 BYTE   W04
 BYTE   VOL   47*song42_mvl/mxv
 BYTE   W02
 BYTE   N06  Cs5
 BYTE   W05
 BYTE   VOL   51*song42_mvl/mxv
 BYTE   W01
 BYTE   N06  An4
 BYTE   W05
 BYTE   VOL   54*song42_mvl/mxv
 BYTE   W01
 BYTE   N06  Fs4
 BYTE   W04
 BYTE   VOL   57*song42_mvl/mxv
 BYTE   W02
 BYTE   N06  Dn5
 BYTE   W04
 BYTE   VOL   60*song42_mvl/mxv
 BYTE   W02
 BYTE   N06  Cs5
 BYTE   W05
 BYTE   VOL   63*song42_mvl/mxv
 BYTE   W01
 BYTE   N06  An4
 BYTE   W05
 BYTE   VOL   66*song42_mvl/mxv
 BYTE   W01
 BYTE   N06  Fs4
 BYTE   W04
 BYTE   VOL   69*song42_mvl/mxv
 BYTE   W02
 BYTE   N06  Dn5
 BYTE   W04
 BYTE   VOL   72*song42_mvl/mxv
 BYTE   W02
 BYTE   N06  Cs5
 BYTE   W05
 BYTE   VOL   76*song42_mvl/mxv
 BYTE   W01
 BYTE   N06  An4
 BYTE   W05
 BYTE   VOL   79*song42_mvl/mxv
 BYTE   W01
 BYTE   N06  Fs4
 BYTE   W04
 BYTE   VOL   81*song42_mvl/mxv
 BYTE   W02
 BYTE   PEND 
//  #09 //001   ----------------------------------------
Label_01ADA42A:
 BYTE   N06  Dn5  v072
 BYTE   W04
 BYTE   VOL   81*song42_mvl/mxv
 BYTE   W02
 BYTE   N06  Cs5
 BYTE   W04
 BYTE   VOL   77*song42_mvl/mxv
 BYTE   W02
 BYTE   N06  An4
 BYTE   W05
 BYTE   VOL   74*song42_mvl/mxv
 BYTE   W01
 BYTE   N06  Fs4
 BYTE   W05
 BYTE   VOL   71*song42_mvl/mxv
 BYTE   W01
 BYTE   VOL   70*song42_mvl/mxv
 BYTE   N06  Dn5
 BYTE   W06
 BYTE   Cs5
 BYTE   W05
 BYTE   VOL   64*song42_mvl/mxv
 BYTE   W01
 BYTE   N06  An4
 BYTE   W05
 BYTE   VOL   61*song42_mvl/mxv
 BYTE   W01
 BYTE   N06  Fs4
 BYTE   W04
 BYTE   VOL   58*song42_mvl/mxv
 BYTE   W02
 BYTE   N06  Dn5
 BYTE   W04
 BYTE   VOL   55*song42_mvl/mxv
 BYTE   W02
 BYTE   N06  Cs5
 BYTE   W04
 BYTE   VOL   52*song42_mvl/mxv
 BYTE   W02
 BYTE   N06  An4
 BYTE   W05
 BYTE   VOL   48*song42_mvl/mxv
 BYTE   W01
 BYTE   N06  Fs4
 BYTE   W05
 BYTE   VOL   45*song42_mvl/mxv
 BYTE   W01
 BYTE   N06  Dn5
 BYTE   W05
 BYTE   VOL   42*song42_mvl/mxv
 BYTE   W01
 BYTE   N06  Cs5
 BYTE   W05
 BYTE   VOL   38*song42_mvl/mxv
 BYTE   W01
 BYTE   N06  An4
 BYTE   W05
 BYTE   VOL   35*song42_mvl/mxv
 BYTE   W01
 BYTE   N06  Fs4
 BYTE   W04
 BYTE   VOL   33*song42_mvl/mxv
 BYTE   W02
 BYTE   PEND 
//  #09 //002   ----------------------------------------
Label_01ADA489:
 BYTE   N06  Dn5  v072
 BYTE   W04
 BYTE   VOL   35*song42_mvl/mxv
 BYTE   W02
 BYTE   N06  Cs5
 BYTE   W05
 BYTE   VOL   38*song42_mvl/mxv
 BYTE   W01
 BYTE   N06  An4
 BYTE   W05
 BYTE   VOL   42*song42_mvl/mxv
 BYTE   W01
 BYTE   N06  Fs4
 BYTE   W04
 BYTE   VOL   44*song42_mvl/mxv
 BYTE   W02
 BYTE   N06  Dn5
 BYTE   W05
 BYTE   VOL   47*song42_mvl/mxv
 BYTE   W01
 BYTE   N06  Cs5
 BYTE   W05
 BYTE   VOL   51*song42_mvl/mxv
 BYTE   W01
 BYTE   N06  An4
 BYTE   W04
 BYTE   VOL   53*song42_mvl/mxv
 BYTE   W02
 BYTE   N06  Fs4
 BYTE   W04
 BYTE   VOL   57*song42_mvl/mxv
 BYTE   W02
 BYTE   N06  Dn5
 BYTE   W05
 BYTE   VOL   60*song42_mvl/mxv
 BYTE   W01
 BYTE   N06  Cs5
 BYTE   W05
 BYTE   VOL   63*song42_mvl/mxv
 BYTE   W01
 BYTE   N06  An4
 BYTE   W04
 BYTE   VOL   66*song42_mvl/mxv
 BYTE   W02
 BYTE   N06  Fs4
 BYTE   W05
 BYTE   VOL   69*song42_mvl/mxv
 BYTE   W01
 BYTE   N06  Dn5
 BYTE   W05
 BYTE   VOL   72*song42_mvl/mxv
 BYTE   W01
 BYTE   N06  Cs5
 BYTE   W04
 BYTE   VOL   75*song42_mvl/mxv
 BYTE   W02
 BYTE   N06  An4
 BYTE   W05
 BYTE   VOL   78*song42_mvl/mxv
 BYTE   W01
 BYTE   N06  Fs4
 BYTE   W05
 BYTE   VOL   81*song42_mvl/mxv
 BYTE   W01
 BYTE   PEND 
//  #09 //003   ----------------------------------------
Label_01ADA4EB:
 BYTE   N06  Dn5  v072
 BYTE   W04
 BYTE   VOL   80*song42_mvl/mxv
 BYTE   W02
 BYTE   N06  Cs5
 BYTE   W05
 BYTE   VOL   76*song42_mvl/mxv
 BYTE   W01
 BYTE   N06  An4
 BYTE   W05
 BYTE   VOL   73*song42_mvl/mxv
 BYTE   W01
 BYTE   N06  Fs4
 BYTE   W04
 BYTE   VOL   71*song42_mvl/mxv
 BYTE   W02
 BYTE   N06  Dn5
 BYTE   W04
 BYTE   VOL   67*song42_mvl/mxv
 BYTE   W02
 BYTE   N06  Cs5
 BYTE   W05
 BYTE   VOL   64*song42_mvl/mxv
 BYTE   W01
 BYTE   N06  An4
 BYTE   W05
 BYTE   VOL   61*song42_mvl/mxv
 BYTE   W01
 BYTE   N06  Fs4
 BYTE   W04
 BYTE   VOL   58*song42_mvl/mxv
 BYTE   W02
 BYTE   N06  Dn5
 BYTE   W04
 BYTE   VOL   55*song42_mvl/mxv
 BYTE   W02
 BYTE   N06  Cs5
 BYTE   W05
 BYTE   VOL   52*song42_mvl/mxv
 BYTE   W01
 BYTE   N06  An4
 BYTE   W05
 BYTE   VOL   48*song42_mvl/mxv
 BYTE   W01
 BYTE   N06  Fs4
 BYTE   W04
 BYTE   VOL   46*song42_mvl/mxv
 BYTE   W02
 BYTE   N06  Dn5
 BYTE   W04
 BYTE   VOL   42*song42_mvl/mxv
 BYTE   W02
 BYTE   N06  Cs5
 BYTE   W05
 BYTE   VOL   39*song42_mvl/mxv
 BYTE   W01
 BYTE   N06  An4
 BYTE   W05
 BYTE   VOL   36*song42_mvl/mxv
 BYTE   W01
 BYTE   N06  Fs4
 BYTE   W04
 BYTE   VOL   33*song42_mvl/mxv
 BYTE   W02
 BYTE   PEND 
//  #09 //004   ----------------------------------------
Label_01ADA54D:
 BYTE   N06  Dn5  v072
 BYTE   W04
 BYTE   VOL   35*song42_mvl/mxv
 BYTE   W02
 BYTE   N06  Cs5
 BYTE   W05
 BYTE   VOL   38*song42_mvl/mxv
 BYTE   W01
 BYTE   N06  An4
 BYTE   W05
 BYTE   VOL   42*song42_mvl/mxv
 BYTE   W01
 BYTE   N06  Fs4
 BYTE   W04
 BYTE   VOL   44*song42_mvl/mxv
 BYTE   W02
 BYTE   N06  Dn5
 BYTE   W04
 BYTE   VOL   47*song42_mvl/mxv
 BYTE   W02
 BYTE   N06  Cs5
 BYTE   W05
 BYTE   VOL   51*song42_mvl/mxv
 BYTE   W01
 BYTE   N06  An4
 BYTE   W05
 BYTE   VOL   54*song42_mvl/mxv
 BYTE   W01
 BYTE   N06  Fs4
 BYTE   W04
 BYTE   VOL   57*song42_mvl/mxv
 BYTE   W02
 BYTE   N06  Dn5
 BYTE   W04
 BYTE   VOL   60*song42_mvl/mxv
 BYTE   W02
 BYTE   N06  Cs5
 BYTE   W05
 BYTE   VOL   63*song42_mvl/mxv
 BYTE   W01
 BYTE   N06  An4
 BYTE   W05
 BYTE   VOL   66*song42_mvl/mxv
 BYTE   W01
 BYTE   N06  Fs4
 BYTE   W04
 BYTE   VOL   69*song42_mvl/mxv
 BYTE   W02
 BYTE   N06  Dn5
 BYTE   W04
 BYTE   VOL   72*song42_mvl/mxv
 BYTE   W02
 BYTE   N06  Cs5
 BYTE   W05
 BYTE   VOL   76*song42_mvl/mxv
 BYTE   W01
 BYTE   N06  An4
 BYTE   W05
 BYTE   VOL   79*song42_mvl/mxv
 BYTE   W01
 BYTE   N06  Fs4
 BYTE   W04
 BYTE   VOL   81*song42_mvl/mxv
 BYTE   W02
 BYTE   PEND 
//  #09 //005   ----------------------------------------
Label_01ADA5AF:
 BYTE   N06  Dn5  v072
 BYTE   W04
 BYTE   VOL   81*song42_mvl/mxv
 BYTE   W02
 BYTE   N06  Cs5
 BYTE   W05
 BYTE   VOL   77*song42_mvl/mxv
 BYTE   W01
 BYTE   N06  An4
 BYTE   W05
 BYTE   VOL   74*song42_mvl/mxv
 BYTE   W01
 BYTE   N06  Fs4
 BYTE   W05
 BYTE   VOL   71*song42_mvl/mxv
 BYTE   W01
 BYTE   N06  Dn5
 BYTE   W05
 BYTE   VOL   67*song42_mvl/mxv
 BYTE   W01
 BYTE   N06  Cs5
 BYTE   W04
 BYTE   VOL   65*song42_mvl/mxv
 BYTE   W02
 BYTE   N06  An4
 BYTE   W04
 BYTE   VOL   62*song42_mvl/mxv
 BYTE   W02
 BYTE   N06  Fs4
 BYTE   W05
 BYTE   VOL   58*song42_mvl/mxv
 BYTE   W01
 BYTE   N06  Dn5
 BYTE   W05
 BYTE   VOL   55*song42_mvl/mxv
 BYTE   W01
 BYTE   N06  Cs5
 BYTE   W05
 BYTE   VOL   52*song42_mvl/mxv
 BYTE   W01
 BYTE   N06  An4
 BYTE   W04
 BYTE   VOL   49*song42_mvl/mxv
 BYTE   W02
 BYTE   N06  Fs4
 BYTE   W04
 BYTE   VOL   46*song42_mvl/mxv
 BYTE   W02
 BYTE   N06  Dn5
 BYTE   W05
 BYTE   VOL   42*song42_mvl/mxv
 BYTE   W01
 BYTE   VOL   42*song42_mvl/mxv
 BYTE   N06  Cs5
 BYTE   W06
 BYTE   An4
 BYTE   W05
 BYTE   VOL   36*song42_mvl/mxv
 BYTE   W01
 BYTE   N06  Fs4
 BYTE   W05
 BYTE   VOL   33*song42_mvl/mxv
 BYTE   W01
 BYTE   PEND 
//  #09 //006   ----------------------------------------
Label_01ADA60E:
 BYTE   N06  Dn5  v072
 BYTE   W05
 BYTE   VOL   35*song42_mvl/mxv
 BYTE   W01
 BYTE   N06  Cs5
 BYTE   W04
 BYTE   VOL   38*song42_mvl/mxv
 BYTE   W02
 BYTE   N06  An4
 BYTE   W05
 BYTE   VOL   41*song42_mvl/mxv
 BYTE   W01
 BYTE   N06  Fs4
 BYTE   W05
 BYTE   VOL   44*song42_mvl/mxv
 BYTE   W01
 BYTE   N06  Dn5
 BYTE   W05
 BYTE   VOL   47*song42_mvl/mxv
 BYTE   W01
 BYTE   N06  Cs5
 BYTE   W04
 BYTE   VOL   50*song42_mvl/mxv
 BYTE   W02
 BYTE   N06  An4
 BYTE   W05
 BYTE   VOL   53*song42_mvl/mxv
 BYTE   W01
 BYTE   N06  Fs4
 BYTE   W05
 BYTE   VOL   57*song42_mvl/mxv
 BYTE   W01
 BYTE   N06  Dn5
 BYTE   W05
 BYTE   VOL   60*song42_mvl/mxv
 BYTE   W01
 BYTE   N06  Cs5
 BYTE   W04
 BYTE   VOL   62*song42_mvl/mxv
 BYTE   W02
 BYTE   N06  An4
 BYTE   W05
 BYTE   VOL   66*song42_mvl/mxv
 BYTE   W01
 BYTE   N06  Fs4
 BYTE   W05
 BYTE   VOL   69*song42_mvl/mxv
 BYTE   W01
 BYTE   N06  Dn5
 BYTE   W05
 BYTE   VOL   72*song42_mvl/mxv
 BYTE   W01
 BYTE   N06  Cs5
 BYTE   W04
 BYTE   VOL   75*song42_mvl/mxv
 BYTE   W02
 BYTE   N06  An4
 BYTE   W05
 BYTE   VOL   78*song42_mvl/mxv
 BYTE   W01
 BYTE   N06  Fs4
 BYTE   W05
 BYTE   VOL   81*song42_mvl/mxv
 BYTE   W01
 BYTE   PEND 
//  #09 //007   ----------------------------------------
 BYTE   PATT
  POIN2 Label_01ADA4EB
//  #09 //008   ----------------------------------------
Label_01ADA675:
 BYTE   VOL   33*song42_mvl/mxv
 BYTE   N12  Dn5  v072
 BYTE   W06
 BYTE   Cs5
 BYTE   W06
 BYTE   VOL   27*song42_mvl/mxv
 BYTE   N12  An4
 BYTE   W06
 BYTE   VOL   25*song42_mvl/mxv
 BYTE   N12  Fs4
 BYTE   W06
 BYTE   VOL   23*song42_mvl/mxv
 BYTE   N12  Dn5
 BYTE   W06
 BYTE   VOL   22*song42_mvl/mxv
 BYTE   N12  Cs5
 BYTE   W06
 BYTE   VOL   20*song42_mvl/mxv
 BYTE   N12  An4
 BYTE   W06
 BYTE   VOL   19*song42_mvl/mxv
 BYTE   N12  Fs4
 BYTE   W06
 BYTE   VOL   17*song42_mvl/mxv
 BYTE   N12  Dn5
 BYTE   W06
 BYTE   VOL   14*song42_mvl/mxv
 BYTE   N12  Cs5
 BYTE   W06
 BYTE   VOL   13*song42_mvl/mxv
 BYTE   N12  An4
 BYTE   W06
 BYTE   VOL   11*song42_mvl/mxv
 BYTE   N12  Fs4
 BYTE   W06
 BYTE   VOL   9*song42_mvl/mxv
 BYTE   N06  Dn5
 BYTE   W06
 BYTE   VOL   8*song42_mvl/mxv
 BYTE   N06  Cs5
 BYTE   W06
 BYTE   VOL   6*song42_mvl/mxv
 BYTE   N06  An4
 BYTE   W06
 BYTE   VOL   4*song42_mvl/mxv
 BYTE   N06  Fs4
 BYTE   W06
 BYTE   PEND 
//  #09 //009   ----------------------------------------
Label_01ADA6C4:
 BYTE   W96
//  #09 //010   ----------------------------------------
 BYTE   W96
//  #09 //011   ----------------------------------------
 BYTE   W96
//  #09 //012   ----------------------------------------
 BYTE   W96
//  #09 //013   ----------------------------------------
 BYTE   W96
//  #09 //014   ----------------------------------------
 BYTE   W96
//  #09 //015   ----------------------------------------
 BYTE   W96
//  #09 //016   ----------------------------------------
 BYTE   W96
//  #09 //017   ----------------------------------------
 BYTE   W48
 BYTE   VOL   45*song42_mvl/mxv
 BYTE   PAN   c_v+42
 BYTE   N06  Dn5  v048
 BYTE   W06
 BYTE   PAN   c_v+37
 BYTE   N06  Cs5  v060
 BYTE   W06
 BYTE   PAN   c_v+32
 BYTE   N06  An4
 BYTE   W06
 BYTE   PAN   c_v+27
 BYTE   N06  Fs4
 BYTE   W06
 BYTE   PAN   c_v+22
 BYTE   N06  Dn5  v048
 BYTE   W06
 BYTE   PAN   c_v+16
 BYTE   N06  Cs5
 BYTE   W06
 BYTE   PAN   c_v+11
 BYTE   N06  An4
 BYTE   W06
 BYTE   PAN   c_v+6
 BYTE   N06  Fs4
 BYTE   W06
//  #09 //018   ----------------------------------------
 BYTE   PAN   c_v+1
 BYTE   N06  Dn5  v040
 BYTE   W06
 BYTE   PAN   c_v-4
 BYTE   N06  Cs5
 BYTE   W06
 BYTE   PAN   c_v-9
 BYTE   N06  An4
 BYTE   W06
 BYTE   PAN   c_v-15
 BYTE   N06  Fs4
 BYTE   W06
 BYTE   PAN   c_v-20
 BYTE   N06  Dn5  v028
 BYTE   W06
 BYTE   PAN   c_v-25
 BYTE   N06  Cs5
 BYTE   W06
 BYTE   PAN   c_v-30
 BYTE   N06  An4
 BYTE   W06
 BYTE   PAN   c_v-38
 BYTE   N06  Fs4
 BYTE   W06
 BYTE   PAN   c_v-34
 BYTE   N06  Dn5  v048
 BYTE   W06
 BYTE   PAN   c_v-29
 BYTE   N06  Cs5  v060
 BYTE   W06
 BYTE   PAN   c_v-25
 BYTE   N06  An4
 BYTE   W06
 BYTE   PAN   c_v-20
 BYTE   N06  Fs4
 BYTE   W06
 BYTE   PAN   c_v-15
 BYTE   N06  Dn5  v048
 BYTE   W06
 BYTE   PAN   c_v-11
 BYTE   N06  Cs5
 BYTE   W06
 BYTE   PAN   c_v-6
 BYTE   N06  An4
 BYTE   W06
 BYTE   PAN   c_v-1
 BYTE   N06  Fs4
 BYTE   W06
//  #09 //019   ----------------------------------------
 BYTE   PAN   c_v+3
 BYTE   N06  Dn5  v040
 BYTE   W06
 BYTE   PAN   c_v+8
 BYTE   N06  Cs5
 BYTE   W06
 BYTE   PAN   c_v+12
 BYTE   N06  An4
 BYTE   W06
 BYTE   PAN   c_v+17
 BYTE   N06  Fs4
 BYTE   W06
 BYTE   PAN   c_v+22
 BYTE   N06  Dn5  v028
 BYTE   W06
 BYTE   PAN   c_v+26
 BYTE   N06  Cs5
 BYTE   W06
 BYTE   PAN   c_v+31
 BYTE   N06  An4
 BYTE   W06
 BYTE   PAN   c_v+36
 BYTE   N06  Fs4
 BYTE   W06
 BYTE   PAN   c_v+42
 BYTE   N06  Dn5  v048
 BYTE   W06
 BYTE   PAN   c_v+37
 BYTE   N06  Cs5  v060
 BYTE   W06
 BYTE   PAN   c_v+32
 BYTE   N06  An4
 BYTE   W06
 BYTE   PAN   c_v+27
 BYTE   N06  Fs4
 BYTE   W06
 BYTE   PAN   c_v+22
 BYTE   N06  Dn5  v048
 BYTE   W06
 BYTE   PAN   c_v+16
 BYTE   N06  Cs5
 BYTE   W06
 BYTE   PAN   c_v+11
 BYTE   N06  An4
 BYTE   W06
 BYTE   PAN   c_v+6
 BYTE   N06  Fs4
 BYTE   W06
//  #09 //020   ----------------------------------------
 BYTE   PAN   c_v+1
 BYTE   N06  Dn5  v040
 BYTE   W06
 BYTE   PAN   c_v-4
 BYTE   N06  Cs5
 BYTE   W06
 BYTE   PAN   c_v-9
 BYTE   N06  An4
 BYTE   W06
 BYTE   PAN   c_v-15
 BYTE   N06  Fs4
 BYTE   W06
 BYTE   PAN   c_v-20
 BYTE   N06  Dn5  v028
 BYTE   W06
 BYTE   PAN   c_v-25
 BYTE   N06  Cs5
 BYTE   W06
 BYTE   PAN   c_v-30
 BYTE   N06  An4
 BYTE   W06
 BYTE   PAN   c_v-35
 BYTE   N06  Fs4
 BYTE   W06
 BYTE   PAN   c_v-31
 BYTE   N06  Dn5  v048
 BYTE   W06
 BYTE   PAN   c_v-26
 BYTE   N06  Cs5  v060
 BYTE   W06
 BYTE   PAN   c_v-22
 BYTE   N06  An4
 BYTE   W06
 BYTE   PAN   c_v-17
 BYTE   N06  Fs4
 BYTE   W06
 BYTE   PAN   c_v-12
 BYTE   N06  Dn5  v048
 BYTE   W06
 BYTE   PAN   c_v-8
 BYTE   N06  Cs5
 BYTE   W06
 BYTE   PAN   c_v-3
 BYTE   N06  An4
 BYTE   W06
 BYTE   PAN   c_v+2
 BYTE   N06  Fs4
 BYTE   W06
//  #09 //021   ----------------------------------------
 BYTE   PAN   c_v+6
 BYTE   N12  Dn5  v040
 BYTE   W06
 BYTE   PAN   c_v+11
 BYTE   N12  Cs5
 BYTE   W06
 BYTE   PAN   c_v+15
 BYTE   N12  An4
 BYTE   W06
 BYTE   PAN   c_v+20
 BYTE   N12  Fs4
 BYTE   W06
 BYTE   PAN   c_v+25
 BYTE   N12  Dn5  v028
 BYTE   W06
 BYTE   PAN   c_v+29
 BYTE   N12  Cs5
 BYTE   W06
 BYTE   PAN   c_v+34
 BYTE   N12  An4
 BYTE   W06
 BYTE   PAN   c_v+39
 BYTE   N12  Fs4
 BYTE   W06
 BYTE   PAN   c_v+42
 BYTE   N12  Dn5  v048
 BYTE   W06
 BYTE   PAN   c_v+37
 BYTE   N12  Cs5  v060
 BYTE   W06
 BYTE   PAN   c_v+32
 BYTE   N12  An4
 BYTE   W06
 BYTE   PAN   c_v+27
 BYTE   N12  Fs4
 BYTE   W06
 BYTE   PAN   c_v+22
 BYTE   N12  Dn5  v048
 BYTE   W06
 BYTE   PAN   c_v+16
 BYTE   N12  Cs5
 BYTE   W06
 BYTE   PAN   c_v+11
 BYTE   N12  An4
 BYTE   W06
 BYTE   PAN   c_v+6
 BYTE   N12  Fs4
 BYTE   W06
//  #09 //022   ----------------------------------------
 BYTE   PAN   c_v+1
 BYTE   N12  Dn5  v040
 BYTE   W06
 BYTE   PAN   c_v-4
 BYTE   N12  Cs5
 BYTE   W06
 BYTE   PAN   c_v-9
 BYTE   N12  An4
 BYTE   W06
 BYTE   PAN   c_v-15
 BYTE   N12  Fs4
 BYTE   W06
 BYTE   PAN   c_v-20
 BYTE   N12  Dn5  v028
 BYTE   W06
 BYTE   PAN   c_v-25
 BYTE   N12  Cs5
 BYTE   W06
 BYTE   PAN   c_v-30
 BYTE   N12  An4
 BYTE   W06
 BYTE   PAN   c_v-38
 BYTE   N12  Fs4
 BYTE   W06
 BYTE   PAN   c_v-34
 BYTE   N12  Dn5  v048
 BYTE   W06
 BYTE   PAN   c_v-29
 BYTE   N12  Cs5  v060
 BYTE   W06
 BYTE   PAN   c_v-24
 BYTE   N12  An4
 BYTE   W06
 BYTE   PAN   c_v-19
 BYTE   N12  Fs4
 BYTE   W06
 BYTE   PAN   c_v-14
 BYTE   N12  Dn5  v048
 BYTE   W06
 BYTE   PAN   c_v-10
 BYTE   N12  Cs5
 BYTE   W06
 BYTE   PAN   c_v-5
 BYTE   N12  An4
 BYTE   W06
 BYTE   PAN   c_v+0
 BYTE   N12  Fs4
 BYTE   W06
//  #09 //023   ----------------------------------------
 BYTE   PAN   c_v+5
 BYTE   N12  Dn5  v040
 BYTE   W06
 BYTE   PAN   c_v+10
 BYTE   N12  Cs5
 BYTE   W06
 BYTE   PAN   c_v+14
 BYTE   N12  An4
 BYTE   W06
 BYTE   PAN   c_v+19
 BYTE   N12  Fs4
 BYTE   W06
 BYTE   PAN   c_v+24
 BYTE   N12  Dn5  v028
 BYTE   W06
 BYTE   PAN   c_v+29
 BYTE   N12  Cs5
 BYTE   W06
 BYTE   PAN   c_v+34
 BYTE   N12  An4
 BYTE   W06
 BYTE   PAN   c_v+39
 BYTE   N12  Fs4
 BYTE   W06
 BYTE   PAN   c_v+42
 BYTE   N12  Dn5  v048
 BYTE   W06
 BYTE   PAN   c_v+37
 BYTE   N12  Cs5  v060
 BYTE   W06
 BYTE   PAN   c_v+32
 BYTE   N12  An4
 BYTE   W06
 BYTE   PAN   c_v+27
 BYTE   N12  Fs4
 BYTE   W06
 BYTE   PAN   c_v+22
 BYTE   N12  Dn5  v048
 BYTE   W06
 BYTE   PAN   c_v+16
 BYTE   N12  Cs5
 BYTE   W06
 BYTE   PAN   c_v+11
 BYTE   N12  An4
 BYTE   W06
 BYTE   PAN   c_v+6
 BYTE   N12  Fs4
 BYTE   W06
//  #09 //024   ----------------------------------------
 BYTE   PAN   c_v+1
 BYTE   N12  Dn5  v040
 BYTE   W06
 BYTE   PAN   c_v-4
 BYTE   N12  Cs5
 BYTE   W06
 BYTE   PAN   c_v-9
 BYTE   N12  An4
 BYTE   W06
 BYTE   PAN   c_v-15
 BYTE   N12  Fs4
 BYTE   W06
 BYTE   PAN   c_v-20
 BYTE   N12  Dn5  v028
 BYTE   W06
 BYTE   PAN   c_v-25
 BYTE   N12  Cs5
 BYTE   W06
 BYTE   PAN   c_v-30
 BYTE   N12  An4
 BYTE   W06
 BYTE   PAN   c_v-35
 BYTE   N12  Fs4
 BYTE   W06
 BYTE   PAN   c_v-35
 BYTE   N12  Dn5  v048
 BYTE   W06
 BYTE   PAN   c_v-30
 BYTE   N12  Cs5  v060
 BYTE   W06
 BYTE   PAN   c_v-25
 BYTE   N12  An4
 BYTE   W06
 BYTE   PAN   c_v-20
 BYTE   N12  Fs4
 BYTE   W06
 BYTE   PAN   c_v-14
 BYTE   N12  Dn5  v048
 BYTE   W06
 BYTE   PAN   c_v-9
 BYTE   N12  Cs5
 BYTE   W06
 BYTE   PAN   c_v-4
 BYTE   N12  An4
 BYTE   W06
 BYTE   PAN   c_v+1
 BYTE   N12  Fs4
 BYTE   W06
//  #09 //025   ----------------------------------------
 BYTE   PAN   c_v+4
 BYTE   W06
 BYTE   PAN   c_v+4
 BYTE   W06
 BYTE   PAN   c_v+4
 BYTE   W06
 BYTE   PAN   c_v+4
 BYTE   W06
 BYTE   PAN   c_v+4
 BYTE   W06
 BYTE   PAN   c_v+4
 BYTE   W06
 BYTE   PAN   c_v+4
 BYTE   W06
 BYTE   PAN   c_v+4
 BYTE   W54
//  #09 //026   ----------------------------------------
 BYTE   W96
//  #09 //027   ----------------------------------------
 BYTE   W96
//  #09 //028   ----------------------------------------
 BYTE   W96
//  #09 //029   ----------------------------------------
 BYTE   W96
//  #09 //030   ----------------------------------------
 BYTE   W96
//  #09 //031   ----------------------------------------
 BYTE   W96
//  #09 //032   ----------------------------------------
 BYTE   W96
//  #09 //033   ----------------------------------------
Label_01ADA965:
 BYTE   VOL   76*song42_mvl/mxv
 BYTE   N06  Dn5  v064
 BYTE   W06
 BYTE   Cs5
 BYTE   W05
 BYTE   VOL   71*song42_mvl/mxv
 BYTE   W01
 BYTE   N06  An4
 BYTE   W05
 BYTE   VOL   64*song42_mvl/mxv
 BYTE   W01
 BYTE   N06  Fs4
 BYTE   W05
 BYTE   VOL   58*song42_mvl/mxv
 BYTE   W01
 BYTE   N06  Dn5
 BYTE   W05
 BYTE   VOL   52*song42_mvl/mxv
 BYTE   W01
 BYTE   N06  Cs5
 BYTE   W05
 BYTE   VOL   46*song42_mvl/mxv
 BYTE   W01
 BYTE   N06  An4
 BYTE   W05
 BYTE   VOL   39*song42_mvl/mxv
 BYTE   W01
 BYTE   N06  Fs4
 BYTE   W06
 BYTE   VOL   33*song42_mvl/mxv
 BYTE   W48
 BYTE   PEND 
//  #09 //034   ----------------------------------------
 BYTE   PATT
  POIN2 Label_01ADA965
//  #09 //035   ----------------------------------------
 BYTE   PATT
  POIN2 Label_01ADA965
//  #09 //036   ----------------------------------------
 BYTE   PATT
  POIN2 Label_01ADA965
//  #09 //037   ----------------------------------------
 BYTE   PATT
  POIN2 Label_01ADA965
//  #09 //038   ----------------------------------------
 BYTE   PATT
  POIN2 Label_01ADA965
//  #09 //039   ----------------------------------------
 BYTE   PATT
  POIN2 Label_01ADA965
//  #09 //040   ----------------------------------------
 BYTE   PATT
  POIN2 Label_01ADA965
//  #09 //041   ----------------------------------------
 BYTE   PATT
  POIN2 Label_01ADA3C2
//  #09 //042   ----------------------------------------
 BYTE   PATT
  POIN2 Label_01ADA42A
//  #09 //043   ----------------------------------------
 BYTE   PATT
  POIN2 Label_01ADA489
//  #09 //044   ----------------------------------------
 BYTE   PATT
  POIN2 Label_01ADA4EB
//  #09 //045   ----------------------------------------
 BYTE   PATT
  POIN2 Label_01ADA54D
//  #09 //046   ----------------------------------------
 BYTE   PATT
  POIN2 Label_01ADA5AF
//  #09 //047   ----------------------------------------
 BYTE   PATT
  POIN2 Label_01ADA60E
//  #09 //048   ----------------------------------------
 BYTE   PATT
  POIN2 Label_01ADA4EB
//  #09 //049   ----------------------------------------
 BYTE   PATT
  POIN2 Label_01ADA675
//  #09 //050   ----------------------------------------
 BYTE   GoTo
  POIN2 Label_01ADA6C4
 BYTE   FINE

//**************** Track 10 (Midi-Chn.9) ****************//

song42_010:
//  #10 //000   ----------------------------------------
 BYTE   KEYSH   song42_key+0
Label_01ADA9ED:
 BYTE   VOICE   12
 BYTE   MOD 4
 BYTE   VOL   33*song42_mvl/mxv
 BYTE   PAN   c_v-29
 BYTE   LFOS 30
 BYTE   MODT 0
 BYTE   W05
 BYTE   N06  Dn5  v044
 BYTE   W01
 BYTE   PAN   c_v-27
 BYTE   W05
 BYTE   N06  Cs5
 BYTE   W01
 BYTE   PAN   c_v-26
 BYTE   W05
 BYTE   N06  An4
 BYTE   W01
 BYTE   PAN   c_v-24
 BYTE   W05
 BYTE   N06  Fs4
 BYTE   W01
 BYTE   PAN   c_v-22
 BYTE   W05
 BYTE   N06  Dn5
 BYTE   W01
 BYTE   PAN   c_v-21
 BYTE   W05
 BYTE   N06  Cs5
 BYTE   W01
 BYTE   PAN   c_v-19
 BYTE   W05
 BYTE   N06  An4
 BYTE   W01
 BYTE   PAN   c_v-18
 BYTE   W05
 BYTE   N06  Fs4
 BYTE   W01
 BYTE   PAN   c_v-16
 BYTE   W05
 BYTE   N06  Dn5
 BYTE   W01
 BYTE   PAN   c_v-14
 BYTE   W05
 BYTE   N06  Cs5
 BYTE   W01
 BYTE   PAN   c_v-13
 BYTE   W05
 BYTE   N06  An4
 BYTE   W01
 BYTE   PAN   c_v-11
 BYTE   W05
 BYTE   N06  Fs4
 BYTE   W01
 BYTE   PAN   c_v-10
 BYTE   W05
 BYTE   N06  Dn5
 BYTE   W01
 BYTE   PAN   c_v-8
 BYTE   W05
 BYTE   N06  Cs5
 BYTE   W01
 BYTE   PAN   c_v-6
 BYTE   W05
 BYTE   N06  An4
 BYTE   W01
 BYTE   PAN   c_v-5
 BYTE   W05
 BYTE   N06  Fs4
 BYTE   W01
 BYTE   PEND 
//  #10 //001   ----------------------------------------
Label_01ADAA59:
 BYTE   PAN   c_v-3
 BYTE   W05
 BYTE   N06  Dn5  v044
 BYTE   W01
 BYTE   PAN   c_v-2
 BYTE   W05
 BYTE   N06  Cs5
 BYTE   W01
 BYTE   PAN   c_v+0
 BYTE   W05
 BYTE   N06  An4
 BYTE   W01
 BYTE   PAN   c_v+2
 BYTE   W05
 BYTE   N06  Fs4
 BYTE   W01
 BYTE   PAN   c_v+3
 BYTE   W05
 BYTE   N06  Dn5
 BYTE   W01
 BYTE   PAN   c_v+5
 BYTE   W05
 BYTE   N06  Cs5
 BYTE   W01
 BYTE   PAN   c_v+6
 BYTE   W05
 BYTE   N06  An4
 BYTE   W01
 BYTE   PAN   c_v+8
 BYTE   W05
 BYTE   N06  Fs4
 BYTE   W01
 BYTE   PAN   c_v+10
 BYTE   W05
 BYTE   N06  Dn5
 BYTE   W01
 BYTE   PAN   c_v+11
 BYTE   W05
 BYTE   N06  Cs5
 BYTE   W01
 BYTE   PAN   c_v+13
 BYTE   W05
 BYTE   N06  An4
 BYTE   W01
 BYTE   PAN   c_v+14
 BYTE   W05
 BYTE   N06  Fs4
 BYTE   W01
 BYTE   PAN   c_v+16
 BYTE   W05
 BYTE   N06  Dn5
 BYTE   W01
 BYTE   PAN   c_v+18
 BYTE   W05
 BYTE   N06  Cs5
 BYTE   W01
 BYTE   PAN   c_v+19
 BYTE   W05
 BYTE   N06  An4
 BYTE   W01
 BYTE   PAN   c_v+21
 BYTE   W05
 BYTE   N06  Fs4
 BYTE   W01
 BYTE   PEND 
//  #10 //002   ----------------------------------------
Label_01ADAABB:
 BYTE   PAN   c_v+23
 BYTE   W05
 BYTE   N06  Dn5  v044
 BYTE   W01
 BYTE   PAN   c_v+22
 BYTE   W05
 BYTE   N06  Cs5
 BYTE   W01
 BYTE   PAN   c_v+20
 BYTE   W05
 BYTE   N06  An4
 BYTE   W01
 BYTE   PAN   c_v+19
 BYTE   W05
 BYTE   N06  Fs4
 BYTE   W01
 BYTE   PAN   c_v+17
 BYTE   W05
 BYTE   N06  Dn5
 BYTE   W01
 BYTE   PAN   c_v+16
 BYTE   W05
 BYTE   N06  Cs5
 BYTE   W01
 BYTE   PAN   c_v+14
 BYTE   W05
 BYTE   N06  An4
 BYTE   W01
 BYTE   PAN   c_v+13
 BYTE   W05
 BYTE   N06  Fs4
 BYTE   W01
 BYTE   PAN   c_v+11
 BYTE   W05
 BYTE   N06  Dn5
 BYTE   W01
 BYTE   PAN   c_v+9
 BYTE   W05
 BYTE   N06  Cs5
 BYTE   W01
 BYTE   PAN   c_v+8
 BYTE   W05
 BYTE   N06  An4
 BYTE   W01
 BYTE   PAN   c_v+6
 BYTE   W05
 BYTE   N06  Fs4
 BYTE   W01
 BYTE   PAN   c_v+5
 BYTE   W05
 BYTE   N06  Dn5
 BYTE   W01
 BYTE   PAN   c_v+3
 BYTE   W05
 BYTE   N06  Cs5
 BYTE   W01
 BYTE   PAN   c_v+2
 BYTE   W05
 BYTE   N06  An4
 BYTE   W01
 BYTE   PAN   c_v+0
 BYTE   W05
 BYTE   N06  Fs4
 BYTE   W01
 BYTE   PEND 
//  #10 //003   ----------------------------------------
Label_01ADAB1D:
 BYTE   PAN   c_v-2
 BYTE   W05
 BYTE   N06  Dn5  v044
 BYTE   W01
 BYTE   PAN   c_v-3
 BYTE   W05
 BYTE   N06  Cs5
 BYTE   W01
 BYTE   PAN   c_v-5
 BYTE   W05
 BYTE   N06  An4
 BYTE   W01
 BYTE   PAN   c_v-6
 BYTE   W05
 BYTE   N06  Fs4
 BYTE   W01
 BYTE   PAN   c_v-8
 BYTE   W05
 BYTE   N06  Dn5
 BYTE   W01
 BYTE   PAN   c_v-9
 BYTE   W05
 BYTE   N06  Cs5
 BYTE   W01
 BYTE   PAN   c_v-11
 BYTE   W05
 BYTE   N06  An4
 BYTE   W01
 BYTE   PAN   c_v-12
 BYTE   W05
 BYTE   N06  Fs4
 BYTE   W01
 BYTE   PAN   c_v-14
 BYTE   W05
 BYTE   N06  Dn5
 BYTE   W01
 BYTE   PAN   c_v-16
 BYTE   W05
 BYTE   N06  Cs5
 BYTE   W01
 BYTE   PAN   c_v-17
 BYTE   W05
 BYTE   N06  An4
 BYTE   W01
 BYTE   PAN   c_v-19
 BYTE   W05
 BYTE   N06  Fs4
 BYTE   W01
 BYTE   PAN   c_v-20
 BYTE   W05
 BYTE   N06  Dn5
 BYTE   W01
 BYTE   PAN   c_v-22
 BYTE   W05
 BYTE   N06  Cs5
 BYTE   W01
 BYTE   PAN   c_v-23
 BYTE   W05
 BYTE   N06  An4
 BYTE   W01
 BYTE   PAN   c_v-25
 BYTE   W05
 BYTE   N06  Fs4
 BYTE   W01
 BYTE   PEND 
//  #10 //004   ----------------------------------------
Label_01ADAB7F:
 BYTE   PAN   c_v-27
 BYTE   W05
 BYTE   N06  Dn5  v044
 BYTE   W01
 BYTE   PAN   c_v-26
 BYTE   W05
 BYTE   N06  Cs5
 BYTE   W01
 BYTE   PAN   c_v-24
 BYTE   W05
 BYTE   N06  An4
 BYTE   W01
 BYTE   PAN   c_v-22
 BYTE   W05
 BYTE   N06  Fs4
 BYTE   W01
 BYTE   PAN   c_v-20
 BYTE   W05
 BYTE   N06  Dn5
 BYTE   W01
 BYTE   PAN   c_v-18
 BYTE   W05
 BYTE   N06  Cs5
 BYTE   W01
 BYTE   PAN   c_v-17
 BYTE   W05
 BYTE   N06  An4
 BYTE   W01
 BYTE   PAN   c_v-15
 BYTE   W05
 BYTE   N06  Fs4
 BYTE   W01
 BYTE   PAN   c_v-13
 BYTE   W05
 BYTE   N06  Dn5
 BYTE   W01
 BYTE   PAN   c_v-11
 BYTE   W05
 BYTE   N06  Cs5
 BYTE   W01
 BYTE   PAN   c_v-9
 BYTE   W05
 BYTE   N06  An4
 BYTE   W01
 BYTE   PAN   c_v-8
 BYTE   W05
 BYTE   N06  Fs4
 BYTE   W01
 BYTE   PAN   c_v-6
 BYTE   W05
 BYTE   N06  Dn5
 BYTE   W01
 BYTE   PAN   c_v-4
 BYTE   W05
 BYTE   N06  Cs5
 BYTE   W01
 BYTE   PAN   c_v-2
 BYTE   W05
 BYTE   N06  An4
 BYTE   W01
 BYTE   PAN   c_v+0
 BYTE   W05
 BYTE   N06  Fs4
 BYTE   W01
 BYTE   PEND 
//  #10 //005   ----------------------------------------
Label_01ADABE1:
 BYTE   PAN   c_v+2
 BYTE   W05
 BYTE   N06  Dn5  v044
 BYTE   W01
 BYTE   PAN   c_v+3
 BYTE   W05
 BYTE   N06  Cs5
 BYTE   W01
 BYTE   PAN   c_v+5
 BYTE   W05
 BYTE   N06  An4
 BYTE   W01
 BYTE   PAN   c_v+7
 BYTE   W05
 BYTE   N06  Fs4
 BYTE   W01
 BYTE   PAN   c_v+9
 BYTE   W05
 BYTE   N06  Dn5
 BYTE   W01
 BYTE   PAN   c_v+11
 BYTE   W05
 BYTE   N06  Cs5
 BYTE   W01
 BYTE   PAN   c_v+12
 BYTE   W05
 BYTE   N06  An4
 BYTE   W01
 BYTE   PAN   c_v+14
 BYTE   W05
 BYTE   N06  Fs4
 BYTE   W01
 BYTE   PAN   c_v+16
 BYTE   W05
 BYTE   N06  Dn5
 BYTE   W01
 BYTE   PAN   c_v+18
 BYTE   W05
 BYTE   N06  Cs5
 BYTE   W01
 BYTE   PAN   c_v+20
 BYTE   W05
 BYTE   N06  An4
 BYTE   W01
 BYTE   PAN   c_v+21
 BYTE   W05
 BYTE   N06  Fs4
 BYTE   W01
 BYTE   PAN   c_v+23
 BYTE   W05
 BYTE   N06  Dn5
 BYTE   W01
 BYTE   PAN   c_v+25
 BYTE   W05
 BYTE   N06  Cs5
 BYTE   W01
 BYTE   PAN   c_v+27
 BYTE   W05
 BYTE   N06  An4
 BYTE   W01
 BYTE   PAN   c_v+29
 BYTE   W05
 BYTE   N06  Fs4
 BYTE   W01
 BYTE   PEND 
//  #10 //006   ----------------------------------------
Label_01ADAC43:
 BYTE   PAN   c_v+31
 BYTE   W05
 BYTE   N06  Dn5  v044
 BYTE   W01
 BYTE   PAN   c_v+30
 BYTE   W05
 BYTE   N06  Cs5
 BYTE   W01
 BYTE   PAN   c_v+29
 BYTE   W05
 BYTE   N06  An4
 BYTE   W01
 BYTE   PAN   c_v+28
 BYTE   W05
 BYTE   N06  Fs4
 BYTE   W01
 BYTE   PAN   c_v+27
 BYTE   W05
 BYTE   N06  Dn5
 BYTE   W01
 BYTE   PAN   c_v+26
 BYTE   W05
 BYTE   N06  Cs5
 BYTE   W01
 BYTE   PAN   c_v+25
 BYTE   W05
 BYTE   N06  An4
 BYTE   W01
 BYTE   PAN   c_v+24
 BYTE   W05
 BYTE   N06  Fs4
 BYTE   W01
 BYTE   PAN   c_v+23
 BYTE   W05
 BYTE   N06  Dn5
 BYTE   W01
 BYTE   PAN   c_v+22
 BYTE   W05
 BYTE   N06  Cs5
 BYTE   W01
 BYTE   PAN   c_v+21
 BYTE   W05
 BYTE   N06  An4
 BYTE   W01
 BYTE   PAN   c_v+20
 BYTE   W05
 BYTE   N06  Fs4
 BYTE   W01
 BYTE   PAN   c_v+19
 BYTE   W05
 BYTE   N06  Dn5
 BYTE   W01
 BYTE   PAN   c_v+18
 BYTE   W05
 BYTE   N06  Cs5
 BYTE   W01
 BYTE   PAN   c_v+17
 BYTE   W05
 BYTE   N06  An4
 BYTE   W01
 BYTE   PAN   c_v+16
 BYTE   W05
 BYTE   N06  Fs4
 BYTE   W01
 BYTE   PEND 
//  #10 //007   ----------------------------------------
Label_01ADACA5:
 BYTE   PAN   c_v+15
 BYTE   W05
 BYTE   N06  Dn5  v044
 BYTE   W01
 BYTE   PAN   c_v+14
 BYTE   W05
 BYTE   N06  Cs5
 BYTE   W06
 BYTE   An4
 BYTE   W01
 BYTE   PAN   c_v+12
 BYTE   W05
 BYTE   N06  Fs4
 BYTE   W01
 BYTE   PAN   c_v+11
 BYTE   W05
 BYTE   N06  Dn5
 BYTE   W01
 BYTE   PAN   c_v+10
 BYTE   W05
 BYTE   N06  Cs5
 BYTE   W01
 BYTE   PAN   c_v+9
 BYTE   W05
 BYTE   N06  An4
 BYTE   W01
 BYTE   PAN   c_v+8
 BYTE   W05
 BYTE   N06  Fs4
 BYTE   W01
 BYTE   PAN   c_v+7
 BYTE   W05
 BYTE   N06  Dn5
 BYTE   W01
 BYTE   PAN   c_v+6
 BYTE   W05
 BYTE   N06  Cs5
 BYTE   W01
 BYTE   PAN   c_v+5
 BYTE   W05
 BYTE   N06  An4
 BYTE   W01
 BYTE   PAN   c_v+4
 BYTE   W05
 BYTE   N06  Fs4
 BYTE   W01
 BYTE   PAN   c_v+3
 BYTE   W05
 BYTE   N06  Dn5
 BYTE   W01
 BYTE   PAN   c_v+2
 BYTE   W05
 BYTE   N06  Cs5
 BYTE   W01
 BYTE   PAN   c_v+1
 BYTE   W05
 BYTE   N06  An4
 BYTE   W01
 BYTE   PAN   c_v+0
 BYTE   W05
 BYTE   N06  Fs4
 BYTE   W01
 BYTE   PEND 
//  #10 //008   ----------------------------------------
Label_01ADAD03:
 BYTE   W05
 BYTE   N06  Dn5  v044
 BYTE   W90
 BYTE   W01
 BYTE   PEND 
//  #10 //009   ----------------------------------------
Label_01ADAD0A:
 BYTE   W96
//  #10 //010   ----------------------------------------
 BYTE   W96
//  #10 //011   ----------------------------------------
 BYTE   W96
//  #10 //012   ----------------------------------------
 BYTE   W96
//  #10 //013   ----------------------------------------
 BYTE   W96
//  #10 //014   ----------------------------------------
 BYTE   W96
//  #10 //015   ----------------------------------------
 BYTE   W96
//  #10 //016   ----------------------------------------
 BYTE   W96
//  #10 //017   ----------------------------------------
 BYTE   W96
//  #10 //018   ----------------------------------------
 BYTE   W96
//  #10 //019   ----------------------------------------
 BYTE   W96
//  #10 //020   ----------------------------------------
 BYTE   W96
//  #10 //021   ----------------------------------------
 BYTE   W96
//  #10 //022   ----------------------------------------
 BYTE   W96
//  #10 //023   ----------------------------------------
 BYTE   W96
//  #10 //024   ----------------------------------------
 BYTE   W96
//  #10 //025   ----------------------------------------
 BYTE   VOICE   48
 BYTE   MOD 0
 BYTE   LFOS 35
 BYTE   VOL   74*song42_mvl/mxv
 BYTE   MODT 0
 BYTE   PAN   c_v-24
 BYTE   N12  Dn3  v096
 BYTE   W03
 BYTE   VOL   45*song42_mvl/mxv
 BYTE   W03
 BYTE   VOL   12*song42_mvl/mxv
 BYTE   W06
 BYTE   VOL   76*song42_mvl/mxv
 BYTE   N24
 BYTE   W03
 BYTE   VOL   52*song42_mvl/mxv
 BYTE   W03
 BYTE   VOL   14*song42_mvl/mxv
 BYTE   W18
 BYTE   VOL   82*song42_mvl/mxv
 BYTE   N24
 BYTE   W03
 BYTE   VOL   54*song42_mvl/mxv
 BYTE   W03
 BYTE   VOL   17*song42_mvl/mxv
 BYTE   W18
 BYTE   VOL   82*song42_mvl/mxv
 BYTE   N36
 BYTE   W12
 BYTE   MOD 2
 BYTE   VOL   42*song42_mvl/mxv
 BYTE   W24
//  #10 //026   ----------------------------------------
Label_01ADAD47:
 BYTE   MOD 0
 BYTE   LFOS 35
 BYTE   VOL   74*song42_mvl/mxv
 BYTE   MODT 0
 BYTE   PAN   c_v-24
 BYTE   N12  En3  v096
 BYTE   W03
 BYTE   VOL   45*song42_mvl/mxv
 BYTE   W03
 BYTE   VOL   12*song42_mvl/mxv
 BYTE   W06
 BYTE   VOL   76*song42_mvl/mxv
 BYTE   N24
 BYTE   W03
 BYTE   VOL   52*song42_mvl/mxv
 BYTE   W03
 BYTE   VOL   14*song42_mvl/mxv
 BYTE   W18
 BYTE   VOL   82*song42_mvl/mxv
 BYTE   N24
 BYTE   W03
 BYTE   VOL   54*song42_mvl/mxv
 BYTE   W03
 BYTE   VOL   17*song42_mvl/mxv
 BYTE   W18
 BYTE   VOL   82*song42_mvl/mxv
 BYTE   N36
 BYTE   W12
 BYTE   MOD 2
 BYTE   VOL   42*song42_mvl/mxv
 BYTE   W24
 BYTE   PEND 
//  #10 //027   ----------------------------------------
Label_01ADAD73:
 BYTE   MOD 0
 BYTE   LFOS 35
 BYTE   VOL   74*song42_mvl/mxv
 BYTE   MODT 0
 BYTE   PAN   c_v-24
 BYTE   N12  Dn3  v096
 BYTE   W03
 BYTE   VOL   45*song42_mvl/mxv
 BYTE   W03
 BYTE   VOL   12*song42_mvl/mxv
 BYTE   W06
 BYTE   VOL   76*song42_mvl/mxv
 BYTE   N24
 BYTE   W03
 BYTE   VOL   52*song42_mvl/mxv
 BYTE   W03
 BYTE   VOL   14*song42_mvl/mxv
 BYTE   W18
 BYTE   VOL   82*song42_mvl/mxv
 BYTE   N24
 BYTE   W03
 BYTE   VOL   54*song42_mvl/mxv
 BYTE   W03
 BYTE   VOL   17*song42_mvl/mxv
 BYTE   W18
 BYTE   VOL   82*song42_mvl/mxv
 BYTE   N36
 BYTE   W12
 BYTE   MOD 2
 BYTE   VOL   42*song42_mvl/mxv
 BYTE   W24
 BYTE   PEND 
//  #10 //028   ----------------------------------------
 BYTE   PATT
  POIN2 Label_01ADAD47
//  #10 //029   ----------------------------------------
 BYTE   MOD 0
 BYTE   LFOS 35
 BYTE   VOL   74*song42_mvl/mxv
 BYTE   MODT 0
 BYTE   PAN   c_v-24
 BYTE   N12  Fn3  v096
 BYTE   W03
 BYTE   VOL   45*song42_mvl/mxv
 BYTE   W03
 BYTE   VOL   12*song42_mvl/mxv
 BYTE   W06
 BYTE   VOL   76*song42_mvl/mxv
 BYTE   N24
 BYTE   W03
 BYTE   VOL   52*song42_mvl/mxv
 BYTE   W03
 BYTE   VOL   14*song42_mvl/mxv
 BYTE   W18
 BYTE   VOL   82*song42_mvl/mxv
 BYTE   N24
 BYTE   W03
 BYTE   VOL   54*song42_mvl/mxv
 BYTE   W03
 BYTE   VOL   17*song42_mvl/mxv
 BYTE   W18
 BYTE   VOL   82*song42_mvl/mxv
 BYTE   N36
 BYTE   W12
 BYTE   MOD 2
 BYTE   VOL   42*song42_mvl/mxv
 BYTE   W24
//  #10 //030   ----------------------------------------
 BYTE   PATT
  POIN2 Label_01ADAD47
//  #10 //031   ----------------------------------------
 BYTE   PATT
  POIN2 Label_01ADAD73
//  #10 //032   ----------------------------------------
 BYTE   MOD 0
 BYTE   W96
//  #10 //033   ----------------------------------------
 BYTE   VOICE   12
 BYTE   VOL   82*song42_mvl/mxv
 BYTE   PAN   c_v-42
 BYTE   W03
 BYTE   N06  Dn5  v020
 BYTE   W02
 BYTE   VOL   76*song42_mvl/mxv
 BYTE   W04
 BYTE   N06  Cs5
 BYTE   W02
 BYTE   VOL   71*song42_mvl/mxv
 BYTE   W04
 BYTE   N06  An4
 BYTE   W02
 BYTE   VOL   64*song42_mvl/mxv
 BYTE   W04
 BYTE   N06  Fs4
 BYTE   W02
 BYTE   VOL   58*song42_mvl/mxv
 BYTE   W04
 BYTE   N06  Dn5
 BYTE   W02
 BYTE   VOL   52*song42_mvl/mxv
 BYTE   W04
 BYTE   N06  Cs5
 BYTE   W02
 BYTE   VOL   46*song42_mvl/mxv
 BYTE   W04
 BYTE   N06  An4
 BYTE   W02
 BYTE   VOL   39*song42_mvl/mxv
 BYTE   W04
 BYTE   N06  Fs4
 BYTE   W48
 BYTE   W03
//  #10 //034   ----------------------------------------
Label_01ADAE12:
 BYTE   VOL   82*song42_mvl/mxv
 BYTE   W03
 BYTE   N06  Dn5  v020
 BYTE   W02
 BYTE   VOL   76*song42_mvl/mxv
 BYTE   W04
 BYTE   N06  Cs5
 BYTE   W02
 BYTE   VOL   71*song42_mvl/mxv
 BYTE   W04
 BYTE   N06  An4
 BYTE   W02
 BYTE   VOL   64*song42_mvl/mxv
 BYTE   W04
 BYTE   N06  Fs4
 BYTE   W02
 BYTE   VOL   58*song42_mvl/mxv
 BYTE   W04
 BYTE   N06  Dn5
 BYTE   W02
 BYTE   VOL   52*song42_mvl/mxv
 BYTE   W04
 BYTE   N06  Cs5
 BYTE   W02
 BYTE   VOL   46*song42_mvl/mxv
 BYTE   W04
 BYTE   N06  An4
 BYTE   W02
 BYTE   VOL   39*song42_mvl/mxv
 BYTE   W04
 BYTE   N06  Fs4
 BYTE   W48
 BYTE   W02
 BYTE   VOL   81*song42_mvl/mxv
 BYTE   W01
 BYTE   PEND 
//  #10 //035   ----------------------------------------
 BYTE   PATT
  POIN2 Label_01ADAE12
//  #10 //036   ----------------------------------------
 BYTE   PATT
  POIN2 Label_01ADAE12
//  #10 //037   ----------------------------------------
 BYTE   PATT
  POIN2 Label_01ADAE12
//  #10 //038   ----------------------------------------
 BYTE   PATT
  POIN2 Label_01ADAE12
//  #10 //039   ----------------------------------------
 BYTE   PATT
  POIN2 Label_01ADAE12
//  #10 //040   ----------------------------------------
 BYTE   VOL   82*song42_mvl/mxv
 BYTE   W03
 BYTE   N06  Dn5  v020
 BYTE   W02
 BYTE   VOL   76*song42_mvl/mxv
 BYTE   W04
 BYTE   N06  Cs5
 BYTE   W02
 BYTE   VOL   71*song42_mvl/mxv
 BYTE   W04
 BYTE   N06  An4
 BYTE   W02
 BYTE   VOL   64*song42_mvl/mxv
 BYTE   W04
 BYTE   N06  Fs4
 BYTE   W02
 BYTE   VOL   58*song42_mvl/mxv
 BYTE   W04
 BYTE   N06  Dn5
 BYTE   W02
 BYTE   VOL   52*song42_mvl/mxv
 BYTE   W04
 BYTE   N06  Cs5
 BYTE   W02
 BYTE   VOL   46*song42_mvl/mxv
 BYTE   W04
 BYTE   N06  An4
 BYTE   W02
 BYTE   VOL   39*song42_mvl/mxv
 BYTE   W04
 BYTE   N06  Fs4
 BYTE   W48
 BYTE   W03
//  #10 //041   ----------------------------------------
 BYTE   PATT
  POIN2 Label_01ADA9ED
//  #10 //042   ----------------------------------------
 BYTE   PATT
  POIN2 Label_01ADAA59
//  #10 //043   ----------------------------------------
 BYTE   PATT
  POIN2 Label_01ADAABB
//  #10 //044   ----------------------------------------
 BYTE   PATT
  POIN2 Label_01ADAB1D
//  #10 //045   ----------------------------------------
 BYTE   PATT
  POIN2 Label_01ADAB7F
//  #10 //046   ----------------------------------------
 BYTE   PATT
  POIN2 Label_01ADABE1
//  #10 //047   ----------------------------------------
 BYTE   PATT
  POIN2 Label_01ADAC43
//  #10 //048   ----------------------------------------
 BYTE   PATT
  POIN2 Label_01ADACA5
//  #10 //049   ----------------------------------------
 BYTE   PATT
  POIN2 Label_01ADAD03
//  #10 //050   ----------------------------------------
 BYTE   GoTo
  POIN2 Label_01ADAD0A
 BYTE   FINE

//**************** Track 11 (Midi-Chn.10) ****************//

song42_011:
//  #11 //000   ----------------------------------------
 BYTE   KEYSH   song42_key+0
 BYTE   W96
//  #11 //001   ----------------------------------------
 BYTE   W96
//  #11 //002   ----------------------------------------
 BYTE   W96
//  #11 //003   ----------------------------------------
 BYTE   W96
//  #11 //004   ----------------------------------------
 BYTE   W96
//  #11 //005   ----------------------------------------
 BYTE   W96
//  #11 //006   ----------------------------------------
 BYTE   W96
//  #11 //007   ----------------------------------------
 BYTE   W72
 BYTE   VOICE   0
 BYTE   W24
//  #11 //008   ----------------------------------------
 BYTE   VOL   76*song42_mvl/mxv
 BYTE   W96
//  #11 //009   ----------------------------------------
Label_01ADAED6:
 BYTE   W12
 BYTE   N12  Cs2  v040
 BYTE   W12
 BYTE   Dn2  v036
 BYTE   W12
 BYTE   Cs2  v040
 BYTE   W12
 BYTE   N18  Ds2  v048
 BYTE   W12
 BYTE   N12  Cs2  v040
 BYTE   W12
 BYTE   Dn2  v016
 BYTE   W12
 BYTE   Cs2  v040
 BYTE   W12
 BYTE   PEND 
//  #11 //010   ----------------------------------------
 BYTE   PATT
  POIN2 Label_01ADAED6
//  #11 //011   ----------------------------------------
 BYTE   PATT
  POIN2 Label_01ADAED6
//  #11 //012   ----------------------------------------
 BYTE   PATT
  POIN2 Label_01ADAED6
//  #11 //013   ----------------------------------------
 BYTE   PATT
  POIN2 Label_01ADAED6
//  #11 //014   ----------------------------------------
 BYTE   PATT
  POIN2 Label_01ADAED6
//  #11 //015   ----------------------------------------
 BYTE   PATT
  POIN2 Label_01ADAED6
//  #11 //016   ----------------------------------------
 BYTE   PATT
  POIN2 Label_01ADAED6
//  #11 //017   ----------------------------------------
 BYTE   PATT
  POIN2 Label_01ADAED6
//  #11 //018   ----------------------------------------
 BYTE   PATT
  POIN2 Label_01ADAED6
//  #11 //019   ----------------------------------------
 BYTE   PATT
  POIN2 Label_01ADAED6
//  #11 //020   ----------------------------------------
 BYTE   PATT
  POIN2 Label_01ADAED6
//  #11 //021   ----------------------------------------
 BYTE   PATT
  POIN2 Label_01ADAED6
//  #11 //022   ----------------------------------------
 BYTE   PATT
  POIN2 Label_01ADAED6
//  #11 //023   ----------------------------------------
 BYTE   PATT
  POIN2 Label_01ADAED6
//  #11 //024   ----------------------------------------
 BYTE   W12
 BYTE   N12  Cs2  v040
 BYTE   W12
 BYTE   Dn2  v036
 BYTE   W12
 BYTE   Cs2  v040
 BYTE   W12
 BYTE   VOICE   52
 BYTE   W18
 BYTE   N30  Fn2  v120
 BYTE   W30
//  #11 //025   ----------------------------------------
 BYTE   VOICE   54
 BYTE   N96  Fn2  v112
 BYTE   W96
//  #11 //026   ----------------------------------------
 BYTE   W96
//  #11 //027   ----------------------------------------
 BYTE   W96
//  #11 //028   ----------------------------------------
 BYTE   W96
//  #11 //029   ----------------------------------------
 BYTE   VOICE   0
 BYTE   W96
//  #11 //030   ----------------------------------------
 BYTE   W96
//  #11 //031   ----------------------------------------
 BYTE   W96
//  #11 //032   ----------------------------------------
 BYTE   VOL   82*song42_mvl/mxv
 BYTE   W96
//  #11 //033   ----------------------------------------
Label_01ADAF59:
 BYTE   W60
 BYTE   N12  Gn2  v060
 BYTE   W12
 BYTE   N16  Gs2  v096
 BYTE   W24
 BYTE   PEND 
//  #11 //034   ----------------------------------------
 BYTE   W60
 BYTE   N12  Gn2  v060
 BYTE   W04
 BYTE   N16  Gs2  v096
 BYTE   W32
//  #11 //035   ----------------------------------------
 BYTE   PATT
  POIN2 Label_01ADAF59
//  #11 //036   ----------------------------------------
 BYTE   PATT
  POIN2 Label_01ADAF59
//  #11 //037   ----------------------------------------
 BYTE   PATT
  POIN2 Label_01ADAF59
//  #11 //038   ----------------------------------------
 BYTE   PATT
  POIN2 Label_01ADAF59
//  #11 //039   ----------------------------------------
 BYTE   PATT
  POIN2 Label_01ADAF59
//  #11 //040   ----------------------------------------
 BYTE   PATT
  POIN2 Label_01ADAF59
//  #11 //041   ----------------------------------------
 BYTE   W96
//  #11 //042   ----------------------------------------
 BYTE   W96
//  #11 //043   ----------------------------------------
 BYTE   W96
//  #11 //044   ----------------------------------------
 BYTE   W96
//  #11 //045   ----------------------------------------
 BYTE   W96
//  #11 //046   ----------------------------------------
 BYTE   W96
//  #11 //047   ----------------------------------------
 BYTE   W96
//  #11 //048   ----------------------------------------
 BYTE   W96
//  #11 //049   ----------------------------------------
 BYTE   VOL   76*song42_mvl/mxv
 BYTE   W96
//  #11 //050   ----------------------------------------
 BYTE   GoTo
  POIN2 Label_01ADAED6
 BYTE   FINE

//**************** Track 12 (Midi-Chn.11) ****************//

song42_012:
//  #12 //000   ----------------------------------------
 BYTE   KEYSH   song42_key+0
 BYTE   W96
//  #12 //001   ----------------------------------------
 BYTE   W96
//  #12 //002   ----------------------------------------
 BYTE   W96
//  #12 //003   ----------------------------------------
 BYTE   W96
//  #12 //004   ----------------------------------------
 BYTE   W96
//  #12 //005   ----------------------------------------
 BYTE   W96
//  #12 //006   ----------------------------------------
 BYTE   W96
//  #12 //007   ----------------------------------------
 BYTE   W96
//  #12 //008   ----------------------------------------
 BYTE   W96
//  #12 //009   ----------------------------------------
Label_01ADAFA6:
 BYTE   W96
//  #12 //010   ----------------------------------------
 BYTE   W96
//  #12 //011   ----------------------------------------
 BYTE   W96
//  #12 //012   ----------------------------------------
 BYTE   W96
//  #12 //013   ----------------------------------------
 BYTE   W96
//  #12 //014   ----------------------------------------
 BYTE   W96
//  #12 //015   ----------------------------------------
 BYTE   W96
//  #12 //016   ----------------------------------------
 BYTE   W96
//  #12 //017   ----------------------------------------
 BYTE   W96
//  #12 //018   ----------------------------------------
 BYTE   W96
//  #12 //019   ----------------------------------------
 BYTE   W96
//  #12 //020   ----------------------------------------
 BYTE   W96
//  #12 //021   ----------------------------------------
 BYTE   W96
//  #12 //022   ----------------------------------------
 BYTE   W96
//  #12 //023   ----------------------------------------
 BYTE   W96
//  #12 //024   ----------------------------------------
 BYTE   VOL   105*song42_mvl/mxv
 BYTE   PAN   c_v+0
 BYTE   W80
 BYTE   VOICE   24
 BYTE   W12
 BYTE   VOL   105*song42_mvl/mxv
 BYTE   W04
//  #12 //025   ----------------------------------------
 BYTE   N48  Bn2  v127
 BYTE   W24
 BYTE   VOL   101*song42_mvl/mxv
 BYTE   W01
 BYTE   VOL   96*song42_mvl/mxv
 BYTE   W01
 BYTE   VOL   92*song42_mvl/mxv
 BYTE   W01
 BYTE   VOL   88*song42_mvl/mxv
 BYTE   W01
 BYTE   VOL   83*song42_mvl/mxv
 BYTE   W01
 BYTE   VOL   79*song42_mvl/mxv
 BYTE   W01
 BYTE   VOL   75*song42_mvl/mxv
 BYTE   W01
 BYTE   VOL   70*song42_mvl/mxv
 BYTE   W01
 BYTE   VOL   66*song42_mvl/mxv
 BYTE   W01
 BYTE   VOL   62*song42_mvl/mxv
 BYTE   W01
 BYTE   VOL   57*song42_mvl/mxv
 BYTE   W01
 BYTE   VOL   52*song42_mvl/mxv
 BYTE   W01
 BYTE   VOL   48*song42_mvl/mxv
 BYTE   W01
 BYTE   VOL   43*song42_mvl/mxv
 BYTE   W01
 BYTE   VOL   39*song42_mvl/mxv
 BYTE   W01
 BYTE   VOL   35*song42_mvl/mxv
 BYTE   W01
 BYTE   VOL   30*song42_mvl/mxv
 BYTE   W01
 BYTE   VOL   26*song42_mvl/mxv
 BYTE   W01
 BYTE   VOL   22*song42_mvl/mxv
 BYTE   W01
 BYTE   VOL   17*song42_mvl/mxv
 BYTE   W01
 BYTE   VOL   13*song42_mvl/mxv
 BYTE   W01
 BYTE   VOL   9*song42_mvl/mxv
 BYTE   W01
 BYTE   VOL   4*song42_mvl/mxv
 BYTE   W01
 BYTE   VOL   0*song42_mvl/mxv
 BYTE   W07
 BYTE   VOL   28*song42_mvl/mxv
 BYTE   W01
 BYTE   VOL   72*song42_mvl/mxv
 BYTE   W01
 BYTE   VOL   105*song42_mvl/mxv
 BYTE   W04
 BYTE   N22  En3
 BYTE   W11
 BYTE   VOL   105*song42_mvl/mxv
 BYTE   W01
 BYTE   VOL   94*song42_mvl/mxv
 BYTE   W01
 BYTE   VOL   85*song42_mvl/mxv
 BYTE   W01
 BYTE   VOL   74*song42_mvl/mxv
 BYTE   W01
 BYTE   VOL   62*song42_mvl/mxv
 BYTE   W01
 BYTE   VOL   55*song42_mvl/mxv
 BYTE   W01
 BYTE   VOL   43*song42_mvl/mxv
 BYTE   W01
 BYTE   VOL   32*song42_mvl/mxv
 BYTE   W01
 BYTE   VOL   24*song42_mvl/mxv
 BYTE   W01
 BYTE   VOL   13*song42_mvl/mxv
 BYTE   W01
 BYTE   VOL   1*song42_mvl/mxv
 BYTE   W01
 BYTE   VOL   0*song42_mvl/mxv
 BYTE   W01
 BYTE   VOL   105*song42_mvl/mxv
 BYTE   W01
 BYTE   N11  Cs3
 BYTE   W06
 BYTE   VOL   91*song42_mvl/mxv
 BYTE   W01
 BYTE   VOL   71*song42_mvl/mxv
 BYTE   W01
 BYTE   VOL   51*song42_mvl/mxv
 BYTE   W01
 BYTE   VOL   37*song42_mvl/mxv
 BYTE   W01
 BYTE   VOL   16*song42_mvl/mxv
 BYTE   W01
 BYTE   VOL   105*song42_mvl/mxv
 BYTE   W01
//  #12 //026   ----------------------------------------
 BYTE   N22  En3
 BYTE   W11
 BYTE   VOL   105*song42_mvl/mxv
 BYTE   W01
 BYTE   VOL   98*song42_mvl/mxv
 BYTE   W01
 BYTE   VOL   88*song42_mvl/mxv
 BYTE   W01
 BYTE   VOL   78*song42_mvl/mxv
 BYTE   W01
 BYTE   VOL   71*song42_mvl/mxv
 BYTE   W01
 BYTE   VOL   61*song42_mvl/mxv
 BYTE   W01
 BYTE   VOL   51*song42_mvl/mxv
 BYTE   W01
 BYTE   VOL   43*song42_mvl/mxv
 BYTE   W01
 BYTE   VOL   33*song42_mvl/mxv
 BYTE   W01
 BYTE   VOL   23*song42_mvl/mxv
 BYTE   W01
 BYTE   VOL   16*song42_mvl/mxv
 BYTE   W01
 BYTE   VOL   6*song42_mvl/mxv
 BYTE   W01
 BYTE   VOL   105*song42_mvl/mxv
 BYTE   W01
 BYTE   N44  An2
 BYTE   W03
 BYTE   VOL   104*song42_mvl/mxv
 BYTE   W02
 BYTE   VOL   103*song42_mvl/mxv
 BYTE   W02
 BYTE   VOL   102*song42_mvl/mxv
 BYTE   W02
 BYTE   VOL   101*song42_mvl/mxv
 BYTE   W02
 BYTE   VOL   100*song42_mvl/mxv
 BYTE   W02
 BYTE   VOL   100*song42_mvl/mxv
 BYTE   W03
 BYTE   VOL   99*song42_mvl/mxv
 BYTE   W02
 BYTE   VOL   98*song42_mvl/mxv
 BYTE   W02
 BYTE   VOL   97*song42_mvl/mxv
 BYTE   W02
 BYTE   VOL   96*song42_mvl/mxv
 BYTE   W02
 BYTE   VOL   92*song42_mvl/mxv
 BYTE   W01
 BYTE   VOL   89*song42_mvl/mxv
 BYTE   W01
 BYTE   VOL   84*song42_mvl/mxv
 BYTE   W01
 BYTE   VOL   80*song42_mvl/mxv
 BYTE   W01
 BYTE   VOL   76*song42_mvl/mxv
 BYTE   W01
 BYTE   VOL   71*song42_mvl/mxv
 BYTE   W01
 BYTE   VOL   66*song42_mvl/mxv
 BYTE   W01
 BYTE   VOL   64*song42_mvl/mxv
 BYTE   W01
 BYTE   VOL   59*song42_mvl/mxv
 BYTE   W01
 BYTE   VOL   54*song42_mvl/mxv
 BYTE   W01
 BYTE   VOL   52*song42_mvl/mxv
 BYTE   W01
 BYTE   VOL   47*song42_mvl/mxv
 BYTE   W01
 BYTE   VOL   42*song42_mvl/mxv
 BYTE   W01
 BYTE   VOL   38*song42_mvl/mxv
 BYTE   W01
 BYTE   VOL   34*song42_mvl/mxv
 BYTE   W01
 BYTE   VOL   29*song42_mvl/mxv
 BYTE   W01
 BYTE   VOL   26*song42_mvl/mxv
 BYTE   W01
 BYTE   VOL   22*song42_mvl/mxv
 BYTE   W01
 BYTE   VOL   17*song42_mvl/mxv
 BYTE   W01
 BYTE   VOL   14*song42_mvl/mxv
 BYTE   W01
 BYTE   VOL   9*song42_mvl/mxv
 BYTE   W01
 BYTE   VOL   4*song42_mvl/mxv
 BYTE   W01
 BYTE   VOL   1*song42_mvl/mxv
 BYTE   W01
 BYTE   VOL   105*song42_mvl/mxv
 BYTE   W01
 BYTE   N21  Fs2
 BYTE   W12
 BYTE   VOL   96*song42_mvl/mxv
 BYTE   W01
 BYTE   VOL   87*song42_mvl/mxv
 BYTE   W01
 BYTE   VOL   74*song42_mvl/mxv
 BYTE   W01
 BYTE   VOL   61*song42_mvl/mxv
 BYTE   W01
 BYTE   VOL   52*song42_mvl/mxv
 BYTE   W01
 BYTE   VOL   38*song42_mvl/mxv
 BYTE   W01
 BYTE   VOL   25*song42_mvl/mxv
 BYTE   W01
 BYTE   VOL   16*song42_mvl/mxv
 BYTE   W01
 BYTE   VOL   3*song42_mvl/mxv
 BYTE   W01
 BYTE   VOL   0*song42_mvl/mxv
 BYTE   W02
 BYTE   VOL   105*song42_mvl/mxv
 BYTE   W01
//  #12 //027   ----------------------------------------
 BYTE   N44  Bn2
 BYTE   W24
 BYTE   VOL   100*song42_mvl/mxv
 BYTE   W01
 BYTE   VOL   93*song42_mvl/mxv
 BYTE   W01
 BYTE   VOL   86*song42_mvl/mxv
 BYTE   W01
 BYTE   VOL   81*song42_mvl/mxv
 BYTE   W01
 BYTE   VOL   73*song42_mvl/mxv
 BYTE   W01
 BYTE   VOL   67*song42_mvl/mxv
 BYTE   W01
 BYTE   VOL   62*song42_mvl/mxv
 BYTE   W01
 BYTE   VOL   54*song42_mvl/mxv
 BYTE   W01
 BYTE   VOL   47*song42_mvl/mxv
 BYTE   W01
 BYTE   VOL   42*song42_mvl/mxv
 BYTE   W01
 BYTE   VOL   38*song42_mvl/mxv
 BYTE   W01
 BYTE   VOL   34*song42_mvl/mxv
 BYTE   W01
 BYTE   VOL   32*song42_mvl/mxv
 BYTE   W01
 BYTE   VOL   28*song42_mvl/mxv
 BYTE   W01
 BYTE   VOL   25*song42_mvl/mxv
 BYTE   W01
 BYTE   VOL   22*song42_mvl/mxv
 BYTE   W01
 BYTE   VOL   19*song42_mvl/mxv
 BYTE   W01
 BYTE   VOL   15*song42_mvl/mxv
 BYTE   W01
 BYTE   VOL   13*song42_mvl/mxv
 BYTE   W01
 BYTE   VOL   9*song42_mvl/mxv
 BYTE   W01
 BYTE   VOL   6*song42_mvl/mxv
 BYTE   W01
 BYTE   VOL   3*song42_mvl/mxv
 BYTE   W01
 BYTE   VOL   0*song42_mvl/mxv
 BYTE   W01
 BYTE   VOL   105*song42_mvl/mxv
 BYTE   W01
 BYTE   N24  An3
 BYTE   W11
 BYTE   VOL   105*song42_mvl/mxv
 BYTE   W01
 BYTE   VOL   96*song42_mvl/mxv
 BYTE   W01
 BYTE   VOL   90*song42_mvl/mxv
 BYTE   W01
 BYTE   VOL   82*song42_mvl/mxv
 BYTE   W01
 BYTE   VOL   74*song42_mvl/mxv
 BYTE   W01
 BYTE   VOL   68*song42_mvl/mxv
 BYTE   W01
 BYTE   VOL   60*song42_mvl/mxv
 BYTE   W01
 BYTE   VOL   52*song42_mvl/mxv
 BYTE   W01
 BYTE   VOL   46*song42_mvl/mxv
 BYTE   W01
 BYTE   VOL   38*song42_mvl/mxv
 BYTE   W01
 BYTE   VOL   29*song42_mvl/mxv
 BYTE   W01
 BYTE   VOL   23*song42_mvl/mxv
 BYTE   W01
 BYTE   VOL   15*song42_mvl/mxv
 BYTE   W01
 BYTE   VOL   6*song42_mvl/mxv
 BYTE   W01
 BYTE   VOL   0*song42_mvl/mxv
 BYTE   W08
 BYTE   VOL   0*song42_mvl/mxv
 BYTE   W01
 BYTE   VOL   105*song42_mvl/mxv
 BYTE   W02
 BYTE   N11  Fs3
 BYTE   W06
 BYTE   VOL   90*song42_mvl/mxv
 BYTE   W01
 BYTE   VOL   70*song42_mvl/mxv
 BYTE   W01
 BYTE   VOL   56*song42_mvl/mxv
 BYTE   W01
 BYTE   VOL   34*song42_mvl/mxv
 BYTE   W01
 BYTE   VOL   14*song42_mvl/mxv
 BYTE   W01
 BYTE   VOL   105*song42_mvl/mxv
 BYTE   W01
//  #12 //028   ----------------------------------------
 BYTE   TIE  An3  v108
 BYTE   W04
 BYTE   VOL   104*song42_mvl/mxv
 BYTE   W02
 BYTE   VOL   103*song42_mvl/mxv
 BYTE   W02
 BYTE   VOL   102*song42_mvl/mxv
 BYTE   W02
 BYTE   VOL   101*song42_mvl/mxv
 BYTE   W02
 BYTE   VOL   100*song42_mvl/mxv
 BYTE   W02
 BYTE   VOL   100*song42_mvl/mxv
 BYTE   W03
 BYTE   VOL   99*song42_mvl/mxv
 BYTE   W02
 BYTE   VOL   98*song42_mvl/mxv
 BYTE   W02
 BYTE   VOL   97*song42_mvl/mxv
 BYTE   W02
 BYTE   VOL   96*song42_mvl/mxv
 BYTE   W02
 BYTE   VOL   95*song42_mvl/mxv
 BYTE   W02
 BYTE   VOL   95*song42_mvl/mxv
 BYTE   W02
 BYTE   VOL   94*song42_mvl/mxv
 BYTE   W03
 BYTE   VOL   93*song42_mvl/mxv
 BYTE   W02
 BYTE   VOL   92*song42_mvl/mxv
 BYTE   W02
 BYTE   VOL   91*song42_mvl/mxv
 BYTE   W02
 BYTE   VOL   90*song42_mvl/mxv
 BYTE   W02
 BYTE   VOL   90*song42_mvl/mxv
 BYTE   W02
 BYTE   VOL   89*song42_mvl/mxv
 BYTE   W02
 BYTE   VOL   88*song42_mvl/mxv
 BYTE   W03
 BYTE   VOL   87*song42_mvl/mxv
 BYTE   W02
 BYTE   VOL   86*song42_mvl/mxv
 BYTE   W02
 BYTE   VOL   85*song42_mvl/mxv
 BYTE   W02
 BYTE   VOL   85*song42_mvl/mxv
 BYTE   W02
 BYTE   VOL   84*song42_mvl/mxv
 BYTE   W02
 BYTE   VOL   83*song42_mvl/mxv
 BYTE   W03
 BYTE   VOL   82*song42_mvl/mxv
 BYTE   W02
 BYTE   VOL   81*song42_mvl/mxv
 BYTE   W02
 BYTE   VOL   81*song42_mvl/mxv
 BYTE   W02
 BYTE   VOL   80*song42_mvl/mxv
 BYTE   W02
 BYTE   VOL   79*song42_mvl/mxv
 BYTE   W02
 BYTE   VOL   78*song42_mvl/mxv
 BYTE   W01
 BYTE   VOL   77*song42_mvl/mxv
 BYTE   W01
 BYTE   VOL   76*song42_mvl/mxv
 BYTE   W01
 BYTE   VOL   73*song42_mvl/mxv
 BYTE   W01
 BYTE   VOL   71*song42_mvl/mxv
 BYTE   W01
 BYTE   VOL   70*song42_mvl/mxv
 BYTE   W01
 BYTE   VOL   67*song42_mvl/mxv
 BYTE   W01
 BYTE   VOL   66*song42_mvl/mxv
 BYTE   W01
 BYTE   VOL   64*song42_mvl/mxv
 BYTE   W01
 BYTE   VOL   62*song42_mvl/mxv
 BYTE   W01
 BYTE   VOL   60*song42_mvl/mxv
 BYTE   W01
 BYTE   VOL   58*song42_mvl/mxv
 BYTE   W01
 BYTE   VOL   56*song42_mvl/mxv
 BYTE   W01
 BYTE   VOL   54*song42_mvl/mxv
 BYTE   W01
 BYTE   VOL   52*song42_mvl/mxv
 BYTE   W01
 BYTE   VOL   50*song42_mvl/mxv
 BYTE   W01
 BYTE   VOL   48*song42_mvl/mxv
 BYTE   W01
 BYTE   VOL   46*song42_mvl/mxv
 BYTE   W01
 BYTE   VOL   45*song42_mvl/mxv
 BYTE   W01
 BYTE   VOL   43*song42_mvl/mxv
 BYTE   W01
 BYTE   VOL   41*song42_mvl/mxv
 BYTE   W01
 BYTE   VOL   39*song42_mvl/mxv
 BYTE   W01
 BYTE   VOL   38*song42_mvl/mxv
 BYTE   W01
 BYTE   VOL   35*song42_mvl/mxv
 BYTE   W01
 BYTE   VOL   33*song42_mvl/mxv
 BYTE   W01
 BYTE   VOL   32*song42_mvl/mxv
 BYTE   W01
//  #12 //029   ----------------------------------------
 BYTE   VOL   29*song42_mvl/mxv
 BYTE   W01
 BYTE   VOL   28*song42_mvl/mxv
 BYTE   W01
 BYTE   VOL   26*song42_mvl/mxv
 BYTE   W01
 BYTE   VOL   23*song42_mvl/mxv
 BYTE   W01
 BYTE   VOL   22*song42_mvl/mxv
 BYTE   W01
 BYTE   VOL   20*song42_mvl/mxv
 BYTE   W01
 BYTE   VOL   18*song42_mvl/mxv
 BYTE   W01
 BYTE   VOL   16*song42_mvl/mxv
 BYTE   W01
 BYTE   VOL   15*song42_mvl/mxv
 BYTE   W01
 BYTE   VOL   14*song42_mvl/mxv
 BYTE   W01
 BYTE   VOL   13*song42_mvl/mxv
 BYTE   W01
 BYTE   VOL   12*song42_mvl/mxv
 BYTE   W01
 BYTE   VOL   11*song42_mvl/mxv
 BYTE   W01
 BYTE   VOL   9*song42_mvl/mxv
 BYTE   W01
 BYTE   VOL   9*song42_mvl/mxv
 BYTE   W01
 BYTE   VOL   7*song42_mvl/mxv
 BYTE   W01
 BYTE   VOL   6*song42_mvl/mxv
 BYTE   W01
 BYTE   VOL   4*song42_mvl/mxv
 BYTE   W01
 BYTE   VOL   4*song42_mvl/mxv
 BYTE   W01
 BYTE   VOL   3*song42_mvl/mxv
 BYTE   W01
 BYTE   VOL   1*song42_mvl/mxv
 BYTE   W01
 BYTE   EOT
 BYTE   VOL   0*song42_mvl/mxv
 BYTE   W01
 BYTE   VOL   0*song42_mvl/mxv
 BYTE   W01
 BYTE   VOL   105*song42_mvl/mxv
 BYTE   W01
 BYTE   N44
 BYTE   W21
 BYTE   VOL   105*song42_mvl/mxv
 BYTE   W02
 BYTE   VOL   104*song42_mvl/mxv
 BYTE   W01
 BYTE   VOL   102*song42_mvl/mxv
 BYTE   W01
 BYTE   VOL   100*song42_mvl/mxv
 BYTE   W01
 BYTE   VOL   96*song42_mvl/mxv
 BYTE   W01
 BYTE   VOL   95*song42_mvl/mxv
 BYTE   W01
 BYTE   VOL   91*song42_mvl/mxv
 BYTE   W01
 BYTE   VOL   89*song42_mvl/mxv
 BYTE   W01
 BYTE   VOL   87*song42_mvl/mxv
 BYTE   W01
 BYTE   VOL   84*song42_mvl/mxv
 BYTE   W01
 BYTE   VOL   81*song42_mvl/mxv
 BYTE   W01
 BYTE   VOL   79*song42_mvl/mxv
 BYTE   W01
 BYTE   VOL   76*song42_mvl/mxv
 BYTE   W01
 BYTE   VOL   73*song42_mvl/mxv
 BYTE   W01
 BYTE   VOL   71*song42_mvl/mxv
 BYTE   W01
 BYTE   VOL   69*song42_mvl/mxv
 BYTE   W01
 BYTE   VOL   62*song42_mvl/mxv
 BYTE   W01
 BYTE   VOL   56*song42_mvl/mxv
 BYTE   W01
 BYTE   VOL   47*song42_mvl/mxv
 BYTE   W01
 BYTE   VOL   38*song42_mvl/mxv
 BYTE   W01
 BYTE   VOL   32*song42_mvl/mxv
 BYTE   W01
 BYTE   VOL   23*song42_mvl/mxv
 BYTE   W01
 BYTE   VOL   14*song42_mvl/mxv
 BYTE   W01
 BYTE   VOL   7*song42_mvl/mxv
 BYTE   W01
 BYTE   VOL   65*song42_mvl/mxv
 BYTE   W01
 BYTE   VOL   105*song42_mvl/mxv
 BYTE   W01
 BYTE   N17  Fn3  v116
 BYTE   W11
 BYTE   VOL   105*song42_mvl/mxv
 BYTE   W01
 BYTE   VOL   85*song42_mvl/mxv
 BYTE   W01
 BYTE   VOL   65*song42_mvl/mxv
 BYTE   W01
 BYTE   VOL   51*song42_mvl/mxv
 BYTE   W01
 BYTE   VOL   31*song42_mvl/mxv
 BYTE   W01
 BYTE   VOL   11*song42_mvl/mxv
 BYTE   W01
 BYTE   VOL   105*song42_mvl/mxv
 BYTE   W01
 BYTE   N14  Fn3  v120
 BYTE   W05
 BYTE   VOL   105*song42_mvl/mxv
 BYTE   W01
//  #12 //030   ----------------------------------------
 BYTE   VOL   89*song42_mvl/mxv
 BYTE   W01
 BYTE   VOL   78*song42_mvl/mxv
 BYTE   W01
 BYTE   VOL   62*song42_mvl/mxv
 BYTE   W01
 BYTE   VOL   46*song42_mvl/mxv
 BYTE   W01
 BYTE   VOL   35*song42_mvl/mxv
 BYTE   W01
 BYTE   VOL   23*song42_mvl/mxv
 BYTE   W01
 BYTE   VOL   15*song42_mvl/mxv
 BYTE   W01
 BYTE   VOL   9*song42_mvl/mxv
 BYTE   W01
 BYTE   VOL   1*song42_mvl/mxv
 BYTE   W01
 BYTE   VOL   0*song42_mvl/mxv
 BYTE   W01
 BYTE   VOL   0*song42_mvl/mxv
 BYTE   W01
 BYTE   VOL   105*song42_mvl/mxv
 BYTE   W01
 BYTE   N24  En3  v127
 BYTE   W11
 BYTE   VOL   105*song42_mvl/mxv
 BYTE   W01
 BYTE   VOL   96*song42_mvl/mxv
 BYTE   W01
 BYTE   VOL   87*song42_mvl/mxv
 BYTE   W01
 BYTE   VOL   81*song42_mvl/mxv
 BYTE   W01
 BYTE   VOL   72*song42_mvl/mxv
 BYTE   W01
 BYTE   VOL   63*song42_mvl/mxv
 BYTE   W01
 BYTE   VOL   57*song42_mvl/mxv
 BYTE   W01
 BYTE   VOL   48*song42_mvl/mxv
 BYTE   W01
 BYTE   VOL   39*song42_mvl/mxv
 BYTE   W01
 BYTE   VOL   33*song42_mvl/mxv
 BYTE   W01
 BYTE   VOL   24*song42_mvl/mxv
 BYTE   W01
 BYTE   VOL   15*song42_mvl/mxv
 BYTE   W01
 BYTE   VOL   9*song42_mvl/mxv
 BYTE   W01
 BYTE   VOL   0*song42_mvl/mxv
 BYTE   W01
 BYTE   VOL   105*song42_mvl/mxv
 BYTE   W23
 BYTE   VOL   105*song42_mvl/mxv
 BYTE   N21  Cn3
 BYTE   W12
 BYTE   VOL   98*song42_mvl/mxv
 BYTE   W01
 BYTE   VOL   87*song42_mvl/mxv
 BYTE   W01
 BYTE   VOL   77*song42_mvl/mxv
 BYTE   W01
 BYTE   VOL   70*song42_mvl/mxv
 BYTE   W01
 BYTE   VOL   59*song42_mvl/mxv
 BYTE   W01
 BYTE   VOL   49*song42_mvl/mxv
 BYTE   W01
 BYTE   VOL   41*song42_mvl/mxv
 BYTE   W01
 BYTE   VOL   30*song42_mvl/mxv
 BYTE   W01
 BYTE   VOL   21*song42_mvl/mxv
 BYTE   W01
 BYTE   VOL   13*song42_mvl/mxv
 BYTE   W01
 BYTE   VOL   2*song42_mvl/mxv
 BYTE   W01
 BYTE   VOL   105*song42_mvl/mxv
 BYTE   W01
 BYTE   N22
 BYTE   W11
 BYTE   VOL   105*song42_mvl/mxv
 BYTE   W01
//  #12 //031   ----------------------------------------
 BYTE   VOL   97*song42_mvl/mxv
 BYTE   W01
 BYTE   VOL   86*song42_mvl/mxv
 BYTE   W01
 BYTE   VOL   75*song42_mvl/mxv
 BYTE   W01
 BYTE   VOL   67*song42_mvl/mxv
 BYTE   W01
 BYTE   VOL   56*song42_mvl/mxv
 BYTE   W01
 BYTE   VOL   44*song42_mvl/mxv
 BYTE   W01
 BYTE   VOL   37*song42_mvl/mxv
 BYTE   W01
 BYTE   VOL   26*song42_mvl/mxv
 BYTE   W01
 BYTE   VOL   14*song42_mvl/mxv
 BYTE   W01
 BYTE   VOL   7*song42_mvl/mxv
 BYTE   W01
 BYTE   VOL   0*song42_mvl/mxv
 BYTE   W08
 BYTE   VOL   19*song42_mvl/mxv
 BYTE   W01
 BYTE   VOL   51*song42_mvl/mxv
 BYTE   W01
 BYTE   VOL   71*song42_mvl/mxv
 BYTE   W01
 BYTE   VOL   105*song42_mvl/mxv
 BYTE   W72
 BYTE   W01
 BYTE   VOL   105*song42_mvl/mxv
 BYTE   W02
//  #12 //032   ----------------------------------------
 BYTE   N42  En3  v092
 BYTE   W22
 BYTE   VOL   100*song42_mvl/mxv
 BYTE   W01
 BYTE   VOL   96*song42_mvl/mxv
 BYTE   W01
 BYTE   VOL   90*song42_mvl/mxv
 BYTE   W01
 BYTE   VOL   84*song42_mvl/mxv
 BYTE   W01
 BYTE   VOL   80*song42_mvl/mxv
 BYTE   W01
 BYTE   VOL   73*song42_mvl/mxv
 BYTE   W01
 BYTE   VOL   66*song42_mvl/mxv
 BYTE   W01
 BYTE   VOL   62*song42_mvl/mxv
 BYTE   W01
 BYTE   VOL   56*song42_mvl/mxv
 BYTE   W01
 BYTE   VOL   49*song42_mvl/mxv
 BYTE   W01
 BYTE   VOL   45*song42_mvl/mxv
 BYTE   W01
 BYTE   VOL   38*song42_mvl/mxv
 BYTE   W01
 BYTE   VOL   33*song42_mvl/mxv
 BYTE   W01
 BYTE   VOL   28*song42_mvl/mxv
 BYTE   W01
 BYTE   VOL   22*song42_mvl/mxv
 BYTE   W01
 BYTE   VOL   15*song42_mvl/mxv
 BYTE   W01
 BYTE   VOL   11*song42_mvl/mxv
 BYTE   W01
 BYTE   VOL   4*song42_mvl/mxv
 BYTE   W01
 BYTE   VOL   0*song42_mvl/mxv
 BYTE   W04
 BYTE   VOL   0*song42_mvl/mxv
 BYTE   W01
 BYTE   VOL   65*song42_mvl/mxv
 BYTE   W01
 BYTE   VOL   105*song42_mvl/mxv
 BYTE   W02
 BYTE   N24  An3
 BYTE   W18
 BYTE   VOL   102*song42_mvl/mxv
 BYTE   W01
 BYTE   VOL   95*song42_mvl/mxv
 BYTE   W01
 BYTE   VOL   86*song42_mvl/mxv
 BYTE   W01
 BYTE   VOL   76*song42_mvl/mxv
 BYTE   W01
 BYTE   VOL   71*song42_mvl/mxv
 BYTE   W01
 BYTE   VOL   62*song42_mvl/mxv
 BYTE   W01
 BYTE   VOL   52*song42_mvl/mxv
 BYTE   W01
 BYTE   VOL   46*song42_mvl/mxv
 BYTE   W01
 BYTE   VOL   36*song42_mvl/mxv
 BYTE   W01
 BYTE   VOL   27*song42_mvl/mxv
 BYTE   W01
 BYTE   VOL   20*song42_mvl/mxv
 BYTE   W01
 BYTE   VOL   11*song42_mvl/mxv
 BYTE   W01
 BYTE   VOL   2*song42_mvl/mxv
 BYTE   W01
 BYTE   VOL   105*song42_mvl/mxv
 BYTE   W01
 BYTE   N14  An3  v096
 BYTE   W07
 BYTE   VOL   95*song42_mvl/mxv
 BYTE   W01
 BYTE   VOL   85*song42_mvl/mxv
 BYTE   W01
 BYTE   VOL   71*song42_mvl/mxv
 BYTE   W01
 BYTE   VOL   56*song42_mvl/mxv
 BYTE   W01
 BYTE   VOL   47*song42_mvl/mxv
 BYTE   W01
 BYTE   VOL   32*song42_mvl/mxv
 BYTE   W01
 BYTE   VOL   17*song42_mvl/mxv
 BYTE   W01
 BYTE   VOL   7*song42_mvl/mxv
 BYTE   W01
 BYTE   VOL   105*song42_mvl/mxv
 BYTE   W01
//  #12 //033   ----------------------------------------
 BYTE   N68  Fs3  v100
 BYTE   W02
 BYTE   VOL   104*song42_mvl/mxv
 BYTE   W02
 BYTE   VOL   103*song42_mvl/mxv
 BYTE   W01
 BYTE   VOL   102*song42_mvl/mxv
 BYTE   W02
 BYTE   VOL   101*song42_mvl/mxv
 BYTE   W01
 BYTE   VOL   100*song42_mvl/mxv
 BYTE   W02
 BYTE   VOL   100*song42_mvl/mxv
 BYTE   W01
 BYTE   VOL   99*song42_mvl/mxv
 BYTE   W01
 BYTE   VOL   98*song42_mvl/mxv
 BYTE   W02
 BYTE   VOL   97*song42_mvl/mxv
 BYTE   W01
 BYTE   VOL   96*song42_mvl/mxv
 BYTE   W02
 BYTE   VOL   95*song42_mvl/mxv
 BYTE   W01
 BYTE   VOL   95*song42_mvl/mxv
 BYTE   W02
 BYTE   VOL   94*song42_mvl/mxv
 BYTE   W01
 BYTE   VOL   93*song42_mvl/mxv
 BYTE   W02
 BYTE   VOL   92*song42_mvl/mxv
 BYTE   W01
 BYTE   VOL   91*song42_mvl/mxv
 BYTE   W02
 BYTE   VOL   90*song42_mvl/mxv
 BYTE   W01
 BYTE   VOL   90*song42_mvl/mxv
 BYTE   W02
 BYTE   VOL   89*song42_mvl/mxv
 BYTE   W01
 BYTE   VOL   88*song42_mvl/mxv
 BYTE   W02
 BYTE   VOL   87*song42_mvl/mxv
 BYTE   W01
 BYTE   VOL   86*song42_mvl/mxv
 BYTE   W02
 BYTE   VOL   85*song42_mvl/mxv
 BYTE   W01
 BYTE   VOL   85*song42_mvl/mxv
 BYTE   W02
 BYTE   VOL   84*song42_mvl/mxv
 BYTE   W01
 BYTE   VOL   83*song42_mvl/mxv
 BYTE   W02
 BYTE   VOL   82*song42_mvl/mxv
 BYTE   W01
 BYTE   VOL   81*song42_mvl/mxv
 BYTE   W01
 BYTE   VOL   81*song42_mvl/mxv
 BYTE   W02
 BYTE   VOL   80*song42_mvl/mxv
 BYTE   W01
 BYTE   VOL   79*song42_mvl/mxv
 BYTE   W01
 BYTE   VOL   77*song42_mvl/mxv
 BYTE   W01
 BYTE   VOL   73*song42_mvl/mxv
 BYTE   W01
 BYTE   VOL   71*song42_mvl/mxv
 BYTE   W01
 BYTE   VOL   67*song42_mvl/mxv
 BYTE   W01
 BYTE   VOL   63*song42_mvl/mxv
 BYTE   W01
 BYTE   VOL   61*song42_mvl/mxv
 BYTE   W01
 BYTE   VOL   57*song42_mvl/mxv
 BYTE   W01
 BYTE   VOL   53*song42_mvl/mxv
 BYTE   W01
 BYTE   VOL   51*song42_mvl/mxv
 BYTE   W01
 BYTE   VOL   47*song42_mvl/mxv
 BYTE   W01
 BYTE   VOL   43*song42_mvl/mxv
 BYTE   W01
 BYTE   VOL   41*song42_mvl/mxv
 BYTE   W01
 BYTE   VOL   38*song42_mvl/mxv
 BYTE   W01
 BYTE   VOL   33*song42_mvl/mxv
 BYTE   W01
 BYTE   VOL   31*song42_mvl/mxv
 BYTE   W01
 BYTE   VOL   27*song42_mvl/mxv
 BYTE   W01
 BYTE   VOL   23*song42_mvl/mxv
 BYTE   W01
 BYTE   VOL   21*song42_mvl/mxv
 BYTE   W01
 BYTE   VOL   17*song42_mvl/mxv
 BYTE   W01
 BYTE   VOL   14*song42_mvl/mxv
 BYTE   W01
 BYTE   VOL   11*song42_mvl/mxv
 BYTE   W01
 BYTE   VOL   7*song42_mvl/mxv
 BYTE   W01
 BYTE   VOL   4*song42_mvl/mxv
 BYTE   W01
 BYTE   VOL   0*song42_mvl/mxv
 BYTE   W01
 BYTE   VOL   105*song42_mvl/mxv
 BYTE   W01
 BYTE   N21  Dn3  v124
 BYTE   W11
 BYTE   VOL   105*song42_mvl/mxv
 BYTE   W01
 BYTE   VOL   95*song42_mvl/mxv
 BYTE   W01
 BYTE   VOL   85*song42_mvl/mxv
 BYTE   W01
 BYTE   VOL   77*song42_mvl/mxv
 BYTE   W01
 BYTE   VOL   67*song42_mvl/mxv
 BYTE   W01
 BYTE   VOL   57*song42_mvl/mxv
 BYTE   W01
 BYTE   VOL   50*song42_mvl/mxv
 BYTE   W01
 BYTE   VOL   40*song42_mvl/mxv
 BYTE   W01
 BYTE   VOL   30*song42_mvl/mxv
 BYTE   W01
 BYTE   VOL   23*song42_mvl/mxv
 BYTE   W01
 BYTE   VOL   13*song42_mvl/mxv
 BYTE   W01
 BYTE   VOL   2*song42_mvl/mxv
 BYTE   W01
 BYTE   VOL   105*song42_mvl/mxv
 BYTE   W01
//  #12 //034   ----------------------------------------
 BYTE   N68  En3  v116
 BYTE   W03
 BYTE   VOL   104*song42_mvl/mxv
 BYTE   W03
 BYTE   VOL   103*song42_mvl/mxv
 BYTE   W02
 BYTE   VOL   102*song42_mvl/mxv
 BYTE   W02
 BYTE   VOL   101*song42_mvl/mxv
 BYTE   W03
 BYTE   VOL   100*song42_mvl/mxv
 BYTE   W02
 BYTE   VOL   100*song42_mvl/mxv
 BYTE   W02
 BYTE   VOL   99*song42_mvl/mxv
 BYTE   W03
 BYTE   VOL   98*song42_mvl/mxv
 BYTE   W02
 BYTE   VOL   97*song42_mvl/mxv
 BYTE   W02
 BYTE   VOL   96*song42_mvl/mxv
 BYTE   W03
 BYTE   VOL   95*song42_mvl/mxv
 BYTE   W02
 BYTE   VOL   95*song42_mvl/mxv
 BYTE   W02
 BYTE   VOL   94*song42_mvl/mxv
 BYTE   W02
 BYTE   VOL   93*song42_mvl/mxv
 BYTE   W03
 BYTE   VOL   92*song42_mvl/mxv
 BYTE   W02
 BYTE   VOL   91*song42_mvl/mxv
 BYTE   W02
 BYTE   VOL   90*song42_mvl/mxv
 BYTE   W03
 BYTE   VOL   90*song42_mvl/mxv
 BYTE   W02
 BYTE   VOL   89*song42_mvl/mxv
 BYTE   W02
 BYTE   VOL   88*song42_mvl/mxv
 BYTE   W03
 BYTE   VOL   87*song42_mvl/mxv
 BYTE   W02
 BYTE   VOL   86*song42_mvl/mxv
 BYTE   W02
 BYTE   VOL   85*song42_mvl/mxv
 BYTE   W03
 BYTE   VOL   85*song42_mvl/mxv
 BYTE   W02
 BYTE   VOL   83*song42_mvl/mxv
 BYTE   W01
 BYTE   VOL   73*song42_mvl/mxv
 BYTE   W01
 BYTE   VOL   63*song42_mvl/mxv
 BYTE   W01
 BYTE   VOL   56*song42_mvl/mxv
 BYTE   W01
 BYTE   VOL   46*song42_mvl/mxv
 BYTE   W01
 BYTE   VOL   36*song42_mvl/mxv
 BYTE   W01
 BYTE   VOL   28*song42_mvl/mxv
 BYTE   W01
 BYTE   VOL   19*song42_mvl/mxv
 BYTE   W01
 BYTE   VOL   8*song42_mvl/mxv
 BYTE   W01
 BYTE   VOL   6*song42_mvl/mxv
 BYTE   W01
 BYTE   VOL   3*song42_mvl/mxv
 BYTE   W01
 BYTE   VOL   0*song42_mvl/mxv
 BYTE   W01
 BYTE   VOL   105*song42_mvl/mxv
 BYTE   W01
 BYTE   N22  Cs3  v127
 BYTE   W10
 BYTE   VOL   102*song42_mvl/mxv
 BYTE   W01
 BYTE   VOL   94*song42_mvl/mxv
 BYTE   W01
 BYTE   VOL   86*song42_mvl/mxv
 BYTE   W01
 BYTE   VOL   77*song42_mvl/mxv
 BYTE   W01
 BYTE   VOL   69*song42_mvl/mxv
 BYTE   W01
 BYTE   VOL   62*song42_mvl/mxv
 BYTE   W01
 BYTE   VOL   52*song42_mvl/mxv
 BYTE   W01
 BYTE   VOL   44*song42_mvl/mxv
 BYTE   W01
 BYTE   VOL   37*song42_mvl/mxv
 BYTE   W01
 BYTE   VOL   28*song42_mvl/mxv
 BYTE   W01
 BYTE   VOL   19*song42_mvl/mxv
 BYTE   W01
 BYTE   VOL   12*song42_mvl/mxv
 BYTE   W01
 BYTE   VOL   3*song42_mvl/mxv
 BYTE   W01
 BYTE   VOL   105*song42_mvl/mxv
 BYTE   W01
//  #12 //035   ----------------------------------------
 BYTE   N64  Dn3  v120
 BYTE   W05
 BYTE   VOL   104*song42_mvl/mxv
 BYTE   W03
 BYTE   VOL   103*song42_mvl/mxv
 BYTE   W03
 BYTE   VOL   102*song42_mvl/mxv
 BYTE   W02
 BYTE   VOL   101*song42_mvl/mxv
 BYTE   W03
 BYTE   VOL   100*song42_mvl/mxv
 BYTE   W03
 BYTE   VOL   100*song42_mvl/mxv
 BYTE   W03
 BYTE   VOL   99*song42_mvl/mxv
 BYTE   W03
 BYTE   VOL   98*song42_mvl/mxv
 BYTE   W03
 BYTE   VOL   97*song42_mvl/mxv
 BYTE   W03
 BYTE   VOL   96*song42_mvl/mxv
 BYTE   W03
 BYTE   VOL   95*song42_mvl/mxv
 BYTE   W03
 BYTE   VOL   95*song42_mvl/mxv
 BYTE   W03
 BYTE   VOL   94*song42_mvl/mxv
 BYTE   W02
 BYTE   VOL   93*song42_mvl/mxv
 BYTE   W03
 BYTE   VOL   92*song42_mvl/mxv
 BYTE   W03
 BYTE   VOL   91*song42_mvl/mxv
 BYTE   W03
 BYTE   VOL   90*song42_mvl/mxv
 BYTE   W03
 BYTE   VOL   90*song42_mvl/mxv
 BYTE   W03
 BYTE   VOL   86*song42_mvl/mxv
 BYTE   W01
 BYTE   VOL   81*song42_mvl/mxv
 BYTE   W01
 BYTE   VOL   74*song42_mvl/mxv
 BYTE   W01
 BYTE   VOL   67*song42_mvl/mxv
 BYTE   W01
 BYTE   VOL   62*song42_mvl/mxv
 BYTE   W01
 BYTE   VOL   55*song42_mvl/mxv
 BYTE   W01
 BYTE   VOL   48*song42_mvl/mxv
 BYTE   W01
 BYTE   VOL   43*song42_mvl/mxv
 BYTE   W01
 BYTE   VOL   36*song42_mvl/mxv
 BYTE   W01
 BYTE   VOL   29*song42_mvl/mxv
 BYTE   W01
 BYTE   VOL   24*song42_mvl/mxv
 BYTE   W01
 BYTE   VOL   17*song42_mvl/mxv
 BYTE   W01
 BYTE   VOL   10*song42_mvl/mxv
 BYTE   W01
 BYTE   VOL   5*song42_mvl/mxv
 BYTE   W01
 BYTE   VOL   86*song42_mvl/mxv
 BYTE   W01
 BYTE   VOL   105*song42_mvl/mxv
 BYTE   N20  Bn2  v127
 BYTE   W11
 BYTE   VOL   102*song42_mvl/mxv
 BYTE   W01
 BYTE   VOL   95*song42_mvl/mxv
 BYTE   W01
 BYTE   VOL   85*song42_mvl/mxv
 BYTE   W01
 BYTE   VOL   76*song42_mvl/mxv
 BYTE   W01
 BYTE   VOL   69*song42_mvl/mxv
 BYTE   W01
 BYTE   VOL   59*song42_mvl/mxv
 BYTE   W01
 BYTE   VOL   49*song42_mvl/mxv
 BYTE   W01
 BYTE   VOL   42*song42_mvl/mxv
 BYTE   W01
 BYTE   VOL   33*song42_mvl/mxv
 BYTE   W01
 BYTE   VOL   23*song42_mvl/mxv
 BYTE   W01
 BYTE   VOL   16*song42_mvl/mxv
 BYTE   W01
 BYTE   VOL   6*song42_mvl/mxv
 BYTE   W01
 BYTE   VOL   105*song42_mvl/mxv
 BYTE   W01
//  #12 //036   ----------------------------------------
 BYTE   N68  En3  v108
 BYTE   W03
 BYTE   VOL   104*song42_mvl/mxv
 BYTE   W02
 BYTE   VOL   103*song42_mvl/mxv
 BYTE   W02
 BYTE   VOL   102*song42_mvl/mxv
 BYTE   W03
 BYTE   VOL   101*song42_mvl/mxv
 BYTE   W02
 BYTE   VOL   100*song42_mvl/mxv
 BYTE   W02
 BYTE   VOL   100*song42_mvl/mxv
 BYTE   W02
 BYTE   VOL   99*song42_mvl/mxv
 BYTE   W02
 BYTE   VOL   98*song42_mvl/mxv
 BYTE   W02
 BYTE   VOL   97*song42_mvl/mxv
 BYTE   W02
 BYTE   VOL   96*song42_mvl/mxv
 BYTE   W02
 BYTE   VOL   95*song42_mvl/mxv
 BYTE   W03
 BYTE   VOL   95*song42_mvl/mxv
 BYTE   W02
 BYTE   VOL   94*song42_mvl/mxv
 BYTE   W02
 BYTE   VOL   93*song42_mvl/mxv
 BYTE   W02
 BYTE   VOL   92*song42_mvl/mxv
 BYTE   W02
 BYTE   VOL   91*song42_mvl/mxv
 BYTE   W02
 BYTE   VOL   90*song42_mvl/mxv
 BYTE   W02
 BYTE   VOL   90*song42_mvl/mxv
 BYTE   W02
 BYTE   VOL   89*song42_mvl/mxv
 BYTE   W03
 BYTE   VOL   88*song42_mvl/mxv
 BYTE   W02
 BYTE   VOL   87*song42_mvl/mxv
 BYTE   W02
 BYTE   VOL   86*song42_mvl/mxv
 BYTE   W02
 BYTE   VOL   85*song42_mvl/mxv
 BYTE   W02
 BYTE   VOL   85*song42_mvl/mxv
 BYTE   W02
 BYTE   VOL   84*song42_mvl/mxv
 BYTE   W02
 BYTE   VOL   83*song42_mvl/mxv
 BYTE   W02
 BYTE   VOL   82*song42_mvl/mxv
 BYTE   W01
 BYTE   VOL   78*song42_mvl/mxv
 BYTE   W01
 BYTE   VOL   71*song42_mvl/mxv
 BYTE   W01
 BYTE   VOL   62*song42_mvl/mxv
 BYTE   W01
 BYTE   VOL   52*song42_mvl/mxv
 BYTE   W01
 BYTE   VOL   45*song42_mvl/mxv
 BYTE   W01
 BYTE   VOL   35*song42_mvl/mxv
 BYTE   W01
 BYTE   VOL   25*song42_mvl/mxv
 BYTE   W01
 BYTE   VOL   19*song42_mvl/mxv
 BYTE   W01
 BYTE   VOL   13*song42_mvl/mxv
 BYTE   W01
 BYTE   VOL   8*song42_mvl/mxv
 BYTE   W01
 BYTE   VOL   0*song42_mvl/mxv
 BYTE   W02
 BYTE   VOL   105*song42_mvl/mxv
 BYTE   W01
 BYTE   N22  Cs3  v127
 BYTE   W11
 BYTE   VOL   102*song42_mvl/mxv
 BYTE   W01
 BYTE   VOL   93*song42_mvl/mxv
 BYTE   W01
 BYTE   VOL   87*song42_mvl/mxv
 BYTE   W01
 BYTE   VOL   78*song42_mvl/mxv
 BYTE   W01
 BYTE   VOL   69*song42_mvl/mxv
 BYTE   W01
 BYTE   VOL   63*song42_mvl/mxv
 BYTE   W01
 BYTE   VOL   55*song42_mvl/mxv
 BYTE   W01
 BYTE   VOL   46*song42_mvl/mxv
 BYTE   W01
 BYTE   VOL   40*song42_mvl/mxv
 BYTE   W01
 BYTE   VOL   28*song42_mvl/mxv
 BYTE   W01
 BYTE   VOL   14*song42_mvl/mxv
 BYTE   W01
 BYTE   VOL   4*song42_mvl/mxv
 BYTE   W01
 BYTE   VOL   105*song42_mvl/mxv
 BYTE   W01
//  #12 //037   ----------------------------------------
 BYTE   N68  Fs3  v100
 BYTE   W07
 BYTE   VOL   104*song42_mvl/mxv
 BYTE   W04
 BYTE   VOL   103*song42_mvl/mxv
 BYTE   W04
 BYTE   VOL   102*song42_mvl/mxv
 BYTE   W05
 BYTE   VOL   101*song42_mvl/mxv
 BYTE   W04
 BYTE   VOL   100*song42_mvl/mxv
 BYTE   W04
 BYTE   VOL   100*song42_mvl/mxv
 BYTE   W04
 BYTE   VOL   99*song42_mvl/mxv
 BYTE   W04
 BYTE   VOL   98*song42_mvl/mxv
 BYTE   W04
 BYTE   VOL   97*song42_mvl/mxv
 BYTE   W04
 BYTE   VOL   96*song42_mvl/mxv
 BYTE   W04
 BYTE   VOL   95*song42_mvl/mxv
 BYTE   W04
 BYTE   VOL   95*song42_mvl/mxv
 BYTE   W04
 BYTE   VOL   93*song42_mvl/mxv
 BYTE   W01
 BYTE   VOL   85*song42_mvl/mxv
 BYTE   W01
 BYTE   VOL   78*song42_mvl/mxv
 BYTE   W01
 BYTE   VOL   73*song42_mvl/mxv
 BYTE   W01
 BYTE   VOL   65*song42_mvl/mxv
 BYTE   W01
 BYTE   VOL   57*song42_mvl/mxv
 BYTE   W01
 BYTE   VOL   52*song42_mvl/mxv
 BYTE   W01
 BYTE   VOL   45*song42_mvl/mxv
 BYTE   W01
 BYTE   VOL   37*song42_mvl/mxv
 BYTE   W01
 BYTE   VOL   32*song42_mvl/mxv
 BYTE   W01
 BYTE   VOL   24*song42_mvl/mxv
 BYTE   W01
 BYTE   VOL   17*song42_mvl/mxv
 BYTE   W01
 BYTE   VOL   12*song42_mvl/mxv
 BYTE   W01
 BYTE   VOL   4*song42_mvl/mxv
 BYTE   W01
 BYTE   VOL   48*song42_mvl/mxv
 BYTE   W01
 BYTE   VOL   105*song42_mvl/mxv
 BYTE   W01
 BYTE   N21  Dn3  v127
 BYTE   W11
 BYTE   VOL   101*song42_mvl/mxv
 BYTE   W01
 BYTE   VOL   95*song42_mvl/mxv
 BYTE   W01
 BYTE   VOL   84*song42_mvl/mxv
 BYTE   W01
 BYTE   VOL   73*song42_mvl/mxv
 BYTE   W01
 BYTE   VOL   66*song42_mvl/mxv
 BYTE   W01
 BYTE   VOL   55*song42_mvl/mxv
 BYTE   W01
 BYTE   VOL   45*song42_mvl/mxv
 BYTE   W01
 BYTE   VOL   38*song42_mvl/mxv
 BYTE   W01
 BYTE   VOL   27*song42_mvl/mxv
 BYTE   W01
 BYTE   VOL   16*song42_mvl/mxv
 BYTE   W01
 BYTE   VOL   9*song42_mvl/mxv
 BYTE   W01
 BYTE   VOL   0*song42_mvl/mxv
 BYTE   W01
 BYTE   VOL   105*song42_mvl/mxv
 BYTE   W01
//  #12 //038   ----------------------------------------
 BYTE   N66  En3  v104
 BYTE   W04
 BYTE   VOL   104*song42_mvl/mxv
 BYTE   W02
 BYTE   VOL   103*song42_mvl/mxv
 BYTE   W02
 BYTE   VOL   102*song42_mvl/mxv
 BYTE   W02
 BYTE   VOL   101*song42_mvl/mxv
 BYTE   W03
 BYTE   VOL   100*song42_mvl/mxv
 BYTE   W02
 BYTE   VOL   100*song42_mvl/mxv
 BYTE   W02
 BYTE   VOL   99*song42_mvl/mxv
 BYTE   W03
 BYTE   VOL   98*song42_mvl/mxv
 BYTE   W02
 BYTE   VOL   97*song42_mvl/mxv
 BYTE   W02
 BYTE   VOL   96*song42_mvl/mxv
 BYTE   W02
 BYTE   VOL   95*song42_mvl/mxv
 BYTE   W03
 BYTE   VOL   95*song42_mvl/mxv
 BYTE   W02
 BYTE   VOL   94*song42_mvl/mxv
 BYTE   W02
 BYTE   VOL   93*song42_mvl/mxv
 BYTE   W02
 BYTE   VOL   92*song42_mvl/mxv
 BYTE   W03
 BYTE   VOL   91*song42_mvl/mxv
 BYTE   W02
 BYTE   VOL   90*song42_mvl/mxv
 BYTE   W01
 BYTE   VOL   86*song42_mvl/mxv
 BYTE   W01
 BYTE   VOL   85*song42_mvl/mxv
 BYTE   W01
 BYTE   VOL   81*song42_mvl/mxv
 BYTE   W01
 BYTE   VOL   77*song42_mvl/mxv
 BYTE   W01
 BYTE   VOL   76*song42_mvl/mxv
 BYTE   W01
 BYTE   VOL   71*song42_mvl/mxv
 BYTE   W01
 BYTE   VOL   68*song42_mvl/mxv
 BYTE   W01
 BYTE   VOL   66*song42_mvl/mxv
 BYTE   W01
 BYTE   VOL   62*song42_mvl/mxv
 BYTE   W01
 BYTE   VOL   59*song42_mvl/mxv
 BYTE   W01
 BYTE   VOL   57*song42_mvl/mxv
 BYTE   W01
 BYTE   VOL   53*song42_mvl/mxv
 BYTE   W01
 BYTE   VOL   50*song42_mvl/mxv
 BYTE   W01
 BYTE   VOL   47*song42_mvl/mxv
 BYTE   W01
 BYTE   VOL   44*song42_mvl/mxv
 BYTE   W01
 BYTE   VOL   41*song42_mvl/mxv
 BYTE   W01
 BYTE   VOL   38*song42_mvl/mxv
 BYTE   W01
 BYTE   VOL   35*song42_mvl/mxv
 BYTE   W01
 BYTE   VOL   32*song42_mvl/mxv
 BYTE   W01
 BYTE   VOL   28*song42_mvl/mxv
 BYTE   W01
 BYTE   VOL   26*song42_mvl/mxv
 BYTE   W01
 BYTE   VOL   22*song42_mvl/mxv
 BYTE   W01
 BYTE   VOL   18*song42_mvl/mxv
 BYTE   W01
 BYTE   VOL   15*song42_mvl/mxv
 BYTE   W01
 BYTE   VOL   12*song42_mvl/mxv
 BYTE   W01
 BYTE   VOL   8*song42_mvl/mxv
 BYTE   W01
 BYTE   VOL   5*song42_mvl/mxv
 BYTE   W01
 BYTE   VOL   1*song42_mvl/mxv
 BYTE   W01
 BYTE   VOL   29*song42_mvl/mxv
 BYTE   W01
 BYTE   VOL   60*song42_mvl/mxv
 BYTE   W01
 BYTE   VOL   105*song42_mvl/mxv
 BYTE   W01
 BYTE   N22  Bn3  v100
 BYTE   W11
 BYTE   VOL   105*song42_mvl/mxv
 BYTE   W01
 BYTE   VOL   95*song42_mvl/mxv
 BYTE   W01
 BYTE   VOL   85*song42_mvl/mxv
 BYTE   W01
 BYTE   VOL   78*song42_mvl/mxv
 BYTE   W01
 BYTE   VOL   68*song42_mvl/mxv
 BYTE   W01
 BYTE   VOL   58*song42_mvl/mxv
 BYTE   W01
 BYTE   VOL   52*song42_mvl/mxv
 BYTE   W01
 BYTE   VOL   42*song42_mvl/mxv
 BYTE   W01
 BYTE   VOL   32*song42_mvl/mxv
 BYTE   W01
 BYTE   VOL   24*song42_mvl/mxv
 BYTE   W01
 BYTE   VOL   14*song42_mvl/mxv
 BYTE   W01
 BYTE   VOL   4*song42_mvl/mxv
 BYTE   W01
 BYTE   VOL   105*song42_mvl/mxv
 BYTE   W01
//  #12 //039   ----------------------------------------
 BYTE   N64  Dn4  v096
 BYTE   W04
 BYTE   VOL   104*song42_mvl/mxv
 BYTE   W03
 BYTE   VOL   103*song42_mvl/mxv
 BYTE   W03
 BYTE   VOL   102*song42_mvl/mxv
 BYTE   W02
 BYTE   VOL   101*song42_mvl/mxv
 BYTE   W03
 BYTE   VOL   100*song42_mvl/mxv
 BYTE   W03
 BYTE   VOL   100*song42_mvl/mxv
 BYTE   W02
 BYTE   VOL   99*song42_mvl/mxv
 BYTE   W03
 BYTE   VOL   98*song42_mvl/mxv
 BYTE   W03
 BYTE   VOL   97*song42_mvl/mxv
 BYTE   W02
 BYTE   VOL   96*song42_mvl/mxv
 BYTE   W03
 BYTE   VOL   95*song42_mvl/mxv
 BYTE   W03
 BYTE   VOL   95*song42_mvl/mxv
 BYTE   W02
 BYTE   VOL   94*song42_mvl/mxv
 BYTE   W03
 BYTE   VOL   93*song42_mvl/mxv
 BYTE   W02
 BYTE   VOL   92*song42_mvl/mxv
 BYTE   W03
 BYTE   VOL   91*song42_mvl/mxv
 BYTE   W01
 BYTE   VOL   88*song42_mvl/mxv
 BYTE   W01
 BYTE   VOL   83*song42_mvl/mxv
 BYTE   W01
 BYTE   VOL   79*song42_mvl/mxv
 BYTE   W01
 BYTE   VOL   76*song42_mvl/mxv
 BYTE   W01
 BYTE   VOL   71*song42_mvl/mxv
 BYTE   W01
 BYTE   VOL   66*song42_mvl/mxv
 BYTE   W01
 BYTE   VOL   63*song42_mvl/mxv
 BYTE   W01
 BYTE   VOL   58*song42_mvl/mxv
 BYTE   W01
 BYTE   VOL   54*song42_mvl/mxv
 BYTE   W01
 BYTE   VOL   51*song42_mvl/mxv
 BYTE   W01
 BYTE   VOL   46*song42_mvl/mxv
 BYTE   W01
 BYTE   VOL   42*song42_mvl/mxv
 BYTE   W01
 BYTE   VOL   38*song42_mvl/mxv
 BYTE   W01
 BYTE   VOL   33*song42_mvl/mxv
 BYTE   W01
 BYTE   VOL   29*song42_mvl/mxv
 BYTE   W01
 BYTE   VOL   25*song42_mvl/mxv
 BYTE   W01
 BYTE   VOL   21*song42_mvl/mxv
 BYTE   W01
 BYTE   VOL   17*song42_mvl/mxv
 BYTE   W01
 BYTE   VOL   13*song42_mvl/mxv
 BYTE   W01
 BYTE   VOL   9*song42_mvl/mxv
 BYTE   W01
 BYTE   VOL   4*song42_mvl/mxv
 BYTE   W01
 BYTE   VOL   0*song42_mvl/mxv
 BYTE   W01
 BYTE   VOL   17*song42_mvl/mxv
 BYTE   W01
 BYTE   VOL   44*song42_mvl/mxv
 BYTE   W01
 BYTE   VOL   71*song42_mvl/mxv
 BYTE   W01
 BYTE   VOL   90*song42_mvl/mxv
 BYTE   W01
 BYTE   VOL   105*song42_mvl/mxv
 BYTE   W01
 BYTE   N20  Bn3  v088
 BYTE   W11
 BYTE   VOL   101*song42_mvl/mxv
 BYTE   W01
 BYTE   VOL   94*song42_mvl/mxv
 BYTE   W01
 BYTE   VOL   83*song42_mvl/mxv
 BYTE   W01
 BYTE   VOL   71*song42_mvl/mxv
 BYTE   W01
 BYTE   VOL   64*song42_mvl/mxv
 BYTE   W01
 BYTE   VOL   53*song42_mvl/mxv
 BYTE   W01
 BYTE   VOL   42*song42_mvl/mxv
 BYTE   W01
 BYTE   VOL   35*song42_mvl/mxv
 BYTE   W01
 BYTE   VOL   23*song42_mvl/mxv
 BYTE   W01
 BYTE   VOL   13*song42_mvl/mxv
 BYTE   W01
 BYTE   VOL   5*song42_mvl/mxv
 BYTE   W01
 BYTE   VOL   74*song42_mvl/mxv
 BYTE   W01
 BYTE   VOL   105*song42_mvl/mxv
 BYTE   W01
//  #12 //040   ----------------------------------------
 BYTE   TIE  En4  v084
 BYTE   W03
 BYTE   VOL   104*song42_mvl/mxv
 BYTE   W02
 BYTE   VOL   103*song42_mvl/mxv
 BYTE   W03
 BYTE   VOL   102*song42_mvl/mxv
 BYTE   W02
 BYTE   VOL   101*song42_mvl/mxv
 BYTE   W02
 BYTE   VOL   100*song42_mvl/mxv
 BYTE   W02
 BYTE   VOL   100*song42_mvl/mxv
 BYTE   W02
 BYTE   VOL   99*song42_mvl/mxv
 BYTE   W03
 BYTE   VOL   98*song42_mvl/mxv
 BYTE   W02
 BYTE   VOL   97*song42_mvl/mxv
 BYTE   W02
 BYTE   VOL   96*song42_mvl/mxv
 BYTE   W02
 BYTE   VOL   95*song42_mvl/mxv
 BYTE   W02
 BYTE   VOL   95*song42_mvl/mxv
 BYTE   W03
 BYTE   VOL   94*song42_mvl/mxv
 BYTE   W02
 BYTE   VOL   93*song42_mvl/mxv
 BYTE   W02
 BYTE   VOL   92*song42_mvl/mxv
 BYTE   W02
 BYTE   VOL   91*song42_mvl/mxv
 BYTE   W02
 BYTE   VOL   90*song42_mvl/mxv
 BYTE   W03
 BYTE   VOL   90*song42_mvl/mxv
 BYTE   W02
 BYTE   VOL   89*song42_mvl/mxv
 BYTE   W02
 BYTE   VOL   88*song42_mvl/mxv
 BYTE   W02
 BYTE   VOL   87*song42_mvl/mxv
 BYTE   W02
 BYTE   VOL   86*song42_mvl/mxv
 BYTE   W03
 BYTE   VOL   85*song42_mvl/mxv
 BYTE   W02
 BYTE   VOL   85*song42_mvl/mxv
 BYTE   W02
 BYTE   VOL   84*song42_mvl/mxv
 BYTE   W02
 BYTE   VOL   83*song42_mvl/mxv
 BYTE   W02
 BYTE   VOL   82*song42_mvl/mxv
 BYTE   W03
 BYTE   VOL   81*song42_mvl/mxv
 BYTE   W02
 BYTE   VOL   81*song42_mvl/mxv
 BYTE   W02
 BYTE   VOL   80*song42_mvl/mxv
 BYTE   W02
 BYTE   VOL   79*song42_mvl/mxv
 BYTE   W02
 BYTE   VOL   78*song42_mvl/mxv
 BYTE   W03
 BYTE   VOL   77*song42_mvl/mxv
 BYTE   W02
 BYTE   VOL   76*song42_mvl/mxv
 BYTE   W02
 BYTE   VOL   76*song42_mvl/mxv
 BYTE   W02
 BYTE   VOL   75*song42_mvl/mxv
 BYTE   W02
 BYTE   VOL   74*song42_mvl/mxv
 BYTE   W03
 BYTE   VOL   73*song42_mvl/mxv
 BYTE   W02
 BYTE   VOL   72*song42_mvl/mxv
 BYTE   W02
 BYTE   VOL   71*song42_mvl/mxv
 BYTE   W02
 BYTE   VOL   71*song42_mvl/mxv
 BYTE   W02
 BYTE   VOL   70*song42_mvl/mxv
 BYTE   W03
//  #12 //041   ----------------------------------------
 BYTE   VOL   69*song42_mvl/mxv
 BYTE   W02
 BYTE   VOL   68*song42_mvl/mxv
 BYTE   W01
 BYTE   VOL   67*song42_mvl/mxv
 BYTE   W03
 BYTE   VOL   66*song42_mvl/mxv
 BYTE   W02
 BYTE   VOL   66*song42_mvl/mxv
 BYTE   W02
 BYTE   VOL   65*song42_mvl/mxv
 BYTE   W02
 BYTE   VOL   64*song42_mvl/mxv
 BYTE   W02
 BYTE   VOL   63*song42_mvl/mxv
 BYTE   W01
 BYTE   VOL   62*song42_mvl/mxv
 BYTE   W02
 BYTE   VOL   62*song42_mvl/mxv
 BYTE   W02
 BYTE   VOL   61*song42_mvl/mxv
 BYTE   W02
 BYTE   VOL   60*song42_mvl/mxv
 BYTE   W02
 BYTE   VOL   59*song42_mvl/mxv
 BYTE   W02
 BYTE   VOL   58*song42_mvl/mxv
 BYTE   W01
 BYTE   VOL   57*song42_mvl/mxv
 BYTE   W02
 BYTE   VOL   57*song42_mvl/mxv
 BYTE   W02
 BYTE   VOL   56*song42_mvl/mxv
 BYTE   W02
 BYTE   VOL   55*song42_mvl/mxv
 BYTE   W02
 BYTE   VOL   54*song42_mvl/mxv
 BYTE   W02
 BYTE   VOL   53*song42_mvl/mxv
 BYTE   W01
 BYTE   VOL   52*song42_mvl/mxv
 BYTE   W02
 BYTE   VOL   52*song42_mvl/mxv
 BYTE   W02
 BYTE   VOL   51*song42_mvl/mxv
 BYTE   W02
 BYTE   VOL   50*song42_mvl/mxv
 BYTE   W02
 BYTE   VOL   49*song42_mvl/mxv
 BYTE   W02
 BYTE   VOL   48*song42_mvl/mxv
 BYTE   W01
 BYTE   VOL   47*song42_mvl/mxv
 BYTE   W02
 BYTE   VOL   47*song42_mvl/mxv
 BYTE   W02
 BYTE   VOL   46*song42_mvl/mxv
 BYTE   W02
 BYTE   VOL   45*song42_mvl/mxv
 BYTE   W02
 BYTE   VOL   44*song42_mvl/mxv
 BYTE   W01
 BYTE   VOL   43*song42_mvl/mxv
 BYTE   W02
 BYTE   VOL   42*song42_mvl/mxv
 BYTE   W02
 BYTE   VOL   42*song42_mvl/mxv
 BYTE   W02
 BYTE   VOL   41*song42_mvl/mxv
 BYTE   W02
 BYTE   VOL   40*song42_mvl/mxv
 BYTE   W02
 BYTE   VOL   39*song42_mvl/mxv
 BYTE   W01
 BYTE   VOL   38*song42_mvl/mxv
 BYTE   W02
 BYTE   VOL   38*song42_mvl/mxv
 BYTE   W02
 BYTE   VOL   37*song42_mvl/mxv
 BYTE   W02
 BYTE   VOL   36*song42_mvl/mxv
 BYTE   W02
 BYTE   VOL   34*song42_mvl/mxv
 BYTE   W01
 BYTE   VOL   33*song42_mvl/mxv
 BYTE   W01
 BYTE   VOL   31*song42_mvl/mxv
 BYTE   W01
 BYTE   VOL   29*song42_mvl/mxv
 BYTE   W01
 BYTE   VOL   28*song42_mvl/mxv
 BYTE   W01
 BYTE   VOL   26*song42_mvl/mxv
 BYTE   W01
 BYTE   VOL   24*song42_mvl/mxv
 BYTE   W01
 BYTE   VOL   23*song42_mvl/mxv
 BYTE   W01
 BYTE   VOL   20*song42_mvl/mxv
 BYTE   W01
 BYTE   VOL   19*song42_mvl/mxv
 BYTE   W01
 BYTE   VOL   17*song42_mvl/mxv
 BYTE   W01
 BYTE   VOL   15*song42_mvl/mxv
 BYTE   W01
 BYTE   VOL   14*song42_mvl/mxv
 BYTE   W01
 BYTE   VOL   12*song42_mvl/mxv
 BYTE   W01
 BYTE   VOL   10*song42_mvl/mxv
 BYTE   W01
 BYTE   VOL   9*song42_mvl/mxv
 BYTE   W01
 BYTE   VOL   7*song42_mvl/mxv
 BYTE   W01
 BYTE   VOL   4*song42_mvl/mxv
 BYTE   W01
 BYTE   VOL   3*song42_mvl/mxv
 BYTE   W01
 BYTE   EOT
 BYTE   VOL   1*song42_mvl/mxv
 BYTE   W01
//  #12 //042   ----------------------------------------
 BYTE   VOL   0*song42_mvl/mxv
 BYTE   W96
//  #12 //043   ----------------------------------------
 BYTE   W96
//  #12 //044   ----------------------------------------
 BYTE   W96
//  #12 //045   ----------------------------------------
 BYTE   W96
//  #12 //046   ----------------------------------------
 BYTE   W96
//  #12 //047   ----------------------------------------
 BYTE   W96
//  #12 //048   ----------------------------------------
 BYTE   W96
//  #12 //049   ----------------------------------------
 BYTE   W96
//  #12 //050   ----------------------------------------
 BYTE   GoTo
  POIN2 Label_01ADAFA6
 BYTE   FINE

//******************************************************//
	ALIGN 4

song42:
	BYTE	12	// NumTrks
	BYTE	0	// NumBlks
	BYTE	song42_pri	// Priority
	BYTE	song42_rev	// Reverb.
    
	POIN2	song42_grp
    
	POIN2	song42_001
	POIN2	song42_002
	POIN2	song42_003
	POIN2	song42_004
	POIN2	song42_005
	POIN2	song42_006
	POIN2	song42_007
	POIN2	song42_008
	POIN2	song42_009
	POIN2	song42_010
	POIN2	song42_011
	POIN2	song42_012

	
