//Event file generated from Sappy .s format.
	#include "MPlayDef.event"

	#define	Resident_Evil_2___Main_Hall_cued_grp  voicegroup000
	#define	Resident_Evil_2___Main_Hall_cued_pri  0
	#define	Resident_Evil_2___Main_Hall_cued_rev  0
	#define	Resident_Evil_2___Main_Hall_cued_key  0

	// .rodata
	//	Resident_Evil_2___Main_Hall_cued
	ALIGN 4

//****************** Track 0 (Midi-Chn.0) ******************//

Resident_Evil_2___Main_Hall_cued_0:
        BYTE   KEYSH   Resident_Evil_2___Main_Hall_cued_key+0
// 000   ----------------------------------------
        BYTE   TEMPO   190/2
        BYTE           VOL     100
        BYTE   W72
        BYTE           VOICE   1
        BYTE   W08
Resident_Evil_2___Main_Hall_cued_0_LOOP:
        BYTE   W16
// 001   ----------------------------------------
        BYTE           BENDR   35
        BYTE   W24
        BYTE                   50
        BYTE   W72
// 002   ----------------------------------------
        BYTE                   2
        BYTE   GoTo
         POIN2  Resident_Evil_2___Main_Hall_cued_0_LOOP
        BYTE   W96
// 003   ----------------------------------------
        BYTE   W96
// 004   ----------------------------------------
        BYTE   W96
// 005   ----------------------------------------
        BYTE   W96
// 006   ----------------------------------------
Resident_Evil_2___Main_Hall_cued_0_6:
        BYTE           N96     Cn0   v120
        BYTE           N96     Cn1
        BYTE   W96
        BYTE   PEND
// 007   ----------------------------------------
        BYTE   W96
// 008   ----------------------------------------
        BYTE   W96
// 009   ----------------------------------------
        BYTE   W96
// 010   ----------------------------------------
        BYTE   W96
// 011   ----------------------------------------
        BYTE   W96
// 012   ----------------------------------------
        BYTE   W96
// 013   ----------------------------------------
        BYTE   W96
// 014   ----------------------------------------
        BYTE   W96
// 015   ----------------------------------------
        BYTE   W96
// 016   ----------------------------------------
        BYTE   W96
// 017   ----------------------------------------
        BYTE   W96
// 018   ----------------------------------------
        BYTE   W96
// 019   ----------------------------------------
        BYTE   W96
// 020   ----------------------------------------
        BYTE   W96
// 021   ----------------------------------------
        BYTE   W96
// 022   ----------------------------------------
        BYTE   PATT
         POIN2  Resident_Evil_2___Main_Hall_cued_0_6
// 023   ----------------------------------------
        BYTE   W96
// 024   ----------------------------------------
        BYTE   W96
// 025   ----------------------------------------
        BYTE   W96
// 026   ----------------------------------------
        BYTE   W96
// 027   ----------------------------------------
        BYTE   W96
// 028   ----------------------------------------
        BYTE   W96
// 029   ----------------------------------------
        BYTE   W96
// 030   ----------------------------------------
        BYTE   W96
// 031   ----------------------------------------
        BYTE   W96
// 032   ----------------------------------------
        BYTE   W96
// 033   ----------------------------------------
        BYTE   W96
// 034   ----------------------------------------
        BYTE   W96
// 035   ----------------------------------------
        BYTE   W96
// 036   ----------------------------------------
        BYTE   W96
// 037   ----------------------------------------
        BYTE   W96
// 038   ----------------------------------------
        BYTE   W04
        BYTE   FINE

//****************** Track 1 (Midi-Chn.1) ******************//

Resident_Evil_2___Main_Hall_cued_1:
        BYTE   KEYSH   Resident_Evil_2___Main_Hall_cued_key+0
// 000   ----------------------------------------
        BYTE           VOL     100
        BYTE   W48
        BYTE           VOICE   0
        BYTE   W32
Resident_Evil_2___Main_Hall_cued_1_LOOP:
        BYTE   W16
// 001   ----------------------------------------
        BYTE           BENDR   60
        BYTE   W10
        BYTE                   50
        BYTE   W14
        BYTE           VOL     120
        BYTE   W24
        BYTE           BENDR   65
        BYTE   W48
// 002   ----------------------------------------
        BYTE           VOL     100
        BYTE           BENDR   2
        BYTE   GoTo
         POIN2  Resident_Evil_2___Main_Hall_cued_1_LOOP
        BYTE   W96
// 003   ----------------------------------------
        BYTE   W96
// 004   ----------------------------------------
Resident_Evil_2___Main_Hall_cued_1_4:
        BYTE           N12     Cn4   v100
        BYTE   W12
        BYTE                   Dn4
        BYTE   W12
        BYTE           N36     Ds4
        BYTE   W12
        BYTE           N12     Cn4   v060
        BYTE   W12
        BYTE                   Dn4   v055
        BYTE   W12
        BYTE                   Ds4   v050
        BYTE   W12
        BYTE                   Cn4   v045
        BYTE   W12
        BYTE                   Dn4   v040
        BYTE   W12
        BYTE   PEND
// 005   ----------------------------------------
        BYTE                   Ds4   v035
        BYTE   W96
// 006   ----------------------------------------
        BYTE   W96
// 007   ----------------------------------------
        BYTE   W96
// 008   ----------------------------------------
        BYTE   PATT
         POIN2  Resident_Evil_2___Main_Hall_cued_1_4
// 009   ----------------------------------------
        BYTE           N12     Ds4   v035
        BYTE   W96
// 010   ----------------------------------------
        BYTE   W96
// 011   ----------------------------------------
Resident_Evil_2___Main_Hall_cued_1_11:
        BYTE           N08     Gn3   v105
        BYTE   W08
        BYTE           N06     Cn3   v090
        BYTE   W06
        BYTE                   Gn3   v127
        BYTE   W06
        BYTE                   Cn3   v090
        BYTE   W06
        BYTE                   Fn3   v105
        BYTE   W06
        BYTE                   Cn3   v075
        BYTE   W05
        BYTE                   Ds3   v080
        BYTE   W06
        BYTE                   Dn3   v070
        BYTE   W06
        BYTE                   Ds3   v080
        BYTE   W06
        BYTE                   Dn3   v070
        BYTE   W06
        BYTE                   Ds3   v080
        BYTE   W06
        BYTE                   Cn3   v070
        BYTE   W06
        BYTE                   Dn3   v090
        BYTE   W06
        BYTE                   Gn2   v065
        BYTE   W05
        BYTE                   Cn3   v080
        BYTE   W06
        BYTE                   Gn2   v060
        BYTE   W06
        BYTE   PEND
// 012   ----------------------------------------
        BYTE   PATT
         POIN2  Resident_Evil_2___Main_Hall_cued_1_4
// 013   ----------------------------------------
        BYTE           N12     Ds4   v035
        BYTE   W96
// 014   ----------------------------------------
        BYTE   W96
// 015   ----------------------------------------
        BYTE   W96
// 016   ----------------------------------------
        BYTE   W96
// 017   ----------------------------------------
        BYTE   W96
// 018   ----------------------------------------
        BYTE   W96
// 019   ----------------------------------------
        BYTE   W96
// 020   ----------------------------------------
        BYTE   PATT
         POIN2  Resident_Evil_2___Main_Hall_cued_1_4
// 021   ----------------------------------------
        BYTE           N12     Ds4   v035
        BYTE   W96
// 022   ----------------------------------------
        BYTE   W96
// 023   ----------------------------------------
        BYTE   W96
// 024   ----------------------------------------
        BYTE   PATT
         POIN2  Resident_Evil_2___Main_Hall_cued_1_4
// 025   ----------------------------------------
        BYTE           N12     Ds4   v035
        BYTE   W96
// 026   ----------------------------------------
        BYTE   W96
// 027   ----------------------------------------
        BYTE   PATT
         POIN2  Resident_Evil_2___Main_Hall_cued_1_11
// 028   ----------------------------------------
        BYTE   PATT
         POIN2  Resident_Evil_2___Main_Hall_cued_1_4
// 029   ----------------------------------------
        BYTE           N12     Ds4   v035
        BYTE   W96
// 030   ----------------------------------------
        BYTE   W96
// 031   ----------------------------------------
        BYTE   W96
// 032   ----------------------------------------
        BYTE   W96
// 033   ----------------------------------------
        BYTE   W96
// 034   ----------------------------------------
        BYTE   W96
// 035   ----------------------------------------
        BYTE   W90
        BYTE           VOL     62
        BYTE   W04
        BYTE                   61
        BYTE   W02
// 036   ----------------------------------------
        BYTE                   60
        BYTE           N12     Cn4   v100
        BYTE   W06
        BYTE           VOL     59
        BYTE   W04
        BYTE                   58
        BYTE   W02
        BYTE                   57
        BYTE           N12     Dn4
        BYTE   W04
        BYTE           VOL     56
        BYTE   W02
        BYTE                   55
        BYTE   W04
        BYTE                   54
        BYTE   W02
        BYTE                   53
        BYTE           N36     Ds4
        BYTE   W04
        BYTE           VOL     52
        BYTE   W02
        BYTE                   51
        BYTE   W04
        BYTE                   50
        BYTE   W02
        BYTE                   49
        BYTE           N12     Cn4   v060
        BYTE   W04
        BYTE           VOL     48
        BYTE   W04
        BYTE                   47
        BYTE   W02
        BYTE                   46
        BYTE   W02
        BYTE           N12     Dn4   v055
        BYTE   W02
        BYTE           VOL     45
        BYTE   W02
        BYTE                   44
        BYTE   W04
        BYTE                   43
        BYTE   W04
        BYTE           N12     Ds4   v050
        BYTE   W02
        BYTE           VOL     42
        BYTE   W02
        BYTE                   41
        BYTE   W04
        BYTE                   40
        BYTE   W02
        BYTE                   39
        BYTE   W02
        BYTE           N12     Cn4   v045
        BYTE   W02
        BYTE           VOL     38
        BYTE   W02
        BYTE                   37
        BYTE   W04
        BYTE                   36
        BYTE   W02
        BYTE                   35
        BYTE   W02
        BYTE           N12     Dn4   v040
        BYTE   W02
        BYTE           VOL     34
        BYTE   W02
        BYTE                   33
        BYTE   W04
        BYTE                   32
        BYTE   W02
        BYTE                   31
        BYTE   W02
// 037   ----------------------------------------
        BYTE           N12     Ds4   v035
        BYTE   W02
        BYTE           VOL     30
        BYTE   W02
        BYTE                   29
        BYTE   W04
        BYTE                   28
        BYTE   W02
        BYTE                   27
        BYTE   W04
        BYTE                   26
        BYTE   W06
        BYTE                   25
        BYTE   W04
        BYTE                   24
        BYTE   W02
        BYTE                   23
        BYTE   W04
        BYTE                   22
        BYTE   W02
        BYTE                   21
        BYTE   W04
        BYTE                   20
        BYTE   W02
        BYTE                   19
        BYTE   W04
        BYTE                   18
        BYTE   W02
        BYTE                   17
        BYTE   W52
// 038   ----------------------------------------
        BYTE   W04
        BYTE   FINE

//****************** Track 2 (Midi-Chn.2) ******************//

Resident_Evil_2___Main_Hall_cued_2:
        BYTE   KEYSH   Resident_Evil_2___Main_Hall_cued_key+0
// 000   ----------------------------------------
        BYTE           VOL     100
        BYTE   W48
        BYTE           VOICE   0
        BYTE   W32
Resident_Evil_2___Main_Hall_cued_2_LOOP:
        BYTE   W16
// 001   ----------------------------------------
        BYTE           BENDR   55
        BYTE   W24
        BYTE                   14
        BYTE   W10
        BYTE                   75
        BYTE   W14
        BYTE           VOL     127
        BYTE   W48
// 002   ----------------------------------------
        BYTE                   100
        BYTE           BENDR   2
        BYTE   GoTo
         POIN2  Resident_Evil_2___Main_Hall_cued_2_LOOP
        BYTE   W96
// 003   ----------------------------------------
        BYTE   W96
// 004   ----------------------------------------
        BYTE   W96
// 005   ----------------------------------------
        BYTE   W96
// 006   ----------------------------------------
Resident_Evil_2___Main_Hall_cued_2_6:
        BYTE           N72     Cn1   v127
        BYTE           N72     Cn0
        BYTE   W96
        BYTE   PEND
// 007   ----------------------------------------
        BYTE   W96
// 008   ----------------------------------------
        BYTE   W96
// 009   ----------------------------------------
        BYTE           BENDR   50
        BYTE   W96
// 010   ----------------------------------------
        BYTE   W96
// 011   ----------------------------------------
Resident_Evil_2___Main_Hall_cued_2_11:
        BYTE           N08     Gn4   v105
        BYTE           N08     Gn3
        BYTE   W07
        BYTE           BENDR   70
        BYTE   W01
        BYTE           N06     Cn3   v090
        BYTE           N06     Cn4
        BYTE   W06
        BYTE                   Gn3   v127
        BYTE           N06     Gn4   v110
        BYTE   W06
        BYTE                   Cn3   v090
        BYTE           N06     Cn4
        BYTE   W06
        BYTE                   Fn3   v100
        BYTE           N06     Fn4   v095
        BYTE   W06
        BYTE                   Cn3   v075
        BYTE           N06     Cn4
        BYTE   W05
        BYTE                   Ds3   v080
        BYTE           N06     Ds4
        BYTE   W06
        BYTE                   Dn3   v070
        BYTE           N06     Dn4
        BYTE   W06
        BYTE                   Ds3   v080
        BYTE           N06     Ds4
        BYTE   W06
        BYTE                   Dn3   v070
        BYTE           N06     Dn4
        BYTE   W06
        BYTE                   Ds3   v080
        BYTE           N06     Ds4
        BYTE   W06
        BYTE                   Cn3   v070
        BYTE           N06     Cn4
        BYTE   W06
        BYTE                   Dn3   v090
        BYTE           N06     Dn4
        BYTE   W06
        BYTE                   Gn2   v065
        BYTE           N06     Gn3
        BYTE   W05
        BYTE                   Cn3   v080
        BYTE   W06
        BYTE                   Gn3   v060
        BYTE           N06     Cn4   v080
        BYTE           N06     Gn2   v060
        BYTE   W06
        BYTE   PEND
// 012   ----------------------------------------
        BYTE   W96
// 013   ----------------------------------------
        BYTE   W96
// 014   ----------------------------------------
        BYTE   W96
// 015   ----------------------------------------
        BYTE   W96
// 016   ----------------------------------------
Resident_Evil_2___Main_Hall_cued_2_16:
        BYTE           N24     FnM1   v105
        BYTE           N24     BnM1   v120
        BYTE   W13
        BYTE           VOL     111
        BYTE   W01
        BYTE                   126
        BYTE   W01
        BYTE                   124
        BYTE   W01
        BYTE                   121
        BYTE   W01
        BYTE                   118
        BYTE   W01
        BYTE                   115
        BYTE   W01
        BYTE                   113
        BYTE   W01
        BYTE                   110
        BYTE   W01
        BYTE                   107
        BYTE   W01
        BYTE                   104
        BYTE   W02
        BYTE           TIE     FsM1
        BYTE           VOL     126
        BYTE           TIE     Cs0
        BYTE   W02
        BYTE           VOL     125
        BYTE   W01
        BYTE                   124
        BYTE   W01
        BYTE                   123
        BYTE   W01
        BYTE                   122
        BYTE   W01
        BYTE                   121
        BYTE   W02
        BYTE                   120
        BYTE   W01
        BYTE                   119
        BYTE   W01
        BYTE                   118
        BYTE   W01
        BYTE                   117
        BYTE   W01
        BYTE                   116
        BYTE   W02
        BYTE                   115
        BYTE   W01
        BYTE                   114
        BYTE   W01
        BYTE                   113
        BYTE   W01
        BYTE                   112
        BYTE   W01
        BYTE                   111
        BYTE   W02
        BYTE                   110
        BYTE   W01
        BYTE                   109
        BYTE   W01
        BYTE                   108
        BYTE   W01
        BYTE                   107
        BYTE   W01
        BYTE                   106
        BYTE   W02
        BYTE                   105
        BYTE   W01
        BYTE                   104
        BYTE   W01
        BYTE                   103
        BYTE   W01
        BYTE                   102
        BYTE   W01
        BYTE                   101
        BYTE   W02
        BYTE                   100
        BYTE   W01
        BYTE                   99
        BYTE   W01
        BYTE                   98
        BYTE   W01
        BYTE                   97
        BYTE   W01
        BYTE                   96
        BYTE   W01
        BYTE                   95
        BYTE   W02
        BYTE                   94
        BYTE   W01
        BYTE                   93
        BYTE   W01
        BYTE                   92
        BYTE   W01
        BYTE                   91
        BYTE   W01
        BYTE                   90
        BYTE   W02
        BYTE                   89
        BYTE   W01
        BYTE                   88
        BYTE   W01
        BYTE                   87
        BYTE   W01
        BYTE                   86
        BYTE   W01
        BYTE                   85
        BYTE   W02
        BYTE                   84
        BYTE   W01
        BYTE                   83
        BYTE   W01
        BYTE                   82
        BYTE   W01
        BYTE                   81
        BYTE   W01
        BYTE                   80
        BYTE   W02
        BYTE                   79
        BYTE   W01
        BYTE                   78
        BYTE   W01
        BYTE                   77
        BYTE   W01
        BYTE                   76
        BYTE   W01
        BYTE                   75
        BYTE   W02
        BYTE                   74
        BYTE   W01
        BYTE                   73
        BYTE   W01
        BYTE                   72
        BYTE   W01
        BYTE                   71
        BYTE   W01
        BYTE                   70
        BYTE   W02
        BYTE                   69
        BYTE   W01
        BYTE                   68
        BYTE   W01
        BYTE                   67
        BYTE   W01
        BYTE   PEND
// 017   ----------------------------------------
Resident_Evil_2___Main_Hall_cued_2_17:
        BYTE           VOL     66
        BYTE   W01
        BYTE                   65
        BYTE   W01
        BYTE                   64
        BYTE   W02
        BYTE                   63
        BYTE   W01
        BYTE                   62
        BYTE   W01
        BYTE                   61
        BYTE   W01
        BYTE                   60
        BYTE   W01
        BYTE                   59
        BYTE   W02
        BYTE                   58
        BYTE   W01
        BYTE                   57
        BYTE   W01
        BYTE                   56
        BYTE   W01
        BYTE                   55
        BYTE   W01
        BYTE                   54
        BYTE   W02
        BYTE                   53
        BYTE   W01
        BYTE                   52
        BYTE   W01
        BYTE                   51
        BYTE   W01
        BYTE                   50
        BYTE   W01
        BYTE                   49
        BYTE   W02
        BYTE                   48
        BYTE   W01
        BYTE                   47
        BYTE   W01
        BYTE                   46
        BYTE   W01
        BYTE                   45
        BYTE   W01
        BYTE                   44
        BYTE   W02
        BYTE                   43
        BYTE   W01
        BYTE                   42
        BYTE   W01
        BYTE                   41
        BYTE   W01
        BYTE                   40
        BYTE   W01
        BYTE                   39
        BYTE   W02
        BYTE                   38
        BYTE   W01
        BYTE                   37
        BYTE   W01
        BYTE                   36
        BYTE   W01
        BYTE                   35
        BYTE   W01
        BYTE                   34
        BYTE   W01
        BYTE                   33
        BYTE   W02
        BYTE                   32
        BYTE   W01
        BYTE                   31
        BYTE   W01
        BYTE                   30
        BYTE   W01
        BYTE                   29
        BYTE   W01
        BYTE                   28
        BYTE   W02
        BYTE                   27
        BYTE   W01
        BYTE                   26
        BYTE   W01
        BYTE                   25
        BYTE   W01
        BYTE                   24
        BYTE   W01
        BYTE                   23
        BYTE   W02
        BYTE                   22
        BYTE   W01
        BYTE                   21
        BYTE   W01
        BYTE                   20
        BYTE   W01
        BYTE                   19
        BYTE   W01
        BYTE                   18
        BYTE   W02
        BYTE                   17
        BYTE   W01
        BYTE                   16
        BYTE   W01
        BYTE                   15
        BYTE   W01
        BYTE                   14
        BYTE   W01
        BYTE                   13
        BYTE   W02
        BYTE                   12
        BYTE   W01
        BYTE                   11
        BYTE   W01
        BYTE                   10
        BYTE   W01
        BYTE                   9
        BYTE   W01
        BYTE                   8
        BYTE   W01
        BYTE                   7
        BYTE   W02
        BYTE           EOT     Cs0
        BYTE                   FsM1
        BYTE   W24
        BYTE   PEND
// 018   ----------------------------------------
        BYTE           BENDR   55
        BYTE   W24
        BYTE           VOL     127
        BYTE   W72
// 019   ----------------------------------------
        BYTE   W96
// 020   ----------------------------------------
        BYTE   W96
// 021   ----------------------------------------
        BYTE   W96
// 022   ----------------------------------------
        BYTE   PATT
         POIN2  Resident_Evil_2___Main_Hall_cued_2_6
// 023   ----------------------------------------
        BYTE   W96
// 024   ----------------------------------------
        BYTE   W96
// 025   ----------------------------------------
        BYTE           BENDR   50
        BYTE   W96
// 026   ----------------------------------------
        BYTE   W96
// 027   ----------------------------------------
        BYTE   PATT
         POIN2  Resident_Evil_2___Main_Hall_cued_2_11
// 028   ----------------------------------------
        BYTE   W96
// 029   ----------------------------------------
        BYTE   W96
// 030   ----------------------------------------
        BYTE   W96
// 031   ----------------------------------------
        BYTE   W96
// 032   ----------------------------------------
        BYTE   PATT
         POIN2  Resident_Evil_2___Main_Hall_cued_2_16
// 033   ----------------------------------------
        BYTE   PATT
         POIN2  Resident_Evil_2___Main_Hall_cued_2_17
// 034   ----------------------------------------
        BYTE   W24
        BYTE           VOL     127
        BYTE   W72
// 035   ----------------------------------------
        BYTE   W96
// 036   ----------------------------------------
        BYTE   W96
// 037   ----------------------------------------
        BYTE   W96
// 038   ----------------------------------------
        BYTE   W04
        BYTE   FINE

//****************** Track 3 (Midi-Chn.3) ******************//

Resident_Evil_2___Main_Hall_cued_3:
        BYTE   KEYSH   Resident_Evil_2___Main_Hall_cued_key+0
// 000   ----------------------------------------
        BYTE           VOL     100
        BYTE   W48
        BYTE           VOICE   89
        BYTE   W32
Resident_Evil_2___Main_Hall_cued_3_LOOP:
        BYTE   W08
        BYTE           PAN     c_v-44
        BYTE   W08
// 001   ----------------------------------------
        BYTE           BENDR   70
        BYTE   W10
        BYTE                   75
        BYTE   W14
        BYTE                   60
        BYTE   W24
        BYTE           VOL     120
        BYTE   W48
// 002   ----------------------------------------
        BYTE                   100
        BYTE           PAN     c_v+0
        BYTE           BENDR   2
        BYTE   GoTo
         POIN2  Resident_Evil_2___Main_Hall_cued_3_LOOP
        BYTE   W96
// 003   ----------------------------------------
        BYTE   W96
// 004   ----------------------------------------
        BYTE   W96
// 005   ----------------------------------------
        BYTE   W96
// 006   ----------------------------------------
        BYTE   W96
// 007   ----------------------------------------
        BYTE   W96
// 008   ----------------------------------------
        BYTE   W96
// 009   ----------------------------------------
        BYTE   W96
// 010   ----------------------------------------
        BYTE   W96
// 011   ----------------------------------------
        BYTE   W96
// 012   ----------------------------------------
Resident_Evil_2___Main_Hall_cued_3_12:
        BYTE   W48
        BYTE           N48     Gs2   v120
        BYTE           N48     Cs2   v121
        BYTE   W48
        BYTE   PEND
// 013   ----------------------------------------
Resident_Evil_2___Main_Hall_cued_3_13:
        BYTE           N96     As1   v120
        BYTE           N96     Fn2
        BYTE   W96
        BYTE   PEND
// 014   ----------------------------------------
        BYTE   W96
// 015   ----------------------------------------
        BYTE   W96
// 016   ----------------------------------------
        BYTE   W96
// 017   ----------------------------------------
        BYTE   W96
// 018   ----------------------------------------
        BYTE   W96
// 019   ----------------------------------------
        BYTE   W96
// 020   ----------------------------------------
        BYTE   W96
// 021   ----------------------------------------
        BYTE   W96
// 022   ----------------------------------------
        BYTE   W96
// 023   ----------------------------------------
        BYTE   W96
// 024   ----------------------------------------
        BYTE   W96
// 025   ----------------------------------------
        BYTE   W96
// 026   ----------------------------------------
        BYTE   W96
// 027   ----------------------------------------
        BYTE   W96
// 028   ----------------------------------------
        BYTE   PATT
         POIN2  Resident_Evil_2___Main_Hall_cued_3_12
// 029   ----------------------------------------
        BYTE   PATT
         POIN2  Resident_Evil_2___Main_Hall_cued_3_13
// 030   ----------------------------------------
        BYTE   W96
// 031   ----------------------------------------
        BYTE   W96
// 032   ----------------------------------------
        BYTE   W96
// 033   ----------------------------------------
        BYTE   W96
// 034   ----------------------------------------
        BYTE   W96
// 035   ----------------------------------------
        BYTE   W96
// 036   ----------------------------------------
        BYTE   W96
// 037   ----------------------------------------
        BYTE   W96
// 038   ----------------------------------------
        BYTE   W04
        BYTE   FINE

//****************** Track 4 (Midi-Chn.4) ******************//

Resident_Evil_2___Main_Hall_cued_4:
        BYTE   KEYSH   Resident_Evil_2___Main_Hall_cued_key+0
// 000   ----------------------------------------
        BYTE           VOL     100
        BYTE   W48
        BYTE           VOICE   60
        BYTE   W32
Resident_Evil_2___Main_Hall_cued_4_LOOP:
        BYTE   W16
// 001   ----------------------------------------
        BYTE           PAN     c_v-54
        BYTE   W10
        BYTE           BENDR   75
        BYTE   W14
        BYTE                   55
        BYTE   W10
        BYTE                   65
        BYTE   W14
        BYTE           VOL     120
        BYTE   W48
// 002   ----------------------------------------
        BYTE                   100
        BYTE           PAN     c_v+0
        BYTE           BENDR   2
        BYTE   GoTo
         POIN2  Resident_Evil_2___Main_Hall_cued_4_LOOP
        BYTE   W96
// 003   ----------------------------------------
        BYTE   W96
// 004   ----------------------------------------
        BYTE   W96
// 005   ----------------------------------------
        BYTE   W96
// 006   ----------------------------------------
        BYTE   W96
// 007   ----------------------------------------
        BYTE   W96
// 008   ----------------------------------------
        BYTE   W96
// 009   ----------------------------------------
        BYTE   W68
        BYTE   W03
        BYTE           VOL     120
        BYTE   W01
        BYTE           N11     Fn2   v120
        BYTE   W05
        BYTE           VOL     84
        BYTE   W07
        BYTE           N11     Gn2
        BYTE           VOL     120
        BYTE   W05
        BYTE                   94
        BYTE   W07
// 010   ----------------------------------------
Resident_Evil_2___Main_Hall_cued_4_10:
        BYTE           N72     Gs2   v120
        BYTE           VOL     120
        BYTE   W05
        BYTE                   94
        BYTE   W66
        BYTE   W01
        BYTE           N24     As2
        BYTE           VOL     120
        BYTE   W05
        BYTE                   94
        BYTE   W19
        BYTE   PEND
// 011   ----------------------------------------
Resident_Evil_2___Main_Hall_cued_4_11:
        BYTE           N96     Gn2   v090
        BYTE           VOL     120
        BYTE   W06
        BYTE                   118
        BYTE   W01
        BYTE                   117
        BYTE   W01
        BYTE                   116
        BYTE   W01
        BYTE                   115
        BYTE   W01
        BYTE                   114
        BYTE   W01
        BYTE                   113
        BYTE   W01
        BYTE                   112
        BYTE   W01
        BYTE                   111
        BYTE   W02
        BYTE                   110
        BYTE   W01
        BYTE                   108
        BYTE   W01
        BYTE                   107
        BYTE   W01
        BYTE                   106
        BYTE   W01
        BYTE                   105
        BYTE   W01
        BYTE                   104
        BYTE   W01
        BYTE                   103
        BYTE   W01
        BYTE                   102
        BYTE   W01
        BYTE                   101
        BYTE   W01
        BYTE                   100
        BYTE   W01
        BYTE                   99
        BYTE   W01
        BYTE                   97
        BYTE   W01
        BYTE                   96
        BYTE   W01
        BYTE                   95
        BYTE   W01
        BYTE                   94
        BYTE   W02
        BYTE                   93
        BYTE   W01
        BYTE                   92
        BYTE   W01
        BYTE                   91
        BYTE   W01
        BYTE                   90
        BYTE   W01
        BYTE                   88
        BYTE   W01
        BYTE                   87
        BYTE   W01
        BYTE                   86
        BYTE   W01
        BYTE                   85
        BYTE   W01
        BYTE                   84
        BYTE   W01
        BYTE                   83
        BYTE   W01
        BYTE                   82
        BYTE   W01
        BYTE                   81
        BYTE   W01
        BYTE                   80
        BYTE   W01
        BYTE                   79
        BYTE   W01
        BYTE                   77
        BYTE   W02
        BYTE                   76
        BYTE   W01
        BYTE                   75
        BYTE   W01
        BYTE                   74
        BYTE   W01
        BYTE                   73
        BYTE   W01
        BYTE                   72
        BYTE   W01
        BYTE                   71
        BYTE   W01
        BYTE                   70
        BYTE   W01
        BYTE                   68
        BYTE   W01
        BYTE                   67
        BYTE   W01
        BYTE                   66
        BYTE   W01
        BYTE                   65
        BYTE   W01
        BYTE                   64
        BYTE   W01
        BYTE                   63
        BYTE   W01
        BYTE                   62
        BYTE   W01
        BYTE                   61
        BYTE   W01
        BYTE                   60
        BYTE   W02
        BYTE                   58
        BYTE   W01
        BYTE                   57
        BYTE   W01
        BYTE                   56
        BYTE   W01
        BYTE                   55
        BYTE   W01
        BYTE                   54
        BYTE   W01
        BYTE                   53
        BYTE   W01
        BYTE                   52
        BYTE   W01
        BYTE                   51
        BYTE   W01
        BYTE                   50
        BYTE   W01
        BYTE                   48
        BYTE   W01
        BYTE                   47
        BYTE   W01
        BYTE                   46
        BYTE   W01
        BYTE                   45
        BYTE   W01
        BYTE                   44
        BYTE   W01
        BYTE                   43
        BYTE   W02
        BYTE                   42
        BYTE   W01
        BYTE                   41
        BYTE   W01
        BYTE                   40
        BYTE   W01
        BYTE                   38
        BYTE   W01
        BYTE                   37
        BYTE   W01
        BYTE                   36
        BYTE   W01
        BYTE                   35
        BYTE   W01
        BYTE                   34
        BYTE   W01
        BYTE                   33
        BYTE   W01
        BYTE                   32
        BYTE   W01
        BYTE                   31
        BYTE   W01
        BYTE                   30
        BYTE   W01
        BYTE                   28
        BYTE   W04
        BYTE   PEND
// 012   ----------------------------------------
        BYTE   W07
        BYTE                   120
        BYTE   W88
        BYTE   W01
// 013   ----------------------------------------
        BYTE   W96
// 014   ----------------------------------------
        BYTE   W96
// 015   ----------------------------------------
        BYTE   W96
// 016   ----------------------------------------
        BYTE   W96
// 017   ----------------------------------------
        BYTE   W96
// 018   ----------------------------------------
        BYTE   W96
// 019   ----------------------------------------
        BYTE   W96
// 020   ----------------------------------------
        BYTE   W96
// 021   ----------------------------------------
        BYTE   W96
// 022   ----------------------------------------
        BYTE   W96
// 023   ----------------------------------------
        BYTE   W96
// 024   ----------------------------------------
        BYTE   W96
// 025   ----------------------------------------
        BYTE   W72
        BYTE           N11     Fn2   v120
        BYTE   W05
        BYTE           VOL     84
        BYTE   W07
        BYTE           N11     Gn2
        BYTE           VOL     120
        BYTE   W05
        BYTE                   94
        BYTE   W07
// 026   ----------------------------------------
        BYTE   PATT
         POIN2  Resident_Evil_2___Main_Hall_cued_4_10
// 027   ----------------------------------------
        BYTE   PATT
         POIN2  Resident_Evil_2___Main_Hall_cued_4_11
// 028   ----------------------------------------
        BYTE   W07
        BYTE           VOL     120
        BYTE   W88
        BYTE   W01
// 029   ----------------------------------------
        BYTE   W96
// 030   ----------------------------------------
        BYTE   W96
// 031   ----------------------------------------
        BYTE   W96
// 032   ----------------------------------------
        BYTE   W96
// 033   ----------------------------------------
        BYTE   W96
// 034   ----------------------------------------
        BYTE   W96
// 035   ----------------------------------------
        BYTE   W96
// 036   ----------------------------------------
        BYTE   W96
// 037   ----------------------------------------
        BYTE   W96
// 038   ----------------------------------------
        BYTE   W04
        BYTE   FINE

//****************** Track 5 (Midi-Chn.5) ******************//

Resident_Evil_2___Main_Hall_cued_5:
        BYTE   KEYSH   Resident_Evil_2___Main_Hall_cued_key+0
// 000   ----------------------------------------
        BYTE           VOL     100
        BYTE   W48
        BYTE           VOICE   89
        BYTE   W32
Resident_Evil_2___Main_Hall_cued_5_LOOP:
        BYTE   W08
        BYTE           VOL     127
        BYTE   W08
// 001   ----------------------------------------
Resident_Evil_2___Main_Hall_cued_5_1:
        BYTE           BENDR   90
        BYTE   W10
        BYTE                   50
        BYTE   W14
        BYTE                   40
        BYTE   W24
        BYTE                   0
        BYTE   W10
        BYTE                   127
        BYTE   W36
        BYTE   W02
        BYTE   PEND
// 002   ----------------------------------------
        BYTE           VOL     100
        BYTE           BENDR   2
        BYTE   GoTo
         POIN2  Resident_Evil_2___Main_Hall_cued_5_LOOP
        BYTE   W96
// 003   ----------------------------------------
        BYTE   W96
// 004   ----------------------------------------
        BYTE   W96
// 005   ----------------------------------------
Resident_Evil_2___Main_Hall_cued_5_5:
        BYTE           TIE     Cn4   v120
        BYTE   W92
        BYTE   W02
        BYTE           VOL     126
        BYTE   W01
        BYTE                   122
        BYTE   W01
        BYTE   PEND
// 006   ----------------------------------------
Resident_Evil_2___Main_Hall_cued_5_6:
        BYTE           VOL     118
        BYTE   W01
        BYTE                   113
        BYTE   W01
        BYTE                   109
        BYTE   W01
        BYTE                   105
        BYTE   W01
        BYTE                   100
        BYTE   W01
        BYTE                   96
        BYTE   W01
        BYTE                   91
        BYTE   W01
        BYTE                   87
        BYTE   W01
        BYTE                   83
        BYTE   W01
        BYTE                   78
        BYTE   W01
        BYTE                   74
        BYTE   W01
        BYTE                   69
        BYTE   W01
        BYTE           EOT     Cn4
        BYTE           VOL     65
        BYTE   W01
        BYTE                   61
        BYTE   W01
        BYTE                   56
        BYTE   W01
        BYTE                   52
        BYTE   W01
        BYTE                   47
        BYTE   W01
        BYTE                   43
        BYTE   W01
        BYTE                   39
        BYTE   W01
        BYTE                   34
        BYTE   W01
        BYTE                   30
        BYTE   W01
        BYTE                   25
        BYTE   W24
        BYTE   W03
        BYTE                   1
        BYTE   W48
        BYTE   PEND
// 007   ----------------------------------------
        BYTE   W13
        BYTE                   126
        BYTE   W80
        BYTE   W03
// 008   ----------------------------------------
        BYTE   W96
// 009   ----------------------------------------
        BYTE   W96
// 010   ----------------------------------------
        BYTE   W96
// 011   ----------------------------------------
        BYTE   W96
// 012   ----------------------------------------
        BYTE   W96
// 013   ----------------------------------------
        BYTE   W66
        BYTE   W01
        BYTE                   127
        BYTE   W28
        BYTE   W01
// 014   ----------------------------------------
Resident_Evil_2___Main_Hall_cued_5_14:
        BYTE           N48     Gn4   v127
        BYTE   W48
        BYTE                   Cn5
        BYTE   W48
        BYTE   PEND
// 015   ----------------------------------------
Resident_Evil_2___Main_Hall_cued_5_15:
        BYTE           N48     As4   v127
        BYTE   W48
        BYTE           TIE     Gs4
        BYTE   W48
        BYTE   PEND
// 016   ----------------------------------------
Resident_Evil_2___Main_Hall_cued_5_16:
        BYTE   W42
        BYTE           VOL     126
        BYTE   W01
        BYTE                   125
        BYTE   W01
        BYTE                   124
        BYTE   W01
        BYTE                   123
        BYTE   W01
        BYTE                   122
        BYTE   W01
        BYTE                   121
        BYTE   W01
        BYTE                   119
        BYTE   W01
        BYTE                   118
        BYTE   W01
        BYTE                   117
        BYTE   W01
        BYTE                   116
        BYTE   W01
        BYTE                   115
        BYTE   W01
        BYTE                   114
        BYTE   W01
        BYTE                   112
        BYTE   W01
        BYTE                   111
        BYTE   W01
        BYTE                   110
        BYTE   W01
        BYTE                   109
        BYTE   W01
        BYTE                   108
        BYTE   W01
        BYTE                   107
        BYTE   W01
        BYTE                   105
        BYTE   W01
        BYTE                   104
        BYTE   W01
        BYTE                   103
        BYTE   W01
        BYTE                   102
        BYTE   W01
        BYTE                   101
        BYTE   W01
        BYTE                   100
        BYTE   W01
        BYTE                   98
        BYTE   W01
        BYTE                   97
        BYTE   W01
        BYTE                   96
        BYTE   W01
        BYTE                   95
        BYTE   W01
        BYTE                   94
        BYTE   W01
        BYTE                   93
        BYTE   W01
        BYTE                   91
        BYTE   W01
        BYTE                   90
        BYTE   W01
        BYTE                   89
        BYTE   W01
        BYTE                   88
        BYTE   W01
        BYTE                   87
        BYTE   W01
        BYTE                   86
        BYTE   W01
        BYTE                   84
        BYTE   W01
        BYTE                   83
        BYTE   W01
        BYTE                   82
        BYTE   W01
        BYTE                   81
        BYTE   W01
        BYTE                   80
        BYTE   W01
        BYTE                   79
        BYTE   W01
        BYTE                   77
        BYTE   W01
        BYTE                   76
        BYTE   W01
        BYTE                   75
        BYTE   W01
        BYTE                   74
        BYTE   W01
        BYTE                   73
        BYTE   W01
        BYTE                   72
        BYTE   W01
        BYTE                   70
        BYTE   W01
        BYTE                   69
        BYTE   W01
        BYTE                   68
        BYTE   W01
        BYTE                   67
        BYTE   W01
        BYTE                   66
        BYTE   W01
        BYTE                   65
        BYTE   W01
        BYTE   PEND
// 017   ----------------------------------------
Resident_Evil_2___Main_Hall_cued_5_17:
        BYTE           VOL     63
        BYTE   W01
        BYTE                   62
        BYTE   W01
        BYTE                   61
        BYTE   W01
        BYTE                   60
        BYTE   W01
        BYTE           EOT     Gs4
        BYTE           VOL     59
        BYTE   W01
        BYTE                   58
        BYTE   W01
        BYTE                   56
        BYTE   W01
        BYTE                   55
        BYTE   W01
        BYTE                   54
        BYTE   W01
        BYTE                   53
        BYTE   W01
        BYTE                   52
        BYTE   W01
        BYTE                   51
        BYTE   W01
        BYTE                   49
        BYTE   W01
        BYTE                   48
        BYTE   W01
        BYTE                   47
        BYTE   W01
        BYTE                   46
        BYTE   W01
        BYTE                   45
        BYTE   W01
        BYTE                   44
        BYTE   W01
        BYTE                   42
        BYTE   W01
        BYTE                   41
        BYTE   W01
        BYTE                   40
        BYTE   W01
        BYTE                   39
        BYTE   W01
        BYTE                   38
        BYTE   W01
        BYTE                   37
        BYTE   W01
        BYTE                   35
        BYTE   W01
        BYTE                   34
        BYTE   W01
        BYTE                   33
        BYTE   W01
        BYTE                   32
        BYTE   W01
        BYTE                   31
        BYTE   W01
        BYTE                   30
        BYTE   W01
        BYTE                   28
        BYTE   W01
        BYTE                   27
        BYTE   W01
        BYTE                   26
        BYTE   W01
        BYTE                   25
        BYTE   W01
        BYTE                   24
        BYTE   W01
        BYTE                   23
        BYTE   W01
        BYTE                   21
        BYTE   W01
        BYTE                   20
        BYTE   W01
        BYTE                   19
        BYTE   W01
        BYTE                   18
        BYTE   W01
        BYTE                   17
        BYTE   W01
        BYTE                   16
        BYTE   W01
        BYTE                   14
        BYTE   W01
        BYTE                   13
        BYTE   W01
        BYTE                   12
        BYTE   W01
        BYTE                   11
        BYTE   W01
        BYTE                   10
        BYTE   W01
        BYTE                   9
        BYTE   W01
        BYTE                   7
        BYTE   W01
        BYTE                   6
        BYTE   W01
        BYTE                   5
        BYTE   W01
        BYTE                   4
        BYTE   W01
        BYTE                   3
        BYTE   W01
        BYTE                   2
        BYTE   W01
        BYTE                   0
        BYTE   W42
        BYTE   PEND
// 018   ----------------------------------------
        BYTE                   127
        BYTE   W96
// 019   ----------------------------------------
        BYTE   W96
// 020   ----------------------------------------
        BYTE   W96
// 021   ----------------------------------------
        BYTE   PATT
         POIN2  Resident_Evil_2___Main_Hall_cued_5_5
// 022   ----------------------------------------
        BYTE   PATT
         POIN2  Resident_Evil_2___Main_Hall_cued_5_6
// 023   ----------------------------------------
        BYTE   W13
        BYTE           VOL     126
        BYTE   W80
        BYTE   W03
// 024   ----------------------------------------
        BYTE   W96
// 025   ----------------------------------------
        BYTE   W96
// 026   ----------------------------------------
        BYTE   W96
// 027   ----------------------------------------
        BYTE   W96
// 028   ----------------------------------------
        BYTE   W96
// 029   ----------------------------------------
        BYTE   W66
        BYTE   W01
        BYTE                   127
        BYTE   W28
        BYTE   W01
// 030   ----------------------------------------
        BYTE   PATT
         POIN2  Resident_Evil_2___Main_Hall_cued_5_14
// 031   ----------------------------------------
        BYTE   PATT
         POIN2  Resident_Evil_2___Main_Hall_cued_5_15
// 032   ----------------------------------------
        BYTE   PATT
         POIN2  Resident_Evil_2___Main_Hall_cued_5_16
// 033   ----------------------------------------
        BYTE   PATT
         POIN2  Resident_Evil_2___Main_Hall_cued_5_17
// 034   ----------------------------------------
        BYTE   W96
// 035   ----------------------------------------
        BYTE   W92
        BYTE   W02
        BYTE           VOL     64
        BYTE   W02
// 036   ----------------------------------------
        BYTE                   63
        BYTE           TIE     Cn4   v120
        BYTE   W04
        BYTE           VOL     62
        BYTE   W02
        BYTE                   61
        BYTE   W04
        BYTE                   60
        BYTE   W02
        BYTE                   59
        BYTE   W04
        BYTE                   58
        BYTE   W02
        BYTE                   57
        BYTE   W04
        BYTE                   56
        BYTE   W02
        BYTE                   55
        BYTE   W04
        BYTE                   54
        BYTE   W04
        BYTE                   53
        BYTE   W02
        BYTE                   52
        BYTE   W04
        BYTE                   51
        BYTE   W02
        BYTE                   50
        BYTE   W04
        BYTE                   49
        BYTE   W02
        BYTE                   48
        BYTE   W04
        BYTE                   47
        BYTE   W02
        BYTE                   46
        BYTE   W04
        BYTE                   45
        BYTE   W02
        BYTE                   44
        BYTE   W04
        BYTE                   43
        BYTE   W02
        BYTE                   42
        BYTE   W04
        BYTE                   41
        BYTE   W02
        BYTE                   40
        BYTE   W04
        BYTE                   39
        BYTE   W02
        BYTE                   38
        BYTE   W04
        BYTE                   37
        BYTE   W02
        BYTE                   36
        BYTE   W04
        BYTE                   35
        BYTE   W04
        BYTE                   34
        BYTE   W02
        BYTE                   33
        BYTE   W04
// 037   ----------------------------------------
        BYTE                   32
        BYTE   W02
        BYTE                   31
        BYTE   W04
        BYTE                   30
        BYTE   W02
        BYTE                   29
        BYTE   W04
        BYTE           EOT
        BYTE           VOL     28
        BYTE   W02
        BYTE                   27
        BYTE   W04
        BYTE                   26
        BYTE   W02
        BYTE                   25
        BYTE   W04
        BYTE                   24
        BYTE   W02
        BYTE                   23
        BYTE   W04
        BYTE                   22
        BYTE   W02
        BYTE                   21
        BYTE   W04
        BYTE                   20
        BYTE   W02
        BYTE                   19
        BYTE   W04
        BYTE                   18
        BYTE   W04
        BYTE                   17
        BYTE   W02
        BYTE                   16
        BYTE   W04
        BYTE                   15
        BYTE   W02
        BYTE                   14
        BYTE   W04
        BYTE                   13
        BYTE   W02
        BYTE                   12
        BYTE   W04
        BYTE                   11
        BYTE   W02
        BYTE                   10
        BYTE   W04
        BYTE                   9
        BYTE   W02
        BYTE                   8
        BYTE   W04
        BYTE                   7
        BYTE   W02
        BYTE                   6
        BYTE   W04
        BYTE                   5
        BYTE   W02
        BYTE                   4
        BYTE   W04
        BYTE                   3
        BYTE   W02
        BYTE                   2
        BYTE   W04
        BYTE                   1
        BYTE   W02
// 038   ----------------------------------------
        BYTE                   0
        BYTE   W04
        BYTE   FINE

//****************** Track 6 (Midi-Chn.6) ******************//

Resident_Evil_2___Main_Hall_cued_6:
        BYTE   KEYSH   Resident_Evil_2___Main_Hall_cued_key+0
// 000   ----------------------------------------
        BYTE           VOL     100
        BYTE   W48
        BYTE   W01
        BYTE           VOICE   112
        BYTE   W09
        BYTE           VOL     94
        BYTE   W22
Resident_Evil_2___Main_Hall_cued_6_LOOP:
        BYTE   W10
        BYTE           PAN     c_v+63
        BYTE   W06
// 001   ----------------------------------------
        BYTE           BENDR   90
        BYTE   W10
        BYTE           VOL     113
        BYTE   W14
        BYTE           BENDR   55
        BYTE   W24
        BYTE                   14
        BYTE   W48
// 002   ----------------------------------------
        BYTE           VOL     94
        BYTE           PAN     c_v+0
        BYTE           BENDR   2
        BYTE   GoTo
         POIN2  Resident_Evil_2___Main_Hall_cued_6_LOOP
        BYTE   W96
// 003   ----------------------------------------
        BYTE   W96
// 004   ----------------------------------------
Resident_Evil_2___Main_Hall_cued_6_4:
        BYTE           N72     Cn3   v060
        BYTE           N72     As3   v120
        BYTE   W96
        BYTE   PEND
// 005   ----------------------------------------
        BYTE   W96
// 006   ----------------------------------------
        BYTE   W96
// 007   ----------------------------------------
        BYTE   W96
// 008   ----------------------------------------
        BYTE   PATT
         POIN2  Resident_Evil_2___Main_Hall_cued_6_4
// 009   ----------------------------------------
        BYTE   W96
// 010   ----------------------------------------
        BYTE   W96
// 011   ----------------------------------------
        BYTE   W96
// 012   ----------------------------------------
        BYTE   PATT
         POIN2  Resident_Evil_2___Main_Hall_cued_6_4
// 013   ----------------------------------------
        BYTE   W96
// 014   ----------------------------------------
        BYTE   W96
// 015   ----------------------------------------
        BYTE   W96
// 016   ----------------------------------------
        BYTE   W96
// 017   ----------------------------------------
        BYTE   W96
// 018   ----------------------------------------
        BYTE   W96
// 019   ----------------------------------------
        BYTE   W96
// 020   ----------------------------------------
        BYTE   PATT
         POIN2  Resident_Evil_2___Main_Hall_cued_6_4
// 021   ----------------------------------------
        BYTE   W96
// 022   ----------------------------------------
        BYTE   W96
// 023   ----------------------------------------
        BYTE   W96
// 024   ----------------------------------------
        BYTE   PATT
         POIN2  Resident_Evil_2___Main_Hall_cued_6_4
// 025   ----------------------------------------
        BYTE   W96
// 026   ----------------------------------------
        BYTE   W96
// 027   ----------------------------------------
        BYTE   W96
// 028   ----------------------------------------
        BYTE   PATT
         POIN2  Resident_Evil_2___Main_Hall_cued_6_4
// 029   ----------------------------------------
        BYTE   W96
// 030   ----------------------------------------
        BYTE   W96
// 031   ----------------------------------------
        BYTE   W96
// 032   ----------------------------------------
        BYTE   W96
// 033   ----------------------------------------
        BYTE   W96
// 034   ----------------------------------------
        BYTE   W96
// 035   ----------------------------------------
        BYTE   W90
        BYTE           VOL     62
        BYTE   W02
        BYTE                   61
        BYTE   W04
// 036   ----------------------------------------
        BYTE                   60
        BYTE           N72     Cn3   v060
        BYTE           N72     As3   v120
        BYTE   W06
        BYTE           VOL     59
        BYTE   W02
        BYTE                   58
        BYTE   W04
        BYTE                   57
        BYTE   W02
        BYTE                   56
        BYTE   W04
        BYTE                   55
        BYTE   W04
        BYTE                   54
        BYTE   W02
        BYTE                   53
        BYTE   W04
        BYTE                   52
        BYTE   W02
        BYTE                   51
        BYTE   W04
        BYTE                   50
        BYTE   W02
        BYTE                   49
        BYTE   W04
        BYTE                   48
        BYTE   W02
        BYTE                   47
        BYTE   W04
        BYTE                   46
        BYTE   W04
        BYTE                   45
        BYTE   W02
        BYTE                   44
        BYTE   W04
        BYTE                   43
        BYTE   W06
        BYTE                   42
        BYTE   W02
        BYTE                   41
        BYTE   W04
        BYTE                   40
        BYTE   W02
        BYTE                   39
        BYTE   W04
        BYTE                   38
        BYTE   W04
        BYTE                   37
        BYTE   W02
        BYTE                   36
        BYTE   W04
        BYTE                   35
        BYTE   W02
        BYTE                   34
        BYTE   W04
        BYTE                   33
        BYTE   W02
        BYTE                   32
        BYTE   W04
// 037   ----------------------------------------
        BYTE                   31
        BYTE   W02
        BYTE                   30
        BYTE   W04
        BYTE                   29
        BYTE   W02
        BYTE                   28
        BYTE   W04
        BYTE                   27
        BYTE   W04
        BYTE                   26
        BYTE   W80
// 038   ----------------------------------------
        BYTE   W04
        BYTE   FINE

//****************** Track 7 (Midi-Chn.7) ******************//

Resident_Evil_2___Main_Hall_cued_7:
        BYTE   KEYSH   Resident_Evil_2___Main_Hall_cued_key+0
// 000   ----------------------------------------
        BYTE           VOL     100
        BYTE   W48
        BYTE   W01
        BYTE           VOICE   102
        BYTE   W09
        BYTE           VOL     94
        BYTE   W22
Resident_Evil_2___Main_Hall_cued_7_LOOP:
        BYTE   W16
// 001   ----------------------------------------
        BYTE           BENDR   105
        BYTE   W10
        BYTE                   89
        BYTE   W06
        BYTE                   85
        BYTE   W08
        BYTE                   120
        BYTE   W10
        BYTE                   70
        BYTE   W14
        BYTE           VOL     113
        BYTE   W48
// 002   ----------------------------------------
        BYTE           N48     Cn3   v120
        BYTE           VOL     94
        BYTE           BENDR   2
        BYTE   GoTo
         POIN2  Resident_Evil_2___Main_Hall_cued_7_LOOP
        BYTE   W01
        BYTE           BEND    c_v+10
        BYTE   W01
        BYTE                   c_v+9
        BYTE   W01
        BYTE                   c_v+6
        BYTE   W01
        BYTE                   c_v+5
        BYTE   W01
        BYTE                   c_v+3
        BYTE   W01
        BYTE                   c_v+0
        BYTE   W42
        BYTE           PAN     c_v+56
        BYTE           N48     Gn3
        BYTE   W48
// 003   ----------------------------------------
        BYTE           N96     Gs3
        BYTE   W96
// 004   ----------------------------------------
        BYTE   W96
// 005   ----------------------------------------
        BYTE           TIE     Fs3
        BYTE   W02
        BYTE           VOL     95
        BYTE   W01
        BYTE                   96
        BYTE   W01
        BYTE                   97
        BYTE   W01
        BYTE                   98
        BYTE   W01
        BYTE                   100
        BYTE   W01
        BYTE                   101
        BYTE   W01
        BYTE                   102
        BYTE   W01
        BYTE                   103
        BYTE   W01
        BYTE                   104
        BYTE   W01
        BYTE                   105
        BYTE   W01
        BYTE                   107
        BYTE   W01
        BYTE                   108
        BYTE   W01
        BYTE                   109
        BYTE   W01
        BYTE                   110
        BYTE   W01
        BYTE                   111
        BYTE   W02
        BYTE                   113
        BYTE   W01
        BYTE                   114
        BYTE   W01
        BYTE                   115
        BYTE   W01
        BYTE                   116
        BYTE   W01
        BYTE                   117
        BYTE   W01
        BYTE                   118
        BYTE   W01
        BYTE                   120
        BYTE   W72
// 006   ----------------------------------------
Resident_Evil_2___Main_Hall_cued_7_6:
        BYTE   W04
        BYTE           EOT     Fs3
        BYTE   W44
        BYTE           N36     Gn3   v120
        BYTE   W36
        BYTE           N24     Cn3
        BYTE   W12
        BYTE   PEND
// 007   ----------------------------------------
        BYTE   W06
        BYTE           TIE     Gn3
        BYTE   W90
// 008   ----------------------------------------
Resident_Evil_2___Main_Hall_cued_7_8:
        BYTE   W30
        BYTE           EOT     Gn3
        BYTE   W44
        BYTE   W01
        BYTE           BENDR   105
        BYTE   W09
        BYTE                   72
        BYTE   W08
        BYTE                   70
        BYTE   W04
        BYTE   PEND
// 009   ----------------------------------------
Resident_Evil_2___Main_Hall_cued_7_9:
        BYTE   W24
        BYTE           N84     Gn4   v120
        BYTE   W24
        BYTE           TIE     Fs4
        BYTE   W36
        BYTE                   Ds4
        BYTE   W12
        BYTE   PEND
// 010   ----------------------------------------
Resident_Evil_2___Main_Hall_cued_7_10:
        BYTE   W60
        BYTE           EOT     Fs4
        BYTE   W32
        BYTE   W01
        BYTE                   Ds4
        BYTE   W03
        BYTE   PEND
// 011   ----------------------------------------
        BYTE   W96
// 012   ----------------------------------------
        BYTE   W96
// 013   ----------------------------------------
        BYTE   W48
        BYTE           BENDR   64
        BYTE   W48
// 014   ----------------------------------------
Resident_Evil_2___Main_Hall_cued_7_14:
        BYTE           N48     Gn3   v120
        BYTE   W48
        BYTE                   Cn4
        BYTE   W48
        BYTE   PEND
// 015   ----------------------------------------
Resident_Evil_2___Main_Hall_cued_7_15:
        BYTE           N48     As3   v120
        BYTE   W48
        BYTE           TIE     Gs3
        BYTE   W48
        BYTE   PEND
// 016   ----------------------------------------
        BYTE   W96
// 017   ----------------------------------------
        BYTE           PAN     c_v+0
        BYTE   W72
        BYTE           EOT
        BYTE   W24
// 018   ----------------------------------------
        BYTE           BEND    c_v+11
        BYTE           N48     Cn3
        BYTE   W01
        BYTE           BEND    c_v+10
        BYTE   W01
        BYTE                   c_v+9
        BYTE   W01
        BYTE                   c_v+6
        BYTE   W01
        BYTE                   c_v+5
        BYTE   W01
        BYTE                   c_v+3
        BYTE   W01
        BYTE                   c_v+0
        BYTE   W42
        BYTE           PAN     c_v+56
        BYTE           N48     Gn3
        BYTE   W48
// 019   ----------------------------------------
        BYTE           N96     Gs3
        BYTE   W96
// 020   ----------------------------------------
        BYTE   W96
// 021   ----------------------------------------
        BYTE           TIE     Fs3
        BYTE           VOL     94
        BYTE   W02
        BYTE                   95
        BYTE   W01
        BYTE                   96
        BYTE   W01
        BYTE                   97
        BYTE   W01
        BYTE                   98
        BYTE   W01
        BYTE                   100
        BYTE   W01
        BYTE                   101
        BYTE   W01
        BYTE                   102
        BYTE   W01
        BYTE                   103
        BYTE   W01
        BYTE                   104
        BYTE   W01
        BYTE                   105
        BYTE   W01
        BYTE                   107
        BYTE   W01
        BYTE                   108
        BYTE   W01
        BYTE                   109
        BYTE   W01
        BYTE                   110
        BYTE   W01
        BYTE                   111
        BYTE   W02
        BYTE                   113
        BYTE   W01
        BYTE                   114
        BYTE   W01
        BYTE                   115
        BYTE   W01
        BYTE                   116
        BYTE   W01
        BYTE                   117
        BYTE   W01
        BYTE                   118
        BYTE   W01
        BYTE                   120
        BYTE   W72
// 022   ----------------------------------------
        BYTE   PATT
         POIN2  Resident_Evil_2___Main_Hall_cued_7_6
// 023   ----------------------------------------
        BYTE   W06
        BYTE           TIE     Gn3   v120
        BYTE   W90
// 024   ----------------------------------------
        BYTE   PATT
         POIN2  Resident_Evil_2___Main_Hall_cued_7_8
// 025   ----------------------------------------
        BYTE   PATT
         POIN2  Resident_Evil_2___Main_Hall_cued_7_9
// 026   ----------------------------------------
        BYTE   PATT
         POIN2  Resident_Evil_2___Main_Hall_cued_7_10
// 027   ----------------------------------------
        BYTE   W96
// 028   ----------------------------------------
        BYTE   W96
// 029   ----------------------------------------
        BYTE   W48
        BYTE           BENDR   64
        BYTE   W48
// 030   ----------------------------------------
        BYTE   PATT
         POIN2  Resident_Evil_2___Main_Hall_cued_7_14
// 031   ----------------------------------------
        BYTE   PATT
         POIN2  Resident_Evil_2___Main_Hall_cued_7_15
// 032   ----------------------------------------
        BYTE   W96
// 033   ----------------------------------------
        BYTE   W72
        BYTE           EOT     Gs3
        BYTE   W12
        BYTE           PAN     c_v+0
        BYTE   W10
        BYTE           VOL     119
        BYTE   W02
// 034   ----------------------------------------
        BYTE           BEND    c_v+11
        BYTE           N48     Cn3   v120
        BYTE   W01
        BYTE           BEND    c_v+10
        BYTE   W01
        BYTE           VOL     118
        BYTE           BEND    c_v+9
        BYTE   W01
        BYTE                   c_v+6
        BYTE   W01
        BYTE                   c_v+5
        BYTE   W01
        BYTE                   c_v+3
        BYTE   W01
        BYTE           VOL     117
        BYTE           BEND    c_v+0
        BYTE   W02
        BYTE           VOL     116
        BYTE   W04
        BYTE                   115
        BYTE   W02
        BYTE                   114
        BYTE   W04
        BYTE                   113
        BYTE   W02
        BYTE                   112
        BYTE   W04
        BYTE                   111
        BYTE   W06
        BYTE                   110
        BYTE   W02
        BYTE                   109
        BYTE   W04
        BYTE                   108
        BYTE   W02
        BYTE                   107
        BYTE   W04
        BYTE                   106
        BYTE   W02
        BYTE                   105
        BYTE   W04
        BYTE                   104
        BYTE           PAN     c_v+56
        BYTE           N48     Gn3
        BYTE   W02
        BYTE           VOL     103
        BYTE   W04
        BYTE                   102
        BYTE   W02
        BYTE                   101
        BYTE   W04
        BYTE                   100
        BYTE   W02
        BYTE                   99
        BYTE   W04
        BYTE                   98
        BYTE   W04
        BYTE                   97
        BYTE   W02
        BYTE                   96
        BYTE   W04
        BYTE                   95
        BYTE   W02
        BYTE                   94
        BYTE   W06
        BYTE                   93
        BYTE   W04
        BYTE                   92
        BYTE   W02
        BYTE                   91
        BYTE   W04
        BYTE                   90
        BYTE   W02
// 035   ----------------------------------------
        BYTE                   89
        BYTE           N96     Gs3
        BYTE   W04
        BYTE           VOL     88
        BYTE   W02
        BYTE                   87
        BYTE   W04
        BYTE                   86
        BYTE   W02
        BYTE                   85
        BYTE   W04
        BYTE                   84
        BYTE   W02
        BYTE                   83
        BYTE   W04
        BYTE                   82
        BYTE   W02
        BYTE                   81
        BYTE   W04
        BYTE                   80
        BYTE   W02
        BYTE                   79
        BYTE   W04
        BYTE                   78
        BYTE   W04
        BYTE                   77
        BYTE   W06
        BYTE                   76
        BYTE   W02
        BYTE                   75
        BYTE   W04
        BYTE                   74
        BYTE   W02
        BYTE                   73
        BYTE   W04
        BYTE                   72
        BYTE   W02
        BYTE                   71
        BYTE   W04
        BYTE                   70
        BYTE   W02
        BYTE                   69
        BYTE   W04
        BYTE                   68
        BYTE   W02
        BYTE                   67
        BYTE   W04
        BYTE                   66
        BYTE   W02
        BYTE                   65
        BYTE   W04
        BYTE                   64
        BYTE   W02
        BYTE                   63
        BYTE   W04
        BYTE                   62
        BYTE   W02
        BYTE                   61
        BYTE   W04
        BYTE                   60
        BYTE   W04
// 036   ----------------------------------------
        BYTE   W02
        BYTE                   59
        BYTE   W04
        BYTE                   58
        BYTE   W02
        BYTE                   57
        BYTE   W04
        BYTE                   56
        BYTE   W80
        BYTE   W02
        BYTE                   2
        BYTE   W02
// 037   ----------------------------------------
        BYTE                   4
        BYTE           TIE     Fs3
        BYTE   W02
        BYTE           VOL     6
        BYTE   W02
        BYTE                   8
        BYTE   W02
        BYTE                   9
        BYTE   W02
        BYTE                   10
        BYTE   W02
        BYTE                   12
        BYTE   W02
        BYTE                   14
        BYTE   W02
        BYTE                   15
        BYTE   W02
        BYTE                   17
        BYTE   W02
        BYTE                   19
        BYTE   W02
        BYTE                   21
        BYTE   W02
        BYTE                   23
        BYTE   W02
        BYTE                   22
        BYTE   W04
        BYTE                   21
        BYTE   W02
        BYTE                   20
        BYTE   W04
        BYTE                   19
        BYTE   W04
        BYTE                   18
        BYTE   W02
        BYTE                   17
        BYTE   W04
        BYTE                   16
        BYTE   W02
        BYTE                   15
        BYTE   W04
        BYTE                   14
        BYTE   W02
        BYTE                   13
        BYTE   W04
        BYTE                   12
        BYTE   W02
        BYTE                   11
        BYTE   W04
        BYTE                   10
        BYTE   W02
        BYTE                   9
        BYTE   W06
        BYTE                   8
        BYTE   W04
        BYTE                   7
        BYTE   W02
        BYTE                   6
        BYTE   W04
        BYTE                   5
        BYTE   W02
        BYTE                   4
        BYTE   W04
        BYTE                   3
        BYTE   W02
        BYTE                   2
        BYTE   W04
        BYTE                   1
        BYTE   W02
        BYTE                   0
        BYTE   W02
// 038   ----------------------------------------
        BYTE   W04
        BYTE           EOT
        BYTE   FINE

//****************** Track 8 (Midi-Chn.8) ******************//

Resident_Evil_2___Main_Hall_cued_8:
        BYTE   KEYSH   Resident_Evil_2___Main_Hall_cued_key+0
// 000   ----------------------------------------
        BYTE           VOL     100
        BYTE   W48
        BYTE   W01
        BYTE           VOICE   49
        BYTE   W30
        BYTE   W01
Resident_Evil_2___Main_Hall_cued_8_LOOP:
        BYTE   W16
// 001   ----------------------------------------
        BYTE           BENDR   57
        BYTE   W10
        BYTE                   40
        BYTE   W14
        BYTE                   68
        BYTE   W10
        BYTE                   60
        BYTE   W14
        BYTE                   0
        BYTE   W08
        BYTE           VOL     127
        BYTE   W40
// 002   ----------------------------------------
        BYTE           TIE     Cn1   v120
        BYTE           TIE     Cn2   v100
        BYTE           VOL     100
        BYTE           BENDR   2
        BYTE   GoTo
         POIN2  Resident_Evil_2___Main_Hall_cued_8_LOOP
        BYTE   W01
        BYTE           VOL     64
        BYTE   W01
        BYTE                   67
        BYTE   W01
        BYTE                   69
        BYTE   W01
        BYTE                   73
        BYTE   W01
        BYTE                   75
        BYTE   W01
        BYTE                   79
        BYTE   W01
        BYTE                   80
        BYTE   W01
        BYTE                   84
        BYTE   W01
        BYTE                   86
        BYTE   W01
        BYTE                   90
        BYTE   W01
        BYTE                   92
        BYTE   W01
        BYTE                   95
        BYTE   W01
        BYTE                   97
        BYTE   W01
        BYTE                   101
        BYTE   W01
        BYTE                   103
        BYTE   W01
        BYTE                   107
        BYTE   W01
        BYTE                   109
        BYTE   W01
        BYTE                   112
        BYTE   W01
        BYTE                   114
        BYTE   W01
        BYTE                   118
        BYTE   W01
        BYTE                   120
        BYTE   W01
        BYTE                   124
        BYTE   W01
        BYTE                   126
        BYTE   W72
        BYTE   W01
// 003   ----------------------------------------
        BYTE   W96
// 004   ----------------------------------------
Resident_Evil_2___Main_Hall_cued_8_4:
        BYTE           EOT     Cn2
        BYTE                   Cn1
        BYTE           TIE     Cn1   v120
        BYTE           TIE     Cn2   v100
        BYTE   W01
        BYTE           VOL     64
        BYTE   W01
        BYTE                   67
        BYTE   W01
        BYTE                   69
        BYTE   W01
        BYTE                   73
        BYTE   W01
        BYTE                   75
        BYTE   W01
        BYTE                   79
        BYTE   W01
        BYTE                   80
        BYTE   W01
        BYTE                   84
        BYTE   W01
        BYTE                   86
        BYTE   W01
        BYTE                   90
        BYTE   W01
        BYTE                   92
        BYTE   W01
        BYTE                   95
        BYTE   W01
        BYTE                   97
        BYTE   W01
        BYTE                   101
        BYTE   W01
        BYTE                   103
        BYTE   W01
        BYTE                   107
        BYTE   W01
        BYTE                   109
        BYTE   W01
        BYTE                   112
        BYTE   W01
        BYTE                   114
        BYTE   W01
        BYTE                   118
        BYTE   W01
        BYTE                   120
        BYTE   W01
        BYTE                   124
        BYTE   W01
        BYTE                   126
        BYTE   W72
        BYTE   W01
        BYTE   PEND
// 005   ----------------------------------------
        BYTE   W96
// 006   ----------------------------------------
        BYTE   PATT
         POIN2  Resident_Evil_2___Main_Hall_cued_8_4
// 007   ----------------------------------------
        BYTE   W96
// 008   ----------------------------------------
        BYTE   PATT
         POIN2  Resident_Evil_2___Main_Hall_cued_8_4
// 009   ----------------------------------------
        BYTE   W96
// 010   ----------------------------------------
        BYTE   PATT
         POIN2  Resident_Evil_2___Main_Hall_cued_8_4
// 011   ----------------------------------------
        BYTE   W96
// 012   ----------------------------------------
        BYTE   PATT
         POIN2  Resident_Evil_2___Main_Hall_cued_8_4
// 013   ----------------------------------------
        BYTE   W96
// 014   ----------------------------------------
        BYTE           EOT     Cn2
        BYTE                   Cn1
        BYTE   W96
// 015   ----------------------------------------
        BYTE   W96
// 016   ----------------------------------------
        BYTE   W96
// 017   ----------------------------------------
        BYTE   W96
// 018   ----------------------------------------
        BYTE           TIE     Cn1   v120
        BYTE           TIE     Cn2   v100
        BYTE   W01
        BYTE           VOL     64
        BYTE   W01
        BYTE                   67
        BYTE   W01
        BYTE                   69
        BYTE   W01
        BYTE                   73
        BYTE   W01
        BYTE                   75
        BYTE   W01
        BYTE                   79
        BYTE   W01
        BYTE                   80
        BYTE   W01
        BYTE                   84
        BYTE   W01
        BYTE                   86
        BYTE   W01
        BYTE                   90
        BYTE   W01
        BYTE                   92
        BYTE   W01
        BYTE                   95
        BYTE   W01
        BYTE                   97
        BYTE   W01
        BYTE                   101
        BYTE   W01
        BYTE                   103
        BYTE   W01
        BYTE                   107
        BYTE   W01
        BYTE                   109
        BYTE   W01
        BYTE                   112
        BYTE   W01
        BYTE                   114
        BYTE   W01
        BYTE                   118
        BYTE   W01
        BYTE                   120
        BYTE   W01
        BYTE                   124
        BYTE   W01
        BYTE                   126
        BYTE   W72
        BYTE   W01
// 019   ----------------------------------------
        BYTE   W96
// 020   ----------------------------------------
        BYTE   PATT
         POIN2  Resident_Evil_2___Main_Hall_cued_8_4
// 021   ----------------------------------------
        BYTE   W96
// 022   ----------------------------------------
        BYTE   PATT
         POIN2  Resident_Evil_2___Main_Hall_cued_8_4
// 023   ----------------------------------------
        BYTE   W96
// 024   ----------------------------------------
        BYTE   PATT
         POIN2  Resident_Evil_2___Main_Hall_cued_8_4
// 025   ----------------------------------------
        BYTE   W96
// 026   ----------------------------------------
        BYTE   PATT
         POIN2  Resident_Evil_2___Main_Hall_cued_8_4
// 027   ----------------------------------------
        BYTE   W96
// 028   ----------------------------------------
        BYTE   PATT
         POIN2  Resident_Evil_2___Main_Hall_cued_8_4
// 029   ----------------------------------------
        BYTE   W96
// 030   ----------------------------------------
        BYTE           EOT     Cn2
        BYTE                   Cn1
        BYTE   W96
// 031   ----------------------------------------
        BYTE   W96
// 032   ----------------------------------------
        BYTE   W96
// 033   ----------------------------------------
        BYTE   W96
// 034   ----------------------------------------
        BYTE           TIE     Cn1   v120
        BYTE           TIE     Cn2   v100
        BYTE   W01
        BYTE           VOL     64
        BYTE   W01
        BYTE                   67
        BYTE   W01
        BYTE                   69
        BYTE   W01
        BYTE                   73
        BYTE   W01
        BYTE                   75
        BYTE   W01
        BYTE                   79
        BYTE   W01
        BYTE                   80
        BYTE   W01
        BYTE                   84
        BYTE   W01
        BYTE                   86
        BYTE   W01
        BYTE                   90
        BYTE   W01
        BYTE                   92
        BYTE   W01
        BYTE                   95
        BYTE   W01
        BYTE                   97
        BYTE   W01
        BYTE                   101
        BYTE   W01
        BYTE                   103
        BYTE   W01
        BYTE                   107
        BYTE   W01
        BYTE                   109
        BYTE   W01
        BYTE                   112
        BYTE   W01
        BYTE                   114
        BYTE   W05
        BYTE                   113
        BYTE   W04
        BYTE                   112
        BYTE   W02
        BYTE                   111
        BYTE   W04
        BYTE                   110
        BYTE   W02
        BYTE                   109
        BYTE   W04
        BYTE                   108
        BYTE   W04
        BYTE                   107
        BYTE   W02
        BYTE                   106
        BYTE   W04
        BYTE                   105
        BYTE   W02
        BYTE                   104
        BYTE   W04
        BYTE                   103
        BYTE   W04
        BYTE                   102
        BYTE   W02
        BYTE                   101
        BYTE   W04
        BYTE                   100
        BYTE   W02
        BYTE                   99
        BYTE   W04
        BYTE                   98
        BYTE   W04
        BYTE                   97
        BYTE   W02
        BYTE                   96
        BYTE   W04
        BYTE                   95
        BYTE   W02
        BYTE                   94
        BYTE   W04
        BYTE                   93
        BYTE   W04
        BYTE                   92
        BYTE   W02
        BYTE                   91
        BYTE   W02
// 035   ----------------------------------------
        BYTE   W02
        BYTE                   90
        BYTE   W02
        BYTE                   89
        BYTE   W04
        BYTE                   88
        BYTE   W04
        BYTE                   87
        BYTE   W02
        BYTE                   86
        BYTE   W04
        BYTE                   85
        BYTE   W02
        BYTE                   84
        BYTE   W04
        BYTE                   83
        BYTE   W04
        BYTE                   82
        BYTE   W02
        BYTE                   81
        BYTE   W04
        BYTE                   80
        BYTE   W02
        BYTE                   79
        BYTE   W04
        BYTE                   78
        BYTE   W04
        BYTE                   77
        BYTE   W02
        BYTE                   76
        BYTE   W04
        BYTE                   75
        BYTE   W02
        BYTE                   74
        BYTE   W04
        BYTE                   73
        BYTE   W04
        BYTE                   72
        BYTE   W02
        BYTE                   71
        BYTE   W04
        BYTE                   70
        BYTE   W02
        BYTE                   69
        BYTE   W04
        BYTE                   68
        BYTE   W04
        BYTE                   67
        BYTE   W02
        BYTE                   66
        BYTE   W04
        BYTE                   65
        BYTE   W02
        BYTE                   64
        BYTE   W04
        BYTE                   63
        BYTE   W04
        BYTE                   62
        BYTE   W02
        BYTE                   61
        BYTE   W02
// 036   ----------------------------------------
        BYTE           EOT
        BYTE           EOT     Cn1
        BYTE           TIE     Cn1   v120
        BYTE           TIE     Cn2   v100
        BYTE   W02
        BYTE           VOL     60
        BYTE   W02
        BYTE                   59
        BYTE   W04
        BYTE                   58
        BYTE   W02
        BYTE                   57
        BYTE   W04
        BYTE                   56
        BYTE   W04
        BYTE                   55
        BYTE   W02
        BYTE                   54
        BYTE   W04
        BYTE                   53
        BYTE   W02
        BYTE                   52
        BYTE   W04
        BYTE                   51
        BYTE   W04
        BYTE                   50
        BYTE   W02
        BYTE                   49
        BYTE   W04
        BYTE                   48
        BYTE   W02
        BYTE                   47
        BYTE   W04
        BYTE                   46
        BYTE   W04
        BYTE                   45
        BYTE   W02
        BYTE                   44
        BYTE   W04
        BYTE                   43
        BYTE   W02
        BYTE                   42
        BYTE   W04
        BYTE                   41
        BYTE   W04
        BYTE                   40
        BYTE   W02
        BYTE                   39
        BYTE   W04
        BYTE                   38
        BYTE   W02
        BYTE                   37
        BYTE   W04
        BYTE                   36
        BYTE   W04
        BYTE                   35
        BYTE   W02
        BYTE                   34
        BYTE   W04
        BYTE                   33
        BYTE   W02
        BYTE                   32
        BYTE   W04
        BYTE                   31
        BYTE   W02
// 037   ----------------------------------------
        BYTE   W02
        BYTE                   30
        BYTE   W02
        BYTE                   29
        BYTE   W04
        BYTE                   28
        BYTE   W02
        BYTE                   27
        BYTE   W04
        BYTE                   26
        BYTE   W04
        BYTE                   25
        BYTE   W02
        BYTE                   24
        BYTE   W04
        BYTE                   23
        BYTE   W02
        BYTE                   22
        BYTE   W04
        BYTE                   21
        BYTE   W04
        BYTE                   20
        BYTE   W02
        BYTE                   19
        BYTE   W04
        BYTE                   18
        BYTE   W02
        BYTE                   17
        BYTE   W04
        BYTE                   16
        BYTE   W04
        BYTE                   15
        BYTE   W02
        BYTE                   14
        BYTE   W04
        BYTE                   13
        BYTE   W02
        BYTE                   12
        BYTE   W04
        BYTE                   11
        BYTE   W04
        BYTE                   10
        BYTE   W02
        BYTE                   9
        BYTE   W04
        BYTE                   8
        BYTE   W02
        BYTE                   7
        BYTE   W04
        BYTE                   6
        BYTE   W04
        BYTE                   5
        BYTE   W02
        BYTE                   4
        BYTE   W04
        BYTE                   3
        BYTE   W02
        BYTE                   2
        BYTE   W04
        BYTE                   1
        BYTE   W02
// 038   ----------------------------------------
        BYTE           EOT
        BYTE           EOT     Cn1
        BYTE           VOL     0
        BYTE   W04
        BYTE   FINE

//***************** Track 9 (Midi-Chn.10) ******************//

Resident_Evil_2___Main_Hall_cued_9:
        BYTE   KEYSH   Resident_Evil_2___Main_Hall_cued_key+0
// 000   ----------------------------------------
        BYTE           VOL     100
        BYTE   W48
        BYTE   W01
        BYTE           VOICE   93
        BYTE   W30
        BYTE   W01
Resident_Evil_2___Main_Hall_cued_9_LOOP:
        BYTE   W16
// 001   ----------------------------------------
        BYTE           PAN     c_v+63
        BYTE   W10
        BYTE           BENDR   47
        BYTE   W14
        BYTE                   0
        BYTE   W10
        BYTE                   75
        BYTE   W12
        BYTE           VOL     120
        BYTE   W48
        BYTE   W02
// 002   ----------------------------------------
        BYTE                   100
        BYTE           PAN     c_v+0
        BYTE           BENDR   2
        BYTE   GoTo
         POIN2  Resident_Evil_2___Main_Hall_cued_9_LOOP
        BYTE   W96
// 003   ----------------------------------------
        BYTE   W96
// 004   ----------------------------------------
        BYTE   W96
// 005   ----------------------------------------
        BYTE           N72     Cn4   v090
        BYTE   W96
// 006   ----------------------------------------
        BYTE   W96
// 007   ----------------------------------------
        BYTE   W96
// 008   ----------------------------------------
        BYTE   W96
// 009   ----------------------------------------
        BYTE   W96
// 010   ----------------------------------------
        BYTE   W96
// 011   ----------------------------------------
        BYTE   W96
// 012   ----------------------------------------
        BYTE   W96
// 013   ----------------------------------------
        BYTE   W96
// 014   ----------------------------------------
Resident_Evil_2___Main_Hall_cued_9_14:
        BYTE   W02
        BYTE           N48     Gn4   v120
        BYTE           N48     Gn3   v060
        BYTE   W48
        BYTE                   Cn5   v120
        BYTE           N48     Cn4   v060
        BYTE   W44
        BYTE   W02
        BYTE   PEND
// 015   ----------------------------------------
Resident_Evil_2___Main_Hall_cued_9_15:
        BYTE   W02
        BYTE           N48     As4   v120
        BYTE           N48     As3   v060
        BYTE   W48
        BYTE           TIE     Gs4   v120
        BYTE           TIE     Gs3   v060
        BYTE   W44
        BYTE   W02
        BYTE   PEND
// 016   ----------------------------------------
        BYTE   W96
// 017   ----------------------------------------
Resident_Evil_2___Main_Hall_cued_9_17:
        BYTE   W72
        BYTE   W02
        BYTE           EOT     Gs3
        BYTE                   Gs4
        BYTE   W22
        BYTE   PEND
// 018   ----------------------------------------
        BYTE   W96
// 019   ----------------------------------------
        BYTE   W96
// 020   ----------------------------------------
        BYTE   W96
// 021   ----------------------------------------
        BYTE           N72     Cn4   v090
        BYTE   W96
// 022   ----------------------------------------
        BYTE   W96
// 023   ----------------------------------------
        BYTE   W96
// 024   ----------------------------------------
        BYTE   W96
// 025   ----------------------------------------
        BYTE   W96
// 026   ----------------------------------------
        BYTE   W96
// 027   ----------------------------------------
        BYTE   W96
// 028   ----------------------------------------
        BYTE   W96
// 029   ----------------------------------------
        BYTE   W96
// 030   ----------------------------------------
        BYTE   PATT
         POIN2  Resident_Evil_2___Main_Hall_cued_9_14
// 031   ----------------------------------------
        BYTE   PATT
         POIN2  Resident_Evil_2___Main_Hall_cued_9_15
// 032   ----------------------------------------
        BYTE   W96
// 033   ----------------------------------------
        BYTE   PATT
         POIN2  Resident_Evil_2___Main_Hall_cued_9_17
// 034   ----------------------------------------
        BYTE   W96
// 035   ----------------------------------------
        BYTE   W96
// 036   ----------------------------------------
        BYTE   W96
// 037   ----------------------------------------
        BYTE           VOL     30
        BYTE           N72     Cn4   v090
        BYTE   W02
        BYTE           VOL     29
        BYTE   W04
        BYTE                   28
        BYTE   W02
        BYTE                   27
        BYTE   W04
        BYTE                   26
        BYTE   W06
        BYTE                   25
        BYTE   W04
        BYTE                   24
        BYTE   W02
        BYTE                   23
        BYTE   W04
        BYTE                   22
        BYTE   W02
        BYTE                   21
        BYTE   W04
        BYTE                   20
        BYTE   W02
        BYTE                   19
        BYTE   W04
        BYTE                   18
        BYTE   W04
        BYTE                   17
        BYTE   W02
        BYTE                   16
        BYTE   W04
        BYTE                   15
        BYTE   W02
        BYTE                   14
        BYTE   W04
        BYTE                   13
        BYTE   W02
        BYTE                   12
        BYTE   W04
        BYTE                   11
        BYTE   W02
        BYTE                   10
        BYTE   W04
        BYTE                   9
        BYTE   W06
        BYTE                   8
        BYTE   W04
        BYTE                   7
        BYTE   W02
        BYTE                   6
        BYTE   W04
        BYTE                   5
        BYTE   W02
        BYTE                   4
        BYTE   W04
        BYTE                   3
        BYTE   W02
        BYTE                   2
        BYTE   W04
// 038   ----------------------------------------
Resident_Evil_2___Main_Hall_cued_9_38:
        BYTE           VOL     1
        BYTE   W02
        BYTE                   0
        BYTE   W02
        BYTE   PEND
        BYTE   FINE

//***************** Track 10 (Midi-Chn.11) *****************//

Resident_Evil_2___Main_Hall_cued_10:
        BYTE   KEYSH   Resident_Evil_2___Main_Hall_cued_key+0
// 000   ----------------------------------------
        BYTE           VOL     100
        BYTE   W48
        BYTE   W01
        BYTE           VOICE   60
        BYTE   W30
        BYTE   W01
Resident_Evil_2___Main_Hall_cued_10_LOOP:
        BYTE   W16
// 001   ----------------------------------------
        BYTE           PAN     c_v+46
        BYTE   W10
        BYTE           BENDR   70
        BYTE   W14
        BYTE                   55
        BYTE   W10
        BYTE                   65
        BYTE   W14
        BYTE           VOL     105
        BYTE   W48
// 002   ----------------------------------------
        BYTE                   100
        BYTE           PAN     c_v+0
        BYTE           BENDR   2
        BYTE   GoTo
         POIN2  Resident_Evil_2___Main_Hall_cued_10_LOOP
        BYTE   W96
// 003   ----------------------------------------
        BYTE   W96
// 004   ----------------------------------------
        BYTE   W96
// 005   ----------------------------------------
        BYTE   W96
// 006   ----------------------------------------
        BYTE   W96
// 007   ----------------------------------------
        BYTE   W96
// 008   ----------------------------------------
        BYTE   W96
// 009   ----------------------------------------
        BYTE   W78
        BYTE           VOL     105
        BYTE   W01
        BYTE           N11     Fn2   v120
        BYTE   W05
        BYTE           VOL     79
        BYTE   W07
        BYTE           N11     Gn2
        BYTE           VOL     105
        BYTE   W05
// 010   ----------------------------------------
Resident_Evil_2___Main_Hall_cued_10_10:
        BYTE           VOL     82
        BYTE   W07
        BYTE           N72     Gs2   v120
        BYTE           VOL     105
        BYTE   W05
        BYTE                   82
        BYTE   W66
        BYTE   W01
        BYTE           N24     As2
        BYTE           VOL     105
        BYTE   W05
        BYTE                   82
        BYTE   W12
        BYTE   PEND
// 011   ----------------------------------------
Resident_Evil_2___Main_Hall_cued_10_11:
        BYTE   W07
        BYTE           N96     Gn2   v090
        BYTE           VOL     105
        BYTE   W06
        BYTE                   103
        BYTE   W02
        BYTE                   102
        BYTE   W01
        BYTE                   101
        BYTE   W01
        BYTE                   100
        BYTE   W01
        BYTE                   99
        BYTE   W01
        BYTE                   98
        BYTE   W02
        BYTE                   97
        BYTE   W01
        BYTE                   96
        BYTE   W01
        BYTE                   94
        BYTE   W01
        BYTE                   93
        BYTE   W02
        BYTE                   92
        BYTE   W01
        BYTE                   91
        BYTE   W01
        BYTE                   90
        BYTE   W01
        BYTE                   89
        BYTE   W01
        BYTE                   88
        BYTE   W02
        BYTE                   87
        BYTE   W01
        BYTE                   85
        BYTE   W01
        BYTE                   84
        BYTE   W02
        BYTE                   83
        BYTE   W01
        BYTE                   82
        BYTE   W01
        BYTE                   81
        BYTE   W01
        BYTE                   80
        BYTE   W01
        BYTE                   79
        BYTE   W02
        BYTE                   77
        BYTE   W01
        BYTE                   76
        BYTE   W01
        BYTE                   75
        BYTE   W01
        BYTE                   74
        BYTE   W02
        BYTE                   73
        BYTE   W01
        BYTE                   72
        BYTE   W01
        BYTE                   71
        BYTE   W01
        BYTE                   70
        BYTE   W01
        BYTE                   69
        BYTE   W01
        BYTE                   68
        BYTE   W01
        BYTE                   67
        BYTE   W01
        BYTE                   66
        BYTE   W01
        BYTE                   65
        BYTE   W01
        BYTE                   64
        BYTE   W02
        BYTE                   63
        BYTE   W01
        BYTE                   62
        BYTE   W01
        BYTE                   61
        BYTE   W01
        BYTE                   60
        BYTE   W01
        BYTE                   59
        BYTE   W01
        BYTE                   58
        BYTE   W01
        BYTE                   57
        BYTE   W01
        BYTE                   56
        BYTE   W01
        BYTE                   55
        BYTE   W02
        BYTE                   54
        BYTE   W01
        BYTE                   53
        BYTE   W01
        BYTE                   52
        BYTE   W01
        BYTE                   50
        BYTE   W02
        BYTE                   49
        BYTE   W01
        BYTE                   48
        BYTE   W01
        BYTE                   47
        BYTE   W01
        BYTE                   46
        BYTE   W01
        BYTE                   45
        BYTE   W02
        BYTE                   44
        BYTE   W01
        BYTE                   42
        BYTE   W01
        BYTE                   41
        BYTE   W02
        BYTE                   40
        BYTE   W01
        BYTE                   39
        BYTE   W01
        BYTE                   38
        BYTE   W01
        BYTE                   37
        BYTE   W01
        BYTE                   36
        BYTE   W02
        BYTE                   35
        BYTE   W01
        BYTE                   33
        BYTE   W01
        BYTE                   32
        BYTE   W01
        BYTE                   31
        BYTE   W02
        BYTE                   30
        BYTE   W01
        BYTE                   29
        BYTE   W01
        BYTE   PEND
// 012   ----------------------------------------
Resident_Evil_2___Main_Hall_cued_10_12:
        BYTE           VOL     28
        BYTE   W01
        BYTE                   27
        BYTE   W01
        BYTE                   26
        BYTE   W01
        BYTE                   25
        BYTE   W11
        BYTE                   105
        BYTE   W80
        BYTE   W02
        BYTE   PEND
// 013   ----------------------------------------
        BYTE   W96
// 014   ----------------------------------------
        BYTE   W96
// 015   ----------------------------------------
        BYTE   W96
// 016   ----------------------------------------
        BYTE   W96
// 017   ----------------------------------------
        BYTE   W96
// 018   ----------------------------------------
        BYTE   W96
// 019   ----------------------------------------
        BYTE   W96
// 020   ----------------------------------------
        BYTE   W96
// 021   ----------------------------------------
        BYTE   W96
// 022   ----------------------------------------
        BYTE   W96
// 023   ----------------------------------------
        BYTE   W96
// 024   ----------------------------------------
        BYTE   W96
// 025   ----------------------------------------
        BYTE   W78
        BYTE   W01
        BYTE           N11     Fn2   v120
        BYTE   W05
        BYTE           VOL     79
        BYTE   W07
        BYTE           N11     Gn2
        BYTE           VOL     105
        BYTE   W05
// 026   ----------------------------------------
        BYTE   PATT
         POIN2  Resident_Evil_2___Main_Hall_cued_10_10
// 027   ----------------------------------------
        BYTE   PATT
         POIN2  Resident_Evil_2___Main_Hall_cued_10_11
// 028   ----------------------------------------
        BYTE   PATT
         POIN2  Resident_Evil_2___Main_Hall_cued_10_12
// 029   ----------------------------------------
        BYTE   W96
// 030   ----------------------------------------
        BYTE   W96
// 031   ----------------------------------------
        BYTE   W96
// 032   ----------------------------------------
        BYTE   W96
// 033   ----------------------------------------
        BYTE   W96
// 034   ----------------------------------------
        BYTE   W96
// 035   ----------------------------------------
        BYTE   W96
// 036   ----------------------------------------
        BYTE   W96
// 037   ----------------------------------------
        BYTE   W96
// 038   ----------------------------------------
        BYTE   W04
        BYTE   FINE

//***************** Track 11 (Midi-Chn.12) *****************//

Resident_Evil_2___Main_Hall_cued_11:
        BYTE   KEYSH   Resident_Evil_2___Main_Hall_cued_key+0
// 000   ----------------------------------------
        BYTE           VOL     100
        BYTE   W48
        BYTE   W01
        BYTE           VOICE   93
        BYTE   W23
        BYTE           VOL     105
        BYTE   W08
Resident_Evil_2___Main_Hall_cued_11_LOOP:
        BYTE   W16
// 001   ----------------------------------------
        BYTE   W32
        BYTE   W02
        BYTE           PAN     c_v-64
        BYTE   W14
        BYTE           BENDR   47
        BYTE   W04
        BYTE                   0
        BYTE   W08
        BYTE                   70
        BYTE   W14
        BYTE                   75
        BYTE   W22
// 002   ----------------------------------------
        BYTE           PAN     c_v+0
        BYTE           BENDR   2
        BYTE   GoTo
         POIN2  Resident_Evil_2___Main_Hall_cued_11_LOOP
        BYTE   W96
// 003   ----------------------------------------
        BYTE   W96
// 004   ----------------------------------------
        BYTE   W96
// 005   ----------------------------------------
        BYTE   W96
// 006   ----------------------------------------
        BYTE   W96
// 007   ----------------------------------------
        BYTE   W96
// 008   ----------------------------------------
        BYTE   W96
// 009   ----------------------------------------
        BYTE   W96
// 010   ----------------------------------------
        BYTE   W96
// 011   ----------------------------------------
        BYTE   W96
// 012   ----------------------------------------
        BYTE   W96
// 013   ----------------------------------------
        BYTE   W96
// 014   ----------------------------------------
Resident_Evil_2___Main_Hall_cued_11_14:
        BYTE   W06
        BYTE           TIE     Gn4   v120
        BYTE           TIE     Gn3   v060
        BYTE   W48
        BYTE                   Cn5   v120
        BYTE           TIE     Cn4   v060
        BYTE   W42
        BYTE   PEND
// 015   ----------------------------------------
Resident_Evil_2___Main_Hall_cued_11_15:
        BYTE   W06
        BYTE           TIE     As4   v120
        BYTE           TIE     As3   v060
        BYTE   W48
        BYTE                   Gs4   v120
        BYTE           TIE     Gs3   v060
        BYTE   W42
        BYTE   PEND
// 016   ----------------------------------------
Resident_Evil_2___Main_Hall_cued_11_16:
        BYTE   W06
        BYTE           EOT     Gn3
        BYTE                   Gn4
        BYTE   W48
        BYTE                   Cn4
        BYTE                   Cn5
        BYTE   W42
        BYTE   PEND
// 017   ----------------------------------------
Resident_Evil_2___Main_Hall_cued_11_17:
        BYTE   W06
        BYTE           EOT     As4
        BYTE                   As3
        BYTE   W48
        BYTE                   Gs3
        BYTE                   Gs4
        BYTE   W42
        BYTE   PEND
// 018   ----------------------------------------
        BYTE   W96
// 019   ----------------------------------------
        BYTE   W96
// 020   ----------------------------------------
        BYTE   W96
// 021   ----------------------------------------
        BYTE   W96
// 022   ----------------------------------------
        BYTE   W96
// 023   ----------------------------------------
        BYTE   W96
// 024   ----------------------------------------
        BYTE   W96
// 025   ----------------------------------------
        BYTE   W96
// 026   ----------------------------------------
        BYTE   W96
// 027   ----------------------------------------
        BYTE   W96
// 028   ----------------------------------------
        BYTE   W96
// 029   ----------------------------------------
        BYTE   W96
// 030   ----------------------------------------
        BYTE   PATT
         POIN2  Resident_Evil_2___Main_Hall_cued_11_14
// 031   ----------------------------------------
        BYTE   PATT
         POIN2  Resident_Evil_2___Main_Hall_cued_11_15
// 032   ----------------------------------------
        BYTE   PATT
         POIN2  Resident_Evil_2___Main_Hall_cued_11_16
// 033   ----------------------------------------
        BYTE   PATT
         POIN2  Resident_Evil_2___Main_Hall_cued_11_17
// 034   ----------------------------------------
        BYTE   W96
// 035   ----------------------------------------
        BYTE   W96
// 036   ----------------------------------------
        BYTE   W96
// 037   ----------------------------------------
        BYTE   W96
// 038   ----------------------------------------
        BYTE   W04
        BYTE   FINE

//***************** Track 12 (Midi-Chn.13) *****************//

Resident_Evil_2___Main_Hall_cued_12:
        BYTE   KEYSH   Resident_Evil_2___Main_Hall_cued_key+0
// 000   ----------------------------------------
        BYTE           VOL     100
        BYTE   W48
        BYTE           VOICE   102
        BYTE   W16
        BYTE           VOL     94
        BYTE   W16
Resident_Evil_2___Main_Hall_cued_12_LOOP:
        BYTE   W08
        BYTE           PAN     c_v-64
        BYTE   W08
// 001   ----------------------------------------
        BYTE   W06
        BYTE           BENDR   105
        BYTE   W10
        BYTE                   82
        BYTE   W06
        BYTE                   90
        BYTE   W08
        BYTE                   120
        BYTE   W10
        BYTE                   70
        BYTE   W56
// 002   ----------------------------------------
        BYTE           PAN     c_v+0
        BYTE           BENDR   2
        BYTE   GoTo
         POIN2  Resident_Evil_2___Main_Hall_cued_12_LOOP
        BYTE   W06
        BYTE           BEND    c_v+11
        BYTE           N48     Cn3   v120
        BYTE   W01
        BYTE           BEND    c_v+10
        BYTE   W01
        BYTE                   c_v+9
        BYTE   W01
        BYTE                   c_v+6
        BYTE   W01
        BYTE                   c_v+5
        BYTE   W01
        BYTE                   c_v+3
        BYTE   W01
        BYTE                   c_v+0
        BYTE   W42
        BYTE           N48     Gn3
        BYTE   W42
// 003   ----------------------------------------
Resident_Evil_2___Main_Hall_cued_12_3:
        BYTE   W06
        BYTE           N92     Gs3   v120   gtp2
        BYTE   W90
        BYTE   PEND
// 004   ----------------------------------------
        BYTE   W96
// 005   ----------------------------------------
Resident_Evil_2___Main_Hall_cued_12_5:
        BYTE   W06
        BYTE           TIE     Fs3   v120
        BYTE           VOL     79
        BYTE   W02
        BYTE                   80
        BYTE   W02
        BYTE                   81
        BYTE   W01
        BYTE                   82
        BYTE   W01
        BYTE                   83
        BYTE   W01
        BYTE                   84
        BYTE   W01
        BYTE                   85
        BYTE   W01
        BYTE                   86
        BYTE   W01
        BYTE                   87
        BYTE   W02
        BYTE                   89
        BYTE   W01
        BYTE                   90
        BYTE   W01
        BYTE                   91
        BYTE   W02
        BYTE                   92
        BYTE   W01
        BYTE                   93
        BYTE   W01
        BYTE                   94
        BYTE   W01
        BYTE                   95
        BYTE   W01
        BYTE                   96
        BYTE   W01
        BYTE                   97
        BYTE   W01
        BYTE                   98
        BYTE   W02
        BYTE                   100
        BYTE   W66
        BYTE   PEND
// 006   ----------------------------------------
Resident_Evil_2___Main_Hall_cued_12_6:
        BYTE   W10
        BYTE           EOT     Fs3
        BYTE   W44
        BYTE           N36     Gn3   v120
        BYTE   W36
        BYTE           N24     Cn3
        BYTE   W06
        BYTE   PEND
// 007   ----------------------------------------
        BYTE   W12
        BYTE           TIE     Gn3
        BYTE   W84
// 008   ----------------------------------------
        BYTE   W30
        BYTE   W01
        BYTE           EOT
        BYTE   W64
        BYTE   W01
// 009   ----------------------------------------
Resident_Evil_2___Main_Hall_cued_12_9:
        BYTE   W30
        BYTE           TIE     Gn4   v120
        BYTE   W24
        BYTE                   Fs4
        BYTE   W36
        BYTE                   Ds4
        BYTE   W06
        BYTE   PEND
// 010   ----------------------------------------
Resident_Evil_2___Main_Hall_cued_12_10:
        BYTE   W42
        BYTE           EOT     Gn4
        BYTE   W24
        BYTE                   Fs4
        BYTE   W30
        BYTE   PEND
// 011   ----------------------------------------
        BYTE                   Ds4
        BYTE   W96
// 012   ----------------------------------------
        BYTE   W96
// 013   ----------------------------------------
        BYTE   W96
// 014   ----------------------------------------
Resident_Evil_2___Main_Hall_cued_12_14:
        BYTE   W06
        BYTE           N48     Gn3   v120
        BYTE   W48
        BYTE                   Cn4
        BYTE   W42
        BYTE   PEND
// 015   ----------------------------------------
Resident_Evil_2___Main_Hall_cued_12_15:
        BYTE   W06
        BYTE           N48     As3   v120
        BYTE   W48
        BYTE                   Gs3
        BYTE   W42
        BYTE   PEND
// 016   ----------------------------------------
        BYTE   W96
// 017   ----------------------------------------
        BYTE   W96
// 018   ----------------------------------------
        BYTE   W06
        BYTE           BEND    c_v+11
        BYTE           N48     Cn3
        BYTE   W01
        BYTE           BEND    c_v+10
        BYTE   W01
        BYTE                   c_v+9
        BYTE   W01
        BYTE                   c_v+6
        BYTE   W01
        BYTE                   c_v+5
        BYTE   W01
        BYTE                   c_v+3
        BYTE   W01
        BYTE                   c_v+0
        BYTE   W42
        BYTE           N48     Gn3
        BYTE   W42
// 019   ----------------------------------------
        BYTE   PATT
         POIN2  Resident_Evil_2___Main_Hall_cued_12_3
// 020   ----------------------------------------
        BYTE   W96
// 021   ----------------------------------------
        BYTE   PATT
         POIN2  Resident_Evil_2___Main_Hall_cued_12_5
// 022   ----------------------------------------
        BYTE   PATT
         POIN2  Resident_Evil_2___Main_Hall_cued_12_6
// 023   ----------------------------------------
        BYTE   W12
        BYTE           TIE     Gn3   v120
        BYTE   W84
// 024   ----------------------------------------
        BYTE   W30
        BYTE   W01
        BYTE           EOT
        BYTE   W64
        BYTE   W01
// 025   ----------------------------------------
        BYTE   PATT
         POIN2  Resident_Evil_2___Main_Hall_cued_12_9
// 026   ----------------------------------------
        BYTE   PATT
         POIN2  Resident_Evil_2___Main_Hall_cued_12_10
// 027   ----------------------------------------
        BYTE           EOT     Ds4
        BYTE   W96
// 028   ----------------------------------------
        BYTE   W96
// 029   ----------------------------------------
        BYTE   W96
// 030   ----------------------------------------
        BYTE   PATT
         POIN2  Resident_Evil_2___Main_Hall_cued_12_14
// 031   ----------------------------------------
        BYTE   PATT
         POIN2  Resident_Evil_2___Main_Hall_cued_12_15
// 032   ----------------------------------------
        BYTE   W96
// 033   ----------------------------------------
        BYTE   W96
// 034   ----------------------------------------
        BYTE           VOL     99
        BYTE   W04
        BYTE                   98
        BYTE   W02
        BYTE           BEND    c_v+11
        BYTE           N48     Cn3   v120
        BYTE   W01
        BYTE           BEND    c_v+10
        BYTE   W01
        BYTE                   c_v+9
        BYTE   W01
        BYTE                   c_v+6
        BYTE   W01
        BYTE           VOL     97
        BYTE           BEND    c_v+5
        BYTE   W01
        BYTE                   c_v+3
        BYTE   W01
        BYTE                   c_v+0
        BYTE   W02
        BYTE           VOL     96
        BYTE   W02
        BYTE                   95
        BYTE   W04
        BYTE                   94
        BYTE   W06
        BYTE                   93
        BYTE   W02
        BYTE                   92
        BYTE   W04
        BYTE                   91
        BYTE   W06
        BYTE                   90
        BYTE   W02
        BYTE                   89
        BYTE   W04
        BYTE                   88
        BYTE   W02
        BYTE                   87
        BYTE   W06
        BYTE                   86
        BYTE   W02
        BYTE           N48     Gn3
        BYTE   W02
        BYTE           VOL     85
        BYTE   W02
        BYTE                   84
        BYTE   W04
        BYTE                   83
        BYTE   W06
        BYTE                   82
        BYTE   W02
        BYTE                   81
        BYTE   W04
        BYTE                   80
        BYTE   W06
        BYTE                   79
        BYTE   W02
        BYTE                   78
        BYTE   W04
        BYTE                   77
        BYTE   W02
        BYTE                   76
        BYTE   W06
        BYTE                   75
        BYTE   W02
// 035   ----------------------------------------
        BYTE   W02
        BYTE                   74
        BYTE   W04
        BYTE                   73
        BYTE           N92     Gs3   v120   gtp2
        BYTE   W02
        BYTE           VOL     72
        BYTE   W06
        BYTE                   71
        BYTE   W04
        BYTE                   70
        BYTE   W02
        BYTE                   69
        BYTE   W06
        BYTE                   68
        BYTE   W04
        BYTE                   67
        BYTE   W02
        BYTE                   66
        BYTE   W04
        BYTE                   65
        BYTE   W06
        BYTE                   64
        BYTE   W02
        BYTE                   63
        BYTE   W04
        BYTE                   62
        BYTE   W02
        BYTE                   61
        BYTE   W06
        BYTE                   60
        BYTE   W04
        BYTE                   59
        BYTE   W02
        BYTE                   58
        BYTE   W04
        BYTE                   57
        BYTE   W06
        BYTE                   56
        BYTE   W02
        BYTE                   55
        BYTE   W04
        BYTE                   54
        BYTE   W06
        BYTE                   53
        BYTE   W02
        BYTE                   52
        BYTE   W04
        BYTE                   51
        BYTE   W02
        BYTE                   50
        BYTE   W04
// 036   ----------------------------------------
        BYTE   W96
// 037   ----------------------------------------
        BYTE   W02
        BYTE                   0
        BYTE   W02
        BYTE                   2
        BYTE   W02
        BYTE                   5
        BYTE           N84     Fs3   v120   gtp2
        BYTE   W02
        BYTE           VOL     8
        BYTE   W02
        BYTE                   10
        BYTE   W02
        BYTE                   13
        BYTE   W02
        BYTE                   16
        BYTE   W02
        BYTE                   18
        BYTE   W02
        BYTE                   21
        BYTE   W02
        BYTE                   20
        BYTE   W02
        BYTE                   19
        BYTE   W04
        BYTE                   18
        BYTE   W02
        BYTE                   17
        BYTE   W06
        BYTE                   16
        BYTE   W04
        BYTE                   15
        BYTE   W02
        BYTE                   14
        BYTE   W04
        BYTE                   13
        BYTE   W06
        BYTE                   12
        BYTE   W02
        BYTE                   11
        BYTE   W04
        BYTE                   10
        BYTE   W02
        BYTE                   9
        BYTE   W06
        BYTE                   8
        BYTE   W04
        BYTE                   7
        BYTE   W02
        BYTE                   6
        BYTE   W06
        BYTE                   5
        BYTE   W04
        BYTE                   4
        BYTE   W02
        BYTE                   3
        BYTE   W04
        BYTE                   2
        BYTE   W06
        BYTE                   1
        BYTE   W02
        BYTE                   0
        BYTE   W02
// 038   ----------------------------------------
        BYTE   W04
        BYTE   FINE

//***************** Track 13 (Midi-Chn.14) *****************//

Resident_Evil_2___Main_Hall_cued_13:
        BYTE   KEYSH   Resident_Evil_2___Main_Hall_cued_key+0
// 000   ----------------------------------------
        BYTE           VOL     100
        BYTE   W48
        BYTE   W01
        BYTE           VOICE   112
        BYTE   W30
        BYTE   W01
Resident_Evil_2___Main_Hall_cued_13_LOOP:
        BYTE   W10
        BYTE           PAN     c_v+63
        BYTE   W06
// 001   ----------------------------------------
        BYTE           BENDR   127
        BYTE   W24
        BYTE                   25
        BYTE   W10
        BYTE           VOL     120
        BYTE   W14
        BYTE           BENDR   0
        BYTE   W10
        BYTE           BEND    c_v+1
        BYTE   W36
        BYTE   W02
// 002   ----------------------------------------
        BYTE           VOL     100
        BYTE           PAN     c_v+0
        BYTE           BEND    c_v+0
        BYTE           BENDR   2
        BYTE   GoTo
         POIN2  Resident_Evil_2___Main_Hall_cued_13_LOOP
        BYTE   W96
// 003   ----------------------------------------
        BYTE   W96
// 004   ----------------------------------------
        BYTE           N72     As3   v120
        BYTE   W96
// 005   ----------------------------------------
        BYTE   W96
// 006   ----------------------------------------
        BYTE   W96
// 007   ----------------------------------------
        BYTE   W96
// 008   ----------------------------------------
        BYTE                   As3
        BYTE   W96
// 009   ----------------------------------------
        BYTE   W96
// 010   ----------------------------------------
        BYTE   W96
// 011   ----------------------------------------
        BYTE   W96
// 012   ----------------------------------------
        BYTE                   As3
        BYTE   W96
// 013   ----------------------------------------
        BYTE   W96
// 014   ----------------------------------------
        BYTE   W96
// 015   ----------------------------------------
        BYTE   W96
// 016   ----------------------------------------
        BYTE   W96
// 017   ----------------------------------------
        BYTE   W96
// 018   ----------------------------------------
        BYTE   W96
// 019   ----------------------------------------
        BYTE   W96
// 020   ----------------------------------------
        BYTE                   As3
        BYTE   W96
// 021   ----------------------------------------
        BYTE   W96
// 022   ----------------------------------------
        BYTE   W96
// 023   ----------------------------------------
        BYTE   W96
// 024   ----------------------------------------
        BYTE                   As3
        BYTE   W96
// 025   ----------------------------------------
        BYTE   W96
// 026   ----------------------------------------
        BYTE   W96
// 027   ----------------------------------------
        BYTE   W96
// 028   ----------------------------------------
        BYTE                   As3
        BYTE   W96
// 029   ----------------------------------------
        BYTE   W96
// 030   ----------------------------------------
        BYTE   W96
// 031   ----------------------------------------
        BYTE   W96
// 032   ----------------------------------------
        BYTE   W96
// 033   ----------------------------------------
        BYTE   W96
// 034   ----------------------------------------
        BYTE   W96
// 035   ----------------------------------------
        BYTE   W92
        BYTE           VOL     60
        BYTE   W04
// 036   ----------------------------------------
        BYTE           N72
        BYTE   W02
        BYTE           VOL     59
        BYTE   W04
        BYTE                   58
        BYTE   W02
        BYTE                   57
        BYTE   W04
        BYTE                   56
        BYTE   W02
        BYTE                   55
        BYTE   W04
        BYTE                   54
        BYTE   W02
        BYTE                   53
        BYTE   W04
        BYTE                   52
        BYTE   W02
        BYTE                   51
        BYTE   W04
        BYTE                   50
        BYTE   W02
        BYTE                   49
        BYTE   W04
        BYTE                   48
        BYTE   W02
        BYTE                   47
        BYTE   W04
        BYTE                   46
        BYTE   W02
        BYTE                   45
        BYTE   W04
        BYTE                   44
        BYTE   W02
        BYTE                   43
        BYTE   W06
        BYTE                   42
        BYTE   W04
        BYTE                   41
        BYTE   W02
        BYTE                   40
        BYTE   W04
        BYTE                   39
        BYTE   W04
        BYTE                   38
        BYTE   W02
        BYTE                   37
        BYTE   W04
        BYTE                   36
        BYTE   W02
        BYTE                   35
        BYTE   W04
        BYTE                   34
        BYTE   W02
        BYTE                   33
        BYTE   W04
        BYTE                   32
        BYTE   W02
        BYTE                   31
        BYTE   W04
        BYTE                   30
        BYTE   W02
// 037   ----------------------------------------
        BYTE                   29
        BYTE   W04
        BYTE                   28
        BYTE   W02
        BYTE                   27
        BYTE   W04
        BYTE                   26
        BYTE   W06
        BYTE                   25
        BYTE   W02
        BYTE                   24
        BYTE   W04
        BYTE                   23
        BYTE   W02
        BYTE                   22
        BYTE   W04
        BYTE                   21
        BYTE   W02
        BYTE                   20
        BYTE   W04
        BYTE                   19
        BYTE   W04
        BYTE                   18
        BYTE   W02
        BYTE                   17
        BYTE   W04
        BYTE                   16
        BYTE   W02
        BYTE                   15
        BYTE   W04
        BYTE                   14
        BYTE   W02
        BYTE                   13
        BYTE   W04
        BYTE                   12
        BYTE   W02
        BYTE                   11
        BYTE   W04
        BYTE                   10
        BYTE   W02
        BYTE                   9
        BYTE   W06
        BYTE                   8
        BYTE   W24
        BYTE   W02
// 038   ----------------------------------------
        BYTE   W04
        BYTE   FINE

//***************** Track 14 (Midi-Chn.15) *****************//

Resident_Evil_2___Main_Hall_cued_14:
        BYTE   KEYSH   Resident_Evil_2___Main_Hall_cued_key+0
// 000   ----------------------------------------
        BYTE           VOL     100
        BYTE   W44
        BYTE   W03
        BYTE           VOICE   89
        BYTE   W32
        BYTE   W01
Resident_Evil_2___Main_Hall_cued_14_LOOP:
        BYTE   W07
        BYTE           VOL     127
        BYTE   W09
// 001   ----------------------------------------
        BYTE   PATT
         POIN2  Resident_Evil_2___Main_Hall_cued_5_1
// 002   ----------------------------------------
        BYTE           VOL     100
        BYTE           BENDR   2
        BYTE   GoTo
         POIN2  Resident_Evil_2___Main_Hall_cued_14_LOOP
        BYTE   W96
// 003   ----------------------------------------
        BYTE   W96
// 004   ----------------------------------------
        BYTE   W96
// 005   ----------------------------------------
Resident_Evil_2___Main_Hall_cued_14_5:
        BYTE           TIE     Cn4   v127
        BYTE   W92
        BYTE   W02
        BYTE           VOL     126
        BYTE   W01
        BYTE                   122
        BYTE   W01
        BYTE   PEND
// 006   ----------------------------------------
        BYTE   PATT
         POIN2  Resident_Evil_2___Main_Hall_cued_5_6
// 007   ----------------------------------------
        BYTE   W13
        BYTE           VOL     126
        BYTE   W80
        BYTE   W03
// 008   ----------------------------------------
        BYTE   W96
// 009   ----------------------------------------
        BYTE   W96
// 010   ----------------------------------------
        BYTE   W96
// 011   ----------------------------------------
        BYTE   W96
// 012   ----------------------------------------
        BYTE   W96
// 013   ----------------------------------------
        BYTE   W66
        BYTE   W01
        BYTE                   127
        BYTE   W28
        BYTE   W01
// 014   ----------------------------------------
        BYTE   PATT
         POIN2  Resident_Evil_2___Main_Hall_cued_5_14
// 015   ----------------------------------------
        BYTE   PATT
         POIN2  Resident_Evil_2___Main_Hall_cued_5_15
// 016   ----------------------------------------
        BYTE   PATT
         POIN2  Resident_Evil_2___Main_Hall_cued_5_16
// 017   ----------------------------------------
        BYTE   PATT
         POIN2  Resident_Evil_2___Main_Hall_cued_5_17
// 018   ----------------------------------------
        BYTE           VOL     127
        BYTE   W96
// 019   ----------------------------------------
        BYTE   W96
// 020   ----------------------------------------
        BYTE   W96
// 021   ----------------------------------------
        BYTE   PATT
         POIN2  Resident_Evil_2___Main_Hall_cued_14_5
// 022   ----------------------------------------
        BYTE   PATT
         POIN2  Resident_Evil_2___Main_Hall_cued_5_6
// 023   ----------------------------------------
        BYTE   W13
        BYTE           VOL     126
        BYTE   W80
        BYTE   W03
// 024   ----------------------------------------
        BYTE   W96
// 025   ----------------------------------------
        BYTE   W96
// 026   ----------------------------------------
        BYTE   W96
// 027   ----------------------------------------
        BYTE   W96
// 028   ----------------------------------------
        BYTE   W96
// 029   ----------------------------------------
        BYTE   W66
        BYTE   W01
        BYTE                   127
        BYTE   W28
        BYTE   W01
// 030   ----------------------------------------
        BYTE   PATT
         POIN2  Resident_Evil_2___Main_Hall_cued_5_14
// 031   ----------------------------------------
        BYTE   PATT
         POIN2  Resident_Evil_2___Main_Hall_cued_5_15
// 032   ----------------------------------------
        BYTE   PATT
         POIN2  Resident_Evil_2___Main_Hall_cued_5_16
// 033   ----------------------------------------
        BYTE   PATT
         POIN2  Resident_Evil_2___Main_Hall_cued_5_17
// 034   ----------------------------------------
        BYTE   W96
// 035   ----------------------------------------
        BYTE   W96
// 036   ----------------------------------------
        BYTE   W96
// 037   ----------------------------------------
        BYTE           VOL     32
        BYTE           N96     Cn4   v127
        BYTE   W02
        BYTE           VOL     31
        BYTE   W04
        BYTE                   30
        BYTE   W04
        BYTE                   29
        BYTE   W02
        BYTE                   28
        BYTE   W04
        BYTE                   27
        BYTE   W02
        BYTE                   26
        BYTE   W04
        BYTE                   25
        BYTE   W02
        BYTE                   24
        BYTE   W04
        BYTE                   23
        BYTE   W02
        BYTE                   22
        BYTE   W04
        BYTE                   21
        BYTE   W04
        BYTE                   20
        BYTE   W02
        BYTE                   19
        BYTE   W04
        BYTE                   18
        BYTE   W02
        BYTE                   17
        BYTE   W04
        BYTE                   16
        BYTE   W02
        BYTE                   15
        BYTE   W04
        BYTE                   14
        BYTE   W02
        BYTE                   13
        BYTE   W04
        BYTE                   12
        BYTE   W02
        BYTE                   11
        BYTE   W04
        BYTE                   10
        BYTE   W04
        BYTE                   9
        BYTE   W02
        BYTE                   8
        BYTE   W04
        BYTE                   7
        BYTE   W02
        BYTE                   6
        BYTE   W04
        BYTE                   5
        BYTE   W02
        BYTE                   4
        BYTE   W04
        BYTE                   3
        BYTE   W02
        BYTE                   2
        BYTE   W04
// 038   ----------------------------------------
        BYTE   PATT
         POIN2  Resident_Evil_2___Main_Hall_cued_9_38
        BYTE   FINE


//********************** End of Song ***********************//

	ALIGN 4
Resident_Evil_2___Main_Hall_cued:
        BYTE   15
        BYTE   0
        BYTE   Resident_Evil_2___Main_Hall_cued_pri
        BYTE   Resident_Evil_2___Main_Hall_cued_rev

        POIN2   Resident_Evil_2___Main_Hall_cued_grp

        POIN2   Resident_Evil_2___Main_Hall_cued_0
        POIN2   Resident_Evil_2___Main_Hall_cued_1
        POIN2   Resident_Evil_2___Main_Hall_cued_2
        POIN2   Resident_Evil_2___Main_Hall_cued_3
        POIN2   Resident_Evil_2___Main_Hall_cued_4
        POIN2   Resident_Evil_2___Main_Hall_cued_5
        POIN2   Resident_Evil_2___Main_Hall_cued_6
        POIN2   Resident_Evil_2___Main_Hall_cued_7
        POIN2   Resident_Evil_2___Main_Hall_cued_8
        POIN2   Resident_Evil_2___Main_Hall_cued_9
        POIN2   Resident_Evil_2___Main_Hall_cued_10
        POIN2   Resident_Evil_2___Main_Hall_cued_11
        POIN2   Resident_Evil_2___Main_Hall_cued_12
        POIN2   Resident_Evil_2___Main_Hall_cued_13
        POIN2   Resident_Evil_2___Main_Hall_cued_14
