//Event file generated from Sappy .s format.
	#include "MPlayDef.event"

	#define	song13_grp  voicegroup000
	#define	song13_pri  0
	#define	song13_rev  0
	#define	song13_mvl  127
	#define	song13_key  0
	#define	song13_tbs  1
	#define	song13_exg  0
	#define	song13_cmp  1

	// .rodata
	//	song13
	ALIGN 4


//**************** Track 1 (Midi-Chn.0) ****************//

song13_001:
// 000   ----------------------------------------
 BYTE   KEYSH   song13_key+0
Label_0_01436C2A:
 BYTE   TEMPO   140*song13_tbs/2
 BYTE   VOICE   32
 BYTE   MODT 0
 BYTE   CnM2  v000
 BYTE   LFOS 0
 BYTE   CnM2  v044
 BYTE   W04
 BYTE   VOL   47*song13_mvl/mxv
 BYTE   W92
// 001   ----------------------------------------
 BYTE   W96
// 002   ----------------------------------------
 BYTE   W96
// 003   ----------------------------------------
 BYTE   W96
// 004   ----------------------------------------
 BYTE   W96
// 005   ----------------------------------------
 BYTE   W96
// 006   ----------------------------------------
 BYTE   W96
// 007   ----------------------------------------
 BYTE   W96
// 008   ----------------------------------------
 BYTE   W96
// 009   ----------------------------------------
 BYTE   W96
// 010   ----------------------------------------
 BYTE   W96
// 011   ----------------------------------------
 BYTE   W96
// 012   ----------------------------------------
 BYTE   W96
// 013   ----------------------------------------
 BYTE   W96
// 014   ----------------------------------------
 BYTE   W96
// 015   ----------------------------------------
 BYTE   W96
// 016   ----------------------------------------
 BYTE   W96
// 017   ----------------------------------------
 BYTE   W96
// 018   ----------------------------------------
 BYTE   W96
// 019   ----------------------------------------
 BYTE   W96
// 020   ----------------------------------------
 BYTE   W96
// 021   ----------------------------------------
 BYTE   W96
// 022   ----------------------------------------
 BYTE   W96
// 023   ----------------------------------------
 BYTE   W96
// 024   ----------------------------------------
 BYTE   W96
// 025   ----------------------------------------
 BYTE   W96
// 026   ----------------------------------------
 BYTE   W96
// 027   ----------------------------------------
 BYTE   W96
// 028   ----------------------------------------
 BYTE   W96
// 029   ----------------------------------------
 BYTE   W96
// 030   ----------------------------------------
 BYTE   W96
// 031   ----------------------------------------
 BYTE   W96
// 032   ----------------------------------------
 BYTE   W96
// 033   ----------------------------------------
 BYTE   W96
// 034   ----------------------------------------
 BYTE   W96
// 035   ----------------------------------------
 BYTE   W96
// 036   ----------------------------------------
 BYTE   W96
// 037   ----------------------------------------
 BYTE   W96
// 038   ----------------------------------------
 BYTE   W96
// 039   ----------------------------------------
 BYTE   W96
// 040   ----------------------------------------
 BYTE   W96
// 041   ----------------------------------------
 BYTE   W96
// 042   ----------------------------------------
 BYTE   W96
// 043   ----------------------------------------
 BYTE   W96
// 044   ----------------------------------------
 BYTE   W96
// 045   ----------------------------------------
 BYTE   W96
// 046   ----------------------------------------
 BYTE   W96
// 047   ----------------------------------------
 BYTE   W96
// 048   ----------------------------------------
 BYTE   W96
// 049   ----------------------------------------
 BYTE   W96
// 050   ----------------------------------------
 BYTE   W96
// 051   ----------------------------------------
 BYTE   W96
// 052   ----------------------------------------
 BYTE   W96
// 053   ----------------------------------------
 BYTE   W96
// 054   ----------------------------------------
 BYTE   W96
// 055   ----------------------------------------
 BYTE   W96
// 056   ----------------------------------------
Label_0_01436C6F:
 BYTE   N05  Dn3  v108
 BYTE   W12
 BYTE   N07  Gn4
 BYTE   W12
 BYTE   N06  An4  v104
 BYTE   W12
 BYTE   Gn2  v108
 BYTE   W12
 BYTE   N07  Fn4  v104
 BYTE   W12
 BYTE   N06  Gn4
 BYTE   W12
 BYTE   N05  En3  v100
 BYTE   N07  En5  v104
 BYTE   W12
 BYTE   N06  Cn3  v088
 BYTE   W12
 BYTE   PEND 
// 057   ----------------------------------------
Label_0_01436C90:
 BYTE   N06  Dn3  v100
 BYTE   W12
 BYTE   N07  Gn4  v104
 BYTE   W12
 BYTE   N04  An4  v096
 BYTE   W12
 BYTE   N07  Gn2  v104
 BYTE   N06  Fn5
 BYTE   W12
 BYTE   N05  En5  v100
 BYTE   W12
 BYTE   N06  Cn5  v092
 BYTE   W12
 BYTE   N05  Fn2  v108
 BYTE   N07  Fn4  v104
 BYTE   W12
 BYTE   N05  Cn3  v100
 BYTE   N08  Gn4  v104
 BYTE   W12
 BYTE   PEND 
// 058   ----------------------------------------
Label_0_01436CB9:
 BYTE   N05  Dn3  v108
 BYTE   W12
 BYTE   N07  Gn4  v104
 BYTE   W12
 BYTE   An4
 BYTE   W12
 BYTE   N06  Gn2  v108
 BYTE   W12
 BYTE   N07  Fn4  v100
 BYTE   W12
 BYTE   N06  Gn4  v096
 BYTE   W12
 BYTE   N05  En3  v100
 BYTE   N06  En5  v108
 BYTE   W12
 BYTE   Cn3  v088
 BYTE   W12
 BYTE   PEND 
// 059   ----------------------------------------
Label_0_01436CDA:
 BYTE   N04  Dn3  v096
 BYTE   W12
 BYTE   N06  Gn4
 BYTE   W12
 BYTE   N04  An4  v092
 BYTE   W12
 BYTE   N05  Gn2  v100
 BYTE   N06  Fn5
 BYTE   W12
 BYTE   En5  v096
 BYTE   W12
 BYTE   Fn3  v092
 BYTE   N06  Cn5  v100
 BYTE   W12
 BYTE   N05  Fn2
 BYTE   N06  Fn4  v104
 BYTE   W12
 BYTE   N05  Cn3  v088
 BYTE   N06  Gn4  v100
 BYTE   W12
 BYTE   PEND 
 BYTE   PATT
  POIN2 Label_0_01436C6F
 BYTE   PATT
  POIN2 Label_0_01436C90
 BYTE   PATT
  POIN2 Label_0_01436CB9
 BYTE   PATT
  POIN2 Label_0_01436CDA
// 060   ----------------------------------------
 BYTE   GoTo
  POIN2 Label_0_01436C2A
// 061   ----------------------------------------
 BYTE   W96
// 062   ----------------------------------------
 BYTE   W96
// 063   ----------------------------------------
 BYTE   W96
// 064   ----------------------------------------
 BYTE   W96
// 065   ----------------------------------------
 BYTE   W96
// 066   ----------------------------------------
 BYTE   W96
// 067   ----------------------------------------
 BYTE   W96
// 068   ----------------------------------------
 BYTE   W92
 BYTE   W02
 BYTE   FINE

//**************** Track 2 (Midi-Chn.1) ****************//

song13_002:
// 000   ----------------------------------------
 BYTE   KEYSH   song13_key+0
Label_1_01436D2A:
 BYTE   VOICE   24
 BYTE   MODT 0
 BYTE   CnM2  v000
 BYTE   LFOS 0
 BYTE   CnM2  v044
 BYTE   VOL   65*song13_mvl/mxv
 BYTE   N36  Dn2  v108
 BYTE   N13  Gn2  v104
 BYTE   W12
 BYTE   Cn3  v060
 BYTE   W12
 BYTE   Fn3  v068
 BYTE   W12
 BYTE   N44  Gn1  v104
 BYTE   N14  Dn3  v072
 BYTE   W12
 BYTE   N12  An2
 BYTE   W12
 BYTE   Cn3  v056
 BYTE   W12
 BYTE   N08  En2  v092
 BYTE   N24  Bn2  v080
 BYTE   N24  Gn3  v092
 BYTE   W12
 BYTE   N08  Cn2  v080
 BYTE   W12
// 001   ----------------------------------------
Label_1_01436D5C:
 BYTE   N32  Dn2  v100
 BYTE   N14  Gn2
 BYTE   W12
 BYTE   N12  Cn3  v060
 BYTE   W12
 BYTE   N13  Fn3  v084
 BYTE   W12
 BYTE   N44  Gn1  v100
 BYTE   N14  Dn3  v092
 BYTE   W12
 BYTE   N12  An2  v084
 BYTE   W12
 BYTE   N11  Cn3  v064
 BYTE   W12
 BYTE   N10  En2  v100
 BYTE   N24  Bn2  v072
 BYTE   N24  Gn3  v092
 BYTE   W12
 BYTE   N08  Cn2
 BYTE   W12
 BYTE   PEND 
// 002   ----------------------------------------
Label_1_01436D87:
 BYTE   N36  Dn2  v100
 BYTE   N14  Gn2
 BYTE   W12
 BYTE   N13  Cn3  v076
 BYTE   W12
 BYTE   Fn3  v092
 BYTE   W12
 BYTE   N44  Gn1  v104
 BYTE   N14  Dn3  v092
 BYTE   W12
 BYTE   N11  An2  v088
 BYTE   W12
 BYTE   Cn3  v056
 BYTE   W12
 BYTE   N10  En2  v100
 BYTE   N24  Bn2  v072
 BYTE   N24  Gn3  v092
 BYTE   W12
 BYTE   N08  Cn2
 BYTE   W12
 BYTE   PEND 
// 003   ----------------------------------------
Label_1_01436DB0:
 BYTE   N32  Dn2  v104
 BYTE   N14  Gn2  v100
 BYTE   W12
 BYTE   Cn3  v072
 BYTE   W12
 BYTE   N15  Fn3  v092
 BYTE   W11
 BYTE   N24  Dn3  v088
 BYTE   W01
 BYTE   N36  Gn1  v100
 BYTE   W12
 BYTE   N12  An2  v080
 BYTE   W12
 BYTE   Cn3  v044
 BYTE   N15  Gn3  v092
 BYTE   W12
 BYTE   N10  En2  v096
 BYTE   N13  Bn2  v080
 BYTE   N13  En3  v100
 BYTE   W12
 BYTE   N09  Cn2  v096
 BYTE   N14  Cn3
 BYTE   W12
 BYTE   PEND 
// 004   ----------------------------------------
Label_1_01436DE1:
 BYTE   VOL   65*song13_mvl/mxv
 BYTE   N36  Dn2  v108
 BYTE   N13  Gn2  v104
 BYTE   W12
 BYTE   Cn3  v060
 BYTE   W12
 BYTE   Fn3  v068
 BYTE   W12
 BYTE   N44  Gn1  v104
 BYTE   N14  Dn3  v072
 BYTE   W12
 BYTE   N12  An2
 BYTE   W12
 BYTE   Cn3  v056
 BYTE   W12
 BYTE   N08  En2  v092
 BYTE   N24  Bn2  v080
 BYTE   N24  Gn3  v092
 BYTE   W12
 BYTE   N08  Cn2  v080
 BYTE   W12
 BYTE   PEND 
 BYTE   PATT
  POIN2 Label_1_01436D5C
 BYTE   PATT
  POIN2 Label_1_01436D87
 BYTE   PATT
  POIN2 Label_1_01436DB0
// 005   ----------------------------------------
 BYTE   VOL   65*song13_mvl/mxv
 BYTE   N36  Dn2  v108
 BYTE   N13  Gn2  v104
 BYTE   W12
 BYTE   Cn3  v060
 BYTE   W12
 BYTE   Fn3  v068
 BYTE   W12
 BYTE   N44  Gn1  v104
 BYTE   N14  Dn3  v072
 BYTE   W12
 BYTE   N12  An2
 BYTE   W12
 BYTE   Cn3  v056
 BYTE   W12
 BYTE   N08  En2  v092
 BYTE   N24  Bn2  v080
 BYTE   N24  Gn3  v092
 BYTE   W12
 BYTE   N08  Cn2  v080
 BYTE   W12
 BYTE   PATT
  POIN2 Label_1_01436D5C
 BYTE   PATT
  POIN2 Label_1_01436D87
// 006   ----------------------------------------
Label_1_01436E4F:
 BYTE   N32  Dn2  v104
 BYTE   N14  Gn2  v100
 BYTE   W12
 BYTE   Cn3  v072
 BYTE   W12
 BYTE   N15  Fn3  v092
 BYTE   W11
 BYTE   N24  Dn3  v088
 BYTE   W01
 BYTE   N36  Gn1  v100
 BYTE   W12
 BYTE   N12  An2  v080
 BYTE   W12
 BYTE   Cn3  v044
 BYTE   N14  Gn3  v092
 BYTE   W12
 BYTE   N10  En2  v096
 BYTE   N13  Bn2  v080
 BYTE   N13  En3  v100
 BYTE   W12
 BYTE   N09  Cn2  v096
 BYTE   N14  Cn3
 BYTE   W12
 BYTE   PEND 
 BYTE   PATT
  POIN2 Label_1_01436DE1
 BYTE   PATT
  POIN2 Label_1_01436D5C
 BYTE   PATT
  POIN2 Label_1_01436D87
 BYTE   PATT
  POIN2 Label_1_01436E4F
// 007   ----------------------------------------
Label_1_01436E94:
 BYTE   N36  Ds2  v108
 BYTE   N13  Gs2  v104
 BYTE   W12
 BYTE   Cs3  v060
 BYTE   W12
 BYTE   Fs3  v068
 BYTE   W12
 BYTE   N44  Gs1  v104
 BYTE   N14  Ds3  v072
 BYTE   W12
 BYTE   N12  As2
 BYTE   W12
 BYTE   Cs3  v056
 BYTE   W12
 BYTE   N08  Fn2  v092
 BYTE   N24  Cn3  v080
 BYTE   N24  Gs3  v092
 BYTE   W12
 BYTE   N08  Cs2  v080
 BYTE   W12
 BYTE   PEND 
// 008   ----------------------------------------
Label_1_01436EBD:
 BYTE   N32  Ds2  v100
 BYTE   N14  Gs2
 BYTE   W12
 BYTE   N12  Cs3  v060
 BYTE   W12
 BYTE   N13  Fs3  v084
 BYTE   W12
 BYTE   N44  Gs1  v100
 BYTE   N14  Ds3  v092
 BYTE   W12
 BYTE   N12  As2  v084
 BYTE   W12
 BYTE   N11  Cs3  v064
 BYTE   W12
 BYTE   N10  Fn2  v100
 BYTE   N24  Cn3  v072
 BYTE   N24  Gs3  v092
 BYTE   W12
 BYTE   N08  Cs2
 BYTE   W12
 BYTE   PEND 
// 009   ----------------------------------------
Label_1_01436EE8:
 BYTE   N36  Ds2  v100
 BYTE   N14  Gs2
 BYTE   W12
 BYTE   N13  Cs3  v076
 BYTE   W12
 BYTE   Fs3  v092
 BYTE   W12
 BYTE   N44  Gs1  v104
 BYTE   N14  Ds3  v092
 BYTE   W12
 BYTE   N11  As2  v088
 BYTE   W12
 BYTE   Cs3  v056
 BYTE   W12
 BYTE   N10  Fn2  v100
 BYTE   N24  Cn3  v072
 BYTE   N24  Gs3  v092
 BYTE   W12
 BYTE   N08  Cs2
 BYTE   W12
 BYTE   PEND 
// 010   ----------------------------------------
Label_1_01436F11:
 BYTE   N32  Ds2  v104
 BYTE   N14  Gs2  v100
 BYTE   W12
 BYTE   Cs3  v072
 BYTE   W12
 BYTE   N15  Fs3  v092
 BYTE   W11
 BYTE   N24  Ds3  v088
 BYTE   W01
 BYTE   N36  Gs1  v100
 BYTE   W12
 BYTE   N12  As2  v080
 BYTE   W12
 BYTE   Cs3  v044
 BYTE   N14  Gs3  v092
 BYTE   W12
 BYTE   N10  Fn2  v096
 BYTE   N13  Cn3  v080
 BYTE   N13  Fn3  v100
 BYTE   W12
 BYTE   N09  Cs2  v096
 BYTE   N14  Cs3
 BYTE   W12
 BYTE   PEND 
 BYTE   PATT
  POIN2 Label_1_01436E94
 BYTE   PATT
  POIN2 Label_1_01436EBD
 BYTE   PATT
  POIN2 Label_1_01436EE8
 BYTE   PATT
  POIN2 Label_1_01436F11
// 011   ----------------------------------------
Label_1_01436F56:
 BYTE   N36  Dn2  v108
 BYTE   N13  Gn2  v104
 BYTE   W12
 BYTE   Cn3  v060
 BYTE   W12
 BYTE   Fn3  v068
 BYTE   W12
 BYTE   N44  Gn1  v104
 BYTE   N14  Dn3  v072
 BYTE   W12
 BYTE   N12  An2
 BYTE   W12
 BYTE   Cn3  v056
 BYTE   W12
 BYTE   N08  En2  v092
 BYTE   N24  Bn2  v080
 BYTE   N24  Gn3  v092
 BYTE   W12
 BYTE   N08  Cn2  v080
 BYTE   W12
 BYTE   PEND 
 BYTE   PATT
  POIN2 Label_1_01436D5C
 BYTE   PATT
  POIN2 Label_1_01436D87
 BYTE   PATT
  POIN2 Label_1_01436E4F
 BYTE   PATT
  POIN2 Label_1_01436F56
 BYTE   PATT
  POIN2 Label_1_01436D5C
 BYTE   PATT
  POIN2 Label_1_01436D87
 BYTE   PATT
  POIN2 Label_1_01436E4F
 BYTE   PATT
  POIN2 Label_1_01436F56
 BYTE   PATT
  POIN2 Label_1_01436D5C
 BYTE   PATT
  POIN2 Label_1_01436D87
 BYTE   PATT
  POIN2 Label_1_01436E4F
 BYTE   PATT
  POIN2 Label_1_01436F56
 BYTE   PATT
  POIN2 Label_1_01436D5C
 BYTE   PATT
  POIN2 Label_1_01436D87
 BYTE   PATT
  POIN2 Label_1_01436E4F
 BYTE   PATT
  POIN2 Label_1_01436E94
 BYTE   PATT
  POIN2 Label_1_01436EBD
 BYTE   PATT
  POIN2 Label_1_01436EE8
 BYTE   PATT
  POIN2 Label_1_01436F11
 BYTE   PATT
  POIN2 Label_1_01436E94
 BYTE   PATT
  POIN2 Label_1_01436EBD
 BYTE   PATT
  POIN2 Label_1_01436EE8
 BYTE   PATT
  POIN2 Label_1_01436F11
 BYTE   PATT
  POIN2 Label_1_01436F56
 BYTE   PATT
  POIN2 Label_1_01436D5C
 BYTE   PATT
  POIN2 Label_1_01436D87
 BYTE   PATT
  POIN2 Label_1_01436E4F
 BYTE   PATT
  POIN2 Label_1_01436F56
 BYTE   PATT
  POIN2 Label_1_01436D5C
 BYTE   PATT
  POIN2 Label_1_01436D87
 BYTE   PATT
  POIN2 Label_1_01436E4F
// 012   ----------------------------------------
 BYTE   W96
// 013   ----------------------------------------
 BYTE   W96
// 014   ----------------------------------------
 BYTE   W96
// 015   ----------------------------------------
 BYTE   W96
// 016   ----------------------------------------
 BYTE   W96
// 017   ----------------------------------------
 BYTE   W96
// 018   ----------------------------------------
 BYTE   W96
// 019   ----------------------------------------
 BYTE   W60
 BYTE   N12  Cn3  v088
 BYTE   W12
 BYTE   N11  Gn2  v092
 BYTE   W12
 BYTE   En2  v096
 BYTE   W12
// 020   ----------------------------------------
 BYTE   GoTo
  POIN2 Label_1_01436D2A
 BYTE   PATT
  POIN2 Label_1_01436F56
 BYTE   PATT
  POIN2 Label_1_01436D5C
 BYTE   PATT
  POIN2 Label_1_01436D87
 BYTE   PATT
  POIN2 Label_1_01436DB0
// 021   ----------------------------------------
 BYTE   N36  Dn2  v108
 BYTE   N13  Gn2  v104
 BYTE   W12
 BYTE   Cn3  v060
 BYTE   W12
 BYTE   Fn3  v068
 BYTE   W12
 BYTE   N44  Gn1  v104
 BYTE   N14  Dn3  v072
 BYTE   W12
 BYTE   N12  An2
 BYTE   W12
 BYTE   Cn3  v056
 BYTE   W12
 BYTE   N08  En2  v092
 BYTE   N13  Bn2  v080
 BYTE   N13  Gn3  v092
 BYTE   W12
 BYTE   N08  Cn2  v080
 BYTE   W12
// 022   ----------------------------------------
 BYTE   N32  Dn2  v100
 BYTE   N14  Gn2
 BYTE   W12
 BYTE   N12  Cn3  v060
 BYTE   W12
 BYTE   N13  Fn3  v084
 BYTE   W12
 BYTE   N44  Gn1  v100
 BYTE   N14  Dn3  v092
 BYTE   W12
 BYTE   N12  An2  v084
 BYTE   W12
 BYTE   N11  Cn3  v064
 BYTE   W12
 BYTE   N10  En2  v100
 BYTE   N12  Bn2  v072
 BYTE   N15  Gn3  v092
 BYTE   W12
 BYTE   N08  Cn2
 BYTE   W12
// 023   ----------------------------------------
 BYTE   N36  Dn2  v100
 BYTE   N14  Gn2
 BYTE   W12
 BYTE   N13  Cn3  v076
 BYTE   W12
 BYTE   Fn3  v092
 BYTE   W12
 BYTE   N44  Gn1  v104
 BYTE   N14  Dn3  v092
 BYTE   W12
 BYTE   N11  An2  v088
 BYTE   W12
 BYTE   Cn3  v056
 BYTE   W12
 BYTE   N10  En2  v100
 BYTE   N13  Bn2  v072
 BYTE   N15  Gn3  v092
 BYTE   W12
 BYTE   N08  Cn2
 BYTE   W12
// 024   ----------------------------------------
 BYTE   N92  Gn1  v112
 BYTE   N90  Dn2  v096
 BYTE   N90  Gn2  v112
 BYTE   N92  Fn3  v100
 BYTE   W92
 BYTE   W02
 BYTE   FINE

//**************** Track 3 (Midi-Chn.2) ****************//

song13_003:
// 000   ----------------------------------------
 BYTE   KEYSH   song13_key+0
Label_2_014370D2:
 BYTE   VOICE   73
 BYTE   MODT 0
 BYTE   CnM2  v000
 BYTE   LFOS 0
 BYTE   CnM2  v044
 BYTE   W09
 BYTE   VOL   50*song13_mvl/mxv
 BYTE   W84
 BYTE   W03
// 001   ----------------------------------------
 BYTE   W96
// 002   ----------------------------------------
 BYTE   W96
// 003   ----------------------------------------
 BYTE   W96
// 004   ----------------------------------------
 BYTE   W96
// 005   ----------------------------------------
 BYTE   W96
// 006   ----------------------------------------
 BYTE   W96
// 007   ----------------------------------------
 BYTE   W96
// 008   ----------------------------------------
Label_2_014370E6:
 BYTE   W12
 BYTE   N04  En4  v104
 BYTE   N04  Cn5  v092
 BYTE   W06
 BYTE   Dn4  v104
 BYTE   N05  Bn4  v092
 BYTE   W06
 BYTE   TIE  En4  v108
 BYTE   TIE  Cn5  v120
 BYTE   W72
 BYTE   PEND 
// 009   ----------------------------------------
 BYTE   W32
 BYTE   W02
 BYTE   EOT
 BYTE   En4
 BYTE   W01
 BYTE   Cn5
 BYTE   W01
 BYTE   N11  Dn4  v096
 BYTE   N13  Bn4  v100
 BYTE   W12
 BYTE   N17  En4  v104
 BYTE   N18  Cn5
 BYTE   W16
 BYTE   Gn4
 BYTE   W01
 BYTE   N19  Dn5  v100
 BYTE   W17
 BYTE   N12  Dn4  v104
 BYTE   W02
 BYTE   N10  Bn4
 BYTE   W12
// 010   ----------------------------------------
Label_2_0143711D:
 BYTE   N04  En4  v104
 BYTE   N04  Cn5  v100
 BYTE   W06
 BYTE   Dn4  v104
 BYTE   N05  Bn4
 BYTE   W06
 BYTE   TIE  Cn4
 BYTE   TIE  An4  v092
 BYTE   W84
 BYTE   PEND 
// 011   ----------------------------------------
 BYTE   W92
 BYTE   W01
 BYTE   EOT
 BYTE   W01
 BYTE   EOT
 BYTE   Cn4
 BYTE   W02
// 012   ----------------------------------------
Label_2_01437137:
 BYTE   W12
 BYTE   N05  Cn4  v108
 BYTE   N05  An4  v104
 BYTE   W06
 BYTE   N06  Dn4  v084
 BYTE   N06  Bn4
 BYTE   W06
 BYTE   N05  En4  v096
 BYTE   N06  Cn5
 BYTE   W06
 BYTE   N04  Fn4  v072
 BYTE   N05  Dn5  v100
 BYTE   W06
 BYTE   N92  En4  v096
 BYTE   N96  Cn5
 BYTE   W60
 BYTE   PEND 
// 013   ----------------------------------------
Label_2_01437159:
 BYTE   W32
 BYTE   W02
 BYTE   N12  Dn4  v096
 BYTE   N12  Bn4  v092
 BYTE   W13
 BYTE   N16  Gn4  v104
 BYTE   N17  En5
 BYTE   W17
 BYTE   En4  v100
 BYTE   W01
 BYTE   N18  Cn5  v096
 BYTE   W17
 BYTE   N12  Dn4
 BYTE   W02
 BYTE   N11  Bn4  v100
 BYTE   W10
 BYTE   N04  En4  v104
 BYTE   W02
 BYTE   PEND 
// 014   ----------------------------------------
Label_2_0143717B:
 BYTE   N05  Cn5  v092
 BYTE   W06
 BYTE   N06  Dn4  v104
 BYTE   N06  Bn4  v100
 BYTE   W06
 BYTE   TIE  Cn4
 BYTE   TIE  An4
 BYTE   W84
 BYTE   PEND 
// 015   ----------------------------------------
 BYTE   W76
 BYTE   EOT
 BYTE   W11
 BYTE   EOT
 BYTE   Cn4
 BYTE   W09
// 016   ----------------------------------------
Label_2_01437192:
 BYTE   N80  Fs5  v096
 BYTE   W84
 BYTE   N06  Fn5  v088
 BYTE   W06
 BYTE   N05  Fs5  v092
 BYTE   W06
 BYTE   PEND 
// 017   ----------------------------------------
Label_2_0143719F:
 BYTE   N84  Cs5  v096
 BYTE   W84
 BYTE   N06  Cn5  v092
 BYTE   W06
 BYTE   N05  Cs5  v096
 BYTE   W06
 BYTE   PEND 
// 018   ----------------------------------------
Label_2_014371AC:
 BYTE   N80  Gs4  v096
 BYTE   W84
 BYTE   N10  Fs4  v092
 BYTE   W12
 BYTE   PEND 
// 019   ----------------------------------------
Label_2_014371B5:
 BYTE   N12  Gs4  v096
 BYTE   W12
 BYTE   N10  Cs5  v088
 BYTE   W12
 BYTE   N12  Ds5
 BYTE   W12
 BYTE   N11  Cn5
 BYTE   W12
 BYTE   Cs5
 BYTE   W12
 BYTE   N10  Ds5  v084
 BYTE   W12
 BYTE   N11  Gs5
 BYTE   W12
 BYTE   N12  Fn5  v080
 BYTE   W12
 BYTE   PEND 
// 020   ----------------------------------------
Label_2_014371D1:
 BYTE   N80  Fs5  v092
 BYTE   W84
 BYTE   N06  Fn5  v088
 BYTE   W06
 BYTE   N05  Fs5
 BYTE   W06
 BYTE   PEND 
// 021   ----------------------------------------
Label_2_014371DD:
 BYTE   N80  Ds5  v092
 BYTE   W84
 BYTE   N05  Cs5
 BYTE   W06
 BYTE   N06  Fs5  v084
 BYTE   W06
 BYTE   PEND 
// 022   ----------------------------------------
 BYTE   N96  Gs5
 BYTE   W96
// 023   ----------------------------------------
Label_2_014371EC:
 BYTE   N13  As5  v092
 BYTE   W12
 BYTE   N12  Gs5  v088
 BYTE   W12
 BYTE   Fs5  v096
 BYTE   W12
 BYTE   N13  Gs5
 BYTE   W12
 BYTE   N12  Fs5  v084
 BYTE   W12
 BYTE   N11  Fn5  v088
 BYTE   W12
 BYTE   N12  Ds5  v084
 BYTE   W12
 BYTE   Cs5  v092
 BYTE   W12
 BYTE   PEND 
// 024   ----------------------------------------
Label_2_0143720A:
 BYTE   N11  Dn5  v096
 BYTE   W12
 BYTE   N12  An4  v100
 BYTE   W12
 BYTE   N11  Fn4  v104
 BYTE   W12
 BYTE   N10  Cn5  v100
 BYTE   W12
 BYTE   En4
 BYTE   W12
 BYTE   Fn4  v104
 BYTE   W12
 BYTE   N09  Bn4  v092
 BYTE   W12
 BYTE   N13  Gn4  v096
 BYTE   W12
 BYTE   PEND 
// 025   ----------------------------------------
Label_2_01437228:
 BYTE   N10  An4  v100
 BYTE   W12
 BYTE   N11  Dn4
 BYTE   W12
 BYTE   N09  En4
 BYTE   W12
 BYTE   N11  Gn4  v104
 BYTE   W12
 BYTE   N12  Cn4
 BYTE   W12
 BYTE   Dn4  v100
 BYTE   W12
 BYTE   N10  Fn4  v104
 BYTE   W12
 BYTE   N11  An4  v100
 BYTE   W12
 BYTE   PEND 
 BYTE   PATT
  POIN2 Label_2_0143720A
// 026   ----------------------------------------
Label_2_0143724A:
 BYTE   N10  An4  v100
 BYTE   W12
 BYTE   N11  Dn4
 BYTE   W12
 BYTE   N09  En4
 BYTE   W12
 BYTE   N11  Gn4  v104
 BYTE   W12
 BYTE   Cn4
 BYTE   W12
 BYTE   N10  Dn4  v100
 BYTE   W12
 BYTE   Bn3
 BYTE   W12
 BYTE   N14  Gn3  v104
 BYTE   W12
 BYTE   PEND 
 BYTE   PATT
  POIN2 Label_2_0143720A
 BYTE   PATT
  POIN2 Label_2_01437228
 BYTE   PATT
  POIN2 Label_2_0143720A
 BYTE   PATT
  POIN2 Label_2_01437228
 BYTE   PATT
  POIN2 Label_2_014370E6
// 027   ----------------------------------------
 BYTE   W32
 BYTE   W02
 BYTE   EOT
 BYTE   En4
 BYTE   W01
 BYTE   Cn5
 BYTE   W01
 BYTE   N11  Dn4  v096
 BYTE   N13  Bn4  v100
 BYTE   W12
 BYTE   N17  En4  v104
 BYTE   N18  Cn5
 BYTE   W16
 BYTE   Gn4
 BYTE   W01
 BYTE   N19  Dn5  v100
 BYTE   W17
 BYTE   N12  Dn4  v104
 BYTE   W02
 BYTE   N10  Bn4
 BYTE   W12
 BYTE   PATT
  POIN2 Label_2_0143711D
// 028   ----------------------------------------
 BYTE   W92
 BYTE   W01
 BYTE   EOT
 BYTE   An4
 BYTE   W01
 BYTE   Cn4
 BYTE   W02
 BYTE   PATT
  POIN2 Label_2_01437137
 BYTE   PATT
  POIN2 Label_2_01437159
 BYTE   PATT
  POIN2 Label_2_0143717B
// 029   ----------------------------------------
 BYTE   W76
 BYTE   EOT
 BYTE   An4
 BYTE   W11
 BYTE   Cn4
 BYTE   W09
 BYTE   PATT
  POIN2 Label_2_01437192
 BYTE   PATT
  POIN2 Label_2_0143719F
 BYTE   PATT
  POIN2 Label_2_014371AC
 BYTE   PATT
  POIN2 Label_2_014371B5
 BYTE   PATT
  POIN2 Label_2_014371D1
 BYTE   PATT
  POIN2 Label_2_014371DD
// 030   ----------------------------------------
 BYTE   N96  Gs5  v084
 BYTE   W96
 BYTE   PATT
  POIN2 Label_2_014371EC
 BYTE   PATT
  POIN2 Label_2_0143720A
 BYTE   PATT
  POIN2 Label_2_01437228
 BYTE   PATT
  POIN2 Label_2_0143720A
 BYTE   PATT
  POIN2 Label_2_0143724A
 BYTE   PATT
  POIN2 Label_2_0143720A
 BYTE   PATT
  POIN2 Label_2_01437228
 BYTE   PATT
  POIN2 Label_2_0143720A
 BYTE   PATT
  POIN2 Label_2_01437228
// 031   ----------------------------------------
 BYTE   W96
// 032   ----------------------------------------
 BYTE   W96
// 033   ----------------------------------------
 BYTE   W96
// 034   ----------------------------------------
 BYTE   W96
// 035   ----------------------------------------
 BYTE   W96
// 036   ----------------------------------------
 BYTE   W96
// 037   ----------------------------------------
 BYTE   W96
// 038   ----------------------------------------
 BYTE   W96
// 039   ----------------------------------------
 BYTE   GoTo
  POIN2 Label_2_014370D2
 BYTE   PATT
  POIN2 Label_2_014370E6
// 040   ----------------------------------------
 BYTE   W32
 BYTE   W02
 BYTE   EOT
 BYTE   En4
 BYTE   W01
 BYTE   Cn5
 BYTE   W01
 BYTE   N11  Dn4  v096
 BYTE   N13  Bn4  v100
 BYTE   W12
 BYTE   N17  En4  v104
 BYTE   N18  Cn5
 BYTE   W16
 BYTE   Gn4
 BYTE   W01
 BYTE   N19  Dn5  v100
 BYTE   W17
 BYTE   N12  Dn4  v104
 BYTE   W02
 BYTE   N10  Bn4
 BYTE   W12
 BYTE   PATT
  POIN2 Label_2_0143711D
// 041   ----------------------------------------
 BYTE   W92
 BYTE   W01
 BYTE   EOT
 BYTE   An4
 BYTE   W01
 BYTE   Cn4
 BYTE   W02
 BYTE   PATT
  POIN2 Label_2_01437137
 BYTE   PATT
  POIN2 Label_2_01437159
 BYTE   PATT
  POIN2 Label_2_0143717B
// 042   ----------------------------------------
 BYTE   W76
 BYTE   EOT
 BYTE   An4
 BYTE   W11
 BYTE   Cn4
 BYTE   W07
 BYTE   FINE

//**************** Track 4 (Midi-Chn.3) ****************//

song13_004:
// 000   ----------------------------------------
 BYTE   KEYSH   song13_key+0
Label_3_01437366:
 BYTE   VOICE   91
 BYTE   MODT 0
 BYTE   CnM2  v000
 BYTE   LFOS 0
 BYTE   CnM2  v044
 BYTE   W15
 BYTE   VOL   47*song13_mvl/mxv
 BYTE   W80
 BYTE   W01
// 001   ----------------------------------------
 BYTE   W96
// 002   ----------------------------------------
 BYTE   W96
// 003   ----------------------------------------
 BYTE   W96
// 004   ----------------------------------------
 BYTE   W96
// 005   ----------------------------------------
 BYTE   W96
// 006   ----------------------------------------
 BYTE   W96
// 007   ----------------------------------------
 BYTE   W96
// 008   ----------------------------------------
Label_3_0143737A:
 BYTE   TIE  Fn2  v108
 BYTE   TIE  Cn3  v100
 BYTE   W96
 BYTE   PEND 
// 009   ----------------------------------------
 BYTE   W80
 BYTE   W01
 BYTE   EOT
 BYTE   Fn2
 BYTE   W01
 BYTE   Cn3
 BYTE   W02
 BYTE   N11  En2
 BYTE   N13  Bn2  v104
 BYTE   W12
// 010   ----------------------------------------
Label_3_0143738F:
 BYTE   TIE  Fn2  v096
 BYTE   TIE  Cn3  v104
 BYTE   W96
 BYTE   PEND 
// 011   ----------------------------------------
 BYTE   W32
 BYTE   W03
 BYTE   EOT
 BYTE   Fn2  v060
 BYTE   W01
 BYTE   N11  Cn2
 BYTE   N09  Gn2
 BYTE   W12
 BYTE   N12  Dn2
 BYTE   N12  An2
 BYTE   W12
 BYTE   N13  En2
 BYTE   N10  Bn2  v100
 BYTE   W12
 BYTE   N11  Fn2  v108
 BYTE   N13  Cn3  v092
 BYTE   W12
 BYTE   N10  Gn2  v112
 BYTE   N11  Dn3  v104
 BYTE   W12
// 012   ----------------------------------------
Label_3_014373BB:
 BYTE   TIE  Fn2  v104
 BYTE   TIE  Cn3
 BYTE   W96
 BYTE   PEND 
// 013   ----------------------------------------
 BYTE   W80
 BYTE   W03
 BYTE   EOT
 BYTE   Fn2  v060
 BYTE   W01
 BYTE   N11  En2
 BYTE   N11  Bn2  v100
 BYTE   W12
// 014   ----------------------------------------
Label_3_014373CE:
 BYTE   TIE  Fn2  v112
 BYTE   TIE  Cn3  v100
 BYTE   W96
 BYTE   PEND 
// 015   ----------------------------------------
 BYTE   W32
 BYTE   W02
 BYTE   EOT
 BYTE   W01
 BYTE   EOT
 BYTE   Fn2
 BYTE   W01
 BYTE   N09  Dn2  v088
 BYTE   N10  An2  v100
 BYTE   W12
 BYTE   N12  En2
 BYTE   N12  Bn2  v104
 BYTE   W12
 BYTE   N11  Fn2  v112
 BYTE   N11  Cn3  v100
 BYTE   W12
 BYTE   Gn2
 BYTE   N11  Dn3  v092
 BYTE   W12
 BYTE   N13  An2  v096
 BYTE   N11  En3  v100
 BYTE   W12
// 016   ----------------------------------------
Label_3_014373FD:
 BYTE   N80  Gs2  v100
 BYTE   N80  Ds3  v096
 BYTE   W84
 BYTE   N10  As2
 BYTE   N10  Fn3  v108
 BYTE   W12
 BYTE   PEND 
// 017   ----------------------------------------
Label_3_0143740B:
 BYTE   N80  Fs2  v096
 BYTE   N80  Cs3
 BYTE   W84
 BYTE   N11  Fn2  v120
 BYTE   N10  Cn3  v100
 BYTE   W12
 BYTE   PEND 
// 018   ----------------------------------------
Label_3_01437419:
 BYTE   N84  Fs2  v100
 BYTE   N80  Cs3  v096
 BYTE   W84
 BYTE   N13  Ds2  v100
 BYTE   N07  As2  v096
 BYTE   W12
 BYTE   PEND 
// 019   ----------------------------------------
 BYTE   N11  Fn2  v104
 BYTE   N11  Cn3
 BYTE   W12
 BYTE   N10  Cs2  v096
 BYTE   N11  Gs2  v092
 BYTE   W12
 BYTE   Ds2
 BYTE   N10  As2  v096
 BYTE   W12
 BYTE   N12  Gs2  v108
 BYTE   N11  Ds3  v096
 BYTE   W12
 BYTE   N13  As2  v092
 BYTE   N11  Fn3  v104
 BYTE   W12
 BYTE   N09  Gs2  v100
 BYTE   N10  Ds3  v108
 BYTE   W12
 BYTE   N11  Fs2  v092
 BYTE   N03  Gs2  v016
 BYTE   N10  Cs3  v100
 BYTE   W12
 BYTE   N09  Fn2
 BYTE   N09  Cn3  v096
 BYTE   W12
// 020   ----------------------------------------
Label_3_0143745F:
 BYTE   N84  Fs2  v104
 BYTE   N84  Cs3  v100
 BYTE   W84
 BYTE   N10  Gs2  v104
 BYTE   N10  Ds3  v096
 BYTE   W12
 BYTE   PEND 
// 021   ----------------------------------------
Label_3_0143746E:
 BYTE   N84  Ds2  v096
 BYTE   N84  As2
 BYTE   W84
 BYTE   N10  Fn2  v108
 BYTE   N08  Cn3  v100
 BYTE   W12
 BYTE   PEND 
// 022   ----------------------------------------
Label_3_0143747C:
 BYTE   N12  Fs2  v104
 BYTE   N09  Cs3  v096
 BYTE   W12
 BYTE   N22  As2  v092
 BYTE   N22  Fn3  v096
 BYTE   W24
 BYTE   N11  Gs2
 BYTE   N11  Ds3  v092
 BYTE   W12
 BYTE   Fs2  v100
 BYTE   N10  Cs3  v096
 BYTE   W12
 BYTE   N24  Gs2  v100
 BYTE   N24  Ds3  v096
 BYTE   W24
 BYTE   N08  Fn2
 BYTE   N09  Cn3
 BYTE   W12
 BYTE   PEND 
// 023   ----------------------------------------
Label_3_014374A3:
 BYTE   N32  Fs2  v100
 BYTE   N36  Cs3  v092
 BYTE   W36
 BYTE   N32  Fn2  v112
 BYTE   N32  Cn3
 BYTE   W36
 BYTE   N20  Ds2  v100
 BYTE   N21  As2  v096
 BYTE   W24
 BYTE   PEND 
// 024   ----------------------------------------
Label_3_014374B8:
 BYTE   N32  Cn3  v104
 BYTE   N32  Fn3  v108
 BYTE   W36
 BYTE   N36  Dn3
 BYTE   N36  Gn3  v100
 BYTE   W36
 BYTE   N32  En3
 BYTE   N32  An3  v104
 BYTE   W24
 BYTE   PEND 
// 025   ----------------------------------------
Label_3_014374CC:
 BYTE   W12
 BYTE   N24  Cn3  v100
 BYTE   N24  Fn3  v104
 BYTE   W24
 BYTE   N10  Dn3  v096
 BYTE   N11  Gn3  v100
 BYTE   W12
 BYTE   N12  Cn3
 BYTE   N11  Fn3
 BYTE   W12
 BYTE   N12  Bn2
 BYTE   N10  En3  v096
 BYTE   W12
 BYTE   N24  Cn3  v100
 BYTE   N24  Fn3  v096
 BYTE   W24
 BYTE   PEND 
// 026   ----------------------------------------
Label_3_014374EE:
 BYTE   N36  An2  v108
 BYTE   N32  Dn3  v096
 BYTE   W36
 BYTE   N24  Bn2  v092
 BYTE   N24  En3  v104
 BYTE   W24
 BYTE   N10  Gn2  v108
 BYTE   N10  Cn3  v104
 BYTE   W12
 BYTE   TIE  An2  v100
 BYTE   TIE  Dn3  v104
 BYTE   W24
 BYTE   PEND 
// 027   ----------------------------------------
 BYTE   W84
 BYTE   W02
 BYTE   EOT
 BYTE   An2  v062
 BYTE   W10
 BYTE   PATT
  POIN2 Label_3_014374B8
 BYTE   PATT
  POIN2 Label_3_014374CC
 BYTE   PATT
  POIN2 Label_3_014374EE
// 028   ----------------------------------------
 BYTE   W84
 BYTE   W02
 BYTE   EOT
 BYTE   An2  v062
 BYTE   W10
 BYTE   PATT
  POIN2 Label_3_0143737A
// 029   ----------------------------------------
 BYTE   W80
 BYTE   W01
 BYTE   EOT
 BYTE   Fn2
 BYTE   W01
 BYTE   Cn3
 BYTE   W02
 BYTE   N11  En2  v100
 BYTE   N13  Bn2  v104
 BYTE   W12
 BYTE   PATT
  POIN2 Label_3_0143738F
// 030   ----------------------------------------
 BYTE   W32
 BYTE   W03
 BYTE   EOT
 BYTE   Fn2  v060
 BYTE   W01
 BYTE   N11  Cn2  v104
 BYTE   N09  Gn2
 BYTE   W12
 BYTE   N12  Dn2
 BYTE   N12  An2
 BYTE   W12
 BYTE   N13  En2
 BYTE   N10  Bn2  v100
 BYTE   W12
 BYTE   N11  Fn2  v108
 BYTE   N13  Cn3  v092
 BYTE   W12
 BYTE   N10  Gn2  v112
 BYTE   N11  Dn3  v104
 BYTE   W12
 BYTE   PATT
  POIN2 Label_3_014373BB
// 031   ----------------------------------------
 BYTE   W80
 BYTE   W03
 BYTE   EOT
 BYTE   Fn2  v060
 BYTE   W01
 BYTE   N11  En2  v104
 BYTE   N11  Bn2  v100
 BYTE   W12
 BYTE   PATT
  POIN2 Label_3_014373CE
// 032   ----------------------------------------
 BYTE   W32
 BYTE   W02
 BYTE   EOT
 BYTE   Cn3
 BYTE   W01
 BYTE   Fn2
 BYTE   W01
 BYTE   N09  Dn2  v088
 BYTE   N10  An2  v100
 BYTE   W12
 BYTE   N12  En2
 BYTE   N12  Bn2  v104
 BYTE   W12
 BYTE   N11  Fn2  v112
 BYTE   N11  Cn3  v100
 BYTE   W12
 BYTE   Gn2
 BYTE   N11  Dn3  v092
 BYTE   W12
 BYTE   N13  An2  v096
 BYTE   N11  En3  v100
 BYTE   W12
 BYTE   PATT
  POIN2 Label_3_014373FD
 BYTE   PATT
  POIN2 Label_3_0143740B
 BYTE   PATT
  POIN2 Label_3_01437419
// 033   ----------------------------------------
 BYTE   N11  Fn2  v104
 BYTE   N11  Cn3
 BYTE   W12
 BYTE   N10  Cs2  v096
 BYTE   N11  Gs2  v092
 BYTE   W12
 BYTE   Ds2
 BYTE   N10  As2  v096
 BYTE   W12
 BYTE   N12  Gs2  v108
 BYTE   N11  Ds3  v096
 BYTE   W12
 BYTE   N13  As2  v092
 BYTE   N11  Fn3  v104
 BYTE   W12
 BYTE   N08  Gs2  v100
 BYTE   N10  Ds3  v108
 BYTE   W12
 BYTE   N11  Fs2  v092
 BYTE   N03  Gs2  v016
 BYTE   N10  Cs3  v100
 BYTE   W12
 BYTE   N09  Fn2
 BYTE   N09  Cn3  v096
 BYTE   W12
 BYTE   PATT
  POIN2 Label_3_0143745F
 BYTE   PATT
  POIN2 Label_3_0143746E
 BYTE   PATT
  POIN2 Label_3_0143747C
 BYTE   PATT
  POIN2 Label_3_014374A3
 BYTE   PATT
  POIN2 Label_3_014374B8
 BYTE   PATT
  POIN2 Label_3_014374CC
 BYTE   PATT
  POIN2 Label_3_014374EE
// 034   ----------------------------------------
 BYTE   W84
 BYTE   W02
 BYTE   EOT
 BYTE   An2  v062
 BYTE   W10
 BYTE   PATT
  POIN2 Label_3_014374B8
 BYTE   PATT
  POIN2 Label_3_014374CC
 BYTE   PATT
  POIN2 Label_3_014374EE
// 035   ----------------------------------------
 BYTE   W84
 BYTE   W02
 BYTE   EOT
 BYTE   An2  v062
 BYTE   W10
// 036   ----------------------------------------
 BYTE   W96
// 037   ----------------------------------------
 BYTE   W96
// 038   ----------------------------------------
 BYTE   W96
// 039   ----------------------------------------
 BYTE   W96
// 040   ----------------------------------------
 BYTE   W96
// 041   ----------------------------------------
 BYTE   W96
// 042   ----------------------------------------
 BYTE   W96
// 043   ----------------------------------------
 BYTE   W96
// 044   ----------------------------------------
 BYTE   GoTo
  POIN2 Label_3_01437366
 BYTE   PATT
  POIN2 Label_3_0143737A
// 045   ----------------------------------------
 BYTE   W80
 BYTE   W01
 BYTE   EOT
 BYTE   Fn2
 BYTE   W01
 BYTE   Cn3
 BYTE   W02
 BYTE   N11  En2  v100
 BYTE   N13  Bn2  v104
 BYTE   W12
 BYTE   PATT
  POIN2 Label_3_0143738F
// 046   ----------------------------------------
 BYTE   W32
 BYTE   W03
 BYTE   EOT
 BYTE   Fn2  v060
 BYTE   W01
 BYTE   N11  Cn2  v104
 BYTE   N09  Gn2
 BYTE   W12
 BYTE   N12  Dn2
 BYTE   N12  An2
 BYTE   W12
 BYTE   N13  En2
 BYTE   N10  Bn2  v100
 BYTE   W12
 BYTE   N11  Fn2  v108
 BYTE   N13  Cn3  v092
 BYTE   W12
 BYTE   N10  Gn2  v112
 BYTE   N11  Dn3  v104
 BYTE   W12
 BYTE   PATT
  POIN2 Label_3_014373BB
// 047   ----------------------------------------
 BYTE   W80
 BYTE   W03
 BYTE   EOT
 BYTE   Fn2  v060
 BYTE   W01
 BYTE   N11  En2  v104
 BYTE   N11  Bn2  v100
 BYTE   W12
 BYTE   PATT
  POIN2 Label_3_014373CE
// 048   ----------------------------------------
 BYTE   W80
 BYTE   W02
 BYTE   EOT
 BYTE   Cn3
 BYTE   W01
 BYTE   Fn2
 BYTE   W11
 BYTE   FINE

//**************** Track 5 (Midi-Chn.4) ****************//

song13_005:
// 000   ----------------------------------------
 BYTE   KEYSH   song13_key+0
Label_4_01437692:
 BYTE   VOICE   50
 BYTE   MODT 0
 BYTE   CnM2  v000
 BYTE   LFOS 0
 BYTE   CnM2  v044
 BYTE   W20
 BYTE   VOL   50*song13_mvl/mxv
 BYTE   W76
// 001   ----------------------------------------
 BYTE   W96
// 002   ----------------------------------------
 BYTE   W96
// 003   ----------------------------------------
 BYTE   W96
// 004   ----------------------------------------
 BYTE   W96
// 005   ----------------------------------------
 BYTE   W96
// 006   ----------------------------------------
 BYTE   W96
// 007   ----------------------------------------
 BYTE   W96
// 008   ----------------------------------------
 BYTE   W96
// 009   ----------------------------------------
 BYTE   W96
// 010   ----------------------------------------
 BYTE   W96
// 011   ----------------------------------------
 BYTE   W96
// 012   ----------------------------------------
 BYTE   W96
// 013   ----------------------------------------
 BYTE   W96
// 014   ----------------------------------------
 BYTE   W96
// 015   ----------------------------------------
 BYTE   W96
// 016   ----------------------------------------
Label_4_014376AD:
 BYTE   N80  Fs3  v092
 BYTE   W84
 BYTE   N11  Fn3  v100
 BYTE   W12
 BYTE   PEND 
// 017   ----------------------------------------
Label_4_014376B6:
 BYTE   N80  Cs3  v092
 BYTE   W84
 BYTE   N12  Cn3  v096
 BYTE   W12
 BYTE   PEND 
// 018   ----------------------------------------
Label_4_014376BF:
 BYTE   N80  Cs3  v100
 BYTE   W84
 BYTE   N15  As2  v092
 BYTE   W12
 BYTE   PEND 
// 019   ----------------------------------------
Label_4_014376C8:
 BYTE   N11  Cn3  v092
 BYTE   W12
 BYTE   N12  Gs2
 BYTE   W12
 BYTE   N10  As2  v088
 BYTE   W12
 BYTE   N12  Cn3  v092
 BYTE   W12
 BYTE   N11  Gs2  v096
 BYTE   W12
 BYTE   N12  As2  v088
 BYTE   W12
 BYTE   N11  Cn3  v092
 BYTE   W12
 BYTE   N12  Cs3
 BYTE   W12
 BYTE   PEND 
// 020   ----------------------------------------
Label_4_014376E7:
 BYTE   N78  Fs3  v092
 BYTE   W84
 BYTE   N06  Fs3  v088
 BYTE   W06
 BYTE   Gs3  v068
 BYTE   W06
 BYTE   PEND 
// 021   ----------------------------------------
Label_4_014376F3:
 BYTE   N76  As3  v096
 BYTE   W84
 BYTE   N05
 BYTE   W06
 BYTE   N06  Cn4  v100
 BYTE   W06
 BYTE   PEND 
// 022   ----------------------------------------
Label_4_014376FE:
 BYTE   N80  Cs4  v100
 BYTE   W78
 BYTE   N14  Cn4  v096
 BYTE   W18
 BYTE   PEND 
// 023   ----------------------------------------
Label_4_01437707:
 BYTE   N10  Cs4  v092
 BYTE   W12
 BYTE   N12  Cn4  v100
 BYTE   W12
 BYTE   As3  v096
 BYTE   W12
 BYTE   N13  Cn4  v104
 BYTE   W12
 BYTE   N12  As3  v092
 BYTE   W12
 BYTE   Gs3  v096
 BYTE   W12
 BYTE   N10  Fs3
 BYTE   W12
 BYTE   N13  Fn3  v120
 BYTE   W12
 BYTE   PEND 
// 024   ----------------------------------------
 BYTE   W96
// 025   ----------------------------------------
 BYTE   W96
// 026   ----------------------------------------
 BYTE   W96
// 027   ----------------------------------------
 BYTE   W96
// 028   ----------------------------------------
 BYTE   W96
// 029   ----------------------------------------
 BYTE   W96
// 030   ----------------------------------------
 BYTE   W96
// 031   ----------------------------------------
 BYTE   W96
// 032   ----------------------------------------
 BYTE   W96
// 033   ----------------------------------------
 BYTE   W96
// 034   ----------------------------------------
 BYTE   W96
// 035   ----------------------------------------
 BYTE   W96
// 036   ----------------------------------------
 BYTE   W96
// 037   ----------------------------------------
 BYTE   W96
// 038   ----------------------------------------
 BYTE   W96
// 039   ----------------------------------------
 BYTE   W96
 BYTE   PATT
  POIN2 Label_4_014376AD
 BYTE   PATT
  POIN2 Label_4_014376B6
 BYTE   PATT
  POIN2 Label_4_014376BF
 BYTE   PATT
  POIN2 Label_4_014376C8
 BYTE   PATT
  POIN2 Label_4_014376E7
 BYTE   PATT
  POIN2 Label_4_014376F3
 BYTE   PATT
  POIN2 Label_4_014376FE
 BYTE   PATT
  POIN2 Label_4_01437707
// 040   ----------------------------------------
 BYTE   W96
// 041   ----------------------------------------
 BYTE   W96
// 042   ----------------------------------------
 BYTE   W96
// 043   ----------------------------------------
 BYTE   W96
// 044   ----------------------------------------
 BYTE   W96
// 045   ----------------------------------------
 BYTE   W96
// 046   ----------------------------------------
 BYTE   W96
// 047   ----------------------------------------
 BYTE   W96
// 048   ----------------------------------------
 BYTE   W96
// 049   ----------------------------------------
 BYTE   W96
// 050   ----------------------------------------
 BYTE   W96
// 051   ----------------------------------------
 BYTE   W96
// 052   ----------------------------------------
 BYTE   W96
// 053   ----------------------------------------
 BYTE   W96
// 054   ----------------------------------------
 BYTE   W96
// 055   ----------------------------------------
 BYTE   W96
// 056   ----------------------------------------
 BYTE   GoTo
  POIN2 Label_4_01437692
// 057   ----------------------------------------
 BYTE   W96
// 058   ----------------------------------------
 BYTE   W96
// 059   ----------------------------------------
 BYTE   W96
// 060   ----------------------------------------
 BYTE   W96
// 061   ----------------------------------------
 BYTE   W96
// 062   ----------------------------------------
 BYTE   W96
// 063   ----------------------------------------
 BYTE   W96
// 064   ----------------------------------------
 BYTE   W92
 BYTE   W02
 BYTE   FINE

//**************** Track 6 (Midi-Chn.5) ****************//

song13_006:
// 000   ----------------------------------------
 BYTE   KEYSH   song13_key+0
Label_5_0143777E:
 BYTE   VOICE   4
 BYTE   MODT 0
 BYTE   CnM2  v000
 BYTE   LFOS 0
 BYTE   CnM2  v044
 BYTE   W24
 BYTE   VOL   72*song13_mvl/mxv
 BYTE   W72
// 001   ----------------------------------------
 BYTE   W96
// 002   ----------------------------------------
 BYTE   W96
// 003   ----------------------------------------
 BYTE   W96
// 004   ----------------------------------------
 BYTE   W96
// 005   ----------------------------------------
 BYTE   W96
// 006   ----------------------------------------
 BYTE   W96
// 007   ----------------------------------------
 BYTE   W96
// 008   ----------------------------------------
 BYTE   W96
// 009   ----------------------------------------
 BYTE   W96
// 010   ----------------------------------------
 BYTE   W96
// 011   ----------------------------------------
 BYTE   W96
// 012   ----------------------------------------
 BYTE   W96
// 013   ----------------------------------------
 BYTE   W96
// 014   ----------------------------------------
 BYTE   W96
// 015   ----------------------------------------
 BYTE   W96
// 016   ----------------------------------------
 BYTE   W96
// 017   ----------------------------------------
 BYTE   W96
// 018   ----------------------------------------
 BYTE   W96
// 019   ----------------------------------------
 BYTE   W96
// 020   ----------------------------------------
 BYTE   W96
// 021   ----------------------------------------
 BYTE   W96
// 022   ----------------------------------------
 BYTE   W96
// 023   ----------------------------------------
 BYTE   W96
// 024   ----------------------------------------
Label_5_014377A1:
 BYTE   N11  Dn5  v096
 BYTE   W12
 BYTE   N12  An4  v100
 BYTE   W12
 BYTE   N11  Fn4  v104
 BYTE   W12
 BYTE   N10  Cn5  v100
 BYTE   W12
 BYTE   En4
 BYTE   W12
 BYTE   Fn4  v104
 BYTE   W12
 BYTE   N09  Bn4  v092
 BYTE   W12
 BYTE   N13  Gn4  v096
 BYTE   W12
 BYTE   PEND 
// 025   ----------------------------------------
Label_5_014377BF:
 BYTE   N10  An4  v100
 BYTE   W12
 BYTE   N11  Dn4
 BYTE   W12
 BYTE   N09  En4
 BYTE   W12
 BYTE   N11  Gn4  v104
 BYTE   W12
 BYTE   N12  Cn4
 BYTE   W12
 BYTE   Dn4  v100
 BYTE   W12
 BYTE   N10  Fn4  v104
 BYTE   W12
 BYTE   N11  An4  v100
 BYTE   W12
 BYTE   PEND 
 BYTE   PATT
  POIN2 Label_5_014377A1
// 026   ----------------------------------------
Label_5_014377E1:
 BYTE   N10  An4  v100
 BYTE   W12
 BYTE   N11  Dn4
 BYTE   W12
 BYTE   N09  En4
 BYTE   W12
 BYTE   N11  Gn4  v104
 BYTE   W12
 BYTE   Cn4
 BYTE   W12
 BYTE   N10  Dn4  v100
 BYTE   W12
 BYTE   Bn3
 BYTE   W12
 BYTE   N14  Gn3  v104
 BYTE   W12
 BYTE   PEND 
 BYTE   PATT
  POIN2 Label_5_014377A1
 BYTE   PATT
  POIN2 Label_5_014377BF
 BYTE   PATT
  POIN2 Label_5_014377A1
 BYTE   PATT
  POIN2 Label_5_014377BF
// 027   ----------------------------------------
 BYTE   W96
// 028   ----------------------------------------
 BYTE   W96
// 029   ----------------------------------------
 BYTE   W96
// 030   ----------------------------------------
 BYTE   W96
// 031   ----------------------------------------
 BYTE   W96
// 032   ----------------------------------------
 BYTE   W96
// 033   ----------------------------------------
 BYTE   W96
// 034   ----------------------------------------
 BYTE   W96
// 035   ----------------------------------------
 BYTE   W96
// 036   ----------------------------------------
 BYTE   W96
// 037   ----------------------------------------
 BYTE   W96
// 038   ----------------------------------------
 BYTE   W96
// 039   ----------------------------------------
 BYTE   W96
// 040   ----------------------------------------
 BYTE   W96
// 041   ----------------------------------------
 BYTE   W96
// 042   ----------------------------------------
 BYTE   W96
 BYTE   PATT
  POIN2 Label_5_014377A1
 BYTE   PATT
  POIN2 Label_5_014377BF
 BYTE   PATT
  POIN2 Label_5_014377A1
 BYTE   PATT
  POIN2 Label_5_014377E1
 BYTE   PATT
  POIN2 Label_5_014377A1
 BYTE   PATT
  POIN2 Label_5_014377BF
 BYTE   PATT
  POIN2 Label_5_014377A1
 BYTE   PATT
  POIN2 Label_5_014377BF
// 043   ----------------------------------------
Label_5_01437848:
 BYTE   W12
 BYTE   N24  Cn5  v096
 BYTE   W24
 BYTE   Dn5  v092
 BYTE   W24
 BYTE   N11  Cn5
 BYTE   W12
 BYTE   N24  Bn4
 BYTE   W24
 BYTE   PEND 
 BYTE   PATT
  POIN2 Label_5_01437848
// 044   ----------------------------------------
Label_5_0143785C:
 BYTE   W12
 BYTE   N24  Cn5  v092
 BYTE   W24
 BYTE   Dn5  v088
 BYTE   W24
 BYTE   N12  Cn5  v092
 BYTE   W12
 BYTE   N24  Bn4  v084
 BYTE   W24
 BYTE   PEND 
 BYTE   PATT
  POIN2 Label_5_01437848
 BYTE   PATT
  POIN2 Label_5_0143785C
 BYTE   PATT
  POIN2 Label_5_01437848
 BYTE   PATT
  POIN2 Label_5_0143785C
 BYTE   PATT
  POIN2 Label_5_01437848
// 045   ----------------------------------------
 BYTE   GoTo
  POIN2 Label_5_0143777E
// 046   ----------------------------------------
 BYTE   W96
// 047   ----------------------------------------
 BYTE   W96
// 048   ----------------------------------------
 BYTE   W96
// 049   ----------------------------------------
 BYTE   W96
// 050   ----------------------------------------
 BYTE   W96
// 051   ----------------------------------------
 BYTE   W96
// 052   ----------------------------------------
 BYTE   W96
// 053   ----------------------------------------
 BYTE   W92
 BYTE   W02
 BYTE   FINE

//**************** Track 7 (Midi-Chn.6) ****************//

song13_007:
// 000   ----------------------------------------
 BYTE   VOL   40*song13_mvl/mxv
 BYTE   KEYSH   song13_key+0
Label_6_0143789C:
 BYTE   VOICE   121
 BYTE   MODT 0
 BYTE   CnM2  v000
 BYTE   LFOS 0
 BYTE   CnM2  v044
 BYTE   N15  Bn0  v100
 BYTE   W36
 BYTE   Bn0  v104
 BYTE   W03
 BYTE   VOL   0*song13_mvl/mxv
 BYTE   W44
 BYTE   W01
 BYTE   N03  Bn0  v068
 BYTE   W12
// 001   ----------------------------------------
Label_6_014378B3:
 BYTE   N13  Bn0  v100
 BYTE   W36
 BYTE   N13
 BYTE   W24
 BYTE   N16  Bn0  v104
 BYTE   W36
 BYTE   PEND 
// 002   ----------------------------------------
 BYTE   N14
 BYTE   W36
 BYTE   N12  Bn0  v108
 BYTE   W48
 BYTE   N02  Bn0  v072
 BYTE   W12
// 003   ----------------------------------------
 BYTE   N14  Bn0  v104
 BYTE   W36
 BYTE   N08
 BYTE   W24
 BYTE   N02  Bn0  v060
 BYTE   W18
 BYTE   N03  Bn0  v092
 BYTE   W18
// 004   ----------------------------------------
Label_6_014378D6:
 BYTE   N12  Bn0  v108
 BYTE   W18
 BYTE   N05  Bn0  v100
 BYTE   W18
 BYTE   N10
 BYTE   W18
 BYTE   N05  Bn0  v088
 BYTE   W12
 BYTE   N05
 BYTE   W18
 BYTE   N05
 BYTE   W12
 BYTE   PEND 
// 005   ----------------------------------------
Label_6_014378E9:
 BYTE   N12  Bn0  v100
 BYTE   W18
 BYTE   N05  Bn0  v088
 BYTE   W18
 BYTE   N11  Bn0  v104
 BYTE   W30
 BYTE   N05  Bn0  v096
 BYTE   W18
 BYTE   Bn0  v100
 BYTE   W12
 BYTE   PEND 
// 006   ----------------------------------------
Label_6_014378FD:
 BYTE   N12  Bn0  v104
 BYTE   W18
 BYTE   N06  Bn0  v096
 BYTE   W18
 BYTE   N11  Bn0  v100
 BYTE   W18
 BYTE   N06  Bn0  v096
 BYTE   W12
 BYTE   N05
 BYTE   W18
 BYTE   N06  Bn0  v092
 BYTE   W12
 BYTE   PEND 
 BYTE   PATT
  POIN2 Label_6_014378D6
 BYTE   PATT
  POIN2 Label_6_014378D6
 BYTE   PATT
  POIN2 Label_6_014378E9
 BYTE   PATT
  POIN2 Label_6_014378FD
 BYTE   PATT
  POIN2 Label_6_014378D6
 BYTE   PATT
  POIN2 Label_6_014378D6
 BYTE   PATT
  POIN2 Label_6_014378E9
 BYTE   PATT
  POIN2 Label_6_014378FD
 BYTE   PATT
  POIN2 Label_6_014378D6
 BYTE   PATT
  POIN2 Label_6_014378D6
 BYTE   PATT
  POIN2 Label_6_014378E9
 BYTE   PATT
  POIN2 Label_6_014378FD
 BYTE   PATT
  POIN2 Label_6_014378D6
 BYTE   PATT
  POIN2 Label_6_014378D6
 BYTE   PATT
  POIN2 Label_6_014378E9
 BYTE   PATT
  POIN2 Label_6_014378FD
 BYTE   PATT
  POIN2 Label_6_014378D6
 BYTE   PATT
  POIN2 Label_6_014378D6
 BYTE   PATT
  POIN2 Label_6_014378E9
 BYTE   PATT
  POIN2 Label_6_014378FD
 BYTE   PATT
  POIN2 Label_6_014378D6
 BYTE   PATT
  POIN2 Label_6_014378D6
 BYTE   PATT
  POIN2 Label_6_014378E9
 BYTE   PATT
  POIN2 Label_6_014378FD
 BYTE   PATT
  POIN2 Label_6_014378D6
 BYTE   PATT
  POIN2 Label_6_014378D6
 BYTE   PATT
  POIN2 Label_6_014378E9
 BYTE   PATT
  POIN2 Label_6_014378FD
 BYTE   PATT
  POIN2 Label_6_014378D6
 BYTE   PATT
  POIN2 Label_6_014378D6
 BYTE   PATT
  POIN2 Label_6_014378E9
 BYTE   PATT
  POIN2 Label_6_014378FD
 BYTE   PATT
  POIN2 Label_6_014378D6
 BYTE   PATT
  POIN2 Label_6_014378D6
 BYTE   PATT
  POIN2 Label_6_014378E9
 BYTE   PATT
  POIN2 Label_6_014378FD
 BYTE   PATT
  POIN2 Label_6_014378D6
 BYTE   PATT
  POIN2 Label_6_014378D6
 BYTE   PATT
  POIN2 Label_6_014378E9
 BYTE   PATT
  POIN2 Label_6_014378FD
 BYTE   PATT
  POIN2 Label_6_014378D6
 BYTE   PATT
  POIN2 Label_6_014378D6
 BYTE   PATT
  POIN2 Label_6_014378E9
 BYTE   PATT
  POIN2 Label_6_014378FD
 BYTE   PATT
  POIN2 Label_6_014378D6
 BYTE   PATT
  POIN2 Label_6_014378D6
 BYTE   PATT
  POIN2 Label_6_014378E9
 BYTE   PATT
  POIN2 Label_6_014378FD
 BYTE   PATT
  POIN2 Label_6_014378D6
// 007   ----------------------------------------
Label_6_01437A09:
 BYTE   N15  Bn0  v100
 BYTE   W36
 BYTE   Bn0  v104
 BYTE   W48
 BYTE   N03  Bn0  v068
 BYTE   W12
 BYTE   PEND 
 BYTE   PATT
  POIN2 Label_6_014378B3
 BYTE   PATT
  POIN2 Label_6_01437A09
 BYTE   PATT
  POIN2 Label_6_014378B3
 BYTE   PATT
  POIN2 Label_6_01437A09
 BYTE   PATT
  POIN2 Label_6_014378B3
 BYTE   PATT
  POIN2 Label_6_01437A09
 BYTE   PATT
  POIN2 Label_6_014378B3
// 008   ----------------------------------------
 BYTE   GoTo
  POIN2 Label_6_0143789C
 BYTE   PATT
  POIN2 Label_6_014378D6
 BYTE   PATT
  POIN2 Label_6_014378E9
 BYTE   PATT
  POIN2 Label_6_014378FD
 BYTE   PATT
  POIN2 Label_6_014378D6
 BYTE   PATT
  POIN2 Label_6_014378D6
 BYTE   PATT
  POIN2 Label_6_014378E9
 BYTE   PATT
  POIN2 Label_6_014378FD
// 009   ----------------------------------------
 BYTE   N15  Bn0  v104
 BYTE   W92
 BYTE   W02
 BYTE   FINE

//******************************************************//
	ALIGN 4

song13:
	BYTE	7	// NumTrks
	BYTE	0	// NumBlks
	BYTE	song13_pri	// Priority
	BYTE	song13_rev	// Reverb.
    
	POIN2	song13_grp
    
	POIN2	song13_001
	POIN2	song13_002
	POIN2	song13_003
	POIN2	song13_004
	POIN2	song13_005
	POIN2	song13_006
	POIN2	song13_007

	
