//Event file generated from Sappy .s format.
	#include "MPlayDef.event"

	#define	song25_grp  voicegroup000
	#define	song25_pri  0
	#define	song25_rev  0
	#define	song25_mvl  127
	#define	song25_key  0
	#define	song25_tbs  1
	#define	song25_exg  0
	#define	song25_cmp  1

	// .rodata
	//	song25
	ALIGN 4


//**************** Track 1 (Midi-Chn.0) ****************//

song25_001:
//  #01 //000   ----------------------------------------
 BYTE   KEYSH   song25_key+0
 BYTE   TEMPO   156*song25_tbs/2
 BYTE   VOICE   48
 BYTE   MODT 0
 BYTE   LFOS 44
 BYTE   VOL   53*song25_mvl/mxv
 BYTE   PAN   c_v+0
 BYTE   W32
 BYTE   W01
 BYTE   W15
Label_0117D2F9:
 BYTE   N96  Dn3  v080
 BYTE   W01
 BYTE   W44
 BYTE   W03
//  #01 //001   ----------------------------------------
Label_0117D2FF:
 BYTE   W48
 BYTE   TIE  Gn3  v088
 BYTE   W48
 BYTE   PEND 
//  #01 //002   ----------------------------------------
 BYTE   W48
 BYTE   N96  An3  v096
 BYTE   W01
 BYTE   EOT
 BYTE   Gn3
 BYTE   W44
 BYTE   W03
//  #01 //003   ----------------------------------------
 BYTE   W48
 BYTE   N48  As3  v104
 BYTE   W48
//  #01 //004   ----------------------------------------
Label_0117D313:
 BYTE   N48  Cn4  v096
 BYTE   W48
 BYTE   N96  Dn4  v100
 BYTE   W48
 BYTE   PEND 
//  #01 //005   ----------------------------------------
 BYTE   W48
 BYTE   N44  Ds4
 BYTE   W48
//  #01 //006   ----------------------------------------
Label_0117D320:
 BYTE   N48  Cn4  v096
 BYTE   W48
 BYTE   TIE  Dn4  v092
 BYTE   W48
 BYTE   PEND 
//  #01 //007   ----------------------------------------
 BYTE   W48
 BYTE   N48  Ds4  v108
 BYTE   W03
 BYTE   EOT
 BYTE   Dn4
 BYTE   W44
 BYTE   W01
//  #01 //008   ----------------------------------------
Label_0117D332:
 BYTE   N44  Fn4  v100
 BYTE   W48
 BYTE   N10  Gn4  v104
 BYTE   W36
 BYTE   N07  Gs4  v108
 BYTE   W12
 BYTE   PEND 
//  #01 //009   ----------------------------------------
Label_0117D33F:
 BYTE   W12
 BYTE   N10  Fn4  v100
 BYTE   W24
 BYTE   Gn4  v108
 BYTE   W24
 BYTE   N12  Gn4  v112
 BYTE   W12
 BYTE   Gs4  v100
 BYTE   W12
 BYTE   N09  Fn4  v092
 BYTE   W12
 BYTE   PEND 
//  #01 //010   ----------------------------------------
Label_0117D353:
 BYTE   N12  Gn4  v112
 BYTE   W12
 BYTE   N11  Dn4  v096
 BYTE   W12
 BYTE   N10  Gn4  v124
 BYTE   W36
 BYTE   N09  Gs4  v112
 BYTE   W24
 BYTE   N12  Fn4  v104
 BYTE   W12
 BYTE   PEND 
//  #01 //011   ----------------------------------------
Label_0117D368:
 BYTE   W12
 BYTE   N09  Gn4  v112
 BYTE   W24
 BYTE   N13  Gn4  v108
 BYTE   W12
 BYTE   N12  Gs4  v104
 BYTE   W12
 BYTE   N10  Fn4  v088
 BYTE   W12
 BYTE   N13  Gn4  v112
 BYTE   W12
 BYTE   N10  Dn4  v096
 BYTE   W12
 BYTE   PEND 
//  #01 //012   ----------------------------------------
Label_0117D382:
 BYTE   N10  En4  v112
 BYTE   W36
 BYTE   N11  Fn4
 BYTE   W24
 BYTE   N10  Dn4  v096
 BYTE   W24
 BYTE   N09  En4  v116
 BYTE   W12
 BYTE   PEND 
//  #01 //013   ----------------------------------------
Label_0117D392:
 BYTE   W12
 BYTE   N13  En4  v108
 BYTE   W12
 BYTE   N11  Fn4  v092
 BYTE   W12
 BYTE   Dn4  v084
 BYTE   W12
 BYTE   En4  v108
 BYTE   W12
 BYTE   N09  An3  v084
 BYTE   W12
 BYTE   En4  v112
 BYTE   W24
 BYTE   PEND 
//  #01 //014   ----------------------------------------
Label_0117D3A9:
 BYTE   W12
 BYTE   N08  Fn4  v116
 BYTE   W24
 BYTE   N07  Dn4  v104
 BYTE   W24
 BYTE   N08  En4  v108
 BYTE   W24
 BYTE   N13
 BYTE   W12
 BYTE   PEND 
//  #01 //015   ----------------------------------------
Label_0117D3B9:
 BYTE   N11  Fn4  v100
 BYTE   W12
 BYTE   N10  Dn4  v092
 BYTE   W12
 BYTE   En4  v108
 BYTE   W12
 BYTE   N07  An3  v080
 BYTE   W03
 BYTE   VOICE   49
 BYTE   W09
 BYTE   N92  Cs4  v116
 BYTE   W48
 BYTE   PEND 
//  #01 //016   ----------------------------------------
Label_0117D3D0:
 BYTE   W48
 BYTE   TIE  Ds4  v112
 BYTE   W48
 BYTE   PEND 
//  #01 //017   ----------------------------------------
Label_0117D3D6:
 BYTE   W48
 BYTE   TIE  En4  v100
 BYTE   W02
 BYTE   PEND 
 BYTE   EOT
 BYTE   Ds4
 BYTE   W44
 BYTE   W02
//  #01 //018   ----------------------------------------
 BYTE   W48
 BYTE   N44  Fs4  v108
 BYTE   W03
 BYTE   EOT
 BYTE   En4
 BYTE   W44
 BYTE   W01
//  #01 //019   ----------------------------------------
Label_0117D3E9:
 BYTE   N48  Gs4  v108
 BYTE   W48
 BYTE   TIE  An4  v100
 BYTE   W48
 BYTE   PEND 
//  #01 //020   ----------------------------------------
 BYTE   W96
//  #01 //021   ----------------------------------------
 BYTE   W96
//  #01 //022   ----------------------------------------
 BYTE   W96
//  #01 //023   ----------------------------------------
Label_0117D3F5:
 BYTE   W48
 BYTE   TIE  Cs4  v116
 BYTE   W05
 BYTE   PEND 
 BYTE   EOT
 BYTE   An4
 BYTE   W42
 BYTE   W01
//  #01 //024   ----------------------------------------
 BYTE   W48
 BYTE   N96  Ds4  v100
 BYTE   W01
 BYTE   EOT
 BYTE   Cs4
 BYTE   W44
 BYTE   W03
//  #01 //025   ----------------------------------------
 BYTE   W48
 BYTE   N96  En4
 BYTE   W48
//  #01 //026   ----------------------------------------
 BYTE   W48
 BYTE   N44  Fs4  v108
 BYTE   W48
//  #01 //027   ----------------------------------------
Label_0117D411:
 BYTE   N48  Gs4  v104
 BYTE   W48
 BYTE   TIE  An4  v092
 BYTE   W48
 BYTE   PEND 
//  #01 //028   ----------------------------------------
 BYTE   W96
//  #01 //029   ----------------------------------------
 BYTE   W96
//  #01 //030   ----------------------------------------
 BYTE   VOICE   48
 BYTE   W96
//  #01 //031   ----------------------------------------
 BYTE   W44
 BYTE   W02
 BYTE   EOT
 BYTE   W02
 BYTE   N07  As3  v124
 BYTE   N07  Ds4  v112
 BYTE   W24
 BYTE   N06  As3  v072
 BYTE   N06  Ds4  v060
 BYTE   W24
//  #01 //032   ----------------------------------------
Label_0117D431:
 BYTE   N04  As3  v052
 BYTE   N05  Ds4  v088
 BYTE   W24
 BYTE   Cs4  v108
 BYTE   N07  Fs4  v112
 BYTE   W24
 BYTE   N06  Cs4  v056
 BYTE   N06  Fs4  v064
 BYTE   W24
 BYTE   Cs4  v048
 BYTE   N07  Fs4  v036
 BYTE   W24
 BYTE   PEND 
//  #01 //033   ----------------------------------------
Label_0117D44C:
 BYTE   N05  As3  v104
 BYTE   N07  Ds4  v116
 BYTE   W24
 BYTE   N05  As3  v052
 BYTE   N06  Ds4  v068
 BYTE   W24
 BYTE   An3  v112
 BYTE   N06  Dn4  v124
 BYTE   W24
 BYTE   N05  An3  v060
 BYTE   N06  Dn4  v052
 BYTE   W24
 BYTE   PEND 
//  #01 //034   ----------------------------------------
Label_0117D468:
 BYTE   N05  An3  v056
 BYTE   N05  Dn4  v044
 BYTE   W24
 BYTE   N06  Cn4  v112
 BYTE   N06  Fn4  v104
 BYTE   W24
 BYTE   Cn4  v052
 BYTE   N06  Fn4  v060
 BYTE   W24
 BYTE   N05  Cn4  v044
 BYTE   N05  Fn4  v068
 BYTE   W24
 BYTE   PEND 
//  #01 //035   ----------------------------------------
Label_0117D484:
 BYTE   N06  An3  v104
 BYTE   N06  Dn4  v120
 BYTE   W24
 BYTE   N05  An3  v076
 BYTE   N04  Dn4  v080
 BYTE   W24
 BYTE   N07  As3  v124
 BYTE   N06  Ds4  v120
 BYTE   W24
 BYTE   As3  v072
 BYTE   N06  Ds4  v068
 BYTE   W24
 BYTE   PEND 
//  #01 //036   ----------------------------------------
Label_0117D4A0:
 BYTE   N04  As3  v052
 BYTE   N05  Ds4  v084
 BYTE   W24
 BYTE   Cs4  v108
 BYTE   N08  Fs4  v116
 BYTE   W24
 BYTE   N06  Cs4  v056
 BYTE   N05  Fs4  v076
 BYTE   W24
 BYTE   N06  Cs4  v048
 BYTE   N06  Fs4  v076
 BYTE   W24
 BYTE   PEND 
//  #01 //037   ----------------------------------------
Label_0117D4BC:
 BYTE   N05  As3  v104
 BYTE   N06  Ds4  v112
 BYTE   W24
 BYTE   N05  As3  v052
 BYTE   N04  Ds4  v080
 BYTE   W24
 BYTE   N06  An3  v112
 BYTE   N05  Dn4
 BYTE   W24
 BYTE   An3  v060
 BYTE   N05  Dn4  v080
 BYTE   W24
 BYTE   PEND 
//  #01 //038   ----------------------------------------
Label_0117D4D7:
 BYTE   N05  An3  v056
 BYTE   N06  Dn4  v072
 BYTE   W24
 BYTE   Cn4  v112
 BYTE   N06  Fn4  v104
 BYTE   W24
 BYTE   Cn4  v052
 BYTE   N06  Fn4  v072
 BYTE   W24
 BYTE   N05  Cn4  v044
 BYTE   N04  Fn4  v032
 BYTE   W24
 BYTE   PEND 
//  #01 //039   ----------------------------------------
Label_0117D4F2:
 BYTE   N06  An3  v104
 BYTE   N06  Dn4
 BYTE   W24
 BYTE   N05  An3  v076
 BYTE   N05  Dn4  v092
 BYTE   W15
 BYTE   VOICE   49
 BYTE   W09
 BYTE   TIE  Ds5  v104
 BYTE   W48
 BYTE   PEND 
//  #01 //040   ----------------------------------------
Label_0117D507:
 BYTE   W48
 BYTE   TIE  Dn5  v100
 BYTE   W01
 BYTE   PEND 
 BYTE   EOT
 BYTE   Ds5
 BYTE   W44
 BYTE   W03
//  #01 //041   ----------------------------------------
 BYTE   W48
 BYTE   N96  As4  v088
 BYTE   W01
 BYTE   EOT
 BYTE   Dn5
 BYTE   W44
 BYTE   W03
//  #01 //042   ----------------------------------------
 BYTE   W48
 BYTE   N92  Gn4
 BYTE   W48
//  #01 //043   ----------------------------------------
 BYTE   W06
 BYTE   VOICE   48
 BYTE   W42
 BYTE   GoTo
  POIN2 Label_0117D2F9
//  #01 //044   ----------------------------------------
 BYTE   N96  Dn3  v080
 BYTE   W01
 BYTE   W44
 BYTE   W03
//  #01 //045   ----------------------------------------
 BYTE   PATT
  POIN2 Label_0117D2FF
//  #01 //046   ----------------------------------------
 BYTE   W48
 BYTE   N96  An3  v096
 BYTE   W01
 BYTE   EOT
 BYTE   Gn3
 BYTE   W44
 BYTE   W03
//  #01 //047   ----------------------------------------
 BYTE   W48
 BYTE   N48  As3  v104
 BYTE   W48
//  #01 //048   ----------------------------------------
 BYTE   PATT
  POIN2 Label_0117D313
//  #01 //049   ----------------------------------------
 BYTE   W48
 BYTE   N44  Ds4  v100
 BYTE   W48
//  #01 //050   ----------------------------------------
 BYTE   PATT
  POIN2 Label_0117D320
//  #01 //051   ----------------------------------------
 BYTE   W48
 BYTE   N48  Ds4  v108
 BYTE   W03
 BYTE   EOT
 BYTE   Dn4
 BYTE   W44
 BYTE   W01
//  #01 //052   ----------------------------------------
 BYTE   PATT
  POIN2 Label_0117D332
//  #01 //053   ----------------------------------------
 BYTE   PATT
  POIN2 Label_0117D33F
//  #01 //054   ----------------------------------------
 BYTE   PATT
  POIN2 Label_0117D353
//  #01 //055   ----------------------------------------
 BYTE   PATT
  POIN2 Label_0117D368
//  #01 //056   ----------------------------------------
 BYTE   PATT
  POIN2 Label_0117D382
//  #01 //057   ----------------------------------------
 BYTE   PATT
  POIN2 Label_0117D392
//  #01 //058   ----------------------------------------
 BYTE   PATT
  POIN2 Label_0117D3A9
//  #01 //059   ----------------------------------------
 BYTE   PATT
  POIN2 Label_0117D3B9
//  #01 //060   ----------------------------------------
 BYTE   PATT
  POIN2 Label_0117D3D0
//  #01 //061   ----------------------------------------
 BYTE   PATT
  POIN2 Label_0117D3D6
//  #01 //062   ----------------------------------------
 BYTE   EOT
 BYTE   Ds4
 BYTE   W44
 BYTE   W02
 BYTE   W48
 BYTE   N44  Fs4  v108
 BYTE   W03
//  #01 //063   ----------------------------------------
 BYTE   EOT
 BYTE   En4
 BYTE   W44
 BYTE   W01
//  #01 //064   ----------------------------------------
 BYTE   PATT
  POIN2 Label_0117D3E9
//  #01 //065   ----------------------------------------
 BYTE   W96
//  #01 //066   ----------------------------------------
 BYTE   W96
//  #01 //067   ----------------------------------------
 BYTE   W96
//  #01 //068   ----------------------------------------
 BYTE   PATT
  POIN2 Label_0117D3F5
//  #01 //069   ----------------------------------------
 BYTE   EOT
 BYTE   An4
 BYTE   W42
 BYTE   W01
 BYTE   W48
 BYTE   N96  Ds4  v100
 BYTE   W01
 BYTE   EOT
 BYTE   Cs4
 BYTE   W44
//  #01 //070   ----------------------------------------
 BYTE   W03
 BYTE   W48
 BYTE   N96  En4
 BYTE   W48
//  #01 //071   ----------------------------------------
 BYTE   W48
 BYTE   N44  Fs4  v108
 BYTE   W48
//  #01 //072   ----------------------------------------
 BYTE   PATT
  POIN2 Label_0117D411
//  #01 //073   ----------------------------------------
 BYTE   W96
//  #01 //074   ----------------------------------------
 BYTE   W96
//  #01 //075   ----------------------------------------
 BYTE   VOICE   48
 BYTE   W96
//  #01 //076   ----------------------------------------
 BYTE   W44
 BYTE   W02
 BYTE   EOT
 BYTE   An4
 BYTE   W02
 BYTE   N07  As3  v124
 BYTE   N07  Ds4  v112
 BYTE   W24
 BYTE   N06  As3  v072
 BYTE   N06  Ds4  v060
 BYTE   W24
//  #01 //077   ----------------------------------------
 BYTE   PATT
  POIN2 Label_0117D431
//  #01 //078   ----------------------------------------
 BYTE   PATT
  POIN2 Label_0117D44C
//  #01 //079   ----------------------------------------
 BYTE   PATT
  POIN2 Label_0117D468
//  #01 //080   ----------------------------------------
 BYTE   PATT
  POIN2 Label_0117D484
//  #01 //081   ----------------------------------------
 BYTE   PATT
  POIN2 Label_0117D4A0
//  #01 //082   ----------------------------------------
 BYTE   PATT
  POIN2 Label_0117D4BC
//  #01 //083   ----------------------------------------
 BYTE   PATT
  POIN2 Label_0117D4D7
//  #01 //084   ----------------------------------------
 BYTE   PATT
  POIN2 Label_0117D4F2
//  #01 //085   ----------------------------------------
 BYTE   PATT
  POIN2 Label_0117D507
//  #01 //086   ----------------------------------------
 BYTE   EOT
 BYTE   Ds5
 BYTE   W44
 BYTE   W03
 BYTE   W48
 BYTE   N96  As4  v088
 BYTE   W01
//  #01 //087   ----------------------------------------
 BYTE   EOT
 BYTE   Dn5
 BYTE   W44
 BYTE   W03
 BYTE   W48
 BYTE   N92  Gn4
 BYTE   W48
//  #01 //088   ----------------------------------------
 BYTE   W48
 BYTE   FINE

//**************** Track 2 (Midi-Chn.1) ****************//

song25_002:
//  #02 //000   ----------------------------------------
 BYTE   KEYSH   song25_key+0
 BYTE   VOICE   47
 BYTE   MODT 0
 BYTE   LFOS 44
 BYTE   VOL   65*song25_mvl/mxv
 BYTE   PAN   c_v-14
 BYTE   W36
 BYTE   N11  Cn2  v104
 BYTE   W12
Label_0117D629:
 BYTE   N21  Dn2  v108
 BYTE   W36
 BYTE   N21
 BYTE   W12
//  #02 //001   ----------------------------------------
 BYTE   W96
//  #02 //002   ----------------------------------------
Label_0117D630:
 BYTE   W36
 BYTE   N08  Cn2  v104
 BYTE   W12
 BYTE   N17  Dn2  v112
 BYTE   W36
 BYTE   N14  Dn2  v116
 BYTE   W12
 BYTE   PEND 
//  #02 //003   ----------------------------------------
 BYTE   W96
//  #02 //004   ----------------------------------------
Label_0117D63F:
 BYTE   W36
 BYTE   N09  Cn2  v096
 BYTE   W12
 BYTE   N18  Dn2  v100
 BYTE   W36
 BYTE   N13  Dn2  v116
 BYTE   W12
 BYTE   PEND 
//  #02 //005   ----------------------------------------
 BYTE   W96
//  #02 //006   ----------------------------------------
Label_0117D64E:
 BYTE   W36
 BYTE   N10  Cn2  v068
 BYTE   W12
 BYTE   N09  Dn2  v084
 BYTE   W36
 BYTE   N10  Dn2  v092
 BYTE   W12
 BYTE   PEND 
//  #02 //007   ----------------------------------------
 BYTE   W96
//  #02 //008   ----------------------------------------
Label_0117D65D:
 BYTE   W36
 BYTE   N08  Dn2  v084
 BYTE   W12
 BYTE   N12  Gn2  v100
 BYTE   W48
 BYTE   PEND 
//  #02 //009   ----------------------------------------
Label_0117D667:
 BYTE   W36
 BYTE   N13  Gn2  v088
 BYTE   W24
 BYTE   N12  Gn2  v092
 BYTE   W36
 BYTE   PEND 
//  #02 //010   ----------------------------------------
Label_0117D671:
 BYTE   N08  Gn2  v088
 BYTE   W24
 BYTE   Gn2  v080
 BYTE   W72
 BYTE   PEND 
//  #02 //011   ----------------------------------------
Label_0117D679:
 BYTE   W12
 BYTE   N13  Gn2  v092
 BYTE   W24
 BYTE   N11
 BYTE   W24
 BYTE   N04  Gn2  v060
 BYTE   W24
 BYTE   N07  Dn2  v088
 BYTE   W12
 BYTE   PEND 
//  #02 //012   ----------------------------------------
Label_0117D689:
 BYTE   N12  En2  v108
 BYTE   W84
 BYTE   N13  En2  v088
 BYTE   W12
 BYTE   PEND 
//  #02 //013   ----------------------------------------
Label_0117D692:
 BYTE   W12
 BYTE   N14  En2  v104
 BYTE   W48
 BYTE   N10  Bn1  v068
 BYTE   W12
 BYTE   N14  En2  v096
 BYTE   W24
 BYTE   PEND 
//  #02 //014   ----------------------------------------
Label_0117D6A0:
 BYTE   W60
 BYTE   N13  En2  v100
 BYTE   W24
 BYTE   N12  En2  v088
 BYTE   W12
 BYTE   PEND 
//  #02 //015   ----------------------------------------
Label_0117D6AA:
 BYTE   W48
 BYTE   N12  Cs2  v088
 BYTE   W36
 BYTE   N36  Cs2  v076
 BYTE   W12
 BYTE   PEND 
//  #02 //016   ----------------------------------------
Label_0117D6B4:
 BYTE   W36
 BYTE   N12  Gs1  v076
 BYTE   W12
 BYTE   N22  Cs2  v096
 BYTE   W36
 BYTE   N21
 BYTE   W12
 BYTE   PEND 
//  #02 //017   ----------------------------------------
Label_0117D6C0:
 BYTE   W36
 BYTE   N09  Gs1  v080
 BYTE   W12
 BYTE   N21  Cs2  v088
 BYTE   W36
 BYTE   N28  Cs2  v092
 BYTE   W12
 BYTE   PEND 
//  #02 //018   ----------------------------------------
Label_0117D6CE:
 BYTE   W36
 BYTE   N10  Gs1  v064
 BYTE   W12
 BYTE   N22  Cs2  v088
 BYTE   W36
 BYTE   N19
 BYTE   W12
 BYTE   PEND 
//  #02 //019   ----------------------------------------
Label_0117D6DA:
 BYTE   W11
 BYTE   N12  Gs1  v112
 BYTE   W12
 BYTE   N11  Cs2  v116
 BYTE   W11
 BYTE   Gs1
 BYTE   W14
 BYTE   N19  Cn2  v076
 BYTE   W36
 BYTE   Cn2  v068
 BYTE   W12
 BYTE   PEND 
//  #02 //020   ----------------------------------------
Label_0117D6ED:
 BYTE   W36
 BYTE   N06  An1  v060
 BYTE   W11
 BYTE   N24  Cn2  v076
 BYTE   W36
 BYTE   N42
 BYTE   W13
 BYTE   PEND 
//  #02 //021   ----------------------------------------
Label_0117D6F9:
 BYTE   W36
 BYTE   N11  An1  v072
 BYTE   W12
 BYTE   N24  Cn2  v088
 BYTE   W36
 BYTE   N40  Cn2  v084
 BYTE   W12
 BYTE   PEND 
//  #02 //022   ----------------------------------------
Label_0117D707:
 BYTE   W36
 BYTE   N07  An1  v084
 BYTE   W12
 BYTE   N20  Cn2  v080
 BYTE   W36
 BYTE   N28  Cn2  v068
 BYTE   W12
 BYTE   PEND 
//  #02 //023   ----------------------------------------
Label_0117D715:
 BYTE   W12
 BYTE   N15  An1  v080
 BYTE   W12
 BYTE   N10  Cn2  v092
 BYTE   W12
 BYTE   N06  Gs1  v076
 BYTE   W12
 BYTE   N21  Cs2  v100
 BYTE   W36
 BYTE   N36  Cs2  v096
 BYTE   W12
 BYTE   PEND 
//  #02 //024   ----------------------------------------
Label_0117D72B:
 BYTE   W36
 BYTE   N08  Gs1  v100
 BYTE   W12
 BYTE   N24  Cs2  v108
 BYTE   W36
 BYTE   N40
 BYTE   W12
 BYTE   PEND 
//  #02 //025   ----------------------------------------
Label_0117D737:
 BYTE   W36
 BYTE   N07  Gs1  v096
 BYTE   W12
 BYTE   N20  Cs2  v108
 BYTE   W36
 BYTE   N36  Cs2  v104
 BYTE   W12
 BYTE   PEND 
//  #02 //026   ----------------------------------------
Label_0117D745:
 BYTE   W36
 BYTE   N08  Gs1  v092
 BYTE   W12
 BYTE   N22  Cs2  v112
 BYTE   W36
 BYTE   N15  Cs2  v104
 BYTE   W12
 BYTE   PEND 
//  #02 //027   ----------------------------------------
Label_0117D753:
 BYTE   W12
 BYTE   N16  Gs1  v092
 BYTE   W12
 BYTE   N12  Cs2  v108
 BYTE   W12
 BYTE   N07  Gs1  v112
 BYTE   W12
 BYTE   N16  An1  v088
 BYTE   W36
 BYTE   N42  An1  v080
 BYTE   W12
 BYTE   PEND 
//  #02 //028   ----------------------------------------
Label_0117D769:
 BYTE   W36
 BYTE   N06  An1  v056
 BYTE   W12
 BYTE   N15  An1  v080
 BYTE   W36
 BYTE   An1  v076
 BYTE   W12
 BYTE   PEND 
//  #02 //029   ----------------------------------------
Label_0117D776:
 BYTE   W36
 BYTE   N07  An1  v088
 BYTE   W12
 BYTE   N16  An1  v092
 BYTE   W36
 BYTE   N24  An1  v104
 BYTE   W12
 BYTE   PEND 
//  #02 //030   ----------------------------------------
Label_0117D784:
 BYTE   W36
 BYTE   N06  An1  v112
 BYTE   W12
 BYTE   N19
 BYTE   W36
 BYTE   N13
 BYTE   W12
 BYTE   PEND 
//  #02 //031   ----------------------------------------
Label_0117D78E:
 BYTE   W12
 BYTE   N14  An1  v104
 BYTE   W12
 BYTE   En2
 BYTE   W12
 BYTE   N08  An1  v100
 BYTE   W12
 BYTE   N44  Ds2  v116
 BYTE   W48
 BYTE   PEND 
//  #02 //032   ----------------------------------------
 BYTE   W24
 BYTE   N24
 BYTE   W72
//  #02 //033   ----------------------------------------
Label_0117D7A1:
 BYTE   N24  As1  v112
 BYTE   W24
 BYTE   N23  Ds2
 BYTE   W24
 BYTE   Dn2  v104
 BYTE   W48
 BYTE   PEND 
//  #02 //034   ----------------------------------------
 BYTE   W24
 BYTE   N24  Dn2  v108
 BYTE   W72
//  #02 //035   ----------------------------------------
Label_0117D7B1:
 BYTE   N21  An1  v112
 BYTE   W24
 BYTE   N24  Dn2  v100
 BYTE   W24
 BYTE   N36  Ds2  v112
 BYTE   W48
 BYTE   PEND 
//  #02 //036   ----------------------------------------
 BYTE   W24
 BYTE   N72
 BYTE   W72
//  #02 //037   ----------------------------------------
Label_0117D7C1:
 BYTE   N23  As1  v104
 BYTE   W24
 BYTE   N22  Ds2  v112
 BYTE   W24
 BYTE   N30  Dn2  v104
 BYTE   W48
 BYTE   PEND 
//  #02 //038   ----------------------------------------
 BYTE   W24
 BYTE   N64
 BYTE   W72
//  #02 //039   ----------------------------------------
Label_0117D7D1:
 BYTE   N23  An1  v088
 BYTE   W24
 BYTE   Dn2  v100
 BYTE   W24
 BYTE   N56  Cn2
 BYTE   W48
 BYTE   PEND 
//  #02 //040   ----------------------------------------
 BYTE   W96
//  #02 //041   ----------------------------------------
 BYTE   W96
//  #02 //042   ----------------------------------------
 BYTE   W96
//  #02 //043   ----------------------------------------
 BYTE   W36
 BYTE   N08  Cn2  v104
 BYTE   W12
 BYTE   GoTo
  POIN2 Label_0117D629
//  #02 //044   ----------------------------------------
 BYTE   N21  Dn2  v108
 BYTE   W36
 BYTE   N21
 BYTE   W12
 BYTE   W96
//  #02 //045   ----------------------------------------
 BYTE   PATT
  POIN2 Label_0117D630
//  #02 //046   ----------------------------------------
 BYTE   W96
//  #02 //047   ----------------------------------------
 BYTE   PATT
  POIN2 Label_0117D63F
//  #02 //048   ----------------------------------------
 BYTE   W96
//  #02 //049   ----------------------------------------
 BYTE   PATT
  POIN2 Label_0117D64E
//  #02 //050   ----------------------------------------
 BYTE   W96
//  #02 //051   ----------------------------------------
 BYTE   PATT
  POIN2 Label_0117D65D
//  #02 //052   ----------------------------------------
 BYTE   PATT
  POIN2 Label_0117D667
//  #02 //053   ----------------------------------------
 BYTE   PATT
  POIN2 Label_0117D671
//  #02 //054   ----------------------------------------
 BYTE   PATT
  POIN2 Label_0117D679
//  #02 //055   ----------------------------------------
 BYTE   PATT
  POIN2 Label_0117D689
//  #02 //056   ----------------------------------------
 BYTE   PATT
  POIN2 Label_0117D692
//  #02 //057   ----------------------------------------
 BYTE   PATT
  POIN2 Label_0117D6A0
//  #02 //058   ----------------------------------------
 BYTE   PATT
  POIN2 Label_0117D6AA
//  #02 //059   ----------------------------------------
 BYTE   PATT
  POIN2 Label_0117D6B4
//  #02 //060   ----------------------------------------
 BYTE   PATT
  POIN2 Label_0117D6C0
//  #02 //061   ----------------------------------------
 BYTE   PATT
  POIN2 Label_0117D6CE
//  #02 //062   ----------------------------------------
 BYTE   PATT
  POIN2 Label_0117D6DA
//  #02 //063   ----------------------------------------
 BYTE   PATT
  POIN2 Label_0117D6ED
//  #02 //064   ----------------------------------------
 BYTE   PATT
  POIN2 Label_0117D6F9
//  #02 //065   ----------------------------------------
 BYTE   PATT
  POIN2 Label_0117D707
//  #02 //066   ----------------------------------------
 BYTE   PATT
  POIN2 Label_0117D715
//  #02 //067   ----------------------------------------
 BYTE   PATT
  POIN2 Label_0117D72B
//  #02 //068   ----------------------------------------
 BYTE   PATT
  POIN2 Label_0117D737
//  #02 //069   ----------------------------------------
 BYTE   PATT
  POIN2 Label_0117D745
//  #02 //070   ----------------------------------------
 BYTE   PATT
  POIN2 Label_0117D753
//  #02 //071   ----------------------------------------
 BYTE   PATT
  POIN2 Label_0117D769
//  #02 //072   ----------------------------------------
 BYTE   PATT
  POIN2 Label_0117D776
//  #02 //073   ----------------------------------------
 BYTE   PATT
  POIN2 Label_0117D784
//  #02 //074   ----------------------------------------
 BYTE   PATT
  POIN2 Label_0117D78E
//  #02 //075   ----------------------------------------
 BYTE   W24
 BYTE   N24  Ds2  v116
 BYTE   W72
//  #02 //076   ----------------------------------------
 BYTE   PATT
  POIN2 Label_0117D7A1
//  #02 //077   ----------------------------------------
 BYTE   W24
 BYTE   N24  Dn2  v108
 BYTE   W72
//  #02 //078   ----------------------------------------
 BYTE   PATT
  POIN2 Label_0117D7B1
//  #02 //079   ----------------------------------------
 BYTE   W24
 BYTE   N72  Ds2  v112
 BYTE   W72
//  #02 //080   ----------------------------------------
 BYTE   PATT
  POIN2 Label_0117D7C1
//  #02 //081   ----------------------------------------
 BYTE   W24
 BYTE   N64  Dn2  v104
 BYTE   W72
//  #02 //082   ----------------------------------------
 BYTE   PATT
  POIN2 Label_0117D7D1
//  #02 //083   ----------------------------------------
 BYTE   W96
//  #02 //084   ----------------------------------------
 BYTE   W96
//  #02 //085   ----------------------------------------
 BYTE   W96
//  #02 //086   ----------------------------------------
 BYTE   W36
 BYTE   N08  Cn2  v104
 BYTE   W12
 BYTE   FINE

//**************** Track 3 (Midi-Chn.2) ****************//

song25_003:
//  #03 //000   ----------------------------------------
 BYTE   KEYSH   song25_key+0
 BYTE   VOICE   56
 BYTE   MODT 0
 BYTE   LFOS 44
 BYTE   VOL   58*song25_mvl/mxv
 BYTE   PAN   c_v-19
 BYTE   W48
Label_0117D8B9:
 BYTE   VOL   58*song25_mvl/mxv
 BYTE   N04  Dn3  v112
 BYTE   N02  En3  v116
 BYTE   N05  An3  v112
 BYTE   W06
 BYTE   N04  Dn3
 BYTE   N03  En3  v100
 BYTE   N04  An3  v112
 BYTE   W06
 BYTE   Dn3
 BYTE   N04  En3  v116
 BYTE   N04  An3  v112
 BYTE   W24
 BYTE   N05  Dn3
 BYTE   N03  En3  v116
 BYTE   N06  An3  v112
 BYTE   W06
 BYTE   N04  Dn3
 BYTE   N03  En3  v104
 BYTE   N01  An3  v112
 BYTE   W06
//  #03 //001   ----------------------------------------
Label_0117D8E8:
 BYTE   N04  Dn3  v112
 BYTE   N04  En3  v108
 BYTE   N08  An3  v112
 BYTE   W72
 BYTE   N07  Ds3
 BYTE   N06  Fn3  v116
 BYTE   N07  As3  v112
 BYTE   W24
 BYTE   PEND 
//  #03 //002   ----------------------------------------
Label_0117D8FC:
 BYTE   W12
 BYTE   N07  Cn3  v112
 BYTE   N06  Dn3  v124
 BYTE   N07  Gn3  v112
 BYTE   W36
 BYTE   N04  Dn3
 BYTE   N04  En3
 BYTE   N04  An3
 BYTE   W06
 BYTE   Dn3
 BYTE   N03  En3  v108
 BYTE   N03  An3  v112
 BYTE   W06
 BYTE   N05  Dn3
 BYTE   N05  En3  v104
 BYTE   N05  An3  v112
 BYTE   W24
 BYTE   N04  Dn3
 BYTE   N03  En3
 BYTE   N04  An3
 BYTE   W06
 BYTE   N06  Dn3
 BYTE   N03  En3  v108
 BYTE   N05  An3  v112
 BYTE   W06
 BYTE   PEND 
//  #03 //003   ----------------------------------------
Label_0117D930:
 BYTE   N04  Dn3  v112
 BYTE   N05  En3  v108
 BYTE   N05  An3  v112
 BYTE   W72
 BYTE   N07  Ds3
 BYTE   N06  Fn3  v120
 BYTE   N06  As3  v112
 BYTE   W24
 BYTE   PEND 
//  #03 //004   ----------------------------------------
Label_0117D944:
 BYTE   W12
 BYTE   N07  Fn3  v112
 BYTE   N05  Gn3
 BYTE   N09  Cn4
 BYTE   W36
 BYTE   N04  Dn3
 BYTE   N03  En3
 BYTE   N05  An3
 BYTE   W06
 BYTE   N04  Dn3
 BYTE   N04  En3
 BYTE   N04  An3
 BYTE   W06
 BYTE   Dn3
 BYTE   N04  En3
 BYTE   N04  An3
 BYTE   W24
 BYTE   N05  Dn3
 BYTE   N03  En3
 BYTE   N06  An3
 BYTE   W06
 BYTE   N04  Dn3
 BYTE   N03  En3  v108
 BYTE   N01  An3  v112
 BYTE   W06
 BYTE   PEND 
//  #03 //005   ----------------------------------------
Label_0117D972:
 BYTE   N07  Dn3  v112
 BYTE   N05  En3  v104
 BYTE   N08  An3  v112
 BYTE   W72
 BYTE   N07  Ds3
 BYTE   N05  Fn3  v124
 BYTE   N07  As3  v112
 BYTE   W24
 BYTE   PEND 
//  #03 //006   ----------------------------------------
Label_0117D986:
 BYTE   W12
 BYTE   N07  Cn3  v112
 BYTE   N05  Dn3
 BYTE   N07  Gn3
 BYTE   W36
 BYTE   N04  Dn3
 BYTE   N03  En3
 BYTE   N04  An3
 BYTE   W06
 BYTE   Dn3
 BYTE   N03  En3
 BYTE   N03  An3
 BYTE   W06
 BYTE   N05  Dn3
 BYTE   N04  En3  v100
 BYTE   N05  An3  v112
 BYTE   W24
 BYTE   N04  Dn3
 BYTE   N03  En3
 BYTE   N04  An3
 BYTE   W06
 BYTE   N06  Dn3
 BYTE   N03  En3  v108
 BYTE   N05  An3  v112
 BYTE   W06
 BYTE   PEND 
//  #03 //007   ----------------------------------------
Label_0117D9B6:
 BYTE   N04  Dn3  v112
 BYTE   N05  En3  v100
 BYTE   N05  An3  v112
 BYTE   W72
 BYTE   N07  Ds3
 BYTE   N07  Fn3  v116
 BYTE   N06  As3  v112
 BYTE   W24
 BYTE   PEND 
//  #03 //008   ----------------------------------------
Label_0117D9CA:
 BYTE   W12
 BYTE   N07  Fn3  v112
 BYTE   N05  Gn3  v100
 BYTE   N09  Cn4  v112
 BYTE   W32
 BYTE   W02
 BYTE   N08  Cn3  v056
 BYTE   W02
 BYTE   Dn3  v120
 BYTE   W36
 BYTE   N06  Cs3  v056
 BYTE   N08  Ds3  v120
 BYTE   W12
 BYTE   PEND 
//  #03 //009   ----------------------------------------
Label_0117D9E5:
 BYTE   W11
 BYTE   N08  As2  v056
 BYTE   W01
 BYTE   N09  Cn3  v100
 BYTE   W23
 BYTE   N07  Cn3  v056
 BYTE   W01
 BYTE   N09  Dn3  v120
 BYTE   W12
 BYTE   N06  Dn3  v100
 BYTE   W11
 BYTE   N08  Cn3  v056
 BYTE   W01
 BYTE   N10  Dn3  v112
 BYTE   W12
 BYTE   N08  Cs3  v056
 BYTE   N09  Ds3  v116
 BYTE   W12
 BYTE   N06  As2  v056
 BYTE   N08  Cn3  v084
 BYTE   W12
 BYTE   PEND 
//  #03 //010   ----------------------------------------
 BYTE   N07  Cn3  v056
 BYTE   N08  Dn3  v116
 BYTE   W09
 BYTE   N04  As2  v056
 BYTE   W03
 BYTE   An2  v084
 BYTE   W12
 BYTE   N06  Cn3  v056
 BYTE   N12  Dn3  v112
 BYTE   W36
 BYTE   N06  Cs3  v056
 BYTE   N09  Ds3  v116
 BYTE   W24
 BYTE   N10  Cn3  v088
 BYTE   W01
 BYTE   N06  As2  v056
 BYTE   W11
//  #03 //011   ----------------------------------------
Label_0117DA35:
 BYTE   W12
 BYTE   N08  Cn3  v056
 BYTE   N08  Dn3  v116
 BYTE   W12
 BYTE   N06  Dn3  v100
 BYTE   W12
 BYTE   N10  Dn3  v108
 BYTE   W01
 BYTE   N08  Cn3  v056
 BYTE   W11
 BYTE   N09  Ds3  v112
 BYTE   W01
 BYTE   N07  Cs3  v056
 BYTE   W11
 BYTE   N05  As2
 BYTE   N08  Cn3  v088
 BYTE   W11
 BYTE   N06  Cn3  v056
 BYTE   W01
 BYTE   N07  Dn3  v116
 BYTE   W23
 BYTE   N09  An2  v056
 BYTE   W01
 BYTE   PEND 
//  #03 //012   ----------------------------------------
Label_0117DA64:
 BYTE   N11  Bn2  v116
 BYTE   W36
 BYTE   N09  Cn3  v108
 BYTE   W02
 BYTE   N06  As2  v056
 BYTE   W22
 BYTE   N09  An2  v108
 BYTE   W02
 BYTE   N06  Gn2  v056
 BYTE   W22
 BYTE   An2
 BYTE   N10  Bn2  v108
 BYTE   W12
 BYTE   PEND 
//  #03 //013   ----------------------------------------
Label_0117DA7E:
 BYTE   N06  Bn2  v100
 BYTE   W12
 BYTE   N07  An2  v056
 BYTE   N10  Bn2  v116
 BYTE   W12
 BYTE   N06  As2  v056
 BYTE   N09  Cn3  v112
 BYTE   W11
 BYTE   N07  Gn2  v056
 BYTE   W01
 BYTE   N08  An2  v088
 BYTE   W11
 BYTE   N06  An2  v056
 BYTE   W01
 BYTE   N08  Bn2  v112
 BYTE   W24
 BYTE   N05  An2  v056
 BYTE   N12  Bn2  v116
 BYTE   W24
 BYTE   PEND 
//  #03 //014   ----------------------------------------
 BYTE   W12
 BYTE   N10  Cn3  v112
 BYTE   W01
 BYTE   N06  As2  v056
 BYTE   W21
 BYTE   N07  Gn2
 BYTE   W02
 BYTE   N09  An2  v108
 BYTE   W24
 BYTE   N07  An2  v056
 BYTE   N10  Bn2  v116
 BYTE   W12
 BYTE   N06  Bn2  v100
 BYTE   W11
 BYTE   N09  An2  v056
 BYTE   W01
 BYTE   N10  Bn2  v112
 BYTE   W12
//  #03 //015   ----------------------------------------
Label_0117DACB:
 BYTE   N07  Cn3  v100
 BYTE   W01
 BYTE   As2  v056
 BYTE   W10
 BYTE   N06  Gn2
 BYTE   W01
 BYTE   N08  An2  v088
 BYTE   W11
 BYTE   N06  An2  v056
 BYTE   W01
 BYTE   N09  Bn2  v112
 BYTE   W72
 BYTE   PEND 
//  #03 //016   ----------------------------------------
 BYTE   W96
//  #03 //017   ----------------------------------------
 BYTE   W96
//  #03 //018   ----------------------------------------
 BYTE   W96
//  #03 //019   ----------------------------------------
Label_0117DAE5:
 BYTE   W48
 BYTE   W24
 BYTE   N07  En3  v124
 BYTE   N07  An3
 BYTE   W24
 BYTE   PEND 
//  #03 //020   ----------------------------------------
Label_0117DAEE:
 BYTE   W12
 BYTE   N06  En3  v124
 BYTE   N07  An3
 BYTE   W36
 BYTE   N05  En3
 BYTE   N03  An3
 BYTE   W06
 BYTE   N04  En3
 BYTE   N03  An3
 BYTE   W06
 BYTE   N04  En3
 BYTE   N04  An3
 BYTE   W24
 BYTE   N05  En3
 BYTE   N05  An3
 BYTE   W06
 BYTE   N04  En3
 BYTE   N05  An3
 BYTE   W06
 BYTE   PEND 
//  #03 //021   ----------------------------------------
Label_0117DB0F:
 BYTE   N05  En3  v124
 BYTE   N05  An3
 BYTE   W72
 BYTE   En3
 BYTE   N07  An3
 BYTE   W24
 BYTE   PEND 
//  #03 //022   ----------------------------------------
Label_0117DB1A:
 BYTE   W12
 BYTE   N04  En3  v108
 BYTE   N04  An3  v116
 BYTE   W36
 BYTE   En3  v120
 BYTE   N04  An3
 BYTE   W06
 BYTE   En3
 BYTE   N05  An3
 BYTE   W06
 BYTE   N04  En3
 BYTE   N05  An3
 BYTE   W24
 BYTE   En3
 BYTE   N04  An3
 BYTE   W06
 BYTE   N05  En3  v116
 BYTE   N04  An3  v120
 BYTE   W06
 BYTE   PEND 
//  #03 //023   ----------------------------------------
 BYTE   N05  En3  v116
 BYTE   N04  An3
 BYTE   W96
//  #03 //024   ----------------------------------------
 BYTE   W96
//  #03 //025   ----------------------------------------
 BYTE   W96
//  #03 //026   ----------------------------------------
 BYTE   W96
//  #03 //027   ----------------------------------------
 BYTE   PATT
  POIN2 Label_0117DAE5
//  #03 //028   ----------------------------------------
 BYTE   PATT
  POIN2 Label_0117DAEE
//  #03 //029   ----------------------------------------
 BYTE   PATT
  POIN2 Label_0117DB0F
//  #03 //030   ----------------------------------------
 BYTE   PATT
  POIN2 Label_0117DB1A
//  #03 //031   ----------------------------------------
Label_0117DB59:
 BYTE   N05  En3  v116
 BYTE   N04  An3
 BYTE   W48
 BYTE   N08  As3  v124
 BYTE   N08  Ds4  v120
 BYTE   W48
 BYTE   PEND 
//  #03 //032   ----------------------------------------
Label_0117DB67:
 BYTE   W24
 BYTE   N07  Cs4  v116
 BYTE   N09  Fs4  v112
 BYTE   W72
 BYTE   PEND 
//  #03 //033   ----------------------------------------
Label_0117DB70:
 BYTE   N08  As3  v124
 BYTE   N09  Ds4
 BYTE   W48
 BYTE   N08  An3  v112
 BYTE   N09  Dn4  v116
 BYTE   W48
 BYTE   PEND 
//  #03 //034   ----------------------------------------
Label_0117DB7E:
 BYTE   W24
 BYTE   N09  Cn4  v120
 BYTE   N10  Fn4  v112
 BYTE   W72
 BYTE   PEND 
//  #03 //035   ----------------------------------------
Label_0117DB87:
 BYTE   N09  An3  v112
 BYTE   N10  Dn4  v124
 BYTE   W48
 BYTE   N07  As3  v116
 BYTE   N10  Ds4
 BYTE   W48
 BYTE   PEND 
//  #03 //036   ----------------------------------------
Label_0117DB95:
 BYTE   W24
 BYTE   N10  Cs4  v112
 BYTE   N09  Fs4
 BYTE   W72
 BYTE   PEND 
//  #03 //037   ----------------------------------------
Label_0117DB9D:
 BYTE   N08  As3  v112
 BYTE   N09  Ds4  v124
 BYTE   W48
 BYTE   An3  v100
 BYTE   N11  Dn4  v108
 BYTE   W48
 BYTE   PEND 
//  #03 //038   ----------------------------------------
Label_0117DBAB:
 BYTE   W24
 BYTE   N08  Cn4  v104
 BYTE   N08  Fn4  v096
 BYTE   W72
 BYTE   PEND 
//  #03 //039   ----------------------------------------
Label_0117DBB4:
 BYTE   N07  An3  v108
 BYTE   N08  Dn4  v104
 BYTE   W96
 BYTE   PEND 
//  #03 //040   ----------------------------------------
 BYTE   W96
//  #03 //041   ----------------------------------------
 BYTE   W96
//  #03 //042   ----------------------------------------
Label_0117DBBE:
 BYTE   W44
 BYTE   W03
 BYTE   VOL   0*song25_mvl/mxv
 BYTE   W01
 BYTE   VOL   0*song25_mvl/mxv
 BYTE   N80  As2  v116
 BYTE   N80  Cn3
 BYTE   N80  Ds3
 BYTE   N80  Gn3
 BYTE   W01
 BYTE   VOL   0*song25_mvl/mxv
 BYTE   W01
 BYTE   VOL   0*song25_mvl/mxv
 BYTE   W01
 BYTE   VOL   0*song25_mvl/mxv
 BYTE   W01
 BYTE   VOL   0*song25_mvl/mxv
 BYTE   W01
 BYTE   VOL   0*song25_mvl/mxv
 BYTE   W01
 BYTE   VOL   0*song25_mvl/mxv
 BYTE   W01
 BYTE   VOL   0*song25_mvl/mxv
 BYTE   W01
 BYTE   VOL   0*song25_mvl/mxv
 BYTE   W01
 BYTE   VOL   0*song25_mvl/mxv
 BYTE   W01
 BYTE   VOL   0*song25_mvl/mxv
 BYTE   W01
 BYTE   VOL   0*song25_mvl/mxv
 BYTE   W01
 BYTE   VOL   0*song25_mvl/mxv
 BYTE   W01
 BYTE   VOL   0*song25_mvl/mxv
 BYTE   W01
 BYTE   VOL   0*song25_mvl/mxv
 BYTE   W01
 BYTE   VOL   0*song25_mvl/mxv
 BYTE   W01
 BYTE   VOL   1*song25_mvl/mxv
 BYTE   W01
 BYTE   VOL   3*song25_mvl/mxv
 BYTE   W01
 BYTE   VOL   4*song25_mvl/mxv
 BYTE   W01
 BYTE   VOL   5*song25_mvl/mxv
 BYTE   W01
 BYTE   VOL   6*song25_mvl/mxv
 BYTE   W01
 BYTE   VOL   8*song25_mvl/mxv
 BYTE   W01
 BYTE   VOL   9*song25_mvl/mxv
 BYTE   W01
 BYTE   VOL   11*song25_mvl/mxv
 BYTE   W01
 BYTE   VOL   12*song25_mvl/mxv
 BYTE   W01
 BYTE   VOL   14*song25_mvl/mxv
 BYTE   W01
 BYTE   VOL   15*song25_mvl/mxv
 BYTE   W01
 BYTE   VOL   17*song25_mvl/mxv
 BYTE   W01
 BYTE   VOL   19*song25_mvl/mxv
 BYTE   W01
 BYTE   VOL   20*song25_mvl/mxv
 BYTE   W01
 BYTE   VOL   22*song25_mvl/mxv
 BYTE   W01
 BYTE   VOL   24*song25_mvl/mxv
 BYTE   W01
 BYTE   VOL   25*song25_mvl/mxv
 BYTE   W01
 BYTE   VOL   27*song25_mvl/mxv
 BYTE   W01
 BYTE   VOL   29*song25_mvl/mxv
 BYTE   W01
 BYTE   VOL   31*song25_mvl/mxv
 BYTE   W01
 BYTE   VOL   32*song25_mvl/mxv
 BYTE   W01
 BYTE   VOL   35*song25_mvl/mxv
 BYTE   W01
 BYTE   VOL   36*song25_mvl/mxv
 BYTE   W01
 BYTE   VOL   38*song25_mvl/mxv
 BYTE   W01
 BYTE   VOL   40*song25_mvl/mxv
 BYTE   W01
 BYTE   VOL   42*song25_mvl/mxv
 BYTE   W01
 BYTE   VOL   44*song25_mvl/mxv
 BYTE   W01
 BYTE   VOL   46*song25_mvl/mxv
 BYTE   W01
 BYTE   VOL   48*song25_mvl/mxv
 BYTE   W01
 BYTE   VOL   51*song25_mvl/mxv
 BYTE   W01
 BYTE   VOL   53*song25_mvl/mxv
 BYTE   W01
 BYTE   VOL   55*song25_mvl/mxv
 BYTE   W01
 BYTE   PEND 
//  #03 //043   ----------------------------------------
Label_0117DC5D:
 BYTE   VOL   58*song25_mvl/mxv
 BYTE   W01
 BYTE   VOL   58*song25_mvl/mxv
 BYTE   W32
 BYTE   W03
 BYTE   N04  As2  v127
 BYTE   N05  Cn3
 BYTE   N05  Ds3
 BYTE   N05  Gn3
 BYTE   W12
 BYTE   PEND 
 BYTE   GoTo
  POIN2 Label_0117D8B9
//  #03 //044   ----------------------------------------
 BYTE   N04  Dn3  v127
 BYTE   N02  En3
 BYTE   N05  An3
 BYTE   W06
 BYTE   N04  Dn3
 BYTE   N03  En3
 BYTE   N04  An3
 BYTE   W06
 BYTE   Dn3
 BYTE   N04  En3
 BYTE   N04  An3
 BYTE   W24
 BYTE   N05  Dn3  v124
 BYTE   N03  En3
 BYTE   N06  An3
 BYTE   W06
 BYTE   N04  Dn3  v120
 BYTE   N03  En3
 BYTE   N01  An3
 BYTE   W06
//  #03 //045   ----------------------------------------
 BYTE   PATT
  POIN2 Label_0117D8E8
//  #03 //046   ----------------------------------------
 BYTE   PATT
  POIN2 Label_0117D8FC
//  #03 //047   ----------------------------------------
 BYTE   PATT
  POIN2 Label_0117D930
//  #03 //048   ----------------------------------------
 BYTE   PATT
  POIN2 Label_0117D944
//  #03 //049   ----------------------------------------
 BYTE   PATT
  POIN2 Label_0117D972
//  #03 //050   ----------------------------------------
 BYTE   PATT
  POIN2 Label_0117D986
//  #03 //051   ----------------------------------------
 BYTE   PATT
  POIN2 Label_0117D9B6
//  #03 //052   ----------------------------------------
 BYTE   PATT
  POIN2 Label_0117D9CA
//  #03 //053   ----------------------------------------
 BYTE   PATT
  POIN2 Label_0117D9E5
//  #03 //054   ----------------------------------------
 BYTE   N07  Cn3  v056
 BYTE   N08  Dn3  v116
 BYTE   W12
 BYTE   N04  An2  v084
 BYTE   N04  As2  v056
 BYTE   W12
 BYTE   N06  Cn3
 BYTE   N12  Dn3  v112
 BYTE   W36
 BYTE   N06  Cs3  v056
 BYTE   N09  Ds3  v116
 BYTE   W24
 BYTE   N10  Cn3  v088
 BYTE   W01
 BYTE   N06  As2  v056
 BYTE   W11
//  #03 //055   ----------------------------------------
 BYTE   PATT
  POIN2 Label_0117DA35
//  #03 //056   ----------------------------------------
 BYTE   PATT
  POIN2 Label_0117DA64
//  #03 //057   ----------------------------------------
 BYTE   PATT
  POIN2 Label_0117DA7E
//  #03 //058   ----------------------------------------
 BYTE   W12
 BYTE   N10  Cn3  v112
 BYTE   W01
 BYTE   N06  As2  v056
 BYTE   W23
 BYTE   N07  Gn2
 BYTE   N09  An2  v108
 BYTE   W24
 BYTE   N07  An2  v056
 BYTE   N10  Bn2  v116
 BYTE   W12
 BYTE   N06  Bn2  v100
 BYTE   W11
 BYTE   N09  An2  v056
 BYTE   W01
 BYTE   N10  Bn2  v112
 BYTE   W12
//  #03 //059   ----------------------------------------
 BYTE   PATT
  POIN2 Label_0117DACB
//  #03 //060   ----------------------------------------
 BYTE   W96
//  #03 //061   ----------------------------------------
 BYTE   W96
//  #03 //062   ----------------------------------------
 BYTE   W96
//  #03 //063   ----------------------------------------
 BYTE   PATT
  POIN2 Label_0117DAE5
//  #03 //064   ----------------------------------------
 BYTE   PATT
  POIN2 Label_0117DAEE
//  #03 //065   ----------------------------------------
 BYTE   PATT
  POIN2 Label_0117DB0F
//  #03 //066   ----------------------------------------
 BYTE   PATT
  POIN2 Label_0117DB1A
//  #03 //067   ----------------------------------------
 BYTE   N05  En3  v116
 BYTE   N04  An3
 BYTE   W96
//  #03 //068   ----------------------------------------
 BYTE   W96
//  #03 //069   ----------------------------------------
 BYTE   W96
//  #03 //070   ----------------------------------------
 BYTE   W96
//  #03 //071   ----------------------------------------
 BYTE   PATT
  POIN2 Label_0117DAE5
//  #03 //072   ----------------------------------------
 BYTE   PATT
  POIN2 Label_0117DAEE
//  #03 //073   ----------------------------------------
 BYTE   PATT
  POIN2 Label_0117DB0F
//  #03 //074   ----------------------------------------
 BYTE   PATT
  POIN2 Label_0117DB1A
//  #03 //075   ----------------------------------------
 BYTE   PATT
  POIN2 Label_0117DB59
//  #03 //076   ----------------------------------------
 BYTE   PATT
  POIN2 Label_0117DB67
//  #03 //077   ----------------------------------------
 BYTE   PATT
  POIN2 Label_0117DB70
//  #03 //078   ----------------------------------------
 BYTE   PATT
  POIN2 Label_0117DB7E
//  #03 //079   ----------------------------------------
 BYTE   PATT
  POIN2 Label_0117DB87
//  #03 //080   ----------------------------------------
 BYTE   PATT
  POIN2 Label_0117DB95
//  #03 //081   ----------------------------------------
 BYTE   PATT
  POIN2 Label_0117DB9D
//  #03 //082   ----------------------------------------
 BYTE   PATT
  POIN2 Label_0117DBAB
//  #03 //083   ----------------------------------------
 BYTE   PATT
  POIN2 Label_0117DBB4
//  #03 //084   ----------------------------------------
 BYTE   W96
//  #03 //085   ----------------------------------------
 BYTE   W96
//  #03 //086   ----------------------------------------
 BYTE   PATT
  POIN2 Label_0117DBBE
//  #03 //087   ----------------------------------------
 BYTE   PATT
  POIN2 Label_0117DC5D
 BYTE   FINE

//**************** Track 4 (Midi-Chn.3) ****************//

song25_004:
//  #04 //000   ----------------------------------------
 BYTE   KEYSH   song25_key+0
 BYTE   VOICE   48
 BYTE   MODT 0
 BYTE   LFOS 44
 BYTE   VOL   58*song25_mvl/mxv
 BYTE   PAN   c_v+26
 BYTE   W36
 BYTE   W12
Label_0117DD9E:
 BYTE   N17  Dn1  v088
 BYTE   W36
 BYTE   N15  Dn1  v108
 BYTE   W12
//  #04 //001   ----------------------------------------
Label_0117DDA6:
 BYTE   W24
 BYTE   N08  Dn1  v104
 BYTE   W48
 BYTE   N09  Ds1  v112
 BYTE   W24
 BYTE   PEND 
//  #04 //002   ----------------------------------------
Label_0117DDB0:
 BYTE   W12
 BYTE   N13  Cn1  v096
 BYTE   W36
 BYTE   Dn1  v108
 BYTE   W36
 BYTE   N10  Dn1  v112
 BYTE   W12
 BYTE   PEND 
//  #04 //003   ----------------------------------------
Label_0117DDBD:
 BYTE   W23
 BYTE   N06  Dn1  v100
 BYTE   W48
 BYTE   W01
 BYTE   N12  Ds1  v112
 BYTE   W24
 BYTE   PEND 
//  #04 //004   ----------------------------------------
Label_0117DDC8:
 BYTE   W12
 BYTE   N08  Fn1  v092
 BYTE   W36
 BYTE   N11  Dn1  v108
 BYTE   W36
 BYTE   N10
 BYTE   W12
 BYTE   PEND 
//  #04 //005   ----------------------------------------
Label_0117DDD4:
 BYTE   W22
 BYTE   N07  Dn1  v088
 BYTE   W48
 BYTE   W02
 BYTE   N10  Ds1  v116
 BYTE   W24
 BYTE   PEND 
//  #04 //006   ----------------------------------------
Label_0117DDDF:
 BYTE   W12
 BYTE   N09  Cn1  v100
 BYTE   W36
 BYTE   N10  Dn1  v108
 BYTE   W36
 BYTE   N14  Dn1  v072
 BYTE   W12
 BYTE   PEND 
//  #04 //007   ----------------------------------------
Label_0117DDED:
 BYTE   W23
 BYTE   N07  Dn1  v100
 BYTE   W48
 BYTE   W01
 BYTE   N10  Ds1  v124
 BYTE   W24
 BYTE   PEND 
//  #04 //008   ----------------------------------------
Label_0117DDF8:
 BYTE   W12
 BYTE   N08  Fn1  v108
 BYTE   W36
 BYTE   N07  Gn1  v112
 BYTE   W36
 BYTE   N09  Gs1  v116
 BYTE   W12
 BYTE   PEND 
//  #04 //009   ----------------------------------------
Label_0117DE06:
 BYTE   W12
 BYTE   N08  Fn1  v100
 BYTE   W23
 BYTE   N07  Gn1  v112
 BYTE   W21
 BYTE   N08  Gn1  v088
 BYTE   W14
 BYTE   Gs1  v108
 BYTE   W24
 BYTE   W02
 BYTE   PEND 
//  #04 //010   ----------------------------------------
Label_0117DE18:
 BYTE   N05  Gn1  v112
 BYTE   W22
 BYTE   N10
 BYTE   W36
 BYTE   W02
 BYTE   N08  Gs1  v104
 BYTE   W24
 BYTE   N07  Fn1  v100
 BYTE   W12
 BYTE   PEND 
//  #04 //011   ----------------------------------------
Label_0117DE28:
 BYTE   W12
 BYTE   N08  Gn1  v112
 BYTE   W21
 BYTE   Gn1  v100
 BYTE   W13
 BYTE   N10  Gs1
 BYTE   W24
 BYTE   N08  Gn1  v088
 BYTE   W24
 BYTE   W02
 BYTE   PEND 
//  #04 //012   ----------------------------------------
Label_0117DE39:
 BYTE   N10  En1  v108
 BYTE   W36
 BYTE   N06  En1  v092
 BYTE   N07  Fn1
 BYTE   W23
 BYTE   N09  Dn1  v100
 BYTE   W24
 BYTE   W01
 BYTE   N08  En1  v116
 BYTE   W12
 BYTE   PEND 
//  #04 //013   ----------------------------------------
Label_0117DE4D:
 BYTE   W10
 BYTE   N08  En1  v108
 BYTE   W12
 BYTE   N09  Fn1  v100
 BYTE   W24
 BYTE   N08  En1  v112
 BYTE   W24
 BYTE   N09  En1  v100
 BYTE   W24
 BYTE   W02
 BYTE   PEND 
//  #04 //014   ----------------------------------------
Label_0117DE60:
 BYTE   W14
 BYTE   N08  Fn1  v100
 BYTE   W22
 BYTE   Dn1  v112
 BYTE   W23
 BYTE   En1
 BYTE   W23
 BYTE   N09  En1  v108
 BYTE   W13
 BYTE   Fn1  v104
 BYTE   W01
 BYTE   PEND 
//  #04 //015   ----------------------------------------
Label_0117DE72:
 BYTE   W24
 BYTE   W01
 BYTE   N09  En1  v112
 BYTE   W23
 BYTE   TIE  Cs1  v100
 BYTE   W48
 BYTE   PEND 
//  #04 //016   ----------------------------------------
 BYTE   W96
//  #04 //017   ----------------------------------------
 BYTE   W96
//  #04 //018   ----------------------------------------
 BYTE   W96
//  #04 //019   ----------------------------------------
Label_0117DE80:
 BYTE   W48
 BYTE   TIE  Cn1  v084
 BYTE   W03
 BYTE   PEND 
 BYTE   EOT
 BYTE   Cs1
 BYTE   W44
 BYTE   W01
//  #04 //020   ----------------------------------------
 BYTE   W96
//  #04 //021   ----------------------------------------
 BYTE   W96
//  #04 //022   ----------------------------------------
 BYTE   W96
//  #04 //023   ----------------------------------------
Label_0117DE8D:
 BYTE   W44
 BYTE   W02
 BYTE   TIE  Cs1  v088
 BYTE   W02
 BYTE   PEND 
 BYTE   EOT
 BYTE   Cn1
 BYTE   W48
//  #04 //024   ----------------------------------------
 BYTE   W96
//  #04 //025   ----------------------------------------
 BYTE   W96
//  #04 //026   ----------------------------------------
 BYTE   W96
//  #04 //027   ----------------------------------------
 BYTE   W44
 BYTE   W03
 BYTE   Cs1
 BYTE   W01
 BYTE   TIE  An0
 BYTE   W01
 BYTE   N44  An2  v092
 BYTE   W44
 BYTE   W03
//  #04 //028   ----------------------------------------
Label_0117DEA6:
 BYTE   W01
 BYTE   N44  Cn3  v092
 BYTE   W44
 BYTE   W02
 BYTE   En3  v084
 BYTE   W48
 BYTE   N48  An3  v096
 BYTE   W01
 BYTE   PEND 
//  #04 //029   ----------------------------------------
 BYTE   W48
 BYTE   N44  Bn3  v108
 BYTE   W48
//  #04 //030   ----------------------------------------
Label_0117DEB9:
 BYTE   N48  Cn4  v104
 BYTE   W48
 BYTE   Dn4  v096
 BYTE   W48
 BYTE   PEND 
//  #04 //031   ----------------------------------------
Label_0117DEC1:
 BYTE   W01
 BYTE   N44  En4  v108
 BYTE   W32
 BYTE   W01
 BYTE   PEND 
 BYTE   EOT
 BYTE   An0
 BYTE   W14
 BYTE   N09  Ds1  v116
 BYTE   W24
 BYTE   N05  Ds1  v104
 BYTE   W24
//  #04 //032   ----------------------------------------
Label_0117DED3:
 BYTE   N05  Ds1  v100
 BYTE   W24
 BYTE   N08  Ds1  v116
 BYTE   W24
 BYTE   N07  Ds1  v092
 BYTE   W24
 BYTE   N06  Ds1  v088
 BYTE   W24
 BYTE   PEND 
//  #04 //033   ----------------------------------------
Label_0117DEE4:
 BYTE   N08  Ds1  v120
 BYTE   W24
 BYTE   N05  Ds1  v112
 BYTE   W24
 BYTE   N06  Dn1  v104
 BYTE   W24
 BYTE   N06
 BYTE   W24
 BYTE   PEND 
//  #04 //034   ----------------------------------------
Label_0117DEF3:
 BYTE   N06  Dn1  v092
 BYTE   W24
 BYTE   Dn1  v100
 BYTE   W24
 BYTE   Dn1  v088
 BYTE   W24
 BYTE   Dn1  v092
 BYTE   W24
 BYTE   PEND 
//  #04 //035   ----------------------------------------
Label_0117DF01:
 BYTE   N06  Dn1  v104
 BYTE   W24
 BYTE   Dn1  v100
 BYTE   W24
 BYTE   N08  Ds1  v116
 BYTE   W24
 BYTE   N07  Ds1  v112
 BYTE   W24
 BYTE   PEND 
//  #04 //036   ----------------------------------------
Label_0117DF11:
 BYTE   N07  Ds1  v112
 BYTE   W24
 BYTE   N07
 BYTE   W24
 BYTE   N09  Ds1  v108
 BYTE   W24
 BYTE   N08  Ds1  v104
 BYTE   W24
 BYTE   PEND 
//  #04 //037   ----------------------------------------
Label_0117DF20:
 BYTE   N08  Ds1  v108
 BYTE   W24
 BYTE   N09  Ds1  v112
 BYTE   W24
 BYTE   Dn1  v104
 BYTE   W24
 BYTE   N08  Dn1  v100
 BYTE   W24
 BYTE   PEND 
//  #04 //038   ----------------------------------------
Label_0117DF30:
 BYTE   N07  Dn1  v100
 BYTE   W24
 BYTE   N06
 BYTE   W24
 BYTE   N07
 BYTE   W24
 BYTE   Dn1  v092
 BYTE   W24
 BYTE   PEND 
//  #04 //039   ----------------------------------------
Label_0117DF3C:
 BYTE   N07  Dn1  v104
 BYTE   W24
 BYTE   N06  Dn1  v100
 BYTE   W24
 BYTE   TIE  Cn1  v088
 BYTE   W48
 BYTE   PEND 
//  #04 //040   ----------------------------------------
 BYTE   W96
//  #04 //041   ----------------------------------------
 BYTE   W96
//  #04 //042   ----------------------------------------
 BYTE   W96
//  #04 //043   ----------------------------------------
 BYTE   W44
 BYTE   W03
 BYTE   EOT
 BYTE   W01
 BYTE   GoTo
  POIN2 Label_0117DD9E
//  #04 //044   ----------------------------------------
 BYTE   N17  Dn1  v088
 BYTE   W36
 BYTE   N15  Dn1  v108
 BYTE   W12
//  #04 //045   ----------------------------------------
 BYTE   PATT
  POIN2 Label_0117DDA6
//  #04 //046   ----------------------------------------
 BYTE   PATT
  POIN2 Label_0117DDB0
//  #04 //047   ----------------------------------------
 BYTE   PATT
  POIN2 Label_0117DDBD
//  #04 //048   ----------------------------------------
 BYTE   PATT
  POIN2 Label_0117DDC8
//  #04 //049   ----------------------------------------
 BYTE   PATT
  POIN2 Label_0117DDD4
//  #04 //050   ----------------------------------------
 BYTE   PATT
  POIN2 Label_0117DDDF
//  #04 //051   ----------------------------------------
 BYTE   PATT
  POIN2 Label_0117DDED
//  #04 //052   ----------------------------------------
 BYTE   PATT
  POIN2 Label_0117DDF8
//  #04 //053   ----------------------------------------
 BYTE   PATT
  POIN2 Label_0117DE06
//  #04 //054   ----------------------------------------
 BYTE   PATT
  POIN2 Label_0117DE18
//  #04 //055   ----------------------------------------
 BYTE   PATT
  POIN2 Label_0117DE28
//  #04 //056   ----------------------------------------
 BYTE   PATT
  POIN2 Label_0117DE39
//  #04 //057   ----------------------------------------
 BYTE   PATT
  POIN2 Label_0117DE4D
//  #04 //058   ----------------------------------------
 BYTE   PATT
  POIN2 Label_0117DE60
//  #04 //059   ----------------------------------------
 BYTE   PATT
  POIN2 Label_0117DE72
//  #04 //060   ----------------------------------------
 BYTE   W96
//  #04 //061   ----------------------------------------
 BYTE   W96
//  #04 //062   ----------------------------------------
 BYTE   W96
//  #04 //063   ----------------------------------------
 BYTE   PATT
  POIN2 Label_0117DE80
//  #04 //064   ----------------------------------------
 BYTE   EOT
 BYTE   Cs1
 BYTE   W44
 BYTE   W01
 BYTE   W96
//  #04 //065   ----------------------------------------
 BYTE   W96
//  #04 //066   ----------------------------------------
 BYTE   W96
//  #04 //067   ----------------------------------------
 BYTE   PATT
  POIN2 Label_0117DE8D
//  #04 //068   ----------------------------------------
 BYTE   EOT
 BYTE   Cn1
 BYTE   W48
 BYTE   W96
//  #04 //069   ----------------------------------------
 BYTE   W96
//  #04 //070   ----------------------------------------
 BYTE   W96
//  #04 //071   ----------------------------------------
 BYTE   W44
 BYTE   W03
 BYTE   Cs1
 BYTE   W01
 BYTE   TIE  An0  v088
 BYTE   N48  An2
 BYTE   W48
//  #04 //072   ----------------------------------------
 BYTE   PATT
  POIN2 Label_0117DEA6
//  #04 //073   ----------------------------------------
 BYTE   W48
 BYTE   N44  Bn3  v108
 BYTE   W48
//  #04 //074   ----------------------------------------
 BYTE   PATT
  POIN2 Label_0117DEB9
//  #04 //075   ----------------------------------------
 BYTE   PATT
  POIN2 Label_0117DEC1
//  #04 //076   ----------------------------------------
 BYTE   EOT
 BYTE   An0
 BYTE   W14
 BYTE   N09  Ds1  v116
 BYTE   W24
 BYTE   N05  Ds1  v104
 BYTE   W24
//  #04 //077   ----------------------------------------
 BYTE   PATT
  POIN2 Label_0117DED3
//  #04 //078   ----------------------------------------
 BYTE   PATT
  POIN2 Label_0117DEE4
//  #04 //079   ----------------------------------------
 BYTE   PATT
  POIN2 Label_0117DEF3
//  #04 //080   ----------------------------------------
 BYTE   PATT
  POIN2 Label_0117DF01
//  #04 //081   ----------------------------------------
 BYTE   PATT
  POIN2 Label_0117DF11
//  #04 //082   ----------------------------------------
 BYTE   PATT
  POIN2 Label_0117DF20
//  #04 //083   ----------------------------------------
 BYTE   PATT
  POIN2 Label_0117DF30
//  #04 //084   ----------------------------------------
 BYTE   PATT
  POIN2 Label_0117DF3C
//  #04 //085   ----------------------------------------
 BYTE   W96
//  #04 //086   ----------------------------------------
 BYTE   W96
//  #04 //087   ----------------------------------------
 BYTE   W96
//  #04 //088   ----------------------------------------
 BYTE   W44
 BYTE   W03
 BYTE   EOT
 BYTE   Cn1
 BYTE   W01
 BYTE   FINE

//**************** Track 5 (Midi-Chn.4) ****************//

song25_005:
//  #05 //000   ----------------------------------------
 BYTE   KEYSH   song25_key+0
 BYTE   VOICE   48
 BYTE   MODT 0
 BYTE   LFOS 44
 BYTE   VOL   47*song25_mvl/mxv
 BYTE   PAN   c_v+11
 BYTE   W20
 BYTE   W24
 BYTE   W02
 BYTE   N07  An2  v080
 BYTE   W01
 BYTE   N08  Dn3
 BYTE   W01
Label_0117E032:
 BYTE   W36
 BYTE   W01
 BYTE   N07  An2  v080
 BYTE   N06  Dn3
 BYTE   W11
//  #05 //001   ----------------------------------------
Label_0117E03A:
 BYTE   W24
 BYTE   N05  An2  v080
 BYTE   N05  Dn3
 BYTE   W44
 BYTE   W03
 BYTE   N06  As2
 BYTE   N06  Ds3
 BYTE   W24
 BYTE   W01
 BYTE   PEND 
//  #05 //002   ----------------------------------------
Label_0117E049:
 BYTE   W09
 BYTE   N06  Gn2  v080
 BYTE   W01
 BYTE   N05  Cn3
 BYTE   W36
 BYTE   W01
 BYTE   N06  An2
 BYTE   W01
 BYTE   Dn3
 BYTE   W32
 BYTE   W02
 BYTE   N07  An2
 BYTE   W01
 BYTE   N06  Dn3
 BYTE   W13
 BYTE   PEND 
//  #05 //003   ----------------------------------------
Label_0117E05F:
 BYTE   W23
 BYTE   N07  An2  v080
 BYTE   W01
 BYTE   N06  Dn3
 BYTE   W44
 BYTE   W02
 BYTE   N07  As2
 BYTE   W01
 BYTE   N06  Ds3
 BYTE   W24
 BYTE   W01
 BYTE   PEND 
//  #05 //004   ----------------------------------------
Label_0117E070:
 BYTE   W11
 BYTE   N05  Cn3  v080
 BYTE   N05  Fn3
 BYTE   W36
 BYTE   W01
 BYTE   An2
 BYTE   N05  Dn3
 BYTE   W32
 BYTE   W02
 BYTE   An2
 BYTE   N05  Dn3
 BYTE   W14
 BYTE   PEND 
//  #05 //005   ----------------------------------------
Label_0117E082:
 BYTE   W23
 BYTE   N07  An2  v080
 BYTE   N06  Dn3
 BYTE   W48
 BYTE   As2
 BYTE   N06  Ds3
 BYTE   W24
 BYTE   W01
 BYTE   PEND 
//  #05 //006   ----------------------------------------
Label_0117E08F:
 BYTE   W11
 BYTE   N05  Gn2  v080
 BYTE   N06  Cn3
 BYTE   W36
 BYTE   N05  An2
 BYTE   W01
 BYTE   Dn3
 BYTE   W32
 BYTE   W03
 BYTE   N06  An2
 BYTE   N07  Dn3
 BYTE   W13
 BYTE   PEND 
//  #05 //007   ----------------------------------------
Label_0117E0A2:
 BYTE   W22
 BYTE   N05  Dn3  v080
 BYTE   W01
 BYTE   N06  An2
 BYTE   W48
 BYTE   N05  As2
 BYTE   W01
 BYTE   N06  Ds3
 BYTE   W24
 BYTE   PEND 
//  #05 //008   ----------------------------------------
Label_0117E0B1:
 BYTE   W12
 BYTE   N06  Cn3  v080
 BYTE   N05  Fn3
 BYTE   W36
 BYTE   N06  Dn3
 BYTE   N05  Gn3
 BYTE   W36
 BYTE   N07  Ds3
 BYTE   N06  Gs3
 BYTE   W12
 BYTE   PEND 
//  #05 //009   ----------------------------------------
Label_0117E0C3:
 BYTE   W36
 BYTE   W01
 BYTE   N08  Dn3  v080
 BYTE   N07  Gn3
 BYTE   W22
 BYTE   Dn3
 BYTE   W01
 BYTE   Gn3
 BYTE   W11
 BYTE   N06  Gs3
 BYTE   W01
 BYTE   N07  Ds3
 BYTE   W10
 BYTE   N06  Cn3
 BYTE   W01
 BYTE   N07  Fn3
 BYTE   W06
 BYTE   N04  Dn3  v084
 BYTE   W03
 BYTE   En3  v088
 BYTE   W02
 BYTE   N22  As3
 BYTE   W01
 BYTE   N21  Fn3
 BYTE   W01
 BYTE   PEND 
//  #05 //010   ----------------------------------------
Label_0117E0E9:
 BYTE   W23
 BYTE   N06  Dn3  v096
 BYTE   N06  Gn3
 BYTE   W36
 BYTE   N08  Ds3  v104
 BYTE   N08  Gs3  v100
 BYTE   W36
 BYTE   W01
 BYTE   PEND 
//  #05 //011   ----------------------------------------
Label_0117E0F9:
 BYTE   W11
 BYTE   N07  Dn3  v080
 BYTE   W01
 BYTE   N08  Gn3
 BYTE   W22
 BYTE   Dn3
 BYTE   W01
 BYTE   Gn3
 BYTE   W12
 BYTE   N10  Ds3
 BYTE   N07  Gs3
 BYTE   W10
 BYTE   N08  Cn3
 BYTE   W01
 BYTE   N07  Fn3
 BYTE   W05
 BYTE   N05  Dn3  v084
 BYTE   W04
 BYTE   N04  En3  v088
 BYTE   W04
 BYTE   N19  Fn3
 BYTE   N19  As3  v092
 BYTE   W24
 BYTE   W01
 BYTE   PEND 
//  #05 //012   ----------------------------------------
Label_0117E120:
 BYTE   N07  Bn2  v100
 BYTE   W01
 BYTE   N06  En3
 BYTE   W32
 BYTE   W02
 BYTE   N07  Cn3  v080
 BYTE   N07  Fn3  v088
 BYTE   W48
 BYTE   W01
 BYTE   Bn2  v080
 BYTE   N07  En3
 BYTE   W12
 BYTE   PEND 
//  #05 //013   ----------------------------------------
Label_0117E136:
 BYTE   W11
 BYTE   N07  Bn2  v080
 BYTE   N10  En3
 BYTE   W13
 BYTE   N06  Cn3
 BYTE   N08  Fn3
 BYTE   W11
 BYTE   N06  Dn3
 BYTE   W01
 BYTE   N05  An2
 BYTE   W03
 BYTE   N04  Bn2  v092
 BYTE   W04
 BYTE   Cn3  v096
 BYTE   W03
 BYTE   N23  Gn3  v088
 BYTE   W01
 BYTE   Dn3
 BYTE   W24
 BYTE   W01
 BYTE   N06  Bn2  v092
 BYTE   W01
 BYTE   N07  En3
 BYTE   W23
 BYTE   PEND 
//  #05 //014   ----------------------------------------
Label_0117E15E:
 BYTE   W10
 BYTE   N06  Cn3  v080
 BYTE   W02
 BYTE   Fn3
 BYTE   W48
 BYTE   W02
 BYTE   Bn2
 BYTE   W01
 BYTE   N07  En3
 BYTE   W20
 BYTE   N10  Bn2
 BYTE   N12  En3
 BYTE   W13
 BYTE   PEND 
//  #05 //015   ----------------------------------------
 BYTE   W01
 BYTE   N06  Cn3
 BYTE   N09  Fn3
 BYTE   W10
 BYTE   N07  Dn3
 BYTE   W01
 BYTE   N05  An2
 BYTE   W04
 BYTE   N04  Bn2  v092
 BYTE   W03
 BYTE   Cn3  v080
 BYTE   W04
 BYTE   N21  Dn3  v092
 BYTE   N22  Gn3  v088
 BYTE   W24
 BYTE   W01
 BYTE   TIE  Gs2
 BYTE   W48
//  #05 //016   ----------------------------------------
 BYTE   W96
//  #05 //017   ----------------------------------------
 BYTE   W96
//  #05 //018   ----------------------------------------
 BYTE   W48
 BYTE   EOT
 BYTE   N44  Bn2  v100
 BYTE   W44
 BYTE   W03
 BYTE   N48  Gs2  v116
 BYTE   W01
//  #05 //019   ----------------------------------------
Label_0117E19C:
 BYTE   W44
 BYTE   W02
 BYTE   TIE  An2  v100
 BYTE   W48
 BYTE   W02
 BYTE   PEND 
//  #05 //020   ----------------------------------------
 BYTE   W96
//  #05 //021   ----------------------------------------
 BYTE   W96
//  #05 //022   ----------------------------------------
 BYTE   W44
 BYTE   W03
 BYTE   EOT
 BYTE   N24  En2  v104
 BYTE   W24
 BYTE   An2  v092
 BYTE   W22
 BYTE   N28  Bn2  v096
 BYTE   W03
//  #05 //023   ----------------------------------------
Label_0117E1B4:
 BYTE   W24
 BYTE   N24  An2  v100
 BYTE   W24
 BYTE   TIE  Gs2  v112
 BYTE   W48
 BYTE   PEND 
//  #05 //024   ----------------------------------------
 BYTE   W96
//  #05 //025   ----------------------------------------
 BYTE   W96
//  #05 //026   ----------------------------------------
 BYTE   W48
 BYTE   EOT
 BYTE   W01
 BYTE   N48  Bn2  v092
 BYTE   W44
 BYTE   W03
//  #05 //027   ----------------------------------------
Label_0117E1C8:
 BYTE   N48  Gs2  v116
 BYTE   W48
 BYTE   W01
 BYTE   TIE  En2  v104
 BYTE   W44
 BYTE   W03
 BYTE   PEND 
//  #05 //028   ----------------------------------------
 BYTE   W96
//  #05 //029   ----------------------------------------
 BYTE   W96
//  #05 //030   ----------------------------------------
 BYTE   W96
//  #05 //031   ----------------------------------------
 BYTE   W42
 BYTE   W01
 BYTE   EOT
 BYTE   W05
 BYTE   N05  As2  v108
 BYTE   N08  Fs3  v112
 BYTE   W24
 BYTE   N05  As2  v048
 BYTE   N07  Fs3  v076
 BYTE   W24
//  #05 //032   ----------------------------------------
Label_0117E1E8:
 BYTE   N05  As2  v040
 BYTE   N06  Fs3  v064
 BYTE   W24
 BYTE   Cs3  v108
 BYTE   N08  Gs3
 BYTE   W24
 BYTE   N07  Cs3  v072
 BYTE   N06  Gs3  v064
 BYTE   W24
 BYTE   N05  Cs3  v048
 BYTE   N04  Gs3  v068
 BYTE   W24
 BYTE   PEND 
//  #05 //033   ----------------------------------------
Label_0117E203:
 BYTE   N07  As2  v112
 BYTE   N08  Fs3
 BYTE   W24
 BYTE   N05  As2  v056
 BYTE   N05  Fs3  v048
 BYTE   W24
 BYTE   N06  An2  v108
 BYTE   N07  Fn3
 BYTE   W24
 BYTE   N06  An2  v052
 BYTE   N06  Fn3  v060
 BYTE   W24
 BYTE   PEND 
//  #05 //034   ----------------------------------------
Label_0117E21E:
 BYTE   N04  An2  v056
 BYTE   N06  Fn3  v072
 BYTE   W24
 BYTE   N05  Cn3  v092
 BYTE   N05  Gn3  v112
 BYTE   W24
 BYTE   N06  Cn3  v044
 BYTE   N06  Gn3  v072
 BYTE   W24
 BYTE   N05  Cn3  v064
 BYTE   N06  Gn3  v060
 BYTE   W24
 BYTE   PEND 
//  #05 //035   ----------------------------------------
Label_0117E23B:
 BYTE   N06  An2  v096
 BYTE   N07  Fn3  v092
 BYTE   W24
 BYTE   N04  An2  v068
 BYTE   N06  Fn3  v084
 BYTE   W24
 BYTE   As2  v108
 BYTE   N06  Fs3  v104
 BYTE   W24
 BYTE   As2  v056
 BYTE   N07  Fs3  v068
 BYTE   W24
 BYTE   PEND 
//  #05 //036   ----------------------------------------
Label_0117E256:
 BYTE   N05  As2  v064
 BYTE   N05  Fs3
 BYTE   W24
 BYTE   Cs3  v112
 BYTE   N06  Gs3
 BYTE   W24
 BYTE   N05  Cs3  v068
 BYTE   N06  Gs3  v064
 BYTE   W24
 BYTE   N05  Cs3  v044
 BYTE   N04  Gs3  v084
 BYTE   W24
 BYTE   PEND 
//  #05 //037   ----------------------------------------
Label_0117E270:
 BYTE   N05  As2  v116
 BYTE   N06  Fs3  v108
 BYTE   W24
 BYTE   N05  As2  v064
 BYTE   N05  Fs3  v072
 BYTE   W24
 BYTE   N06  An2  v112
 BYTE   N07  Fn3  v104
 BYTE   W24
 BYTE   N06  An2  v068
 BYTE   N06  Fn3  v076
 BYTE   W24
 BYTE   PEND 
//  #05 //038   ----------------------------------------
Label_0117E28D:
 BYTE   N05  An2  v056
 BYTE   N05  Fn3  v064
 BYTE   W24
 BYTE   N06  Cn3  v100
 BYTE   N05  Gn3  v112
 BYTE   W24
 BYTE   N06  Cn3  v064
 BYTE   N06  Gn3  v068
 BYTE   W24
 BYTE   N05  Cn3  v044
 BYTE   N05  Gn3  v080
 BYTE   W24
 BYTE   PEND 
//  #05 //039   ----------------------------------------
Label_0117E2AA:
 BYTE   N07  An2  v112
 BYTE   N06  Fn3
 BYTE   W24
 BYTE   An2  v060
 BYTE   N05  Fn3  v084
 BYTE   W24
 BYTE   W01
 BYTE   TIE  Ds3  v052
 BYTE   W01
 BYTE   Gn2
 BYTE   W44
 BYTE   W02
 BYTE   PEND 
//  #05 //040   ----------------------------------------
 BYTE   W96
//  #05 //041   ----------------------------------------
 BYTE   W96
//  #05 //042   ----------------------------------------
 BYTE   W96
//  #05 //043   ----------------------------------------
 BYTE   W44
 BYTE   W01
 BYTE   EOT
 BYTE   EOT
 BYTE   Ds3
 BYTE   W03
 BYTE   GoTo
  POIN2 Label_0117E032
//  #05 //044   ----------------------------------------
 BYTE   W36
 BYTE   W01
 BYTE   N07  An2  v080
 BYTE   N06  Dn3
 BYTE   W11
//  #05 //045   ----------------------------------------
 BYTE   PATT
  POIN2 Label_0117E03A
//  #05 //046   ----------------------------------------
 BYTE   PATT
  POIN2 Label_0117E049
//  #05 //047   ----------------------------------------
 BYTE   PATT
  POIN2 Label_0117E05F
//  #05 //048   ----------------------------------------
 BYTE   PATT
  POIN2 Label_0117E070
//  #05 //049   ----------------------------------------
 BYTE   PATT
  POIN2 Label_0117E082
//  #05 //050   ----------------------------------------
 BYTE   PATT
  POIN2 Label_0117E08F
//  #05 //051   ----------------------------------------
 BYTE   PATT
  POIN2 Label_0117E0A2
//  #05 //052   ----------------------------------------
 BYTE   PATT
  POIN2 Label_0117E0B1
//  #05 //053   ----------------------------------------
 BYTE   PATT
  POIN2 Label_0117E0C3
//  #05 //054   ----------------------------------------
 BYTE   PATT
  POIN2 Label_0117E0E9
//  #05 //055   ----------------------------------------
 BYTE   PATT
  POIN2 Label_0117E0F9
//  #05 //056   ----------------------------------------
 BYTE   PATT
  POIN2 Label_0117E120
//  #05 //057   ----------------------------------------
 BYTE   PATT
  POIN2 Label_0117E136
//  #05 //058   ----------------------------------------
 BYTE   PATT
  POIN2 Label_0117E15E
//  #05 //059   ----------------------------------------
 BYTE   W01
 BYTE   N06  Cn3  v080
 BYTE   N09  Fn3
 BYTE   W10
 BYTE   N07  Dn3
 BYTE   W01
 BYTE   N05  An2
 BYTE   W04
 BYTE   N04  Bn2  v092
 BYTE   W03
 BYTE   Cn3  v080
 BYTE   W04
 BYTE   N21  Dn3  v092
 BYTE   N22  Gn3  v088
 BYTE   W24
 BYTE   W01
 BYTE   TIE  Gs2  v080
 BYTE   W48
//  #05 //060   ----------------------------------------
 BYTE   W96
//  #05 //061   ----------------------------------------
 BYTE   W96
//  #05 //062   ----------------------------------------
 BYTE   W48
 BYTE   EOT
 BYTE   N44  Bn2  v100
 BYTE   W44
 BYTE   W03
 BYTE   N48  Gs2  v116
 BYTE   W01
//  #05 //063   ----------------------------------------
 BYTE   PATT
  POIN2 Label_0117E19C
//  #05 //064   ----------------------------------------
 BYTE   W96
//  #05 //065   ----------------------------------------
 BYTE   W96
//  #05 //066   ----------------------------------------
 BYTE   W44
 BYTE   W03
 BYTE   EOT
 BYTE   An2
 BYTE   N24  En2  v104
 BYTE   W24
 BYTE   An2  v092
 BYTE   W22
 BYTE   N28  Bn2  v096
 BYTE   W03
//  #05 //067   ----------------------------------------
 BYTE   PATT
  POIN2 Label_0117E1B4
//  #05 //068   ----------------------------------------
 BYTE   W96
//  #05 //069   ----------------------------------------
 BYTE   W96
//  #05 //070   ----------------------------------------
 BYTE   W48
 BYTE   EOT
 BYTE   Gs2
 BYTE   W01
 BYTE   N48  Bn2  v092
 BYTE   W44
 BYTE   W03
//  #05 //071   ----------------------------------------
 BYTE   PATT
  POIN2 Label_0117E1C8
//  #05 //072   ----------------------------------------
 BYTE   W96
//  #05 //073   ----------------------------------------
 BYTE   W96
//  #05 //074   ----------------------------------------
 BYTE   W96
//  #05 //075   ----------------------------------------
 BYTE   W42
 BYTE   W01
 BYTE   EOT
 BYTE   En2
 BYTE   W05
 BYTE   N05  As2  v108
 BYTE   N08  Fs3  v112
 BYTE   W24
 BYTE   N05  As2  v048
 BYTE   N07  Fs3  v076
 BYTE   W24
//  #05 //076   ----------------------------------------
 BYTE   PATT
  POIN2 Label_0117E1E8
//  #05 //077   ----------------------------------------
 BYTE   PATT
  POIN2 Label_0117E203
//  #05 //078   ----------------------------------------
 BYTE   PATT
  POIN2 Label_0117E21E
//  #05 //079   ----------------------------------------
 BYTE   PATT
  POIN2 Label_0117E23B
//  #05 //080   ----------------------------------------
 BYTE   PATT
  POIN2 Label_0117E256
//  #05 //081   ----------------------------------------
 BYTE   PATT
  POIN2 Label_0117E270
//  #05 //082   ----------------------------------------
 BYTE   PATT
  POIN2 Label_0117E28D
//  #05 //083   ----------------------------------------
 BYTE   PATT
  POIN2 Label_0117E2AA
//  #05 //084   ----------------------------------------
 BYTE   W96
//  #05 //085   ----------------------------------------
 BYTE   W96
//  #05 //086   ----------------------------------------
 BYTE   W96
//  #05 //087   ----------------------------------------
 BYTE   W44
 BYTE   W01
 BYTE   EOT
 BYTE   Gn2  v063
 BYTE   W03
 BYTE   FINE

//**************** Track 6 (Midi-Chn.5) ****************//

song25_006:
//  #06 //000   ----------------------------------------
 BYTE   KEYSH   song25_key+0
 BYTE   VOICE   60
 BYTE   MODT 0
 BYTE   LFOS 44
 BYTE   VOL   44*song25_mvl/mxv
 BYTE   PAN   c_v-24
 BYTE   W48
Label_563559:
 BYTE   W48
//  #06 //001   ----------------------------------------
 BYTE   W96
//  #06 //002   ----------------------------------------
 BYTE   W96
//  #06 //003   ----------------------------------------
 BYTE   W96
//  #06 //004   ----------------------------------------
 BYTE   W96
//  #06 //005   ----------------------------------------
 BYTE   W96
//  #06 //006   ----------------------------------------
 BYTE   W96
//  #06 //007   ----------------------------------------
 BYTE   W96
//  #06 //008   ----------------------------------------
 BYTE   W96
//  #06 //009   ----------------------------------------
 BYTE   W96
//  #06 //010   ----------------------------------------
 BYTE   W96
//  #06 //011   ----------------------------------------
 BYTE   W96
//  #06 //012   ----------------------------------------
 BYTE   W96
//  #06 //013   ----------------------------------------
 BYTE   W96
//  #06 //014   ----------------------------------------
 BYTE   W96
//  #06 //015   ----------------------------------------
Label_563568:
 BYTE   W42
 BYTE   W06
 BYTE   TIE  Cs3  v112
 BYTE   W05
 BYTE   W03
 BYTE   W01
 BYTE   W36
 BYTE   W03
 BYTE   PEND 
//  #06 //016   ----------------------------------------
Label_563573:
 BYTE   W44
 BYTE   W03
 BYTE   N92  Ds3  v112
 BYTE   W05
 BYTE   PEND 
 BYTE   EOT
 BYTE   Cs3
 BYTE   W44
//  #06 //017   ----------------------------------------
Label_56357D:
 BYTE   W44
 BYTE   W03
 BYTE   TIE  En3  v092
 BYTE   W48
 BYTE   W01
 BYTE   PEND 
//  #06 //018   ----------------------------------------
 BYTE   W48
 BYTE   N44  Fs3  v088
 BYTE   W01
 BYTE   EOT
 BYTE   En3
 BYTE   W44
 BYTE   N48  Gs3
 BYTE   W03
//  #06 //019   ----------------------------------------
Label_563590:
 BYTE   W44
 BYTE   W02
 BYTE   TIE  An3  v092
 BYTE   W48
 BYTE   W02
 BYTE   PEND 
//  #06 //020   ----------------------------------------
 BYTE   W96
//  #06 //021   ----------------------------------------
 BYTE   W96
//  #06 //022   ----------------------------------------
 BYTE   W96
//  #06 //023   ----------------------------------------
Label_56359B:
 BYTE   W48
 BYTE   W01
 BYTE   TIE  Cs3  v100
 BYTE   W04
 BYTE   PEND 
 BYTE   EOT
 BYTE   An3
 BYTE   W42
 BYTE   W01
//  #06 //024   ----------------------------------------
Label_5635A6:
 BYTE   W48
 BYTE   W02
 BYTE   N92  Ds3  v108
 BYTE   W03
 BYTE   PEND 
 BYTE   EOT
 BYTE   Cs3
 BYTE   W42
 BYTE   W01
//  #06 //025   ----------------------------------------
 BYTE   W48
 BYTE   TIE  En3  v092
 BYTE   W48
//  #06 //026   ----------------------------------------
 BYTE   W48
 BYTE   N48  Fs3  v100
 BYTE   W02
 BYTE   EOT
 BYTE   En3
 BYTE   W44
 BYTE   W02
//  #06 //027   ----------------------------------------
Label_5635BF:
 BYTE   N44  Gs3  v104
 BYTE   W44
 BYTE   W02
 BYTE   TIE  An3  v100
 BYTE   W48
 BYTE   W02
 BYTE   PEND 
//  #06 //028   ----------------------------------------
 BYTE   W96
//  #06 //029   ----------------------------------------
 BYTE   W96
//  #06 //030   ----------------------------------------
 BYTE   W96
//  #06 //031   ----------------------------------------
 BYTE   W44
 BYTE   W01
 BYTE   EOT
 BYTE   W48
 BYTE   W03
//  #06 //032   ----------------------------------------
 BYTE   W96
//  #06 //033   ----------------------------------------
 BYTE   W96
//  #06 //034   ----------------------------------------
 BYTE   W96
//  #06 //035   ----------------------------------------
 BYTE   W96
//  #06 //036   ----------------------------------------
 BYTE   W96
//  #06 //037   ----------------------------------------
 BYTE   W96
//  #06 //038   ----------------------------------------
 BYTE   W96
//  #06 //039   ----------------------------------------
 BYTE   W96
//  #06 //040   ----------------------------------------
 BYTE   W96
//  #06 //041   ----------------------------------------
 BYTE   W96
//  #06 //042   ----------------------------------------
 BYTE   W96
//  #06 //043   ----------------------------------------
 BYTE   W48
 BYTE   GoTo
  POIN2 Label_563559
//  #06 //044   ----------------------------------------
 BYTE   W48
 BYTE   W96
//  #06 //045   ----------------------------------------
 BYTE   W96
//  #06 //046   ----------------------------------------
 BYTE   W96
//  #06 //047   ----------------------------------------
 BYTE   W96
//  #06 //048   ----------------------------------------
 BYTE   W96
//  #06 //049   ----------------------------------------
 BYTE   W96
//  #06 //050   ----------------------------------------
 BYTE   W96
//  #06 //051   ----------------------------------------
 BYTE   W96
//  #06 //052   ----------------------------------------
 BYTE   W96
//  #06 //053   ----------------------------------------
 BYTE   W96
//  #06 //054   ----------------------------------------
 BYTE   W96
//  #06 //055   ----------------------------------------
 BYTE   W96
//  #06 //056   ----------------------------------------
 BYTE   W96
//  #06 //057   ----------------------------------------
 BYTE   W96
//  #06 //058   ----------------------------------------
 BYTE   PATT
  POIN2 Label_563568
//  #06 //059   ----------------------------------------
 BYTE   PATT
  POIN2 Label_563573
//  #06 //060   ----------------------------------------
 BYTE   EOT
 BYTE   Cs3
 BYTE   W44
//  #06 //061   ----------------------------------------
 BYTE   PATT
  POIN2 Label_56357D
//  #06 //062   ----------------------------------------
 BYTE   W48
 BYTE   N44  Fs3  v088
 BYTE   W01
 BYTE   EOT
 BYTE   En3
 BYTE   W44
 BYTE   N48  Gs3
 BYTE   W03
//  #06 //063   ----------------------------------------
 BYTE   PATT
  POIN2 Label_563590
//  #06 //064   ----------------------------------------
 BYTE   W96
//  #06 //065   ----------------------------------------
 BYTE   W96
//  #06 //066   ----------------------------------------
 BYTE   W96
//  #06 //067   ----------------------------------------
 BYTE   PATT
  POIN2 Label_56359B
//  #06 //068   ----------------------------------------
 BYTE   EOT
 BYTE   An3
 BYTE   W42
 BYTE   W01
//  #06 //069   ----------------------------------------
 BYTE   PATT
  POIN2 Label_5635A6
//  #06 //070   ----------------------------------------
 BYTE   EOT
 BYTE   Cs3
 BYTE   W42
 BYTE   W01
 BYTE   W48
 BYTE   TIE  En3  v092
 BYTE   W48
//  #06 //071   ----------------------------------------
 BYTE   W48
 BYTE   N48  Fs3  v100
 BYTE   W02
 BYTE   EOT
 BYTE   En3
 BYTE   W44
 BYTE   W02
//  #06 //072   ----------------------------------------
 BYTE   PATT
  POIN2 Label_5635BF
//  #06 //073   ----------------------------------------
 BYTE   W96
//  #06 //074   ----------------------------------------
 BYTE   W96
//  #06 //075   ----------------------------------------
 BYTE   W96
//  #06 //076   ----------------------------------------
 BYTE   W44
 BYTE   W01
 BYTE   EOT
 BYTE   An3
 BYTE   W48
 BYTE   W03
//  #06 //077   ----------------------------------------
 BYTE   W96
//  #06 //078   ----------------------------------------
 BYTE   W96
//  #06 //079   ----------------------------------------
 BYTE   W96
//  #06 //080   ----------------------------------------
 BYTE   W96
//  #06 //081   ----------------------------------------
 BYTE   W96
//  #06 //082   ----------------------------------------
 BYTE   W96
//  #06 //083   ----------------------------------------
 BYTE   W96
//  #06 //084   ----------------------------------------
 BYTE   W96
//  #06 //085   ----------------------------------------
 BYTE   W96
//  #06 //086   ----------------------------------------
 BYTE   W96
//  #06 //087   ----------------------------------------
 BYTE   W96
//  #06 //088   ----------------------------------------
 BYTE   W48
 BYTE   FINE

//**************** Track 7 (Midi-Chn.6) ****************//

song25_007:
//  #07 //000   ----------------------------------------
 BYTE   KEYSH   song25_key+0
 BYTE   VOICE   48
 BYTE   MODT 0
 BYTE   LFOS 44
 BYTE   VOL   53*song25_mvl/mxv
 BYTE   PAN   c_v-34
 BYTE   W48
Label_563161:
 BYTE   W48
//  #07 //001   ----------------------------------------
 BYTE   W96
//  #07 //002   ----------------------------------------
 BYTE   W96
//  #07 //003   ----------------------------------------
 BYTE   W96
//  #07 //004   ----------------------------------------
 BYTE   W96
//  #07 //005   ----------------------------------------
 BYTE   W96
//  #07 //006   ----------------------------------------
 BYTE   W96
//  #07 //007   ----------------------------------------
 BYTE   W96
//  #07 //008   ----------------------------------------
 BYTE   W96
//  #07 //009   ----------------------------------------
 BYTE   W96
//  #07 //010   ----------------------------------------
 BYTE   W96
//  #07 //011   ----------------------------------------
 BYTE   W96
//  #07 //012   ----------------------------------------
 BYTE   W96
//  #07 //013   ----------------------------------------
 BYTE   W96
//  #07 //014   ----------------------------------------
 BYTE   W96
//  #07 //015   ----------------------------------------
Label_563170:
 BYTE   W48
 BYTE   N14  Cs3  v100
 BYTE   W12
 BYTE   En3
 BYTE   W12
 BYTE   N12  Gs3
 BYTE   W12
 BYTE   N11  Cs4
 BYTE   W12
 BYTE   PEND 
//  #07 //016   ----------------------------------------
Label_56317E:
 BYTE   N12  Ds4  v100
 BYTE   W12
 BYTE   N13  Cs4
 BYTE   W12
 BYTE   N18  Gs3
 BYTE   W12
 BYTE   N15  En3
 BYTE   W12
 BYTE   N16  Cs3
 BYTE   W12
 BYTE   En3
 BYTE   W12
 BYTE   N14  Gs3
 BYTE   W12
 BYTE   N13  Cs4
 BYTE   W12
 BYTE   PEND 
//  #07 //017   ----------------------------------------
Label_563197:
 BYTE   N11  Ds4  v100
 BYTE   W12
 BYTE   N12  Cs4
 BYTE   W12
 BYTE   N16  Gs3
 BYTE   W12
 BYTE   En3
 BYTE   W12
 BYTE   N15  Cs3
 BYTE   W12
 BYTE   N16  En3
 BYTE   W12
 BYTE   N13  Gs3
 BYTE   W12
 BYTE   N12  Cs4
 BYTE   W12
 BYTE   PEND 
//  #07 //018   ----------------------------------------
Label_5631B0:
 BYTE   N10  Ds4  v100
 BYTE   W12
 BYTE   N13  Cs4
 BYTE   W12
 BYTE   N16  Gs3
 BYTE   W12
 BYTE   N17  En3
 BYTE   W12
 BYTE   Cs3
 BYTE   W12
 BYTE   N15  En3
 BYTE   W12
 BYTE   N13  Gs3
 BYTE   W12
 BYTE   Cs4
 BYTE   W12
 BYTE   PEND 
//  #07 //019   ----------------------------------------
Label_5631C8:
 BYTE   N14  Ds4  v100
 BYTE   W12
 BYTE   N15  En4
 BYTE   W12
 BYTE   N11  Gs4
 BYTE   W12
 BYTE   Cs5
 BYTE   W12
 BYTE   N13  Cn3
 BYTE   W12
 BYTE   N10  En3
 BYTE   W12
 BYTE   N14  An3
 BYTE   W12
 BYTE   Cn4
 BYTE   W12
 BYTE   PEND 
//  #07 //020   ----------------------------------------
Label_5631E0:
 BYTE   N15  En4  v100
 BYTE   W12
 BYTE   N13  Cn4
 BYTE   W12
 BYTE   N14  An3
 BYTE   W12
 BYTE   N15  En3
 BYTE   W12
 BYTE   N17  Cn3
 BYTE   W12
 BYTE   N11  En3
 BYTE   W12
 BYTE   N15  An3
 BYTE   W12
 BYTE   N13  Cn4
 BYTE   W12
 BYTE   PEND 
//  #07 //021   ----------------------------------------
Label_5631FA:
 BYTE   N14  En4  v100
 BYTE   W12
 BYTE   N10  Cn4
 BYTE   W12
 BYTE   N15  An3
 BYTE   W12
 BYTE   En3
 BYTE   W12
 BYTE   N16  Cn3
 BYTE   W12
 BYTE   N12  En3
 BYTE   W12
 BYTE   N15  An3
 BYTE   W12
 BYTE   N13  Cn4
 BYTE   W12
 BYTE   PEND 
//  #07 //022   ----------------------------------------
Label_563213:
 BYTE   N12  En4  v100
 BYTE   W12
 BYTE   Cn4
 BYTE   W12
 BYTE   N13  An3
 BYTE   W12
 BYTE   N14  En3
 BYTE   W12
 BYTE   N15  Cn3
 BYTE   W12
 BYTE   N09  En3
 BYTE   W12
 BYTE   N14  An3
 BYTE   W12
 BYTE   N16  Cn4
 BYTE   W12
 BYTE   PEND 
//  #07 //023   ----------------------------------------
Label_56322C:
 BYTE   N13  En4  v100
 BYTE   W12
 BYTE   N15  An4
 BYTE   W12
 BYTE   N14  Cn5
 BYTE   W12
 BYTE   N12  En5
 BYTE   W12
 BYTE   N14  Cs3
 BYTE   W12
 BYTE   En3
 BYTE   W12
 BYTE   N12  Gs3
 BYTE   W12
 BYTE   N11  Cs4
 BYTE   W12
 BYTE   PEND 
//  #07 //024   ----------------------------------------
 BYTE   PATT
  POIN2 Label_56317E
//  #07 //025   ----------------------------------------
 BYTE   PATT
  POIN2 Label_563197
//  #07 //026   ----------------------------------------
 BYTE   PATT
  POIN2 Label_5631B0
//  #07 //027   ----------------------------------------
 BYTE   PATT
  POIN2 Label_5631C8
//  #07 //028   ----------------------------------------
 BYTE   PATT
  POIN2 Label_5631E0
//  #07 //029   ----------------------------------------
 BYTE   PATT
  POIN2 Label_5631FA
//  #07 //030   ----------------------------------------
 BYTE   PATT
  POIN2 Label_563213
//  #07 //031   ----------------------------------------
Label_563268:
 BYTE   N13  En4  v100
 BYTE   W12
 BYTE   N15  An4
 BYTE   W12
 BYTE   N14  Cn5
 BYTE   W12
 BYTE   N12  En5
 BYTE   W60
 BYTE   PEND 
//  #07 //032   ----------------------------------------
 BYTE   W96
//  #07 //033   ----------------------------------------
 BYTE   W96
//  #07 //034   ----------------------------------------
 BYTE   W96
//  #07 //035   ----------------------------------------
 BYTE   W96
//  #07 //036   ----------------------------------------
 BYTE   W96
//  #07 //037   ----------------------------------------
 BYTE   W96
//  #07 //038   ----------------------------------------
 BYTE   W96
//  #07 //039   ----------------------------------------
 BYTE   W96
//  #07 //040   ----------------------------------------
 BYTE   W96
//  #07 //041   ----------------------------------------
 BYTE   W96
//  #07 //042   ----------------------------------------
 BYTE   W96
//  #07 //043   ----------------------------------------
 BYTE   W48
 BYTE   GoTo
  POIN2 Label_563161
//  #07 //044   ----------------------------------------
 BYTE   W48
 BYTE   W96
//  #07 //045   ----------------------------------------
 BYTE   W96
//  #07 //046   ----------------------------------------
 BYTE   W96
//  #07 //047   ----------------------------------------
 BYTE   W96
//  #07 //048   ----------------------------------------
 BYTE   W96
//  #07 //049   ----------------------------------------
 BYTE   W96
//  #07 //050   ----------------------------------------
 BYTE   W96
//  #07 //051   ----------------------------------------
 BYTE   W96
//  #07 //052   ----------------------------------------
 BYTE   W96
//  #07 //053   ----------------------------------------
 BYTE   W96
//  #07 //054   ----------------------------------------
 BYTE   W96
//  #07 //055   ----------------------------------------
 BYTE   W96
//  #07 //056   ----------------------------------------
 BYTE   W96
//  #07 //057   ----------------------------------------
 BYTE   W96
//  #07 //058   ----------------------------------------
 BYTE   PATT
  POIN2 Label_563170
//  #07 //059   ----------------------------------------
 BYTE   PATT
  POIN2 Label_56317E
//  #07 //060   ----------------------------------------
 BYTE   PATT
  POIN2 Label_563197
//  #07 //061   ----------------------------------------
 BYTE   PATT
  POIN2 Label_5631B0
//  #07 //062   ----------------------------------------
 BYTE   PATT
  POIN2 Label_5631C8
//  #07 //063   ----------------------------------------
 BYTE   PATT
  POIN2 Label_5631E0
//  #07 //064   ----------------------------------------
 BYTE   PATT
  POIN2 Label_5631FA
//  #07 //065   ----------------------------------------
 BYTE   PATT
  POIN2 Label_563213
//  #07 //066   ----------------------------------------
 BYTE   PATT
  POIN2 Label_56322C
//  #07 //067   ----------------------------------------
 BYTE   PATT
  POIN2 Label_56317E
//  #07 //068   ----------------------------------------
 BYTE   PATT
  POIN2 Label_563197
//  #07 //069   ----------------------------------------
 BYTE   PATT
  POIN2 Label_5631B0
//  #07 //070   ----------------------------------------
 BYTE   PATT
  POIN2 Label_5631C8
//  #07 //071   ----------------------------------------
 BYTE   PATT
  POIN2 Label_5631E0
//  #07 //072   ----------------------------------------
 BYTE   PATT
  POIN2 Label_5631FA
//  #07 //073   ----------------------------------------
 BYTE   PATT
  POIN2 Label_563213
//  #07 //074   ----------------------------------------
 BYTE   PATT
  POIN2 Label_563268
//  #07 //075   ----------------------------------------
 BYTE   W96
//  #07 //076   ----------------------------------------
 BYTE   W96
//  #07 //077   ----------------------------------------
 BYTE   W96
//  #07 //078   ----------------------------------------
 BYTE   W96
//  #07 //079   ----------------------------------------
 BYTE   W96
//  #07 //080   ----------------------------------------
 BYTE   W96
//  #07 //081   ----------------------------------------
 BYTE   W96
//  #07 //082   ----------------------------------------
 BYTE   W96
//  #07 //083   ----------------------------------------
 BYTE   W96
//  #07 //084   ----------------------------------------
 BYTE   W96
//  #07 //085   ----------------------------------------
 BYTE   W96
//  #07 //086   ----------------------------------------
 BYTE   W48
 BYTE   FINE

//**************** Track 8 (Midi-Chn.7) ****************//

song25_008:
//  #08 //000   ----------------------------------------
 BYTE   KEYSH   song25_key+0
 BYTE   VOICE   119
 BYTE   MODT 0
 BYTE   LFOS 44
 BYTE   VOL   58*song25_mvl/mxv
 BYTE   PAN   c_v-14
 BYTE   W13
 BYTE   N92  Gn2  v068
 BYTE   W01
 BYTE   Cn3  v076
 BYTE   W32
 BYTE   W02
Label_0117E3D1:
 BYTE   W16
 BYTE   VOL   56*song25_mvl/mxv
 BYTE   W01
 BYTE   VOL   54*song25_mvl/mxv
 BYTE   W01
 BYTE   VOL   51*song25_mvl/mxv
 BYTE   W01
 BYTE   VOL   49*song25_mvl/mxv
 BYTE   W01
 BYTE   VOL   46*song25_mvl/mxv
 BYTE   W01
 BYTE   VOL   46*song25_mvl/mxv
 BYTE   W01
 BYTE   VOL   42*song25_mvl/mxv
 BYTE   W01
 BYTE   VOL   41*song25_mvl/mxv
 BYTE   W01
 BYTE   VOL   38*song25_mvl/mxv
 BYTE   W01
 BYTE   VOL   36*song25_mvl/mxv
 BYTE   W01
 BYTE   VOL   34*song25_mvl/mxv
 BYTE   W01
 BYTE   VOL   32*song25_mvl/mxv
 BYTE   W01
 BYTE   VOL   30*song25_mvl/mxv
 BYTE   W01
 BYTE   VOL   28*song25_mvl/mxv
 BYTE   W01
 BYTE   VOL   25*song25_mvl/mxv
 BYTE   W01
 BYTE   VOL   25*song25_mvl/mxv
 BYTE   W01
 BYTE   VOL   22*song25_mvl/mxv
 BYTE   W01
 BYTE   VOL   21*song25_mvl/mxv
 BYTE   W01
 BYTE   VOL   19*song25_mvl/mxv
 BYTE   W01
 BYTE   VOL   17*song25_mvl/mxv
 BYTE   W01
 BYTE   VOL   15*song25_mvl/mxv
 BYTE   W01
 BYTE   VOL   13*song25_mvl/mxv
 BYTE   W01
 BYTE   VOL   12*song25_mvl/mxv
 BYTE   W01
 BYTE   VOL   10*song25_mvl/mxv
 BYTE   W01
 BYTE   VOL   8*song25_mvl/mxv
 BYTE   W01
 BYTE   VOL   7*song25_mvl/mxv
 BYTE   W01
 BYTE   VOL   5*song25_mvl/mxv
 BYTE   W01
 BYTE   VOL   4*song25_mvl/mxv
 BYTE   W01
 BYTE   VOL   3*song25_mvl/mxv
 BYTE   W01
 BYTE   VOL   2*song25_mvl/mxv
 BYTE   W01
 BYTE   VOL   0*song25_mvl/mxv
 BYTE   W01
 BYTE   VOL   0*song25_mvl/mxv
 BYTE   W01
//  #08 //001   ----------------------------------------
 BYTE   VOL   0*song25_mvl/mxv
 BYTE   W01
 BYTE   VOL   0*song25_mvl/mxv
 BYTE   W01
 BYTE   VOL   0*song25_mvl/mxv
 BYTE   W01
 BYTE   VOL   0*song25_mvl/mxv
 BYTE   W01
 BYTE   VOL   0*song25_mvl/mxv
 BYTE   W01
 BYTE   VOL   0*song25_mvl/mxv
 BYTE   W01
 BYTE   VOL   0*song25_mvl/mxv
 BYTE   W01
 BYTE   VOL   0*song25_mvl/mxv
 BYTE   W01
 BYTE   VOL   0*song25_mvl/mxv
 BYTE   W01
 BYTE   VOL   0*song25_mvl/mxv
 BYTE   W01
 BYTE   VOL   0*song25_mvl/mxv
 BYTE   W01
 BYTE   VOL   0*song25_mvl/mxv
 BYTE   W01
 BYTE   VOL   0*song25_mvl/mxv
 BYTE   W01
 BYTE   VOL   0*song25_mvl/mxv
 BYTE   W01
 BYTE   VOL   0*song25_mvl/mxv
 BYTE   W01
 BYTE   VOL   0*song25_mvl/mxv
 BYTE   W01
 BYTE   VOL   0*song25_mvl/mxv
 BYTE   W01
 BYTE   VOL   0*song25_mvl/mxv
 BYTE   W01
 BYTE   VOL   0*song25_mvl/mxv
 BYTE   W32
 BYTE   W01
 BYTE   VOL   58*song25_mvl/mxv
 BYTE   W44
 BYTE   W01
//  #08 //002   ----------------------------------------
 BYTE   W96
//  #08 //003   ----------------------------------------
 BYTE   W96
//  #08 //004   ----------------------------------------
 BYTE   W96
//  #08 //005   ----------------------------------------
 BYTE   W96
//  #08 //006   ----------------------------------------
 BYTE   W96
//  #08 //007   ----------------------------------------
 BYTE   W96
//  #08 //008   ----------------------------------------
 BYTE   W16
 BYTE   N60  An2  v080
 BYTE   N60  Dn3
 BYTE   W42
 BYTE   VOL   55*song25_mvl/mxv
 BYTE   W01
 BYTE   VOL   53*song25_mvl/mxv
 BYTE   W01
 BYTE   VOL   49*song25_mvl/mxv
 BYTE   W01
 BYTE   VOL   46*song25_mvl/mxv
 BYTE   W01
 BYTE   VOL   42*song25_mvl/mxv
 BYTE   W01
 BYTE   VOL   41*song25_mvl/mxv
 BYTE   W01
 BYTE   VOL   36*song25_mvl/mxv
 BYTE   W01
 BYTE   VOL   35*song25_mvl/mxv
 BYTE   W01
 BYTE   VOL   31*song25_mvl/mxv
 BYTE   W01
 BYTE   VOL   29*song25_mvl/mxv
 BYTE   W01
 BYTE   VOL   25*song25_mvl/mxv
 BYTE   W01
 BYTE   VOL   24*song25_mvl/mxv
 BYTE   W01
 BYTE   VOL   20*song25_mvl/mxv
 BYTE   W01
 BYTE   VOL   19*song25_mvl/mxv
 BYTE   W01
 BYTE   VOL   15*song25_mvl/mxv
 BYTE   W01
 BYTE   VOL   13*song25_mvl/mxv
 BYTE   W01
 BYTE   VOL   11*song25_mvl/mxv
 BYTE   W01
 BYTE   VOL   9*song25_mvl/mxv
 BYTE   W01
 BYTE   VOL   6*song25_mvl/mxv
 BYTE   W01
 BYTE   VOL   5*song25_mvl/mxv
 BYTE   W01
 BYTE   VOL   3*song25_mvl/mxv
 BYTE   W01
 BYTE   VOL   1*song25_mvl/mxv
 BYTE   W01
 BYTE   VOL   0*song25_mvl/mxv
 BYTE   W01
 BYTE   VOL   0*song25_mvl/mxv
 BYTE   W01
 BYTE   VOL   0*song25_mvl/mxv
 BYTE   W01
 BYTE   VOL   0*song25_mvl/mxv
 BYTE   W01
 BYTE   VOL   0*song25_mvl/mxv
 BYTE   W01
 BYTE   VOL   0*song25_mvl/mxv
 BYTE   W01
 BYTE   VOL   0*song25_mvl/mxv
 BYTE   W01
 BYTE   VOL   0*song25_mvl/mxv
 BYTE   W01
 BYTE   VOL   0*song25_mvl/mxv
 BYTE   W01
 BYTE   VOL   0*song25_mvl/mxv
 BYTE   W01
 BYTE   VOL   0*song25_mvl/mxv
 BYTE   W01
 BYTE   VOL   0*song25_mvl/mxv
 BYTE   W01
 BYTE   VOL   0*song25_mvl/mxv
 BYTE   W01
 BYTE   VOL   0*song25_mvl/mxv
 BYTE   W01
 BYTE   VOL   0*song25_mvl/mxv
 BYTE   W02
//  #08 //009   ----------------------------------------
 BYTE   W42
 BYTE   W01
 BYTE   VOL   55*song25_mvl/mxv
 BYTE   W52
 BYTE   W01
//  #08 //010   ----------------------------------------
 BYTE   W96
//  #08 //011   ----------------------------------------
 BYTE   W96
//  #08 //012   ----------------------------------------
 BYTE   W96
//  #08 //013   ----------------------------------------
 BYTE   W96
//  #08 //014   ----------------------------------------
 BYTE   W96
//  #08 //015   ----------------------------------------
 BYTE   W02
 BYTE   W03
 BYTE   N80  Ds3  v084
 BYTE   W01
 BYTE   Gs2  v080
 BYTE   W56
 BYTE   VOL   58*song25_mvl/mxv
 BYTE   W01
 BYTE   VOL   55*song25_mvl/mxv
 BYTE   W01
 BYTE   VOL   51*song25_mvl/mxv
 BYTE   W01
 BYTE   VOL   49*song25_mvl/mxv
 BYTE   W01
 BYTE   VOL   44*song25_mvl/mxv
 BYTE   W01
 BYTE   VOL   42*song25_mvl/mxv
 BYTE   W01
 BYTE   VOL   38*song25_mvl/mxv
 BYTE   W01
 BYTE   VOL   36*song25_mvl/mxv
 BYTE   W01
 BYTE   VOL   33*song25_mvl/mxv
 BYTE   W01
 BYTE   VOL   31*song25_mvl/mxv
 BYTE   W01
 BYTE   VOL   27*song25_mvl/mxv
 BYTE   W01
 BYTE   VOL   25*song25_mvl/mxv
 BYTE   W01
 BYTE   VOL   22*song25_mvl/mxv
 BYTE   W01
 BYTE   VOL   20*song25_mvl/mxv
 BYTE   W01
 BYTE   VOL   17*song25_mvl/mxv
 BYTE   W01
 BYTE   VOL   15*song25_mvl/mxv
 BYTE   W01
 BYTE   VOL   12*song25_mvl/mxv
 BYTE   W01
 BYTE   VOL   11*song25_mvl/mxv
 BYTE   W01
 BYTE   VOL   7*song25_mvl/mxv
 BYTE   W01
 BYTE   VOL   6*song25_mvl/mxv
 BYTE   W01
 BYTE   VOL   4*song25_mvl/mxv
 BYTE   W01
 BYTE   VOL   3*song25_mvl/mxv
 BYTE   W01
 BYTE   VOL   0*song25_mvl/mxv
 BYTE   W01
 BYTE   VOL   0*song25_mvl/mxv
 BYTE   W01
 BYTE   VOL   0*song25_mvl/mxv
 BYTE   W01
 BYTE   VOL   0*song25_mvl/mxv
 BYTE   W01
 BYTE   VOL   0*song25_mvl/mxv
 BYTE   W01
 BYTE   VOL   0*song25_mvl/mxv
 BYTE   W01
 BYTE   VOL   0*song25_mvl/mxv
 BYTE   W01
 BYTE   VOL   0*song25_mvl/mxv
 BYTE   W01
 BYTE   VOL   0*song25_mvl/mxv
 BYTE   W01
 BYTE   VOL   0*song25_mvl/mxv
 BYTE   W01
 BYTE   VOL   0*song25_mvl/mxv
 BYTE   W01
 BYTE   VOL   0*song25_mvl/mxv
 BYTE   W01
//  #08 //016   ----------------------------------------
 BYTE   VOL   0*song25_mvl/mxv
 BYTE   W01
 BYTE   VOL   0*song25_mvl/mxv
 BYTE   W01
 BYTE   VOL   0*song25_mvl/mxv
 BYTE   W30
 BYTE   VOL   58*song25_mvl/mxv
 BYTE   W64
//  #08 //017   ----------------------------------------
 BYTE   W96
//  #08 //018   ----------------------------------------
 BYTE   W96
//  #08 //019   ----------------------------------------
 BYTE   W09
 BYTE   TIE
 BYTE   TIE  Ds3  v108
 BYTE   W68
 BYTE   VOL   58*song25_mvl/mxv
 BYTE   W01
 BYTE   VOL   53*song25_mvl/mxv
 BYTE   W01
 BYTE   VOL   51*song25_mvl/mxv
 BYTE   W01
 BYTE   VOL   46*song25_mvl/mxv
 BYTE   W01
 BYTE   VOL   44*song25_mvl/mxv
 BYTE   W01
 BYTE   VOL   40*song25_mvl/mxv
 BYTE   W01
 BYTE   VOL   37*song25_mvl/mxv
 BYTE   W01
 BYTE   VOL   34*song25_mvl/mxv
 BYTE   W01
 BYTE   VOL   31*song25_mvl/mxv
 BYTE   W01
 BYTE   VOL   28*song25_mvl/mxv
 BYTE   W01
 BYTE   VOL   25*song25_mvl/mxv
 BYTE   W01
 BYTE   VOL   22*song25_mvl/mxv
 BYTE   W01
 BYTE   VOL   20*song25_mvl/mxv
 BYTE   W01
 BYTE   VOL   16*song25_mvl/mxv
 BYTE   W01
 BYTE   VOL   15*song25_mvl/mxv
 BYTE   W01
 BYTE   VOL   12*song25_mvl/mxv
 BYTE   W01
 BYTE   VOL   10*song25_mvl/mxv
 BYTE   W01
 BYTE   VOL   7*song25_mvl/mxv
 BYTE   W01
 BYTE   VOL   5*song25_mvl/mxv
 BYTE   W01
//  #08 //020   ----------------------------------------
 BYTE   VOL   3*song25_mvl/mxv
 BYTE   W01
 BYTE   VOL   2*song25_mvl/mxv
 BYTE   W01
 BYTE   VOL   0*song25_mvl/mxv
 BYTE   W01
 BYTE   VOL   0*song25_mvl/mxv
 BYTE   W01
 BYTE   VOL   0*song25_mvl/mxv
 BYTE   W01
 BYTE   VOL   0*song25_mvl/mxv
 BYTE   W01
 BYTE   VOL   0*song25_mvl/mxv
 BYTE   W01
 BYTE   VOL   0*song25_mvl/mxv
 BYTE   W01
 BYTE   VOL   0*song25_mvl/mxv
 BYTE   W01
 BYTE   VOL   0*song25_mvl/mxv
 BYTE   W01
 BYTE   VOL   0*song25_mvl/mxv
 BYTE   W01
 BYTE   VOL   0*song25_mvl/mxv
 BYTE   W01
 BYTE   VOL   0*song25_mvl/mxv
 BYTE   W01
 BYTE   VOL   0*song25_mvl/mxv
 BYTE   W01
 BYTE   VOL   0*song25_mvl/mxv
 BYTE   W01
 BYTE   VOL   0*song25_mvl/mxv
 BYTE   W05
 BYTE   EOT
 BYTE   Gs2  v063
 BYTE   W60
 BYTE   W02
 BYTE   VOL   58*song25_mvl/mxv
 BYTE   W14
//  #08 //021   ----------------------------------------
 BYTE   W96
//  #08 //022   ----------------------------------------
 BYTE   W96
//  #08 //023   ----------------------------------------
 BYTE   W03
 BYTE   N72  Gs2  v088
 BYTE   N76  Ds3  v096
 BYTE   W36
 BYTE   VOL   58*song25_mvl/mxv
 BYTE   W01
 BYTE   VOL   53*song25_mvl/mxv
 BYTE   W01
 BYTE   VOL   51*song25_mvl/mxv
 BYTE   W01
 BYTE   VOL   47*song25_mvl/mxv
 BYTE   W01
 BYTE   VOL   46*song25_mvl/mxv
 BYTE   W01
 BYTE   VOL   42*song25_mvl/mxv
 BYTE   W01
 BYTE   VOL   40*song25_mvl/mxv
 BYTE   W01
 BYTE   VOL   36*song25_mvl/mxv
 BYTE   W01
 BYTE   VOL   35*song25_mvl/mxv
 BYTE   W01
 BYTE   VOL   31*song25_mvl/mxv
 BYTE   W01
 BYTE   VOL   30*song25_mvl/mxv
 BYTE   W01
 BYTE   VOL   26*song25_mvl/mxv
 BYTE   W01
 BYTE   VOL   25*song25_mvl/mxv
 BYTE   W01
 BYTE   VOL   22*song25_mvl/mxv
 BYTE   W01
 BYTE   VOL   20*song25_mvl/mxv
 BYTE   W01
 BYTE   VOL   17*song25_mvl/mxv
 BYTE   W01
 BYTE   VOL   15*song25_mvl/mxv
 BYTE   W01
 BYTE   VOL   13*song25_mvl/mxv
 BYTE   W01
 BYTE   VOL   12*song25_mvl/mxv
 BYTE   W01
 BYTE   VOL   8*song25_mvl/mxv
 BYTE   W01
 BYTE   VOL   7*song25_mvl/mxv
 BYTE   W01
 BYTE   VOL   5*song25_mvl/mxv
 BYTE   W01
 BYTE   VOL   4*song25_mvl/mxv
 BYTE   W01
 BYTE   VOL   2*song25_mvl/mxv
 BYTE   W01
 BYTE   VOL   0*song25_mvl/mxv
 BYTE   W01
 BYTE   VOL   0*song25_mvl/mxv
 BYTE   W01
 BYTE   VOL   0*song25_mvl/mxv
 BYTE   W01
 BYTE   VOL   0*song25_mvl/mxv
 BYTE   W01
 BYTE   VOL   0*song25_mvl/mxv
 BYTE   W01
 BYTE   VOL   0*song25_mvl/mxv
 BYTE   W01
 BYTE   VOL   0*song25_mvl/mxv
 BYTE   W01
 BYTE   VOL   0*song25_mvl/mxv
 BYTE   W01
 BYTE   VOL   0*song25_mvl/mxv
 BYTE   W01
 BYTE   VOL   0*song25_mvl/mxv
 BYTE   W01
 BYTE   VOL   0*song25_mvl/mxv
 BYTE   W01
 BYTE   VOL   0*song25_mvl/mxv
 BYTE   W01
 BYTE   VOL   0*song25_mvl/mxv
 BYTE   W01
 BYTE   VOL   0*song25_mvl/mxv
 BYTE   W01
 BYTE   VOL   0*song25_mvl/mxv
 BYTE   W01
 BYTE   VOL   0*song25_mvl/mxv
 BYTE   W01
 BYTE   VOL   0*song25_mvl/mxv
 BYTE   W17
//  #08 //024   ----------------------------------------
 BYTE   W28
 BYTE   W01
 BYTE   VOL   58*song25_mvl/mxv
 BYTE   W66
 BYTE   W01
//  #08 //025   ----------------------------------------
 BYTE   W96
//  #08 //026   ----------------------------------------
 BYTE   W96
//  #08 //027   ----------------------------------------
 BYTE   W04
 BYTE   N90  Gs2  v084
 BYTE   N90  Ds3  v092
 BYTE   W56
 BYTE   W01
 BYTE   VOL   58*song25_mvl/mxv
 BYTE   W01
 BYTE   VOL   53*song25_mvl/mxv
 BYTE   W01
 BYTE   VOL   51*song25_mvl/mxv
 BYTE   W01
 BYTE   VOL   46*song25_mvl/mxv
 BYTE   W01
 BYTE   VOL   44*song25_mvl/mxv
 BYTE   W01
 BYTE   VOL   39*song25_mvl/mxv
 BYTE   W01
 BYTE   VOL   37*song25_mvl/mxv
 BYTE   W01
 BYTE   VOL   33*song25_mvl/mxv
 BYTE   W01
 BYTE   VOL   31*song25_mvl/mxv
 BYTE   W01
 BYTE   VOL   27*song25_mvl/mxv
 BYTE   W01
 BYTE   VOL   25*song25_mvl/mxv
 BYTE   W01
 BYTE   VOL   22*song25_mvl/mxv
 BYTE   W01
 BYTE   VOL   19*song25_mvl/mxv
 BYTE   W01
 BYTE   VOL   15*song25_mvl/mxv
 BYTE   W01
 BYTE   VOL   14*song25_mvl/mxv
 BYTE   W01
 BYTE   VOL   11*song25_mvl/mxv
 BYTE   W01
 BYTE   VOL   9*song25_mvl/mxv
 BYTE   W01
 BYTE   VOL   6*song25_mvl/mxv
 BYTE   W01
 BYTE   VOL   5*song25_mvl/mxv
 BYTE   W01
 BYTE   VOL   2*song25_mvl/mxv
 BYTE   W01
 BYTE   VOL   0*song25_mvl/mxv
 BYTE   W01
 BYTE   VOL   0*song25_mvl/mxv
 BYTE   W01
 BYTE   VOL   0*song25_mvl/mxv
 BYTE   W01
 BYTE   VOL   0*song25_mvl/mxv
 BYTE   W01
 BYTE   VOL   0*song25_mvl/mxv
 BYTE   W01
 BYTE   VOL   0*song25_mvl/mxv
 BYTE   W01
 BYTE   VOL   0*song25_mvl/mxv
 BYTE   W01
 BYTE   VOL   0*song25_mvl/mxv
 BYTE   W01
 BYTE   VOL   0*song25_mvl/mxv
 BYTE   W01
 BYTE   VOL   0*song25_mvl/mxv
 BYTE   W01
 BYTE   VOL   0*song25_mvl/mxv
 BYTE   W01
 BYTE   VOL   0*song25_mvl/mxv
 BYTE   W01
 BYTE   VOL   0*song25_mvl/mxv
 BYTE   W01
 BYTE   VOL   0*song25_mvl/mxv
 BYTE   W02
//  #08 //028   ----------------------------------------
 BYTE   W60
 BYTE   W01
 BYTE   VOL   58*song25_mvl/mxv
 BYTE   W32
 BYTE   W03
//  #08 //029   ----------------------------------------
 BYTE   W96
//  #08 //030   ----------------------------------------
 BYTE   W96
//  #08 //031   ----------------------------------------
 BYTE   W04
 BYTE   N66  As2  v104
 BYTE   N66  Ds3  v112
 BYTE   W48
 BYTE   W02
 BYTE   VOL   58*song25_mvl/mxv
 BYTE   W01
 BYTE   VOL   55*song25_mvl/mxv
 BYTE   W01
 BYTE   VOL   51*song25_mvl/mxv
 BYTE   W01
 BYTE   VOL   49*song25_mvl/mxv
 BYTE   W01
 BYTE   VOL   46*song25_mvl/mxv
 BYTE   W01
 BYTE   VOL   44*song25_mvl/mxv
 BYTE   W01
 BYTE   VOL   40*song25_mvl/mxv
 BYTE   W01
 BYTE   VOL   38*song25_mvl/mxv
 BYTE   W01
 BYTE   VOL   36*song25_mvl/mxv
 BYTE   W01
 BYTE   VOL   34*song25_mvl/mxv
 BYTE   W01
 BYTE   VOL   30*song25_mvl/mxv
 BYTE   W01
 BYTE   VOL   29*song25_mvl/mxv
 BYTE   W01
 BYTE   VOL   25*song25_mvl/mxv
 BYTE   W01
 BYTE   VOL   24*song25_mvl/mxv
 BYTE   W01
 BYTE   VOL   21*song25_mvl/mxv
 BYTE   W01
 BYTE   VOL   19*song25_mvl/mxv
 BYTE   W01
 BYTE   VOL   16*song25_mvl/mxv
 BYTE   W01
 BYTE   VOL   15*song25_mvl/mxv
 BYTE   W01
 BYTE   VOL   13*song25_mvl/mxv
 BYTE   W01
 BYTE   VOL   12*song25_mvl/mxv
 BYTE   W01
 BYTE   VOL   8*song25_mvl/mxv
 BYTE   W01
 BYTE   VOL   7*song25_mvl/mxv
 BYTE   W01
 BYTE   VOL   5*song25_mvl/mxv
 BYTE   W01
 BYTE   VOL   4*song25_mvl/mxv
 BYTE   W01
 BYTE   VOL   2*song25_mvl/mxv
 BYTE   W01
 BYTE   VOL   1*song25_mvl/mxv
 BYTE   W01
 BYTE   VOL   0*song25_mvl/mxv
 BYTE   W01
 BYTE   VOL   0*song25_mvl/mxv
 BYTE   W01
 BYTE   VOL   0*song25_mvl/mxv
 BYTE   W01
 BYTE   VOL   0*song25_mvl/mxv
 BYTE   W01
 BYTE   VOL   0*song25_mvl/mxv
 BYTE   W01
 BYTE   VOL   0*song25_mvl/mxv
 BYTE   W01
 BYTE   VOL   0*song25_mvl/mxv
 BYTE   W01
 BYTE   VOL   0*song25_mvl/mxv
 BYTE   W01
 BYTE   VOL   0*song25_mvl/mxv
 BYTE   W01
 BYTE   VOL   0*song25_mvl/mxv
 BYTE   W01
 BYTE   VOL   0*song25_mvl/mxv
 BYTE   W01
 BYTE   VOL   0*song25_mvl/mxv
 BYTE   W01
 BYTE   VOL   0*song25_mvl/mxv
 BYTE   W01
 BYTE   VOL   0*song25_mvl/mxv
 BYTE   W01
 BYTE   VOL   0*song25_mvl/mxv
 BYTE   W01
 BYTE   VOL   0*song25_mvl/mxv
 BYTE   W01
//  #08 //032   ----------------------------------------
 BYTE   VOL   0*song25_mvl/mxv
 BYTE   W54
 BYTE   VOL   58*song25_mvl/mxv
 BYTE   W42
//  #08 //033   ----------------------------------------
 BYTE   W96
//  #08 //034   ----------------------------------------
 BYTE   W96
//  #08 //035   ----------------------------------------
 BYTE   W96
//  #08 //036   ----------------------------------------
 BYTE   W96
//  #08 //037   ----------------------------------------
 BYTE   W96
//  #08 //038   ----------------------------------------
 BYTE   W96
//  #08 //039   ----------------------------------------
Label_0117E782:
 BYTE   W19
 BYTE   N90  Ds3  v100
 BYTE   W01
 BYTE   As2  v096
 BYTE   W28
 BYTE   W01
 BYTE   VOL   58*song25_mvl/mxv
 BYTE   W01
 BYTE   VOL   56*song25_mvl/mxv
 BYTE   W01
 BYTE   VOL   55*song25_mvl/mxv
 BYTE   W01
 BYTE   VOL   53*song25_mvl/mxv
 BYTE   W01
 BYTE   VOL   51*song25_mvl/mxv
 BYTE   W01
 BYTE   VOL   48*song25_mvl/mxv
 BYTE   W01
 BYTE   VOL   47*song25_mvl/mxv
 BYTE   W01
 BYTE   VOL   46*song25_mvl/mxv
 BYTE   W01
 BYTE   VOL   44*song25_mvl/mxv
 BYTE   W01
 BYTE   VOL   42*song25_mvl/mxv
 BYTE   W01
 BYTE   VOL   41*song25_mvl/mxv
 BYTE   W01
 BYTE   VOL   38*song25_mvl/mxv
 BYTE   W01
 BYTE   VOL   37*song25_mvl/mxv
 BYTE   W01
 BYTE   VOL   35*song25_mvl/mxv
 BYTE   W01
 BYTE   VOL   34*song25_mvl/mxv
 BYTE   W01
 BYTE   VOL   32*song25_mvl/mxv
 BYTE   W01
 BYTE   VOL   30*song25_mvl/mxv
 BYTE   W01
 BYTE   VOL   29*song25_mvl/mxv
 BYTE   W01
 BYTE   VOL   27*song25_mvl/mxv
 BYTE   W01
 BYTE   VOL   25*song25_mvl/mxv
 BYTE   W01
 BYTE   VOL   25*song25_mvl/mxv
 BYTE   W01
 BYTE   VOL   22*song25_mvl/mxv
 BYTE   W01
 BYTE   VOL   22*song25_mvl/mxv
 BYTE   W01
 BYTE   VOL   19*song25_mvl/mxv
 BYTE   W01
 BYTE   VOL   19*song25_mvl/mxv
 BYTE   W01
 BYTE   VOL   17*song25_mvl/mxv
 BYTE   W01
 BYTE   VOL   15*song25_mvl/mxv
 BYTE   W01
 BYTE   VOL   14*song25_mvl/mxv
 BYTE   W01
 BYTE   VOL   13*song25_mvl/mxv
 BYTE   W01
 BYTE   VOL   12*song25_mvl/mxv
 BYTE   W01
 BYTE   VOL   11*song25_mvl/mxv
 BYTE   W01
 BYTE   VOL   8*song25_mvl/mxv
 BYTE   W01
 BYTE   VOL   8*song25_mvl/mxv
 BYTE   W01
 BYTE   VOL   6*song25_mvl/mxv
 BYTE   W01
 BYTE   VOL   5*song25_mvl/mxv
 BYTE   W01
 BYTE   VOL   4*song25_mvl/mxv
 BYTE   W01
 BYTE   VOL   3*song25_mvl/mxv
 BYTE   W01
 BYTE   VOL   2*song25_mvl/mxv
 BYTE   W01
 BYTE   VOL   2*song25_mvl/mxv
 BYTE   W01
 BYTE   VOL   0*song25_mvl/mxv
 BYTE   W01
 BYTE   VOL   0*song25_mvl/mxv
 BYTE   W01
 BYTE   VOL   0*song25_mvl/mxv
 BYTE   W01
 BYTE   VOL   0*song25_mvl/mxv
 BYTE   W01
 BYTE   VOL   0*song25_mvl/mxv
 BYTE   W01
 BYTE   VOL   0*song25_mvl/mxv
 BYTE   W01
 BYTE   VOL   0*song25_mvl/mxv
 BYTE   W01
 BYTE   VOL   0*song25_mvl/mxv
 BYTE   W01
 BYTE   PEND 
//  #08 //040   ----------------------------------------
Label_0117E819:
 BYTE   VOL   0*song25_mvl/mxv
 BYTE   W01
 BYTE   VOL   0*song25_mvl/mxv
 BYTE   W01
 BYTE   VOL   0*song25_mvl/mxv
 BYTE   W01
 BYTE   VOL   0*song25_mvl/mxv
 BYTE   W01
 BYTE   VOL   0*song25_mvl/mxv
 BYTE   W01
 BYTE   VOL   0*song25_mvl/mxv
 BYTE   W01
 BYTE   VOL   0*song25_mvl/mxv
 BYTE   W01
 BYTE   VOL   0*song25_mvl/mxv
 BYTE   W01
 BYTE   VOL   0*song25_mvl/mxv
 BYTE   W01
 BYTE   VOL   0*song25_mvl/mxv
 BYTE   W01
 BYTE   VOL   0*song25_mvl/mxv
 BYTE   W01
 BYTE   VOL   0*song25_mvl/mxv
 BYTE   W01
 BYTE   VOL   0*song25_mvl/mxv
 BYTE   W01
 BYTE   VOL   0*song25_mvl/mxv
 BYTE   W01
 BYTE   VOL   0*song25_mvl/mxv
 BYTE   W01
 BYTE   VOL   0*song25_mvl/mxv
 BYTE   W01
 BYTE   VOL   0*song25_mvl/mxv
 BYTE   W01
 BYTE   VOL   0*song25_mvl/mxv
 BYTE   W48
 BYTE   W01
 BYTE   VOL   58*song25_mvl/mxv
 BYTE   W30
 BYTE   PEND 
//  #08 //041   ----------------------------------------
 BYTE   W96
//  #08 //042   ----------------------------------------
 BYTE   W96
//  #08 //043   ----------------------------------------
 BYTE   W48
 BYTE   GoTo
  POIN2 Label_0117E3D1
//  #08 //044   ----------------------------------------
 BYTE   W48
 BYTE   W96
//  #08 //045   ----------------------------------------
 BYTE   W96
//  #08 //046   ----------------------------------------
 BYTE   W96
//  #08 //047   ----------------------------------------
 BYTE   W96
//  #08 //048   ----------------------------------------
 BYTE   W96
//  #08 //049   ----------------------------------------
 BYTE   W96
//  #08 //050   ----------------------------------------
 BYTE   W96
//  #08 //051   ----------------------------------------
 BYTE   W16
 BYTE   N60  An2  v080
 BYTE   N60  Dn3
 BYTE   W80
//  #08 //052   ----------------------------------------
 BYTE   W96
//  #08 //053   ----------------------------------------
 BYTE   W96
//  #08 //054   ----------------------------------------
 BYTE   W96
//  #08 //055   ----------------------------------------
 BYTE   W96
//  #08 //056   ----------------------------------------
 BYTE   W96
//  #08 //057   ----------------------------------------
 BYTE   W96
//  #08 //058   ----------------------------------------
 BYTE   W02
 BYTE   W03
 BYTE   N80  Ds3  v084
 BYTE   W01
 BYTE   Gs2  v080
 BYTE   W90
//  #08 //059   ----------------------------------------
 BYTE   W96
//  #08 //060   ----------------------------------------
 BYTE   W96
//  #08 //061   ----------------------------------------
 BYTE   W96
//  #08 //062   ----------------------------------------
 BYTE   W09
 BYTE   TIE
 BYTE   TIE  Ds3  v108
 BYTE   W84
 BYTE   W03
//  #08 //063   ----------------------------------------
 BYTE   W20
 BYTE   EOT
 BYTE   Gs2  v063
 BYTE   W76
//  #08 //064   ----------------------------------------
 BYTE   W96
//  #08 //065   ----------------------------------------
 BYTE   W96
//  #08 //066   ----------------------------------------
 BYTE   W03
 BYTE   N72  Gs2  v088
 BYTE   N76  Ds3  v096
 BYTE   W92
 BYTE   W01
//  #08 //067   ----------------------------------------
 BYTE   W96
//  #08 //068   ----------------------------------------
 BYTE   W96
//  #08 //069   ----------------------------------------
 BYTE   W96
//  #08 //070   ----------------------------------------
 BYTE   W04
 BYTE   N90  Gs2  v084
 BYTE   N90  Ds3  v092
 BYTE   W92
//  #08 //071   ----------------------------------------
 BYTE   W96
//  #08 //072   ----------------------------------------
 BYTE   W96
//  #08 //073   ----------------------------------------
 BYTE   W96
//  #08 //074   ----------------------------------------
 BYTE   W04
 BYTE   N66  As2  v104
 BYTE   N66  Ds3  v112
 BYTE   W92
//  #08 //075   ----------------------------------------
 BYTE   W96
//  #08 //076   ----------------------------------------
 BYTE   W96
//  #08 //077   ----------------------------------------
 BYTE   W96
//  #08 //078   ----------------------------------------
 BYTE   W96
//  #08 //079   ----------------------------------------
 BYTE   W96
//  #08 //080   ----------------------------------------
 BYTE   W96
//  #08 //081   ----------------------------------------
 BYTE   W96
//  #08 //082   ----------------------------------------
 BYTE   PATT
  POIN2 Label_0117E782
//  #08 //083   ----------------------------------------
 BYTE   PATT
  POIN2 Label_0117E819
//  #08 //084   ----------------------------------------
 BYTE   W96
//  #08 //085   ----------------------------------------
 BYTE   W96
//  #08 //086   ----------------------------------------
 BYTE   W48
 BYTE   FINE

//**************** Track 9 (Midi-Chn.8) ****************//

song25_009:
//  #09 //000   ----------------------------------------
 BYTE   KEYSH   song25_key+0
 BYTE   VOICE   46
 BYTE   MODT 0
 BYTE   LFOS 44
 BYTE   VOL   53*song25_mvl/mxv
 BYTE   PAN   c_v-34
 BYTE   W48
Label_0117E8CD:
 BYTE   W48
//  #09 //001   ----------------------------------------
 BYTE   W96
//  #09 //002   ----------------------------------------
 BYTE   W96
//  #09 //003   ----------------------------------------
 BYTE   W96
//  #09 //004   ----------------------------------------
 BYTE   W96
//  #09 //005   ----------------------------------------
 BYTE   W96
//  #09 //006   ----------------------------------------
 BYTE   W96
//  #09 //007   ----------------------------------------
 BYTE   W96
//  #09 //008   ----------------------------------------
 BYTE   W96
//  #09 //009   ----------------------------------------
 BYTE   W96
//  #09 //010   ----------------------------------------
 BYTE   W96
//  #09 //011   ----------------------------------------
 BYTE   W96
//  #09 //012   ----------------------------------------
 BYTE   W96
//  #09 //013   ----------------------------------------
 BYTE   W96
//  #09 //014   ----------------------------------------
 BYTE   W96
//  #09 //015   ----------------------------------------
 BYTE   W96
//  #09 //016   ----------------------------------------
 BYTE   W96
//  #09 //017   ----------------------------------------
 BYTE   W96
//  #09 //018   ----------------------------------------
 BYTE   W96
//  #09 //019   ----------------------------------------
 BYTE   W96
//  #09 //020   ----------------------------------------
 BYTE   W96
//  #09 //021   ----------------------------------------
 BYTE   W96
//  #09 //022   ----------------------------------------
 BYTE   W96
//  #09 //023   ----------------------------------------
 BYTE   W96
//  #09 //024   ----------------------------------------
 BYTE   W96
//  #09 //025   ----------------------------------------
 BYTE   W96
//  #09 //026   ----------------------------------------
 BYTE   W96
//  #09 //027   ----------------------------------------
 BYTE   W96
//  #09 //028   ----------------------------------------
 BYTE   W96
//  #09 //029   ----------------------------------------
 BYTE   W96
//  #09 //030   ----------------------------------------
 BYTE   W96
//  #09 //031   ----------------------------------------
 BYTE   W96
//  #09 //032   ----------------------------------------
 BYTE   W96
//  #09 //033   ----------------------------------------
 BYTE   W96
//  #09 //034   ----------------------------------------
 BYTE   W96
//  #09 //035   ----------------------------------------
 BYTE   W96
//  #09 //036   ----------------------------------------
 BYTE   W96
//  #09 //037   ----------------------------------------
 BYTE   W96
//  #09 //038   ----------------------------------------
 BYTE   W96
//  #09 //039   ----------------------------------------
Label_0117E8F4:
 BYTE   W36
 BYTE   W01
 BYTE   W11
 BYTE   N13  Cn2  v068
 BYTE   W11
 BYTE   N15  Ds2  v072
 BYTE   W13
 BYTE   Gn2  v068
 BYTE   W12
 BYTE   N12  As2  v080
 BYTE   W12
 BYTE   PEND 
//  #09 //040   ----------------------------------------
Label_0117E907:
 BYTE   N12  Dn3  v056
 BYTE   W13
 BYTE   N18  Ds3  v068
 BYTE   W12
 BYTE   N13  Gn3
 BYTE   W11
 BYTE   As3  v088
 BYTE   W12
 BYTE   N17  Gn3  v080
 BYTE   W13
 BYTE   N13  Ds3  v076
 BYTE   W12
 BYTE   Dn3  v080
 BYTE   W11
 BYTE   N17  As3  v064
 BYTE   W12
 BYTE   PEND 
//  #09 //041   ----------------------------------------
Label_0117E925:
 BYTE   N17  Gn3  v064
 BYTE   W12
 BYTE   N14  Ds3  v060
 BYTE   W12
 BYTE   N15  Dn3  v056
 BYTE   W11
 BYTE   As3  v048
 BYTE   W12
 BYTE   N16  Gn3
 BYTE   W12
 BYTE   N15  Ds3  v044
 BYTE   W11
 BYTE   Dn3  v036
 BYTE   W12
 BYTE   N17  As3  v032
 BYTE   W13
 BYTE   N18  Gn3  v028
 BYTE   W01
 BYTE   PEND 
//  #09 //042   ----------------------------------------
Label_0117E947:
 BYTE   W12
 BYTE   N13  Ds3  v028
 BYTE   W10
 BYTE   N14  Dn3
 BYTE   W12
 BYTE   N19  As3
 BYTE   W14
 BYTE   N17  Gn3
 BYTE   W12
 BYTE   N14  Ds3  v024
 BYTE   W12
 BYTE   N15  Dn3
 BYTE   W10
 BYTE   N21  As3
 BYTE   W14
 BYTE   PEND 
//  #09 //043   ----------------------------------------
Label_0117E960:
 BYTE   N16  Gn3  v020
 BYTE   W11
 BYTE   N15  Ds3
 BYTE   W13
 BYTE   N14  Dn3
 BYTE   W12
 BYTE   N05  Ds3  v004
 BYTE   W12
 BYTE   PEND 
 BYTE   GoTo
  POIN2 Label_0117E8CD
//  #09 //044   ----------------------------------------
 BYTE   W48
 BYTE   W96
//  #09 //045   ----------------------------------------
 BYTE   W96
//  #09 //046   ----------------------------------------
 BYTE   W96
//  #09 //047   ----------------------------------------
 BYTE   W96
//  #09 //048   ----------------------------------------
 BYTE   W96
//  #09 //049   ----------------------------------------
 BYTE   W96
//  #09 //050   ----------------------------------------
 BYTE   W96
//  #09 //051   ----------------------------------------
 BYTE   W96
//  #09 //052   ----------------------------------------
 BYTE   W96
//  #09 //053   ----------------------------------------
 BYTE   W96
//  #09 //054   ----------------------------------------
 BYTE   W96
//  #09 //055   ----------------------------------------
 BYTE   W96
//  #09 //056   ----------------------------------------
 BYTE   W96
//  #09 //057   ----------------------------------------
 BYTE   W96
//  #09 //058   ----------------------------------------
 BYTE   W96
//  #09 //059   ----------------------------------------
 BYTE   W96
//  #09 //060   ----------------------------------------
 BYTE   W96
//  #09 //061   ----------------------------------------
 BYTE   W96
//  #09 //062   ----------------------------------------
 BYTE   W96
//  #09 //063   ----------------------------------------
 BYTE   W96
//  #09 //064   ----------------------------------------
 BYTE   W96
//  #09 //065   ----------------------------------------
 BYTE   W96
//  #09 //066   ----------------------------------------
 BYTE   W96
//  #09 //067   ----------------------------------------
 BYTE   W96
//  #09 //068   ----------------------------------------
 BYTE   W96
//  #09 //069   ----------------------------------------
 BYTE   W96
//  #09 //070   ----------------------------------------
 BYTE   W96
//  #09 //071   ----------------------------------------
 BYTE   W96
//  #09 //072   ----------------------------------------
 BYTE   W96
//  #09 //073   ----------------------------------------
 BYTE   W96
//  #09 //074   ----------------------------------------
 BYTE   W96
//  #09 //075   ----------------------------------------
 BYTE   W96
//  #09 //076   ----------------------------------------
 BYTE   W96
//  #09 //077   ----------------------------------------
 BYTE   W96
//  #09 //078   ----------------------------------------
 BYTE   W96
//  #09 //079   ----------------------------------------
 BYTE   W96
//  #09 //080   ----------------------------------------
 BYTE   W96
//  #09 //081   ----------------------------------------
 BYTE   W96
//  #09 //082   ----------------------------------------
 BYTE   PATT
  POIN2 Label_0117E8F4
//  #09 //083   ----------------------------------------
 BYTE   PATT
  POIN2 Label_0117E907
//  #09 //084   ----------------------------------------
 BYTE   PATT
  POIN2 Label_0117E925
//  #09 //085   ----------------------------------------
 BYTE   PATT
  POIN2 Label_0117E947
//  #09 //086   ----------------------------------------
 BYTE   PATT
  POIN2 Label_0117E960
 BYTE   FINE

//**************** Track 10 (Midi-Chn.9) ****************//

song25_010:
//  #10 //000   ----------------------------------------
 BYTE   KEYSH   song25_key+0
 BYTE   VOICE   124
 BYTE   MODT 0
 BYTE   LFOS 44
 BYTE   VOL   53*song25_mvl/mxv
 BYTE   N03  En1  v004
 BYTE   W03
 BYTE   N03
 BYTE   W03
 BYTE   En1  v008
 BYTE   W03
 BYTE   En1  v012
 BYTE   W03
 BYTE   En1  v016
 BYTE   W03
 BYTE   En1  v020
 BYTE   W03
 BYTE   En1  v024
 BYTE   W03
 BYTE   En1  v032
 BYTE   W03
 BYTE   En1  v036
 BYTE   W03
 BYTE   En1  v044
 BYTE   W03
 BYTE   En1  v048
 BYTE   W03
 BYTE   En1  v056
 BYTE   W03
 BYTE   En1  v064
 BYTE   W03
 BYTE   En1  v072
 BYTE   W03
 BYTE   En1  v080
 BYTE   W03
 BYTE   En1  v088
 BYTE   W03
Label_0117E9F2:
 BYTE   N07  En1  v088
 BYTE   N68  An2  v116
 BYTE   W12
 BYTE   N04  En1  v076
 BYTE   W12
 BYTE   N10  En1  v024
 BYTE   W12
 BYTE   N08  En1  v088
 BYTE   W12
//  #10 //001   ----------------------------------------
Label_0117EA05:
 BYTE   N09  En1  v064
 BYTE   W12
 BYTE   N05  En1  v084
 BYTE   W12
 BYTE   N07  En1  v100
 BYTE   W12
 BYTE   N03  En1  v076
 BYTE   W06
 BYTE   N04
 BYTE   W06
 BYTE   N06  En1  v096
 BYTE   W12
 BYTE   En1  v072
 BYTE   W12
 BYTE   N05  En1  v084
 BYTE   W12
 BYTE   N07  En1  v104
 BYTE   W12
 BYTE   PEND 
//  #10 //002   ----------------------------------------
Label_0117EA27:
 BYTE   N06  En1  v040
 BYTE   W12
 BYTE   N09  En1  v068
 BYTE   W12
 BYTE   N07  En1  v100
 BYTE   W12
 BYTE   N05  En1  v064
 BYTE   W12
 BYTE   N07  En1  v088
 BYTE   N60  An2  v116
 BYTE   W12
 BYTE   N04  En1  v076
 BYTE   W12
 BYTE   N10  En1  v024
 BYTE   W12
 BYTE   N08  En1  v088
 BYTE   W12
 BYTE   PEND 
//  #10 //003   ----------------------------------------
 BYTE   PATT
  POIN2 Label_0117EA05
//  #10 //004   ----------------------------------------
Label_0117EA50:
 BYTE   N06  En1  v040
 BYTE   W12
 BYTE   N09  En1  v068
 BYTE   W12
 BYTE   N07  En1  v100
 BYTE   W12
 BYTE   N05  En1  v064
 BYTE   W12
 BYTE   N07  En1  v088
 BYTE   TIE  An2  v124
 BYTE   W12
 BYTE   N04  En1  v076
 BYTE   W12
 BYTE   N10  En1  v024
 BYTE   W12
 BYTE   N08  En1  v088
 BYTE   W12
 BYTE   PEND 
//  #10 //005   ----------------------------------------
Label_0117EA74:
 BYTE   N09  En1  v064
 BYTE   W12
 BYTE   N05  En1  v084
 BYTE   W12
 BYTE   N07  En1  v100
 BYTE   W12
 BYTE   N03  En1  v076
 BYTE   W06
 BYTE   N04
 BYTE   W06
 BYTE   N06  En1  v096
 BYTE   W12
 BYTE   En1  v072
 BYTE   W03
 BYTE   PEND 
 BYTE   EOT
 BYTE   An2
 BYTE   W09
 BYTE   N05  En1  v084
 BYTE   W12
 BYTE   N07  En1  v104
 BYTE   W12
//  #10 //006   ----------------------------------------
Label_0117EA99:
 BYTE   N06  En1  v040
 BYTE   W12
 BYTE   N09  En1  v068
 BYTE   W12
 BYTE   N07  En1  v100
 BYTE   W12
 BYTE   N05  En1  v064
 BYTE   W12
 BYTE   N07  En1  v088
 BYTE   TIE  An2  v100
 BYTE   W12
 BYTE   N04  En1  v076
 BYTE   W12
 BYTE   N10  En1  v024
 BYTE   W12
 BYTE   N08  En1  v088
 BYTE   W12
 BYTE   PEND 
//  #10 //007   ----------------------------------------
Label_0117EABD:
 BYTE   N09  En1  v064
 BYTE   W12
 BYTE   N05  En1  v084
 BYTE   W12
 BYTE   N07  En1  v100
 BYTE   W12
 BYTE   N03  En1  v076
 BYTE   W06
 BYTE   N04
 BYTE   W06
 BYTE   N06  En1  v096
 BYTE   W01
 BYTE   PEND 
 BYTE   EOT
 BYTE   An2
 BYTE   W11
 BYTE   N06  En1  v072
 BYTE   W12
 BYTE   N05  En1  v084
 BYTE   W12
 BYTE   N07  En1  v104
 BYTE   W12
//  #10 //008   ----------------------------------------
Label_0117EAE3:
 BYTE   N06  En1  v040
 BYTE   W12
 BYTE   N09  En1  v068
 BYTE   W12
 BYTE   N07  En1  v100
 BYTE   W12
 BYTE   N05  En1  v064
 BYTE   W12
 BYTE   N09  En1  v100
 BYTE   N56  An2  v108
 BYTE   W36
 BYTE   N10  En1  v088
 BYTE   W12
 BYTE   PEND 
//  #10 //009   ----------------------------------------
Label_0117EAFF:
 BYTE   W12
 BYTE   N06  En1  v088
 BYTE   W12
 BYTE   N05  En1  v068
 BYTE   W12
 BYTE   N06  En1  v096
 BYTE   N17  An2  v100
 BYTE   W24
 BYTE   N05  En1  v108
 BYTE   N20  An2
 BYTE   W12
 BYTE   N06  En1  v084
 BYTE   W12
 BYTE   N03  En1  v100
 BYTE   W06
 BYTE   N04  En1  v088
 BYTE   W06
 BYTE   PEND 
//  #10 //010   ----------------------------------------
Label_0117EB22:
 BYTE   N04  En1  v104
 BYTE   W06
 BYTE   N03  En1  v084
 BYTE   W06
 BYTE   N04  En1  v088
 BYTE   W06
 BYTE   N03  En1  v108
 BYTE   W06
 BYTE   N09  En1  v100
 BYTE   N13  An2  v124
 BYTE   W36
 BYTE   N10  En1  v088
 BYTE   W24
 BYTE   N06
 BYTE   W12
 BYTE   PEND 
//  #10 //011   ----------------------------------------
Label_0117EB40:
 BYTE   N05  En1  v068
 BYTE   W12
 BYTE   N06  En1  v096
 BYTE   N11  An2  v084
 BYTE   N02  Bn2  v020
 BYTE   W24
 BYTE   N05  En1  v108
 BYTE   N21  An2  v112
 BYTE   W12
 BYTE   N06  En1  v084
 BYTE   W12
 BYTE   N03  En1  v100
 BYTE   W06
 BYTE   N04  En1  v088
 BYTE   W06
 BYTE   En1  v104
 BYTE   W06
 BYTE   N03  En1  v084
 BYTE   W06
 BYTE   N04  En1  v088
 BYTE   W06
 BYTE   N03  En1  v108
 BYTE   W06
 BYTE   PEND 
//  #10 //012   ----------------------------------------
Label_0117EB71:
 BYTE   N09  En1  v100
 BYTE   N15  An2  v124
 BYTE   W36
 BYTE   N10  En1  v088
 BYTE   W24
 BYTE   N06
 BYTE   W12
 BYTE   N05  En1  v068
 BYTE   W12
 BYTE   N06  En1  v096
 BYTE   N15  An2  v116
 BYTE   W12
 BYTE   PEND 
//  #10 //013   ----------------------------------------
Label_0117EB8A:
 BYTE   W12
 BYTE   N05  En1  v108
 BYTE   N13  An2  v104
 BYTE   W12
 BYTE   N06  En1  v084
 BYTE   W12
 BYTE   N03  En1  v100
 BYTE   W06
 BYTE   N04  En1  v088
 BYTE   W06
 BYTE   En1  v104
 BYTE   W06
 BYTE   N03  En1  v084
 BYTE   W06
 BYTE   N04  En1  v088
 BYTE   W06
 BYTE   N03  En1  v108
 BYTE   W06
 BYTE   N09  En1  v100
 BYTE   N13  An2  v120
 BYTE   W24
 BYTE   PEND 
//  #10 //014   ----------------------------------------
Label_0117EBB5:
 BYTE   W12
 BYTE   N10  En1  v088
 BYTE   W24
 BYTE   N06
 BYTE   W12
 BYTE   N05  En1  v068
 BYTE   W12
 BYTE   N06  En1  v096
 BYTE   N14  An2  v108
 BYTE   W24
 BYTE   N05  En1
 BYTE   N15  An2  v104
 BYTE   W12
 BYTE   PEND 
//  #10 //015   ----------------------------------------
Label_0117EBCE:
 BYTE   N06  En1  v084
 BYTE   W12
 BYTE   N03  En1  v100
 BYTE   W06
 BYTE   N04  En1  v088
 BYTE   W06
 BYTE   En1  v104
 BYTE   W06
 BYTE   N03  En1  v084
 BYTE   W06
 BYTE   N04  En1  v088
 BYTE   W06
 BYTE   N03  En1  v108
 BYTE   W06
 BYTE   N14  En1  v084
 BYTE   TIE  An2  v112
 BYTE   W24
 BYTE   N10  En1  v056
 BYTE   W12
 BYTE   N06  En1  v100
 BYTE   W12
 BYTE   PEND 
//  #10 //016   ----------------------------------------
Label_0117EBF9:
 BYTE   N08  En1  v048
 BYTE   W12
 BYTE   N06  En1  v056
 BYTE   W12
 BYTE   N08  En1  v076
 BYTE   W12
 BYTE   N04  En1  v084
 BYTE   W06
 BYTE   N05  En1  v076
 BYTE   W06
 BYTE   N05
 BYTE   W12
 BYTE   N06  En1  v040
 BYTE   W09
 BYTE   PEND 
 BYTE   EOT
 BYTE   An2
 BYTE   W03
 BYTE   N05  En1  v060
 BYTE   W12
 BYTE   N07  En1  v088
 BYTE   W12
//  #10 //017   ----------------------------------------
Label_0117EC1F:
 BYTE   N06  En1  v056
 BYTE   W12
 BYTE   N08  En1  v024
 BYTE   W12
 BYTE   N05  En1  v056
 BYTE   W12
 BYTE   N04  En1  v076
 BYTE   W06
 BYTE   N05  En1  v084
 BYTE   W06
 BYTE   N07  En1  v088
 BYTE   W12
 BYTE   N05  En1  v068
 BYTE   W12
 BYTE   N09  En1  v024
 BYTE   W12
 BYTE   N05  En1  v088
 BYTE   W12
 BYTE   PEND 
//  #10 //018   ----------------------------------------
Label_0117EC44:
 BYTE   N07  En1  v040
 BYTE   W12
 BYTE   N06  En1  v060
 BYTE   W12
 BYTE   N07  En1  v036
 BYTE   W12
 BYTE   N05  En1  v072
 BYTE   W06
 BYTE   N06  En1  v060
 BYTE   W06
 BYTE   N06
 BYTE   W12
 BYTE   En1  v048
 BYTE   W12
 BYTE   N05  En1  v056
 BYTE   W12
 BYTE   N12  En1  v080
 BYTE   W12
 BYTE   PEND 
//  #10 //019   ----------------------------------------
Label_0117EC66:
 BYTE   N06  En1  v084
 BYTE   W12
 BYTE   N04  En1  v076
 BYTE   W06
 BYTE   En1  v084
 BYTE   W06
 BYTE   N04
 BYTE   W06
 BYTE   N03  En1  v088
 BYTE   W06
 BYTE   N04  En1  v084
 BYTE   W06
 BYTE   N03  En1  v100
 BYTE   W06
 BYTE   N14  En1  v084
 BYTE   TIE  An2  v104
 BYTE   W24
 BYTE   N10  En1  v056
 BYTE   W12
 BYTE   N06  En1  v100
 BYTE   W12
 BYTE   PEND 
//  #10 //020   ----------------------------------------
Label_0117EC8F:
 BYTE   N08  En1  v048
 BYTE   W12
 BYTE   N06  En1  v056
 BYTE   W12
 BYTE   N08  En1  v076
 BYTE   W12
 BYTE   N04  En1  v084
 BYTE   W06
 BYTE   N05  En1  v076
 BYTE   W06
 BYTE   N05
 BYTE   W12
 BYTE   N06  En1  v040
 BYTE   W12
 BYTE   N05  En1  v060
 BYTE   W12
 BYTE   N07  En1  v088
 BYTE   W03
 BYTE   PEND 
 BYTE   EOT
 BYTE   An2
 BYTE   W09
//  #10 //021   ----------------------------------------
 BYTE   PATT
  POIN2 Label_0117EC1F
//  #10 //022   ----------------------------------------
 BYTE   PATT
  POIN2 Label_0117EC44
//  #10 //023   ----------------------------------------
Label_0117ECBF:
 BYTE   N06  En1  v084
 BYTE   W12
 BYTE   N04  En1  v076
 BYTE   W06
 BYTE   En1  v084
 BYTE   W06
 BYTE   N04
 BYTE   W06
 BYTE   N03  En1  v088
 BYTE   W06
 BYTE   N04  En1  v084
 BYTE   W06
 BYTE   N03  En1  v100
 BYTE   W06
 BYTE   N14  En1  v084
 BYTE   N76  An2  v124
 BYTE   W24
 BYTE   N10  En1  v056
 BYTE   W12
 BYTE   N06  En1  v100
 BYTE   W12
 BYTE   PEND 
//  #10 //024   ----------------------------------------
Label_0117ECE8:
 BYTE   N08  En1  v048
 BYTE   W12
 BYTE   N06  En1  v056
 BYTE   W12
 BYTE   N08  En1  v076
 BYTE   W12
 BYTE   N04  En1  v084
 BYTE   W06
 BYTE   N05  En1  v076
 BYTE   W06
 BYTE   N05
 BYTE   W12
 BYTE   N06  En1  v040
 BYTE   W12
 BYTE   N05  En1  v060
 BYTE   W12
 BYTE   N07  En1  v088
 BYTE   W12
 BYTE   PEND 
//  #10 //025   ----------------------------------------
 BYTE   PATT
  POIN2 Label_0117EC1F
//  #10 //026   ----------------------------------------
 BYTE   PATT
  POIN2 Label_0117EC44
//  #10 //027   ----------------------------------------
Label_0117ED15:
 BYTE   N06  En1  v084
 BYTE   W12
 BYTE   N04  En1  v076
 BYTE   W06
 BYTE   En1  v084
 BYTE   W06
 BYTE   N04
 BYTE   W06
 BYTE   N03  En1  v088
 BYTE   W06
 BYTE   N04  En1  v084
 BYTE   W06
 BYTE   N03  En1  v100
 BYTE   W06
 BYTE   N14  En1  v084
 BYTE   TIE  An2  v108
 BYTE   W24
 BYTE   N10  En1  v056
 BYTE   W12
 BYTE   N06  En1  v100
 BYTE   W12
 BYTE   PEND 
//  #10 //028   ----------------------------------------
 BYTE   PATT
  POIN2 Label_0117ECE8
//  #10 //029   ----------------------------------------
 BYTE   PATT
  POIN2 Label_0117EC1F
//  #10 //030   ----------------------------------------
Label_0117ED48:
 BYTE   N07  En1  v040
 BYTE   W12
 BYTE   N06  En1  v060
 BYTE   W12
 BYTE   N07  En1  v036
 BYTE   W12
 BYTE   N05  En1  v072
 BYTE   W06
 BYTE   N06  En1  v060
 BYTE   W06
 BYTE   PEND 
 BYTE   EOT
 BYTE   An2
 BYTE   N06  En1
 BYTE   W12
 BYTE   En1  v048
 BYTE   W12
 BYTE   N05  En1  v056
 BYTE   W12
 BYTE   N12  En1  v080
 BYTE   W12
//  #10 //031   ----------------------------------------
Label_0117ED6D:
 BYTE   N06  En1  v084
 BYTE   W12
 BYTE   N04  En1  v076
 BYTE   W06
 BYTE   En1  v084
 BYTE   W06
 BYTE   N04
 BYTE   W06
 BYTE   N03  En1  v088
 BYTE   W06
 BYTE   N04  En1  v084
 BYTE   W06
 BYTE   N03  En1  v100
 BYTE   W06
 BYTE   N04
 BYTE   N52  An2  v116
 BYTE   W18
 BYTE   N02  En1  v068
 BYTE   W06
 BYTE   N05  En1  v088
 BYTE   W12
 BYTE   N06  En1  v108
 BYTE   W12
 BYTE   PEND 
//  #10 //032   ----------------------------------------
Label_0117ED98:
 BYTE   N04  En1  v068
 BYTE   W06
 BYTE   En1  v080
 BYTE   W06
 BYTE   N05  En1  v084
 BYTE   W12
 BYTE   En1  v096
 BYTE   N56  An2  v112
 BYTE   W12
 BYTE   N02  En1  v036
 BYTE   W06
 BYTE   N04  En1  v068
 BYTE   W06
 BYTE   N05
 BYTE   W12
 BYTE   En1  v060
 BYTE   W12
 BYTE   N06  En1  v052
 BYTE   W12
 BYTE   N05  En1  v080
 BYTE   W12
 BYTE   PEND 
//  #10 //033   ----------------------------------------
Label_0117EDBF:
 BYTE   N02  En1  v028
 BYTE   N30  An2  v104
 BYTE   W06
 BYTE   N03  En1  v068
 BYTE   W06
 BYTE   N05
 BYTE   W12
 BYTE   N03  En1  v088
 BYTE   W06
 BYTE   N04  En1  v076
 BYTE   W06
 BYTE   En1  v084
 BYTE   W06
 BYTE   N05  En1  v088
 BYTE   W06
 BYTE   N06  En1  v112
 BYTE   N56  An2  v104
 BYTE   W12
 BYTE   N03  En1  v068
 BYTE   W06
 BYTE   N04  En1  v080
 BYTE   W06
 BYTE   N07  En1  v092
 BYTE   W12
 BYTE   En1  v112
 BYTE   W12
 BYTE   PEND 
//  #10 //034   ----------------------------------------
Label_0117EDF2:
 BYTE   W06
 BYTE   N05  En1  v068
 BYTE   W06
 BYTE   N03  En1  v040
 BYTE   W12
 BYTE   N06  En1  v060
 BYTE   N60  An2  v104
 BYTE   W12
 BYTE   N03  En1  v068
 BYTE   W06
 BYTE   N13  En1  v064
 BYTE   W18
 BYTE   N06  En1  v108
 BYTE   W12
 BYTE   N03  En1  v068
 BYTE   W06
 BYTE   N05  En1  v072
 BYTE   W06
 BYTE   En1  v080
 BYTE   W12
 BYTE   PEND 
//  #10 //035   ----------------------------------------
Label_0117EE1A:
 BYTE   N06  En1  v088
 BYTE   N32  An2  v104
 BYTE   W12
 BYTE   N03  En1  v076
 BYTE   W12
 BYTE   N06  En1  v068
 BYTE   W06
 BYTE   N01  En1  v088
 BYTE   W06
 BYTE   N03  En1  v080
 BYTE   W06
 BYTE   N04  En1  v088
 BYTE   W06
 BYTE   En1  v100
 BYTE   N54  An2
 BYTE   W18
 BYTE   N02  En1  v068
 BYTE   W06
 BYTE   N05  En1  v088
 BYTE   W12
 BYTE   N06  En1  v108
 BYTE   W12
 BYTE   PEND 
//  #10 //036   ----------------------------------------
Label_0117EE47:
 BYTE   N04  En1  v068
 BYTE   W06
 BYTE   En1  v080
 BYTE   W06
 BYTE   N05  En1  v084
 BYTE   W12
 BYTE   En1  v096
 BYTE   N48  An2  v100
 BYTE   W12
 BYTE   N02  En1  v036
 BYTE   W06
 BYTE   N04  En1  v068
 BYTE   W06
 BYTE   N05
 BYTE   W12
 BYTE   En1  v060
 BYTE   W12
 BYTE   N06  En1  v052
 BYTE   W12
 BYTE   N05  En1  v080
 BYTE   W12
 BYTE   PEND 
//  #10 //037   ----------------------------------------
Label_0117EE6E:
 BYTE   N02  En1  v028
 BYTE   N32  An2  v100
 BYTE   W06
 BYTE   N03  En1  v068
 BYTE   W06
 BYTE   N05
 BYTE   W12
 BYTE   N03  En1  v088
 BYTE   W06
 BYTE   N04  En1  v076
 BYTE   W06
 BYTE   En1  v084
 BYTE   W06
 BYTE   N05  En1  v088
 BYTE   W06
 BYTE   N06  En1  v112
 BYTE   N54  An2  v096
 BYTE   W12
 BYTE   N03  En1  v068
 BYTE   W06
 BYTE   N04  En1  v080
 BYTE   W06
 BYTE   N07  En1  v092
 BYTE   W12
 BYTE   En1  v112
 BYTE   W12
 BYTE   PEND 
//  #10 //038   ----------------------------------------
Label_0117EEA1:
 BYTE   W06
 BYTE   N05  En1  v068
 BYTE   W06
 BYTE   N03  En1  v040
 BYTE   W12
 BYTE   N06  En1  v060
 BYTE   N56  An2  v100
 BYTE   W12
 BYTE   N03  En1  v068
 BYTE   W06
 BYTE   N13  En1  v064
 BYTE   W18
 BYTE   N06  En1  v108
 BYTE   W12
 BYTE   N03  En1  v068
 BYTE   W06
 BYTE   N05  En1  v072
 BYTE   W06
 BYTE   En1  v080
 BYTE   W12
 BYTE   PEND 
//  #10 //039   ----------------------------------------
Label_0117EEC9:
 BYTE   N06  En1  v088
 BYTE   N32  An2  v108
 BYTE   W12
 BYTE   N03  En1  v076
 BYTE   W12
 BYTE   N06  En1  v068
 BYTE   W06
 BYTE   N01  En1  v088
 BYTE   W06
 BYTE   N03  En1  v080
 BYTE   W06
 BYTE   N04  En1  v088
 BYTE   W06
 BYTE   N80  An2  v100
 BYTE   W48
 BYTE   PEND 
//  #10 //040   ----------------------------------------
 BYTE   W96
//  #10 //041   ----------------------------------------
 BYTE   W96
//  #10 //042   ----------------------------------------
 BYTE   W96
//  #10 //043   ----------------------------------------
 BYTE   W48
 BYTE   GoTo
  POIN2 Label_0117E9F2
//  #10 //044   ----------------------------------------
 BYTE   N07  En1  v088
 BYTE   N68  An2  v116
 BYTE   W12
 BYTE   N04  En1  v076
 BYTE   W12
 BYTE   N10  En1  v024
 BYTE   W12
 BYTE   N08  En1  v088
 BYTE   W12
//  #10 //045   ----------------------------------------
 BYTE   PATT
  POIN2 Label_0117EA05
//  #10 //046   ----------------------------------------
 BYTE   PATT
  POIN2 Label_0117EA27
//  #10 //047   ----------------------------------------
 BYTE   PATT
  POIN2 Label_0117EA05
//  #10 //048   ----------------------------------------
 BYTE   PATT
  POIN2 Label_0117EA50
//  #10 //049   ----------------------------------------
 BYTE   PATT
  POIN2 Label_0117EA74
//  #10 //050   ----------------------------------------
 BYTE   EOT
 BYTE   An2
 BYTE   W09
 BYTE   N05  En1  v084
 BYTE   W12
 BYTE   N07  En1  v104
 BYTE   W12
//  #10 //051   ----------------------------------------
 BYTE   PATT
  POIN2 Label_0117EA99
//  #10 //052   ----------------------------------------
 BYTE   PATT
  POIN2 Label_0117EABD
//  #10 //053   ----------------------------------------
 BYTE   EOT
 BYTE   An2
 BYTE   W11
 BYTE   N06  En1  v072
 BYTE   W12
 BYTE   N05  En1  v084
 BYTE   W12
 BYTE   N07  En1  v104
 BYTE   W12
//  #10 //054   ----------------------------------------
 BYTE   PATT
  POIN2 Label_0117EAE3
//  #10 //055   ----------------------------------------
 BYTE   PATT
  POIN2 Label_0117EAFF
//  #10 //056   ----------------------------------------
 BYTE   PATT
  POIN2 Label_0117EB22
//  #10 //057   ----------------------------------------
 BYTE   PATT
  POIN2 Label_0117EB40
//  #10 //058   ----------------------------------------
 BYTE   PATT
  POIN2 Label_0117EB71
//  #10 //059   ----------------------------------------
 BYTE   PATT
  POIN2 Label_0117EB8A
//  #10 //060   ----------------------------------------
 BYTE   PATT
  POIN2 Label_0117EBB5
//  #10 //061   ----------------------------------------
 BYTE   PATT
  POIN2 Label_0117EBCE
//  #10 //062   ----------------------------------------
 BYTE   PATT
  POIN2 Label_0117EBF9
//  #10 //063   ----------------------------------------
 BYTE   EOT
 BYTE   An2
 BYTE   W03
 BYTE   N05  En1  v060
 BYTE   W12
 BYTE   N07  En1  v088
 BYTE   W12
//  #10 //064   ----------------------------------------
 BYTE   PATT
  POIN2 Label_0117EC1F
//  #10 //065   ----------------------------------------
 BYTE   PATT
  POIN2 Label_0117EC44
//  #10 //066   ----------------------------------------
 BYTE   PATT
  POIN2 Label_0117EC66
//  #10 //067   ----------------------------------------
 BYTE   PATT
  POIN2 Label_0117EC8F
//  #10 //068   ----------------------------------------
 BYTE   EOT
 BYTE   An2
 BYTE   W09
//  #10 //069   ----------------------------------------
 BYTE   PATT
  POIN2 Label_0117EC1F
//  #10 //070   ----------------------------------------
 BYTE   PATT
  POIN2 Label_0117EC44
//  #10 //071   ----------------------------------------
 BYTE   PATT
  POIN2 Label_0117ECBF
//  #10 //072   ----------------------------------------
 BYTE   PATT
  POIN2 Label_0117ECE8
//  #10 //073   ----------------------------------------
 BYTE   PATT
  POIN2 Label_0117EC1F
//  #10 //074   ----------------------------------------
 BYTE   PATT
  POIN2 Label_0117EC44
//  #10 //075   ----------------------------------------
 BYTE   PATT
  POIN2 Label_0117ED15
//  #10 //076   ----------------------------------------
 BYTE   PATT
  POIN2 Label_0117ECE8
//  #10 //077   ----------------------------------------
 BYTE   PATT
  POIN2 Label_0117EC1F
//  #10 //078   ----------------------------------------
 BYTE   PATT
  POIN2 Label_0117ED48
//  #10 //079   ----------------------------------------
 BYTE   EOT
 BYTE   An2
 BYTE   N06  En1  v060
 BYTE   W12
 BYTE   En1  v048
 BYTE   W12
 BYTE   N05  En1  v056
 BYTE   W12
 BYTE   N12  En1  v080
 BYTE   W12
//  #10 //080   ----------------------------------------
 BYTE   PATT
  POIN2 Label_0117ED6D
//  #10 //081   ----------------------------------------
 BYTE   PATT
  POIN2 Label_0117ED98
//  #10 //082   ----------------------------------------
 BYTE   PATT
  POIN2 Label_0117EDBF
//  #10 //083   ----------------------------------------
 BYTE   PATT
  POIN2 Label_0117EDF2
//  #10 //084   ----------------------------------------
 BYTE   PATT
  POIN2 Label_0117EE1A
//  #10 //085   ----------------------------------------
 BYTE   PATT
  POIN2 Label_0117EE47
//  #10 //086   ----------------------------------------
 BYTE   PATT
  POIN2 Label_0117EE6E
//  #10 //087   ----------------------------------------
 BYTE   PATT
  POIN2 Label_0117EEA1
//  #10 //088   ----------------------------------------
 BYTE   PATT
  POIN2 Label_0117EEC9
//  #10 //089   ----------------------------------------
 BYTE   W96
//  #10 //090   ----------------------------------------
 BYTE   W96
//  #10 //091   ----------------------------------------
 BYTE   W96
//  #10 //092   ----------------------------------------
 BYTE   W48
 BYTE   FINE

//**************** Track 11 (Midi-Chn.10) ****************//

song25_011:
//  #11 //000   ----------------------------------------
 BYTE   KEYSH   song25_key+0
 BYTE   VOICE   56
 BYTE   MODT 0
 BYTE   LFOS 44
 BYTE   VOL   58*song25_mvl/mxv
 BYTE   PAN   c_v+11
 BYTE   W48
Label_562EA1:
 BYTE   W48
//  #11 //001   ----------------------------------------
 BYTE   W96
//  #11 //002   ----------------------------------------
 BYTE   W96
//  #11 //003   ----------------------------------------
 BYTE   W96
//  #11 //004   ----------------------------------------
 BYTE   W96
//  #11 //005   ----------------------------------------
 BYTE   W96
//  #11 //006   ----------------------------------------
 BYTE   W96
//  #11 //007   ----------------------------------------
 BYTE   W96
//  #11 //008   ----------------------------------------
 BYTE   W96
//  #11 //009   ----------------------------------------
 BYTE   W96
//  #11 //010   ----------------------------------------
 BYTE   W96
//  #11 //011   ----------------------------------------
 BYTE   W96
//  #11 //012   ----------------------------------------
 BYTE   W96
//  #11 //013   ----------------------------------------
 BYTE   W96
//  #11 //014   ----------------------------------------
 BYTE   W96
//  #11 //015   ----------------------------------------
 BYTE   W96
//  #11 //016   ----------------------------------------
 BYTE   W96
//  #11 //017   ----------------------------------------
 BYTE   W96
//  #11 //018   ----------------------------------------
 BYTE   W96
//  #11 //019   ----------------------------------------
 BYTE   W96
//  #11 //020   ----------------------------------------
 BYTE   W96
//  #11 //021   ----------------------------------------
 BYTE   W96
//  #11 //022   ----------------------------------------
 BYTE   W96
//  #11 //023   ----------------------------------------
 BYTE   W96
//  #11 //024   ----------------------------------------
 BYTE   W96
//  #11 //025   ----------------------------------------
 BYTE   W96
//  #11 //026   ----------------------------------------
 BYTE   W96
//  #11 //027   ----------------------------------------
 BYTE   W48
 BYTE   N48  An2  v068
 BYTE   W48
//  #11 //028   ----------------------------------------
 BYTE   Cn3
 BYTE   W48
 BYTE   En3  v092
 BYTE   W48
//  #11 //029   ----------------------------------------
 BYTE   An3  v096
 BYTE   W48
 BYTE   Bn3  v108
 BYTE   W48
//  #11 //030   ----------------------------------------
 BYTE   Cn4  v104
 BYTE   W48
 BYTE   Dn4  v127
 BYTE   W48
//  #11 //031   ----------------------------------------
 BYTE   En4  v116
 BYTE   W96
//  #11 //032   ----------------------------------------
 BYTE   W96
//  #11 //033   ----------------------------------------
 BYTE   W96
//  #11 //034   ----------------------------------------
 BYTE   W96
//  #11 //035   ----------------------------------------
 BYTE   W96
//  #11 //036   ----------------------------------------
 BYTE   W96
//  #11 //037   ----------------------------------------
 BYTE   W96
//  #11 //038   ----------------------------------------
 BYTE   W96
//  #11 //039   ----------------------------------------
 BYTE   W96
//  #11 //040   ----------------------------------------
 BYTE   W96
//  #11 //041   ----------------------------------------
 BYTE   W96
//  #11 //042   ----------------------------------------
 BYTE   W96
//  #11 //043   ----------------------------------------
 BYTE   W48
 BYTE   GoTo
  POIN2 Label_562EA1
//  #11 //044   ----------------------------------------
 BYTE   W48
 BYTE   W96
//  #11 //045   ----------------------------------------
 BYTE   W96
//  #11 //046   ----------------------------------------
 BYTE   W96
//  #11 //047   ----------------------------------------
 BYTE   W96
//  #11 //048   ----------------------------------------
 BYTE   W96
//  #11 //049   ----------------------------------------
 BYTE   W96
//  #11 //050   ----------------------------------------
 BYTE   W96
//  #11 //051   ----------------------------------------
 BYTE   W96
//  #11 //052   ----------------------------------------
 BYTE   W96
//  #11 //053   ----------------------------------------
 BYTE   W96
//  #11 //054   ----------------------------------------
 BYTE   W96
//  #11 //055   ----------------------------------------
 BYTE   W96
//  #11 //056   ----------------------------------------
 BYTE   W96
//  #11 //057   ----------------------------------------
 BYTE   W96
//  #11 //058   ----------------------------------------
 BYTE   W96
//  #11 //059   ----------------------------------------
 BYTE   W96
//  #11 //060   ----------------------------------------
 BYTE   W96
//  #11 //061   ----------------------------------------
 BYTE   W96
//  #11 //062   ----------------------------------------
 BYTE   W96
//  #11 //063   ----------------------------------------
 BYTE   W96
//  #11 //064   ----------------------------------------
 BYTE   W96
//  #11 //065   ----------------------------------------
 BYTE   W96
//  #11 //066   ----------------------------------------
 BYTE   W96
//  #11 //067   ----------------------------------------
 BYTE   W96
//  #11 //068   ----------------------------------------
 BYTE   W96
//  #11 //069   ----------------------------------------
 BYTE   W96
//  #11 //070   ----------------------------------------
 BYTE   W48
 BYTE   W02
 BYTE   N44  An2  v096
 BYTE   W44
 BYTE   W02
//  #11 //071   ----------------------------------------
 BYTE   N48  Cn3  v088
 BYTE   W48
 BYTE   En3  v100
 BYTE   W48
//  #11 //072   ----------------------------------------
 BYTE   N44  An3
 BYTE   W48
 BYTE   Bn3
 BYTE   W48
//  #11 //073   ----------------------------------------
 BYTE   N48  Cn4  v112
 BYTE   W48
 BYTE   Dn4
 BYTE   W48
//  #11 //074   ----------------------------------------
 BYTE   N44  En4  v108
 BYTE   W96
//  #11 //075   ----------------------------------------
 BYTE   W96
//  #11 //076   ----------------------------------------
 BYTE   W96
//  #11 //077   ----------------------------------------
 BYTE   W96
//  #11 //078   ----------------------------------------
 BYTE   W96
//  #11 //079   ----------------------------------------
 BYTE   W96
//  #11 //080   ----------------------------------------
 BYTE   W96
//  #11 //081   ----------------------------------------
 BYTE   W96
//  #11 //082   ----------------------------------------
 BYTE   W96
//  #11 //083   ----------------------------------------
 BYTE   W96
//  #11 //084   ----------------------------------------
 BYTE   W96
//  #11 //085   ----------------------------------------
 BYTE   W96
//  #11 //086   ----------------------------------------
 BYTE   W48
 BYTE   FINE

//******************************************************//
	ALIGN 4

song25:
	BYTE	11	// NumTrks
	BYTE	0	// NumBlks
	BYTE	song25_pri	// Priority
	BYTE	song25_rev	// Reverb.
    
	POIN2	song25_grp
    
	POIN2	song25_001
	POIN2	song25_002
	POIN2	song25_003
	POIN2	song25_004
	POIN2	song25_005
	POIN2	song25_006
	POIN2	song25_007
	POIN2	song25_008
	POIN2	song25_009
	POIN2	song25_010
	POIN2	song25_011

	
