//Event file generated from Sappy .s format.
	#include "MPlayDef.event"

	#define	song02_grp  voicegroup000
	#define	song02_pri  0
	#define	song02_rev  0
	#define	song02_mvl  127
	#define	song02_key  0
	#define	song02_tbs  1
	#define	song02_exg  0
	#define	song02_cmp  1

	// .rodata
	//	song02
	ALIGN 4


//**************** Track 1 (Midi-Chn.0) ****************//

song02_001:
//  #01 //000   ----------------------------------------
 BYTE   VOL   35*song02_mvl/mxv
 BYTE   KEYSH   song02_key+0
Label_547724:
 BYTE   TEMPO   74*song02_tbs/2
 BYTE   VOICE   48
 BYTE   MODT 0
 BYTE   LFOS 44
 BYTE   W96
//  #01 //001   ----------------------------------------
 BYTE   W96
//  #01 //002   ----------------------------------------
 BYTE   W96
//  #01 //003   ----------------------------------------
 BYTE   W84
 BYTE   N06  En3  v088
 BYTE   W06
 BYTE   N18  Bn3
 BYTE   W06
//  #01 //004   ----------------------------------------
Label_547737:
 BYTE   W12
 BYTE   N06  An3  v088
 BYTE   W06
 BYTE   N12  En3
 BYTE   W12
 BYTE   N06  Cs3
 BYTE   W06
 BYTE   En3
 BYTE   W06
 BYTE   N18  Bn3
 BYTE   W18
 BYTE   N06  An3
 BYTE   W06
 BYTE   N12  En3
 BYTE   W12
 BYTE   N06  Cs3
 BYTE   W06
 BYTE   En3
 BYTE   W06
 BYTE   N18  Bn3
 BYTE   W06
 BYTE   PEND 
//  #01 //005   ----------------------------------------
Label_547756:
 BYTE   W12
 BYTE   N06  An3  v088
 BYTE   W06
 BYTE   N18  Cs4
 BYTE   W18
 BYTE   N06  Bn3
 BYTE   W06
 BYTE   N18  An3
 BYTE   W18
 BYTE   N06  Bn3
 BYTE   W06
 BYTE   N12  En3
 BYTE   W12
 BYTE   N06  Cs3
 BYTE   W06
 BYTE   En3
 BYTE   W06
 BYTE   N18  Bn3
 BYTE   W06
 BYTE   PEND 
//  #01 //006   ----------------------------------------
Label_547773:
 BYTE   W12
 BYTE   N06  An3  v088
 BYTE   W06
 BYTE   N18  En3
 BYTE   W18
 BYTE   N06  Cs3
 BYTE   W06
 BYTE   N18  Bn3
 BYTE   W18
 BYTE   N06  An3
 BYTE   W06
 BYTE   N18  En3
 BYTE   W18
 BYTE   N06  Cs3
 BYTE   W06
 BYTE   N18  Bn3
 BYTE   W06
 BYTE   PEND 
//  #01 //007   ----------------------------------------
Label_54778E:
 BYTE   W12
 BYTE   N06  An3  v088
 BYTE   W06
 BYTE   N18  Dn4
 BYTE   W18
 BYTE   N06  Cs4
 BYTE   W06
 BYTE   N18  Bn3
 BYTE   W18
 BYTE   N06  An3
 BYTE   W06
 BYTE   N18  En3
 BYTE   W18
 BYTE   N06
 BYTE   W06
 BYTE   N18  Bn3
 BYTE   W06
 BYTE   PEND 
//  #01 //008   ----------------------------------------
 BYTE   PATT
  POIN2 Label_547737
//  #01 //009   ----------------------------------------
 BYTE   PATT
  POIN2 Label_547756
//  #01 //010   ----------------------------------------
 BYTE   PATT
  POIN2 Label_547773
//  #01 //011   ----------------------------------------
 BYTE   PATT
  POIN2 Label_54778E
//  #01 //012   ----------------------------------------
 BYTE   PATT
  POIN2 Label_547737
//  #01 //013   ----------------------------------------
 BYTE   PATT
  POIN2 Label_547756
//  #01 //014   ----------------------------------------
 BYTE   PATT
  POIN2 Label_547773
//  #01 //015   ----------------------------------------
 BYTE   W12
 BYTE   N06  An3  v088
 BYTE   W06
 BYTE   N18  Dn4
 BYTE   W18
 BYTE   N06  Cs4
 BYTE   W06
 BYTE   N18  Bn3
 BYTE   W18
 BYTE   N06  An3
 BYTE   W06
 BYTE   N30  En3
 BYTE   W30
//  #01 //016   ----------------------------------------
 BYTE   W96
//  #01 //017   ----------------------------------------
 BYTE   W96
//  #01 //018   ----------------------------------------
 BYTE   W96
//  #01 //019   ----------------------------------------
 BYTE   W96
//  #01 //020   ----------------------------------------
 BYTE   W96
//  #01 //021   ----------------------------------------
 BYTE   W96
//  #01 //022   ----------------------------------------
 BYTE   W96
//  #01 //023   ----------------------------------------
 BYTE   W96
//  #01 //024   ----------------------------------------
 BYTE   W96
//  #01 //025   ----------------------------------------
 BYTE   W96
//  #01 //026   ----------------------------------------
 BYTE   W96
//  #01 //027   ----------------------------------------
 BYTE   W96
//  #01 //028   ----------------------------------------
 BYTE   W96
//  #01 //029   ----------------------------------------
 BYTE   W96
//  #01 //030   ----------------------------------------
 BYTE   W96
//  #01 //031   ----------------------------------------
 BYTE   W96
//  #01 //032   ----------------------------------------
 BYTE   W96
//  #01 //033   ----------------------------------------
 BYTE   W96
//  #01 //034   ----------------------------------------
 BYTE   W96
//  #01 //035   ----------------------------------------
 BYTE   W96
//  #01 //036   ----------------------------------------
Label_5477F3:
 BYTE   N48  Dn1  v088
 BYTE   N48  An1
 BYTE   W48
 BYTE   En1
 BYTE   N48  Bn1
 BYTE   W48
 BYTE   PEND 
//  #01 //037   ----------------------------------------
 BYTE   N96  Fs1
 BYTE   N96  Cs2
 BYTE   W96
//  #01 //038   ----------------------------------------
Label_547803:
 BYTE   N48  Bn0  v088
 BYTE   N48  Fs1
 BYTE   W48
 BYTE   Cs1
 BYTE   N48  Gs1
 BYTE   W48
 BYTE   PEND 
//  #01 //039   ----------------------------------------
 BYTE   N96  Fs1
 BYTE   N96  Cs2
 BYTE   W96
//  #01 //040   ----------------------------------------
 BYTE   W96
//  #01 //041   ----------------------------------------
 BYTE   W96
//  #01 //042   ----------------------------------------
 BYTE   W96
//  #01 //043   ----------------------------------------
 BYTE   W96
//  #01 //044   ----------------------------------------
 BYTE   W96
//  #01 //045   ----------------------------------------
 BYTE   W96
//  #01 //046   ----------------------------------------
 BYTE   W96
//  #01 //047   ----------------------------------------
 BYTE   W96
//  #01 //048   ----------------------------------------
 BYTE   W96
//  #01 //049   ----------------------------------------
 BYTE   W96
//  #01 //050   ----------------------------------------
 BYTE   W96
//  #01 //051   ----------------------------------------
 BYTE   W96
//  #01 //052   ----------------------------------------
Label_54781F:
 BYTE   N06  Fs2  v088
 BYTE   W06
 BYTE   N06
 BYTE   W18
 BYTE   N06
 BYTE   W18
 BYTE   N06
 BYTE   W12
 BYTE   N06
 BYTE   W18
 BYTE   N06
 BYTE   W06
 BYTE   N06
 BYTE   W18
 BYTE   PEND 
//  #01 //053   ----------------------------------------
Label_547830:
 BYTE   N06  Fs2  v088
 BYTE   W06
 BYTE   N06
 BYTE   W18
 BYTE   N06
 BYTE   W18
 BYTE   N06
 BYTE   W18
 BYTE   N06
 BYTE   W12
 BYTE   N06
 BYTE   W06
 BYTE   N06
 BYTE   W18
 BYTE   PEND 
//  #01 //054   ----------------------------------------
 BYTE   PATT
  POIN2 Label_54781F
//  #01 //055   ----------------------------------------
 BYTE   PATT
  POIN2 Label_547830
//  #01 //056   ----------------------------------------
 BYTE   W96
//  #01 //057   ----------------------------------------
 BYTE   W96
//  #01 //058   ----------------------------------------
 BYTE   W96
//  #01 //059   ----------------------------------------
 BYTE   W96
//  #01 //060   ----------------------------------------
 BYTE   W96
//  #01 //061   ----------------------------------------
 BYTE   W96
//  #01 //062   ----------------------------------------
 BYTE   W96
//  #01 //063   ----------------------------------------
 BYTE   W96
//  #01 //064   ----------------------------------------
 BYTE   W96
//  #01 //065   ----------------------------------------
 BYTE   W96
//  #01 //066   ----------------------------------------
 BYTE   W96
//  #01 //067   ----------------------------------------
 BYTE   W96
//  #01 //068   ----------------------------------------
 BYTE   W96
//  #01 //069   ----------------------------------------
 BYTE   W96
//  #01 //070   ----------------------------------------
 BYTE   W96
//  #01 //071   ----------------------------------------
 BYTE   W96
//  #01 //072   ----------------------------------------
 BYTE   W96
//  #01 //073   ----------------------------------------
 BYTE   W96
//  #01 //074   ----------------------------------------
 BYTE   PATT
  POIN2 Label_5477F3
//  #01 //075   ----------------------------------------
 BYTE   N48  Fs1  v088
 BYTE   N48  Cs2
 BYTE   W48
 BYTE   Cs1
 BYTE   N48  Gs1
 BYTE   W48
//  #01 //076   ----------------------------------------
 BYTE   PATT
  POIN2 Label_5477F3
//  #01 //077   ----------------------------------------
 BYTE   N48  Fs1  v088
 BYTE   N48  Cs2
 BYTE   W48
 BYTE   N24  Fs1
 BYTE   N24  Cs2
 BYTE   W24
 BYTE   Cs1
 BYTE   N24  Gs1
 BYTE   W24
//  #01 //078   ----------------------------------------
 BYTE   PATT
  POIN2 Label_5477F3
//  #01 //079   ----------------------------------------
 BYTE   N96  Fs1  v088
 BYTE   N96  Cs2
 BYTE   W96
//  #01 //080   ----------------------------------------
 BYTE   PATT
  POIN2 Label_547803
//  #01 //081   ----------------------------------------
 BYTE   N96  Fs1  v088
 BYTE   N96  Cs2
 BYTE   W96
//  #01 //082   ----------------------------------------
Label_547896:
 BYTE   N06  Dn2  v088
 BYTE   W06
 BYTE   N06
 BYTE   W06
 BYTE   N06
 BYTE   W06
 BYTE   N06
 BYTE   W06
 BYTE   N06
 BYTE   W06
 BYTE   N06
 BYTE   W06
 BYTE   N06
 BYTE   W06
 BYTE   N06
 BYTE   W06
 BYTE   En2
 BYTE   W06
 BYTE   N06
 BYTE   W06
 BYTE   N06
 BYTE   W06
 BYTE   N06
 BYTE   W06
 BYTE   N06
 BYTE   W06
 BYTE   N06
 BYTE   W06
 BYTE   N06
 BYTE   W06
 BYTE   N06
 BYTE   W06
 BYTE   PEND 
//  #01 //083   ----------------------------------------
Label_5478B9:
 BYTE   N06  Fs2  v088
 BYTE   W06
 BYTE   N06
 BYTE   W06
 BYTE   N06
 BYTE   W06
 BYTE   N06
 BYTE   W06
 BYTE   N06
 BYTE   W06
 BYTE   N06
 BYTE   W06
 BYTE   N06
 BYTE   W06
 BYTE   N06
 BYTE   W06
 BYTE   N06
 BYTE   W06
 BYTE   N06
 BYTE   W06
 BYTE   N06
 BYTE   W06
 BYTE   N06
 BYTE   W06
 BYTE   Cs2
 BYTE   W06
 BYTE   N06
 BYTE   W06
 BYTE   N06
 BYTE   W06
 BYTE   N06
 BYTE   W06
 BYTE   PEND 
//  #01 //084   ----------------------------------------
 BYTE   PATT
  POIN2 Label_547896
//  #01 //085   ----------------------------------------
 BYTE   PATT
  POIN2 Label_5478B9
//  #01 //086   ----------------------------------------
 BYTE   PATT
  POIN2 Label_547896
//  #01 //087   ----------------------------------------
 BYTE   N06  Fs2  v088
 BYTE   W06
 BYTE   N06
 BYTE   W06
 BYTE   N06
 BYTE   W06
 BYTE   N06
 BYTE   W06
 BYTE   N06
 BYTE   W06
 BYTE   N06
 BYTE   W06
 BYTE   N06
 BYTE   W06
 BYTE   N06
 BYTE   W06
 BYTE   N06
 BYTE   W06
 BYTE   N06
 BYTE   W06
 BYTE   N06
 BYTE   W06
 BYTE   N06
 BYTE   W06
 BYTE   N06
 BYTE   W06
 BYTE   N06
 BYTE   W06
 BYTE   N06
 BYTE   W06
 BYTE   N06
 BYTE   W06
//  #01 //088   ----------------------------------------
 BYTE   Dn2
 BYTE   W06
 BYTE   N06
 BYTE   W06
 BYTE   N06
 BYTE   W06
 BYTE   N06
 BYTE   W06
 BYTE   N06
 BYTE   W06
 BYTE   N06
 BYTE   W06
 BYTE   N06
 BYTE   W06
 BYTE   N06
 BYTE   W06
 BYTE   Cs2
 BYTE   W06
 BYTE   N06
 BYTE   W06
 BYTE   N06
 BYTE   W06
 BYTE   N06
 BYTE   W06
 BYTE   N06
 BYTE   W06
 BYTE   N06
 BYTE   W06
 BYTE   N06
 BYTE   W06
 BYTE   N06
 BYTE   W06
//  #01 //089   ----------------------------------------
 BYTE   W96
//  #01 //090   ----------------------------------------
 BYTE   W96
//  #01 //091   ----------------------------------------
 BYTE   W96
//  #01 //092   ----------------------------------------
 BYTE   W96
//  #01 //093   ----------------------------------------
 BYTE   W60
 BYTE   En3
 BYTE   W06
 BYTE   N12  Fs3
 BYTE   W12
 BYTE   N06  An3
 BYTE   W06
 BYTE   En3
 BYTE   W06
 BYTE   N24  Bn3
 BYTE   W06
//  #01 //094   ----------------------------------------
Label_54793F:
 BYTE   W18
 BYTE   N12  Fs3  v088
 BYTE   W12
 BYTE   N06  An3
 BYTE   W06
 BYTE   En3
 BYTE   W06
 BYTE   N24  Bn3
 BYTE   W24
 BYTE   N12  Fs3
 BYTE   W12
 BYTE   N06  An3
 BYTE   W06
 BYTE   En3
 BYTE   W06
 BYTE   N24  Bn3
 BYTE   W06
 BYTE   PEND 
//  #01 //095   ----------------------------------------
 BYTE   PATT
  POIN2 Label_54793F
//  #01 //096   ----------------------------------------
 BYTE   PATT
  POIN2 Label_54793F
//  #01 //097   ----------------------------------------
 BYTE   W18
 BYTE   N12  Fs3  v088
 BYTE   W12
 BYTE   N06  An3
 BYTE   W06
 BYTE   En3
 BYTE   W06
 BYTE   TIE  Bn3
 BYTE   W48
 BYTE   EOT
 BYTE   GoTo
  POIN2 Label_547724
//  #01 //098   ----------------------------------------
 BYTE   W06
 BYTE   W96
//  #01 //099   ----------------------------------------
 BYTE   W96
//  #01 //100   ----------------------------------------
 BYTE   EOT
 BYTE   Bn3
 BYTE   FINE

//**************** Track 2 (Midi-Chn.1) ****************//

song02_002:
//  #02 //000   ----------------------------------------
 BYTE   VOL   35*song02_mvl/mxv
 BYTE   KEYSH   song02_key+0
Label_5466C4:
 BYTE   VOICE   30
 BYTE   MODT 0
 BYTE   LFOS 44
 BYTE   W96
//  #02 //001   ----------------------------------------
 BYTE   W96
//  #02 //002   ----------------------------------------
 BYTE   W96
//  #02 //003   ----------------------------------------
 BYTE   W96
//  #02 //004   ----------------------------------------
Label_5466CE:
 BYTE   N12  Fs1  v088
 BYTE   W12
 BYTE   N06  Cs2
 BYTE   W06
 BYTE   N18  An2
 BYTE   W18
 BYTE   N06  Cs2
 BYTE   W06
 BYTE   N18  An2
 BYTE   W18
 BYTE   N06  Cs2
 BYTE   W06
 BYTE   N12  Bn2
 BYTE   W12
 BYTE   N18  An2
 BYTE   W18
 BYTE   PEND 
//  #02 //005   ----------------------------------------
Label_5466E8:
 BYTE   N12  Dn2  v088
 BYTE   W12
 BYTE   N06
 BYTE   W06
 BYTE   N18  An2
 BYTE   W18
 BYTE   N06  Dn2
 BYTE   W06
 BYTE   N18  An2
 BYTE   W18
 BYTE   N06  Dn2
 BYTE   W06
 BYTE   N18  An2
 BYTE   W18
 BYTE   N12  Dn2
 BYTE   W12
 BYTE   PEND 
//  #02 //006   ----------------------------------------
Label_546701:
 BYTE   N12  An1  v088
 BYTE   W12
 BYTE   N06  En2
 BYTE   W06
 BYTE   N18  An2
 BYTE   W18
 BYTE   N06  En2
 BYTE   W06
 BYTE   N18  An2
 BYTE   W18
 BYTE   N06  En2
 BYTE   W06
 BYTE   N18  An2
 BYTE   W18
 BYTE   N06  En2
 BYTE   W06
 BYTE   An2
 BYTE   W06
 BYTE   PEND 
//  #02 //007   ----------------------------------------
Label_54671D:
 BYTE   N12  En1  v088
 BYTE   W12
 BYTE   N06  En2
 BYTE   W06
 BYTE   N18  An2
 BYTE   W18
 BYTE   N06  En2
 BYTE   W06
 BYTE   N18  An2
 BYTE   W18
 BYTE   N06  En2
 BYTE   W06
 BYTE   N18  An2
 BYTE   W18
 BYTE   N06  En2
 BYTE   W06
 BYTE   An2
 BYTE   W06
 BYTE   PEND 
//  #02 //008   ----------------------------------------
 BYTE   PATT
  POIN2 Label_5466CE
//  #02 //009   ----------------------------------------
 BYTE   PATT
  POIN2 Label_5466E8
//  #02 //010   ----------------------------------------
 BYTE   PATT
  POIN2 Label_546701
//  #02 //011   ----------------------------------------
 BYTE   PATT
  POIN2 Label_54671D
//  #02 //012   ----------------------------------------
 BYTE   N06  Fs2  v088
 BYTE   W12
 BYTE   N06
 BYTE   W12
 BYTE   N06
 BYTE   W06
 BYTE   N06
 BYTE   W12
 BYTE   N06
 BYTE   W18
 BYTE   N06
 BYTE   W36
//  #02 //013   ----------------------------------------
 BYTE   W24
 BYTE   Dn2
 BYTE   W18
 BYTE   N06
 BYTE   W24
 BYTE   N06
 BYTE   W30
//  #02 //014   ----------------------------------------
 BYTE   W96
//  #02 //015   ----------------------------------------
 BYTE   En2
 BYTE   W12
 BYTE   N06
 BYTE   W12
 BYTE   N06
 BYTE   W06
 BYTE   N06
 BYTE   W12
 BYTE   N06
 BYTE   W18
 BYTE   N06
 BYTE   W36
//  #02 //016   ----------------------------------------
 BYTE   W96
//  #02 //017   ----------------------------------------
 BYTE   W96
//  #02 //018   ----------------------------------------
 BYTE   W96
//  #02 //019   ----------------------------------------
 BYTE   W96
//  #02 //020   ----------------------------------------
 BYTE   W96
//  #02 //021   ----------------------------------------
 BYTE   W96
//  #02 //022   ----------------------------------------
 BYTE   W96
//  #02 //023   ----------------------------------------
 BYTE   W96
//  #02 //024   ----------------------------------------
 BYTE   W96
//  #02 //025   ----------------------------------------
 BYTE   W96
//  #02 //026   ----------------------------------------
 BYTE   W96
//  #02 //027   ----------------------------------------
 BYTE   W96
//  #02 //028   ----------------------------------------
 BYTE   W96
//  #02 //029   ----------------------------------------
 BYTE   W96
//  #02 //030   ----------------------------------------
 BYTE   W96
//  #02 //031   ----------------------------------------
 BYTE   W96
//  #02 //032   ----------------------------------------
Label_54677F:
 BYTE   N06  Dn2  v088
 BYTE   W06
 BYTE   N06
 BYTE   W06
 BYTE   N06
 BYTE   W06
 BYTE   N06
 BYTE   W06
 BYTE   N06
 BYTE   W06
 BYTE   N06
 BYTE   W06
 BYTE   N06
 BYTE   W06
 BYTE   N06
 BYTE   W06
 BYTE   En2
 BYTE   W06
 BYTE   N06
 BYTE   W06
 BYTE   N06
 BYTE   W06
 BYTE   N06
 BYTE   W06
 BYTE   N06
 BYTE   W06
 BYTE   N06
 BYTE   W06
 BYTE   N06
 BYTE   W06
 BYTE   N06
 BYTE   W06
 BYTE   PEND 
//  #02 //033   ----------------------------------------
Label_5467A2:
 BYTE   N06  Fs2  v088
 BYTE   W06
 BYTE   N06
 BYTE   W06
 BYTE   N06
 BYTE   W06
 BYTE   N06
 BYTE   W06
 BYTE   N06
 BYTE   W06
 BYTE   N06
 BYTE   W06
 BYTE   N06
 BYTE   W06
 BYTE   N06
 BYTE   W06
 BYTE   Cs2
 BYTE   W06
 BYTE   N06
 BYTE   W06
 BYTE   N06
 BYTE   W06
 BYTE   N06
 BYTE   W06
 BYTE   N06
 BYTE   W06
 BYTE   N06
 BYTE   W06
 BYTE   N06
 BYTE   W06
 BYTE   N06
 BYTE   W06
 BYTE   PEND 
//  #02 //034   ----------------------------------------
 BYTE   PATT
  POIN2 Label_54677F
//  #02 //035   ----------------------------------------
Label_5467CA:
 BYTE   N06  Fs2  v088
 BYTE   W06
 BYTE   N06
 BYTE   W06
 BYTE   N06
 BYTE   W06
 BYTE   N06
 BYTE   W06
 BYTE   N06
 BYTE   W06
 BYTE   N06
 BYTE   W06
 BYTE   N06
 BYTE   W06
 BYTE   N06
 BYTE   W06
 BYTE   Fs1
 BYTE   W06
 BYTE   N06
 BYTE   W06
 BYTE   N06
 BYTE   W06
 BYTE   N06
 BYTE   W06
 BYTE   Cs2
 BYTE   W06
 BYTE   N06
 BYTE   W06
 BYTE   N06
 BYTE   W06
 BYTE   N06
 BYTE   W06
 BYTE   PEND 
//  #02 //036   ----------------------------------------
 BYTE   PATT
  POIN2 Label_54677F
//  #02 //037   ----------------------------------------
Label_5467F2:
 BYTE   N06  Fs2  v088
 BYTE   W06
 BYTE   N06
 BYTE   W06
 BYTE   N06
 BYTE   W06
 BYTE   N06
 BYTE   W06
 BYTE   N06
 BYTE   W06
 BYTE   N06
 BYTE   W06
 BYTE   N06
 BYTE   W06
 BYTE   N06
 BYTE   W06
 BYTE   N06
 BYTE   W06
 BYTE   N06
 BYTE   W06
 BYTE   N06
 BYTE   W06
 BYTE   N06
 BYTE   W06
 BYTE   N06
 BYTE   W06
 BYTE   N06
 BYTE   W06
 BYTE   N06
 BYTE   W06
 BYTE   N06
 BYTE   W06
 BYTE   PEND 
//  #02 //038   ----------------------------------------
Label_546815:
 BYTE   N06  Bn1  v088
 BYTE   W06
 BYTE   N06
 BYTE   W06
 BYTE   N06
 BYTE   W06
 BYTE   N06
 BYTE   W06
 BYTE   N06
 BYTE   W06
 BYTE   N06
 BYTE   W06
 BYTE   N06
 BYTE   W06
 BYTE   N06
 BYTE   W06
 BYTE   Cs2
 BYTE   W06
 BYTE   N06
 BYTE   W06
 BYTE   N06
 BYTE   W06
 BYTE   N06
 BYTE   W06
 BYTE   N06
 BYTE   W06
 BYTE   N06
 BYTE   W06
 BYTE   N06
 BYTE   W06
 BYTE   N06
 BYTE   W06
 BYTE   PEND 
//  #02 //039   ----------------------------------------
 BYTE   PATT
  POIN2 Label_5467F2
//  #02 //040   ----------------------------------------
 BYTE   W96
//  #02 //041   ----------------------------------------
 BYTE   W96
//  #02 //042   ----------------------------------------
 BYTE   W96
//  #02 //043   ----------------------------------------
 BYTE   W96
//  #02 //044   ----------------------------------------
 BYTE   W96
//  #02 //045   ----------------------------------------
 BYTE   W96
//  #02 //046   ----------------------------------------
 BYTE   W96
//  #02 //047   ----------------------------------------
 BYTE   W96
//  #02 //048   ----------------------------------------
 BYTE   W96
//  #02 //049   ----------------------------------------
 BYTE   W96
//  #02 //050   ----------------------------------------
 BYTE   W96
//  #02 //051   ----------------------------------------
 BYTE   W96
//  #02 //052   ----------------------------------------
Label_546849:
 BYTE   N06  Fs1  v088
 BYTE   W06
 BYTE   N06
 BYTE   W06
 BYTE   N06
 BYTE   W06
 BYTE   N06
 BYTE   W06
 BYTE   N06
 BYTE   W06
 BYTE   N06
 BYTE   W06
 BYTE   N06
 BYTE   W06
 BYTE   N06
 BYTE   W06
 BYTE   N06
 BYTE   W06
 BYTE   N06
 BYTE   W06
 BYTE   N06
 BYTE   W06
 BYTE   N06
 BYTE   W06
 BYTE   N06
 BYTE   W06
 BYTE   N06
 BYTE   W06
 BYTE   N06
 BYTE   W06
 BYTE   N06
 BYTE   W06
 BYTE   PEND 
//  #02 //053   ----------------------------------------
 BYTE   PATT
  POIN2 Label_546849
//  #02 //054   ----------------------------------------
 BYTE   N06  Dn1  v088
 BYTE   W06
 BYTE   N06
 BYTE   W06
 BYTE   N06
 BYTE   W06
 BYTE   N06
 BYTE   W06
 BYTE   N06
 BYTE   W06
 BYTE   N06
 BYTE   W06
 BYTE   N06
 BYTE   W06
 BYTE   N06
 BYTE   W06
 BYTE   N06
 BYTE   W06
 BYTE   N06
 BYTE   W06
 BYTE   N06
 BYTE   W06
 BYTE   N06
 BYTE   W06
 BYTE   N06
 BYTE   W06
 BYTE   N06
 BYTE   W06
 BYTE   N06
 BYTE   W06
 BYTE   N06
 BYTE   W06
//  #02 //055   ----------------------------------------
 BYTE   En1
 BYTE   W06
 BYTE   N06
 BYTE   W06
 BYTE   N06
 BYTE   W06
 BYTE   N06
 BYTE   W06
 BYTE   N06
 BYTE   W06
 BYTE   N06
 BYTE   W06
 BYTE   N06
 BYTE   W06
 BYTE   N06
 BYTE   W06
 BYTE   N06
 BYTE   W06
 BYTE   N06
 BYTE   W06
 BYTE   N06
 BYTE   W06
 BYTE   N06
 BYTE   W06
 BYTE   N06
 BYTE   W06
 BYTE   N06
 BYTE   W06
 BYTE   N06
 BYTE   W06
 BYTE   N06
 BYTE   W06
//  #02 //056   ----------------------------------------
 BYTE   W96
//  #02 //057   ----------------------------------------
 BYTE   W96
//  #02 //058   ----------------------------------------
 BYTE   W96
//  #02 //059   ----------------------------------------
 BYTE   W96
//  #02 //060   ----------------------------------------
 BYTE   W96
//  #02 //061   ----------------------------------------
 BYTE   W96
//  #02 //062   ----------------------------------------
 BYTE   W96
//  #02 //063   ----------------------------------------
 BYTE   W96
//  #02 //064   ----------------------------------------
 BYTE   W96
//  #02 //065   ----------------------------------------
 BYTE   W96
//  #02 //066   ----------------------------------------
 BYTE   W96
//  #02 //067   ----------------------------------------
 BYTE   W96
//  #02 //068   ----------------------------------------
 BYTE   W96
//  #02 //069   ----------------------------------------
 BYTE   W96
//  #02 //070   ----------------------------------------
 BYTE   W96
//  #02 //071   ----------------------------------------
 BYTE   W96
//  #02 //072   ----------------------------------------
 BYTE   W96
//  #02 //073   ----------------------------------------
 BYTE   W96
//  #02 //074   ----------------------------------------
 BYTE   PATT
  POIN2 Label_54677F
//  #02 //075   ----------------------------------------
 BYTE   PATT
  POIN2 Label_5467A2
//  #02 //076   ----------------------------------------
 BYTE   PATT
  POIN2 Label_54677F
//  #02 //077   ----------------------------------------
 BYTE   PATT
  POIN2 Label_5467CA
//  #02 //078   ----------------------------------------
 BYTE   PATT
  POIN2 Label_54677F
//  #02 //079   ----------------------------------------
 BYTE   PATT
  POIN2 Label_5467F2
//  #02 //080   ----------------------------------------
 BYTE   PATT
  POIN2 Label_546815
//  #02 //081   ----------------------------------------
 BYTE   PATT
  POIN2 Label_5467F2
//  #02 //082   ----------------------------------------
 BYTE   W96
//  #02 //083   ----------------------------------------
 BYTE   W96
//  #02 //084   ----------------------------------------
 BYTE   W96
//  #02 //085   ----------------------------------------
 BYTE   W96
//  #02 //086   ----------------------------------------
 BYTE   W96
//  #02 //087   ----------------------------------------
 BYTE   W96
//  #02 //088   ----------------------------------------
 BYTE   W96
//  #02 //089   ----------------------------------------
 BYTE   W96
//  #02 //090   ----------------------------------------
Label_5468F5:
 BYTE   N06  Fs1  v088
 BYTE   W06
 BYTE   N06
 BYTE   W06
 BYTE   Fs2
 BYTE   W12
 BYTE   N06
 BYTE   W06
 BYTE   N06
 BYTE   W06
 BYTE   En2
 BYTE   W06
 BYTE   Fs2
 BYTE   W12
 BYTE   N06
 BYTE   W12
 BYTE   En2
 BYTE   W06
 BYTE   Gs2
 BYTE   W06
 BYTE   An2
 BYTE   W06
 BYTE   Fs2
 BYTE   W12
 BYTE   PEND 
//  #02 //091   ----------------------------------------
Label_546910:
 BYTE   N06  Fs1  v088
 BYTE   W06
 BYTE   N06
 BYTE   W06
 BYTE   Fs2
 BYTE   W06
 BYTE   En2
 BYTE   W06
 BYTE   Fs1
 BYTE   W06
 BYTE   N06
 BYTE   W06
 BYTE   N06
 BYTE   W06
 BYTE   Fs2
 BYTE   W12
 BYTE   N06
 BYTE   W06
 BYTE   An2
 BYTE   W06
 BYTE   Bn2
 BYTE   W12
 BYTE   Fs2
 BYTE   W06
 BYTE   En2
 BYTE   W12
 BYTE   PEND 
//  #02 //092   ----------------------------------------
 BYTE   Fs1
 BYTE   W06
 BYTE   N06
 BYTE   W06
 BYTE   Fs2
 BYTE   W06
 BYTE   An2
 BYTE   W06
 BYTE   Bn2
 BYTE   W06
 BYTE   Fs1
 BYTE   W06
 BYTE   N06
 BYTE   W06
 BYTE   Fs2
 BYTE   W12
 BYTE   N06
 BYTE   W12
 BYTE   En2
 BYTE   W06
 BYTE   An2
 BYTE   W06
 BYTE   Bn2
 BYTE   W06
 BYTE   En2
 BYTE   W12
//  #02 //093   ----------------------------------------
 BYTE   PATT
  POIN2 Label_546910
//  #02 //094   ----------------------------------------
 BYTE   PATT
  POIN2 Label_5468F5
//  #02 //095   ----------------------------------------
 BYTE   PATT
  POIN2 Label_546910
//  #02 //096   ----------------------------------------
 BYTE   N06  Dn1  v088
 BYTE   W06
 BYTE   N06
 BYTE   W06
 BYTE   Dn2
 BYTE   W06
 BYTE   En2
 BYTE   W06
 BYTE   Fs2
 BYTE   W06
 BYTE   Dn1
 BYTE   W06
 BYTE   N06
 BYTE   W06
 BYTE   Dn2
 BYTE   W12
 BYTE   N06
 BYTE   W12
 BYTE   N06
 BYTE   W06
 BYTE   En2
 BYTE   W06
 BYTE   Fs2
 BYTE   W06
 BYTE   Dn2
 BYTE   W12
//  #02 //097   ----------------------------------------
 BYTE   En1
 BYTE   W06
 BYTE   N06
 BYTE   W06
 BYTE   Fs2
 BYTE   W06
 BYTE   En2
 BYTE   W06
 BYTE   En1
 BYTE   W06
 BYTE   N06
 BYTE   W06
 BYTE   N06
 BYTE   W06
 BYTE   En2
 BYTE   W12
 BYTE   N06
 BYTE   W12
 BYTE   N06
 BYTE   W06
 BYTE   An2
 BYTE   W06
 BYTE   Bn2
 BYTE   W06
 BYTE   N12  En2
 BYTE   W06
 BYTE   GoTo
  POIN2 Label_5466C4
//  #02 //098   ----------------------------------------
 BYTE   W06
 BYTE   W96
//  #02 //099   ----------------------------------------
 BYTE   W96
 BYTE   FINE

//**************** Track 3 (Midi-Chn.2) ****************//

song02_003:
//  #03 //000   ----------------------------------------
 BYTE   VOL   35*song02_mvl/mxv
 BYTE   KEYSH   song02_key+0
Label_0117F020:
 BYTE   VOICE   28
 BYTE   MODT 0
 BYTE   LFOS 44
 BYTE   W06
 BYTE   N06  Fs3  v088
 BYTE   W06
 BYTE   Cs4
 BYTE   W06
 BYTE   Cs3
 BYTE   W06
 BYTE   Fs3
 BYTE   W06
 BYTE   Bn3
 BYTE   W06
 BYTE   Cs3
 BYTE   W06
 BYTE   Fs3
 BYTE   W06
 BYTE   Cs4
 BYTE   W06
 BYTE   Cs3
 BYTE   W06
 BYTE   Fs3
 BYTE   W06
 BYTE   Bn3
 BYTE   W06
 BYTE   Cs3
 BYTE   W06
 BYTE   Fs3
 BYTE   W06
 BYTE   Cs4
 BYTE   W06
 BYTE   Fs3
 BYTE   W06
//  #03 //001   ----------------------------------------
Label_0117F047:
 BYTE   W06
 BYTE   N06  Fs3  v088
 BYTE   W06
 BYTE   Cs4
 BYTE   W06
 BYTE   Dn3
 BYTE   W06
 BYTE   Fs3
 BYTE   W06
 BYTE   Bn3
 BYTE   W06
 BYTE   Dn3
 BYTE   W06
 BYTE   Fs3
 BYTE   W06
 BYTE   Cs4
 BYTE   W06
 BYTE   Dn3
 BYTE   W06
 BYTE   Fs3
 BYTE   W06
 BYTE   Bn3
 BYTE   W06
 BYTE   Dn3
 BYTE   W06
 BYTE   Fs3
 BYTE   W06
 BYTE   Cs4
 BYTE   W06
 BYTE   Fs3
 BYTE   W06
 BYTE   PEND 
//  #03 //002   ----------------------------------------
 BYTE   W06
 BYTE   N06
 BYTE   W06
 BYTE   Cs4
 BYTE   W06
 BYTE   Cs3
 BYTE   W06
 BYTE   Fs3
 BYTE   W06
 BYTE   Bn3
 BYTE   W06
 BYTE   Cs3
 BYTE   W06
 BYTE   Fs3
 BYTE   W06
 BYTE   Cs4
 BYTE   W06
 BYTE   Cs3
 BYTE   W06
 BYTE   Fs3
 BYTE   W06
 BYTE   Bn3
 BYTE   W06
 BYTE   Cs3
 BYTE   W06
 BYTE   Fs3
 BYTE   W06
 BYTE   Cs4
 BYTE   W06
 BYTE   Fs3
 BYTE   W06
//  #03 //003   ----------------------------------------
 BYTE   PATT
  POIN2 Label_0117F047
//  #03 //004   ----------------------------------------
 BYTE   N96  Fs2  v088
 BYTE   W06
 BYTE   N06  Fs3
 BYTE   W06
 BYTE   Cs4
 BYTE   W06
 BYTE   Cs3
 BYTE   W06
 BYTE   Fs3
 BYTE   W06
 BYTE   Bn3
 BYTE   W06
 BYTE   Cs3
 BYTE   W06
 BYTE   Fs3
 BYTE   W06
 BYTE   Cs4
 BYTE   W06
 BYTE   Cs3
 BYTE   W06
 BYTE   Fs3
 BYTE   W06
 BYTE   Bn3
 BYTE   W06
 BYTE   Cs3
 BYTE   W06
 BYTE   Fs3
 BYTE   W06
 BYTE   Cs4
 BYTE   W06
 BYTE   Fs3
 BYTE   W06
//  #03 //005   ----------------------------------------
 BYTE   N96  Dn2
 BYTE   W06
 BYTE   N06  Fs3
 BYTE   W06
 BYTE   Cs4
 BYTE   W06
 BYTE   Dn3
 BYTE   W06
 BYTE   Fs3
 BYTE   W06
 BYTE   Bn3
 BYTE   W06
 BYTE   Dn3
 BYTE   W06
 BYTE   Fs3
 BYTE   W06
 BYTE   Cs4
 BYTE   W06
 BYTE   Dn3
 BYTE   W06
 BYTE   Fs3
 BYTE   W06
 BYTE   Bn3
 BYTE   W06
 BYTE   Dn3
 BYTE   W06
 BYTE   Fs3
 BYTE   W06
 BYTE   Cs4
 BYTE   W06
 BYTE   Fs3
 BYTE   W06
//  #03 //006   ----------------------------------------
 BYTE   N96  An1
 BYTE   W06
 BYTE   N06  Fs3
 BYTE   W06
 BYTE   Cs4
 BYTE   W06
 BYTE   Cs3
 BYTE   W06
 BYTE   Fs3
 BYTE   W06
 BYTE   Bn3
 BYTE   W06
 BYTE   Cs3
 BYTE   W06
 BYTE   Fs3
 BYTE   W06
 BYTE   Cs4
 BYTE   W06
 BYTE   Cs3
 BYTE   W06
 BYTE   Fs3
 BYTE   W06
 BYTE   Bn3
 BYTE   W06
 BYTE   Cs3
 BYTE   W06
 BYTE   Fs3
 BYTE   W06
 BYTE   Cs4
 BYTE   W06
 BYTE   Fs3
 BYTE   W06
//  #03 //007   ----------------------------------------
 BYTE   N96  En1
 BYTE   W06
 BYTE   N06  Fs3
 BYTE   W06
 BYTE   Cs4
 BYTE   W06
 BYTE   Dn3
 BYTE   W06
 BYTE   Fs3
 BYTE   W06
 BYTE   Bn3
 BYTE   W06
 BYTE   Dn3
 BYTE   W06
 BYTE   Fs3
 BYTE   W06
 BYTE   Cs4
 BYTE   W06
 BYTE   Dn3
 BYTE   W06
 BYTE   Fs3
 BYTE   W06
 BYTE   Bn3
 BYTE   W06
 BYTE   Dn3
 BYTE   W06
 BYTE   Fs3
 BYTE   W06
 BYTE   Cs4
 BYTE   W06
 BYTE   Fs3
 BYTE   W06
//  #03 //008   ----------------------------------------
 BYTE   Fs1
 BYTE   W06
 BYTE   N06
 BYTE   N06  Fs3
 BYTE   W06
 BYTE   Fs1
 BYTE   N06  Cs4
 BYTE   W06
 BYTE   Fs1
 BYTE   N06  Cs3
 BYTE   W06
 BYTE   Fs1
 BYTE   N06  Fs3
 BYTE   W06
 BYTE   Fs1
 BYTE   N06  Bn3
 BYTE   W06
 BYTE   Fs1
 BYTE   N06  Cs3
 BYTE   W06
 BYTE   Fs1
 BYTE   N06  Fs3
 BYTE   W06
 BYTE   Fs1
 BYTE   N06  Cs4
 BYTE   W06
 BYTE   Fs1
 BYTE   N06  Cs3
 BYTE   W06
 BYTE   Fs1
 BYTE   N06  Fs3
 BYTE   W06
 BYTE   Fs1
 BYTE   N06  Bn3
 BYTE   W06
 BYTE   Fs1
 BYTE   N06  Cs3
 BYTE   W06
 BYTE   Fs1
 BYTE   N06  Fs3
 BYTE   W06
 BYTE   Fs1
 BYTE   N06  Cs4
 BYTE   W06
 BYTE   Fs1
 BYTE   N06  Fs3
 BYTE   W06
//  #03 //009   ----------------------------------------
 BYTE   Dn1
 BYTE   W06
 BYTE   N06
 BYTE   N06  Fs3
 BYTE   W06
 BYTE   Dn1
 BYTE   N06  Cs4
 BYTE   W06
 BYTE   Dn1
 BYTE   N06  Dn3
 BYTE   W06
 BYTE   Dn1
 BYTE   N06  Fs3
 BYTE   W06
 BYTE   Dn1
 BYTE   N06  Bn3
 BYTE   W06
 BYTE   Dn1
 BYTE   N06  Dn3
 BYTE   W06
 BYTE   Dn1
 BYTE   N06  Fs3
 BYTE   W06
 BYTE   Dn1
 BYTE   N06  Cs4
 BYTE   W06
 BYTE   Dn1
 BYTE   N06  Dn3
 BYTE   W06
 BYTE   Dn1
 BYTE   N06  Fs3
 BYTE   W06
 BYTE   Dn1
 BYTE   N06  Bn3
 BYTE   W06
 BYTE   Dn1
 BYTE   N06  Dn3
 BYTE   W06
 BYTE   Dn1
 BYTE   N06  Fs3
 BYTE   W06
 BYTE   Dn1
 BYTE   N06  Cs4
 BYTE   W06
 BYTE   Dn1
 BYTE   N06  Fs3
 BYTE   W06
//  #03 //010   ----------------------------------------
 BYTE   An0
 BYTE   W06
 BYTE   N06
 BYTE   N06  Fs3
 BYTE   W06
 BYTE   An0
 BYTE   N06  Cs4
 BYTE   W06
 BYTE   An0
 BYTE   N06  Cs3
 BYTE   W06
 BYTE   An0
 BYTE   N06  Fs3
 BYTE   W06
 BYTE   An0
 BYTE   N06  Bn3
 BYTE   W06
 BYTE   An0
 BYTE   N06  Cs3
 BYTE   W06
 BYTE   An0
 BYTE   N06  Fs3
 BYTE   W06
 BYTE   An0
 BYTE   N06  Cs4
 BYTE   W06
 BYTE   An0
 BYTE   N06  Cs3
 BYTE   W06
 BYTE   An0
 BYTE   N06  Fs3
 BYTE   W06
 BYTE   An0
 BYTE   N06  Bn3
 BYTE   W06
 BYTE   An0
 BYTE   N06  Cs3
 BYTE   W06
 BYTE   An0
 BYTE   N06  Fs3
 BYTE   W06
 BYTE   An0
 BYTE   N06  Cs4
 BYTE   W06
 BYTE   An0
 BYTE   N06  Fs3
 BYTE   W06
//  #03 //011   ----------------------------------------
 BYTE   En1
 BYTE   W06
 BYTE   N06
 BYTE   N06  Fs3
 BYTE   W06
 BYTE   En1
 BYTE   N06  Cs4
 BYTE   W06
 BYTE   En1
 BYTE   N06  Dn3
 BYTE   W06
 BYTE   En1
 BYTE   N06  Fs3
 BYTE   W06
 BYTE   En1
 BYTE   N06  Bn3
 BYTE   W06
 BYTE   En1
 BYTE   N06  Dn3
 BYTE   W06
 BYTE   En1
 BYTE   N06  Fs3
 BYTE   W06
 BYTE   En1
 BYTE   N06  Cs4
 BYTE   W06
 BYTE   En1
 BYTE   N06  Dn3
 BYTE   W06
 BYTE   En1
 BYTE   N06  Fs3
 BYTE   W06
 BYTE   En1
 BYTE   N06  Bn3
 BYTE   W06
 BYTE   En1
 BYTE   N06  Dn3
 BYTE   W06
 BYTE   En1
 BYTE   N06  Fs3
 BYTE   W06
 BYTE   En1
 BYTE   N06  Cs4
 BYTE   W06
 BYTE   En1
 BYTE   N06  Fs3
 BYTE   W06
//  #03 //012   ----------------------------------------
 BYTE   Fs1
 BYTE   N96  Fs2
 BYTE   W06
 BYTE   N06  Fs1
 BYTE   N06  Fs3
 BYTE   W06
 BYTE   Fs1
 BYTE   N06  Cs4
 BYTE   W06
 BYTE   Fs1
 BYTE   N06  Cs3
 BYTE   W06
 BYTE   Fs1
 BYTE   N06  Fs3
 BYTE   W06
 BYTE   Fs1
 BYTE   N06  Bn3
 BYTE   W06
 BYTE   Fs1
 BYTE   N06  Cs3
 BYTE   W06
 BYTE   Fs1
 BYTE   N06  Fs3
 BYTE   W06
 BYTE   Fs1
 BYTE   N06  Cs4
 BYTE   W06
 BYTE   Fs1
 BYTE   N06  Cs3
 BYTE   W06
 BYTE   Fs1
 BYTE   N06  Fs3
 BYTE   W06
 BYTE   Fs1
 BYTE   N06  Bn3
 BYTE   W06
 BYTE   Fs1
 BYTE   N06  Cs3
 BYTE   W06
 BYTE   Fs1
 BYTE   N06  Fs3
 BYTE   W06
 BYTE   Fs1
 BYTE   N06  Cs4
 BYTE   W06
 BYTE   Fs1
 BYTE   N06  Fs3
 BYTE   W06
//  #03 //013   ----------------------------------------
 BYTE   Dn1
 BYTE   N96  Dn2
 BYTE   W06
 BYTE   N06  Dn1
 BYTE   N06  Fs3
 BYTE   W06
 BYTE   Dn1
 BYTE   N06  Cs4
 BYTE   W06
 BYTE   Dn1
 BYTE   N06  Dn3
 BYTE   W06
 BYTE   Dn1
 BYTE   N06  Fs3
 BYTE   W06
 BYTE   Dn1
 BYTE   N06  Bn3
 BYTE   W06
 BYTE   Dn1
 BYTE   N06  Dn3
 BYTE   W06
 BYTE   Dn1
 BYTE   N06  Fs3
 BYTE   W06
 BYTE   Dn1
 BYTE   N06  Cs4
 BYTE   W06
 BYTE   Dn1
 BYTE   N06  Dn3
 BYTE   W06
 BYTE   Dn1
 BYTE   N06  Fs3
 BYTE   W06
 BYTE   Dn1
 BYTE   N06  Bn3
 BYTE   W06
 BYTE   Dn1
 BYTE   N06  Dn3
 BYTE   W06
 BYTE   Dn1
 BYTE   N06  Fs3
 BYTE   W06
 BYTE   Dn1
 BYTE   N06  Cs4
 BYTE   W06
 BYTE   Dn1
 BYTE   N06  Fs3
 BYTE   W06
//  #03 //014   ----------------------------------------
 BYTE   An0
 BYTE   N96  An1
 BYTE   N06  Fs3
 BYTE   W06
 BYTE   An0
 BYTE   N06  Fs3
 BYTE   W06
 BYTE   An0
 BYTE   N06  Cs4
 BYTE   W06
 BYTE   An0
 BYTE   N06  Cs3
 BYTE   W06
 BYTE   An0
 BYTE   N06  Fs3
 BYTE   W06
 BYTE   An0
 BYTE   N06  Bn3
 BYTE   W06
 BYTE   An0
 BYTE   N06  Cs3
 BYTE   W06
 BYTE   An0
 BYTE   N06  Fs3
 BYTE   W06
 BYTE   An0
 BYTE   N06  Cs4
 BYTE   W06
 BYTE   An0
 BYTE   N06  Cs3
 BYTE   W06
 BYTE   An0
 BYTE   N06  Fs3
 BYTE   W06
 BYTE   An0
 BYTE   N06  Bn3
 BYTE   W06
 BYTE   An0
 BYTE   N06  Cs3
 BYTE   W06
 BYTE   An0
 BYTE   N06  Fs3
 BYTE   W06
 BYTE   An0
 BYTE   N06  Cs4
 BYTE   W06
 BYTE   An0
 BYTE   N06  Fs3
 BYTE   W06
//  #03 //015   ----------------------------------------
 BYTE   En1
 BYTE   N96  En2
 BYTE   W06
 BYTE   N06  En1
 BYTE   N06  Fs3
 BYTE   W06
 BYTE   En1
 BYTE   N06  Cs4
 BYTE   W06
 BYTE   En1
 BYTE   N06  Dn3
 BYTE   W06
 BYTE   En1
 BYTE   N06  Fs3
 BYTE   W06
 BYTE   En1
 BYTE   N06  Bn3
 BYTE   W06
 BYTE   En1
 BYTE   N06  Dn3
 BYTE   W06
 BYTE   En1
 BYTE   N06  Fs3
 BYTE   W06
 BYTE   En1
 BYTE   N06  Cs4
 BYTE   W06
 BYTE   En1
 BYTE   N06  Dn3
 BYTE   W06
 BYTE   En1
 BYTE   N06  Fs3
 BYTE   W06
 BYTE   En1
 BYTE   N06  Bn3
 BYTE   W06
 BYTE   En1
 BYTE   N06  Dn3
 BYTE   W06
 BYTE   En1
 BYTE   N06  Fs3
 BYTE   W06
 BYTE   En1
 BYTE   N06  Cs4
 BYTE   W06
 BYTE   En1
 BYTE   N06  Fs3
 BYTE   W06
//  #03 //016   ----------------------------------------
Label_0117F313:
 BYTE   W12
 BYTE   N12  En3  v088
 BYTE   W12
 BYTE   N12
 BYTE   W12
 BYTE   N06  Cs3
 BYTE   W06
 BYTE   N18  En3
 BYTE   W18
 BYTE   N06  Cs3
 BYTE   W06
 BYTE   N12  Bn2
 BYTE   W12
 BYTE   An2
 BYTE   W12
 BYTE   N18  Bn2
 BYTE   W06
 BYTE   PEND 
//  #03 //017   ----------------------------------------
 BYTE   W12
 BYTE   N60  An2
 BYTE   W60
 BYTE   N12  Fs2
 BYTE   W12
 BYTE   N48  Cs3
 BYTE   W12
//  #03 //018   ----------------------------------------
Label_0117F336:
 BYTE   W36
 BYTE   N06  Dn3  v088
 BYTE   W06
 BYTE   N42  Cs3
 BYTE   W42
 BYTE   N06  Bn2
 BYTE   W06
 BYTE   N42
 BYTE   W06
 BYTE   PEND 
//  #03 //019   ----------------------------------------
 BYTE   W36
 BYTE   N06  An2
 BYTE   W06
 BYTE   N12  Bn2
 BYTE   W12
 BYTE   N06  En2
 BYTE   W06
 BYTE   N36  Fs2
 BYTE   W36
//  #03 //020   ----------------------------------------
 BYTE   PATT
  POIN2 Label_0117F313
//  #03 //021   ----------------------------------------
 BYTE   W12
 BYTE   N60  Cs3  v088
 BYTE   W60
 BYTE   N12  Fs2
 BYTE   W12
 BYTE   N48  En3
 BYTE   W12
//  #03 //022   ----------------------------------------
 BYTE   PATT
  POIN2 Label_0117F336
//  #03 //023   ----------------------------------------
 BYTE   W36
 BYTE   N24  En3  v088
 BYTE   W24
 BYTE   N12  Cs3
 BYTE   W12
 BYTE   N06  Bn2
 BYTE   W06
 BYTE   An2
 BYTE   W06
 BYTE   N12  Bn2
 BYTE   W12
//  #03 //024   ----------------------------------------
 BYTE   W96
//  #03 //025   ----------------------------------------
 BYTE   W96
//  #03 //026   ----------------------------------------
 BYTE   W96
//  #03 //027   ----------------------------------------
 BYTE   W96
//  #03 //028   ----------------------------------------
 BYTE   W96
//  #03 //029   ----------------------------------------
 BYTE   W96
//  #03 //030   ----------------------------------------
 BYTE   W96
//  #03 //031   ----------------------------------------
 BYTE   W96
//  #03 //032   ----------------------------------------
 BYTE   N06  Dn1
 BYTE   N06  Dn3
 BYTE   N06  Fs3
 BYTE   N06  An3
 BYTE   W06
 BYTE   Dn1
 BYTE   N06  Dn3
 BYTE   N06  Fs3
 BYTE   N06  An3
 BYTE   W06
 BYTE   Dn1
 BYTE   N06  Dn3
 BYTE   N06  Fs3
 BYTE   N06  An3
 BYTE   W06
 BYTE   Dn1
 BYTE   N06  Dn3
 BYTE   N06  Fs3
 BYTE   N06  An3
 BYTE   W06
 BYTE   Dn1
 BYTE   N24  An2
 BYTE   N24  Cs3
 BYTE   N06  Dn3
 BYTE   N06  Fs3
 BYTE   N06  An3
 BYTE   W06
 BYTE   Dn1
 BYTE   N06  Dn3
 BYTE   N06  Fs3
 BYTE   N06  An3
 BYTE   W06
 BYTE   Dn1
 BYTE   N06  Dn3
 BYTE   N06  Fs3
 BYTE   N06  An3
 BYTE   W06
 BYTE   Dn1
 BYTE   N06  Dn3
 BYTE   N06  Fs3
 BYTE   N06  An3
 BYTE   W06
 BYTE   En1
 BYTE   N48  Cs3
 BYTE   N06  En3
 BYTE   N06  An3
 BYTE   W06
 BYTE   En1
 BYTE   N06  En3
 BYTE   N06  An3
 BYTE   W06
 BYTE   En1
 BYTE   N06  En3
 BYTE   N06  An3
 BYTE   W06
 BYTE   En1
 BYTE   N06  En3
 BYTE   N06  An3
 BYTE   W06
 BYTE   En1
 BYTE   N06  En3
 BYTE   N06  An3
 BYTE   W06
 BYTE   En1
 BYTE   N06  En3
 BYTE   N06  An3
 BYTE   W06
 BYTE   En1
 BYTE   N06  En3
 BYTE   N06  An3
 BYTE   W06
 BYTE   En1
 BYTE   N06  En3
 BYTE   N06  An3
 BYTE   W06
//  #03 //033   ----------------------------------------
 BYTE   Fs1
 BYTE   N06  Fs3
 BYTE   N06  An3
 BYTE   N06  Cs4
 BYTE   W06
 BYTE   Fs1
 BYTE   N06  Fs3
 BYTE   N06  An3
 BYTE   N06  Cs4
 BYTE   W06
 BYTE   Fs1
 BYTE   N12  Cs3
 BYTE   N06  Fs3
 BYTE   N06  An3
 BYTE   N06  Cs4
 BYTE   W06
 BYTE   Fs1
 BYTE   N06  Fs3
 BYTE   N06  An3
 BYTE   N06  Cs4
 BYTE   W06
 BYTE   Fs1
 BYTE   N06  Fs3
 BYTE   N06  An3
 BYTE   N06  Cs4
 BYTE   W06
 BYTE   Fs1
 BYTE   N06  Fs3
 BYTE   N06  An3
 BYTE   N06  Cs4
 BYTE   W06
 BYTE   Fs1
 BYTE   N06  Fs3
 BYTE   N06  An3
 BYTE   N06  Cs4
 BYTE   W06
 BYTE   Fs1
 BYTE   N06  Fs3
 BYTE   N06  An3
 BYTE   N06  Cs4
 BYTE   W06
 BYTE   Cs1
 BYTE   N06  En3
 BYTE   N06  Gs3
 BYTE   N06  Cs4
 BYTE   W06
 BYTE   Cs1
 BYTE   N06  En3
 BYTE   N06  Gs3
 BYTE   N06  Cs4
 BYTE   W06
 BYTE   Cs1
 BYTE   N06  En3
 BYTE   N06  Gs3
 BYTE   N06  Cs4
 BYTE   W06
 BYTE   Cs1
 BYTE   N06  En3
 BYTE   N06  Gs3
 BYTE   N06  Cs4
 BYTE   W06
 BYTE   Cs1
 BYTE   N24  Bn2
 BYTE   N06  En3
 BYTE   N06  Gs3
 BYTE   N24  Bn3
 BYTE   N06  Cs4
 BYTE   W06
 BYTE   Cs1
 BYTE   N06  En3
 BYTE   N06  Gs3
 BYTE   N06  Cs4
 BYTE   W06
 BYTE   Cs1
 BYTE   N06  En3
 BYTE   N06  Gs3
 BYTE   N06  Cs4
 BYTE   W06
 BYTE   Cs1
 BYTE   N06  En3
 BYTE   N06  Gs3
 BYTE   N06  Cs4
 BYTE   W06
//  #03 //034   ----------------------------------------
 BYTE   Dn1
 BYTE   N06  Dn3
 BYTE   N06  Fs3
 BYTE   N06  An3
 BYTE   W06
 BYTE   Dn1
 BYTE   N06  Dn3
 BYTE   N06  Fs3
 BYTE   N06  An3
 BYTE   W06
 BYTE   Dn1
 BYTE   N48  Cs3
 BYTE   N06  Dn3
 BYTE   N06  Fs3
 BYTE   N06  An3
 BYTE   W06
 BYTE   Dn1
 BYTE   N06  Dn3
 BYTE   N06  Fs3
 BYTE   N06  An3
 BYTE   W06
 BYTE   Dn1
 BYTE   N06  Dn3
 BYTE   N06  Fs3
 BYTE   N06  An3
 BYTE   W06
 BYTE   Dn1
 BYTE   N06  Dn3
 BYTE   N06  Fs3
 BYTE   N06  An3
 BYTE   W06
 BYTE   Dn1
 BYTE   N06  Dn3
 BYTE   N06  Fs3
 BYTE   N06  An3
 BYTE   W06
 BYTE   Dn1
 BYTE   N06  Dn3
 BYTE   N06  Fs3
 BYTE   N06  An3
 BYTE   W06
 BYTE   En1
 BYTE   N06  En3
 BYTE   N06  An3
 BYTE   W06
 BYTE   En1
 BYTE   N06  En3
 BYTE   N06  An3
 BYTE   W06
 BYTE   En1
 BYTE   N12  An2
 BYTE   N12  Cs3
 BYTE   N06  En3
 BYTE   N06  An3
 BYTE   W06
 BYTE   En1
 BYTE   N06  En3
 BYTE   N06  An3
 BYTE   W06
 BYTE   En1
 BYTE   N12  Gs2
 BYTE   N12  Bn2
 BYTE   N06  En3
 BYTE   N06  An3
 BYTE   W06
 BYTE   En1
 BYTE   N06  En3
 BYTE   N06  An3
 BYTE   W06
 BYTE   En1
 BYTE   N12  An2
 BYTE   N12  Cs3
 BYTE   N06  En3
 BYTE   N06  An3
 BYTE   W06
 BYTE   En1
 BYTE   N06  En3
 BYTE   N06  An3
 BYTE   W06
//  #03 //035   ----------------------------------------
 BYTE   Fs1
 BYTE   N48  Cs3
 BYTE   N06  Fs3
 BYTE   N06  An3
 BYTE   N06  Cs4
 BYTE   W06
 BYTE   Fs1
 BYTE   N06  Fs3
 BYTE   N06  An3
 BYTE   N06  Cs4
 BYTE   W06
 BYTE   Fs1
 BYTE   N06  Fs3
 BYTE   N06  An3
 BYTE   N06  Cs4
 BYTE   W06
 BYTE   Fs1
 BYTE   N06  Fs3
 BYTE   N06  An3
 BYTE   N06  Cs4
 BYTE   W06
 BYTE   Fs1
 BYTE   N06  Fs3
 BYTE   N06  An3
 BYTE   N06  Cs4
 BYTE   W06
 BYTE   Fs1
 BYTE   N06  Fs3
 BYTE   N06  An3
 BYTE   N06  Cs4
 BYTE   W06
 BYTE   Fs1
 BYTE   N06  Fs3
 BYTE   N06  An3
 BYTE   N06  Cs4
 BYTE   W06
 BYTE   Fs1
 BYTE   N06  Fs3
 BYTE   N06  An3
 BYTE   N06  Cs4
 BYTE   W06
 BYTE   Fs0
 BYTE   N06  Fs3
 BYTE   N06  An3
 BYTE   N06  Cs4
 BYTE   W06
 BYTE   Fs0
 BYTE   N06  Fs3
 BYTE   N06  An3
 BYTE   N06  Cs4
 BYTE   W06
 BYTE   Fs0
 BYTE   N12  Cs3
 BYTE   N12  En3
 BYTE   N06  Fs3
 BYTE   N06  An3
 BYTE   N06  Cs4
 BYTE   W06
 BYTE   Fs0
 BYTE   N06  Fs3
 BYTE   N06  An3
 BYTE   N06  Cs4
 BYTE   W06
 BYTE   Cs1
 BYTE   N06  An2
 BYTE   N06  Cs3
 BYTE   N06  En3
 BYTE   N06  Gs3
 BYTE   N06  Cs4
 BYTE   W06
 BYTE   Cs1
 BYTE   N18  Cs3
 BYTE   N06  En3
 BYTE   N18  Fs3
 BYTE   N06  Gs3
 BYTE   N06  Cs4
 BYTE   W06
 BYTE   Cs1
 BYTE   N06  En3
 BYTE   N06  Gs3
 BYTE   N06  Cs4
 BYTE   W06
 BYTE   Cs1
 BYTE   N06  En3
 BYTE   N06  Gs3
 BYTE   N06  Cs4
 BYTE   W06
//  #03 //036   ----------------------------------------
 BYTE   Dn1
 BYTE   N36  An2
 BYTE   N06  Dn3
 BYTE   N06  Fs3
 BYTE   N06  An3
 BYTE   W06
 BYTE   Dn1
 BYTE   N06  Dn3
 BYTE   N06  Fs3
 BYTE   N06  An3
 BYTE   W06
 BYTE   Dn1
 BYTE   N06  Dn3
 BYTE   N06  Fs3
 BYTE   N06  An3
 BYTE   W06
 BYTE   Dn1
 BYTE   N06  Dn3
 BYTE   N06  Fs3
 BYTE   N06  An3
 BYTE   W06
 BYTE   Dn1
 BYTE   N06  Dn3
 BYTE   N06  Fs3
 BYTE   N06  An3
 BYTE   W06
 BYTE   Dn1
 BYTE   N06  Dn3
 BYTE   N06  Fs3
 BYTE   N06  An3
 BYTE   W06
 BYTE   Dn1
 BYTE   N06  Fs2
 BYTE   N06  Cs3
 BYTE   N06  Dn3
 BYTE   N06  Fs3
 BYTE   N06  An3
 BYTE   W06
 BYTE   Dn1
 BYTE   N06  Dn3
 BYTE   N06  En3
 BYTE   N06  Fs3
 BYTE   N42  Gs3
 BYTE   N06  An3
 BYTE   W06
 BYTE   En1
 BYTE   N06  En3
 BYTE   N06  An3
 BYTE   W06
 BYTE   En1
 BYTE   N06  En3
 BYTE   N06  An3
 BYTE   W06
 BYTE   En1
 BYTE   N06  En3
 BYTE   N06  An3
 BYTE   W06
 BYTE   En1
 BYTE   N06  En3
 BYTE   N06  An3
 BYTE   W06
 BYTE   En1
 BYTE   N06  En3
 BYTE   N06  An3
 BYTE   W06
 BYTE   En1
 BYTE   N06  En3
 BYTE   N06  An3
 BYTE   W06
 BYTE   En1
 BYTE   N06  An2
 BYTE   N06  Cs3
 BYTE   N06  En3
 BYTE   N06  An3
 BYTE   W06
 BYTE   En1
 BYTE   N06  En3
 BYTE   N06  Fs3
 BYTE   N06  An3
 BYTE   W06
//  #03 //037   ----------------------------------------
 BYTE   Fs1
 BYTE   N06  Fs3
 BYTE   N06  An3
 BYTE   N06  Cs4
 BYTE   W06
 BYTE   Fs1
 BYTE   N06  Fs3
 BYTE   N06  Gs3
 BYTE   N06  An3
 BYTE   N06  Bn3
 BYTE   N06  Cs4
 BYTE   W06
 BYTE   Fs1
 BYTE   N06  Fs3
 BYTE   N06  An3
 BYTE   N06  Cs4
 BYTE   W06
 BYTE   Fs1
 BYTE   N06  Fs3
 BYTE   N06  An3
 BYTE   N06  Cs4
 BYTE   W06
 BYTE   Fs1
 BYTE   N06  Fs3
 BYTE   N06  An3
 BYTE   N06  Cs4
 BYTE   W06
 BYTE   Fs1
 BYTE   N06  Fs3
 BYTE   N06  An3
 BYTE   N06  Cs4
 BYTE   W06
 BYTE   Fs1
 BYTE   N06  Fs3
 BYTE   N06  An3
 BYTE   N06  Cs4
 BYTE   W06
 BYTE   Fs1
 BYTE   N06  Fs3
 BYTE   N06  An3
 BYTE   N06  Cs4
 BYTE   W06
 BYTE   Fs1
 BYTE   N06  Fs3
 BYTE   N06  An3
 BYTE   N06  Cs4
 BYTE   W06
 BYTE   Fs1
 BYTE   N06  Fs3
 BYTE   N06  An3
 BYTE   N06  Cs4
 BYTE   W06
 BYTE   Fs1
 BYTE   N06  Fs3
 BYTE   N06  An3
 BYTE   N06  Cs4
 BYTE   W06
 BYTE   Fs1
 BYTE   N06  Fs3
 BYTE   N06  An3
 BYTE   N06  Cs4
 BYTE   W06
 BYTE   Fs1
 BYTE   N12  En3
 BYTE   N06  Fs3
 BYTE   N12  Gs3
 BYTE   N06  An3
 BYTE   N06  Cs4
 BYTE   W06
 BYTE   Fs1
 BYTE   N06  Fs3
 BYTE   N06  An3
 BYTE   N06  Cs4
 BYTE   W06
 BYTE   Fs1
 BYTE   N06  Cs3
 BYTE   N06  En3
 BYTE   N06  Fs3
 BYTE   N06  An3
 BYTE   N06  Cs4
 BYTE   W06
 BYTE   Fs1
 BYTE   N54  Bn2
 BYTE   N06  Fs3
 BYTE   N06  An3
 BYTE   N06  Cs4
 BYTE   W06
//  #03 //038   ----------------------------------------
 BYTE   Bn0
 BYTE   N06  Dn3
 BYTE   N06  Fs3
 BYTE   N06  An3
 BYTE   W06
 BYTE   Bn0
 BYTE   N06  Dn3
 BYTE   N06  Fs3
 BYTE   N06  An3
 BYTE   W06
 BYTE   Bn0
 BYTE   N06  Dn3
 BYTE   N06  Fs3
 BYTE   N06  An3
 BYTE   W06
 BYTE   Bn0
 BYTE   N06  Dn3
 BYTE   N06  Fs3
 BYTE   N06  An3
 BYTE   W06
 BYTE   Bn0
 BYTE   N06  Dn3
 BYTE   N06  Fs3
 BYTE   N06  An3
 BYTE   W06
 BYTE   Bn0
 BYTE   N06  Dn3
 BYTE   N06  Fs3
 BYTE   N06  An3
 BYTE   W06
 BYTE   Bn0
 BYTE   N06  Dn3
 BYTE   N06  Fs3
 BYTE   N06  An3
 BYTE   W06
 BYTE   Bn0
 BYTE   N06  Dn3
 BYTE   N06  Fs3
 BYTE   N06  An3
 BYTE   W06
 BYTE   Cs1
 BYTE   N06  En3
 BYTE   N12  Gs3
 BYTE   N06  An3
 BYTE   W06
 BYTE   Cs1
 BYTE   N06  En3
 BYTE   N06  An3
 BYTE   W06
 BYTE   Cs1
 BYTE   N06  Bn2
 BYTE   N06  En3
 BYTE   N06  An3
 BYTE   W06
 BYTE   Cs1
 BYTE   N12  Cs3
 BYTE   N06  En3
 BYTE   N12  Fs3
 BYTE   N06  An3
 BYTE   W06
 BYTE   Cs1
 BYTE   N06  En3
 BYTE   N06  An3
 BYTE   W06
 BYTE   Cs1
 BYTE   N06  En3
 BYTE   N18  Gs3
 BYTE   N06  An3
 BYTE   W06
 BYTE   Cs1
 BYTE   N06  En3
 BYTE   N06  An3
 BYTE   W06
 BYTE   Cs1
 BYTE   N06  En3
 BYTE   N06  An3
 BYTE   W06
//  #03 //039   ----------------------------------------
 BYTE   Fs1
 BYTE   N96  Cs3
 BYTE   N06  Fs3
 BYTE   N06  An3
 BYTE   W06
 BYTE   Fs1
 BYTE   N06  Fs3
 BYTE   N06  An3
 BYTE   W06
 BYTE   Fs1
 BYTE   N06  Fs3
 BYTE   N06  An3
 BYTE   W06
 BYTE   Fs1
 BYTE   N06  Fs3
 BYTE   N06  An3
 BYTE   W06
 BYTE   Fs1
 BYTE   N06  Fs3
 BYTE   N06  An3
 BYTE   W06
 BYTE   Fs1
 BYTE   N06  Fs3
 BYTE   N06  An3
 BYTE   W06
 BYTE   Fs1
 BYTE   N06  Fs3
 BYTE   N06  An3
 BYTE   W06
 BYTE   Fs1
 BYTE   N06  Fs3
 BYTE   N06  An3
 BYTE   W06
 BYTE   Fs1
 BYTE   N06  Fs3
 BYTE   N06  An3
 BYTE   W06
 BYTE   Fs1
 BYTE   N06  Fs3
 BYTE   N06  An3
 BYTE   W06
 BYTE   Fs1
 BYTE   N06  Fs3
 BYTE   N06  An3
 BYTE   W06
 BYTE   Fs1
 BYTE   N06  Fs3
 BYTE   N06  An3
 BYTE   W06
 BYTE   Fs1
 BYTE   N06  Fs3
 BYTE   N06  An3
 BYTE   W06
 BYTE   Fs1
 BYTE   N06  Fs3
 BYTE   N06  An3
 BYTE   W06
 BYTE   Fs1
 BYTE   N06  Fs3
 BYTE   N06  An3
 BYTE   W06
 BYTE   Fs1
 BYTE   N06  Fs3
 BYTE   N06  An3
 BYTE   W06
//  #03 //040   ----------------------------------------
 BYTE   W96
//  #03 //041   ----------------------------------------
 BYTE   W96
//  #03 //042   ----------------------------------------
 BYTE   W96
//  #03 //043   ----------------------------------------
 BYTE   W96
//  #03 //044   ----------------------------------------
 BYTE   Fs2
 BYTE   W06
 BYTE   Fs3
 BYTE   W06
 BYTE   Fs2
 BYTE   W06
 BYTE   Cs3
 BYTE   W06
 BYTE   Dn3
 BYTE   W06
 BYTE   Cs3
 BYTE   W06
 BYTE   Fs2
 BYTE   W06
 BYTE   Fs3
 BYTE   W06
 BYTE   Fs2
 BYTE   W06
 BYTE   Fs3
 BYTE   W06
 BYTE   Fs2
 BYTE   W06
 BYTE   N06
 BYTE   W06
 BYTE   Cs3
 BYTE   W06
 BYTE   Dn3
 BYTE   W06
 BYTE   Fs2
 BYTE   W06
 BYTE   Fs3
 BYTE   W06
//  #03 //045   ----------------------------------------
 BYTE   Fs2
 BYTE   W06
 BYTE   Fs3
 BYTE   W06
 BYTE   Fs2
 BYTE   W06
 BYTE   Cs3
 BYTE   W06
 BYTE   Dn3
 BYTE   W06
 BYTE   Cs3
 BYTE   W06
 BYTE   Fs2
 BYTE   W06
 BYTE   Fs3
 BYTE   W06
 BYTE   Cs4
 BYTE   W06
 BYTE   Ds4
 BYTE   W06
 BYTE   Fs2
 BYTE   W06
 BYTE   Dn3
 BYTE   W06
 BYTE   Fs2
 BYTE   W06
 BYTE   Cs3
 BYTE   W06
 BYTE   Fs2
 BYTE   W06
 BYTE   Fs3
 BYTE   W06
//  #03 //046   ----------------------------------------
 BYTE   Fs2
 BYTE   W06
 BYTE   Fs3
 BYTE   W06
 BYTE   Fs2
 BYTE   W06
 BYTE   Cs3
 BYTE   W06
 BYTE   Dn3
 BYTE   W06
 BYTE   Fs2
 BYTE   W06
 BYTE   Dn3
 BYTE   W06
 BYTE   Fs2
 BYTE   W06
 BYTE   En3
 BYTE   W06
 BYTE   Fs2
 BYTE   W06
 BYTE   An3
 BYTE   W06
 BYTE   Fs3
 BYTE   W06
 BYTE   En3
 BYTE   W06
 BYTE   An3
 BYTE   W06
 BYTE   Bn3
 BYTE   W06
 BYTE   Gs4
 BYTE   W06
//  #03 //047   ----------------------------------------
 BYTE   Bn3
 BYTE   W06
 BYTE   Gs4
 BYTE   W06
 BYTE   En4
 BYTE   W06
 BYTE   Bn3
 BYTE   W06
 BYTE   An4
 BYTE   W06
 BYTE   En4
 BYTE   W06
 BYTE   Gs4
 BYTE   W06
 BYTE   En4
 BYTE   W06
 BYTE   Bn3
 BYTE   W06
 BYTE   Gs4
 BYTE   W06
 BYTE   Bn3
 BYTE   W06
 BYTE   En4
 BYTE   W06
 BYTE   Fs4
 BYTE   W06
 BYTE   An4
 BYTE   W06
 BYTE   Bn4
 BYTE   W06
 BYTE   Gs4
 BYTE   W06
//  #03 //048   ----------------------------------------
Label_0117F7F5:
 BYTE   N06  Fs0  v088
 BYTE   W06
 BYTE   N06
 BYTE   W06
 BYTE   N06
 BYTE   W06
 BYTE   N06
 BYTE   W06
 BYTE   N06
 BYTE   W06
 BYTE   N06
 BYTE   W06
 BYTE   N06
 BYTE   W06
 BYTE   N06
 BYTE   W06
 BYTE   N06
 BYTE   W06
 BYTE   N06
 BYTE   W06
 BYTE   N06
 BYTE   W06
 BYTE   N06
 BYTE   W06
 BYTE   N06
 BYTE   W06
 BYTE   N06
 BYTE   W06
 BYTE   N06
 BYTE   W06
 BYTE   N06
 BYTE   W06
 BYTE   PEND 
//  #03 //049   ----------------------------------------
 BYTE   PATT
  POIN2 Label_0117F7F5
//  #03 //050   ----------------------------------------
 BYTE   N06  Dn0  v088
 BYTE   W06
 BYTE   N06
 BYTE   W06
 BYTE   N06
 BYTE   W06
 BYTE   N06
 BYTE   W06
 BYTE   N06
 BYTE   N66  En3
 BYTE   W06
 BYTE   N06  Dn0
 BYTE   W06
 BYTE   N06
 BYTE   W06
 BYTE   N06
 BYTE   W06
 BYTE   N06
 BYTE   W06
 BYTE   N06
 BYTE   W06
 BYTE   N06
 BYTE   W06
 BYTE   N06
 BYTE   W06
 BYTE   N06
 BYTE   W06
 BYTE   N06
 BYTE   W06
 BYTE   N06
 BYTE   W06
 BYTE   N06
 BYTE   W06
//  #03 //051   ----------------------------------------
 BYTE   En0
 BYTE   W06
 BYTE   N06
 BYTE   W06
 BYTE   N06
 BYTE   W06
 BYTE   N06
 BYTE   W06
 BYTE   N06
 BYTE   N66  Bn2
 BYTE   N66  En3
 BYTE   W06
 BYTE   N06  En0
 BYTE   W06
 BYTE   N06
 BYTE   W06
 BYTE   N06
 BYTE   W06
 BYTE   N06
 BYTE   W06
 BYTE   N06
 BYTE   W06
 BYTE   N06
 BYTE   W06
 BYTE   N06
 BYTE   W06
 BYTE   N06
 BYTE   W06
 BYTE   N06
 BYTE   W06
 BYTE   N06
 BYTE   W06
 BYTE   N06
 BYTE   W06
//  #03 //052   ----------------------------------------
 BYTE   Fs0
 BYTE   N06  Fs2
 BYTE   W06
 BYTE   Fs0
 BYTE   N06  Fs3
 BYTE   W06
 BYTE   Fs0
 BYTE   N06  Fs2
 BYTE   W06
 BYTE   Fs0
 BYTE   N06  Cs3
 BYTE   W06
 BYTE   Fs0
 BYTE   N06  Cs3
 BYTE   N06  Dn3
 BYTE   N18  Fs3
 BYTE   W06
 BYTE   N06  Fs0
 BYTE   N06  Cs3
 BYTE   W06
 BYTE   Fs0
 BYTE   N06  Fs2
 BYTE   W06
 BYTE   Fs0
 BYTE   N06  Fs3
 BYTE   W06
 BYTE   Fs0
 BYTE   N06  Fs2
 BYTE   W06
 BYTE   Fs0
 BYTE   N06  Fs3
 BYTE   W06
 BYTE   Fs0
 BYTE   N06  Fs2
 BYTE   W06
 BYTE   Fs0
 BYTE   N06  Fs2
 BYTE   W06
 BYTE   Fs0
 BYTE   N06  Cs3
 BYTE   N12  Fs3
 BYTE   W06
 BYTE   N06  Fs0
 BYTE   N06  Dn3
 BYTE   W06
 BYTE   Fs0
 BYTE   N06  Fs2
 BYTE   N12  Cs3
 BYTE   N12  Gs3
 BYTE   W06
 BYTE   N06  Fs0
 BYTE   N06  Fs3
 BYTE   W06
//  #03 //053   ----------------------------------------
 BYTE   Fs0
 BYTE   N06  Fs2
 BYTE   N24  Bn2
 BYTE   N24  En3
 BYTE   W06
 BYTE   N06  Fs0
 BYTE   N06  Fs3
 BYTE   W06
 BYTE   Fs0
 BYTE   N06  Fs2
 BYTE   W06
 BYTE   Fs0
 BYTE   N06  Cs3
 BYTE   W06
 BYTE   Fs0
 BYTE   N06  Cs3
 BYTE   N06  Dn3
 BYTE   N48  Gs3
 BYTE   W06
 BYTE   N06  Fs0
 BYTE   N06  Cs3
 BYTE   W06
 BYTE   Fs0
 BYTE   N06  Fs2
 BYTE   W06
 BYTE   Fs0
 BYTE   N06  Fs3
 BYTE   W06
 BYTE   Fs0
 BYTE   N06  Cs4
 BYTE   W06
 BYTE   Fs0
 BYTE   N06  Ds4
 BYTE   W06
 BYTE   Fs0
 BYTE   N06  Fs2
 BYTE   W06
 BYTE   Fs0
 BYTE   N06  Dn3
 BYTE   W06
 BYTE   Fs0
 BYTE   N06  Fs2
 BYTE   N06  Cs3
 BYTE   N18  Fs3
 BYTE   W06
 BYTE   N06  Fs0
 BYTE   N06  Cs3
 BYTE   W06
 BYTE   Fs0
 BYTE   N06  Fs2
 BYTE   W06
 BYTE   Fs0
 BYTE   N06  Fs3
 BYTE   W06
//  #03 //054   ----------------------------------------
 BYTE   Dn0
 BYTE   N06  Fs2
 BYTE   N06  Fs3
 BYTE   N60  An3
 BYTE   W06
 BYTE   N06  Dn0
 BYTE   N06  Fs3
 BYTE   W06
 BYTE   Dn0
 BYTE   N06  Fs2
 BYTE   W06
 BYTE   Dn0
 BYTE   N06  Cs3
 BYTE   W06
 BYTE   Dn0
 BYTE   N06  Dn3
 BYTE   W06
 BYTE   Dn0
 BYTE   N06  Fs2
 BYTE   W06
 BYTE   Dn0
 BYTE   N06  Dn3
 BYTE   W06
 BYTE   Dn0
 BYTE   N06  Fs2
 BYTE   W06
 BYTE   Dn0
 BYTE   N06  En3
 BYTE   W06
 BYTE   Dn0
 BYTE   N06  Fs2
 BYTE   W06
 BYTE   Dn0
 BYTE   N06  An3
 BYTE   W06
 BYTE   Dn0
 BYTE   N06  Fs3
 BYTE   W06
 BYTE   Dn0
 BYTE   N06  En3
 BYTE   N12  Bn3
 BYTE   W06
 BYTE   N06  Dn0
 BYTE   N06  An3
 BYTE   W06
 BYTE   Dn0
 BYTE   N06  Bn3
 BYTE   W06
 BYTE   Dn0
 BYTE   N06  Gs4
 BYTE   W06
//  #03 //055   ----------------------------------------
 BYTE   En0
 BYTE   N06  Bn3
 BYTE   W06
 BYTE   En0
 BYTE   N06  Gs4
 BYTE   W06
 BYTE   En0
 BYTE   N06  En4
 BYTE   W06
 BYTE   En0
 BYTE   N06  Bn3
 BYTE   W06
 BYTE   En0
 BYTE   N06  An4
 BYTE   W06
 BYTE   En0
 BYTE   N06  En4
 BYTE   W06
 BYTE   En0
 BYTE   N60  Bn2
 BYTE   N60  En3
 BYTE   N06  Gs4
 BYTE   W06
 BYTE   En0
 BYTE   N06  En4
 BYTE   W06
 BYTE   En0
 BYTE   N06  Bn3
 BYTE   W06
 BYTE   En0
 BYTE   N06  Gs4
 BYTE   W06
 BYTE   En0
 BYTE   N06  Bn3
 BYTE   W06
 BYTE   En0
 BYTE   N06  En4
 BYTE   W06
 BYTE   En0
 BYTE   N06  Fs4
 BYTE   W06
 BYTE   En0
 BYTE   N06  An4
 BYTE   W06
 BYTE   En0
 BYTE   N06  Bn4
 BYTE   W06
 BYTE   En0
 BYTE   N06  Gs4
 BYTE   W06
//  #03 //056   ----------------------------------------
Label_0117F98F:
 BYTE   N06  Fs1  v088
 BYTE   W06
 BYTE   Fs0
 BYTE   W06
 BYTE   N06
 BYTE   W06
 BYTE   N06
 BYTE   W06
 BYTE   N06
 BYTE   W06
 BYTE   Fs1
 BYTE   W06
 BYTE   N06
 BYTE   W06
 BYTE   Fs0
 BYTE   W06
 BYTE   Fs1
 BYTE   W06
 BYTE   Fs0
 BYTE   W06
 BYTE   Fs1
 BYTE   W06
 BYTE   Fs0
 BYTE   W06
 BYTE   N06
 BYTE   W06
 BYTE   Fs1
 BYTE   W06
 BYTE   N06
 BYTE   W06
 BYTE   Fs0
 BYTE   W06
 BYTE   PEND 
//  #03 //057   ----------------------------------------
Label_0117F9B2:
 BYTE   N06  Fs1  v088
 BYTE   W06
 BYTE   Fs0
 BYTE   W06
 BYTE   N06
 BYTE   W06
 BYTE   Fs1
 BYTE   W06
 BYTE   Fs0
 BYTE   W06
 BYTE   Fs1
 BYTE   W06
 BYTE   N06
 BYTE   W06
 BYTE   Fs0
 BYTE   W06
 BYTE   N06
 BYTE   W06
 BYTE   Fs1
 BYTE   W06
 BYTE   Fs0
 BYTE   W06
 BYTE   Fs1
 BYTE   W06
 BYTE   Fs0
 BYTE   W06
 BYTE   Fs1
 BYTE   W06
 BYTE   N06
 BYTE   W06
 BYTE   Fs0
 BYTE   W06
 BYTE   PEND 
//  #03 //058   ----------------------------------------
 BYTE   PATT
  POIN2 Label_0117F98F
//  #03 //059   ----------------------------------------
 BYTE   PATT
  POIN2 Label_0117F9B2
//  #03 //060   ----------------------------------------
 BYTE   PATT
  POIN2 Label_0117F98F
//  #03 //061   ----------------------------------------
 BYTE   PATT
  POIN2 Label_0117F9B2
//  #03 //062   ----------------------------------------
 BYTE   PATT
  POIN2 Label_0117F98F
//  #03 //063   ----------------------------------------
 BYTE   PATT
  POIN2 Label_0117F9B2
//  #03 //064   ----------------------------------------
 BYTE   N06  Fs1  v088
 BYTE   W06
 BYTE   Fs0
 BYTE   W06
 BYTE   N06
 BYTE   W06
 BYTE   Fs1
 BYTE   W06
 BYTE   Fs0
 BYTE   W06
 BYTE   Fs1
 BYTE   W06
 BYTE   Fs0
 BYTE   W06
 BYTE   Fs1
 BYTE   W06
 BYTE   Fs0
 BYTE   W06
 BYTE   N06
 BYTE   W06
 BYTE   N06
 BYTE   W36
//  #03 //065   ----------------------------------------
 BYTE   W96
//  #03 //066   ----------------------------------------
 BYTE   W96
//  #03 //067   ----------------------------------------
 BYTE   W96
//  #03 //068   ----------------------------------------
 BYTE   W96
//  #03 //069   ----------------------------------------
 BYTE   N36  Fs1
 BYTE   W36
 BYTE   N06
 BYTE   W06
 BYTE   N06
 BYTE   W06
 BYTE   N36  Dn1
 BYTE   W36
 BYTE   N06
 BYTE   W06
 BYTE   Fs1
 BYTE   W06
//  #03 //070   ----------------------------------------
 BYTE   N36  En1
 BYTE   W36
 BYTE   N12  Gs1
 BYTE   W12
 BYTE   N24  An1
 BYTE   W24
 BYTE   N12  En1
 BYTE   W12
 BYTE   En2
 BYTE   W12
//  #03 //071   ----------------------------------------
 BYTE   N36  Dn1
 BYTE   W36
 BYTE   N06
 BYTE   W06
 BYTE   Dn2
 BYTE   W06
 BYTE   N36  Cs1
 BYTE   W36
 BYTE   N06
 BYTE   W06
 BYTE   An0
 BYTE   W06
//  #03 //072   ----------------------------------------
 BYTE   N48  Bn0
 BYTE   W48
 BYTE   TIE
 BYTE   W48
//  #03 //073   ----------------------------------------
 BYTE   W60
 BYTE   N06  Fs2
 BYTE   W06
 BYTE   N12  An2
 BYTE   W12
 BYTE   N18  En3
 BYTE   W18
//  #03 //074   ----------------------------------------
 BYTE   EOT
 BYTE   Bn0
 BYTE   N06  Dn1
 BYTE   N06  Dn3
 BYTE   N06  Fs3
 BYTE   N06  An3
 BYTE   W06
 BYTE   Dn1
 BYTE   N06  Dn3
 BYTE   N06  Fs3
 BYTE   N06  An3
 BYTE   W06
 BYTE   Dn1
 BYTE   N06  Dn3
 BYTE   N06  Fs3
 BYTE   N06  An3
 BYTE   W06
 BYTE   Dn1
 BYTE   N06  Dn3
 BYTE   N06  Fs3
 BYTE   N06  An3
 BYTE   W06
 BYTE   Dn1
 BYTE   N06  Dn3
 BYTE   N06  Fs3
 BYTE   N06  An3
 BYTE   W06
 BYTE   Dn1
 BYTE   N06  Dn3
 BYTE   N06  Fs3
 BYTE   N06  An3
 BYTE   W06
 BYTE   Dn1
 BYTE   N06  Dn3
 BYTE   N06  Fs3
 BYTE   N06  An3
 BYTE   W06
 BYTE   Dn1
 BYTE   N06  Dn3
 BYTE   N06  Fs3
 BYTE   N06  An3
 BYTE   W06
 BYTE   En1
 BYTE   N06  En3
 BYTE   N06  An3
 BYTE   W06
 BYTE   En1
 BYTE   N06  En3
 BYTE   N06  An3
 BYTE   W06
 BYTE   En1
 BYTE   N06  En3
 BYTE   N06  An3
 BYTE   W06
 BYTE   En1
 BYTE   N06  En3
 BYTE   N06  An3
 BYTE   W06
 BYTE   En1
 BYTE   N06  En3
 BYTE   N06  An3
 BYTE   N36  Bn3
 BYTE   W06
 BYTE   N06  En1
 BYTE   N06  En3
 BYTE   N06  An3
 BYTE   W06
 BYTE   En1
 BYTE   N06  En3
 BYTE   N06  An3
 BYTE   W06
 BYTE   En1
 BYTE   N06  En3
 BYTE   N06  An3
 BYTE   W06
//  #03 //075   ----------------------------------------
 BYTE   Fs1
 BYTE   N06  Fs3
 BYTE   N06  An3
 BYTE   N06  Cs4
 BYTE   W06
 BYTE   Fs1
 BYTE   N06  Fs3
 BYTE   N06  An3
 BYTE   N06  Cs4
 BYTE   W06
 BYTE   Fs1
 BYTE   N06  Fs3
 BYTE   N06  An3
 BYTE   N06  Cs4
 BYTE   W06
 BYTE   Fs1
 BYTE   N06  Fs3
 BYTE   N06  An3
 BYTE   N06  Cs4
 BYTE   W06
 BYTE   Fs1
 BYTE   N12  En3
 BYTE   N06  Fs3
 BYTE   N06  An3
 BYTE   N12  Bn3
 BYTE   N06  Cs4
 BYTE   W06
 BYTE   Fs1
 BYTE   N06  Fs3
 BYTE   N06  An3
 BYTE   N06  Cs4
 BYTE   W06
 BYTE   Fs1
 BYTE   N60  Cs3
 BYTE   N06  Fs3
 BYTE   N06  An3
 BYTE   N06  Cs4
 BYTE   W06
 BYTE   Fs1
 BYTE   N06  Fs3
 BYTE   N06  An3
 BYTE   N06  Cs4
 BYTE   W06
 BYTE   Cs1
 BYTE   N06  En3
 BYTE   N06  Gs3
 BYTE   N06  Cs4
 BYTE   W06
 BYTE   Cs1
 BYTE   N06  En3
 BYTE   N06  Gs3
 BYTE   N06  Cs4
 BYTE   W06
 BYTE   Cs1
 BYTE   N06  En3
 BYTE   N06  Gs3
 BYTE   N06  Cs4
 BYTE   W06
 BYTE   Cs1
 BYTE   N06  En3
 BYTE   N06  Gs3
 BYTE   N06  Cs4
 BYTE   W06
 BYTE   Cs1
 BYTE   N06  En3
 BYTE   N06  Gs3
 BYTE   N06  Cs4
 BYTE   W06
 BYTE   Cs1
 BYTE   N06  En3
 BYTE   N06  Gs3
 BYTE   N06  Cs4
 BYTE   W06
 BYTE   Cs1
 BYTE   N06  En3
 BYTE   N06  Gs3
 BYTE   N06  Cs4
 BYTE   W06
 BYTE   Cs1
 BYTE   N06  En3
 BYTE   N06  Gs3
 BYTE   N06  Cs4
 BYTE   W06
//  #03 //076   ----------------------------------------
 BYTE   Dn1
 BYTE   N24  An2
 BYTE   N06  Dn3
 BYTE   N24  En3
 BYTE   N06  Fs3
 BYTE   N06  An3
 BYTE   W06
 BYTE   Dn1
 BYTE   N06  Dn3
 BYTE   N06  Fs3
 BYTE   N06  An3
 BYTE   W06
 BYTE   Dn1
 BYTE   N06  Dn3
 BYTE   N06  Fs3
 BYTE   N06  An3
 BYTE   W06
 BYTE   Dn1
 BYTE   N06  Dn3
 BYTE   N06  Fs3
 BYTE   N06  An3
 BYTE   W06
 BYTE   Dn1
 BYTE   N24  Bn2
 BYTE   N06  Dn3
 BYTE   N06  Fs3
 BYTE   N06  An3
 BYTE   W06
 BYTE   Dn1
 BYTE   N06  Dn3
 BYTE   N06  Fs3
 BYTE   N06  An3
 BYTE   W06
 BYTE   Dn1
 BYTE   N06  Dn3
 BYTE   N06  Fs3
 BYTE   N06  An3
 BYTE   W06
 BYTE   Dn1
 BYTE   N06  Dn3
 BYTE   N06  Fs3
 BYTE   N06  An3
 BYTE   W06
 BYTE   En1
 BYTE   N24  Bn2
 BYTE   N06  En3
 BYTE   N24  Fs3
 BYTE   N06  An3
 BYTE   W06
 BYTE   En1
 BYTE   N06  En3
 BYTE   N06  An3
 BYTE   W06
 BYTE   En1
 BYTE   N06  En3
 BYTE   N06  An3
 BYTE   W06
 BYTE   En1
 BYTE   N06  En3
 BYTE   N06  An3
 BYTE   W06
 BYTE   En1
 BYTE   N24  An2
 BYTE   N06  En3
 BYTE   N06  An3
 BYTE   W06
 BYTE   En1
 BYTE   N06  En3
 BYTE   N06  An3
 BYTE   W06
 BYTE   En1
 BYTE   N06  En3
 BYTE   N06  An3
 BYTE   W06
 BYTE   En1
 BYTE   N06  En3
 BYTE   N06  An3
 BYTE   W06
//  #03 //077   ----------------------------------------
 BYTE   Fs1
 BYTE   N24  Gs2
 BYTE   N24  Bn2
 BYTE   N06  Fs3
 BYTE   N06  An3
 BYTE   N06  Cs4
 BYTE   W06
 BYTE   Fs1
 BYTE   N06  Fs3
 BYTE   N06  An3
 BYTE   N06  Cs4
 BYTE   W06
 BYTE   Fs1
 BYTE   N06  Fs3
 BYTE   N06  An3
 BYTE   N06  Cs4
 BYTE   W06
 BYTE   Fs1
 BYTE   N06  Fs3
 BYTE   N06  An3
 BYTE   N06  Cs4
 BYTE   W06
 BYTE   Fs1
 BYTE   N72  An2
 BYTE   N48  En3
 BYTE   N06  Fs3
 BYTE   N06  An3
 BYTE   N06  Cs4
 BYTE   W06
 BYTE   Fs1
 BYTE   N06  Fs3
 BYTE   N06  An3
 BYTE   N06  Cs4
 BYTE   W06
 BYTE   Fs1
 BYTE   N06  Fs3
 BYTE   N06  An3
 BYTE   N06  Cs4
 BYTE   W06
 BYTE   Fs1
 BYTE   N06  Fs3
 BYTE   N06  An3
 BYTE   N06  Cs4
 BYTE   W06
 BYTE   Fs0
 BYTE   N06  Fs3
 BYTE   N06  An3
 BYTE   N06  Cs4
 BYTE   W06
 BYTE   Fs0
 BYTE   N06  Fs3
 BYTE   N06  An3
 BYTE   N06  Cs4
 BYTE   W06
 BYTE   Fs0
 BYTE   N06  Fs3
 BYTE   N06  An3
 BYTE   N06  Cs4
 BYTE   W06
 BYTE   Fs0
 BYTE   N06  Fs3
 BYTE   N06  An3
 BYTE   N06  Cs4
 BYTE   W06
 BYTE   Cs1
 BYTE   N06  En3
 BYTE   N06  Gs3
 BYTE   N06  Cs4
 BYTE   W06
 BYTE   Cs1
 BYTE   N06  En3
 BYTE   N06  Gs3
 BYTE   N06  Cs4
 BYTE   W06
 BYTE   Cs1
 BYTE   N06  En3
 BYTE   N06  Gs3
 BYTE   N06  Cs4
 BYTE   W06
 BYTE   Cs1
 BYTE   N06  En3
 BYTE   N06  Gs3
 BYTE   N06  Cs4
 BYTE   W06
//  #03 //078   ----------------------------------------
 BYTE   Dn1
 BYTE   N06  Dn3
 BYTE   N06  Fs3
 BYTE   N06  An3
 BYTE   W06
 BYTE   Dn1
 BYTE   N06  Dn3
 BYTE   N06  Fs3
 BYTE   N06  An3
 BYTE   W06
 BYTE   Dn1
 BYTE   N06  Dn3
 BYTE   N06  Fs3
 BYTE   N06  An3
 BYTE   W06
 BYTE   Dn1
 BYTE   N06  Dn3
 BYTE   N06  Fs3
 BYTE   N06  An3
 BYTE   W06
 BYTE   Dn1
 BYTE   N06  Dn3
 BYTE   N06  Fs3
 BYTE   N06  An3
 BYTE   N24  Cs4
 BYTE   W06
 BYTE   N06  Dn1
 BYTE   N06  Dn3
 BYTE   N06  Fs3
 BYTE   N06  An3
 BYTE   W06
 BYTE   Dn1
 BYTE   N06  Dn3
 BYTE   N06  Fs3
 BYTE   N06  An3
 BYTE   W06
 BYTE   Dn1
 BYTE   N06  Dn3
 BYTE   N06  Fs3
 BYTE   N06  An3
 BYTE   W06
 BYTE   En1
 BYTE   N06  En3
 BYTE   N24  Gs3
 BYTE   N06  An3
 BYTE   N24  Bn3
 BYTE   W06
 BYTE   N06  En1
 BYTE   N06  En3
 BYTE   N06  An3
 BYTE   W06
 BYTE   En1
 BYTE   N06  En3
 BYTE   N06  An3
 BYTE   W06
 BYTE   En1
 BYTE   N06  En3
 BYTE   N06  An3
 BYTE   W06
 BYTE   En1
 BYTE   N06  En3
 BYTE   N24  Fs3
 BYTE   N06  An3
 BYTE   W06
 BYTE   En1
 BYTE   N06  En3
 BYTE   N06  An3
 BYTE   W06
 BYTE   En1
 BYTE   N06  En3
 BYTE   N06  An3
 BYTE   W06
 BYTE   En1
 BYTE   N06  En3
 BYTE   N06  An3
 BYTE   W06
//  #03 //079   ----------------------------------------
 BYTE   Fs1
 BYTE   N06  Fs3
 BYTE   N06  Gs3
 BYTE   N06  An3
 BYTE   N06  Bn3
 BYTE   N06  Cs4
 BYTE   W06
 BYTE   Fs1
 BYTE   N06  Fs3
 BYTE   N06  An3
 BYTE   N06  Cs4
 BYTE   W06
 BYTE   Fs1
 BYTE   N06  Fs3
 BYTE   N06  An3
 BYTE   N06  Cs4
 BYTE   W06
 BYTE   Fs1
 BYTE   N06  Fs3
 BYTE   N06  An3
 BYTE   N06  Cs4
 BYTE   W06
 BYTE   Fs1
 BYTE   N06  Fs3
 BYTE   N06  An3
 BYTE   N06  Cs4
 BYTE   W06
 BYTE   Fs1
 BYTE   N06  Fs3
 BYTE   N06  An3
 BYTE   N06  Cs4
 BYTE   W06
 BYTE   Fs1
 BYTE   N06  Cs3
 BYTE   N06  Fs3
 BYTE   N06  An3
 BYTE   N06  Cs4
 BYTE   W06
 BYTE   Bn1
 BYTE   N18  En3
 BYTE   N06  Fs3
 BYTE   N06  An3
 BYTE   N06  Cs4
 BYTE   W06
 BYTE   Bn1
 BYTE   N06  Fs3
 BYTE   N06  An3
 BYTE   N06  Cs4
 BYTE   W06
 BYTE   Cs2
 BYTE   N06  Fs3
 BYTE   N06  An3
 BYTE   N06  Cs4
 BYTE   W06
 BYTE   Bn1
 BYTE   N12  Gs2
 BYTE   N12  Cs3
 BYTE   N06  Fs3
 BYTE   N06  An3
 BYTE   N06  Cs4
 BYTE   W06
 BYTE   An1
 BYTE   N06  Fs3
 BYTE   N06  An3
 BYTE   N06  Cs4
 BYTE   W06
 BYTE   Fs1
 BYTE   N24  An2
 BYTE   N24  En3
 BYTE   N06  Fs3
 BYTE   N06  An3
 BYTE   N06  Cs4
 BYTE   W06
 BYTE   Fs1
 BYTE   N06  Fs3
 BYTE   N06  An3
 BYTE   N06  Cs4
 BYTE   W06
 BYTE   Fs1
 BYTE   N06  Fs3
 BYTE   N06  An3
 BYTE   N06  Cs4
 BYTE   W06
 BYTE   Fs1
 BYTE   N06  Fs3
 BYTE   N06  An3
 BYTE   N06  Cs4
 BYTE   W06
//  #03 //080   ----------------------------------------
 BYTE   Bn0
 BYTE   N42  Cs3
 BYTE   N06  Dn3
 BYTE   N06  Fs3
 BYTE   N06  An3
 BYTE   W06
 BYTE   Bn0
 BYTE   N06  Dn3
 BYTE   N06  Fs3
 BYTE   N06  An3
 BYTE   W06
 BYTE   Bn0
 BYTE   N06  Dn3
 BYTE   N06  Fs3
 BYTE   N06  An3
 BYTE   W06
 BYTE   Bn0
 BYTE   N06  Dn3
 BYTE   N06  Fs3
 BYTE   N06  An3
 BYTE   W06
 BYTE   Bn0
 BYTE   N06  Dn3
 BYTE   N06  Fs3
 BYTE   N06  An3
 BYTE   W06
 BYTE   Bn0
 BYTE   N06  Dn3
 BYTE   N06  Fs3
 BYTE   N06  An3
 BYTE   W06
 BYTE   Bn0
 BYTE   N06  Dn3
 BYTE   N06  Fs3
 BYTE   N06  An3
 BYTE   W06
 BYTE   Bn0
 BYTE   N06  Bn2
 BYTE   N06  Dn3
 BYTE   N06  En3
 BYTE   N06  Fs3
 BYTE   N06  An3
 BYTE   W06
 BYTE   Cs1
 BYTE   N06  En3
 BYTE   N06  An3
 BYTE   W06
 BYTE   Cs1
 BYTE   N06  En3
 BYTE   N06  An3
 BYTE   W06
 BYTE   Cs1
 BYTE   N06  En3
 BYTE   N06  An3
 BYTE   W06
 BYTE   Cs1
 BYTE   N06  En3
 BYTE   N06  An3
 BYTE   W06
 BYTE   Cs1
 BYTE   N06  En3
 BYTE   N24  Gs3
 BYTE   N06  An3
 BYTE   W06
 BYTE   Cs1
 BYTE   N06  En3
 BYTE   N06  An3
 BYTE   W06
 BYTE   Cs1
 BYTE   N06  En3
 BYTE   N06  An3
 BYTE   W06
 BYTE   Cs1
 BYTE   N06  En3
 BYTE   N06  An3
 BYTE   W06
//  #03 //081   ----------------------------------------
 BYTE   Fs1
 BYTE   N06  Fs3
 BYTE   N06  An3
 BYTE   W06
 BYTE   Fs1
 BYTE   N06  Fs3
 BYTE   N06  An3
 BYTE   W06
 BYTE   Fs1
 BYTE   N06  Fs3
 BYTE   N06  An3
 BYTE   W06
 BYTE   Fs1
 BYTE   N06  Fs3
 BYTE   N06  An3
 BYTE   W06
 BYTE   Fs1
 BYTE   N06  Fs3
 BYTE   N06  An3
 BYTE   N48  Bn3
 BYTE   W06
 BYTE   N06  Cs1
 BYTE   N06  Fs3
 BYTE   N06  An3
 BYTE   W06
 BYTE   Fs0
 BYTE   N06  Fs3
 BYTE   N06  An3
 BYTE   W06
 BYTE   N12  Fs1
 BYTE   N06  Fs3
 BYTE   N06  An3
 BYTE   W06
 BYTE   Fs3
 BYTE   N06  An3
 BYTE   W06
 BYTE   Fs1
 BYTE   N06  Fs3
 BYTE   N06  An3
 BYTE   W06
 BYTE   Fs1
 BYTE   N06  Fs3
 BYTE   N06  An3
 BYTE   W06
 BYTE   Fs1
 BYTE   N06  Fs3
 BYTE   N06  An3
 BYTE   W06
 BYTE   Fs1
 BYTE   N06  Fs3
 BYTE   N06  An3
 BYTE   W06
 BYTE   Fs1
 BYTE   N06  Fs3
 BYTE   N06  An3
 BYTE   W06
 BYTE   Fs1
 BYTE   N06  Fs3
 BYTE   N06  An3
 BYTE   W06
 BYTE   Fs1
 BYTE   N06  Fs3
 BYTE   N06  An3
 BYTE   W06
//  #03 //082   ----------------------------------------
Label_0117FE2C:
 BYTE   N06  Dn1  v088
 BYTE   N06  Dn3
 BYTE   N06  Fs3
 BYTE   N06  An3
 BYTE   W06
 BYTE   Dn1
 BYTE   N06  Dn3
 BYTE   N06  Fs3
 BYTE   N06  An3
 BYTE   W06
 BYTE   Dn1
 BYTE   N06  Dn3
 BYTE   N06  Fs3
 BYTE   N06  An3
 BYTE   W06
 BYTE   Dn1
 BYTE   N06  Dn3
 BYTE   N06  Fs3
 BYTE   N06  An3
 BYTE   W06
 BYTE   Dn1
 BYTE   N06  Dn3
 BYTE   N06  Fs3
 BYTE   N06  An3
 BYTE   W06
 BYTE   Dn1
 BYTE   N06  Dn3
 BYTE   N06  Fs3
 BYTE   N06  An3
 BYTE   W06
 BYTE   Dn1
 BYTE   N06  Dn3
 BYTE   N06  Fs3
 BYTE   N06  An3
 BYTE   W06
 BYTE   Dn1
 BYTE   N06  Dn3
 BYTE   N06  Fs3
 BYTE   N06  An3
 BYTE   W06
 BYTE   En1
 BYTE   N06  En3
 BYTE   N06  An3
 BYTE   W06
 BYTE   En1
 BYTE   N06  En3
 BYTE   N06  An3
 BYTE   W06
 BYTE   En1
 BYTE   N06  En3
 BYTE   N06  An3
 BYTE   W06
 BYTE   En1
 BYTE   N06  En3
 BYTE   N06  An3
 BYTE   W06
 BYTE   En1
 BYTE   N06  En3
 BYTE   N06  An3
 BYTE   W06
 BYTE   En1
 BYTE   N06  En3
 BYTE   N06  An3
 BYTE   W06
 BYTE   En1
 BYTE   N06  En3
 BYTE   N06  An3
 BYTE   W06
 BYTE   En1
 BYTE   N06  En3
 BYTE   N06  An3
 BYTE   W06
 BYTE   PEND 
//  #03 //083   ----------------------------------------
Label_0117FE9F:
 BYTE   N06  Fs1  v088
 BYTE   N06  Fs3
 BYTE   N06  An3
 BYTE   N06  Cs4
 BYTE   W06
 BYTE   Fs1
 BYTE   N06  Fs3
 BYTE   N06  An3
 BYTE   N06  Cs4
 BYTE   W06
 BYTE   Fs1
 BYTE   N06  Fs3
 BYTE   N06  An3
 BYTE   N06  Cs4
 BYTE   W06
 BYTE   Fs1
 BYTE   N06  Fs3
 BYTE   N06  An3
 BYTE   N06  Cs4
 BYTE   W06
 BYTE   Fs1
 BYTE   N06  Fs3
 BYTE   N06  An3
 BYTE   N06  Cs4
 BYTE   W06
 BYTE   Fs1
 BYTE   N06  Fs3
 BYTE   N06  An3
 BYTE   N06  Cs4
 BYTE   W06
 BYTE   Fs1
 BYTE   N06  Fs3
 BYTE   N06  An3
 BYTE   N06  Cs4
 BYTE   W06
 BYTE   Fs1
 BYTE   N06  Fs3
 BYTE   N06  An3
 BYTE   N06  Cs4
 BYTE   W06
 BYTE   Fs1
 BYTE   N06  Fs3
 BYTE   N06  An3
 BYTE   N06  Cs4
 BYTE   W06
 BYTE   Fs1
 BYTE   N06  Fs3
 BYTE   N06  An3
 BYTE   N06  Cs4
 BYTE   W06
 BYTE   Fs1
 BYTE   N06  Fs3
 BYTE   N06  An3
 BYTE   N06  Cs4
 BYTE   W06
 BYTE   Fs1
 BYTE   N06  Fs3
 BYTE   N06  An3
 BYTE   N06  Cs4
 BYTE   W06
 BYTE   Cs1
 BYTE   N24  Cs3
 BYTE   N06  En3
 BYTE   N06  Gs3
 BYTE   N06  Cs4
 BYTE   W06
 BYTE   Cs1
 BYTE   N06  En3
 BYTE   N06  Gs3
 BYTE   N06  Cs4
 BYTE   W06
 BYTE   Cs1
 BYTE   N06  En3
 BYTE   N06  Gs3
 BYTE   N06  Cs4
 BYTE   W06
 BYTE   Cs1
 BYTE   N06  En3
 BYTE   N06  Gs3
 BYTE   N06  Cs4
 BYTE   W06
 BYTE   PEND 
//  #03 //084   ----------------------------------------
 BYTE   PATT
  POIN2 Label_0117FE2C
//  #03 //085   ----------------------------------------
 BYTE   PATT
  POIN2 Label_0117FE9F
//  #03 //086   ----------------------------------------
 BYTE   N06  Dn1  v088
 BYTE   N24  Cs3
 BYTE   N06  Dn3
 BYTE   N24  En3
 BYTE   N06  Fs3
 BYTE   N06  An3
 BYTE   W06
 BYTE   Dn1
 BYTE   N06  Dn3
 BYTE   N06  Fs3
 BYTE   N06  An3
 BYTE   W06
 BYTE   Dn1
 BYTE   N06  Dn3
 BYTE   N06  Fs3
 BYTE   N06  An3
 BYTE   W06
 BYTE   Dn1
 BYTE   N06  Dn3
 BYTE   N06  Fs3
 BYTE   N06  An3
 BYTE   W06
 BYTE   Dn1
 BYTE   N06  Dn3
 BYTE   N06  Fs3
 BYTE   N06  An3
 BYTE   W06
 BYTE   Dn1
 BYTE   N06  Dn3
 BYTE   N06  Fs3
 BYTE   N06  An3
 BYTE   W06
 BYTE   Dn1
 BYTE   N06  Dn3
 BYTE   N06  Fs3
 BYTE   N06  An3
 BYTE   W06
 BYTE   Dn1
 BYTE   N06  Dn3
 BYTE   N06  Fs3
 BYTE   N06  An3
 BYTE   W06
 BYTE   En1
 BYTE   N06  En3
 BYTE   N24  Gs3
 BYTE   N06  An3
 BYTE   W06
 BYTE   En1
 BYTE   N06  En3
 BYTE   N06  An3
 BYTE   W06
 BYTE   En1
 BYTE   N06  En3
 BYTE   N06  An3
 BYTE   W06
 BYTE   En1
 BYTE   N06  En3
 BYTE   N06  An3
 BYTE   W06
 BYTE   En1
 BYTE   N24  Bn2
 BYTE   N06  En3
 BYTE   N06  An3
 BYTE   W06
 BYTE   En1
 BYTE   N06  En3
 BYTE   N06  An3
 BYTE   W06
 BYTE   En1
 BYTE   N06  En3
 BYTE   N06  An3
 BYTE   W06
 BYTE   En1
 BYTE   N06  En3
 BYTE   N06  An3
 BYTE   W06
//  #03 //087   ----------------------------------------
 BYTE   Fs1
 BYTE   N72  Cs3
 BYTE   N06  Fs3
 BYTE   N06  An3
 BYTE   N06  Cs4
 BYTE   W06
 BYTE   Fs1
 BYTE   N06  Fs3
 BYTE   N06  An3
 BYTE   N06  Cs4
 BYTE   W06
 BYTE   Fs1
 BYTE   N06  Fs3
 BYTE   N06  An3
 BYTE   N06  Cs4
 BYTE   W06
 BYTE   Fs1
 BYTE   N06  Fs3
 BYTE   N06  An3
 BYTE   N06  Cs4
 BYTE   W06
 BYTE   Fs1
 BYTE   N06  Fs3
 BYTE   N06  An3
 BYTE   N06  Cs4
 BYTE   W06
 BYTE   Fs1
 BYTE   N06  Fs3
 BYTE   N06  An3
 BYTE   N06  Cs4
 BYTE   W06
 BYTE   Fs1
 BYTE   N06  Fs3
 BYTE   N06  An3
 BYTE   N06  Cs4
 BYTE   W06
 BYTE   Fs1
 BYTE   N06  Fs3
 BYTE   N06  An3
 BYTE   N06  Cs4
 BYTE   W06
 BYTE   Fs1
 BYTE   N06  Fs3
 BYTE   N06  An3
 BYTE   N06  Cs4
 BYTE   W06
 BYTE   Fs1
 BYTE   N06  Fs3
 BYTE   N06  An3
 BYTE   N06  Cs4
 BYTE   W06
 BYTE   Fs1
 BYTE   N06  Fs3
 BYTE   N06  An3
 BYTE   N06  Cs4
 BYTE   W06
 BYTE   Fs1
 BYTE   N06  Fs3
 BYTE   N06  An3
 BYTE   N06  Cs4
 BYTE   W06
 BYTE   Fs1
 BYTE   N24  Cs3
 BYTE   N24  En3
 BYTE   N06  Fs3
 BYTE   N06  An3
 BYTE   N06  Cs4
 BYTE   W06
 BYTE   Fs1
 BYTE   N06  Fs3
 BYTE   N06  An3
 BYTE   N06  Cs4
 BYTE   W06
 BYTE   Fs1
 BYTE   N06  Fs3
 BYTE   N06  An3
 BYTE   N06  Cs4
 BYTE   W06
 BYTE   Fs1
 BYTE   N06  Fs3
 BYTE   N06  An3
 BYTE   N06  Cs4
 BYTE   W06
//  #03 //088   ----------------------------------------
 BYTE   Dn1
 BYTE   N24  Cs3
 BYTE   N06  Dn3
 BYTE   N06  Fs3
 BYTE   N06  An3
 BYTE   W06
 BYTE   Dn1
 BYTE   N06  Dn3
 BYTE   N06  Fs3
 BYTE   N06  An3
 BYTE   W06
 BYTE   Dn1
 BYTE   N06  Dn3
 BYTE   N06  Fs3
 BYTE   N06  An3
 BYTE   W06
 BYTE   Dn1
 BYTE   N06  Dn3
 BYTE   N06  Fs3
 BYTE   N06  An3
 BYTE   W06
 BYTE   Dn1
 BYTE   N06  Dn3
 BYTE   N24  En3
 BYTE   N06  Fs3
 BYTE   N06  An3
 BYTE   W06
 BYTE   Dn1
 BYTE   N06  Dn3
 BYTE   N06  Fs3
 BYTE   N06  An3
 BYTE   W06
 BYTE   Dn1
 BYTE   N06  Dn3
 BYTE   N06  Fs3
 BYTE   N06  An3
 BYTE   W06
 BYTE   Dn1
 BYTE   N06  Dn3
 BYTE   N06  Fs3
 BYTE   N06  An3
 BYTE   W06
 BYTE   Cs1
 BYTE   N06  En3
 BYTE   N06  An3
 BYTE   W06
 BYTE   Cs1
 BYTE   N06  En3
 BYTE   N06  An3
 BYTE   W06
 BYTE   Cs1
 BYTE   N06  En3
 BYTE   N06  An3
 BYTE   W06
 BYTE   Cs1
 BYTE   N06  En3
 BYTE   N06  An3
 BYTE   W06
 BYTE   Cs1
 BYTE   N06  En3
 BYTE   N24  Gs3
 BYTE   N06  An3
 BYTE   N24  Bn3
 BYTE   W06
 BYTE   N06  Cs1
 BYTE   N06  En3
 BYTE   N06  An3
 BYTE   W06
 BYTE   Cs1
 BYTE   N06  En3
 BYTE   N06  An3
 BYTE   W06
 BYTE   Cs1
 BYTE   N06  En3
 BYTE   N06  An3
 BYTE   W06
//  #03 //089   ----------------------------------------
 BYTE   N96  Fs1
 BYTE   N12  En3
 BYTE   N12  Fs3
 BYTE   N12  Gs3
 BYTE   N12  An3
 BYTE   W12
 BYTE   N84  Fs3
 BYTE   N84  An3
 BYTE   W84
//  #03 //090   ----------------------------------------
Label_011800B7:
 BYTE   N06  Fs0  v088
 BYTE   N06  Fs2
 BYTE   W06
 BYTE   Fs0
 BYTE   N06  Fs3
 BYTE   W06
 BYTE   Fs0
 BYTE   N06  Fs2
 BYTE   W06
 BYTE   En1
 BYTE   N06  Cs3
 BYTE   W06
 BYTE   Fs1
 BYTE   N06  Dn3
 BYTE   W06
 BYTE   Fs1
 BYTE   N06  Cs3
 BYTE   W06
 BYTE   Fs1
 BYTE   N06  Fs2
 BYTE   W06
 BYTE   En1
 BYTE   N06  Fs3
 BYTE   W06
 BYTE   Fs1
 BYTE   N06  Fs2
 BYTE   W06
 BYTE   Fs1
 BYTE   N06  Fs3
 BYTE   W06
 BYTE   Fs1
 BYTE   N06  Fs2
 BYTE   W06
 BYTE   En1
 BYTE   N06  Fs2
 BYTE   W06
 BYTE   Fs1
 BYTE   N06  Cs3
 BYTE   W06
 BYTE   En1
 BYTE   N06  Dn3
 BYTE   W06
 BYTE   Cs1
 BYTE   N06  Fs2
 BYTE   W06
 BYTE   An0
 BYTE   N06  Fs3
 BYTE   W06
 BYTE   PEND 
//  #03 //091   ----------------------------------------
Label_011800FA:
 BYTE   N06  Fs0  v088
 BYTE   N06  Fs2
 BYTE   W06
 BYTE   Fs0
 BYTE   N06  Fs3
 BYTE   W06
 BYTE   Fs0
 BYTE   N06  Fs2
 BYTE   W06
 BYTE   En1
 BYTE   N06  Cs3
 BYTE   W06
 BYTE   Fs1
 BYTE   N06  Dn3
 BYTE   W06
 BYTE   Fs1
 BYTE   N06  Cs3
 BYTE   W06
 BYTE   Fs1
 BYTE   N06  Fs2
 BYTE   W06
 BYTE   Cs1
 BYTE   N06  Fs3
 BYTE   W06
 BYTE   En1
 BYTE   N06  Cs4
 BYTE   W06
 BYTE   Cs1
 BYTE   N06  Ds4
 BYTE   W06
 BYTE   En1
 BYTE   N06  Fs2
 BYTE   W06
 BYTE   Fs1
 BYTE   N06  Dn3
 BYTE   W06
 BYTE   En1
 BYTE   N06  Fs2
 BYTE   W06
 BYTE   Cs1
 BYTE   N06  Cs3
 BYTE   W06
 BYTE   Bn0
 BYTE   N06  Fs2
 BYTE   W06
 BYTE   An0
 BYTE   N06  Fs3
 BYTE   W06
 BYTE   PEND 
//  #03 //092   ----------------------------------------
 BYTE   PATT
  POIN2 Label_011800B7
//  #03 //093   ----------------------------------------
 BYTE   N06  Fs0  v088
 BYTE   N06  Fs2
 BYTE   W06
 BYTE   Fs0
 BYTE   N06  Fs3
 BYTE   W06
 BYTE   Fs1
 BYTE   N06  Fs2
 BYTE   W06
 BYTE   En1
 BYTE   N06  Cs3
 BYTE   W06
 BYTE   Cs1
 BYTE   N06  Dn3
 BYTE   W06
 BYTE   An0
 BYTE   N06  Cs3
 BYTE   W06
 BYTE   Bn0
 BYTE   N06  Fs2
 BYTE   W06
 BYTE   Cs1
 BYTE   N06  Fs3
 BYTE   W06
 BYTE   Fs0
 BYTE   N06  Cs4
 BYTE   W06
 BYTE   Fs0
 BYTE   N06  Ds4
 BYTE   W06
 BYTE   Fs0
 BYTE   N06  Fs2
 BYTE   W06
 BYTE   Fs1
 BYTE   N06  Dn3
 BYTE   W06
 BYTE   Fs0
 BYTE   N06  Fs2
 BYTE   W06
 BYTE   Fs0
 BYTE   N06  Cs3
 BYTE   W06
 BYTE   Fs0
 BYTE   N06  Fs2
 BYTE   W06
 BYTE   Fs0
 BYTE   N06  Fs3
 BYTE   W06
//  #03 //094   ----------------------------------------
 BYTE   PATT
  POIN2 Label_011800B7
//  #03 //095   ----------------------------------------
 BYTE   PATT
  POIN2 Label_011800FA
//  #03 //096   ----------------------------------------
 BYTE   N06  Dn0  v088
 BYTE   N06  Fs2
 BYTE   W06
 BYTE   Dn0
 BYTE   N06  Fs3
 BYTE   W06
 BYTE   Dn0
 BYTE   N06  Fs2
 BYTE   W06
 BYTE   Cs1
 BYTE   N06  Cs3
 BYTE   W06
 BYTE   Dn1
 BYTE   N06  Dn3
 BYTE   W06
 BYTE   Dn1
 BYTE   N06  Cs3
 BYTE   W06
 BYTE   Dn1
 BYTE   N06  Fs2
 BYTE   W06
 BYTE   Cs1
 BYTE   N06  Fs3
 BYTE   W06
 BYTE   Dn1
 BYTE   N06  Fs2
 BYTE   W06
 BYTE   Dn1
 BYTE   N06  Fs3
 BYTE   W06
 BYTE   Dn1
 BYTE   N06  Fs2
 BYTE   W06
 BYTE   Cs1
 BYTE   N06  Fs2
 BYTE   W06
 BYTE   Dn1
 BYTE   N06  Cs3
 BYTE   W06
 BYTE   Cs1
 BYTE   N06  Dn3
 BYTE   W06
 BYTE   An0
 BYTE   N06  Fs2
 BYTE   W06
 BYTE   Fs0
 BYTE   N06  Fs3
 BYTE   W06
//  #03 //097   ----------------------------------------
 BYTE   En0
 BYTE   N06  Fs2
 BYTE   W06
 BYTE   En0
 BYTE   N06  Fs3
 BYTE   W06
 BYTE   En1
 BYTE   N06  Fs2
 BYTE   W06
 BYTE   Dn1
 BYTE   N06  Cs3
 BYTE   W06
 BYTE   Bn0
 BYTE   N06  Dn3
 BYTE   W06
 BYTE   Fs0
 BYTE   N06  Cs3
 BYTE   W06
 BYTE   An0
 BYTE   N06  Fs2
 BYTE   W06
 BYTE   Bn0
 BYTE   N06  Fs3
 BYTE   W06
 BYTE   En0
 BYTE   N06  Cs4
 BYTE   W06
 BYTE   En0
 BYTE   N06  Ds4
 BYTE   W06
 BYTE   En0
 BYTE   N06  Fs2
 BYTE   W06
 BYTE   En1
 BYTE   N06  Dn3
 BYTE   W06
 BYTE   En0
 BYTE   N06  Fs2
 BYTE   W06
 BYTE   En0
 BYTE   N06  Cs3
 BYTE   W06
 BYTE   En0
 BYTE   N06  Fs2
 BYTE   W06
 BYTE   GoTo
  POIN2 Label_0117F020
//  #03 //098   ----------------------------------------
 BYTE   N06  En0  v088
 BYTE   N06  Fs3
 BYTE   W06
 BYTE   W96
//  #03 //099   ----------------------------------------
 BYTE   W96
 BYTE   FINE

//**************** Track 4 (Midi-Chn.3) ****************//

song02_004:
//  #04 //000   ----------------------------------------
 BYTE   VOL   25*song02_mvl/mxv
 BYTE   KEYSH   song02_key+0
Label_01180220:
 BYTE   VOICE   4
 BYTE   MODT 0
 BYTE   LFOS 44
 BYTE   N12  Fs2  v088
 BYTE   W06
 BYTE   N06  Fs3
 BYTE   W06
 BYTE   N84  Fs2
 BYTE   N06  Cs4
 BYTE   W06
 BYTE   Cs3
 BYTE   W06
 BYTE   Fs3
 BYTE   W06
 BYTE   Bn3
 BYTE   W06
 BYTE   Cs3
 BYTE   W06
 BYTE   Fs3
 BYTE   W06
 BYTE   Cs4
 BYTE   W06
 BYTE   Cs3
 BYTE   W06
 BYTE   Fs3
 BYTE   W06
 BYTE   Bn3
 BYTE   W06
 BYTE   Cs3
 BYTE   W06
 BYTE   Fs3
 BYTE   W06
 BYTE   Cs4
 BYTE   W06
 BYTE   Fs3
 BYTE   W06
//  #04 //001   ----------------------------------------
Label_0118024C:
 BYTE   N12  Dn2  v088
 BYTE   W06
 BYTE   N06  Fs3
 BYTE   W06
 BYTE   N84  Dn2
 BYTE   N06  Cs4
 BYTE   W06
 BYTE   Dn3
 BYTE   W06
 BYTE   Fs3
 BYTE   W06
 BYTE   Bn3
 BYTE   W06
 BYTE   Dn3
 BYTE   W06
 BYTE   Fs3
 BYTE   W06
 BYTE   Cs4
 BYTE   W06
 BYTE   Dn3
 BYTE   W06
 BYTE   Fs3
 BYTE   W06
 BYTE   Bn3
 BYTE   W06
 BYTE   Dn3
 BYTE   W06
 BYTE   Fs3
 BYTE   W06
 BYTE   Cs4
 BYTE   W06
 BYTE   Fs3
 BYTE   W06
 BYTE   PEND 
//  #04 //002   ----------------------------------------
Label_01180273:
 BYTE   N12  Fs2  v088
 BYTE   W06
 BYTE   N06  Fs3
 BYTE   W06
 BYTE   N84  Fs2
 BYTE   N06  Cs4
 BYTE   W06
 BYTE   Cs3
 BYTE   W06
 BYTE   Fs3
 BYTE   W06
 BYTE   Bn3
 BYTE   W06
 BYTE   Cs3
 BYTE   W06
 BYTE   Fs3
 BYTE   W06
 BYTE   Cs4
 BYTE   W06
 BYTE   Cs3
 BYTE   W06
 BYTE   Fs3
 BYTE   W06
 BYTE   Bn3
 BYTE   W06
 BYTE   Cs3
 BYTE   W06
 BYTE   Fs3
 BYTE   W06
 BYTE   Cs4
 BYTE   W06
 BYTE   Fs3
 BYTE   W06
 BYTE   PEND 
//  #04 //003   ----------------------------------------
 BYTE   N96  Dn2
 BYTE   W06
 BYTE   N06  Fs3
 BYTE   W06
 BYTE   Cs4
 BYTE   W06
 BYTE   Dn3
 BYTE   W06
 BYTE   Fs3
 BYTE   W06
 BYTE   Bn3
 BYTE   W06
 BYTE   Dn3
 BYTE   W06
 BYTE   Fs3
 BYTE   W06
 BYTE   Cs4
 BYTE   W06
 BYTE   Dn3
 BYTE   W06
 BYTE   Fs3
 BYTE   W06
 BYTE   Bn3
 BYTE   W06
 BYTE   Dn3
 BYTE   W06
 BYTE   Fs3
 BYTE   W06
 BYTE   Cs4
 BYTE   W06
 BYTE   Fs3
 BYTE   W06
//  #04 //004   ----------------------------------------
 BYTE   PATT
  POIN2 Label_01180273
//  #04 //005   ----------------------------------------
 BYTE   PATT
  POIN2 Label_0118024C
//  #04 //006   ----------------------------------------
Label_011802C6:
 BYTE   N12  An1  v088
 BYTE   W06
 BYTE   N06  Fs3
 BYTE   W06
 BYTE   N84  An1
 BYTE   N06  Cs4
 BYTE   W06
 BYTE   Cs3
 BYTE   W06
 BYTE   Fs3
 BYTE   W06
 BYTE   Bn3
 BYTE   W06
 BYTE   Cs3
 BYTE   W06
 BYTE   Fs3
 BYTE   W06
 BYTE   Cs4
 BYTE   W06
 BYTE   Cs3
 BYTE   W06
 BYTE   Fs3
 BYTE   W06
 BYTE   Bn3
 BYTE   W06
 BYTE   Cs3
 BYTE   W06
 BYTE   Fs3
 BYTE   W06
 BYTE   Cs4
 BYTE   W06
 BYTE   Fs3
 BYTE   W06
 BYTE   PEND 
//  #04 //007   ----------------------------------------
Label_011802ED:
 BYTE   N96  En2  v088
 BYTE   W06
 BYTE   N06  Fs3
 BYTE   W06
 BYTE   Cs4
 BYTE   W06
 BYTE   Dn3
 BYTE   W06
 BYTE   Fs3
 BYTE   W06
 BYTE   Bn3
 BYTE   W06
 BYTE   Dn3
 BYTE   W06
 BYTE   Fs3
 BYTE   W06
 BYTE   Cs4
 BYTE   W06
 BYTE   Dn3
 BYTE   W06
 BYTE   Fs3
 BYTE   W06
 BYTE   Bn3
 BYTE   W06
 BYTE   Dn3
 BYTE   W06
 BYTE   Fs3
 BYTE   W06
 BYTE   Cs4
 BYTE   W06
 BYTE   Fs3
 BYTE   W06
 BYTE   PEND 
//  #04 //008   ----------------------------------------
 BYTE   PATT
  POIN2 Label_01180273
//  #04 //009   ----------------------------------------
 BYTE   PATT
  POIN2 Label_0118024C
//  #04 //010   ----------------------------------------
 BYTE   PATT
  POIN2 Label_011802C6
//  #04 //011   ----------------------------------------
 BYTE   PATT
  POIN2 Label_011802ED
//  #04 //012   ----------------------------------------
 BYTE   PATT
  POIN2 Label_01180273
//  #04 //013   ----------------------------------------
 BYTE   PATT
  POIN2 Label_0118024C
//  #04 //014   ----------------------------------------
 BYTE   PATT
  POIN2 Label_011802C6
//  #04 //015   ----------------------------------------
 BYTE   PATT
  POIN2 Label_011802ED
//  #04 //016   ----------------------------------------
Label_01180339:
 BYTE   W12
 BYTE   N12  En3  v088
 BYTE   W12
 BYTE   N12
 BYTE   W12
 BYTE   N06  Cs3
 BYTE   W06
 BYTE   N18  En3
 BYTE   W18
 BYTE   N06  Cs3
 BYTE   W06
 BYTE   N12  Bn2
 BYTE   W12
 BYTE   An2
 BYTE   W12
 BYTE   N18  Bn2
 BYTE   W06
 BYTE   PEND 
//  #04 //017   ----------------------------------------
 BYTE   W12
 BYTE   N60  An2
 BYTE   W60
 BYTE   N12  Fs2
 BYTE   W12
 BYTE   N48  Cs3
 BYTE   W12
//  #04 //018   ----------------------------------------
Label_0118035C:
 BYTE   W36
 BYTE   N06  Dn3  v088
 BYTE   W06
 BYTE   N42  Cs3
 BYTE   W42
 BYTE   N06  Bn2
 BYTE   W06
 BYTE   N42
 BYTE   W06
 BYTE   PEND 
//  #04 //019   ----------------------------------------
 BYTE   W36
 BYTE   N06  An2
 BYTE   W06
 BYTE   N12  Bn2
 BYTE   W12
 BYTE   N06  En2
 BYTE   W06
 BYTE   N36  Fs2
 BYTE   W36
//  #04 //020   ----------------------------------------
 BYTE   PATT
  POIN2 Label_01180339
//  #04 //021   ----------------------------------------
 BYTE   W12
 BYTE   N60  Cs3  v088
 BYTE   W60
 BYTE   N12  Fs2
 BYTE   W12
 BYTE   N48  En3
 BYTE   W12
//  #04 //022   ----------------------------------------
 BYTE   PATT
  POIN2 Label_0118035C
//  #04 //023   ----------------------------------------
 BYTE   W36
 BYTE   N24  En3  v088
 BYTE   W24
 BYTE   N12  Cs3
 BYTE   W12
 BYTE   N06  Bn2
 BYTE   W06
 BYTE   An2
 BYTE   W06
 BYTE   N12  Bn2
 BYTE   W12
//  #04 //024   ----------------------------------------
 BYTE   N06  Fs3
 BYTE   W06
 BYTE   Cs3
 BYTE   W06
 BYTE   Fs3
 BYTE   W06
 BYTE   N30  Cs4
 BYTE   W30
 BYTE   N06  Fs3
 BYTE   W06
 BYTE   Cs3
 BYTE   W06
 BYTE   Fs3
 BYTE   W06
 BYTE   N30  Cs4
 BYTE   W30
//  #04 //025   ----------------------------------------
 BYTE   N06  Fs3
 BYTE   W06
 BYTE   Cs3
 BYTE   W06
 BYTE   Fs3
 BYTE   W06
 BYTE   N18  Cs4
 BYTE   W18
 BYTE   N06  Fs3
 BYTE   W06
 BYTE   N30  Cs4
 BYTE   W30
 BYTE   N06  Fs3
 BYTE   W06
 BYTE   Cs3
 BYTE   W06
 BYTE   Fs3
 BYTE   W06
 BYTE   N30  Cs4
 BYTE   W06
//  #04 //026   ----------------------------------------
 BYTE   W24
 BYTE   N06  Fs3
 BYTE   W06
 BYTE   Cs3
 BYTE   W06
 BYTE   Fs3
 BYTE   W06
 BYTE   N18  Cs4
 BYTE   W18
 BYTE   N06  Fs3
 BYTE   W06
 BYTE   N18  Cs4
 BYTE   W18
 BYTE   N06  Fs3
 BYTE   W06
 BYTE   N18  Cs4
 BYTE   W06
//  #04 //027   ----------------------------------------
 BYTE   W12
 BYTE   N06  Fs3
 BYTE   W06
 BYTE   N18  Cs4
 BYTE   W18
 BYTE   N06  An3
 BYTE   W06
 BYTE   N18  Cs4
 BYTE   W18
 BYTE   N06  Fs3
 BYTE   W06
 BYTE   N18  Cs4
 BYTE   W18
 BYTE   N12  Fs3
 BYTE   W12
//  #04 //028   ----------------------------------------
 BYTE   N06
 BYTE   W06
 BYTE   Cs3
 BYTE   W06
 BYTE   Fs3
 BYTE   W06
 BYTE   N18  Cs4
 BYTE   W18
 BYTE   N06  Fs3
 BYTE   W06
 BYTE   N18  Cs4
 BYTE   W18
 BYTE   N06  Fs3
 BYTE   W06
 BYTE   N18  Cs4
 BYTE   W18
 BYTE   N06  Fs3
 BYTE   W06
 BYTE   N18  Cs4
 BYTE   W06
//  #04 //029   ----------------------------------------
Label_01180412:
 BYTE   W12
 BYTE   N06  An3  v088
 BYTE   W06
 BYTE   N18  Cs4
 BYTE   W18
 BYTE   N06  Fs3
 BYTE   W06
 BYTE   N18  Cs4
 BYTE   W18
 BYTE   N06  An3
 BYTE   W06
 BYTE   N18  Cs4
 BYTE   W18
 BYTE   N06  Fs3
 BYTE   W06
 BYTE   N18  Cs4
 BYTE   W06
 BYTE   PEND 
//  #04 //030   ----------------------------------------
 BYTE   PATT
  POIN2 Label_01180412
//  #04 //031   ----------------------------------------
 BYTE   W12
 BYTE   N06  An3  v088
 BYTE   W06
 BYTE   N18  Cs4
 BYTE   W18
 BYTE   N06  Fs3
 BYTE   W06
 BYTE   N18  Cs4
 BYTE   W54
//  #04 //032   ----------------------------------------
Label_01180440:
 BYTE   N06  Dn3  v088
 BYTE   N06  Fs3
 BYTE   N06  An3
 BYTE   W06
 BYTE   Dn3
 BYTE   N06  Fs3
 BYTE   N06  An3
 BYTE   W06
 BYTE   Dn3
 BYTE   N06  Fs3
 BYTE   N06  An3
 BYTE   W06
 BYTE   Dn3
 BYTE   N06  Fs3
 BYTE   N06  An3
 BYTE   W06
 BYTE   Dn3
 BYTE   N06  Fs3
 BYTE   N06  An3
 BYTE   W06
 BYTE   Dn3
 BYTE   N06  Fs3
 BYTE   N06  An3
 BYTE   W06
 BYTE   Dn3
 BYTE   N06  Fs3
 BYTE   N06  An3
 BYTE   W06
 BYTE   Dn3
 BYTE   N06  Fs3
 BYTE   N06  An3
 BYTE   W06
 BYTE   En3
 BYTE   N06  An3
 BYTE   W06
 BYTE   En3
 BYTE   N06  An3
 BYTE   W06
 BYTE   En3
 BYTE   N06  An3
 BYTE   W06
 BYTE   En3
 BYTE   N06  An3
 BYTE   W06
 BYTE   En3
 BYTE   N06  An3
 BYTE   W06
 BYTE   En3
 BYTE   N06  An3
 BYTE   W06
 BYTE   En3
 BYTE   N06  An3
 BYTE   W06
 BYTE   En3
 BYTE   N06  An3
 BYTE   W06
 BYTE   PEND 
//  #04 //033   ----------------------------------------
Label_01180493:
 BYTE   N06  Fs3  v088
 BYTE   N06  An3
 BYTE   N06  Cs4
 BYTE   W06
 BYTE   Fs3
 BYTE   N06  An3
 BYTE   N06  Cs4
 BYTE   W06
 BYTE   Fs3
 BYTE   N06  An3
 BYTE   N06  Cs4
 BYTE   W06
 BYTE   Fs3
 BYTE   N06  An3
 BYTE   N06  Cs4
 BYTE   W06
 BYTE   Fs3
 BYTE   N06  An3
 BYTE   N06  Cs4
 BYTE   W06
 BYTE   Fs3
 BYTE   N06  An3
 BYTE   N06  Cs4
 BYTE   W06
 BYTE   Fs3
 BYTE   N06  An3
 BYTE   N06  Cs4
 BYTE   W06
 BYTE   Fs3
 BYTE   N06  An3
 BYTE   N06  Cs4
 BYTE   W06
 BYTE   En3
 BYTE   N06  Gs3
 BYTE   N06  Cs4
 BYTE   W06
 BYTE   En3
 BYTE   N06  Gs3
 BYTE   N06  Cs4
 BYTE   W06
 BYTE   En3
 BYTE   N06  Gs3
 BYTE   N06  Cs4
 BYTE   W06
 BYTE   En3
 BYTE   N06  Gs3
 BYTE   N06  Cs4
 BYTE   W06
 BYTE   En3
 BYTE   N06  Gs3
 BYTE   N06  Cs4
 BYTE   W06
 BYTE   En3
 BYTE   N06  Gs3
 BYTE   N06  Cs4
 BYTE   W06
 BYTE   En3
 BYTE   N06  Gs3
 BYTE   N06  Cs4
 BYTE   W06
 BYTE   En3
 BYTE   N06  Gs3
 BYTE   N06  Cs4
 BYTE   W06
 BYTE   PEND 
//  #04 //034   ----------------------------------------
 BYTE   PATT
  POIN2 Label_01180440
//  #04 //035   ----------------------------------------
Label_011804FB:
 BYTE   N06  Fs3  v088
 BYTE   N06  An3
 BYTE   N06  Cs4
 BYTE   W06
 BYTE   Fs3
 BYTE   N06  An3
 BYTE   N06  Cs4
 BYTE   W06
 BYTE   Fs3
 BYTE   N06  An3
 BYTE   N06  Cs4
 BYTE   W06
 BYTE   Fs3
 BYTE   N06  An3
 BYTE   N06  Cs4
 BYTE   W06
 BYTE   Fs3
 BYTE   N06  An3
 BYTE   N06  Cs4
 BYTE   W06
 BYTE   Fs3
 BYTE   N06  An3
 BYTE   N06  Cs4
 BYTE   W06
 BYTE   Fs3
 BYTE   N06  An3
 BYTE   N06  Cs4
 BYTE   W06
 BYTE   Fs3
 BYTE   N06  An3
 BYTE   N06  Cs4
 BYTE   W06
 BYTE   Fs3
 BYTE   N06  An3
 BYTE   N06  Cs4
 BYTE   W06
 BYTE   Fs3
 BYTE   N06  An3
 BYTE   N06  Cs4
 BYTE   W06
 BYTE   Fs3
 BYTE   N06  An3
 BYTE   N06  Cs4
 BYTE   W06
 BYTE   Fs3
 BYTE   N06  An3
 BYTE   N06  Cs4
 BYTE   W06
 BYTE   En3
 BYTE   N06  Gs3
 BYTE   N06  Cs4
 BYTE   W06
 BYTE   En3
 BYTE   N06  Gs3
 BYTE   N06  Cs4
 BYTE   W06
 BYTE   En3
 BYTE   N06  Gs3
 BYTE   N06  Cs4
 BYTE   W06
 BYTE   En3
 BYTE   N06  Gs3
 BYTE   N06  Cs4
 BYTE   W06
 BYTE   PEND 
//  #04 //036   ----------------------------------------
 BYTE   PATT
  POIN2 Label_01180440
//  #04 //037   ----------------------------------------
Label_01180563:
 BYTE   N06  Fs3  v088
 BYTE   N06  An3
 BYTE   N06  Cs4
 BYTE   W06
 BYTE   Fs3
 BYTE   N06  An3
 BYTE   N06  Cs4
 BYTE   W06
 BYTE   Fs3
 BYTE   N06  An3
 BYTE   N06  Cs4
 BYTE   W06
 BYTE   Fs3
 BYTE   N06  An3
 BYTE   N06  Cs4
 BYTE   W06
 BYTE   Fs3
 BYTE   N06  An3
 BYTE   N06  Cs4
 BYTE   W06
 BYTE   Fs3
 BYTE   N06  An3
 BYTE   N06  Cs4
 BYTE   W06
 BYTE   Fs3
 BYTE   N06  An3
 BYTE   N06  Cs4
 BYTE   W06
 BYTE   Fs3
 BYTE   N06  An3
 BYTE   N06  Cs4
 BYTE   W06
 BYTE   Fs3
 BYTE   N06  An3
 BYTE   N06  Cs4
 BYTE   W06
 BYTE   Fs3
 BYTE   N06  An3
 BYTE   N06  Cs4
 BYTE   W06
 BYTE   Fs3
 BYTE   N06  An3
 BYTE   N06  Cs4
 BYTE   W06
 BYTE   Fs3
 BYTE   N06  An3
 BYTE   N06  Cs4
 BYTE   W06
 BYTE   Fs3
 BYTE   N06  An3
 BYTE   N06  Cs4
 BYTE   W06
 BYTE   Fs3
 BYTE   N06  An3
 BYTE   N06  Cs4
 BYTE   W06
 BYTE   Fs3
 BYTE   N06  An3
 BYTE   N06  Cs4
 BYTE   W06
 BYTE   Fs3
 BYTE   N06  An3
 BYTE   N06  Cs4
 BYTE   W06
 BYTE   PEND 
//  #04 //038   ----------------------------------------
 BYTE   PATT
  POIN2 Label_01180440
//  #04 //039   ----------------------------------------
Label_011805CB:
 BYTE   N06  Fs3  v088
 BYTE   N06  An3
 BYTE   W06
 BYTE   Fs3
 BYTE   N06  An3
 BYTE   W06
 BYTE   Fs3
 BYTE   N06  An3
 BYTE   W06
 BYTE   Fs3
 BYTE   N06  An3
 BYTE   W06
 BYTE   Fs3
 BYTE   N06  An3
 BYTE   W06
 BYTE   Fs3
 BYTE   N06  An3
 BYTE   W06
 BYTE   Fs3
 BYTE   N06  An3
 BYTE   W06
 BYTE   Fs3
 BYTE   N06  An3
 BYTE   W06
 BYTE   Fs3
 BYTE   N06  An3
 BYTE   W06
 BYTE   Fs3
 BYTE   N06  An3
 BYTE   W06
 BYTE   Fs3
 BYTE   N06  An3
 BYTE   W06
 BYTE   Fs3
 BYTE   N06  An3
 BYTE   W06
 BYTE   Fs3
 BYTE   N06  An3
 BYTE   W06
 BYTE   Fs3
 BYTE   N06  An3
 BYTE   W06
 BYTE   Fs3
 BYTE   N06  An3
 BYTE   W06
 BYTE   Fs3
 BYTE   N06  An3
 BYTE   W06
 BYTE   PEND 
//  #04 //040   ----------------------------------------
 BYTE   W96
//  #04 //041   ----------------------------------------
 BYTE   W96
//  #04 //042   ----------------------------------------
 BYTE   W96
//  #04 //043   ----------------------------------------
 BYTE   W96
//  #04 //044   ----------------------------------------
Label_01180612:
 BYTE   N06  Fs2  v088
 BYTE   N06  Cs3
 BYTE   W06
 BYTE   Fs3
 BYTE   N06  Cs4
 BYTE   W06
 BYTE   Fs2
 BYTE   W06
 BYTE   Cs3
 BYTE   W06
 BYTE   Dn3
 BYTE   W06
 BYTE   Cs3
 BYTE   W06
 BYTE   Fs2
 BYTE   W06
 BYTE   Fs3
 BYTE   W06
 BYTE   Fs2
 BYTE   W06
 BYTE   Fs3
 BYTE   W06
 BYTE   Fs2
 BYTE   W06
 BYTE   N06
 BYTE   W06
 BYTE   Cs3
 BYTE   N06  Gs3
 BYTE   W06
 BYTE   Dn3
 BYTE   N06  An3
 BYTE   W06
 BYTE   Fs2
 BYTE   N06  Cs3
 BYTE   W06
 BYTE   Fs3
 BYTE   N06  Cs4
 BYTE   W06
 BYTE   PEND 
//  #04 //045   ----------------------------------------
Label_01180641:
 BYTE   N06  Fs2  v088
 BYTE   N06  En4
 BYTE   W06
 BYTE   Fs3
 BYTE   N06  Bn3
 BYTE   W06
 BYTE   Fs2
 BYTE   N06  Bn3
 BYTE   W06
 BYTE   Cs3
 BYTE   N06  Cs4
 BYTE   W06
 BYTE   Dn3
 BYTE   N06  Dn4
 BYTE   W06
 BYTE   Cs3
 BYTE   N06  Bn3
 BYTE   W06
 BYTE   Fs2
 BYTE   N06  Cs4
 BYTE   W06
 BYTE   Fs3
 BYTE   N06  An3
 BYTE   W06
 BYTE   Cs4
 BYTE   W06
 BYTE   Ds4
 BYTE   W06
 BYTE   Fs2
 BYTE   W06
 BYTE   Dn3
 BYTE   W06
 BYTE   Fs2
 BYTE   W06
 BYTE   Cs3
 BYTE   W06
 BYTE   Fs2
 BYTE   W06
 BYTE   Fs3
 BYTE   W06
 BYTE   PEND 
//  #04 //046   ----------------------------------------
Label_01180674:
 BYTE   N06  Fs2  v088
 BYTE   N06  Cs3
 BYTE   W06
 BYTE   Fs3
 BYTE   N06  Cs4
 BYTE   W06
 BYTE   Fs2
 BYTE   N06  Cs3
 BYTE   W06
 BYTE   N06
 BYTE   N06  Gs3
 BYTE   W06
 BYTE   Dn3
 BYTE   W06
 BYTE   Fs2
 BYTE   W06
 BYTE   Dn3
 BYTE   N06  En4
 BYTE   W06
 BYTE   Fs2
 BYTE   N06  An3
 BYTE   W06
 BYTE   En3
 BYTE   N06  Fs4
 BYTE   W06
 BYTE   Fs2
 BYTE   N06  Bn3
 BYTE   W06
 BYTE   An3
 BYTE   N06  Bn4
 BYTE   W06
 BYTE   Fs3
 BYTE   N06  Fs4
 BYTE   W06
 BYTE   En3
 BYTE   N06  En4
 BYTE   W06
 BYTE   An3
 BYTE   N06  Bn4
 BYTE   W06
 BYTE   Bn3
 BYTE   W06
 BYTE   Gs4
 BYTE   W06
 BYTE   PEND 
//  #04 //047   ----------------------------------------
Label_011806AF:
 BYTE   N06  Bn3  v088
 BYTE   W06
 BYTE   Gs4
 BYTE   N06  En5
 BYTE   W06
 BYTE   En3
 BYTE   N06  En4
 BYTE   W06
 BYTE   Bn3
 BYTE   W06
 BYTE   En3
 BYTE   N06  An4
 BYTE   W06
 BYTE   En4
 BYTE   W06
 BYTE   Gs4
 BYTE   W06
 BYTE   En4
 BYTE   W06
 BYTE   Bn3
 BYTE   W06
 BYTE   Fs3
 BYTE   N06  Gs4
 BYTE   W06
 BYTE   Bn3
 BYTE   W06
 BYTE   En4
 BYTE   W06
 BYTE   Fs4
 BYTE   W06
 BYTE   An5
 BYTE   W06
 BYTE   Bn5
 BYTE   W06
 BYTE   Gs5
 BYTE   W06
 BYTE   PEND 
//  #04 //048   ----------------------------------------
 BYTE   W96
//  #04 //049   ----------------------------------------
 BYTE   W96
//  #04 //050   ----------------------------------------
 BYTE   W96
//  #04 //051   ----------------------------------------
 BYTE   W96
//  #04 //052   ----------------------------------------
 BYTE   PATT
  POIN2 Label_01180612
//  #04 //053   ----------------------------------------
 BYTE   PATT
  POIN2 Label_01180641
//  #04 //054   ----------------------------------------
 BYTE   PATT
  POIN2 Label_01180674
//  #04 //055   ----------------------------------------
 BYTE   PATT
  POIN2 Label_011806AF
//  #04 //056   ----------------------------------------
 BYTE   W24
 BYTE   N06  En2  v088
 BYTE   W06
 BYTE   N42  Fs2
 BYTE   W42
 BYTE   N06  An2
 BYTE   W06
 BYTE   Gs2
 BYTE   W06
 BYTE   An2
 BYTE   W06
 BYTE   Bn2
 BYTE   W06
//  #04 //057   ----------------------------------------
 BYTE   N06
 BYTE   W06
 BYTE   Cs3
 BYTE   W06
 BYTE   En3
 BYTE   W06
 BYTE   Cs3
 BYTE   W54
 BYTE   An3
 BYTE   W06
 BYTE   Gs3
 BYTE   W06
 BYTE   An3
 BYTE   W06
 BYTE   N24  Bn3
 BYTE   W06
//  #04 //058   ----------------------------------------
 BYTE   W18
 BYTE   N24
 BYTE   W30
 BYTE   N18  An3
 BYTE   W24
 BYTE   Gs3
 BYTE   W18
 BYTE   N06  En3
 BYTE   W06
//  #04 //059   ----------------------------------------
 BYTE   N18  Fs3
 BYTE   W18
 BYTE   N24
 BYTE   W24
 BYTE   N12  Cs3
 BYTE   W12
 BYTE   N06  En3
 BYTE   W06
 BYTE   Cs3
 BYTE   W06
 BYTE   Bn2
 BYTE   W06
 BYTE   An2
 BYTE   W06
 BYTE   Bn2
 BYTE   W06
 BYTE   An2
 BYTE   W06
 BYTE   En2
 BYTE   W06
//  #04 //060   ----------------------------------------
 BYTE   W48
 BYTE   N24  Cs4
 BYTE   W24
 BYTE   N06
 BYTE   W08
 BYTE   Dn4
 BYTE   W08
 BYTE   En4
 BYTE   W08
//  #04 //061   ----------------------------------------
 BYTE   W03
 BYTE   N06
 BYTE   W09
 BYTE   N12
 BYTE   W84
//  #04 //062   ----------------------------------------
 BYTE   W24
 BYTE   W03
 BYTE   N06  Bn3
 BYTE   W06
 BYTE   An3
 BYTE   W06
 BYTE   Bn3
 BYTE   W09
 BYTE   N06
 BYTE   W06
 BYTE   N18  Cs4
 BYTE   W18
 BYTE   N06  Dn4
 BYTE   W06
 BYTE   En4
 BYTE   W06
 BYTE   N06
 BYTE   W06
 BYTE   N06
 BYTE   W06
//  #04 //063   ----------------------------------------
 BYTE   W24
 BYTE   N12
 BYTE   W24
 BYTE   N24
 BYTE   W48
//  #04 //064   ----------------------------------------
 BYTE   W66
 BYTE   N06  En3
 BYTE   W06
 BYTE   N12  Cs4
 BYTE   W12
 BYTE   N06  Dn4
 BYTE   W06
 BYTE   N24  Cs4
 BYTE   W06
//  #04 //065   ----------------------------------------
 BYTE   W18
 BYTE   N06  En3
 BYTE   W06
 BYTE   N12  Cs4
 BYTE   W12
 BYTE   N06  Dn4
 BYTE   W06
 BYTE   N24  Cs4
 BYTE   W24
 BYTE   N06  En3
 BYTE   W06
 BYTE   N12  Cs4
 BYTE   W12
 BYTE   N06  Dn4
 BYTE   W06
 BYTE   N18  Cs4
 BYTE   W06
//  #04 //066   ----------------------------------------
 BYTE   W12
 BYTE   N12  Bn3
 BYTE   W12
 BYTE   An3
 BYTE   W12
 BYTE   N06  Bn3
 BYTE   W06
 BYTE   N24  An3
 BYTE   W24
 BYTE   N06  En3
 BYTE   W06
 BYTE   N12  Cs4
 BYTE   W12
 BYTE   N06  Dn4
 BYTE   W06
 BYTE   N24  Cs4
 BYTE   W06
//  #04 //067   ----------------------------------------
 BYTE   W18
 BYTE   N06  En3
 BYTE   W06
 BYTE   N12  Cs4
 BYTE   W12
 BYTE   N06  Dn4
 BYTE   W06
 BYTE   N24  Cs4
 BYTE   W24
 BYTE   N06  En3
 BYTE   W06
 BYTE   N12  Cs4
 BYTE   W12
 BYTE   N06  Dn4
 BYTE   W08
 BYTE   N18  En4
 BYTE   W04
//  #04 //068   ----------------------------------------
 BYTE   W12
 BYTE   N12  Dn4
 BYTE   W12
 BYTE   Cs4
 BYTE   W12
 BYTE   N06  Dn4
 BYTE   W06
 BYTE   N24  Cs4
 BYTE   W24
 BYTE   N06  En3
 BYTE   W06
 BYTE   N12  Cs4
 BYTE   W12
 BYTE   N06  Dn4
 BYTE   W06
 BYTE   N24  Cs4
 BYTE   W06
//  #04 //069   ----------------------------------------
 BYTE   W18
 BYTE   N06  En3
 BYTE   W06
 BYTE   N12  Cs4
 BYTE   W12
 BYTE   N06  Dn4
 BYTE   W06
 BYTE   N30  Cs4
 BYTE   W30
 BYTE   N24  Bn3
 BYTE   W24
//  #04 //070   ----------------------------------------
 BYTE   N12
 BYTE   W12
 BYTE   An3
 BYTE   W12
 BYTE   En3
 BYTE   W12
 BYTE   Bn3
 BYTE   W12
 BYTE   N24  An3
 BYTE   W24
 BYTE   N12  Gs3
 BYTE   W12
 BYTE   En3
 BYTE   W12
//  #04 //071   ----------------------------------------
 BYTE   Fs3
 BYTE   W12
 BYTE   An3
 BYTE   W12
 BYTE   N12
 BYTE   W12
 BYTE   En3
 BYTE   W12
 BYTE   N24  Cs4
 BYTE   W24
 BYTE   N12  Dn4
 BYTE   W12
 BYTE   N24  Gs3
 BYTE   W12
//  #04 //072   ----------------------------------------
 BYTE   W12
 BYTE   N84  An3
 BYTE   W84
//  #04 //073   ----------------------------------------
 BYTE   W96
//  #04 //074   ----------------------------------------
 BYTE   PATT
  POIN2 Label_01180440
//  #04 //075   ----------------------------------------
 BYTE   PATT
  POIN2 Label_01180493
//  #04 //076   ----------------------------------------
 BYTE   PATT
  POIN2 Label_01180440
//  #04 //077   ----------------------------------------
 BYTE   PATT
  POIN2 Label_011804FB
//  #04 //078   ----------------------------------------
 BYTE   PATT
  POIN2 Label_01180440
//  #04 //079   ----------------------------------------
 BYTE   PATT
  POIN2 Label_01180563
//  #04 //080   ----------------------------------------
 BYTE   PATT
  POIN2 Label_01180440
//  #04 //081   ----------------------------------------
 BYTE   PATT
  POIN2 Label_011805CB
//  #04 //082   ----------------------------------------
 BYTE   PATT
  POIN2 Label_01180440
//  #04 //083   ----------------------------------------
 BYTE   PATT
  POIN2 Label_011804FB
//  #04 //084   ----------------------------------------
 BYTE   PATT
  POIN2 Label_01180440
//  #04 //085   ----------------------------------------
 BYTE   PATT
  POIN2 Label_011804FB
//  #04 //086   ----------------------------------------
 BYTE   PATT
  POIN2 Label_01180440
//  #04 //087   ----------------------------------------
 BYTE   PATT
  POIN2 Label_01180563
//  #04 //088   ----------------------------------------
 BYTE   PATT
  POIN2 Label_01180440
//  #04 //089   ----------------------------------------
 BYTE   N96  Fs3  v088
 BYTE   N96  An3
 BYTE   W96
//  #04 //090   ----------------------------------------
 BYTE   PATT
  POIN2 Label_01180612
//  #04 //091   ----------------------------------------
 BYTE   PATT
  POIN2 Label_01180641
//  #04 //092   ----------------------------------------
 BYTE   PATT
  POIN2 Label_01180612
//  #04 //093   ----------------------------------------
 BYTE   PATT
  POIN2 Label_01180641
//  #04 //094   ----------------------------------------
 BYTE   PATT
  POIN2 Label_01180612
//  #04 //095   ----------------------------------------
 BYTE   PATT
  POIN2 Label_01180641
//  #04 //096   ----------------------------------------
 BYTE   PATT
  POIN2 Label_01180612
//  #04 //097   ----------------------------------------
 BYTE   N06  Fs2  v088
 BYTE   N06  En4
 BYTE   W06
 BYTE   Fs3
 BYTE   N06  Bn3
 BYTE   W06
 BYTE   Fs2
 BYTE   N06  Bn3
 BYTE   W06
 BYTE   Cs3
 BYTE   N06  Cs4
 BYTE   W06
 BYTE   Dn3
 BYTE   N06  Dn4
 BYTE   W06
 BYTE   Cs3
 BYTE   N06  Bn3
 BYTE   W06
 BYTE   Fs2
 BYTE   N06  Cs4
 BYTE   W06
 BYTE   Fs3
 BYTE   N06  An3
 BYTE   W06
 BYTE   Cs4
 BYTE   W06
 BYTE   Ds4
 BYTE   W06
 BYTE   Fs2
 BYTE   W06
 BYTE   Dn3
 BYTE   W06
 BYTE   Fs2
 BYTE   W06
 BYTE   Cs3
 BYTE   W06
 BYTE   Fs2
 BYTE   W06
 BYTE   GoTo
  POIN2 Label_01180220
//  #04 //098   ----------------------------------------
 BYTE   N06  Fs3  v088
 BYTE   W06
 BYTE   W96
//  #04 //099   ----------------------------------------
 BYTE   W96
 BYTE   FINE

//**************** Track 5 (Midi-Chn.4) ****************//

song02_005:
//  #05 //000   ----------------------------------------
 BYTE   VOL   35*song02_mvl/mxv
 BYTE   KEYSH   song02_key+0
Label_546E50:
 BYTE   VOICE   49
 BYTE   MODT 0
 BYTE   LFOS 44
 BYTE   W96
//  #05 //001   ----------------------------------------
 BYTE   W96
//  #05 //002   ----------------------------------------
 BYTE   W96
//  #05 //003   ----------------------------------------
 BYTE   W96
//  #05 //004   ----------------------------------------
 BYTE   W96
//  #05 //005   ----------------------------------------
 BYTE   W96
//  #05 //006   ----------------------------------------
 BYTE   W96
//  #05 //007   ----------------------------------------
 BYTE   W96
//  #05 //008   ----------------------------------------
 BYTE   N96  Fs3  v088
 BYTE   W96
//  #05 //009   ----------------------------------------
Label_546E62:
 BYTE   N12  Bn3  v088
 BYTE   W12
 BYTE   An3
 BYTE   W12
 BYTE   N72  Cs4
 BYTE   W72
 BYTE   PEND 
//  #05 //010   ----------------------------------------
 BYTE   N24  Bn3
 BYTE   W24
 BYTE   N48  An3
 BYTE   W48
 BYTE   En4
 BYTE   W24
//  #05 //011   ----------------------------------------
 BYTE   W24
 BYTE   N24  Dn4
 BYTE   W24
 BYTE   Cs4
 BYTE   W24
 BYTE   Bn3
 BYTE   W24
//  #05 //012   ----------------------------------------
 BYTE   N96  Fs3
 BYTE   W96
//  #05 //013   ----------------------------------------
 BYTE   PATT
  POIN2 Label_546E62
//  #05 //014   ----------------------------------------
 BYTE   TIE  En4  v088
 BYTE   W96
//  #05 //015   ----------------------------------------
 BYTE   W48
 BYTE   EOT
 BYTE   N48  En5
 BYTE   W48
//  #05 //016   ----------------------------------------
 BYTE   W96
//  #05 //017   ----------------------------------------
 BYTE   W96
//  #05 //018   ----------------------------------------
 BYTE   W96
//  #05 //019   ----------------------------------------
 BYTE   W96
//  #05 //020   ----------------------------------------
 BYTE   W96
//  #05 //021   ----------------------------------------
 BYTE   W96
//  #05 //022   ----------------------------------------
 BYTE   W96
//  #05 //023   ----------------------------------------
 BYTE   W96
//  #05 //024   ----------------------------------------
 BYTE   W24
 BYTE   N24  Cs4
 BYTE   W24
 BYTE   Bn3
 BYTE   W24
 BYTE   N18  An3
 BYTE   W18
 BYTE   N06  Cn4
 BYTE   W06
//  #05 //025   ----------------------------------------
 BYTE   N36  Bn3
 BYTE   W36
 BYTE   N06  An3
 BYTE   W06
 BYTE   N30  Bn3
 BYTE   W30
 BYTE   N24  Fs3
 BYTE   W24
//  #05 //026   ----------------------------------------
 BYTE   N12  An3
 BYTE   W12
 BYTE   Fs3
 BYTE   W12
 BYTE   An3
 BYTE   W12
 BYTE   Bn3
 BYTE   W12
 BYTE   Cn4
 BYTE   W12
 BYTE   Bn3
 BYTE   W12
 BYTE   An3
 BYTE   W12
 BYTE   N24  Bn3
 BYTE   W12
//  #05 //027   ----------------------------------------
 BYTE   W12
 BYTE   N48  Fs3
 BYTE   W48
 BYTE   N18  Fs4
 BYTE   W18
 BYTE   N06  En4
 BYTE   W06
 BYTE   N12  Bn3
 BYTE   W12
//  #05 //028   ----------------------------------------
 BYTE   Fs3
 BYTE   W24
 BYTE   N24  Cs4
 BYTE   W24
 BYTE   Bn3
 BYTE   W24
 BYTE   N18  Fs3
 BYTE   W18
 BYTE   N06  En4
 BYTE   W06
//  #05 //029   ----------------------------------------
 BYTE   N36  Bn3
 BYTE   W36
 BYTE   N06  An3
 BYTE   W06
 BYTE   N30  Fs3
 BYTE   W30
 BYTE   N12  En3
 BYTE   W12
 BYTE   Cs4
 BYTE   W12
//  #05 //030   ----------------------------------------
 BYTE   Bn3
 BYTE   W12
 BYTE   N06  An3
 BYTE   W06
 BYTE   N18  Bn3
 BYTE   W18
 BYTE   N06  Fs3
 BYTE   W06
 BYTE   N30
 BYTE   W30
 BYTE   N12  En3
 BYTE   W12
 BYTE   N06  Cn4
 BYTE   W06
 BYTE   N18  Bn3
 BYTE   W06
//  #05 //031   ----------------------------------------
 BYTE   W12
 BYTE   N24  An3
 BYTE   W24
 BYTE   Fs3
 BYTE   W24
 BYTE   N36  En4
 BYTE   W36
//  #05 //032   ----------------------------------------
Label_546F06:
 BYTE   N36  Fs3  v088
 BYTE   N36  Fs4
 BYTE   W36
 BYTE   N06  Cs3
 BYTE   N06  Cs4
 BYTE   W06
 BYTE   N42  Gs3
 BYTE   N42  Gs4
 BYTE   W42
 BYTE   N06  Cs3
 BYTE   N06  Cs4
 BYTE   W06
 BYTE   N18  Gs3
 BYTE   N18  Gs4
 BYTE   W06
 BYTE   PEND 
//  #05 //033   ----------------------------------------
Label_546F21:
 BYTE   W12
 BYTE   N60  An3  v088
 BYTE   N60  An4
 BYTE   W60
 BYTE   N12  Gs3
 BYTE   N12  Gs4
 BYTE   W12
 BYTE   N06  En3
 BYTE   N06  En4
 BYTE   W06
 BYTE   N54  Fs3
 BYTE   N54  Fs4
 BYTE   W06
 BYTE   PEND 
//  #05 //034   ----------------------------------------
 BYTE   W48
 BYTE   N12  En3
 BYTE   N12  En4
 BYTE   W12
 BYTE   Cs3
 BYTE   N12  Cs4
 BYTE   W12
 BYTE   Bn2
 BYTE   N12  Bn3
 BYTE   W12
 BYTE   N06  Cs3
 BYTE   N06  Cs4
 BYTE   W06
 BYTE   N78  An2
 BYTE   N78  An3
 BYTE   W06
//  #05 //035   ----------------------------------------
 BYTE   W96
//  #05 //036   ----------------------------------------
Label_546F51:
 BYTE   N06  En4  v088
 BYTE   N06  En5
 BYTE   W06
 BYTE   En4
 BYTE   N06  En5
 BYTE   W06
 BYTE   Cs4
 BYTE   W06
 BYTE   Bn3
 BYTE   W06
 BYTE   En4
 BYTE   N06  En5
 BYTE   W06
 BYTE   En4
 BYTE   N06  En5
 BYTE   W06
 BYTE   Cs4
 BYTE   W06
 BYTE   Bn3
 BYTE   W06
 BYTE   En4
 BYTE   N06  En5
 BYTE   W06
 BYTE   En4
 BYTE   N06  En5
 BYTE   W06
 BYTE   Cs4
 BYTE   W06
 BYTE   Bn3
 BYTE   W06
 BYTE   En4
 BYTE   N06  En5
 BYTE   W06
 BYTE   En4
 BYTE   N06  En5
 BYTE   W06
 BYTE   Cs4
 BYTE   W06
 BYTE   Bn3
 BYTE   W06
 BYTE   PEND 
//  #05 //037   ----------------------------------------
 BYTE   PATT
  POIN2 Label_546F51
//  #05 //038   ----------------------------------------
 BYTE   PATT
  POIN2 Label_546F51
//  #05 //039   ----------------------------------------
 BYTE   N06  Fs4  v088
 BYTE   N06  Fs5
 BYTE   W06
 BYTE   Fs4
 BYTE   N06  Fs5
 BYTE   W06
 BYTE   Cs4
 BYTE   W06
 BYTE   Bn3
 BYTE   W06
 BYTE   Fs4
 BYTE   N06  Fs5
 BYTE   W06
 BYTE   Fs4
 BYTE   N06  Fs5
 BYTE   W06
 BYTE   Cs4
 BYTE   W06
 BYTE   Bn3
 BYTE   W06
 BYTE   Fs4
 BYTE   N06  Fs5
 BYTE   W06
 BYTE   Fs4
 BYTE   N06  Fs5
 BYTE   W06
 BYTE   Cs4
 BYTE   W06
 BYTE   Bn3
 BYTE   W06
 BYTE   Fs4
 BYTE   N06  Fs5
 BYTE   W06
 BYTE   Fs4
 BYTE   N06  Fs5
 BYTE   W06
 BYTE   Cs4
 BYTE   W06
 BYTE   Bn3
 BYTE   W06
//  #05 //040   ----------------------------------------
 BYTE   W96
//  #05 //041   ----------------------------------------
 BYTE   W96
//  #05 //042   ----------------------------------------
 BYTE   W96
//  #05 //043   ----------------------------------------
 BYTE   W96
//  #05 //044   ----------------------------------------
 BYTE   W96
//  #05 //045   ----------------------------------------
 BYTE   W96
//  #05 //046   ----------------------------------------
 BYTE   W96
//  #05 //047   ----------------------------------------
 BYTE   W96
//  #05 //048   ----------------------------------------
Label_546FC8:
 BYTE   N06  Cs2  v088
 BYTE   N06  Fs3
 BYTE   W06
 BYTE   Cs2
 BYTE   N06  Fs4
 BYTE   W06
 BYTE   Fs2
 BYTE   N06  Fs3
 BYTE   W06
 BYTE   Fs2
 BYTE   N06  Cs4
 BYTE   W06
 BYTE   Gs2
 BYTE   N06  Dn4
 BYTE   W06
 BYTE   Gs2
 BYTE   N06  Cs4
 BYTE   W06
 BYTE   En2
 BYTE   N06  Fs3
 BYTE   W06
 BYTE   Fs2
 BYTE   N06  Fs4
 BYTE   W06
 BYTE   Fs2
 BYTE   N06  Fs3
 BYTE   W06
 BYTE   Gs2
 BYTE   N06  Fs4
 BYTE   W06
 BYTE   Gs2
 BYTE   N06  Fs3
 BYTE   W06
 BYTE   En2
 BYTE   N06  Bn3
 BYTE   W06
 BYTE   En2
 BYTE   N06  Cs4
 BYTE   W06
 BYTE   En2
 BYTE   N06  Dn4
 BYTE   W06
 BYTE   Dn2
 BYTE   N06  Fs3
 BYTE   W06
 BYTE   Cs2
 BYTE   N06  Fs4
 BYTE   W06
 BYTE   PEND 
//  #05 //049   ----------------------------------------
Label_54700B:
 BYTE   N06  Cs2  v088
 BYTE   N06  Fs3
 BYTE   W06
 BYTE   Cs2
 BYTE   N06  Fs4
 BYTE   W06
 BYTE   Fs2
 BYTE   N06  Fs3
 BYTE   W06
 BYTE   Fs2
 BYTE   N06  Cs4
 BYTE   W06
 BYTE   Gs2
 BYTE   N06  Dn4
 BYTE   W06
 BYTE   Gs2
 BYTE   N06  Fs3
 BYTE   W06
 BYTE   En2
 BYTE   N06  Cs4
 BYTE   W06
 BYTE   Fs2
 BYTE   N06  Fs3
 BYTE   W06
 BYTE   Fs2
 BYTE   N06  Bn3
 BYTE   W06
 BYTE   Gs2
 BYTE   N06  Cs4
 BYTE   W06
 BYTE   Gs2
 BYTE   N06  Fs3
 BYTE   W06
 BYTE   En2
 BYTE   N06  Dn4
 BYTE   W06
 BYTE   En2
 BYTE   N06  Fs3
 BYTE   W06
 BYTE   En2
 BYTE   N06  Cs4
 BYTE   W06
 BYTE   Dn2
 BYTE   N06  Fs3
 BYTE   W06
 BYTE   Cs2
 BYTE   N06  Fs4
 BYTE   W06
 BYTE   PEND 
//  #05 //050   ----------------------------------------
 BYTE   PATT
  POIN2 Label_546FC8
//  #05 //051   ----------------------------------------
 BYTE   PATT
  POIN2 Label_54700B
//  #05 //052   ----------------------------------------
Label_547058:
 BYTE   N06  Cs2  v088
 BYTE   N06  Fs3
 BYTE   W06
 BYTE   Cs2
 BYTE   N06  Fs3
 BYTE   W06
 BYTE   Fs2
 BYTE   W06
 BYTE   N06
 BYTE   W06
 BYTE   Gs2
 BYTE   N06  Fs3
 BYTE   W06
 BYTE   Gs2
 BYTE   W06
 BYTE   En2
 BYTE   W06
 BYTE   Fs2
 BYTE   N06  Fs3
 BYTE   W06
 BYTE   Fs2
 BYTE   W06
 BYTE   Gs2
 BYTE   N06  Fs3
 BYTE   W06
 BYTE   Gs2
 BYTE   W06
 BYTE   En2
 BYTE   W06
 BYTE   N06
 BYTE   N06  Fs3
 BYTE   W06
 BYTE   En2
 BYTE   N06  Fs3
 BYTE   W06
 BYTE   Dn2
 BYTE   W06
 BYTE   Cs2
 BYTE   W06
 BYTE   PEND 
//  #05 //053   ----------------------------------------
Label_547089:
 BYTE   N06  Cs2  v088
 BYTE   N06  Fs3
 BYTE   W06
 BYTE   Cs2
 BYTE   N06  Fs3
 BYTE   W06
 BYTE   Fs2
 BYTE   W06
 BYTE   N06
 BYTE   W06
 BYTE   Gs2
 BYTE   N06  Fs3
 BYTE   W06
 BYTE   Gs2
 BYTE   W06
 BYTE   En2
 BYTE   W06
 BYTE   Fs2
 BYTE   N06  Fs3
 BYTE   W06
 BYTE   Fs2
 BYTE   W06
 BYTE   Gs2
 BYTE   W06
 BYTE   N06
 BYTE   N06  Fs3
 BYTE   W06
 BYTE   En2
 BYTE   W06
 BYTE   N06
 BYTE   N06  Fs3
 BYTE   W06
 BYTE   En2
 BYTE   N06  Fs3
 BYTE   W06
 BYTE   Dn2
 BYTE   W06
 BYTE   Cs2
 BYTE   W06
 BYTE   PEND 
//  #05 //054   ----------------------------------------
 BYTE   PATT
  POIN2 Label_547058
//  #05 //055   ----------------------------------------
 BYTE   PATT
  POIN2 Label_547089
//  #05 //056   ----------------------------------------
 BYTE   W96
//  #05 //057   ----------------------------------------
 BYTE   N48  En5  v088
 BYTE   W48
 BYTE   Dn5
 BYTE   W48
//  #05 //058   ----------------------------------------
 BYTE   TIE  Cs5
 BYTE   W96
//  #05 //059   ----------------------------------------
 BYTE   N96  Bn2
 BYTE   W24
 BYTE   EOT
 BYTE   Cs5
 BYTE   N48  Bn4
 BYTE   W48
 BYTE   TIE  Fs5
 BYTE   W24
//  #05 //060   ----------------------------------------
 BYTE   Gs2
 BYTE   W96
//  #05 //061   ----------------------------------------
 BYTE   W24
 BYTE   EOT
 BYTE   Fs5
 BYTE   N96  Gs5
 BYTE   W24
 BYTE   EOT
 BYTE   Gs2
 BYTE   N72  An2
 BYTE   W48
//  #05 //062   ----------------------------------------
 BYTE   W24
 BYTE   Bn2
 BYTE   TIE  An5
 BYTE   W72
//  #05 //063   ----------------------------------------
 BYTE   N96  Fs3
 BYTE   W96
//  #05 //064   ----------------------------------------
 BYTE   EOT
 BYTE   An5
 BYTE   W66
 BYTE   N06  En3
 BYTE   W06
 BYTE   N12  Cs4
 BYTE   W12
 BYTE   N06  Dn4
 BYTE   W06
 BYTE   N24  Cs4
 BYTE   W06
//  #05 //065   ----------------------------------------
 BYTE   W18
 BYTE   N06  En3
 BYTE   W06
 BYTE   N12  Cs4
 BYTE   W12
 BYTE   N06  Dn4
 BYTE   W06
 BYTE   N24  Cs4
 BYTE   W24
 BYTE   N06  En3
 BYTE   W06
 BYTE   N12  Cs4
 BYTE   W12
 BYTE   N06  Dn4
 BYTE   W06
 BYTE   N18  Cs4
 BYTE   W06
//  #05 //066   ----------------------------------------
 BYTE   N12  En3
 BYTE   W12
 BYTE   Dn3
 BYTE   N12  Bn3
 BYTE   W12
 BYTE   Cs3
 BYTE   N12  An3
 BYTE   W12
 BYTE   Dn3
 BYTE   N06  Bn3
 BYTE   W06
 BYTE   N24  An3
 BYTE   W06
 BYTE   Cs3
 BYTE   W18
 BYTE   N06  En3
 BYTE   W06
 BYTE   N24  Bn2
 BYTE   N12  Cs4
 BYTE   W12
 BYTE   N06  Dn4
 BYTE   W06
 BYTE   N24  Cs4
 BYTE   W06
//  #05 //067   ----------------------------------------
 BYTE   N48  An2
 BYTE   W18
 BYTE   N06  En3
 BYTE   W06
 BYTE   N12  Cs4
 BYTE   W12
 BYTE   N06  Dn4
 BYTE   W06
 BYTE   N24  Cs4
 BYTE   W06
 BYTE   N48  Bn2
 BYTE   W18
 BYTE   N06  En3
 BYTE   W06
 BYTE   N12  Cs4
 BYTE   W12
 BYTE   N06  Dn4
 BYTE   W06
 BYTE   N18  En4
 BYTE   W06
//  #05 //068   ----------------------------------------
 BYTE   N24  Fs3
 BYTE   W12
 BYTE   N12  Dn4
 BYTE   W12
 BYTE   N24  En3
 BYTE   N12  Cs4
 BYTE   W12
 BYTE   N06  Dn4
 BYTE   W06
 BYTE   N24  Cs4
 BYTE   W06
 BYTE   Gs3
 BYTE   W18
 BYTE   N06  En3
 BYTE   W06
 BYTE   N24
 BYTE   N12  Cs4
 BYTE   W12
 BYTE   N06  Dn4
 BYTE   W06
 BYTE   N24  Cs4
 BYTE   W06
//  #05 //069   ----------------------------------------
 BYTE   Gs3
 BYTE   W18
 BYTE   N06  En3
 BYTE   W06
 BYTE   N24  An3
 BYTE   N12  Cs4
 BYTE   W12
 BYTE   N06  Dn4
 BYTE   W06
 BYTE   N30  Cs4
 BYTE   W06
 BYTE   N24  Gs3
 BYTE   W24
 BYTE   Fs3
 BYTE   N24  Bn3
 BYTE   W24
//  #05 //070   ----------------------------------------
 BYTE   N12  En3
 BYTE   N12  Bn3
 BYTE   W12
 BYTE   Dn3
 BYTE   N12  An3
 BYTE   W12
 BYTE   Cs3
 BYTE   N12  En3
 BYTE   W12
 BYTE   Dn3
 BYTE   N12  Bn3
 BYTE   W12
 BYTE   N24  Cs3
 BYTE   N24  An3
 BYTE   W24
 BYTE   Bn2
 BYTE   N12  Gs3
 BYTE   W12
 BYTE   En3
 BYTE   W12
//  #05 //071   ----------------------------------------
 BYTE   N24  Cs3
 BYTE   N12  Fs3
 BYTE   W12
 BYTE   An3
 BYTE   W12
 BYTE   N24  Bn2
 BYTE   N12  An3
 BYTE   W12
 BYTE   En3
 BYTE   W12
 BYTE   N24
 BYTE   N24  Cs4
 BYTE   W24
 BYTE   Bn2
 BYTE   N12  Dn4
 BYTE   W12
 BYTE   N24  Gs3
 BYTE   W12
//  #05 //072   ----------------------------------------
 BYTE   N96  Bn2
 BYTE   W12
 BYTE   N84  An3
 BYTE   W84
//  #05 //073   ----------------------------------------
 BYTE   W60
 BYTE   N06  Fs3
 BYTE   W06
 BYTE   N12  An2
 BYTE   N12  An3
 BYTE   W12
 BYTE   N18  En3
 BYTE   N18  En4
 BYTE   W18
//  #05 //074   ----------------------------------------
 BYTE   PATT
  POIN2 Label_546F06
//  #05 //075   ----------------------------------------
 BYTE   PATT
  POIN2 Label_546F21
//  #05 //076   ----------------------------------------
 BYTE   W48
 BYTE   N12  En3  v088
 BYTE   N12  En4
 BYTE   W12
 BYTE   Cs3
 BYTE   N12  Cs4
 BYTE   W12
 BYTE   Bn2
 BYTE   N12  Bn3
 BYTE   W12
 BYTE   N06  Cs3
 BYTE   N06  Cs4
 BYTE   W06
 BYTE   N54  An2
 BYTE   N54  An3
 BYTE   W06
//  #05 //077   ----------------------------------------
 BYTE   W60
 BYTE   N12  En4
 BYTE   N12  En5
 BYTE   W12
 BYTE   Cs4
 BYTE   N12  Cs5
 BYTE   W12
 BYTE   N48  Fs4
 BYTE   N48  Fs5
 BYTE   W12
//  #05 //078   ----------------------------------------
 BYTE   W36
 BYTE   N06  Cs4
 BYTE   N06  Cs5
 BYTE   W06
 BYTE   N42  Gs4
 BYTE   N42  Gs5
 BYTE   W42
 BYTE   N06  Cs4
 BYTE   N06  Cs5
 BYTE   W06
 BYTE   N12  An4
 BYTE   N12  An5
 BYTE   W06
//  #05 //079   ----------------------------------------
 BYTE   W06
 BYTE   N06  Bn4
 BYTE   N06  Bn5
 BYTE   W06
 BYTE   N60  An4
 BYTE   N60  An5
 BYTE   W60
 BYTE   N12  Gs4
 BYTE   N12  Gs5
 BYTE   W12
 BYTE   N06  En4
 BYTE   N06  En5
 BYTE   W06
 BYTE   N54  Fs4
 BYTE   N54  Fs5
 BYTE   W06
//  #05 //080   ----------------------------------------
 BYTE   W48
 BYTE   N12  Gs4
 BYTE   N12  Gs5
 BYTE   W12
 BYTE   N06  En4
 BYTE   N06  En5
 BYTE   W06
 BYTE   N12  Cs4
 BYTE   N12  Cs5
 BYTE   W12
 BYTE   N18  Gs4
 BYTE   N18  Gs5
 BYTE   W18
//  #05 //081   ----------------------------------------
 BYTE   N66  Fs4
 BYTE   N66  Fs5
 BYTE   W66
 BYTE   N06  En3
 BYTE   N06  En4
 BYTE   W06
 BYTE   N12  Cs4
 BYTE   N12  Cs5
 BYTE   W12
 BYTE   N06  Dn4
 BYTE   N06  Dn5
 BYTE   W06
 BYTE   N24  Cs4
 BYTE   N24  Cs5
 BYTE   W06
//  #05 //082   ----------------------------------------
 BYTE   W18
 BYTE   N06  En3
 BYTE   N06  En4
 BYTE   W06
 BYTE   N12  Cs4
 BYTE   N12  Cs5
 BYTE   W12
 BYTE   N06  Dn4
 BYTE   N06  Dn5
 BYTE   W06
 BYTE   N24  Cs4
 BYTE   N24  Cs5
 BYTE   W24
 BYTE   N06  En3
 BYTE   N06  En4
 BYTE   W06
 BYTE   N12  Cs4
 BYTE   N12  Cs5
 BYTE   W12
 BYTE   N06  Dn4
 BYTE   N06  Dn5
 BYTE   W06
 BYTE   N18  Cs4
 BYTE   N18  Cs5
 BYTE   W06
//  #05 //083   ----------------------------------------
 BYTE   W12
 BYTE   N12  Bn3
 BYTE   N12  Bn4
 BYTE   W12
 BYTE   An3
 BYTE   N12  An4
 BYTE   W12
 BYTE   N06  Bn3
 BYTE   N06  Bn4
 BYTE   W06
 BYTE   N24  An3
 BYTE   N24  An4
 BYTE   W24
 BYTE   N06  En3
 BYTE   N06  En4
 BYTE   W06
 BYTE   N12  Cs4
 BYTE   N12  Cs5
 BYTE   W12
 BYTE   N06  Dn4
 BYTE   N06  Dn5
 BYTE   W06
 BYTE   N24  Cs4
 BYTE   N24  Cs5
 BYTE   W06
//  #05 //084   ----------------------------------------
 BYTE   W18
 BYTE   N06  En3
 BYTE   N06  En4
 BYTE   W06
 BYTE   N12  Cs4
 BYTE   N12  Cs5
 BYTE   W12
 BYTE   N06  Dn4
 BYTE   N06  Dn5
 BYTE   W06
 BYTE   N24  Cs4
 BYTE   N24  Cs5
 BYTE   W24
 BYTE   N06  En3
 BYTE   N06  En4
 BYTE   W06
 BYTE   N12  Cs4
 BYTE   N12  Cs5
 BYTE   W12
 BYTE   N06  Dn4
 BYTE   N06  Dn5
 BYTE   W06
 BYTE   N18  En4
 BYTE   N18  En5
 BYTE   W06
//  #05 //085   ----------------------------------------
 BYTE   W12
 BYTE   N12  Dn4
 BYTE   N12  Dn5
 BYTE   W12
 BYTE   Cs4
 BYTE   N12  Cs5
 BYTE   W12
 BYTE   N06  Dn4
 BYTE   N06  Dn5
 BYTE   W06
 BYTE   N24  Cs4
 BYTE   N24  Cs5
 BYTE   W24
 BYTE   N06  En3
 BYTE   N06  En4
 BYTE   W06
 BYTE   N12  Cs4
 BYTE   N12  Cs5
 BYTE   W12
 BYTE   N06  Dn4
 BYTE   N06  Dn5
 BYTE   W06
 BYTE   N24  Cs4
 BYTE   N24  Cs5
 BYTE   W06
//  #05 //086   ----------------------------------------
 BYTE   W18
 BYTE   N06  En3
 BYTE   N06  En4
 BYTE   W06
 BYTE   N12  Cs4
 BYTE   N12  Cs5
 BYTE   W12
 BYTE   N06  Dn4
 BYTE   N06  Dn5
 BYTE   W06
 BYTE   N30  Cs4
 BYTE   N30  Cs5
 BYTE   W30
 BYTE   N24  Bn3
 BYTE   N24  Bn4
 BYTE   W24
//  #05 //087   ----------------------------------------
 BYTE   N12  Bn3
 BYTE   N12  Bn4
 BYTE   W12
 BYTE   An3
 BYTE   N12  An4
 BYTE   W12
 BYTE   En3
 BYTE   N12  En4
 BYTE   W12
 BYTE   Bn3
 BYTE   N12  Bn4
 BYTE   W12
 BYTE   N24  An3
 BYTE   N24  An4
 BYTE   W24
 BYTE   N12  Gs3
 BYTE   N12  Gs4
 BYTE   W12
 BYTE   En3
 BYTE   N12  En4
 BYTE   W12
//  #05 //088   ----------------------------------------
 BYTE   Fs3
 BYTE   N12  Fs4
 BYTE   W12
 BYTE   An3
 BYTE   N12  An4
 BYTE   W12
 BYTE   An3
 BYTE   N12  An4
 BYTE   W12
 BYTE   En3
 BYTE   N12  En4
 BYTE   W12
 BYTE   N24  Cs4
 BYTE   N24  Cs5
 BYTE   W24
 BYTE   N12  Dn4
 BYTE   N12  Dn5
 BYTE   W12
 BYTE   N24  Gs3
 BYTE   N24  Gs4
 BYTE   W12
//  #05 //089   ----------------------------------------
 BYTE   W12
 BYTE   N84  An3
 BYTE   N84  An4
 BYTE   W84
//  #05 //090   ----------------------------------------
 BYTE   W96
//  #05 //091   ----------------------------------------
 BYTE   W96
//  #05 //092   ----------------------------------------
 BYTE   W96
//  #05 //093   ----------------------------------------
 BYTE   W96
//  #05 //094   ----------------------------------------
 BYTE   W96
//  #05 //095   ----------------------------------------
 BYTE   W96
//  #05 //096   ----------------------------------------
 BYTE   W96
//  #05 //097   ----------------------------------------
 BYTE   W90
 BYTE   GoTo
  POIN2 Label_546E50
//  #05 //098   ----------------------------------------
 BYTE   W06
 BYTE   W96
//  #05 //099   ----------------------------------------
 BYTE   W96
 BYTE   FINE

//**************** Track 6 (Midi-Chn.5) ****************//

song02_006:
//  #06 //000   ----------------------------------------
 BYTE   VOL   35*song02_mvl/mxv
 BYTE   KEYSH   song02_key+0
Label_011808BC:
 BYTE   VOICE   42
 BYTE   MODT 0
 BYTE   LFOS 44
 BYTE   W96
//  #06 //001   ----------------------------------------
 BYTE   W96
//  #06 //002   ----------------------------------------
 BYTE   W96
//  #06 //003   ----------------------------------------
 BYTE   W96
//  #06 //004   ----------------------------------------
 BYTE   W96
//  #06 //005   ----------------------------------------
 BYTE   W96
//  #06 //006   ----------------------------------------
 BYTE   W96
//  #06 //007   ----------------------------------------
 BYTE   W96
//  #06 //008   ----------------------------------------
 BYTE   N96  Fs1  v088
 BYTE   N96  Fs2
 BYTE   W96
//  #06 //009   ----------------------------------------
 BYTE   Dn1
 BYTE   N96  Dn2
 BYTE   W96
//  #06 //010   ----------------------------------------
 BYTE   An0
 BYTE   N96  An1
 BYTE   W96
//  #06 //011   ----------------------------------------
 BYTE   En1
 BYTE   N96  En2
 BYTE   W96
//  #06 //012   ----------------------------------------
 BYTE   Fs1
 BYTE   N96  Fs2
 BYTE   W96
//  #06 //013   ----------------------------------------
 BYTE   Dn1
 BYTE   N96  Dn2
 BYTE   W96
//  #06 //014   ----------------------------------------
 BYTE   An0
 BYTE   N96  An1
 BYTE   W96
//  #06 //015   ----------------------------------------
 BYTE   En1
 BYTE   N96  En2
 BYTE   W96
//  #06 //016   ----------------------------------------
 BYTE   Fs1
 BYTE   N96  Fs2
 BYTE   W96
//  #06 //017   ----------------------------------------
 BYTE   Dn1
 BYTE   N96  Dn2
 BYTE   W96
//  #06 //018   ----------------------------------------
 BYTE   An0
 BYTE   N96  An1
 BYTE   W96
//  #06 //019   ----------------------------------------
 BYTE   En0
 BYTE   N96  En1
 BYTE   W96
//  #06 //020   ----------------------------------------
 BYTE   Fs1
 BYTE   N96  Fs2
 BYTE   W96
//  #06 //021   ----------------------------------------
 BYTE   Dn1
 BYTE   N96  Dn2
 BYTE   W96
//  #06 //022   ----------------------------------------
 BYTE   An0
 BYTE   N96  An1
 BYTE   W96
//  #06 //023   ----------------------------------------
 BYTE   En0
 BYTE   N96  En1
 BYTE   W96
//  #06 //024   ----------------------------------------
 BYTE   Bn0
 BYTE   N96  Bn1
 BYTE   W96
//  #06 //025   ----------------------------------------
 BYTE   Fs1
 BYTE   N96  Fs2
 BYTE   W96
//  #06 //026   ----------------------------------------
 BYTE   En1
 BYTE   N96  En2
 BYTE   W96
//  #06 //027   ----------------------------------------
 BYTE   Dn1
 BYTE   N96  Dn2
 BYTE   W96
//  #06 //028   ----------------------------------------
 BYTE   Bn0
 BYTE   N96  Bn1
 BYTE   W96
//  #06 //029   ----------------------------------------
 BYTE   Fs1
 BYTE   N96  Fs2
 BYTE   W96
//  #06 //030   ----------------------------------------
 BYTE   An0
 BYTE   N96  An1
 BYTE   W96
//  #06 //031   ----------------------------------------
 BYTE   W96
//  #06 //032   ----------------------------------------
Label_01180929:
 BYTE   N48  Dn1  v088
 BYTE   N48  Dn2
 BYTE   W48
 BYTE   En1
 BYTE   N48  En2
 BYTE   W48
 BYTE   PEND 
//  #06 //033   ----------------------------------------
Label_01180934:
 BYTE   N48  Fs1  v088
 BYTE   N48  Fs2
 BYTE   W48
 BYTE   Cs1
 BYTE   N48  Cs2
 BYTE   W48
 BYTE   PEND 
//  #06 //034   ----------------------------------------
 BYTE   PATT
  POIN2 Label_01180929
//  #06 //035   ----------------------------------------
Label_01180944:
 BYTE   N48  Fs1  v088
 BYTE   N48  Fs2
 BYTE   W48
 BYTE   N24  Fs0
 BYTE   N24  Fs1
 BYTE   W24
 BYTE   Cs1
 BYTE   N24  Cs2
 BYTE   W24
 BYTE   PEND 
//  #06 //036   ----------------------------------------
 BYTE   PATT
  POIN2 Label_01180929
//  #06 //037   ----------------------------------------
 BYTE   N96  Fs1  v088
 BYTE   N96  Fs2
 BYTE   W96
//  #06 //038   ----------------------------------------
Label_0118095F:
 BYTE   N48  Bn0  v088
 BYTE   N48  Bn1
 BYTE   W48
 BYTE   Cs1
 BYTE   N48  Cs2
 BYTE   W48
 BYTE   PEND 
//  #06 //039   ----------------------------------------
 BYTE   N96  Fs1
 BYTE   N96  Fs2
 BYTE   W96
//  #06 //040   ----------------------------------------
 BYTE   W96
//  #06 //041   ----------------------------------------
 BYTE   W96
//  #06 //042   ----------------------------------------
 BYTE   W96
//  #06 //043   ----------------------------------------
 BYTE   W96
//  #06 //044   ----------------------------------------
 BYTE   W96
//  #06 //045   ----------------------------------------
 BYTE   W96
//  #06 //046   ----------------------------------------
 BYTE   W96
//  #06 //047   ----------------------------------------
 BYTE   W96
//  #06 //048   ----------------------------------------
Label_01180977:
 BYTE   N06  Fs0  v088
 BYTE   N06  Fs1
 BYTE   W06
 BYTE   Fs0
 BYTE   N06  Fs1
 BYTE   W06
 BYTE   Fs0
 BYTE   N06  Fs1
 BYTE   W06
 BYTE   Fs0
 BYTE   N06  Fs1
 BYTE   W06
 BYTE   Fs0
 BYTE   N06  Fs1
 BYTE   W06
 BYTE   Fs0
 BYTE   N06  Fs1
 BYTE   W06
 BYTE   Fs0
 BYTE   N06  Fs1
 BYTE   W06
 BYTE   Fs0
 BYTE   N06  Fs1
 BYTE   W06
 BYTE   Fs0
 BYTE   N06  Fs1
 BYTE   W06
 BYTE   Fs0
 BYTE   N06  Fs1
 BYTE   W06
 BYTE   Fs0
 BYTE   N06  Fs1
 BYTE   W06
 BYTE   Fs0
 BYTE   N06  Fs1
 BYTE   W06
 BYTE   Fs0
 BYTE   N06  Fs1
 BYTE   W06
 BYTE   Fs0
 BYTE   N06  Fs1
 BYTE   W06
 BYTE   Fs0
 BYTE   N06  Fs1
 BYTE   W06
 BYTE   Fs0
 BYTE   N06  Fs1
 BYTE   W06
 BYTE   PEND 
//  #06 //049   ----------------------------------------
 BYTE   PATT
  POIN2 Label_01180977
//  #06 //050   ----------------------------------------
Label_011809BF:
 BYTE   N06  Dn0  v088
 BYTE   N06  Dn1
 BYTE   W06
 BYTE   Dn0
 BYTE   N06  Dn1
 BYTE   W06
 BYTE   Dn0
 BYTE   N06  Dn1
 BYTE   W06
 BYTE   Dn0
 BYTE   N06  Dn1
 BYTE   W06
 BYTE   Dn0
 BYTE   N06  Dn1
 BYTE   W06
 BYTE   Dn0
 BYTE   N06  Dn1
 BYTE   W06
 BYTE   Dn0
 BYTE   N06  Dn1
 BYTE   W06
 BYTE   Dn0
 BYTE   N06  Dn1
 BYTE   W06
 BYTE   Dn0
 BYTE   N06  Dn1
 BYTE   W06
 BYTE   Dn0
 BYTE   N06  Dn1
 BYTE   W06
 BYTE   Dn0
 BYTE   N06  Dn1
 BYTE   W06
 BYTE   Dn0
 BYTE   N06  Dn1
 BYTE   W06
 BYTE   Dn0
 BYTE   N06  Dn1
 BYTE   W06
 BYTE   Dn0
 BYTE   N06  Dn1
 BYTE   W06
 BYTE   Dn0
 BYTE   N06  Dn1
 BYTE   W06
 BYTE   Dn0
 BYTE   N06  Dn1
 BYTE   W06
 BYTE   PEND 
//  #06 //051   ----------------------------------------
Label_01180A02:
 BYTE   N06  En0  v088
 BYTE   N06  En1
 BYTE   W06
 BYTE   En0
 BYTE   N06  En1
 BYTE   W06
 BYTE   En0
 BYTE   N06  En1
 BYTE   W06
 BYTE   En0
 BYTE   N06  En1
 BYTE   W06
 BYTE   En0
 BYTE   N06  En1
 BYTE   W06
 BYTE   En0
 BYTE   N06  En1
 BYTE   W06
 BYTE   En0
 BYTE   N06  En1
 BYTE   W06
 BYTE   En0
 BYTE   N06  En1
 BYTE   W06
 BYTE   En0
 BYTE   N06  En1
 BYTE   W06
 BYTE   En0
 BYTE   N06  En1
 BYTE   W06
 BYTE   En0
 BYTE   N06  En1
 BYTE   W06
 BYTE   En0
 BYTE   N06  En1
 BYTE   W06
 BYTE   En0
 BYTE   N06  En1
 BYTE   W06
 BYTE   En0
 BYTE   N06  En1
 BYTE   W06
 BYTE   En0
 BYTE   N06  En1
 BYTE   W06
 BYTE   En0
 BYTE   N06  En1
 BYTE   W06
 BYTE   PEND 
//  #06 //052   ----------------------------------------
 BYTE   PATT
  POIN2 Label_01180977
//  #06 //053   ----------------------------------------
 BYTE   PATT
  POIN2 Label_01180977
//  #06 //054   ----------------------------------------
 BYTE   PATT
  POIN2 Label_011809BF
//  #06 //055   ----------------------------------------
 BYTE   PATT
  POIN2 Label_01180A02
//  #06 //056   ----------------------------------------
 BYTE   W96
//  #06 //057   ----------------------------------------
 BYTE   W96
//  #06 //058   ----------------------------------------
 BYTE   TIE  Fs1  v088
 BYTE   W96
//  #06 //059   ----------------------------------------
 BYTE   W96
//  #06 //060   ----------------------------------------
 BYTE   EOT
 BYTE   TIE
 BYTE   W96
//  #06 //061   ----------------------------------------
 BYTE   W96
//  #06 //062   ----------------------------------------
 BYTE   EOT
 BYTE   TIE
 BYTE   W96
//  #06 //063   ----------------------------------------
 BYTE   W96
//  #06 //064   ----------------------------------------
 BYTE   EOT
 BYTE   W96
//  #06 //065   ----------------------------------------
Label_01180A6A:
 BYTE   N48  Fs1  v088
 BYTE   N48  Fs2
 BYTE   W48
 BYTE   Dn1
 BYTE   N48  Dn2
 BYTE   W48
 BYTE   PEND 
//  #06 //066   ----------------------------------------
Label_01180A75:
 BYTE   N48  En1  v088
 BYTE   N48  En2
 BYTE   W48
 BYTE   An0
 BYTE   N48  An1
 BYTE   W48
 BYTE   PEND 
//  #06 //067   ----------------------------------------
 BYTE   PATT
  POIN2 Label_01180929
//  #06 //068   ----------------------------------------
 BYTE   N72  Bn1  v088
 BYTE   N72  Bn2
 BYTE   W72
 BYTE   N24  An1
 BYTE   N24  An2
 BYTE   W24
//  #06 //069   ----------------------------------------
 BYTE   PATT
  POIN2 Label_01180A6A
//  #06 //070   ----------------------------------------
 BYTE   PATT
  POIN2 Label_01180A75
//  #06 //071   ----------------------------------------
Label_01180A9A:
 BYTE   N48  Dn1  v088
 BYTE   N48  Dn2
 BYTE   W48
 BYTE   Cs1
 BYTE   N48  Cs2
 BYTE   W48
 BYTE   PEND 
//  #06 //072   ----------------------------------------
 BYTE   N96  Bn0
 BYTE   N96  Bn1
 BYTE   W96
//  #06 //073   ----------------------------------------
 BYTE   W96
//  #06 //074   ----------------------------------------
 BYTE   PATT
  POIN2 Label_01180929
//  #06 //075   ----------------------------------------
 BYTE   PATT
  POIN2 Label_01180934
//  #06 //076   ----------------------------------------
 BYTE   PATT
  POIN2 Label_01180929
//  #06 //077   ----------------------------------------
 BYTE   PATT
  POIN2 Label_01180944
//  #06 //078   ----------------------------------------
 BYTE   PATT
  POIN2 Label_01180929
//  #06 //079   ----------------------------------------
 BYTE   N96  Fs1  v088
 BYTE   N96  Fs2
 BYTE   W96
//  #06 //080   ----------------------------------------
 BYTE   PATT
  POIN2 Label_0118095F
//  #06 //081   ----------------------------------------
 BYTE   N96  Fs1  v088
 BYTE   N96  Fs2
 BYTE   W96
//  #06 //082   ----------------------------------------
 BYTE   PATT
  POIN2 Label_01180929
//  #06 //083   ----------------------------------------
Label_01180ADA:
 BYTE   N72  Fs1  v088
 BYTE   N72  Fs2
 BYTE   W72
 BYTE   N24  Cs1
 BYTE   N24  Cs2
 BYTE   W24
 BYTE   PEND 
//  #06 //084   ----------------------------------------
 BYTE   PATT
  POIN2 Label_01180929
//  #06 //085   ----------------------------------------
 BYTE   PATT
  POIN2 Label_01180ADA
//  #06 //086   ----------------------------------------
 BYTE   PATT
  POIN2 Label_01180929
//  #06 //087   ----------------------------------------
 BYTE   N96  Fs1  v088
 BYTE   N96  Fs2
 BYTE   W96
//  #06 //088   ----------------------------------------
 BYTE   PATT
  POIN2 Label_01180A9A
//  #06 //089   ----------------------------------------
 BYTE   N96  Fs1  v088
 BYTE   N96  Fs2
 BYTE   W96
//  #06 //090   ----------------------------------------
Label_01180B06:
 BYTE   TIE  Fs1  v088
 BYTE   TIE  Fs2
 BYTE   W96
 BYTE   PEND 
//  #06 //091   ----------------------------------------
 BYTE   W96
//  #06 //092   ----------------------------------------
 BYTE   W96
//  #06 //093   ----------------------------------------
 BYTE   W96
//  #06 //094   ----------------------------------------
 BYTE   EOT
 BYTE   Fs1  v054
//  #06 //095   ----------------------------------------
 BYTE   PATT
  POIN2 Label_01180B06
//  #06 //096   ----------------------------------------
 BYTE   W96
//  #06 //097   ----------------------------------------
 BYTE   EOT
 BYTE   Fs1  v054
 BYTE   N96  Dn1  v088
 BYTE   N96  Dn2
 BYTE   W96
//  #06 //098   ----------------------------------------
 BYTE   En1
 BYTE   N96  En2
 BYTE   W90
 BYTE   GoTo
  POIN2 Label_011808BC
//  #06 //099   ----------------------------------------
 BYTE   W06
 BYTE   W96
//  #06 //100   ----------------------------------------
 BYTE   W96
 BYTE   FINE

//**************** Track 7 (Midi-Chn.6) ****************//

song02_007:
//  #07 //000   ----------------------------------------
 BYTE   VOL   35*song02_mvl/mxv
 BYTE   KEYSH   song02_key+0
Label_01180B34:
 BYTE   VOICE   124
 BYTE   MODT 0
 BYTE   LFOS 44
 BYTE   N12  Fs2  v088
 BYTE   W12
 BYTE   N84
 BYTE   W84
//  #07 //001   ----------------------------------------
Label_01180B40:
 BYTE   N12  Dn2  v088
 BYTE   W12
 BYTE   N84
 BYTE   W84
 BYTE   PEND 
//  #07 //002   ----------------------------------------
Label_01180B47:
 BYTE   N12  Fs2  v088
 BYTE   W12
 BYTE   N84
 BYTE   W84
 BYTE   PEND 
//  #07 //003   ----------------------------------------
 BYTE   N96  Dn2
 BYTE   W96
//  #07 //004   ----------------------------------------
 BYTE   PATT
  POIN2 Label_01180B47
//  #07 //005   ----------------------------------------
 BYTE   PATT
  POIN2 Label_01180B40
//  #07 //006   ----------------------------------------
 BYTE   N12  An1  v088
 BYTE   W12
 BYTE   N84
 BYTE   W84
//  #07 //007   ----------------------------------------
 BYTE   N96  En2
 BYTE   W36
 BYTE   N18  Dn1
 BYTE   N18  En1
 BYTE   N18  Gn1
 BYTE   W18
 BYTE   N12  Dn1
 BYTE   N12  Gn1
 BYTE   W12
 BYTE   N06  Dn1
 BYTE   N06  En1
 BYTE   N06  Fn1
 BYTE   N06  Gn1
 BYTE   W06
 BYTE   Dn1
 BYTE   N06  Gn1
 BYTE   W06
 BYTE   Dn1
 BYTE   N06  En1
 BYTE   N06  Fn1
 BYTE   N06  Gn1
 BYTE   W06
 BYTE   Dn1
 BYTE   N06  En1
 BYTE   N06  Fn1
 BYTE   N06  Gn1
 BYTE   W12
//  #07 //008   ----------------------------------------
 BYTE   N96  Bn0
 BYTE   N24  Fn1
 BYTE   N24  Gs1
 BYTE   N06  Cn2
 BYTE   N12  Fs2
 BYTE   W06
 BYTE   N06  An1
 BYTE   W06
 BYTE   Bn1
 BYTE   N84  Fs2
 BYTE   W06
 BYTE   N06  An1
 BYTE   W06
 BYTE   N18  Dn1
 BYTE   N18  En1
 BYTE   N18  Fn1
 BYTE   N18  Gs1
 BYTE   N06  Cn2
 BYTE   W06
 BYTE   An1
 BYTE   W06
 BYTE   Bn1
 BYTE   W06
 BYTE   N12  En1
 BYTE   N12  Fn1
 BYTE   N12  Fs1
 BYTE   N06  An1
 BYTE   W06
 BYTE   Cn2
 BYTE   W06
 BYTE   N12  Dn1
 BYTE   N12  En1
 BYTE   N12  Fn1
 BYTE   N12  Gs1
 BYTE   N06  An1
 BYTE   W06
 BYTE   Bn1
 BYTE   W06
 BYTE   N12  En1
 BYTE   N12  Fn1
 BYTE   N12  Fs1
 BYTE   N06  An1
 BYTE   W06
 BYTE   Cn2
 BYTE   W06
 BYTE   N12  Dn1
 BYTE   N12  En1
 BYTE   N12  Fn1
 BYTE   N06  An1
 BYTE   W06
 BYTE   Bn1
 BYTE   W06
 BYTE   An1
 BYTE   W06
//  #07 //009   ----------------------------------------
 BYTE   N96  Bn0
 BYTE   N24  Gs1
 BYTE   N06  Cn2
 BYTE   N12  Dn2
 BYTE   W06
 BYTE   N06  An1
 BYTE   W06
 BYTE   Bn1
 BYTE   N84  Dn2
 BYTE   W06
 BYTE   N06  An1
 BYTE   W06
 BYTE   N12  Dn1
 BYTE   N12  En1
 BYTE   N18  Fn1
 BYTE   N18  Gs1
 BYTE   N06  Cn2
 BYTE   W06
 BYTE   An1
 BYTE   W06
 BYTE   Bn1
 BYTE   W06
 BYTE   N12  En1
 BYTE   N18  Fn1
 BYTE   N06  Gs1
 BYTE   N06  An1
 BYTE   W06
 BYTE   Cn2
 BYTE   W06
 BYTE   An1
 BYTE   W06
 BYTE   Gs1
 BYTE   N06  Bn1
 BYTE   W06
 BYTE   N12  Fs1
 BYTE   N06  Gn1
 BYTE   N06  An1
 BYTE   W06
 BYTE   Dn1
 BYTE   N06  En1
 BYTE   N06  Fn1
 BYTE   N06  Cn2
 BYTE   W06
 BYTE   Dn1
 BYTE   N06  En1
 BYTE   N06  Fn1
 BYTE   N18  Fs1
 BYTE   N06  An1
 BYTE   W06
 BYTE   Dn1
 BYTE   N06  En1
 BYTE   N06  Fn1
 BYTE   N06  Bn1
 BYTE   W06
 BYTE   En1
 BYTE   N06  Fn1
 BYTE   N06  An1
 BYTE   W06
//  #07 //010   ----------------------------------------
 BYTE   N96  Bn0
 BYTE   N06  Dn1
 BYTE   N06  En1
 BYTE   N06  Fn1
 BYTE   N24  Gs1
 BYTE   N06  An1
 BYTE   N06  Cn2
 BYTE   W06
 BYTE   Dn1
 BYTE   N06  En1
 BYTE   N06  Fn1
 BYTE   N06  An1
 BYTE   W06
 BYTE   En1
 BYTE   N06  Fn1
 BYTE   N06  An1
 BYTE   N06  Bn1
 BYTE   W06
 BYTE   An1
 BYTE   W06
 BYTE   N12  En1
 BYTE   N18  Fn1
 BYTE   N12  Gs1
 BYTE   N06  Cn2
 BYTE   W06
 BYTE   An1
 BYTE   W06
 BYTE   Dn1
 BYTE   N06  En1
 BYTE   N06  Bn1
 BYTE   W06
 BYTE   En1
 BYTE   N18  Fn1
 BYTE   N06  An1
 BYTE   W06
 BYTE   Cn2
 BYTE   W06
 BYTE   Fs1
 BYTE   N06  An1
 BYTE   W06
 BYTE   N12  Dn1
 BYTE   N12  En1
 BYTE   N12  Fn1
 BYTE   N12  Gs1
 BYTE   N06  Bn1
 BYTE   W06
 BYTE   An1
 BYTE   W06
 BYTE   N18  En1
 BYTE   N06  Cn2
 BYTE   W06
 BYTE   An1
 BYTE   W06
 BYTE   Bn1
 BYTE   W06
 BYTE   An1
 BYTE   W06
//  #07 //011   ----------------------------------------
 BYTE   N96  Bn0
 BYTE   N24  Gs1
 BYTE   N06  Cn2
 BYTE   N96  En2
 BYTE   W06
 BYTE   N06  An1
 BYTE   W06
 BYTE   Bn1
 BYTE   W06
 BYTE   An1
 BYTE   W06
 BYTE   N18  Dn1
 BYTE   N18  En1
 BYTE   N18  Fn1
 BYTE   N18  Gs1
 BYTE   N06  Cn2
 BYTE   W06
 BYTE   An1
 BYTE   W06
 BYTE   Bn1
 BYTE   W06
 BYTE   N12  En1
 BYTE   N18  Fn1
 BYTE   N06  Gs1
 BYTE   N06  An1
 BYTE   W06
 BYTE   Cn2
 BYTE   W06
 BYTE   An1
 BYTE   W06
 BYTE   Gs1
 BYTE   N06  Bn1
 BYTE   W06
 BYTE   N12  Fs1
 BYTE   N06  Gn1
 BYTE   N06  An1
 BYTE   W06
 BYTE   Dn1
 BYTE   N06  En1
 BYTE   N06  Fn1
 BYTE   N06  Cn2
 BYTE   W06
 BYTE   Dn1
 BYTE   N06  En1
 BYTE   N06  Fn1
 BYTE   N18  Fs1
 BYTE   N06  An1
 BYTE   W06
 BYTE   Dn1
 BYTE   N06  En1
 BYTE   N06  Fn1
 BYTE   N06  Bn1
 BYTE   W06
 BYTE   En1
 BYTE   N06  Fn1
 BYTE   N06  An1
 BYTE   W06
//  #07 //012   ----------------------------------------
 BYTE   N96  Bn0
 BYTE   N24  Fn1
 BYTE   N12  Gn1
 BYTE   N24  Gs1
 BYTE   N12  Fs2
 BYTE   W12
 BYTE   N06  Gn1
 BYTE   N84  Fs2
 BYTE   W12
 BYTE   N18  Dn1
 BYTE   N18  En1
 BYTE   N18  Fn1
 BYTE   N06  Gn1
 BYTE   N18  Gs1
 BYTE   W06
 BYTE   N12  Gn1
 BYTE   W12
 BYTE   En1
 BYTE   N12  Fn1
 BYTE   N12  Fs1
 BYTE   N18  Gn1
 BYTE   W12
 BYTE   N12  Dn1
 BYTE   N12  En1
 BYTE   N12  Fn1
 BYTE   N12  Gs1
 BYTE   W06
 BYTE   Gn1
 BYTE   W06
 BYTE   En1
 BYTE   N12  Fn1
 BYTE   N12  Fs1
 BYTE   W12
 BYTE   Dn1
 BYTE   N12  En1
 BYTE   N12  Fn1
 BYTE   W18
//  #07 //013   ----------------------------------------
 BYTE   N96  Bn0
 BYTE   N24  Gs1
 BYTE   N12  Dn2
 BYTE   W12
 BYTE   N84
 BYTE   W12
 BYTE   N12  Dn1
 BYTE   N12  En1
 BYTE   N18  Fn1
 BYTE   N06  Gn1
 BYTE   N18  Gs1
 BYTE   W18
 BYTE   N12  En1
 BYTE   N18  Fn1
 BYTE   N06  Gn1
 BYTE   N06  Gs1
 BYTE   W18
 BYTE   N06
 BYTE   W06
 BYTE   N12  Fs1
 BYTE   N06  Gn1
 BYTE   W06
 BYTE   Dn1
 BYTE   N06  En1
 BYTE   N06  Fn1
 BYTE   W06
 BYTE   Dn1
 BYTE   N06  En1
 BYTE   N06  Fn1
 BYTE   N18  Fs1
 BYTE   W06
 BYTE   N06  Dn1
 BYTE   N06  En1
 BYTE   N06  Fn1
 BYTE   W06
 BYTE   En1
 BYTE   N06  Fn1
 BYTE   W06
//  #07 //014   ----------------------------------------
 BYTE   N96  Bn0
 BYTE   N06  Dn1
 BYTE   N06  En1
 BYTE   N06  Fn1
 BYTE   N24  Gs1
 BYTE   N12  An1
 BYTE   W06
 BYTE   N06  Dn1
 BYTE   N06  En1
 BYTE   N06  Fn1
 BYTE   W06
 BYTE   En1
 BYTE   N06  Fn1
 BYTE   N84  An1
 BYTE   W12
 BYTE   N12  En1
 BYTE   N18  Fn1
 BYTE   N12  Gs1
 BYTE   W12
 BYTE   N06  Dn1
 BYTE   N06  En1
 BYTE   W06
 BYTE   N06
 BYTE   N18  Fn1
 BYTE   W12
 BYTE   N06  Fs1
 BYTE   W06
 BYTE   N12  Dn1
 BYTE   N12  En1
 BYTE   N12  Fn1
 BYTE   N12  Gs1
 BYTE   W12
 BYTE   N18  En1
 BYTE   W24
//  #07 //015   ----------------------------------------
 BYTE   N96  Bn0
 BYTE   N06  Gn1
 BYTE   N24  Gs1
 BYTE   N96  En2
 BYTE   W12
 BYTE   N06  Gn1
 BYTE   W12
 BYTE   N18  Dn1
 BYTE   N18  En1
 BYTE   N18  Fn1
 BYTE   N06  Gn1
 BYTE   N18  Gs1
 BYTE   W06
 BYTE   N06  Gn1
 BYTE   W12
 BYTE   N12  En1
 BYTE   N18  Fn1
 BYTE   N06  Gn1
 BYTE   N06  Gs1
 BYTE   W18
 BYTE   Gn1
 BYTE   N06  Gs1
 BYTE   W06
 BYTE   N12  Fs1
 BYTE   N06  Gn1
 BYTE   W06
 BYTE   Dn1
 BYTE   N06  En1
 BYTE   N06  Fn1
 BYTE   W06
 BYTE   Dn1
 BYTE   N06  En1
 BYTE   N06  Fn1
 BYTE   N18  Fs1
 BYTE   W06
 BYTE   N06  Dn1
 BYTE   N06  En1
 BYTE   N06  Fn1
 BYTE   W06
 BYTE   En1
 BYTE   N06  Fn1
 BYTE   W06
//  #07 //016   ----------------------------------------
 BYTE   W96
//  #07 //017   ----------------------------------------
 BYTE   W96
//  #07 //018   ----------------------------------------
 BYTE   W96
//  #07 //019   ----------------------------------------
 BYTE   W96
//  #07 //020   ----------------------------------------
Label_01180DE4:
 BYTE   N06  Fs1  v088
 BYTE   W06
 BYTE   Dn1
 BYTE   N06  Gn1
 BYTE   W06
 BYTE   Dn1
 BYTE   N06  Gn1
 BYTE   W06
 BYTE   Gs1
 BYTE   W06
 BYTE   Dn1
 BYTE   N06  Gn1
 BYTE   W06
 BYTE   Dn1
 BYTE   N06  Gn1
 BYTE   W06
 BYTE   N12  Fs1
 BYTE   W12
 BYTE   N24  Dn1
 BYTE   N24  Gn1
 BYTE   W48
 BYTE   PEND 
//  #07 //021   ----------------------------------------
Label_01180E03:
 BYTE   N24  Gn2  v088
 BYTE   W24
 BYTE   N12  Gs1
 BYTE   W18
 BYTE   N06
 BYTE   W06
 BYTE   N06
 BYTE   W24
 BYTE   W03
 BYTE   N18  Gn2
 BYTE   W21
 BYTE   PEND 
//  #07 //022   ----------------------------------------
 BYTE   PATT
  POIN2 Label_01180DE4
//  #07 //023   ----------------------------------------
 BYTE   PATT
  POIN2 Label_01180E03
//  #07 //024   ----------------------------------------
 BYTE   N06  Bn1  v088
 BYTE   W06
 BYTE   An1
 BYTE   W06
 BYTE   N06
 BYTE   W06
 BYTE   Bn1
 BYTE   W06
 BYTE   Dn1
 BYTE   N06  En1
 BYTE   N06  An1
 BYTE   W06
 BYTE   Bn1
 BYTE   W06
 BYTE   An1
 BYTE   W06
 BYTE   Dn1
 BYTE   N06  En1
 BYTE   N06  An1
 BYTE   W06
 BYTE   Bn1
 BYTE   W06
 BYTE   An1
 BYTE   W06
 BYTE   N06
 BYTE   W06
 BYTE   Bn1
 BYTE   W06
 BYTE   Dn1
 BYTE   N06  En1
 BYTE   N06  An1
 BYTE   W06
 BYTE   Dn1
 BYTE   N06  En1
 BYTE   N06  An1
 BYTE   W06
 BYTE   En1
 BYTE   W06
 BYTE   Bn1
 BYTE   W06
//  #07 //025   ----------------------------------------
 BYTE   Dn1
 BYTE   N06  Bn1
 BYTE   W06
 BYTE   An1
 BYTE   W06
 BYTE   N06
 BYTE   W06
 BYTE   Bn1
 BYTE   W06
 BYTE   Dn1
 BYTE   N06  En1
 BYTE   N06  An1
 BYTE   W06
 BYTE   Bn1
 BYTE   W06
 BYTE   An1
 BYTE   W06
 BYTE   Dn1
 BYTE   N06  En1
 BYTE   N06  An1
 BYTE   W06
 BYTE   Bn1
 BYTE   W06
 BYTE   An1
 BYTE   W06
 BYTE   N06
 BYTE   W06
 BYTE   Bn1
 BYTE   W06
 BYTE   Dn1
 BYTE   N06  En1
 BYTE   N06  An1
 BYTE   W06
 BYTE   N06
 BYTE   W06
 BYTE   Dn1
 BYTE   N06  En1
 BYTE   N06  An1
 BYTE   W06
 BYTE   Bn1
 BYTE   W06
//  #07 //026   ----------------------------------------
 BYTE   Dn1
 BYTE   N06  En1
 BYTE   N06  An1
 BYTE   W06
 BYTE   Dn1
 BYTE   N06  En1
 BYTE   W06
 BYTE   Dn1
 BYTE   N06  En1
 BYTE   N06  An1
 BYTE   W06
 BYTE   N06
 BYTE   W06
 BYTE   Dn1
 BYTE   W06
 BYTE   Bn1
 BYTE   W06
 BYTE   An1
 BYTE   W06
 BYTE   Dn1
 BYTE   N06  En1
 BYTE   N06  An1
 BYTE   W06
 BYTE   Bn1
 BYTE   W06
 BYTE   An1
 BYTE   W06
 BYTE   N06
 BYTE   W06
 BYTE   Bn1
 BYTE   W06
 BYTE   Dn1
 BYTE   N06  An1
 BYTE   W06
 BYTE   Cn2
 BYTE   W06
 BYTE   Bn1
 BYTE   W06
 BYTE   An1
 BYTE   W06
//  #07 //027   ----------------------------------------
 BYTE   Bn1
 BYTE   W06
 BYTE   An1
 BYTE   W06
 BYTE   N06
 BYTE   W06
 BYTE   Bn1
 BYTE   W06
 BYTE   Dn1
 BYTE   N06  En1
 BYTE   N06  An1
 BYTE   W06
 BYTE   Bn1
 BYTE   W06
 BYTE   An1
 BYTE   W06
 BYTE   Dn1
 BYTE   N06  En1
 BYTE   N06  An1
 BYTE   W06
 BYTE   Bn1
 BYTE   W06
 BYTE   An1
 BYTE   W06
 BYTE   N06
 BYTE   W06
 BYTE   Bn1
 BYTE   W06
 BYTE   N06
 BYTE   W06
 BYTE   Dn1
 BYTE   N06  En1
 BYTE   N06  An1
 BYTE   W06
 BYTE   Dn1
 BYTE   N06  En1
 BYTE   N06  An1
 BYTE   W06
 BYTE   En1
 BYTE   N06  An1
 BYTE   W06
//  #07 //028   ----------------------------------------
 BYTE   W96
//  #07 //029   ----------------------------------------
 BYTE   W18
 BYTE   Gn1
 BYTE   W06
 BYTE   N06
 BYTE   W12
 BYTE   En1
 BYTE   W18
 BYTE   Dn1
 BYTE   W06
 BYTE   N06
 BYTE   W12
 BYTE   N06
 BYTE   W24
//  #07 //030   ----------------------------------------
 BYTE   W96
//  #07 //031   ----------------------------------------
 BYTE   W36
 BYTE   N18
 BYTE   N18  En1
 BYTE   N18  Gn1
 BYTE   W18
 BYTE   N12  Dn1
 BYTE   N12  Gn1
 BYTE   W12
 BYTE   N06  Dn1
 BYTE   N06  En1
 BYTE   N06  Fn1
 BYTE   N06  Gn1
 BYTE   W06
 BYTE   Dn1
 BYTE   N06  Gn1
 BYTE   W06
 BYTE   Dn1
 BYTE   N06  En1
 BYTE   N06  Fn1
 BYTE   N06  Gn1
 BYTE   W06
 BYTE   Dn1
 BYTE   N06  En1
 BYTE   N06  Fn1
 BYTE   N06  Gn1
 BYTE   W12
//  #07 //032   ----------------------------------------
Label_01180F1B:
 BYTE   N96  Bn0  v088
 BYTE   N24  Fn1
 BYTE   N24  Gs1
 BYTE   N06  Cn2
 BYTE   N96  Cs2
 BYTE   N96  An2
 BYTE   W06
 BYTE   N06  An1
 BYTE   W06
 BYTE   Bn1
 BYTE   W06
 BYTE   An1
 BYTE   W06
 BYTE   N18  Dn1
 BYTE   N18  En1
 BYTE   N18  Fn1
 BYTE   N18  Gs1
 BYTE   N06  Cn2
 BYTE   W06
 BYTE   An1
 BYTE   W06
 BYTE   Bn1
 BYTE   W06
 BYTE   N12  En1
 BYTE   N12  Fn1
 BYTE   N12  Fs1
 BYTE   N06  An1
 BYTE   W06
 BYTE   Cn2
 BYTE   W06
 BYTE   N12  Dn1
 BYTE   N12  En1
 BYTE   N12  Fn1
 BYTE   N12  Gs1
 BYTE   N06  An1
 BYTE   W06
 BYTE   Bn1
 BYTE   W06
 BYTE   N12  En1
 BYTE   N12  Fn1
 BYTE   N12  Fs1
 BYTE   N06  An1
 BYTE   W06
 BYTE   Cn2
 BYTE   W06
 BYTE   N12  Dn1
 BYTE   N12  En1
 BYTE   N12  Fn1
 BYTE   N06  An1
 BYTE   W06
 BYTE   Bn1
 BYTE   W06
 BYTE   An1
 BYTE   W06
 BYTE   PEND 
//  #07 //033   ----------------------------------------
Label_01180F70:
 BYTE   N96  Bn0  v088
 BYTE   N24  Gs1
 BYTE   N06  Cn2
 BYTE   W06
 BYTE   An1
 BYTE   W06
 BYTE   Bn1
 BYTE   W06
 BYTE   An1
 BYTE   W06
 BYTE   N12  Dn1
 BYTE   N12  En1
 BYTE   N18  Fn1
 BYTE   N18  Gs1
 BYTE   N06  Cn2
 BYTE   W06
 BYTE   An1
 BYTE   W06
 BYTE   Bn1
 BYTE   W06
 BYTE   N12  En1
 BYTE   N18  Fn1
 BYTE   N06  Gs1
 BYTE   N06  An1
 BYTE   W06
 BYTE   Cn2
 BYTE   W06
 BYTE   An1
 BYTE   W06
 BYTE   Gs1
 BYTE   N06  Bn1
 BYTE   W06
 BYTE   N12  Fs1
 BYTE   N06  Gn1
 BYTE   N06  An1
 BYTE   W06
 BYTE   Dn1
 BYTE   N06  En1
 BYTE   N06  Fn1
 BYTE   N06  Cn2
 BYTE   W06
 BYTE   Dn1
 BYTE   N06  En1
 BYTE   N06  Fn1
 BYTE   N18  Fs1
 BYTE   N06  An1
 BYTE   W06
 BYTE   Dn1
 BYTE   N06  En1
 BYTE   N06  Fn1
 BYTE   N06  Bn1
 BYTE   W06
 BYTE   En1
 BYTE   N06  Fn1
 BYTE   N06  An1
 BYTE   W06
 BYTE   PEND 
//  #07 //034   ----------------------------------------
Label_01180FC6:
 BYTE   N96  Bn0  v088
 BYTE   N06  Dn1
 BYTE   N06  En1
 BYTE   N06  Fn1
 BYTE   N24  Gs1
 BYTE   N06  Cn2
 BYTE   W06
 BYTE   Dn1
 BYTE   N06  En1
 BYTE   N06  Fn1
 BYTE   N06  An1
 BYTE   W06
 BYTE   En1
 BYTE   N06  Fn1
 BYTE   N06  Bn1
 BYTE   W06
 BYTE   An1
 BYTE   W06
 BYTE   N12  En1
 BYTE   N18  Fn1
 BYTE   N12  Gs1
 BYTE   N06  Cn2
 BYTE   W06
 BYTE   An1
 BYTE   W06
 BYTE   Dn1
 BYTE   N06  En1
 BYTE   N06  Bn1
 BYTE   W06
 BYTE   En1
 BYTE   N18  Fn1
 BYTE   N06  An1
 BYTE   W06
 BYTE   Cn2
 BYTE   W06
 BYTE   Fs1
 BYTE   N06  An1
 BYTE   W06
 BYTE   N12  Dn1
 BYTE   N12  En1
 BYTE   N12  Fn1
 BYTE   N12  Gs1
 BYTE   N06  Bn1
 BYTE   W06
 BYTE   An1
 BYTE   W06
 BYTE   N18  En1
 BYTE   N06  Cn2
 BYTE   W06
 BYTE   An1
 BYTE   W06
 BYTE   Bn1
 BYTE   W06
 BYTE   An1
 BYTE   W06
 BYTE   PEND 
//  #07 //035   ----------------------------------------
Label_0118101A:
 BYTE   N96  Bn0  v088
 BYTE   N24  Gs1
 BYTE   N06  Cn2
 BYTE   W06
 BYTE   An1
 BYTE   W06
 BYTE   Bn1
 BYTE   W06
 BYTE   An1
 BYTE   W06
 BYTE   N18  Dn1
 BYTE   N18  En1
 BYTE   N18  Fn1
 BYTE   N18  Gs1
 BYTE   N06  Cn2
 BYTE   W06
 BYTE   An1
 BYTE   W06
 BYTE   Bn1
 BYTE   W06
 BYTE   N12  En1
 BYTE   N18  Fn1
 BYTE   N06  Gs1
 BYTE   N06  An1
 BYTE   W06
 BYTE   Cn2
 BYTE   W06
 BYTE   An1
 BYTE   W06
 BYTE   Gs1
 BYTE   N06  Bn1
 BYTE   W06
 BYTE   N12  Fs1
 BYTE   N06  Gn1
 BYTE   N06  An1
 BYTE   W06
 BYTE   Dn1
 BYTE   N06  En1
 BYTE   N06  Fn1
 BYTE   N06  Cn2
 BYTE   W06
 BYTE   Dn1
 BYTE   N06  En1
 BYTE   N06  Fn1
 BYTE   N18  Fs1
 BYTE   N06  An1
 BYTE   W06
 BYTE   Dn1
 BYTE   N06  En1
 BYTE   N06  Fn1
 BYTE   N06  Bn1
 BYTE   W06
 BYTE   En1
 BYTE   N06  Fn1
 BYTE   N06  An1
 BYTE   W06
 BYTE   PEND 
//  #07 //036   ----------------------------------------
 BYTE   PATT
  POIN2 Label_01180F1B
//  #07 //037   ----------------------------------------
 BYTE   PATT
  POIN2 Label_01180F70
//  #07 //038   ----------------------------------------
 BYTE   PATT
  POIN2 Label_01180FC6
//  #07 //039   ----------------------------------------
 BYTE   PATT
  POIN2 Label_0118101A
//  #07 //040   ----------------------------------------
 BYTE   N06  Fs1  v088
 BYTE   W06
 BYTE   Fs0
 BYTE   W06
 BYTE   N06
 BYTE   W06
 BYTE   N06
 BYTE   W06
 BYTE   N06
 BYTE   W06
 BYTE   Fs1
 BYTE   W06
 BYTE   N06
 BYTE   W06
 BYTE   Fs0
 BYTE   W06
 BYTE   Fs1
 BYTE   W06
 BYTE   Fs0
 BYTE   W06
 BYTE   Fs1
 BYTE   W06
 BYTE   Fs0
 BYTE   W06
 BYTE   N06
 BYTE   W06
 BYTE   Fs1
 BYTE   W06
 BYTE   N06
 BYTE   W06
 BYTE   Fs0
 BYTE   W06
//  #07 //041   ----------------------------------------
 BYTE   Fs1
 BYTE   W06
 BYTE   Fs0
 BYTE   W06
 BYTE   N06
 BYTE   W06
 BYTE   Fs1
 BYTE   W06
 BYTE   Fs0
 BYTE   W06
 BYTE   Fs1
 BYTE   W06
 BYTE   N06
 BYTE   W06
 BYTE   Fs0
 BYTE   W06
 BYTE   N06
 BYTE   W06
 BYTE   Fs1
 BYTE   W06
 BYTE   Fs0
 BYTE   W06
 BYTE   Fs1
 BYTE   W06
 BYTE   Fs0
 BYTE   W06
 BYTE   Fs1
 BYTE   W06
 BYTE   N06
 BYTE   W06
 BYTE   Fs0
 BYTE   W06
//  #07 //042   ----------------------------------------
Label_011810C6:
 BYTE   N06  Fs1  v088
 BYTE   N12  Fn2
 BYTE   W06
 BYTE   N06  Fs0
 BYTE   W06
 BYTE   N06
 BYTE   N06  Fn2
 BYTE   W06
 BYTE   Fs0
 BYTE   N06  Fn2
 BYTE   W06
 BYTE   Fs0
 BYTE   N06  Dn1
 BYTE   W06
 BYTE   N06
 BYTE   N06  Fs1
 BYTE   W06
 BYTE   N06
 BYTE   N06  Fn2
 BYTE   W06
 BYTE   Fs0
 BYTE   N06  Fn2
 BYTE   W06
 BYTE   Fs1
 BYTE   W06
 BYTE   Fs0
 BYTE   N18  Fn2
 BYTE   W06
 BYTE   N06  Fs1
 BYTE   W06
 BYTE   Fs0
 BYTE   W06
 BYTE   N06
 BYTE   N18  Dn1
 BYTE   W06
 BYTE   N06  Fs1
 BYTE   W06
 BYTE   N06
 BYTE   W06
 BYTE   Fs0
 BYTE   N06  Dn1
 BYTE   W06
 BYTE   PEND 
//  #07 //043   ----------------------------------------
Label_01181100:
 BYTE   N06  Fs1  v088
 BYTE   N24  Fn2
 BYTE   W06
 BYTE   N06  Fs0
 BYTE   W06
 BYTE   N06
 BYTE   W06
 BYTE   Fs1
 BYTE   W06
 BYTE   Fs0
 BYTE   N12  Dn1
 BYTE   W06
 BYTE   N06  Fs1
 BYTE   W06
 BYTE   N06
 BYTE   N06  Fn2
 BYTE   W06
 BYTE   Fs0
 BYTE   N06  Fn2
 BYTE   W06
 BYTE   Fs0
 BYTE   W06
 BYTE   Fs1
 BYTE   N18  Fn2
 BYTE   W06
 BYTE   N06  Fs0
 BYTE   W06
 BYTE   Fs1
 BYTE   W06
 BYTE   Fs0
 BYTE   N24  Dn1
 BYTE   W06
 BYTE   N06  Fs1
 BYTE   W06
 BYTE   N06
 BYTE   W06
 BYTE   Fs0
 BYTE   W06
 BYTE   PEND 
//  #07 //044   ----------------------------------------
 BYTE   PATT
  POIN2 Label_011810C6
//  #07 //045   ----------------------------------------
 BYTE   PATT
  POIN2 Label_01181100
//  #07 //046   ----------------------------------------
 BYTE   N06  Dn1  v088
 BYTE   N12  Fn2
 BYTE   W06
 BYTE   N06  Dn0
 BYTE   W06
 BYTE   N06
 BYTE   N06  Fn2
 BYTE   W06
 BYTE   Dn0
 BYTE   N06  Fn2
 BYTE   W06
 BYTE   Dn0
 BYTE   N06  Dn1
 BYTE   W06
 BYTE   N06
 BYTE   W06
 BYTE   N06
 BYTE   N06  Fn2
 BYTE   W06
 BYTE   Dn0
 BYTE   N06  Fn2
 BYTE   W06
 BYTE   Dn1
 BYTE   W06
 BYTE   Dn0
 BYTE   N18  Fn2
 BYTE   W06
 BYTE   N06  Dn1
 BYTE   W06
 BYTE   Dn0
 BYTE   W06
 BYTE   N06
 BYTE   N06  Dn1
 BYTE   W06
 BYTE   N06
 BYTE   W06
 BYTE   N06
 BYTE   W06
 BYTE   Dn0
 BYTE   N06  Dn1
 BYTE   W06
//  #07 //047   ----------------------------------------
 BYTE   En1
 BYTE   N24  Fn2
 BYTE   W06
 BYTE   N06  En0
 BYTE   W06
 BYTE   N06
 BYTE   W06
 BYTE   En1
 BYTE   W06
 BYTE   En0
 BYTE   N12  Dn1
 BYTE   W06
 BYTE   N06  En1
 BYTE   W06
 BYTE   N12  Dn1
 BYTE   N06  En1
 BYTE   N18  Gn1
 BYTE   N06  Fn2
 BYTE   W06
 BYTE   En0
 BYTE   N06  Fn2
 BYTE   W06
 BYTE   En0
 BYTE   W06
 BYTE   N12  Dn1
 BYTE   N06  En1
 BYTE   N12  Gn1
 BYTE   N18  Fn2
 BYTE   W06
 BYTE   N06  En0
 BYTE   W06
 BYTE   Dn1
 BYTE   N06  En1
 BYTE   N06  Fn1
 BYTE   N06  Gn1
 BYTE   W06
 BYTE   En0
 BYTE   N06  Dn1
 BYTE   N06  Gn1
 BYTE   W06
 BYTE   Dn1
 BYTE   N06  En1
 BYTE   N06  Fn1
 BYTE   N06  Gn1
 BYTE   W06
 BYTE   Dn1
 BYTE   N06  En1
 BYTE   N06  Fn1
 BYTE   N06  Gn1
 BYTE   W06
 BYTE   En0
 BYTE   W06
//  #07 //048   ----------------------------------------
 BYTE   PATT
  POIN2 Label_01180F1B
//  #07 //049   ----------------------------------------
Label_011811C5:
 BYTE   N96  Bn0  v088
 BYTE   N24  Gs1
 BYTE   W18
 BYTE   N06  Gn1
 BYTE   W06
 BYTE   N18  Fn1
 BYTE   N06  Gn1
 BYTE   N18  Gs1
 BYTE   W12
 BYTE   N06  En1
 BYTE   W06
 BYTE   N18  Fn1
 BYTE   N06  Gs1
 BYTE   W12
 BYTE   Dn1
 BYTE   W06
 BYTE   N06
 BYTE   N06  Gs1
 BYTE   W06
 BYTE   N12  Fs1
 BYTE   W06
 BYTE   N06  Dn1
 BYTE   N06  Fn1
 BYTE   W06
 BYTE   N06
 BYTE   N18  Fs1
 BYTE   W06
 BYTE   N06  Fn1
 BYTE   W06
 BYTE   N06
 BYTE   W06
 BYTE   PEND 
//  #07 //050   ----------------------------------------
 BYTE   PATT
  POIN2 Label_01180FC6
//  #07 //051   ----------------------------------------
 BYTE   PATT
  POIN2 Label_011811C5
//  #07 //052   ----------------------------------------
 BYTE   N48  Bn0  v088
 BYTE   N06  Fs1
 BYTE   N48  Gn1
 BYTE   N96  Cs2
 BYTE   N96  An2
 BYTE   W06
 BYTE   N06  Gs1
 BYTE   W06
 BYTE   As1
 BYTE   W06
 BYTE   Gs1
 BYTE   W06
 BYTE   N24  Dn1
 BYTE   N24  En1
 BYTE   N06  As1
 BYTE   W06
 BYTE   Gs1
 BYTE   W06
 BYTE   Fs1
 BYTE   W06
 BYTE   Gs1
 BYTE   W06
 BYTE   Fs1
 BYTE   W06
 BYTE   Bn0
 BYTE   N06  Gn1
 BYTE   N06  Gs1
 BYTE   W06
 BYTE   Fs1
 BYTE   W06
 BYTE   Gs1
 BYTE   W06
 BYTE   N24  Dn1
 BYTE   N24  En1
 BYTE   N06  As1
 BYTE   W06
 BYTE   Gs1
 BYTE   W06
 BYTE   Fs1
 BYTE   W06
 BYTE   Gs1
 BYTE   W06
//  #07 //053   ----------------------------------------
 BYTE   N12  Bn0
 BYTE   N06  Fs1
 BYTE   N12  Gn1
 BYTE   W06
 BYTE   N06  Gs1
 BYTE   W06
 BYTE   N12  Bn0
 BYTE   N12  Gn1
 BYTE   N06  As1
 BYTE   W06
 BYTE   Gs1
 BYTE   W06
 BYTE   N24  Dn1
 BYTE   N24  En1
 BYTE   N06  As1
 BYTE   W06
 BYTE   Gs1
 BYTE   W06
 BYTE   Fs1
 BYTE   W06
 BYTE   Gs1
 BYTE   W06
 BYTE   Fs1
 BYTE   W06
 BYTE   Gs1
 BYTE   W06
 BYTE   Bn0
 BYTE   N06  Fs1
 BYTE   N06  Gn1
 BYTE   W06
 BYTE   Bn0
 BYTE   N06  Gn1
 BYTE   N06  Gs1
 BYTE   W06
 BYTE   N24  Dn1
 BYTE   N24  En1
 BYTE   N06  As1
 BYTE   W06
 BYTE   Gs1
 BYTE   W06
 BYTE   Fs1
 BYTE   W06
 BYTE   Gs1
 BYTE   W06
//  #07 //054   ----------------------------------------
 BYTE   N48  Bn0
 BYTE   N06  Fs1
 BYTE   N48  Gn1
 BYTE   W06
 BYTE   N06  Gs1
 BYTE   W06
 BYTE   As1
 BYTE   W06
 BYTE   Gs1
 BYTE   W06
 BYTE   N24  Dn1
 BYTE   N24  En1
 BYTE   N06  As1
 BYTE   W06
 BYTE   Gs1
 BYTE   W06
 BYTE   Fs1
 BYTE   W06
 BYTE   Gs1
 BYTE   W06
 BYTE   Fs1
 BYTE   W06
 BYTE   Bn0
 BYTE   N06  Gn1
 BYTE   N06  Gs1
 BYTE   W06
 BYTE   Fs1
 BYTE   W06
 BYTE   Gs1
 BYTE   W06
 BYTE   N24  Dn1
 BYTE   N24  En1
 BYTE   N06  As1
 BYTE   W06
 BYTE   Gs1
 BYTE   W06
 BYTE   Fs1
 BYTE   W06
 BYTE   Gs1
 BYTE   W06
//  #07 //055   ----------------------------------------
 BYTE   N12  Bn0
 BYTE   N06  Fs1
 BYTE   N12  Gn1
 BYTE   W06
 BYTE   N06  Gs1
 BYTE   W06
 BYTE   N12  Bn0
 BYTE   N12  Gn1
 BYTE   N06  As1
 BYTE   W06
 BYTE   Gs1
 BYTE   W06
 BYTE   N24  Dn1
 BYTE   N24  En1
 BYTE   N06  As1
 BYTE   W06
 BYTE   Gs1
 BYTE   W06
 BYTE   Fs1
 BYTE   W06
 BYTE   Gs1
 BYTE   W06
 BYTE   Fs1
 BYTE   W06
 BYTE   Gs1
 BYTE   W06
 BYTE   Bn0
 BYTE   N06  Fs1
 BYTE   N06  Gn1
 BYTE   W06
 BYTE   Bn0
 BYTE   N06  Gn1
 BYTE   N06  Gs1
 BYTE   W06
 BYTE   Dn1
 BYTE   N06  En1
 BYTE   N06  As1
 BYTE   W06
 BYTE   Dn1
 BYTE   N06  En1
 BYTE   N06  Gs1
 BYTE   W06
 BYTE   Dn1
 BYTE   N06  En1
 BYTE   N06  Fs1
 BYTE   W06
 BYTE   Dn1
 BYTE   N06  En1
 BYTE   N06  Gs1
 BYTE   W06
//  #07 //056   ----------------------------------------
 BYTE   PATT
  POIN2 Label_011810C6
//  #07 //057   ----------------------------------------
 BYTE   PATT
  POIN2 Label_01181100
//  #07 //058   ----------------------------------------
 BYTE   N06  Fs1  v088
 BYTE   N12  Fn2
 BYTE   W06
 BYTE   N06  Fs0
 BYTE   W06
 BYTE   N06
 BYTE   N06  Fn2
 BYTE   W06
 BYTE   Fs0
 BYTE   N18  Gs1
 BYTE   N06  Fn2
 BYTE   W06
 BYTE   Fs0
 BYTE   N06  Dn1
 BYTE   W06
 BYTE   N06
 BYTE   N06  Fs1
 BYTE   W06
 BYTE   N06
 BYTE   N06  Fn2
 BYTE   W06
 BYTE   Fs0
 BYTE   N06  Fn2
 BYTE   W06
 BYTE   Fs1
 BYTE   W06
 BYTE   Fs0
 BYTE   N18  Fn2
 BYTE   W06
 BYTE   N06  Fs1
 BYTE   W06
 BYTE   Fs0
 BYTE   W06
 BYTE   N06
 BYTE   N18  Dn1
 BYTE   N24  An2
 BYTE   W06
 BYTE   N06  Fs1
 BYTE   W06
 BYTE   N06
 BYTE   W06
 BYTE   Fs0
 BYTE   N06  Dn1
 BYTE   W06
//  #07 //059   ----------------------------------------
 BYTE   Fs1
 BYTE   N24  Fn2
 BYTE   N24  Gn2
 BYTE   W06
 BYTE   N06  Fs0
 BYTE   W06
 BYTE   N06
 BYTE   W06
 BYTE   Fs1
 BYTE   W06
 BYTE   Fs0
 BYTE   N12  Dn1
 BYTE   N12  Gs1
 BYTE   W06
 BYTE   N06  Fs1
 BYTE   W06
 BYTE   N06
 BYTE   N06  Fn2
 BYTE   W06
 BYTE   Fs0
 BYTE   N06  Gs1
 BYTE   N06  Fn2
 BYTE   W06
 BYTE   Fs0
 BYTE   N06  Gs1
 BYTE   N24  An2
 BYTE   W06
 BYTE   N06  Fs1
 BYTE   N18  Fn2
 BYTE   W06
 BYTE   N06  Fs0
 BYTE   W06
 BYTE   Fs1
 BYTE   W06
 BYTE   Fs0
 BYTE   N24  Dn1
 BYTE   W03
 BYTE   N18  Gn2
 BYTE   W03
 BYTE   N06  Fs1
 BYTE   W06
 BYTE   N06
 BYTE   W06
 BYTE   Fs0
 BYTE   W06
//  #07 //060   ----------------------------------------
 BYTE   PATT
  POIN2 Label_011810C6
//  #07 //061   ----------------------------------------
 BYTE   PATT
  POIN2 Label_01181100
//  #07 //062   ----------------------------------------
 BYTE   N06  Fs1  v088
 BYTE   N12  Fn2
 BYTE   W06
 BYTE   N06  Fs0
 BYTE   W06
 BYTE   N06
 BYTE   N06  Fn2
 BYTE   W06
 BYTE   Fs0
 BYTE   N06  Fn2
 BYTE   W06
 BYTE   Fs0
 BYTE   N06  Dn1
 BYTE   W06
 BYTE   N06
 BYTE   N06  Fs1
 BYTE   W06
 BYTE   N06
 BYTE   N36  Gs1
 BYTE   N06  Fn2
 BYTE   W06
 BYTE   Fs0
 BYTE   N06  Fn2
 BYTE   W06
 BYTE   Fs1
 BYTE   W06
 BYTE   Fs0
 BYTE   N18  Fn2
 BYTE   W06
 BYTE   N06  Fs1
 BYTE   W06
 BYTE   Fs0
 BYTE   W06
 BYTE   N06
 BYTE   N18  Dn1
 BYTE   N06  Fs1
 BYTE   W06
 BYTE   N06
 BYTE   W06
 BYTE   N06
 BYTE   W06
 BYTE   Fs0
 BYTE   N06  Dn1
 BYTE   W06
//  #07 //063   ----------------------------------------
 BYTE   Fs1
 BYTE   N24  Fn2
 BYTE   W06
 BYTE   N06  Fs0
 BYTE   W06
 BYTE   N06
 BYTE   W06
 BYTE   Fs1
 BYTE   W06
 BYTE   Fs0
 BYTE   N12  Dn1
 BYTE   W06
 BYTE   N06  Fs1
 BYTE   W06
 BYTE   N06
 BYTE   N06  Fn2
 BYTE   W06
 BYTE   Fs0
 BYTE   N06  Fn2
 BYTE   W06
 BYTE   Fs0
 BYTE   N06  As1
 BYTE   W06
 BYTE   Fs1
 BYTE   N18  Fn2
 BYTE   W06
 BYTE   N06  Fs0
 BYTE   W06
 BYTE   Fs1
 BYTE   W06
 BYTE   Fs0
 BYTE   N24  Dn1
 BYTE   W06
 BYTE   N06  Fs1
 BYTE   W06
 BYTE   N06
 BYTE   W06
 BYTE   Fs0
 BYTE   W06
//  #07 //064   ----------------------------------------
 BYTE   Fs1
 BYTE   W06
 BYTE   Fs0
 BYTE   W06
 BYTE   N06
 BYTE   W06
 BYTE   Fs1
 BYTE   W06
 BYTE   Fs0
 BYTE   W06
 BYTE   Fs1
 BYTE   W06
 BYTE   Fs0
 BYTE   W06
 BYTE   Fs1
 BYTE   W06
 BYTE   Fs0
 BYTE   W06
 BYTE   N06
 BYTE   W06
 BYTE   N06
 BYTE   W36
//  #07 //065   ----------------------------------------
 BYTE   Fn1
 BYTE   N36  Fs1
 BYTE   W06
 BYTE   N06  An1
 BYTE   W06
 BYTE   N06
 BYTE   W06
 BYTE   N06
 BYTE   W06
 BYTE   N12  En1
 BYTE   W12
 BYTE   N12
 BYTE   N36  Gs1
 BYTE   W12
 BYTE   N12  An1
 BYTE   W12
 BYTE   N06
 BYTE   W06
 BYTE   N06
 BYTE   W06
 BYTE   En1
 BYTE   N24  Fs1
 BYTE   W06
 BYTE   N06  Bn1
 BYTE   W06
 BYTE   N06
 BYTE   W06
 BYTE   An1
 BYTE   W06
//  #07 //066   ----------------------------------------
 BYTE   N12
 BYTE   W12
 BYTE   N06
 BYTE   W06
 BYTE   N06
 BYTE   W18
 BYTE   Fs1
 BYTE   N06  Gs1
 BYTE   W12
 BYTE   N06
 BYTE   W06
 BYTE   N06
 BYTE   W06
 BYTE   N06
 BYTE   W06
 BYTE   N06
 BYTE   W06
 BYTE   N12  En1
 BYTE   W12
 BYTE   N12
 BYTE   W12
//  #07 //067   ----------------------------------------
 BYTE   W24
 BYTE   N06  En2
 BYTE   N06  Fn2
 BYTE   W06
 BYTE   En2
 BYTE   N06  Fn2
 BYTE   W06
 BYTE   En2
 BYTE   N06  Fn2
 BYTE   W06
 BYTE   En2
 BYTE   N06  Fn2
 BYTE   W30
 BYTE   N24  Fs1
 BYTE   N24  Gs1
 BYTE   W24
//  #07 //068   ----------------------------------------
 BYTE   W24
 BYTE   N06  An2
 BYTE   W06
 BYTE   N06
 BYTE   W06
 BYTE   Fs1
 BYTE   N06  Gs1
 BYTE   W12
 BYTE   N06
 BYTE   W06
 BYTE   N06
 BYTE   W06
 BYTE   N06
 BYTE   W06
 BYTE   N06
 BYTE   W06
 BYTE   En2
 BYTE   N06  Fn2
 BYTE   W06
 BYTE   En2
 BYTE   N06  Fn2
 BYTE   W06
 BYTE   En2
 BYTE   N06  Fn2
 BYTE   W06
 BYTE   En2
 BYTE   N06  Fn2
 BYTE   W06
//  #07 //069   ----------------------------------------
Label_01181478:
 BYTE   N18  Fs1  v088
 BYTE   W18
 BYTE   Gs1
 BYTE   W18
 BYTE   N36  Fs1
 BYTE   W36
 BYTE   N24  An2
 BYTE   W24
 BYTE   PEND 
//  #07 //070   ----------------------------------------
Label_01181485:
 BYTE   N24  Gn2  v088
 BYTE   W24
 BYTE   N12  Gs1
 BYTE   W18
 BYTE   N06
 BYTE   W06
 BYTE   N06
 BYTE   N24  An2
 BYTE   W24
 BYTE   W03
 BYTE   N18  Gn2
 BYTE   W21
 BYTE   PEND 
//  #07 //071   ----------------------------------------
 BYTE   PATT
  POIN2 Label_01181478
//  #07 //072   ----------------------------------------
 BYTE   PATT
  POIN2 Label_01181485
//  #07 //073   ----------------------------------------
 BYTE   W36
 BYTE   N06  Dn1  v088
 BYTE   N06  En1
 BYTE   N06  Gn1
 BYTE   W06
 BYTE   N12  Dn1
 BYTE   N12  En1
 BYTE   N12  Gn1
 BYTE   W12
 BYTE   Dn1
 BYTE   N12  Gn1
 BYTE   W12
 BYTE   N06  Dn1
 BYTE   N06  En1
 BYTE   N06  Fn1
 BYTE   N06  Gn1
 BYTE   W06
 BYTE   Dn1
 BYTE   N06  Gn1
 BYTE   W06
 BYTE   Dn1
 BYTE   N06  En1
 BYTE   N06  Fn1
 BYTE   N06  Gn1
 BYTE   W06
 BYTE   Dn1
 BYTE   N06  En1
 BYTE   N06  Fn1
 BYTE   N06  Gn1
 BYTE   W12
//  #07 //074   ----------------------------------------
Label_011814D2:
 BYTE   N48  Bn0  v088
 BYTE   N48  Gn1
 BYTE   N96  Cs2
 BYTE   N12  Gn2
 BYTE   N96  An2
 BYTE   W12
 BYTE   N12  Gn2
 BYTE   W12
 BYTE   N24  Dn1
 BYTE   N24  En1
 BYTE   N12  Gn2
 BYTE   W12
 BYTE   N12
 BYTE   W12
 BYTE   N12
 BYTE   W06
 BYTE   N06  Bn0
 BYTE   N06  Gn1
 BYTE   W06
 BYTE   N12  Gn2
 BYTE   W12
 BYTE   N24  Dn1
 BYTE   N24  En1
 BYTE   N12  Gn2
 BYTE   W12
 BYTE   N12
 BYTE   W12
 BYTE   PEND 
//  #07 //075   ----------------------------------------
Label_011814FE:
 BYTE   N12  Bn0  v088
 BYTE   N12  Gn1
 BYTE   N12  Gn2
 BYTE   W12
 BYTE   Bn0
 BYTE   N12  Gn1
 BYTE   N12  Gn2
 BYTE   W12
 BYTE   N24  Dn1
 BYTE   N24  En1
 BYTE   N12  Gn2
 BYTE   W12
 BYTE   N12
 BYTE   W12
 BYTE   N12
 BYTE   W12
 BYTE   N06  Bn0
 BYTE   N06  Gn1
 BYTE   N12  Gn2
 BYTE   W06
 BYTE   N06  Bn0
 BYTE   N06  Gn1
 BYTE   W06
 BYTE   N24  Dn1
 BYTE   N24  En1
 BYTE   N12  Gn2
 BYTE   W12
 BYTE   N12
 BYTE   W12
 BYTE   PEND 
//  #07 //076   ----------------------------------------
Label_0118152D:
 BYTE   N48  Bn0  v088
 BYTE   N48  Gn1
 BYTE   N12  Gn2
 BYTE   W12
 BYTE   N12
 BYTE   W12
 BYTE   N24  Dn1
 BYTE   N24  En1
 BYTE   N12  Gn2
 BYTE   W12
 BYTE   N12
 BYTE   W12
 BYTE   N12
 BYTE   W06
 BYTE   N06  Bn0
 BYTE   N06  Gn1
 BYTE   W06
 BYTE   N12  Gn2
 BYTE   W12
 BYTE   N24  Dn1
 BYTE   N24  En1
 BYTE   N12  Gn2
 BYTE   W12
 BYTE   N12
 BYTE   W12
 BYTE   PEND 
//  #07 //077   ----------------------------------------
Label_01181554:
 BYTE   N12  Bn0  v088
 BYTE   N12  Gn1
 BYTE   N12  Gn2
 BYTE   W12
 BYTE   Bn0
 BYTE   N12  Gn1
 BYTE   N12  Gn2
 BYTE   W12
 BYTE   N24  Dn1
 BYTE   N24  En1
 BYTE   N12  Gn2
 BYTE   W12
 BYTE   N12
 BYTE   W12
 BYTE   N12
 BYTE   W06
 BYTE   N06  Dn1
 BYTE   N06  En1
 BYTE   W06
 BYTE   Bn0
 BYTE   N06  Gn1
 BYTE   N12  Gn2
 BYTE   W06
 BYTE   N06  Bn0
 BYTE   N06  Gn1
 BYTE   W06
 BYTE   Dn1
 BYTE   N06  En1
 BYTE   N12  Gn2
 BYTE   W06
 BYTE   N06  An1
 BYTE   W06
 BYTE   Gn1
 BYTE   N12  Gn2
 BYTE   W06
 BYTE   N06  Fn1
 BYTE   W06
 BYTE   PEND 
//  #07 //078   ----------------------------------------
 BYTE   PATT
  POIN2 Label_011814D2
//  #07 //079   ----------------------------------------
 BYTE   PATT
  POIN2 Label_01181554
//  #07 //080   ----------------------------------------
 BYTE   PATT
  POIN2 Label_0118152D
//  #07 //081   ----------------------------------------
 BYTE   N12  Bn0  v088
 BYTE   N12  Gn1
 BYTE   N12  Gn2
 BYTE   W12
 BYTE   Bn0
 BYTE   N12  Gn1
 BYTE   N12  Gn2
 BYTE   W12
 BYTE   N18  Dn1
 BYTE   N18  En1
 BYTE   N12  Gn2
 BYTE   W12
 BYTE   N12
 BYTE   W06
 BYTE   N06  Dn1
 BYTE   N06  En1
 BYTE   W06
 BYTE   N12  Gn2
 BYTE   W06
 BYTE   N06  Bn0
 BYTE   N06  Gn1
 BYTE   W06
 BYTE   Dn1
 BYTE   N06  En1
 BYTE   N12  Gn2
 BYTE   W06
 BYTE   N06  Bn0
 BYTE   N06  Gn1
 BYTE   W06
 BYTE   Dn1
 BYTE   N06  En1
 BYTE   N12  Gn2
 BYTE   W06
 BYTE   N06  Dn1
 BYTE   N06  En1
 BYTE   W06
 BYTE   Gn1
 BYTE   N12  Gn2
 BYTE   W06
 BYTE   N06  Fn1
 BYTE   W06
//  #07 //082   ----------------------------------------
 BYTE   PATT
  POIN2 Label_011814D2
//  #07 //083   ----------------------------------------
 BYTE   PATT
  POIN2 Label_011814FE
//  #07 //084   ----------------------------------------
 BYTE   PATT
  POIN2 Label_0118152D
//  #07 //085   ----------------------------------------
 BYTE   PATT
  POIN2 Label_01181554
//  #07 //086   ----------------------------------------
 BYTE   N48  Bn0  v088
 BYTE   N48  Gn1
 BYTE   N96  Cs2
 BYTE   N96  An2
 BYTE   W12
 BYTE   N24  Fn2
 BYTE   W12
 BYTE   Dn1
 BYTE   N24  En1
 BYTE   W12
 BYTE   Fn2
 BYTE   W18
 BYTE   N06  Bn0
 BYTE   N06  Gn1
 BYTE   W06
 BYTE   N24  Fn2
 BYTE   W12
 BYTE   Dn1
 BYTE   N24  En1
 BYTE   W12
 BYTE   Fn2
 BYTE   W12
//  #07 //087   ----------------------------------------
 BYTE   N12  Bn0
 BYTE   N12  Gn1
 BYTE   W12
 BYTE   Bn0
 BYTE   N12  Gn1
 BYTE   W12
 BYTE   N24  Dn1
 BYTE   N24  En1
 BYTE   W12
 BYTE   Fn2
 BYTE   W12
 BYTE   N06  Bn0
 BYTE   N06  Gn1
 BYTE   W06
 BYTE   N18  Dn1
 BYTE   N18  En1
 BYTE   W06
 BYTE   N06  Bn0
 BYTE   N06  Gn1
 BYTE   W06
 BYTE   Bn0
 BYTE   N06  Gn1
 BYTE   W06
 BYTE   N24  Dn1
 BYTE   N24  En1
 BYTE   W12
 BYTE   Fn2
 BYTE   W12
//  #07 //088   ----------------------------------------
 BYTE   N48  Bn0
 BYTE   N48  Gn1
 BYTE   W12
 BYTE   N24  Fn2
 BYTE   W12
 BYTE   Dn1
 BYTE   N24  En1
 BYTE   W12
 BYTE   Fn2
 BYTE   W18
 BYTE   N06  Bn0
 BYTE   N06  Gn1
 BYTE   W06
 BYTE   N24  Fn2
 BYTE   W12
 BYTE   Dn1
 BYTE   N24  En1
 BYTE   W12
 BYTE   N12  Fn2
 BYTE   W12
//  #07 //089   ----------------------------------------
 BYTE   W18
 BYTE   N06  Gn1
 BYTE   W06
 BYTE   N06
 BYTE   W12
 BYTE   En1
 BYTE   W12
 BYTE   N06
 BYTE   W06
 BYTE   Dn1
 BYTE   W06
 BYTE   N06
 BYTE   W12
 BYTE   N06
 BYTE   W24
//  #07 //090   ----------------------------------------
 BYTE   PATT
  POIN2 Label_011814D2
//  #07 //091   ----------------------------------------
 BYTE   PATT
  POIN2 Label_011814FE
//  #07 //092   ----------------------------------------
 BYTE   PATT
  POIN2 Label_0118152D
//  #07 //093   ----------------------------------------
 BYTE   PATT
  POIN2 Label_01181554
//  #07 //094   ----------------------------------------
 BYTE   PATT
  POIN2 Label_011814D2
//  #07 //095   ----------------------------------------
 BYTE   N12  Bn0  v088
 BYTE   N12  Gn1
 BYTE   N12  Gn2
 BYTE   W12
 BYTE   Bn0
 BYTE   N12  Gn1
 BYTE   N12  Gn2
 BYTE   W12
 BYTE   N24  Dn1
 BYTE   N24  En1
 BYTE   N12  Gn2
 BYTE   W12
 BYTE   N12
 BYTE   W12
 BYTE   N06  Bn0
 BYTE   N06  Gn1
 BYTE   N12  Gn2
 BYTE   W06
 BYTE   N18  Dn1
 BYTE   N18  En1
 BYTE   W06
 BYTE   N06  Bn0
 BYTE   N06  Gn1
 BYTE   N12  Gn2
 BYTE   W06
 BYTE   N06  Bn0
 BYTE   N06  Gn1
 BYTE   W06
 BYTE   N24  Dn1
 BYTE   N24  En1
 BYTE   N12  Gn2
 BYTE   W12
 BYTE   N12
 BYTE   W12
//  #07 //096   ----------------------------------------
 BYTE   PATT
  POIN2 Label_0118152D
//  #07 //097   ----------------------------------------
 BYTE   N12  Bn0  v088
 BYTE   N12  Gn1
 BYTE   N12  Gn2
 BYTE   W12
 BYTE   Bn0
 BYTE   N12  Gn1
 BYTE   N12  Gn2
 BYTE   W12
 BYTE   N24  Dn1
 BYTE   N24  En1
 BYTE   N12  Gn2
 BYTE   W12
 BYTE   N12
 BYTE   W12
 BYTE   N12
 BYTE   W06
 BYTE   N06  Dn1
 BYTE   N06  En1
 BYTE   W06
 BYTE   Bn0
 BYTE   N06  Gn1
 BYTE   N12  Gn2
 BYTE   W06
 BYTE   N06  Bn0
 BYTE   N06  Gn1
 BYTE   W06
 BYTE   Dn1
 BYTE   N06  En1
 BYTE   N12  Gn2
 BYTE   W06
 BYTE   N06  Dn1
 BYTE   N06  En1
 BYTE   W06
 BYTE   Gn1
 BYTE   N12  Gn2
 BYTE   W06
 BYTE   GoTo
  POIN2 Label_01180B34
//  #07 //098   ----------------------------------------
 BYTE   N06  Fn1  v088
 BYTE   W06
 BYTE   W96
//  #07 //099   ----------------------------------------
 BYTE   W96
 BYTE   FINE

//******************************************************//
	ALIGN 4

song02:
	BYTE	7	// NumTrks
	BYTE	0	// NumBlks
	BYTE	song02_pri	// Priority
	BYTE	song02_rev	// Reverb.
    
	POIN2	song02_grp
    
	POIN2	song02_001
	POIN2	song02_002
	POIN2	song02_003
	POIN2	song02_004
	POIN2	song02_005
	POIN2	song02_006
	POIN2	song02_007

	
