//Event file generated from Sappy .s format.
        #include "MPlayDef.event"

        #define    UpperSteamCave_grp  voicegroup000
        #define    UpperSteamCave_pri  0
        #define    UpperSteamCave_rev  0
        #define    UpperSteamCave_key  0

        // .rodata
        // UpperSteamCave
        ALIGN 4

//****************** Track 0 (Midi-Chn.0) ******************//

UpperSteamCave_0:
        BYTE   KEYSH   UpperSteamCave_key+0
// 000   ----------------------------------------
        BYTE   TEMPO   86/2
UpperSteamCave_0_LOOP:
        BYTE           VOICE   36
        BYTE           VOL     120
        BYTE           N06     Cn2   v127
        BYTE   W06
        BYTE                   Dn2
        BYTE   W12
        BYTE                   Dn2
        BYTE   W18
        BYTE                   Dn2
        BYTE   W06
        BYTE           N42     Dn1
        BYTE   W42
        BYTE           N06     An1
        BYTE   W06
        BYTE                   Cn2
        BYTE   W06
// 001   ----------------------------------------
UpperSteamCave_0_1:
        BYTE           N06     Cn2   v127
        BYTE   W06
        BYTE                   Dn2
        BYTE   W12
        BYTE                   Dn2
        BYTE   W18
        BYTE                   Dn2
        BYTE   W06
        BYTE           N42     Dn1
        BYTE   W42
        BYTE           N06     An1
        BYTE   W06
        BYTE                   Cn2
        BYTE   W06
        BYTE   PEND
// 002   ----------------------------------------
        BYTE   PATT
         POIN2  UpperSteamCave_0_1
// 003   ----------------------------------------
        BYTE   PATT
         POIN2  UpperSteamCave_0_1
// 004   ----------------------------------------
        BYTE   PATT
         POIN2  UpperSteamCave_0_1
// 005   ----------------------------------------
        BYTE   PATT
         POIN2  UpperSteamCave_0_1
// 006   ----------------------------------------
        BYTE   PATT
         POIN2  UpperSteamCave_0_1
// 007   ----------------------------------------
        BYTE   PATT
         POIN2  UpperSteamCave_0_1
// 008   ----------------------------------------
        BYTE   PATT
         POIN2  UpperSteamCave_0_1
// 009   ----------------------------------------
        BYTE   PATT
         POIN2  UpperSteamCave_0_1
// 010   ----------------------------------------
        BYTE   PATT
         POIN2  UpperSteamCave_0_1
// 011   ----------------------------------------
        BYTE   PATT
         POIN2  UpperSteamCave_0_1
// 012   ----------------------------------------
        BYTE   PATT
         POIN2  UpperSteamCave_0_1
// 013   ----------------------------------------
        BYTE   PATT
         POIN2  UpperSteamCave_0_1
// 014   ----------------------------------------
        BYTE   PATT
         POIN2  UpperSteamCave_0_1
// 015   ----------------------------------------
        BYTE   PATT
         POIN2  UpperSteamCave_0_1
// 016   ----------------------------------------
        BYTE           N06     Cs2   v127
        BYTE   W06
        BYTE                   Ds2
        BYTE   W12
        BYTE                   Ds2
        BYTE   W18
        BYTE                   Ds2
        BYTE   W06
        BYTE           N42     Ds1
        BYTE   W42
        BYTE           N06     As1
        BYTE   W06
        BYTE                   Cn2
        BYTE   W06
// 017   ----------------------------------------
UpperSteamCave_0_17:
        BYTE           N06     Cs2   v127
        BYTE   W06
        BYTE                   Ds2
        BYTE   W12
        BYTE                   Ds2
        BYTE   W18
        BYTE                   Ds2
        BYTE   W06
        BYTE           N42     Ds1
        BYTE   W42
        BYTE           N06     As1
        BYTE   W06
        BYTE                   Cs2
        BYTE   W06
        BYTE   PEND
// 018   ----------------------------------------
        BYTE   PATT
         POIN2  UpperSteamCave_0_1
// 019   ----------------------------------------
        BYTE   PATT
         POIN2  UpperSteamCave_0_1
// 020   ----------------------------------------
        BYTE   PATT
         POIN2  UpperSteamCave_0_17
// 021   ----------------------------------------
        BYTE   PATT
         POIN2  UpperSteamCave_0_17
// 022   ----------------------------------------
        BYTE   PATT
         POIN2  UpperSteamCave_0_1
// 023   ----------------------------------------
        BYTE   PATT
         POIN2  UpperSteamCave_0_1
// 024   ----------------------------------------
        BYTE   PATT
         POIN2  UpperSteamCave_0_1
// 025   ----------------------------------------
        BYTE   PATT
         POIN2  UpperSteamCave_0_1
// 026   ----------------------------------------
        BYTE   PATT
         POIN2  UpperSteamCave_0_1
// 027   ----------------------------------------
        BYTE           N06     Bn1   v127
        BYTE   W06
        BYTE                   Cs2
        BYTE   W12
        BYTE                   Cs2
        BYTE   W18
        BYTE                   Cs2
        BYTE   W06
        BYTE           N42     Cs1
        BYTE   W42
        BYTE           N06     Gs1
        BYTE   W06
        BYTE                   Bn1
        BYTE   W06
// 028   ----------------------------------------
        BYTE           BEND    c_v-9
        BYTE           N06     Dn2
        BYTE   W06
        BYTE                   En2
        BYTE   W12
        BYTE                   En2
        BYTE   W18
        BYTE                   En2
        BYTE   W06
        BYTE           BEND    c_v+0
        BYTE           N42     En1
        BYTE   W42
        BYTE           N06     Bn1
        BYTE   W06
        BYTE                   Dn2
        BYTE   W06
// 029   ----------------------------------------
        BYTE           BEND    c_v-8
        BYTE           N06     Cs2
        BYTE   W06
        BYTE                   Ds2
        BYTE   W12
        BYTE                   Ds2
        BYTE   W18
        BYTE                   Ds2
        BYTE   W06
        BYTE           BEND    c_v+0
        BYTE           N42     Ds1
        BYTE   W42
        BYTE           N06     As1
        BYTE   W06
        BYTE                   Cs2
        BYTE   W06
// 030   ----------------------------------------
        BYTE           BEND    c_v-10
        BYTE           N06     En2
        BYTE   W06
        BYTE                   Fs2
        BYTE   W12
        BYTE                   Fs2
        BYTE   W18
        BYTE                   Fs2
        BYTE   W06
        BYTE           BEND    c_v+0
        BYTE           N42     Fs1
        BYTE   W42
        BYTE           N06     Cs2
        BYTE   W06
        BYTE                   En2
        BYTE   W06
// 031   ----------------------------------------
        BYTE           BEND    c_v-8
        BYTE           N06     Ds2
        BYTE   W06
        BYTE                   Fn2
        BYTE   W12
        BYTE                   Fn2
        BYTE   W18
        BYTE                   Fn2
        BYTE   W06
        BYTE           BEND    c_v+0
        BYTE           N42     Fn1
        BYTE   W42
        BYTE           N06     Cn2
        BYTE   W06
        BYTE                   Ds2
        BYTE   W06
// 032   ----------------------------------------
        BYTE           BEND    c_v-9
        BYTE           N06     Fs2
        BYTE   W06
        BYTE                   Gs2
        BYTE   W12
        BYTE                   Gs2
        BYTE   W18
        BYTE                   Gs2
        BYTE   W06
        BYTE           BEND    c_v+0
        BYTE           N42     Gs1
        BYTE   W42
        BYTE           N06     Ds2
        BYTE   W06
        BYTE                   Fs2
        BYTE   W06
// 033   ----------------------------------------
        BYTE           BEND    c_v-11
        BYTE           N06     An2
        BYTE   W06
        BYTE                   Bn2
        BYTE   W12
        BYTE                   Bn2
        BYTE   W18
        BYTE                   Bn2
        BYTE   W06
        BYTE           BEND    c_v+0
        BYTE           N42     Bn1
        BYTE   W42
        BYTE           N06     Fs2
        BYTE   W06
        BYTE                   An2
        BYTE   W06
// 034   ----------------------------------------
        BYTE   W96
// 035   ----------------------------------------
        BYTE   W96
// 036   ----------------------------------------
        BYTE   W96
// 037   ----------------------------------------
        BYTE   W96
// 038   ----------------------------------------
        BYTE   W96
// 039   ----------------------------------------
        BYTE   W96
// 040   ----------------------------------------
        BYTE   W96
// 041   ----------------------------------------
        BYTE   W96
// 042   ----------------------------------------
        BYTE   GoTo
         POIN2  UpperSteamCave_0_LOOP
        BYTE   W12
        BYTE   FINE

//****************** Track 1 (Midi-Chn.1) ******************//

UpperSteamCave_1:
        BYTE   KEYSH   UpperSteamCave_key+0
// 000   ----------------------------------------
UpperSteamCave_1_LOOP:
        BYTE           VOICE   2
        BYTE           VOL     69
        BYTE   W96
// 001   ----------------------------------------
        BYTE   W96
// 002   ----------------------------------------
        BYTE   W96
// 003   ----------------------------------------
        BYTE   W96
// 004   ----------------------------------------
        BYTE   W96
// 005   ----------------------------------------
        BYTE   W96
// 006   ----------------------------------------
        BYTE   W96
// 007   ----------------------------------------
        BYTE   W96
// 008   ----------------------------------------
        BYTE   W96
// 009   ----------------------------------------
        BYTE   W96
// 010   ----------------------------------------
        BYTE   W96
// 011   ----------------------------------------
        BYTE   W96
// 012   ----------------------------------------
        BYTE   W96
// 013   ----------------------------------------
        BYTE   W96
// 014   ----------------------------------------
        BYTE           N48     Gn3   v127
        BYTE           N48     Cn4
        BYTE           N48     En3
        BYTE   W48
        BYTE                   Gn3
        BYTE           N48     Cn4
        BYTE           N48     En4
        BYTE   W48
// 015   ----------------------------------------
UpperSteamCave_1_15:
        BYTE           N48     En3   v127
        BYTE           N48     Gn3
        BYTE           N48     Cn3
        BYTE   W48
        BYTE                   En3
        BYTE           N48     Gn3
        BYTE           N48     Cn4
        BYTE   W48
        BYTE   PEND
// 016   ----------------------------------------
        BYTE                   Fn3
        BYTE           N48     As3
        BYTE           N48     Dn4
        BYTE   W48
        BYTE           N96     As3
        BYTE           N96     Dn3
        BYTE           N96     Fn3
        BYTE   W48
// 017   ----------------------------------------
        BYTE   W48
        BYTE           N24     As3
        BYTE           N24     Dn4
        BYTE           N24     Fn4
        BYTE   W24
        BYTE                   Fn3
        BYTE           N24     As3
        BYTE           N24     Dn4
        BYTE   W24
// 018   ----------------------------------------
        BYTE           N48     Gn3
        BYTE           N48     Cn4
        BYTE           N48     En4
        BYTE   W48
        BYTE                   En3
        BYTE           N48     Gn3
        BYTE           N48     Cn4
        BYTE   W48
// 019   ----------------------------------------
        BYTE   PATT
         POIN2  UpperSteamCave_1_15
// 020   ----------------------------------------
        BYTE           N48     Fn3   v127
        BYTE           N48     As3
        BYTE           N48     Dn4
        BYTE   W48
        BYTE           N72     Dn3
        BYTE           N72     Fn3
        BYTE           N72     As3
        BYTE   W48
// 021   ----------------------------------------
        BYTE   W24
        BYTE           N48     Dn3
        BYTE           N48     Fn3
        BYTE           N48     As3
        BYTE   W48
        BYTE           N24     Dn3
        BYTE           N24     Fn3
        BYTE           N24     Cn4
        BYTE   W24
// 022   ----------------------------------------
UpperSteamCave_1_22:
        BYTE           TIE     Cn3   v127
        BYTE           TIE     En3
        BYTE           TIE     An3
        BYTE   W96
        BYTE   PEND
// 023   ----------------------------------------
UpperSteamCave_1_23:
        BYTE   W48
        BYTE           EOT     Cn3
        BYTE                   En3
        BYTE                   An3
        BYTE           N24     Dn3   v127
        BYTE           N24     Fn3
        BYTE           N24     As3
        BYTE   W24
        BYTE                   Dn3
        BYTE           N24     Fn3
        BYTE           N24     Cn4
        BYTE   W24
        BYTE   PEND
// 024   ----------------------------------------
        BYTE   PATT
         POIN2  UpperSteamCave_1_22
// 025   ----------------------------------------
        BYTE   PATT
         POIN2  UpperSteamCave_1_23
// 026   ----------------------------------------
        BYTE           N12     Dn3   v100
        BYTE           N12     Gn4
        BYTE           N12     Cn5
        BYTE   W12
        BYTE                   An3
        BYTE           N12     Fn4
        BYTE   W12
        BYTE                   Dn4
        BYTE           N12     Gn4
        BYTE           N12     Cn5
        BYTE   W12
        BYTE                   An3
        BYTE           N12     Fn4
        BYTE   W12
        BYTE                   Dn4
        BYTE           N12     Gn4
        BYTE           N12     Cn5
        BYTE   W12
        BYTE                   An3
        BYTE           N12     Fn4
        BYTE   W12
        BYTE                   Dn4
        BYTE           N12     Gn4
        BYTE           N12     Cn5
        BYTE   W12
        BYTE                   An3
        BYTE           N12     Fn4
        BYTE   W12
// 027   ----------------------------------------
        BYTE                   Cs3
        BYTE           N12     Fs4
        BYTE           N12     Bn4
        BYTE   W12
        BYTE                   Gs3
        BYTE           N12     En4
        BYTE   W12
        BYTE                   Cs4
        BYTE           N12     Fs4
        BYTE           N12     Bn4
        BYTE   W12
        BYTE                   Gs3
        BYTE           N12     En4
        BYTE   W12
        BYTE                   Cs4
        BYTE           N12     Fs4
        BYTE           N12     Bn4
        BYTE   W12
        BYTE                   Gs3
        BYTE           N12     En4
        BYTE   W12
        BYTE                   Cs4
        BYTE           N12     Fs4
        BYTE           N12     Bn4
        BYTE   W12
        BYTE                   Gs3
        BYTE           N12     En4
        BYTE   W12
// 028   ----------------------------------------
        BYTE                   En3
        BYTE           N12     An4
        BYTE           N12     Dn5
        BYTE   W12
        BYTE                   Bn3
        BYTE           N12     Gn4
        BYTE   W12
        BYTE                   En4
        BYTE           N12     An4
        BYTE           N12     Dn5
        BYTE   W12
        BYTE                   Bn3
        BYTE           N12     Gn4
        BYTE   W12
        BYTE                   En4
        BYTE           N12     An4
        BYTE           N12     Dn5
        BYTE   W12
        BYTE                   Bn3
        BYTE           N12     Gn4
        BYTE   W12
        BYTE                   En4
        BYTE           N12     An4
        BYTE           N12     Dn5
        BYTE   W12
        BYTE                   Bn3
        BYTE           N12     Gn4
        BYTE   W12
// 029   ----------------------------------------
        BYTE                   Ds3
        BYTE           N12     Gs4
        BYTE           N12     Cs5
        BYTE   W12
        BYTE                   As3
        BYTE           N12     Fs4
        BYTE   W12
        BYTE                   Ds4
        BYTE           N12     Gs4
        BYTE           N12     Cs5
        BYTE   W12
        BYTE                   As3
        BYTE           N12     Fs4
        BYTE   W12
        BYTE                   Ds4
        BYTE           N12     Gs4
        BYTE           N12     Cs5
        BYTE   W12
        BYTE                   As3
        BYTE           N12     Fs4
        BYTE   W12
        BYTE                   Ds4
        BYTE           N12     Gs4
        BYTE           N12     Cs5
        BYTE   W12
        BYTE                   As3
        BYTE           N12     Fs4
        BYTE   W12
// 030   ----------------------------------------
        BYTE                   Fs3
        BYTE           N12     Bn4
        BYTE           N12     En5
        BYTE   W12
        BYTE                   Cs4
        BYTE           N12     An4
        BYTE   W12
        BYTE                   Fs4
        BYTE           N12     Bn4
        BYTE           N12     En5
        BYTE   W12
        BYTE                   Cs4
        BYTE           N12     An4
        BYTE   W12
        BYTE                   Fs4
        BYTE           N12     Bn4
        BYTE           N12     En5
        BYTE   W12
        BYTE                   Cs4
        BYTE           N12     An4
        BYTE   W12
        BYTE                   Fs4
        BYTE           N12     Bn4
        BYTE           N12     En5
        BYTE   W12
        BYTE                   Cs4
        BYTE           N12     An4
        BYTE   W12
// 031   ----------------------------------------
        BYTE                   Fn3
        BYTE           N12     As4
        BYTE           N12     Ds5
        BYTE   W12
        BYTE                   Cn4
        BYTE           N12     Gs4
        BYTE   W12
        BYTE                   Fn4
        BYTE           N12     As4
        BYTE           N12     Ds5
        BYTE   W12
        BYTE                   Cn4
        BYTE           N12     Gs4
        BYTE   W12
        BYTE                   Fn4
        BYTE           N12     As4
        BYTE           N12     Ds5
        BYTE   W12
        BYTE                   Cn4
        BYTE           N12     Gs4
        BYTE   W12
        BYTE                   Fn4
        BYTE           N12     As4
        BYTE           N12     Ds5
        BYTE   W12
        BYTE                   Cn4
        BYTE           N12     Gs4
        BYTE   W12
// 032   ----------------------------------------
        BYTE                   Gs3
        BYTE           N12     Cs5
        BYTE           N12     Fs5
        BYTE   W12
        BYTE                   Ds4
        BYTE           N12     Bn4
        BYTE   W12
        BYTE                   Gs4
        BYTE           N12     Cs5
        BYTE           N12     Fs5
        BYTE   W12
        BYTE                   Ds4
        BYTE           N12     Bn4
        BYTE   W12
        BYTE                   Gs4
        BYTE           N12     Cs5
        BYTE           N12     Fs5
        BYTE   W12
        BYTE                   Ds4
        BYTE           N12     Bn4
        BYTE   W12
        BYTE                   Gs4
        BYTE           N12     Cs5
        BYTE           N12     Fs5
        BYTE   W12
        BYTE                   Ds4
        BYTE           N12     Bn4
        BYTE   W12
// 033   ----------------------------------------
        BYTE                   Bn3
        BYTE           N12     En5
        BYTE           N12     An5
        BYTE   W12
        BYTE                   Fs4
        BYTE           N12     Dn5
        BYTE   W12
        BYTE                   Bn4
        BYTE           N12     En5
        BYTE           N12     An5
        BYTE   W12
        BYTE                   Fs4
        BYTE           N12     Dn5
        BYTE   W12
        BYTE                   Bn4
        BYTE           N12     En5
        BYTE           N12     An5
        BYTE   W12
        BYTE                   Fs4
        BYTE           N12     Dn5
        BYTE   W12
        BYTE                   Bn4
        BYTE           N12     En5
        BYTE           N12     An5
        BYTE   W12
        BYTE                   Fs4
        BYTE           N12     Dn5
        BYTE   W12
// 034   ----------------------------------------
UpperSteamCave_1_34:
        BYTE           N48     An3   v127
        BYTE           N48     Ds4
        BYTE           N48     Gs4
        BYTE           N48     Cs5
        BYTE   W48
        BYTE                   Gn3
        BYTE           N48     Cs4
        BYTE           N48     Fs4
        BYTE           N48     Bn4
        BYTE   W48
        BYTE   PEND
// 035   ----------------------------------------
        BYTE                   An3
        BYTE           N48     Ds4
        BYTE           N48     Gs4
        BYTE           N48     Cs5
        BYTE   W48
        BYTE                   Fn3
        BYTE           N48     Bn3
        BYTE           N48     En4
        BYTE           N48     An4
        BYTE   W48
// 036   ----------------------------------------
        BYTE   PATT
         POIN2  UpperSteamCave_1_34
// 037   ----------------------------------------
        BYTE           N48     An3   v127
        BYTE           N48     Ds4
        BYTE           N48     Gs4
        BYTE           N48     Cs5
        BYTE   W48
        BYTE                   Ds3
        BYTE           N48     An3
        BYTE           N48     Dn4
        BYTE           N48     Gn4
        BYTE   W48
// 038   ----------------------------------------
UpperSteamCave_1_38:
        BYTE           N48     Fs3   v127
        BYTE           N48     Cn4
        BYTE           N48     Fn4
        BYTE           N48     As4
        BYTE   W48
        BYTE                   En3
        BYTE           N48     As3
        BYTE           N48     Ds4
        BYTE           N48     Gs4
        BYTE   W48
        BYTE   PEND
// 039   ----------------------------------------
        BYTE                   Fs3
        BYTE           N48     Cn4
        BYTE           N48     Fn4
        BYTE           N48     As4
        BYTE   W48
        BYTE                   Dn3
        BYTE           N48     Gs3
        BYTE           N48     Cs4
        BYTE           N48     Fs4
        BYTE   W48
// 040   ----------------------------------------
        BYTE   PATT
         POIN2  UpperSteamCave_1_38
// 041   ----------------------------------------
        BYTE           N48     Fs3   v127
        BYTE           N48     Cn4
        BYTE           N48     Fn4
        BYTE           N48     As4
        BYTE   W48
        BYTE                   Ds3
        BYTE           N48     An3
        BYTE           N48     Dn4
        BYTE           N48     Gn4
        BYTE   W48
// 042   ----------------------------------------
        BYTE   GoTo
         POIN2  UpperSteamCave_1_LOOP
        BYTE   W12
        BYTE   FINE

//****************** Track 2 (Midi-Chn.2) ******************//

UpperSteamCave_2:
        BYTE   KEYSH   UpperSteamCave_key+0
// 000   ----------------------------------------
UpperSteamCave_2_LOOP:
        BYTE           VOICE   100
        BYTE           VOL     79
        BYTE   W96
// 001   ----------------------------------------
        BYTE   W96
// 002   ----------------------------------------
UpperSteamCave_2_2:
        BYTE   W12
        BYTE           N12     Dn4   v127
        BYTE   W12
        BYTE                   Gn4
        BYTE   W12
        BYTE                   Fn4
        BYTE   W12
        BYTE                   En4
        BYTE   W12
        BYTE           TIE     Cn5
        BYTE   W36
        BYTE   PEND
// 003   ----------------------------------------
UpperSteamCave_2_3:
        BYTE   W84
        BYTE           EOT     Cn5
        BYTE           N12     As4   v127
        BYTE   W12
        BYTE   PEND
// 004   ----------------------------------------
        BYTE                   An4
        BYTE   W12
        BYTE           TIE     Dn4
        BYTE   W84
// 005   ----------------------------------------
        BYTE   W72
        BYTE           EOT
        BYTE   W24
// 006   ----------------------------------------
        BYTE   W96
// 007   ----------------------------------------
        BYTE   W96
// 008   ----------------------------------------
        BYTE   PATT
         POIN2  UpperSteamCave_2_2
// 009   ----------------------------------------
        BYTE   PATT
         POIN2  UpperSteamCave_2_3
// 010   ----------------------------------------
        BYTE           N12     An4   v127
        BYTE   W12
        BYTE                   En5
        BYTE   W12
        BYTE                   Cn5
        BYTE   W12
        BYTE           TIE     Gn4
        BYTE   W60
// 011   ----------------------------------------
        BYTE   W96
// 012   ----------------------------------------
        BYTE           EOT
        BYTE   W96
// 013   ----------------------------------------
        BYTE   W96
// 014   ----------------------------------------
        BYTE   W96
// 015   ----------------------------------------
        BYTE   W96
// 016   ----------------------------------------
        BYTE   W96
// 017   ----------------------------------------
        BYTE   W96
// 018   ----------------------------------------
        BYTE   W96
// 019   ----------------------------------------
        BYTE   W96
// 020   ----------------------------------------
        BYTE   W96
// 021   ----------------------------------------
        BYTE   W96
// 022   ----------------------------------------
        BYTE   W96
// 023   ----------------------------------------
        BYTE   W96
// 024   ----------------------------------------
        BYTE   W96
// 025   ----------------------------------------
        BYTE   W96
// 026   ----------------------------------------
        BYTE   W96
// 027   ----------------------------------------
        BYTE   W96
// 028   ----------------------------------------
        BYTE   W96
// 029   ----------------------------------------
        BYTE   W96
// 030   ----------------------------------------
        BYTE   W96
// 031   ----------------------------------------
        BYTE   W96
// 032   ----------------------------------------
        BYTE   W96
// 033   ----------------------------------------
        BYTE   W96
// 034   ----------------------------------------
        BYTE   W96
// 035   ----------------------------------------
        BYTE   W96
// 036   ----------------------------------------
        BYTE   W96
// 037   ----------------------------------------
        BYTE   W96
// 038   ----------------------------------------
        BYTE   W96
// 039   ----------------------------------------
        BYTE   W96
// 040   ----------------------------------------
        BYTE   W96
// 041   ----------------------------------------
        BYTE   W96
// 042   ----------------------------------------
        BYTE   GoTo
         POIN2  UpperSteamCave_2_LOOP
        BYTE   W12
        BYTE   FINE

//****************** Track 3 (Midi-Chn.3) ******************//

UpperSteamCave_3:
        BYTE   KEYSH   UpperSteamCave_key+0
// 000   ----------------------------------------
UpperSteamCave_3_LOOP:
        BYTE           PAN     c_v-35
        BYTE           VOICE   100
        BYTE           VOL     50
        BYTE   W96
// 001   ----------------------------------------
        BYTE   W96
// 002   ----------------------------------------
UpperSteamCave_3_2:
        BYTE   W24
        BYTE           N12     Dn4   v127
        BYTE   W12
        BYTE                   Gn4
        BYTE   W12
        BYTE                   Fn4
        BYTE   W12
        BYTE                   En4
        BYTE   W12
        BYTE           TIE     Cn5
        BYTE   W24
        BYTE   PEND
// 003   ----------------------------------------
        BYTE   W96
// 004   ----------------------------------------
        BYTE           EOT
        BYTE           N12     As4
        BYTE   W12
        BYTE                   An4
        BYTE   W12
        BYTE           TIE     Dn4
        BYTE   W72
// 005   ----------------------------------------
        BYTE   W84
        BYTE           EOT
        BYTE   W12
// 006   ----------------------------------------
        BYTE   W96
// 007   ----------------------------------------
        BYTE   W96
// 008   ----------------------------------------
        BYTE   PATT
         POIN2  UpperSteamCave_3_2
// 009   ----------------------------------------
        BYTE   W96
// 010   ----------------------------------------
        BYTE           EOT     Cn5
        BYTE           N12     As4   v127
        BYTE   W12
        BYTE                   An4
        BYTE   W12
        BYTE                   En5
        BYTE   W12
        BYTE                   Cn5
        BYTE   W12
        BYTE           TIE     Gn4
        BYTE   W48
// 011   ----------------------------------------
        BYTE   W96
// 012   ----------------------------------------
        BYTE   W12
        BYTE           EOT
        BYTE   W84
// 013   ----------------------------------------
        BYTE   W96
// 014   ----------------------------------------
        BYTE   W96
// 015   ----------------------------------------
        BYTE   W96
// 016   ----------------------------------------
        BYTE   W96
// 017   ----------------------------------------
        BYTE   W96
// 018   ----------------------------------------
        BYTE   W96
// 019   ----------------------------------------
        BYTE   W96
// 020   ----------------------------------------
        BYTE   W96
// 021   ----------------------------------------
        BYTE   W96
// 022   ----------------------------------------
        BYTE   W96
// 023   ----------------------------------------
        BYTE   W96
// 024   ----------------------------------------
        BYTE   W96
// 025   ----------------------------------------
        BYTE   W96
// 026   ----------------------------------------
        BYTE   W96
// 027   ----------------------------------------
        BYTE   W96
// 028   ----------------------------------------
        BYTE   W96
// 029   ----------------------------------------
        BYTE   W96
// 030   ----------------------------------------
        BYTE   W96
// 031   ----------------------------------------
        BYTE   W96
// 032   ----------------------------------------
        BYTE   W96
// 033   ----------------------------------------
        BYTE   W96
// 034   ----------------------------------------
        BYTE   W96
// 035   ----------------------------------------
        BYTE   W96
// 036   ----------------------------------------
        BYTE   W96
// 037   ----------------------------------------
        BYTE   W96
// 038   ----------------------------------------
        BYTE   W96
// 039   ----------------------------------------
        BYTE   W96
// 040   ----------------------------------------
        BYTE   W96
// 041   ----------------------------------------
        BYTE   W96
// 042   ----------------------------------------
        BYTE   GoTo
         POIN2  UpperSteamCave_3_LOOP
        BYTE   W12
        BYTE   FINE

//****************** Track 4 (Midi-Chn.4) ******************//

UpperSteamCave_4:
        BYTE   KEYSH   UpperSteamCave_key+0
// 000   ----------------------------------------
UpperSteamCave_4_LOOP:
        BYTE           PAN     c_v+37
        BYTE           VOICE   100
        BYTE           VOL     29
        BYTE   W96
// 001   ----------------------------------------
        BYTE   W96
// 002   ----------------------------------------
UpperSteamCave_4_2:
        BYTE   W36
        BYTE           N12     Dn4   v127
        BYTE   W12
        BYTE                   Gn4
        BYTE   W12
        BYTE                   Fn4
        BYTE   W12
        BYTE                   En4
        BYTE   W12
        BYTE           TIE     Cn5
        BYTE   W12
        BYTE   PEND
// 003   ----------------------------------------
        BYTE   W96
// 004   ----------------------------------------
        BYTE   W12
        BYTE           EOT
        BYTE           N12     As4
        BYTE   W12
        BYTE                   An4
        BYTE   W12
        BYTE           TIE     Dn4
        BYTE   W60
// 005   ----------------------------------------
        BYTE   W96
// 006   ----------------------------------------
        BYTE           EOT
        BYTE   W96
// 007   ----------------------------------------
        BYTE   W96
// 008   ----------------------------------------
        BYTE   PATT
         POIN2  UpperSteamCave_4_2
// 009   ----------------------------------------
        BYTE   W96
// 010   ----------------------------------------
        BYTE   W12
        BYTE           EOT     Cn5
        BYTE           N12     As4   v127
        BYTE   W12
        BYTE                   An4
        BYTE   W12
        BYTE                   En5
        BYTE   W12
        BYTE                   Cn5
        BYTE   W12
        BYTE           TIE     Gn4
        BYTE   W36
// 011   ----------------------------------------
        BYTE   W96
// 012   ----------------------------------------
        BYTE   W24
        BYTE           EOT
        BYTE   W72
// 013   ----------------------------------------
        BYTE   W96
// 014   ----------------------------------------
        BYTE   W96
// 015   ----------------------------------------
        BYTE   W96
// 016   ----------------------------------------
        BYTE   W96
// 017   ----------------------------------------
        BYTE   W96
// 018   ----------------------------------------
        BYTE   W96
// 019   ----------------------------------------
        BYTE   W96
// 020   ----------------------------------------
        BYTE   W96
// 021   ----------------------------------------
        BYTE   W96
// 022   ----------------------------------------
        BYTE   W96
// 023   ----------------------------------------
        BYTE   W96
// 024   ----------------------------------------
        BYTE   W96
// 025   ----------------------------------------
        BYTE   W96
// 026   ----------------------------------------
        BYTE   W96
// 027   ----------------------------------------
        BYTE   W96
// 028   ----------------------------------------
        BYTE   W96
// 029   ----------------------------------------
        BYTE   W96
// 030   ----------------------------------------
        BYTE   W96
// 031   ----------------------------------------
        BYTE   W96
// 032   ----------------------------------------
        BYTE   W96
// 033   ----------------------------------------
        BYTE   W96
// 034   ----------------------------------------
        BYTE   W96
// 035   ----------------------------------------
        BYTE   W96
// 036   ----------------------------------------
        BYTE   W96
// 037   ----------------------------------------
        BYTE   W96
// 038   ----------------------------------------
        BYTE   W96
// 039   ----------------------------------------
        BYTE   W96
// 040   ----------------------------------------
        BYTE   W96
// 041   ----------------------------------------
        BYTE   W96
// 042   ----------------------------------------
        BYTE   GoTo
         POIN2  UpperSteamCave_4_LOOP
        BYTE   W12
        BYTE   FINE

//****************** Track 5 (Midi-Chn.7) ******************//

UpperSteamCave_5:
        BYTE   KEYSH   UpperSteamCave_key+0
// 000   ----------------------------------------
UpperSteamCave_5_LOOP:
        BYTE           VOICE   49
        BYTE           VOL     69
        BYTE           TIE     Dn1   v110
        BYTE   W01
        BYTE           VOL     70
        BYTE   W15
        BYTE                   71
        BYTE   W06
        BYTE                   72
        BYTE   W09
        BYTE                   73
        BYTE   W03
        BYTE                   74
        BYTE   W03
        BYTE                   75
        BYTE   W03
        BYTE                   76
        BYTE   W06
        BYTE                   77
        BYTE   W03
        BYTE                   78
        BYTE   W03
        BYTE                   79
        BYTE   W02
        BYTE                   80
        BYTE   W04
        BYTE                   81
        BYTE   W02
        BYTE                   82
        BYTE   W01
        BYTE                   83
        BYTE   W05
        BYTE                   84
        BYTE   W01
        BYTE                   85
        BYTE   W02
        BYTE                   86
        BYTE   W01
        BYTE                   87
        BYTE   W03
        BYTE                   88
        BYTE   W03
        BYTE                   89
        BYTE   W02
        BYTE                   90
        BYTE   W01
        BYTE                   91
        BYTE   W03
        BYTE                   92
        BYTE   W02
        BYTE                   94
        BYTE   W03
        BYTE                   95
        BYTE   W01
        BYTE                   96
        BYTE   W02
        BYTE                   97
        BYTE   W01
        BYTE                   98
        BYTE   W02
        BYTE                   99
        BYTE   W01
        BYTE                   100
        BYTE   W02
// 001   ----------------------------------------
        BYTE                   99
        BYTE   W16
        BYTE                   98
        BYTE   W11
        BYTE                   97
        BYTE   W04
        BYTE                   96
        BYTE   W03
        BYTE                   95
        BYTE   W05
        BYTE                   94
        BYTE   W04
        BYTE                   93
        BYTE   W03
        BYTE                   92
        BYTE   W03
        BYTE                   91
        BYTE   W05
        BYTE                   90
        BYTE   W01
        BYTE                   89
        BYTE   W03
        BYTE                   88
        BYTE   W03
        BYTE                   87
        BYTE   W03
        BYTE                   86
        BYTE   W03
        BYTE                   85
        BYTE   W02
        BYTE                   84
        BYTE   W01
        BYTE                   83
        BYTE   W03
        BYTE                   82
        BYTE   W02
        BYTE                   81
        BYTE   W01
        BYTE                   80
        BYTE   W03
        BYTE                   79
        BYTE   W02
        BYTE                   78
        BYTE   W01
        BYTE                   77
        BYTE   W03
        BYTE                   76
        BYTE   W02
        BYTE                   75
        BYTE   W01
        BYTE                   74
        BYTE   W02
        BYTE                   73
        BYTE   W01
        BYTE                   72
        BYTE   W03
        BYTE                   71
        BYTE   W02
// 002   ----------------------------------------
        BYTE           EOT
        BYTE           VOL     69
        BYTE           TIE
        BYTE   W01
        BYTE           VOL     68
        BYTE   W11
        BYTE                   69
        BYTE   W13
        BYTE                   70
        BYTE   W05
        BYTE                   71
        BYTE   W03
        BYTE                   72
        BYTE   W06
        BYTE                   73
        BYTE   W03
        BYTE                   74
        BYTE   W03
        BYTE                   75
        BYTE   W03
        BYTE                   76
        BYTE   W04
        BYTE                   77
        BYTE   W03
        BYTE                   78
        BYTE   W02
        BYTE                   79
        BYTE   W01
        BYTE                   80
        BYTE   W05
        BYTE                   81
        BYTE   W01
        BYTE                   82
        BYTE   W02
        BYTE                   83
        BYTE   W03
        BYTE                   84
        BYTE   W01
        BYTE                   85
        BYTE   W02
        BYTE                   86
        BYTE   W01
        BYTE                   87
        BYTE   W03
        BYTE                   88
        BYTE   W03
        BYTE                   89
        BYTE   W02
        BYTE                   90
        BYTE   W01
        BYTE                   91
        BYTE   W02
        BYTE                   92
        BYTE   W01
        BYTE                   93
        BYTE   W02
        BYTE                   94
        BYTE   W03
        BYTE                   96
        BYTE   W01
        BYTE                   97
        BYTE   W02
        BYTE                   98
        BYTE   W03
// 003   ----------------------------------------
        BYTE                   99
        BYTE   W12
        BYTE                   98
        BYTE   W13
        BYTE                   97
        BYTE   W05
        BYTE                   96
        BYTE   W03
        BYTE                   95
        BYTE   W04
        BYTE                   94
        BYTE   W06
        BYTE                   93
        BYTE   W02
        BYTE                   92
        BYTE   W03
        BYTE                   91
        BYTE   W04
        BYTE                   90
        BYTE   W03
        BYTE                   89
        BYTE   W02
        BYTE                   88
        BYTE   W03
        BYTE                   87
        BYTE   W04
        BYTE                   86
        BYTE   W02
        BYTE                   85
        BYTE   W01
        BYTE                   84
        BYTE   W02
        BYTE                   83
        BYTE   W04
        BYTE                   82
        BYTE   W02
        BYTE                   81
        BYTE   W01
        BYTE                   80
        BYTE   W03
        BYTE                   79
        BYTE   W02
        BYTE                   78
        BYTE   W01
        BYTE                   77
        BYTE   W02
        BYTE                   76
        BYTE   W03
        BYTE                   75
        BYTE   W01
        BYTE                   74
        BYTE   W02
        BYTE                   73
        BYTE   W01
        BYTE                   72
        BYTE   W02
        BYTE                   71
        BYTE   W01
        BYTE                   69
        BYTE   W02
// 004   ----------------------------------------
        BYTE           EOT
        BYTE           TIE
        BYTE   W16
        BYTE           VOL     70
        BYTE   W06
        BYTE                   71
        BYTE   W05
        BYTE                   72
        BYTE   W06
        BYTE                   73
        BYTE   W04
        BYTE                   74
        BYTE   W02
        BYTE                   75
        BYTE   W03
        BYTE                   76
        BYTE   W04
        BYTE                   77
        BYTE   W03
        BYTE                   78
        BYTE   W03
        BYTE                   79
        BYTE   W02
        BYTE                   80
        BYTE   W03
        BYTE                   81
        BYTE   W03
        BYTE                   82
        BYTE   W01
        BYTE                   83
        BYTE   W03
        BYTE                   84
        BYTE   W02
        BYTE                   85
        BYTE   W01
        BYTE                   86
        BYTE   W02
        BYTE                   87
        BYTE   W03
        BYTE                   88
        BYTE   W03
        BYTE                   90
        BYTE   W01
        BYTE                   91
        BYTE   W03
        BYTE                   92
        BYTE   W03
        BYTE                   94
        BYTE   W03
        BYTE                   96
        BYTE   W02
        BYTE                   97
        BYTE   W01
        BYTE                   98
        BYTE   W08
// 005   ----------------------------------------
        BYTE                   100
        BYTE   W10
        BYTE                   99
        BYTE   W08
        BYTE                   98
        BYTE   W09
        BYTE                   97
        BYTE   W04
        BYTE                   96
        BYTE   W03
        BYTE                   95
        BYTE   W03
        BYTE                   94
        BYTE   W06
        BYTE                   93
        BYTE   W02
        BYTE                   92
        BYTE   W01
        BYTE                   91
        BYTE   W05
        BYTE                   90
        BYTE   W03
        BYTE                   89
        BYTE   W01
        BYTE                   88
        BYTE   W03
        BYTE                   87
        BYTE   W03
        BYTE                   86
        BYTE   W02
        BYTE                   85
        BYTE   W03
        BYTE                   83
        BYTE   W03
        BYTE                   82
        BYTE   W01
        BYTE                   81
        BYTE   W02
        BYTE                   80
        BYTE   W04
        BYTE                   78
        BYTE   W02
        BYTE                   77
        BYTE   W01
        BYTE                   76
        BYTE   W03
        BYTE                   75
        BYTE   W02
        BYTE                   73
        BYTE   W01
        BYTE                   69
        BYTE   W11
// 006   ----------------------------------------
        BYTE           EOT
        BYTE           TIE
        BYTE   W03
        BYTE           VOL     70
        BYTE   W07
        BYTE                   71
        BYTE   W06
        BYTE                   72
        BYTE   W11
        BYTE                   73
        BYTE   W03
        BYTE                   74
        BYTE   W04
        BYTE                   75
        BYTE   W03
        BYTE                   76
        BYTE   W06
        BYTE                   77
        BYTE   W05
        BYTE                   78
        BYTE   W01
        BYTE                   79
        BYTE   W03
        BYTE                   80
        BYTE   W05
        BYTE                   81
        BYTE   W03
        BYTE                   83
        BYTE   W04
        BYTE                   84
        BYTE   W02
        BYTE                   85
        BYTE   W04
        BYTE                   87
        BYTE   W03
        BYTE                   88
        BYTE   W03
        BYTE                   89
        BYTE   W02
        BYTE                   90
        BYTE   W01
        BYTE                   91
        BYTE   W03
        BYTE                   92
        BYTE   W02
        BYTE                   93
        BYTE   W01
        BYTE                   94
        BYTE   W03
        BYTE                   95
        BYTE   W02
        BYTE                   96
        BYTE   W03
        BYTE                   98
        BYTE   W03
// 007   ----------------------------------------
        BYTE                   100
        BYTE   W10
        BYTE                   99
        BYTE   W09
        BYTE                   98
        BYTE   W09
        BYTE                   97
        BYTE   W03
        BYTE                   96
        BYTE   W03
        BYTE                   95
        BYTE   W03
        BYTE                   94
        BYTE   W06
        BYTE                   93
        BYTE   W03
        BYTE                   92
        BYTE   W02
        BYTE                   91
        BYTE   W06
        BYTE                   89
        BYTE   W03
        BYTE                   88
        BYTE   W03
        BYTE                   87
        BYTE   W04
        BYTE                   85
        BYTE   W02
        BYTE                   84
        BYTE   W01
        BYTE                   83
        BYTE   W03
        BYTE                   82
        BYTE   W02
        BYTE                   81
        BYTE   W01
        BYTE                   80
        BYTE   W03
        BYTE                   79
        BYTE   W02
        BYTE                   78
        BYTE   W01
        BYTE                   77
        BYTE   W02
        BYTE                   76
        BYTE   W03
        BYTE                   75
        BYTE   W03
        BYTE                   73
        BYTE   W01
        BYTE                   72
        BYTE   W02
        BYTE                   70
        BYTE   W01
        BYTE                   71
        BYTE   W05
// 008   ----------------------------------------
        BYTE           EOT
        BYTE           TIE
        BYTE   W13
        BYTE           VOL     72
        BYTE   W12
        BYTE                   73
        BYTE   W05
        BYTE                   74
        BYTE   W06
        BYTE                   75
        BYTE   W01
        BYTE                   76
        BYTE   W08
        BYTE                   77
        BYTE   W04
        BYTE                   78
        BYTE   W03
        BYTE                   79
        BYTE   W02
        BYTE                   80
        BYTE   W06
        BYTE                   81
        BYTE   W01
        BYTE                   82
        BYTE   W03
        BYTE                   83
        BYTE   W06
        BYTE                   85
        BYTE   W02
        BYTE                   86
        BYTE   W03
        BYTE                   87
        BYTE   W03
        BYTE                   88
        BYTE   W03
        BYTE                   89
        BYTE   W01
        BYTE                   90
        BYTE   W03
        BYTE                   91
        BYTE   W03
        BYTE                   92
        BYTE   W02
        BYTE                   93
        BYTE   W03
        BYTE                   94
        BYTE   W01
        BYTE                   95
        BYTE   W02
// 009   ----------------------------------------
        BYTE                   96
        BYTE   W01
        BYTE                   97
        BYTE   W02
        BYTE                   98
        BYTE   W01
        BYTE                   100
        BYTE   W18
        BYTE                   99
        BYTE   W08
        BYTE                   98
        BYTE   W06
        BYTE                   97
        BYTE   W03
        BYTE                   96
        BYTE   W03
        BYTE                   95
        BYTE   W03
        BYTE                   94
        BYTE   W04
        BYTE                   93
        BYTE   W03
        BYTE                   92
        BYTE   W02
        BYTE                   91
        BYTE   W04
        BYTE                   90
        BYTE   W02
        BYTE                   89
        BYTE   W04
        BYTE                   87
        BYTE   W05
        BYTE                   86
        BYTE   W01
        BYTE                   85
        BYTE   W02
        BYTE                   84
        BYTE   W03
        BYTE                   83
        BYTE   W01
        BYTE                   82
        BYTE   W02
        BYTE                   81
        BYTE   W01
        BYTE                   80
        BYTE   W03
        BYTE                   79
        BYTE   W02
        BYTE                   78
        BYTE   W03
        BYTE                   76
        BYTE   W03
        BYTE                   74
        BYTE   W01
        BYTE                   72
        BYTE   W05
// 010   ----------------------------------------
        BYTE           EOT
        BYTE           TIE
        BYTE   W07
        BYTE           VOL     73
        BYTE   W09
        BYTE                   74
        BYTE   W05
        BYTE                   75
        BYTE   W04
        BYTE                   76
        BYTE   W11
        BYTE                   77
        BYTE   W03
        BYTE                   78
        BYTE   W03
        BYTE                   79
        BYTE   W04
        BYTE                   80
        BYTE   W03
        BYTE                   81
        BYTE   W03
        BYTE                   82
        BYTE   W02
        BYTE                   83
        BYTE   W04
        BYTE                   84
        BYTE   W02
        BYTE                   85
        BYTE   W03
        BYTE                   86
        BYTE   W01
        BYTE                   87
        BYTE   W05
        BYTE                   88
        BYTE   W01
        BYTE                   89
        BYTE   W02
        BYTE                   90
        BYTE   W01
        BYTE                   91
        BYTE   W03
        BYTE                   92
        BYTE   W05
        BYTE                   94
        BYTE   W03
        BYTE                   95
        BYTE   W01
        BYTE                   97
        BYTE   W02
        BYTE                   98
        BYTE   W04
        BYTE                   100
        BYTE   W05
// 011   ----------------------------------------
        BYTE   W10
        BYTE                   98
        BYTE   W11
        BYTE                   97
        BYTE   W09
        BYTE                   96
        BYTE   W03
        BYTE                   95
        BYTE   W03
        BYTE                   94
        BYTE   W07
        BYTE                   93
        BYTE   W03
        BYTE                   92
        BYTE   W02
        BYTE                   91
        BYTE   W04
        BYTE                   90
        BYTE   W03
        BYTE                   89
        BYTE   W02
        BYTE                   88
        BYTE   W03
        BYTE                   87
        BYTE   W04
        BYTE                   86
        BYTE   W02
        BYTE                   85
        BYTE   W01
        BYTE                   84
        BYTE   W02
        BYTE                   83
        BYTE   W03
        BYTE                   82
        BYTE   W03
        BYTE                   80
        BYTE   W03
        BYTE                   79
        BYTE   W01
        BYTE                   78
        BYTE   W02
        BYTE                   77
        BYTE   W01
        BYTE                   76
        BYTE   W03
        BYTE                   75
        BYTE   W02
        BYTE                   73
        BYTE   W01
        BYTE                   72
        BYTE   W03
        BYTE                   71
        BYTE   W02
        BYTE                   70
        BYTE   W03
// 012   ----------------------------------------
        BYTE           EOT
        BYTE           TIE
        BYTE   W12
        BYTE           VOL     71
        BYTE   W07
        BYTE                   72
        BYTE   W11
        BYTE                   73
        BYTE   W04
        BYTE                   74
        BYTE   W05
        BYTE                   75
        BYTE   W03
        BYTE                   76
        BYTE   W06
        BYTE                   77
        BYTE   W04
        BYTE                   78
        BYTE   W05
        BYTE                   80
        BYTE   W06
        BYTE                   81
        BYTE   W01
        BYTE                   82
        BYTE   W05
        BYTE                   83
        BYTE   W01
        BYTE                   84
        BYTE   W03
        BYTE                   85
        BYTE   W02
        BYTE                   86
        BYTE   W01
        BYTE                   87
        BYTE   W05
        BYTE                   88
        BYTE   W03
        BYTE                   89
        BYTE   W01
        BYTE                   90
        BYTE   W02
        BYTE                   91
        BYTE   W04
        BYTE                   93
        BYTE   W02
        BYTE                   94
        BYTE   W03
// 013   ----------------------------------------
        BYTE                   95
        BYTE   W01
        BYTE                   99
        BYTE   W12
        BYTE                   98
        BYTE   W12
        BYTE                   97
        BYTE   W05
        BYTE                   96
        BYTE   W04
        BYTE                   95
        BYTE   W03
        BYTE                   94
        BYTE   W06
        BYTE                   93
        BYTE   W03
        BYTE                   92
        BYTE   W02
        BYTE                   91
        BYTE   W04
        BYTE                   90
        BYTE   W03
        BYTE                   89
        BYTE   W02
        BYTE                   88
        BYTE   W03
        BYTE                   87
        BYTE   W04
        BYTE                   86
        BYTE   W02
        BYTE                   85
        BYTE   W01
        BYTE                   84
        BYTE   W02
        BYTE                   83
        BYTE   W04
        BYTE                   81
        BYTE   W02
        BYTE                   80
        BYTE   W03
        BYTE                   79
        BYTE   W01
        BYTE                   78
        BYTE   W02
        BYTE                   77
        BYTE   W04
        BYTE                   75
        BYTE   W02
        BYTE                   74
        BYTE   W01
        BYTE                   73
        BYTE   W02
        BYTE                   72
        BYTE   W01
        BYTE                   70
        BYTE   W02
        BYTE                   71
        BYTE   W03
// 014   ----------------------------------------
        BYTE           EOT
        BYTE           TIE
        BYTE   W12
        BYTE           VOL     72
        BYTE   W12
        BYTE                   73
        BYTE   W04
        BYTE                   74
        BYTE   W06
        BYTE                   75
        BYTE   W02
        BYTE                   76
        BYTE   W06
        BYTE                   77
        BYTE   W04
        BYTE                   78
        BYTE   W03
        BYTE                   79
        BYTE   W02
        BYTE                   80
        BYTE   W04
        BYTE                   81
        BYTE   W03
        BYTE                   82
        BYTE   W02
        BYTE                   83
        BYTE   W04
        BYTE                   84
        BYTE   W03
        BYTE                   86
        BYTE   W02
        BYTE                   87
        BYTE   W04
        BYTE                   88
        BYTE   W05
        BYTE                   90
        BYTE   W01
        BYTE                   91
        BYTE   W03
        BYTE                   92
        BYTE   W02
        BYTE                   93
        BYTE   W01
        BYTE                   94
        BYTE   W05
        BYTE                   96
        BYTE   W01
        BYTE                   97
        BYTE   W02
        BYTE                   98
        BYTE   W01
        BYTE                   99
        BYTE   W02
// 015   ----------------------------------------
        BYTE   W13
        BYTE                   98
        BYTE   W14
        BYTE                   97
        BYTE   W01
        BYTE                   96
        BYTE   W05
        BYTE                   95
        BYTE   W03
        BYTE                   94
        BYTE   W06
        BYTE                   93
        BYTE   W01
        BYTE                   92
        BYTE   W03
        BYTE                   91
        BYTE   W05
        BYTE                   90
        BYTE   W01
        BYTE                   89
        BYTE   W03
        BYTE                   88
        BYTE   W03
        BYTE                   87
        BYTE   W03
        BYTE                   86
        BYTE   W02
        BYTE                   85
        BYTE   W01
        BYTE                   84
        BYTE   W03
        BYTE                   83
        BYTE   W05
        BYTE                   81
        BYTE   W01
        BYTE                   80
        BYTE   W03
        BYTE                   79
        BYTE   W02
        BYTE                   78
        BYTE   W01
        BYTE                   77
        BYTE   W02
        BYTE                   76
        BYTE   W03
        BYTE                   73
        BYTE   W01
        BYTE                   74
        BYTE   W11
// 016   ----------------------------------------
        BYTE           EOT
        BYTE           TIE     Ds1
        BYTE   W07
        BYTE           VOL     75
        BYTE   W08
        BYTE                   76
        BYTE   W10
        BYTE                   77
        BYTE   W08
        BYTE                   78
        BYTE   W03
        BYTE                   79
        BYTE   W03
        BYTE                   80
        BYTE   W06
        BYTE                   81
        BYTE   W03
        BYTE                   82
        BYTE   W03
        BYTE                   83
        BYTE   W06
        BYTE                   84
        BYTE   W01
        BYTE                   85
        BYTE   W03
        BYTE                   86
        BYTE   W02
        BYTE                   87
        BYTE   W04
        BYTE                   88
        BYTE   W03
        BYTE                   89
        BYTE   W03
        BYTE                   90
        BYTE   W02
        BYTE                   91
        BYTE   W04
        BYTE                   92
        BYTE   W02
        BYTE                   93
        BYTE   W01
        BYTE                   94
        BYTE   W03
        BYTE                   95
        BYTE   W03
        BYTE                   96
        BYTE   W02
        BYTE                   97
        BYTE   W01
        BYTE                   98
        BYTE   W03
        BYTE                   99
        BYTE   W02
// 017   ----------------------------------------
        BYTE   W01
        BYTE                   98
        BYTE   W24
        BYTE   W02
        BYTE                   97
        BYTE   W06
        BYTE                   96
        BYTE   W04
        BYTE                   95
        BYTE   W03
        BYTE                   94
        BYTE   W09
        BYTE                   93
        BYTE   W02
        BYTE                   92
        BYTE   W03
        BYTE                   91
        BYTE   W06
        BYTE                   90
        BYTE   W03
        BYTE                   89
        BYTE   W01
        BYTE                   88
        BYTE   W05
        BYTE                   87
        BYTE   W04
        BYTE                   86
        BYTE   W02
        BYTE                   85
        BYTE   W01
        BYTE                   84
        BYTE   W03
        BYTE                   83
        BYTE   W03
        BYTE                   82
        BYTE   W02
        BYTE                   81
        BYTE   W03
        BYTE                   80
        BYTE   W03
        BYTE                   79
        BYTE   W01
        BYTE                   78
        BYTE   W03
        BYTE                   77
        BYTE   W02
// 018   ----------------------------------------
        BYTE           EOT
        BYTE           VOL     76
        BYTE           TIE     Dn1
        BYTE   W03
        BYTE           VOL     74
        BYTE   W01
        BYTE                   75
        BYTE   W17
        BYTE                   76
        BYTE   W10
        BYTE                   77
        BYTE   W06
        BYTE                   78
        BYTE   W03
        BYTE                   79
        BYTE   W03
        BYTE                   80
        BYTE   W06
        BYTE                   81
        BYTE   W05
        BYTE                   83
        BYTE   W04
        BYTE                   84
        BYTE   W03
        BYTE                   85
        BYTE   W02
        BYTE                   86
        BYTE   W03
        BYTE                   87
        BYTE   W03
        BYTE                   88
        BYTE   W03
        BYTE                   89
        BYTE   W01
        BYTE                   90
        BYTE   W03
        BYTE                   91
        BYTE   W02
        BYTE                   92
        BYTE   W01
        BYTE                   93
        BYTE   W02
        BYTE                   94
        BYTE   W03
        BYTE                   95
        BYTE   W01
        BYTE                   96
        BYTE   W03
        BYTE                   98
        BYTE   W03
        BYTE                   100
        BYTE   W05
// 019   ----------------------------------------
        BYTE   W18
        BYTE                   99
        BYTE   W07
        BYTE                   98
        BYTE   W09
        BYTE                   97
        BYTE   W03
        BYTE                   96
        BYTE   W05
        BYTE                   95
        BYTE   W03
        BYTE                   94
        BYTE   W06
        BYTE                   93
        BYTE   W03
        BYTE                   92
        BYTE   W03
        BYTE                   91
        BYTE   W04
        BYTE                   90
        BYTE   W03
        BYTE                   89
        BYTE   W02
        BYTE                   88
        BYTE   W04
        BYTE                   87
        BYTE   W03
        BYTE                   86
        BYTE   W02
        BYTE                   85
        BYTE   W03
        BYTE                   84
        BYTE   W01
        BYTE                   83
        BYTE   W03
        BYTE                   82
        BYTE   W03
        BYTE                   81
        BYTE   W02
        BYTE                   80
        BYTE   W03
        BYTE                   79
        BYTE   W03
        BYTE                   77
        BYTE   W03
// 020   ----------------------------------------
        BYTE           EOT
        BYTE           VOL     76
        BYTE           TIE     Ds1
        BYTE   W22
        BYTE           VOL     77
        BYTE   W09
        BYTE                   78
        BYTE   W03
        BYTE                   79
        BYTE   W05
        BYTE                   80
        BYTE   W06
        BYTE                   81
        BYTE   W03
        BYTE                   82
        BYTE   W03
        BYTE                   83
        BYTE   W06
        BYTE                   84
        BYTE   W01
        BYTE                   85
        BYTE   W03
        BYTE                   86
        BYTE   W03
        BYTE                   87
        BYTE   W03
        BYTE                   88
        BYTE   W03
        BYTE                   89
        BYTE   W02
        BYTE                   90
        BYTE   W04
        BYTE                   91
        BYTE   W02
        BYTE                   92
        BYTE   W01
        BYTE                   93
        BYTE   W02
        BYTE                   94
        BYTE   W03
        BYTE                   95
        BYTE   W03
        BYTE                   96
        BYTE   W01
        BYTE                   97
        BYTE   W02
        BYTE                   98
        BYTE   W04
        BYTE                   99
        BYTE   W02
// 021   ----------------------------------------
        BYTE   W13
        BYTE                   98
        BYTE   W17
        BYTE                   97
        BYTE   W06
        BYTE                   96
        BYTE   W04
        BYTE                   95
        BYTE   W05
        BYTE                   94
        BYTE   W07
        BYTE                   93
        BYTE   W03
        BYTE                   92
        BYTE   W03
        BYTE                   91
        BYTE   W06
        BYTE                   90
        BYTE   W03
        BYTE                   89
        BYTE   W03
        BYTE                   88
        BYTE   W03
        BYTE                   87
        BYTE   W08
        BYTE                   85
        BYTE   W03
        BYTE                   84
        BYTE   W01
        BYTE                   83
        BYTE   W05
        BYTE                   82
        BYTE   W03
        BYTE                   81
        BYTE   W01
        BYTE                   80
        BYTE   W02
// 022   ----------------------------------------
        BYTE           EOT
        BYTE           VOL     76
        BYTE           TIE     Dn1
        BYTE   W12
        BYTE           VOL     77
        BYTE   W12
        BYTE                   78
        BYTE   W06
        BYTE                   79
        BYTE   W04
        BYTE                   80
        BYTE   W08
        BYTE                   81
        BYTE   W03
        BYTE                   82
        BYTE   W03
        BYTE                   83
        BYTE   W06
        BYTE                   84
        BYTE   W01
        BYTE                   85
        BYTE   W03
        BYTE                   86
        BYTE   W03
        BYTE                   87
        BYTE   W05
        BYTE                   88
        BYTE   W03
        BYTE                   89
        BYTE   W01
        BYTE                   90
        BYTE   W02
        BYTE                   91
        BYTE   W04
        BYTE                   92
        BYTE   W02
        BYTE                   93
        BYTE   W01
        BYTE                   94
        BYTE   W05
        BYTE                   95
        BYTE   W03
        BYTE                   97
        BYTE   W01
        BYTE                   98
        BYTE   W03
        BYTE                   99
        BYTE   W05
// 023   ----------------------------------------
        BYTE   W16
        BYTE                   98
        BYTE   W12
        BYTE                   97
        BYTE   W05
        BYTE                   96
        BYTE   W03
        BYTE                   95
        BYTE   W04
        BYTE                   94
        BYTE   W06
        BYTE                   93
        BYTE   W02
        BYTE           EOT
        BYTE           N48     Ds1
        BYTE   W01
        BYTE           VOL     92
        BYTE   W02
        BYTE                   91
        BYTE   W07
        BYTE                   89
        BYTE   W03
        BYTE                   88
        BYTE   W03
        BYTE                   87
        BYTE   W05
        BYTE                   86
        BYTE   W01
        BYTE                   85
        BYTE   W02
        BYTE                   84
        BYTE   W03
        BYTE                   83
        BYTE   W03
        BYTE                   82
        BYTE   W03
        BYTE                   80
        BYTE   W03
        BYTE                   79
        BYTE   W01
        BYTE                   78
        BYTE   W03
        BYTE                   77
        BYTE   W03
        BYTE                   76
        BYTE   W02
        BYTE                   75
        BYTE   W03
// 024   ----------------------------------------
        BYTE           TIE     Dn1
        BYTE   W13
        BYTE           VOL     76
        BYTE   W11
        BYTE                   77
        BYTE   W09
        BYTE                   78
        BYTE   W04
        BYTE                   79
        BYTE   W05
        BYTE                   80
        BYTE   W06
        BYTE                   81
        BYTE   W04
        BYTE                   83
        BYTE   W06
        BYTE                   84
        BYTE   W02
        BYTE                   85
        BYTE   W03
        BYTE                   86
        BYTE   W01
        BYTE                   87
        BYTE   W03
        BYTE                   88
        BYTE   W03
        BYTE                   89
        BYTE   W02
        BYTE                   90
        BYTE   W03
        BYTE                   91
        BYTE   W01
        BYTE                   92
        BYTE   W02
        BYTE                   93
        BYTE   W01
        BYTE                   94
        BYTE   W03
        BYTE                   95
        BYTE   W03
        BYTE                   97
        BYTE   W02
        BYTE                   98
        BYTE   W01
        BYTE                   99
        BYTE   W08
// 025   ----------------------------------------
        BYTE   W24
        BYTE                   98
        BYTE   W12
        BYTE                   97
        BYTE   W06
        BYTE                   96
        BYTE   W04
        BYTE                   95
        BYTE   W02
        BYTE           EOT
        BYTE           N48     Ds1
        BYTE   W03
        BYTE           VOL     94
        BYTE   W06
        BYTE                   93
        BYTE   W03
        BYTE                   92
        BYTE   W04
        BYTE                   91
        BYTE   W05
        BYTE                   90
        BYTE   W03
        BYTE                   89
        BYTE   W03
        BYTE                   88
        BYTE   W04
        BYTE                   87
        BYTE   W03
        BYTE                   86
        BYTE   W03
        BYTE                   85
        BYTE   W02
        BYTE                   84
        BYTE   W01
        BYTE                   83
        BYTE   W03
        BYTE                   84
        BYTE   W05
// 026   ----------------------------------------
        BYTE           N04     Dn1   v127
        BYTE   W03
        BYTE           VOL     85
        BYTE   W03
        BYTE                   86
        BYTE           N04     Dn1   v060
        BYTE   W03
        BYTE           VOL     87
        BYTE   W03
        BYTE           N04     Dn1   v127
        BYTE   W01
        BYTE           VOL     88
        BYTE   W05
        BYTE                   90
        BYTE           N04     Dn1   v060
        BYTE   W03
        BYTE           VOL     91
        BYTE   W03
        BYTE                   93
        BYTE           N04     Dn1   v050
        BYTE   W01
        BYTE           VOL     94
        BYTE   W03
        BYTE                   95
        BYTE   W02
        BYTE                   96
        BYTE           N04     Dn1   v040
        BYTE   W01
        BYTE           VOL     98
        BYTE   W03
        BYTE                   100
        BYTE   W02
        BYTE           N04     Dn1   v127
        BYTE   W06
        BYTE                   Dn1   v060
        BYTE   W06
        BYTE                   Dn1   v127
        BYTE   W06
        BYTE                   Dn1   v060
        BYTE   W06
        BYTE                   Dn1   v050
        BYTE   W06
        BYTE                   Dn1   v040
        BYTE   W06
        BYTE                   Dn1   v127
        BYTE   W06
        BYTE                   Dn1   v060
        BYTE   W06
        BYTE                   Dn1   v127
        BYTE   W06
        BYTE                   Dn1   v060
        BYTE   W06
// 027   ----------------------------------------
        BYTE                   Cs1   v050
        BYTE   W06
        BYTE                   Cs1   v040
        BYTE   W06
        BYTE                   Cs1   v127
        BYTE   W06
        BYTE                   Cs1   v060
        BYTE   W06
        BYTE                   Cs1   v127
        BYTE   W06
        BYTE                   Cs1   v060
        BYTE   W06
        BYTE                   Cs1   v050
        BYTE   W06
        BYTE                   Cs1   v040
        BYTE   W06
        BYTE                   Cs1   v127
        BYTE   W06
        BYTE                   Cs1   v060
        BYTE   W06
        BYTE                   Cs1   v127
        BYTE   W06
        BYTE                   Cs1   v060
        BYTE   W06
        BYTE                   Cs1   v050
        BYTE   W06
        BYTE                   Cs1   v040
        BYTE   W06
        BYTE                   Cs1   v127
        BYTE   W06
        BYTE                   Cs1   v060
        BYTE   W06
// 028   ----------------------------------------
        BYTE                   En1   v127
        BYTE   W06
        BYTE                   En1   v060
        BYTE   W06
        BYTE                   En1   v127
        BYTE   W06
        BYTE                   En1   v060
        BYTE   W06
        BYTE                   En1   v050
        BYTE   W06
        BYTE                   En1   v040
        BYTE   W06
        BYTE                   En1   v127
        BYTE   W06
        BYTE                   En1   v060
        BYTE   W06
        BYTE                   En1   v127
        BYTE   W06
        BYTE                   En1   v060
        BYTE   W06
        BYTE                   En1   v050
        BYTE   W06
        BYTE                   En1   v040
        BYTE   W06
        BYTE                   En1   v127
        BYTE   W06
        BYTE                   En1   v060
        BYTE   W06
        BYTE                   En1   v127
        BYTE   W06
        BYTE                   En1   v060
        BYTE   W06
// 029   ----------------------------------------
        BYTE                   Ds1   v050
        BYTE   W06
        BYTE                   Ds1   v040
        BYTE   W06
        BYTE                   Ds1   v127
        BYTE   W06
        BYTE                   Ds1   v060
        BYTE   W06
        BYTE                   Ds1   v127
        BYTE   W06
        BYTE                   Ds1   v060
        BYTE   W06
        BYTE                   Ds1   v050
        BYTE   W06
        BYTE                   Ds1   v040
        BYTE   W06
        BYTE                   Ds1   v127
        BYTE   W06
        BYTE                   Ds1   v060
        BYTE   W06
        BYTE                   Ds1   v127
        BYTE   W06
        BYTE                   Ds1   v060
        BYTE   W06
        BYTE                   Ds1   v050
        BYTE   W06
        BYTE                   Ds1   v040
        BYTE   W06
        BYTE                   Ds1   v127
        BYTE   W06
        BYTE                   Ds1   v060
        BYTE   W06
// 030   ----------------------------------------
        BYTE                   Fs1   v127
        BYTE   W06
        BYTE                   Fs1   v060
        BYTE   W06
        BYTE                   Fs1   v127
        BYTE   W06
        BYTE                   Fs1   v060
        BYTE   W06
        BYTE                   Fs1   v050
        BYTE   W06
        BYTE                   Fs1   v040
        BYTE   W06
        BYTE                   Fs1   v127
        BYTE   W06
        BYTE                   Fs1   v060
        BYTE   W06
        BYTE                   Fs1   v127
        BYTE   W06
        BYTE                   Fs1   v060
        BYTE   W06
        BYTE                   Fs1   v050
        BYTE   W06
        BYTE                   Fs1   v040
        BYTE   W06
        BYTE                   Fs1   v127
        BYTE   W06
        BYTE                   Fs1   v060
        BYTE   W06
        BYTE                   Fs1   v127
        BYTE   W06
        BYTE                   Fs1   v060
        BYTE   W06
// 031   ----------------------------------------
        BYTE                   Fn1   v050
        BYTE   W06
        BYTE                   Fn1   v040
        BYTE   W06
        BYTE                   Fn1   v127
        BYTE   W06
        BYTE                   Fn1   v060
        BYTE   W06
        BYTE                   Fn1   v127
        BYTE   W06
        BYTE                   Fn1   v060
        BYTE   W06
        BYTE                   Fn1   v050
        BYTE   W06
        BYTE                   Fn1   v040
        BYTE   W06
        BYTE                   Fn1   v127
        BYTE   W06
        BYTE                   Fn1   v060
        BYTE   W06
        BYTE                   Fn1   v127
        BYTE   W06
        BYTE                   Fn1   v060
        BYTE   W06
        BYTE                   Fn1   v050
        BYTE   W06
        BYTE                   Fn1   v040
        BYTE   W06
        BYTE                   Fn1   v127
        BYTE   W06
        BYTE                   Fn1   v060
        BYTE   W06
// 032   ----------------------------------------
        BYTE                   Gs1   v127
        BYTE   W06
        BYTE                   Gs1   v060
        BYTE   W06
        BYTE                   Gs1   v127
        BYTE   W06
        BYTE                   Gs1   v060
        BYTE   W06
        BYTE                   Gs1   v050
        BYTE   W06
        BYTE                   Gs1   v040
        BYTE   W06
        BYTE                   Gs1   v127
        BYTE   W06
        BYTE                   Gs1   v060
        BYTE   W06
        BYTE                   Gs1   v127
        BYTE   W06
        BYTE                   Gs1   v060
        BYTE   W06
        BYTE                   Gs1   v050
        BYTE   W06
        BYTE                   Gs1   v040
        BYTE   W06
        BYTE                   Gs1   v127
        BYTE   W06
        BYTE                   Gs1   v060
        BYTE   W06
        BYTE                   Gs1   v127
        BYTE   W06
        BYTE                   Gs1   v060
        BYTE   W06
// 033   ----------------------------------------
        BYTE                   Bn1   v050
        BYTE   W06
        BYTE                   Bn1   v040
        BYTE   W06
        BYTE                   Bn1   v127
        BYTE   W06
        BYTE                   Bn1   v060
        BYTE   W06
        BYTE                   Bn1   v127
        BYTE   W06
        BYTE                   Bn1   v060
        BYTE   W06
        BYTE                   Bn1   v050
        BYTE   W06
        BYTE                   Bn1   v040
        BYTE   W06
        BYTE                   Bn1   v127
        BYTE   W06
        BYTE                   Bn1   v060
        BYTE   W06
        BYTE                   Bn1   v127
        BYTE   W06
        BYTE                   Bn1   v060
        BYTE   W06
        BYTE                   Bn1   v050
        BYTE   W06
        BYTE                   Bn1   v040
        BYTE   W06
        BYTE                   Bn1   v127
        BYTE   W06
        BYTE                   Bn1   v060
        BYTE   W06
// 034   ----------------------------------------
        BYTE   W96
// 035   ----------------------------------------
        BYTE   W96
// 036   ----------------------------------------
        BYTE   W96
// 037   ----------------------------------------
        BYTE   W96
// 038   ----------------------------------------
        BYTE   W96
// 039   ----------------------------------------
        BYTE   W96
// 040   ----------------------------------------
        BYTE   W96
// 041   ----------------------------------------
        BYTE   W96
// 042   ----------------------------------------
        BYTE           VOL     69
        BYTE   GoTo
         POIN2  UpperSteamCave_5_LOOP
        BYTE   W12
        BYTE   FINE

//****************** Track 6 (Midi-Chn.8) ******************//

UpperSteamCave_6:
        BYTE   KEYSH   UpperSteamCave_key+0
// 000   ----------------------------------------
UpperSteamCave_6_LOOP:
        BYTE           VOICE   1
        BYTE           VOL     80
        BYTE   W96
// 001   ----------------------------------------
        BYTE   W96
// 002   ----------------------------------------
        BYTE   W96
// 003   ----------------------------------------
        BYTE   W96
// 004   ----------------------------------------
        BYTE           PAN     c_v-36
        BYTE           N03     Cn4   v068
        BYTE           N03     En4
        BYTE   W01
        BYTE           PAN     c_v-35
        BYTE   W03
        BYTE                   c_v-34
        BYTE   W02
        BYTE                   c_v-33
        BYTE   W02
        BYTE           N03     Dn4   v069
        BYTE           N03     Fn4
        BYTE   W01
        BYTE           PAN     c_v-32
        BYTE   W03
        BYTE                   c_v-31
        BYTE   W01
        BYTE                   c_v-30
        BYTE   W03
        BYTE           N03     Cn4
        BYTE           N03     En4
        BYTE           PAN     c_v-29
        BYTE   W02
        BYTE                   c_v-28
        BYTE   W03
        BYTE                   c_v-27
        BYTE   W03
        BYTE                   c_v-26
        BYTE           N03     Dn4   v071
        BYTE           N03     Fn4
        BYTE   W01
        BYTE           PAN     c_v-25
        BYTE   W03
        BYTE                   c_v-24
        BYTE   W02
        BYTE                   c_v-23
        BYTE   W02
        BYTE           N03     Cn4   v075
        BYTE           N03     En4
        BYTE   W01
        BYTE           PAN     c_v-22
        BYTE   W03
        BYTE                   c_v-21
        BYTE   W03
        BYTE                   c_v-20
        BYTE   W01
        BYTE           N03     Dn4   v077
        BYTE           N03     Fn4
        BYTE   W02
        BYTE           PAN     c_v-19
        BYTE   W01
        BYTE                   c_v-18
        BYTE   W03
        BYTE                   c_v-17
        BYTE   W02
        BYTE                   c_v-16
        BYTE           N03     Cn4   v080
        BYTE           N03     En4
        BYTE   W03
        BYTE           PAN     c_v-15
        BYTE   W03
        BYTE                   c_v-14
        BYTE   W01
        BYTE                   c_v-13
        BYTE   W01
        BYTE           N03     Dn4   v084
        BYTE           N03     Fn4
        BYTE   W02
        BYTE           PAN     c_v-12
        BYTE   W02
        BYTE                   c_v-11
        BYTE   W03
        BYTE                   c_v-10
        BYTE   W01
        BYTE           N03     Cn4   v088
        BYTE           N03     En4
        BYTE           PAN     c_v-9
        BYTE   W03
        BYTE                   c_v-8
        BYTE   W03
        BYTE                   c_v-7
        BYTE   W02
        BYTE           N03     Dn4   v091
        BYTE           N03     Fn4
        BYTE   W01
        BYTE           PAN     c_v-6
        BYTE   W03
        BYTE                   c_v-5
        BYTE   W02
        BYTE                   c_v-4
        BYTE   W02
        BYTE           N03     Cn4   v097
        BYTE           N03     En4
        BYTE   W01
        BYTE           PAN     c_v-3
        BYTE   W01
        BYTE                   c_v-2
        BYTE   W03
        BYTE                   c_v-1
        BYTE   W03
        BYTE           N03     Dn4   v102
        BYTE           N03     Fn4
        BYTE           PAN     c_v+0
        BYTE   W02
        BYTE                   c_v+1
        BYTE   W03
        BYTE                   c_v+2
        BYTE   W01
        BYTE                   c_v+3
        BYTE   W02
// 005   ----------------------------------------
        BYTE           N03     Cn4   v107
        BYTE           N03     En4
        BYTE   W01
        BYTE           PAN     c_v+4
        BYTE   W03
        BYTE                   c_v+5
        BYTE   W02
        BYTE                   c_v+6
        BYTE           N03     Dn4   v111
        BYTE           N03     Fn4
        BYTE   W04
        BYTE           PAN     c_v+7
        BYTE   W02
        BYTE                   c_v+8
        BYTE           N03     En4   v117
        BYTE           N03     Gn4
        BYTE   W03
        BYTE           PAN     c_v+9
        BYTE   W01
        BYTE                   c_v+10
        BYTE   W02
        BYTE           N03     Fn4   v109
        BYTE           N03     An4
        BYTE   W01
        BYTE           PAN     c_v+11
        BYTE   W03
        BYTE                   c_v+12
        BYTE   W02
        BYTE                   c_v+13
        BYTE           N03     Gn4   v102
        BYTE           N03     As4
        BYTE   W03
        BYTE           PAN     c_v+14
        BYTE   W01
        BYTE                   c_v+15
        BYTE   W02
        BYTE           N03     Fn4   v098
        BYTE           N03     An4
        BYTE   W01
        BYTE           PAN     c_v+16
        BYTE   W02
        BYTE                   c_v+17
        BYTE   W03
        BYTE                   c_v+18
        BYTE           N03     En4   v094
        BYTE           N03     Gn4
        BYTE   W03
        BYTE           PAN     c_v+19
        BYTE   W01
        BYTE                   c_v+20
        BYTE   W02
        BYTE           N03     Dn4   v090
        BYTE           N03     Fn4
        BYTE   W03
        BYTE           PAN     c_v+21
        BYTE   W01
        BYTE                   c_v+22
        BYTE   W02
        BYTE           N03     Cn4   v087
        BYTE           N03     En4
        BYTE   W01
        BYTE           PAN     c_v+23
        BYTE   W02
        BYTE                   c_v+24
        BYTE   W03
        BYTE                   c_v+25
        BYTE   W02
        BYTE           N03     As3   v084
        BYTE           N03     Dn4
        BYTE   W01
        BYTE           PAN     c_v+26
        BYTE   W01
        BYTE                   c_v+27
        BYTE   W03
        BYTE                   c_v+28
        BYTE   W02
        BYTE                   c_v+29
        BYTE   W01
        BYTE           N03     An3   v081
        BYTE           N03     Cn4
        BYTE   W02
        BYTE           PAN     c_v+30
        BYTE   W03
        BYTE                   c_v+31
        BYTE   W01
        BYTE                   c_v+32
        BYTE   W02
        BYTE           N03     Gn3   v078
        BYTE           N03     As3
        BYTE   W01
        BYTE           PAN     c_v+33
        BYTE   W02
        BYTE                   c_v+34
        BYTE   W04
        BYTE                   c_v+35
        BYTE   W01
        BYTE           N03     An3   v075
        BYTE           N03     Cn4
        BYTE   W01
        BYTE           PAN     c_v+36
        BYTE   W03
        BYTE                   c_v+37
        BYTE   W03
        BYTE                   c_v+38
        BYTE   W01
        BYTE           N03     As3   v072
        BYTE           N03     Dn4
        BYTE           PAN     c_v+39
        BYTE   W06
        BYTE                   c_v+38
        BYTE   W02
// 006   ----------------------------------------
        BYTE           N03     Cn5
        BYTE           N03     En5
        BYTE   W01
        BYTE           PAN     c_v+37
        BYTE   W03
        BYTE                   c_v+36
        BYTE   W02
        BYTE                   c_v+35
        BYTE   W02
        BYTE           N03     Dn5
        BYTE           N03     Fn5
        BYTE   W01
        BYTE           PAN     c_v+34
        BYTE   W03
        BYTE                   c_v+33
        BYTE   W03
        BYTE                   c_v+32
        BYTE   W01
        BYTE           N03     Cn5   v073
        BYTE           N03     En5
        BYTE   W02
        BYTE           PAN     c_v+31
        BYTE   W01
        BYTE                   c_v+30
        BYTE   W03
        BYTE                   c_v+29
        BYTE   W02
        BYTE                   c_v+28
        BYTE           N03     Dn5   v074
        BYTE           N03     Fn5
        BYTE   W03
        BYTE           PAN     c_v+27
        BYTE   W03
        BYTE                   c_v+26
        BYTE   W01
        BYTE                   c_v+25
        BYTE   W01
        BYTE           N03     Cn5   v075
        BYTE           N03     En5
        BYTE   W02
        BYTE           PAN     c_v+24
        BYTE   W03
        BYTE                   c_v+23
        BYTE   W02
        BYTE                   c_v+22
        BYTE   W01
        BYTE           N03     Dn5   v077
        BYTE           N03     Fn5
        BYTE   W02
        BYTE           PAN     c_v+21
        BYTE   W03
        BYTE                   c_v+20
        BYTE   W03
        BYTE                   c_v+19
        BYTE           N03     Cn5   v079
        BYTE           N03     En5
        BYTE   W03
        BYTE           PAN     c_v+18
        BYTE   W01
        BYTE                   c_v+17
        BYTE   W03
        BYTE                   c_v+16
        BYTE   W01
        BYTE           N03     Dn5   v082
        BYTE           N03     Fn5
        BYTE   W01
        BYTE           PAN     c_v+15
        BYTE   W03
        BYTE                   c_v+14
        BYTE   W03
        BYTE                   c_v+13
        BYTE   W01
        BYTE           N03     Cn5   v084
        BYTE           N03     En5
        BYTE           PAN     c_v+12
        BYTE   W03
        BYTE                   c_v+11
        BYTE   W03
        BYTE                   c_v+10
        BYTE   W02
        BYTE                   c_v+9
        BYTE           N03     Dn5   v087
        BYTE           N03     Fn5
        BYTE   W03
        BYTE           PAN     c_v+8
        BYTE   W03
        BYTE                   c_v+7
        BYTE   W01
        BYTE                   c_v+6
        BYTE   W01
        BYTE           N03     Cn5   v090
        BYTE           N03     En5
        BYTE   W04
        BYTE           PAN     c_v+5
        BYTE   W01
        BYTE                   c_v+4
        BYTE   W03
        BYTE           N03     Dn5   v094
        BYTE           N03     Fn5
        BYTE           PAN     c_v+3
        BYTE   W03
        BYTE                   c_v+2
        BYTE   W02
        BYTE                   c_v+1
        BYTE   W03
// 007   ----------------------------------------
        BYTE                   c_v+0
        BYTE           N03     Cn5   v098
        BYTE           N03     En5
        BYTE   W01
        BYTE           PAN     c_v-1
        BYTE   W03
        BYTE                   c_v-2
        BYTE   W02
        BYTE           N03     Dn5   v101
        BYTE           N03     Fn5
        BYTE   W01
        BYTE           PAN     c_v-3
        BYTE   W02
        BYTE                   c_v-4
        BYTE   W03
        BYTE                   c_v-5
        BYTE           N03     En5   v105
        BYTE           N03     Gn5
        BYTE   W03
        BYTE           PAN     c_v-6
        BYTE   W01
        BYTE                   c_v-7
        BYTE   W02
        BYTE           N03     Fn5   v109
        BYTE           N03     An5
        BYTE   W01
        BYTE           PAN     c_v-8
        BYTE   W03
        BYTE                   c_v-9
        BYTE   W02
        BYTE           N03     Gn5   v108
        BYTE           N03     As5
        BYTE   W01
        BYTE           PAN     c_v-10
        BYTE   W03
        BYTE                   c_v-11
        BYTE   W02
        BYTE                   c_v-12
        BYTE           N03     Fn5   v105
        BYTE           N03     An5
        BYTE   W03
        BYTE           PAN     c_v-13
        BYTE   W01
        BYTE                   c_v-14
        BYTE   W02
        BYTE           N03     En5   v101
        BYTE           N03     Gn5
        BYTE   W01
        BYTE           PAN     c_v-15
        BYTE   W03
        BYTE                   c_v-16
        BYTE   W02
        BYTE                   c_v-17
        BYTE           N03     Dn5   v097
        BYTE           N03     Fn5
        BYTE   W03
        BYTE           PAN     c_v-18
        BYTE   W03
        BYTE                   c_v-19
        BYTE           N03     Cn5   v094
        BYTE           N03     En5
        BYTE   W01
        BYTE           PAN     c_v-20
        BYTE   W03
        BYTE                   c_v-21
        BYTE   W02
        BYTE                   c_v-22
        BYTE   W02
        BYTE           N03     As4   v090
        BYTE           N03     Dn5
        BYTE   W02
        BYTE           PAN     c_v-23
        BYTE   W03
        BYTE                   c_v-24
        BYTE   W02
        BYTE                   c_v-25
        BYTE   W01
        BYTE           N03     An4   v085
        BYTE           N03     Cn5
        BYTE   W02
        BYTE           PAN     c_v-26
        BYTE   W01
        BYTE                   c_v-27
        BYTE   W03
        BYTE                   c_v-28
        BYTE   W02
        BYTE           N03     Gn4   v083
        BYTE           N03     As4
        BYTE   W01
        BYTE           PAN     c_v-29
        BYTE   W02
        BYTE                   c_v-30
        BYTE   W03
        BYTE                   c_v-31
        BYTE   W02
        BYTE           N03     En4   v079
        BYTE           N03     An4
        BYTE   W01
        BYTE           PAN     c_v-32
        BYTE   W01
        BYTE                   c_v-33
        BYTE   W03
        BYTE                   c_v-34
        BYTE   W03
        BYTE           N03     Dn4   v078
        BYTE           N03     Gn4
        BYTE           PAN     c_v-35
        BYTE   W02
        BYTE                   c_v-36
        BYTE   W04
        BYTE                   c_v-37
        BYTE   W02
// 008   ----------------------------------------
        BYTE                   c_v-38
        BYTE           N03     Fn4   v074
        BYTE           N03     An4
        BYTE   W03
        BYTE           PAN     c_v-40
        BYTE   W92
        BYTE   W01
// 009   ----------------------------------------
        BYTE   W92
        BYTE   W02
        BYTE                   c_v-42
        BYTE   W02
// 010   ----------------------------------------
        BYTE                   c_v-41
        BYTE           N03     Cn4   v068
        BYTE           N03     En4
        BYTE   W03
        BYTE           PAN     c_v-40
        BYTE   W01
        BYTE                   c_v-39
        BYTE   W03
        BYTE                   c_v-38
        BYTE   W01
        BYTE           N03     Dn4   v069
        BYTE           N03     Fn4
        BYTE   W01
        BYTE           PAN     c_v-37
        BYTE   W03
        BYTE                   c_v-36
        BYTE   W03
        BYTE                   c_v-35
        BYTE   W01
        BYTE           N03     Cn4
        BYTE           N03     En4
        BYTE   W02
        BYTE           PAN     c_v-34
        BYTE   W01
        BYTE                   c_v-33
        BYTE   W03
        BYTE                   c_v-32
        BYTE   W02
        BYTE                   c_v-31
        BYTE           N03     Dn4   v071
        BYTE           N03     Fn4
        BYTE   W03
        BYTE           PAN     c_v-30
        BYTE   W01
        BYTE                   c_v-29
        BYTE   W03
        BYTE                   c_v-28
        BYTE   W01
        BYTE           N03     Cn4   v075
        BYTE           N03     En4
        BYTE   W01
        BYTE           PAN     c_v-27
        BYTE   W03
        BYTE                   c_v-26
        BYTE   W01
        BYTE                   c_v-25
        BYTE   W03
        BYTE           N03     Dn4   v077
        BYTE           N03     Fn4
        BYTE           PAN     c_v-24
        BYTE   W03
        BYTE                   c_v-23
        BYTE   W02
        BYTE                   c_v-22
        BYTE   W03
        BYTE                   c_v-21
        BYTE           N03     Cn4   v080
        BYTE           N03     En4
        BYTE   W03
        BYTE           PAN     c_v-20
        BYTE   W01
        BYTE                   c_v-19
        BYTE   W03
        BYTE                   c_v-18
        BYTE   W01
        BYTE           N03     Dn4   v084
        BYTE           N03     Fn4
        BYTE   W01
        BYTE           PAN     c_v-17
        BYTE   W03
        BYTE                   c_v-16
        BYTE   W03
        BYTE                   c_v-15
        BYTE   W01
        BYTE           N03     Cn4   v088
        BYTE           N03     En4
        BYTE           PAN     c_v-14
        BYTE   W03
        BYTE                   c_v-13
        BYTE   W02
        BYTE                   c_v-12
        BYTE   W03
        BYTE                   c_v-11
        BYTE           N03     Dn4   v091
        BYTE           N03     Fn4
        BYTE   W01
        BYTE           PAN     c_v-10
        BYTE   W03
        BYTE                   c_v-9
        BYTE   W02
        BYTE                   c_v-8
        BYTE   W02
        BYTE           N03     Cn4   v097
        BYTE           N03     En4
        BYTE   W02
        BYTE           PAN     c_v-7
        BYTE   W02
        BYTE                   c_v-6
        BYTE   W03
        BYTE                   c_v-5
        BYTE   W01
        BYTE           N03     Dn4   v102
        BYTE           N03     Fn4
        BYTE           PAN     c_v-4
        BYTE   W03
        BYTE                   c_v-3
        BYTE   W02
        BYTE                   c_v-2
        BYTE   W03
// 011   ----------------------------------------
        BYTE                   c_v-1
        BYTE           N03     Cn4   v107
        BYTE           N03     En4
        BYTE   W01
        BYTE           PAN     c_v+0
        BYTE   W03
        BYTE                   c_v+1
        BYTE   W02
        BYTE                   c_v+2
        BYTE           N03     Dn4   v111
        BYTE           N03     Fn4
        BYTE   W03
        BYTE           PAN     c_v+3
        BYTE   W01
        BYTE                   c_v+4
        BYTE   W02
        BYTE           N03     En4   v117
        BYTE           N03     Gn4
        BYTE   W01
        BYTE           PAN     c_v+5
        BYTE   W02
        BYTE                   c_v+6
        BYTE   W03
        BYTE           N03     Fn4   v120
        BYTE           N03     An4
        BYTE   W01
        BYTE           PAN     c_v+7
        BYTE   W02
        BYTE                   c_v+8
        BYTE   W03
        BYTE                   c_v+9
        BYTE           N03     Gn4   v108
        BYTE           N03     As4
        BYTE   W01
        BYTE           PAN     c_v+10
        BYTE   W03
        BYTE                   c_v+11
        BYTE   W02
        BYTE                   c_v+12
        BYTE           N03     Fn4   v102
        BYTE           N03     An4
        BYTE   W03
        BYTE           PAN     c_v+13
        BYTE   W01
        BYTE                   c_v+14
        BYTE   W02
        BYTE           N03     En4   v098
        BYTE           N03     Gn4
        BYTE   W01
        BYTE           PAN     c_v+15
        BYTE   W02
        BYTE                   c_v+16
        BYTE   W03
        BYTE                   c_v+17
        BYTE           N03     Dn4   v094
        BYTE           N03     Fn4
        BYTE   W03
        BYTE           PAN     c_v+18
        BYTE   W01
        BYTE                   c_v+19
        BYTE   W02
        BYTE           N03     Cn4   v091
        BYTE           N03     En4
        BYTE   W01
        BYTE           PAN     c_v+20
        BYTE   W03
        BYTE                   c_v+21
        BYTE   W02
        BYTE                   c_v+22
        BYTE   W02
        BYTE           N03     As3   v087
        BYTE           N03     Dn4
        BYTE   W01
        BYTE           PAN     c_v+23
        BYTE   W01
        BYTE                   c_v+24
        BYTE   W03
        BYTE                   c_v+25
        BYTE   W03
        BYTE           N03     An3   v084
        BYTE           N03     Cn4
        BYTE           PAN     c_v+26
        BYTE   W02
        BYTE                   c_v+27
        BYTE   W03
        BYTE                   c_v+28
        BYTE   W01
        BYTE                   c_v+29
        BYTE   W02
        BYTE           N03     Gn3   v081
        BYTE           N03     As3
        BYTE   W01
        BYTE           PAN     c_v+30
        BYTE   W02
        BYTE                   c_v+31
        BYTE   W03
        BYTE                   c_v+32
        BYTE   W01
        BYTE                   c_v+33
        BYTE   W01
        BYTE           N03     An3   v078
        BYTE           N03     Cn4
        BYTE   W02
        BYTE           PAN     c_v+34
        BYTE   W03
        BYTE                   c_v+35
        BYTE   W03
        BYTE           N03     As3   v075
        BYTE           N03     Dn4
        BYTE           PAN     c_v+36
        BYTE   W02
        BYTE                   c_v+37
        BYTE   W03
        BYTE                   c_v+38
        BYTE   W01
        BYTE                   c_v+39
        BYTE   W02
// 012   ----------------------------------------
        BYTE           N03     Cn5   v072
        BYTE           N03     En5
        BYTE   W01
        BYTE           PAN     c_v+41
        BYTE   W02
        BYTE                   c_v+40
        BYTE   W03
        BYTE                   c_v+39
        BYTE   W01
        BYTE                   c_v+38
        BYTE   W01
        BYTE           N03     Dn5   v073
        BYTE           N03     Fn5
        BYTE   W01
        BYTE           PAN     c_v+37
        BYTE   W03
        BYTE                   c_v+36
        BYTE   W01
        BYTE                   c_v+35
        BYTE   W03
        BYTE           N03     Cn5
        BYTE           N03     En5
        BYTE           PAN     c_v+34
        BYTE   W03
        BYTE                   c_v+33
        BYTE   W02
        BYTE                   c_v+32
        BYTE   W03
        BYTE                   c_v+31
        BYTE           N03     Dn5   v074
        BYTE           N03     Fn5
        BYTE   W01
        BYTE           PAN     c_v+30
        BYTE   W03
        BYTE                   c_v+29
        BYTE   W02
        BYTE                   c_v+28
        BYTE   W01
        BYTE                   c_v+27
        BYTE   W01
        BYTE           N03     Cn5   v076
        BYTE           N03     En5
        BYTE   W02
        BYTE           PAN     c_v+26
        BYTE   W02
        BYTE                   c_v+25
        BYTE   W03
        BYTE                   c_v+24
        BYTE   W01
        BYTE           N03     Dn5   v077
        BYTE           N03     Fn5
        BYTE           PAN     c_v+23
        BYTE   W03
        BYTE                   c_v+22
        BYTE   W02
        BYTE                   c_v+21
        BYTE   W01
        BYTE                   c_v+20
        BYTE   W02
        BYTE           N03     Cn5   v079
        BYTE           N03     En5
        BYTE   W03
        BYTE           PAN     c_v+19
        BYTE   W01
        BYTE                   c_v+18
        BYTE   W02
        BYTE                   c_v+17
        BYTE   W02
        BYTE           N03     Dn5   v082
        BYTE           N03     Fn5
        BYTE   W01
        BYTE           PAN     c_v+16
        BYTE   W01
        BYTE                   c_v+15
        BYTE   W03
        BYTE                   c_v+14
        BYTE   W02
        BYTE                   c_v+13
        BYTE   W01
        BYTE           N03     Cn5   v084
        BYTE           N03     En5
        BYTE   W02
        BYTE           PAN     c_v+12
        BYTE   W01
        BYTE                   c_v+11
        BYTE   W02
        BYTE                   c_v+10
        BYTE   W03
        BYTE                   c_v+9
        BYTE           N03     Dn5   v087
        BYTE           N03     Fn5
        BYTE   W01
        BYTE           PAN     c_v+8
        BYTE   W03
        BYTE                   c_v+7
        BYTE   W02
        BYTE                   c_v+6
        BYTE   W02
        BYTE           N03     Cn5   v091
        BYTE           N03     En5
        BYTE   W01
        BYTE           PAN     c_v+5
        BYTE   W03
        BYTE                   c_v+4
        BYTE   W01
        BYTE                   c_v+3
        BYTE   W03
        BYTE           N03     Dn5   v095
        BYTE           N03     Fn5
        BYTE           PAN     c_v+2
        BYTE   W02
        BYTE                   c_v+1
        BYTE   W01
        BYTE                   c_v+0
        BYTE   W03
        BYTE                   c_v-1
        BYTE   W02
// 013   ----------------------------------------
        BYTE                   c_v-2
        BYTE           N03     Cn5   v099
        BYTE           N03     En5
        BYTE   W03
        BYTE           PAN     c_v-3
        BYTE   W01
        BYTE                   c_v-4
        BYTE   W02
        BYTE           N03     Dn5   v103
        BYTE           N03     Fn5
        BYTE   W01
        BYTE           PAN     c_v-5
        BYTE   W02
        BYTE                   c_v-6
        BYTE   W01
        BYTE                   c_v-7
        BYTE   W02
        BYTE           N03     En5   v106
        BYTE           N03     Gn5
        BYTE   W01
        BYTE           PAN     c_v-8
        BYTE   W03
        BYTE                   c_v-9
        BYTE   W02
        BYTE                   c_v-10
        BYTE           N03     Fn5   v110
        BYTE           N03     An5
        BYTE   W03
        BYTE           PAN     c_v-11
        BYTE   W01
        BYTE                   c_v-12
        BYTE   W02
        BYTE           N03     Gn5   v114
        BYTE           N03     As5
        BYTE   W01
        BYTE           PAN     c_v-13
        BYTE   W02
        BYTE                   c_v-14
        BYTE   W03
        BYTE                   c_v-15
        BYTE           N03     Fn5   v105
        BYTE           N03     An5
        BYTE   W01
        BYTE           PAN     c_v-16
        BYTE   W02
        BYTE                   c_v-17
        BYTE   W03
        BYTE                   c_v-18
        BYTE           N03     En5   v101
        BYTE           N03     Gn5
        BYTE   W01
        BYTE           PAN     c_v-19
        BYTE   W03
        BYTE                   c_v-20
        BYTE   W02
        BYTE                   c_v-21
        BYTE           N03     Dn5   v097
        BYTE           N03     Fn5
        BYTE   W03
        BYTE           PAN     c_v-22
        BYTE   W03
        BYTE                   c_v-23
        BYTE           N03     Cn5   v094
        BYTE           N03     En5
        BYTE   W01
        BYTE           PAN     c_v-24
        BYTE   W03
        BYTE                   c_v-25
        BYTE   W02
        BYTE                   c_v-26
        BYTE   W01
        BYTE                   c_v-27
        BYTE   W01
        BYTE           N03     As4   v090
        BYTE           N03     Dn5
        BYTE   W02
        BYTE           PAN     c_v-28
        BYTE   W02
        BYTE                   c_v-29
        BYTE   W03
        BYTE                   c_v-30
        BYTE   W01
        BYTE           N03     An4   v085
        BYTE           N03     Cn5
        BYTE           PAN     c_v-31
        BYTE   W03
        BYTE                   c_v-32
        BYTE   W02
        BYTE                   c_v-33
        BYTE   W01
        BYTE                   c_v-34
        BYTE   W02
        BYTE           N03     Gn4   v083
        BYTE           N03     As4
        BYTE   W01
        BYTE           PAN     c_v-35
        BYTE   W02
        BYTE                   c_v-36
        BYTE   W03
        BYTE                   c_v-37
        BYTE   W02
        BYTE           N03     En4   v079
        BYTE           N03     An4
        BYTE   W01
        BYTE           PAN     c_v-38
        BYTE   W01
        BYTE                   c_v-39
        BYTE   W03
        BYTE                   c_v-40
        BYTE   W02
        BYTE                   c_v-41
        BYTE   W01
        BYTE           N03     Dn4   v078
        BYTE           N03     Gn4
        BYTE   W02
        BYTE           PAN     c_v-42
        BYTE   W01
        BYTE                   c_v-43
        BYTE   W02
        BYTE                   c_v-44
        BYTE   W03
// 014   ----------------------------------------
        BYTE                   c_v-45
        BYTE           N03     Fn4   v074
        BYTE           N03     An4
        BYTE   W01
        BYTE           PAN     c_v-46
        BYTE   W05
        BYTE                   c_v-44
        BYTE   W90
// 015   ----------------------------------------
        BYTE   W96
// 016   ----------------------------------------
        BYTE   W96
// 017   ----------------------------------------
        BYTE   W96
// 018   ----------------------------------------
        BYTE   W96
// 019   ----------------------------------------
        BYTE   W96
// 020   ----------------------------------------
        BYTE   W96
// 021   ----------------------------------------
        BYTE   W96
// 022   ----------------------------------------
        BYTE   W96
// 023   ----------------------------------------
        BYTE   W84
        BYTE   W03
        BYTE                   c_v-40
        BYTE   W03
        BYTE                   c_v-39
        BYTE   W03
        BYTE                   c_v-38
        BYTE   W03
// 024   ----------------------------------------
        BYTE                   c_v-37
        BYTE           N03     En4   v075
        BYTE           N03     An4
        BYTE   W01
        BYTE           PAN     c_v-36
        BYTE   W05
        BYTE                   c_v-35
        BYTE   W01
        BYTE                   c_v-34
        BYTE   W01
        BYTE           N03     Bn3   v077
        BYTE           N03     En4
        BYTE   W02
        BYTE           PAN     c_v-33
        BYTE   W03
        BYTE                   c_v-32
        BYTE   W02
        BYTE                   c_v-31
        BYTE   W01
        BYTE           N03     Cn4
        BYTE           N03     Fn4
        BYTE   W02
        BYTE           PAN     c_v-30
        BYTE   W03
        BYTE                   c_v-29
        BYTE   W01
        BYTE                   c_v-28
        BYTE   W02
        BYTE           N03     En4   v078
        BYTE           N03     An4
        BYTE   W01
        BYTE           PAN     c_v-27
        BYTE   W03
        BYTE                   c_v-26
        BYTE   W02
        BYTE                   c_v-25
        BYTE   W02
        BYTE           N03     Bn3   v080
        BYTE           N03     En4
        BYTE   W01
        BYTE           PAN     c_v-24
        BYTE   W03
        BYTE                   c_v-23
        BYTE   W03
        BYTE                   c_v-22
        BYTE   W01
        BYTE           N03     Cn4   v082
        BYTE           N03     Fn4
        BYTE   W02
        BYTE           PAN     c_v-21
        BYTE   W03
        BYTE                   c_v-20
        BYTE   W01
        BYTE                   c_v-19
        BYTE   W02
        BYTE           N03     En4   v086
        BYTE           N03     An4
        BYTE   W01
        BYTE           PAN     c_v-18
        BYTE   W03
        BYTE                   c_v-17
        BYTE   W02
        BYTE                   c_v-16
        BYTE   W02
        BYTE           N03     Bn3   v089
        BYTE           N03     En4
        BYTE   W01
        BYTE           PAN     c_v-15
        BYTE   W03
        BYTE                   c_v-14
        BYTE   W01
        BYTE                   c_v-13
        BYTE   W03
        BYTE           N03     Cn4   v095
        BYTE           N03     Fn4
        BYTE           PAN     c_v-12
        BYTE   W03
        BYTE                   c_v-11
        BYTE   W02
        BYTE                   c_v-10
        BYTE   W03
        BYTE                   c_v-9
        BYTE           N03     En4   v098
        BYTE           N03     An4
        BYTE   W03
        BYTE           PAN     c_v-8
        BYTE   W03
        BYTE                   c_v-7
        BYTE   W02
        BYTE           N03     Bn3   v104
        BYTE           N03     En4
        BYTE   W01
        BYTE           PAN     c_v-6
        BYTE   W03
        BYTE                   c_v-5
        BYTE   W01
        BYTE                   c_v-4
        BYTE   W03
        BYTE           N03     Cn4   v111
        BYTE           N03     Fn4
        BYTE           PAN     c_v-3
        BYTE   W03
        BYTE                   c_v-2
        BYTE   W02
        BYTE                   c_v-1
        BYTE   W03
// 025   ----------------------------------------
        BYTE                   c_v+0
        BYTE           N03     En4   v115
        BYTE           N03     An4
        BYTE   W03
        BYTE           PAN     c_v+1
        BYTE   W01
        BYTE                   c_v+2
        BYTE   W03
        BYTE                   c_v+3
        BYTE   W01
        BYTE           N03     Bn3   v107
        BYTE           N03     En4
        BYTE   W02
        BYTE           PAN     c_v+4
        BYTE   W02
        BYTE                   c_v+5
        BYTE   W03
        BYTE                   c_v+6
        BYTE   W01
        BYTE           N03     Cn4   v100
        BYTE           N03     Fn4
        BYTE   W03
        BYTE           PAN     c_v+7
        BYTE   W02
        BYTE                   c_v+8
        BYTE   W03
        BYTE                   c_v+9
        BYTE           N03     En4   v093
        BYTE           N03     An4
        BYTE   W03
        BYTE           PAN     c_v+10
        BYTE   W01
        BYTE                   c_v+11
        BYTE   W03
        BYTE                   c_v+12
        BYTE   W01
        BYTE           N03     Bn3   v086
        BYTE           N03     En4
        BYTE   W02
        BYTE           PAN     c_v+13
        BYTE   W02
        BYTE                   c_v+14
        BYTE   W03
        BYTE                   c_v+15
        BYTE   W01
        BYTE           N03     Cn4   v080
        BYTE           N03     Fn4
        BYTE   W02
        BYTE           PAN     c_v+16
        BYTE   W01
        BYTE                   c_v+17
        BYTE   W03
        BYTE                   c_v+18
        BYTE   W02
        BYTE           N03     Gn4   v077
        BYTE           N03     Cn5
        BYTE   W01
        BYTE           PAN     c_v+19
        BYTE   W02
        BYTE                   c_v+20
        BYTE   W04
        BYTE                   c_v+21
        BYTE   W01
        BYTE           N03     Cn4   v073
        BYTE           N03     Fn4
        BYTE   W02
        BYTE           PAN     c_v+22
        BYTE   W02
        BYTE                   c_v+23
        BYTE   W03
        BYTE                   c_v+24
        BYTE   W01
        BYTE           N03     Dn4   v069
        BYTE           N03     Gn4
        BYTE   W02
        BYTE           PAN     c_v+25
        BYTE   W01
        BYTE                   c_v+26
        BYTE   W03
        BYTE                   c_v+27
        BYTE   W02
        BYTE           N03     Gn4   v066
        BYTE           N03     Cn5
        BYTE   W01
        BYTE           PAN     c_v+28
        BYTE   W02
        BYTE                   c_v+29
        BYTE   W03
        BYTE                   c_v+30
        BYTE   W02
        BYTE           N03     Cn4   v064
        BYTE           N03     Fn4
        BYTE   W01
        BYTE           PAN     c_v+31
        BYTE   W01
        BYTE                   c_v+32
        BYTE   W03
        BYTE                   c_v+33
        BYTE   W03
        BYTE           N03     Dn4
        BYTE           N03     Gn4
        BYTE           PAN     c_v+34
        BYTE   W03
        BYTE                   c_v+35
        BYTE   W03
        BYTE                   c_v+36
        BYTE   W02
// 026   ----------------------------------------
        BYTE   W01
        BYTE                   c_v+37
        BYTE   W02
        BYTE                   c_v+38
        BYTE   W03
        BYTE                   c_v+39
        BYTE   W03
        BYTE                   c_v+40
        BYTE   W01
        BYTE                   c_v+41
        BYTE   W03
        BYTE                   c_v+42
        BYTE   W80
        BYTE   W03
// 027   ----------------------------------------
        BYTE   W96
// 028   ----------------------------------------
        BYTE   W96
// 029   ----------------------------------------
        BYTE   W96
// 030   ----------------------------------------
        BYTE   W96
// 031   ----------------------------------------
        BYTE   W96
// 032   ----------------------------------------
        BYTE   W96
// 033   ----------------------------------------
        BYTE   W96
// 034   ----------------------------------------
        BYTE   W10
        BYTE                   c_v+34
        BYTE   W01
        BYTE           N44     An2   v120   gtp3
        BYTE   W01
        BYTE           PAN     c_v+25
        BYTE   W01
        BYTE                   c_v+16
        BYTE   W02
        BYTE           N44     En3   v122   gtp2
        BYTE           PAN     c_v+8
        BYTE   W01
        BYTE                   c_v-1
        BYTE   W02
        BYTE           N44     An3   v124   gtp2
        BYTE           PAN     c_v-9
        BYTE   W01
        BYTE                   c_v-18
        BYTE           N44     Ds4   v124   gtp3
        BYTE   W02
        BYTE           PAN     c_v-26
        BYTE   W01
        BYTE           N44     Gs4   v126   gtp2
        BYTE           PAN     c_v-35
        BYTE   W02
        BYTE                   c_v-44
        BYTE   W01
        BYTE           N44     Cs5   v127   gtp2
        BYTE   W68
        BYTE   W03
// 035   ----------------------------------------
        BYTE   W09
        BYTE           PAN     c_v-54
        BYTE   W01
        BYTE                   c_v-46
        BYTE   W02
        BYTE                   c_v-38
        BYTE           N44     An5   v120   gtp2
        BYTE   W01
        BYTE           PAN     c_v-29
        BYTE   W02
        BYTE                   c_v-21
        BYTE           N44     En5   v122   gtp3
        BYTE   W01
        BYTE           PAN     c_v-12
        BYTE   W02
        BYTE                   c_v-4
        BYTE           N44     An4   v124   gtp3
        BYTE   W01
        BYTE           PAN     c_v+4
        BYTE   W01
        BYTE           N44     Ds4   v124   gtp3
        BYTE   W01
        BYTE           PAN     c_v+13
        BYTE   W01
        BYTE                   c_v+21
        BYTE   W01
        BYTE           N44     Gs3   v126   gtp2
        BYTE   W01
        BYTE           PAN     c_v+30
        BYTE   W01
        BYTE                   c_v+38
        BYTE   W01
        BYTE           N44     Cs3   v127   gtp2
        BYTE   W68
        BYTE   W02
// 036   ----------------------------------------
        BYTE   W10
        BYTE           PAN     c_v+32
        BYTE   W02
        BYTE                   c_v+24
        BYTE           N44     An2   v120   gtp2
        BYTE   W01
        BYTE           PAN     c_v+18
        BYTE   W02
        BYTE                   c_v+10
        BYTE           N44     En3   v122   gtp3
        BYTE   W01
        BYTE           PAN     c_v+3
        BYTE   W02
        BYTE                   c_v-4
        BYTE           N44     An3   v124   gtp3
        BYTE   W01
        BYTE           PAN     c_v-11
        BYTE   W01
        BYTE           N44     Ds4   v124   gtp3
        BYTE   W01
        BYTE           PAN     c_v-18
        BYTE   W01
        BYTE                   c_v-25
        BYTE   W01
        BYTE           N44     Gs4   v126   gtp2
        BYTE   W01
        BYTE           PAN     c_v-32
        BYTE   W01
        BYTE                   c_v-39
        BYTE   W01
        BYTE           N44     Cs5   v127   gtp2
        BYTE   W01
        BYTE           PAN     c_v-46
        BYTE   W68
        BYTE   W01
// 037   ----------------------------------------
        BYTE   W12
        BYTE                   c_v-45
        BYTE           N44     An5   v120   gtp3
        BYTE   W01
        BYTE           PAN     c_v-36
        BYTE   W02
        BYTE                   c_v-27
        BYTE   W01
        BYTE           N44     En5   v122   gtp3
        BYTE           PAN     c_v-18
        BYTE   W02
        BYTE                   c_v-9
        BYTE   W01
        BYTE           N44     An4   v124   gtp3
        BYTE           PAN     c_v+0
        BYTE   W02
        BYTE                   c_v+9
        BYTE           N44     Ds4   v124   gtp2
        BYTE   W01
        BYTE           PAN     c_v+18
        BYTE   W01
        BYTE           N44     Gs3   v126   gtp3
        BYTE   W01
        BYTE           PAN     c_v+27
        BYTE   W01
        BYTE                   c_v+36
        BYTE   W01
        BYTE           N44     Cs3   v127   gtp3
        BYTE   W68
        BYTE   W02
// 038   ----------------------------------------
        BYTE   W09
        BYTE           PAN     c_v+43
        BYTE   W01
        BYTE                   c_v+35
        BYTE   W02
        BYTE                   c_v+26
        BYTE           N44     Fs2   v120   gtp2
        BYTE   W01
        BYTE           PAN     c_v+18
        BYTE   W02
        BYTE                   c_v+9
        BYTE           N44     Cs3   v122   gtp3
        BYTE   W01
        BYTE           PAN     c_v+1
        BYTE   W02
        BYTE                   c_v-8
        BYTE           N44     Fs3   v124   gtp3
        BYTE   W01
        BYTE           PAN     c_v-17
        BYTE   W01
        BYTE           N44     Cn4   v124   gtp3
        BYTE   W01
        BYTE           PAN     c_v-25
        BYTE   W01
        BYTE                   c_v-34
        BYTE   W01
        BYTE           N44     Fn4   v126   gtp2
        BYTE   W01
        BYTE           PAN     c_v-42
        BYTE   W01
        BYTE                   c_v-51
        BYTE   W01
        BYTE           N44     As4   v127   gtp2
        BYTE   W68
        BYTE   W02
// 039   ----------------------------------------
        BYTE   W12
        BYTE           PAN     c_v-43
        BYTE           N44     Fs5   v120   gtp3
        BYTE   W01
        BYTE           PAN     c_v-35
        BYTE   W02
        BYTE                   c_v-27
        BYTE   W01
        BYTE           N44     Cs5   v122   gtp3
        BYTE           PAN     c_v-19
        BYTE   W02
        BYTE                   c_v-11
        BYTE   W01
        BYTE           N44     Fs4   v124   gtp3
        BYTE           PAN     c_v-3
        BYTE   W02
        BYTE                   c_v+5
        BYTE           N44     Cn4   v124   gtp2
        BYTE   W01
        BYTE           PAN     c_v+13
        BYTE   W01
        BYTE           N44     Fn3   v126   gtp3
        BYTE   W01
        BYTE           PAN     c_v+21
        BYTE   W01
        BYTE                   c_v+29
        BYTE   W01
        BYTE           N44     As2   v127   gtp3
        BYTE   W01
        BYTE           PAN     c_v+37
        BYTE   W68
        BYTE   W01
// 040   ----------------------------------------
        BYTE   W10
        BYTE                   c_v+40
        BYTE   W02
        BYTE                   c_v+32
        BYTE           N44     An2   v120   gtp2
        BYTE   W01
        BYTE           PAN     c_v+24
        BYTE   W02
        BYTE                   c_v+17
        BYTE           N44     En3   v122   gtp3
        BYTE   W01
        BYTE           PAN     c_v+9
        BYTE   W02
        BYTE                   c_v+1
        BYTE           N44     An3   v124   gtp3
        BYTE   W01
        BYTE           PAN     c_v-7
        BYTE   W01
        BYTE           N44     Ds4   v124   gtp3
        BYTE   W01
        BYTE           PAN     c_v-14
        BYTE   W01
        BYTE                   c_v-22
        BYTE   W01
        BYTE           N44     Gs4   v126   gtp2
        BYTE   W01
        BYTE           PAN     c_v-30
        BYTE   W01
        BYTE                   c_v-37
        BYTE   W01
        BYTE           N44     Cs5   v127   gtp2
        BYTE   W01
        BYTE           PAN     c_v-45
        BYTE   W68
        BYTE   W01
// 041   ----------------------------------------
        BYTE   W12
        BYTE                   c_v-46
        BYTE           N44     An5   v120   gtp3
        BYTE   W01
        BYTE           PAN     c_v-39
        BYTE   W02
        BYTE                   c_v-31
        BYTE   W01
        BYTE           N44     En5   v122   gtp3
        BYTE           PAN     c_v-24
        BYTE   W02
        BYTE                   c_v-16
        BYTE   W01
        BYTE           N44     An4   v124   gtp3
        BYTE           PAN     c_v-9
        BYTE   W02
        BYTE                   c_v-1
        BYTE           N44     Ds4   v124   gtp2
        BYTE   W01
        BYTE           PAN     c_v+6
        BYTE   W01
        BYTE           N44     Gs3   v126   gtp3
        BYTE   W01
        BYTE           PAN     c_v+14
        BYTE   W01
        BYTE                   c_v+21
        BYTE   W01
        BYTE           N44     Cs3   v127   gtp3
        BYTE   W01
        BYTE           PAN     c_v+29
        BYTE   W01
        BYTE                   c_v+36
        BYTE   W68
// 042   ----------------------------------------
        BYTE                   c_v+0
        BYTE   GoTo
         POIN2  UpperSteamCave_6_LOOP
        BYTE   W12
        BYTE   FINE

//****************** Track 7 (Midi-Chn.5) ******************//

UpperSteamCave_7:
        BYTE   KEYSH   UpperSteamCave_key+0
// 000   ----------------------------------------
UpperSteamCave_7_LOOP:
        BYTE           PAN     c_v-33
        BYTE           VOICE   1
        BYTE           VOL     50
        BYTE   W96
// 001   ----------------------------------------
        BYTE   W96
// 002   ----------------------------------------
        BYTE   W96
// 003   ----------------------------------------
        BYTE   W96
// 004   ----------------------------------------
UpperSteamCave_7_4:
        BYTE   W12
        BYTE           N03     Cn4   v068
        BYTE           N03     En4
        BYTE   W08
        BYTE                   Dn4   v069
        BYTE           N03     Fn4
        BYTE   W08
        BYTE                   Cn4
        BYTE           N03     En4
        BYTE   W08
        BYTE                   Dn4   v071
        BYTE           N03     Fn4
        BYTE   W08
        BYTE                   Cn4   v075
        BYTE           N03     En4
        BYTE   W08
        BYTE                   Dn4   v077
        BYTE           N03     Fn4
        BYTE   W08
        BYTE                   Cn4   v080
        BYTE           N03     En4
        BYTE   W08
        BYTE                   Dn4   v084
        BYTE           N03     Fn4
        BYTE   W08
        BYTE                   Cn4   v088
        BYTE           N03     En4
        BYTE   W08
        BYTE                   Dn4   v091
        BYTE           N03     Fn4
        BYTE   W08
        BYTE                   Cn4   v097
        BYTE           N03     En4
        BYTE   W04
        BYTE   PEND
// 005   ----------------------------------------
        BYTE   W04
        BYTE                   Dn4   v102
        BYTE           N03     Fn4
        BYTE   W08
        BYTE                   Cn4   v107
        BYTE           N03     En4
        BYTE   W06
        BYTE                   Dn4   v111
        BYTE           N03     Fn4
        BYTE   W06
        BYTE                   En4   v117
        BYTE           N03     Gn4
        BYTE   W06
        BYTE                   Fn4   v109
        BYTE           N03     An4
        BYTE   W06
        BYTE                   Gn4   v102
        BYTE           N03     As4
        BYTE   W06
        BYTE                   Fn4   v098
        BYTE           N03     An4
        BYTE   W06
        BYTE                   En4   v094
        BYTE           N03     Gn4
        BYTE   W06
        BYTE                   Dn4   v090
        BYTE           N03     Fn4
        BYTE   W06
        BYTE                   Cn4   v087
        BYTE           N03     En4
        BYTE   W08
        BYTE                   As3   v084
        BYTE           N03     Dn4
        BYTE   W08
        BYTE                   An3   v081
        BYTE           N03     Cn4
        BYTE   W08
        BYTE                   Gn3   v078
        BYTE           N03     As3
        BYTE   W08
        BYTE                   An3   v075
        BYTE           N03     Cn4
        BYTE   W04
// 006   ----------------------------------------
        BYTE   W04
        BYTE                   As3   v072
        BYTE           N03     Dn4
        BYTE   W08
        BYTE                   Cn5
        BYTE           N03     En5
        BYTE   W08
        BYTE                   Dn5
        BYTE           N03     Fn5
        BYTE   W08
        BYTE                   Cn5   v073
        BYTE           N03     En5
        BYTE   W08
        BYTE                   Dn5   v074
        BYTE           N03     Fn5
        BYTE   W08
        BYTE                   Cn5   v075
        BYTE           N03     En5
        BYTE   W08
        BYTE                   Dn5   v077
        BYTE           N03     Fn5
        BYTE   W08
        BYTE                   Cn5   v079
        BYTE           N03     En5
        BYTE   W08
        BYTE                   Dn5   v082
        BYTE           N03     Fn5
        BYTE   W08
        BYTE                   Cn5   v084
        BYTE           N03     En5
        BYTE   W08
        BYTE                   Dn5   v087
        BYTE           N03     Fn5
        BYTE   W08
        BYTE                   Cn5   v090
        BYTE           N03     En5
        BYTE   W04
// 007   ----------------------------------------
        BYTE   W04
        BYTE                   Dn5   v094
        BYTE           N03     Fn5
        BYTE   W08
        BYTE                   Cn5   v098
        BYTE           N03     En5
        BYTE   W06
        BYTE                   Dn5   v101
        BYTE           N03     Fn5
        BYTE   W06
        BYTE                   En5   v105
        BYTE           N03     Gn5
        BYTE   W06
        BYTE                   Fn5   v109
        BYTE           N03     An5
        BYTE   W06
        BYTE                   Gn5   v108
        BYTE           N03     As5
        BYTE   W06
        BYTE                   Fn5   v105
        BYTE           N03     An5
        BYTE   W06
        BYTE                   En5   v101
        BYTE           N03     Gn5
        BYTE   W06
        BYTE                   Dn5   v097
        BYTE           N03     Fn5
        BYTE   W06
        BYTE                   Cn5   v094
        BYTE           N03     En5
        BYTE   W08
        BYTE                   As4   v090
        BYTE           N03     Dn5
        BYTE   W08
        BYTE                   An4   v085
        BYTE           N03     Cn5
        BYTE   W08
        BYTE                   Gn4   v083
        BYTE           N03     As4
        BYTE   W08
        BYTE                   En4   v079
        BYTE           N03     An4
        BYTE   W04
// 008   ----------------------------------------
UpperSteamCave_7_8:
        BYTE   W04
        BYTE           N03     Dn4   v078
        BYTE           N03     Gn4
        BYTE   W08
        BYTE                   Fn4   v074
        BYTE           N03     An4
        BYTE   W84
        BYTE   PEND
// 009   ----------------------------------------
        BYTE   W96
// 010   ----------------------------------------
        BYTE   PATT
         POIN2  UpperSteamCave_7_4
// 011   ----------------------------------------
        BYTE   W04
        BYTE           N03     Dn4   v102
        BYTE           N03     Fn4
        BYTE   W08
        BYTE                   Cn4   v107
        BYTE           N03     En4
        BYTE   W06
        BYTE                   Dn4   v111
        BYTE           N03     Fn4
        BYTE   W06
        BYTE                   En4   v117
        BYTE           N03     Gn4
        BYTE   W06
        BYTE                   Fn4   v120
        BYTE           N03     An4
        BYTE   W06
        BYTE                   Gn4   v108
        BYTE           N03     As4
        BYTE   W06
        BYTE                   Fn4   v102
        BYTE           N03     An4
        BYTE   W06
        BYTE                   En4   v098
        BYTE           N03     Gn4
        BYTE   W06
        BYTE                   Dn4   v094
        BYTE           N03     Fn4
        BYTE   W06
        BYTE                   Cn4   v091
        BYTE           N03     En4
        BYTE   W08
        BYTE                   As3   v087
        BYTE           N03     Dn4
        BYTE   W08
        BYTE                   An3   v084
        BYTE           N03     Cn4
        BYTE   W08
        BYTE                   Gn3   v081
        BYTE           N03     As3
        BYTE   W08
        BYTE                   An3   v078
        BYTE           N03     Cn4
        BYTE   W04
// 012   ----------------------------------------
        BYTE   W04
        BYTE                   As3   v075
        BYTE           N03     Dn4
        BYTE   W08
        BYTE                   Cn5   v072
        BYTE           N03     En5
        BYTE   W08
        BYTE                   Dn5   v073
        BYTE           N03     Fn5
        BYTE   W08
        BYTE                   Cn5
        BYTE           N03     En5
        BYTE   W08
        BYTE                   Dn5   v074
        BYTE           N03     Fn5
        BYTE   W08
        BYTE                   Cn5   v076
        BYTE           N03     En5
        BYTE   W08
        BYTE                   Dn5   v077
        BYTE           N03     Fn5
        BYTE   W08
        BYTE                   Cn5   v079
        BYTE           N03     En5
        BYTE   W08
        BYTE                   Dn5   v082
        BYTE           N03     Fn5
        BYTE   W08
        BYTE                   Cn5   v084
        BYTE           N03     En5
        BYTE   W08
        BYTE                   Dn5   v087
        BYTE           N03     Fn5
        BYTE   W08
        BYTE                   Cn5   v091
        BYTE           N03     En5
        BYTE   W04
// 013   ----------------------------------------
        BYTE   W04
        BYTE                   Dn5   v095
        BYTE           N03     Fn5
        BYTE   W08
        BYTE                   Cn5   v099
        BYTE           N03     En5
        BYTE   W06
        BYTE                   Dn5   v103
        BYTE           N03     Fn5
        BYTE   W06
        BYTE                   En5   v106
        BYTE           N03     Gn5
        BYTE   W06
        BYTE                   Fn5   v110
        BYTE           N03     An5
        BYTE   W06
        BYTE                   Gn5   v114
        BYTE           N03     As5
        BYTE   W06
        BYTE                   Fn5   v105
        BYTE           N03     An5
        BYTE   W06
        BYTE                   En5   v101
        BYTE           N03     Gn5
        BYTE   W06
        BYTE                   Dn5   v097
        BYTE           N03     Fn5
        BYTE   W06
        BYTE                   Cn5   v094
        BYTE           N03     En5
        BYTE   W08
        BYTE                   As4   v090
        BYTE           N03     Dn5
        BYTE   W08
        BYTE                   An4   v085
        BYTE           N03     Cn5
        BYTE   W08
        BYTE                   Gn4   v083
        BYTE           N03     As4
        BYTE   W08
        BYTE                   En4   v079
        BYTE           N03     An4
        BYTE   W04
// 014   ----------------------------------------
        BYTE   PATT
         POIN2  UpperSteamCave_7_8
// 015   ----------------------------------------
        BYTE   W96
// 016   ----------------------------------------
        BYTE   W96
// 017   ----------------------------------------
        BYTE   W96
// 018   ----------------------------------------
        BYTE   W96
// 019   ----------------------------------------
        BYTE   W96
// 020   ----------------------------------------
        BYTE   W96
// 021   ----------------------------------------
        BYTE   W96
// 022   ----------------------------------------
        BYTE   W96
// 023   ----------------------------------------
        BYTE   W96
// 024   ----------------------------------------
        BYTE   W12
        BYTE           N03     En4   v075
        BYTE           N03     An4
        BYTE   W08
        BYTE                   Bn3   v077
        BYTE           N03     En4
        BYTE   W08
        BYTE                   Cn4
        BYTE           N03     Fn4
        BYTE   W08
        BYTE                   En4   v078
        BYTE           N03     An4
        BYTE   W08
        BYTE                   Bn3   v080
        BYTE           N03     En4
        BYTE   W08
        BYTE                   Cn4   v082
        BYTE           N03     Fn4
        BYTE   W08
        BYTE                   En4   v086
        BYTE           N03     An4
        BYTE   W08
        BYTE                   Bn3   v089
        BYTE           N03     En4
        BYTE   W08
        BYTE                   Cn4   v095
        BYTE           N03     Fn4
        BYTE   W08
        BYTE                   En4   v098
        BYTE           N03     An4
        BYTE   W08
        BYTE                   Bn3   v104
        BYTE           N03     En4
        BYTE   W04
// 025   ----------------------------------------
        BYTE   W04
        BYTE                   Cn4   v111
        BYTE           N03     Fn4
        BYTE   W08
        BYTE                   En4   v115
        BYTE           N03     An4
        BYTE   W08
        BYTE                   Bn3   v107
        BYTE           N03     En4
        BYTE   W08
        BYTE                   Cn4   v100
        BYTE           N03     Fn4
        BYTE   W08
        BYTE                   En4   v093
        BYTE           N03     An4
        BYTE   W08
        BYTE                   Bn3   v086
        BYTE           N03     En4
        BYTE   W08
        BYTE                   Cn4   v080
        BYTE           N03     Fn4
        BYTE   W08
        BYTE                   Gn4   v077
        BYTE           N03     Cn5
        BYTE   W08
        BYTE                   Cn4   v073
        BYTE           N03     Fn4
        BYTE   W08
        BYTE                   Dn4   v069
        BYTE           N03     Gn4
        BYTE   W08
        BYTE                   Gn4   v066
        BYTE           N03     Cn5
        BYTE   W08
        BYTE                   Cn4   v064
        BYTE           N03     Fn4
        BYTE   W04
// 026   ----------------------------------------
        BYTE   W04
        BYTE                   Dn4
        BYTE           N03     Gn4
        BYTE   W92
// 027   ----------------------------------------
        BYTE   W96
// 028   ----------------------------------------
        BYTE   W96
// 029   ----------------------------------------
        BYTE   W96
// 030   ----------------------------------------
        BYTE   W96
// 031   ----------------------------------------
        BYTE   W96
// 032   ----------------------------------------
        BYTE   W96
// 033   ----------------------------------------
        BYTE   W96
// 034   ----------------------------------------
        BYTE   W23
        BYTE           N44     An2   v120   gtp3
        BYTE   W04
        BYTE           N44     En3   v122   gtp2
        BYTE   W03
        BYTE                   An3   v124
        BYTE   W01
        BYTE           N44     Ds4   v124   gtp3
        BYTE   W03
        BYTE           N44     Gs4   v126   gtp2
        BYTE   W03
        BYTE                   Cs5   v127
        BYTE   W56
        BYTE   W03
// 035   ----------------------------------------
        BYTE   W24
        BYTE                   An5   v120
        BYTE   W03
        BYTE           N44     En5   v122   gtp3
        BYTE   W03
        BYTE                   An4   v124
        BYTE   W02
        BYTE                   Ds4
        BYTE   W03
        BYTE           N44     Gs3   v126   gtp2
        BYTE   W03
        BYTE                   Cs3   v127
        BYTE   W56
        BYTE   W02
// 036   ----------------------------------------
UpperSteamCave_7_36:
        BYTE   W24
        BYTE           N44     An2   v120   gtp2
        BYTE   W03
        BYTE           N44     En3   v122   gtp3
        BYTE   W03
        BYTE                   An3   v124
        BYTE   W02
        BYTE                   Ds4
        BYTE   W03
        BYTE           N44     Gs4   v126   gtp2
        BYTE   W03
        BYTE                   Cs5   v127
        BYTE   W56
        BYTE   W02
        BYTE   PEND
// 037   ----------------------------------------
UpperSteamCave_7_37:
        BYTE   W24
        BYTE           N44     An5   v120   gtp3
        BYTE   W04
        BYTE                   En5   v122
        BYTE   W03
        BYTE                   An4   v124
        BYTE   W02
        BYTE           N44     Ds4   v124   gtp2
        BYTE   W02
        BYTE           N44     Gs3   v126   gtp3
        BYTE   W03
        BYTE                   Cs3   v127
        BYTE   W56
        BYTE   W02
        BYTE   PEND
// 038   ----------------------------------------
        BYTE   W24
        BYTE           N44     Fs2   v120   gtp2
        BYTE   W03
        BYTE           N44     Cs3   v122   gtp3
        BYTE   W03
        BYTE                   Fs3   v124
        BYTE   W02
        BYTE                   Cn4
        BYTE   W03
        BYTE           N44     Fn4   v126   gtp2
        BYTE   W03
        BYTE                   As4   v127
        BYTE   W56
        BYTE   W02
// 039   ----------------------------------------
        BYTE   W24
        BYTE           N44     Fs5   v120   gtp3
        BYTE   W04
        BYTE                   Cs5   v122
        BYTE   W03
        BYTE                   Fs4   v124
        BYTE   W02
        BYTE           N44     Cn4   v124   gtp2
        BYTE   W02
        BYTE           N44     Fn3   v126   gtp3
        BYTE   W03
        BYTE                   As2   v127
        BYTE   W56
        BYTE   W02
// 040   ----------------------------------------
        BYTE   PATT
         POIN2  UpperSteamCave_7_36
// 041   ----------------------------------------
        BYTE   PATT
         POIN2  UpperSteamCave_7_37
// 042   ----------------------------------------
        BYTE   GoTo
         POIN2  UpperSteamCave_7_LOOP
        BYTE   W12
        BYTE   FINE

//***************** Track 8 (Midi-Chn.10) ******************//

UpperSteamCave_8:
        BYTE   KEYSH   UpperSteamCave_key+0
// 000   ----------------------------------------
UpperSteamCave_8_LOOP:
        BYTE           VOICE   40
        BYTE           PAN     c_v-34
        BYTE           VOL     100
        BYTE   W96
// 001   ----------------------------------------
        BYTE   W96
// 002   ----------------------------------------
        BYTE   W96
// 003   ----------------------------------------
        BYTE   W96
// 004   ----------------------------------------
        BYTE   W96
// 005   ----------------------------------------
        BYTE   W96
// 006   ----------------------------------------
        BYTE   W96
// 007   ----------------------------------------
        BYTE   W96
// 008   ----------------------------------------
        BYTE   W42
        BYTE   W01
        BYTE                   54
        BYTE   W05
        BYTE           N48     Dn3   v092
        BYTE   W04
        BYTE           VOL     55
        BYTE   W03
        BYTE                   56
        BYTE   W03
        BYTE                   57
        BYTE   W03
        BYTE                   58
        BYTE   W02
        BYTE                   59
        BYTE   W01
        BYTE                   61
        BYTE   W03
        BYTE                   63
        BYTE   W02
        BYTE                   64
        BYTE   W01
        BYTE                   65
        BYTE   W02
        BYTE                   66
        BYTE   W01
        BYTE                   68
        BYTE   W02
        BYTE                   69
        BYTE   W01
        BYTE                   71
        BYTE   W02
        BYTE                   72
        BYTE   W01
        BYTE                   74
        BYTE   W02
        BYTE                   76
        BYTE   W01
        BYTE                   77
        BYTE   W02
        BYTE                   80
        BYTE   W01
        BYTE                   81
        BYTE   W02
        BYTE                   83
        BYTE   W01
        BYTE                   86
        BYTE   W02
        BYTE                   88
        BYTE   W01
        BYTE                   90
        BYTE   W02
        BYTE                   92
        BYTE   W01
        BYTE                   94
        BYTE   W02
// 009   ----------------------------------------
        BYTE           N72     Gn3
        BYTE   W01
        BYTE           VOL     99
        BYTE   W12
        BYTE                   98
        BYTE   W14
        BYTE                   97
        BYTE   W04
        BYTE                   96
        BYTE   W05
        BYTE                   95
        BYTE   W03
        BYTE                   94
        BYTE   W07
        BYTE                   93
        BYTE   W02
        BYTE                   92
        BYTE   W03
        BYTE                   91
        BYTE   W06
        BYTE                   90
        BYTE   W01
        BYTE                   89
        BYTE   W03
        BYTE                   88
        BYTE   W03
        BYTE                   87
        BYTE   W03
        BYTE                   86
        BYTE   W03
        BYTE                   85
        BYTE   W02
        BYTE                   84
        BYTE           N24     Fn3
        BYTE   W01
        BYTE           VOL     83
        BYTE   W03
        BYTE                   82
        BYTE   W02
        BYTE                   81
        BYTE   W03
        BYTE                   80
        BYTE   W03
        BYTE                   79
        BYTE   W01
        BYTE                   78
        BYTE   W02
        BYTE                   77
        BYTE   W01
        BYTE                   76
        BYTE   W08
// 010   ----------------------------------------
        BYTE           N48     En3
        BYTE   W07
        BYTE           VOL     77
        BYTE   W05
        BYTE                   78
        BYTE   W01
        BYTE                   79
        BYTE   W02
        BYTE                   80
        BYTE   W03
        BYTE                   81
        BYTE   W01
        BYTE                   82
        BYTE   W02
        BYTE                   83
        BYTE   W01
        BYTE                   84
        BYTE   W02
        BYTE                   86
        BYTE   W01
        BYTE                   87
        BYTE   W02
        BYTE                   88
        BYTE   W01
        BYTE                   89
        BYTE   W02
        BYTE                   91
        BYTE   W01
        BYTE                   92
        BYTE   W02
        BYTE                   94
        BYTE   W01
        BYTE                   95
        BYTE   W02
        BYTE                   97
        BYTE   W01
        BYTE                   100
        BYTE   W03
        BYTE                   98
        BYTE   W02
        BYTE                   94
        BYTE   W01
        BYTE                   88
        BYTE   W02
        BYTE                   82
        BYTE   W01
        BYTE                   73
        BYTE   W02
        BYTE                   64
        BYTE           N96     Cn3
        BYTE   W01
        BYTE           VOL     65
        BYTE   W11
        BYTE                   66
        BYTE   W04
        BYTE                   67
        BYTE   W02
        BYTE                   68
        BYTE   W03
        BYTE                   69
        BYTE   W03
        BYTE                   70
        BYTE   W01
        BYTE                   71
        BYTE   W02
        BYTE                   72
        BYTE   W01
        BYTE                   73
        BYTE   W02
        BYTE                   74
        BYTE   W01
        BYTE                   75
        BYTE   W02
        BYTE                   76
        BYTE   W01
        BYTE                   77
        BYTE   W02
        BYTE                   78
        BYTE   W01
        BYTE                   80
        BYTE   W03
        BYTE                   82
        BYTE   W02
        BYTE                   83
        BYTE   W01
        BYTE                   85
        BYTE   W02
        BYTE                   86
        BYTE   W01
        BYTE                   87
        BYTE   W02
// 011   ----------------------------------------
        BYTE                   89
        BYTE   W01
        BYTE                   91
        BYTE   W02
        BYTE                   92
        BYTE   W01
        BYTE                   94
        BYTE   W02
        BYTE                   96
        BYTE   W01
        BYTE                   98
        BYTE   W14
        BYTE                   97
        BYTE   W01
        BYTE                   96
        BYTE   W03
        BYTE                   95
        BYTE   W02
        BYTE                   94
        BYTE   W03
        BYTE                   93
        BYTE   W01
        BYTE                   92
        BYTE   W02
        BYTE                   91
        BYTE   W03
        BYTE                   88
        BYTE   W03
        BYTE                   87
        BYTE   W01
        BYTE                   84
        BYTE   W02
        BYTE                   81
        BYTE   W01
        BYTE                   77
        BYTE   W02
        BYTE                   72
        BYTE   W01
        BYTE                   58
        BYTE   W02
        BYTE                   59
        BYTE           N36     Cn4
        BYTE   W03
        BYTE           VOL     60
        BYTE   W01
        BYTE                   61
        BYTE   W02
        BYTE                   62
        BYTE   W01
        BYTE                   64
        BYTE   W02
        BYTE                   65
        BYTE   W01
        BYTE                   67
        BYTE   W02
        BYTE                   69
        BYTE   W01
        BYTE                   72
        BYTE   W02
        BYTE                   75
        BYTE   W01
        BYTE                   77
        BYTE   W02
        BYTE                   80
        BYTE   W01
        BYTE                   84
        BYTE   W02
        BYTE                   88
        BYTE   W01
        BYTE                   91
        BYTE   W02
        BYTE                   98
        BYTE   W04
        BYTE                   99
        BYTE   W08
        BYTE           N12     As3
        BYTE   W12
// 012   ----------------------------------------
        BYTE           TIE     An3
        BYTE   W09
        BYTE           VOL     98
        BYTE   W10
        BYTE                   97
        BYTE   W03
        BYTE                   96
        BYTE   W03
        BYTE                   95
        BYTE   W03
        BYTE                   94
        BYTE   W05
        BYTE                   93
        BYTE   W03
        BYTE                   92
        BYTE   W01
        BYTE                   91
        BYTE   W03
        BYTE                   90
        BYTE   W02
        BYTE                   89
        BYTE   W03
        BYTE                   88
        BYTE   W01
        BYTE                   87
        BYTE   W03
        BYTE                   86
        BYTE   W02
        BYTE                   85
        BYTE   W01
        BYTE                   84
        BYTE   W02
        BYTE                   83
        BYTE   W03
        BYTE                   81
        BYTE   W01
        BYTE                   80
        BYTE   W03
        BYTE                   79
        BYTE   W02
        BYTE                   77
        BYTE   W01
        BYTE                   76
        BYTE   W03
        BYTE                   75
        BYTE   W02
        BYTE                   73
        BYTE   W01
        BYTE                   72
        BYTE   W02
        BYTE                   71
        BYTE   W01
        BYTE                   70
        BYTE   W02
        BYTE                   69
        BYTE   W01
        BYTE                   67
        BYTE   W02
        BYTE                   66
        BYTE   W01
        BYTE                   65
        BYTE   W02
        BYTE                   64
        BYTE   W01
        BYTE                   62
        BYTE   W02
        BYTE                   61
        BYTE   W01
        BYTE                   59
        BYTE   W02
        BYTE                   58
        BYTE   W01
        BYTE                   57
        BYTE   W02
        BYTE                   55
        BYTE   W01
        BYTE                   54
        BYTE   W02
        BYTE                   52
        BYTE   W01
        BYTE                   50
        BYTE   W02
// 013   ----------------------------------------
        BYTE                   49
        BYTE   W01
        BYTE                   47
        BYTE   W02
        BYTE                   46
        BYTE   W01
        BYTE                   44
        BYTE   W02
        BYTE                   43
        BYTE   W01
        BYTE                   41
        BYTE   W02
        BYTE                   39
        BYTE   W06
        BYTE                   40
        BYTE   W01
        BYTE                   42
        BYTE   W02
        BYTE                   43
        BYTE   W01
        BYTE                   44
        BYTE   W02
        BYTE                   46
        BYTE   W01
        BYTE                   47
        BYTE   W02
        BYTE           EOT
        BYTE           VOL     50
        BYTE           N24     Gn3
        BYTE   W01
        BYTE           VOL     52
        BYTE   W02
        BYTE                   54
        BYTE   W01
        BYTE                   57
        BYTE   W02
        BYTE                   60
        BYTE   W01
        BYTE                   63
        BYTE   W02
        BYTE                   66
        BYTE   W01
        BYTE                   69
        BYTE   W02
        BYTE                   73
        BYTE   W01
        BYTE                   77
        BYTE   W02
        BYTE                   82
        BYTE   W01
        BYTE                   86
        BYTE   W02
        BYTE                   91
        BYTE   W01
        BYTE                   95
        BYTE   W02
        BYTE                   99
        BYTE   W03
        BYTE           TIE     An3
        BYTE   W15
        BYTE           VOL     98
        BYTE   W15
        BYTE                   97
        BYTE   W04
        BYTE                   96
        BYTE   W05
        BYTE                   95
        BYTE   W04
        BYTE                   94
        BYTE   W05
// 014   ----------------------------------------
        BYTE   W01
        BYTE                   93
        BYTE   W03
        BYTE                   92
        BYTE   W03
        BYTE                   91
        BYTE   W06
        BYTE                   90
        BYTE   W03
        BYTE                   89
        BYTE   W02
        BYTE                   88
        BYTE   W03
        BYTE                   87
        BYTE   W04
        BYTE                   86
        BYTE   W03
        BYTE                   85
        BYTE   W02
        BYTE                   84
        BYTE   W01
        BYTE                   83
        BYTE   W05
        BYTE                   82
        BYTE   W01
        BYTE                   81
        BYTE   W02
        BYTE                   80
        BYTE   W04
        BYTE                   79
        BYTE   W02
        BYTE                   78
        BYTE   W01
        BYTE                   77
        BYTE   W02
        BYTE                   76
        BYTE   W04
        BYTE                   75
        BYTE   W02
        BYTE                   74
        BYTE   W01
        BYTE                   73
        BYTE   W02
        BYTE                   72
        BYTE   W03
        BYTE                   71
        BYTE   W01
        BYTE                   69
        BYTE   W03
        BYTE                   68
        BYTE   W02
        BYTE                   67
        BYTE   W01
        BYTE                   66
        BYTE   W02
        BYTE                   65
        BYTE   W03
        BYTE                   64
        BYTE   W01
        BYTE                   63
        BYTE   W02
        BYTE                   62
        BYTE   W01
        BYTE                   61
        BYTE   W02
        BYTE                   60
        BYTE   W01
        BYTE                   59
        BYTE   W02
        BYTE                   58
        BYTE   W01
        BYTE                   57
        BYTE   W02
        BYTE                   56
        BYTE   W01
        BYTE                   55
        BYTE   W02
        BYTE                   54
        BYTE   W03
        BYTE                   52
        BYTE   W01
        BYTE                   51
        BYTE   W02
        BYTE                   50
        BYTE   W01
        BYTE                   49
        BYTE   W02
// 015   ----------------------------------------
        BYTE                   48
        BYTE   W01
        BYTE                   46
        BYTE   W03
        BYTE                   45
        BYTE   W02
        BYTE                   44
        BYTE   W01
        BYTE                   43
        BYTE   W02
        BYTE                   42
        BYTE   W01
        BYTE                   40
        BYTE   W02
        BYTE                   39
        BYTE   W01
        BYTE                   38
        BYTE   W02
        BYTE                   37
        BYTE   W01
        BYTE                   35
        BYTE   W02
        BYTE                   34
        BYTE   W01
        BYTE                   33
        BYTE   W02
        BYTE                   32
        BYTE   W01
        BYTE                   31
        BYTE   W02
        BYTE                   29
        BYTE   W01
        BYTE                   28
        BYTE   W02
        BYTE                   27
        BYTE   W01
        BYTE                   25
        BYTE   W02
        BYTE                   24
        BYTE   W01
        BYTE                   23
        BYTE   W02
        BYTE                   22
        BYTE   W01
        BYTE                   20
        BYTE   W02
        BYTE                   19
        BYTE   W01
        BYTE                   17
        BYTE   W03
        BYTE                   15
        BYTE   W02
        BYTE                   13
        BYTE   W01
        BYTE                   12
        BYTE   W02
        BYTE                   11
        BYTE   W01
        BYTE                   9
        BYTE   W02
        BYTE           EOT
        BYTE           VOL     8
        BYTE   W01
        BYTE                   6
        BYTE   W02
        BYTE                   5
        BYTE   W01
        BYTE                   3
        BYTE   W02
        BYTE                   2
        BYTE   W01
        BYTE                   0
        BYTE   W40
        BYTE   W01
// 016   ----------------------------------------
        BYTE   W96
// 017   ----------------------------------------
        BYTE   W36
        BYTE   W01
        BYTE                   100
        BYTE   W48
        BYTE                   64
        BYTE   W05
        BYTE                   56
        BYTE   W01
        BYTE                   57
        BYTE   W05
// 018   ----------------------------------------
        BYTE           N48     An4   v112
        BYTE   W01
        BYTE           VOL     58
        BYTE   W02
        BYTE                   59
        BYTE   W01
        BYTE                   60
        BYTE   W02
        BYTE                   61
        BYTE   W03
        BYTE                   63
        BYTE   W01
        BYTE                   65
        BYTE   W02
        BYTE                   66
        BYTE   W01
        BYTE                   68
        BYTE   W02
        BYTE                   69
        BYTE   W01
        BYTE                   71
        BYTE   W02
        BYTE                   73
        BYTE   W01
        BYTE                   76
        BYTE   W02
        BYTE                   77
        BYTE   W01
        BYTE                   80
        BYTE   W02
        BYTE                   83
        BYTE   W01
        BYTE                   85
        BYTE   W02
        BYTE                   88
        BYTE   W01
        BYTE                   91
        BYTE   W02
        BYTE                   94
        BYTE   W01
        BYTE                   99
        BYTE   W03
        BYTE                   98
        BYTE   W03
        BYTE                   96
        BYTE   W02
        BYTE                   94
        BYTE   W01
        BYTE                   92
        BYTE   W02
        BYTE                   89
        BYTE   W01
        BYTE                   86
        BYTE   W02
        BYTE                   75
        BYTE   W03
        BYTE           N90     En4
        BYTE   W03
        BYTE           VOL     76
        BYTE   W07
        BYTE                   77
        BYTE   W03
        BYTE                   78
        BYTE   W02
        BYTE                   79
        BYTE   W01
        BYTE                   80
        BYTE   W03
        BYTE                   81
        BYTE   W02
        BYTE                   82
        BYTE   W01
        BYTE                   83
        BYTE   W02
        BYTE                   84
        BYTE   W01
        BYTE                   85
        BYTE   W02
        BYTE                   87
        BYTE   W03
        BYTE                   88
        BYTE   W01
        BYTE                   90
        BYTE   W02
        BYTE                   91
        BYTE   W01
        BYTE                   93
        BYTE   W02
        BYTE                   94
        BYTE   W01
        BYTE                   96
        BYTE   W02
        BYTE                   98
        BYTE   W01
        BYTE                   99
        BYTE   W06
        BYTE                   98
        BYTE   W02
// 019   ----------------------------------------
        BYTE   W04
        BYTE                   97
        BYTE   W02
        BYTE                   96
        BYTE   W01
        BYTE                   94
        BYTE   W03
        BYTE                   93
        BYTE   W02
        BYTE                   91
        BYTE   W01
        BYTE                   90
        BYTE   W02
        BYTE                   88
        BYTE   W01
        BYTE                   87
        BYTE   W02
        BYTE                   86
        BYTE   W01
        BYTE                   83
        BYTE   W02
        BYTE                   82
        BYTE   W01
        BYTE                   80
        BYTE   W02
        BYTE                   78
        BYTE   W01
        BYTE                   76
        BYTE   W02
        BYTE                   73
        BYTE   W01
        BYTE                   71
        BYTE   W02
        BYTE                   69
        BYTE   W01
        BYTE                   70
        BYTE   W02
        BYTE                   71
        BYTE   W04
        BYTE                   72
        BYTE   W05
        BYTE                   73
        BYTE           N06     Dn4
        BYTE   W01
        BYTE           VOL     74
        BYTE   W02
        BYTE                   76
        BYTE   W03
        BYTE                   77
        BYTE           N16     En4
        BYTE   W01
        BYTE           VOL     79
        BYTE   W02
        BYTE                   80
        BYTE   W01
        BYTE                   82
        BYTE   W02
        BYTE                   83
        BYTE   W01
        BYTE                   85
        BYTE   W02
        BYTE                   87
        BYTE   W01
        BYTE                   89
        BYTE   W02
        BYTE                   91
        BYTE   W01
        BYTE                   93
        BYTE   W02
        BYTE                   95
        BYTE   W01
        BYTE           N14     Fn4
        BYTE           VOL     98
        BYTE   W14
        BYTE           N06     En4
        BYTE   W04
        BYTE           VOL     97
        BYTE   W02
        BYTE                   95
        BYTE           N06     Dn4
        BYTE   W01
        BYTE           VOL     94
        BYTE   W02
        BYTE                   92
        BYTE   W01
        BYTE                   90
        BYTE   W02
        BYTE                   87
        BYTE           N06     Cn4
        BYTE   W01
        BYTE           VOL     84
        BYTE   W02
        BYTE                   77
        BYTE   W03
// 020   ----------------------------------------
        BYTE           N48     Dn4
        BYTE   W03
        BYTE           VOL     78
        BYTE   W01
        BYTE                   79
        BYTE   W02
        BYTE                   80
        BYTE   W03
        BYTE                   82
        BYTE   W01
        BYTE                   83
        BYTE   W02
        BYTE                   84
        BYTE   W01
        BYTE                   86
        BYTE   W02
        BYTE                   87
        BYTE   W01
        BYTE                   89
        BYTE   W02
        BYTE                   91
        BYTE   W01
        BYTE                   94
        BYTE   W02
        BYTE                   95
        BYTE   W01
        BYTE                   98
        BYTE   W09
        BYTE                   97
        BYTE   W02
        BYTE                   95
        BYTE   W01
        BYTE                   94
        BYTE   W02
        BYTE                   93
        BYTE   W01
        BYTE                   91
        BYTE   W02
        BYTE                   89
        BYTE   W01
        BYTE                   87
        BYTE   W02
        BYTE                   84
        BYTE   W01
        BYTE                   82
        BYTE   W02
        BYTE                   79
        BYTE   W01
        BYTE                   76
        BYTE   W02
        BYTE                   69
        BYTE           TIE     Gn3
        BYTE   W06
        BYTE           VOL     70
        BYTE   W01
        BYTE                   71
        BYTE   W02
        BYTE                   72
        BYTE   W03
        BYTE                   74
        BYTE   W01
        BYTE                   76
        BYTE   W02
        BYTE                   77
        BYTE   W01
        BYTE                   78
        BYTE   W02
        BYTE                   80
        BYTE   W01
        BYTE                   82
        BYTE   W02
        BYTE                   84
        BYTE   W01
        BYTE                   87
        BYTE   W02
        BYTE                   89
        BYTE   W01
        BYTE                   91
        BYTE   W02
        BYTE                   94
        BYTE   W01
        BYTE                   98
        BYTE   W02
        BYTE                   100
        BYTE   W12
        BYTE                   99
        BYTE   W04
        BYTE                   98
        BYTE   W02
// 021   ----------------------------------------
        BYTE   W04
        BYTE                   97
        BYTE   W02
        BYTE                   96
        BYTE   W03
        BYTE                   95
        BYTE   W01
        BYTE                   94
        BYTE   W05
        BYTE                   93
        BYTE   W01
        BYTE                   92
        BYTE   W02
        BYTE                   91
        BYTE   W03
        BYTE                   90
        BYTE   W01
        BYTE                   89
        BYTE   W02
        BYTE                   88
        BYTE   W01
        BYTE                   87
        BYTE   W03
        BYTE                   86
        BYTE   W02
        BYTE                   85
        BYTE   W01
        BYTE                   83
        BYTE   W03
        BYTE                   82
        BYTE   W02
        BYTE                   80
        BYTE   W03
        BYTE                   78
        BYTE   W01
        BYTE                   77
        BYTE   W02
        BYTE                   76
        BYTE   W01
        BYTE                   75
        BYTE   W02
        BYTE                   74
        BYTE   W01
        BYTE                   72
        BYTE   W02
        BYTE                   71
        BYTE   W01
        BYTE                   69
        BYTE   W03
        BYTE                   67
        BYTE   W02
        BYTE                   65
        BYTE   W03
        BYTE                   63
        BYTE   W01
        BYTE                   61
        BYTE   W02
        BYTE                   60
        BYTE   W01
        BYTE                   57
        BYTE   W02
        BYTE                   56
        BYTE   W01
        BYTE                   55
        BYTE   W02
        BYTE                   53
        BYTE   W01
        BYTE                   51
        BYTE   W02
        BYTE                   50
        BYTE   W01
        BYTE                   48
        BYTE   W02
        BYTE                   46
        BYTE   W01
        BYTE                   44
        BYTE   W02
        BYTE                   43
        BYTE   W01
        BYTE                   40
        BYTE   W02
        BYTE                   39
        BYTE   W01
        BYTE                   36
        BYTE   W02
        BYTE                   35
        BYTE   W01
        BYTE                   33
        BYTE   W02
        BYTE                   31
        BYTE   W01
        BYTE                   28
        BYTE   W02
        BYTE                   27
        BYTE   W01
        BYTE                   24
        BYTE   W02
        BYTE                   22
        BYTE   W01
        BYTE                   20
        BYTE   W02
        BYTE                   18
        BYTE   W01
        BYTE                   16
        BYTE   W02
// 022   ----------------------------------------
        BYTE           EOT
        BYTE           VOL     13
        BYTE   W01
        BYTE                   11
        BYTE   W02
        BYTE                   9
        BYTE   W01
        BYTE                   6
        BYTE   W02
        BYTE                   4
        BYTE   W01
        BYTE                   2
        BYTE   W88
        BYTE   W01
// 023   ----------------------------------------
        BYTE   W96
// 024   ----------------------------------------
        BYTE   W96
// 025   ----------------------------------------
        BYTE                   100
        BYTE   W96
// 026   ----------------------------------------
        BYTE   W16
        BYTE                   68
        BYTE   W02
        BYTE                   69
        BYTE   W01
        BYTE                   70
        BYTE   W03
        BYTE                   76
        BYTE   W02
        BYTE           N22     Cn4   v108
        BYTE   W03
        BYTE           VOL     77
        BYTE   W01
        BYTE                   78
        BYTE   W02
        BYTE                   80
        BYTE   W03
        BYTE                   82
        BYTE   W01
        BYTE                   83
        BYTE   W02
        BYTE                   85
        BYTE   W01
        BYTE                   87
        BYTE   W02
        BYTE                   88
        BYTE   W01
        BYTE                   91
        BYTE   W02
        BYTE                   93
        BYTE   W01
        BYTE                   95
        BYTE   W02
        BYTE                   98
        BYTE   W01
        BYTE           N02     Bn4
        BYTE           VOL     100
        BYTE   W02
        BYTE           N48     Cn5
        BYTE   W28
        BYTE           VOL     98
        BYTE   W06
        BYTE                   97
        BYTE   W02
        BYTE                   96
        BYTE   W01
        BYTE                   95
        BYTE   W02
        BYTE                   94
        BYTE   W01
        BYTE                   92
        BYTE   W02
        BYTE                   91
        BYTE   W01
        BYTE                   88
        BYTE   W02
        BYTE                   87
        BYTE   W01
        BYTE                   84
        BYTE   W02
// 027   ----------------------------------------
        BYTE                   83
        BYTE           N24     Bn4
        BYTE   W07
        BYTE           VOL     84
        BYTE   W02
        BYTE                   85
        BYTE   W01
        BYTE                   86
        BYTE   W02
        BYTE                   87
        BYTE   W01
        BYTE                   88
        BYTE   W02
        BYTE                   89
        BYTE   W01
        BYTE                   90
        BYTE   W02
        BYTE                   91
        BYTE   W01
        BYTE                   93
        BYTE   W02
        BYTE                   94
        BYTE   W01
        BYTE                   97
        BYTE   W02
        BYTE                   74
        BYTE           N92     Bn3   v108   gtp1
        BYTE   W03
        BYTE           VOL     75
        BYTE   W06
        BYTE                   76
        BYTE   W04
        BYTE                   77
        BYTE   W03
        BYTE                   78
        BYTE   W02
        BYTE                   79
        BYTE   W01
        BYTE                   80
        BYTE   W03
        BYTE                   81
        BYTE   W02
        BYTE                   83
        BYTE   W03
        BYTE                   85
        BYTE   W01
        BYTE                   86
        BYTE   W02
        BYTE                   87
        BYTE   W01
        BYTE                   88
        BYTE   W02
        BYTE                   90
        BYTE   W01
        BYTE                   91
        BYTE   W02
        BYTE                   94
        BYTE   W01
        BYTE                   95
        BYTE   W02
        BYTE                   97
        BYTE   W01
        BYTE                   98
        BYTE   W05
        BYTE                   99
        BYTE   W04
        BYTE                   98
        BYTE   W06
        BYTE                   97
        BYTE   W02
        BYTE                   96
        BYTE   W01
        BYTE                   94
        BYTE   W03
        BYTE                   93
        BYTE   W02
        BYTE                   91
        BYTE   W01
        BYTE                   90
        BYTE   W02
        BYTE                   89
        BYTE   W01
        BYTE                   87
        BYTE   W02
        BYTE                   86
        BYTE   W01
        BYTE                   84
        BYTE   W02
// 028   ----------------------------------------
        BYTE                   82
        BYTE   W01
        BYTE                   80
        BYTE   W02
        BYTE                   78
        BYTE   W01
        BYTE                   76
        BYTE   W02
        BYTE                   74
        BYTE   W01
        BYTE                   72
        BYTE   W02
        BYTE                   69
        BYTE   W01
        BYTE                   66
        BYTE   W02
        BYTE                   64
        BYTE   W01
        BYTE                   61
        BYTE   W02
        BYTE                   58
        BYTE   W01
        BYTE                   55
        BYTE   W02
        BYTE                   52
        BYTE   W01
        BYTE                   49
        BYTE   W02
        BYTE                   46
        BYTE   W01
        BYTE                   43
        BYTE   W02
        BYTE                   76
        BYTE           N22     Dn4
        BYTE   W01
        BYTE           VOL     77
        BYTE   W03
        BYTE                   78
        BYTE   W02
        BYTE                   79
        BYTE   W01
        BYTE                   80
        BYTE   W02
        BYTE                   82
        BYTE   W01
        BYTE                   83
        BYTE   W02
        BYTE                   86
        BYTE   W01
        BYTE                   88
        BYTE   W02
        BYTE                   91
        BYTE   W01
        BYTE                   94
        BYTE   W02
        BYTE                   97
        BYTE   W03
        BYTE                   100
        BYTE   W01
        BYTE           N02     Cs5
        BYTE   W02
        BYTE           N48     Dn5
        BYTE   W30
        BYTE           VOL     99
        BYTE   W01
        BYTE                   98
        BYTE   W03
        BYTE                   97
        BYTE   W02
        BYTE                   95
        BYTE   W01
        BYTE                   94
        BYTE   W02
        BYTE                   93
        BYTE   W01
        BYTE                   91
        BYTE   W02
        BYTE                   89
        BYTE   W01
        BYTE                   87
        BYTE   W02
        BYTE                   85
        BYTE   W01
        BYTE                   83
        BYTE   W02
// 029   ----------------------------------------
        BYTE                   80
        BYTE           N24     Cs5
        BYTE   W06
        BYTE           VOL     81
        BYTE   W01
        BYTE                   82
        BYTE   W02
        BYTE                   83
        BYTE   W01
        BYTE                   84
        BYTE   W02
        BYTE                   85
        BYTE   W01
        BYTE                   87
        BYTE   W02
        BYTE                   88
        BYTE   W01
        BYTE                   90
        BYTE   W02
        BYTE                   91
        BYTE   W01
        BYTE                   94
        BYTE   W02
        BYTE                   96
        BYTE   W01
        BYTE                   82
        BYTE   W02
        BYTE                   74
        BYTE           N72     Cs4
        BYTE   W06
        BYTE           VOL     75
        BYTE   W03
        BYTE                   76
        BYTE   W04
        BYTE                   77
        BYTE   W03
        BYTE                   79
        BYTE   W02
        BYTE                   80
        BYTE   W03
        BYTE                   81
        BYTE   W01
        BYTE                   83
        BYTE   W03
        BYTE                   85
        BYTE   W02
        BYTE                   86
        BYTE   W01
        BYTE                   87
        BYTE   W02
        BYTE                   88
        BYTE   W01
        BYTE                   90
        BYTE   W02
        BYTE                   91
        BYTE   W01
        BYTE                   94
        BYTE   W02
        BYTE                   95
        BYTE   W01
        BYTE                   97
        BYTE   W02
        BYTE                   99
        BYTE   W04
        BYTE                   98
        BYTE   W03
        BYTE                   97
        BYTE   W02
        BYTE                   95
        BYTE   W01
        BYTE                   94
        BYTE   W02
        BYTE                   92
        BYTE   W01
        BYTE                   90
        BYTE   W02
        BYTE                   88
        BYTE   W01
        BYTE                   85
        BYTE   W02
        BYTE                   82
        BYTE   W01
        BYTE                   79
        BYTE   W02
        BYTE                   76
        BYTE   W01
        BYTE                   72
        BYTE   W02
        BYTE                   67
        BYTE   W01
        BYTE                   63
        BYTE   W02
        BYTE                   58
        BYTE   W01
        BYTE                   54
        BYTE   W02
        BYTE                   48
        BYTE   W01
        BYTE                   43
        BYTE   W02
// 030   ----------------------------------------
        BYTE                   37
        BYTE   W01
        BYTE                   31
        BYTE   W02
        BYTE                   24
        BYTE   W18
        BYTE                   80
        BYTE   W03
        BYTE           N08     En4
        BYTE   W01
        BYTE           VOL     81
        BYTE   W02
        BYTE                   82
        BYTE   W01
        BYTE                   83
        BYTE   W02
        BYTE                   84
        BYTE   W01
        BYTE                   86
        BYTE   W01
        BYTE           N08     Fs4
        BYTE   W01
        BYTE           VOL     88
        BYTE   W01
        BYTE                   90
        BYTE   W02
        BYTE                   92
        BYTE   W01
        BYTE                   94
        BYTE   W02
        BYTE                   98
        BYTE   W01
        BYTE           N08     Gs4
        BYTE           VOL     99
        BYTE   W08
        BYTE           N12     An4
        BYTE   W12
        BYTE                   Bn4
        BYTE   W12
        BYTE                   Cs5
        BYTE   W12
        BYTE                   Ds5
        BYTE   W01
        BYTE           VOL     98
        BYTE   W05
        BYTE                   97
        BYTE   W01
        BYTE                   96
        BYTE   W02
        BYTE                   95
        BYTE   W01
        BYTE                   84
        BYTE   W02
// 031   ----------------------------------------
        BYTE                   76
        BYTE           N44     Fn5   v108   gtp1
        BYTE   W06
        BYTE           VOL     77
        BYTE   W01
        BYTE                   78
        BYTE   W02
        BYTE                   79
        BYTE   W01
        BYTE                   80
        BYTE   W02
        BYTE                   82
        BYTE   W01
        BYTE                   83
        BYTE   W02
        BYTE                   86
        BYTE   W01
        BYTE                   87
        BYTE   W02
        BYTE                   90
        BYTE   W01
        BYTE                   92
        BYTE   W02
        BYTE                   94
        BYTE   W01
        BYTE                   98
        BYTE   W14
        BYTE                   97
        BYTE   W03
        BYTE                   96
        BYTE   W01
        BYTE                   95
        BYTE   W02
        BYTE                   94
        BYTE   W01
        BYTE                   92
        BYTE   W02
        BYTE                   91
        BYTE           N03     Fs5
        BYTE   W03
        BYTE           VOL     77
        BYTE           N44     Fn5   v108   gtp1
        BYTE   W06
        BYTE           VOL     78
        BYTE   W03
        BYTE                   79
        BYTE   W01
        BYTE                   80
        BYTE   W03
        BYTE                   82
        BYTE   W02
        BYTE                   83
        BYTE   W01
        BYTE                   84
        BYTE   W02
        BYTE                   86
        BYTE   W01
        BYTE                   87
        BYTE   W02
        BYTE                   88
        BYTE   W01
        BYTE                   90
        BYTE   W02
        BYTE                   92
        BYTE   W01
        BYTE                   94
        BYTE   W02
        BYTE                   96
        BYTE   W01
        BYTE                   98
        BYTE   W02
        BYTE                   99
        BYTE   W04
        BYTE                   98
        BYTE   W05
        BYTE                   97
        BYTE   W01
        BYTE                   96
        BYTE   W02
        BYTE                   95
        BYTE   W01
        BYTE                   94
        BYTE   W02
        BYTE                   93
        BYTE           N03     Ds5
        BYTE   W01
        BYTE           VOL     91
        BYTE   W02
// 032   ----------------------------------------
        BYTE           N44     Cs5   v108   gtp1
        BYTE   W10
        BYTE           VOL     92
        BYTE   W03
        BYTE                   93
        BYTE   W03
        BYTE                   94
        BYTE   W05
        BYTE                   95
        BYTE   W01
        BYTE                   96
        BYTE   W02
        BYTE                   97
        BYTE   W01
        BYTE                   98
        BYTE   W03
        BYTE                   99
        BYTE   W02
        BYTE                   100
        BYTE   W04
        BYTE                   99
        BYTE   W05
        BYTE                   98
        BYTE   W03
        BYTE                   97
        BYTE   W01
        BYTE                   96
        BYTE   W02
        BYTE                   95
        BYTE           N03     Bn4
        BYTE   W01
        BYTE           VOL     94
        BYTE   W02
        BYTE           N44     As4   v108   gtp1
        BYTE   W01
        BYTE           VOL     91
        BYTE   W05
        BYTE                   92
        BYTE   W03
        BYTE                   93
        BYTE   W03
        BYTE                   94
        BYTE   W03
        BYTE                   95
        BYTE   W01
        BYTE                   96
        BYTE   W02
        BYTE                   97
        BYTE   W01
        BYTE                   98
        BYTE   W02
        BYTE                   99
        BYTE   W24
        BYTE           N03     Gs4
        BYTE   W01
        BYTE           VOL     98
        BYTE   W02
// 033   ----------------------------------------
        BYTE           N72     Fs4   v108   gtp3
        BYTE   W06
        BYTE           VOL     97
        BYTE   W03
        BYTE                   96
        BYTE   W03
        BYTE                   95
        BYTE   W01
        BYTE                   94
        BYTE   W03
        BYTE                   93
        BYTE   W02
        BYTE                   92
        BYTE   W01
        BYTE                   91
        BYTE   W03
        BYTE                   90
        BYTE   W02
        BYTE                   88
        BYTE   W01
        BYTE                   87
        BYTE   W03
        BYTE                   85
        BYTE   W02
        BYTE                   84
        BYTE   W01
        BYTE                   83
        BYTE   W02
        BYTE                   81
        BYTE   W01
        BYTE                   80
        BYTE   W02
        BYTE                   78
        BYTE   W01
        BYTE                   76
        BYTE   W02
        BYTE                   75
        BYTE   W01
        BYTE                   73
        BYTE   W02
        BYTE                   71
        BYTE   W01
        BYTE                   69
        BYTE   W02
        BYTE                   67
        BYTE   W01
        BYTE                   65
        BYTE   W02
        BYTE                   63
        BYTE   W01
        BYTE                   61
        BYTE   W02
        BYTE                   59
        BYTE   W01
        BYTE                   57
        BYTE   W02
        BYTE                   54
        BYTE   W01
        BYTE                   52
        BYTE   W02
        BYTE                   50
        BYTE   W01
        BYTE                   46
        BYTE   W02
        BYTE                   44
        BYTE   W01
        BYTE                   42
        BYTE   W02
        BYTE                   39
        BYTE   W01
        BYTE                   36
        BYTE   W02
        BYTE                   33
        BYTE   W01
        BYTE                   31
        BYTE   W02
        BYTE                   28
        BYTE   W01
        BYTE                   24
        BYTE   W02
        BYTE                   21
        BYTE   W01
        BYTE                   18
        BYTE   W03
        BYTE                   73
        BYTE   W02
        BYTE                   74
        BYTE           N06     En4
        BYTE   W03
        BYTE           VOL     75
        BYTE   W01
        BYTE                   76
        BYTE   W02
        BYTE                   77
        BYTE           N06     Ds4
        BYTE   W01
        BYTE           VOL     78
        BYTE   W02
        BYTE                   80
        BYTE   W01
        BYTE                   82
        BYTE   W02
        BYTE                   84
        BYTE           N06     Dn4
        BYTE   W01
        BYTE           VOL     87
        BYTE   W02
        BYTE                   90
        BYTE   W01
        BYTE                   93
        BYTE   W02
// 034   ----------------------------------------
        BYTE                   96
        BYTE           N48     Cs4   v112
        BYTE   W42
        BYTE   W01
        BYTE           VOL     98
        BYTE   W05
        BYTE           N48     Bn3
        BYTE   W06
        BYTE           VOL     97
        BYTE   W03
        BYTE                   96
        BYTE   W01
        BYTE                   95
        BYTE   W02
        BYTE                   94
        BYTE   W03
        BYTE                   93
        BYTE   W01
        BYTE                   92
        BYTE   W02
        BYTE                   91
        BYTE   W01
        BYTE                   90
        BYTE   W02
        BYTE                   89
        BYTE   W01
        BYTE                   88
        BYTE   W02
        BYTE                   87
        BYTE   W01
        BYTE                   85
        BYTE   W02
        BYTE                   83
        BYTE   W01
        BYTE                   82
        BYTE   W02
        BYTE                   80
        BYTE   W01
        BYTE                   79
        BYTE   W02
        BYTE                   77
        BYTE   W01
        BYTE                   76
        BYTE   W02
        BYTE                   74
        BYTE   W01
        BYTE                   72
        BYTE   W02
        BYTE                   70
        BYTE   W01
        BYTE                   68
        BYTE   W02
        BYTE                   66
        BYTE   W01
        BYTE                   64
        BYTE   W02
        BYTE                   66
        BYTE   W03
// 035   ----------------------------------------
        BYTE           N48     Cs4
        BYTE   W03
        BYTE           VOL     67
        BYTE   W04
        BYTE                   68
        BYTE   W03
        BYTE                   69
        BYTE   W05
        BYTE                   70
        BYTE   W01
        BYTE                   71
        BYTE   W02
        BYTE                   72
        BYTE   W03
        BYTE                   73
        BYTE   W01
        BYTE                   75
        BYTE   W02
        BYTE                   76
        BYTE   W03
        BYTE                   77
        BYTE   W01
        BYTE                   79
        BYTE   W02
        BYTE                   80
        BYTE   W01
        BYTE                   81
        BYTE   W02
        BYTE                   83
        BYTE   W03
        BYTE                   85
        BYTE   W01
        BYTE                   87
        BYTE   W02
        BYTE                   88
        BYTE   W01
        BYTE                   90
        BYTE   W02
        BYTE                   91
        BYTE   W01
        BYTE                   93
        BYTE   W02
        BYTE                   95
        BYTE   W01
        BYTE                   97
        BYTE   W02
        BYTE                   98
        BYTE           N48     An3
        BYTE   W10
        BYTE           VOL     97
        BYTE   W03
        BYTE                   96
        BYTE   W02
        BYTE                   95
        BYTE   W01
        BYTE                   94
        BYTE   W03
        BYTE                   93
        BYTE   W02
        BYTE                   92
        BYTE   W01
        BYTE                   91
        BYTE   W03
        BYTE                   90
        BYTE   W02
        BYTE                   89
        BYTE   W01
        BYTE                   88
        BYTE   W02
        BYTE                   87
        BYTE   W01
        BYTE                   86
        BYTE   W02
        BYTE                   84
        BYTE   W01
        BYTE                   83
        BYTE   W02
        BYTE                   81
        BYTE   W01
        BYTE                   80
        BYTE   W02
        BYTE                   78
        BYTE   W01
        BYTE                   77
        BYTE   W02
        BYTE                   76
        BYTE   W01
        BYTE                   74
        BYTE   W02
        BYTE                   72
        BYTE   W01
        BYTE                   70
        BYTE   W02
// 036   ----------------------------------------
        BYTE                   65
        BYTE           N48     Cs4
        BYTE   W07
        BYTE           VOL     66
        BYTE   W05
        BYTE                   67
        BYTE   W01
        BYTE                   68
        BYTE   W02
        BYTE                   69
        BYTE   W03
        BYTE                   70
        BYTE   W01
        BYTE                   71
        BYTE   W02
        BYTE                   72
        BYTE   W03
        BYTE                   74
        BYTE   W01
        BYTE                   75
        BYTE   W02
        BYTE                   76
        BYTE   W01
        BYTE                   77
        BYTE   W02
        BYTE                   79
        BYTE   W01
        BYTE                   80
        BYTE   W02
        BYTE                   82
        BYTE   W01
        BYTE                   83
        BYTE   W02
        BYTE                   85
        BYTE   W01
        BYTE                   87
        BYTE   W02
        BYTE                   88
        BYTE   W01
        BYTE                   90
        BYTE   W02
        BYTE                   92
        BYTE   W01
        BYTE                   94
        BYTE   W02
        BYTE                   96
        BYTE   W01
        BYTE                   98
        BYTE   W02
        BYTE           N48     Bn3
        BYTE   W01
        BYTE           VOL     100
        BYTE   W06
        BYTE                   99
        BYTE   W03
        BYTE                   98
        BYTE   W05
        BYTE                   97
        BYTE   W01
        BYTE                   96
        BYTE   W02
        BYTE                   94
        BYTE   W03
        BYTE                   93
        BYTE   W01
        BYTE                   91
        BYTE   W03
        BYTE                   89
        BYTE   W02
        BYTE                   88
        BYTE   W01
        BYTE                   87
        BYTE   W02
        BYTE                   85
        BYTE   W01
        BYTE                   83
        BYTE   W02
        BYTE                   81
        BYTE   W01
        BYTE                   80
        BYTE   W02
        BYTE                   78
        BYTE   W01
        BYTE                   76
        BYTE   W02
        BYTE                   74
        BYTE   W01
        BYTE                   72
        BYTE   W02
        BYTE                   69
        BYTE   W01
        BYTE                   67
        BYTE   W02
        BYTE                   65
        BYTE   W01
        BYTE                   69
        BYTE   W02
// 037   ----------------------------------------
        BYTE                   70
        BYTE           N48     Cs4
        BYTE   W07
        BYTE           VOL     71
        BYTE   W03
        BYTE                   72
        BYTE   W05
        BYTE                   73
        BYTE   W01
        BYTE                   74
        BYTE   W03
        BYTE                   75
        BYTE   W02
        BYTE                   76
        BYTE   W03
        BYTE                   77
        BYTE   W01
        BYTE                   78
        BYTE   W02
        BYTE                   80
        BYTE   W03
        BYTE                   81
        BYTE   W01
        BYTE                   83
        BYTE   W02
        BYTE                   84
        BYTE   W01
        BYTE                   85
        BYTE   W02
        BYTE                   87
        BYTE   W01
        BYTE                   88
        BYTE   W02
        BYTE                   89
        BYTE   W01
        BYTE                   91
        BYTE   W02
        BYTE                   92
        BYTE   W01
        BYTE                   94
        BYTE   W02
        BYTE                   95
        BYTE   W01
        BYTE                   97
        BYTE   W02
        BYTE                   99
        BYTE           N48     Gn3
        BYTE   W10
        BYTE           VOL     98
        BYTE   W06
        BYTE                   97
        BYTE   W02
        BYTE                   96
        BYTE   W03
        BYTE                   95
        BYTE   W01
        BYTE                   94
        BYTE   W03
        BYTE                   93
        BYTE   W02
        BYTE                   92
        BYTE   W01
        BYTE                   91
        BYTE   W02
        BYTE                   90
        BYTE   W01
        BYTE                   89
        BYTE   W02
        BYTE                   88
        BYTE   W01
        BYTE                   87
        BYTE   W02
        BYTE                   86
        BYTE   W01
        BYTE                   84
        BYTE   W02
        BYTE                   83
        BYTE   W01
        BYTE                   82
        BYTE   W02
        BYTE                   80
        BYTE   W01
        BYTE                   79
        BYTE   W02
        BYTE                   78
        BYTE   W01
        BYTE                   71
        BYTE   W02
// 038   ----------------------------------------
        BYTE           N48     As3
        BYTE   W04
        BYTE           VOL     72
        BYTE   W08
        BYTE                   73
        BYTE   W01
        BYTE                   74
        BYTE   W03
        BYTE                   75
        BYTE   W02
        BYTE                   76
        BYTE   W03
        BYTE                   77
        BYTE   W01
        BYTE                   78
        BYTE   W02
        BYTE                   79
        BYTE   W01
        BYTE                   80
        BYTE   W03
        BYTE                   82
        BYTE   W02
        BYTE                   83
        BYTE   W01
        BYTE                   84
        BYTE   W02
        BYTE                   85
        BYTE   W01
        BYTE                   87
        BYTE   W02
        BYTE                   88
        BYTE   W01
        BYTE                   89
        BYTE   W02
        BYTE                   91
        BYTE   W01
        BYTE                   92
        BYTE   W02
        BYTE                   94
        BYTE   W01
        BYTE                   95
        BYTE   W02
        BYTE                   97
        BYTE   W01
        BYTE                   99
        BYTE   W02
        BYTE                   100
        BYTE           N48     Gs3
        BYTE   W10
        BYTE           VOL     99
        BYTE   W02
        BYTE                   98
        BYTE   W04
        BYTE                   97
        BYTE   W02
        BYTE                   96
        BYTE   W01
        BYTE                   95
        BYTE   W02
        BYTE                   94
        BYTE   W03
        BYTE                   92
        BYTE   W01
        BYTE                   91
        BYTE   W03
        BYTE                   89
        BYTE   W02
        BYTE                   88
        BYTE   W01
        BYTE                   87
        BYTE   W02
        BYTE                   85
        BYTE   W01
        BYTE                   84
        BYTE   W02
        BYTE                   83
        BYTE   W01
        BYTE                   81
        BYTE   W02
        BYTE                   79
        BYTE   W01
        BYTE                   77
        BYTE   W02
        BYTE                   76
        BYTE   W01
        BYTE                   74
        BYTE   W02
        BYTE                   72
        BYTE   W01
        BYTE                   70
        BYTE   W02
// 039   ----------------------------------------
        BYTE                   66
        BYTE           N48     As3
        BYTE   W07
        BYTE           VOL     67
        BYTE   W03
        BYTE                   68
        BYTE   W02
        BYTE                   69
        BYTE   W04
        BYTE                   70
        BYTE   W02
        BYTE                   71
        BYTE   W01
        BYTE                   72
        BYTE   W02
        BYTE                   73
        BYTE   W01
        BYTE                   74
        BYTE   W02
        BYTE                   76
        BYTE   W03
        BYTE                   77
        BYTE   W01
        BYTE                   79
        BYTE   W02
        BYTE                   80
        BYTE   W01
        BYTE                   82
        BYTE   W02
        BYTE                   83
        BYTE   W01
        BYTE                   85
        BYTE   W02
        BYTE                   87
        BYTE   W01
        BYTE                   88
        BYTE   W02
        BYTE                   91
        BYTE   W01
        BYTE                   92
        BYTE   W02
        BYTE                   94
        BYTE   W01
        BYTE                   96
        BYTE   W02
        BYTE                   98
        BYTE   W03
        BYTE                   100
        BYTE           N48     Fn3
        BYTE   W06
        BYTE           VOL     99
        BYTE   W04
        BYTE                   98
        BYTE   W05
        BYTE                   97
        BYTE   W01
        BYTE                   96
        BYTE   W02
        BYTE                   95
        BYTE   W01
        BYTE                   94
        BYTE   W03
        BYTE                   93
        BYTE   W02
        BYTE                   91
        BYTE   W03
        BYTE                   90
        BYTE   W01
        BYTE                   88
        BYTE   W02
        BYTE                   87
        BYTE   W01
        BYTE                   86
        BYTE   W02
        BYTE                   84
        BYTE   W01
        BYTE                   83
        BYTE   W02
        BYTE                   82
        BYTE   W01
        BYTE                   80
        BYTE   W02
        BYTE                   78
        BYTE   W01
        BYTE                   77
        BYTE   W02
        BYTE                   75
        BYTE   W01
        BYTE                   73
        BYTE   W02
        BYTE                   72
        BYTE   W01
        BYTE                   69
        BYTE   W02
// 040   ----------------------------------------
        BYTE                   67
        BYTE           N48     As3
        BYTE   W03
        BYTE           VOL     68
        BYTE   W06
        BYTE                   69
        BYTE   W06
        BYTE                   70
        BYTE   W01
        BYTE                   71
        BYTE   W02
        BYTE                   72
        BYTE   W03
        BYTE                   73
        BYTE   W01
        BYTE                   74
        BYTE   W02
        BYTE                   76
        BYTE   W03
        BYTE                   77
        BYTE   W01
        BYTE                   79
        BYTE   W02
        BYTE                   80
        BYTE   W01
        BYTE                   81
        BYTE   W02
        BYTE                   83
        BYTE   W01
        BYTE                   84
        BYTE   W02
        BYTE                   86
        BYTE   W01
        BYTE                   87
        BYTE   W02
        BYTE                   89
        BYTE   W01
        BYTE                   91
        BYTE   W02
        BYTE                   92
        BYTE   W01
        BYTE                   94
        BYTE   W02
        BYTE                   97
        BYTE   W01
        BYTE                   98
        BYTE   W02
        BYTE                   100
        BYTE           N48     Gs3
        BYTE   W06
        BYTE           VOL     99
        BYTE   W03
        BYTE                   98
        BYTE   W04
        BYTE                   97
        BYTE   W02
        BYTE                   96
        BYTE   W01
        BYTE                   95
        BYTE   W02
        BYTE                   94
        BYTE   W01
        BYTE                   93
        BYTE   W02
        BYTE                   92
        BYTE   W01
        BYTE                   91
        BYTE   W02
        BYTE                   90
        BYTE   W01
        BYTE                   88
        BYTE   W02
        BYTE                   87
        BYTE   W01
        BYTE                   86
        BYTE   W02
        BYTE                   84
        BYTE   W01
        BYTE                   83
        BYTE   W02
        BYTE                   81
        BYTE   W01
        BYTE                   79
        BYTE   W02
        BYTE                   77
        BYTE   W01
        BYTE                   76
        BYTE   W02
        BYTE                   73
        BYTE   W01
        BYTE                   72
        BYTE   W02
        BYTE                   69
        BYTE   W01
        BYTE                   67
        BYTE   W05
// 041   ----------------------------------------
        BYTE           N48     As3
        BYTE   W03
        BYTE           VOL     68
        BYTE   W06
        BYTE                   69
        BYTE   W04
        BYTE                   70
        BYTE   W02
        BYTE                   71
        BYTE   W01
        BYTE                   72
        BYTE   W03
        BYTE                   73
        BYTE   W02
        BYTE                   75
        BYTE   W01
        BYTE                   76
        BYTE   W02
        BYTE                   77
        BYTE   W01
        BYTE                   78
        BYTE   W02
        BYTE                   80
        BYTE   W01
        BYTE                   81
        BYTE   W02
        BYTE                   83
        BYTE   W01
        BYTE                   84
        BYTE   W02
        BYTE                   86
        BYTE   W01
        BYTE                   88
        BYTE   W02
        BYTE                   90
        BYTE   W01
        BYTE                   89
        BYTE   W06
        BYTE                   88
        BYTE   W03
        BYTE                   87
        BYTE   W02
        BYTE           N48     Gn3
        BYTE   W01
        BYTE           VOL     86
        BYTE   W02
        BYTE                   85
        BYTE   W01
        BYTE                   83
        BYTE   W03
        BYTE                   81
        BYTE   W02
        BYTE                   80
        BYTE   W01
        BYTE                   78
        BYTE   W02
        BYTE                   76
        BYTE   W01
        BYTE                   74
        BYTE   W02
        BYTE                   72
        BYTE   W01
        BYTE                   70
        BYTE   W02
        BYTE                   68
        BYTE   W01
        BYTE                   66
        BYTE   W02
        BYTE                   63
        BYTE   W01
        BYTE                   61
        BYTE   W02
        BYTE                   58
        BYTE   W01
        BYTE                   55
        BYTE   W02
        BYTE                   53
        BYTE   W01
        BYTE                   50
        BYTE   W02
        BYTE                   46
        BYTE   W01
        BYTE                   43
        BYTE   W02
        BYTE                   39
        BYTE   W01
        BYTE                   36
        BYTE   W02
        BYTE                   32
        BYTE   W01
        BYTE                   28
        BYTE   W02
        BYTE                   24
        BYTE   W01
        BYTE                   21
        BYTE   W02
        BYTE                   17
        BYTE   W01
        BYTE                   13
        BYTE   W02
        BYTE                   8
        BYTE   W01
        BYTE                   4
        BYTE   W02
// 042   ----------------------------------------
        BYTE                   100
        BYTE   GoTo
         POIN2  UpperSteamCave_8_LOOP
        BYTE   W12
        BYTE   FINE

//***************** Track 9 (Midi-Chn.11) ******************//

UpperSteamCave_9:
        BYTE   KEYSH   UpperSteamCave_key+0
// 000   ----------------------------------------
UpperSteamCave_9_LOOP:
        BYTE           VOICE   40
        BYTE           PAN     c_v+63
        BYTE           VOL     50
        BYTE   W96
// 001   ----------------------------------------
        BYTE   W96
// 002   ----------------------------------------
        BYTE   W96
// 003   ----------------------------------------
        BYTE   W96
// 004   ----------------------------------------
        BYTE   W96
// 005   ----------------------------------------
        BYTE   W96
// 006   ----------------------------------------
        BYTE   W96
// 007   ----------------------------------------
        BYTE   W96
// 008   ----------------------------------------
        BYTE   W54
        BYTE   W01
        BYTE                   27
        BYTE   W05
        BYTE           N48     Dn3   v092
        BYTE   W04
        BYTE           VOL     28
        BYTE   W08
        BYTE                   29
        BYTE   W03
        BYTE                   30
        BYTE   W03
        BYTE                   31
        BYTE   W03
        BYTE                   32
        BYTE   W01
        BYTE                   33
        BYTE   W03
        BYTE                   34
        BYTE   W02
        BYTE                   35
        BYTE   W03
        BYTE                   36
        BYTE   W01
        BYTE                   37
        BYTE   W02
        BYTE                   38
        BYTE   W01
        BYTE                   39
        BYTE   W02
// 009   ----------------------------------------
        BYTE                   40
        BYTE   W01
        BYTE                   41
        BYTE   W02
        BYTE                   42
        BYTE   W01
        BYTE                   43
        BYTE   W02
        BYTE                   44
        BYTE   W01
        BYTE                   45
        BYTE   W02
        BYTE                   46
        BYTE   W01
        BYTE                   47
        BYTE   W02
        BYTE           N72     Gn3
        BYTE   W01
        BYTE           VOL     50
        BYTE   W12
        BYTE                   49
        BYTE   W14
        BYTE                   48
        BYTE   W12
        BYTE                   47
        BYTE   W07
        BYTE                   46
        BYTE   W08
        BYTE                   45
        BYTE   W04
        BYTE                   44
        BYTE   W08
        BYTE                   43
        BYTE   W06
        BYTE                   42
        BYTE           N24     Fn3
        BYTE   W03
        BYTE           VOL     41
        BYTE   W06
        BYTE                   40
        BYTE   W03
// 010   ----------------------------------------
        BYTE                   39
        BYTE   W04
        BYTE                   38
        BYTE   W08
        BYTE           N48     En3
        BYTE   W07
        BYTE           VOL     39
        BYTE   W08
        BYTE                   40
        BYTE   W03
        BYTE                   41
        BYTE   W03
        BYTE                   42
        BYTE   W03
        BYTE                   43
        BYTE   W03
        BYTE                   44
        BYTE   W03
        BYTE                   45
        BYTE   W01
        BYTE                   46
        BYTE   W02
        BYTE                   47
        BYTE   W01
        BYTE                   48
        BYTE   W03
        BYTE                   50
        BYTE   W03
        BYTE                   49
        BYTE   W02
        BYTE                   47
        BYTE   W01
        BYTE                   44
        BYTE   W02
        BYTE                   41
        BYTE   W01
        BYTE                   37
        BYTE   W02
        BYTE                   32
        BYTE           N96     Cn3
        BYTE   W09
        BYTE           VOL     33
        BYTE   W09
        BYTE                   34
        BYTE   W04
        BYTE                   35
        BYTE   W05
        BYTE                   36
        BYTE   W01
        BYTE                   37
        BYTE   W05
        BYTE                   38
        BYTE   W01
        BYTE                   39
        BYTE   W02
// 011   ----------------------------------------
        BYTE   W01
        BYTE                   40
        BYTE   W03
        BYTE                   41
        BYTE   W02
        BYTE                   42
        BYTE   W01
        BYTE                   43
        BYTE   W03
        BYTE                   44
        BYTE   W03
        BYTE                   45
        BYTE   W02
        BYTE                   46
        BYTE   W01
        BYTE                   47
        BYTE   W02
        BYTE                   48
        BYTE   W01
        BYTE                   49
        BYTE   W14
        BYTE                   48
        BYTE   W06
        BYTE                   47
        BYTE   W03
        BYTE                   46
        BYTE   W04
        BYTE                   45
        BYTE   W02
        BYTE                   44
        BYTE   W03
        BYTE                   43
        BYTE   W01
        BYTE                   42
        BYTE   W02
        BYTE                   41
        BYTE   W01
        BYTE                   39
        BYTE   W02
        BYTE                   36
        BYTE   W01
        BYTE                   29
        BYTE   W02
        BYTE                   30
        BYTE           N36     Cn4
        BYTE   W06
        BYTE           VOL     31
        BYTE   W01
        BYTE                   32
        BYTE   W02
        BYTE                   33
        BYTE   W03
        BYTE                   35
        BYTE   W01
        BYTE                   36
        BYTE   W02
        BYTE                   37
        BYTE   W01
        BYTE                   39
        BYTE   W02
        BYTE                   40
        BYTE   W01
        BYTE                   42
        BYTE   W02
        BYTE                   44
        BYTE   W01
        BYTE                   46
        BYTE   W02
        BYTE                   49
        BYTE   W04
        BYTE                   50
        BYTE   W08
// 012   ----------------------------------------
        BYTE           N12     As3
        BYTE   W12
        BYTE           TIE     An3
        BYTE   W09
        BYTE           VOL     49
        BYTE   W10
        BYTE                   48
        BYTE   W09
        BYTE                   47
        BYTE   W05
        BYTE                   46
        BYTE   W06
        BYTE                   45
        BYTE   W03
        BYTE                   44
        BYTE   W06
        BYTE                   43
        BYTE   W04
        BYTE                   42
        BYTE   W03
        BYTE                   41
        BYTE   W03
        BYTE                   40
        BYTE   W03
        BYTE                   39
        BYTE   W03
        BYTE                   38
        BYTE   W03
        BYTE                   37
        BYTE   W03
        BYTE                   36
        BYTE   W02
        BYTE                   35
        BYTE   W03
        BYTE                   34
        BYTE   W01
        BYTE                   33
        BYTE   W05
        BYTE                   32
        BYTE   W01
        BYTE                   31
        BYTE   W02
// 013   ----------------------------------------
        BYTE                   30
        BYTE   W03
        BYTE                   29
        BYTE   W01
        BYTE                   28
        BYTE   W03
        BYTE                   27
        BYTE   W02
        BYTE                   26
        BYTE   W01
        BYTE                   25
        BYTE   W02
        BYTE                   24
        BYTE   W03
        BYTE                   23
        BYTE   W01
        BYTE                   22
        BYTE   W02
        BYTE                   21
        BYTE   W01
        BYTE                   20
        BYTE   W02
        BYTE                   19
        BYTE   W03
        BYTE                   20
        BYTE   W04
        BYTE                   21
        BYTE   W03
        BYTE                   22
        BYTE   W02
        BYTE                   23
        BYTE   W01
        BYTE                   24
        BYTE   W02
        BYTE           EOT
        BYTE           VOL     25
        BYTE           N24     Gn3
        BYTE   W01
        BYTE           VOL     26
        BYTE   W02
        BYTE                   27
        BYTE   W01
        BYTE                   28
        BYTE   W02
        BYTE                   30
        BYTE   W01
        BYTE                   31
        BYTE   W02
        BYTE                   33
        BYTE   W01
        BYTE                   35
        BYTE   W02
        BYTE                   37
        BYTE   W01
        BYTE                   39
        BYTE   W02
        BYTE                   41
        BYTE   W01
        BYTE                   43
        BYTE   W02
        BYTE                   45
        BYTE   W01
        BYTE                   48
        BYTE   W02
        BYTE                   50
        BYTE   W03
        BYTE           TIE     An3
        BYTE   W15
        BYTE           VOL     49
        BYTE   W15
        BYTE                   48
        BYTE   W06
// 014   ----------------------------------------
        BYTE   W07
        BYTE                   47
        BYTE   W06
        BYTE                   46
        BYTE   W09
        BYTE                   45
        BYTE   W06
        BYTE                   44
        BYTE   W08
        BYTE                   43
        BYTE   W06
        BYTE                   42
        BYTE   W04
        BYTE                   41
        BYTE   W05
        BYTE                   40
        BYTE   W04
        BYTE                   39
        BYTE   W05
        BYTE                   38
        BYTE   W04
        BYTE                   37
        BYTE   W05
        BYTE                   36
        BYTE   W03
        BYTE                   35
        BYTE   W03
        BYTE                   34
        BYTE   W03
        BYTE                   33
        BYTE   W04
        BYTE                   32
        BYTE   W03
        BYTE                   31
        BYTE   W05
        BYTE                   30
        BYTE   W03
        BYTE                   29
        BYTE   W03
// 015   ----------------------------------------
        BYTE                   28
        BYTE   W03
        BYTE                   27
        BYTE   W03
        BYTE                   26
        BYTE   W03
        BYTE                   25
        BYTE   W01
        BYTE                   24
        BYTE   W03
        BYTE                   23
        BYTE   W03
        BYTE                   22
        BYTE   W03
        BYTE                   21
        BYTE   W03
        BYTE                   20
        BYTE   W03
        BYTE                   19
        BYTE   W03
        BYTE                   18
        BYTE   W02
        BYTE                   17
        BYTE   W03
        BYTE                   16
        BYTE   W01
        BYTE                   15
        BYTE   W03
        BYTE                   14
        BYTE   W02
        BYTE                   13
        BYTE   W03
        BYTE                   12
        BYTE   W01
        BYTE                   11
        BYTE   W03
        BYTE                   10
        BYTE   W02
        BYTE                   9
        BYTE   W03
        BYTE                   8
        BYTE   W01
        BYTE                   7
        BYTE   W03
        BYTE                   6
        BYTE   W03
        BYTE                   5
        BYTE   W02
        BYTE           EOT
        BYTE           VOL     4
        BYTE   W01
        BYTE                   3
        BYTE   W02
        BYTE                   2
        BYTE   W03
        BYTE                   1
        BYTE   W01
        BYTE                   0
        BYTE   W28
        BYTE   W01
// 016   ----------------------------------------
        BYTE   W96
// 017   ----------------------------------------
        BYTE   W48
        BYTE   W01
        BYTE                   50
        BYTE   W44
        BYTE   W03
// 018   ----------------------------------------
        BYTE   W01
        BYTE                   32
        BYTE   W05
        BYTE                   28
        BYTE   W06
        BYTE                   29
        BYTE           N48     An4   v112
        BYTE   W03
        BYTE           VOL     30
        BYTE   W04
        BYTE                   31
        BYTE   W03
        BYTE                   32
        BYTE   W02
        BYTE                   33
        BYTE   W01
        BYTE                   34
        BYTE   W02
        BYTE                   35
        BYTE   W03
        BYTE                   37
        BYTE   W01
        BYTE                   38
        BYTE   W02
        BYTE                   39
        BYTE   W01
        BYTE                   40
        BYTE   W02
        BYTE                   41
        BYTE   W01
        BYTE                   43
        BYTE   W02
        BYTE                   44
        BYTE   W01
        BYTE                   45
        BYTE   W02
        BYTE                   47
        BYTE   W01
        BYTE                   50
        BYTE   W03
        BYTE                   49
        BYTE   W03
        BYTE                   48
        BYTE   W02
        BYTE                   47
        BYTE   W01
        BYTE                   46
        BYTE   W02
        BYTE                   44
        BYTE   W01
        BYTE                   43
        BYTE   W02
        BYTE                   37
        BYTE   W03
        BYTE           N90     En4
        BYTE   W03
        BYTE           VOL     38
        BYTE   W07
        BYTE                   39
        BYTE   W06
        BYTE                   40
        BYTE   W03
        BYTE                   41
        BYTE   W05
        BYTE                   42
        BYTE   W01
        BYTE                   43
        BYTE   W03
        BYTE                   44
        BYTE   W03
        BYTE                   45
        BYTE   W02
        BYTE                   46
        BYTE   W03
// 019   ----------------------------------------
        BYTE                   47
        BYTE   W01
        BYTE                   48
        BYTE   W02
        BYTE                   49
        BYTE   W01
        BYTE                   50
        BYTE   W06
        BYTE                   49
        BYTE   W06
        BYTE                   48
        BYTE   W03
        BYTE                   47
        BYTE   W03
        BYTE                   46
        BYTE   W03
        BYTE                   45
        BYTE   W02
        BYTE                   44
        BYTE   W03
        BYTE                   43
        BYTE   W01
        BYTE                   42
        BYTE   W02
        BYTE                   41
        BYTE   W01
        BYTE                   40
        BYTE   W02
        BYTE                   39
        BYTE   W01
        BYTE                   38
        BYTE   W02
        BYTE                   37
        BYTE   W01
        BYTE                   35
        BYTE   W02
        BYTE                   34
        BYTE   W01
        BYTE                   35
        BYTE   W06
        BYTE                   36
        BYTE   W05
        BYTE                   37
        BYTE           N06     Dn4
        BYTE   W03
        BYTE           VOL     38
        BYTE   W03
        BYTE                   39
        BYTE           N16     En4
        BYTE   W03
        BYTE           VOL     40
        BYTE   W01
        BYTE                   41
        BYTE   W02
        BYTE                   42
        BYTE   W01
        BYTE                   43
        BYTE   W02
        BYTE                   44
        BYTE   W03
        BYTE                   45
        BYTE   W01
        BYTE                   46
        BYTE   W02
        BYTE                   48
        BYTE   W01
        BYTE           N14     Fn4
        BYTE           VOL     49
        BYTE   W14
        BYTE           N06     En4
        BYTE   W04
        BYTE           VOL     48
        BYTE   W02
// 020   ----------------------------------------
        BYTE           N06     Dn4
        BYTE   W01
        BYTE           VOL     47
        BYTE   W02
        BYTE                   46
        BYTE   W01
        BYTE                   45
        BYTE   W02
        BYTE                   44
        BYTE           N06     Cn4
        BYTE   W01
        BYTE           VOL     42
        BYTE   W02
        BYTE                   39
        BYTE   W03
        BYTE           N48     Dn4
        BYTE   W06
        BYTE           VOL     40
        BYTE   W03
        BYTE                   41
        BYTE   W03
        BYTE                   42
        BYTE   W01
        BYTE                   43
        BYTE   W02
        BYTE                   44
        BYTE   W03
        BYTE                   46
        BYTE   W01
        BYTE                   47
        BYTE   W02
        BYTE                   48
        BYTE   W01
        BYTE                   49
        BYTE   W09
        BYTE                   48
        BYTE   W03
        BYTE                   47
        BYTE   W02
        BYTE                   46
        BYTE   W01
        BYTE                   45
        BYTE   W02
        BYTE                   44
        BYTE   W01
        BYTE                   43
        BYTE   W02
        BYTE                   42
        BYTE   W01
        BYTE                   41
        BYTE   W02
        BYTE                   39
        BYTE   W01
        BYTE                   38
        BYTE   W02
        BYTE                   34
        BYTE           TIE     Gn3
        BYTE   W04
        BYTE           VOL     35
        BYTE   W05
        BYTE                   36
        BYTE   W03
        BYTE                   37
        BYTE   W01
        BYTE                   38
        BYTE   W02
        BYTE                   39
        BYTE   W03
        BYTE                   40
        BYTE   W01
        BYTE                   41
        BYTE   W02
        BYTE                   42
        BYTE   W01
        BYTE                   43
        BYTE   W02
        BYTE                   44
        BYTE   W01
        BYTE                   46
        BYTE   W02
        BYTE                   47
        BYTE   W01
        BYTE                   49
        BYTE   W02
        BYTE                   50
        BYTE   W06
// 021   ----------------------------------------
        BYTE   W10
        BYTE                   49
        BYTE   W06
        BYTE                   48
        BYTE   W06
        BYTE                   47
        BYTE   W05
        BYTE                   46
        BYTE   W04
        BYTE                   45
        BYTE   W03
        BYTE                   44
        BYTE   W05
        BYTE                   43
        BYTE   W04
        BYTE                   42
        BYTE   W02
        BYTE                   41
        BYTE   W03
        BYTE                   40
        BYTE   W03
        BYTE                   39
        BYTE   W03
        BYTE                   38
        BYTE   W01
        BYTE                   37
        BYTE   W03
        BYTE                   36
        BYTE   W02
        BYTE                   35
        BYTE   W03
        BYTE                   34
        BYTE   W01
        BYTE                   33
        BYTE   W03
        BYTE                   32
        BYTE   W02
        BYTE                   31
        BYTE   W03
        BYTE                   30
        BYTE   W01
        BYTE                   29
        BYTE   W02
        BYTE                   28
        BYTE   W03
        BYTE                   26
        BYTE   W03
        BYTE                   25
        BYTE   W01
        BYTE                   24
        BYTE   W02
        BYTE                   23
        BYTE   W01
        BYTE                   22
        BYTE   W02
        BYTE                   21
        BYTE   W01
        BYTE                   20
        BYTE   W02
        BYTE                   19
        BYTE   W01
        BYTE                   18
        BYTE   W02
        BYTE                   17
        BYTE   W03
// 022   ----------------------------------------
        BYTE                   15
        BYTE   W01
        BYTE                   14
        BYTE   W02
        BYTE                   13
        BYTE   W01
        BYTE                   12
        BYTE   W02
        BYTE                   11
        BYTE   W01
        BYTE                   10
        BYTE   W02
        BYTE                   9
        BYTE   W01
        BYTE                   8
        BYTE   W02
        BYTE           EOT
        BYTE           VOL     7
        BYTE   W01
        BYTE                   6
        BYTE   W02
        BYTE                   4
        BYTE   W01
        BYTE                   3
        BYTE   W02
        BYTE                   2
        BYTE   W01
        BYTE                   1
        BYTE   W76
        BYTE   W01
// 023   ----------------------------------------
        BYTE   W96
// 024   ----------------------------------------
        BYTE   W96
// 025   ----------------------------------------
        BYTE   W12
        BYTE                   50
        BYTE   W84
// 026   ----------------------------------------
        BYTE   W28
        BYTE                   34
        BYTE   W03
        BYTE                   35
        BYTE   W03
        BYTE                   38
        BYTE   W02
        BYTE           N22     Cn4   v108
        BYTE   W03
        BYTE           VOL     39
        BYTE   W03
        BYTE                   40
        BYTE   W03
        BYTE                   41
        BYTE   W01
        BYTE                   42
        BYTE   W02
        BYTE                   43
        BYTE   W03
        BYTE                   44
        BYTE   W01
        BYTE                   45
        BYTE   W02
        BYTE                   46
        BYTE   W01
        BYTE                   48
        BYTE   W02
        BYTE                   49
        BYTE   W01
        BYTE           N02     Bn4
        BYTE           VOL     50
        BYTE   W02
        BYTE           N48     Cn5
        BYTE   W28
        BYTE           VOL     49
        BYTE   W06
        BYTE                   48
        BYTE   W02
// 027   ----------------------------------------
        BYTE   W03
        BYTE                   47
        BYTE   W01
        BYTE                   46
        BYTE   W02
        BYTE                   45
        BYTE   W01
        BYTE                   44
        BYTE   W02
        BYTE                   43
        BYTE   W01
        BYTE                   42
        BYTE   W02
        BYTE                   41
        BYTE           N24     Bn4
        BYTE   W04
        BYTE           VOL     42
        BYTE   W05
        BYTE                   43
        BYTE   W04
        BYTE                   44
        BYTE   W03
        BYTE                   45
        BYTE   W02
        BYTE                   46
        BYTE   W03
        BYTE                   47
        BYTE   W01
        BYTE                   48
        BYTE   W02
        BYTE                   37
        BYTE           N92     Bn3   v108   gtp1
        BYTE   W09
        BYTE           VOL     38
        BYTE   W04
        BYTE                   39
        BYTE   W06
        BYTE                   40
        BYTE   W03
        BYTE                   41
        BYTE   W03
        BYTE                   42
        BYTE   W02
        BYTE                   43
        BYTE   W03
        BYTE                   44
        BYTE   W03
        BYTE                   45
        BYTE   W01
        BYTE                   46
        BYTE   W02
        BYTE                   47
        BYTE   W01
        BYTE                   48
        BYTE   W03
        BYTE                   49
        BYTE   W05
        BYTE                   50
        BYTE   W04
        BYTE                   49
        BYTE   W06
        BYTE                   48
        BYTE   W03
        BYTE                   47
        BYTE   W02
// 028   ----------------------------------------
        BYTE   W01
        BYTE                   46
        BYTE   W03
        BYTE                   45
        BYTE   W02
        BYTE                   44
        BYTE   W03
        BYTE                   43
        BYTE   W01
        BYTE                   42
        BYTE   W02
        BYTE                   41
        BYTE   W01
        BYTE                   40
        BYTE   W02
        BYTE                   39
        BYTE   W01
        BYTE                   38
        BYTE   W02
        BYTE                   37
        BYTE   W01
        BYTE                   36
        BYTE   W02
        BYTE                   35
        BYTE   W01
        BYTE                   33
        BYTE   W02
        BYTE                   32
        BYTE   W01
        BYTE                   31
        BYTE   W02
        BYTE                   29
        BYTE   W01
        BYTE                   28
        BYTE   W02
        BYTE                   26
        BYTE   W01
        BYTE                   24
        BYTE   W02
        BYTE                   23
        BYTE   W01
        BYTE                   21
        BYTE   W02
        BYTE                   38
        BYTE           N22     Dn4
        BYTE   W01
        BYTE           VOL     39
        BYTE   W06
        BYTE                   40
        BYTE   W02
        BYTE                   41
        BYTE   W01
        BYTE                   42
        BYTE   W02
        BYTE                   43
        BYTE   W01
        BYTE                   44
        BYTE   W02
        BYTE                   45
        BYTE   W01
        BYTE                   47
        BYTE   W02
        BYTE                   48
        BYTE   W03
        BYTE                   50
        BYTE   W01
        BYTE           N02     Cs5
        BYTE   W02
        BYTE           N48     Dn5
        BYTE   W30
        BYTE   W01
        BYTE           VOL     49
        BYTE   W03
        BYTE                   48
        BYTE   W02
// 029   ----------------------------------------
        BYTE   W01
        BYTE                   47
        BYTE   W02
        BYTE                   46
        BYTE   W01
        BYTE                   45
        BYTE   W02
        BYTE                   44
        BYTE   W03
        BYTE                   43
        BYTE   W01
        BYTE                   41
        BYTE   W02
        BYTE                   40
        BYTE           N24     Cs5
        BYTE   W06
        BYTE           VOL     41
        BYTE   W04
        BYTE                   42
        BYTE   W02
        BYTE                   43
        BYTE   W03
        BYTE                   44
        BYTE   W01
        BYTE                   45
        BYTE   W02
        BYTE                   46
        BYTE   W01
        BYTE                   47
        BYTE   W02
        BYTE                   48
        BYTE   W01
        BYTE                   41
        BYTE   W02
        BYTE                   37
        BYTE           N72     Cs4
        BYTE   W09
        BYTE           VOL     38
        BYTE   W04
        BYTE                   39
        BYTE   W05
        BYTE                   40
        BYTE   W03
        BYTE                   41
        BYTE   W03
        BYTE                   42
        BYTE   W01
        BYTE                   43
        BYTE   W03
        BYTE                   44
        BYTE   W03
        BYTE                   45
        BYTE   W02
        BYTE                   46
        BYTE   W01
        BYTE                   47
        BYTE   W02
        BYTE                   48
        BYTE   W03
        BYTE                   50
        BYTE   W04
        BYTE                   49
        BYTE   W03
        BYTE                   48
        BYTE   W03
        BYTE                   47
        BYTE   W02
        BYTE                   46
        BYTE   W01
        BYTE                   45
        BYTE   W02
        BYTE                   44
        BYTE   W01
        BYTE                   43
        BYTE   W02
        BYTE                   41
        BYTE   W01
        BYTE                   39
        BYTE   W02
// 030   ----------------------------------------
        BYTE                   38
        BYTE   W01
        BYTE                   36
        BYTE   W02
        BYTE                   33
        BYTE   W01
        BYTE                   31
        BYTE   W02
        BYTE                   29
        BYTE   W01
        BYTE                   27
        BYTE   W02
        BYTE                   24
        BYTE   W01
        BYTE                   22
        BYTE   W02
        BYTE                   19
        BYTE   W01
        BYTE                   16
        BYTE   W02
        BYTE                   12
        BYTE   W18
        BYTE                   40
        BYTE   W03
        BYTE           N08     En4
        BYTE   W01
        BYTE           VOL     41
        BYTE   W05
        BYTE                   42
        BYTE   W01
        BYTE                   43
        BYTE   W01
        BYTE           N08     Fs4
        BYTE   W01
        BYTE           VOL     44
        BYTE   W01
        BYTE                   45
        BYTE   W02
        BYTE                   46
        BYTE   W01
        BYTE                   47
        BYTE   W02
        BYTE                   49
        BYTE   W01
        BYTE           N08     Gs4
        BYTE           VOL     50
        BYTE   W08
        BYTE           N12     An4
        BYTE   W12
        BYTE                   Bn4
        BYTE   W12
        BYTE                   Cs5
        BYTE   W12
// 031   ----------------------------------------
        BYTE                   Ds5
        BYTE   W01
        BYTE           VOL     49
        BYTE   W05
        BYTE                   48
        BYTE   W04
        BYTE                   42
        BYTE   W02
        BYTE                   38
        BYTE           N44     Fn5   v108   gtp1
        BYTE   W06
        BYTE           VOL     39
        BYTE   W04
        BYTE                   40
        BYTE   W02
        BYTE                   41
        BYTE   W01
        BYTE                   42
        BYTE   W02
        BYTE                   43
        BYTE   W01
        BYTE                   44
        BYTE   W02
        BYTE                   45
        BYTE   W01
        BYTE                   46
        BYTE   W02
        BYTE                   47
        BYTE   W01
        BYTE                   49
        BYTE   W14
        BYTE                   48
        BYTE   W06
        BYTE                   47
        BYTE   W01
        BYTE                   46
        BYTE   W02
        BYTE                   45
        BYTE           N03     Fs5
        BYTE   W03
        BYTE           VOL     39
        BYTE           N44     Fn5   v108   gtp1
        BYTE   W10
        BYTE           VOL     40
        BYTE   W03
        BYTE                   41
        BYTE   W03
        BYTE                   42
        BYTE   W02
        BYTE                   43
        BYTE   W01
        BYTE                   44
        BYTE   W03
        BYTE                   45
        BYTE   W02
        BYTE                   46
        BYTE   W01
        BYTE                   47
        BYTE   W02
        BYTE                   48
        BYTE   W01
        BYTE                   49
        BYTE   W02
        BYTE                   50
        BYTE   W04
        BYTE                   49
        BYTE   W02
// 032   ----------------------------------------
        BYTE   W03
        BYTE                   48
        BYTE   W04
        BYTE                   47
        BYTE   W02
        BYTE                   46
        BYTE           N03     Ds5
        BYTE   W01
        BYTE           VOL     45
        BYTE   W02
        BYTE           N44     Cs5   v108   gtp1
        BYTE   W06
        BYTE           VOL     46
        BYTE   W10
        BYTE                   47
        BYTE   W05
        BYTE                   48
        BYTE   W04
        BYTE                   49
        BYTE   W03
        BYTE                   50
        BYTE   W11
        BYTE                   49
        BYTE   W03
        BYTE                   48
        BYTE   W03
        BYTE           N03     Bn4
        BYTE   W01
        BYTE           VOL     47
        BYTE   W02
        BYTE           N44     As4   v108   gtp1
        BYTE   W01
        BYTE           VOL     46
        BYTE   W11
        BYTE                   47
        BYTE   W03
        BYTE                   48
        BYTE   W04
        BYTE                   49
        BYTE   W02
        BYTE                   50
        BYTE   W15
// 033   ----------------------------------------
        BYTE   W09
        BYTE           N03     Gs4
        BYTE   W01
        BYTE           VOL     49
        BYTE   W02
        BYTE           N72     Fs4   v108   gtp3
        BYTE   W06
        BYTE           VOL     48
        BYTE   W07
        BYTE                   47
        BYTE   W03
        BYTE                   46
        BYTE   W05
        BYTE                   45
        BYTE   W03
        BYTE                   44
        BYTE   W03
        BYTE                   43
        BYTE   W03
        BYTE                   42
        BYTE   W01
        BYTE                   41
        BYTE   W03
        BYTE                   40
        BYTE   W02
        BYTE                   39
        BYTE   W01
        BYTE                   38
        BYTE   W02
        BYTE                   37
        BYTE   W03
        BYTE                   35
        BYTE   W03
        BYTE                   33
        BYTE   W03
        BYTE                   31
        BYTE   W03
        BYTE                   30
        BYTE   W01
        BYTE                   28
        BYTE   W02
        BYTE                   27
        BYTE   W01
        BYTE                   26
        BYTE   W02
        BYTE                   25
        BYTE   W01
        BYTE                   23
        BYTE   W02
        BYTE                   22
        BYTE   W01
        BYTE                   21
        BYTE   W02
        BYTE                   20
        BYTE   W01
        BYTE                   18
        BYTE   W02
        BYTE                   17
        BYTE   W01
        BYTE                   15
        BYTE   W02
        BYTE                   14
        BYTE   W01
        BYTE                   12
        BYTE   W02
        BYTE                   11
        BYTE   W01
        BYTE                   9
        BYTE   W03
        BYTE                   37
        BYTE   W02
        BYTE           N06     En4
        BYTE   W04
        BYTE           VOL     38
        BYTE   W02
// 034   ----------------------------------------
        BYTE                   39
        BYTE           N06     Ds4
        BYTE   W03
        BYTE           VOL     40
        BYTE   W01
        BYTE                   41
        BYTE   W02
        BYTE                   42
        BYTE           N06     Dn4
        BYTE   W01
        BYTE           VOL     44
        BYTE   W02
        BYTE                   45
        BYTE   W01
        BYTE                   46
        BYTE   W02
        BYTE                   48
        BYTE           N48     Cs4   v112
        BYTE   W42
        BYTE   W01
        BYTE           VOL     49
        BYTE   W05
        BYTE           N48     Bn3
        BYTE   W06
        BYTE           VOL     48
        BYTE   W06
        BYTE                   47
        BYTE   W03
        BYTE                   46
        BYTE   W03
        BYTE                   45
        BYTE   W03
        BYTE                   44
        BYTE   W03
        BYTE                   43
        BYTE   W03
        BYTE                   42
        BYTE   W01
        BYTE                   41
        BYTE   W02
        BYTE                   40
        BYTE   W01
        BYTE                   39
        BYTE   W03
        BYTE                   38
        BYTE   W02
// 035   ----------------------------------------
        BYTE                   37
        BYTE   W01
        BYTE                   36
        BYTE   W02
        BYTE                   35
        BYTE   W01
        BYTE                   34
        BYTE   W02
        BYTE                   33
        BYTE   W01
        BYTE                   32
        BYTE   W02
        BYTE                   33
        BYTE   W03
        BYTE           N48     Cs4
        BYTE   W07
        BYTE           VOL     34
        BYTE   W05
        BYTE                   35
        BYTE   W06
        BYTE                   36
        BYTE   W03
        BYTE                   37
        BYTE   W03
        BYTE                   38
        BYTE   W03
        BYTE                   39
        BYTE   W03
        BYTE                   40
        BYTE   W01
        BYTE                   41
        BYTE   W03
        BYTE                   42
        BYTE   W02
        BYTE                   43
        BYTE   W03
        BYTE                   44
        BYTE   W01
        BYTE                   45
        BYTE   W02
        BYTE                   46
        BYTE   W03
        BYTE                   48
        BYTE   W03
        BYTE                   49
        BYTE           N48     An3
        BYTE   W10
        BYTE           VOL     48
        BYTE   W06
        BYTE                   47
        BYTE   W03
        BYTE                   46
        BYTE   W05
        BYTE                   45
        BYTE   W03
        BYTE                   44
        BYTE   W03
        BYTE                   43
        BYTE   W03
        BYTE                   42
        BYTE   W01
        BYTE                   41
        BYTE   W02
// 036   ----------------------------------------
        BYTE   W01
        BYTE                   40
        BYTE   W02
        BYTE                   39
        BYTE   W03
        BYTE                   38
        BYTE   W01
        BYTE                   37
        BYTE   W02
        BYTE                   36
        BYTE   W01
        BYTE                   35
        BYTE   W02
        BYTE                   32
        BYTE           N48     Cs4
        BYTE   W01
        BYTE           VOL     33
        BYTE   W12
        BYTE                   34
        BYTE   W03
        BYTE                   35
        BYTE   W05
        BYTE                   36
        BYTE   W03
        BYTE                   37
        BYTE   W03
        BYTE                   38
        BYTE   W01
        BYTE                   39
        BYTE   W03
        BYTE                   40
        BYTE   W02
        BYTE                   41
        BYTE   W01
        BYTE                   42
        BYTE   W02
        BYTE                   43
        BYTE   W03
        BYTE                   44
        BYTE   W01
        BYTE                   45
        BYTE   W02
        BYTE                   46
        BYTE   W01
        BYTE                   47
        BYTE   W02
        BYTE                   48
        BYTE   W01
        BYTE                   49
        BYTE   W02
        BYTE           N48     Bn3
        BYTE   W01
        BYTE           VOL     50
        BYTE   W09
        BYTE                   49
        BYTE   W05
        BYTE                   48
        BYTE   W03
        BYTE                   47
        BYTE   W03
        BYTE                   46
        BYTE   W03
        BYTE                   45
        BYTE   W01
        BYTE                   44
        BYTE   W03
        BYTE                   43
        BYTE   W03
        BYTE                   42
        BYTE   W02
        BYTE                   41
        BYTE   W01
        BYTE                   40
        BYTE   W02
// 037   ----------------------------------------
        BYTE                   39
        BYTE   W01
        BYTE                   38
        BYTE   W02
        BYTE                   37
        BYTE   W01
        BYTE                   36
        BYTE   W02
        BYTE                   35
        BYTE   W01
        BYTE                   33
        BYTE   W03
        BYTE                   35
        BYTE   W02
        BYTE           N48     Cs4
        BYTE   W10
        BYTE           VOL     36
        BYTE   W05
        BYTE                   37
        BYTE   W06
        BYTE                   38
        BYTE   W03
        BYTE                   39
        BYTE   W03
        BYTE                   40
        BYTE   W03
        BYTE                   41
        BYTE   W03
        BYTE                   42
        BYTE   W01
        BYTE                   43
        BYTE   W03
        BYTE                   44
        BYTE   W03
        BYTE                   45
        BYTE   W02
        BYTE                   46
        BYTE   W01
        BYTE                   47
        BYTE   W02
        BYTE                   48
        BYTE   W03
        BYTE                   50
        BYTE           N48     Gn3
        BYTE   W10
        BYTE           VOL     49
        BYTE   W06
        BYTE                   48
        BYTE   W06
        BYTE                   47
        BYTE   W03
        BYTE                   46
        BYTE   W05
        BYTE                   45
        BYTE   W01
        BYTE                   44
        BYTE   W05
// 038   ----------------------------------------
        BYTE                   43
        BYTE   W01
        BYTE                   42
        BYTE   W03
        BYTE                   41
        BYTE   W02
        BYTE                   40
        BYTE   W01
        BYTE                   39
        BYTE   W03
        BYTE                   35
        BYTE   W02
        BYTE           N48     As3
        BYTE   W04
        BYTE           VOL     36
        BYTE   W08
        BYTE                   37
        BYTE   W06
        BYTE                   38
        BYTE   W03
        BYTE                   39
        BYTE   W04
        BYTE                   40
        BYTE   W03
        BYTE                   41
        BYTE   W03
        BYTE                   42
        BYTE   W02
        BYTE                   43
        BYTE   W03
        BYTE                   44
        BYTE   W03
        BYTE                   45
        BYTE   W01
        BYTE                   46
        BYTE   W02
        BYTE                   47
        BYTE   W01
        BYTE                   48
        BYTE   W03
        BYTE                   50
        BYTE   W02
        BYTE           N48     Gs3
        BYTE   W12
        BYTE           VOL     49
        BYTE   W04
        BYTE                   48
        BYTE   W05
        BYTE                   47
        BYTE   W03
        BYTE                   46
        BYTE   W03
        BYTE                   45
        BYTE   W01
        BYTE                   44
        BYTE   W03
        BYTE                   43
        BYTE   W03
        BYTE                   42
        BYTE   W02
// 039   ----------------------------------------
        BYTE                   41
        BYTE   W03
        BYTE                   39
        BYTE   W03
        BYTE                   38
        BYTE   W01
        BYTE                   37
        BYTE   W02
        BYTE                   36
        BYTE   W01
        BYTE                   35
        BYTE   W02
        BYTE                   33
        BYTE           N48     As3
        BYTE   W10
        BYTE           VOL     34
        BYTE   W05
        BYTE                   35
        BYTE   W04
        BYTE                   36
        BYTE   W02
        BYTE                   37
        BYTE   W03
        BYTE                   38
        BYTE   W03
        BYTE                   39
        BYTE   W03
        BYTE                   40
        BYTE   W01
        BYTE                   41
        BYTE   W02
        BYTE                   42
        BYTE   W01
        BYTE                   43
        BYTE   W03
        BYTE                   44
        BYTE   W02
        BYTE                   45
        BYTE   W01
        BYTE                   46
        BYTE   W02
        BYTE                   47
        BYTE   W01
        BYTE                   48
        BYTE   W02
        BYTE                   49
        BYTE   W03
        BYTE                   50
        BYTE           N48     Fn3
        BYTE   W10
        BYTE           VOL     49
        BYTE   W05
        BYTE                   48
        BYTE   W04
        BYTE                   47
        BYTE   W03
        BYTE                   46
        BYTE   W03
        BYTE                   45
        BYTE   W03
        BYTE                   44
        BYTE   W03
        BYTE                   43
        BYTE   W02
        BYTE                   42
        BYTE   W03
// 040   ----------------------------------------
        BYTE                   41
        BYTE   W01
        BYTE                   40
        BYTE   W02
        BYTE                   39
        BYTE   W03
        BYTE                   37
        BYTE   W03
        BYTE                   36
        BYTE   W01
        BYTE                   35
        BYTE   W02
        BYTE                   33
        BYTE           N48     As3
        BYTE   W03
        BYTE           VOL     34
        BYTE   W09
        BYTE                   35
        BYTE   W06
        BYTE                   36
        BYTE   W03
        BYTE                   37
        BYTE   W03
        BYTE                   38
        BYTE   W03
        BYTE                   39
        BYTE   W03
        BYTE                   40
        BYTE   W01
        BYTE                   41
        BYTE   W03
        BYTE                   42
        BYTE   W02
        BYTE                   43
        BYTE   W01
        BYTE                   44
        BYTE   W03
        BYTE                   45
        BYTE   W02
        BYTE                   46
        BYTE   W01
        BYTE                   47
        BYTE   W02
        BYTE                   48
        BYTE   W01
        BYTE                   49
        BYTE   W02
        BYTE                   50
        BYTE           N48     Gs3
        BYTE   W09
        BYTE           VOL     49
        BYTE   W04
        BYTE                   48
        BYTE   W05
        BYTE                   47
        BYTE   W01
        BYTE                   46
        BYTE   W03
        BYTE                   45
        BYTE   W03
        BYTE                   44
        BYTE   W03
        BYTE                   43
        BYTE   W02
        BYTE                   42
        BYTE   W01
        BYTE                   41
        BYTE   W03
        BYTE                   39
        BYTE   W02
// 041   ----------------------------------------
        BYTE   W01
        BYTE                   38
        BYTE   W02
        BYTE                   37
        BYTE   W01
        BYTE                   36
        BYTE   W02
        BYTE                   35
        BYTE   W01
        BYTE                   33
        BYTE   W05
        BYTE           N48     As3
        BYTE   W03
        BYTE           VOL     34
        BYTE   W09
        BYTE                   35
        BYTE   W04
        BYTE                   36
        BYTE   W03
        BYTE                   37
        BYTE   W03
        BYTE                   38
        BYTE   W02
        BYTE                   39
        BYTE   W03
        BYTE                   40
        BYTE   W01
        BYTE                   41
        BYTE   W03
        BYTE                   42
        BYTE   W02
        BYTE                   43
        BYTE   W01
        BYTE                   44
        BYTE   W02
        BYTE                   45
        BYTE   W01
        BYTE                   44
        BYTE   W11
        BYTE                   43
        BYTE           N48     Gn3
        BYTE   W04
        BYTE           VOL     42
        BYTE   W02
        BYTE                   41
        BYTE   W03
        BYTE                   40
        BYTE   W01
        BYTE                   39
        BYTE   W02
        BYTE                   38
        BYTE   W01
        BYTE                   37
        BYTE   W02
        BYTE                   36
        BYTE   W01
        BYTE                   35
        BYTE   W02
        BYTE                   34
        BYTE   W01
        BYTE                   33
        BYTE   W02
        BYTE                   31
        BYTE   W01
        BYTE                   30
        BYTE   W02
        BYTE                   29
        BYTE   W01
        BYTE                   28
        BYTE   W02
        BYTE                   26
        BYTE   W01
        BYTE                   25
        BYTE   W02
        BYTE                   23
        BYTE   W01
        BYTE                   22
        BYTE   W02
        BYTE                   20
        BYTE   W01
        BYTE                   18
        BYTE   W02
// 042   ----------------------------------------
        BYTE                   50
        BYTE   GoTo
         POIN2  UpperSteamCave_9_LOOP
        BYTE   W12
        BYTE   FINE

//***************** Track 10 (Midi-Chn.12) *****************//

UpperSteamCave_10:
        BYTE   KEYSH   UpperSteamCave_key+0
// 000   ----------------------------------------
UpperSteamCave_10_LOOP:
        BYTE           VOICE   41
        BYTE           PAN     c_v+26
        BYTE           VOL     100
        BYTE   W96
// 001   ----------------------------------------
        BYTE   W96
// 002   ----------------------------------------
        BYTE   W96
// 003   ----------------------------------------
        BYTE   W96
// 004   ----------------------------------------
        BYTE   W96
// 005   ----------------------------------------
        BYTE   W96
// 006   ----------------------------------------
        BYTE   W96
// 007   ----------------------------------------
        BYTE   W96
// 008   ----------------------------------------
        BYTE   W96
// 009   ----------------------------------------
        BYTE   W96
// 010   ----------------------------------------
        BYTE   W96
// 011   ----------------------------------------
        BYTE   W96
// 012   ----------------------------------------
        BYTE   W96
// 013   ----------------------------------------
        BYTE   W96
// 014   ----------------------------------------
        BYTE   W96
// 015   ----------------------------------------
        BYTE   W96
// 016   ----------------------------------------
        BYTE   W96
// 017   ----------------------------------------
        BYTE   W80
        BYTE   W01
        BYTE                   80
        BYTE   W13
        BYTE                   81
        BYTE   W02
// 018   ----------------------------------------
        BYTE           N48     An3   v102
        BYTE   W03
        BYTE           VOL     82
        BYTE   W03
        BYTE                   83
        BYTE   W04
        BYTE                   84
        BYTE   W02
        BYTE                   85
        BYTE   W03
        BYTE                   86
        BYTE   W01
        BYTE                   87
        BYTE   W03
        BYTE                   88
        BYTE   W03
        BYTE                   89
        BYTE   W02
        BYTE                   90
        BYTE   W01
        BYTE                   91
        BYTE   W03
        BYTE                   92
        BYTE   W02
        BYTE                   94
        BYTE   W03
        BYTE                   95
        BYTE   W01
        BYTE                   96
        BYTE   W02
        BYTE                   98
        BYTE   W03
        BYTE                   100
        BYTE   W01
        BYTE                   99
        BYTE   W02
        BYTE                   98
        BYTE   W01
        BYTE                   95
        BYTE   W02
        BYTE                   91
        BYTE   W01
        BYTE                   84
        BYTE   W02
        BYTE                   76
        BYTE           N90     En3
        BYTE   W12
        BYTE           VOL     77
        BYTE   W03
        BYTE                   78
        BYTE   W03
        BYTE                   79
        BYTE   W01
        BYTE                   80
        BYTE   W05
        BYTE                   81
        BYTE   W01
        BYTE                   82
        BYTE   W02
        BYTE                   83
        BYTE   W01
        BYTE                   84
        BYTE   W02
        BYTE                   85
        BYTE   W01
        BYTE                   86
        BYTE   W02
        BYTE                   87
        BYTE   W01
        BYTE                   88
        BYTE   W02
        BYTE                   89
        BYTE   W01
        BYTE                   90
        BYTE   W02
        BYTE                   91
        BYTE   W01
        BYTE                   92
        BYTE   W02
        BYTE                   94
        BYTE   W01
        BYTE                   95
        BYTE   W02
        BYTE                   96
        BYTE   W01
        BYTE                   98
        BYTE   W02
// 019   ----------------------------------------
        BYTE   W12
        BYTE                   97
        BYTE   W01
        BYTE                   96
        BYTE   W03
        BYTE                   95
        BYTE   W02
        BYTE                   94
        BYTE   W03
        BYTE                   93
        BYTE   W01
        BYTE                   92
        BYTE   W02
        BYTE                   91
        BYTE   W01
        BYTE                   90
        BYTE   W02
        BYTE                   89
        BYTE   W01
        BYTE                   88
        BYTE   W02
        BYTE                   87
        BYTE   W01
        BYTE                   85
        BYTE   W02
        BYTE                   84
        BYTE   W01
        BYTE                   83
        BYTE   W02
        BYTE                   81
        BYTE   W01
        BYTE                   80
        BYTE   W02
        BYTE                   78
        BYTE   W01
        BYTE                   76
        BYTE   W02
        BYTE                   88
        BYTE           N06     Dn3
        BYTE   W06
        BYTE           N16     En3
        BYTE   W03
        BYTE           VOL     89
        BYTE   W04
        BYTE                   90
        BYTE   W03
        BYTE                   91
        BYTE   W05
        BYTE                   92
        BYTE   W01
        BYTE           N14     Fn3
        BYTE           VOL     93
        BYTE   W02
        BYTE                   94
        BYTE   W03
        BYTE                   95
        BYTE   W01
        BYTE                   96
        BYTE   W02
        BYTE                   97
        BYTE   W01
        BYTE                   98
        BYTE   W03
        BYTE                   100
        BYTE   W02
        BYTE           N06     En3
        BYTE   W06
        BYTE                   Dn3
        BYTE   W06
        BYTE                   Cn3
        BYTE   W06
// 020   ----------------------------------------
        BYTE           N24     Dn3
        BYTE   W18
        BYTE           VOL     99
        BYTE   W01
        BYTE                   98
        BYTE   W02
        BYTE                   94
        BYTE   W01
        BYTE                   88
        BYTE   W02
        BYTE                   75
        BYTE           TIE     Cn3
        BYTE   W01
        BYTE           VOL     76
        BYTE   W08
        BYTE                   77
        BYTE   W01
        BYTE                   78
        BYTE   W02
        BYTE                   79
        BYTE   W01
        BYTE                   80
        BYTE   W02
        BYTE                   81
        BYTE   W01
        BYTE                   82
        BYTE   W02
        BYTE                   83
        BYTE   W01
        BYTE                   85
        BYTE   W02
        BYTE                   87
        BYTE   W01
        BYTE                   88
        BYTE   W02
        BYTE                   90
        BYTE   W01
        BYTE                   91
        BYTE   W02
        BYTE                   94
        BYTE   W01
        BYTE                   96
        BYTE   W02
        BYTE                   98
        BYTE   W24
        BYTE   W03
        BYTE                   97
        BYTE   W03
        BYTE                   96
        BYTE   W03
        BYTE                   95
        BYTE   W01
        BYTE                   94
        BYTE   W05
        BYTE                   93
        BYTE   W01
        BYTE                   92
        BYTE   W02
// 021   ----------------------------------------
        BYTE                   91
        BYTE   W01
        BYTE                   90
        BYTE   W02
        BYTE                   89
        BYTE   W01
        BYTE                   88
        BYTE   W02
        BYTE                   87
        BYTE   W01
        BYTE                   86
        BYTE   W02
        BYTE                   85
        BYTE   W01
        BYTE                   83
        BYTE   W03
        BYTE                   81
        BYTE   W02
        BYTE                   80
        BYTE   W01
        BYTE                   79
        BYTE   W02
        BYTE                   77
        BYTE   W01
        BYTE                   76
        BYTE   W02
        BYTE                   74
        BYTE   W01
        BYTE                   72
        BYTE   W02
        BYTE                   73
        BYTE   W01
        BYTE                   75
        BYTE   W02
        BYTE                   77
        BYTE   W01
        BYTE                   81
        BYTE   W02
        BYTE                   82
        BYTE   W01
        BYTE                   86
        BYTE   W02
        BYTE                   87
        BYTE   W03
        BYTE           EOT
        BYTE           N12     Dn3
        BYTE   W04
        BYTE           VOL     88
        BYTE   W08
        BYTE                   89
        BYTE           N36     Cn3
        BYTE   W03
        BYTE           VOL     90
        BYTE   W01
        BYTE                   91
        BYTE   W05
        BYTE                   92
        BYTE   W03
        BYTE                   93
        BYTE   W01
        BYTE                   94
        BYTE   W03
        BYTE                   95
        BYTE   W02
        BYTE                   96
        BYTE   W01
        BYTE                   97
        BYTE   W02
        BYTE                   98
        BYTE   W01
        BYTE                   99
        BYTE   W02
        BYTE                   100
        BYTE   W01
        BYTE                   96
        BYTE   W02
        BYTE                   99
        BYTE   W04
        BYTE                   98
        BYTE   W05
        BYTE           N12     Gn2
        BYTE   W01
        BYTE           VOL     97
        BYTE   W02
        BYTE                   96
        BYTE   W01
        BYTE                   95
        BYTE   W02
        BYTE                   94
        BYTE   W03
        BYTE                   93
        BYTE   W03
// 022   ----------------------------------------
        BYTE                   74
        BYTE           TIE     An2
        BYTE   W01
        BYTE           VOL     73
        BYTE   W02
        BYTE                   74
        BYTE   W10
        BYTE                   75
        BYTE   W05
        BYTE                   76
        BYTE   W07
        BYTE                   77
        BYTE   W03
        BYTE                   78
        BYTE   W03
        BYTE                   79
        BYTE   W02
        BYTE                   80
        BYTE   W04
        BYTE                   81
        BYTE   W02
        BYTE                   82
        BYTE   W01
        BYTE                   83
        BYTE   W03
        BYTE                   84
        BYTE   W02
        BYTE                   85
        BYTE   W01
        BYTE                   86
        BYTE   W02
        BYTE                   87
        BYTE   W03
        BYTE                   88
        BYTE   W01
        BYTE                   89
        BYTE   W02
        BYTE                   90
        BYTE   W01
        BYTE                   91
        BYTE   W03
        BYTE                   98
        BYTE   W21
        BYTE                   97
        BYTE   W08
        BYTE                   96
        BYTE   W06
        BYTE                   95
        BYTE   W03
// 023   ----------------------------------------
        BYTE   W03
        BYTE                   94
        BYTE   W09
        BYTE                   93
        BYTE   W04
        BYTE                   92
        BYTE   W03
        BYTE                   91
        BYTE   W06
        BYTE                   90
        BYTE   W03
        BYTE                   89
        BYTE   W03
        BYTE                   88
        BYTE   W05
        BYTE                   87
        BYTE   W06
        BYTE                   86
        BYTE   W01
        BYTE                   85
        BYTE   W03
        BYTE                   84
        BYTE   W02
        BYTE                   83
        BYTE   W04
        BYTE                   82
        BYTE   W03
        BYTE                   81
        BYTE   W02
        BYTE                   80
        BYTE   W04
        BYTE                   79
        BYTE   W02
        BYTE                   78
        BYTE   W03
        BYTE                   77
        BYTE   W03
        BYTE                   76
        BYTE   W03
        BYTE                   75
        BYTE   W01
        BYTE                   74
        BYTE   W02
        BYTE                   73
        BYTE   W03
        BYTE                   72
        BYTE   W03
        BYTE                   71
        BYTE   W01
        BYTE                   70
        BYTE   W02
        BYTE                   69
        BYTE   W03
        BYTE                   68
        BYTE   W01
        BYTE                   67
        BYTE   W02
        BYTE                   66
        BYTE   W03
        BYTE                   65
        BYTE   W03
// 024   ----------------------------------------
        BYTE                   64
        BYTE   W01
        BYTE                   63
        BYTE   W02
        BYTE                   62
        BYTE   W01
        BYTE                   61
        BYTE   W03
        BYTE                   60
        BYTE   W02
        BYTE                   59
        BYTE   W01
        BYTE                   57
        BYTE   W03
        BYTE                   56
        BYTE   W02
        BYTE                   55
        BYTE   W01
        BYTE                   54
        BYTE   W03
        BYTE                   53
        BYTE   W02
        BYTE                   52
        BYTE   W01
        BYTE                   51
        BYTE   W02
        BYTE                   50
        BYTE   W01
        BYTE                   49
        BYTE   W02
        BYTE                   48
        BYTE   W01
        BYTE                   47
        BYTE   W02
        BYTE                   46
        BYTE   W03
        BYTE                   44
        BYTE   W01
        BYTE                   43
        BYTE   W03
        BYTE                   42
        BYTE   W02
        BYTE                   41
        BYTE   W01
        BYTE                   39
        BYTE   W03
        BYTE                   38
        BYTE   W02
        BYTE                   36
        BYTE   W01
        BYTE                   35
        BYTE   W03
        BYTE                   33
        BYTE   W02
        BYTE                   32
        BYTE   W01
        BYTE                   31
        BYTE   W02
        BYTE                   30
        BYTE   W01
        BYTE                   29
        BYTE   W02
        BYTE                   28
        BYTE   W01
        BYTE                   27
        BYTE   W02
        BYTE                   26
        BYTE   W01
        BYTE                   24
        BYTE   W03
        BYTE                   22
        BYTE   W02
        BYTE                   21
        BYTE   W01
        BYTE                   20
        BYTE   W02
        BYTE                   19
        BYTE   W01
        BYTE                   18
        BYTE   W02
        BYTE                   17
        BYTE   W01
        BYTE                   15
        BYTE   W02
        BYTE                   14
        BYTE   W01
        BYTE                   13
        BYTE   W02
        BYTE                   12
        BYTE   W01
        BYTE                   11
        BYTE   W02
        BYTE                   9
        BYTE   W01
        BYTE                   8
        BYTE   W02
        BYTE                   7
        BYTE   W01
        BYTE                   6
        BYTE   W02
        BYTE                   4
        BYTE   W01
        BYTE                   3
        BYTE   W02
        BYTE                   2
        BYTE   W01
        BYTE                   0
        BYTE   W05
// 025   ----------------------------------------
        BYTE           EOT
        BYTE   W96
// 026   ----------------------------------------
        BYTE   W84
        BYTE           VOL     100
        BYTE   W12
// 027   ----------------------------------------
        BYTE   W96
// 028   ----------------------------------------
        BYTE   W96
// 029   ----------------------------------------
        BYTE   W96
// 030   ----------------------------------------
        BYTE   W96
// 031   ----------------------------------------
        BYTE   W96
// 032   ----------------------------------------
        BYTE   W96
// 033   ----------------------------------------
        BYTE   W96
// 034   ----------------------------------------
        BYTE           N48     Ds3   v092
        BYTE   W03
        BYTE           VOL     69
        BYTE   W07
        BYTE                   70
        BYTE   W02
        BYTE                   71
        BYTE   W03
        BYTE                   72
        BYTE   W03
        BYTE                   73
        BYTE   W01
        BYTE                   74
        BYTE   W02
        BYTE                   75
        BYTE   W01
        BYTE                   76
        BYTE   W03
        BYTE                   77
        BYTE   W02
        BYTE                   79
        BYTE   W01
        BYTE                   80
        BYTE   W03
        BYTE                   82
        BYTE   W02
        BYTE                   83
        BYTE   W01
        BYTE                   84
        BYTE   W02
        BYTE                   86
        BYTE   W01
        BYTE                   87
        BYTE   W02
        BYTE                   89
        BYTE   W01
        BYTE                   91
        BYTE   W02
        BYTE                   92
        BYTE   W01
        BYTE                   94
        BYTE   W02
        BYTE                   95
        BYTE   W01
        BYTE                   97
        BYTE   W02
        BYTE                   100
        BYTE           N48     Cs3
        BYTE   W07
        BYTE           VOL     99
        BYTE   W03
        BYTE                   98
        BYTE   W05
        BYTE                   97
        BYTE   W01
        BYTE                   96
        BYTE   W02
        BYTE                   95
        BYTE   W01
        BYTE                   94
        BYTE   W03
        BYTE                   93
        BYTE   W02
        BYTE                   92
        BYTE   W01
        BYTE                   91
        BYTE   W02
        BYTE                   90
        BYTE   W01
        BYTE                   88
        BYTE   W02
        BYTE                   87
        BYTE   W01
        BYTE                   86
        BYTE   W02
        BYTE                   84
        BYTE   W01
        BYTE                   83
        BYTE   W02
        BYTE                   82
        BYTE   W01
        BYTE                   80
        BYTE   W02
        BYTE                   78
        BYTE   W01
        BYTE                   77
        BYTE   W02
        BYTE                   75
        BYTE   W01
        BYTE                   73
        BYTE   W02
        BYTE                   71
        BYTE   W01
        BYTE                   67
        BYTE   W02
// 035   ----------------------------------------
        BYTE           N48     Ds3
        BYTE   W04
        BYTE           VOL     68
        BYTE   W05
        BYTE                   69
        BYTE   W04
        BYTE                   70
        BYTE   W02
        BYTE                   71
        BYTE   W01
        BYTE                   72
        BYTE   W03
        BYTE                   73
        BYTE   W02
        BYTE                   74
        BYTE   W01
        BYTE                   75
        BYTE   W02
        BYTE                   76
        BYTE   W01
        BYTE                   77
        BYTE   W02
        BYTE                   78
        BYTE   W01
        BYTE                   80
        BYTE   W03
        BYTE                   82
        BYTE   W02
        BYTE                   83
        BYTE   W01
        BYTE                   85
        BYTE   W02
        BYTE                   87
        BYTE   W01
        BYTE                   88
        BYTE   W02
        BYTE                   89
        BYTE   W01
        BYTE                   91
        BYTE   W02
        BYTE                   93
        BYTE   W01
        BYTE                   94
        BYTE   W02
        BYTE                   99
        BYTE   W03
        BYTE           N48     Bn2
        BYTE   W06
        BYTE           VOL     98
        BYTE   W06
        BYTE                   97
        BYTE   W01
        BYTE                   96
        BYTE   W02
        BYTE                   95
        BYTE   W01
        BYTE                   94
        BYTE   W03
        BYTE                   93
        BYTE   W02
        BYTE                   92
        BYTE   W01
        BYTE                   91
        BYTE   W03
        BYTE                   89
        BYTE   W02
        BYTE                   88
        BYTE   W01
        BYTE                   87
        BYTE   W02
        BYTE                   86
        BYTE   W01
        BYTE                   85
        BYTE   W02
        BYTE                   83
        BYTE   W01
        BYTE                   82
        BYTE   W02
        BYTE                   80
        BYTE   W03
        BYTE                   78
        BYTE   W01
        BYTE                   76
        BYTE   W02
        BYTE                   75
        BYTE   W01
        BYTE                   73
        BYTE   W02
        BYTE                   71
        BYTE   W01
        BYTE                   69
        BYTE   W02
// 036   ----------------------------------------
        BYTE           N48     Ds3
        BYTE   W10
        BYTE           VOL     70
        BYTE   W03
        BYTE                   71
        BYTE   W02
        BYTE                   72
        BYTE   W04
        BYTE                   73
        BYTE   W02
        BYTE                   74
        BYTE   W01
        BYTE                   75
        BYTE   W02
        BYTE                   76
        BYTE   W01
        BYTE                   77
        BYTE   W03
        BYTE                   79
        BYTE   W02
        BYTE                   80
        BYTE   W01
        BYTE                   81
        BYTE   W02
        BYTE                   82
        BYTE   W01
        BYTE                   83
        BYTE   W02
        BYTE                   84
        BYTE   W01
        BYTE                   86
        BYTE   W02
        BYTE                   87
        BYTE   W01
        BYTE                   88
        BYTE   W02
        BYTE                   90
        BYTE   W01
        BYTE                   92
        BYTE   W02
        BYTE                   94
        BYTE   W01
        BYTE                   95
        BYTE   W02
        BYTE                   97
        BYTE           N48     Cs3
        BYTE   W01
        BYTE           VOL     99
        BYTE   W02
        BYTE                   100
        BYTE   W06
        BYTE                   99
        BYTE   W03
        BYTE                   98
        BYTE   W04
        BYTE                   97
        BYTE   W02
        BYTE                   96
        BYTE   W01
        BYTE                   95
        BYTE   W02
        BYTE                   94
        BYTE   W01
        BYTE                   93
        BYTE   W02
        BYTE                   92
        BYTE   W01
        BYTE                   91
        BYTE   W02
        BYTE                   90
        BYTE   W01
        BYTE                   88
        BYTE   W02
        BYTE                   87
        BYTE   W01
        BYTE                   86
        BYTE   W02
        BYTE                   84
        BYTE   W01
        BYTE                   83
        BYTE   W02
        BYTE                   80
        BYTE   W01
        BYTE                   79
        BYTE   W02
        BYTE                   77
        BYTE   W01
        BYTE                   76
        BYTE   W02
        BYTE                   73
        BYTE   W01
        BYTE                   71
        BYTE   W02
        BYTE                   66
        BYTE   W01
        BYTE                   67
        BYTE   W02
// 037   ----------------------------------------
        BYTE           N48     Ds3
        BYTE   W06
        BYTE           VOL     68
        BYTE   W04
        BYTE                   69
        BYTE   W05
        BYTE                   70
        BYTE   W01
        BYTE                   71
        BYTE   W02
        BYTE                   72
        BYTE   W04
        BYTE                   73
        BYTE   W02
        BYTE                   74
        BYTE   W01
        BYTE                   76
        BYTE   W03
        BYTE                   77
        BYTE   W02
        BYTE                   78
        BYTE   W01
        BYTE                   79
        BYTE   W02
        BYTE                   80
        BYTE   W01
        BYTE                   81
        BYTE   W02
        BYTE                   83
        BYTE   W03
        BYTE                   85
        BYTE   W01
        BYTE                   87
        BYTE   W02
        BYTE                   88
        BYTE   W01
        BYTE                   89
        BYTE   W02
        BYTE                   91
        BYTE   W01
        BYTE                   92
        BYTE   W02
        BYTE                   94
        BYTE           N48     An2
        BYTE   W01
        BYTE           VOL     100
        BYTE   W06
        BYTE                   99
        BYTE   W03
        BYTE                   98
        BYTE   W05
        BYTE                   97
        BYTE   W03
        BYTE                   96
        BYTE   W01
        BYTE                   95
        BYTE   W02
        BYTE                   94
        BYTE   W01
        BYTE                   93
        BYTE   W02
        BYTE                   92
        BYTE   W01
        BYTE                   91
        BYTE   W02
        BYTE                   90
        BYTE   W01
        BYTE                   88
        BYTE   W02
        BYTE                   87
        BYTE   W03
        BYTE                   85
        BYTE   W01
        BYTE                   83
        BYTE   W02
        BYTE                   82
        BYTE   W01
        BYTE                   80
        BYTE   W02
        BYTE                   78
        BYTE   W01
        BYTE                   77
        BYTE   W02
        BYTE                   75
        BYTE   W01
        BYTE                   73
        BYTE   W02
        BYTE                   71
        BYTE   W01
        BYTE                   69
        BYTE   W02
// 038   ----------------------------------------
        BYTE                   65
        BYTE           N48     Cn3
        BYTE   W06
        BYTE           VOL     66
        BYTE   W04
        BYTE                   67
        BYTE   W03
        BYTE                   68
        BYTE   W02
        BYTE                   69
        BYTE   W03
        BYTE                   70
        BYTE   W01
        BYTE                   71
        BYTE   W02
        BYTE                   72
        BYTE   W03
        BYTE                   73
        BYTE   W01
        BYTE                   75
        BYTE   W02
        BYTE                   76
        BYTE   W01
        BYTE                   77
        BYTE   W02
        BYTE                   78
        BYTE   W01
        BYTE                   80
        BYTE   W02
        BYTE                   81
        BYTE   W01
        BYTE                   83
        BYTE   W02
        BYTE                   84
        BYTE   W01
        BYTE                   86
        BYTE   W02
        BYTE                   87
        BYTE   W01
        BYTE                   89
        BYTE   W02
        BYTE                   91
        BYTE   W01
        BYTE                   92
        BYTE   W02
        BYTE                   94
        BYTE   W01
        BYTE                   97
        BYTE   W02
        BYTE                   98
        BYTE           N48     As2
        BYTE   W09
        BYTE           VOL     97
        BYTE   W03
        BYTE                   96
        BYTE   W01
        BYTE                   95
        BYTE   W02
        BYTE                   94
        BYTE   W03
        BYTE                   93
        BYTE   W01
        BYTE                   91
        BYTE   W03
        BYTE                   90
        BYTE   W02
        BYTE                   88
        BYTE   W01
        BYTE                   87
        BYTE   W02
        BYTE                   86
        BYTE   W01
        BYTE                   84
        BYTE   W02
        BYTE                   83
        BYTE   W01
        BYTE                   81
        BYTE   W02
        BYTE                   80
        BYTE   W01
        BYTE                   78
        BYTE   W02
        BYTE                   76
        BYTE   W01
        BYTE                   74
        BYTE   W02
        BYTE                   72
        BYTE   W01
        BYTE                   70
        BYTE   W02
        BYTE                   65
        BYTE   W06
// 039   ----------------------------------------
        BYTE           N48     Cn3
        BYTE   W03
        BYTE           VOL     66
        BYTE   W04
        BYTE                   67
        BYTE   W02
        BYTE                   68
        BYTE   W01
        BYTE                   69
        BYTE   W05
        BYTE                   71
        BYTE   W01
        BYTE                   72
        BYTE   W03
        BYTE                   73
        BYTE   W02
        BYTE                   74
        BYTE   W01
        BYTE                   76
        BYTE   W03
        BYTE                   77
        BYTE   W02
        BYTE                   79
        BYTE   W01
        BYTE                   80
        BYTE   W02
        BYTE                   82
        BYTE   W01
        BYTE                   83
        BYTE   W02
        BYTE                   84
        BYTE   W01
        BYTE                   86
        BYTE   W02
        BYTE                   88
        BYTE   W01
        BYTE                   89
        BYTE   W02
        BYTE                   91
        BYTE   W01
        BYTE                   93
        BYTE   W02
        BYTE                   94
        BYTE   W01
        BYTE                   97
        BYTE   W02
        BYTE                   98
        BYTE   W03
        BYTE                   99
        BYTE           N48     Gn2
        BYTE   W09
        BYTE           VOL     98
        BYTE   W06
        BYTE                   97
        BYTE   W01
        BYTE                   96
        BYTE   W02
        BYTE                   95
        BYTE   W01
        BYTE                   94
        BYTE   W05
        BYTE                   92
        BYTE   W01
        BYTE                   91
        BYTE   W03
        BYTE                   90
        BYTE   W02
        BYTE                   88
        BYTE   W01
        BYTE                   87
        BYTE   W03
        BYTE                   85
        BYTE   W02
        BYTE                   84
        BYTE   W01
        BYTE                   83
        BYTE   W02
        BYTE                   81
        BYTE   W01
        BYTE                   80
        BYTE   W02
        BYTE                   78
        BYTE   W01
        BYTE                   77
        BYTE   W02
        BYTE                   76
        BYTE   W01
        BYTE                   73
        BYTE   W02
// 040   ----------------------------------------
        BYTE                   72
        BYTE           N48     Cn3
        BYTE   W01
        BYTE           VOL     67
        BYTE   W06
        BYTE                   68
        BYTE   W03
        BYTE                   69
        BYTE   W05
        BYTE                   70
        BYTE   W01
        BYTE                   71
        BYTE   W02
        BYTE                   72
        BYTE   W03
        BYTE                   73
        BYTE   W01
        BYTE                   75
        BYTE   W02
        BYTE                   76
        BYTE   W01
        BYTE                   77
        BYTE   W02
        BYTE                   78
        BYTE   W01
        BYTE                   79
        BYTE   W02
        BYTE                   80
        BYTE   W01
        BYTE                   82
        BYTE   W02
        BYTE                   83
        BYTE   W01
        BYTE                   85
        BYTE   W02
        BYTE                   87
        BYTE   W01
        BYTE                   88
        BYTE   W02
        BYTE                   91
        BYTE   W01
        BYTE                   92
        BYTE   W02
        BYTE                   94
        BYTE   W01
        BYTE                   96
        BYTE   W02
        BYTE                   98
        BYTE   W03
        BYTE           N48     As2
        BYTE   W01
        BYTE           VOL     99
        BYTE   W08
        BYTE                   98
        BYTE   W06
        BYTE                   97
        BYTE   W01
        BYTE                   96
        BYTE   W02
        BYTE                   95
        BYTE   W01
        BYTE                   94
        BYTE   W03
        BYTE                   93
        BYTE   W02
        BYTE                   92
        BYTE   W01
        BYTE                   91
        BYTE   W02
        BYTE                   90
        BYTE   W01
        BYTE                   89
        BYTE   W02
        BYTE                   88
        BYTE   W01
        BYTE                   87
        BYTE   W02
        BYTE                   85
        BYTE   W01
        BYTE                   83
        BYTE   W03
        BYTE                   81
        BYTE   W02
        BYTE                   80
        BYTE   W01
        BYTE                   77
        BYTE   W02
        BYTE                   76
        BYTE   W01
        BYTE                   74
        BYTE   W02
        BYTE                   72
        BYTE   W01
        BYTE                   70
        BYTE   W02
// 041   ----------------------------------------
        BYTE                   65
        BYTE           N48     Cn3
        BYTE   W09
        BYTE           VOL     66
        BYTE   W03
        BYTE                   67
        BYTE   W01
        BYTE                   68
        BYTE   W03
        BYTE                   69
        BYTE   W02
        BYTE                   70
        BYTE   W01
        BYTE                   71
        BYTE   W02
        BYTE                   72
        BYTE   W01
        BYTE                   73
        BYTE   W02
        BYTE                   74
        BYTE   W01
        BYTE                   76
        BYTE   W02
        BYTE                   77
        BYTE   W01
        BYTE                   78
        BYTE   W02
        BYTE                   80
        BYTE   W01
        BYTE                   81
        BYTE   W02
        BYTE                   83
        BYTE   W01
        BYTE                   84
        BYTE   W02
        BYTE                   86
        BYTE   W01
        BYTE                   88
        BYTE   W02
        BYTE                   90
        BYTE   W01
        BYTE                   92
        BYTE   W02
        BYTE                   94
        BYTE   W01
        BYTE                   96
        BYTE   W02
        BYTE                   98
        BYTE   W01
        BYTE                   99
        BYTE   W02
        BYTE           N48     An2
        BYTE   W03
        BYTE           VOL     98
        BYTE   W04
        BYTE                   96
        BYTE   W02
        BYTE                   95
        BYTE   W01
        BYTE                   94
        BYTE   W02
        BYTE                   92
        BYTE   W01
        BYTE                   91
        BYTE   W02
        BYTE                   89
        BYTE   W01
        BYTE                   87
        BYTE   W02
        BYTE                   85
        BYTE   W01
        BYTE                   83
        BYTE   W02
        BYTE                   80
        BYTE   W01
        BYTE                   77
        BYTE   W02
        BYTE                   74
        BYTE   W01
        BYTE                   72
        BYTE   W02
        BYTE                   68
        BYTE   W01
        BYTE                   65
        BYTE   W02
        BYTE                   61
        BYTE   W01
        BYTE                   57
        BYTE   W02
        BYTE                   54
        BYTE   W01
        BYTE                   50
        BYTE   W02
        BYTE                   45
        BYTE   W01
        BYTE                   41
        BYTE   W02
        BYTE                   36
        BYTE   W01
        BYTE                   31
        BYTE   W02
        BYTE                   26
        BYTE   W01
        BYTE                   21
        BYTE   W02
        BYTE                   16
        BYTE   W01
        BYTE                   11
        BYTE   W02
// 042   ----------------------------------------
        BYTE                   100
        BYTE   GoTo
         POIN2  UpperSteamCave_10_LOOP
        BYTE   W12
        BYTE   FINE

//***************** Track 11 (Midi-Chn.13) *****************//

UpperSteamCave_11:
        BYTE   KEYSH   UpperSteamCave_key+0
// 000   ----------------------------------------
UpperSteamCave_11_LOOP:
        BYTE           VOICE   54
        BYTE           VOL     100
        BYTE   W96
// 001   ----------------------------------------
        BYTE   W96
// 002   ----------------------------------------
        BYTE   W96
// 003   ----------------------------------------
        BYTE   W78
        BYTE   W01
        BYTE                   65
        BYTE   W12
        BYTE                   66
        BYTE   W02
        BYTE                   39
        BYTE   W03
// 004   ----------------------------------------
        BYTE           TIE     Dn4   v100
        BYTE   W09
        BYTE           VOL     40
        BYTE   W04
        BYTE                   41
        BYTE   W03
        BYTE                   42
        BYTE   W03
        BYTE                   43
        BYTE   W05
        BYTE                   44
        BYTE   W03
        BYTE                   45
        BYTE   W03
        BYTE                   46
        BYTE   W03
        BYTE                   47
        BYTE   W01
        BYTE                   48
        BYTE   W02
        BYTE                   49
        BYTE   W01
        BYTE                   50
        BYTE   W03
        BYTE                   51
        BYTE   W02
        BYTE                   52
        BYTE   W01
        BYTE                   53
        BYTE   W02
        BYTE                   54
        BYTE   W01
        BYTE                   55
        BYTE   W02
        BYTE                   56
        BYTE   W01
        BYTE                   57
        BYTE   W03
        BYTE                   59
        BYTE   W02
        BYTE                   60
        BYTE   W01
        BYTE                   61
        BYTE   W02
        BYTE                   62
        BYTE   W01
        BYTE                   64
        BYTE   W02
        BYTE                   65
        BYTE   W01
        BYTE                   66
        BYTE   W02
        BYTE                   67
        BYTE   W01
        BYTE                   69
        BYTE   W02
        BYTE                   70
        BYTE   W01
        BYTE                   71
        BYTE   W02
        BYTE                   72
        BYTE   W01
        BYTE                   74
        BYTE   W02
        BYTE                   76
        BYTE   W01
        BYTE                   77
        BYTE   W02
        BYTE                   78
        BYTE   W01
        BYTE                   80
        BYTE   W02
        BYTE                   81
        BYTE   W01
        BYTE                   83
        BYTE   W02
        BYTE                   85
        BYTE   W01
        BYTE                   87
        BYTE   W02
        BYTE                   88
        BYTE   W01
        BYTE                   90
        BYTE   W02
        BYTE                   91
        BYTE   W01
        BYTE                   93
        BYTE   W02
        BYTE                   95
        BYTE   W01
        BYTE                   97
        BYTE   W02
        BYTE                   99
        BYTE   W01
        BYTE                   100
        BYTE   W02
// 005   ----------------------------------------
        BYTE   W10
        BYTE                   99
        BYTE   W06
        BYTE                   98
        BYTE   W09
        BYTE                   97
        BYTE   W03
        BYTE                   96
        BYTE   W03
        BYTE                   95
        BYTE   W03
        BYTE                   94
        BYTE   W05
        BYTE                   93
        BYTE   W03
        BYTE                   92
        BYTE   W01
        BYTE                   91
        BYTE   W05
        BYTE                   90
        BYTE   W01
        BYTE                   89
        BYTE   W02
        BYTE                   88
        BYTE   W03
        BYTE                   87
        BYTE   W03
        BYTE                   86
        BYTE   W01
        BYTE                   85
        BYTE   W02
        BYTE                   84
        BYTE   W01
        BYTE                   83
        BYTE   W03
        BYTE                   82
        BYTE   W02
        BYTE                   81
        BYTE   W01
        BYTE                   80
        BYTE   W03
        BYTE                   79
        BYTE   W02
        BYTE                   77
        BYTE   W03
        BYTE                   76
        BYTE   W01
        BYTE                   75
        BYTE   W02
        BYTE                   74
        BYTE   W01
        BYTE                   73
        BYTE   W02
        BYTE                   72
        BYTE   W01
        BYTE                   71
        BYTE   W02
        BYTE                   69
        BYTE   W03
        BYTE                   68
        BYTE   W01
        BYTE                   66
        BYTE   W02
        BYTE                   65
        BYTE   W03
        BYTE                   63
        BYTE   W01
        BYTE                   59
        BYTE   W02
// 006   ----------------------------------------
        BYTE           EOT
        BYTE           TIE     An3
        BYTE   W09
        BYTE           VOL     60
        BYTE   W07
        BYTE                   61
        BYTE   W08
        BYTE                   62
        BYTE   W04
        BYTE                   63
        BYTE   W03
        BYTE                   64
        BYTE   W03
        BYTE                   65
        BYTE   W05
        BYTE                   66
        BYTE   W03
        BYTE                   67
        BYTE   W03
        BYTE                   68
        BYTE   W01
        BYTE                   69
        BYTE   W03
        BYTE                   70
        BYTE   W03
        BYTE                   71
        BYTE   W02
        BYTE                   72
        BYTE   W03
        BYTE                   73
        BYTE   W01
        BYTE                   74
        BYTE   W02
        BYTE                   75
        BYTE   W01
        BYTE                   76
        BYTE   W03
        BYTE                   77
        BYTE   W02
        BYTE                   78
        BYTE   W01
        BYTE                   79
        BYTE   W02
        BYTE                   80
        BYTE   W03
        BYTE                   81
        BYTE   W01
        BYTE                   82
        BYTE   W02
        BYTE                   83
        BYTE   W01
        BYTE                   84
        BYTE   W02
        BYTE                   85
        BYTE   W01
        BYTE                   86
        BYTE   W02
        BYTE                   87
        BYTE   W01
        BYTE                   88
        BYTE   W02
        BYTE                   89
        BYTE   W01
        BYTE                   90
        BYTE   W02
        BYTE                   91
        BYTE   W01
        BYTE                   92
        BYTE   W02
        BYTE                   94
        BYTE   W03
        BYTE                   96
        BYTE   W01
        BYTE                   97
        BYTE   W02
// 007   ----------------------------------------
        BYTE                   98
        BYTE   W01
        BYTE                   99
        BYTE   W09
        BYTE                   98
        BYTE   W09
        BYTE                   97
        BYTE   W03
        BYTE                   96
        BYTE   W03
        BYTE                   95
        BYTE   W03
        BYTE                   94
        BYTE   W03
        BYTE                   93
        BYTE   W03
        BYTE                   92
        BYTE   W02
        BYTE                   91
        BYTE   W03
        BYTE                   90
        BYTE   W01
        BYTE                   89
        BYTE   W02
        BYTE                   88
        BYTE   W01
        BYTE                   87
        BYTE   W03
        BYTE                   86
        BYTE   W02
        BYTE                   85
        BYTE   W01
        BYTE                   83
        BYTE   W03
        BYTE                   82
        BYTE   W02
        BYTE                   80
        BYTE   W03
        BYTE                   78
        BYTE   W01
        BYTE                   77
        BYTE   W02
        BYTE                   76
        BYTE   W01
        BYTE                   75
        BYTE   W02
        BYTE                   73
        BYTE   W01
        BYTE                   72
        BYTE   W02
        BYTE                   71
        BYTE   W01
        BYTE                   69
        BYTE   W02
        BYTE                   68
        BYTE   W01
        BYTE                   66
        BYTE   W02
        BYTE                   65
        BYTE   W01
        BYTE                   64
        BYTE   W02
        BYTE                   62
        BYTE   W01
        BYTE                   61
        BYTE   W02
        BYTE                   59
        BYTE   W01
        BYTE                   57
        BYTE   W02
        BYTE                   56
        BYTE   W01
        BYTE                   54
        BYTE   W02
        BYTE                   53
        BYTE   W01
        BYTE                   50
        BYTE   W02
        BYTE                   49
        BYTE   W01
        BYTE                   47
        BYTE   W02
        BYTE                   45
        BYTE   W01
        BYTE                   43
        BYTE   W02
        BYTE                   42
        BYTE   W01
        BYTE                   39
        BYTE   W02
// 008   ----------------------------------------
        BYTE                   38
        BYTE   W01
        BYTE                   35
        BYTE   W02
        BYTE                   33
        BYTE   W01
        BYTE                   31
        BYTE   W02
        BYTE                   29
        BYTE   W01
        BYTE                   27
        BYTE   W02
        BYTE                   25
        BYTE   W01
        BYTE                   23
        BYTE   W02
        BYTE                   20
        BYTE   W01
        BYTE                   18
        BYTE   W02
        BYTE                   16
        BYTE   W01
        BYTE                   13
        BYTE   W02
        BYTE           EOT
        BYTE           VOL     11
        BYTE   W01
        BYTE                   9
        BYTE   W02
        BYTE                   6
        BYTE   W01
        BYTE                   4
        BYTE   W02
        BYTE                   2
        BYTE   W72
// 009   ----------------------------------------
        BYTE   W88
        BYTE                   33
        BYTE   W08
// 010   ----------------------------------------
        BYTE           TIE     Dn4
        BYTE   W01
        BYTE           VOL     34
        BYTE   W05
        BYTE                   35
        BYTE   W07
        BYTE                   36
        BYTE   W03
        BYTE                   37
        BYTE   W03
        BYTE                   38
        BYTE   W02
        BYTE                   39
        BYTE   W04
        BYTE                   40
        BYTE   W02
        BYTE                   41
        BYTE   W01
        BYTE                   42
        BYTE   W02
        BYTE                   43
        BYTE   W03
        BYTE                   44
        BYTE   W03
        BYTE                   45
        BYTE   W01
        BYTE                   46
        BYTE   W03
        BYTE                   48
        BYTE   W02
        BYTE                   49
        BYTE   W01
        BYTE                   50
        BYTE   W03
        BYTE                   52
        BYTE   W02
        BYTE                   53
        BYTE   W01
        BYTE                   54
        BYTE   W02
        BYTE                   55
        BYTE   W01
        BYTE                   56
        BYTE   W02
        BYTE                   57
        BYTE   W01
        BYTE                   58
        BYTE   W02
        BYTE                   59
        BYTE   W01
        BYTE                   61
        BYTE   W02
        BYTE                   62
        BYTE   W01
        BYTE                   63
        BYTE   W02
        BYTE                   65
        BYTE   W01
        BYTE                   66
        BYTE   W02
        BYTE                   67
        BYTE   W01
        BYTE                   69
        BYTE   W02
        BYTE                   70
        BYTE   W01
        BYTE                   72
        BYTE   W02
        BYTE                   73
        BYTE   W01
        BYTE                   75
        BYTE   W02
        BYTE                   76
        BYTE   W01
        BYTE                   77
        BYTE   W02
        BYTE                   79
        BYTE   W01
        BYTE                   81
        BYTE   W02
        BYTE                   83
        BYTE   W01
        BYTE                   84
        BYTE   W02
        BYTE                   86
        BYTE   W01
        BYTE                   87
        BYTE   W02
        BYTE                   89
        BYTE   W01
        BYTE                   91
        BYTE   W02
        BYTE                   93
        BYTE   W01
        BYTE                   94
        BYTE   W02
        BYTE                   97
        BYTE   W01
        BYTE                   98
        BYTE   W02
// 011   ----------------------------------------
        BYTE   W04
        BYTE                   99
        BYTE   W12
        BYTE                   98
        BYTE   W09
        BYTE                   97
        BYTE   W03
        BYTE                   96
        BYTE   W03
        BYTE                   95
        BYTE   W03
        BYTE                   94
        BYTE   W05
        BYTE                   93
        BYTE   W01
        BYTE                   92
        BYTE   W03
        BYTE                   91
        BYTE   W03
        BYTE                   90
        BYTE   W02
        BYTE                   89
        BYTE   W01
        BYTE                   88
        BYTE   W03
        BYTE                   87
        BYTE   W03
        BYTE                   86
        BYTE   W02
        BYTE                   85
        BYTE   W01
        BYTE                   83
        BYTE   W03
        BYTE                   82
        BYTE   W02
        BYTE                   81
        BYTE   W01
        BYTE                   80
        BYTE   W02
        BYTE                   79
        BYTE   W01
        BYTE                   78
        BYTE   W02
        BYTE                   77
        BYTE   W01
        BYTE                   76
        BYTE   W02
        BYTE                   75
        BYTE   W01
        BYTE                   74
        BYTE   W02
        BYTE                   72
        BYTE   W03
        BYTE                   70
        BYTE   W01
        BYTE                   69
        BYTE   W02
        BYTE                   68
        BYTE   W01
        BYTE                   67
        BYTE   W02
        BYTE                   65
        BYTE   W03
        BYTE                   63
        BYTE   W01
        BYTE                   61
        BYTE   W02
        BYTE                   60
        BYTE   W01
        BYTE                   59
        BYTE   W02
        BYTE                   57
        BYTE   W01
        BYTE                   56
        BYTE   W02
// 012   ----------------------------------------
        BYTE           EOT
        BYTE           VOL     54
        BYTE           TIE     An3
        BYTE   W03
        BYTE           VOL     49
        BYTE   W09
        BYTE                   50
        BYTE   W10
        BYTE                   51
        BYTE   W03
        BYTE                   52
        BYTE   W03
        BYTE                   53
        BYTE   W02
        BYTE                   54
        BYTE   W04
        BYTE                   55
        BYTE   W03
        BYTE                   56
        BYTE   W03
        BYTE                   57
        BYTE   W03
        BYTE                   58
        BYTE   W02
        BYTE                   59
        BYTE   W01
        BYTE                   60
        BYTE   W02
        BYTE                   61
        BYTE   W03
        BYTE                   62
        BYTE   W01
        BYTE                   63
        BYTE   W02
        BYTE                   64
        BYTE   W01
        BYTE                   65
        BYTE   W02
        BYTE                   66
        BYTE   W03
        BYTE                   68
        BYTE   W01
        BYTE                   69
        BYTE   W03
        BYTE                   71
        BYTE   W02
        BYTE                   72
        BYTE   W01
        BYTE                   73
        BYTE   W02
        BYTE                   74
        BYTE   W01
        BYTE                   76
        BYTE   W03
        BYTE                   77
        BYTE   W02
        BYTE                   79
        BYTE   W01
        BYTE                   80
        BYTE   W02
        BYTE                   81
        BYTE   W01
        BYTE                   83
        BYTE   W02
        BYTE                   84
        BYTE   W01
        BYTE                   86
        BYTE   W02
        BYTE                   87
        BYTE   W01
        BYTE                   88
        BYTE   W02
        BYTE                   90
        BYTE   W01
        BYTE                   91
        BYTE   W02
        BYTE                   93
        BYTE   W01
        BYTE                   94
        BYTE   W02
        BYTE                   96
        BYTE   W01
        BYTE                   98
        BYTE   W02
// 013   ----------------------------------------
        BYTE                   100
        BYTE   W10
        BYTE                   99
        BYTE   W05
        BYTE                   98
        BYTE   W06
        BYTE                   97
        BYTE   W01
        BYTE                   96
        BYTE   W03
        BYTE                   95
        BYTE   W02
        BYTE                   94
        BYTE   W04
        BYTE                   93
        BYTE   W02
        BYTE                   92
        BYTE   W01
        BYTE                   91
        BYTE   W03
        BYTE                   89
        BYTE   W02
        BYTE                   88
        BYTE   W03
        BYTE                   87
        BYTE   W01
        BYTE                   86
        BYTE   W02
        BYTE                   85
        BYTE   W01
        BYTE                   83
        BYTE   W03
        BYTE                   82
        BYTE   W02
        BYTE                   80
        BYTE   W03
        BYTE                   78
        BYTE   W01
        BYTE                   77
        BYTE   W02
        BYTE                   76
        BYTE   W01
        BYTE                   74
        BYTE   W02
        BYTE                   73
        BYTE   W01
        BYTE                   72
        BYTE   W02
        BYTE                   70
        BYTE   W01
        BYTE                   69
        BYTE   W02
        BYTE                   67
        BYTE   W01
        BYTE                   66
        BYTE   W02
        BYTE                   65
        BYTE   W01
        BYTE                   62
        BYTE   W02
        BYTE                   61
        BYTE   W01
        BYTE                   59
        BYTE   W02
        BYTE                   57
        BYTE   W01
        BYTE                   56
        BYTE   W02
        BYTE                   54
        BYTE   W01
        BYTE                   52
        BYTE   W02
        BYTE                   50
        BYTE   W01
        BYTE                   49
        BYTE   W02
        BYTE                   46
        BYTE   W01
        BYTE                   45
        BYTE   W02
        BYTE                   43
        BYTE   W01
        BYTE                   41
        BYTE   W02
        BYTE                   39
        BYTE   W01
        BYTE                   37
        BYTE   W02
        BYTE                   35
        BYTE   W01
        BYTE                   32
        BYTE   W02
// 014   ----------------------------------------
        BYTE                   31
        BYTE   W01
        BYTE                   28
        BYTE   W02
        BYTE                   26
        BYTE   W01
        BYTE                   24
        BYTE   W02
        BYTE                   21
        BYTE   W01
        BYTE                   19
        BYTE   W02
        BYTE                   17
        BYTE   W01
        BYTE                   14
        BYTE   W02
        BYTE                   12
        BYTE   W01
        BYTE                   9
        BYTE   W02
        BYTE                   7
        BYTE   W01
        BYTE           EOT
        BYTE           VOL     4
        BYTE   W02
        BYTE                   2
        BYTE   W78
// 015   ----------------------------------------
        BYTE   W96
// 016   ----------------------------------------
        BYTE   W96
// 017   ----------------------------------------
        BYTE   W96
// 018   ----------------------------------------
        BYTE   W96
// 019   ----------------------------------------
        BYTE   W96
// 020   ----------------------------------------
        BYTE   W96
// 021   ----------------------------------------
        BYTE   W96
// 022   ----------------------------------------
        BYTE   W96
// 023   ----------------------------------------
        BYTE   W96
// 024   ----------------------------------------
        BYTE   W96
// 025   ----------------------------------------
        BYTE   W96
// 026   ----------------------------------------
        BYTE   W96
// 027   ----------------------------------------
        BYTE   W96
// 028   ----------------------------------------
        BYTE   W96
// 029   ----------------------------------------
        BYTE   W96
// 030   ----------------------------------------
        BYTE   W96
// 031   ----------------------------------------
        BYTE   W96
// 032   ----------------------------------------
        BYTE   W96
// 033   ----------------------------------------
        BYTE   W96
// 034   ----------------------------------------
        BYTE   W96
// 035   ----------------------------------------
        BYTE   W96
// 036   ----------------------------------------
        BYTE   W96
// 037   ----------------------------------------
        BYTE   W96
// 038   ----------------------------------------
        BYTE   W96
// 039   ----------------------------------------
        BYTE   W96
// 040   ----------------------------------------
        BYTE   W96
// 041   ----------------------------------------
        BYTE   W96
// 042   ----------------------------------------
        BYTE                   100
        BYTE   GoTo
         POIN2  UpperSteamCave_11_LOOP
        BYTE   W12
        BYTE   FINE

//***************** Track 12 (Midi-Chn.14) *****************//

UpperSteamCave_12:
        BYTE   KEYSH   UpperSteamCave_key+0
// 000   ----------------------------------------
UpperSteamCave_12_LOOP:
        BYTE           VOICE   116
        BYTE           VOL     77
        BYTE   W96
// 001   ----------------------------------------
        BYTE   W96
// 002   ----------------------------------------
UpperSteamCave_12_2:
        BYTE           N03     Cs3   v124
        BYTE   W12
        BYTE                   En3   v045
        BYTE   W06
        BYTE                   Cs3   v103
        BYTE   W06
        BYTE                   En3   v118
        BYTE   W12
        BYTE                   Ds3   v067
        BYTE   W06
        BYTE                   Dn3   v087
        BYTE   W12
        BYTE                   Gn3   v053
        BYTE   W06
        BYTE                   Cs3   v083
        BYTE   W24
        BYTE                   En3   v112
        BYTE   W06
        BYTE                   Dn3   v072
        BYTE   W06
        BYTE   PEND
// 003   ----------------------------------------
UpperSteamCave_12_3:
        BYTE           N03     Cs3   v118
        BYTE   W06
        BYTE                   Ds3   v060
        BYTE   W06
        BYTE                   Ds3   v061
        BYTE   W06
        BYTE                   Cs3   v095
        BYTE   W06
        BYTE                   En3   v118
        BYTE   W06
        BYTE                   Dn3   v070
        BYTE   W06
        BYTE                   Ds3   v080
        BYTE   W06
        BYTE                   Cs3   v118
        BYTE   W12
        BYTE                   Gn3   v069
        BYTE   W06
        BYTE                   Dn3   v103
        BYTE   W06
        BYTE                   Fn3   v102
        BYTE   W03
        BYTE                   Gn3   v105
        BYTE   W03
        BYTE                   Dn3   v112
        BYTE           N03     En3   v074
        BYTE   W06
        BYTE                   Gn3   v103
        BYTE   W06
        BYTE                   Dn3   v085
        BYTE   W06
        BYTE                   En3   v065
        BYTE   W06
        BYTE   PEND
// 004   ----------------------------------------
UpperSteamCave_12_4:
        BYTE           N03     Cs3   v120
        BYTE   W12
        BYTE                   En3   v060
        BYTE   W06
        BYTE                   Cs3   v093
        BYTE   W06
        BYTE                   Gn3   v119
        BYTE   W06
        BYTE                   En3   v074
        BYTE   W06
        BYTE                   Dn3   v093
        BYTE   W06
        BYTE                   En3   v112
        BYTE   W12
        BYTE                   Dn3   v087
        BYTE   W06
        BYTE                   Gn3   v118
        BYTE   W24
        BYTE                   En3   v103
        BYTE   W06
        BYTE                   Gn3   v102
        BYTE   W06
        BYTE   PEND
// 005   ----------------------------------------
UpperSteamCave_12_5:
        BYTE           N03     Cs3   v117
        BYTE   W06
        BYTE                   Cs3   v068
        BYTE   W12
        BYTE                   Fn3   v118
        BYTE   W12
        BYTE                   Dn3   v074
        BYTE   W06
        BYTE                   Gn3   v110
        BYTE   W06
        BYTE                   En3   v116
        BYTE   W12
        BYTE                   Cs3   v102
        BYTE   W06
        BYTE                   Dn3   v114
        BYTE   W06
        BYTE                   Gs3   v117
        BYTE   W12
        BYTE                   Gn3   v085
        BYTE   W06
        BYTE                   Dn3   v117
        BYTE   W12
        BYTE   PEND
// 006   ----------------------------------------
        BYTE   PATT
         POIN2  UpperSteamCave_12_2
// 007   ----------------------------------------
        BYTE   PATT
         POIN2  UpperSteamCave_12_3
// 008   ----------------------------------------
        BYTE   PATT
         POIN2  UpperSteamCave_12_4
// 009   ----------------------------------------
        BYTE   PATT
         POIN2  UpperSteamCave_12_5
// 010   ----------------------------------------
        BYTE   PATT
         POIN2  UpperSteamCave_12_2
// 011   ----------------------------------------
        BYTE   PATT
         POIN2  UpperSteamCave_12_3
// 012   ----------------------------------------
        BYTE   PATT
         POIN2  UpperSteamCave_12_4
// 013   ----------------------------------------
        BYTE   PATT
         POIN2  UpperSteamCave_12_5
// 014   ----------------------------------------
        BYTE   PATT
         POIN2  UpperSteamCave_12_2
// 015   ----------------------------------------
        BYTE   PATT
         POIN2  UpperSteamCave_12_3
// 016   ----------------------------------------
        BYTE   PATT
         POIN2  UpperSteamCave_12_4
// 017   ----------------------------------------
        BYTE   PATT
         POIN2  UpperSteamCave_12_5
// 018   ----------------------------------------
        BYTE   PATT
         POIN2  UpperSteamCave_12_2
// 019   ----------------------------------------
        BYTE   PATT
         POIN2  UpperSteamCave_12_3
// 020   ----------------------------------------
        BYTE   PATT
         POIN2  UpperSteamCave_12_4
// 021   ----------------------------------------
        BYTE   PATT
         POIN2  UpperSteamCave_12_5
// 022   ----------------------------------------
        BYTE   PATT
         POIN2  UpperSteamCave_12_2
// 023   ----------------------------------------
        BYTE   PATT
         POIN2  UpperSteamCave_12_3
// 024   ----------------------------------------
        BYTE   PATT
         POIN2  UpperSteamCave_12_4
// 025   ----------------------------------------
        BYTE   PATT
         POIN2  UpperSteamCave_12_5
// 026   ----------------------------------------
        BYTE   PATT
         POIN2  UpperSteamCave_12_2
// 027   ----------------------------------------
        BYTE   PATT
         POIN2  UpperSteamCave_12_3
// 028   ----------------------------------------
        BYTE   PATT
         POIN2  UpperSteamCave_12_4
// 029   ----------------------------------------
        BYTE   PATT
         POIN2  UpperSteamCave_12_5
// 030   ----------------------------------------
        BYTE   PATT
         POIN2  UpperSteamCave_12_2
// 031   ----------------------------------------
        BYTE   PATT
         POIN2  UpperSteamCave_12_3
// 032   ----------------------------------------
        BYTE   PATT
         POIN2  UpperSteamCave_12_4
// 033   ----------------------------------------
        BYTE   PATT
         POIN2  UpperSteamCave_12_5
// 034   ----------------------------------------
        BYTE   PATT
         POIN2  UpperSteamCave_12_2
// 035   ----------------------------------------
        BYTE   PATT
         POIN2  UpperSteamCave_12_3
// 036   ----------------------------------------
        BYTE   PATT
         POIN2  UpperSteamCave_12_4
// 037   ----------------------------------------
        BYTE   PATT
         POIN2  UpperSteamCave_12_5
// 038   ----------------------------------------
        BYTE   PATT
         POIN2  UpperSteamCave_12_2
// 039   ----------------------------------------
        BYTE   PATT
         POIN2  UpperSteamCave_12_3
// 040   ----------------------------------------
        BYTE   PATT
         POIN2  UpperSteamCave_12_4
// 041   ----------------------------------------
        BYTE   PATT
         POIN2  UpperSteamCave_12_5
// 042   ----------------------------------------
        BYTE   GoTo
         POIN2  UpperSteamCave_12_LOOP
        BYTE   W12
        BYTE   FINE

//***************** Track 13 (Midi-Chn.15) *****************//

UpperSteamCave_13:
        BYTE   KEYSH   UpperSteamCave_key+0
// 000   ----------------------------------------
UpperSteamCave_13_LOOP:
        BYTE           VOL     80
        BYTE           VOICE   127
        BYTE   W96
// 001   ----------------------------------------
        BYTE   W96
// 002   ----------------------------------------
        BYTE   W96
// 003   ----------------------------------------
        BYTE   W96
// 004   ----------------------------------------
        BYTE   W96
// 005   ----------------------------------------
        BYTE   W96
// 006   ----------------------------------------
        BYTE   W96
// 007   ----------------------------------------
        BYTE   W96
// 008   ----------------------------------------
        BYTE   W96
// 009   ----------------------------------------
        BYTE   W96
// 010   ----------------------------------------
        BYTE   W96
// 011   ----------------------------------------
        BYTE   W96
// 012   ----------------------------------------
        BYTE   W96
// 013   ----------------------------------------
        BYTE   W60
        BYTE           N06     Cn1   v127
        BYTE   W06
        BYTE                   Cn1
        BYTE   W12
        BYTE                   Cn1
        BYTE   W06
        BYTE                   Cn1
        BYTE   W12
// 014   ----------------------------------------
        BYTE                   Cn1
        BYTE           N06     Fs5
        BYTE   W12
        BYTE                   Cn1
        BYTE   W12
        BYTE                   En1
        BYTE   W12
        BYTE                   Cn1
        BYTE   W24
        BYTE                   Cn1
        BYTE   W12
        BYTE                   En1
        BYTE   W24
// 015   ----------------------------------------
UpperSteamCave_13_15:
        BYTE           N06     Cn1   v127
        BYTE   W12
        BYTE                   Cn1
        BYTE   W12
        BYTE                   En1
        BYTE   W12
        BYTE                   Cn1
        BYTE   W24
        BYTE                   Cn1
        BYTE   W12
        BYTE                   En1
        BYTE   W24
        BYTE   PEND
// 016   ----------------------------------------
        BYTE   PATT
         POIN2  UpperSteamCave_13_15
// 017   ----------------------------------------
        BYTE           N06     Cn1   v127
        BYTE   W12
        BYTE                   Cn1
        BYTE   W12
        BYTE                   En1
        BYTE   W12
        BYTE                   Cn1
        BYTE   W24
        BYTE                   Cn1
        BYTE   W12
        BYTE                   En1
        BYTE   W06
        BYTE                   En1
        BYTE   W06
        BYTE                   Cn1
        BYTE   W12
// 018   ----------------------------------------
        BYTE   PATT
         POIN2  UpperSteamCave_13_15
// 019   ----------------------------------------
        BYTE   PATT
         POIN2  UpperSteamCave_13_15
// 020   ----------------------------------------
        BYTE   PATT
         POIN2  UpperSteamCave_13_15
// 021   ----------------------------------------
UpperSteamCave_13_21:
        BYTE           N06     Cn1   v127
        BYTE   W12
        BYTE                   Cn1
        BYTE   W12
        BYTE                   En1
        BYTE   W12
        BYTE                   Cn1
        BYTE   W24
        BYTE                   Cn1
        BYTE   W12
        BYTE                   En1
        BYTE   W12
        BYTE                   Cn1
        BYTE   W12
        BYTE   PEND
// 022   ----------------------------------------
        BYTE   PATT
         POIN2  UpperSteamCave_13_15
// 023   ----------------------------------------
        BYTE   PATT
         POIN2  UpperSteamCave_13_15
// 024   ----------------------------------------
        BYTE   PATT
         POIN2  UpperSteamCave_13_15
// 025   ----------------------------------------
UpperSteamCave_13_25:
        BYTE           N06     Cn1   v127
        BYTE   W12
        BYTE                   Cn1
        BYTE   W12
        BYTE                   En1
        BYTE   W12
        BYTE                   Cn1
        BYTE   W06
        BYTE                   En1
        BYTE   W12
        BYTE                   En1
        BYTE   W06
        BYTE                   Cn1
        BYTE   W06
        BYTE                   En1
        BYTE   W12
        BYTE                   Cn1
        BYTE   W06
        BYTE                   En1
        BYTE   W06
        BYTE                   En1
        BYTE   W06
        BYTE   PEND
// 026   ----------------------------------------
        BYTE                   Cn1
        BYTE           N06     Fs5
        BYTE   W24
        BYTE                   En1
        BYTE   W12
        BYTE                   Cn1
        BYTE   W24
        BYTE                   Cn1
        BYTE   W12
        BYTE                   En1
        BYTE   W24
// 027   ----------------------------------------
UpperSteamCave_13_27:
        BYTE           N06     Cn1   v127
        BYTE   W12
        BYTE                   Cn1
        BYTE   W12
        BYTE                   En1
        BYTE   W12
        BYTE                   Cn1
        BYTE   W36
        BYTE                   En1
        BYTE   W12
        BYTE                   Cn1
        BYTE   W12
        BYTE   PEND
// 028   ----------------------------------------
        BYTE   PATT
         POIN2  UpperSteamCave_13_15
// 029   ----------------------------------------
        BYTE   PATT
         POIN2  UpperSteamCave_13_21
// 030   ----------------------------------------
        BYTE   PATT
         POIN2  UpperSteamCave_13_27
// 031   ----------------------------------------
        BYTE   PATT
         POIN2  UpperSteamCave_13_15
// 032   ----------------------------------------
        BYTE   PATT
         POIN2  UpperSteamCave_13_15
// 033   ----------------------------------------
        BYTE   PATT
         POIN2  UpperSteamCave_13_25
// 034   ----------------------------------------
        BYTE           N06     Cn1   v127
        BYTE           N06     Fs5
        BYTE   W96
// 035   ----------------------------------------
        BYTE   W96
// 036   ----------------------------------------
        BYTE   W96
// 037   ----------------------------------------
        BYTE   W96
// 038   ----------------------------------------
        BYTE   W96
// 039   ----------------------------------------
        BYTE   W96
// 040   ----------------------------------------
        BYTE   W96
// 041   ----------------------------------------
        BYTE   W96
// 042   ----------------------------------------
        BYTE   GoTo
         POIN2  UpperSteamCave_13_LOOP
        BYTE   W12
        BYTE   FINE


//********************** End of Song ***********************//

        ALIGN 4
UpperSteamCave:
        BYTE   14                      // Num Tracks
        BYTE   0                       // Unknown
        BYTE   UpperSteamCave_pri      // Priority
        BYTE   UpperSteamCave_rev      // Reverb

        POIN2   UpperSteamCave_grp     

        POIN2   UpperSteamCave_0
        POIN2   UpperSteamCave_1
        POIN2   UpperSteamCave_2
        POIN2   UpperSteamCave_3
        POIN2   UpperSteamCave_4
        POIN2   UpperSteamCave_5
        POIN2   UpperSteamCave_6
        POIN2   UpperSteamCave_7
        POIN2   UpperSteamCave_8
        POIN2   UpperSteamCave_9
        POIN2   UpperSteamCave_10
        POIN2   UpperSteamCave_11
        POIN2   UpperSteamCave_12
        POIN2   UpperSteamCave_13

        
