//Event file generated from Sappy .s format.
        #include "MPlayDef.event"

        #define    WaterfallUT_grp  voicegroup000
        #define    WaterfallUT_pri  0
        #define    WaterfallUT_rev  0
        #define    WaterfallUT_key  0

        // .rodata
        // WaterfallUT
        ALIGN 4

//****************** Track 0 (Midi-Chn.0) ******************//

WaterfallUT_0:
        BYTE   KEYSH   WaterfallUT_key+0
// 000   ----------------------------------------
        BYTE   TEMPO   140/2
WaterfallUT_0_LOOP:
        BYTE           VOL     88
        BYTE           VOICE   100
        BYTE           BENDR   12
        BYTE           N12     En3   v100
        BYTE   W24
        BYTE                   Bn3
        BYTE   W24
        BYTE                   Fs4
        BYTE   W24
        BYTE                   Dn4
        BYTE   W24
// 001   ----------------------------------------
WaterfallUT_0_1:
        BYTE           N12     En4   v100
        BYTE   W24
        BYTE                   Bn3
        BYTE   W24
        BYTE                   Gn3
        BYTE   W24
        BYTE                   Bn3
        BYTE   W24
        BYTE   PEND
// 002   ----------------------------------------
WaterfallUT_0_2:
        BYTE           N12     En3   v100
        BYTE   W24
        BYTE                   Bn3
        BYTE   W24
        BYTE                   Fs4
        BYTE   W24
        BYTE                   Gn4
        BYTE   W24
        BYTE   PEND
// 003   ----------------------------------------
WaterfallUT_0_3:
        BYTE           N12     An4   v100
        BYTE   W24
        BYTE                   Gn4
        BYTE   W24
        BYTE                   Fs4
        BYTE   W24
        BYTE                   Dn4
        BYTE   W24
        BYTE   PEND
// 004   ----------------------------------------
WaterfallUT_0_4:
        BYTE           N12     En3   v100
        BYTE   W24
        BYTE                   Bn3
        BYTE   W24
        BYTE                   Fs4
        BYTE   W24
        BYTE                   Dn4
        BYTE   W24
        BYTE   PEND
// 005   ----------------------------------------
        BYTE   PATT
         POIN2  WaterfallUT_0_1
// 006   ----------------------------------------
        BYTE   PATT
         POIN2  WaterfallUT_0_2
// 007   ----------------------------------------
        BYTE   PATT
         POIN2  WaterfallUT_0_3
// 008   ----------------------------------------
WaterfallUT_0_8:
        BYTE           N12     En4   v100
        BYTE   W24
        BYTE                   Bn4
        BYTE   W24
        BYTE                   En5
        BYTE   W24
        BYTE                   Dn5
        BYTE   W24
        BYTE   PEND
// 009   ----------------------------------------
WaterfallUT_0_9:
        BYTE           N12     En5   v100
        BYTE   W24
        BYTE                   Bn4
        BYTE   W24
        BYTE                   An4
        BYTE   W24
        BYTE                   Bn4
        BYTE   W24
        BYTE   PEND
// 010   ----------------------------------------
WaterfallUT_0_10:
        BYTE           N12     Fs4   v100
        BYTE   W24
        BYTE                   Bn4
        BYTE   W24
        BYTE                   Cn5
        BYTE   W24
        BYTE                   Fs4
        BYTE   W24
        BYTE   PEND
// 011   ----------------------------------------
WaterfallUT_0_11:
        BYTE           N12     Gn4   v100
        BYTE   W24
        BYTE                   Bn4
        BYTE   W24
        BYTE                   En5
        BYTE   W24
        BYTE                   Dn5
        BYTE   W24
        BYTE   PEND
// 012   ----------------------------------------
        BYTE   PATT
         POIN2  WaterfallUT_0_9
// 013   ----------------------------------------
WaterfallUT_0_13:
        BYTE           N12     Fs4   v100
        BYTE   W24
        BYTE                   Bn4
        BYTE   W24
        BYTE                   Dn5
        BYTE   W24
        BYTE                   Fs5
        BYTE   W24
        BYTE   PEND
// 014   ----------------------------------------
WaterfallUT_0_14:
        BYTE           N12     An4   v100
        BYTE   W24
        BYTE                   Bn4
        BYTE   W24
        BYTE                   Dn5
        BYTE   W24
        BYTE                   Fs5
        BYTE   W24
        BYTE   PEND
// 015   ----------------------------------------
        BYTE   PATT
         POIN2  WaterfallUT_0_9
// 016   ----------------------------------------
WaterfallUT_0_16:
        BYTE           N12     Fs4   v100
        BYTE   W24
        BYTE                   Bn4
        BYTE   W24
        BYTE                   An4
        BYTE   W24
        BYTE                   Bn4
        BYTE   W24
        BYTE   PEND
// 017   ----------------------------------------
WaterfallUT_0_17:
        BYTE           N12     Fs4   v100
        BYTE   W24
        BYTE                   An4
        BYTE   W24
        BYTE                   Dn5
        BYTE   W24
        BYTE                   En5
        BYTE   W24
        BYTE   PEND
// 018   ----------------------------------------
WaterfallUT_0_18:
        BYTE           N12     Fs5   v100
        BYTE   W24
        BYTE                   Dn5
        BYTE   W24
        BYTE                   En5
        BYTE   W24
        BYTE                   Bn4
        BYTE   W24
        BYTE   PEND
// 019   ----------------------------------------
WaterfallUT_0_19:
        BYTE           N12     An4   v100
        BYTE   W24
        BYTE                   Dn5
        BYTE   W24
        BYTE                   Fs4
        BYTE   W24
        BYTE                   Gn4
        BYTE   W24
        BYTE   PEND
// 020   ----------------------------------------
        BYTE   PATT
         POIN2  WaterfallUT_0_8
// 021   ----------------------------------------
        BYTE   PATT
         POIN2  WaterfallUT_0_9
// 022   ----------------------------------------
        BYTE   PATT
         POIN2  WaterfallUT_0_10
// 023   ----------------------------------------
        BYTE   PATT
         POIN2  WaterfallUT_0_11
// 024   ----------------------------------------
        BYTE   PATT
         POIN2  WaterfallUT_0_9
// 025   ----------------------------------------
        BYTE   PATT
         POIN2  WaterfallUT_0_13
// 026   ----------------------------------------
        BYTE   PATT
         POIN2  WaterfallUT_0_14
// 027   ----------------------------------------
        BYTE   PATT
         POIN2  WaterfallUT_0_9
// 028   ----------------------------------------
        BYTE   PATT
         POIN2  WaterfallUT_0_16
// 029   ----------------------------------------
        BYTE   PATT
         POIN2  WaterfallUT_0_17
// 030   ----------------------------------------
        BYTE   PATT
         POIN2  WaterfallUT_0_18
// 031   ----------------------------------------
        BYTE   PATT
         POIN2  WaterfallUT_0_19
// 032   ----------------------------------------
WaterfallUT_0_32:
        BYTE           N12     En4   v100
        BYTE   W24
        BYTE                   Bn4
        BYTE   W24
        BYTE                   An4
        BYTE   W24
        BYTE                   Bn4
        BYTE   W24
        BYTE   PEND
// 033   ----------------------------------------
WaterfallUT_0_33:
        BYTE           N12     Gn4   v100
        BYTE   W24
        BYTE                   Bn4
        BYTE   W24
        BYTE                   En4
        BYTE   W24
        BYTE                   Bn4
        BYTE   W24
        BYTE   PEND
// 034   ----------------------------------------
WaterfallUT_0_34:
        BYTE           N12     An4   v100
        BYTE   W24
        BYTE                   Bn4
        BYTE   W24
        BYTE                   Dn5
        BYTE   W24
        BYTE                   Bn4
        BYTE   W24
        BYTE   PEND
// 035   ----------------------------------------
        BYTE   PATT
         POIN2  WaterfallUT_0_16
// 036   ----------------------------------------
        BYTE   PATT
         POIN2  WaterfallUT_0_33
// 037   ----------------------------------------
        BYTE   PATT
         POIN2  WaterfallUT_0_34
// 038   ----------------------------------------
        BYTE   PATT
         POIN2  WaterfallUT_0_32
// 039   ----------------------------------------
        BYTE   PATT
         POIN2  WaterfallUT_0_33
// 040   ----------------------------------------
        BYTE   PATT
         POIN2  WaterfallUT_0_34
// 041   ----------------------------------------
        BYTE   PATT
         POIN2  WaterfallUT_0_16
// 042   ----------------------------------------
        BYTE   PATT
         POIN2  WaterfallUT_0_33
// 043   ----------------------------------------
        BYTE   PATT
         POIN2  WaterfallUT_0_34
// 044   ----------------------------------------
        BYTE   PATT
         POIN2  WaterfallUT_0_32
// 045   ----------------------------------------
        BYTE   PATT
         POIN2  WaterfallUT_0_33
// 046   ----------------------------------------
        BYTE   PATT
         POIN2  WaterfallUT_0_34
// 047   ----------------------------------------
        BYTE   PATT
         POIN2  WaterfallUT_0_16
// 048   ----------------------------------------
        BYTE   PATT
         POIN2  WaterfallUT_0_33
// 049   ----------------------------------------
        BYTE   PATT
         POIN2  WaterfallUT_0_34
// 050   ----------------------------------------
        BYTE   PATT
         POIN2  WaterfallUT_0_32
// 051   ----------------------------------------
        BYTE   PATT
         POIN2  WaterfallUT_0_33
// 052   ----------------------------------------
        BYTE   PATT
         POIN2  WaterfallUT_0_34
// 053   ----------------------------------------
        BYTE   PATT
         POIN2  WaterfallUT_0_16
// 054   ----------------------------------------
        BYTE   PATT
         POIN2  WaterfallUT_0_33
// 055   ----------------------------------------
        BYTE           N12     En4   v100
        BYTE   W96
// 056   ----------------------------------------
        BYTE   W96
// 057   ----------------------------------------
        BYTE   W96
// 058   ----------------------------------------
        BYTE                   Cn4
        BYTE   W24
        BYTE                   Dn4
        BYTE   W24
        BYTE                   En4
        BYTE   W48
// 059   ----------------------------------------
        BYTE                   Dn4
        BYTE   W48
        BYTE                   Cn4
        BYTE   W48
// 060   ----------------------------------------
        BYTE   PATT
         POIN2  WaterfallUT_0_4
// 061   ----------------------------------------
        BYTE   PATT
         POIN2  WaterfallUT_0_1
// 062   ----------------------------------------
        BYTE   PATT
         POIN2  WaterfallUT_0_2
// 063   ----------------------------------------
        BYTE   PATT
         POIN2  WaterfallUT_0_3
// 064   ----------------------------------------
        BYTE   GoTo
         POIN2  WaterfallUT_0_LOOP
        BYTE   FINE

//****************** Track 1 (Midi-Chn.1) ******************//

WaterfallUT_1:
        BYTE   KEYSH   WaterfallUT_key+0
// 000   ----------------------------------------
WaterfallUT_1_LOOP:
        BYTE           VOL     101
        BYTE           VOICE   11
        BYTE           BENDR   12
        BYTE           N09     En4   v100
        BYTE   W24
        BYTE                   Bn4
        BYTE   W24
        BYTE                   Fs5
        BYTE   W24
        BYTE                   Dn5
        BYTE   W24
// 001   ----------------------------------------
WaterfallUT_1_1:
        BYTE           N09     En5   v100
        BYTE   W24
        BYTE                   Bn4
        BYTE   W24
        BYTE                   Gn4
        BYTE   W24
        BYTE                   Bn4
        BYTE   W24
        BYTE   PEND
// 002   ----------------------------------------
WaterfallUT_1_2:
        BYTE           N09     En4   v100
        BYTE   W24
        BYTE                   Bn4
        BYTE   W24
        BYTE                   Fs5
        BYTE   W24
        BYTE                   Gn5
        BYTE   W24
        BYTE   PEND
// 003   ----------------------------------------
WaterfallUT_1_3:
        BYTE           N09     An5   v100
        BYTE   W24
        BYTE                   Gn5
        BYTE   W24
        BYTE                   Fs5
        BYTE   W24
        BYTE                   Dn5
        BYTE   W24
        BYTE   PEND
// 004   ----------------------------------------
WaterfallUT_1_4:
        BYTE           N09     En4   v100
        BYTE   W24
        BYTE                   Bn4
        BYTE   W24
        BYTE                   Fs5
        BYTE   W24
        BYTE                   Dn5
        BYTE   W24
        BYTE   PEND
// 005   ----------------------------------------
        BYTE   PATT
         POIN2  WaterfallUT_1_1
// 006   ----------------------------------------
        BYTE   PATT
         POIN2  WaterfallUT_1_2
// 007   ----------------------------------------
        BYTE   PATT
         POIN2  WaterfallUT_1_3
// 008   ----------------------------------------
WaterfallUT_1_8:
        BYTE           N09     En5   v100
        BYTE   W24
        BYTE                   Bn5
        BYTE   W24
        BYTE                   En6
        BYTE   W24
        BYTE                   Dn6
        BYTE   W24
        BYTE   PEND
// 009   ----------------------------------------
WaterfallUT_1_9:
        BYTE           N09     En6   v100
        BYTE   W24
        BYTE                   Bn5
        BYTE   W24
        BYTE                   An5
        BYTE   W24
        BYTE                   Bn5
        BYTE   W24
        BYTE   PEND
// 010   ----------------------------------------
WaterfallUT_1_10:
        BYTE           N09     Fs5   v100
        BYTE   W24
        BYTE                   Bn5
        BYTE   W24
        BYTE                   Cn6
        BYTE   W24
        BYTE                   Fs5
        BYTE   W24
        BYTE   PEND
// 011   ----------------------------------------
WaterfallUT_1_11:
        BYTE           N09     Gn5   v100
        BYTE   W24
        BYTE                   Bn5
        BYTE   W24
        BYTE                   En6
        BYTE   W24
        BYTE                   Dn6
        BYTE   W24
        BYTE   PEND
// 012   ----------------------------------------
        BYTE   PATT
         POIN2  WaterfallUT_1_9
// 013   ----------------------------------------
WaterfallUT_1_13:
        BYTE           N09     Fs5   v100
        BYTE   W24
        BYTE                   Bn5
        BYTE   W24
        BYTE                   Dn6
        BYTE   W24
        BYTE                   Fs6
        BYTE   W24
        BYTE   PEND
// 014   ----------------------------------------
WaterfallUT_1_14:
        BYTE           N09     An5   v100
        BYTE   W24
        BYTE                   Bn5
        BYTE   W24
        BYTE                   Dn6
        BYTE   W24
        BYTE                   Fs6
        BYTE   W24
        BYTE   PEND
// 015   ----------------------------------------
        BYTE   PATT
         POIN2  WaterfallUT_1_9
// 016   ----------------------------------------
WaterfallUT_1_16:
        BYTE           N09     Fs5   v100
        BYTE   W24
        BYTE                   Bn5
        BYTE   W24
        BYTE                   An5
        BYTE   W24
        BYTE                   Bn5
        BYTE   W24
        BYTE   PEND
// 017   ----------------------------------------
WaterfallUT_1_17:
        BYTE           N09     Fs5   v100
        BYTE   W24
        BYTE                   An5
        BYTE   W24
        BYTE                   Dn6
        BYTE   W24
        BYTE                   En6
        BYTE   W24
        BYTE   PEND
// 018   ----------------------------------------
WaterfallUT_1_18:
        BYTE           N09     Fs6   v100
        BYTE   W24
        BYTE                   Dn6
        BYTE   W24
        BYTE                   En6
        BYTE   W24
        BYTE                   Bn5
        BYTE   W24
        BYTE   PEND
// 019   ----------------------------------------
WaterfallUT_1_19:
        BYTE           N09     An5   v100
        BYTE   W24
        BYTE                   Dn6
        BYTE   W24
        BYTE                   Fs5
        BYTE   W24
        BYTE                   Gn5
        BYTE   W24
        BYTE   PEND
// 020   ----------------------------------------
        BYTE   PATT
         POIN2  WaterfallUT_1_8
// 021   ----------------------------------------
        BYTE   PATT
         POIN2  WaterfallUT_1_9
// 022   ----------------------------------------
        BYTE   PATT
         POIN2  WaterfallUT_1_10
// 023   ----------------------------------------
        BYTE   PATT
         POIN2  WaterfallUT_1_11
// 024   ----------------------------------------
        BYTE   PATT
         POIN2  WaterfallUT_1_9
// 025   ----------------------------------------
        BYTE   PATT
         POIN2  WaterfallUT_1_13
// 026   ----------------------------------------
        BYTE   PATT
         POIN2  WaterfallUT_1_14
// 027   ----------------------------------------
        BYTE   PATT
         POIN2  WaterfallUT_1_9
// 028   ----------------------------------------
        BYTE   PATT
         POIN2  WaterfallUT_1_16
// 029   ----------------------------------------
        BYTE   PATT
         POIN2  WaterfallUT_1_17
// 030   ----------------------------------------
        BYTE   PATT
         POIN2  WaterfallUT_1_18
// 031   ----------------------------------------
        BYTE   PATT
         POIN2  WaterfallUT_1_19
// 032   ----------------------------------------
WaterfallUT_1_32:
        BYTE           N09     En5   v100
        BYTE   W24
        BYTE                   Bn5
        BYTE   W24
        BYTE                   An5
        BYTE   W24
        BYTE                   Bn5
        BYTE   W24
        BYTE   PEND
// 033   ----------------------------------------
WaterfallUT_1_33:
        BYTE           N09     Gn5   v100
        BYTE   W24
        BYTE                   Bn5
        BYTE   W24
        BYTE                   En5
        BYTE   W24
        BYTE                   Bn5
        BYTE   W24
        BYTE   PEND
// 034   ----------------------------------------
WaterfallUT_1_34:
        BYTE           N09     An5   v100
        BYTE   W24
        BYTE                   Bn5
        BYTE   W24
        BYTE                   Dn6
        BYTE   W24
        BYTE                   Bn5
        BYTE   W24
        BYTE   PEND
// 035   ----------------------------------------
        BYTE   PATT
         POIN2  WaterfallUT_1_16
// 036   ----------------------------------------
        BYTE   PATT
         POIN2  WaterfallUT_1_33
// 037   ----------------------------------------
        BYTE   PATT
         POIN2  WaterfallUT_1_34
// 038   ----------------------------------------
        BYTE   PATT
         POIN2  WaterfallUT_1_32
// 039   ----------------------------------------
        BYTE   PATT
         POIN2  WaterfallUT_1_33
// 040   ----------------------------------------
        BYTE   PATT
         POIN2  WaterfallUT_1_34
// 041   ----------------------------------------
        BYTE   PATT
         POIN2  WaterfallUT_1_16
// 042   ----------------------------------------
        BYTE   PATT
         POIN2  WaterfallUT_1_33
// 043   ----------------------------------------
        BYTE   PATT
         POIN2  WaterfallUT_1_34
// 044   ----------------------------------------
        BYTE   PATT
         POIN2  WaterfallUT_1_32
// 045   ----------------------------------------
        BYTE   PATT
         POIN2  WaterfallUT_1_33
// 046   ----------------------------------------
        BYTE   PATT
         POIN2  WaterfallUT_1_34
// 047   ----------------------------------------
        BYTE   PATT
         POIN2  WaterfallUT_1_16
// 048   ----------------------------------------
        BYTE   PATT
         POIN2  WaterfallUT_1_33
// 049   ----------------------------------------
        BYTE   PATT
         POIN2  WaterfallUT_1_34
// 050   ----------------------------------------
        BYTE   PATT
         POIN2  WaterfallUT_1_32
// 051   ----------------------------------------
        BYTE   PATT
         POIN2  WaterfallUT_1_33
// 052   ----------------------------------------
        BYTE   PATT
         POIN2  WaterfallUT_1_34
// 053   ----------------------------------------
        BYTE   PATT
         POIN2  WaterfallUT_1_16
// 054   ----------------------------------------
        BYTE   PATT
         POIN2  WaterfallUT_1_33
// 055   ----------------------------------------
        BYTE           N09     En5   v100
        BYTE   W96
// 056   ----------------------------------------
        BYTE   W96
// 057   ----------------------------------------
        BYTE   W96
// 058   ----------------------------------------
        BYTE                   Cn5
        BYTE   W24
        BYTE                   Dn5
        BYTE   W24
        BYTE                   En5
        BYTE   W48
// 059   ----------------------------------------
        BYTE                   Dn5
        BYTE   W48
        BYTE                   Cn5
        BYTE   W48
// 060   ----------------------------------------
        BYTE   PATT
         POIN2  WaterfallUT_1_4
// 061   ----------------------------------------
        BYTE   PATT
         POIN2  WaterfallUT_1_1
// 062   ----------------------------------------
        BYTE   PATT
         POIN2  WaterfallUT_1_2
// 063   ----------------------------------------
        BYTE   PATT
         POIN2  WaterfallUT_1_3
// 064   ----------------------------------------
        BYTE   GoTo
         POIN2  WaterfallUT_1_LOOP
        BYTE   FINE

//****************** Track 2 (Midi-Chn.4) ******************//

WaterfallUT_2:
        BYTE   KEYSH   WaterfallUT_key+0
// 000   ----------------------------------------
WaterfallUT_2_LOOP:
        BYTE           VOL     91
        BYTE           VOICE   48
        BYTE           BENDR   12
        BYTE   W96
// 001   ----------------------------------------
        BYTE   W96
// 002   ----------------------------------------
        BYTE   W96
// 003   ----------------------------------------
        BYTE   W96
// 004   ----------------------------------------
        BYTE   W96
// 005   ----------------------------------------
        BYTE   W96
// 006   ----------------------------------------
        BYTE   W96
// 007   ----------------------------------------
        BYTE   W96
// 008   ----------------------------------------
        BYTE   W96
// 009   ----------------------------------------
        BYTE   W96
// 010   ----------------------------------------
        BYTE   W96
// 011   ----------------------------------------
        BYTE   W96
// 012   ----------------------------------------
        BYTE   W96
// 013   ----------------------------------------
        BYTE   W96
// 014   ----------------------------------------
        BYTE   W96
// 015   ----------------------------------------
        BYTE   W96
// 016   ----------------------------------------
        BYTE   W96
// 017   ----------------------------------------
        BYTE   W96
// 018   ----------------------------------------
        BYTE   W96
// 019   ----------------------------------------
        BYTE   W96
// 020   ----------------------------------------
        BYTE   W96
// 021   ----------------------------------------
        BYTE   W96
// 022   ----------------------------------------
        BYTE   W96
// 023   ----------------------------------------
        BYTE   W96
// 024   ----------------------------------------
        BYTE   W96
// 025   ----------------------------------------
        BYTE   W96
// 026   ----------------------------------------
        BYTE   W96
// 027   ----------------------------------------
        BYTE   W96
// 028   ----------------------------------------
        BYTE   W96
// 029   ----------------------------------------
        BYTE   W96
// 030   ----------------------------------------
        BYTE   W96
// 031   ----------------------------------------
WaterfallUT_2_31:
        BYTE   W24
        BYTE           N24     Fs3   v100
        BYTE   W24
        BYTE                   Gn3
        BYTE   W24
        BYTE                   Fs3
        BYTE   W24
        BYTE   PEND
// 032   ----------------------------------------
WaterfallUT_2_32:
        BYTE           N12     An3   v100
        BYTE   W48
        BYTE           N48
        BYTE   W48
        BYTE   PEND
// 033   ----------------------------------------
WaterfallUT_2_33:
        BYTE   W24
        BYTE           N24     An3   v100
        BYTE   W24
        BYTE           N12     Fs3
        BYTE   W48
        BYTE   PEND
// 034   ----------------------------------------
WaterfallUT_2_34:
        BYTE           N24     Fs3   v100
        BYTE   W24
        BYTE                   Gn3
        BYTE   W24
        BYTE                   Fs3
        BYTE   W24
        BYTE                   Gn3
        BYTE   W24
        BYTE   PEND
// 035   ----------------------------------------
WaterfallUT_2_35:
        BYTE           TIE     Fs3   v100
        BYTE   W72
        BYTE           BEND    c_v+1
        BYTE   W01
        BYTE                   c_v+3
        BYTE   W01
        BYTE                   c_v+4
        BYTE   W01
        BYTE                   c_v+5
        BYTE   W01
        BYTE                   c_v+6
        BYTE   W01
        BYTE                   c_v+8
        BYTE   W01
        BYTE                   c_v+9
        BYTE   W01
        BYTE                   c_v+10
        BYTE   W01
        BYTE                   c_v+12
        BYTE   W01
        BYTE                   c_v+13
        BYTE   W01
        BYTE                   c_v+14
        BYTE   W01
        BYTE                   c_v+16
        BYTE   W13
        BYTE   PEND
// 036   ----------------------------------------
WaterfallUT_2_36:
        BYTE   W48
        BYTE           EOT     Fs3
        BYTE           BEND    c_v+0
        BYTE           N72     En3   v100
        BYTE   W48
        BYTE   PEND
// 037   ----------------------------------------
        BYTE   PATT
         POIN2  WaterfallUT_2_31
// 038   ----------------------------------------
        BYTE   PATT
         POIN2  WaterfallUT_2_32
// 039   ----------------------------------------
        BYTE   PATT
         POIN2  WaterfallUT_2_33
// 040   ----------------------------------------
        BYTE   PATT
         POIN2  WaterfallUT_2_34
// 041   ----------------------------------------
        BYTE           TIE     Fs3   v100
        BYTE   W72
        BYTE           BEND    c_v+1
        BYTE   W01
        BYTE                   c_v+3
        BYTE   W01
        BYTE                   c_v+4
        BYTE   W01
        BYTE                   c_v+5
        BYTE   W01
        BYTE                   c_v+7
        BYTE   W01
        BYTE                   c_v+8
        BYTE   W01
        BYTE                   c_v+9
        BYTE   W01
        BYTE                   c_v+10
        BYTE   W01
        BYTE                   c_v+12
        BYTE   W01
        BYTE                   c_v+13
        BYTE   W01
        BYTE                   c_v+14
        BYTE   W01
        BYTE                   c_v+16
        BYTE   W13
// 042   ----------------------------------------
        BYTE   PATT
         POIN2  WaterfallUT_2_36
// 043   ----------------------------------------
        BYTE   PATT
         POIN2  WaterfallUT_2_31
// 044   ----------------------------------------
        BYTE   PATT
         POIN2  WaterfallUT_2_32
// 045   ----------------------------------------
        BYTE   PATT
         POIN2  WaterfallUT_2_33
// 046   ----------------------------------------
        BYTE   PATT
         POIN2  WaterfallUT_2_34
// 047   ----------------------------------------
        BYTE           TIE     Fs3   v100
        BYTE   W72
        BYTE           BEND    c_v+1
        BYTE   W01
        BYTE                   c_v+3
        BYTE   W01
        BYTE                   c_v+4
        BYTE   W01
        BYTE                   c_v+5
        BYTE   W01
        BYTE                   c_v+6
        BYTE   W01
        BYTE                   c_v+8
        BYTE   W01
        BYTE                   c_v+9
        BYTE   W01
        BYTE                   c_v+10
        BYTE   W01
        BYTE                   c_v+12
        BYTE   W01
        BYTE                   c_v+13
        BYTE   W01
        BYTE                   c_v+14
        BYTE   W01
        BYTE                   c_v+15
        BYTE   W01
        BYTE                   c_v+16
        BYTE   W12
// 048   ----------------------------------------
        BYTE   PATT
         POIN2  WaterfallUT_2_36
// 049   ----------------------------------------
        BYTE   PATT
         POIN2  WaterfallUT_2_31
// 050   ----------------------------------------
        BYTE   PATT
         POIN2  WaterfallUT_2_32
// 051   ----------------------------------------
        BYTE   PATT
         POIN2  WaterfallUT_2_33
// 052   ----------------------------------------
        BYTE   PATT
         POIN2  WaterfallUT_2_34
// 053   ----------------------------------------
        BYTE   PATT
         POIN2  WaterfallUT_2_35
// 054   ----------------------------------------
        BYTE   PATT
         POIN2  WaterfallUT_2_36
// 055   ----------------------------------------
WaterfallUT_2_55:
        BYTE   W24
        BYTE           N24     En3   v100
        BYTE   W24
        BYTE                   Fn3
        BYTE   W24
        BYTE                   Gn3
        BYTE   W24
        BYTE   PEND
// 056   ----------------------------------------
        BYTE           TIE     An3
        BYTE   W96
// 057   ----------------------------------------
        BYTE   W96
// 058   ----------------------------------------
        BYTE           EOT
        BYTE   W96
// 059   ----------------------------------------
        BYTE   W96
// 060   ----------------------------------------
        BYTE   W96
// 061   ----------------------------------------
        BYTE   W96
// 062   ----------------------------------------
        BYTE   W96
// 063   ----------------------------------------
        BYTE   W96
// 064   ----------------------------------------
        BYTE   GoTo
         POIN2  WaterfallUT_2_LOOP
        BYTE   FINE

//****************** Track 3 (Midi-Chn.3) ******************//

WaterfallUT_3:
        BYTE   KEYSH   WaterfallUT_key+0
// 000   ----------------------------------------
WaterfallUT_3_LOOP:
        BYTE           VOL     98
        BYTE           VOICE   68
        BYTE           BENDR   12
        BYTE           PAN     c_v-43
        BYTE   W96
// 001   ----------------------------------------
        BYTE   W96
// 002   ----------------------------------------
        BYTE   W96
// 003   ----------------------------------------
        BYTE   W96
// 004   ----------------------------------------
        BYTE   W96
// 005   ----------------------------------------
        BYTE   W96
// 006   ----------------------------------------
        BYTE   W96
// 007   ----------------------------------------
        BYTE   W96
// 008   ----------------------------------------
        BYTE   W96
// 009   ----------------------------------------
        BYTE   W96
// 010   ----------------------------------------
        BYTE   W96
// 011   ----------------------------------------
        BYTE   W96
// 012   ----------------------------------------
        BYTE   W96
// 013   ----------------------------------------
        BYTE   W96
// 014   ----------------------------------------
        BYTE   W96
// 015   ----------------------------------------
        BYTE   W96
// 016   ----------------------------------------
        BYTE   W96
// 017   ----------------------------------------
        BYTE   W96
// 018   ----------------------------------------
        BYTE   W96
// 019   ----------------------------------------
        BYTE   W96
// 020   ----------------------------------------
        BYTE   W96
// 021   ----------------------------------------
        BYTE   W96
// 022   ----------------------------------------
        BYTE   W96
// 023   ----------------------------------------
        BYTE   W96
// 024   ----------------------------------------
        BYTE   W96
// 025   ----------------------------------------
        BYTE   W96
// 026   ----------------------------------------
        BYTE   W96
// 027   ----------------------------------------
        BYTE   W96
// 028   ----------------------------------------
        BYTE   W96
// 029   ----------------------------------------
        BYTE   W96
// 030   ----------------------------------------
        BYTE   W96
// 031   ----------------------------------------
        BYTE   PATT
         POIN2  WaterfallUT_2_31
// 032   ----------------------------------------
        BYTE   PATT
         POIN2  WaterfallUT_2_32
// 033   ----------------------------------------
        BYTE   PATT
         POIN2  WaterfallUT_2_33
// 034   ----------------------------------------
        BYTE   PATT
         POIN2  WaterfallUT_2_34
// 035   ----------------------------------------
WaterfallUT_3_35:
        BYTE           N72     Fs3   v100
        BYTE   W72
        BYTE                   An3
        BYTE   W24
        BYTE   PEND
// 036   ----------------------------------------
WaterfallUT_3_36:
        BYTE   W48
        BYTE           N72     En3   v100
        BYTE   W48
        BYTE   PEND
// 037   ----------------------------------------
        BYTE   PATT
         POIN2  WaterfallUT_2_31
// 038   ----------------------------------------
        BYTE   PATT
         POIN2  WaterfallUT_2_32
// 039   ----------------------------------------
        BYTE   PATT
         POIN2  WaterfallUT_2_33
// 040   ----------------------------------------
        BYTE   PATT
         POIN2  WaterfallUT_2_34
// 041   ----------------------------------------
        BYTE   PATT
         POIN2  WaterfallUT_3_35
// 042   ----------------------------------------
        BYTE   PATT
         POIN2  WaterfallUT_3_36
// 043   ----------------------------------------
        BYTE   PATT
         POIN2  WaterfallUT_2_31
// 044   ----------------------------------------
        BYTE   PATT
         POIN2  WaterfallUT_2_32
// 045   ----------------------------------------
        BYTE   PATT
         POIN2  WaterfallUT_2_33
// 046   ----------------------------------------
        BYTE   PATT
         POIN2  WaterfallUT_2_34
// 047   ----------------------------------------
        BYTE   PATT
         POIN2  WaterfallUT_3_35
// 048   ----------------------------------------
        BYTE   PATT
         POIN2  WaterfallUT_3_36
// 049   ----------------------------------------
        BYTE   PATT
         POIN2  WaterfallUT_2_31
// 050   ----------------------------------------
        BYTE   PATT
         POIN2  WaterfallUT_2_32
// 051   ----------------------------------------
        BYTE   PATT
         POIN2  WaterfallUT_2_33
// 052   ----------------------------------------
        BYTE   PATT
         POIN2  WaterfallUT_2_34
// 053   ----------------------------------------
        BYTE   PATT
         POIN2  WaterfallUT_3_35
// 054   ----------------------------------------
        BYTE   PATT
         POIN2  WaterfallUT_3_36
// 055   ----------------------------------------
        BYTE   PATT
         POIN2  WaterfallUT_2_55
// 056   ----------------------------------------
        BYTE           TIE     An3   v100
        BYTE   W96
// 057   ----------------------------------------
        BYTE   W96
// 058   ----------------------------------------
        BYTE           EOT
        BYTE   W96
// 059   ----------------------------------------
        BYTE   W96
// 060   ----------------------------------------
        BYTE   W96
// 061   ----------------------------------------
        BYTE   W96
// 062   ----------------------------------------
        BYTE   W96
// 063   ----------------------------------------
        BYTE   W96
// 064   ----------------------------------------
        BYTE   GoTo
         POIN2  WaterfallUT_3_LOOP
        BYTE   FINE

//****************** Track 4 (Midi-Chn.5) ******************//

WaterfallUT_4:
        BYTE   KEYSH   WaterfallUT_key+0
// 000   ----------------------------------------
WaterfallUT_4_LOOP:
        BYTE           VOL     110
        BYTE           VOICE   40
        BYTE           BENDR   12
        BYTE           PAN     c_v+26
        BYTE   W96
// 001   ----------------------------------------
        BYTE   W96
// 002   ----------------------------------------
        BYTE   W96
// 003   ----------------------------------------
        BYTE   W96
// 004   ----------------------------------------
        BYTE   W96
// 005   ----------------------------------------
        BYTE   W96
// 006   ----------------------------------------
        BYTE   W96
// 007   ----------------------------------------
        BYTE   W96
// 008   ----------------------------------------
        BYTE   W96
// 009   ----------------------------------------
        BYTE   W96
// 010   ----------------------------------------
        BYTE   W96
// 011   ----------------------------------------
        BYTE   W96
// 012   ----------------------------------------
        BYTE   W96
// 013   ----------------------------------------
        BYTE   W96
// 014   ----------------------------------------
        BYTE   W96
// 015   ----------------------------------------
        BYTE   W96
// 016   ----------------------------------------
        BYTE   W96
// 017   ----------------------------------------
        BYTE   W96
// 018   ----------------------------------------
        BYTE   W96
// 019   ----------------------------------------
        BYTE   W96
// 020   ----------------------------------------
        BYTE   W96
// 021   ----------------------------------------
        BYTE   W96
// 022   ----------------------------------------
        BYTE   W96
// 023   ----------------------------------------
        BYTE   W96
// 024   ----------------------------------------
        BYTE   W96
// 025   ----------------------------------------
        BYTE   W96
// 026   ----------------------------------------
        BYTE   W96
// 027   ----------------------------------------
        BYTE   W96
// 028   ----------------------------------------
        BYTE   W96
// 029   ----------------------------------------
        BYTE   W96
// 030   ----------------------------------------
        BYTE   W96
// 031   ----------------------------------------
        BYTE   W24
        BYTE           N24     Fs2   v100
        BYTE   W24
        BYTE                   Gn2
        BYTE   W24
        BYTE                   Fs2
        BYTE   W24
// 032   ----------------------------------------
WaterfallUT_4_32:
        BYTE           N12     En3   v100
        BYTE   W48
        BYTE           N48
        BYTE   W48
        BYTE   PEND
// 033   ----------------------------------------
WaterfallUT_4_33:
        BYTE   W24
        BYTE           N24     En3   v100
        BYTE   W24
        BYTE           N12     Cn3
        BYTE   W48
        BYTE   PEND
// 034   ----------------------------------------
WaterfallUT_4_34:
        BYTE           N24     Dn3   v100
        BYTE   W24
        BYTE                   En3
        BYTE   W24
        BYTE                   Dn3
        BYTE   W24
        BYTE                   En3
        BYTE   W24
        BYTE   PEND
// 035   ----------------------------------------
        BYTE           TIE     Cn3
        BYTE   W48
        BYTE           BEND    c_v+1
        BYTE   W01
        BYTE                   c_v+2
        BYTE   W01
        BYTE                   c_v+3
        BYTE   W02
        BYTE                   c_v+4
        BYTE   W01
        BYTE                   c_v+5
        BYTE   W01
        BYTE                   c_v+6
        BYTE   W01
        BYTE                   c_v+7
        BYTE   W01
        BYTE                   c_v+8
        BYTE   W01
        BYTE                   c_v+9
        BYTE   W01
        BYTE                   c_v+10
        BYTE   W01
        BYTE                   c_v+11
        BYTE   W02
        BYTE                   c_v+12
        BYTE   W01
        BYTE                   c_v+13
        BYTE   W01
        BYTE                   c_v+14
        BYTE   W01
        BYTE                   c_v+15
        BYTE   W01
        BYTE                   c_v+16
        BYTE   W01
        BYTE                   c_v+17
        BYTE   W01
        BYTE                   c_v+18
        BYTE   W02
        BYTE                   c_v+19
        BYTE   W01
        BYTE                   c_v+20
        BYTE   W01
        BYTE                   c_v+21
        BYTE   W24
        BYTE   W01
// 036   ----------------------------------------
WaterfallUT_4_36:
        BYTE   W36
        BYTE           BEND    c_v+20
        BYTE   W01
        BYTE                   c_v+17
        BYTE   W01
        BYTE                   c_v+15
        BYTE   W01
        BYTE                   c_v+13
        BYTE   W01
        BYTE                   c_v+11
        BYTE   W01
        BYTE                   c_v+9
        BYTE   W01
        BYTE                   c_v+6
        BYTE   W01
        BYTE                   c_v+4
        BYTE   W01
        BYTE                   c_v+2
        BYTE   W01
        BYTE                   c_v+0
        BYTE   W01
        BYTE                   c_v-3
        BYTE   W01
        BYTE                   c_v-5
        BYTE   W48
        BYTE   W01
        BYTE   PEND
// 037   ----------------------------------------
WaterfallUT_4_37:
        BYTE   W24
        BYTE           EOT     Cn3
        BYTE           BEND    c_v+0
        BYTE           N24     Fs2   v100
        BYTE   W24
        BYTE                   Gn2
        BYTE   W24
        BYTE                   Fs2
        BYTE   W24
        BYTE   PEND
// 038   ----------------------------------------
        BYTE   PATT
         POIN2  WaterfallUT_4_32
// 039   ----------------------------------------
        BYTE   PATT
         POIN2  WaterfallUT_4_33
// 040   ----------------------------------------
        BYTE   PATT
         POIN2  WaterfallUT_4_34
// 041   ----------------------------------------
        BYTE           TIE     Cn3   v100
        BYTE   W48
        BYTE           BEND    c_v+1
        BYTE   W01
        BYTE                   c_v+2
        BYTE   W01
        BYTE                   c_v+3
        BYTE   W02
        BYTE                   c_v+4
        BYTE   W01
        BYTE                   c_v+5
        BYTE   W01
        BYTE                   c_v+6
        BYTE   W01
        BYTE                   c_v+7
        BYTE   W01
        BYTE                   c_v+8
        BYTE   W01
        BYTE                   c_v+9
        BYTE   W01
        BYTE                   c_v+10
        BYTE   W02
        BYTE                   c_v+11
        BYTE   W01
        BYTE                   c_v+12
        BYTE   W01
        BYTE                   c_v+13
        BYTE   W01
        BYTE                   c_v+14
        BYTE   W01
        BYTE                   c_v+15
        BYTE   W01
        BYTE                   c_v+16
        BYTE   W01
        BYTE                   c_v+17
        BYTE   W01
        BYTE                   c_v+18
        BYTE   W02
        BYTE                   c_v+19
        BYTE   W01
        BYTE                   c_v+20
        BYTE   W01
        BYTE                   c_v+21
        BYTE   W24
        BYTE   W01
// 042   ----------------------------------------
        BYTE   PATT
         POIN2  WaterfallUT_4_36
// 043   ----------------------------------------
        BYTE   PATT
         POIN2  WaterfallUT_4_37
// 044   ----------------------------------------
        BYTE   PATT
         POIN2  WaterfallUT_4_32
// 045   ----------------------------------------
        BYTE   PATT
         POIN2  WaterfallUT_4_33
// 046   ----------------------------------------
        BYTE   PATT
         POIN2  WaterfallUT_4_34
// 047   ----------------------------------------
WaterfallUT_4_47:
        BYTE           TIE     Cn3   v100
        BYTE   W48
        BYTE           BEND    c_v+1
        BYTE   W01
        BYTE                   c_v+2
        BYTE   W02
        BYTE                   c_v+3
        BYTE   W01
        BYTE                   c_v+4
        BYTE   W01
        BYTE                   c_v+5
        BYTE   W01
        BYTE                   c_v+6
        BYTE   W01
        BYTE                   c_v+7
        BYTE   W01
        BYTE                   c_v+8
        BYTE   W01
        BYTE                   c_v+9
        BYTE   W01
        BYTE                   c_v+10
        BYTE   W02
        BYTE                   c_v+11
        BYTE   W01
        BYTE                   c_v+12
        BYTE   W01
        BYTE                   c_v+13
        BYTE   W01
        BYTE                   c_v+14
        BYTE   W01
        BYTE                   c_v+15
        BYTE   W01
        BYTE                   c_v+16
        BYTE   W01
        BYTE                   c_v+17
        BYTE   W01
        BYTE                   c_v+18
        BYTE   W02
        BYTE                   c_v+19
        BYTE   W01
        BYTE                   c_v+20
        BYTE   W01
        BYTE                   c_v+21
        BYTE   W24
        BYTE   W01
        BYTE   PEND
// 048   ----------------------------------------
        BYTE   W36
        BYTE                   c_v+19
        BYTE   W01
        BYTE                   c_v+17
        BYTE   W01
        BYTE                   c_v+15
        BYTE   W01
        BYTE                   c_v+13
        BYTE   W01
        BYTE                   c_v+10
        BYTE   W01
        BYTE                   c_v+8
        BYTE   W01
        BYTE                   c_v+6
        BYTE   W01
        BYTE                   c_v+4
        BYTE   W01
        BYTE                   c_v+2
        BYTE   W01
        BYTE                   c_v+0
        BYTE   W01
        BYTE                   c_v-3
        BYTE   W01
        BYTE                   c_v-5
        BYTE   W48
        BYTE   W01
// 049   ----------------------------------------
        BYTE   PATT
         POIN2  WaterfallUT_4_37
// 050   ----------------------------------------
        BYTE   PATT
         POIN2  WaterfallUT_4_32
// 051   ----------------------------------------
        BYTE   PATT
         POIN2  WaterfallUT_4_33
// 052   ----------------------------------------
        BYTE   PATT
         POIN2  WaterfallUT_4_34
// 053   ----------------------------------------
        BYTE   PATT
         POIN2  WaterfallUT_4_47
// 054   ----------------------------------------
        BYTE   PATT
         POIN2  WaterfallUT_4_36
// 055   ----------------------------------------
        BYTE   W24
        BYTE           EOT     Cn3
        BYTE           BEND    c_v+0
        BYTE           N24     Gn2   v100
        BYTE   W24
        BYTE                   An2
        BYTE   W24
        BYTE                   Bn2
        BYTE   W24
// 056   ----------------------------------------
        BYTE           TIE     Cn3
        BYTE   W96
// 057   ----------------------------------------
        BYTE   W96
// 058   ----------------------------------------
        BYTE           EOT
        BYTE   W96
// 059   ----------------------------------------
        BYTE   W96
// 060   ----------------------------------------
        BYTE   W96
// 061   ----------------------------------------
        BYTE   W96
// 062   ----------------------------------------
        BYTE   W96
// 063   ----------------------------------------
        BYTE   W96
// 064   ----------------------------------------
        BYTE   GoTo
         POIN2  WaterfallUT_4_LOOP
        BYTE   FINE

//****************** Track 5 (Midi-Chn.2) ******************//

WaterfallUT_5:
        BYTE   KEYSH   WaterfallUT_key+0
// 000   ----------------------------------------
WaterfallUT_5_LOOP:
        BYTE           VOICE   4
        BYTE           BENDR   12
        BYTE           PAN     c_v+11
        BYTE           VOL     127
        BYTE   W96
// 001   ----------------------------------------
        BYTE   W96
// 002   ----------------------------------------
        BYTE   W96
// 003   ----------------------------------------
        BYTE   W96
// 004   ----------------------------------------
        BYTE   W96
// 005   ----------------------------------------
        BYTE   W96
// 006   ----------------------------------------
        BYTE   W96
// 007   ----------------------------------------
        BYTE   W96
// 008   ----------------------------------------
        BYTE           N48     Bn2   v100
        BYTE           TIE     En0
        BYTE   W48
        BYTE           N48     En3
        BYTE   W48
// 009   ----------------------------------------
WaterfallUT_5_9:
        BYTE           N48     Gn3   v100
        BYTE   W48
        BYTE           EOT     En0
        BYTE           N96     An0
        BYTE           N48     En3
        BYTE   W48
        BYTE   PEND
// 010   ----------------------------------------
WaterfallUT_5_10:
        BYTE           N24     An2   v100
        BYTE           N24     Fs3
        BYTE   W24
        BYTE                   Bn2
        BYTE           N24     Gn3
        BYTE   W24
        BYTE                   Cn3
        BYTE           N48     Fs0
        BYTE           N24     An3
        BYTE   W24
        BYTE                   An2
        BYTE           N24     Fs3
        BYTE   W24
        BYTE   PEND
// 011   ----------------------------------------
        BYTE           N72     Bn2
        BYTE           N72     Gn3
        BYTE           TIE     Gn0
        BYTE   W72
        BYTE           N48     Fs3
        BYTE   W24
// 012   ----------------------------------------
WaterfallUT_5_12:
        BYTE   W24
        BYTE           N12     En3   v100
        BYTE   W12
        BYTE                   Dn3
        BYTE   W12
        BYTE           EOT     Gn0
        BYTE           N96     Cn0
        BYTE           N48     Cn3
        BYTE   W48
        BYTE   PEND
// 013   ----------------------------------------
        BYTE           N24     An2
        BYTE           N24     Fs3
        BYTE   W24
        BYTE                   Bn2
        BYTE           N24     Gn3
        BYTE   W24
        BYTE                   Cn3
        BYTE           N48     BnM1
        BYTE           N24     An3
        BYTE   W24
        BYTE                   Ds3
        BYTE           N24     Bn3
        BYTE   W24
// 014   ----------------------------------------
        BYTE           N48     En3
        BYTE           N48     Gn3
        BYTE           TIE     En0
        BYTE   W48
        BYTE           N48     Fs3
        BYTE   W48
// 015   ----------------------------------------
        BYTE                   Bn2
        BYTE   W48
        BYTE           EOT     En0
        BYTE           N48     Bn2
        BYTE           N48     En3
        BYTE           TIE     BnM1
        BYTE   W48
// 016   ----------------------------------------
WaterfallUT_5_16:
        BYTE           N48     An2   v100
        BYTE           N48     Dn3
        BYTE   W48
        BYTE                   Gn2
        BYTE           N48     Cn3
        BYTE   W48
        BYTE   PEND
// 017   ----------------------------------------
        BYTE           EOT     BnM1
        BYTE           N24     Fs2
        BYTE           N24     Dn3
        BYTE           TIE     AnM1
        BYTE   W24
        BYTE           N24     En2
        BYTE           N24     Cn3
        BYTE   W24
        BYTE           N72     Dn2
        BYTE           N24     Bn2
        BYTE   W24
        BYTE           N48     An2
        BYTE   W24
// 018   ----------------------------------------
        BYTE   W24
        BYTE           N24     En3
        BYTE           N24     Fs2
        BYTE   W24
        BYTE           EOT     AnM1
        BYTE           N72     Gn2
        BYTE           N72     Bn2
        BYTE           N96     BnM1
        BYTE   W48
// 019   ----------------------------------------
        BYTE   W24
        BYTE           N24     Fs2
        BYTE   W24
        BYTE           N48     Dn0
        BYTE           N24     An2
        BYTE   W24
        BYTE                   Cn3
        BYTE   W24
// 020   ----------------------------------------
        BYTE           TIE     En0
        BYTE           N48     Bn2
        BYTE   W48
        BYTE                   En3
        BYTE   W48
// 021   ----------------------------------------
        BYTE   PATT
         POIN2  WaterfallUT_5_9
// 022   ----------------------------------------
        BYTE   PATT
         POIN2  WaterfallUT_5_10
// 023   ----------------------------------------
        BYTE           N72     Bn2   v100
        BYTE           TIE     Gn0
        BYTE           N72     Gn3
        BYTE   W72
        BYTE           N48     Fs3
        BYTE   W24
// 024   ----------------------------------------
        BYTE   PATT
         POIN2  WaterfallUT_5_12
// 025   ----------------------------------------
        BYTE           N24     An2   v100
        BYTE           N24     Fs3
        BYTE   W24
        BYTE                   Bn2
        BYTE           N24     Gn3
        BYTE   W24
        BYTE           N48     BnM1
        BYTE           N24     Cn3
        BYTE           N24     An3
        BYTE   W24
        BYTE                   Ds3
        BYTE           N24     Bn3
        BYTE   W24
// 026   ----------------------------------------
        BYTE           N48     En3
        BYTE           TIE     En0
        BYTE           N48     Gn3
        BYTE   W48
        BYTE                   Fs3
        BYTE   W48
// 027   ----------------------------------------
        BYTE                   Bn2
        BYTE   W48
        BYTE           EOT     En0
        BYTE           N48     Bn2
        BYTE           TIE     BnM1
        BYTE           N48     En3
        BYTE   W48
// 028   ----------------------------------------
        BYTE   PATT
         POIN2  WaterfallUT_5_16
// 029   ----------------------------------------
        BYTE           EOT     BnM1
        BYTE           TIE     AnM1   v100
        BYTE           N24     Fs2
        BYTE           N24     Dn3
        BYTE   W24
        BYTE                   En2
        BYTE           N24     Cn3
        BYTE   W24
        BYTE           N72     Dn2
        BYTE           N24     Bn2
        BYTE   W24
        BYTE           N48     An2
        BYTE   W24
// 030   ----------------------------------------
        BYTE   W24
        BYTE           N24     Fs2
        BYTE           N24     En3
        BYTE   W24
        BYTE           EOT     AnM1
        BYTE           N96     BnM1
        BYTE           N72     Bn2
        BYTE   W48
// 031   ----------------------------------------
        BYTE   W48
        BYTE           N24     Dn0
        BYTE   W24
        BYTE                   Dn0
        BYTE   W24
// 032   ----------------------------------------
WaterfallUT_5_32:
        BYTE           N48     En1   v100
        BYTE           TIE     En0
        BYTE   W48
        BYTE           N48     Bn0
        BYTE   W48
        BYTE   PEND
// 033   ----------------------------------------
WaterfallUT_5_33:
        BYTE           N48     Gn0   v100
        BYTE   W24
        BYTE           EOT     En0
        BYTE           N24
        BYTE   W24
        BYTE           N48     An0
        BYTE           N96     Dn0
        BYTE   W48
        BYTE   PEND
// 034   ----------------------------------------
WaterfallUT_5_34:
        BYTE           N48     Dn1   v100
        BYTE   W48
        BYTE           N24     Dn0
        BYTE           N48     An0
        BYTE   W24
        BYTE           N24     Dn0
        BYTE   W24
        BYTE   PEND
// 035   ----------------------------------------
WaterfallUT_5_35:
        BYTE           N48     Cn1   v100
        BYTE           TIE     Cn0
        BYTE   W48
        BYTE           N48     En0
        BYTE   W48
        BYTE   PEND
// 036   ----------------------------------------
WaterfallUT_5_36:
        BYTE           N48     An0   v100
        BYTE   W24
        BYTE           EOT     Cn0
        BYTE           N24
        BYTE   W24
        BYTE           N48     En1
        BYTE           TIE     Dn0
        BYTE   W48
        BYTE   PEND
// 037   ----------------------------------------
WaterfallUT_5_37:
        BYTE           N48     An0   v100
        BYTE   W48
        BYTE                   Bn0
        BYTE   W24
        BYTE           EOT     Dn0
        BYTE           N24
        BYTE   W24
        BYTE   PEND
// 038   ----------------------------------------
        BYTE   PATT
         POIN2  WaterfallUT_5_32
// 039   ----------------------------------------
        BYTE   PATT
         POIN2  WaterfallUT_5_33
// 040   ----------------------------------------
        BYTE   PATT
         POIN2  WaterfallUT_5_34
// 041   ----------------------------------------
        BYTE   PATT
         POIN2  WaterfallUT_5_35
// 042   ----------------------------------------
        BYTE   PATT
         POIN2  WaterfallUT_5_36
// 043   ----------------------------------------
        BYTE   PATT
         POIN2  WaterfallUT_5_37
// 044   ----------------------------------------
WaterfallUT_5_44:
        BYTE           TIE     En0   v100
        BYTE           N48     En1
        BYTE   W48
        BYTE                   Bn0
        BYTE   W48
        BYTE   PEND
// 045   ----------------------------------------
WaterfallUT_5_45:
        BYTE           N48     Gn0   v100
        BYTE   W24
        BYTE           EOT     En0
        BYTE           N24
        BYTE   W24
        BYTE           N96     Dn0
        BYTE           N48     An0
        BYTE   W48
        BYTE   PEND
// 046   ----------------------------------------
WaterfallUT_5_46:
        BYTE           N48     Dn1   v100
        BYTE   W48
        BYTE                   An0
        BYTE           N24     Dn0
        BYTE   W24
        BYTE                   Dn0
        BYTE   W24
        BYTE   PEND
// 047   ----------------------------------------
WaterfallUT_5_47:
        BYTE           TIE     Cn0   v100
        BYTE           N48     Cn1
        BYTE   W48
        BYTE                   En0
        BYTE   W48
        BYTE   PEND
// 048   ----------------------------------------
        BYTE                   An0
        BYTE   W24
        BYTE           EOT     Cn0
        BYTE           N24
        BYTE   W24
        BYTE           TIE     Dn0
        BYTE           N48     En1
        BYTE   W48
// 049   ----------------------------------------
        BYTE   PATT
         POIN2  WaterfallUT_5_37
// 050   ----------------------------------------
        BYTE   PATT
         POIN2  WaterfallUT_5_44
// 051   ----------------------------------------
        BYTE   PATT
         POIN2  WaterfallUT_5_45
// 052   ----------------------------------------
        BYTE   PATT
         POIN2  WaterfallUT_5_46
// 053   ----------------------------------------
        BYTE   PATT
         POIN2  WaterfallUT_5_47
// 054   ----------------------------------------
        BYTE           N48     An0   v100
        BYTE   W24
        BYTE           EOT     Cn0
        BYTE           N24
        BYTE   W24
        BYTE           N96     Dn0
        BYTE           N48     En1
        BYTE   W48
// 055   ----------------------------------------
        BYTE                   An0
        BYTE   W48
        BYTE                   Dn1
        BYTE   W48
// 056   ----------------------------------------
        BYTE           TIE     Fn1
        BYTE   W96
// 057   ----------------------------------------
        BYTE   W48
        BYTE           EOT
        BYTE           TIE     Fn0
        BYTE   W48
// 058   ----------------------------------------
        BYTE           N24     Cn4
        BYTE   W24
        BYTE                   Dn4
        BYTE   W24
        BYTE           N48     En4
        BYTE   W48
// 059   ----------------------------------------
        BYTE                   Dn4
        BYTE   W48
        BYTE                   Cn4
        BYTE   W48
// 060   ----------------------------------------
        BYTE           EOT     Fn0
        BYTE           TIE     Bn3
        BYTE           TIE     En0
        BYTE   W96
// 061   ----------------------------------------
        BYTE   W96
// 062   ----------------------------------------
        BYTE           EOT
        BYTE           EOT     Bn3
        BYTE   W96
// 063   ----------------------------------------
        BYTE   W96
// 064   ----------------------------------------
        BYTE   GoTo
         POIN2  WaterfallUT_5_LOOP
        BYTE   FINE

//****************** Track 6 (Midi-Chn.7) ******************//

WaterfallUT_6:
        BYTE   KEYSH   WaterfallUT_key+0
// 000   ----------------------------------------
WaterfallUT_6_LOOP:
        BYTE           VOICE   71
        BYTE           VOL     87
        BYTE           BENDR   12
        BYTE           TIE     Cn1   v100
        BYTE   W96
// 001   ----------------------------------------
        BYTE   W96
// 002   ----------------------------------------
        BYTE           EOT
        BYTE           TIE     Bn0
        BYTE   W96
// 003   ----------------------------------------
        BYTE   W96
// 004   ----------------------------------------
        BYTE           EOT
        BYTE           TIE     En1
        BYTE   W96
// 005   ----------------------------------------
        BYTE   W96
// 006   ----------------------------------------
        BYTE           EOT
        BYTE   W96
// 007   ----------------------------------------
        BYTE   W96
// 008   ----------------------------------------
        BYTE   W96
// 009   ----------------------------------------
        BYTE   W96
// 010   ----------------------------------------
        BYTE   W96
// 011   ----------------------------------------
        BYTE   W96
// 012   ----------------------------------------
        BYTE   W96
// 013   ----------------------------------------
        BYTE   W96
// 014   ----------------------------------------
        BYTE   W96
// 015   ----------------------------------------
        BYTE   W96
// 016   ----------------------------------------
        BYTE   W96
// 017   ----------------------------------------
        BYTE   W96
// 018   ----------------------------------------
        BYTE   W96
// 019   ----------------------------------------
        BYTE   W96
// 020   ----------------------------------------
        BYTE   W96
// 021   ----------------------------------------
        BYTE   W96
// 022   ----------------------------------------
        BYTE   W96
// 023   ----------------------------------------
        BYTE   W96
// 024   ----------------------------------------
        BYTE   W96
// 025   ----------------------------------------
        BYTE   W96
// 026   ----------------------------------------
        BYTE   W96
// 027   ----------------------------------------
        BYTE   W96
// 028   ----------------------------------------
        BYTE   W96
// 029   ----------------------------------------
        BYTE   W96
// 030   ----------------------------------------
        BYTE   W96
// 031   ----------------------------------------
        BYTE   W96
// 032   ----------------------------------------
        BYTE   W96
// 033   ----------------------------------------
        BYTE   W96
// 034   ----------------------------------------
        BYTE   W96
// 035   ----------------------------------------
        BYTE   W96
// 036   ----------------------------------------
        BYTE   W96
// 037   ----------------------------------------
        BYTE   W96
// 038   ----------------------------------------
        BYTE   W96
// 039   ----------------------------------------
        BYTE   W96
// 040   ----------------------------------------
        BYTE   W96
// 041   ----------------------------------------
        BYTE   W96
// 042   ----------------------------------------
        BYTE   W96
// 043   ----------------------------------------
        BYTE   W96
// 044   ----------------------------------------
        BYTE   W96
// 045   ----------------------------------------
        BYTE   W96
// 046   ----------------------------------------
        BYTE   W96
// 047   ----------------------------------------
        BYTE   W96
// 048   ----------------------------------------
        BYTE   W96
// 049   ----------------------------------------
        BYTE   W96
// 050   ----------------------------------------
        BYTE   W96
// 051   ----------------------------------------
        BYTE   W96
// 052   ----------------------------------------
        BYTE   W96
// 053   ----------------------------------------
        BYTE   W96
// 054   ----------------------------------------
        BYTE   W96
// 055   ----------------------------------------
        BYTE   W96
// 056   ----------------------------------------
        BYTE   W96
// 057   ----------------------------------------
        BYTE   W96
// 058   ----------------------------------------
        BYTE   W96
// 059   ----------------------------------------
        BYTE   W96
// 060   ----------------------------------------
        BYTE   W96
// 061   ----------------------------------------
        BYTE   W96
// 062   ----------------------------------------
        BYTE   W96
// 063   ----------------------------------------
        BYTE   W96
// 064   ----------------------------------------
        BYTE   GoTo
         POIN2  WaterfallUT_6_LOOP
        BYTE   FINE

//****************** Track 7 (Midi-Chn.8) ******************//

WaterfallUT_7:
        BYTE   KEYSH   WaterfallUT_key+0
// 000   ----------------------------------------
WaterfallUT_7_LOOP:
        BYTE           VOICE   47
        BYTE           VOL     0
        BYTE           BENDR   12
        BYTE   W96
// 001   ----------------------------------------
        BYTE   W96
// 002   ----------------------------------------
        BYTE   W96
// 003   ----------------------------------------
        BYTE   W96
// 004   ----------------------------------------
        BYTE   W96
// 005   ----------------------------------------
        BYTE   W96
// 006   ----------------------------------------
        BYTE   W96
// 007   ----------------------------------------
        BYTE   W96
// 008   ----------------------------------------
        BYTE   W96
// 009   ----------------------------------------
        BYTE   W96
// 010   ----------------------------------------
        BYTE   W96
// 011   ----------------------------------------
        BYTE   W96
// 012   ----------------------------------------
        BYTE   W96
// 013   ----------------------------------------
        BYTE   W96
// 014   ----------------------------------------
        BYTE   W96
// 015   ----------------------------------------
        BYTE   W96
// 016   ----------------------------------------
        BYTE   W96
// 017   ----------------------------------------
        BYTE   W96
// 018   ----------------------------------------
        BYTE   W96
// 019   ----------------------------------------
        BYTE   W96
// 020   ----------------------------------------
        BYTE   W96
// 021   ----------------------------------------
        BYTE   W96
// 022   ----------------------------------------
        BYTE   W96
// 023   ----------------------------------------
        BYTE   W96
// 024   ----------------------------------------
        BYTE   W96
// 025   ----------------------------------------
        BYTE   W96
// 026   ----------------------------------------
        BYTE   W96
// 027   ----------------------------------------
        BYTE   W96
// 028   ----------------------------------------
        BYTE   W96
// 029   ----------------------------------------
        BYTE   W96
// 030   ----------------------------------------
        BYTE   W96
// 031   ----------------------------------------
        BYTE   W96
// 032   ----------------------------------------
        BYTE           N24     En2   v100
        BYTE           VOL     103
        BYTE   W01
        BYTE                   102
        BYTE   W01
        BYTE                   101
        BYTE   W01
        BYTE                   99
        BYTE   W01
        BYTE                   98
        BYTE   W01
        BYTE                   97
        BYTE   W01
        BYTE                   96
        BYTE   W01
        BYTE                   95
        BYTE   W01
        BYTE                   94
        BYTE   W01
        BYTE                   93
        BYTE   W01
        BYTE                   92
        BYTE   W01
        BYTE                   91
        BYTE   W01
        BYTE                   90
        BYTE   W01
        BYTE                   89
        BYTE   W01
        BYTE                   87
        BYTE   W01
        BYTE                   86
        BYTE   W01
        BYTE                   85
        BYTE   W01
        BYTE                   84
        BYTE   W01
        BYTE                   83
        BYTE   W01
        BYTE                   82
        BYTE   W01
        BYTE                   81
        BYTE   W01
        BYTE                   80
        BYTE   W01
        BYTE                   79
        BYTE   W01
        BYTE                   78
        BYTE   W01
        BYTE           N24
        BYTE           VOL     77
        BYTE   W01
        BYTE                   75
        BYTE   W01
        BYTE                   74
        BYTE   W01
        BYTE                   73
        BYTE   W01
        BYTE                   72
        BYTE   W01
        BYTE                   71
        BYTE   W01
        BYTE                   70
        BYTE   W01
        BYTE                   69
        BYTE   W01
        BYTE                   68
        BYTE   W01
        BYTE                   67
        BYTE   W01
        BYTE                   66
        BYTE   W01
        BYTE                   65
        BYTE   W01
        BYTE                   63
        BYTE   W01
        BYTE                   62
        BYTE   W01
        BYTE                   61
        BYTE   W01
        BYTE                   60
        BYTE   W01
        BYTE                   59
        BYTE   W01
        BYTE                   58
        BYTE   W01
        BYTE                   57
        BYTE   W01
        BYTE                   56
        BYTE   W01
        BYTE                   55
        BYTE   W01
        BYTE                   54
        BYTE   W01
        BYTE                   53
        BYTE   W01
        BYTE                   51
        BYTE   W01
        BYTE           N24
        BYTE           VOL     50
        BYTE   W01
        BYTE                   49
        BYTE   W01
        BYTE                   48
        BYTE   W01
        BYTE                   47
        BYTE   W01
        BYTE                   46
        BYTE   W01
        BYTE                   45
        BYTE   W01
        BYTE                   44
        BYTE   W01
        BYTE                   43
        BYTE   W01
        BYTE                   42
        BYTE   W01
        BYTE                   40
        BYTE   W01
        BYTE                   39
        BYTE   W01
        BYTE                   38
        BYTE   W01
        BYTE                   37
        BYTE   W01
        BYTE                   36
        BYTE   W01
        BYTE                   35
        BYTE   W01
        BYTE                   34
        BYTE   W01
        BYTE                   33
        BYTE   W01
        BYTE                   32
        BYTE   W01
        BYTE                   31
        BYTE   W01
        BYTE                   30
        BYTE   W01
        BYTE                   28
        BYTE   W01
        BYTE                   27
        BYTE   W01
        BYTE                   26
        BYTE   W01
        BYTE                   25
        BYTE   W01
        BYTE           N24
        BYTE           VOL     24
        BYTE   W01
        BYTE                   23
        BYTE   W01
        BYTE                   22
        BYTE   W01
        BYTE                   21
        BYTE   W01
        BYTE                   20
        BYTE   W01
        BYTE                   19
        BYTE   W01
        BYTE                   18
        BYTE   W01
        BYTE                   16
        BYTE   W01
        BYTE                   15
        BYTE   W01
        BYTE                   14
        BYTE   W01
        BYTE                   13
        BYTE   W01
        BYTE                   12
        BYTE   W01
        BYTE                   11
        BYTE   W01
        BYTE                   10
        BYTE   W01
        BYTE                   9
        BYTE   W01
        BYTE                   8
        BYTE   W01
        BYTE                   7
        BYTE   W01
        BYTE                   6
        BYTE   W01
        BYTE                   4
        BYTE   W01
        BYTE                   3
        BYTE   W01
        BYTE                   2
        BYTE   W01
        BYTE                   1
        BYTE   W01
        BYTE                   0
        BYTE   W02
// 033   ----------------------------------------
        BYTE   W48
        BYTE           N24
        BYTE           VOL     103
        BYTE   W01
        BYTE                   102
        BYTE   W01
        BYTE                   101
        BYTE   W01
        BYTE                   100
        BYTE   W01
        BYTE                   99
        BYTE   W01
        BYTE                   98
        BYTE   W01
        BYTE                   97
        BYTE   W01
        BYTE                   96
        BYTE   W01
        BYTE                   94
        BYTE   W01
        BYTE                   93
        BYTE   W01
        BYTE                   92
        BYTE   W01
        BYTE                   91
        BYTE   W01
        BYTE                   90
        BYTE   W01
        BYTE                   89
        BYTE   W01
        BYTE                   88
        BYTE   W01
        BYTE                   87
        BYTE   W01
        BYTE                   86
        BYTE   W01
        BYTE                   85
        BYTE   W01
        BYTE                   83
        BYTE   W01
        BYTE                   82
        BYTE   W01
        BYTE                   81
        BYTE   W01
        BYTE                   80
        BYTE   W01
        BYTE                   79
        BYTE   W01
        BYTE                   78
        BYTE   W01
        BYTE           N24
        BYTE           VOL     77
        BYTE   W01
        BYTE                   76
        BYTE   W01
        BYTE                   75
        BYTE   W01
        BYTE                   73
        BYTE   W01
        BYTE                   72
        BYTE   W01
        BYTE                   71
        BYTE   W01
        BYTE                   70
        BYTE   W01
        BYTE                   69
        BYTE   W01
        BYTE                   68
        BYTE   W01
        BYTE                   67
        BYTE   W01
        BYTE                   66
        BYTE   W01
        BYTE                   65
        BYTE   W01
        BYTE                   64
        BYTE   W01
        BYTE                   62
        BYTE   W01
        BYTE                   61
        BYTE   W01
        BYTE                   60
        BYTE   W01
        BYTE                   59
        BYTE   W01
        BYTE                   58
        BYTE   W01
        BYTE                   57
        BYTE   W01
        BYTE                   56
        BYTE   W01
        BYTE                   55
        BYTE   W01
        BYTE                   54
        BYTE   W01
        BYTE                   53
        BYTE   W01
        BYTE                   51
        BYTE   W01
// 034   ----------------------------------------
        BYTE           N24
        BYTE           VOL     50
        BYTE   W01
        BYTE                   49
        BYTE   W01
        BYTE                   48
        BYTE   W01
        BYTE                   47
        BYTE   W01
        BYTE                   46
        BYTE   W01
        BYTE                   45
        BYTE   W01
        BYTE                   44
        BYTE   W01
        BYTE                   43
        BYTE   W01
        BYTE                   41
        BYTE   W01
        BYTE                   40
        BYTE   W01
        BYTE                   39
        BYTE   W01
        BYTE                   38
        BYTE   W01
        BYTE                   37
        BYTE   W01
        BYTE                   36
        BYTE   W01
        BYTE                   35
        BYTE   W01
        BYTE                   34
        BYTE   W01
        BYTE                   33
        BYTE   W01
        BYTE                   32
        BYTE   W01
        BYTE                   30
        BYTE   W01
        BYTE                   29
        BYTE   W01
        BYTE                   28
        BYTE   W01
        BYTE                   27
        BYTE   W01
        BYTE                   26
        BYTE   W01
        BYTE                   25
        BYTE   W01
        BYTE           N24
        BYTE           VOL     24
        BYTE   W01
        BYTE                   23
        BYTE   W01
        BYTE                   22
        BYTE   W01
        BYTE                   20
        BYTE   W01
        BYTE                   19
        BYTE   W01
        BYTE                   18
        BYTE   W01
        BYTE                   17
        BYTE   W01
        BYTE                   16
        BYTE   W01
        BYTE                   15
        BYTE   W01
        BYTE                   14
        BYTE   W01
        BYTE                   13
        BYTE   W01
        BYTE                   12
        BYTE   W01
        BYTE                   11
        BYTE   W01
        BYTE                   9
        BYTE   W01
        BYTE                   8
        BYTE   W01
        BYTE                   7
        BYTE   W01
        BYTE                   6
        BYTE   W01
        BYTE                   5
        BYTE   W01
        BYTE                   4
        BYTE   W01
        BYTE                   3
        BYTE   W01
        BYTE                   2
        BYTE   W01
        BYTE                   1
        BYTE   W01
        BYTE                   0
        BYTE   W48
        BYTE   W02
// 035   ----------------------------------------
        BYTE           N24
        BYTE           VOL     102
        BYTE   W01
        BYTE                   101
        BYTE   W01
        BYTE                   100
        BYTE   W01
        BYTE                   99
        BYTE   W01
        BYTE                   98
        BYTE   W01
        BYTE                   97
        BYTE   W01
        BYTE                   96
        BYTE   W01
        BYTE                   95
        BYTE   W01
        BYTE                   94
        BYTE   W01
        BYTE                   93
        BYTE   W01
        BYTE                   92
        BYTE   W01
        BYTE                   91
        BYTE   W01
        BYTE                   89
        BYTE   W01
        BYTE                   88
        BYTE   W01
        BYTE                   87
        BYTE   W01
        BYTE                   86
        BYTE   W01
        BYTE                   85
        BYTE   W01
        BYTE                   84
        BYTE   W01
        BYTE                   83
        BYTE   W01
        BYTE                   82
        BYTE   W01
        BYTE                   81
        BYTE   W01
        BYTE                   80
        BYTE   W01
        BYTE                   79
        BYTE   W01
        BYTE                   78
        BYTE   W01
        BYTE           N24
        BYTE           VOL     76
        BYTE   W01
        BYTE                   75
        BYTE   W01
        BYTE                   74
        BYTE   W01
        BYTE                   73
        BYTE   W01
        BYTE                   72
        BYTE   W01
        BYTE                   71
        BYTE   W01
        BYTE                   70
        BYTE   W01
        BYTE                   69
        BYTE   W01
        BYTE                   68
        BYTE   W01
        BYTE                   67
        BYTE   W01
        BYTE                   66
        BYTE   W01
        BYTE                   65
        BYTE   W01
        BYTE                   63
        BYTE   W01
        BYTE                   62
        BYTE   W01
        BYTE                   61
        BYTE   W01
        BYTE                   60
        BYTE   W01
        BYTE                   59
        BYTE   W01
        BYTE                   58
        BYTE   W01
        BYTE                   57
        BYTE   W01
        BYTE                   56
        BYTE   W01
        BYTE                   55
        BYTE   W01
        BYTE                   54
        BYTE   W01
        BYTE                   53
        BYTE   W01
        BYTE                   52
        BYTE   W01
        BYTE           N24
        BYTE           VOL     50
        BYTE   W01
        BYTE                   49
        BYTE   W01
        BYTE                   48
        BYTE   W01
        BYTE                   47
        BYTE   W01
        BYTE                   46
        BYTE   W01
        BYTE                   45
        BYTE   W01
        BYTE                   44
        BYTE   W01
        BYTE                   43
        BYTE   W01
        BYTE                   42
        BYTE   W01
        BYTE                   41
        BYTE   W01
        BYTE                   40
        BYTE   W01
        BYTE                   39
        BYTE   W01
        BYTE                   37
        BYTE   W01
        BYTE                   36
        BYTE   W01
        BYTE                   35
        BYTE   W01
        BYTE                   34
        BYTE   W01
        BYTE                   33
        BYTE   W01
        BYTE                   32
        BYTE   W01
        BYTE                   31
        BYTE   W01
        BYTE                   30
        BYTE   W01
        BYTE                   29
        BYTE   W01
        BYTE                   28
        BYTE   W01
        BYTE                   27
        BYTE   W01
        BYTE                   26
        BYTE   W01
        BYTE           N24
        BYTE           VOL     24
        BYTE   W01
        BYTE                   23
        BYTE   W01
        BYTE                   22
        BYTE   W01
        BYTE                   21
        BYTE   W01
        BYTE                   20
        BYTE   W01
        BYTE                   19
        BYTE   W01
        BYTE                   18
        BYTE   W01
        BYTE                   17
        BYTE   W01
        BYTE                   16
        BYTE   W01
        BYTE                   15
        BYTE   W01
        BYTE                   14
        BYTE   W01
        BYTE                   13
        BYTE   W01
        BYTE                   11
        BYTE   W01
        BYTE                   10
        BYTE   W01
        BYTE                   9
        BYTE   W01
        BYTE                   8
        BYTE   W01
        BYTE                   7
        BYTE   W01
        BYTE                   6
        BYTE   W01
        BYTE                   5
        BYTE   W01
        BYTE                   4
        BYTE   W01
        BYTE                   3
        BYTE   W01
        BYTE                   2
        BYTE   W01
        BYTE                   1
        BYTE   W01
        BYTE                   0
        BYTE   W01
// 036   ----------------------------------------
        BYTE   W48
        BYTE           N24
        BYTE           VOL     102
        BYTE   W01
        BYTE                   101
        BYTE   W01
        BYTE                   100
        BYTE   W01
        BYTE                   99
        BYTE   W01
        BYTE                   98
        BYTE   W01
        BYTE                   97
        BYTE   W01
        BYTE                   96
        BYTE   W01
        BYTE                   95
        BYTE   W01
        BYTE                   94
        BYTE   W01
        BYTE                   93
        BYTE   W01
        BYTE                   92
        BYTE   W01
        BYTE                   91
        BYTE   W01
        BYTE                   90
        BYTE   W01
        BYTE                   88
        BYTE   W01
        BYTE                   87
        BYTE   W01
        BYTE                   86
        BYTE   W01
        BYTE                   85
        BYTE   W01
        BYTE                   84
        BYTE   W01
        BYTE                   83
        BYTE   W01
        BYTE                   82
        BYTE   W01
        BYTE                   81
        BYTE   W01
        BYTE                   80
        BYTE   W01
        BYTE                   79
        BYTE   W01
        BYTE                   78
        BYTE   W01
        BYTE           N24
        BYTE           VOL     77
        BYTE   W01
        BYTE                   75
        BYTE   W01
        BYTE                   74
        BYTE   W01
        BYTE                   73
        BYTE   W01
        BYTE                   72
        BYTE   W01
        BYTE                   71
        BYTE   W01
        BYTE                   70
        BYTE   W01
        BYTE                   69
        BYTE   W01
        BYTE                   68
        BYTE   W01
        BYTE                   67
        BYTE   W01
        BYTE                   66
        BYTE   W01
        BYTE                   65
        BYTE   W01
        BYTE                   64
        BYTE   W01
        BYTE                   62
        BYTE   W01
        BYTE                   61
        BYTE   W01
        BYTE                   60
        BYTE   W01
        BYTE                   59
        BYTE   W01
        BYTE                   58
        BYTE   W01
        BYTE                   57
        BYTE   W01
        BYTE                   56
        BYTE   W01
        BYTE                   55
        BYTE   W01
        BYTE                   54
        BYTE   W01
        BYTE                   53
        BYTE   W01
        BYTE                   52
        BYTE   W01
// 037   ----------------------------------------
        BYTE           N24
        BYTE           VOL     51
        BYTE   W01
        BYTE                   50
        BYTE   W01
        BYTE                   48
        BYTE   W01
        BYTE                   47
        BYTE   W01
        BYTE                   46
        BYTE   W01
        BYTE                   45
        BYTE   W01
        BYTE                   44
        BYTE   W01
        BYTE                   43
        BYTE   W01
        BYTE                   42
        BYTE   W01
        BYTE                   41
        BYTE   W01
        BYTE                   40
        BYTE   W01
        BYTE                   39
        BYTE   W01
        BYTE                   38
        BYTE   W01
        BYTE                   37
        BYTE   W01
        BYTE                   35
        BYTE   W01
        BYTE                   34
        BYTE   W01
        BYTE                   33
        BYTE   W01
        BYTE                   32
        BYTE   W01
        BYTE                   31
        BYTE   W01
        BYTE                   30
        BYTE   W01
        BYTE                   29
        BYTE   W01
        BYTE                   28
        BYTE   W01
        BYTE                   27
        BYTE   W01
        BYTE                   26
        BYTE   W01
        BYTE           N24
        BYTE           VOL     25
        BYTE   W01
        BYTE                   24
        BYTE   W01
        BYTE                   22
        BYTE   W01
        BYTE                   21
        BYTE   W01
        BYTE                   20
        BYTE   W01
        BYTE                   19
        BYTE   W01
        BYTE                   18
        BYTE   W01
        BYTE                   17
        BYTE   W01
        BYTE                   16
        BYTE   W01
        BYTE                   15
        BYTE   W01
        BYTE                   14
        BYTE   W01
        BYTE                   13
        BYTE   W01
        BYTE                   12
        BYTE   W01
        BYTE                   11
        BYTE   W01
        BYTE                   10
        BYTE   W01
        BYTE                   8
        BYTE   W01
        BYTE                   7
        BYTE   W01
        BYTE                   6
        BYTE   W01
        BYTE                   5
        BYTE   W01
        BYTE                   4
        BYTE   W01
        BYTE                   3
        BYTE   W01
        BYTE                   2
        BYTE   W01
        BYTE                   1
        BYTE   W01
        BYTE                   0
        BYTE   W48
        BYTE   W01
// 038   ----------------------------------------
        BYTE           N24
        BYTE           VOL     103
        BYTE   W01
        BYTE                   102
        BYTE   W01
        BYTE                   101
        BYTE   W01
        BYTE                   100
        BYTE   W01
        BYTE                   99
        BYTE   W01
        BYTE                   98
        BYTE   W01
        BYTE                   97
        BYTE   W01
        BYTE                   95
        BYTE   W01
        BYTE                   94
        BYTE   W01
        BYTE                   93
        BYTE   W01
        BYTE                   92
        BYTE   W01
        BYTE                   91
        BYTE   W01
        BYTE                   90
        BYTE   W01
        BYTE                   89
        BYTE   W01
        BYTE                   88
        BYTE   W01
        BYTE                   87
        BYTE   W01
        BYTE                   86
        BYTE   W01
        BYTE                   85
        BYTE   W01
        BYTE                   83
        BYTE   W01
        BYTE                   82
        BYTE   W01
        BYTE                   81
        BYTE   W01
        BYTE                   80
        BYTE   W01
        BYTE                   79
        BYTE   W01
        BYTE                   78
        BYTE   W01
        BYTE           N24
        BYTE           VOL     77
        BYTE   W01
        BYTE                   76
        BYTE   W01
        BYTE                   75
        BYTE   W01
        BYTE                   74
        BYTE   W01
        BYTE                   73
        BYTE   W01
        BYTE                   72
        BYTE   W01
        BYTE                   70
        BYTE   W01
        BYTE                   69
        BYTE   W01
        BYTE                   68
        BYTE   W01
        BYTE                   67
        BYTE   W01
        BYTE                   66
        BYTE   W01
        BYTE                   65
        BYTE   W01
        BYTE                   64
        BYTE   W01
        BYTE                   63
        BYTE   W01
        BYTE                   62
        BYTE   W01
        BYTE                   61
        BYTE   W01
        BYTE                   60
        BYTE   W01
        BYTE                   58
        BYTE   W01
        BYTE                   57
        BYTE   W01
        BYTE                   56
        BYTE   W01
        BYTE                   55
        BYTE   W01
        BYTE                   54
        BYTE   W01
        BYTE                   53
        BYTE   W01
        BYTE                   52
        BYTE   W01
        BYTE           N24
        BYTE           VOL     51
        BYTE   W01
        BYTE                   50
        BYTE   W01
        BYTE                   49
        BYTE   W01
        BYTE                   48
        BYTE   W01
        BYTE                   47
        BYTE   W01
        BYTE                   45
        BYTE   W01
        BYTE                   44
        BYTE   W01
        BYTE                   43
        BYTE   W01
        BYTE                   42
        BYTE   W01
        BYTE                   41
        BYTE   W01
        BYTE                   40
        BYTE   W01
        BYTE                   39
        BYTE   W01
        BYTE                   38
        BYTE   W01
        BYTE                   37
        BYTE   W01
        BYTE                   36
        BYTE   W01
        BYTE                   35
        BYTE   W01
        BYTE                   33
        BYTE   W01
        BYTE                   32
        BYTE   W01
        BYTE                   31
        BYTE   W01
        BYTE                   30
        BYTE   W01
        BYTE                   29
        BYTE   W01
        BYTE                   28
        BYTE   W01
        BYTE                   27
        BYTE   W01
        BYTE                   26
        BYTE   W01
        BYTE           N24
        BYTE           VOL     25
        BYTE   W01
        BYTE                   24
        BYTE   W01
        BYTE                   23
        BYTE   W01
        BYTE                   22
        BYTE   W01
        BYTE                   20
        BYTE   W01
        BYTE                   19
        BYTE   W01
        BYTE                   18
        BYTE   W01
        BYTE                   17
        BYTE   W01
        BYTE                   16
        BYTE   W01
        BYTE                   15
        BYTE   W01
        BYTE                   14
        BYTE   W01
        BYTE                   13
        BYTE   W01
        BYTE                   12
        BYTE   W01
        BYTE                   11
        BYTE   W01
        BYTE                   10
        BYTE   W01
        BYTE                   8
        BYTE   W01
        BYTE                   7
        BYTE   W01
        BYTE                   6
        BYTE   W01
        BYTE                   5
        BYTE   W01
        BYTE                   4
        BYTE   W01
        BYTE                   3
        BYTE   W01
        BYTE                   2
        BYTE   W01
        BYTE                   1
        BYTE   W01
        BYTE                   0
        BYTE   W01
// 039   ----------------------------------------
        BYTE   W48
        BYTE           N24
        BYTE           VOL     103
        BYTE   W01
        BYTE                   102
        BYTE   W01
        BYTE                   101
        BYTE   W01
        BYTE                   99
        BYTE   W01
        BYTE                   98
        BYTE   W01
        BYTE                   97
        BYTE   W01
        BYTE                   96
        BYTE   W01
        BYTE                   95
        BYTE   W01
        BYTE                   94
        BYTE   W01
        BYTE                   93
        BYTE   W01
        BYTE                   92
        BYTE   W01
        BYTE                   91
        BYTE   W01
        BYTE                   90
        BYTE   W01
        BYTE                   89
        BYTE   W01
        BYTE                   87
        BYTE   W01
        BYTE                   86
        BYTE   W01
        BYTE                   85
        BYTE   W01
        BYTE                   84
        BYTE   W01
        BYTE                   83
        BYTE   W01
        BYTE                   82
        BYTE   W01
        BYTE                   81
        BYTE   W01
        BYTE                   80
        BYTE   W01
        BYTE                   79
        BYTE   W01
        BYTE                   78
        BYTE   W01
        BYTE           N24
        BYTE           VOL     77
        BYTE   W01
        BYTE                   75
        BYTE   W01
        BYTE                   74
        BYTE   W01
        BYTE                   73
        BYTE   W01
        BYTE                   72
        BYTE   W01
        BYTE                   71
        BYTE   W01
        BYTE                   70
        BYTE   W01
        BYTE                   69
        BYTE   W01
        BYTE                   68
        BYTE   W01
        BYTE                   67
        BYTE   W01
        BYTE                   66
        BYTE   W01
        BYTE                   65
        BYTE   W01
        BYTE                   63
        BYTE   W01
        BYTE                   62
        BYTE   W01
        BYTE                   61
        BYTE   W01
        BYTE                   60
        BYTE   W01
        BYTE                   59
        BYTE   W01
        BYTE                   58
        BYTE   W01
        BYTE                   57
        BYTE   W01
        BYTE                   56
        BYTE   W01
        BYTE                   55
        BYTE   W01
        BYTE                   54
        BYTE   W01
        BYTE                   53
        BYTE   W01
        BYTE                   51
        BYTE   W01
// 040   ----------------------------------------
        BYTE           N24
        BYTE           VOL     50
        BYTE   W01
        BYTE                   49
        BYTE   W01
        BYTE                   48
        BYTE   W01
        BYTE                   47
        BYTE   W01
        BYTE                   46
        BYTE   W01
        BYTE                   45
        BYTE   W01
        BYTE                   44
        BYTE   W01
        BYTE                   43
        BYTE   W01
        BYTE                   42
        BYTE   W01
        BYTE                   40
        BYTE   W01
        BYTE                   39
        BYTE   W01
        BYTE                   38
        BYTE   W01
        BYTE                   37
        BYTE   W01
        BYTE                   36
        BYTE   W01
        BYTE                   35
        BYTE   W01
        BYTE                   34
        BYTE   W01
        BYTE                   33
        BYTE   W01
        BYTE                   32
        BYTE   W01
        BYTE                   31
        BYTE   W01
        BYTE                   30
        BYTE   W01
        BYTE                   28
        BYTE   W01
        BYTE                   27
        BYTE   W01
        BYTE                   26
        BYTE   W01
        BYTE                   25
        BYTE   W01
        BYTE           N24
        BYTE           VOL     24
        BYTE   W01
        BYTE                   23
        BYTE   W01
        BYTE                   22
        BYTE   W01
        BYTE                   21
        BYTE   W01
        BYTE                   20
        BYTE   W01
        BYTE                   19
        BYTE   W01
        BYTE                   18
        BYTE   W01
        BYTE                   16
        BYTE   W01
        BYTE                   15
        BYTE   W01
        BYTE                   14
        BYTE   W01
        BYTE                   13
        BYTE   W01
        BYTE                   12
        BYTE   W01
        BYTE                   11
        BYTE   W01
        BYTE                   10
        BYTE   W01
        BYTE                   9
        BYTE   W01
        BYTE                   8
        BYTE   W01
        BYTE                   7
        BYTE   W01
        BYTE                   6
        BYTE   W01
        BYTE                   4
        BYTE   W01
        BYTE                   3
        BYTE   W01
        BYTE                   2
        BYTE   W01
        BYTE                   1
        BYTE   W01
        BYTE                   0
        BYTE   W48
        BYTE   W01
        BYTE                   103
        BYTE   W01
// 041   ----------------------------------------
        BYTE           N24
        BYTE           VOL     102
        BYTE   W01
        BYTE                   101
        BYTE   W01
        BYTE                   100
        BYTE   W01
        BYTE                   99
        BYTE   W01
        BYTE                   98
        BYTE   W01
        BYTE                   97
        BYTE   W01
        BYTE                   96
        BYTE   W01
        BYTE                   95
        BYTE   W01
        BYTE                   94
        BYTE   W01
        BYTE                   93
        BYTE   W01
        BYTE                   92
        BYTE   W01
        BYTE                   90
        BYTE   W01
        BYTE                   89
        BYTE   W01
        BYTE                   88
        BYTE   W01
        BYTE                   87
        BYTE   W01
        BYTE                   86
        BYTE   W01
        BYTE                   85
        BYTE   W01
        BYTE                   84
        BYTE   W01
        BYTE                   83
        BYTE   W01
        BYTE                   82
        BYTE   W01
        BYTE                   81
        BYTE   W01
        BYTE                   80
        BYTE   W01
        BYTE                   79
        BYTE   W01
        BYTE                   78
        BYTE   W01
        BYTE           N24
        BYTE           VOL     76
        BYTE   W01
        BYTE                   75
        BYTE   W01
        BYTE                   74
        BYTE   W01
        BYTE                   73
        BYTE   W01
        BYTE                   72
        BYTE   W01
        BYTE                   71
        BYTE   W01
        BYTE                   70
        BYTE   W01
        BYTE                   69
        BYTE   W01
        BYTE                   68
        BYTE   W01
        BYTE                   67
        BYTE   W01
        BYTE                   66
        BYTE   W01
        BYTE                   65
        BYTE   W01
        BYTE                   64
        BYTE   W01
        BYTE                   63
        BYTE   W01
        BYTE                   61
        BYTE   W01
        BYTE                   60
        BYTE   W01
        BYTE                   59
        BYTE   W01
        BYTE                   58
        BYTE   W01
        BYTE                   57
        BYTE   W01
        BYTE                   56
        BYTE   W01
        BYTE                   55
        BYTE   W01
        BYTE                   54
        BYTE   W01
        BYTE                   53
        BYTE   W01
        BYTE                   52
        BYTE   W01
        BYTE           N24
        BYTE           VOL     51
        BYTE   W01
        BYTE                   50
        BYTE   W01
        BYTE                   49
        BYTE   W01
        BYTE                   48
        BYTE   W01
        BYTE                   46
        BYTE   W01
        BYTE                   45
        BYTE   W01
        BYTE                   44
        BYTE   W01
        BYTE                   43
        BYTE   W01
        BYTE                   42
        BYTE   W01
        BYTE                   41
        BYTE   W01
        BYTE                   40
        BYTE   W01
        BYTE                   39
        BYTE   W01
        BYTE                   38
        BYTE   W01
        BYTE                   37
        BYTE   W01
        BYTE                   36
        BYTE   W01
        BYTE                   35
        BYTE   W01
        BYTE                   34
        BYTE   W01
        BYTE                   33
        BYTE   W01
        BYTE                   31
        BYTE   W01
        BYTE                   30
        BYTE   W01
        BYTE                   29
        BYTE   W01
        BYTE                   28
        BYTE   W01
        BYTE                   27
        BYTE   W01
        BYTE                   26
        BYTE   W01
        BYTE           N24
        BYTE           VOL     25
        BYTE   W01
        BYTE                   24
        BYTE   W01
        BYTE                   23
        BYTE   W01
        BYTE                   22
        BYTE   W01
        BYTE                   21
        BYTE   W01
        BYTE                   20
        BYTE   W01
        BYTE                   19
        BYTE   W01
        BYTE                   17
        BYTE   W01
        BYTE                   16
        BYTE   W01
        BYTE                   15
        BYTE   W01
        BYTE                   14
        BYTE   W01
        BYTE                   13
        BYTE   W01
        BYTE                   12
        BYTE   W01
        BYTE                   11
        BYTE   W01
        BYTE                   10
        BYTE   W01
        BYTE                   9
        BYTE   W01
        BYTE                   8
        BYTE   W01
        BYTE                   7
        BYTE   W01
        BYTE                   6
        BYTE   W01
        BYTE                   5
        BYTE   W01
        BYTE                   4
        BYTE   W01
        BYTE                   2
        BYTE   W01
        BYTE                   1
        BYTE   W01
        BYTE                   0
        BYTE   W01
// 042   ----------------------------------------
WaterfallUT_7_42:
        BYTE   W48
        BYTE           N24     En2   v100
        BYTE           VOL     104
        BYTE   W01
        BYTE                   102
        BYTE   W01
        BYTE                   101
        BYTE   W01
        BYTE                   100
        BYTE   W01
        BYTE                   99
        BYTE   W01
        BYTE                   98
        BYTE   W01
        BYTE                   97
        BYTE   W01
        BYTE                   96
        BYTE   W01
        BYTE                   95
        BYTE   W01
        BYTE                   94
        BYTE   W01
        BYTE                   93
        BYTE   W01
        BYTE                   92
        BYTE   W01
        BYTE                   90
        BYTE   W01
        BYTE                   89
        BYTE   W01
        BYTE                   88
        BYTE   W01
        BYTE                   87
        BYTE   W01
        BYTE                   86
        BYTE   W01
        BYTE                   85
        BYTE   W01
        BYTE                   84
        BYTE   W01
        BYTE                   83
        BYTE   W01
        BYTE                   82
        BYTE   W01
        BYTE                   81
        BYTE   W01
        BYTE                   80
        BYTE   W01
        BYTE                   78
        BYTE   W01
        BYTE           N24
        BYTE           VOL     77
        BYTE   W01
        BYTE                   76
        BYTE   W01
        BYTE                   75
        BYTE   W01
        BYTE                   74
        BYTE   W01
        BYTE                   73
        BYTE   W01
        BYTE                   72
        BYTE   W01
        BYTE                   71
        BYTE   W01
        BYTE                   70
        BYTE   W01
        BYTE                   69
        BYTE   W01
        BYTE                   68
        BYTE   W01
        BYTE                   66
        BYTE   W01
        BYTE                   65
        BYTE   W01
        BYTE                   64
        BYTE   W01
        BYTE                   63
        BYTE   W01
        BYTE                   62
        BYTE   W01
        BYTE                   61
        BYTE   W01
        BYTE                   60
        BYTE   W01
        BYTE                   59
        BYTE   W01
        BYTE                   58
        BYTE   W01
        BYTE                   57
        BYTE   W01
        BYTE                   55
        BYTE   W01
        BYTE                   54
        BYTE   W01
        BYTE                   53
        BYTE   W01
        BYTE                   52
        BYTE   W01
        BYTE   PEND
// 043   ----------------------------------------
WaterfallUT_7_43:
        BYTE           N24     En2   v100
        BYTE           VOL     51
        BYTE   W01
        BYTE                   50
        BYTE   W01
        BYTE                   49
        BYTE   W01
        BYTE                   48
        BYTE   W01
        BYTE                   47
        BYTE   W01
        BYTE                   46
        BYTE   W01
        BYTE                   45
        BYTE   W01
        BYTE                   43
        BYTE   W01
        BYTE                   42
        BYTE   W01
        BYTE                   41
        BYTE   W01
        BYTE                   40
        BYTE   W01
        BYTE                   39
        BYTE   W01
        BYTE                   38
        BYTE   W01
        BYTE                   37
        BYTE   W01
        BYTE                   36
        BYTE   W01
        BYTE                   35
        BYTE   W01
        BYTE                   34
        BYTE   W01
        BYTE                   33
        BYTE   W01
        BYTE                   31
        BYTE   W01
        BYTE                   30
        BYTE   W01
        BYTE                   29
        BYTE   W01
        BYTE                   28
        BYTE   W01
        BYTE                   27
        BYTE   W01
        BYTE                   26
        BYTE   W01
        BYTE           N24
        BYTE           VOL     25
        BYTE   W01
        BYTE                   24
        BYTE   W01
        BYTE                   23
        BYTE   W01
        BYTE                   22
        BYTE   W01
        BYTE                   21
        BYTE   W01
        BYTE                   19
        BYTE   W01
        BYTE                   18
        BYTE   W01
        BYTE                   17
        BYTE   W01
        BYTE                   16
        BYTE   W01
        BYTE                   15
        BYTE   W01
        BYTE                   14
        BYTE   W01
        BYTE                   13
        BYTE   W01
        BYTE                   12
        BYTE   W01
        BYTE                   11
        BYTE   W01
        BYTE                   10
        BYTE   W01
        BYTE                   9
        BYTE   W01
        BYTE                   7
        BYTE   W01
        BYTE                   6
        BYTE   W01
        BYTE                   5
        BYTE   W01
        BYTE                   4
        BYTE   W01
        BYTE                   3
        BYTE   W01
        BYTE                   2
        BYTE   W01
        BYTE                   1
        BYTE   W01
        BYTE                   0
        BYTE   W48
        BYTE   W01
        BYTE   PEND
// 044   ----------------------------------------
WaterfallUT_7_44:
        BYTE           N24     En2   v100
        BYTE           VOL     103
        BYTE   W01
        BYTE                   102
        BYTE   W01
        BYTE                   101
        BYTE   W01
        BYTE                   100
        BYTE   W01
        BYTE                   99
        BYTE   W01
        BYTE                   98
        BYTE   W01
        BYTE                   96
        BYTE   W01
        BYTE                   95
        BYTE   W01
        BYTE                   94
        BYTE   W01
        BYTE                   93
        BYTE   W01
        BYTE                   92
        BYTE   W01
        BYTE                   91
        BYTE   W01
        BYTE                   90
        BYTE   W01
        BYTE                   89
        BYTE   W01
        BYTE                   88
        BYTE   W01
        BYTE                   87
        BYTE   W01
        BYTE                   86
        BYTE   W01
        BYTE                   85
        BYTE   W01
        BYTE                   83
        BYTE   W01
        BYTE                   82
        BYTE   W01
        BYTE                   81
        BYTE   W01
        BYTE                   80
        BYTE   W01
        BYTE                   79
        BYTE   W01
        BYTE                   78
        BYTE   W01
        BYTE           N24
        BYTE           VOL     77
        BYTE   W01
        BYTE                   76
        BYTE   W01
        BYTE                   75
        BYTE   W01
        BYTE                   74
        BYTE   W01
        BYTE                   73
        BYTE   W01
        BYTE                   71
        BYTE   W01
        BYTE                   70
        BYTE   W01
        BYTE                   69
        BYTE   W01
        BYTE                   68
        BYTE   W01
        BYTE                   67
        BYTE   W01
        BYTE                   66
        BYTE   W01
        BYTE                   65
        BYTE   W01
        BYTE                   64
        BYTE   W01
        BYTE                   63
        BYTE   W01
        BYTE                   62
        BYTE   W01
        BYTE                   61
        BYTE   W01
        BYTE                   59
        BYTE   W01
        BYTE                   58
        BYTE   W01
        BYTE                   57
        BYTE   W01
        BYTE                   56
        BYTE   W01
        BYTE                   55
        BYTE   W01
        BYTE                   54
        BYTE   W01
        BYTE                   53
        BYTE   W01
        BYTE                   52
        BYTE   W01
        BYTE           N24
        BYTE           VOL     51
        BYTE   W01
        BYTE                   50
        BYTE   W01
        BYTE                   49
        BYTE   W01
        BYTE                   47
        BYTE   W01
        BYTE                   46
        BYTE   W01
        BYTE                   45
        BYTE   W01
        BYTE                   44
        BYTE   W01
        BYTE                   43
        BYTE   W01
        BYTE                   42
        BYTE   W01
        BYTE                   41
        BYTE   W01
        BYTE                   40
        BYTE   W01
        BYTE                   39
        BYTE   W01
        BYTE                   38
        BYTE   W01
        BYTE                   37
        BYTE   W01
        BYTE                   35
        BYTE   W01
        BYTE                   34
        BYTE   W01
        BYTE                   33
        BYTE   W01
        BYTE                   32
        BYTE   W01
        BYTE                   31
        BYTE   W01
        BYTE                   30
        BYTE   W01
        BYTE                   29
        BYTE   W01
        BYTE                   28
        BYTE   W01
        BYTE                   27
        BYTE   W01
        BYTE                   26
        BYTE   W01
        BYTE           N24
        BYTE           VOL     25
        BYTE   W01
        BYTE                   23
        BYTE   W01
        BYTE                   22
        BYTE   W01
        BYTE                   21
        BYTE   W01
        BYTE                   20
        BYTE   W01
        BYTE                   19
        BYTE   W01
        BYTE                   18
        BYTE   W01
        BYTE                   17
        BYTE   W01
        BYTE                   16
        BYTE   W01
        BYTE                   15
        BYTE   W01
        BYTE                   14
        BYTE   W01
        BYTE                   13
        BYTE   W01
        BYTE                   11
        BYTE   W01
        BYTE                   10
        BYTE   W01
        BYTE                   9
        BYTE   W01
        BYTE                   8
        BYTE   W01
        BYTE                   7
        BYTE   W01
        BYTE                   6
        BYTE   W01
        BYTE                   5
        BYTE   W01
        BYTE                   4
        BYTE   W01
        BYTE                   3
        BYTE   W01
        BYTE                   2
        BYTE   W01
        BYTE                   1
        BYTE   W01
        BYTE                   0
        BYTE   W01
        BYTE   PEND
// 045   ----------------------------------------
        BYTE   W48
        BYTE           N24
        BYTE           VOL     103
        BYTE   W01
        BYTE                   102
        BYTE   W01
        BYTE                   101
        BYTE   W01
        BYTE                   100
        BYTE   W01
        BYTE                   98
        BYTE   W01
        BYTE                   97
        BYTE   W01
        BYTE                   96
        BYTE   W01
        BYTE                   95
        BYTE   W01
        BYTE                   94
        BYTE   W01
        BYTE                   93
        BYTE   W01
        BYTE                   92
        BYTE   W01
        BYTE                   91
        BYTE   W01
        BYTE                   90
        BYTE   W01
        BYTE                   89
        BYTE   W01
        BYTE                   88
        BYTE   W01
        BYTE                   87
        BYTE   W01
        BYTE                   85
        BYTE   W01
        BYTE                   84
        BYTE   W01
        BYTE                   83
        BYTE   W01
        BYTE                   82
        BYTE   W01
        BYTE                   81
        BYTE   W01
        BYTE                   80
        BYTE   W01
        BYTE                   79
        BYTE   W01
        BYTE                   78
        BYTE   W01
        BYTE           N24
        BYTE           VOL     77
        BYTE   W01
        BYTE                   76
        BYTE   W01
        BYTE                   75
        BYTE   W01
        BYTE                   73
        BYTE   W01
        BYTE                   72
        BYTE   W01
        BYTE                   71
        BYTE   W01
        BYTE                   70
        BYTE   W01
        BYTE                   69
        BYTE   W01
        BYTE                   68
        BYTE   W01
        BYTE                   67
        BYTE   W01
        BYTE                   66
        BYTE   W01
        BYTE                   65
        BYTE   W01
        BYTE                   64
        BYTE   W01
        BYTE                   63
        BYTE   W01
        BYTE                   62
        BYTE   W01
        BYTE                   60
        BYTE   W01
        BYTE                   59
        BYTE   W01
        BYTE                   58
        BYTE   W01
        BYTE                   57
        BYTE   W01
        BYTE                   56
        BYTE   W01
        BYTE                   55
        BYTE   W01
        BYTE                   54
        BYTE   W01
        BYTE                   53
        BYTE   W01
        BYTE                   52
        BYTE   W01
// 046   ----------------------------------------
        BYTE           N24
        BYTE           VOL     51
        BYTE   W01
        BYTE                   50
        BYTE   W01
        BYTE                   49
        BYTE   W01
        BYTE                   47
        BYTE   W01
        BYTE                   46
        BYTE   W01
        BYTE                   45
        BYTE   W01
        BYTE                   44
        BYTE   W01
        BYTE                   43
        BYTE   W01
        BYTE                   42
        BYTE   W01
        BYTE                   41
        BYTE   W01
        BYTE                   40
        BYTE   W01
        BYTE                   39
        BYTE   W01
        BYTE                   38
        BYTE   W01
        BYTE                   37
        BYTE   W01
        BYTE                   36
        BYTE   W01
        BYTE                   34
        BYTE   W01
        BYTE                   33
        BYTE   W01
        BYTE                   32
        BYTE   W01
        BYTE                   31
        BYTE   W01
        BYTE                   30
        BYTE   W01
        BYTE                   29
        BYTE   W01
        BYTE                   28
        BYTE   W01
        BYTE                   27
        BYTE   W01
        BYTE                   26
        BYTE   W01
        BYTE           N24
        BYTE           VOL     25
        BYTE   W01
        BYTE                   24
        BYTE   W01
        BYTE                   23
        BYTE   W01
        BYTE                   21
        BYTE   W01
        BYTE                   20
        BYTE   W01
        BYTE                   19
        BYTE   W01
        BYTE                   18
        BYTE   W01
        BYTE                   17
        BYTE   W01
        BYTE                   16
        BYTE   W01
        BYTE                   15
        BYTE   W01
        BYTE                   14
        BYTE   W01
        BYTE                   13
        BYTE   W01
        BYTE                   12
        BYTE   W01
        BYTE                   11
        BYTE   W01
        BYTE                   10
        BYTE   W01
        BYTE                   8
        BYTE   W01
        BYTE                   7
        BYTE   W01
        BYTE                   6
        BYTE   W01
        BYTE                   5
        BYTE   W01
        BYTE                   4
        BYTE   W01
        BYTE                   3
        BYTE   W01
        BYTE                   2
        BYTE   W01
        BYTE                   1
        BYTE   W01
        BYTE                   0
        BYTE   W48
        BYTE   W01
// 047   ----------------------------------------
        BYTE           N24
        BYTE           VOL     103
        BYTE   W01
        BYTE                   102
        BYTE   W01
        BYTE                   101
        BYTE   W01
        BYTE                   100
        BYTE   W01
        BYTE                   98
        BYTE   W01
        BYTE                   97
        BYTE   W01
        BYTE                   96
        BYTE   W01
        BYTE                   95
        BYTE   W01
        BYTE                   94
        BYTE   W01
        BYTE                   93
        BYTE   W01
        BYTE                   92
        BYTE   W01
        BYTE                   91
        BYTE   W01
        BYTE                   90
        BYTE   W01
        BYTE                   89
        BYTE   W01
        BYTE                   88
        BYTE   W01
        BYTE                   87
        BYTE   W01
        BYTE                   85
        BYTE   W01
        BYTE                   84
        BYTE   W01
        BYTE                   83
        BYTE   W01
        BYTE                   82
        BYTE   W01
        BYTE                   81
        BYTE   W01
        BYTE                   80
        BYTE   W01
        BYTE                   79
        BYTE   W01
        BYTE                   78
        BYTE   W01
        BYTE           N24
        BYTE           VOL     77
        BYTE   W01
        BYTE                   76
        BYTE   W01
        BYTE                   75
        BYTE   W01
        BYTE                   73
        BYTE   W01
        BYTE                   72
        BYTE   W01
        BYTE                   71
        BYTE   W01
        BYTE                   70
        BYTE   W01
        BYTE                   69
        BYTE   W01
        BYTE                   68
        BYTE   W01
        BYTE                   67
        BYTE   W01
        BYTE                   66
        BYTE   W01
        BYTE                   65
        BYTE   W01
        BYTE                   64
        BYTE   W01
        BYTE                   63
        BYTE   W01
        BYTE                   62
        BYTE   W01
        BYTE                   60
        BYTE   W01
        BYTE                   59
        BYTE   W01
        BYTE                   58
        BYTE   W01
        BYTE                   57
        BYTE   W01
        BYTE                   56
        BYTE   W01
        BYTE                   55
        BYTE   W01
        BYTE                   54
        BYTE   W01
        BYTE                   53
        BYTE   W01
        BYTE                   52
        BYTE   W01
        BYTE           N24
        BYTE           VOL     51
        BYTE   W01
        BYTE                   50
        BYTE   W01
        BYTE                   49
        BYTE   W01
        BYTE                   47
        BYTE   W01
        BYTE                   46
        BYTE   W01
        BYTE                   45
        BYTE   W01
        BYTE                   44
        BYTE   W01
        BYTE                   43
        BYTE   W01
        BYTE                   42
        BYTE   W01
        BYTE                   41
        BYTE   W01
        BYTE                   40
        BYTE   W01
        BYTE                   39
        BYTE   W01
        BYTE                   38
        BYTE   W01
        BYTE                   37
        BYTE   W01
        BYTE                   36
        BYTE   W01
        BYTE                   34
        BYTE   W01
        BYTE                   33
        BYTE   W01
        BYTE                   32
        BYTE   W01
        BYTE                   31
        BYTE   W01
        BYTE                   30
        BYTE   W01
        BYTE                   29
        BYTE   W01
        BYTE                   28
        BYTE   W01
        BYTE                   27
        BYTE   W01
        BYTE                   26
        BYTE   W01
        BYTE           N24
        BYTE           VOL     25
        BYTE   W01
        BYTE                   24
        BYTE   W01
        BYTE                   23
        BYTE   W01
        BYTE                   21
        BYTE   W01
        BYTE                   20
        BYTE   W01
        BYTE                   19
        BYTE   W01
        BYTE                   18
        BYTE   W01
        BYTE                   17
        BYTE   W01
        BYTE                   16
        BYTE   W01
        BYTE                   15
        BYTE   W01
        BYTE                   14
        BYTE   W01
        BYTE                   13
        BYTE   W01
        BYTE                   12
        BYTE   W01
        BYTE                   11
        BYTE   W01
        BYTE                   10
        BYTE   W01
        BYTE                   8
        BYTE   W01
        BYTE                   7
        BYTE   W01
        BYTE                   6
        BYTE   W01
        BYTE                   5
        BYTE   W01
        BYTE                   4
        BYTE   W01
        BYTE                   3
        BYTE   W01
        BYTE                   2
        BYTE   W01
        BYTE                   1
        BYTE   W01
        BYTE                   0
        BYTE   W01
// 048   ----------------------------------------
        BYTE   W48
        BYTE           N24
        BYTE           VOL     104
        BYTE   W01
        BYTE                   102
        BYTE   W01
        BYTE                   101
        BYTE   W01
        BYTE                   100
        BYTE   W01
        BYTE                   99
        BYTE   W01
        BYTE                   98
        BYTE   W01
        BYTE                   97
        BYTE   W01
        BYTE                   96
        BYTE   W01
        BYTE                   95
        BYTE   W01
        BYTE                   94
        BYTE   W01
        BYTE                   93
        BYTE   W01
        BYTE                   92
        BYTE   W01
        BYTE                   90
        BYTE   W01
        BYTE                   89
        BYTE   W01
        BYTE                   88
        BYTE   W01
        BYTE                   87
        BYTE   W01
        BYTE                   86
        BYTE   W01
        BYTE                   85
        BYTE   W01
        BYTE                   84
        BYTE   W01
        BYTE                   83
        BYTE   W01
        BYTE                   82
        BYTE   W01
        BYTE                   81
        BYTE   W01
        BYTE                   79
        BYTE   W01
        BYTE                   78
        BYTE   W01
        BYTE           N24
        BYTE           VOL     77
        BYTE   W01
        BYTE                   76
        BYTE   W01
        BYTE                   75
        BYTE   W01
        BYTE                   74
        BYTE   W01
        BYTE                   73
        BYTE   W01
        BYTE                   72
        BYTE   W01
        BYTE                   71
        BYTE   W01
        BYTE                   70
        BYTE   W01
        BYTE                   69
        BYTE   W01
        BYTE                   67
        BYTE   W01
        BYTE                   66
        BYTE   W01
        BYTE                   65
        BYTE   W01
        BYTE                   64
        BYTE   W01
        BYTE                   63
        BYTE   W01
        BYTE                   62
        BYTE   W01
        BYTE                   61
        BYTE   W01
        BYTE                   60
        BYTE   W01
        BYTE                   59
        BYTE   W01
        BYTE                   58
        BYTE   W01
        BYTE                   56
        BYTE   W01
        BYTE                   55
        BYTE   W01
        BYTE                   54
        BYTE   W01
        BYTE                   53
        BYTE   W01
        BYTE                   52
        BYTE   W01
// 049   ----------------------------------------
        BYTE           N24
        BYTE           VOL     51
        BYTE   W01
        BYTE                   50
        BYTE   W01
        BYTE                   49
        BYTE   W01
        BYTE                   48
        BYTE   W01
        BYTE                   47
        BYTE   W01
        BYTE                   46
        BYTE   W01
        BYTE                   44
        BYTE   W01
        BYTE                   43
        BYTE   W01
        BYTE                   42
        BYTE   W01
        BYTE                   41
        BYTE   W01
        BYTE                   40
        BYTE   W01
        BYTE                   39
        BYTE   W01
        BYTE                   38
        BYTE   W01
        BYTE                   37
        BYTE   W01
        BYTE                   36
        BYTE   W01
        BYTE                   35
        BYTE   W01
        BYTE                   33
        BYTE   W01
        BYTE                   32
        BYTE   W01
        BYTE                   31
        BYTE   W01
        BYTE                   30
        BYTE   W01
        BYTE                   29
        BYTE   W01
        BYTE                   28
        BYTE   W01
        BYTE                   27
        BYTE   W01
        BYTE                   26
        BYTE   W01
        BYTE           N24
        BYTE           VOL     25
        BYTE   W01
        BYTE                   24
        BYTE   W01
        BYTE                   23
        BYTE   W01
        BYTE                   21
        BYTE   W01
        BYTE                   20
        BYTE   W01
        BYTE                   19
        BYTE   W01
        BYTE                   18
        BYTE   W01
        BYTE                   17
        BYTE   W01
        BYTE                   16
        BYTE   W01
        BYTE                   15
        BYTE   W01
        BYTE                   14
        BYTE   W01
        BYTE                   13
        BYTE   W01
        BYTE                   12
        BYTE   W01
        BYTE                   10
        BYTE   W01
        BYTE                   9
        BYTE   W01
        BYTE                   8
        BYTE   W01
        BYTE                   7
        BYTE   W01
        BYTE                   6
        BYTE   W01
        BYTE                   5
        BYTE   W01
        BYTE                   4
        BYTE   W01
        BYTE                   3
        BYTE   W01
        BYTE                   2
        BYTE   W01
        BYTE                   1
        BYTE   W01
        BYTE                   0
        BYTE   W48
        BYTE   W01
// 050   ----------------------------------------
        BYTE           N24
        BYTE           VOL     104
        BYTE   W01
        BYTE                   102
        BYTE   W01
        BYTE                   101
        BYTE   W01
        BYTE                   100
        BYTE   W01
        BYTE                   99
        BYTE   W01
        BYTE                   98
        BYTE   W01
        BYTE                   97
        BYTE   W01
        BYTE                   96
        BYTE   W01
        BYTE                   95
        BYTE   W01
        BYTE                   94
        BYTE   W01
        BYTE                   93
        BYTE   W01
        BYTE                   92
        BYTE   W01
        BYTE                   90
        BYTE   W01
        BYTE                   89
        BYTE   W01
        BYTE                   88
        BYTE   W01
        BYTE                   87
        BYTE   W01
        BYTE                   86
        BYTE   W01
        BYTE                   85
        BYTE   W01
        BYTE                   84
        BYTE   W01
        BYTE                   83
        BYTE   W01
        BYTE                   82
        BYTE   W01
        BYTE                   81
        BYTE   W01
        BYTE                   79
        BYTE   W01
        BYTE                   78
        BYTE   W01
        BYTE           N24
        BYTE           VOL     77
        BYTE   W01
        BYTE                   76
        BYTE   W01
        BYTE                   75
        BYTE   W01
        BYTE                   74
        BYTE   W01
        BYTE                   73
        BYTE   W01
        BYTE                   72
        BYTE   W01
        BYTE                   71
        BYTE   W01
        BYTE                   70
        BYTE   W01
        BYTE                   69
        BYTE   W01
        BYTE                   67
        BYTE   W01
        BYTE                   66
        BYTE   W01
        BYTE                   65
        BYTE   W01
        BYTE                   64
        BYTE   W01
        BYTE                   63
        BYTE   W01
        BYTE                   62
        BYTE   W01
        BYTE                   61
        BYTE   W01
        BYTE                   60
        BYTE   W01
        BYTE                   59
        BYTE   W01
        BYTE                   58
        BYTE   W01
        BYTE                   56
        BYTE   W01
        BYTE                   55
        BYTE   W01
        BYTE                   54
        BYTE   W01
        BYTE                   53
        BYTE   W01
        BYTE                   52
        BYTE   W01
        BYTE           N24
        BYTE           VOL     51
        BYTE   W01
        BYTE                   50
        BYTE   W01
        BYTE                   49
        BYTE   W01
        BYTE                   48
        BYTE   W01
        BYTE                   47
        BYTE   W01
        BYTE                   46
        BYTE   W01
        BYTE                   44
        BYTE   W01
        BYTE                   43
        BYTE   W01
        BYTE                   42
        BYTE   W01
        BYTE                   41
        BYTE   W01
        BYTE                   40
        BYTE   W01
        BYTE                   39
        BYTE   W01
        BYTE                   38
        BYTE   W01
        BYTE                   37
        BYTE   W01
        BYTE                   36
        BYTE   W01
        BYTE                   35
        BYTE   W01
        BYTE                   33
        BYTE   W01
        BYTE                   32
        BYTE   W01
        BYTE                   31
        BYTE   W01
        BYTE                   30
        BYTE   W01
        BYTE                   29
        BYTE   W01
        BYTE                   28
        BYTE   W01
        BYTE                   27
        BYTE   W01
        BYTE                   26
        BYTE   W01
        BYTE           N24
        BYTE           VOL     25
        BYTE   W01
        BYTE                   24
        BYTE   W01
        BYTE                   23
        BYTE   W01
        BYTE                   21
        BYTE   W01
        BYTE                   20
        BYTE   W01
        BYTE                   19
        BYTE   W01
        BYTE                   18
        BYTE   W01
        BYTE                   17
        BYTE   W01
        BYTE                   16
        BYTE   W01
        BYTE                   15
        BYTE   W01
        BYTE                   14
        BYTE   W01
        BYTE                   13
        BYTE   W01
        BYTE                   12
        BYTE   W01
        BYTE                   10
        BYTE   W01
        BYTE                   9
        BYTE   W01
        BYTE                   8
        BYTE   W01
        BYTE                   7
        BYTE   W01
        BYTE                   6
        BYTE   W01
        BYTE                   5
        BYTE   W01
        BYTE                   4
        BYTE   W01
        BYTE                   3
        BYTE   W01
        BYTE                   2
        BYTE   W01
        BYTE                   1
        BYTE   W01
        BYTE                   0
        BYTE   W01
// 051   ----------------------------------------
        BYTE   PATT
         POIN2  WaterfallUT_7_42
// 052   ----------------------------------------
        BYTE   PATT
         POIN2  WaterfallUT_7_43
// 053   ----------------------------------------
        BYTE   PATT
         POIN2  WaterfallUT_7_44
// 054   ----------------------------------------
        BYTE   W48
        BYTE           N24     En2   v100
        BYTE           VOL     103
        BYTE   W01
        BYTE                   101
        BYTE   W01
        BYTE                   100
        BYTE   W01
        BYTE                   99
        BYTE   W01
        BYTE                   98
        BYTE   W01
        BYTE                   97
        BYTE   W01
        BYTE                   96
        BYTE   W01
        BYTE                   95
        BYTE   W01
        BYTE                   94
        BYTE   W01
        BYTE                   93
        BYTE   W01
        BYTE                   92
        BYTE   W01
        BYTE                   91
        BYTE   W01
        BYTE                   90
        BYTE   W01
        BYTE                   88
        BYTE   W01
        BYTE                   87
        BYTE   W01
        BYTE                   86
        BYTE   W01
        BYTE                   85
        BYTE   W01
        BYTE                   84
        BYTE   W01
        BYTE                   83
        BYTE   W01
        BYTE                   82
        BYTE   W01
        BYTE                   81
        BYTE   W01
        BYTE                   80
        BYTE   W01
        BYTE                   79
        BYTE   W01
        BYTE                   78
        BYTE   W01
        BYTE           N24
        BYTE           VOL     77
        BYTE   W01
        BYTE                   76
        BYTE   W01
        BYTE                   74
        BYTE   W01
        BYTE                   73
        BYTE   W01
        BYTE                   72
        BYTE   W01
        BYTE                   71
        BYTE   W01
        BYTE                   70
        BYTE   W01
        BYTE                   69
        BYTE   W01
        BYTE                   68
        BYTE   W01
        BYTE                   67
        BYTE   W01
        BYTE                   66
        BYTE   W01
        BYTE                   65
        BYTE   W01
        BYTE                   64
        BYTE   W01
        BYTE                   63
        BYTE   W01
        BYTE                   62
        BYTE   W01
        BYTE                   60
        BYTE   W01
        BYTE                   59
        BYTE   W01
        BYTE                   58
        BYTE   W01
        BYTE                   57
        BYTE   W01
        BYTE                   56
        BYTE   W01
        BYTE                   55
        BYTE   W01
        BYTE                   54
        BYTE   W01
        BYTE                   53
        BYTE   W01
        BYTE                   52
        BYTE   W01
// 055   ----------------------------------------
        BYTE           N24
        BYTE           VOL     51
        BYTE   W01
        BYTE                   50
        BYTE   W01
        BYTE                   49
        BYTE   W01
        BYTE                   48
        BYTE   W01
        BYTE                   46
        BYTE   W01
        BYTE                   45
        BYTE   W01
        BYTE                   44
        BYTE   W01
        BYTE                   43
        BYTE   W01
        BYTE                   42
        BYTE   W01
        BYTE                   41
        BYTE   W01
        BYTE                   40
        BYTE   W01
        BYTE                   39
        BYTE   W01
        BYTE                   38
        BYTE   W01
        BYTE                   37
        BYTE   W01
        BYTE                   36
        BYTE   W01
        BYTE                   35
        BYTE   W01
        BYTE                   33
        BYTE   W01
        BYTE                   32
        BYTE   W01
        BYTE                   31
        BYTE   W01
        BYTE                   30
        BYTE   W01
        BYTE                   29
        BYTE   W01
        BYTE                   28
        BYTE   W01
        BYTE                   27
        BYTE   W01
        BYTE                   26
        BYTE   W01
        BYTE           N24
        BYTE           VOL     25
        BYTE   W01
        BYTE                   24
        BYTE   W01
        BYTE                   23
        BYTE   W01
        BYTE                   22
        BYTE   W01
        BYTE                   21
        BYTE   W01
        BYTE                   19
        BYTE   W01
        BYTE                   18
        BYTE   W01
        BYTE                   17
        BYTE   W01
        BYTE                   16
        BYTE   W01
        BYTE                   15
        BYTE   W01
        BYTE                   14
        BYTE   W01
        BYTE                   13
        BYTE   W01
        BYTE                   12
        BYTE   W01
        BYTE                   11
        BYTE   W01
        BYTE                   10
        BYTE   W01
        BYTE                   9
        BYTE   W01
        BYTE                   8
        BYTE   W01
        BYTE                   7
        BYTE   W01
        BYTE                   5
        BYTE   W01
        BYTE                   4
        BYTE   W01
        BYTE                   3
        BYTE   W01
        BYTE                   2
        BYTE   W01
        BYTE                   1
        BYTE   W01
        BYTE                   0
        BYTE   W48
        BYTE   W01
// 056   ----------------------------------------
        BYTE   W96
// 057   ----------------------------------------
        BYTE   W96
// 058   ----------------------------------------
        BYTE   W96
// 059   ----------------------------------------
        BYTE   W96
// 060   ----------------------------------------
        BYTE   W96
// 061   ----------------------------------------
        BYTE   W96
// 062   ----------------------------------------
        BYTE   W96
// 063   ----------------------------------------
        BYTE   W96
// 064   ----------------------------------------
        BYTE   GoTo
         POIN2  WaterfallUT_7_LOOP
        BYTE   FINE

//****************** Track 8 (Midi-Chn.6) ******************//

WaterfallUT_8:
        BYTE   KEYSH   WaterfallUT_key+0
// 000   ----------------------------------------
WaterfallUT_8_LOOP:
        BYTE           VOL     127
        BYTE           VOICE   47
        BYTE           BENDR   12
        BYTE   W96
// 001   ----------------------------------------
        BYTE   W96
// 002   ----------------------------------------
        BYTE   W96
// 003   ----------------------------------------
        BYTE   W96
// 004   ----------------------------------------
        BYTE   W96
// 005   ----------------------------------------
        BYTE   W96
// 006   ----------------------------------------
        BYTE   W96
// 007   ----------------------------------------
        BYTE   W96
// 008   ----------------------------------------
        BYTE   W96
// 009   ----------------------------------------
        BYTE   W96
// 010   ----------------------------------------
        BYTE   W96
// 011   ----------------------------------------
        BYTE   W96
// 012   ----------------------------------------
        BYTE   W96
// 013   ----------------------------------------
        BYTE   W96
// 014   ----------------------------------------
        BYTE   W96
// 015   ----------------------------------------
        BYTE   W96
// 016   ----------------------------------------
        BYTE   W96
// 017   ----------------------------------------
        BYTE   W96
// 018   ----------------------------------------
        BYTE   W96
// 019   ----------------------------------------
        BYTE   W96
// 020   ----------------------------------------
        BYTE   W96
// 021   ----------------------------------------
        BYTE   W96
// 022   ----------------------------------------
        BYTE   W96
// 023   ----------------------------------------
        BYTE   W96
// 024   ----------------------------------------
        BYTE   W96
// 025   ----------------------------------------
        BYTE   W96
// 026   ----------------------------------------
        BYTE   W96
// 027   ----------------------------------------
        BYTE   W96
// 028   ----------------------------------------
        BYTE   W96
// 029   ----------------------------------------
        BYTE   W96
// 030   ----------------------------------------
        BYTE   W96
// 031   ----------------------------------------
WaterfallUT_8_31:
        BYTE   W72
        BYTE           N24     Dn1   v100
        BYTE   W24
        BYTE   PEND
// 032   ----------------------------------------
        BYTE                   En1
        BYTE   W96
// 033   ----------------------------------------
WaterfallUT_8_33:
        BYTE   W24
        BYTE           N24     Dn1   v100
        BYTE   W24
        BYTE                   En1
        BYTE   W48
        BYTE   PEND
// 034   ----------------------------------------
WaterfallUT_8_34:
        BYTE   W48
        BYTE           N24     Dn1   v100
        BYTE   W24
        BYTE                   Dn1
        BYTE   W24
        BYTE   PEND
// 035   ----------------------------------------
        BYTE                   En1
        BYTE   W96
// 036   ----------------------------------------
        BYTE   PATT
         POIN2  WaterfallUT_8_33
// 037   ----------------------------------------
        BYTE   PATT
         POIN2  WaterfallUT_8_31
// 038   ----------------------------------------
        BYTE           N24     En1   v100
        BYTE   W96
// 039   ----------------------------------------
        BYTE   PATT
         POIN2  WaterfallUT_8_33
// 040   ----------------------------------------
        BYTE   PATT
         POIN2  WaterfallUT_8_34
// 041   ----------------------------------------
        BYTE           N24     En1   v100
        BYTE   W96
// 042   ----------------------------------------
        BYTE   PATT
         POIN2  WaterfallUT_8_33
// 043   ----------------------------------------
        BYTE   PATT
         POIN2  WaterfallUT_8_31
// 044   ----------------------------------------
        BYTE           N24     En1   v100
        BYTE   W96
// 045   ----------------------------------------
        BYTE   PATT
         POIN2  WaterfallUT_8_33
// 046   ----------------------------------------
        BYTE   PATT
         POIN2  WaterfallUT_8_34
// 047   ----------------------------------------
        BYTE           N24     En1   v100
        BYTE   W96
// 048   ----------------------------------------
        BYTE   PATT
         POIN2  WaterfallUT_8_33
// 049   ----------------------------------------
        BYTE   PATT
         POIN2  WaterfallUT_8_31
// 050   ----------------------------------------
        BYTE           N24     En1   v100
        BYTE   W96
// 051   ----------------------------------------
        BYTE   PATT
         POIN2  WaterfallUT_8_33
// 052   ----------------------------------------
        BYTE   PATT
         POIN2  WaterfallUT_8_34
// 053   ----------------------------------------
        BYTE           N24     En1   v100
        BYTE   W96
// 054   ----------------------------------------
        BYTE   PATT
         POIN2  WaterfallUT_8_33
// 055   ----------------------------------------
        BYTE   W96
// 056   ----------------------------------------
        BYTE   W96
// 057   ----------------------------------------
        BYTE   W96
// 058   ----------------------------------------
        BYTE   W96
// 059   ----------------------------------------
        BYTE   W96
// 060   ----------------------------------------
        BYTE   W96
// 061   ----------------------------------------
        BYTE   W96
// 062   ----------------------------------------
        BYTE   W96
// 063   ----------------------------------------
        BYTE   W96
// 064   ----------------------------------------
        BYTE   GoTo
         POIN2  WaterfallUT_8_LOOP
        BYTE   FINE


//********************** End of Song ***********************//

        ALIGN 4
WaterfallUT:
        BYTE   9                       // Num Tracks
        BYTE   0                       // Unknown
        BYTE   WaterfallUT_pri         // Priority
        BYTE   WaterfallUT_rev         // Reverb

        POIN2   WaterfallUT_grp        

        POIN2   WaterfallUT_0
        POIN2   WaterfallUT_1
        POIN2   WaterfallUT_2
        POIN2   WaterfallUT_3
        POIN2   WaterfallUT_4
        POIN2   WaterfallUT_5
        POIN2   WaterfallUT_6
        POIN2   WaterfallUT_7
        POIN2   WaterfallUT_8

        
