//Event file generated from Sappy .s format.
	#include "MPlayDef.event"

	#define	song1C_grp  voicegroup000
	#define	song1C_pri  0
	#define	song1C_rev  0
	#define	song1C_mvl  127
	#define	song1C_key  0
	#define	song1C_tbs  1
	#define	song1C_exg  0
	#define	song1C_cmp  1

	// .rodata
	//	song1C
	ALIGN 4


//**************** Track 1 (Midi-Chn.0) ****************//

song1C_001:
//  #01 //000   ----------------------------------------
 BYTE   KEYSH   song1C_key+0
 BYTE   TEMPO   176*song1C_tbs/2
 BYTE   VOICE   40
 BYTE   VOL   19*song1C_mvl/mxv
 BYTE   PAN   c_v+0
 BYTE   VOL   1*song1C_mvl/mxv
 BYTE   PAN   c_v+0
 BYTE   VOL   12*song1C_mvl/mxv
 BYTE   PAN   c_v+0
 BYTE   VOL   30*song1C_mvl/mxv
 BYTE   PAN   c_v+0
 BYTE   VOL   30*song1C_mvl/mxv
 BYTE   PAN   c_v+0
 BYTE   N02  Fn1  v096
 BYTE   N02  As1
 BYTE   N02  Fn2
 BYTE   N02  As2
 BYTE   W06
 BYTE   Fn1
 BYTE   N02  As1
 BYTE   N02  Fn2
 BYTE   N02  As2
 BYTE   W06
Label_0116B8CC:
 BYTE   TIE  Fn1  v096
 BYTE   TIE  As1
 BYTE   TIE  Fn2
 BYTE   N24  As2
 BYTE   N11  Fn3
 BYTE   W12
 BYTE   Cs3
 BYTE   W12
 BYTE   As2
 BYTE   W12
 BYTE   N23  Fs3
 BYTE   W12
 BYTE   W12
 BYTE   N11  Dn3
 BYTE   W12
 BYTE   N23  Bn2
 BYTE   W24
//  #01 //001   ----------------------------------------
 BYTE   N11  Fn3
 BYTE   W12
 BYTE   Cs3
 BYTE   W12
 BYTE   As2
 BYTE   W12
 BYTE   N23  En3
 BYTE   W12
 BYTE   W12
 BYTE   N11  Cn3
 BYTE   W12
 BYTE   N23  An2
 BYTE   W24
//  #01 //002   ----------------------------------------
 BYTE   N11  Fn3
 BYTE   W12
 BYTE   Cs3
 BYTE   W12
 BYTE   As2
 BYTE   W12
 BYTE   N23  Fs3
 BYTE   W12
 BYTE   W12
 BYTE   N11  Dn3
 BYTE   W12
 BYTE   N23  Bn2
 BYTE   W24
//  #01 //003   ----------------------------------------
 BYTE   N11  Gn3
 BYTE   W12
 BYTE   En3
 BYTE   W12
 BYTE   Cn3
 BYTE   W12
 BYTE   N23  An3
 BYTE   W12
 BYTE   W12
 BYTE   N11  Fn3
 BYTE   W12
 BYTE   N23  Cn3
 BYTE   W23
 BYTE   EOT
 BYTE   Fn1  v046
 BYTE   Fn2
 BYTE   W01
//  #01 //004   ----------------------------------------
 BYTE   N11  Fn1
 BYTE   N11  As1
 BYTE   N11  Fn2
 BYTE   N11  As2
 BYTE   N11  Fn3
 BYTE   W12
 BYTE   Cs3
 BYTE   W12
 BYTE   N44  As1
 BYTE   N44  Fn2
 BYTE   N11  As2
 BYTE   W12
 BYTE   N23  Fs3
 BYTE   W12
 BYTE   W12
 BYTE   N11  Dn3
 BYTE   W12
 BYTE   N23  As1
 BYTE   N23  Fn2
 BYTE   N23  As2
 BYTE   N23  Bn2
 BYTE   W24
//  #01 //005   ----------------------------------------
 BYTE   N11  As1
 BYTE   N11  Fn2
 BYTE   N11  As2
 BYTE   N11  Fn3
 BYTE   W12
 BYTE   Cs3
 BYTE   W12
 BYTE   As1
 BYTE   N11  Fn2
 BYTE   N11  As2
 BYTE   W12
 BYTE   N23  An1
 BYTE   N23  En2
 BYTE   N23  An2
 BYTE   N23  En3
 BYTE   W12
 BYTE   W12
 BYTE   N11  Cn3
 BYTE   W12
 BYTE   N23  An1
 BYTE   N23  En2
 BYTE   N23  An2
 BYTE   W24
//  #01 //006   ----------------------------------------
 BYTE   N11  As1
 BYTE   N11  Fn2
 BYTE   N11  As2
 BYTE   N11  Fn3
 BYTE   W12
 BYTE   N05  As1
 BYTE   N05  Fn2
 BYTE   N05  As2
 BYTE   N11  Cs3
 BYTE   W12
 BYTE   N05  As1
 BYTE   N05  Fn2
 BYTE   N05  As2
 BYTE   W12
 BYTE   N11  As1
 BYTE   N11  Fn2
 BYTE   N11  As2
 BYTE   N23  Fs3
 BYTE   W12
 BYTE   N05  As1
 BYTE   N05  Fn2
 BYTE   N05  As2
 BYTE   W12
 BYTE   As1
 BYTE   N05  Fn2
 BYTE   N05  As2
 BYTE   N11  Dn3
 BYTE   W12
 BYTE   N23  As1
 BYTE   N23  Fn2
 BYTE   N23  As2
 BYTE   N23  Bn2
 BYTE   W24
//  #01 //007   ----------------------------------------
 BYTE   N11  As1
 BYTE   N11  Fn2
 BYTE   N11  As2
 BYTE   N11  Gn3
 BYTE   W12
 BYTE   N05  As1
 BYTE   N05  Fn2
 BYTE   N05  As2
 BYTE   N11  En3
 BYTE   W12
 BYTE   N05  As1
 BYTE   N05  Fn2
 BYTE   N05  As2
 BYTE   N11  Cn3
 BYTE   W12
 BYTE   As1
 BYTE   N11  Fn2
 BYTE   N11  As2
 BYTE   N23  An3
 BYTE   W12
 BYTE   N05  As1
 BYTE   N05  Fn2
 BYTE   N05  As2
 BYTE   N05  Gs3  v064
 BYTE   W01
 BYTE   W02
 BYTE   W01
 BYTE   W02
 BYTE   As3  v068
 BYTE   W01
 BYTE   W02
 BYTE   W01
 BYTE   W02
 BYTE   As1  v096
 BYTE   N05  Fn2
 BYTE   N05  As2
 BYTE   N11  Fn3
 BYTE   N05  Cn4  v072
 BYTE   W01
 BYTE   W02
 BYTE   W01
 BYTE   W02
 BYTE   Cs4  v076
 BYTE   W01
 BYTE   W02
 BYTE   W01
 BYTE   W02
 BYTE   N23  As1  v096
 BYTE   N23  Fn2
 BYTE   N23  As2
 BYTE   N23  Cn3
 BYTE   N05  Ds4  v080
 BYTE   W01
 BYTE   W02
 BYTE   W01
 BYTE   W02
 BYTE   Fn4  v084
 BYTE   W01
 BYTE   W02
 BYTE   W01
 BYTE   W02
 BYTE   Fs4  v088
 BYTE   W01
 BYTE   W02
 BYTE   W01
 BYTE   W02
 BYTE   Gs4  v092
 BYTE   W01
 BYTE   W02
 BYTE   W01
 BYTE   W02
//  #01 //008   ----------------------------------------
Label_0116BA0E:
 BYTE   N11  As1  v096
 BYTE   N11  Fn2
 BYTE   N11  As2
 BYTE   N11  Fn3
 BYTE   N11  As4
 BYTE   W12
 BYTE   N05  As1
 BYTE   N05  Fn2
 BYTE   N11  Cs3
 BYTE   N11  Cs4
 BYTE   W12
 BYTE   N05  As1
 BYTE   N05  Fn2
 BYTE   N11  As2
 BYTE   N11  As3
 BYTE   W12
 BYTE   As1
 BYTE   N11  Fn2
 BYTE   N11  As2
 BYTE   N23  Fs3
 BYTE   N23  Bn4
 BYTE   W12
 BYTE   N05  As1
 BYTE   N05  Fn2
 BYTE   W12
 BYTE   As1
 BYTE   N05  Fn2
 BYTE   N11  Dn3
 BYTE   N11  Dn4
 BYTE   W12
 BYTE   N23  As1
 BYTE   N23  Fn2
 BYTE   N23  As2
 BYTE   N23  Bn2
 BYTE   N23  Bn3
 BYTE   W24
 BYTE   PEND 
//  #01 //009   ----------------------------------------
Label_0116BA4F:
 BYTE   N11  As1  v096
 BYTE   N11  Fn2
 BYTE   N11  As2
 BYTE   N11  Fn3
 BYTE   N11  As4
 BYTE   W12
 BYTE   N05  As1
 BYTE   N05  Fn2
 BYTE   N11  Cs3
 BYTE   N11  Cs4
 BYTE   W12
 BYTE   N05  As1
 BYTE   N05  Fn2
 BYTE   N11  As2
 BYTE   N11  As3
 BYTE   W12
 BYTE   As1
 BYTE   N11  Fn2
 BYTE   N11  As2
 BYTE   N23  En3
 BYTE   N23  Gn4
 BYTE   W12
 BYTE   N05  As1
 BYTE   N05  Fn2
 BYTE   W12
 BYTE   As1
 BYTE   N05  Fn2
 BYTE   N11  Cn3
 BYTE   N11  Cn4
 BYTE   W12
 BYTE   N23  As1
 BYTE   N23  Fn2
 BYTE   N23  An2
 BYTE   N23  As2
 BYTE   N23  An3
 BYTE   W24
 BYTE   PEND 
//  #01 //010   ----------------------------------------
 BYTE   PATT
  POIN2 Label_0116BA0E
//  #01 //011   ----------------------------------------
Label_0116BA95:
 BYTE   N11  As1  v096
 BYTE   N11  Fn2
 BYTE   N11  As2
 BYTE   N11  Gn3
 BYTE   N11  As4
 BYTE   W12
 BYTE   N05  As1
 BYTE   N05  Fn2
 BYTE   N11  En3
 BYTE   N11  En4
 BYTE   W12
 BYTE   N05  As1
 BYTE   N05  Fn2
 BYTE   N11  Cn3
 BYTE   N11  Cn4
 BYTE   W12
 BYTE   As1
 BYTE   N11  Fn2
 BYTE   N11  As2
 BYTE   N23  An3
 BYTE   N23  Cn5
 BYTE   W12
 BYTE   N05  As1
 BYTE   N05  Fn2
 BYTE   W12
 BYTE   As1
 BYTE   N05  Fn2
 BYTE   N11  Fn3
 BYTE   N11  Fn4
 BYTE   W12
 BYTE   N23  As1
 BYTE   N23  Fn2
 BYTE   N23  As2
 BYTE   N23  Cn3
 BYTE   N23  Cn4
 BYTE   W24
 BYTE   PEND 
//  #01 //012   ----------------------------------------
 BYTE   PATT
  POIN2 Label_0116BA0E
//  #01 //013   ----------------------------------------
 BYTE   PATT
  POIN2 Label_0116BA4F
//  #01 //014   ----------------------------------------
 BYTE   PATT
  POIN2 Label_0116BA0E
//  #01 //015   ----------------------------------------
 BYTE   PATT
  POIN2 Label_0116BA95
//  #01 //016   ----------------------------------------
Label_0116BAEA:
 BYTE   N11  As1  v096
 BYTE   N11  Fn2
 BYTE   N11  As2
 BYTE   W12
 BYTE   As1
 BYTE   N11  Fn2
 BYTE   W12
 BYTE   As1
 BYTE   N11  Fn2
 BYTE   N11  Gs2
 BYTE   N11  As2
 BYTE   N11  Cs3
 BYTE   W12
 BYTE   As1
 BYTE   N11  Fn2
 BYTE   W12
 BYTE   As1
 BYTE   N11  Fn2
 BYTE   W12
 BYTE   As1
 BYTE   N11  Fn2
 BYTE   N11  As2
 BYTE   N11  Ds3
 BYTE   W12
 BYTE   As1
 BYTE   N11  Fn2
 BYTE   W12
 BYTE   As1
 BYTE   N11  Fn2
 BYTE   W12
 BYTE   PEND 
//  #01 //017   ----------------------------------------
Label_0116BB19:
 BYTE   N11  As1  v096
 BYTE   N11  Fn2
 BYTE   N11  Gn2
 BYTE   N11  As2
 BYTE   N11  Cn3
 BYTE   W12
 BYTE   As1
 BYTE   N11  Fn2
 BYTE   W12
 BYTE   As1
 BYTE   N11  Fn2
 BYTE   W12
 BYTE   N23  En2
 BYTE   N23  Bn2
 BYTE   N23  En3
 BYTE   W12
 BYTE   W12
 BYTE   N11  Ds2
 BYTE   N11  As2
 BYTE   N11  Ds3
 BYTE   W12
 BYTE   Cs2
 BYTE   N11  Gs2
 BYTE   N11  Cs3
 BYTE   W12
 BYTE   Gs1
 BYTE   N11  Ds2
 BYTE   N11  Gs2
 BYTE   W12
 BYTE   PEND 
//  #01 //018   ----------------------------------------
Label_0116BB49:
 BYTE   N11  As1  v096
 BYTE   N11  Fn2
 BYTE   N11  As2
 BYTE   W12
 BYTE   As1
 BYTE   N11  Fn2
 BYTE   W12
 BYTE   As1
 BYTE   N11  Fn2
 BYTE   N11  As2
 BYTE   N11  Ds3
 BYTE   W12
 BYTE   As1
 BYTE   N11  Fn2
 BYTE   W12
 BYTE   As1
 BYTE   N11  Fn2
 BYTE   W12
 BYTE   As1
 BYTE   N11  Fn2
 BYTE   N11  As2
 BYTE   N11  Cs3
 BYTE   N11  Fs3
 BYTE   W12
 BYTE   As1
 BYTE   N11  Fn2
 BYTE   W12
 BYTE   N23  Cs2
 BYTE   N23  Gs2
 BYTE   N23  Cs3
 BYTE   W12
 BYTE   PEND 
//  #01 //019   ----------------------------------------
Label_0116BB7B:
 BYTE   W12
 BYTE   N11  Cs2  v096
 BYTE   N11  Gs2
 BYTE   W12
 BYTE   Cs2
 BYTE   N11  Gs2
 BYTE   W12
 BYTE   N23  Cs2
 BYTE   N23  Gs2
 BYTE   N23  Cs3
 BYTE   N23  Fn5
 BYTE   W12
 BYTE   W12
 BYTE   N11  Cs2
 BYTE   N11  Gs2
 BYTE   N11  Cs5
 BYTE   W12
 BYTE   Cs2
 BYTE   N11  Gs2
 BYTE   N11  Gs4
 BYTE   W12
 BYTE   Cs2
 BYTE   N11  Gs2
 BYTE   N11  Fn4
 BYTE   W12
 BYTE   PEND 
//  #01 //020   ----------------------------------------
Label_0116BBA4:
 BYTE   N11  As1  v096
 BYTE   N11  Fn2
 BYTE   N11  As2
 BYTE   W12
 BYTE   As1
 BYTE   N11  Fn2
 BYTE   W12
 BYTE   As1
 BYTE   N11  Fn2
 BYTE   N11  Cn3
 BYTE   N11  Fn3
 BYTE   W12
 BYTE   As1
 BYTE   N11  Fn2
 BYTE   W12
 BYTE   As1
 BYTE   N11  Fn2
 BYTE   W12
 BYTE   As1
 BYTE   N11  Fn2
 BYTE   N11  Ds3
 BYTE   N11  Gs3
 BYTE   W12
 BYTE   As1
 BYTE   N11  Fn2
 BYTE   W12
 BYTE   As1
 BYTE   N11  Fn2
 BYTE   W12
 BYTE   PEND 
//  #01 //021   ----------------------------------------
 BYTE   As1
 BYTE   N11  Fn2
 BYTE   N11  As2
 BYTE   N23  En3
 BYTE   N23  Gn3
 BYTE   W12
 BYTE   N11  As1
 BYTE   N11  Fn2
 BYTE   W12
 BYTE   As1
 BYTE   N11  Fn2
 BYTE   W12
 BYTE   N23  As1
 BYTE   N23  Fn2
 BYTE   N23  As2
 BYTE   N23  Cn3
 BYTE   N23  En3
 BYTE   W12
 BYTE   W12
 BYTE   N11  As1
 BYTE   N11  Fn2
 BYTE   W12
 BYTE   As1
 BYTE   N11  Fn2
 BYTE   W12
 BYTE   N23  Bn1
 BYTE   N23  Fs2
 BYTE   N23  Bn2
 BYTE   N32  Ds3
 BYTE   W12
//  #01 //022   ----------------------------------------
Label_0116BC02:
 BYTE   W12
 BYTE   N11  Bn1  v096
 BYTE   N11  Fs2
 BYTE   W12
 BYTE   Bn1
 BYTE   N11  Fs2
 BYTE   N11  Cs3
 BYTE   N11  Fn3
 BYTE   W12
 BYTE   Bn1
 BYTE   N11  Fs2
 BYTE   W12
 BYTE   Bn1
 BYTE   N11  Fs2
 BYTE   N11  Ds3
 BYTE   N11  Fs3
 BYTE   W12
 BYTE   Bn1
 BYTE   N11  Fs2
 BYTE   W12
 BYTE   Bn1
 BYTE   N11  Fs2
 BYTE   N11  Fn3
 BYTE   N11  Gs3
 BYTE   W12
 BYTE   N23  Cs2
 BYTE   N23  Gs2
 BYTE   N23  Cs3
 BYTE   N32  Fn3
 BYTE   W12
 BYTE   PEND 
//  #01 //023   ----------------------------------------
Label_0116BC33:
 BYTE   W12
 BYTE   N11  Cs2  v096
 BYTE   N11  Gs2
 BYTE   W12
 BYTE   Cs2
 BYTE   N11  Gs2
 BYTE   N11  Cs3
 BYTE   N11  Ds3
 BYTE   N11  Gs3
 BYTE   W12
 BYTE   Cs2
 BYTE   N11  Gs2
 BYTE   W12
 BYTE   Cs2
 BYTE   N11  Gs2
 BYTE   N11  Cs3
 BYTE   N11  Fn3
 BYTE   N11  Gs3
 BYTE   W12
 BYTE   Cs2
 BYTE   N11  Gs2
 BYTE   W12
 BYTE   Cs2
 BYTE   N11  Gs2
 BYTE   N11  Cs3
 BYTE   N11  Fn3
 BYTE   W12
 BYTE   Cs2
 BYTE   N11  Gs2
 BYTE   N11  Cs3
 BYTE   N11  Fn3
 BYTE   N11  Gs3
 BYTE   W12
 BYTE   PEND 
//  #01 //024   ----------------------------------------
 BYTE   PATT
  POIN2 Label_0116BAEA
//  #01 //025   ----------------------------------------
 BYTE   PATT
  POIN2 Label_0116BB19
//  #01 //026   ----------------------------------------
 BYTE   PATT
  POIN2 Label_0116BB49
//  #01 //027   ----------------------------------------
 BYTE   PATT
  POIN2 Label_0116BB7B
//  #01 //028   ----------------------------------------
 BYTE   PATT
  POIN2 Label_0116BBA4
//  #01 //029   ----------------------------------------
 BYTE   N11  As1  v096
 BYTE   N11  Fn2
 BYTE   N11  As2
 BYTE   N23  En3
 BYTE   N23  Gn3
 BYTE   W12
 BYTE   N11  As1
 BYTE   N11  Fn2
 BYTE   W12
 BYTE   As1
 BYTE   N11  Fn2
 BYTE   W12
 BYTE   N23  As1
 BYTE   N23  Fn2
 BYTE   N23  As2
 BYTE   N23  Cn3
 BYTE   N23  En3
 BYTE   W12
 BYTE   W12
 BYTE   N11  As1
 BYTE   N11  Fn2
 BYTE   W12
 BYTE   As1
 BYTE   N11  Fn2
 BYTE   W12
 BYTE   N23  Bn1
 BYTE   N23  Fs2
 BYTE   N23  Bn2
 BYTE   N23  Ds3
 BYTE   W12
//  #01 //030   ----------------------------------------
Label_0116BCB5:
 BYTE   W12
 BYTE   N11  Bn1  v096
 BYTE   N11  Fs2
 BYTE   W12
 BYTE   Bn1
 BYTE   N11  Fs2
 BYTE   W12
 BYTE   Bn1
 BYTE   N11  Fs2
 BYTE   W12
 BYTE   Bn1
 BYTE   N11  Fs2
 BYTE   W12
 BYTE   Bn1
 BYTE   N11  Fs2
 BYTE   W12
 BYTE   Bn1
 BYTE   N11  Fs2
 BYTE   W12
 BYTE   N23  Cs2
 BYTE   N23  Gs2
 BYTE   N23  Cs3
 BYTE   W12
 BYTE   PEND 
//  #01 //031   ----------------------------------------
Label_0116BCD8:
 BYTE   W12
 BYTE   N11  Cs2  v096
 BYTE   N11  Gs2
 BYTE   W12
 BYTE   Cs2
 BYTE   N11  Gs2
 BYTE   N11  Cs3
 BYTE   W12
 BYTE   Cs2
 BYTE   N11  Gs2
 BYTE   W12
 BYTE   Cs2
 BYTE   N11  Gs2
 BYTE   N11  Cs3
 BYTE   W12
 BYTE   Cs2
 BYTE   N11  Gs2
 BYTE   W12
 BYTE   Cs2
 BYTE   N11  Gs2
 BYTE   N11  Cs3
 BYTE   W12
 BYTE   Cs2
 BYTE   N11  Gs2
 BYTE   N11  Cs3
 BYTE   W12
 BYTE   PEND 
//  #01 //032   ----------------------------------------
Label_0116BD00:
 BYTE   N92  Bn1  v096
 BYTE   N92  Fs2
 BYTE   N92  Bn2
 BYTE   W96
 BYTE   PEND 
//  #01 //033   ----------------------------------------
Label_0116BD09:
 BYTE   N44  Bn1  v096
 BYTE   N44  Fs2
 BYTE   N44  Bn2
 BYTE   W48
 BYTE   As1
 BYTE   N44  Fn2
 BYTE   N44  As2
 BYTE   W48
 BYTE   PEND 
//  #01 //034   ----------------------------------------
Label_0116BD18:
 BYTE   TIE  Fn1  v096
 BYTE   TIE  Cn2
 BYTE   TIE  Fn2
 BYTE   W96
 BYTE   PEND 
//  #01 //035   ----------------------------------------
 BYTE   W92
 BYTE   W03
 BYTE   EOT
 BYTE   Fn1  v048
 BYTE   Fn2
 BYTE   W01
//  #01 //036   ----------------------------------------
 BYTE   PATT
  POIN2 Label_0116BD00
//  #01 //037   ----------------------------------------
Label_0116BD2D:
 BYTE   N44  Fn2  v096
 BYTE   N44  Cn3
 BYTE   N44  Fn3
 BYTE   W48
 BYTE   Fs2
 BYTE   N44  Cs3
 BYTE   N44  Fs3
 BYTE   W48
 BYTE   PEND 
//  #01 //038   ----------------------------------------
Label_0116BD3C:
 BYTE   TIE  Fn2  v096
 BYTE   TIE  Cn3
 BYTE   TIE  Fn3
 BYTE   W96
 BYTE   PEND 
//  #01 //039   ----------------------------------------
 BYTE   W92
 BYTE   W03
 BYTE   EOT
 BYTE   Fn2  v060
 BYTE   Fn3
 BYTE   W01
//  #01 //040   ----------------------------------------
 BYTE   N05  Ds1
 BYTE   N05  As1
 BYTE   N05  Ds2
 BYTE   W12
 BYTE   Ds1
 BYTE   N05  As1
 BYTE   N05  Ds2
 BYTE   W12
 BYTE   Ds1
 BYTE   N05  As1
 BYTE   N05  Ds2
 BYTE   W12
 BYTE   N32  As1
 BYTE   N32  Ds2
 BYTE   N32  As2
 BYTE   W36
 BYTE   N05  Ds1
 BYTE   N05  As1
 BYTE   N05  Ds2
 BYTE   W12
 BYTE   Ds1
 BYTE   N05  As1
 BYTE   N05  Ds2
 BYTE   W12
//  #01 //041   ----------------------------------------
 BYTE   Fn1
 BYTE   N05  Cn2
 BYTE   N05  Fn2
 BYTE   W12
 BYTE   Fn1
 BYTE   N05  Cn2
 BYTE   N05  Fn2
 BYTE   W12
 BYTE   Fn1
 BYTE   N05  Cn2
 BYTE   N05  Fn2
 BYTE   W12
 BYTE   N32  Cn2
 BYTE   N32  Fn2
 BYTE   N32  As2
 BYTE   W36
 BYTE   N05  Fn1
 BYTE   N05  Cn2
 BYTE   N05  Fn2
 BYTE   W12
 BYTE   Fn1
 BYTE   N05  Cn2
 BYTE   N05  Fn2
 BYTE   W12
//  #01 //042   ----------------------------------------
 BYTE   Fs1
 BYTE   N05  Cs2
 BYTE   N05  Fs2
 BYTE   W12
 BYTE   Fs1
 BYTE   N05  Cs2
 BYTE   N05  Fs2
 BYTE   W12
 BYTE   Fs1
 BYTE   N05  Cs2
 BYTE   N05  Fs2
 BYTE   W12
 BYTE   N32  Cs2
 BYTE   N32  Fs2
 BYTE   N32  Cs3
 BYTE   W36
 BYTE   N05  Fs1
 BYTE   N05  Cs2
 BYTE   N05  Fs2
 BYTE   W12
 BYTE   Fs1
 BYTE   N05  Cs2
 BYTE   N05  Fs2
 BYTE   W12
//  #01 //043   ----------------------------------------
 BYTE   Gn1
 BYTE   N05  Dn2
 BYTE   N05  Gn2
 BYTE   W12
 BYTE   Gn1
 BYTE   N05  Dn2
 BYTE   N05  Gn2
 BYTE   W12
 BYTE   Gn1
 BYTE   N05  Dn2
 BYTE   N05  Gn2
 BYTE   W12
 BYTE   N32  Dn2
 BYTE   N32  Gn2
 BYTE   N32  Dn3
 BYTE   W36
 BYTE   N05  Gn1
 BYTE   N05  Dn2
 BYTE   N05  Gn2
 BYTE   W12
 BYTE   Gn1
 BYTE   N05  Dn2
 BYTE   N05  Gn2
 BYTE   W12
//  #01 //044   ----------------------------------------
 BYTE   Gs1
 BYTE   N05  Ds2
 BYTE   N05  Gs2
 BYTE   W12
 BYTE   N11  Gs1
 BYTE   N11  Ds2
 BYTE   N11  Gs2
 BYTE   W12
 BYTE   Cs2
 BYTE   N11  Gs2
 BYTE   N11  Cs3
 BYTE   W12
 BYTE   N05  Gs1
 BYTE   N05  Ds2
 BYTE   N05  Gs2
 BYTE   W12
 BYTE   N11  Dn2
 BYTE   N11  An2
 BYTE   N11  Dn3
 BYTE   W12
 BYTE   N05  Gs1
 BYTE   N05  Ds2
 BYTE   N05  Gs2
 BYTE   W12
 BYTE   N11  Ds2
 BYTE   N11  As2
 BYTE   N11  Ds3
 BYTE   W12
 BYTE   N05  Gs1
 BYTE   N05  Ds2
 BYTE   N05  Gs2
 BYTE   W12
//  #01 //045   ----------------------------------------
 BYTE   N11  Gs1
 BYTE   N11  Ds2
 BYTE   N11  Gs2
 BYTE   W12
 BYTE   Fs1
 BYTE   N11  Cs2
 BYTE   N11  Fs2
 BYTE   W12
 BYTE   Ds1
 BYTE   N11  As1
 BYTE   N11  Ds2
 BYTE   W12
 BYTE   N23  Gs1
 BYTE   N23  Ds2
 BYTE   N23  Gs2
 BYTE   W24
 BYTE   N11  Fs1
 BYTE   N11  Cs2
 BYTE   N11  Fs2
 BYTE   W12
 BYTE   Ds1
 BYTE   N11  As1
 BYTE   N11  Ds2
 BYTE   N05  As2  v112
 BYTE   N05  As4  v096
 BYTE   W06
 BYTE   Cn3  v112
 BYTE   N05  Cn5  v096
 BYTE   W06
 BYTE   Cs3  v112
 BYTE   N05  Cs5  v096
 BYTE   W06
 BYTE   Ds3  v112
 BYTE   N05  Ds5  v096
 BYTE   W06
//  #01 //046   ----------------------------------------
Label_0116BE5A:
 BYTE   N11  Fn1  v096
 BYTE   N11  Cn2
 BYTE   N11  Fn2
 BYTE   N05  As2  v112
 BYTE   N05  Fn3
 BYTE   N05  As3
 BYTE   N05  As4  v096
 BYTE   N05  Fn5
 BYTE   W12
 BYTE   N11  Fn1
 BYTE   N11  Cn2
 BYTE   N11  Fn2
 BYTE   N05  As2  v112
 BYTE   N05  Fn3
 BYTE   N05  As3
 BYTE   N05  As4  v096
 BYTE   N05  Fn5
 BYTE   W24
 BYTE   N11  Fn1
 BYTE   N11  Cn2
 BYTE   N11  Fn2
 BYTE   N05  As2  v112
 BYTE   N05  Fn3
 BYTE   N05  As3
 BYTE   N05  As4  v096
 BYTE   N05  Fn5
 BYTE   W12
 BYTE   N11  Fn1
 BYTE   N11  Cn2
 BYTE   N11  Fn2
 BYTE   N05  As2  v112
 BYTE   N05  Fn3
 BYTE   N05  As3
 BYTE   N05  As4  v096
 BYTE   N05  Fn5
 BYTE   W24
 BYTE   N11  Fn1
 BYTE   N11  Cn2
 BYTE   N11  Fn2
 BYTE   N05  As2  v112
 BYTE   N05  Fn3
 BYTE   N05  As3
 BYTE   N05  As4  v096
 BYTE   N05  Fn5
 BYTE   W12
 BYTE   N11  Fn1
 BYTE   N11  Cn2
 BYTE   N11  Fn2
 BYTE   N05  An2  v112
 BYTE   N05  Fn3
 BYTE   N05  An3
 BYTE   N05  An4  v096
 BYTE   N05  Fn5
 BYTE   W12
 BYTE   PEND 
//  #01 //047   ----------------------------------------
Label_0116BECE:
 BYTE   W84
 BYTE   N92  Fs1  v112
 BYTE   N92  Cs2
 BYTE   N92  Fs2
 BYTE   W12
 BYTE   PEND 
//  #01 //048   ----------------------------------------
Label_0116BED8:
 BYTE   W84
 BYTE   TIE  Gs1  v112
 BYTE   TIE  Ds2
 BYTE   TIE  Gs2
 BYTE   W12
 BYTE   PEND 
//  #01 //049   ----------------------------------------
 BYTE   W92
 BYTE   W03
 BYTE   EOT
 BYTE   Gs1  v051
 BYTE   Gs2
 BYTE   W01
//  #01 //050   ----------------------------------------
Label_0116BEE9:
 BYTE   N80  Fn1  v112
 BYTE   N80  Cn2
 BYTE   N80  Fn2
 BYTE   W84
 BYTE   TIE  As1
 BYTE   TIE  Fn2
 BYTE   TIE  As2
 BYTE   W12
 BYTE   PEND 
//  #01 //051   ----------------------------------------
Label_0116BEF9:
 BYTE   W72
 BYTE   N11  As4  v096
 BYTE   N11  Cs5
 BYTE   W12
 BYTE   Cn5
 BYTE   N11  Ds5
 BYTE   W11
 BYTE   PEND 
 BYTE   EOT
 BYTE   As1  v053
 BYTE   As2
 BYTE   W01
//  #01 //052   ----------------------------------------
Label_0116BF0A:
 BYTE   N05  Ds1  v112
 BYTE   N05  As1
 BYTE   N05  Ds2
 BYTE   N05  Cs5  v096
 BYTE   N05  Fn5
 BYTE   W12
 BYTE   Ds1  v112
 BYTE   N05  As1
 BYTE   N05  Ds2
 BYTE   N05  As4  v096
 BYTE   N05  Cs5
 BYTE   W12
 BYTE   Ds1  v112
 BYTE   N05  As1
 BYTE   N05  Ds2
 BYTE   N05  Fs4  v096
 BYTE   N05  As4
 BYTE   W12
 BYTE   N23  As1  v112
 BYTE   N23  Ds2
 BYTE   N23  As2
 BYTE   N23  Cs4  v096
 BYTE   N23  Fs4
 BYTE   W12
 BYTE   W12
 BYTE   N05  Ds1  v112
 BYTE   N05  As1
 BYTE   N05  Ds2
 BYTE   N11  Fs4  v096
 BYTE   N11  As4
 BYTE   W12
 BYTE   N05  Ds1  v112
 BYTE   N05  As1
 BYTE   N05  Ds2
 BYTE   N11  As4  v096
 BYTE   N11  Cs5
 BYTE   W12
 BYTE   N05  Ds1  v112
 BYTE   N05  As1
 BYTE   N05  Ds2
 BYTE   N11  Cs5  v096
 BYTE   N11  Fn5
 BYTE   W12
 BYTE   PEND 
//  #01 //053   ----------------------------------------
 BYTE   N05  Fn1  v112
 BYTE   N05  Cn2
 BYTE   N05  Fn2
 BYTE   N05  Cn5  v096
 BYTE   N05  Ds5
 BYTE   W12
 BYTE   Fn1  v112
 BYTE   N05  Cn2
 BYTE   N05  Fn2
 BYTE   N05  An4  v096
 BYTE   N05  Cn5
 BYTE   W12
 BYTE   Fn1  v112
 BYTE   N05  Cn2
 BYTE   N05  Fn2
 BYTE   N05  Fn4  v096
 BYTE   N05  An4
 BYTE   W12
 BYTE   N23  Cn2  v112
 BYTE   N23  Fn2
 BYTE   N23  Cn3
 BYTE   N23  Cn4  v096
 BYTE   N23  Ds4
 BYTE   W12
 BYTE   W12
 BYTE   N05  Fn1  v112
 BYTE   N05  Cn2
 BYTE   N05  Fn2
 BYTE   N11  Fn4  v096
 BYTE   N11  An4
 BYTE   W12
 BYTE   N05  Fn1  v112
 BYTE   N05  Cn2
 BYTE   N05  Fn2
 BYTE   N11  An4  v096
 BYTE   N11  Cn5
 BYTE   W12
 BYTE   N44  As1  v112
 BYTE   N44  Fn2
 BYTE   N23  As2
 BYTE   N23  Cs3  v096
 BYTE   N23  As4
 BYTE   W12
//  #01 //054   ----------------------------------------
 BYTE   W12
 BYTE   N05  An2
 BYTE   N05  Cn3
 BYTE   N05  An4
 BYTE   W12
 BYTE   As2
 BYTE   N05  Cs3
 BYTE   N05  As4
 BYTE   W12
 BYTE   N44  An1  v112
 BYTE   N44  En2
 BYTE   N44  An2
 BYTE   N23  Cn3  v096
 BYTE   N23  Ds3
 BYTE   N23  Cn5
 BYTE   W12
 BYTE   W12
 BYTE   N05  As2
 BYTE   N05  Cs3
 BYTE   N05  As4
 BYTE   W12
 BYTE   Cn3
 BYTE   N05  Ds3
 BYTE   N05  Cn5
 BYTE   W12
 BYTE   N32  Gs1  v112
 BYTE   N32  Ds2
 BYTE   N32  Gs2
 BYTE   N23  Cs3  v096
 BYTE   N23  Fn3
 BYTE   N23  Cs5
 BYTE   W12
//  #01 //055   ----------------------------------------
Label_0116BFF9:
 BYTE   W24
 BYTE   N11  Gs1  v112
 BYTE   N11  Ds2
 BYTE   N11  Gs2
 BYTE   W12
 BYTE   Gs1
 BYTE   N11  Ds2
 BYTE   N11  Gs2
 BYTE   W12
 BYTE   Gn1
 BYTE   N11  Dn2
 BYTE   N11  Gn2
 BYTE   W12
 BYTE   Fs1
 BYTE   N11  Cs2
 BYTE   N11  Fs2
 BYTE   W24
 BYTE   N92  Fs1
 BYTE   N92  Cs2
 BYTE   N92  Fs2
 BYTE   W12
 BYTE   PEND 
//  #01 //056   ----------------------------------------
 BYTE   PATT
  POIN2 Label_0116BED8
//  #01 //057   ----------------------------------------
 BYTE   W92
 BYTE   W03
 BYTE   EOT
 BYTE   Gs1  v051
 BYTE   Gs2
 BYTE   W01
//  #01 //058   ----------------------------------------
 BYTE   PATT
  POIN2 Label_0116BEE9
//  #01 //059   ----------------------------------------
 BYTE   W72
 BYTE   N11  Cs3  v096
 BYTE   W12
 BYTE   Cn3
 BYTE   W11
 BYTE   EOT
 BYTE   As1  v053
 BYTE   As2
 BYTE   W01
//  #01 //060   ----------------------------------------
 BYTE   N11  Ds1  v112
 BYTE   N11  As1
 BYTE   N11  Ds2
 BYTE   N44  Fs2  v096
 BYTE   N44  As2
 BYTE   W12
 BYTE   N11  Ds1  v112
 BYTE   N11  As1
 BYTE   N11  Ds2
 BYTE   W36
 BYTE   Ds1
 BYTE   N11  As1
 BYTE   N11  Ds2
 BYTE   N44  Cs3  v096
 BYTE   N44  Fn3
 BYTE   W12
 BYTE   N11  Ds1  v112
 BYTE   N11  As1
 BYTE   N11  Ds2
 BYTE   W36
//  #01 //061   ----------------------------------------
 BYTE   Fn1
 BYTE   N11  Cn2
 BYTE   N11  Fn2
 BYTE   N44  Cn3  v096
 BYTE   N44  Ds3
 BYTE   W12
 BYTE   N11  Fn1  v112
 BYTE   N11  Cn2
 BYTE   N11  Fn2
 BYTE   W36
 BYTE   Fn1
 BYTE   N11  Cn2
 BYTE   N11  Fn2
 BYTE   N44  Ds3  v096
 BYTE   N44  Gs3
 BYTE   W12
 BYTE   N11  Fn1  v112
 BYTE   N11  Cn2
 BYTE   N11  Fn2
 BYTE   W36
//  #01 //062   ----------------------------------------
Label_0116C087:
 BYTE   N11  As1  v112
 BYTE   N11  Fn2
 BYTE   N11  As2
 BYTE   N11  Ds3  v096
 BYTE   N11  As3
 BYTE   N11  Ds5
 BYTE   W12
 BYTE   As1  v112
 BYTE   N11  Fn2
 BYTE   N11  As2
 BYTE   N11  Ds3  v096
 BYTE   N11  As3
 BYTE   N11  Ds5
 BYTE   W24
 BYTE   As1  v112
 BYTE   N11  Fn2
 BYTE   N11  As2
 BYTE   N11  Ds3  v096
 BYTE   N11  As3
 BYTE   N11  Ds5
 BYTE   W12
 BYTE   As1  v112
 BYTE   N11  Fn2
 BYTE   N11  As2
 BYTE   N11  Ds3  v096
 BYTE   N11  As3
 BYTE   N11  Ds5
 BYTE   W24
 BYTE   As1  v112
 BYTE   N11  Fn2
 BYTE   N11  As2
 BYTE   N11  Ds3  v096
 BYTE   N11  As3
 BYTE   N11  Ds5
 BYTE   W12
 BYTE   As1  v112
 BYTE   N11  Fn2
 BYTE   N11  As2
 BYTE   N11  Ds3  v096
 BYTE   N11  As3
 BYTE   N11  Ds5
 BYTE   W12
 BYTE   PEND 
//  #01 //063   ----------------------------------------
 BYTE   W12
 BYTE   As1  v112
 BYTE   N11  Fn2
 BYTE   N11  As2
 BYTE   N11  Ds3  v096
 BYTE   N11  As3
 BYTE   N11  Ds5
 BYTE   W12
 BYTE   As1  v112
 BYTE   N11  Fn2
 BYTE   N11  As2
 BYTE   N11  Ds3  v096
 BYTE   N11  As3
 BYTE   N11  Ds5
 BYTE   W24
 BYTE   As1  v112
 BYTE   N11  Fn2
 BYTE   N11  As2
 BYTE   N11  Dn3  v096
 BYTE   N11  As3
 BYTE   N11  Dn5
 BYTE   W24
 BYTE   N23  As3  v112
 BYTE   N23  Fn4
 BYTE   W24
//  #01 //064   ----------------------------------------
 BYTE   PATT
  POIN2 Label_0116C087
//  #01 //065   ----------------------------------------
 BYTE   W12
 BYTE   N11  As1  v112
 BYTE   N11  Fn2
 BYTE   N11  As2
 BYTE   N11  Ds3  v096
 BYTE   N11  As3
 BYTE   N11  Ds5
 BYTE   W12
 BYTE   As1  v112
 BYTE   N11  Fn2
 BYTE   N11  As2
 BYTE   N11  Ds3  v096
 BYTE   N11  As3
 BYTE   N11  Ds5
 BYTE   W24
 BYTE   Dn3
 BYTE   N11  As3
 BYTE   N44  Fn4  v112
 BYTE   N44  As4
 BYTE   N11  Dn5  v096
 BYTE   W48
//  #01 //066   ----------------------------------------
 BYTE   N23  As1
 BYTE   N23  Fn2
 BYTE   N23  As2
 BYTE   W24
 BYTE   N11  Cs2
 BYTE   N11  Gs2
 BYTE   N11  Cs3
 BYTE   W12
 BYTE   As1
 BYTE   N11  Fn2
 BYTE   N11  As2
 BYTE   W12
 BYTE   En2
 BYTE   N11  Bn2
 BYTE   N11  En3
 BYTE   W12
 BYTE   Ds2
 BYTE   N11  As2
 BYTE   N11  Ds3
 BYTE   W12
 BYTE   Cs2
 BYTE   N11  Gs2
 BYTE   N11  Cs3
 BYTE   W12
 BYTE   N23  As1
 BYTE   N23  Fn2
 BYTE   N23  As2
 BYTE   W12
//  #01 //067   ----------------------------------------
Label_0116C16A:
 BYTE   W12
 BYTE   N11  As1  v096
 BYTE   N11  Fn2
 BYTE   N11  As2
 BYTE   W12
 BYTE   Cs2
 BYTE   N11  Gs2
 BYTE   N11  Cs3
 BYTE   W12
 BYTE   As1
 BYTE   N11  Fn2
 BYTE   N11  As2
 BYTE   W12
 BYTE   Fn1
 BYTE   N11  Cn2
 BYTE   N11  Fn2
 BYTE   W12
 BYTE   En1
 BYTE   N11  Bn1
 BYTE   N11  En2
 BYTE   W12
 BYTE   Ds1
 BYTE   N11  As1
 BYTE   N11  Ds2
 BYTE   W12
 BYTE   Cs1
 BYTE   N11  Gs1
 BYTE   N11  Cs2
 BYTE   W12
 BYTE   PEND 
//  #01 //068   ----------------------------------------
 BYTE   N23  As1
 BYTE   N23  Fn2
 BYTE   N23  As2
 BYTE   W24
 BYTE   N11  Cs2
 BYTE   N11  Gs2
 BYTE   N11  Cs3
 BYTE   W12
 BYTE   As1
 BYTE   N11  Fn2
 BYTE   N11  As2
 BYTE   W12
 BYTE   En2
 BYTE   N11  Bn2
 BYTE   N11  En3
 BYTE   W12
 BYTE   Ds2
 BYTE   N11  As2
 BYTE   N11  Ds3
 BYTE   W12
 BYTE   Cs2
 BYTE   N11  Gs2
 BYTE   N11  Cs3
 BYTE   W12
 BYTE   N23  Fs1
 BYTE   N23  Fs2
 BYTE   W12
//  #01 //069   ----------------------------------------
 BYTE   W12
 BYTE   N11  As1
 BYTE   N11  As2
 BYTE   W12
 BYTE   Cs2
 BYTE   N11  Cs3
 BYTE   W12
 BYTE   N23  Gs1
 BYTE   N23  Gs2
 BYTE   W24
 BYTE   N32  Ds3
 BYTE   N32  Gs4
 BYTE   W12
 BYTE   BEND   c_v+0
 BYTE   W01
 BYTE   BEND   c_v+0
 BYTE   W01
 BYTE   BEND   c_v+0
 BYTE   W01
 BYTE   BEND   c_v+0
 BYTE   W01
 BYTE   BEND   c_v+0
 BYTE   W01
 BYTE   BEND   c_v+0
 BYTE   W01
 BYTE   BEND   c_v+1
 BYTE   W01
 BYTE   BEND   c_v+1
 BYTE   W01
 BYTE   BEND   c_v+1
 BYTE   W01
 BYTE   BEND   c_v+0
 BYTE   W01
 BYTE   BEND   c_v+0
 BYTE   W01
 BYTE   BEND   c_v+0
 BYTE   W01
 BYTE   BEND   c_v+0
 BYTE   W01
 BYTE   BEND   c_v+0
 BYTE   W01
 BYTE   BEND   c_v+0
 BYTE   W01
 BYTE   BEND   c_v+0
 BYTE   W01
 BYTE   BEND   c_v+0
 BYTE   W01
 BYTE   BEND   c_v+0
 BYTE   W01
 BYTE   BEND   c_v+1
 BYTE   W01
 BYTE   BEND   c_v+1
 BYTE   W01
 BYTE   BEND   c_v+1
 BYTE   W01
 BYTE   BEND   c_v+0
 BYTE   W01
 BYTE   BEND   c_v+0
 BYTE   W01
 BYTE   BEND   c_v+0
 BYTE   W01
//  #01 //070   ----------------------------------------
 BYTE   BEND   c_v+0
 BYTE   N23  As1
 BYTE   N23  Fn2
 BYTE   N23  As2
 BYTE   W24
 BYTE   N11  Cs2
 BYTE   N11  Gs2
 BYTE   N11  Cs3
 BYTE   W12
 BYTE   As1
 BYTE   N11  Fn2
 BYTE   N11  As2
 BYTE   W12
 BYTE   En2
 BYTE   N11  Bn2
 BYTE   N11  En3
 BYTE   W12
 BYTE   Ds2
 BYTE   N11  As2
 BYTE   N11  Ds3
 BYTE   W12
 BYTE   Cs2
 BYTE   N11  Gs2
 BYTE   N11  Cs3
 BYTE   W12
 BYTE   N23  As1
 BYTE   N23  Fn2
 BYTE   N23  As2
 BYTE   W12
//  #01 //071   ----------------------------------------
 BYTE   PATT
  POIN2 Label_0116C16A
//  #01 //072   ----------------------------------------
 BYTE   N23  As1  v096
 BYTE   N23  Fn2
 BYTE   N23  As2
 BYTE   W24
 BYTE   N11  Cs2
 BYTE   N11  Gs2
 BYTE   N11  Cs3
 BYTE   W12
 BYTE   As1
 BYTE   N11  Fn2
 BYTE   N11  As2
 BYTE   W12
 BYTE   En2
 BYTE   N11  Bn2
 BYTE   N11  En3
 BYTE   W12
 BYTE   Ds2
 BYTE   N11  As2
 BYTE   N11  Ds3
 BYTE   W12
 BYTE   Cs2
 BYTE   N11  Gs2
 BYTE   N11  Cs3
 BYTE   W24
//  #01 //073   ----------------------------------------
 BYTE   W96
//  #01 //074   ----------------------------------------
 BYTE   As1  v127
 BYTE   N11  Fn2
 BYTE   N11  As2
 BYTE   W12
 BYTE   As1
 BYTE   N11  Fn2
 BYTE   N11  As2
 BYTE   W12
 BYTE   Cs2
 BYTE   N11  Gs2
 BYTE   N11  Cs3
 BYTE   W12
 BYTE   As1
 BYTE   N11  Fn2
 BYTE   N11  As2
 BYTE   W12
 BYTE   En2
 BYTE   N11  Bn2
 BYTE   N11  En3
 BYTE   W12
 BYTE   Ds2
 BYTE   N11  As2
 BYTE   N11  Ds3
 BYTE   W12
 BYTE   Cs2
 BYTE   N11  Gs2
 BYTE   N11  Cs3
 BYTE   W12
 BYTE   N23  As1
 BYTE   N23  Fn2
 BYTE   N23  As2
 BYTE   W12
//  #01 //075   ----------------------------------------
Label_0116C2AD:
 BYTE   W12
 BYTE   N11  As1  v127
 BYTE   N11  Fn2
 BYTE   N11  As2
 BYTE   W12
 BYTE   Cs2
 BYTE   N11  Gs2
 BYTE   N11  Cs3
 BYTE   W12
 BYTE   As1
 BYTE   N11  Fn2
 BYTE   N11  As2
 BYTE   W12
 BYTE   Fn1
 BYTE   N11  Cn2
 BYTE   N11  Fn2
 BYTE   W12
 BYTE   En1
 BYTE   N11  Bn1
 BYTE   N11  En2
 BYTE   W12
 BYTE   Ds1
 BYTE   N11  As1
 BYTE   N11  Ds2
 BYTE   W12
 BYTE   Cs1
 BYTE   N11  Gs1
 BYTE   N11  Cs2
 BYTE   W12
 BYTE   PEND 
//  #01 //076   ----------------------------------------
Label_0116C2DB:
 BYTE   N11  As1  v127
 BYTE   N11  Fn2
 BYTE   N11  As2
 BYTE   W12
 BYTE   As1
 BYTE   N11  Fn2
 BYTE   N11  As2
 BYTE   W12
 BYTE   Cs2
 BYTE   N11  Gs2
 BYTE   N11  Cs3
 BYTE   W12
 BYTE   As1
 BYTE   N11  Fn2
 BYTE   N11  As2
 BYTE   W12
 BYTE   En2
 BYTE   N11  Bn2
 BYTE   N11  En3
 BYTE   W12
 BYTE   Ds2
 BYTE   N11  As2
 BYTE   N11  Ds3
 BYTE   W12
 BYTE   Cs2
 BYTE   N11  Gs2
 BYTE   N11  Cs3
 BYTE   W12
 BYTE   N23  Fs1
 BYTE   N23  Cs2
 BYTE   N23  Fs2
 BYTE   W12
 BYTE   PEND 
//  #01 //077   ----------------------------------------
 BYTE   W12
 BYTE   N11  As1
 BYTE   N11  Fn2
 BYTE   N11  As2
 BYTE   W12
 BYTE   Cs2
 BYTE   N11  Gs2
 BYTE   N11  Cs3
 BYTE   W12
 BYTE   N23  Gs1
 BYTE   N23  Ds2
 BYTE   N23  Gs2
 BYTE   W24
 BYTE   N32  Ds3
 BYTE   N32  Gs4
 BYTE   W12
 BYTE   BEND   c_v+0
 BYTE   W01
 BYTE   BEND   c_v+0
 BYTE   W01
 BYTE   BEND   c_v+0
 BYTE   W01
 BYTE   BEND   c_v+0
 BYTE   W01
 BYTE   BEND   c_v+0
 BYTE   W01
 BYTE   BEND   c_v+0
 BYTE   W01
 BYTE   BEND   c_v+1
 BYTE   W01
 BYTE   BEND   c_v+1
 BYTE   W01
 BYTE   BEND   c_v+1
 BYTE   W01
 BYTE   BEND   c_v+0
 BYTE   W01
 BYTE   BEND   c_v+0
 BYTE   W01
 BYTE   BEND   c_v+0
 BYTE   W01
 BYTE   BEND   c_v+0
 BYTE   W01
 BYTE   BEND   c_v+0
 BYTE   W01
 BYTE   BEND   c_v+0
 BYTE   W01
 BYTE   BEND   c_v+0
 BYTE   W01
 BYTE   BEND   c_v+0
 BYTE   W01
 BYTE   BEND   c_v+0
 BYTE   W01
 BYTE   BEND   c_v+1
 BYTE   W01
 BYTE   BEND   c_v+1
 BYTE   W01
 BYTE   BEND   c_v+1
 BYTE   W01
 BYTE   BEND   c_v+0
 BYTE   W01
 BYTE   BEND   c_v+0
 BYTE   W01
 BYTE   BEND   c_v+0
 BYTE   W01
//  #01 //078   ----------------------------------------
 BYTE   BEND   c_v+0
 BYTE   N11  As1
 BYTE   N11  Fn2
 BYTE   N11  As2
 BYTE   W12
 BYTE   As1
 BYTE   N11  Fn2
 BYTE   N11  As2
 BYTE   W12
 BYTE   Cs2
 BYTE   N11  Gs2
 BYTE   N11  Cs3
 BYTE   W12
 BYTE   As1
 BYTE   N11  Fn2
 BYTE   N11  As2
 BYTE   W12
 BYTE   En2
 BYTE   N11  Bn2
 BYTE   N11  En3
 BYTE   W12
 BYTE   Ds2
 BYTE   N11  As2
 BYTE   N11  Ds3
 BYTE   W12
 BYTE   Cs2
 BYTE   N11  Gs2
 BYTE   N11  Cs3
 BYTE   W12
 BYTE   N23  As1
 BYTE   N23  Fn2
 BYTE   N23  As2
 BYTE   W12
//  #01 //079   ----------------------------------------
 BYTE   PATT
  POIN2 Label_0116C2AD
//  #01 //080   ----------------------------------------
 BYTE   PATT
  POIN2 Label_0116C2DB
//  #01 //081   ----------------------------------------
 BYTE   W12
 BYTE   N11  As0  v127
 BYTE   N11  Fn1
 BYTE   N11  As1
 BYTE   W12
 BYTE   Fs1
 BYTE   N11  Cs2
 BYTE   N11  Fs2
 BYTE   W12
 BYTE   N23  Gs1
 BYTE   N23  Ds2
 BYTE   N23  Gs2
 BYTE   W24
 BYTE   N11  Ds1
 BYTE   N11  As1
 BYTE   N11  Ds2
 BYTE   W12
 BYTE   Gs1
 BYTE   N11  Ds2
 BYTE   N11  Gs2
 BYTE   W12
 BYTE   Cn2
 BYTE   N11  Gs2
 BYTE   N11  Cn3
 BYTE   W12
//  #01 //082   ----------------------------------------
Label_0116C3D8:
 BYTE   N11  As1  v127
 BYTE   N11  Fn2
 BYTE   N11  As2
 BYTE   N11  Ds3  v096
 BYTE   N11  Ds4
 BYTE   N11  Ds5
 BYTE   W12
 BYTE   As1  v127
 BYTE   N11  Fn2
 BYTE   N11  As2
 BYTE   N11  Ds3  v096
 BYTE   N11  Ds4
 BYTE   N11  Ds5
 BYTE   W24
 BYTE   As1  v127
 BYTE   N11  Fn2
 BYTE   N11  As2
 BYTE   N11  Ds3  v096
 BYTE   N11  Ds4
 BYTE   N11  Ds5
 BYTE   W12
 BYTE   As1  v127
 BYTE   N11  Fn2
 BYTE   N11  As2
 BYTE   N11  Ds3  v096
 BYTE   N11  Ds4
 BYTE   N11  Ds5
 BYTE   W24
 BYTE   As1  v127
 BYTE   N11  Fn2
 BYTE   N11  As2
 BYTE   N11  Ds3  v096
 BYTE   N11  Ds4
 BYTE   N11  Ds5
 BYTE   W12
 BYTE   As1  v127
 BYTE   N11  Fn2
 BYTE   N11  As2
 BYTE   N11  Ds3  v096
 BYTE   N11  Ds4
 BYTE   N11  Ds5
 BYTE   W12
 BYTE   PEND 
//  #01 //083   ----------------------------------------
 BYTE   W12
 BYTE   As1  v127
 BYTE   N11  Fn2
 BYTE   N11  As2
 BYTE   N11  Ds3  v096
 BYTE   N11  Ds4
 BYTE   N11  Ds5
 BYTE   W12
 BYTE   As1  v127
 BYTE   N11  Fn2
 BYTE   N11  As2
 BYTE   N11  Ds3  v096
 BYTE   N11  Ds4
 BYTE   N11  Ds5
 BYTE   W24
 BYTE   As1  v127
 BYTE   N11  Fn2
 BYTE   N11  As2
 BYTE   N11  Dn3  v096
 BYTE   N11  Dn4
 BYTE   N11  Dn5
 BYTE   W24
 BYTE   N23  As1  v127
 BYTE   N23  Fn2
 BYTE   W24
//  #01 //084   ----------------------------------------
 BYTE   PATT
  POIN2 Label_0116C3D8
//  #01 //085   ----------------------------------------
 BYTE   W12
 BYTE   N11  As1  v127
 BYTE   N11  Fn2
 BYTE   N11  As2
 BYTE   N11  Ds3  v096
 BYTE   N11  Ds4
 BYTE   N11  Ds5
 BYTE   W12
 BYTE   As1  v127
 BYTE   N11  Fn2
 BYTE   N11  As2
 BYTE   N11  Ds3  v096
 BYTE   N11  Ds4
 BYTE   N11  Ds5
 BYTE   W24
 BYTE   N03  As1  v127
 BYTE   N11  As2  v096
 BYTE   N11  Dn3
 BYTE   N11  Dn4
 BYTE   N11  Dn5
 BYTE   W03
 BYTE   N03  Bn1  v127
 BYTE   W04
 BYTE   Cn2
 BYTE   W05
 BYTE   Cs2
 BYTE   W03
 BYTE   Dn2
 BYTE   W04
 BYTE   Ds2
 BYTE   W05
 BYTE   En2
 BYTE   W03
 BYTE   Fn2
 BYTE   W04
 BYTE   Fs2
 BYTE   W05
 BYTE   Gn2
 BYTE   W03
 BYTE   Gs2
 BYTE   W04
 BYTE   An2
 BYTE   W05
//  #01 //086   ----------------------------------------
 BYTE   GoTo
  POIN2 Label_0116B8CC
//  #01 //087   ----------------------------------------
 BYTE   N11  As1  v112
 BYTE   N92  Fn2  v096
 BYTE   N92  As2
 BYTE   N11  As5  v064
 BYTE   W12
 BYTE   Gs2  v112
 BYTE   W12
 BYTE   Cs3
 BYTE   N11  As5  v064
 BYTE   W12
 BYTE   Gs2  v112
 BYTE   W12
 BYTE   Cn3
 BYTE   N11  As5  v064
 BYTE   W12
 BYTE   Cs3  v112
 BYTE   W12
 BYTE   Gs2
 BYTE   N11  As5  v064
 BYTE   W12
 BYTE   As1  v112
 BYTE   W12
//  #01 //088   ----------------------------------------
 BYTE   N92  Fn2  v096
 BYTE   N60  Cn3
 BYTE   N92  Fn3
 BYTE   N11  Fn5  v064
 BYTE   W12
 BYTE   Gs2  v112
 BYTE   W12
 BYTE   Ds3
 BYTE   N11  Fn5  v064
 BYTE   W24
 BYTE   Cs3  v112
 BYTE   N11  Fn5  v064
 BYTE   W12
 BYTE   Cn3  v112
 BYTE   W12
 BYTE   As2
 BYTE   N11  Fn5  v064
 BYTE   W12
 BYTE   As1  v112
 BYTE   W12
//  #01 //089   ----------------------------------------
 BYTE   N11
 BYTE   N92  Gs2  v096
 BYTE   N48  Ds3
 BYTE   N92  Gs3
 BYTE   N11  Gs5  v064
 BYTE   W12
 BYTE   Cs3  v112
 BYTE   W12
 BYTE   Fn3
 BYTE   N11  Gs5  v064
 BYTE   W12
 BYTE   Cs3  v112
 BYTE   W12
 BYTE   Ds3
 BYTE   N11  Gs5  v064
 BYTE   W12
 BYTE   Cn3  v112
 BYTE   W12
 BYTE   As2
 BYTE   N11  Gs5  v064
 BYTE   W12
 BYTE   N23  As1  v112
 BYTE   W12
//  #01 //090   ----------------------------------------
 BYTE   N12  As2  v096
 BYTE   N44  Fn3
 BYTE   N44  As3
 BYTE   N11  As5  v064
 BYTE   W12
 BYTE   As2  v112
 BYTE   W12
 BYTE   Ds3
 BYTE   N11  As5  v064
 BYTE   W12
 BYTE   N23  As1  v112
 BYTE   W12
 BYTE   N12  Cn3  v096
 BYTE   N44  Gn3
 BYTE   N44  Cn4
 BYTE   N11  Cn6  v064
 BYTE   W12
 BYTE   Cn3  v112
 BYTE   W12
 BYTE   Ds3
 BYTE   N11  Cn6  v064
 BYTE   W12
 BYTE   Cn3  v112
 BYTE   W12
//  #01 //091   ----------------------------------------
 BYTE   Cn2
 BYTE   N92  Gn2  v096
 BYTE   N92  Cn3
 BYTE   N92  Cn4
 BYTE   N11  Cn5  v064
 BYTE   W12
 BYTE   As2  v112
 BYTE   W12
 BYTE   Ds3
 BYTE   N11  Cn5  v064
 BYTE   W12
 BYTE   As2  v112
 BYTE   W12
 BYTE   Dn3
 BYTE   N11  Cn5  v064
 BYTE   W12
 BYTE   Ds3  v112
 BYTE   W12
 BYTE   As2
 BYTE   N11  Cn5  v064
 BYTE   W12
 BYTE   N23  Ds2  v112
 BYTE   W12
//  #01 //092   ----------------------------------------
 BYTE   N92  Gn2  v096
 BYTE   N60  Dn3
 BYTE   N92  Gn3
 BYTE   N11  Gn4  v064
 BYTE   W12
 BYTE   As2  v112
 BYTE   W12
 BYTE   Fn3
 BYTE   N11  Gn4  v064
 BYTE   W24
 BYTE   Ds3  v112
 BYTE   N11  Gn4  v064
 BYTE   W12
 BYTE   Dn3  v112
 BYTE   W12
 BYTE   Cn3
 BYTE   N11  Gn4  v064
 BYTE   W12
 BYTE   N23  Cn2  v112
 BYTE   W12
//  #01 //093   ----------------------------------------
 BYTE   N92  As2  v096
 BYTE   N48  Fn3
 BYTE   N92  As3
 BYTE   N11  As4  v064
 BYTE   W12
 BYTE   Ds3  v112
 BYTE   W12
 BYTE   Gn3
 BYTE   N11  As4  v064
 BYTE   W12
 BYTE   Ds3  v112
 BYTE   W12
 BYTE   Fn3
 BYTE   N11  As4  v064
 BYTE   W12
 BYTE   Dn3  v112
 BYTE   W12
 BYTE   Cn3
 BYTE   N11  As4  v064
 BYTE   W12
 BYTE   N23  Cn2  v112
 BYTE   W12
//  #01 //094   ----------------------------------------
 BYTE   N12  Cn3  v096
 BYTE   N44  Gn3
 BYTE   N44  Cn4
 BYTE   N11  Cn5  v064
 BYTE   W12
 BYTE   Cn3  v112
 BYTE   W12
 BYTE   Fn3
 BYTE   N11  Cn5  v064
 BYTE   W12
 BYTE   Cn3  v112
 BYTE   W12
 BYTE   N12  Dn3  v096
 BYTE   N44  An3
 BYTE   N44  Dn4
 BYTE   N11  Dn5  v064
 BYTE   W12
 BYTE   Dn3  v112
 BYTE   W12
 BYTE   Fn3
 BYTE   N11  Dn5  v064
 BYTE   W12
 BYTE   Dn3  v112
 BYTE   W12
//  #01 //095   ----------------------------------------
 BYTE   TEMPO   160*song1C_tbs/2
 BYTE   TIE  Ds2  v064
 BYTE   TIE  Gn2  v112
 BYTE   TIE  As2
 BYTE   TIE  Ds3
 BYTE   TIE  Gn3
 BYTE   TIE  As3  v096
 BYTE   TIE  Ds5  v064
 BYTE   W06
 BYTE   W02
 BYTE   W04
 BYTE   W04
 BYTE   W02
 BYTE   W06
 BYTE   W06
 BYTE   W02
 BYTE   W04
 BYTE   W04
 BYTE   W02
 BYTE   W06
 BYTE   W06
 BYTE   W02
 BYTE   W05
 BYTE   W03
 BYTE   W03
 BYTE   W05
 BYTE   W01
 BYTE   W06
 BYTE   W01
 BYTE   W05
 BYTE   W03
 BYTE   W03
 BYTE   W05
//  #01 //096   ----------------------------------------
 BYTE   W01
 BYTE   W06
 BYTE   W01
 BYTE   W05
 BYTE   W03
 BYTE   W03
 BYTE   W05
 BYTE   W01
 BYTE   W07
 BYTE   W06
 BYTE   W02
 BYTE   W04
 BYTE   W04
 BYTE   W02
 BYTE   W06
 BYTE   W06
 BYTE   W02
 BYTE   W04
 BYTE   W04
 BYTE   W02
 BYTE   W06
 BYTE   W06
 BYTE   W02
 BYTE   W05
 BYTE   W03
//  #01 //097   ----------------------------------------
 BYTE   W03
 BYTE   W05
 BYTE   W01
 BYTE   W03
 BYTE   TEMPO   154*song1C_tbs/2
 BYTE   W03
 BYTE   W01
 BYTE   W05
 BYTE   W03
 BYTE   W03
 BYTE   W05
 BYTE   W01
 BYTE   W03
 BYTE   TEMPO   150*song1C_tbs/2
 BYTE   W03
 BYTE   W01
 BYTE   W05
 BYTE   W03
 BYTE   W03
 BYTE   W05
 BYTE   W01
 BYTE   W03
 BYTE   TEMPO   144*song1C_tbs/2
 BYTE   W04
 BYTE   W06
 BYTE   W02
 BYTE   W04
 BYTE   W04
 BYTE   W02
 BYTE   W02
 BYTE   TEMPO   140*song1C_tbs/2
 BYTE   W04
 BYTE   W06
 BYTE   W02
//  #01 //098   ----------------------------------------
 BYTE   W04
 BYTE   W04
 BYTE   W02
 BYTE   W02
 BYTE   TEMPO   134*song1C_tbs/2
 BYTE   W04
 BYTE   W06
 BYTE   W02
 BYTE   W05
 BYTE   W03
 BYTE   W03
 BYTE   W01
 BYTE   TEMPO   130*song1C_tbs/2
 BYTE   W04
 BYTE   W01
 BYTE   W06
 BYTE   W01
 BYTE   W05
 BYTE   W03
 BYTE   W03
 BYTE   W01
 BYTE   TEMPO   124*song1C_tbs/2
 BYTE   W04
 BYTE   W01
 BYTE   W06
 BYTE   W01
 BYTE   W05
 BYTE   W03
 BYTE   W03
 BYTE   W05
 BYTE   W01
 BYTE   W06
 BYTE   EOT
 BYTE   Ds2  v055
 BYTE   As2  v063
 BYTE   Gn3  v070
 BYTE   Ds5
 BYTE   W01
//  #01 //099   ----------------------------------------
 BYTE   TEMPO   120*song1C_tbs/2
 BYTE   N92  Dn3  v052
 BYTE   W96
//  #01 //100   ----------------------------------------
 BYTE   Cn3  v036
 BYTE   N92  Fn3  v052
 BYTE   W96
//  #01 //101   ----------------------------------------
 BYTE   N24  As2  v036
 BYTE   N23  Dn3  v052
 BYTE   W24
 BYTE   As2
 BYTE   W24
 BYTE   Cn3
 BYTE   W24
 BYTE   Dn3
 BYTE   W24
//  #01 //102   ----------------------------------------
 BYTE   N23
 BYTE   N92  Fn3
 BYTE   W24
 BYTE   N23  As2
 BYTE   W24
 BYTE   Cn3
 BYTE   W24
 BYTE   Dn3
 BYTE   W24
//  #01 //103   ----------------------------------------
 BYTE   N92  Gn2  v036
 BYTE   N92  Cn3  v052
 BYTE   W96
//  #01 //104   ----------------------------------------
 BYTE   Gn2  v036
 BYTE   N92  As2  v052
 BYTE   W96
//  #01 //105   ----------------------------------------
 BYTE   N44  Cs2  v036
 BYTE   N24  Gn2
 BYTE   W24
 BYTE   N23  Gn2  v052
 BYTE   W24
 BYTE   N44  En2  v036
 BYTE   N44  As2  v052
 BYTE   N44  En3  v036
 BYTE   W48
//  #01 //106   ----------------------------------------
 BYTE   N23  Fs2
 BYTE   N23  An2  v052
 BYTE   N23  Dn3  v036
 BYTE   W24
 BYTE   Gn2
 BYTE   N23  Cn3  v052
 BYTE   N23  En3  v036
 BYTE   W24
 BYTE   N44  An2
 BYTE   N44  Dn3  v052
 BYTE   N44  Fs3  v036
 BYTE   W24
 BYTE   N11  Gn4  v096
 BYTE   W12
 BYTE   An4
 BYTE   W12
//  #01 //107   ----------------------------------------
 BYTE   N68  Dn3  v052
 BYTE   N68  As4  v096
 BYTE   W72
 BYTE   N11  Cn3  v052
 BYTE   N23  Dn5  v096
 BYTE   W12
 BYTE   N11  As2  v052
 BYTE   W12
//  #01 //108   ----------------------------------------
 BYTE   N68  Cn3
 BYTE   N23  Cn5  v096
 BYTE   W24
 BYTE   As4
 BYTE   W24
 BYTE   An4
 BYTE   W24
 BYTE   An2  v052
 BYTE   N23  Dn4  v096
 BYTE   W24
//  #01 //109   ----------------------------------------
 BYTE   Gn2  v052
 BYTE   N44  Gn4  v096
 BYTE   W24
 BYTE   N23  Fn2  v052
 BYTE   W24
 BYTE   Gn2
 BYTE   N23  An4  v096
 BYTE   W24
 BYTE   An2  v052
 BYTE   N23  As4  v096
 BYTE   W24
//  #01 //110   ----------------------------------------
 BYTE   N92  As2  v052
 BYTE   N23  Fn4  v096
 BYTE   W24
 BYTE   Ds4
 BYTE   W24
 BYTE   N44  Dn4
 BYTE   W48
//  #01 //111   ----------------------------------------
 BYTE   N68  Cn3  v052
 BYTE   N23  Ds4  v096
 BYTE   W24
 BYTE   Fn4
 BYTE   W24
 BYTE   Gn4
 BYTE   W24
 BYTE   Gn3  v052
 BYTE   N23  Ds4  v096
 BYTE   W24
//  #01 //112   ----------------------------------------
 BYTE   N44  Dn3  v052
 BYTE   N44  Dn4  v096
 BYTE   W48
 BYTE   Gn2  v052
 BYTE   N23  Gn4  v096
 BYTE   W24
 BYTE   As4
 BYTE   W24
//  #01 //113   ----------------------------------------
 BYTE   N92  Gn2  v052
 BYTE   N23  As4  v096
 BYTE   W24
 BYTE   An4
 BYTE   W24
 BYTE   Gn4
 BYTE   W24
 BYTE   An4
 BYTE   W24
//  #01 //114   ----------------------------------------
 BYTE   TEMPO   114*song1C_tbs/2
 BYTE   N92  An2  v052
 BYTE   N44  Gn4  v096
 BYTE   W48
 BYTE   Fs4
 BYTE   W48
//  #01 //115   ----------------------------------------
 BYTE   TIE  Dn2  v036
 BYTE   W96
//  #01 //116   ----------------------------------------
 BYTE   W44
 BYTE   W03
 BYTE   EOT
 BYTE   W01
 BYTE   N44  An2
 BYTE   W48
//  #01 //117   ----------------------------------------
 BYTE   N23  Cn3
 BYTE   W24
 BYTE   Dn3
 BYTE   W24
 BYTE   N92  Gn2
 BYTE   W48
//  #01 //118   ----------------------------------------
 BYTE   W48
 BYTE   N11  Cn3
 BYTE   W12
 BYTE   Dn3
 BYTE   W12
 BYTE   Ds3
 BYTE   W12
 BYTE   Fn3
 BYTE   W12
//  #01 //119   ----------------------------------------
 BYTE   N92  Gn3
 BYTE   W96
//  #01 //120   ----------------------------------------
 BYTE   N23  Dn3
 BYTE   W24
 BYTE   Cn3
 BYTE   W24
 BYTE   As2
 BYTE   W24
 BYTE   An2
 BYTE   W24
//  #01 //121   ----------------------------------------
 BYTE   Cn3
 BYTE   W05
 BYTE   W06
 BYTE   W05
 BYTE   W06
 BYTE   W02
 BYTE   Dn3  v032
 BYTE   W04
 BYTE   W05
 BYTE   W06
 BYTE   W06
 BYTE   W03
 BYTE   N92  Gn2  v028
 BYTE   W02
 BYTE   W06
 BYTE   W06
 BYTE   W05
 BYTE   W06
 BYTE   W06
 BYTE   W05
 BYTE   W06
 BYTE   W06
//  #01 //122   ----------------------------------------
 BYTE   TEMPO   108*song1C_tbs/2
 BYTE   W48
 BYTE   N44  An2  v016
 BYTE   N44  Cn3
 BYTE   W01
 BYTE   W01
 BYTE   W02
 BYTE   W01
 BYTE   W02
 BYTE   W01
 BYTE   W02
 BYTE   W01
 BYTE   W02
 BYTE   W01
 BYTE   W02
 BYTE   W01
 BYTE   W01
 BYTE   W02
 BYTE   W01
 BYTE   W02
 BYTE   W01
 BYTE   W02
 BYTE   W01
 BYTE   W02
 BYTE   W01
 BYTE   W02
 BYTE   W01
 BYTE   W01
 BYTE   W02
 BYTE   W01
 BYTE   W02
 BYTE   W01
 BYTE   W02
 BYTE   W01
 BYTE   W02
 BYTE   W01
 BYTE   W02
//  #01 //123   ----------------------------------------
 BYTE   TEMPO   120*song1C_tbs/2
 BYTE   N92  Gn2  v052
 BYTE   N92  Dn3
 BYTE   W96
//  #01 //124   ----------------------------------------
Label_0116C7D7:
 BYTE   N92  Fn2  v052
 BYTE   N92  Cn3
 BYTE   W96
 BYTE   PEND 
//  #01 //125   ----------------------------------------
Label_0116C7DE:
 BYTE   N92  Ds2  v052
 BYTE   N92  As2
 BYTE   W96
 BYTE   PEND 
//  #01 //126   ----------------------------------------
 BYTE   PATT
  POIN2 Label_0116C7D7
//  #01 //127   ----------------------------------------
 BYTE   N92  Gn2  v052
 BYTE   N92  Dn3
 BYTE   W96
//  #01 //128   ----------------------------------------
 BYTE   PATT
  POIN2 Label_0116C7D7
//  #01 //129   ----------------------------------------
 BYTE   PATT
  POIN2 Label_0116C7DE
//  #01 //130   ----------------------------------------
 BYTE   PATT
  POIN2 Label_0116C7D7
//  #01 //131   ----------------------------------------
 BYTE   W96
//  #01 //132   ----------------------------------------
 BYTE   W96
//  #01 //133   ----------------------------------------
 BYTE   W96
//  #01 //134   ----------------------------------------
 BYTE   W96
//  #01 //135   ----------------------------------------
 BYTE   TEMPO   130*song1C_tbs/2
 BYTE   N11  Gn1  v016
 BYTE   N11  Cn2
 BYTE   N11  Gn2
 BYTE   N11  Cn3
 BYTE   N23  Gn3  v052
 BYTE   W08
 BYTE   W08
 BYTE   W08
 BYTE   N44  Cn2  v024
 BYTE   N44  Gn2
 BYTE   N11  Cn3
 BYTE   W08
 BYTE   W04
 BYTE   TEMPO   134*song1C_tbs/2
 BYTE   N23  Gs3  v056
 BYTE   W04
 BYTE   W08
 BYTE   W01
 BYTE   W08
 BYTE   W03
 BYTE   N11  En3
 BYTE   W05
 BYTE   W07
 BYTE   N23  Cn2  v032
 BYTE   N23  Gn2
 BYTE   N12  Cn3
 BYTE   N11  Cs3  v060
 BYTE   W01
 BYTE   W08
 BYTE   W03
 BYTE   Cn3
 BYTE   W05
 BYTE   W07
//  #01 //136   ----------------------------------------
 BYTE   TEMPO   140*song1C_tbs/2
 BYTE   Bn1  v036
 BYTE   N11  Fs2
 BYTE   N11  Bn2
 BYTE   N11  An3  v060
 BYTE   W02
 BYTE   W08
 BYTE   W02
 BYTE   N23  Dn3  v064
 BYTE   W06
 BYTE   W06
 BYTE   N11  Bn1  v044
 BYTE   N11  Fs2
 BYTE   N11  Bn2
 BYTE   W02
 BYTE   W08
 BYTE   W02
 BYTE   TEMPO   144*song1C_tbs/2
 BYTE   N23  As1
 BYTE   N23  Fn2
 BYTE   N23  As2
 BYTE   N23  Fn3  v068
 BYTE   W06
 BYTE   W06
 BYTE   W03
 BYTE   W08
 BYTE   W01
 BYTE   N11  Cs3
 BYTE   W07
 BYTE   W05
 BYTE   N23  As1  v052
 BYTE   N23  Fn2
 BYTE   N11  As2
 BYTE   W03
 BYTE   W08
 BYTE   W01
 BYTE   Cs3  v072
 BYTE   W07
 BYTE   W05
//  #01 //137   ----------------------------------------
 BYTE   TEMPO   150*song1C_tbs/2
 BYTE   As1  v056
 BYTE   N11  Fn2
 BYTE   N11  As2
 BYTE   N11  Fn3  v072
 BYTE   W04
 BYTE   W08
 BYTE   N05  As1  v060
 BYTE   N05  Fn2
 BYTE   N05  As2
 BYTE   N11  Cs3  v076
 BYTE   W08
 BYTE   W04
 BYTE   N05  As1  v064
 BYTE   N05  Fn2
 BYTE   N05  As2
 BYTE   W04
 BYTE   W08
 BYTE   TEMPO   154*song1C_tbs/2
 BYTE   N11  As1
 BYTE   N11  Fn2
 BYTE   N11  As2
 BYTE   N23  Fs3  v076
 BYTE   W08
 BYTE   W04
 BYTE   N05  As1  v068
 BYTE   N05  Fn2
 BYTE   N05  As2
 BYTE   W05
 BYTE   W07
 BYTE   As1
 BYTE   N05  Fn2
 BYTE   N05  As2
 BYTE   N11  Dn3  v080
 BYTE   W01
 BYTE   W08
 BYTE   W03
 BYTE   N23  As1  v072
 BYTE   N23  Fn2
 BYTE   N23  As2
 BYTE   N23  Bn2  v084
 BYTE   W05
 BYTE   W08
 BYTE   W09
 BYTE   W02
//  #01 //138   ----------------------------------------
 BYTE   TEMPO   160*song1C_tbs/2
 BYTE   N11  As1  v076
 BYTE   N11  Fn2
 BYTE   N11  As2
 BYTE   N11  Gn3  v084
 BYTE   W06
 BYTE   W06
 BYTE   N05  As1  v080
 BYTE   N05  Fn2
 BYTE   N05  As2
 BYTE   N11  En3  v088
 BYTE   W02
 BYTE   W08
 BYTE   W02
 BYTE   N05  As1  v084
 BYTE   N05  Fn2
 BYTE   N05  As2
 BYTE   N11  Cn3  v088
 BYTE   W06
 BYTE   W06
 BYTE   TEMPO   170*song1C_tbs/2
 BYTE   As1  v084
 BYTE   N11  Fn2
 BYTE   N11  As2
 BYTE   N23  An3  v088
 BYTE   W02
 BYTE   W09
 BYTE   W01
 BYTE   N05  As1
 BYTE   N05  Fn2
 BYTE   N05  As2
 BYTE   N05  Gs3  v064
 BYTE   W01
 BYTE   W02
 BYTE   W01
 BYTE   W02
 BYTE   As3  v068
 BYTE   W01
 BYTE   W02
 BYTE   W01
 BYTE   W02
 BYTE   As1  v088
 BYTE   N05  Fn2
 BYTE   N05  As2
 BYTE   N11  Fn3  v092
 BYTE   N05  Cn4  v072
 BYTE   W01
 BYTE   W02
 BYTE   W01
 BYTE   W02
 BYTE   Cs4  v076
 BYTE   W01
 BYTE   W02
 BYTE   W01
 BYTE   W01
 BYTE   W01
 BYTE   N23  As1  v092
 BYTE   N23  Fn2
 BYTE   N23  As2
 BYTE   N23  Cn3  v096
 BYTE   N05  Ds4  v080
 BYTE   W01
 BYTE   W02
 BYTE   W01
 BYTE   W02
 BYTE   Fn4  v084
 BYTE   W01
 BYTE   W02
 BYTE   W01
 BYTE   W02
 BYTE   Fs4  v088
 BYTE   W01
 BYTE   W02
 BYTE   W01
 BYTE   W02
 BYTE   Gs4  v092
 BYTE   W01
 BYTE   W02
 BYTE   W01
 BYTE   W02
//  #01 //139   ----------------------------------------
 BYTE   TEMPO   176*song1C_tbs/2
 BYTE   N11  As1  v096
 BYTE   N11  Fn2
 BYTE   N11  As2
 BYTE   N11  Fn3
 BYTE   N11  As4
 BYTE   W12
 BYTE   N05  As1
 BYTE   N05  Fn2
 BYTE   N11  Cs3
 BYTE   N11  Cs4
 BYTE   W12
 BYTE   N05  As1
 BYTE   N05  Fn2
 BYTE   N11  As2
 BYTE   N11  As3
 BYTE   W12
 BYTE   As1
 BYTE   N11  Fn2
 BYTE   N11  As2
 BYTE   N23  Fs3
 BYTE   N23  Bn4
 BYTE   W12
 BYTE   N05  As1
 BYTE   N05  Fn2
 BYTE   W12
 BYTE   As1
 BYTE   N05  Fn2
 BYTE   N11  Dn3
 BYTE   N11  Dn4
 BYTE   W12
 BYTE   N23  As1
 BYTE   N23  Fn2
 BYTE   N23  As2
 BYTE   N23  Bn2
 BYTE   N23  Bn3
 BYTE   W24
//  #01 //140   ----------------------------------------
 BYTE   PATT
  POIN2 Label_0116BA4F
//  #01 //141   ----------------------------------------
 BYTE   PATT
  POIN2 Label_0116BA0E
//  #01 //142   ----------------------------------------
 BYTE   PATT
  POIN2 Label_0116BA95
//  #01 //143   ----------------------------------------
 BYTE   PATT
  POIN2 Label_0116BA0E
//  #01 //144   ----------------------------------------
 BYTE   PATT
  POIN2 Label_0116BA4F
//  #01 //145   ----------------------------------------
 BYTE   PATT
  POIN2 Label_0116BA0E
//  #01 //146   ----------------------------------------
 BYTE   PATT
  POIN2 Label_0116BA95
//  #01 //147   ----------------------------------------
 BYTE   N11  As1  v096
 BYTE   N11  Fn2
 BYTE   N11  As2
 BYTE   W12
 BYTE   As1
 BYTE   N11  Fn2
 BYTE   W12
 BYTE   As1
 BYTE   N11  Fn2
 BYTE   N11  As2
 BYTE   N11  Fn3
 BYTE   N11  Gs3
 BYTE   N11  Cs4
 BYTE   W12
 BYTE   As1
 BYTE   N11  Fn2
 BYTE   W12
 BYTE   As1
 BYTE   N11  Fn2
 BYTE   W12
 BYTE   As1
 BYTE   N11  Fn2
 BYTE   N11  As2
 BYTE   N11  Fs3
 BYTE   N11  As3
 BYTE   N11  Ds4
 BYTE   W12
 BYTE   As1
 BYTE   N11  Fn2
 BYTE   W12
 BYTE   As1
 BYTE   N11  Fn2
 BYTE   W12
//  #01 //148   ----------------------------------------
 BYTE   As1
 BYTE   N11  Fn2
 BYTE   N11  As2
 BYTE   N11  En3
 BYTE   N11  An3
 BYTE   N11  Cn4
 BYTE   W12
 BYTE   As1
 BYTE   N11  Fn2
 BYTE   W12
 BYTE   As1
 BYTE   N11  Fn2
 BYTE   W12
 BYTE   N23  En2
 BYTE   N23  Bn2
 BYTE   N23  En3
 BYTE   N23  En4
 BYTE   W12
 BYTE   W12
 BYTE   N11  Ds2
 BYTE   N11  As2
 BYTE   N11  Ds3
 BYTE   N11  Ds4
 BYTE   W12
 BYTE   Cs2
 BYTE   N11  Gs2
 BYTE   N11  Cs3
 BYTE   N11  Cs4
 BYTE   W12
 BYTE   Gs1
 BYTE   N11  Ds2
 BYTE   N11  Gs2
 BYTE   N11  Gs3
 BYTE   W12
//  #01 //149   ----------------------------------------
 BYTE   As1
 BYTE   N11  Fn2
 BYTE   N11  As2
 BYTE   W12
 BYTE   As1
 BYTE   N11  Fn2
 BYTE   N11  As2
 BYTE   N11  Fn3
 BYTE   W12
 BYTE   As1
 BYTE   N11  Fn2
 BYTE   N11  As2
 BYTE   N11  Bn2
 BYTE   N11  Ds3
 BYTE   N11  Fs3
 BYTE   W12
 BYTE   As1
 BYTE   N11  Fn2
 BYTE   W12
 BYTE   As1
 BYTE   N11  Fn2
 BYTE   W12
 BYTE   As1
 BYTE   N11  Fn2
 BYTE   N11  As2
 BYTE   N11  Bn2
 BYTE   N11  Cs3
 BYTE   N11  Fs3
 BYTE   W12
 BYTE   As1
 BYTE   N11  Fn2
 BYTE   W12
 BYTE   N23  Cs2
 BYTE   N23  Gs2
 BYTE   N23  As2
 BYTE   N23  Cs3
 BYTE   N23  Fn3
 BYTE   W12
//  #01 //150   ----------------------------------------
 BYTE   W12
 BYTE   N11  Cs2
 BYTE   N11  Gs2
 BYTE   W12
 BYTE   Cs2
 BYTE   N11  Gs2
 BYTE   W12
 BYTE   N23  Cs2
 BYTE   N23  Gs2
 BYTE   N23  Cs3
 BYTE   N23  Gs4
 BYTE   N23  Cs5
 BYTE   N23  Fn5
 BYTE   W12
 BYTE   W12
 BYTE   N11  Cs2
 BYTE   N11  Gs2
 BYTE   N11  Fn4
 BYTE   N11  As4
 BYTE   N11  Cs5
 BYTE   W12
 BYTE   Cs2
 BYTE   N11  Gs2
 BYTE   N11  Ds4
 BYTE   N11  Gs4
 BYTE   N11  Cn5
 BYTE   W12
 BYTE   Cs2
 BYTE   N11  Gs2
 BYTE   N11  Cn4
 BYTE   N11  Fn4
 BYTE   N11  Gs4
 BYTE   W12
//  #01 //151   ----------------------------------------
 BYTE   As1
 BYTE   N11  Fn2
 BYTE   N11  As2
 BYTE   W12
 BYTE   As1
 BYTE   N11  Fn2
 BYTE   W12
 BYTE   As1
 BYTE   N11  Fn2
 BYTE   W12
 BYTE   As1
 BYTE   N11  Fn2
 BYTE   N23  Cs3
 BYTE   N23  Fn3
 BYTE   N23  As3
 BYTE   W12
 BYTE   N11  As1
 BYTE   N11  Fn2
 BYTE   W12
 BYTE   As1
 BYTE   N11  Fn2
 BYTE   N11  Cs3
 BYTE   N11  Fn3
 BYTE   N11  Gs3
 BYTE   W12
 BYTE   As1
 BYTE   N11  Fn2
 BYTE   N11  Fn3
 BYTE   N11  Gs3
 BYTE   N11  Cn4
 BYTE   W12
 BYTE   As1
 BYTE   N11  Fn2
 BYTE   W12
//  #01 //152   ----------------------------------------
 BYTE   As1
 BYTE   N11  Fn2
 BYTE   N11  As2
 BYTE   N17  En3
 BYTE   N17  Gn3
 BYTE   N17  Cn4
 BYTE   N11  Gn4
 BYTE   W12
 BYTE   As1
 BYTE   N11  Fn2
 BYTE   N11  En4
 BYTE   W12
 BYTE   As1
 BYTE   N11  Fn2
 BYTE   N11  Cn4
 BYTE   W12
 BYTE   N23  As1
 BYTE   N23  Fn2
 BYTE   N23  As2
 BYTE   N23  Cn3
 BYTE   N23  En3
 BYTE   N23  Gn3
 BYTE   N23  En4
 BYTE   W12
 BYTE   W12
 BYTE   N11  As1
 BYTE   N11  Fn2
 BYTE   N11  Cn3
 BYTE   N11  En3
 BYTE   N11  Gn3
 BYTE   N11  Cn4
 BYTE   W12
 BYTE   As1
 BYTE   N11  Fn2
 BYTE   N11  As2
 BYTE   N11  Dn3
 BYTE   N11  Fn3
 BYTE   N11  As3
 BYTE   W12
 BYTE   N23  Bn1
 BYTE   N23  Fs2
 BYTE   N23  Bn2
 BYTE   N32  Ds3
 BYTE   N23  Bn3
 BYTE   W12
//  #01 //153   ----------------------------------------
 BYTE   PATT
  POIN2 Label_0116BC02
//  #01 //154   ----------------------------------------
 BYTE   PATT
  POIN2 Label_0116BC33
//  #01 //155   ----------------------------------------
 BYTE   N11  As1  v096
 BYTE   N11  Fn2
 BYTE   N11  As2
 BYTE   W12
 BYTE   As1
 BYTE   N11  Fn2
 BYTE   W12
 BYTE   As1
 BYTE   N11  Fn2
 BYTE   N11  As2
 BYTE   N11  Cs3
 BYTE   N11  Fn3
 BYTE   W12
 BYTE   As1
 BYTE   N11  Fn2
 BYTE   W12
 BYTE   As1
 BYTE   N11  Fn2
 BYTE   N11  As2
 BYTE   N11  Cs3
 BYTE   N11  Fn3
 BYTE   W12
 BYTE   As1
 BYTE   N11  Fn2
 BYTE   N11  As2
 BYTE   W12
 BYTE   As1
 BYTE   N11  Fn2
 BYTE   N11  As2
 BYTE   N11  Cs3
 BYTE   N11  Fn3
 BYTE   W12
 BYTE   As1
 BYTE   N11  Fn2
 BYTE   N23  Cn3
 BYTE   N23  En3
 BYTE   N23  An3
 BYTE   W12
//  #01 //156   ----------------------------------------
 BYTE   N11  As1
 BYTE   N11  Fn2
 BYTE   N11  As2
 BYTE   W12
 BYTE   As1
 BYTE   N11  Fn2
 BYTE   N11  Cn3
 BYTE   N11  En3
 BYTE   N11  An3
 BYTE   W12
 BYTE   As1
 BYTE   N11  Fn2
 BYTE   N11  Cn3
 BYTE   N11  En3
 BYTE   N11  An3
 BYTE   W12
 BYTE   N23  En2
 BYTE   N23  Bn2
 BYTE   N23  En3
 BYTE   N23  An3
 BYTE   N23  Cn4
 BYTE   W12
 BYTE   W12
 BYTE   N11  Ds2
 BYTE   N11  As2
 BYTE   N11  Ds3
 BYTE   N11  Gs3
 BYTE   N11  Cn4
 BYTE   W12
 BYTE   Cs2
 BYTE   N11  Gs2
 BYTE   N11  Cs3
 BYTE   N11  Fs3
 BYTE   N11  As3
 BYTE   W12
 BYTE   Gs1
 BYTE   N11  Ds2
 BYTE   N11  Gs2
 BYTE   N11  Cs3
 BYTE   N11  Fn3
 BYTE   W12
//  #01 //157   ----------------------------------------
 BYTE   As1
 BYTE   N11  Fn2
 BYTE   N11  As2
 BYTE   W12
 BYTE   As1
 BYTE   N11  Fn2
 BYTE   W12
 BYTE   As1
 BYTE   N11  Fn2
 BYTE   N11  As2
 BYTE   N05  Bn2
 BYTE   N05  Ds3
 BYTE   N05  Fs3
 BYTE   W12
 BYTE   N11  As1
 BYTE   N11  Fn2
 BYTE   N05  Bn2
 BYTE   N05  Ds3
 BYTE   N05  Fs3
 BYTE   W12
 BYTE   N11  As1
 BYTE   N11  Fn2
 BYTE   N05  Bn2
 BYTE   N05  Ds3
 BYTE   N05  Fs3
 BYTE   W12
 BYTE   N11  As1
 BYTE   N11  Fn2
 BYTE   N11  As2
 BYTE   N11  Ds3
 BYTE   N11  Fs3
 BYTE   N11  Bn3
 BYTE   W12
 BYTE   As1
 BYTE   N11  Fn2
 BYTE   N11  Ds3
 BYTE   N11  Fs3
 BYTE   N11  Bn3
 BYTE   W12
 BYTE   N23  Cs2
 BYTE   N23  Gs2
 BYTE   N23  Cs3
 BYTE   N44  Fn3
 BYTE   N44  As3
 BYTE   W12
//  #01 //158   ----------------------------------------
 BYTE   W12
 BYTE   N11  Cs2
 BYTE   N11  Gs2
 BYTE   W12
 BYTE   Cs2
 BYTE   N11  Gs2
 BYTE   W12
 BYTE   N23  Cs2
 BYTE   N23  Gs2
 BYTE   N23  Cs3
 BYTE   N23  Fn3
 BYTE   N23  Gs3
 BYTE   N23  Cs5
 BYTE   N23  Fn5
 BYTE   N23  Gs5
 BYTE   W12
 BYTE   W12
 BYTE   N11  Cs2
 BYTE   N11  Gs2
 BYTE   N11  As2
 BYTE   N11  Cs3
 BYTE   N11  Fn3
 BYTE   N11  As4
 BYTE   N11  Cs5
 BYTE   N11  Fn5
 BYTE   W12
 BYTE   Cs2
 BYTE   N11  Gs2
 BYTE   N11  Cn3
 BYTE   N11  Ds3
 BYTE   N11  Gs4
 BYTE   N11  Cn5
 BYTE   N11  Ds5
 BYTE   W12
 BYTE   Cs2
 BYTE   N11  Fn2
 BYTE   N11  Gs2
 BYTE   N11  Cn3
 BYTE   N11  Fn4
 BYTE   N11  Gs4
 BYTE   N11  Cn5
 BYTE   W12
//  #01 //159   ----------------------------------------
 BYTE   As1
 BYTE   N11  Fn2
 BYTE   N11  As2
 BYTE   W12
 BYTE   As1
 BYTE   N11  Fn2
 BYTE   W12
 BYTE   As1
 BYTE   N11  Fn2
 BYTE   N11  Fn3
 BYTE   N11  Gs3
 BYTE   N11  Cs4
 BYTE   W12
 BYTE   As1
 BYTE   N11  Fn2
 BYTE   W12
 BYTE   As1
 BYTE   N11  Fn2
 BYTE   W12
 BYTE   As1
 BYTE   N11  Fn2
 BYTE   N11  Fs3
 BYTE   N11  As3
 BYTE   N11  Ds4
 BYTE   W12
 BYTE   As1
 BYTE   N11  Fn2
 BYTE   W12
 BYTE   As1
 BYTE   N11  Fn2
 BYTE   W12
//  #01 //160   ----------------------------------------
 BYTE   As1
 BYTE   N11  Fn2
 BYTE   N11  As2
 BYTE   N11  En3
 BYTE   N11  An3
 BYTE   N11  Cn4
 BYTE   N11  Gn4
 BYTE   W12
 BYTE   As1
 BYTE   N11  Fn2
 BYTE   N11  En4
 BYTE   W12
 BYTE   As1
 BYTE   N11  Fn2
 BYTE   N11  Cn4
 BYTE   W12
 BYTE   N23  As1
 BYTE   N23  Fn2
 BYTE   N23  Gn2
 BYTE   N23  As2
 BYTE   N23  Cn3
 BYTE   N23  En3
 BYTE   N23  En4
 BYTE   W12
 BYTE   W12
 BYTE   N11  As1
 BYTE   N11  Fn2
 BYTE   N11  Cn4
 BYTE   W12
 BYTE   As1
 BYTE   N11  Fn2
 BYTE   N11  As3
 BYTE   W12
 BYTE   N23  Bn1
 BYTE   N23  Fs2
 BYTE   N23  Bn2
 BYTE   N23  Ds3
 BYTE   N23  Bn3
 BYTE   W12
//  #01 //161   ----------------------------------------
 BYTE   PATT
  POIN2 Label_0116BCB5
//  #01 //162   ----------------------------------------
 BYTE   PATT
  POIN2 Label_0116BCD8
//  #01 //163   ----------------------------------------
 BYTE   PATT
  POIN2 Label_0116BD00
//  #01 //164   ----------------------------------------
 BYTE   PATT
  POIN2 Label_0116BD09
//  #01 //165   ----------------------------------------
 BYTE   PATT
  POIN2 Label_0116BD18
//  #01 //166   ----------------------------------------
 BYTE   W92
 BYTE   W03
 BYTE   EOT
 BYTE   Fn1  v048
 BYTE   Fn2
 BYTE   W01
//  #01 //167   ----------------------------------------
 BYTE   PATT
  POIN2 Label_0116BD00
//  #01 //168   ----------------------------------------
 BYTE   PATT
  POIN2 Label_0116BD2D
//  #01 //169   ----------------------------------------
 BYTE   PATT
  POIN2 Label_0116BD3C
//  #01 //170   ----------------------------------------
 BYTE   W60
 BYTE   N11  As4  v096
 BYTE   W12
 BYTE   Cn5
 BYTE   W12
 BYTE   Cs5
 BYTE   W11
 BYTE   EOT
 BYTE   Fn2  v060
 BYTE   Fn3
 BYTE   W01
//  #01 //171   ----------------------------------------
 BYTE   N05  Ds1
 BYTE   N05  As1
 BYTE   N05  Ds2
 BYTE   N68  Fn5
 BYTE   W12
 BYTE   N05  Ds1
 BYTE   N05  As1
 BYTE   N05  Ds2
 BYTE   W12
 BYTE   Ds1
 BYTE   N05  As1
 BYTE   N05  Ds2
 BYTE   W12
 BYTE   N32  As1
 BYTE   N32  Ds2
 BYTE   N32  As2
 BYTE   W36
 BYTE   N05  Ds1
 BYTE   N05  As1
 BYTE   N05  Ds2
 BYTE   N05  Ds5
 BYTE   W12
 BYTE   Ds1
 BYTE   N05  As1
 BYTE   N05  Ds2
 BYTE   N05  Cs5
 BYTE   W12
//  #01 //172   ----------------------------------------
 BYTE   Fn1
 BYTE   N05  Cn2
 BYTE   N05  Fn2
 BYTE   N32  Cn5
 BYTE   W12
 BYTE   N05  Fn1
 BYTE   N05  Cn2
 BYTE   N05  Fn2
 BYTE   W12
 BYTE   Fn1
 BYTE   N05  Cn2
 BYTE   N05  Fn2
 BYTE   W12
 BYTE   N32  Cn2
 BYTE   N32  Fn2
 BYTE   N32  As2
 BYTE   N44  Gs4
 BYTE   W12
 BYTE   W24
 BYTE   N05  Fn1
 BYTE   N05  Cn2
 BYTE   N05  Fn2
 BYTE   W12
 BYTE   Fn1
 BYTE   N05  Cn2
 BYTE   N05  Fn2
 BYTE   W12
//  #01 //173   ----------------------------------------
 BYTE   Fs1
 BYTE   N05  Cs2
 BYTE   N05  Fs2
 BYTE   N56  As4
 BYTE   W12
 BYTE   N05  Fs1
 BYTE   N05  Cs2
 BYTE   N05  Fs2
 BYTE   W12
 BYTE   Fs1
 BYTE   N05  Cs2
 BYTE   N05  Fs2
 BYTE   W12
 BYTE   N32  Cs2
 BYTE   N32  Fs2
 BYTE   N32  Cs3
 BYTE   W12
 BYTE   W12
 BYTE   N11  As4
 BYTE   W12
 BYTE   N05  Fs1
 BYTE   N05  Cs2
 BYTE   N05  Fs2
 BYTE   N11  Cn5
 BYTE   W12
 BYTE   N05  Fs1
 BYTE   N05  Cs2
 BYTE   N05  Fs2
 BYTE   N11  Cs5
 BYTE   W12
//  #01 //174   ----------------------------------------
 BYTE   N05  Gn1
 BYTE   N05  Dn2
 BYTE   N05  Gn2
 BYTE   N23  Fn5
 BYTE   W12
 BYTE   N05  Gn1
 BYTE   N05  Dn2
 BYTE   N05  Gn2
 BYTE   W12
 BYTE   Gn1
 BYTE   N05  Dn2
 BYTE   N05  Gn2
 BYTE   N23  Ds5
 BYTE   W12
 BYTE   N32  Dn2
 BYTE   N32  Gn2
 BYTE   N32  Dn3
 BYTE   W12
 BYTE   N23  As4
 BYTE   W24
 BYTE   N05  Gn1
 BYTE   N05  Dn2
 BYTE   N05  Gn2
 BYTE   N23  Cn5
 BYTE   W12
 BYTE   N05  Gn1
 BYTE   N05  Dn2
 BYTE   N05  Gn2
 BYTE   W12
//  #01 //175   ----------------------------------------
 BYTE   Gs1
 BYTE   N05  Ds2
 BYTE   N05  Gs2
 BYTE   N92  Cs5
 BYTE   W12
 BYTE   N11  Gs1
 BYTE   N11  Ds2
 BYTE   N11  Gs2
 BYTE   W12
 BYTE   Cs2
 BYTE   N11  Gs2
 BYTE   N11  Cs3
 BYTE   W12
 BYTE   N05  Gs1
 BYTE   N05  Ds2
 BYTE   N05  Gs2
 BYTE   W12
 BYTE   N11  Dn2
 BYTE   N11  An2
 BYTE   N11  Dn3
 BYTE   W12
 BYTE   N05  Gs1
 BYTE   N05  Ds2
 BYTE   N05  Gs2
 BYTE   W12
 BYTE   N11  Ds2
 BYTE   N11  As2
 BYTE   N11  Ds3
 BYTE   W12
 BYTE   N05  Gs1
 BYTE   N05  Ds2
 BYTE   N05  Gs2
 BYTE   W12
//  #01 //176   ----------------------------------------
 BYTE   N11  Gs1
 BYTE   N11  Ds2
 BYTE   N11  Gs2
 BYTE   N11  Gs5
 BYTE   W12
 BYTE   Fs1
 BYTE   N11  Cs2
 BYTE   N11  Fs2
 BYTE   N11  Fs5
 BYTE   W12
 BYTE   Ds1
 BYTE   N11  As1
 BYTE   N11  Ds2
 BYTE   N11  Ds5
 BYTE   W12
 BYTE   N23  Gs1
 BYTE   N23  Ds2
 BYTE   N23  Gs2
 BYTE   N23  Gs5
 BYTE   W12
 BYTE   W12
 BYTE   N11  Fs1
 BYTE   N11  Cs2
 BYTE   N11  Fs2
 BYTE   N11  Fs5
 BYTE   W12
 BYTE   Ds1
 BYTE   N11  As1
 BYTE   N11  Ds2
 BYTE   N05  As2  v112
 BYTE   N05  Ds3
 BYTE   N05  Ds4  v096
 BYTE   N05  As4
 BYTE   W06
 BYTE   Cn3  v112
 BYTE   N05  Fn3
 BYTE   N05  Fn4  v096
 BYTE   N05  Cn5
 BYTE   W06
 BYTE   Cs3  v112
 BYTE   N05  Fs3
 BYTE   N05  Fs4  v096
 BYTE   N05  Cs5
 BYTE   W06
 BYTE   Ds3  v112
 BYTE   N05  Gs3
 BYTE   N05  Gs4  v096
 BYTE   N05  Ds5
 BYTE   W06
//  #01 //177   ----------------------------------------
 BYTE   PATT
  POIN2 Label_0116BE5A
//  #01 //178   ----------------------------------------
 BYTE   PATT
  POIN2 Label_0116BECE
//  #01 //179   ----------------------------------------
 BYTE   PATT
  POIN2 Label_0116BED8
//  #01 //180   ----------------------------------------
 BYTE   W92
 BYTE   W03
 BYTE   EOT
 BYTE   Gs1  v051
 BYTE   Gs2
 BYTE   W01
//  #01 //181   ----------------------------------------
 BYTE   PATT
  POIN2 Label_0116BEE9
//  #01 //182   ----------------------------------------
 BYTE   PATT
  POIN2 Label_0116BEF9
//  #01 //183   ----------------------------------------
 BYTE   EOT
 BYTE   As1  v053
 BYTE   As2
 BYTE   W01
//  #01 //184   ----------------------------------------
 BYTE   PATT
  POIN2 Label_0116BF0A
//  #01 //185   ----------------------------------------
 BYTE   N05  Fn1  v112
 BYTE   N05  Cn2
 BYTE   N05  Fn2
 BYTE   N05  Cn5  v096
 BYTE   N05  Ds5
 BYTE   W12
 BYTE   Fn1  v112
 BYTE   N05  Cn2
 BYTE   N05  Fn2
 BYTE   N05  An4  v096
 BYTE   N05  Cn5
 BYTE   W12
 BYTE   Fn1  v112
 BYTE   N05  Cn2
 BYTE   N05  Fn2
 BYTE   N05  Fn4  v096
 BYTE   N05  An4
 BYTE   W12
 BYTE   N23  Cn2  v112
 BYTE   N23  Fn2
 BYTE   N23  Cn3
 BYTE   N23  Cn4  v096
 BYTE   N23  Ds4
 BYTE   W12
 BYTE   W12
 BYTE   N05  Fn1  v112
 BYTE   N05  Cn2
 BYTE   N05  Fn2
 BYTE   N11  Fn4  v096
 BYTE   N11  An4
 BYTE   W12
 BYTE   N05  Fn1  v112
 BYTE   N05  Cn2
 BYTE   N05  Fn2
 BYTE   N11  An4  v096
 BYTE   N11  Cn5
 BYTE   W12
 BYTE   N23  As1  v112
 BYTE   N23  Fn2
 BYTE   N23  As2
 BYTE   N23  Cs3  v096
 BYTE   N23  As4
 BYTE   W12
//  #01 //186   ----------------------------------------
 BYTE   W12
 BYTE   N05  An2
 BYTE   N05  Cn3
 BYTE   N05  An4
 BYTE   W12
 BYTE   As2
 BYTE   N05  Cs3
 BYTE   N05  As4
 BYTE   W12
 BYTE   N23  An1  v112
 BYTE   N23  En2
 BYTE   N23  An2
 BYTE   N23  Cn3  v096
 BYTE   N23  Ds3
 BYTE   N23  Cn5
 BYTE   W12
 BYTE   W12
 BYTE   N05  As2
 BYTE   N05  Cs3
 BYTE   N05  As4
 BYTE   W12
 BYTE   Cn3
 BYTE   N05  Ds3
 BYTE   N05  Cn5
 BYTE   W12
 BYTE   N32  Gs1  v112
 BYTE   N32  Ds2
 BYTE   N32  Gs2
 BYTE   N23  Cs3  v096
 BYTE   N23  Fn3
 BYTE   N23  Cs5
 BYTE   W12
//  #01 //187   ----------------------------------------
 BYTE   PATT
  POIN2 Label_0116BFF9
//  #01 //188   ----------------------------------------
 BYTE   PATT
  POIN2 Label_0116BED8
//  #01 //189   ----------------------------------------
 BYTE   W92
 BYTE   W03
 BYTE   EOT
 BYTE   Gs1  v051
 BYTE   Gs2
 BYTE   W01
//  #01 //190   ----------------------------------------
 BYTE   PATT
  POIN2 Label_0116BEE9
//  #01 //191   ----------------------------------------
 BYTE   W72
 BYTE   N11  Cs4  v096
 BYTE   W12
 BYTE   Cn4
 BYTE   W11
 BYTE   EOT
 BYTE   As1  v053
 BYTE   As2
 BYTE   W01
//  #01 //192   ----------------------------------------
 BYTE   N11  Ds1  v112
 BYTE   N11  As1
 BYTE   N11  Ds2
 BYTE   N44  Fs3  v096
 BYTE   N44  As3
 BYTE   W12
 BYTE   N11  Ds1  v112
 BYTE   N11  As1
 BYTE   N11  Ds2
 BYTE   W36
 BYTE   Ds1
 BYTE   N11  As1
 BYTE   N11  Ds2
 BYTE   N44  Fn3  v096
 BYTE   N44  Gs3
 BYTE   W12
 BYTE   N11  Ds1  v112
 BYTE   N11  As1
 BYTE   N11  Ds2
 BYTE   W36
//  #01 //193   ----------------------------------------
 BYTE   Fn1
 BYTE   N11  Cn2
 BYTE   N11  Fn2
 BYTE   N44  Fn3  v096
 BYTE   N44  As3
 BYTE   W12
 BYTE   N11  Fn1  v112
 BYTE   N11  Cn2
 BYTE   N11  Fn2
 BYTE   W36
 BYTE   Fn1
 BYTE   N11  Cn2
 BYTE   N11  Fn2
 BYTE   N44  Cs3  v096
 BYTE   N44  Gs3
 BYTE   W12
 BYTE   N11  Fn1  v112
 BYTE   N11  Cn2
 BYTE   N11  Fn2
 BYTE   W36
//  #01 //194   ----------------------------------------
 BYTE   Fs1
 BYTE   N11  Cs2
 BYTE   N11  Fs2
 BYTE   N11  Cs3  v096
 BYTE   N11  Fs3
 BYTE   N11  Fs5
 BYTE   W12
 BYTE   Fs1  v112
 BYTE   N11  Cs2
 BYTE   N11  Fs2
 BYTE   N11  Cs3  v096
 BYTE   N11  Fs3
 BYTE   N11  Fs5
 BYTE   W24
 BYTE   Fs1  v112
 BYTE   N11  Cs2
 BYTE   N11  Fs2
 BYTE   N11  Cs3  v096
 BYTE   N11  Fs3
 BYTE   N11  Fs5
 BYTE   W12
 BYTE   Fs1  v112
 BYTE   N11  Cs2
 BYTE   N11  Fs2
 BYTE   N11  Cs3  v096
 BYTE   N11  Fs3
 BYTE   N11  Fs5
 BYTE   W24
 BYTE   Fs1  v112
 BYTE   N11  Cs2
 BYTE   N11  Fs2
 BYTE   N11  Cs3  v096
 BYTE   N11  Fs3
 BYTE   N11  Fs5
 BYTE   W12
 BYTE   Fs1  v112
 BYTE   N11  Cs2
 BYTE   N11  Fs2
 BYTE   N11  Cs3  v096
 BYTE   N11  Fs3
 BYTE   N11  Fn5
 BYTE   W12
//  #01 //195   ----------------------------------------
 BYTE   W72
 BYTE   Gs1  v112
 BYTE   N11  Ds2
 BYTE   N11  Gs2
 BYTE   W24
//  #01 //196   ----------------------------------------
 BYTE   Gs1
 BYTE   N11  Ds2
 BYTE   N11  Gs2
 BYTE   W24
 BYTE   Bn1
 BYTE   N11  Fs2
 BYTE   N11  As2  v096
 BYTE   N11  Bn2  v112
 BYTE   N11  Ds3  v096
 BYTE   W24
 BYTE   Bn1  v112
 BYTE   N11  Fs2
 BYTE   N11  Bn2
 BYTE   N11  Ds3  v096
 BYTE   N11  Fs3
 BYTE   W12
 BYTE   Bn1  v112
 BYTE   N11  Fs2
 BYTE   N11  Bn2
 BYTE   N11  Ds3  v096
 BYTE   N11  Gs3
 BYTE   W24
 BYTE   N23  Bn1  v112
 BYTE   N23  Fs2
 BYTE   N23  Bn2
 BYTE   N68  Fs3  v096
 BYTE   N68  As3
 BYTE   W12
//  #01 //197   ----------------------------------------
 BYTE   W12
 BYTE   N11  Bn1  v112
 BYTE   N11  Fs2
 BYTE   N11  Bn2
 BYTE   W12
 BYTE   Bn1
 BYTE   N11  Fs2
 BYTE   N11  Bn2
 BYTE   W12
 BYTE   Bn1
 BYTE   N11  Fs2
 BYTE   N11  Bn2
 BYTE   W12
 BYTE   Bn1
 BYTE   N11  Fs2
 BYTE   N11  Bn2
 BYTE   W12
 BYTE   Bn1
 BYTE   N11  Fs2
 BYTE   N11  Bn2
 BYTE   N23  Fs3  v096
 BYTE   N23  As3
 BYTE   W12
 BYTE   N11  Bn1  v112
 BYTE   N11  Fs2
 BYTE   N11  Bn2
 BYTE   W12
 BYTE   N23  Cs2
 BYTE   N23  Gs2
 BYTE   N23  Cs3
 BYTE   N56  Fn3  v096
 BYTE   N56  Gs3
 BYTE   W12
//  #01 //198   ----------------------------------------
 BYTE   W12
 BYTE   N11  Cs2  v112
 BYTE   N11  Gs2
 BYTE   N11  Cs3
 BYTE   W12
 BYTE   Cs2
 BYTE   N11  Gs2
 BYTE   N11  Cs3
 BYTE   W12
 BYTE   Cs2
 BYTE   N11  Gs2
 BYTE   N11  Cs3
 BYTE   W12
 BYTE   Cs2
 BYTE   N11  Gs2
 BYTE   N11  Cs3
 BYTE   N23  Gs3  v096
 BYTE   N23  Cs4
 BYTE   W12
 BYTE   N11  Cs2  v112
 BYTE   N11  Gs2
 BYTE   N11  Cs3
 BYTE   W12
 BYTE   Cs2
 BYTE   N11  Gs2
 BYTE   N11  Cs3
 BYTE   N23  Fn3  v096
 BYTE   N23  Gs3
 BYTE   W12
 BYTE   N11  Cs2  v112
 BYTE   N11  Gs2
 BYTE   N11  Cs3
 BYTE   W12
//  #01 //199   ----------------------------------------
 BYTE   As1
 BYTE   N11  Fn2
 BYTE   N11  As2
 BYTE   N56  Fn3  v096
 BYTE   N56  Gs3
 BYTE   W12
 BYTE   N11  As1  v112
 BYTE   N11  Fn2
 BYTE   N11  As2
 BYTE   W12
 BYTE   As1
 BYTE   N11  Fn2
 BYTE   N11  As2
 BYTE   W12
 BYTE   As1
 BYTE   N11  Fn2
 BYTE   N11  As2
 BYTE   W12
 BYTE   As1
 BYTE   N11  Fn2
 BYTE   N11  As2
 BYTE   W12
 BYTE   As1
 BYTE   N11  Fn2
 BYTE   N11  As2
 BYTE   N11  Ds3  v096
 BYTE   N11  Fs3
 BYTE   W12
 BYTE   As1  v112
 BYTE   N11  Fn2
 BYTE   N11  As2
 BYTE   N11  Cs3  v096
 BYTE   N11  Fn3
 BYTE   W12
 BYTE   N23  Ds2  v112
 BYTE   N23  As2
 BYTE   N23  Ds3
 BYTE   N68  Fs3  v096
 BYTE   W12
//  #01 //200   ----------------------------------------
 BYTE   W12
 BYTE   N11  Ds2  v112
 BYTE   N11  As2
 BYTE   N11  Ds3
 BYTE   W12
 BYTE   Ds2
 BYTE   N11  As2
 BYTE   N11  Ds3
 BYTE   W12
 BYTE   Ds2
 BYTE   N11  As2
 BYTE   N11  Ds3
 BYTE   W12
 BYTE   Ds2
 BYTE   N11  As2
 BYTE   N11  Ds3
 BYTE   W12
 BYTE   Ds2
 BYTE   N11  As2
 BYTE   N11  Ds3
 BYTE   W12
 BYTE   Ds2
 BYTE   N11  As2
 BYTE   N11  Ds3
 BYTE   N11  Ds5  v096
 BYTE   N11  Fs5
 BYTE   W12
 BYTE   Ds2  v112
 BYTE   N11  As2
 BYTE   N11  Ds3
 BYTE   N11  Fn5  v096
 BYTE   N11  Gs5
 BYTE   W12
//  #01 //201   ----------------------------------------
 BYTE   N05  Gs1  v112
 BYTE   N05  Ds2
 BYTE   N05  Gs2
 BYTE   N05  Fs5  v096
 BYTE   N05  As5
 BYTE   W12
 BYTE   Gs1  v112
 BYTE   N05  Ds2
 BYTE   N05  Gs2
 BYTE   N05  Ds5  v096
 BYTE   N05  Fs5
 BYTE   W12
 BYTE   Gs1  v112
 BYTE   N05  Ds2
 BYTE   N05  Gs2
 BYTE   N05  Bn4  v096
 BYTE   N05  Ds5
 BYTE   W12
 BYTE   N23  Ds2  v112
 BYTE   N23  Gs2
 BYTE   N23  Ds3
 BYTE   N23  Fs4  v096
 BYTE   N23  Bn4
 BYTE   W12
 BYTE   W12
 BYTE   N05  Gs1  v112
 BYTE   N05  Ds2
 BYTE   N05  Gs2
 BYTE   N11  Bn4  v096
 BYTE   N11  Ds5
 BYTE   W12
 BYTE   N05  Gs1  v112
 BYTE   N05  Ds2
 BYTE   N05  Gs2
 BYTE   N11  Ds5  v096
 BYTE   N11  Fs5
 BYTE   W12
 BYTE   N05  Gs1  v112
 BYTE   N05  Ds2
 BYTE   N05  Gs2
 BYTE   N11  Fs5  v096
 BYTE   N11  As5
 BYTE   W12
//  #01 //202   ----------------------------------------
 BYTE   N05  As1  v112
 BYTE   N05  Fn2
 BYTE   N05  As2
 BYTE   N05  Fn5  v096
 BYTE   N05  Gs5
 BYTE   W12
 BYTE   As1  v112
 BYTE   N05  Fn2
 BYTE   N05  As2
 BYTE   N05  Dn5  v096
 BYTE   N05  Fn5
 BYTE   W12
 BYTE   As1  v112
 BYTE   N05  Fn2
 BYTE   N05  As2
 BYTE   N05  As4  v096
 BYTE   N05  Dn5
 BYTE   W12
 BYTE   N23  Fn2  v112
 BYTE   N23  As2
 BYTE   N23  Fn3
 BYTE   N23  Fn4  v096
 BYTE   N23  Gs4
 BYTE   W12
 BYTE   W12
 BYTE   N05  As1  v112
 BYTE   N05  Fn2
 BYTE   N05  As2
 BYTE   N11  As4  v096
 BYTE   N11  Dn5
 BYTE   W12
 BYTE   N05  As1  v112
 BYTE   N05  Fn2
 BYTE   N05  As2
 BYTE   N11  Dn5  v096
 BYTE   N11  Fn5
 BYTE   W12
 BYTE   N23  Ds2  v112
 BYTE   N23  As2
 BYTE   N23  Ds3
 BYTE   N23  Fs3  v096
 BYTE   N23  Ds5
 BYTE   W12
//  #01 //203   ----------------------------------------
 BYTE   W12
 BYTE   N05  Dn3
 BYTE   N05  Fn3
 BYTE   N05  Dn5
 BYTE   W12
 BYTE   Ds3
 BYTE   N05  Fs3
 BYTE   N05  Ds5
 BYTE   W12
 BYTE   N23  Dn2  v112
 BYTE   N23  An2
 BYTE   N23  Dn3
 BYTE   N23  Fn3  v096
 BYTE   N23  Gs3
 BYTE   N23  Fn5
 BYTE   W12
 BYTE   W12
 BYTE   N05  Ds3
 BYTE   N05  Fs3
 BYTE   N05  Ds5
 BYTE   W12
 BYTE   Fn3
 BYTE   N05  Gs3
 BYTE   N05  Fn5
 BYTE   W12
 BYTE   N32  Cs2  v112
 BYTE   N32  Gs2
 BYTE   N32  Cs3
 BYTE   N23  Fs3  v096
 BYTE   N23  As3
 BYTE   N23  Fs5
 BYTE   W12
//  #01 //204   ----------------------------------------
 BYTE   W24
 BYTE   N11  Cs2  v112
 BYTE   N11  Gs2
 BYTE   N11  As2  v096
 BYTE   N11  Cs3  v112
 BYTE   N11  Ds3  v096
 BYTE   W12
 BYTE   Cs2  v112
 BYTE   N11  Gs2
 BYTE   N11  Cs3
 BYTE   W12
 BYTE   Cn2
 BYTE   N11  Gn2
 BYTE   N11  Cn3
 BYTE   N11  Ds3  v096
 BYTE   N11  Fs3
 BYTE   W12
 BYTE   Bn1  v112
 BYTE   N11  Fs2
 BYTE   N11  Bn2
 BYTE   N11  Ds3  v096
 BYTE   N11  Gs3
 BYTE   W24
 BYTE   N23  Bn1  v112
 BYTE   N23  Fs2
 BYTE   N23  Bn2
 BYTE   W12
//  #01 //205   ----------------------------------------
 BYTE   W12
 BYTE   N11  Bn1
 BYTE   N11  Fs2
 BYTE   N11  Bn2
 BYTE   W12
 BYTE   Bn1
 BYTE   N11  Fs2
 BYTE   N11  Bn2
 BYTE   W12
 BYTE   Bn1
 BYTE   N11  Fs2
 BYTE   N11  Bn2
 BYTE   W12
 BYTE   Bn1
 BYTE   N11  Fs2
 BYTE   N11  Bn2
 BYTE   W12
 BYTE   Bn1
 BYTE   N11  Fs2
 BYTE   N11  Bn2
 BYTE   W12
 BYTE   Bn1
 BYTE   N11  Fs2
 BYTE   N11  Bn2
 BYTE   W12
 BYTE   N23  Cs2
 BYTE   N23  Gs2
 BYTE   N23  Cs3
 BYTE   W12
//  #01 //206   ----------------------------------------
 BYTE   W12
 BYTE   N11  Cs2
 BYTE   N11  Gs2
 BYTE   N11  Cs3
 BYTE   W12
 BYTE   Cs2
 BYTE   N11  Gs2
 BYTE   N11  Cs3
 BYTE   W12
 BYTE   Cs2
 BYTE   N11  Gs2
 BYTE   N11  Cs3
 BYTE   W12
 BYTE   Cs2
 BYTE   N11  Gs2
 BYTE   N11  Cs3
 BYTE   W12
 BYTE   Cs2
 BYTE   N11  Gs2
 BYTE   N11  Cs3
 BYTE   W12
 BYTE   Cs2
 BYTE   N11  Gs2
 BYTE   N11  Cs3
 BYTE   W12
 BYTE   Cs2
 BYTE   N11  Gs2
 BYTE   N11  Cs3
 BYTE   W12
//  #01 //207   ----------------------------------------
 BYTE   As1
 BYTE   N11  Fn2
 BYTE   N11  As2
 BYTE   W12
 BYTE   As1
 BYTE   N11  Fn2
 BYTE   N11  As2
 BYTE   W12
 BYTE   As1
 BYTE   N11  Fn2
 BYTE   N11  As2
 BYTE   W12
 BYTE   As1
 BYTE   N11  Fn2
 BYTE   N11  As2
 BYTE   W12
 BYTE   As1
 BYTE   N11  Fn2
 BYTE   N11  As2
 BYTE   W12
 BYTE   As1
 BYTE   N11  Fn2
 BYTE   N11  As2
 BYTE   W12
 BYTE   As1
 BYTE   N11  Fn2
 BYTE   N11  As2
 BYTE   W12
 BYTE   N23  Ds2
 BYTE   N23  As2
 BYTE   N23  Ds3
 BYTE   W12
//  #01 //208   ----------------------------------------
 BYTE   W12
 BYTE   N11  Ds2
 BYTE   N11  As2
 BYTE   N11  Ds3
 BYTE   W12
 BYTE   Ds2
 BYTE   N11  As2
 BYTE   N11  Ds3
 BYTE   W12
 BYTE   Ds2
 BYTE   N11  As2
 BYTE   N11  Ds3
 BYTE   W12
 BYTE   Ds2
 BYTE   N11  As2
 BYTE   N11  Ds3
 BYTE   W12
 BYTE   Ds2
 BYTE   N11  As2
 BYTE   N11  Ds3
 BYTE   W12
 BYTE   Ds2
 BYTE   N11  As2
 BYTE   N11  Ds3
 BYTE   N11  Fs3  v096
 BYTE   W12
 BYTE   Ds2  v112
 BYTE   N11  As2
 BYTE   N11  Ds3
 BYTE   N11  Fn3  v096
 BYTE   W12
//  #01 //209   ----------------------------------------
 BYTE   Gs1  v112
 BYTE   N11  Ds2
 BYTE   N11  Gs2
 BYTE   N44  Bn2  v096
 BYTE   N44  Ds3
 BYTE   W12
 BYTE   N11  Gs1  v112
 BYTE   N11  Ds2
 BYTE   N11  Gs2
 BYTE   W36
 BYTE   Gs1
 BYTE   N11  Ds2
 BYTE   N11  Gs2
 BYTE   N44  Fs3  v096
 BYTE   N44  As3
 BYTE   W12
 BYTE   N11  Gs1  v112
 BYTE   N11  Ds2
 BYTE   N11  Gs2
 BYTE   W36
//  #01 //210   ----------------------------------------
 BYTE   As1
 BYTE   N11  Fn2
 BYTE   N11  As2
 BYTE   N44  Fn3  v096
 BYTE   N44  Gs3
 BYTE   W12
 BYTE   N11  As1  v112
 BYTE   N11  Fn2
 BYTE   N11  As2
 BYTE   W36
 BYTE   As1
 BYTE   N11  Fn2
 BYTE   N11  As2
 BYTE   N44  Gs3  v096
 BYTE   N44  Cs4
 BYTE   W12
 BYTE   N11  As1  v112
 BYTE   N11  Fn2
 BYTE   N11  As2
 BYTE   W36
//  #01 //211   ----------------------------------------
Label_0116D319:
 BYTE   N11  Ds2  v112
 BYTE   N11  As2
 BYTE   N11  Ds3
 BYTE   N11  Gs3  v096
 BYTE   N11  Ds4
 BYTE   N11  Gs5
 BYTE   W12
 BYTE   Ds2  v112
 BYTE   N11  As2
 BYTE   N11  Ds3
 BYTE   N11  Gs3  v096
 BYTE   N11  Ds4
 BYTE   N11  Gs5
 BYTE   W24
 BYTE   Ds2  v112
 BYTE   N11  As2
 BYTE   N11  Ds3
 BYTE   N11  Gs3  v096
 BYTE   N11  Ds4
 BYTE   N11  Gs5
 BYTE   W12
 BYTE   Ds2  v112
 BYTE   N11  As2
 BYTE   N11  Ds3
 BYTE   N11  Gs3  v096
 BYTE   N11  Ds4
 BYTE   N11  Gs5
 BYTE   W24
 BYTE   Ds2  v112
 BYTE   N11  As2
 BYTE   N11  Ds3
 BYTE   N11  Gs3  v096
 BYTE   N11  Ds4
 BYTE   N11  Gs5
 BYTE   W12
 BYTE   Ds2  v112
 BYTE   N11  As2
 BYTE   N11  Ds3
 BYTE   N11  Gs3  v096
 BYTE   N11  Ds4
 BYTE   N11  Gs5
 BYTE   W12
 BYTE   PEND 
//  #01 //212   ----------------------------------------
 BYTE   W12
 BYTE   Ds2  v112
 BYTE   N11  As2
 BYTE   N11  Ds3
 BYTE   N11  Gs3  v096
 BYTE   N11  Ds4
 BYTE   N11  Gs5
 BYTE   W12
 BYTE   Ds2  v112
 BYTE   N11  As2
 BYTE   N11  Ds3
 BYTE   N11  Gs3  v096
 BYTE   N11  Ds4
 BYTE   N11  Gs5
 BYTE   W24
 BYTE   Ds2  v112
 BYTE   N11  As2
 BYTE   N11  Ds3
 BYTE   N11  Gn3  v096
 BYTE   N11  Ds4
 BYTE   N11  Gn5
 BYTE   W24
 BYTE   N23  Ds4  v112
 BYTE   N23  As4
 BYTE   W24
//  #01 //213   ----------------------------------------
 BYTE   PATT
  POIN2 Label_0116D319
//  #01 //214   ----------------------------------------
Label_0116D3A5:
 BYTE   W12
 BYTE   N11  Ds2  v112
 BYTE   N11  As2
 BYTE   N11  Ds3
 BYTE   N11  Gs3  v096
 BYTE   N11  Ds4
 BYTE   N11  Gs5
 BYTE   W12
 BYTE   Ds2  v112
 BYTE   N11  As2
 BYTE   N11  Ds3
 BYTE   N11  Gs3  v096
 BYTE   N11  Ds4
 BYTE   N11  Gs5
 BYTE   W24
 BYTE   Ds2  v112
 BYTE   N11  As2
 BYTE   N11  Ds3
 BYTE   N11  Gn3  v096
 BYTE   N11  Ds4
 BYTE   N11  Gn5
 BYTE   W24
 BYTE   N23  As4  v112
 BYTE   N23  Ds5
 BYTE   W24
 BYTE   PEND 
//  #01 //215   ----------------------------------------
 BYTE   PATT
  POIN2 Label_0116D319
//  #01 //216   ----------------------------------------
 BYTE   PATT
  POIN2 Label_0116D3A5
//  #01 //217   ----------------------------------------
 BYTE   N11  Ds2  v112
 BYTE   N11  As2
 BYTE   N11  Ds3
 BYTE   N11  Gs3  v096
 BYTE   N11  Ds4
 BYTE   N11  Gs5
 BYTE   N11  Ds6
 BYTE   W12
 BYTE   Ds2  v112
 BYTE   N11  As2
 BYTE   N11  Ds3
 BYTE   N11  Gs3  v096
 BYTE   N11  Ds4
 BYTE   N11  Gs5
 BYTE   N11  Ds6
 BYTE   W24
 BYTE   Ds2  v112
 BYTE   N11  As2
 BYTE   N11  Ds3
 BYTE   N11  Gs3  v096
 BYTE   N11  Ds4
 BYTE   N11  Gs5
 BYTE   N11  Ds6
 BYTE   W12
 BYTE   Ds2  v112
 BYTE   N11  As2
 BYTE   N11  Ds3
 BYTE   N11  Gs3  v096
 BYTE   N11  Ds4
 BYTE   N11  Gs5
 BYTE   N11  Ds6
 BYTE   W24
 BYTE   Ds2  v112
 BYTE   N11  As2
 BYTE   N11  Ds3
 BYTE   N11  Gs3  v096
 BYTE   N11  Ds4
 BYTE   N11  Gs5
 BYTE   N11  Ds6
 BYTE   W12
 BYTE   Ds2  v112
 BYTE   N11  As2
 BYTE   N11  Ds3
 BYTE   N11  Gs3  v096
 BYTE   N11  Ds4
 BYTE   N11  Gs5
 BYTE   N11  Ds6
 BYTE   W12
//  #01 //218   ----------------------------------------
 BYTE   W12
 BYTE   Ds2  v112
 BYTE   N11  As2
 BYTE   N11  Ds3
 BYTE   N11  Gs3  v096
 BYTE   N11  Ds4
 BYTE   N11  Gs5
 BYTE   N11  Ds6
 BYTE   W12
 BYTE   Ds2  v112
 BYTE   N11  As2
 BYTE   N11  Ds3
 BYTE   N11  Gs3  v096
 BYTE   N11  Ds4
 BYTE   N11  Gs5
 BYTE   N11  Ds6
 BYTE   W24
 BYTE   Ds2  v112
 BYTE   N11  As2
 BYTE   N11  Ds3
 BYTE   N11  Gn3  v096
 BYTE   N11  Ds4
 BYTE   N11  Gn5
 BYTE   N11  Ds6
 BYTE   W24
 BYTE   TEMPO   160*song1C_tbs/2
 BYTE   As1  v112
 BYTE   N11  Ds2
 BYTE   N11  Gn3  v096
 BYTE   N11  Ds4
 BYTE   N11  Gn5
 BYTE   N11  Ds6
 BYTE   W24
//  #01 //219   ----------------------------------------
 BYTE   TEMPO   72*song1C_tbs/2
 BYTE   N16  As1  v112
 BYTE   N16  Ds2
 BYTE   N16  Gn3  v096
 BYTE   N16  Ds4
 BYTE   N16  Gn5
 BYTE   N16  Ds6
 BYTE   W24
 BYTE   TEMPO   24*song1C_tbs/2
 BYTE   N68  As0  v112
 BYTE   N68  Ds1
 BYTE   W68
 BYTE   W03
 BYTE   FINE

//**************** Track 2 (Midi-Chn.1) ****************//

song1C_002:
//  #02 //000   ----------------------------------------
 BYTE   KEYSH   song1C_key+0
 BYTE   VOICE   49
 BYTE   VOL   23*song1C_mvl/mxv
 BYTE   PAN   c_v-3
 BYTE   VOL   53*song1C_mvl/mxv
 BYTE   PAN   c_v-3
 BYTE   VOL   42*song1C_mvl/mxv
 BYTE   PAN   c_v-3
 BYTE   VOL   35*song1C_mvl/mxv
 BYTE   PAN   c_v-3
 BYTE   N02  As0  v096
 BYTE   W06
 BYTE   N02
 BYTE   W06
Label_0116D4BA:
 BYTE   TIE  As0  v096
 BYTE   N11  Fn4
 BYTE   W12
 BYTE   Cs4
 BYTE   W12
 BYTE   As3
 BYTE   W12
 BYTE   N23  Fs4
 BYTE   W12
 BYTE   W12
 BYTE   N11  Dn4
 BYTE   W12
 BYTE   N23  Bn3
 BYTE   W24
//  #02 //001   ----------------------------------------
 BYTE   N11  Fn4
 BYTE   W12
 BYTE   Cs4
 BYTE   W12
 BYTE   As3
 BYTE   W12
 BYTE   N23  En4
 BYTE   W12
 BYTE   W12
 BYTE   N11  Cn4
 BYTE   W11
 BYTE   EOT
 BYTE   As0
 BYTE   W01
 BYTE   N05
 BYTE   N23  An3
 BYTE   W06
 BYTE   N05  Cn1
 BYTE   W06
 BYTE   Cs1
 BYTE   W06
 BYTE   Fn1
 BYTE   W06
//  #02 //002   ----------------------------------------
 BYTE   N92  As1
 BYTE   N11  Fn4
 BYTE   W12
 BYTE   Cs4
 BYTE   W12
 BYTE   As3
 BYTE   W12
 BYTE   N23  Fs4
 BYTE   W12
 BYTE   W12
 BYTE   N11  Dn4
 BYTE   W12
 BYTE   N23  Bn3
 BYTE   W24
//  #02 //003   ----------------------------------------
 BYTE   N32  As1
 BYTE   N11  Gn4
 BYTE   W12
 BYTE   En4
 BYTE   W12
 BYTE   Cn4
 BYTE   W12
 BYTE   N23  Fn1
 BYTE   N23  An4
 BYTE   W12
 BYTE   W12
 BYTE   N11  Fn1
 BYTE   N11  Fn4
 BYTE   W12
 BYTE   Cs1
 BYTE   N23  Cn4
 BYTE   W12
 BYTE   N11  Cs1
 BYTE   W12
//  #02 //004   ----------------------------------------
 BYTE   As0
 BYTE   N11  Fn3
 BYTE   N11  Fn4
 BYTE   W12
 BYTE   As0
 BYTE   N11  Cs3
 BYTE   N11  Cs4
 BYTE   W12
 BYTE   As0
 BYTE   N11  As2
 BYTE   N11  As3
 BYTE   W12
 BYTE   As0
 BYTE   N23  Fs3
 BYTE   N23  Fs4
 BYTE   W12
 BYTE   N11  As0
 BYTE   W12
 BYTE   N11
 BYTE   N11  Dn3
 BYTE   N11  Dn4
 BYTE   W12
 BYTE   As0
 BYTE   N23  Bn2
 BYTE   N23  Bn3
 BYTE   W12
 BYTE   N11  As0
 BYTE   W12
//  #02 //005   ----------------------------------------
 BYTE   N11
 BYTE   N11  Fn3
 BYTE   N11  Fn4
 BYTE   W12
 BYTE   As0
 BYTE   N11  Cs3
 BYTE   N11  Cs4
 BYTE   W12
 BYTE   As0
 BYTE   N11  As2
 BYTE   N11  As3
 BYTE   W12
 BYTE   As0
 BYTE   N23  En3
 BYTE   N23  En4
 BYTE   W12
 BYTE   N11  As0
 BYTE   W12
 BYTE   N11
 BYTE   N11  Cn3
 BYTE   N11  Cn4
 BYTE   W12
 BYTE   As0
 BYTE   N23  An2
 BYTE   N23  An3
 BYTE   W12
 BYTE   N11  Fn1
 BYTE   W12
//  #02 //006   ----------------------------------------
 BYTE   As1
 BYTE   N11  Fn3
 BYTE   N11  Fn4
 BYTE   W12
 BYTE   As1
 BYTE   N11  Cs3
 BYTE   N11  Cs4
 BYTE   W12
 BYTE   As1
 BYTE   N11  As2
 BYTE   N11  As3
 BYTE   W12
 BYTE   As1
 BYTE   N23  Fs3
 BYTE   N23  Fs4
 BYTE   W12
 BYTE   N11  As1
 BYTE   W12
 BYTE   N11
 BYTE   N11  Dn3
 BYTE   N11  Dn4
 BYTE   W12
 BYTE   As1
 BYTE   N23  Bn2
 BYTE   N23  Bn3
 BYTE   W12
 BYTE   N11  As1
 BYTE   W12
//  #02 //007   ----------------------------------------
 BYTE   N11
 BYTE   N11  Gn3
 BYTE   N11  Gn4
 BYTE   W12
 BYTE   As1
 BYTE   N11  En3
 BYTE   N11  En4
 BYTE   W12
 BYTE   As1
 BYTE   N11  Cn3
 BYTE   N11  Cn4
 BYTE   W12
 BYTE   As1
 BYTE   N23  An3
 BYTE   N23  An4
 BYTE   W12
 BYTE   N11  Fn1
 BYTE   W12
 BYTE   N11
 BYTE   N11  Fn3
 BYTE   N11  Fn4
 BYTE   W12
 BYTE   Cs1
 BYTE   N23  Cn3
 BYTE   N23  Cn4
 BYTE   W12
 BYTE   N11  Cs1
 BYTE   W12
//  #02 //008   ----------------------------------------
Label_0116D5C0:
 BYTE   N11  As0  v096
 BYTE   N32  As3
 BYTE   N32  Fn4
 BYTE   W12
 BYTE   N11  As0
 BYTE   W12
 BYTE   N11
 BYTE   W12
 BYTE   N11
 BYTE   N56  Bn3
 BYTE   N56  Fs4
 BYTE   W12
 BYTE   N11  As0
 BYTE   W12
 BYTE   N11
 BYTE   W12
 BYTE   N11
 BYTE   W12
 BYTE   N11
 BYTE   W12
 BYTE   PEND 
//  #02 //009   ----------------------------------------
Label_0116D5DD:
 BYTE   N11  As0  v096
 BYTE   N32  Fn4
 BYTE   N32  Gs4
 BYTE   W12
 BYTE   N11  As0
 BYTE   W12
 BYTE   N11
 BYTE   W12
 BYTE   N11
 BYTE   N56  En4
 BYTE   N56  Gn4
 BYTE   W12
 BYTE   N11  As0
 BYTE   W12
 BYTE   N11
 BYTE   W12
 BYTE   N11
 BYTE   W12
 BYTE   N11
 BYTE   W12
 BYTE   PEND 
//  #02 //010   ----------------------------------------
 BYTE   PATT
  POIN2 Label_0116D5C0
//  #02 //011   ----------------------------------------
Label_0116D5FF:
 BYTE   N11  As0  v096
 BYTE   N32  Gn3
 BYTE   N32  En4
 BYTE   W12
 BYTE   N11  As0
 BYTE   W12
 BYTE   N11
 BYTE   W12
 BYTE   N11
 BYTE   N56  An3
 BYTE   N56  Fn4
 BYTE   W12
 BYTE   N11  As0
 BYTE   W12
 BYTE   N11
 BYTE   W12
 BYTE   N11
 BYTE   W12
 BYTE   N11
 BYTE   W12
 BYTE   PEND 
//  #02 //012   ----------------------------------------
 BYTE   PATT
  POIN2 Label_0116D5C0
//  #02 //013   ----------------------------------------
Label_0116D621:
 BYTE   N11  As0  v096
 BYTE   N32  Fn4
 BYTE   N32  Gs4
 BYTE   W12
 BYTE   N11  As0
 BYTE   W12
 BYTE   N11
 BYTE   W12
 BYTE   N11
 BYTE   N56  En4
 BYTE   N56  Gn4
 BYTE   W12
 BYTE   N11  As0
 BYTE   W12
 BYTE   N11
 BYTE   W12
 BYTE   N11
 BYTE   W12
 BYTE   Fn1
 BYTE   W12
 BYTE   PEND 
//  #02 //014   ----------------------------------------
Label_0116D63E:
 BYTE   N11  As1  v096
 BYTE   N32  As3
 BYTE   N32  Fn4
 BYTE   W12
 BYTE   N11  As1
 BYTE   W12
 BYTE   N11
 BYTE   W12
 BYTE   N11
 BYTE   N56  Bn3
 BYTE   N56  Fs4
 BYTE   W12
 BYTE   N11  As1
 BYTE   W12
 BYTE   N11
 BYTE   W12
 BYTE   N11
 BYTE   W12
 BYTE   N11
 BYTE   W12
 BYTE   PEND 
//  #02 //015   ----------------------------------------
Label_0116D65B:
 BYTE   N11  Dn1  v096
 BYTE   N32  Cn4
 BYTE   N32  Gn4
 BYTE   W12
 BYTE   N11  Ds1
 BYTE   W12
 BYTE   En1
 BYTE   W12
 BYTE   N23  Fn1
 BYTE   N56  Fn4
 BYTE   N56  An4
 BYTE   W12
 BYTE   W12
 BYTE   N11  Fn1
 BYTE   W12
 BYTE   Cs1
 BYTE   W12
 BYTE   N11
 BYTE   W12
 BYTE   PEND 
//  #02 //016   ----------------------------------------
 BYTE   As0
 BYTE   W12
 BYTE   N11
 BYTE   W12
 BYTE   N11
 BYTE   N56  As3  v080
 BYTE   N56  Fn4
 BYTE   W12
 BYTE   N11  As0  v096
 BYTE   W12
 BYTE   N11
 BYTE   W12
 BYTE   N11
 BYTE   W12
 BYTE   N11
 BYTE   W12
 BYTE   N11
 BYTE   TIE  An3  v080
 BYTE   TIE  En4
 BYTE   W12
//  #02 //017   ----------------------------------------
 BYTE   N11  As0  v096
 BYTE   W12
 BYTE   N11
 BYTE   W12
 BYTE   N11
 BYTE   W12
 BYTE   N11
 BYTE   W12
 BYTE   N11
 BYTE   W12
 BYTE   Cn1
 BYTE   W12
 BYTE   Dn1
 BYTE   W12
 BYTE   En1
 BYTE   W11
 BYTE   EOT
 BYTE   An3  v076
 BYTE   W01
//  #02 //018   ----------------------------------------
 BYTE   N11  As0
 BYTE   W12
 BYTE   N11
 BYTE   W12
 BYTE   N11
 BYTE   N56  Bn3  v080
 BYTE   N56  Fs4
 BYTE   W12
 BYTE   N11  As0  v096
 BYTE   W12
 BYTE   N11
 BYTE   W12
 BYTE   N11
 BYTE   W12
 BYTE   N11
 BYTE   W12
 BYTE   N23  Cs1
 BYTE   N23  As3  v080
 BYTE   N23  Fn4
 BYTE   W12
//  #02 //019   ----------------------------------------
 BYTE   W12
 BYTE   N11  Cs1  v096
 BYTE   W12
 BYTE   N11
 BYTE   W12
 BYTE   N23  Gs0
 BYTE   N56  Cs4  v080
 BYTE   N56  Gs4
 BYTE   W12
 BYTE   W12
 BYTE   N11  Gs0  v096
 BYTE   W12
 BYTE   Cs1
 BYTE   W12
 BYTE   Gs0
 BYTE   W12
//  #02 //020   ----------------------------------------
 BYTE   As0
 BYTE   W12
 BYTE   N11
 BYTE   W12
 BYTE   N11
 BYTE   W12
 BYTE   N11
 BYTE   N32  Fn4  v080
 BYTE   N32  As4
 BYTE   W12
 BYTE   N11  As0  v096
 BYTE   W12
 BYTE   N11
 BYTE   W12
 BYTE   N11
 BYTE   N11  Fn4  v080
 BYTE   N11  Gs4
 BYTE   W12
 BYTE   As0  v096
 BYTE   W12
//  #02 //021   ----------------------------------------
 BYTE   N11
 BYTE   N23  En4  v080
 BYTE   N23  Gn4
 BYTE   W12
 BYTE   N11  As0  v096
 BYTE   W12
 BYTE   N11
 BYTE   W12
 BYTE   N11
 BYTE   N23  Cn4  v080
 BYTE   N23  En4
 BYTE   W12
 BYTE   N11  As0  v096
 BYTE   W12
 BYTE   N11
 BYTE   W12
 BYTE   N11
 BYTE   W12
 BYTE   N23  Bn0
 BYTE   N32  Bn3  v080
 BYTE   N32  Ds4
 BYTE   W12
//  #02 //022   ----------------------------------------
 BYTE   W12
 BYTE   N11  Bn0  v096
 BYTE   W12
 BYTE   N11
 BYTE   N11  Cs4  v080
 BYTE   N11  Fn4
 BYTE   W12
 BYTE   Bn0  v096
 BYTE   W12
 BYTE   Cs1
 BYTE   N11  Ds4  v080
 BYTE   N11  Fs4
 BYTE   W12
 BYTE   Fn1  v096
 BYTE   W12
 BYTE   Gs1
 BYTE   N11  Fn4  v080
 BYTE   N11  Gs4
 BYTE   W12
 BYTE   N23  Cs2  v096
 BYTE   N32  Cs4  v080
 BYTE   N32  Fn4
 BYTE   W12
//  #02 //023   ----------------------------------------
 BYTE   W12
 BYTE   N11  Gs1  v096
 BYTE   W12
 BYTE   Fn1
 BYTE   N11  Ds4  v080
 BYTE   N11  Gs4
 BYTE   W12
 BYTE   Gs1  v096
 BYTE   W12
 BYTE   Cs2
 BYTE   N11  Fn4  v080
 BYTE   N11  Gs4
 BYTE   W12
 BYTE   Gs1  v096
 BYTE   W12
 BYTE   Fn1
 BYTE   N11  Cs4  v080
 BYTE   N11  Fn4
 BYTE   W12
 BYTE   Gs1  v096
 BYTE   N11  Fn4  v080
 BYTE   N11  Gs4
 BYTE   W12
//  #02 //024   ----------------------------------------
 BYTE   As0  v096
 BYTE   W12
 BYTE   N11
 BYTE   W12
 BYTE   N11
 BYTE   N56  As3  v080
 BYTE   N56  Cs4
 BYTE   N56  Fn4
 BYTE   W12
 BYTE   N11  As0  v096
 BYTE   W12
 BYTE   N11
 BYTE   W12
 BYTE   N11
 BYTE   W12
 BYTE   N11
 BYTE   W12
 BYTE   N11
 BYTE   TIE  An3  v080
 BYTE   TIE  Cn4
 BYTE   TIE  En4
 BYTE   W12
//  #02 //025   ----------------------------------------
 BYTE   N11  As0  v096
 BYTE   W12
 BYTE   N11
 BYTE   W12
 BYTE   N11
 BYTE   W12
 BYTE   N23  En1
 BYTE   W24
 BYTE   N11  Ds1
 BYTE   W12
 BYTE   Cs1
 BYTE   W12
 BYTE   Gs0
 BYTE   W11
 BYTE   EOT
 BYTE   An3  v072
 BYTE   En4
 BYTE   W01
//  #02 //026   ----------------------------------------
 BYTE   N11  As0
 BYTE   W12
 BYTE   N11
 BYTE   W12
 BYTE   N11
 BYTE   N56  Bn3  v080
 BYTE   N56  Ds4
 BYTE   N56  Fs4
 BYTE   W12
 BYTE   N11  As0  v096
 BYTE   W12
 BYTE   N11
 BYTE   W12
 BYTE   N11
 BYTE   W12
 BYTE   N11
 BYTE   W12
 BYTE   N23  Cs1
 BYTE   N23  As3  v080
 BYTE   N23  Cs4
 BYTE   N23  Fn4
 BYTE   W12
//  #02 //027   ----------------------------------------
 BYTE   W12
 BYTE   N11  Cs1  v096
 BYTE   W12
 BYTE   N11
 BYTE   W12
 BYTE   N23  Gs0
 BYTE   N56  Cs4  v080
 BYTE   N56  Fn4
 BYTE   N56  Gs4
 BYTE   W12
 BYTE   W12
 BYTE   N11  Fn0  v096
 BYTE   W12
 BYTE   Cs1
 BYTE   W12
 BYTE   Fn0
 BYTE   W12
//  #02 //028   ----------------------------------------
 BYTE   As0
 BYTE   W12
 BYTE   N11
 BYTE   W12
 BYTE   N11
 BYTE   W12
 BYTE   N11
 BYTE   N32  Cs4  v080
 BYTE   N32  Fn4
 BYTE   N32  As4
 BYTE   W12
 BYTE   N11  As0  v096
 BYTE   W12
 BYTE   N11
 BYTE   W12
 BYTE   N11
 BYTE   N11  Cs4  v080
 BYTE   N11  Fn4
 BYTE   N11  Gs4
 BYTE   W12
 BYTE   As0  v096
 BYTE   W12
//  #02 //029   ----------------------------------------
 BYTE   N11
 BYTE   N23  Cn4  v080
 BYTE   N23  En4
 BYTE   N23  Gn4
 BYTE   W12
 BYTE   N11  As0  v096
 BYTE   W12
 BYTE   N11
 BYTE   W12
 BYTE   N23
 BYTE   N23  Gn3  v080
 BYTE   N23  Cn4
 BYTE   N23  En4
 BYTE   W12
 BYTE   W12
 BYTE   N11  Fn1  v096
 BYTE   W12
 BYTE   Gs1
 BYTE   W12
 BYTE   N23  Bn0
 BYTE   N92  Fs3  v080
 BYTE   N92  Bn3
 BYTE   N92  Ds4
 BYTE   W12
//  #02 //030   ----------------------------------------
 BYTE   W12
 BYTE   N11  Bn0  v096
 BYTE   W12
 BYTE   Bn1
 BYTE   W12
 BYTE   N11
 BYTE   W12
 BYTE   N11
 BYTE   W12
 BYTE   Fs1
 BYTE   W12
 BYTE   Bn0
 BYTE   W12
 BYTE   N23  Cs1
 BYTE   TIE  Cs4  v080
 BYTE   TIE  Fn4
 BYTE   TIE  Gs4
 BYTE   W12
//  #02 //031   ----------------------------------------
 BYTE   W12
 BYTE   N11  Cs1  v096
 BYTE   W12
 BYTE   Cs2
 BYTE   W12
 BYTE   N11
 BYTE   W12
 BYTE   N11
 BYTE   W12
 BYTE   N11
 BYTE   W12
 BYTE   N11
 BYTE   W12
 BYTE   Cs1
 BYTE   W11
 BYTE   EOT
 BYTE   Cs4  v077
 BYTE   Gs4
 BYTE   W01
//  #02 //032   ----------------------------------------
Label_0116D85F:
 BYTE   N11  As1  v096
 BYTE   W12
 BYTE   N23  Bn1
 BYTE   W24
 BYTE   N23
 BYTE   W24
 BYTE   N11
 BYTE   W12
 BYTE   As1
 BYTE   W12
 BYTE   Bn1
 BYTE   W12
 BYTE   PEND 
//  #02 //033   ----------------------------------------
Label_0116D86F:
 BYTE   N23  Bn1  v096
 BYTE   W24
 BYTE   N11
 BYTE   W12
 BYTE   N23
 BYTE   W24
 BYTE   N11  Fs1
 BYTE   W12
 BYTE   N11
 BYTE   W12
 BYTE   Bn0
 BYTE   W12
 BYTE   PEND 
//  #02 //034   ----------------------------------------
Label_0116D87F:
 BYTE   N32  Fn1  v096
 BYTE   W36
 BYTE   N23
 BYTE   W24
 BYTE   N11
 BYTE   W12
 BYTE   Gs1
 BYTE   W12
 BYTE   Cs2
 BYTE   W12
 BYTE   PEND 
//  #02 //035   ----------------------------------------
Label_0116D88C:
 BYTE   N32  Fn2  v096
 BYTE   W36
 BYTE   Cs2
 BYTE   W36
 BYTE   N23  Fn1
 BYTE   W24
 BYTE   PEND 
//  #02 //036   ----------------------------------------
Label_0116D896:
 BYTE   N32  Bn1  v096
 BYTE   W36
 BYTE   N23
 BYTE   W24
 BYTE   Fs1
 BYTE   W24
 BYTE   N11  Ds1
 BYTE   W12
 BYTE   PEND 
//  #02 //037   ----------------------------------------
Label_0116D8A2:
 BYTE   N32  Bn1  v096
 BYTE   W36
 BYTE   Fs1
 BYTE   W36
 BYTE   N23  Bn0
 BYTE   W24
 BYTE   PEND 
//  #02 //038   ----------------------------------------
Label_0116D8AC:
 BYTE   N32  As0  v096
 BYTE   W36
 BYTE   N32
 BYTE   W36
 BYTE   N23  Fn0
 BYTE   W24
 BYTE   PEND 
//  #02 //039   ----------------------------------------
Label_0116D8B6:
 BYTE   N32  As0  v096
 BYTE   W36
 BYTE   N32
 BYTE   W24
 BYTE   N11  As3  v080
 BYTE   W12
 BYTE   N23  As0  v096
 BYTE   N11  Cn4  v080
 BYTE   W12
 BYTE   Cs4
 BYTE   W12
 BYTE   PEND 
//  #02 //040   ----------------------------------------
Label_0116D8CA:
 BYTE   N11  Ds1  v096
 BYTE   N68  Fn4  v080
 BYTE   W12
 BYTE   N11  Ds1  v096
 BYTE   W12
 BYTE   N11
 BYTE   W12
 BYTE   N23
 BYTE   W24
 BYTE   N11
 BYTE   W12
 BYTE   N11
 BYTE   N05  Ds4  v080
 BYTE   W12
 BYTE   N11  Ds1  v096
 BYTE   N05  Cs4  v080
 BYTE   W12
 BYTE   PEND 
//  #02 //041   ----------------------------------------
Label_0116D8E8:
 BYTE   N11  Fn1  v096
 BYTE   N32  Cn4  v080
 BYTE   W12
 BYTE   N11  Fn1  v096
 BYTE   W12
 BYTE   N11
 BYTE   W12
 BYTE   N23
 BYTE   N44  Gs3  v080
 BYTE   W12
 BYTE   W12
 BYTE   N11  Fn1  v096
 BYTE   W12
 BYTE   N11
 BYTE   W12
 BYTE   N11
 BYTE   W12
 BYTE   PEND 
//  #02 //042   ----------------------------------------
Label_0116D904:
 BYTE   N11  Fs1  v096
 BYTE   N56  As3  v080
 BYTE   W12
 BYTE   N11  Fs1  v096
 BYTE   W12
 BYTE   N11
 BYTE   W12
 BYTE   N23
 BYTE   W12
 BYTE   W12
 BYTE   N11
 BYTE   N11  As3  v080
 BYTE   W12
 BYTE   Fs1  v096
 BYTE   N11  Cn4  v080
 BYTE   W12
 BYTE   Fs1  v096
 BYTE   N11  Cs4  v080
 BYTE   W12
 BYTE   PEND 
//  #02 //043   ----------------------------------------
Label_0116D926:
 BYTE   N11  Gn1  v096
 BYTE   N23  Fn4  v080
 BYTE   W12
 BYTE   N11  Gn1  v096
 BYTE   W12
 BYTE   N11
 BYTE   N23  Ds4  v080
 BYTE   W12
 BYTE   Gn1  v096
 BYTE   W12
 BYTE   As3  v080
 BYTE   W12
 BYTE   N11  Gn1  v096
 BYTE   W12
 BYTE   N11
 BYTE   N23  Cn4  v080
 BYTE   W12
 BYTE   N11  Gn1  v096
 BYTE   W12
 BYTE   PEND 
//  #02 //044   ----------------------------------------
Label_0116D94A:
 BYTE   N11  Gs0  v096
 BYTE   TIE  Cs4  v080
 BYTE   W12
 BYTE   N11  Gs0  v096
 BYTE   W12
 BYTE   Cs1
 BYTE   W12
 BYTE   Gs0
 BYTE   W12
 BYTE   Dn1
 BYTE   W12
 BYTE   Gs0
 BYTE   W12
 BYTE   Ds1
 BYTE   W12
 BYTE   Gs0
 BYTE   W12
 BYTE   PEND 
//  #02 //045   ----------------------------------------
Label_0116D962:
 BYTE   N11  Gs1  v096
 BYTE   W12
 BYTE   Fs1
 BYTE   W12
 BYTE   Ds1
 BYTE   W12
 BYTE   N23  Gs1
 BYTE   W24
 BYTE   Fs1
 BYTE   W11
 BYTE   PEND 
 BYTE   EOT
 BYTE   Cs4
 BYTE   W01
 BYTE   N05  As3  v127
 BYTE   N05  As4
 BYTE   W06
 BYTE   Cn4
 BYTE   N05  Cn5
 BYTE   W06
 BYTE   N11  Ds1  v096
 BYTE   N05  Cs4  v127
 BYTE   N05  Cs5
 BYTE   W06
 BYTE   Ds4
 BYTE   N05  Ds5
 BYTE   W06
//  #02 //046   ----------------------------------------
Label_0116D98A:
 BYTE   N11  Fn1  v096
 BYTE   N05  As3  v127
 BYTE   N05  Fn4
 BYTE   N05  As4
 BYTE   N05  Fn5
 BYTE   W12
 BYTE   N11  Fn1  v096
 BYTE   N05  As3  v127
 BYTE   N05  Fn4
 BYTE   N05  As4
 BYTE   N05  Fn5
 BYTE   W24
 BYTE   N11  Fn1  v096
 BYTE   N05  As3  v127
 BYTE   N05  Fn4
 BYTE   N05  As4
 BYTE   N05  Fn5
 BYTE   W12
 BYTE   N11  Fn1  v096
 BYTE   N05  As3  v127
 BYTE   N05  Fn4
 BYTE   N05  As4
 BYTE   N05  Fn5
 BYTE   W24
 BYTE   N11  Fn1  v096
 BYTE   N05  As3  v127
 BYTE   N05  Fn4
 BYTE   N05  As4
 BYTE   N05  Fn5
 BYTE   W12
 BYTE   N11  Fn1  v096
 BYTE   N05  An3  v127
 BYTE   N05  Fn4
 BYTE   N05  An4
 BYTE   N05  Fn5
 BYTE   W12
 BYTE   PEND 
//  #02 //047   ----------------------------------------
 BYTE   W84
 BYTE   N23  Fs1  v112
 BYTE   W12
//  #02 //048   ----------------------------------------
Label_0116D9DE:
 BYTE   W12
 BYTE   N11  Fs1  v112
 BYTE   W12
 BYTE   N11
 BYTE   W12
 BYTE   N11
 BYTE   W12
 BYTE   N11
 BYTE   W12
 BYTE   N11
 BYTE   W12
 BYTE   N11
 BYTE   W12
 BYTE   N23  Gs1
 BYTE   W12
 BYTE   PEND 
//  #02 //049   ----------------------------------------
Label_0116D9F1:
 BYTE   W12
 BYTE   N11  Gs1  v112
 BYTE   W12
 BYTE   N11
 BYTE   W12
 BYTE   N11
 BYTE   W12
 BYTE   N11
 BYTE   W12
 BYTE   N11
 BYTE   W12
 BYTE   N11
 BYTE   W12
 BYTE   N11
 BYTE   W12
 BYTE   PEND 
//  #02 //050   ----------------------------------------
Label_0116DA03:
 BYTE   N11  Fn1  v112
 BYTE   W12
 BYTE   N11
 BYTE   W12
 BYTE   N11
 BYTE   W12
 BYTE   N11
 BYTE   W12
 BYTE   N11
 BYTE   W12
 BYTE   N11
 BYTE   W12
 BYTE   N11
 BYTE   W12
 BYTE   N23  As1
 BYTE   W12
 BYTE   PEND 
//  #02 //051   ----------------------------------------
Label_0116DA17:
 BYTE   W12
 BYTE   N11  As1  v112
 BYTE   W12
 BYTE   N11
 BYTE   W12
 BYTE   N23  Cs2
 BYTE   W24
 BYTE   As1
 BYTE   W24
 BYTE   N11  Fn1
 BYTE   W12
 BYTE   PEND 
//  #02 //052   ----------------------------------------
Label_0116DA27:
 BYTE   N11  Ds1  v112
 BYTE   W12
 BYTE   N11
 BYTE   W12
 BYTE   N11
 BYTE   W12
 BYTE   N23
 BYTE   W24
 BYTE   N11
 BYTE   W12
 BYTE   N11
 BYTE   W12
 BYTE   N11
 BYTE   W12
 BYTE   PEND 
//  #02 //053   ----------------------------------------
Label_0116DA38:
 BYTE   N11  Fn1  v112
 BYTE   W12
 BYTE   N11
 BYTE   W12
 BYTE   N11
 BYTE   W12
 BYTE   N23  An1
 BYTE   W24
 BYTE   N11  Fn1
 BYTE   W12
 BYTE   Cn2
 BYTE   W12
 BYTE   N23  As1
 BYTE   N23  Cs4  v096
 BYTE   N23  As4
 BYTE   W12
 BYTE   PEND 
//  #02 //054   ----------------------------------------
 BYTE   W12
 BYTE   N11  As1  v112
 BYTE   N05  Cn4  v096
 BYTE   N05  An4
 BYTE   W12
 BYTE   N11  As1  v112
 BYTE   N05  Cs4  v096
 BYTE   N05  As4
 BYTE   W12
 BYTE   N23  An1  v112
 BYTE   N23  Ds4  v096
 BYTE   N23  Cn5
 BYTE   W12
 BYTE   W12
 BYTE   N11  An1  v112
 BYTE   N05  Cs4  v096
 BYTE   N05  As4
 BYTE   W12
 BYTE   N11  An1  v112
 BYTE   N05  Ds4  v096
 BYTE   N05  Cn5
 BYTE   W12
 BYTE   N32  Gs1  v112
 BYTE   N23  Fn4  v096
 BYTE   N23  Cs5
 BYTE   W12
//  #02 //055   ----------------------------------------
Label_0116DA89:
 BYTE   W24
 BYTE   N11  Gs1  v112
 BYTE   W12
 BYTE   N11
 BYTE   W12
 BYTE   Gn1
 BYTE   W12
 BYTE   Fs1
 BYTE   W24
 BYTE   N23
 BYTE   W12
 BYTE   PEND 
//  #02 //056   ----------------------------------------
 BYTE   PATT
  POIN2 Label_0116D9DE
//  #02 //057   ----------------------------------------
 BYTE   PATT
  POIN2 Label_0116D9F1
//  #02 //058   ----------------------------------------
 BYTE   PATT
  POIN2 Label_0116DA03
//  #02 //059   ----------------------------------------
Label_0116DAA6:
 BYTE   W12
 BYTE   N11  As1  v112
 BYTE   W12
 BYTE   N11
 BYTE   W12
 BYTE   N11
 BYTE   W12
 BYTE   N11
 BYTE   W12
 BYTE   N11
 BYTE   W12
 BYTE   N11
 BYTE   W12
 BYTE   N11
 BYTE   W12
 BYTE   PEND 
//  #02 //060   ----------------------------------------
Label_0116DAB8:
 BYTE   N11  Ds1  v112
 BYTE   W12
 BYTE   N11
 BYTE   W36
 BYTE   N11
 BYTE   W12
 BYTE   N11
 BYTE   W36
 BYTE   PEND 
//  #02 //061   ----------------------------------------
Label_0116DAC3:
 BYTE   N11  Fn1  v112
 BYTE   W12
 BYTE   N11
 BYTE   W36
 BYTE   N11
 BYTE   W12
 BYTE   N11
 BYTE   W24
 BYTE   Gs1
 BYTE   W12
 BYTE   PEND 
//  #02 //062   ----------------------------------------
Label_0116DAD0:
 BYTE   N11  As1  v112
 BYTE   N11  Ds4  v127
 BYTE   N11  As4
 BYTE   N11  Ds5
 BYTE   W12
 BYTE   As1  v112
 BYTE   N11  Ds4  v127
 BYTE   N11  As4
 BYTE   N11  Ds5
 BYTE   W24
 BYTE   As1  v112
 BYTE   N11  Ds4  v127
 BYTE   N11  As4
 BYTE   N11  Ds5
 BYTE   W12
 BYTE   As1  v112
 BYTE   N11  Ds4  v127
 BYTE   N11  As4
 BYTE   N11  Ds5
 BYTE   W24
 BYTE   As1  v112
 BYTE   N11  Ds4  v127
 BYTE   N11  As4
 BYTE   N11  Ds5
 BYTE   W12
 BYTE   As1  v112
 BYTE   N11  Ds4  v127
 BYTE   N11  As4
 BYTE   N11  Ds5
 BYTE   W12
 BYTE   PEND 
//  #02 //063   ----------------------------------------
Label_0116DB0E:
 BYTE   W12
 BYTE   N11  As1  v112
 BYTE   N11  Ds4  v127
 BYTE   N11  As4
 BYTE   N11  Ds5
 BYTE   W12
 BYTE   As1  v112
 BYTE   N11  Ds4  v127
 BYTE   N11  As4
 BYTE   N11  Ds5
 BYTE   W24
 BYTE   As1  v112
 BYTE   N11  Dn4  v127
 BYTE   N11  As4
 BYTE   N11  Dn5
 BYTE   W48
 BYTE   PEND 
//  #02 //064   ----------------------------------------
 BYTE   PATT
  POIN2 Label_0116DAD0
//  #02 //065   ----------------------------------------
 BYTE   PATT
  POIN2 Label_0116DB0E
//  #02 //066   ----------------------------------------
 BYTE   W96
//  #02 //067   ----------------------------------------
 BYTE   W96
//  #02 //068   ----------------------------------------
 BYTE   W96
//  #02 //069   ----------------------------------------
 BYTE   W96
//  #02 //070   ----------------------------------------
 BYTE   N02  As3  v112
 BYTE   N02  As4
 BYTE   W01
 BYTE   W01
 BYTE   As3  v104
 BYTE   N02  As4
 BYTE   W01
 BYTE   W01
 BYTE   W01
 BYTE   As3  v096
 BYTE   N02  As4
 BYTE   W01
 BYTE   W01
 BYTE   W01
 BYTE   As3  v088
 BYTE   N02  As4
 BYTE   W01
 BYTE   W01
 BYTE   W01
 BYTE   As3  v080
 BYTE   N02  As4
 BYTE   W01
 BYTE   W01
 BYTE   W01
 BYTE   As3  v072
 BYTE   N02  As4
 BYTE   W01
 BYTE   W01
 BYTE   W01
 BYTE   As3  v064
 BYTE   N02  As4
 BYTE   W01
 BYTE   W01
 BYTE   W01
 BYTE   As3  v056
 BYTE   N02  As4
 BYTE   W01
 BYTE   W01
 BYTE   W01
 BYTE   As3  v048
 BYTE   N02  As4
 BYTE   W01
 BYTE   W01
 BYTE   W01
 BYTE   As3  v040
 BYTE   N02  As4
 BYTE   W01
 BYTE   W01
 BYTE   W01
 BYTE   As3  v036
 BYTE   N02  As4
 BYTE   W03
 BYTE   As3
 BYTE   N02  As4
 BYTE   W03
 BYTE   As3
 BYTE   N02  As4
 BYTE   W03
 BYTE   As3
 BYTE   N02  As4
 BYTE   W03
 BYTE   As3
 BYTE   N02  As4
 BYTE   W03
 BYTE   As3
 BYTE   N02  As4
 BYTE   W03
 BYTE   As3
 BYTE   N02  As4
 BYTE   W03
 BYTE   As3
 BYTE   N02  As4
 BYTE   W03
 BYTE   As3
 BYTE   N02  As4
 BYTE   W03
 BYTE   As3
 BYTE   N02  As4
 BYTE   W03
 BYTE   As3
 BYTE   N02  As4
 BYTE   W03
 BYTE   As3
 BYTE   N02  As4
 BYTE   W01
 BYTE   W02
 BYTE   As3
 BYTE   N02  As4
 BYTE   W03
 BYTE   As3
 BYTE   N02  As4
 BYTE   W03
 BYTE   As3
 BYTE   N02  As4
 BYTE   W03
 BYTE   As3
 BYTE   N02  As4
 BYTE   W03
 BYTE   As3
 BYTE   N02  As4
 BYTE   W01
 BYTE   W02
 BYTE   As3  v040
 BYTE   N02  As4
 BYTE   W03
 BYTE   As3
 BYTE   N02  As4
 BYTE   W01
 BYTE   W02
 BYTE   As3
 BYTE   N02  As4
 BYTE   W03
 BYTE   As3
 BYTE   N02  As4
 BYTE   W01
 BYTE   W02
 BYTE   As3
 BYTE   N02  As4
 BYTE   W03
 BYTE   W01
//  #02 //071   ----------------------------------------
 BYTE   As3
 BYTE   N02  As4
 BYTE   W02
 BYTE   As3
 BYTE   N02  As4
 BYTE   W01
 BYTE   W02
 BYTE   As3  v044
 BYTE   N02  As4
 BYTE   W03
 BYTE   As3
 BYTE   N02  As4
 BYTE   W03
 BYTE   As3
 BYTE   N02  As4
 BYTE   W01
 BYTE   W02
 BYTE   As3
 BYTE   N02  As4
 BYTE   W02
 BYTE   W01
 BYTE   As3
 BYTE   N02  As4
 BYTE   W03
 BYTE   As3  v048
 BYTE   N02  As4
 BYTE   W03
 BYTE   As3
 BYTE   N02  As4
 BYTE   W01
 BYTE   W02
 BYTE   As3
 BYTE   N02  As4
 BYTE   W01
 BYTE   W02
 BYTE   As3
 BYTE   N02  As4
 BYTE   W02
 BYTE   W01
 BYTE   As3
 BYTE   N02  As4
 BYTE   W02
 BYTE   W01
 BYTE   As3  v052
 BYTE   N02  As4
 BYTE   W02
 BYTE   W01
 BYTE   As3
 BYTE   N02  As4
 BYTE   W02
 BYTE   W01
 BYTE   As3
 BYTE   N02  As4
 BYTE   W02
 BYTE   W01
 BYTE   As3
 BYTE   N02  As4
 BYTE   W02
 BYTE   W01
 BYTE   As3  v056
 BYTE   N02  As4
 BYTE   W02
 BYTE   W01
 BYTE   As3
 BYTE   N02  As4
 BYTE   W02
 BYTE   W01
 BYTE   As3
 BYTE   N02  As4
 BYTE   W02
 BYTE   W01
 BYTE   As3
 BYTE   N02  As4
 BYTE   W02
 BYTE   W01
 BYTE   As3  v060
 BYTE   N02  As4
 BYTE   W02
 BYTE   W01
 BYTE   As3
 BYTE   N02  As4
 BYTE   W02
 BYTE   W01
 BYTE   As3
 BYTE   N02  As4
 BYTE   W01
 BYTE   W02
 BYTE   As3
 BYTE   N02  As4
 BYTE   W01
 BYTE   W02
 BYTE   As3  v064
 BYTE   N02  As4
 BYTE   W03
 BYTE   As3
 BYTE   N02  As4
 BYTE   W03
 BYTE   As3
 BYTE   N02  As4
 BYTE   W02
 BYTE   W01
 BYTE   As3  v068
 BYTE   N02  As4
 BYTE   W01
 BYTE   W02
 BYTE   As3
 BYTE   N02  As4
 BYTE   W01
 BYTE   W02
 BYTE   As3
 BYTE   N02  As4
 BYTE   W03
 BYTE   As3  v072
 BYTE   N02  As4
 BYTE   W02
 BYTE   W01
 BYTE   As3
 BYTE   N02  As4
 BYTE   W01
 BYTE   W03
//  #02 //072   ----------------------------------------
 BYTE   As3
 BYTE   N02  As4
 BYTE   W02
 BYTE   As3  v076
 BYTE   N02  As4
 BYTE   W02
 BYTE   W01
 BYTE   As3
 BYTE   N02  As4
 BYTE   W02
 BYTE   W01
 BYTE   As3
 BYTE   N02  As4
 BYTE   W01
 BYTE   W02
 BYTE   As3  v080
 BYTE   N02  As4
 BYTE   W02
 BYTE   W01
 BYTE   As3
 BYTE   N02  As4
 BYTE   W02
 BYTE   W01
 BYTE   As3
 BYTE   N02  As4
 BYTE   W01
 BYTE   W02
 BYTE   As3  v084
 BYTE   N02  As4
 BYTE   W02
 BYTE   W01
 BYTE   As3
 BYTE   N02  As4
 BYTE   W01
 BYTE   W02
 BYTE   As3
 BYTE   N02  As4
 BYTE   W03
 BYTE   As3  v088
 BYTE   N02  As4
 BYTE   W02
 BYTE   W01
 BYTE   As3
 BYTE   N02  As4
 BYTE   W01
 BYTE   W02
 BYTE   As3
 BYTE   N02  As4
 BYTE   W02
 BYTE   W01
 BYTE   As3  v092
 BYTE   N02  As4
 BYTE   W01
 BYTE   W02
 BYTE   As3
 BYTE   N02  As4
 BYTE   W02
 BYTE   W01
 BYTE   As3
 BYTE   N02  As4
 BYTE   W01
 BYTE   W02
 BYTE   As3  v096
 BYTE   N02  As4
 BYTE   W02
 BYTE   W01
 BYTE   As3
 BYTE   N02  As4
 BYTE   W01
 BYTE   W02
 BYTE   As3
 BYTE   N02  As4
 BYTE   W02
 BYTE   W01
 BYTE   As3  v100
 BYTE   N02  As4
 BYTE   W01
 BYTE   W02
 BYTE   As3
 BYTE   N02  As4
 BYTE   W02
 BYTE   As3
 BYTE   N02  As4
 BYTE   W01
 BYTE   W02
 BYTE   As3  v104
 BYTE   N02  As4
 BYTE   W02
 BYTE   W01
 BYTE   As3
 BYTE   N02  As4
 BYTE   W01
 BYTE   W02
 BYTE   W02
 BYTE   N01  As3  v108
 BYTE   N01  As4
 BYTE   W01
 BYTE   As3
 BYTE   N01  As4
 BYTE   W01
 BYTE   W01
 BYTE   As3
 BYTE   N01  As4
 BYTE   W01
 BYTE   As3
 BYTE   N01  As4
 BYTE   W02
 BYTE   As3
 BYTE   N01  As4
 BYTE   W01
 BYTE   As3  v112
 BYTE   N01  As4
 BYTE   W01
 BYTE   W01
 BYTE   As3
 BYTE   N01  As4
 BYTE   W01
 BYTE   As3
 BYTE   N01  As4
 BYTE   W02
 BYTE   W12
//  #02 //073   ----------------------------------------
 BYTE   W96
//  #02 //074   ----------------------------------------
Label_0116DD27:
 BYTE   N11  As0  v112
 BYTE   W12
 BYTE   N11
 BYTE   W12
 BYTE   Cs1
 BYTE   W12
 BYTE   As0
 BYTE   W12
 BYTE   En1
 BYTE   W12
 BYTE   Ds1
 BYTE   W12
 BYTE   Cs1
 BYTE   W12
 BYTE   N23  As0
 BYTE   W12
 BYTE   PEND 
//  #02 //075   ----------------------------------------
Label_0116DD3B:
 BYTE   W12
 BYTE   N11  As0  v112
 BYTE   W12
 BYTE   Cs1
 BYTE   W12
 BYTE   As0
 BYTE   W12
 BYTE   Fn0
 BYTE   W12
 BYTE   En0
 BYTE   W12
 BYTE   Ds0
 BYTE   W12
 BYTE   Cs0
 BYTE   W12
 BYTE   PEND 
//  #02 //076   ----------------------------------------
Label_0116DD4D:
 BYTE   N11  As0  v112
 BYTE   W12
 BYTE   N11
 BYTE   W12
 BYTE   Cs1
 BYTE   W12
 BYTE   As0
 BYTE   W12
 BYTE   En1
 BYTE   W12
 BYTE   Ds1
 BYTE   W12
 BYTE   Cs1
 BYTE   W12
 BYTE   N23  Fs0
 BYTE   W12
 BYTE   PEND 
//  #02 //077   ----------------------------------------
 BYTE   W12
 BYTE   N11  As0
 BYTE   W12
 BYTE   Cs1
 BYTE   W12
 BYTE   N23  Gs0
 BYTE   W60
//  #02 //078   ----------------------------------------
 BYTE   PATT
  POIN2 Label_0116DD27
//  #02 //079   ----------------------------------------
 BYTE   PATT
  POIN2 Label_0116DD3B
//  #02 //080   ----------------------------------------
 BYTE   PATT
  POIN2 Label_0116DD4D
//  #02 //081   ----------------------------------------
 BYTE   W12
 BYTE   N11  As0  v112
 BYTE   W12
 BYTE   Fs1
 BYTE   W12
 BYTE   N23  Gs1
 BYTE   W24
 BYTE   N11  Ds1
 BYTE   W12
 BYTE   Gs1
 BYTE   W12
 BYTE   Cn2
 BYTE   W12
//  #02 //082   ----------------------------------------
 BYTE   As0
 BYTE   N11  Ds4  v127
 BYTE   N11  As4
 BYTE   N11  Ds5
 BYTE   W12
 BYTE   As0  v112
 BYTE   N11  Ds4  v127
 BYTE   N11  As4
 BYTE   N11  Ds5
 BYTE   W24
 BYTE   As0  v112
 BYTE   N11  Ds4  v127
 BYTE   N11  As4
 BYTE   N11  Ds5
 BYTE   W12
 BYTE   As0  v112
 BYTE   N11  Ds4  v127
 BYTE   N11  As4
 BYTE   N11  Ds5
 BYTE   TIE  Fn5  v064
 BYTE   W24
 BYTE   N11  As0  v112
 BYTE   N11  Ds4  v127
 BYTE   N11  As4
 BYTE   N11  Ds5
 BYTE   W12
 BYTE   As0  v112
 BYTE   N11  Ds4  v127
 BYTE   N11  As4
 BYTE   N11  Ds5
 BYTE   W12
//  #02 //083   ----------------------------------------
 BYTE   W12
 BYTE   As0  v112
 BYTE   N11  Ds4  v127
 BYTE   N11  As4
 BYTE   N11  Ds5
 BYTE   W12
 BYTE   As0  v112
 BYTE   N11  Ds4  v127
 BYTE   N11  As4
 BYTE   N11  Ds5
 BYTE   W24
 BYTE   As0  v112
 BYTE   N11  Dn4  v127
 BYTE   N11  As4
 BYTE   N11  Dn5
 BYTE   W44
 BYTE   W03
 BYTE   EOT
 BYTE   Fn5
 BYTE   W01
//  #02 //084   ----------------------------------------
 BYTE   N11  As0  v112
 BYTE   N11  Ds4  v127
 BYTE   N11  As4
 BYTE   N11  Ds5
 BYTE   N05  An5  v064
 BYTE   W06
 BYTE   TIE  As5
 BYTE   W06
 BYTE   N11  As0  v112
 BYTE   N11  Ds4  v127
 BYTE   N11  As4
 BYTE   N11  Ds5
 BYTE   W12
 BYTE   W12
 BYTE   As0  v112
 BYTE   N11  Ds4  v127
 BYTE   N11  As4
 BYTE   N11  Ds5
 BYTE   W12
 BYTE   As0  v112
 BYTE   N11  Ds4  v127
 BYTE   N11  As4
 BYTE   N11  Ds5
 BYTE   W24
 BYTE   As0  v112
 BYTE   N11  Ds4  v127
 BYTE   N11  As4
 BYTE   N11  Ds5
 BYTE   W12
 BYTE   As0  v112
 BYTE   N11  Ds4  v127
 BYTE   N11  As4
 BYTE   N11  Ds5
 BYTE   W12
//  #02 //085   ----------------------------------------
 BYTE   W12
 BYTE   As1  v112
 BYTE   N11  Ds4  v127
 BYTE   N11  As4
 BYTE   N11  Ds5
 BYTE   W12
 BYTE   As1  v112
 BYTE   N11  Ds4  v127
 BYTE   N11  As4
 BYTE   N11  Ds5
 BYTE   W24
 BYTE   As1  v112
 BYTE   N11  Dn4  v127
 BYTE   N11  As4
 BYTE   N11  Dn5
 BYTE   W44
 BYTE   W03
 BYTE   EOT
 BYTE   As5
 BYTE   W01
//  #02 //086   ----------------------------------------
 BYTE   GoTo
  POIN2 Label_0116D4BA
//  #02 //087   ----------------------------------------
 BYTE   N92  As0  v096
 BYTE   N05  As4  v127
 BYTE   W12
 BYTE   Fn4
 BYTE   W12
 BYTE   As4
 BYTE   W12
 BYTE   Fn4
 BYTE   W12
 BYTE   As4
 BYTE   W12
 BYTE   Fn4
 BYTE   W12
 BYTE   As4
 BYTE   W12
 BYTE   Fn4
 BYTE   W12
//  #02 //088   ----------------------------------------
 BYTE   N92  Fn1  v096
 BYTE   N05  Fn4  v127
 BYTE   W12
 BYTE   Cn4
 BYTE   W12
 BYTE   Fn4
 BYTE   W12
 BYTE   Cn4
 BYTE   W12
 BYTE   Fn4
 BYTE   W12
 BYTE   Cn4
 BYTE   W12
 BYTE   Fn4
 BYTE   W12
 BYTE   Cn4
 BYTE   W12
//  #02 //089   ----------------------------------------
 BYTE   N92  Gs1  v096
 BYTE   N05  Gs4  v127
 BYTE   W12
 BYTE   Ds4
 BYTE   W12
 BYTE   Gs4
 BYTE   W12
 BYTE   Ds4
 BYTE   W12
 BYTE   Gs4
 BYTE   W12
 BYTE   Ds4
 BYTE   W12
 BYTE   Gs4
 BYTE   W12
 BYTE   Ds4
 BYTE   W12
//  #02 //090   ----------------------------------------
 BYTE   N44  As1  v096
 BYTE   N05  As4  v127
 BYTE   W12
 BYTE   Fn4
 BYTE   W12
 BYTE   As4
 BYTE   W12
 BYTE   Fn4
 BYTE   W12
 BYTE   N44  Cn2  v096
 BYTE   N05  Cn5  v127
 BYTE   W12
 BYTE   Gn4
 BYTE   W12
 BYTE   Cn5
 BYTE   W12
 BYTE   Gn4
 BYTE   W12
//  #02 //091   ----------------------------------------
 BYTE   N92  Cn1  v096
 BYTE   N05  Cn4  v127
 BYTE   W12
 BYTE   Gn3
 BYTE   W12
 BYTE   Cn4
 BYTE   W12
 BYTE   Gn3
 BYTE   W12
 BYTE   Cn4
 BYTE   W12
 BYTE   Gn3
 BYTE   W12
 BYTE   Cn4
 BYTE   W12
 BYTE   Gn3
 BYTE   W12
//  #02 //092   ----------------------------------------
 BYTE   N92  Gn1  v096
 BYTE   N05  Gn4  v127
 BYTE   W12
 BYTE   Dn4
 BYTE   W12
 BYTE   Gn4
 BYTE   W12
 BYTE   Dn4
 BYTE   W12
 BYTE   Gn4
 BYTE   W12
 BYTE   Dn4
 BYTE   W12
 BYTE   Gn4
 BYTE   W12
 BYTE   Dn4
 BYTE   W12
//  #02 //093   ----------------------------------------
 BYTE   N92  As1  v096
 BYTE   N05  As4  v127
 BYTE   W12
 BYTE   Fn4
 BYTE   W12
 BYTE   As4
 BYTE   W12
 BYTE   Fn4
 BYTE   W12
 BYTE   As4
 BYTE   W12
 BYTE   Fn4
 BYTE   W12
 BYTE   As4
 BYTE   W12
 BYTE   Fn4
 BYTE   W12
//  #02 //094   ----------------------------------------
 BYTE   N44  Cn2  v096
 BYTE   N05  Cn5  v127
 BYTE   W12
 BYTE   Gn4
 BYTE   W12
 BYTE   Cn5
 BYTE   W12
 BYTE   Gn4
 BYTE   W12
 BYTE   N44  Dn2  v096
 BYTE   N05  Dn5  v127
 BYTE   W12
 BYTE   An4
 BYTE   W12
 BYTE   Dn5
 BYTE   W12
 BYTE   An4
 BYTE   W12
//  #02 //095   ----------------------------------------
 BYTE   TIE  Ds1  v096
 BYTE   TIE  As4  v064
 BYTE   W12
 BYTE   W12
 BYTE   W13
 BYTE   W12
 BYTE   W12
 BYTE   W13
 BYTE   W12
 BYTE   W10
//  #02 //096   ----------------------------------------
 BYTE   W03
 BYTE   W12
 BYTE   W12
 BYTE   W13
 BYTE   W12
 BYTE   W13
 BYTE   W12
 BYTE   W12
 BYTE   W07
//  #02 //097   ----------------------------------------
 BYTE   W06
 BYTE   W12
 BYTE   W13
 BYTE   W12
 BYTE   W12
 BYTE   W13
 BYTE   W12
 BYTE   W12
 BYTE   W04
//  #02 //098   ----------------------------------------
 BYTE   W09
 BYTE   W12
 BYTE   W13
 BYTE   W12
 BYTE   W12
 BYTE   W13
 BYTE   W12
 BYTE   W12
 BYTE   EOT
 BYTE   Ds1  v082
 BYTE   W01
//  #02 //099   ----------------------------------------
 BYTE   N92  As3  v036
 BYTE   N92  Dn4
 BYTE   W48
 BYTE   N44  Gn1
 BYTE   W48
//  #02 //100   ----------------------------------------
 BYTE   N92  An3
 BYTE   N92  Cn4
 BYTE   W48
 BYTE   N44  Fn1
 BYTE   W48
//  #02 //101   ----------------------------------------
 BYTE   N92  Gn3
 BYTE   N92  As3
 BYTE   W48
 BYTE   N44  Ds2
 BYTE   W48
//  #02 //102   ----------------------------------------
 BYTE   N92  As2
 BYTE   N92  Fn3
 BYTE   W48
 BYTE   N44  As0
 BYTE   W48
//  #02 //103   ----------------------------------------
 BYTE   N92  Ds3
 BYTE   N92  Gn3
 BYTE   W48
 BYTE   N44  Cn1
 BYTE   W48
//  #02 //104   ----------------------------------------
 BYTE   N92  Dn3
 BYTE   N92  Gn3
 BYTE   W48
 BYTE   N44  As0
 BYTE   W48
//  #02 //105   ----------------------------------------
 BYTE   N92  As2
 BYTE   N92  En3
 BYTE   W48
 BYTE   N44  Cs1
 BYTE   W48
//  #02 //106   ----------------------------------------
 BYTE   N92  An3
 BYTE   N92  Cn4
 BYTE   W48
 BYTE   N44  Dn1
 BYTE   W48
//  #02 //107   ----------------------------------------
 BYTE   N92  As3
 BYTE   N92  Dn4
 BYTE   W96
//  #02 //108   ----------------------------------------
 BYTE   An3
 BYTE   N92  Cn4
 BYTE   W96
//  #02 //109   ----------------------------------------
 BYTE   Gn3
 BYTE   N92  As3
 BYTE   W96
//  #02 //110   ----------------------------------------
 BYTE   Dn3
 BYTE   N92  Fn3
 BYTE   W96
//  #02 //111   ----------------------------------------
Label_0116DF89:
 BYTE   N92  Ds3  v036
 BYTE   N92  As3
 BYTE   W96
 BYTE   PEND 
//  #02 //112   ----------------------------------------
 BYTE   Dn3
 BYTE   N92  An3
 BYTE   W96
//  #02 //113   ----------------------------------------
 BYTE   PATT
  POIN2 Label_0116DF89
//  #02 //114   ----------------------------------------
 BYTE   N92  Fs3  v036
 BYTE   N92  Cn4
 BYTE   W96
//  #02 //115   ----------------------------------------
 BYTE   TIE  Dn3
 BYTE   TIE  Gn3
 BYTE   W96
//  #02 //116   ----------------------------------------
 BYTE   W44
 BYTE   W03
 BYTE   EOT
 BYTE   Dn3  v067
 BYTE   W01
 BYTE   N23
 BYTE   N23  As3
 BYTE   W24
 BYTE   Fn3
 BYTE   N23  An3
 BYTE   W24
//  #02 //117   ----------------------------------------
 BYTE   N68  Dn3
 BYTE   N68  Fn3
 BYTE   W48
 BYTE   W24
 BYTE   N11  Cn3
 BYTE   N11  Fn3
 BYTE   W12
 BYTE   As2
 BYTE   N11  Ds3
 BYTE   W12
//  #02 //118   ----------------------------------------
 BYTE   N68  As2
 BYTE   N68  Dn3
 BYTE   W72
 BYTE   N23  An2
 BYTE   N23  Dn3
 BYTE   W24
//  #02 //119   ----------------------------------------
 BYTE   N92  As2
 BYTE   N92  Gn3
 BYTE   W96
//  #02 //120   ----------------------------------------
 BYTE   N23  Dn3
 BYTE   N23  Gn3
 BYTE   W24
 BYTE   Cn3
 BYTE   N23  Fn3
 BYTE   W24
 BYTE   Cn3
 BYTE   N23  Ds3
 BYTE   W24
 BYTE   Dn3
 BYTE   N23  Fn3
 BYTE   W24
//  #02 //121   ----------------------------------------
 BYTE   Cn3
 BYTE   W05
 BYTE   W06
 BYTE   W05
 BYTE   W06
 BYTE   W02
 BYTE   Dn3  v032
 BYTE   W04
 BYTE   W05
 BYTE   W06
 BYTE   W06
 BYTE   W03
 BYTE   N92  As2  v028
 BYTE   N92  Dn3
 BYTE   W02
 BYTE   W06
 BYTE   W06
 BYTE   W05
 BYTE   W06
 BYTE   W06
 BYTE   W05
 BYTE   W06
 BYTE   W06
//  #02 //122   ----------------------------------------
 BYTE   W48
 BYTE   N44  An2  v016
 BYTE   N44  Fn3
 BYTE   W01
 BYTE   W01
 BYTE   W02
 BYTE   W01
 BYTE   W02
 BYTE   W01
 BYTE   W02
 BYTE   W01
 BYTE   W02
 BYTE   W01
 BYTE   W02
 BYTE   W01
 BYTE   W01
 BYTE   W02
 BYTE   W01
 BYTE   W02
 BYTE   W01
 BYTE   W02
 BYTE   W01
 BYTE   W02
 BYTE   W01
 BYTE   W02
 BYTE   W01
 BYTE   W01
 BYTE   W02
 BYTE   W01
 BYTE   W02
 BYTE   W01
 BYTE   W02
 BYTE   W01
 BYTE   W02
 BYTE   W01
 BYTE   W02
//  #02 //123   ----------------------------------------
 BYTE   N92  Dn3  v052
 BYTE   N92  Gn3
 BYTE   W24
 BYTE   N23  Gn0
 BYTE   W24
 BYTE   N44  Dn1
 BYTE   W48
//  #02 //124   ----------------------------------------
 BYTE   N92  Cn3
 BYTE   N92  Fn3
 BYTE   W24
 BYTE   N23  Fn0
 BYTE   W24
 BYTE   N44  Cn1
 BYTE   W48
//  #02 //125   ----------------------------------------
 BYTE   N92  As2
 BYTE   N92  Dn3
 BYTE   W24
 BYTE   N23  Ds0
 BYTE   W24
 BYTE   N44  As0
 BYTE   W48
//  #02 //126   ----------------------------------------
 BYTE   N92  Cn3
 BYTE   N92  Ds3
 BYTE   W24
 BYTE   N23  Fn0
 BYTE   W24
 BYTE   N44  Cn1
 BYTE   W48
//  #02 //127   ----------------------------------------
 BYTE   N92  Dn3
 BYTE   N92  Gn3
 BYTE   W24
 BYTE   N23  Gn0
 BYTE   W24
 BYTE   N44  Dn1
 BYTE   W48
//  #02 //128   ----------------------------------------
 BYTE   N92  Gn3
 BYTE   N92  An3
 BYTE   W24
 BYTE   N23  Fn0
 BYTE   W24
 BYTE   N44  Cn1
 BYTE   W48
//  #02 //129   ----------------------------------------
 BYTE   N92  Gn3
 BYTE   N92  As3
 BYTE   W24
 BYTE   N23  Ds0
 BYTE   W24
 BYTE   N44  As0
 BYTE   W48
//  #02 //130   ----------------------------------------
 BYTE   N92  Gn3
 BYTE   N92  Cn4
 BYTE   W24
 BYTE   N23  Fn0
 BYTE   W24
 BYTE   N44  Cn1
 BYTE   W48
//  #02 //131   ----------------------------------------
Label_0116E07C:
 BYTE   N32  Cn3  v052
 BYTE   N32  Ds3
 BYTE   N32  Gn3
 BYTE   W36
 BYTE   N56  Cs3
 BYTE   N56  En3
 BYTE   N56  Gs3
 BYTE   W60
 BYTE   PEND 
//  #02 //132   ----------------------------------------
 BYTE   N32  Ds3
 BYTE   N32  Gn3
 BYTE   N32  As3
 BYTE   W36
 BYTE   N56  Dn3
 BYTE   N56  Fs3
 BYTE   N56  An3
 BYTE   W60
//  #02 //133   ----------------------------------------
 BYTE   PATT
  POIN2 Label_0116E07C
//  #02 //134   ----------------------------------------
 BYTE   N32  An2  v052
 BYTE   N32  Ds3
 BYTE   N32  Fs3
 BYTE   W36
 BYTE   N56  Bn2
 BYTE   N56  Dn3
 BYTE   N56  Gn3
 BYTE   W12
 BYTE   W48
//  #02 //135   ----------------------------------------
 BYTE   N32  Cn3
 BYTE   N32  Ds3
 BYTE   N32  Gn3
 BYTE   W08
 BYTE   W08
 BYTE   W08
 BYTE   W08
 BYTE   W04
 BYTE   N56  Cs3  v056
 BYTE   N56  En3
 BYTE   N56  Gs3
 BYTE   W04
 BYTE   W08
 BYTE   W01
 BYTE   W08
 BYTE   W08
 BYTE   W08
 BYTE   W08
 BYTE   W08
 BYTE   W07
//  #02 //136   ----------------------------------------
 BYTE   N32  Dn3  v060
 BYTE   N32  Fs3
 BYTE   N32  An3
 BYTE   W02
 BYTE   W08
 BYTE   W08
 BYTE   W08
 BYTE   W08
 BYTE   W02
 BYTE   N56  Cs3  v068
 BYTE   N56  Fn3
 BYTE   N56  Gs3
 BYTE   W06
 BYTE   W06
 BYTE   W03
 BYTE   W08
 BYTE   W08
 BYTE   W08
 BYTE   W08
 BYTE   W08
 BYTE   W05
//  #02 //137   ----------------------------------------
 BYTE   N32  As2  v072
 BYTE   N32  Cs3
 BYTE   N32  Fn3
 BYTE   W04
 BYTE   W08
 BYTE   W08
 BYTE   W08
 BYTE   W08
 BYTE   N56  Bn2  v076
 BYTE   N56  Dn3
 BYTE   N56  Fs3
 BYTE   W08
 BYTE   W04
 BYTE   W05
 BYTE   W08
 BYTE   W08
 BYTE   W08
 BYTE   W08
 BYTE   W09
 BYTE   W02
//  #02 //138   ----------------------------------------
 BYTE   N32  Cn3  v084
 BYTE   N32  En3
 BYTE   N32  Gn3
 BYTE   W06
 BYTE   W08
 BYTE   W08
 BYTE   W08
 BYTE   W06
 BYTE   Cn3  v088
 BYTE   N32  Fn3
 BYTE   N32  An3
 BYTE   W02
 BYTE   W09
 BYTE   W01
 BYTE   W07
 BYTE   W08
 BYTE   W08
 BYTE   W01
 BYTE   N23  Cn3  v096
 BYTE   N23  Fn3
 BYTE   N23  An3
 BYTE   W07
 BYTE   W08
 BYTE   W09
//  #02 //139   ----------------------------------------
 BYTE   PATT
  POIN2 Label_0116D5C0
//  #02 //140   ----------------------------------------
 BYTE   PATT
  POIN2 Label_0116D5DD
//  #02 //141   ----------------------------------------
 BYTE   PATT
  POIN2 Label_0116D5C0
//  #02 //142   ----------------------------------------
 BYTE   PATT
  POIN2 Label_0116D5FF
//  #02 //143   ----------------------------------------
 BYTE   PATT
  POIN2 Label_0116D5C0
//  #02 //144   ----------------------------------------
 BYTE   PATT
  POIN2 Label_0116D621
//  #02 //145   ----------------------------------------
 BYTE   PATT
  POIN2 Label_0116D63E
//  #02 //146   ----------------------------------------
 BYTE   PATT
  POIN2 Label_0116D65B
//  #02 //147   ----------------------------------------
 BYTE   N11  As0  v096
 BYTE   W12
 BYTE   N11
 BYTE   W12
 BYTE   N11
 BYTE   N11  Fn3
 BYTE   N11  Gs3
 BYTE   N11  Cs4
 BYTE   W12
 BYTE   As0
 BYTE   W12
 BYTE   N11
 BYTE   W12
 BYTE   N11
 BYTE   N11  Fs3
 BYTE   N11  As3
 BYTE   N11  Ds4
 BYTE   W12
 BYTE   As0
 BYTE   W12
 BYTE   N11
 BYTE   W12
//  #02 //148   ----------------------------------------
 BYTE   N11
 BYTE   N11  En3
 BYTE   N11  An3
 BYTE   N11  Cn4
 BYTE   W12
 BYTE   As0
 BYTE   W12
 BYTE   N11
 BYTE   W12
 BYTE   N11
 BYTE   N23  En4
 BYTE   N23  En5
 BYTE   W12
 BYTE   N11  As0
 BYTE   W12
 BYTE   Cn1
 BYTE   N11  Ds4
 BYTE   N11  Ds5
 BYTE   W12
 BYTE   Dn1
 BYTE   N11  Cs4
 BYTE   N11  Cs5
 BYTE   W12
 BYTE   En1
 BYTE   N11  Gs3
 BYTE   N11  Gs4
 BYTE   W12
//  #02 //149   ----------------------------------------
 BYTE   As0
 BYTE   W12
 BYTE   N11
 BYTE   N11  As3
 BYTE   N11  Fn4
 BYTE   W12
 BYTE   As0
 BYTE   N11  Bn3
 BYTE   N11  Ds4
 BYTE   N11  Fs4
 BYTE   W12
 BYTE   As0
 BYTE   W12
 BYTE   N11
 BYTE   W12
 BYTE   N11
 BYTE   N11  Bn3
 BYTE   N11  Cs4
 BYTE   N11  Fs4
 BYTE   W12
 BYTE   As0
 BYTE   W12
 BYTE   N23  Cs1
 BYTE   N23  As3
 BYTE   N23  Fn4
 BYTE   W12
//  #02 //150   ----------------------------------------
 BYTE   W12
 BYTE   N11  Cs1
 BYTE   W12
 BYTE   N11
 BYTE   W12
 BYTE   N23  Gs0
 BYTE   N56  Cs4
 BYTE   N56  Gs4
 BYTE   W12
 BYTE   W12
 BYTE   N11  Gs0
 BYTE   W12
 BYTE   Cs1
 BYTE   W12
 BYTE   Gs0
 BYTE   W12
//  #02 //151   ----------------------------------------
 BYTE   As0
 BYTE   W12
 BYTE   N11
 BYTE   W12
 BYTE   N11
 BYTE   W12
 BYTE   N11
 BYTE   N23  Cs4
 BYTE   N23  Fn4
 BYTE   N23  As4
 BYTE   W12
 BYTE   N11  As0
 BYTE   W12
 BYTE   N11
 BYTE   N11  Cs4
 BYTE   N11  Fn4
 BYTE   N11  Gs4
 BYTE   W12
 BYTE   As0
 BYTE   N11  Fn4
 BYTE   N11  Gs4
 BYTE   N11  Cn5
 BYTE   W12
 BYTE   As0
 BYTE   W12
//  #02 //152   ----------------------------------------
 BYTE   N11
 BYTE   N17  En4
 BYTE   N17  Gn4
 BYTE   N17  Cn5
 BYTE   W12
 BYTE   N11  As0
 BYTE   W12
 BYTE   N11
 BYTE   W12
 BYTE   N11
 BYTE   N23  Cn4
 BYTE   N23  En4
 BYTE   N23  Gn4
 BYTE   W12
 BYTE   N11  As0
 BYTE   W12
 BYTE   N11
 BYTE   N11  Cn4
 BYTE   N11  En4
 BYTE   N11  Gn4
 BYTE   W12
 BYTE   As0
 BYTE   N11  As3
 BYTE   N11  Dn4
 BYTE   N11  Fn4
 BYTE   W12
 BYTE   N23  Bn0
 BYTE   N32  Fs3
 BYTE   N32  Bn3
 BYTE   N32  Ds4
 BYTE   W12
//  #02 //153   ----------------------------------------
 BYTE   W12
 BYTE   N11  Bn0
 BYTE   W12
 BYTE   N11
 BYTE   N11  Cs4
 BYTE   N11  Fn4
 BYTE   W12
 BYTE   Bn0
 BYTE   W12
 BYTE   Cs1
 BYTE   N11  Ds4
 BYTE   N11  Fs4
 BYTE   W12
 BYTE   Fn1
 BYTE   W12
 BYTE   Gs1
 BYTE   N11  Fn4
 BYTE   N11  Gs4
 BYTE   W12
 BYTE   N23  Cs2
 BYTE   N32  Cs4
 BYTE   N32  Fn4
 BYTE   W12
//  #02 //154   ----------------------------------------
 BYTE   W12
 BYTE   N11  Gs1
 BYTE   W12
 BYTE   Fn1
 BYTE   N11  Ds4
 BYTE   N11  Gs4
 BYTE   W12
 BYTE   Gs1
 BYTE   W12
 BYTE   Cs2
 BYTE   N11  Fn4
 BYTE   N11  Gs4
 BYTE   W12
 BYTE   Gs1
 BYTE   W12
 BYTE   Fn1
 BYTE   N11  Cs4
 BYTE   N11  Fn4
 BYTE   W12
 BYTE   Gs1
 BYTE   N11  Fn4
 BYTE   N11  Gs4
 BYTE   W12
//  #02 //155   ----------------------------------------
 BYTE   As0
 BYTE   W12
 BYTE   N11
 BYTE   W12
 BYTE   N11
 BYTE   N11  As3
 BYTE   N11  Cs4
 BYTE   N11  Fn4
 BYTE   W12
 BYTE   As0
 BYTE   W12
 BYTE   N11
 BYTE   N11  As3
 BYTE   N11  Cs4
 BYTE   N11  Fn4
 BYTE   W12
 BYTE   As0
 BYTE   W12
 BYTE   N11
 BYTE   N11  As3
 BYTE   N11  Cs4
 BYTE   N11  Fn4
 BYTE   W12
 BYTE   As0
 BYTE   N23  Cn4
 BYTE   N23  En4
 BYTE   N23  An4
 BYTE   W12
//  #02 //156   ----------------------------------------
 BYTE   N11  As0
 BYTE   W12
 BYTE   N11
 BYTE   N11  Cn4
 BYTE   N11  En4
 BYTE   N11  An4
 BYTE   W12
 BYTE   As0
 BYTE   N11  Cn4
 BYTE   N11  En4
 BYTE   N11  An4
 BYTE   W12
 BYTE   N23  En1
 BYTE   N23  En4
 BYTE   N23  An4
 BYTE   N23  Cn5
 BYTE   W12
 BYTE   W12
 BYTE   N11  Ds1
 BYTE   N11  Ds4
 BYTE   N11  Gs4
 BYTE   N11  Cn5
 BYTE   W12
 BYTE   Cs1
 BYTE   N11  Cs4
 BYTE   N11  Fs4
 BYTE   N11  As4
 BYTE   W12
 BYTE   Gs0
 BYTE   N11  Gs3
 BYTE   N11  Cs4
 BYTE   N11  Fn4
 BYTE   W12
//  #02 //157   ----------------------------------------
 BYTE   As0
 BYTE   W12
 BYTE   N11
 BYTE   W12
 BYTE   N11
 BYTE   N05  Bn3
 BYTE   N05  Ds4
 BYTE   N05  Fs4
 BYTE   W12
 BYTE   N11  As0
 BYTE   N05  Bn3
 BYTE   N05  Ds4
 BYTE   N05  Fs4
 BYTE   W12
 BYTE   N11  As0
 BYTE   N05  Bn3
 BYTE   N05  Ds4
 BYTE   N05  Fs4
 BYTE   W12
 BYTE   N11  As0
 BYTE   N11  Ds4
 BYTE   N11  Fs4
 BYTE   N11  Bn4
 BYTE   W12
 BYTE   As0
 BYTE   N11  Ds4
 BYTE   N11  Fs4
 BYTE   N11  Bn4
 BYTE   W12
 BYTE   N23  Cs1
 BYTE   N44  Cs4
 BYTE   N44  Fn4
 BYTE   N44  As4
 BYTE   W12
//  #02 //158   ----------------------------------------
 BYTE   W12
 BYTE   N11  Cs1
 BYTE   W12
 BYTE   N11
 BYTE   W12
 BYTE   N23  Gs0
 BYTE   N23  Cs4
 BYTE   N23  Fn4
 BYTE   N23  Gs4
 BYTE   W12
 BYTE   W12
 BYTE   N11  Fn0
 BYTE   N11  As3
 BYTE   N11  Cs4
 BYTE   N11  Fn4
 BYTE   W12
 BYTE   Cs1
 BYTE   N11  Gs3
 BYTE   N11  Cn4
 BYTE   N11  Ds4
 BYTE   W12
 BYTE   Fn0
 BYTE   N11  Fn3
 BYTE   N11  Gs3
 BYTE   N11  Cn4
 BYTE   W12
//  #02 //159   ----------------------------------------
 BYTE   As0
 BYTE   W12
 BYTE   N11
 BYTE   W12
 BYTE   N11
 BYTE   W12
 BYTE   N11
 BYTE   N32  Cs4
 BYTE   N32  Fn4
 BYTE   N32  As4
 BYTE   W12
 BYTE   N11  As0
 BYTE   W12
 BYTE   N11
 BYTE   W12
 BYTE   N11
 BYTE   N11  Cs4
 BYTE   N11  Fn4
 BYTE   N11  Gs4
 BYTE   W12
 BYTE   As0
 BYTE   W12
//  #02 //160   ----------------------------------------
 BYTE   N11
 BYTE   N23  Cn4
 BYTE   N23  En4
 BYTE   N23  Gn4
 BYTE   W12
 BYTE   N11  As0
 BYTE   W12
 BYTE   N11
 BYTE   W12
 BYTE   N23
 BYTE   N23  Gn3
 BYTE   N23  Cn4
 BYTE   N23  En4
 BYTE   W12
 BYTE   W12
 BYTE   N11  Fn1
 BYTE   W12
 BYTE   Gs1
 BYTE   W12
 BYTE   N23  Bn0
 BYTE   N92  Fs3  v080
 BYTE   N92  Bn3
 BYTE   N92  Ds4
 BYTE   W12
//  #02 //161   ----------------------------------------
 BYTE   W12
 BYTE   N11  Bn0  v096
 BYTE   W12
 BYTE   Bn1
 BYTE   W12
 BYTE   N11
 BYTE   W12
 BYTE   N11
 BYTE   W12
 BYTE   Fs1
 BYTE   W12
 BYTE   Bn0
 BYTE   W12
 BYTE   N23  Cs1
 BYTE   TIE  Cs4  v080
 BYTE   TIE  Fn4
 BYTE   TIE  Gs4
 BYTE   W12
//  #02 //162   ----------------------------------------
 BYTE   W12
 BYTE   N11  Cs1  v096
 BYTE   W12
 BYTE   Cs2
 BYTE   W12
 BYTE   N11
 BYTE   W12
 BYTE   N11
 BYTE   W12
 BYTE   N11
 BYTE   W12
 BYTE   N11
 BYTE   W12
 BYTE   Cs1
 BYTE   W11
 BYTE   EOT
 BYTE   Cs4  v077
 BYTE   Gs4
 BYTE   W01
//  #02 //163   ----------------------------------------
 BYTE   PATT
  POIN2 Label_0116D85F
//  #02 //164   ----------------------------------------
 BYTE   PATT
  POIN2 Label_0116D86F
//  #02 //165   ----------------------------------------
 BYTE   PATT
  POIN2 Label_0116D87F
//  #02 //166   ----------------------------------------
 BYTE   PATT
  POIN2 Label_0116D88C
//  #02 //167   ----------------------------------------
 BYTE   PATT
  POIN2 Label_0116D896
//  #02 //168   ----------------------------------------
 BYTE   PATT
  POIN2 Label_0116D8A2
//  #02 //169   ----------------------------------------
 BYTE   PATT
  POIN2 Label_0116D8AC
//  #02 //170   ----------------------------------------
 BYTE   PATT
  POIN2 Label_0116D8B6
//  #02 //171   ----------------------------------------
 BYTE   PATT
  POIN2 Label_0116D8CA
//  #02 //172   ----------------------------------------
 BYTE   PATT
  POIN2 Label_0116D8E8
//  #02 //173   ----------------------------------------
 BYTE   PATT
  POIN2 Label_0116D904
//  #02 //174   ----------------------------------------
 BYTE   PATT
  POIN2 Label_0116D926
//  #02 //175   ----------------------------------------
 BYTE   PATT
  POIN2 Label_0116D94A
//  #02 //176   ----------------------------------------
 BYTE   PATT
  POIN2 Label_0116D962
//  #02 //177   ----------------------------------------
 BYTE   EOT
 BYTE   Cs4
 BYTE   W01
 BYTE   N05  Ds3  v127
 BYTE   N05  As3
 BYTE   N05  Ds4
 BYTE   N05  As4
 BYTE   W06
 BYTE   Fn3
 BYTE   N05  Cn4
 BYTE   N05  Fn4
 BYTE   N05  Cn5
 BYTE   W06
 BYTE   N11  Ds1  v096
 BYTE   N05  Fs3  v127
 BYTE   N05  Cs4
 BYTE   N05  Fs4
 BYTE   N05  Cs5
 BYTE   W06
 BYTE   Gs3
 BYTE   N05  Ds4
 BYTE   N05  Gs4
 BYTE   N05  Ds5
 BYTE   W06
//  #02 //178   ----------------------------------------
 BYTE   PATT
  POIN2 Label_0116D98A
//  #02 //179   ----------------------------------------
 BYTE   W84
 BYTE   N23  Fs1  v112
 BYTE   W12
//  #02 //180   ----------------------------------------
 BYTE   PATT
  POIN2 Label_0116D9DE
//  #02 //181   ----------------------------------------
 BYTE   PATT
  POIN2 Label_0116D9F1
//  #02 //182   ----------------------------------------
 BYTE   PATT
  POIN2 Label_0116DA03
//  #02 //183   ----------------------------------------
 BYTE   PATT
  POIN2 Label_0116DA17
//  #02 //184   ----------------------------------------
 BYTE   PATT
  POIN2 Label_0116DA27
//  #02 //185   ----------------------------------------
 BYTE   PATT
  POIN2 Label_0116DA38
//  #02 //186   ----------------------------------------
 BYTE   W12
 BYTE   N05  Cn4  v096
 BYTE   N05  An4
 BYTE   W12
 BYTE   Cs4
 BYTE   N05  As4
 BYTE   W12
 BYTE   N23  An1  v112
 BYTE   N23  Ds4  v096
 BYTE   N23  Cn5
 BYTE   W12
 BYTE   W12
 BYTE   N05  Cs4
 BYTE   N05  As4
 BYTE   W12
 BYTE   Ds4
 BYTE   N05  Cn5
 BYTE   W12
 BYTE   N32  Gs1  v112
 BYTE   N23  Fn4  v096
 BYTE   N23  Cs5
 BYTE   W12
//  #02 //187   ----------------------------------------
 BYTE   PATT
  POIN2 Label_0116DA89
//  #02 //188   ----------------------------------------
 BYTE   PATT
  POIN2 Label_0116D9DE
//  #02 //189   ----------------------------------------
 BYTE   PATT
  POIN2 Label_0116D9F1
//  #02 //190   ----------------------------------------
 BYTE   PATT
  POIN2 Label_0116DA03
//  #02 //191   ----------------------------------------
 BYTE   PATT
  POIN2 Label_0116DAA6
//  #02 //192   ----------------------------------------
 BYTE   PATT
  POIN2 Label_0116DAB8
//  #02 //193   ----------------------------------------
 BYTE   PATT
  POIN2 Label_0116DAC3
//  #02 //194   ----------------------------------------
 BYTE   N11  Fs1  v112
 BYTE   N11  Fs4  v096
 BYTE   N11  Cs5
 BYTE   N11  Fs5
 BYTE   W12
 BYTE   Fs1  v112
 BYTE   N11  Fs4  v096
 BYTE   N11  Cs5
 BYTE   N11  Fs5
 BYTE   W24
 BYTE   Fs1  v112
 BYTE   N11  Fs4  v096
 BYTE   N11  Cs5
 BYTE   N11  Fs5
 BYTE   W12
 BYTE   Fs1  v112
 BYTE   N11  Fs4  v096
 BYTE   N11  Cs5
 BYTE   N11  Fs5
 BYTE   W24
 BYTE   Fs1  v112
 BYTE   N11  Fs4  v096
 BYTE   N11  Cs5
 BYTE   N11  Fs5
 BYTE   W12
 BYTE   Fs1  v112
 BYTE   N11  Fn4  v096
 BYTE   N11  Cs5
 BYTE   N11  Fn5
 BYTE   W12
//  #02 //195   ----------------------------------------
 BYTE   W72
 BYTE   Gs1  v112
 BYTE   W24
//  #02 //196   ----------------------------------------
 BYTE   N11
 BYTE   W24
 BYTE   As3  v096
 BYTE   N11  Ds4
 BYTE   W24
 BYTE   N11
 BYTE   N11  Fs4
 BYTE   W12
 BYTE   Ds4
 BYTE   N11  Gs4
 BYTE   W24
 BYTE   N23  Bn1  v112
 BYTE   N68  Fs4  v096
 BYTE   N68  As4
 BYTE   W12
//  #02 //197   ----------------------------------------
 BYTE   W12
 BYTE   N11  Bn1  v112
 BYTE   W12
 BYTE   N11
 BYTE   W12
 BYTE   N11
 BYTE   W12
 BYTE   N11
 BYTE   W12
 BYTE   N11
 BYTE   N23  Fs4  v096
 BYTE   N23  As4
 BYTE   W12
 BYTE   N11  Bn1  v112
 BYTE   W12
 BYTE   N23  Cs2
 BYTE   N56  Fn4  v096
 BYTE   N56  Gs4
 BYTE   W12
//  #02 //198   ----------------------------------------
 BYTE   W12
 BYTE   N11  Cs2  v112
 BYTE   W12
 BYTE   N11
 BYTE   W12
 BYTE   N11
 BYTE   W12
 BYTE   N11
 BYTE   N23  Gs4  v096
 BYTE   N23  Cs5
 BYTE   W12
 BYTE   N11  Cs2  v112
 BYTE   W12
 BYTE   N11
 BYTE   N23  Fn4  v096
 BYTE   N23  Gs4
 BYTE   W12
 BYTE   N11  Cs2  v112
 BYTE   W12
//  #02 //199   ----------------------------------------
 BYTE   As1
 BYTE   N56  Fn4  v096
 BYTE   N56  Gs4
 BYTE   W12
 BYTE   N11  As1  v112
 BYTE   W12
 BYTE   N11
 BYTE   W12
 BYTE   N11
 BYTE   W12
 BYTE   N11
 BYTE   W12
 BYTE   N11
 BYTE   N11  Ds4  v096
 BYTE   N11  Fs4
 BYTE   W12
 BYTE   As1  v112
 BYTE   N11  Cs4  v096
 BYTE   N11  Fn4
 BYTE   W12
 BYTE   N23  Ds2  v112
 BYTE   N68  Ds4  v096
 BYTE   N68  Fs4
 BYTE   W12
//  #02 //200   ----------------------------------------
 BYTE   W12
 BYTE   N11  Ds2  v112
 BYTE   W12
 BYTE   N11
 BYTE   W12
 BYTE   N23  Fs2
 BYTE   W12
 BYTE   W12
 BYTE   Ds2
 BYTE   W24
 BYTE   N11  As1
 BYTE   W12
//  #02 //201   ----------------------------------------
 BYTE   Gs1
 BYTE   W12
 BYTE   N11
 BYTE   W12
 BYTE   N11
 BYTE   W12
 BYTE   N23
 BYTE   W24
 BYTE   N11
 BYTE   W12
 BYTE   N11
 BYTE   W12
 BYTE   N11
 BYTE   W12
//  #02 //202   ----------------------------------------
 BYTE   As1
 BYTE   W12
 BYTE   N11
 BYTE   W12
 BYTE   N11
 BYTE   W12
 BYTE   N23  Dn2
 BYTE   W24
 BYTE   N11  As1
 BYTE   W12
 BYTE   Fn2
 BYTE   W12
 BYTE   N23  Ds2
 BYTE   N23  Fs4  v096
 BYTE   N23  Ds5
 BYTE   W12
//  #02 //203   ----------------------------------------
 BYTE   W12
 BYTE   N05  Fn4
 BYTE   N05  Dn5
 BYTE   W12
 BYTE   Fs4
 BYTE   N05  Ds5
 BYTE   W12
 BYTE   N23  Dn2  v112
 BYTE   N23  Gs4  v096
 BYTE   N23  Fn5
 BYTE   W12
 BYTE   W12
 BYTE   N05  Fs4
 BYTE   N05  Ds5
 BYTE   W12
 BYTE   Gs4
 BYTE   N05  Fn5
 BYTE   W12
 BYTE   N32  Cs2  v112
 BYTE   N23  As4  v096
 BYTE   N23  Fs5
 BYTE   W12
//  #02 //204   ----------------------------------------
 BYTE   W24
 BYTE   N11  Cs2  v112
 BYTE   N11  As3  v096
 BYTE   N11  Ds4
 BYTE   W12
 BYTE   Cs2  v112
 BYTE   W12
 BYTE   Cn2
 BYTE   N11  Ds4  v096
 BYTE   N11  Fs4
 BYTE   W12
 BYTE   Bn1  v112
 BYTE   N11  Ds4  v096
 BYTE   N11  Gs4
 BYTE   W24
 BYTE   N23  Bn1  v112
 BYTE   N68  Ds4  v096
 BYTE   N68  As4
 BYTE   W12
//  #02 //205   ----------------------------------------
 BYTE   W12
 BYTE   N11  Bn1  v112
 BYTE   W12
 BYTE   N11
 BYTE   W12
 BYTE   N11
 BYTE   W12
 BYTE   N11
 BYTE   W12
 BYTE   N11
 BYTE   N23  Ds4  v096
 BYTE   N23  As4
 BYTE   W12
 BYTE   N11  Bn1  v112
 BYTE   W12
 BYTE   N23  Cs2
 BYTE   N32  Cs4  v096
 BYTE   N32  Gs4
 BYTE   W12
//  #02 //206   ----------------------------------------
 BYTE   W12
 BYTE   N11  Cs2  v112
 BYTE   W12
 BYTE   N11
 BYTE   N23  Cs4  v096
 BYTE   N23  Gs4
 BYTE   W12
 BYTE   N11  Cs2  v112
 BYTE   W12
 BYTE   N11
 BYTE   N23  Gs4  v096
 BYTE   N23  Cs5
 BYTE   W12
 BYTE   N11  Cs2  v112
 BYTE   W12
 BYTE   N11
 BYTE   N23  Cn5  v096
 BYTE   N23  Ds5
 BYTE   W12
 BYTE   N11  Cs2  v112
 BYTE   W12
//  #02 //207   ----------------------------------------
 BYTE   As1
 BYTE   N56  Cs5  v096
 BYTE   N56  Fn5
 BYTE   W12
 BYTE   N11  As1  v112
 BYTE   W12
 BYTE   N11
 BYTE   W12
 BYTE   N11
 BYTE   W12
 BYTE   N11
 BYTE   W12
 BYTE   N11
 BYTE   N11  As4  v096
 BYTE   N11  Ds5
 BYTE   N11  Fs5
 BYTE   W12
 BYTE   As1  v112
 BYTE   N11  Gs4  v096
 BYTE   N11  Cs5
 BYTE   N11  Fn5
 BYTE   W12
 BYTE   N23  Ds2  v112
 BYTE   N80  Ds4  v096
 BYTE   N80  Fs4
 BYTE   N80  As4
 BYTE   N80  Ds5
 BYTE   W12
//  #02 //208   ----------------------------------------
 BYTE   W12
 BYTE   N11  Ds2  v112
 BYTE   W12
 BYTE   N11
 BYTE   W12
 BYTE   N11
 BYTE   W12
 BYTE   N11
 BYTE   W12
 BYTE   N11
 BYTE   W12
 BYTE   N11
 BYTE   N11  Fs4  v096
 BYTE   W12
 BYTE   Ds2  v112
 BYTE   N11  Fn4  v096
 BYTE   W12
//  #02 //209   ----------------------------------------
 BYTE   Gs1  v112
 BYTE   N44  Bn3  v096
 BYTE   N44  Ds4
 BYTE   W12
 BYTE   N11  Gs1  v112
 BYTE   W36
 BYTE   N11
 BYTE   N44  Fn4  v096
 BYTE   N44  As4
 BYTE   W12
 BYTE   N11  Gs1  v112
 BYTE   W36
//  #02 //210   ----------------------------------------
 BYTE   As1
 BYTE   N44  Fn4  v096
 BYTE   N44  Gs4
 BYTE   W12
 BYTE   N11  As1  v112
 BYTE   W36
 BYTE   N11
 BYTE   N44  Gs4  v096
 BYTE   N44  Cs5
 BYTE   W12
 BYTE   N11  As1  v112
 BYTE   W24
 BYTE   Cs2
 BYTE   W12
//  #02 //211   ----------------------------------------
Label_0116E66E:
 BYTE   N11  Ds2  v112
 BYTE   N11  Gs4  v096
 BYTE   N11  Ds5
 BYTE   N11  Gs5
 BYTE   W12
 BYTE   Ds2  v112
 BYTE   N11  Gs4  v096
 BYTE   N11  Ds5
 BYTE   N11  Gs5
 BYTE   W24
 BYTE   Ds2  v112
 BYTE   N11  Gs4  v096
 BYTE   N11  Ds5
 BYTE   N11  Gs5
 BYTE   W12
 BYTE   Ds2  v112
 BYTE   N11  Gs4  v096
 BYTE   N11  Ds5
 BYTE   N11  Gs5
 BYTE   W24
 BYTE   Ds2  v112
 BYTE   N11  Gs4  v096
 BYTE   N11  Ds5
 BYTE   N11  Gs5
 BYTE   W12
 BYTE   Ds2  v112
 BYTE   N11  Gs4  v096
 BYTE   N11  Ds5
 BYTE   N11  Gs5
 BYTE   W12
 BYTE   PEND 
//  #02 //212   ----------------------------------------
Label_0116E6AC:
 BYTE   W12
 BYTE   N11  Ds2  v112
 BYTE   N11  Gs4  v096
 BYTE   N11  Ds5
 BYTE   N11  Gs5
 BYTE   W12
 BYTE   Ds2  v112
 BYTE   N11  Gs4  v096
 BYTE   N11  Ds5
 BYTE   N11  Gs5
 BYTE   W24
 BYTE   Ds2  v112
 BYTE   N11  Gn4  v096
 BYTE   N11  Ds5
 BYTE   N11  Gn5
 BYTE   W48
 BYTE   PEND 
//  #02 //213   ----------------------------------------
 BYTE   PATT
  POIN2 Label_0116E66E
//  #02 //214   ----------------------------------------
 BYTE   PATT
  POIN2 Label_0116E6AC
//  #02 //215   ----------------------------------------
Label_0116E6D7:
 BYTE   N11  Ds2  v112
 BYTE   N11  Gs4  v096
 BYTE   N11  Ds5
 BYTE   N11  Gs5
 BYTE   N11  As5
 BYTE   W12
 BYTE   Ds2  v112
 BYTE   N11  Gs4  v096
 BYTE   N11  Ds5
 BYTE   N11  Gs5
 BYTE   N11  As5
 BYTE   W24
 BYTE   Ds2  v112
 BYTE   N11  Gs4  v096
 BYTE   N11  Ds5
 BYTE   N11  Gs5
 BYTE   N11  As5
 BYTE   W12
 BYTE   Ds2  v112
 BYTE   N11  Gs4  v096
 BYTE   N11  Ds5
 BYTE   N11  Gs5
 BYTE   N11  As5
 BYTE   W24
 BYTE   Ds2  v112
 BYTE   N11  Gs4  v096
 BYTE   N11  Ds5
 BYTE   N11  Gs5
 BYTE   N11  As5
 BYTE   W12
 BYTE   Ds2  v112
 BYTE   N11  Gs4  v096
 BYTE   N11  Ds5
 BYTE   N11  Gs5
 BYTE   N11  As5
 BYTE   W12
 BYTE   PEND 
//  #02 //216   ----------------------------------------
 BYTE   W12
 BYTE   Ds2  v112
 BYTE   N11  Gs4  v096
 BYTE   N11  Ds5
 BYTE   N11  Gs5
 BYTE   N11  As5
 BYTE   W12
 BYTE   Ds2  v112
 BYTE   N11  Gs4  v096
 BYTE   N11  Ds5
 BYTE   N11  Gs5
 BYTE   N11  As5
 BYTE   W24
 BYTE   Ds2  v112
 BYTE   N11  Gn4  v096
 BYTE   N11  Ds5
 BYTE   N11  Gn5
 BYTE   N11  As5
 BYTE   W24
 BYTE   N23
 BYTE   N23  Ds6
 BYTE   W24
//  #02 //217   ----------------------------------------
 BYTE   PATT
  POIN2 Label_0116E6D7
//  #02 //218   ----------------------------------------
 BYTE   W12
 BYTE   N11  Ds2  v112
 BYTE   N11  Gs4  v096
 BYTE   N11  Ds5
 BYTE   N11  Gs5
 BYTE   N11  As5
 BYTE   W12
 BYTE   Ds2  v112
 BYTE   N11  Gs4  v096
 BYTE   N11  Ds5
 BYTE   N11  Gs5
 BYTE   N11  As5
 BYTE   W24
 BYTE   Ds2  v112
 BYTE   N11  Gn4  v096
 BYTE   N11  Ds5
 BYTE   N11  Gn5
 BYTE   N11  As5
 BYTE   W24
 BYTE   Ds2  v112
 BYTE   N11  Gn4  v096
 BYTE   N11  Ds5
 BYTE   N11  Gn5
 BYTE   N11  As5
 BYTE   W24
//  #02 //219   ----------------------------------------
 BYTE   N16  Ds2  v112
 BYTE   N16  Gn4  v096
 BYTE   N16  Ds5
 BYTE   N16  Gn5
 BYTE   N16  As5
 BYTE   W24
 BYTE   N68  Ds0  v112
 BYTE   W68
 BYTE   W03
 BYTE   FINE

//**************** Track 3 (Midi-Chn.2) ****************//

song1C_003:
//  #03 //000   ----------------------------------------
 BYTE   KEYSH   song1C_key+0
 BYTE   VOICE   121
 BYTE   VOL   30*song1C_mvl/mxv
 BYTE   PAN   c_v-4
 BYTE   VOL   15*song1C_mvl/mxv
 BYTE   PAN   c_v-1
 BYTE   VOL   30*song1C_mvl/mxv
 BYTE   PAN   c_v-4
 BYTE   N05  Gn1  v127
 BYTE   N05  An1
 BYTE   W06
 BYTE   Gn1
 BYTE   N05  An1
 BYTE   W06
Label_0116E7AE:
 BYTE   N23  Fs1  v096
 BYTE   N23  An2
 BYTE   W24
 BYTE   Fs1
 BYTE   W24
 BYTE   N23
 BYTE   W24
 BYTE   N23
 BYTE   W24
 BYTE   PEND 
//  #03 //001   ----------------------------------------
 BYTE   N23
 BYTE   W24
 BYTE   N23
 BYTE   W24
 BYTE   N23
 BYTE   W24
 BYTE   Cs2
 BYTE   W24
//  #03 //002   ----------------------------------------
 BYTE   PATT
  POIN2 Label_0116E7AE
//  #03 //003   ----------------------------------------
 BYTE   N23  Fs1  v096
 BYTE   N23  Bn1  v127
 BYTE   N23  Cn2
 BYTE   W24
 BYTE   N11  Fs1  v096
 BYTE   W12
 BYTE   An1  v127
 BYTE   N11  Bn1
 BYTE   W12
 BYTE   N23  Fs1  v096
 BYTE   W24
 BYTE   Fn1  v127
 BYTE   N23  Fs1  v096
 BYTE   N23  Gn1  v127
 BYTE   W24
//  #03 //004   ----------------------------------------
 BYTE   Cn1  v096
 BYTE   N23  Fs1
 BYTE   N23  Cs2
 BYTE   W24
 BYTE   Dn1
 BYTE   N23  Fn1  v127
 BYTE   N23  Fs1  v096
 BYTE   W12
 BYTE   N11  Cn1
 BYTE   W12
 BYTE   N23  Fs1
 BYTE   W24
 BYTE   Dn1
 BYTE   N23  Fn1  v127
 BYTE   N23  Fs1  v096
 BYTE   W24
//  #03 //005   ----------------------------------------
 BYTE   Cn1
 BYTE   N23  Fs1
 BYTE   W24
 BYTE   Dn1
 BYTE   N23  Fn1  v127
 BYTE   N23  Fs1  v096
 BYTE   W12
 BYTE   N11  Cn1
 BYTE   W12
 BYTE   N23  Fs1
 BYTE   W24
 BYTE   Dn1
 BYTE   N23  Fs1
 BYTE   N23  An2
 BYTE   W24
//  #03 //006   ----------------------------------------
 BYTE   N05  Dn1
 BYTE   N05  An2
 BYTE   W06
 BYTE   Dn1
 BYTE   W06
 BYTE   N11  Cn1
 BYTE   N11  Fs1
 BYTE   N11  Bn1  v127
 BYTE   W12
 BYTE   N23  Cn1  v096
 BYTE   N11  Fs1
 BYTE   N11  Bn1  v127
 BYTE   W12
 BYTE   Dn1  v096
 BYTE   N11  Dn2  v127
 BYTE   W12
 BYTE   Fs1  v096
 BYTE   N11  Bn1  v127
 BYTE   W12
 BYTE   Fs1  v096
 BYTE   N11  Bn1  v127
 BYTE   W12
 BYTE   Dn1  v096
 BYTE   TIE  Ds1  v112
 BYTE   N11  Dn2  v127
 BYTE   W12
 BYTE   Fs1  v096
 BYTE   W12
//  #03 //007   ----------------------------------------
 BYTE   N05  Dn2  v127
 BYTE   W06
 BYTE   N05
 BYTE   W06
 BYTE   Cn2
 BYTE   W06
 BYTE   N05
 BYTE   W06
 BYTE   N05
 BYTE   W06
 BYTE   N05
 BYTE   W06
 BYTE   Bn1
 BYTE   W06
 BYTE   N05
 BYTE   W06
 BYTE   N05
 BYTE   W06
 BYTE   N05
 BYTE   W06
 BYTE   An1
 BYTE   W06
 BYTE   N05
 BYTE   W06
 BYTE   N05
 BYTE   W06
 BYTE   Gn1
 BYTE   W06
 BYTE   N05
 BYTE   W06
 BYTE   Fn1
 BYTE   W05
 BYTE   EOT
 BYTE   Ds1
 BYTE   W01
//  #03 //008   ----------------------------------------
Label_0116E877:
 BYTE   N23  Cn1  v096
 BYTE   N23  Cs2
 BYTE   W24
 BYTE   Dn1
 BYTE   N23  An2
 BYTE   W24
 BYTE   N11  Cn1
 BYTE   N23  An2
 BYTE   W12
 BYTE   N11  Cn1
 BYTE   W12
 BYTE   N23  Dn1
 BYTE   N23  An2
 BYTE   W24
 BYTE   PEND 
//  #03 //009   ----------------------------------------
Label_0116E88F:
 BYTE   N23  Cn1  v096
 BYTE   N23  An2
 BYTE   W24
 BYTE   Dn1
 BYTE   N23  An2
 BYTE   W12
 BYTE   N11  Cn1
 BYTE   W12
 BYTE   N23  An2
 BYTE   W24
 BYTE   Dn1
 BYTE   N23  An2
 BYTE   W24
 BYTE   PEND 
//  #03 //010   ----------------------------------------
Label_0116E8A4:
 BYTE   N23  Cn1  v096
 BYTE   N23  An2
 BYTE   W24
 BYTE   Dn1
 BYTE   N23  An2
 BYTE   W24
 BYTE   N11  Cn1
 BYTE   N23  An2
 BYTE   W12
 BYTE   N11  Cn1
 BYTE   W12
 BYTE   Dn1
 BYTE   N11  An2
 BYTE   W12
 BYTE   N11
 BYTE   W12
 BYTE   PEND 
//  #03 //011   ----------------------------------------
Label_0116E8BD:
 BYTE   N23  Cn1  v096
 BYTE   N11  An2
 BYTE   W12
 BYTE   N11
 BYTE   W12
 BYTE   Dn1
 BYTE   N11  An2
 BYTE   W12
 BYTE   Cn1
 BYTE   N11  An2
 BYTE   W24
 BYTE   N11
 BYTE   W12
 BYTE   Dn1
 BYTE   N11  An2
 BYTE   W12
 BYTE   N11
 BYTE   W12
 BYTE   PEND 
//  #03 //012   ----------------------------------------
Label_0116E8D6:
 BYTE   N23  Cn1  v096
 BYTE   N23  An2
 BYTE   W24
 BYTE   Dn1
 BYTE   N23  An2
 BYTE   W24
 BYTE   N11  Cn1
 BYTE   N23  An2
 BYTE   W12
 BYTE   N11  Cn1
 BYTE   W12
 BYTE   N23  Dn1
 BYTE   N23  An2
 BYTE   W24
 BYTE   PEND 
//  #03 //013   ----------------------------------------
 BYTE   PATT
  POIN2 Label_0116E88F
//  #03 //014   ----------------------------------------
 BYTE   PATT
  POIN2 Label_0116E8A4
//  #03 //015   ----------------------------------------
Label_0116E8F8:
 BYTE   N11  Cn1  v096
 BYTE   N11  An2
 BYTE   W12
 BYTE   Cn1
 BYTE   N11  An2
 BYTE   W12
 BYTE   Dn1
 BYTE   W12
 BYTE   Cn1
 BYTE   N11  An2
 BYTE   W24
 BYTE   N05  Dn1
 BYTE   W06
 BYTE   N05
 BYTE   W06
 BYTE   N05
 BYTE   W06
 BYTE   N05
 BYTE   W06
 BYTE   N05
 BYTE   W06
 BYTE   N05
 BYTE   W06
 BYTE   PEND 
//  #03 //016   ----------------------------------------
Label_0116E916:
 BYTE   N23  Cn1  v096
 BYTE   N23  Fs1
 BYTE   N23  Cs2
 BYTE   W24
 BYTE   N11  Dn1
 BYTE   N11  As1
 BYTE   W12
 BYTE   Fs1
 BYTE   W12
 BYTE   Cn1
 BYTE   N11  Fs1
 BYTE   W12
 BYTE   Cn1
 BYTE   N11  Fs1
 BYTE   W12
 BYTE   Dn1
 BYTE   N11  As1
 BYTE   W12
 BYTE   Fs1
 BYTE   W12
 BYTE   PEND 
//  #03 //017   ----------------------------------------
Label_0116E934:
 BYTE   N11  Cn1  v096
 BYTE   N11  Fs1
 BYTE   W12
 BYTE   Cn1
 BYTE   N11  Fs1
 BYTE   W12
 BYTE   Dn1
 BYTE   N11  As1
 BYTE   W12
 BYTE   Cn1
 BYTE   N11  Fs1
 BYTE   W12
 BYTE   N11
 BYTE   W12
 BYTE   As1
 BYTE   W12
 BYTE   Dn1
 BYTE   N11  Fs1
 BYTE   W12
 BYTE   N11
 BYTE   W12
 BYTE   PEND 
//  #03 //018   ----------------------------------------
Label_0116E951:
 BYTE   N23  Cn1  v096
 BYTE   N11  Fs1
 BYTE   W12
 BYTE   N11
 BYTE   W12
 BYTE   Dn1
 BYTE   N11  As1
 BYTE   W12
 BYTE   Fs1
 BYTE   W12
 BYTE   Cn1
 BYTE   N11  Fs1
 BYTE   W12
 BYTE   Cn1
 BYTE   N11  Fs1
 BYTE   W12
 BYTE   Dn1
 BYTE   N11  As1
 BYTE   W12
 BYTE   N11
 BYTE   W12
 BYTE   PEND 
//  #03 //019   ----------------------------------------
Label_0116E96E:
 BYTE   N11  Cn1  v096
 BYTE   N11  Fs1
 BYTE   W12
 BYTE   Cn1
 BYTE   N11  As1
 BYTE   W12
 BYTE   Dn1
 BYTE   N11  Fs1
 BYTE   W12
 BYTE   Cn1
 BYTE   N11  As1
 BYTE   N11  Cs2
 BYTE   W12
 BYTE   Fs1
 BYTE   W12
 BYTE   As1
 BYTE   W12
 BYTE   Dn1
 BYTE   W12
 BYTE   Fs1
 BYTE   W12
 BYTE   PEND 
//  #03 //020   ----------------------------------------
Label_0116E98B:
 BYTE   N23  Cn1  v096
 BYTE   N23  As1
 BYTE   W24
 BYTE   N11  Dn1
 BYTE   N11  As1
 BYTE   W12
 BYTE   Fs1
 BYTE   W12
 BYTE   Cn1
 BYTE   N11  Fs1
 BYTE   W12
 BYTE   Cn1
 BYTE   N11  As1
 BYTE   W12
 BYTE   Dn1
 BYTE   N11  As1
 BYTE   W12
 BYTE   Fs1
 BYTE   W12
 BYTE   PEND 
//  #03 //021   ----------------------------------------
Label_0116E9A7:
 BYTE   N11  Cn1  v096
 BYTE   N11  Fs1
 BYTE   W12
 BYTE   Cn1
 BYTE   N11  Fs1
 BYTE   W12
 BYTE   Dn1
 BYTE   N11  Fs1
 BYTE   W12
 BYTE   Cn1
 BYTE   N11  As1
 BYTE   W12
 BYTE   Fs1
 BYTE   W12
 BYTE   N11
 BYTE   W12
 BYTE   Dn1
 BYTE   N11  As1
 BYTE   W12
 BYTE   N11
 BYTE   W12
 BYTE   PEND 
//  #03 //022   ----------------------------------------
Label_0116E9C4:
 BYTE   N11  Cn1  v096
 BYTE   N11  Fs1
 BYTE   W12
 BYTE   Cn1
 BYTE   N11  Fs1
 BYTE   W12
 BYTE   Dn1
 BYTE   N11  As1
 BYTE   W12
 BYTE   Fs1
 BYTE   W12
 BYTE   Cn1
 BYTE   N11  Fs1
 BYTE   W12
 BYTE   Cn1
 BYTE   N11  As1
 BYTE   W12
 BYTE   Dn1
 BYTE   N11  As1
 BYTE   W12
 BYTE   Cn1
 BYTE   N11  As1
 BYTE   W12
 BYTE   PEND 
//  #03 //023   ----------------------------------------
Label_0116E9E5:
 BYTE   W12
 BYTE   N11  Cn1  v096
 BYTE   N11  Fs1
 BYTE   W12
 BYTE   Dn1
 BYTE   N11  As1
 BYTE   W12
 BYTE   Cn1
 BYTE   N11  Fs1
 BYTE   W12
 BYTE   Dn1
 BYTE   N11  As1
 BYTE   W12
 BYTE   Cn1
 BYTE   N05  Dn1
 BYTE   N05  Fs1
 BYTE   W06
 BYTE   Dn1
 BYTE   W06
 BYTE   N05
 BYTE   N05  An2
 BYTE   W06
 BYTE   Dn1
 BYTE   W06
 BYTE   N05
 BYTE   W06
 BYTE   N05
 BYTE   W06
 BYTE   PEND 
//  #03 //024   ----------------------------------------
 BYTE   PATT
  POIN2 Label_0116E916
//  #03 //025   ----------------------------------------
Label_0116EA10:
 BYTE   N11  Cn1  v096
 BYTE   N11  Fs1
 BYTE   W12
 BYTE   Cn1
 BYTE   N11  Fs1
 BYTE   W12
 BYTE   Dn1
 BYTE   N11  As1
 BYTE   W12
 BYTE   Cn1
 BYTE   N11  Fs1
 BYTE   W12
 BYTE   N11
 BYTE   W12
 BYTE   N11
 BYTE   W12
 BYTE   Dn1
 BYTE   N11  As1
 BYTE   W12
 BYTE   Fs1
 BYTE   W12
 BYTE   PEND 
//  #03 //026   ----------------------------------------
Label_0116EA2D:
 BYTE   N23  Cn1  v096
 BYTE   N11  As1
 BYTE   W12
 BYTE   Fs1
 BYTE   W12
 BYTE   Dn1
 BYTE   N11  As1
 BYTE   W12
 BYTE   Fs1
 BYTE   W12
 BYTE   Cn1
 BYTE   N11  Fs1
 BYTE   W12
 BYTE   Cn1
 BYTE   N11  Fs1
 BYTE   W12
 BYTE   Dn1
 BYTE   N11  Fs1
 BYTE   W12
 BYTE   As1
 BYTE   W12
 BYTE   PEND 
//  #03 //027   ----------------------------------------
Label_0116EA4A:
 BYTE   N11  Cn1  v096
 BYTE   N11  Fs1
 BYTE   W12
 BYTE   Cn1
 BYTE   N11  Fs1
 BYTE   W12
 BYTE   Dn1
 BYTE   N11  Fs1
 BYTE   W12
 BYTE   Cn1
 BYTE   N11  As1
 BYTE   N11  Cs2
 BYTE   W24
 BYTE   As1
 BYTE   W12
 BYTE   Dn1
 BYTE   N11  An2
 BYTE   W12
 BYTE   Fs1
 BYTE   W12
 BYTE   PEND 
//  #03 //028   ----------------------------------------
Label_0116EA67:
 BYTE   N23  Cn1  v096
 BYTE   N11  Cs2
 BYTE   W12
 BYTE   As1
 BYTE   W12
 BYTE   Dn1
 BYTE   N11  As1
 BYTE   W12
 BYTE   Fs1
 BYTE   W12
 BYTE   Cn1
 BYTE   N11  Fs1
 BYTE   W12
 BYTE   Cn1
 BYTE   N11  As1
 BYTE   W12
 BYTE   Dn1
 BYTE   N11  As1
 BYTE   W12
 BYTE   Fs1
 BYTE   W12
 BYTE   PEND 
//  #03 //029   ----------------------------------------
Label_0116EA84:
 BYTE   N11  Cn1  v096
 BYTE   N11  Fs1
 BYTE   W12
 BYTE   Cn1
 BYTE   N11  Fs1
 BYTE   W12
 BYTE   Dn1
 BYTE   N11  As1
 BYTE   W12
 BYTE   Cn1
 BYTE   N11  Fs1
 BYTE   W12
 BYTE   N11
 BYTE   W12
 BYTE   N11
 BYTE   W12
 BYTE   Dn1
 BYTE   N11  As1
 BYTE   W12
 BYTE   Cn1
 BYTE   N11  Fs1
 BYTE   N11  Cs2
 BYTE   W12
 BYTE   PEND 
//  #03 //030   ----------------------------------------
Label_0116EAA5:
 BYTE   W12
 BYTE   N11  Cn1  v096
 BYTE   N11  Fs1
 BYTE   W12
 BYTE   Dn1
 BYTE   N11  As1
 BYTE   W12
 BYTE   Fs1
 BYTE   W12
 BYTE   Cn1
 BYTE   N11  Fs1
 BYTE   W12
 BYTE   Cn1
 BYTE   N11  As1
 BYTE   W12
 BYTE   Dn1
 BYTE   N11  As1
 BYTE   W12
 BYTE   Cn1
 BYTE   N11  An2
 BYTE   W12
 BYTE   PEND 
//  #03 //031   ----------------------------------------
Label_0116EAC3:
 BYTE   N11  As1  v096
 BYTE   W12
 BYTE   N05  Dn1
 BYTE   W06
 BYTE   N05
 BYTE   W06
 BYTE   N05
 BYTE   W06
 BYTE   N05
 BYTE   W06
 BYTE   N11
 BYTE   W12
 BYTE   Cn1
 BYTE   N11  Cs2
 BYTE   W12
 BYTE   Cn1
 BYTE   N11  An2
 BYTE   W12
 BYTE   N05  Dn1
 BYTE   N05  An2
 BYTE   W06
 BYTE   Dn1
 BYTE   W06
 BYTE   N05
 BYTE   W06
 BYTE   N05
 BYTE   W06
 BYTE   PEND 
//  #03 //032   ----------------------------------------
Label_0116EAE6:
 BYTE   N23  Cn1  v096
 BYTE   N23  An2
 BYTE   W24
 BYTE   As1
 BYTE   W24
 BYTE   Dn1
 BYTE   N23  As1
 BYTE   W12
 BYTE   N11  Cn1
 BYTE   W12
 BYTE   N23  As1
 BYTE   W24
 BYTE   PEND 
//  #03 //033   ----------------------------------------
Label_0116EAF9:
 BYTE   N23  Cn1  v096
 BYTE   N23  As1
 BYTE   W24
 BYTE   N23
 BYTE   W12
 BYTE   N11  Cn1
 BYTE   W12
 BYTE   N23  Dn1
 BYTE   N23  As1
 BYTE   W12
 BYTE   N11  Cn1
 BYTE   W12
 BYTE   N23  As1
 BYTE   W24
 BYTE   PEND 
//  #03 //034   ----------------------------------------
Label_0116EB10:
 BYTE   N23  Cn1  v096
 BYTE   N23  As1
 BYTE   W24
 BYTE   N23
 BYTE   W24
 BYTE   Dn1
 BYTE   N23  As1
 BYTE   W12
 BYTE   N11  Cn1
 BYTE   W12
 BYTE   N23  As1
 BYTE   W24
 BYTE   PEND 
//  #03 //035   ----------------------------------------
Label_0116EB23:
 BYTE   N23  Cn1  v096
 BYTE   N23  As1
 BYTE   W24
 BYTE   N23
 BYTE   W12
 BYTE   N11  Cn1
 BYTE   W12
 BYTE   N23  Dn1
 BYTE   N23  As1
 BYTE   W12
 BYTE   N11  Cn1
 BYTE   W12
 BYTE   N23
 BYTE   N23  As1
 BYTE   W24
 BYTE   PEND 
//  #03 //036   ----------------------------------------
Label_0116EB3B:
 BYTE   N23  Cn1  v096
 BYTE   N23  Cs2
 BYTE   W24
 BYTE   As1
 BYTE   W24
 BYTE   Dn1
 BYTE   N23  As1
 BYTE   W12
 BYTE   N11  Cn1
 BYTE   W12
 BYTE   N23  As1
 BYTE   W24
 BYTE   PEND 
//  #03 //037   ----------------------------------------
 BYTE   PATT
  POIN2 Label_0116EAF9
//  #03 //038   ----------------------------------------
 BYTE   PATT
  POIN2 Label_0116EB10
//  #03 //039   ----------------------------------------
Label_0116EB58:
 BYTE   N23  Cn1  v096
 BYTE   N23  As1
 BYTE   W24
 BYTE   Dn1
 BYTE   N23  As1
 BYTE   W12
 BYTE   N11  Cn1
 BYTE   W12
 BYTE   Dn1
 BYTE   W12
 BYTE   N05
 BYTE   W06
 BYTE   N05
 BYTE   W06
 BYTE   N05
 BYTE   N05  Dn2  v127
 BYTE   W06
 BYTE   Dn1  v096
 BYTE   N05  Cn2  v127
 BYTE   W06
 BYTE   Dn1  v096
 BYTE   N05  Bn1  v127
 BYTE   W06
 BYTE   Dn1  v096
 BYTE   N05  An1  v127
 BYTE   W06
 BYTE   PEND 
//  #03 //040   ----------------------------------------
 BYTE   PATT
  POIN2 Label_0116E877
//  #03 //041   ----------------------------------------
 BYTE   PATT
  POIN2 Label_0116E88F
//  #03 //042   ----------------------------------------
 BYTE   PATT
  POIN2 Label_0116E877
//  #03 //043   ----------------------------------------
 BYTE   PATT
  POIN2 Label_0116E88F
//  #03 //044   ----------------------------------------
 BYTE   PATT
  POIN2 Label_0116E877
//  #03 //045   ----------------------------------------
Label_0116EB9C:
 BYTE   N23  Dn1  v096
 BYTE   N23  Cs2
 BYTE   W12
 BYTE   N11  Cn1
 BYTE   W12
 BYTE   N23  Dn1
 BYTE   N23  An2
 BYTE   W12
 BYTE   N11  Cn1
 BYTE   W12
 BYTE   N23  Dn1
 BYTE   N23  An2
 BYTE   W12
 BYTE   N11  Cn1
 BYTE   W12
 BYTE   N23  Dn1
 BYTE   N23  An2
 BYTE   W12
 BYTE   N11  Cn1
 BYTE   W12
 BYTE   PEND 
//  #03 //046   ----------------------------------------
Label_0116EBBE:
 BYTE   N11  Dn1  v096
 BYTE   N11  Cs2
 BYTE   W12
 BYTE   N05  Cn1
 BYTE   N11  Dn1
 BYTE   N11  Cs2
 BYTE   W06
 BYTE   N05  Cn1
 BYTE   W06
 BYTE   N23
 BYTE   W12
 BYTE   N11  Dn1
 BYTE   N11  Cs2
 BYTE   W12
 BYTE   N05  Cn1
 BYTE   N11  Dn1
 BYTE   N11  Cs2
 BYTE   W06
 BYTE   N05  Cn1
 BYTE   W06
 BYTE   N11
 BYTE   W12
 BYTE   Dn1
 BYTE   N11  Cs2
 BYTE   W12
 BYTE   N05  Cn1
 BYTE   N11  Dn1
 BYTE   N11  Gn2
 BYTE   W06
 BYTE   N05  Cn1
 BYTE   W06
 BYTE   PEND 
//  #03 //047   ----------------------------------------
Label_0116EBF0:
 BYTE   N23  Cn1  v096
 BYTE   N68  An2  v127
 BYTE   W84
 BYTE   N11  Cn1
 BYTE   N11  Cs2
 BYTE   W12
 BYTE   PEND 
//  #03 //048   ----------------------------------------
Label_0116EBFD:
 BYTE   N23  Cn1  v127
 BYTE   N23  As1
 BYTE   W24
 BYTE   Dn1
 BYTE   N23  As1
 BYTE   W24
 BYTE   N11  Cn1
 BYTE   N23  As1
 BYTE   W12
 BYTE   N11  Cn1
 BYTE   W12
 BYTE   N23  Dn1
 BYTE   N23  As1
 BYTE   W12
 BYTE   N11  Cn1
 BYTE   W12
 BYTE   PEND 
//  #03 //049   ----------------------------------------
Label_0116EC18:
 BYTE   N23  As1  v127
 BYTE   W12
 BYTE   N11  Cn1
 BYTE   W12
 BYTE   N23  Dn1
 BYTE   N23  As1
 BYTE   W24
 BYTE   N11  Cn1
 BYTE   N23  As1
 BYTE   W12
 BYTE   N11  Cn1
 BYTE   W12
 BYTE   N23  Dn1
 BYTE   N23  As1
 BYTE   W24
 BYTE   PEND 
//  #03 //050   ----------------------------------------
 BYTE   PATT
  POIN2 Label_0116EBFD
//  #03 //051   ----------------------------------------
 BYTE   PATT
  POIN2 Label_0116EC18
//  #03 //052   ----------------------------------------
Label_0116EC3C:
 BYTE   N23  Cn1  v127
 BYTE   N23  An2
 BYTE   W24
 BYTE   N11  Dn1
 BYTE   N11  As1
 BYTE   W12
 BYTE   Cs2
 BYTE   W12
 BYTE   Cn1
 BYTE   N23  As1
 BYTE   W12
 BYTE   N11  Cn1
 BYTE   W12
 BYTE   N23  Dn1
 BYTE   N23  As1
 BYTE   W12
 BYTE   N11  Cn1
 BYTE   W12
 BYTE   PEND 
//  #03 //053   ----------------------------------------
Label_0116EC59:
 BYTE   N23  Cs2  v127
 BYTE   W12
 BYTE   N11  Cn1
 BYTE   W12
 BYTE   Dn1
 BYTE   N11  As1
 BYTE   W12
 BYTE   Cs2
 BYTE   W12
 BYTE   Cn1
 BYTE   N23  As1
 BYTE   W12
 BYTE   N11  Cn1
 BYTE   W12
 BYTE   Dn1
 BYTE   N11  An2
 BYTE   W12
 BYTE   Cs2
 BYTE   W12
 BYTE   PEND 
//  #03 //054   ----------------------------------------
 BYTE   W12
 BYTE   Gn1
 BYTE   W12
 BYTE   N11
 BYTE   W12
 BYTE   Cn1
 BYTE   N11  Gn1
 BYTE   N11  An2
 BYTE   W24
 BYTE   Gn1
 BYTE   W12
 BYTE   N11
 BYTE   W12
 BYTE   Cn1
 BYTE   N11  Gn1
 BYTE   N11  An2
 BYTE   W12
//  #03 //055   ----------------------------------------
Label_0116EC89:
 BYTE   W12
 BYTE   N05  Dn1  v127
 BYTE   W06
 BYTE   N05
 BYTE   W06
 BYTE   N05
 BYTE   W06
 BYTE   N05
 BYTE   W06
 BYTE   N11
 BYTE   W12
 BYTE   N23  Cn1
 BYTE   N11  As1
 BYTE   W12
 BYTE   Fs1
 BYTE   W12
 BYTE   Cn1
 BYTE   N11  Fs1
 BYTE   W12
 BYTE   Cn1
 BYTE   N11  Cs2
 BYTE   W12
 BYTE   PEND 
//  #03 //056   ----------------------------------------
 BYTE   PATT
  POIN2 Label_0116EBFD
//  #03 //057   ----------------------------------------
 BYTE   PATT
  POIN2 Label_0116EC18
//  #03 //058   ----------------------------------------
 BYTE   PATT
  POIN2 Label_0116EBFD
//  #03 //059   ----------------------------------------
 BYTE   PATT
  POIN2 Label_0116EC18
//  #03 //060   ----------------------------------------
Label_0116ECBA:
 BYTE   N23  Cn1  v127
 BYTE   N23  Cs2
 BYTE   W24
 BYTE   Dn1
 BYTE   N23  As1
 BYTE   W12
 BYTE   N11  Cn1
 BYTE   W12
 BYTE   N23  An2
 BYTE   W12
 BYTE   N11  Cn1
 BYTE   W12
 BYTE   N23  Dn1
 BYTE   N23  As1
 BYTE   W12
 BYTE   N11  Cn1
 BYTE   W12
 BYTE   PEND 
//  #03 //061   ----------------------------------------
Label_0116ECD6:
 BYTE   N23  Cn1  v127
 BYTE   N23  Cs2
 BYTE   W24
 BYTE   Dn1
 BYTE   N23  As1
 BYTE   W12
 BYTE   N11  Cn1
 BYTE   W12
 BYTE   N11
 BYTE   N23  An2
 BYTE   W12
 BYTE   N11  Cn1
 BYTE   W12
 BYTE   N23  Dn1
 BYTE   W12
 BYTE   N11  Cn1
 BYTE   W12
 BYTE   PEND 
//  #03 //062   ----------------------------------------
Label_0116ECF1:
 BYTE   N11  Cn1  v127
 BYTE   N11  Dn1
 BYTE   N11  An2
 BYTE   W12
 BYTE   Cn1
 BYTE   N11  Dn1
 BYTE   N11  Gn1
 BYTE   W24
 BYTE   Cn1
 BYTE   N11  Dn1
 BYTE   N11  Gn1
 BYTE   W12
 BYTE   Cn1
 BYTE   N11  Dn1
 BYTE   N11  Gn1
 BYTE   W24
 BYTE   Cn1
 BYTE   N11  Dn1
 BYTE   N11  Gn1
 BYTE   W12
 BYTE   Cn1
 BYTE   N11  Dn1
 BYTE   N11  Gn1
 BYTE   W12
 BYTE   PEND 
//  #03 //063   ----------------------------------------
Label_0116ED18:
 BYTE   W12
 BYTE   N11  Cn1  v127
 BYTE   N11  Dn1
 BYTE   N11  Gn1
 BYTE   W12
 BYTE   N23  Cn1
 BYTE   N23  Dn1
 BYTE   N23  Gn1
 BYTE   W24
 BYTE   Cn1
 BYTE   N23  Dn1
 BYTE   N23  Gn1
 BYTE   W48
 BYTE   PEND 
//  #03 //064   ----------------------------------------
Label_0116ED2F:
 BYTE   N11  Cn1  v127
 BYTE   N11  Dn1
 BYTE   N11  Gn1
 BYTE   W12
 BYTE   Cn1
 BYTE   N11  Dn1
 BYTE   N11  Gn1
 BYTE   W24
 BYTE   Cn1
 BYTE   N11  Dn1
 BYTE   N11  Gn1
 BYTE   W12
 BYTE   Cn1
 BYTE   N11  Dn1
 BYTE   N11  Gn1
 BYTE   W24
 BYTE   Cn1
 BYTE   N11  Dn1
 BYTE   N11  Gn1
 BYTE   W12
 BYTE   Cn1
 BYTE   N11  Dn1
 BYTE   N11  Gn1
 BYTE   W12
 BYTE   PEND 
//  #03 //065   ----------------------------------------
 BYTE   W12
 BYTE   Cn1
 BYTE   N11  Dn1
 BYTE   N11  Gn1
 BYTE   W12
 BYTE   N23  Cn1
 BYTE   N23  Dn1
 BYTE   N23  Gn1
 BYTE   W24
 BYTE   Cn1
 BYTE   N23  Dn1
 BYTE   N23  Gn1
 BYTE   N44  An3
 BYTE   W48
//  #03 //066   ----------------------------------------
Label_0116ED6C:
 BYTE   N23  Fs1  v096
 BYTE   W24
 BYTE   N23
 BYTE   W24
 BYTE   N23
 BYTE   W24
 BYTE   N23
 BYTE   W24
 BYTE   PEND 
//  #03 //067   ----------------------------------------
 BYTE   N23
 BYTE   W24
 BYTE   N23
 BYTE   W24
 BYTE   N23
 BYTE   W24
 BYTE   N05
 BYTE   W06
 BYTE   N05
 BYTE   W06
 BYTE   N11  As1
 BYTE   W12
//  #03 //068   ----------------------------------------
 BYTE   PATT
  POIN2 Label_0116ED6C
//  #03 //069   ----------------------------------------
 BYTE   N11  Fs1  v096
 BYTE   W12
 BYTE   N05  Cn2  v127
 BYTE   W06
 BYTE   N05
 BYTE   W06
 BYTE   N23  Fs1  v096
 BYTE   N23  Bn1  v127
 BYTE   W24
 BYTE   N11  Fs1  v096
 BYTE   W12
 BYTE   N05  Bn1
 BYTE   W06
 BYTE   N05
 BYTE   W06
 BYTE   N11  Fs1
 BYTE   N11  An1  v127
 BYTE   W12
 BYTE   Gn1
 BYTE   W12
//  #03 //070   ----------------------------------------
Label_0116EDAB:
 BYTE   N23  Cn1  v096
 BYTE   N23  Dn1
 BYTE   N23  An2
 BYTE   W48
 BYTE   Cn1
 BYTE   N23  Dn1
 BYTE   N23  Cs2
 BYTE   W48
 BYTE   PEND 
//  #03 //071   ----------------------------------------
 BYTE   PATT
  POIN2 Label_0116EDAB
//  #03 //072   ----------------------------------------
 BYTE   N11  Cn1  v096
 BYTE   N11  Dn1
 BYTE   N11  Cs2
 BYTE   W12
 BYTE   Cn1  v064
 BYTE   N11  Dn1
 BYTE   N11  Gn1  v096
 BYTE   W12
 BYTE   Cn1  v064
 BYTE   N11  Dn1
 BYTE   N11  Gn1  v096
 BYTE   W12
 BYTE   Cn1  v072
 BYTE   N11  Dn1
 BYTE   N11  Gn1  v108
 BYTE   W12
 BYTE   Cn1  v076
 BYTE   N11  Dn1
 BYTE   N11  Gn1  v116
 BYTE   W12
 BYTE   Cn1  v084
 BYTE   N11  Dn1
 BYTE   N11  Gn1  v124
 BYTE   W12
 BYTE   Cn1  v092
 BYTE   N11  Dn1
 BYTE   N11  Gn1  v127
 BYTE   W24
//  #03 //073   ----------------------------------------
 BYTE   W60
 BYTE   Cn1  v096
 BYTE   W12
 BYTE   N23  Dn1
 BYTE   N23  An2
 BYTE   W12
 BYTE   N11  Cn1
 BYTE   W12
//  #03 //074   ----------------------------------------
 BYTE   N11
 BYTE   N23  Cs2
 BYTE   W12
 BYTE   N11  Cn1
 BYTE   W12
 BYTE   N23  Dn1
 BYTE   N23  An2
 BYTE   W12
 BYTE   N11  Cn1
 BYTE   W12
 BYTE   N11
 BYTE   N23  An2
 BYTE   W12
 BYTE   N11  Cn1
 BYTE   W12
 BYTE   N23  Dn1
 BYTE   N23  An2
 BYTE   W12
 BYTE   N11  Cn1
 BYTE   W12
//  #03 //075   ----------------------------------------
 BYTE   N23  An2
 BYTE   W12
 BYTE   N11  Cn1
 BYTE   W12
 BYTE   N23  Dn1
 BYTE   N23  An2
 BYTE   W12
 BYTE   N11  Cn1
 BYTE   W12
 BYTE   N11
 BYTE   N23  An2
 BYTE   W12
 BYTE   N11  Cn1
 BYTE   W12
 BYTE   N23  Dn1
 BYTE   N23  An2
 BYTE   W24
//  #03 //076   ----------------------------------------
 BYTE   N11  Cn1
 BYTE   N23  An2
 BYTE   W12
 BYTE   N11  Cn1
 BYTE   W12
 BYTE   N23  Dn1
 BYTE   N23  An2
 BYTE   W12
 BYTE   N11  Cn1
 BYTE   W12
 BYTE   N05
 BYTE   N23  An2
 BYTE   W06
 BYTE   N05  Cn1
 BYTE   W06
 BYTE   N11
 BYTE   W12
 BYTE   N23  Dn1
 BYTE   N23  An2
 BYTE   W12
 BYTE   N11  Cn1
 BYTE   W12
//  #03 //077   ----------------------------------------
 BYTE   N23  An2
 BYTE   W12
 BYTE   N11  Cn1
 BYTE   W12
 BYTE   N23  Dn1
 BYTE   N23  An2
 BYTE   W12
 BYTE   N11  Cn1
 BYTE   W12
 BYTE   An2
 BYTE   W12
 BYTE   N05  Dn1
 BYTE   W06
 BYTE   N05
 BYTE   W06
 BYTE   N23
 BYTE   W12
 BYTE   N11  Cn1
 BYTE   W12
//  #03 //078   ----------------------------------------
Label_0116EE76:
 BYTE   N05  Cn1  v096
 BYTE   N11  Dn1
 BYTE   N11  An2
 BYTE   W06
 BYTE   N05  Cn1
 BYTE   W06
 BYTE   N05
 BYTE   N11  As1
 BYTE   W06
 BYTE   N05  Cn1
 BYTE   W06
 BYTE   N05
 BYTE   N11  Dn1
 BYTE   N11  An2
 BYTE   W06
 BYTE   N05  Cn1
 BYTE   W06
 BYTE   N05
 BYTE   N11  As1
 BYTE   W06
 BYTE   N05  Cn1
 BYTE   W06
 BYTE   N05
 BYTE   N11  Dn1
 BYTE   N11  An2
 BYTE   W06
 BYTE   N05  Cn1
 BYTE   W06
 BYTE   N05
 BYTE   N11  As1
 BYTE   W06
 BYTE   N05  Cn1
 BYTE   W06
 BYTE   N05
 BYTE   N11  Dn1
 BYTE   N11  An2
 BYTE   W06
 BYTE   N05  Cn1
 BYTE   W06
 BYTE   N05
 BYTE   N11  As1
 BYTE   W06
 BYTE   N05  Cn1
 BYTE   W06
 BYTE   PEND 
//  #03 //079   ----------------------------------------
 BYTE   PATT
  POIN2 Label_0116EE76
//  #03 //080   ----------------------------------------
 BYTE   PATT
  POIN2 Label_0116EE76
//  #03 //081   ----------------------------------------
 BYTE   N11  Cn1  v096
 BYTE   N11  Dn1
 BYTE   N11  An2
 BYTE   W12
 BYTE   Cn1
 BYTE   N11  Dn1
 BYTE   W12
 BYTE   Cn1
 BYTE   N05  Dn1
 BYTE   W06
 BYTE   N05
 BYTE   W06
 BYTE   N11  Cn1
 BYTE   N11  Dn1
 BYTE   N11  An1  v127
 BYTE   W12
 BYTE   Cn1  v096
 BYTE   N11  An1  v127
 BYTE   W12
 BYTE   Cn1  v096
 BYTE   N11  An1  v127
 BYTE   W12
 BYTE   Cn1  v096
 BYTE   N11  Gn1  v127
 BYTE   N11  As1  v096
 BYTE   W12
 BYTE   Cn1
 BYTE   N11  Fn1  v127
 BYTE   N11  Cs2  v096
 BYTE   W12
//  #03 //082   ----------------------------------------
Label_0116EEFA:
 BYTE   N11  Cn1  v096
 BYTE   N11  Dn1
 BYTE   N11  Gn1  v127
 BYTE   W12
 BYTE   Cn1  v096
 BYTE   N11  Dn1
 BYTE   N11  Gn1  v127
 BYTE   W24
 BYTE   Cn1  v096
 BYTE   N11  Dn1
 BYTE   N11  Gn1  v127
 BYTE   W12
 BYTE   Cn1  v096
 BYTE   N11  Dn1
 BYTE   N11  Gn1  v127
 BYTE   W24
 BYTE   Cn1  v096
 BYTE   N11  Dn1
 BYTE   N11  Gn1  v127
 BYTE   W12
 BYTE   Cn1  v096
 BYTE   N11  Dn1
 BYTE   N11  Gn1  v127
 BYTE   W12
 BYTE   PEND 
//  #03 //083   ----------------------------------------
 BYTE   W12
 BYTE   Cn1  v096
 BYTE   N11  Dn1
 BYTE   N11  Gn1  v127
 BYTE   W12
 BYTE   N23  Cn1  v096
 BYTE   N23  Dn1
 BYTE   N23  Gn1  v127
 BYTE   W24
 BYTE   Cn1  v096
 BYTE   N23  Dn1
 BYTE   N23  Gn1  v127
 BYTE   W48
//  #03 //084   ----------------------------------------
 BYTE   PATT
  POIN2 Label_0116EEFA
//  #03 //085   ----------------------------------------
 BYTE   W12
 BYTE   N11  Cn1  v096
 BYTE   N11  Dn1
 BYTE   N11  Gn1  v127
 BYTE   W12
 BYTE   N23  Cn1  v096
 BYTE   N23  Dn1
 BYTE   N23  As1
 BYTE   N68  An3  v127
 BYTE   W24
 BYTE   N23  Cn1  v096
 BYTE   N23  Dn1
 BYTE   N23  An2
 BYTE   W48
//  #03 //086   ----------------------------------------
 BYTE   GoTo
  POIN2 Label_0116E7AE
//  #03 //087   ----------------------------------------
 BYTE   N92  Cs2  v096
 BYTE   N92  An2
 BYTE   W96
//  #03 //088   ----------------------------------------
 BYTE   W96
//  #03 //089   ----------------------------------------
 BYTE   W96
//  #03 //090   ----------------------------------------
 BYTE   W96
//  #03 //091   ----------------------------------------
 BYTE   N92
 BYTE   W96
//  #03 //092   ----------------------------------------
 BYTE   W96
//  #03 //093   ----------------------------------------
 BYTE   Cs2
 BYTE   W96
//  #03 //094   ----------------------------------------
 BYTE   N44  As1
 BYTE   W48
 BYTE   N44
 BYTE   W48
//  #03 //095   ----------------------------------------
 BYTE   N92  Cs2
 BYTE   N92  An2
 BYTE   W96
//  #03 //096   ----------------------------------------
 BYTE   W96
//  #03 //097   ----------------------------------------
 BYTE   W96
//  #03 //098   ----------------------------------------
 BYTE   An3  v064
 BYTE   W96
//  #03 //099   ----------------------------------------
 BYTE   W96
//  #03 //100   ----------------------------------------
 BYTE   W96
//  #03 //101   ----------------------------------------
 BYTE   W96
//  #03 //102   ----------------------------------------
 BYTE   W96
//  #03 //103   ----------------------------------------
 BYTE   W96
//  #03 //104   ----------------------------------------
 BYTE   W96
//  #03 //105   ----------------------------------------
 BYTE   W96
//  #03 //106   ----------------------------------------
 BYTE   W96
//  #03 //107   ----------------------------------------
 BYTE   W96
//  #03 //108   ----------------------------------------
 BYTE   W96
//  #03 //109   ----------------------------------------
 BYTE   W96
//  #03 //110   ----------------------------------------
 BYTE   W96
//  #03 //111   ----------------------------------------
 BYTE   W96
//  #03 //112   ----------------------------------------
 BYTE   W96
//  #03 //113   ----------------------------------------
 BYTE   W96
//  #03 //114   ----------------------------------------
 BYTE   W96
//  #03 //115   ----------------------------------------
 BYTE   W96
//  #03 //116   ----------------------------------------
 BYTE   W96
//  #03 //117   ----------------------------------------
 BYTE   W96
//  #03 //118   ----------------------------------------
 BYTE   W96
//  #03 //119   ----------------------------------------
 BYTE   W96
//  #03 //120   ----------------------------------------
 BYTE   W96
//  #03 //121   ----------------------------------------
 BYTE   W96
//  #03 //122   ----------------------------------------
 BYTE   W96
//  #03 //123   ----------------------------------------
 BYTE   W96
//  #03 //124   ----------------------------------------
 BYTE   W96
//  #03 //125   ----------------------------------------
 BYTE   W96
//  #03 //126   ----------------------------------------
 BYTE   W96
//  #03 //127   ----------------------------------------
 BYTE   W96
//  #03 //128   ----------------------------------------
 BYTE   W96
//  #03 //129   ----------------------------------------
 BYTE   W96
//  #03 //130   ----------------------------------------
 BYTE   N92
 BYTE   W96
//  #03 //131   ----------------------------------------
 BYTE   W96
//  #03 //132   ----------------------------------------
 BYTE   W96
//  #03 //133   ----------------------------------------
 BYTE   W96
//  #03 //134   ----------------------------------------
 BYTE   W96
//  #03 //135   ----------------------------------------
 BYTE   W96
//  #03 //136   ----------------------------------------
 BYTE   W96
//  #03 //137   ----------------------------------------
 BYTE   N23  Dn1  v052
 BYTE   W24
 BYTE   Dn1  v056
 BYTE   W24
 BYTE   Dn1  v060
 BYTE   W24
 BYTE   Dn1  v068
 BYTE   TIE  An3  v127
 BYTE   W24
//  #03 //138   ----------------------------------------
 BYTE   N11  Dn1  v072
 BYTE   W12
 BYTE   Dn1  v076
 BYTE   W12
 BYTE   Dn1  v080
 BYTE   W12
 BYTE   Dn1  v084
 BYTE   W12
 BYTE   N05
 BYTE   W06
 BYTE   Dn1  v088
 BYTE   W06
 BYTE   N05
 BYTE   W06
 BYTE   N05
 BYTE   W06
 BYTE   Dn1  v092
 BYTE   W06
 BYTE   N05
 BYTE   W06
 BYTE   Dn1  v096
 BYTE   W06
 BYTE   N05
 BYTE   W05
 BYTE   EOT
 BYTE   An3
 BYTE   W01
//  #03 //139   ----------------------------------------
 BYTE   PATT
  POIN2 Label_0116E877
//  #03 //140   ----------------------------------------
 BYTE   PATT
  POIN2 Label_0116E88F
//  #03 //141   ----------------------------------------
 BYTE   PATT
  POIN2 Label_0116E8A4
//  #03 //142   ----------------------------------------
 BYTE   PATT
  POIN2 Label_0116E8BD
//  #03 //143   ----------------------------------------
 BYTE   PATT
  POIN2 Label_0116E8D6
//  #03 //144   ----------------------------------------
 BYTE   PATT
  POIN2 Label_0116E88F
//  #03 //145   ----------------------------------------
 BYTE   PATT
  POIN2 Label_0116E8A4
//  #03 //146   ----------------------------------------
 BYTE   PATT
  POIN2 Label_0116E8F8
//  #03 //147   ----------------------------------------
 BYTE   PATT
  POIN2 Label_0116E916
//  #03 //148   ----------------------------------------
 BYTE   PATT
  POIN2 Label_0116E934
//  #03 //149   ----------------------------------------
 BYTE   PATT
  POIN2 Label_0116E951
//  #03 //150   ----------------------------------------
 BYTE   PATT
  POIN2 Label_0116E96E
//  #03 //151   ----------------------------------------
 BYTE   PATT
  POIN2 Label_0116E98B
//  #03 //152   ----------------------------------------
 BYTE   PATT
  POIN2 Label_0116E9A7
//  #03 //153   ----------------------------------------
 BYTE   PATT
  POIN2 Label_0116E9C4
//  #03 //154   ----------------------------------------
 BYTE   PATT
  POIN2 Label_0116E9E5
//  #03 //155   ----------------------------------------
 BYTE   PATT
  POIN2 Label_0116E916
//  #03 //156   ----------------------------------------
 BYTE   PATT
  POIN2 Label_0116EA10
//  #03 //157   ----------------------------------------
 BYTE   PATT
  POIN2 Label_0116EA2D
//  #03 //158   ----------------------------------------
 BYTE   PATT
  POIN2 Label_0116EA4A
//  #03 //159   ----------------------------------------
 BYTE   PATT
  POIN2 Label_0116EA67
//  #03 //160   ----------------------------------------
 BYTE   PATT
  POIN2 Label_0116EA84
//  #03 //161   ----------------------------------------
 BYTE   PATT
  POIN2 Label_0116EAA5
//  #03 //162   ----------------------------------------
 BYTE   PATT
  POIN2 Label_0116EAC3
//  #03 //163   ----------------------------------------
 BYTE   PATT
  POIN2 Label_0116EAE6
//  #03 //164   ----------------------------------------
 BYTE   PATT
  POIN2 Label_0116EAF9
//  #03 //165   ----------------------------------------
 BYTE   PATT
  POIN2 Label_0116EB10
//  #03 //166   ----------------------------------------
 BYTE   PATT
  POIN2 Label_0116EB23
//  #03 //167   ----------------------------------------
 BYTE   PATT
  POIN2 Label_0116EB3B
//  #03 //168   ----------------------------------------
 BYTE   PATT
  POIN2 Label_0116EAF9
//  #03 //169   ----------------------------------------
 BYTE   PATT
  POIN2 Label_0116EB10
//  #03 //170   ----------------------------------------
 BYTE   PATT
  POIN2 Label_0116EB58
//  #03 //171   ----------------------------------------
 BYTE   PATT
  POIN2 Label_0116E877
//  #03 //172   ----------------------------------------
 BYTE   PATT
  POIN2 Label_0116E88F
//  #03 //173   ----------------------------------------
 BYTE   PATT
  POIN2 Label_0116E877
//  #03 //174   ----------------------------------------
 BYTE   PATT
  POIN2 Label_0116E88F
//  #03 //175   ----------------------------------------
 BYTE   PATT
  POIN2 Label_0116E877
//  #03 //176   ----------------------------------------
 BYTE   PATT
  POIN2 Label_0116EB9C
//  #03 //177   ----------------------------------------
 BYTE   PATT
  POIN2 Label_0116EBBE
//  #03 //178   ----------------------------------------
 BYTE   PATT
  POIN2 Label_0116EBF0
//  #03 //179   ----------------------------------------
 BYTE   PATT
  POIN2 Label_0116EBFD
//  #03 //180   ----------------------------------------
 BYTE   PATT
  POIN2 Label_0116EC18
//  #03 //181   ----------------------------------------
 BYTE   PATT
  POIN2 Label_0116EBFD
//  #03 //182   ----------------------------------------
 BYTE   PATT
  POIN2 Label_0116EC18
//  #03 //183   ----------------------------------------
 BYTE   PATT
  POIN2 Label_0116EC3C
//  #03 //184   ----------------------------------------
 BYTE   PATT
  POIN2 Label_0116EC59
//  #03 //185   ----------------------------------------
Label_0116F0CA:
 BYTE   W36
 BYTE   N11  Cn1  v127
 BYTE   N11  Gn1
 BYTE   N11  An2
 BYTE   W48
 BYTE   Cn1
 BYTE   N11  Gn1
 BYTE   N11  An2
 BYTE   W12
 BYTE   PEND 
//  #03 //186   ----------------------------------------
 BYTE   PATT
  POIN2 Label_0116EC89
//  #03 //187   ----------------------------------------
 BYTE   PATT
  POIN2 Label_0116EBFD
//  #03 //188   ----------------------------------------
 BYTE   PATT
  POIN2 Label_0116EC18
//  #03 //189   ----------------------------------------
 BYTE   PATT
  POIN2 Label_0116EBFD
//  #03 //190   ----------------------------------------
 BYTE   PATT
  POIN2 Label_0116EC18
//  #03 //191   ----------------------------------------
 BYTE   PATT
  POIN2 Label_0116ECBA
//  #03 //192   ----------------------------------------
 BYTE   PATT
  POIN2 Label_0116ECD6
//  #03 //193   ----------------------------------------
 BYTE   N11  Dn1  v127
 BYTE   N11  Cs2
 BYTE   W12
 BYTE   N05  Cn1
 BYTE   N11  Dn1
 BYTE   N11  Cs2
 BYTE   W06
 BYTE   N05  Cn1
 BYTE   W06
 BYTE   N23
 BYTE   W12
 BYTE   N11  Dn1
 BYTE   N11  Cs2
 BYTE   W12
 BYTE   N05  Cn1
 BYTE   N11  Dn1
 BYTE   N11  Cs2
 BYTE   W06
 BYTE   N05  Cn1
 BYTE   W06
 BYTE   N11
 BYTE   W12
 BYTE   Dn1
 BYTE   N11  Cs2
 BYTE   W12
 BYTE   N05  Cn1
 BYTE   N11  Dn1
 BYTE   N11  Gn2
 BYTE   W06
 BYTE   N05  Cn1
 BYTE   W06
//  #03 //194   ----------------------------------------
 BYTE   W72
 BYTE   N23
 BYTE   N23  Dn1
 BYTE   N23  Fn1
 BYTE   W24
//  #03 //195   ----------------------------------------
 BYTE   Cn1
 BYTE   N23  Dn1
 BYTE   N23  Fn1
 BYTE   N68  An2
 BYTE   W24
 BYTE   N05  Dn2
 BYTE   W06
 BYTE   N05
 BYTE   W06
 BYTE   Cn2
 BYTE   W06
 BYTE   N05
 BYTE   W06
 BYTE   N11  Bn1
 BYTE   W12
 BYTE   An1
 BYTE   W24
 BYTE   Cn1
 BYTE   N11  Dn1
 BYTE   N11  Cs2
 BYTE   W12
//  #03 //196   ----------------------------------------
 BYTE   PATT
  POIN2 Label_0116EBFD
//  #03 //197   ----------------------------------------
 BYTE   PATT
  POIN2 Label_0116EC18
//  #03 //198   ----------------------------------------
 BYTE   PATT
  POIN2 Label_0116EBFD
//  #03 //199   ----------------------------------------
 BYTE   PATT
  POIN2 Label_0116EC18
//  #03 //200   ----------------------------------------
 BYTE   PATT
  POIN2 Label_0116EC3C
//  #03 //201   ----------------------------------------
 BYTE   PATT
  POIN2 Label_0116EC59
//  #03 //202   ----------------------------------------
 BYTE   PATT
  POIN2 Label_0116F0CA
//  #03 //203   ----------------------------------------
 BYTE   PATT
  POIN2 Label_0116EC89
//  #03 //204   ----------------------------------------
 BYTE   PATT
  POIN2 Label_0116EBFD
//  #03 //205   ----------------------------------------
 BYTE   PATT
  POIN2 Label_0116EC18
//  #03 //206   ----------------------------------------
 BYTE   PATT
  POIN2 Label_0116EBFD
//  #03 //207   ----------------------------------------
 BYTE   PATT
  POIN2 Label_0116EC18
//  #03 //208   ----------------------------------------
 BYTE   PATT
  POIN2 Label_0116ECBA
//  #03 //209   ----------------------------------------
 BYTE   PATT
  POIN2 Label_0116ECD6
//  #03 //210   ----------------------------------------
 BYTE   PATT
  POIN2 Label_0116ECF1
//  #03 //211   ----------------------------------------
 BYTE   PATT
  POIN2 Label_0116ED18
//  #03 //212   ----------------------------------------
 BYTE   PATT
  POIN2 Label_0116ED2F
//  #03 //213   ----------------------------------------
 BYTE   PATT
  POIN2 Label_0116ED18
//  #03 //214   ----------------------------------------
 BYTE   PATT
  POIN2 Label_0116ED2F
//  #03 //215   ----------------------------------------
 BYTE   PATT
  POIN2 Label_0116ED18
//  #03 //216   ----------------------------------------
 BYTE   PATT
  POIN2 Label_0116ED2F
//  #03 //217   ----------------------------------------
 BYTE   W12
 BYTE   N11  Cn1  v127
 BYTE   N11  Dn1
 BYTE   N11  Gn1
 BYTE   W12
 BYTE   N23  Cn1
 BYTE   N23  Dn1
 BYTE   N23  Gn1
 BYTE   W24
 BYTE   Cn1
 BYTE   N23  Dn1
 BYTE   N23  Gn1
 BYTE   W24
 BYTE   Cn1
 BYTE   N23  Dn1
 BYTE   N23  Gn1
 BYTE   W24
//  #03 //218   ----------------------------------------
 BYTE   Cn1
 BYTE   N23  Dn1
 BYTE   N23  Gn1
 BYTE   W24
 BYTE   N68  Cs2
 BYTE   N68  An2
 BYTE   W68
 BYTE   W03
 BYTE   FINE

//**************** Track 4 (Midi-Chn.3) ****************//

song1C_004:
//  #04 //000   ----------------------------------------
 BYTE   KEYSH   song1C_key+0
 BYTE   VOICE   29
 BYTE   W12
Label_0116F1E9:
 BYTE   VOL   40*song1C_mvl/mxv
 BYTE   PAN   c_v+0
 BYTE   TIE  Fn1  v100
 BYTE   TIE  As1
 BYTE   TIE  Fn2
 BYTE   TIE  As2
 BYTE   W03
 BYTE   W01
 BYTE   W03
 BYTE   W01
 BYTE   W01
 BYTE   W03
 BYTE   W01
 BYTE   W02
 BYTE   W01
 BYTE   W03
 BYTE   W03
 BYTE   W01
 BYTE   W03
 BYTE   W01
 BYTE   W02
 BYTE   W02
 BYTE   W01
 BYTE   W03
 BYTE   W03
 BYTE   W04
 BYTE   W01
 BYTE   W02
 BYTE   W02
 BYTE   W01
 BYTE   W02
 BYTE   W01
 BYTE   W03
 BYTE   W01
 BYTE   W02
 BYTE   W01
 BYTE   W03
 BYTE   W01
 BYTE   W02
 BYTE   W02
 BYTE   W01
 BYTE   W03
 BYTE   W03
 BYTE   W01
 BYTE   W03
 BYTE   W03
 BYTE   W02
 BYTE   W01
 BYTE   W02
//  #04 //001   ----------------------------------------
 BYTE   W01
 BYTE   W03
 BYTE   W01
 BYTE   W03
 BYTE   W03
Label_0116F226:
 BYTE   W01
 BYTE   W04
 BYTE   W04
 BYTE   W03
 BYTE   W04
 BYTE   W04
 BYTE   W04
 BYTE   W72
 BYTE   PEND 
//  #04 //002   ----------------------------------------
 BYTE   W96
//  #04 //003   ----------------------------------------
 BYTE   W96
//  #04 //004   ----------------------------------------
 BYTE   EOT
 BYTE   Fn1  v046
 BYTE   Fn2  v058
 BYTE   N12  Fn1  v100
 BYTE   N12  As1
 BYTE   N12  Fn2
 BYTE   N12  As2
 BYTE   W24
 BYTE   N36  As1
 BYTE   N36  Fn2
 BYTE   N36  As2
 BYTE   W48
 BYTE   N24  As1
 BYTE   N24  Fn2
 BYTE   N24  As2
 BYTE   W24
//  #04 //005   ----------------------------------------
 BYTE   N12  As1
 BYTE   N12  Fn2
 BYTE   N12  As2
 BYTE   W24
 BYTE   As1
 BYTE   N12  Fn2
 BYTE   N12  As2
 BYTE   W12
 BYTE   N24  An1
 BYTE   N24  En2
 BYTE   N24  An2
 BYTE   W36
 BYTE   An1
 BYTE   N24  En2
 BYTE   W24
//  #04 //006   ----------------------------------------
Label_0116F266:
 BYTE   N12  As1  v100
 BYTE   N12  Fn2
 BYTE   N12  As2
 BYTE   W12
 BYTE   N06  As1
 BYTE   N06  Fn2
 BYTE   N06  As2
 BYTE   W12
 BYTE   As1
 BYTE   N06  Fn2
 BYTE   N06  As2
 BYTE   W12
 BYTE   N12  As1
 BYTE   N12  Fn2
 BYTE   N12  As2
 BYTE   W12
 BYTE   N06  As1
 BYTE   N06  Fn2
 BYTE   N06  As2
 BYTE   W12
 BYTE   As1
 BYTE   N06  Fn2
 BYTE   N06  As2
 BYTE   W12
 BYTE   N24  As1
 BYTE   N24  Fn2
 BYTE   N24  As2
 BYTE   W24
 BYTE   PEND 
//  #04 //007   ----------------------------------------
 BYTE   PATT
  POIN2 Label_0116F266
//  #04 //008   ----------------------------------------
Label_0116F29C:
 BYTE   N12  Fn2  v100
 BYTE   W12
 BYTE   Cs2
 BYTE   W12
 BYTE   As1
 BYTE   W12
 BYTE   N24  Fs2
 BYTE   W24
 BYTE   N12  Dn2
 BYTE   W12
 BYTE   N24  Bn1
 BYTE   W24
 BYTE   PEND 
//  #04 //009   ----------------------------------------
Label_0116F2AE:
 BYTE   N12  Fn2  v100
 BYTE   W12
 BYTE   Cs2
 BYTE   W12
 BYTE   As1
 BYTE   W12
 BYTE   N24  En2
 BYTE   W24
 BYTE   N12  Cn2
 BYTE   W12
 BYTE   N24  An1
 BYTE   W24
 BYTE   PEND 
//  #04 //010   ----------------------------------------
 BYTE   PATT
  POIN2 Label_0116F29C
//  #04 //011   ----------------------------------------
Label_0116F2C5:
 BYTE   N12  Gn2  v100
 BYTE   W12
 BYTE   En2
 BYTE   W12
 BYTE   Cn2
 BYTE   W12
 BYTE   N24  An2
 BYTE   W24
 BYTE   N12  Fn2
 BYTE   W12
 BYTE   N24  Cn2
 BYTE   W24
 BYTE   PEND 
//  #04 //012   ----------------------------------------
 BYTE   PATT
  POIN2 Label_0116F29C
//  #04 //013   ----------------------------------------
 BYTE   PATT
  POIN2 Label_0116F2AE
//  #04 //014   ----------------------------------------
 BYTE   PATT
  POIN2 Label_0116F29C
//  #04 //015   ----------------------------------------
 BYTE   PATT
  POIN2 Label_0116F2C5
//  #04 //016   ----------------------------------------
Label_0116F2EB:
 BYTE   N06  As1  v100
 BYTE   W06
 BYTE   N06
 BYTE   W06
 BYTE   N06
 BYTE   W06
 BYTE   N06
 BYTE   W06
 BYTE   N12  Cs2
 BYTE   N12  Gs2
 BYTE   N12  Cs3
 BYTE   W12
 BYTE   N06  As1
 BYTE   W06
 BYTE   N06
 BYTE   W06
 BYTE   N06
 BYTE   W06
 BYTE   N06
 BYTE   W06
 BYTE   N12  Ds2
 BYTE   N12  As2
 BYTE   N12  Ds3
 BYTE   W12
 BYTE   N06  As1
 BYTE   W06
 BYTE   N06
 BYTE   W06
 BYTE   N06
 BYTE   W06
 BYTE   N06
 BYTE   W06
 BYTE   PEND 
//  #04 //017   ----------------------------------------
Label_0116F316:
 BYTE   N12  Cn2  v100
 BYTE   N12  Gn2
 BYTE   N12  Cn3
 BYTE   W12
 BYTE   N06  As1
 BYTE   W06
 BYTE   N06
 BYTE   W06
 BYTE   N06
 BYTE   W06
 BYTE   N06
 BYTE   W06
 BYTE   N24  En2
 BYTE   W24
 BYTE   N12  Ds2
 BYTE   W12
 BYTE   Cs2
 BYTE   W12
 BYTE   Gs1
 BYTE   W12
 BYTE   PEND 
//  #04 //018   ----------------------------------------
Label_0116F332:
 BYTE   N06  As1  v100
 BYTE   W06
 BYTE   N06
 BYTE   W06
 BYTE   N06
 BYTE   W06
 BYTE   N06
 BYTE   W06
 BYTE   N12  Ds2
 BYTE   N12  As2
 BYTE   N12  Ds3
 BYTE   W12
 BYTE   N06  As1
 BYTE   W06
 BYTE   N06
 BYTE   W06
 BYTE   N06
 BYTE   W06
 BYTE   N06
 BYTE   W06
 BYTE   N12  Fs2
 BYTE   N12  Cs3
 BYTE   N12  Fs3
 BYTE   W12
 BYTE   N06  As1
 BYTE   W06
 BYTE   N06
 BYTE   W06
 BYTE   N36  Cs2
 BYTE   N36  Gs2
 BYTE   N36  Cs3
 BYTE   W12
 BYTE   PEND 
//  #04 //019   ----------------------------------------
Label_0116F360:
 BYTE   W12
 BYTE   N12  Fn2  v100
 BYTE   W12
 BYTE   Gs2
 BYTE   W12
 BYTE   N24  Fn3
 BYTE   W24
 BYTE   N12  Cs3
 BYTE   W12
 BYTE   Gs2
 BYTE   W12
 BYTE   Fn2
 BYTE   W12
 BYTE   PEND 
//  #04 //020   ----------------------------------------
 BYTE   N06  As1
 BYTE   W06
 BYTE   N06
 BYTE   W06
 BYTE   N06
 BYTE   W06
 BYTE   N06
 BYTE   W06
 BYTE   N12  Fn2
 BYTE   N12  Fn3  v080
 BYTE   W12
 BYTE   N06  As1  v100
 BYTE   W06
 BYTE   N06
 BYTE   W06
 BYTE   N06
 BYTE   W06
 BYTE   N06
 BYTE   W06
 BYTE   N12  Gs2
 BYTE   N12  Gs3  v060
 BYTE   W12
 BYTE   N06  As1  v100
 BYTE   W06
 BYTE   N06
 BYTE   W06
 BYTE   N06
 BYTE   W06
 BYTE   N06
 BYTE   W06
//  #04 //021   ----------------------------------------
 BYTE   N12  Gn2
 BYTE   W12
 BYTE   En2
 BYTE   W12
 BYTE   Cn2
 BYTE   W12
 BYTE   N24  En2
 BYTE   W24
 BYTE   N12  Cn2
 BYTE   W12
 BYTE   As1
 BYTE   W12
 BYTE   N24  Bn1
 BYTE   W12
//  #04 //022   ----------------------------------------
 BYTE   W12
 BYTE   N12  Fs1
 BYTE   W12
 BYTE   Cs2
 BYTE   W12
 BYTE   Fs1
 BYTE   W12
 BYTE   Ds2
 BYTE   W12
 BYTE   Fs2
 BYTE   W12
 BYTE   Fn2
 BYTE   W12
 BYTE   N24  Cs2
 BYTE   W12
//  #04 //023   ----------------------------------------
 BYTE   W12
 BYTE   N12  Gs1
 BYTE   W12
 BYTE   Ds2
 BYTE   W12
 BYTE   Gs1
 BYTE   W12
 BYTE   Fn2
 BYTE   W12
 BYTE   Gs1
 BYTE   W12
 BYTE   N24  Gs2
 BYTE   W24
//  #04 //024   ----------------------------------------
 BYTE   PATT
  POIN2 Label_0116F2EB
//  #04 //025   ----------------------------------------
 BYTE   PATT
  POIN2 Label_0116F316
//  #04 //026   ----------------------------------------
 BYTE   PATT
  POIN2 Label_0116F332
//  #04 //027   ----------------------------------------
 BYTE   PATT
  POIN2 Label_0116F360
//  #04 //028   ----------------------------------------
 BYTE   N06  As1  v100
 BYTE   W06
 BYTE   N06
 BYTE   W06
 BYTE   N06
 BYTE   W06
 BYTE   N06
 BYTE   W06
 BYTE   N12  Fn2
 BYTE   N12  Fn3
 BYTE   W12
 BYTE   N06  As1
 BYTE   W06
 BYTE   N06
 BYTE   W06
 BYTE   N06
 BYTE   W06
 BYTE   N06
 BYTE   W06
 BYTE   N12  Gs2
 BYTE   N12  Gs3
 BYTE   W12
 BYTE   N06  As1
 BYTE   W06
 BYTE   N06
 BYTE   W06
 BYTE   N06
 BYTE   W06
 BYTE   N06
 BYTE   W06
//  #04 //029   ----------------------------------------
 BYTE   N12  Gn2
 BYTE   W12
 BYTE   En2
 BYTE   W12
 BYTE   Cn2
 BYTE   W12
 BYTE   N24  En2
 BYTE   W24
 BYTE   N12  Cn2
 BYTE   W12
 BYTE   As1
 BYTE   W12
 BYTE   N24  Bn1
 BYTE   N24  Ds3
 BYTE   W12
//  #04 //030   ----------------------------------------
 BYTE   W12
 BYTE   N12  Ds2
 BYTE   N12  Fs3
 BYTE   W12
 BYTE   Ds3
 BYTE   N12  Fs4
 BYTE   W12
 BYTE   Cs3
 BYTE   N12  Fn4
 BYTE   W12
 BYTE   Bn2
 BYTE   N12  Ds4
 BYTE   W12
 BYTE   Fs2
 BYTE   N12  Bn3
 BYTE   W12
 BYTE   Ds2
 BYTE   N12  Fs3
 BYTE   W12
 BYTE   N24  Gs1
 BYTE   N24  Cs3
 BYTE   W12
//  #04 //031   ----------------------------------------
 BYTE   W12
 BYTE   N12  Cs2
 BYTE   N12  Fn3
 BYTE   W12
 BYTE   Fn2
 BYTE   N12  Gs3
 BYTE   W12
 BYTE   Gs2
 BYTE   N12  Cs4
 BYTE   W12
 BYTE   Cs3
 BYTE   N12  Fn4
 BYTE   W12
 BYTE   Ds3
 BYTE   N12  Fs4
 BYTE   W12
 BYTE   N24  Fn3
 BYTE   N24  Gs4
 BYTE   W24
//  #04 //032   ----------------------------------------
 BYTE   N96  Bn1
 BYTE   N72  Fs2
 BYTE   W72
 BYTE   N12  Fn2
 BYTE   W12
 BYTE   Fs2
 BYTE   W12
//  #04 //033   ----------------------------------------
 BYTE   N48  Bn1
 BYTE   N72  Cs3
 BYTE   W48
 BYTE   N48  As1
 BYTE   W24
 BYTE   N12  Cn3
 BYTE   W12
 BYTE   Cs3
 BYTE   W12
//  #04 //034   ----------------------------------------
 BYTE   TIE  Fn1
 BYTE   TIE  Gs3
 BYTE   W96
//  #04 //035   ----------------------------------------
 BYTE   W72
 BYTE   EOT
 BYTE   N12  Fn3
 BYTE   W12
 BYTE   Fs3
 BYTE   W12
//  #04 //036   ----------------------------------------
 BYTE   EOT
 BYTE   Fn1
 BYTE   N96  Bn1
 BYTE   N72  Cs4
 BYTE   W72
 BYTE   N12  Cn4
 BYTE   W12
 BYTE   Cs4
 BYTE   W12
//  #04 //037   ----------------------------------------
 BYTE   N48  Fn2
 BYTE   N72  Gs4
 BYTE   W48
 BYTE   N48  Fs2
 BYTE   W24
 BYTE   N12  Fn4
 BYTE   W12
 BYTE   Fs4
 BYTE   W12
//  #04 //038   ----------------------------------------
 BYTE   TIE  Fn2
 BYTE   TIE  Cs5
 BYTE   W96
//  #04 //039   ----------------------------------------
 BYTE   W60
 BYTE   EOT
 BYTE   Fn2  v085
 BYTE   W36
//  #04 //040   ----------------------------------------
 BYTE   N06  Ds1
 BYTE   N06  As1
 BYTE   N06  Ds2
 BYTE   W12
 BYTE   Ds1
 BYTE   N06  As1
 BYTE   N06  Ds2
 BYTE   W12
 BYTE   Ds1
 BYTE   N06  As1
 BYTE   N06  Ds2
 BYTE   W12
 BYTE   N36  As1
 BYTE   N36  Ds2
 BYTE   N36  As2
 BYTE   W36
 BYTE   N06  Ds1
 BYTE   N06  As1
 BYTE   N06  Ds2
 BYTE   W12
 BYTE   Ds1
 BYTE   N06  As1
 BYTE   N06  Ds2
 BYTE   W12
//  #04 //041   ----------------------------------------
 BYTE   Fn1
 BYTE   N06  Cn2
 BYTE   N06  Fn2
 BYTE   W12
 BYTE   Fn1
 BYTE   N06  Cn2
 BYTE   N06  Fn2
 BYTE   W12
 BYTE   Fn1
 BYTE   N06  Cn2
 BYTE   N06  Fn2
 BYTE   W12
 BYTE   N36  Cn2
 BYTE   N36  Fn2
 BYTE   N36  As2
 BYTE   W36
 BYTE   N06  Fn1
 BYTE   N06  Cn2
 BYTE   N06  Fn2
 BYTE   W12
 BYTE   Fn1
 BYTE   N06  Cn2
 BYTE   N06  Fn2
 BYTE   W12
//  #04 //042   ----------------------------------------
 BYTE   Fs1
 BYTE   N06  Cs2
 BYTE   N06  Fs2
 BYTE   W12
 BYTE   Fs1
 BYTE   N06  Cs2
 BYTE   N06  Fs2
 BYTE   W12
 BYTE   Fs1
 BYTE   N06  Cs2
 BYTE   N06  Fs2
 BYTE   W12
 BYTE   N36  Cs2
 BYTE   N36  Fs2
 BYTE   N36  Cs3
 BYTE   W36
 BYTE   N06  Fs1
 BYTE   N06  Cs2
 BYTE   N06  Fs2
 BYTE   W12
 BYTE   Fs1
 BYTE   N06  Cs2
 BYTE   N06  Fs2
 BYTE   W12
//  #04 //043   ----------------------------------------
 BYTE   Gn1
 BYTE   N06  Dn2
 BYTE   N06  Gn2
 BYTE   W12
 BYTE   Gn1
 BYTE   N06  Dn2
 BYTE   N06  Gn2
 BYTE   W12
 BYTE   Gn1
 BYTE   N06  Dn2
 BYTE   N06  Gn2
 BYTE   W12
 BYTE   N36  Dn2
 BYTE   N36  Gn2
 BYTE   N36  Dn3
 BYTE   W36
 BYTE   N06  Gn1
 BYTE   N06  Dn2
 BYTE   N06  Gn2
 BYTE   W12
 BYTE   Gn1
 BYTE   N06  Dn2
 BYTE   N06  Gn2
 BYTE   W12
//  #04 //044   ----------------------------------------
 BYTE   Gs1
 BYTE   W12
 BYTE   N12
 BYTE   W12
 BYTE   Cs2
 BYTE   W12
 BYTE   N06  Gs1
 BYTE   W12
 BYTE   N12  Dn2
 BYTE   W12
 BYTE   N06  Gs1
 BYTE   W12
 BYTE   N12  Ds2
 BYTE   W12
 BYTE   N06  Gs1
 BYTE   W12
//  #04 //045   ----------------------------------------
 BYTE   N12  Gs2
 BYTE   W12
 BYTE   Fs2
 BYTE   W12
 BYTE   Ds2
 BYTE   W12
 BYTE   N24  Gs2
 BYTE   W24
 BYTE   N12  Fs2
 BYTE   W12
 BYTE   Ds2
 BYTE   W24
//  #04 //046   ----------------------------------------
 BYTE   Fn1
 BYTE   N12  Cn2
 BYTE   N12  Fn2
 BYTE   W12
 BYTE   Fn1
 BYTE   N12  Cn2
 BYTE   N12  Fn2
 BYTE   W24
 BYTE   Fn1
 BYTE   N12  Cn2
 BYTE   N12  Fn2
 BYTE   W12
 BYTE   Fn1
 BYTE   N12  Cn2
 BYTE   N12  Fn2
 BYTE   W24
 BYTE   Fn1
 BYTE   N12  Cn2
 BYTE   N12  Fn2
 BYTE   W12
 BYTE   Fn1
 BYTE   N12  Cn2
 BYTE   N12  Fn2
 BYTE   W12
//  #04 //047   ----------------------------------------
 BYTE   W24
 BYTE   Fn3
 BYTE   N12  As3
 BYTE   W24
 BYTE   N12
 BYTE   N12  Cs4
 BYTE   W12
 BYTE   As3
 BYTE   N12  Ds4
 BYTE   W24
 BYTE   N72  Fs1
 BYTE   N72  Cs2
 BYTE   N72  Fs2
 BYTE   N72  Cs4
 BYTE   N72  Fn4
 BYTE   W12
//  #04 //048   ----------------------------------------
 BYTE   W60
 BYTE   N24  Fs1
 BYTE   N24  Cs2
 BYTE   N24  Fs2
 BYTE   N24  Cs4
 BYTE   N24  Fn4
 BYTE   W24
 BYTE   TIE  Gs1
 BYTE   TIE  Ds2
 BYTE   TIE  Gs2
 BYTE   N36  Cn4
 BYTE   N36  Ds4
 BYTE   W12
//  #04 //049   ----------------------------------------
 BYTE   W24
 BYTE   N24  Cn4
 BYTE   N24  Ds4
 BYTE   W24
 BYTE   N24
 BYTE   N24  Gs4
 BYTE   W24
 BYTE   Cn4
 BYTE   N24  Ds4
 BYTE   W24
//  #04 //050   ----------------------------------------
 BYTE   EOT
 BYTE   Gs1  v051
 BYTE   Gs2
 BYTE   N60  Fn1
 BYTE   N60  Cn2
 BYTE   N60  Fn2
 BYTE   N60  Cn4
 BYTE   N60  Ds4
 BYTE   W60
 BYTE   N24  Fn1
 BYTE   N24  Cn2
 BYTE   N24  Fn2
 BYTE   N12  As3
 BYTE   N12  Cs4
 BYTE   W12
 BYTE   Gs3
 BYTE   N12  Cn4
 BYTE   W12
 BYTE   TIE  As1
 BYTE   TIE  Fn2
 BYTE   TIE  As2
 BYTE   N84  As3
 BYTE   N84  Cs4
 BYTE   W12
//  #04 //051   ----------------------------------------
 BYTE   W72
 BYTE   N12  As3
 BYTE   W12
 BYTE   Cn4
 BYTE   W12
//  #04 //052   ----------------------------------------
 BYTE   EOT
 BYTE   As1  v053
 BYTE   As2
 BYTE   N06  Ds1
 BYTE   N06  As1
 BYTE   N06  Ds2
 BYTE   N12  Cs4
 BYTE   N12  Fn4  v080
 BYTE   W12
 BYTE   N06  Ds1  v100
 BYTE   N06  As1
 BYTE   N06  Ds2
 BYTE   N12  As3
 BYTE   N12  Cs4  v080
 BYTE   W12
 BYTE   N06  Ds1  v100
 BYTE   N06  As1
 BYTE   N06  Ds2
 BYTE   N12  Fs3
 BYTE   N12  As3  v080
 BYTE   W12
 BYTE   N24  As1  v100
 BYTE   N24  Ds2
 BYTE   N24  As2
 BYTE   N24  Cs3
 BYTE   N24  Fs3  v080
 BYTE   W24
 BYTE   N12  Ds2  v100
 BYTE   N12  Fs3
 BYTE   N12  As3  v080
 BYTE   W12
 BYTE   As2  v100
 BYTE   N12  As3
 BYTE   N12  Cs4  v080
 BYTE   W12
 BYTE   Cs3  v100
 BYTE   N12  Cs4
 BYTE   N12  Fn4  v080
 BYTE   W12
//  #04 //053   ----------------------------------------
 BYTE   N06  Fn1  v100
 BYTE   N06  Cn2
 BYTE   N06  Fn2
 BYTE   N12  Cn4
 BYTE   N12  Ds4  v080
 BYTE   W12
 BYTE   N06  Fn1  v100
 BYTE   N06  Cn2
 BYTE   N06  Fn2
 BYTE   N12  An3
 BYTE   N12  Cn4  v080
 BYTE   W12
 BYTE   N06  Fn1  v100
 BYTE   N06  Cn2
 BYTE   N06  Fn2
 BYTE   N12  Fn3
 BYTE   N12  An3  v080
 BYTE   W12
 BYTE   N24  Cn2  v100
 BYTE   N24  Fn2
 BYTE   N24  Cn3
 BYTE   N24  Fn3  v080
 BYTE   W24
 BYTE   N12  Fn2  v100
 BYTE   N12  Fn3
 BYTE   N12  An3  v080
 BYTE   W12
 BYTE   Ds3  v100
 BYTE   N12  An3
 BYTE   N12  Cn4  v080
 BYTE   W12
 BYTE   N48  As1  v100
 BYTE   N48  Fn2
 BYTE   N48  As2
 BYTE   N24  As3
 BYTE   W12
//  #04 //054   ----------------------------------------
 BYTE   W12
 BYTE   N12  An3
 BYTE   W12
 BYTE   As3
 BYTE   W12
 BYTE   N48  An1
 BYTE   N48  En2
 BYTE   N48  An2
 BYTE   N24  Cn4
 BYTE   W24
 BYTE   N12  As3
 BYTE   W12
 BYTE   Cn4
 BYTE   W12
 BYTE   N36  Gs1
 BYTE   N36  Ds2
 BYTE   N36  Gs2
 BYTE   N36  Cs4
 BYTE   W12
//  #04 //055   ----------------------------------------
 BYTE   W24
 BYTE   N24  Gs1
 BYTE   N24  Gs2
 BYTE   N12  As3
 BYTE   W24
 BYTE   Gn1
 BYTE   N12  Gn2
 BYTE   N12  Cs4
 BYTE   W12
 BYTE   Fs1
 BYTE   N12  Fs2
 BYTE   N12  Ds4
 BYTE   W24
 BYTE   N72  Fs1
 BYTE   N72  Cs2
 BYTE   N72  Fs2
 BYTE   N96  As3
 BYTE   N72  Fn4
 BYTE   W12
//  #04 //056   ----------------------------------------
 BYTE   W60
 BYTE   N24  Fs1
 BYTE   N24  Cs2
 BYTE   N24  Fs2
 BYTE   N24  Fn4
 BYTE   W24
 BYTE   N84  Gs1
 BYTE   N84  Ds2
 BYTE   N84  Gs2
 BYTE   TIE  Gs3
 BYTE   N36  Ds4
 BYTE   W12
//  #04 //057   ----------------------------------------
 BYTE   W24
 BYTE   N24
 BYTE   W24
 BYTE   Gs4
 BYTE   W24
 BYTE   Gs1
 BYTE   N24  Ds2
 BYTE   N24  Gs2
 BYTE   N24  As4
 BYTE   W24
//  #04 //058   ----------------------------------------
 BYTE   EOT
 BYTE   Gs3
 BYTE   N60  Gs1
 BYTE   N60  Ds2
 BYTE   N60  Gs2
 BYTE   N84  Gs3
 BYTE   N60  Ds4  v060
 BYTE   N60  Cn5  v100
 BYTE   W60
 BYTE   N24  Gs1
 BYTE   N24  Ds2
 BYTE   N24  Gs2
 BYTE   N12  Fn4  v060
 BYTE   N12  Cs5  v100
 BYTE   W12
 BYTE   Ds4  v060
 BYTE   N12  Cn5  v100
 BYTE   W12
 BYTE   TIE  As1
 BYTE   TIE  Fn2
 BYTE   TIE  As2
 BYTE   N84  As3
 BYTE   N84  Cs4  v060
 BYTE   N84  As4  v100
 BYTE   W12
//  #04 //059   ----------------------------------------
 BYTE   W72
 BYTE   N12  Cs4
 BYTE   W12
 BYTE   Cn4
 BYTE   W12
//  #04 //060   ----------------------------------------
 BYTE   EOT
 BYTE   As1  v053
 BYTE   As2
 BYTE   N12  Ds1
 BYTE   N12  As1
 BYTE   N12  Ds2
 BYTE   N48  Fs3  v060
 BYTE   N48  As3  v100
 BYTE   W12
 BYTE   N12  Ds1
 BYTE   N12  As1
 BYTE   N12  Ds2
 BYTE   W36
 BYTE   Ds1
 BYTE   N12  As1
 BYTE   N12  Ds2
 BYTE   N48  Cs4  v060
 BYTE   N48  Fn4  v100
 BYTE   W12
 BYTE   N12  Ds1
 BYTE   N12  As1
 BYTE   N12  Ds2
 BYTE   W36
//  #04 //061   ----------------------------------------
 BYTE   Fn1
 BYTE   N12  Cn2
 BYTE   N12  Fn2
 BYTE   N48  Cn4  v060
 BYTE   N48  Ds4  v100
 BYTE   W12
 BYTE   N12  Fn1
 BYTE   N12  Cn2
 BYTE   N12  Fn2
 BYTE   W36
 BYTE   Fn1
 BYTE   N12  Cn2
 BYTE   N12  Fn2
 BYTE   N48  Ds4  v060
 BYTE   N48  Gs4  v100
 BYTE   W12
 BYTE   N12  Fn1
 BYTE   N12  Cn2
 BYTE   N12  Fn2
 BYTE   W36
//  #04 //062   ----------------------------------------
 BYTE   As1
 BYTE   N12  Fn2
 BYTE   N12  As2
 BYTE   TIE  As4
 BYTE   W12
 BYTE   N12  As1
 BYTE   N12  Fn2
 BYTE   N12  As2
 BYTE   W11
 BYTE   MOD 24
 BYTE   W13
 BYTE   N12  As1
 BYTE   N12  Fn2
 BYTE   N12  As2
 BYTE   W12
 BYTE   As1
 BYTE   N12  Fn2
 BYTE   N12  As2
 BYTE   W12
 BYTE   MOD 39
 BYTE   W12
 BYTE   N12  As1
 BYTE   N12  Fn2
 BYTE   N12  As2
 BYTE   W12
 BYTE   As1
 BYTE   N12  Fn2
 BYTE   N12  As2
 BYTE   W12
//  #04 //063   ----------------------------------------
Label_0116F79C:
 BYTE   W12
 BYTE   N12  As1  v100
 BYTE   N12  Fn2
 BYTE   N12  As2
 BYTE   W12
 BYTE   As1
 BYTE   N12  Fn2
 BYTE   N12  As2
 BYTE   W24
 BYTE   As1
 BYTE   N12  Fn2
 BYTE   N12  As2
 BYTE   W48
 BYTE   PEND 
//  #04 //064   ----------------------------------------
Label_0116F7B2:
 BYTE   N12  As1  v100
 BYTE   N12  Fn2
 BYTE   N12  As2
 BYTE   W12
 BYTE   As1
 BYTE   N12  Fn2
 BYTE   N12  As2
 BYTE   W24
 BYTE   As1
 BYTE   N12  Fn2
 BYTE   N12  As2
 BYTE   W12
 BYTE   As1
 BYTE   N12  Fn2
 BYTE   N12  As2
 BYTE   W24
 BYTE   As1
 BYTE   N12  Fn2
 BYTE   N12  As2
 BYTE   W12
 BYTE   As1
 BYTE   N12  Fn2
 BYTE   N12  As2
 BYTE   W12
 BYTE   PEND 
//  #04 //065   ----------------------------------------
 BYTE   W12
 BYTE   As1
 BYTE   N12  Fn2
 BYTE   N12  As2
 BYTE   W12
 BYTE   As1
 BYTE   N12  Fn2
 BYTE   N12  As2
 BYTE   W24
 BYTE   As1
 BYTE   N12  Fn2
 BYTE   N12  As2
 BYTE   W12
 BYTE   EOT
 BYTE   As4
 BYTE   MOD 0
 BYTE   W36
//  #04 //066   ----------------------------------------
 BYTE   N23  As1
 BYTE   N11  Fn2
 BYTE   N23  As2
 BYTE   W12
 BYTE   N11  Fn2
 BYTE   W12
 BYTE   N12  Cs2
 BYTE   N12  Gs2
 BYTE   N12  Cs3
 BYTE   W12
 BYTE   As1
 BYTE   N12  Fn2
 BYTE   N12  As2
 BYTE   W12
 BYTE   En2
 BYTE   N12  Bn2
 BYTE   N12  En3
 BYTE   W12
 BYTE   Ds2
 BYTE   N12  As2
 BYTE   N12  Ds3
 BYTE   W12
 BYTE   Cs2
 BYTE   N12  Gs2
 BYTE   N12  Cs3
 BYTE   W12
 BYTE   N36  As1
 BYTE   N23  Fn2
 BYTE   N32  As2
 BYTE   W12
//  #04 //067   ----------------------------------------
Label_0116F821:
 BYTE   W12
 BYTE   N12  Fn2  v100
 BYTE   W12
 BYTE   Cs2
 BYTE   N12  Gs2
 BYTE   N12  Cs3
 BYTE   W12
 BYTE   As1
 BYTE   N12  Fn2
 BYTE   N12  As2
 BYTE   W12
 BYTE   Fn1
 BYTE   N12  Cn2
 BYTE   N12  Fn2
 BYTE   W12
 BYTE   En1
 BYTE   N12  Bn1
 BYTE   N12  En2
 BYTE   W12
 BYTE   Ds1
 BYTE   N12  As1
 BYTE   N12  Ds2
 BYTE   W12
 BYTE   Cs1
 BYTE   N12  Gs1
 BYTE   N12  Cs2
 BYTE   W12
 BYTE   PEND 
//  #04 //068   ----------------------------------------
 BYTE   N24  As1
 BYTE   N11  Fn2
 BYTE   N23  As2
 BYTE   W12
 BYTE   N11  Fn2
 BYTE   W12
 BYTE   Cs2
 BYTE   N12  Gs2
 BYTE   N12  Cs3
 BYTE   W12
 BYTE   N11  As1
 BYTE   N12  Fn2
 BYTE   N12  As2
 BYTE   W12
 BYTE   N11  En2
 BYTE   N12  Bn2
 BYTE   N12  En3
 BYTE   W12
 BYTE   N11  Ds2
 BYTE   N12  As2
 BYTE   N12  Ds3
 BYTE   W12
 BYTE   N11  Cs2
 BYTE   N12  Gs2
 BYTE   N12  Cs3
 BYTE   W12
 BYTE   N24  Fs2
 BYTE   W12
//  #04 //069   ----------------------------------------
Label_0116F87A:
 BYTE   W12
 BYTE   N12  As2  v100
 BYTE   W12
 BYTE   Cs3
 BYTE   W12
 BYTE   N24  Gs2
 BYTE   W24
 BYTE   N36  Ds3
 BYTE   N36  Gs3
 BYTE   W36
 BYTE   PEND 
//  #04 //070   ----------------------------------------
Label_0116F88A:
 BYTE   N24  As1  v100
 BYTE   N11  Fn2
 BYTE   N23  As2
 BYTE   W12
 BYTE   N11  Fn2
 BYTE   W12
 BYTE   N12  Cs2
 BYTE   N12  Gs2
 BYTE   N12  Cs3
 BYTE   W12
 BYTE   As1
 BYTE   N12  Fn2
 BYTE   N12  As2
 BYTE   W12
 BYTE   En2
 BYTE   N12  Bn2
 BYTE   N12  En3
 BYTE   W12
 BYTE   Ds2
 BYTE   N12  As2
 BYTE   N12  Ds3
 BYTE   W12
 BYTE   Cs2
 BYTE   N12  Gs2
 BYTE   N12  Cs3
 BYTE   W12
 BYTE   N36  As1
 BYTE   N23  Fn2
 BYTE   N32  As2
 BYTE   W12
 BYTE   PEND 
//  #04 //071   ----------------------------------------
 BYTE   PATT
  POIN2 Label_0116F821
//  #04 //072   ----------------------------------------
 BYTE   N24  As1  v100
 BYTE   N11  Fn2
 BYTE   N23  As2
 BYTE   W12
 BYTE   N11  Fn2
 BYTE   W12
 BYTE   Cs2
 BYTE   N12  Gs2
 BYTE   N12  Cs3
 BYTE   W12
 BYTE   N11  As1
 BYTE   N12  Fn2
 BYTE   N12  As2
 BYTE   W12
 BYTE   N11  En2
 BYTE   N12  Bn2
 BYTE   N12  En3
 BYTE   W12
 BYTE   N11  Ds2
 BYTE   N12  As2
 BYTE   N12  Ds3
 BYTE   W12
 BYTE   N11  Cs2
 BYTE   N12  Gs2
 BYTE   N12  Cs3
 BYTE   W12
 BYTE   N24  Fs1
 BYTE   W12
//  #04 //073   ----------------------------------------
 BYTE   W12
 BYTE   N12  As1
 BYTE   W12
 BYTE   Fs2
 BYTE   W12
 BYTE   N24  Gs2
 BYTE   W24
 BYTE   N06  Ds2
 BYTE   W12
 BYTE   N24  Gs1
 BYTE   W24
//  #04 //074   ----------------------------------------
 BYTE   PATT
  POIN2 Label_0116F88A
//  #04 //075   ----------------------------------------
 BYTE   PATT
  POIN2 Label_0116F821
//  #04 //076   ----------------------------------------
 BYTE   N12  As1  v100
 BYTE   N11  Fn2
 BYTE   N23  As2
 BYTE   W12
 BYTE   N12  As1
 BYTE   N11  Fn2
 BYTE   W12
 BYTE   N12  Cs2
 BYTE   N12  Gs2
 BYTE   N12  Cs3
 BYTE   W12
 BYTE   As1
 BYTE   N12  Fn2
 BYTE   N12  As2
 BYTE   W12
 BYTE   En2
 BYTE   N12  Bn2
 BYTE   N12  En3
 BYTE   W12
 BYTE   Ds2
 BYTE   N12  As2
 BYTE   N12  Ds3
 BYTE   W12
 BYTE   Cs2
 BYTE   N12  Gs2
 BYTE   N11  Cs3
 BYTE   W12
 BYTE   N24  Fs2
 BYTE   W12
//  #04 //077   ----------------------------------------
 BYTE   PATT
  POIN2 Label_0116F87A
//  #04 //078   ----------------------------------------
 BYTE   PATT
  POIN2 Label_0116F88A
//  #04 //079   ----------------------------------------
 BYTE   PATT
  POIN2 Label_0116F821
//  #04 //080   ----------------------------------------
 BYTE   N12  As1  v100
 BYTE   N11  Fn2
 BYTE   N23  As2
 BYTE   W12
 BYTE   N12  As1
 BYTE   N11  Fn2
 BYTE   W12
 BYTE   N12  Cs2
 BYTE   N12  Gs2
 BYTE   N12  Cs3
 BYTE   W12
 BYTE   As1
 BYTE   N12  Fn2
 BYTE   N12  As2
 BYTE   W12
 BYTE   En2
 BYTE   N12  Bn2
 BYTE   N12  En3
 BYTE   W12
 BYTE   Ds2
 BYTE   N12  As2
 BYTE   N12  Ds3
 BYTE   W12
 BYTE   Cs2
 BYTE   N12  Gs2
 BYTE   N11  Cs3
 BYTE   W12
 BYTE   N24  Fs1
 BYTE   N24  Cs2
 BYTE   N24  Fs2
 BYTE   W12
//  #04 //081   ----------------------------------------
 BYTE   W12
 BYTE   N12  As1
 BYTE   W12
 BYTE   Fs2
 BYTE   W12
 BYTE   N24  Gs2
 BYTE   W24
 BYTE   N12  Ds2
 BYTE   W12
 BYTE   N24  Gs1
 BYTE   N12  Gs2
 BYTE   W12
 BYTE   Cn3
 BYTE   W12
//  #04 //082   ----------------------------------------
 BYTE   PATT
  POIN2 Label_0116F7B2
//  #04 //083   ----------------------------------------
 BYTE   PATT
  POIN2 Label_0116F79C
//  #04 //084   ----------------------------------------
 BYTE   PATT
  POIN2 Label_0116F7B2
//  #04 //085   ----------------------------------------
 BYTE   PATT
  POIN2 Label_0116F79C
//  #04 //086   ----------------------------------------
 BYTE   GoTo
  POIN2 Label_0116F1E9
//  #04 //087   ----------------------------------------
 BYTE   TIE  Fn1  v060
 BYTE   TIE  As1
 BYTE   TIE  Fn2
 BYTE   TIE  As2
 BYTE   W03
 BYTE   W01
 BYTE   W03
 BYTE   W01
 BYTE   W01
 BYTE   W03
 BYTE   W01
 BYTE   W02
 BYTE   W01
 BYTE   W03
 BYTE   W03
 BYTE   W01
 BYTE   W03
 BYTE   W01
 BYTE   W02
 BYTE   W02
 BYTE   W01
 BYTE   W03
 BYTE   W03
 BYTE   W04
 BYTE   W01
 BYTE   W02
 BYTE   W02
 BYTE   W01
 BYTE   W02
 BYTE   W01
 BYTE   W03
 BYTE   W01
 BYTE   W02
 BYTE   W01
 BYTE   W03
 BYTE   W01
 BYTE   W02
 BYTE   W02
 BYTE   W01
 BYTE   W03
 BYTE   W03
 BYTE   W01
 BYTE   W03
 BYTE   W03
 BYTE   W02
 BYTE   W01
 BYTE   W02
 BYTE   W01
 BYTE   W03
 BYTE   W01
 BYTE   W03
 BYTE   W03
//  #04 //088   ----------------------------------------
 BYTE   PATT
  POIN2 Label_0116F226
//  #04 //089   ----------------------------------------
 BYTE   W96
//  #04 //090   ----------------------------------------
 BYTE   W96
//  #04 //091   ----------------------------------------
 BYTE   EOT
 BYTE   Fn1  v046
 BYTE   Fn2  v058
 BYTE   W96
//  #04 //092   ----------------------------------------
 BYTE   W96
//  #04 //093   ----------------------------------------
 BYTE   W96
//  #04 //094   ----------------------------------------
 BYTE   W96
//  #04 //095   ----------------------------------------
 BYTE   W96
//  #04 //096   ----------------------------------------
 BYTE   W96
//  #04 //097   ----------------------------------------
 BYTE   W96
//  #04 //098   ----------------------------------------
 BYTE   W96
//  #04 //099   ----------------------------------------
 BYTE   W96
//  #04 //100   ----------------------------------------
 BYTE   W96
//  #04 //101   ----------------------------------------
 BYTE   W96
//  #04 //102   ----------------------------------------
 BYTE   W96
//  #04 //103   ----------------------------------------
 BYTE   W96
//  #04 //104   ----------------------------------------
 BYTE   W96
//  #04 //105   ----------------------------------------
 BYTE   W96
//  #04 //106   ----------------------------------------
 BYTE   W96
//  #04 //107   ----------------------------------------
 BYTE   W96
//  #04 //108   ----------------------------------------
 BYTE   W96
//  #04 //109   ----------------------------------------
 BYTE   W96
//  #04 //110   ----------------------------------------
 BYTE   W96
//  #04 //111   ----------------------------------------
 BYTE   W96
//  #04 //112   ----------------------------------------
 BYTE   W96
//  #04 //113   ----------------------------------------
 BYTE   W96
//  #04 //114   ----------------------------------------
 BYTE   W96
//  #04 //115   ----------------------------------------
 BYTE   W96
//  #04 //116   ----------------------------------------
 BYTE   W96
//  #04 //117   ----------------------------------------
 BYTE   W96
//  #04 //118   ----------------------------------------
 BYTE   W96
//  #04 //119   ----------------------------------------
 BYTE   W96
//  #04 //120   ----------------------------------------
 BYTE   W96
//  #04 //121   ----------------------------------------
 BYTE   W96
//  #04 //122   ----------------------------------------
 BYTE   W96
//  #04 //123   ----------------------------------------
 BYTE   W96
//  #04 //124   ----------------------------------------
 BYTE   W96
//  #04 //125   ----------------------------------------
 BYTE   W96
//  #04 //126   ----------------------------------------
 BYTE   W96
//  #04 //127   ----------------------------------------
 BYTE   W96
//  #04 //128   ----------------------------------------
 BYTE   W96
//  #04 //129   ----------------------------------------
 BYTE   W96
//  #04 //130   ----------------------------------------
 BYTE   W96
//  #04 //131   ----------------------------------------
 BYTE   W96
//  #04 //132   ----------------------------------------
 BYTE   W96
//  #04 //133   ----------------------------------------
 BYTE   W96
//  #04 //134   ----------------------------------------
 BYTE   W96
//  #04 //135   ----------------------------------------
 BYTE   W96
//  #04 //136   ----------------------------------------
 BYTE   W96
//  #04 //137   ----------------------------------------
 BYTE   W96
//  #04 //138   ----------------------------------------
 BYTE   W96
//  #04 //139   ----------------------------------------
 BYTE   W96
//  #04 //140   ----------------------------------------
 BYTE   W96
//  #04 //141   ----------------------------------------
 BYTE   W96
//  #04 //142   ----------------------------------------
 BYTE   W96
//  #04 //143   ----------------------------------------
 BYTE   W96
//  #04 //144   ----------------------------------------
 BYTE   W96
//  #04 //145   ----------------------------------------
 BYTE   W96
//  #04 //146   ----------------------------------------
 BYTE   W96
//  #04 //147   ----------------------------------------
 BYTE   W96
//  #04 //148   ----------------------------------------
 BYTE   W96
//  #04 //149   ----------------------------------------
 BYTE   W96
//  #04 //150   ----------------------------------------
 BYTE   W96
//  #04 //151   ----------------------------------------
 BYTE   W96
//  #04 //152   ----------------------------------------
 BYTE   W96
//  #04 //153   ----------------------------------------
 BYTE   W96
//  #04 //154   ----------------------------------------
 BYTE   W96
//  #04 //155   ----------------------------------------
 BYTE   W96
//  #04 //156   ----------------------------------------
 BYTE   W96
//  #04 //157   ----------------------------------------
 BYTE   W96
//  #04 //158   ----------------------------------------
 BYTE   W96
//  #04 //159   ----------------------------------------
 BYTE   W96
//  #04 //160   ----------------------------------------
 BYTE   W96
//  #04 //161   ----------------------------------------
 BYTE   W96
//  #04 //162   ----------------------------------------
 BYTE   W96
//  #04 //163   ----------------------------------------
 BYTE   W96
//  #04 //164   ----------------------------------------
 BYTE   W96
//  #04 //165   ----------------------------------------
 BYTE   W96
//  #04 //166   ----------------------------------------
 BYTE   W96
//  #04 //167   ----------------------------------------
 BYTE   W96
//  #04 //168   ----------------------------------------
 BYTE   W96
//  #04 //169   ----------------------------------------
 BYTE   W96
//  #04 //170   ----------------------------------------
 BYTE   W96
//  #04 //171   ----------------------------------------
 BYTE   W96
//  #04 //172   ----------------------------------------
 BYTE   W96
//  #04 //173   ----------------------------------------
 BYTE   W96
//  #04 //174   ----------------------------------------
 BYTE   W96
//  #04 //175   ----------------------------------------
 BYTE   W96
//  #04 //176   ----------------------------------------
 BYTE   W96
//  #04 //177   ----------------------------------------
 BYTE   W96
//  #04 //178   ----------------------------------------
 BYTE   W96
//  #04 //179   ----------------------------------------
 BYTE   W96
//  #04 //180   ----------------------------------------
 BYTE   W96
//  #04 //181   ----------------------------------------
 BYTE   W96
//  #04 //182   ----------------------------------------
 BYTE   W96
//  #04 //183   ----------------------------------------
 BYTE   W96
//  #04 //184   ----------------------------------------
 BYTE   W96
//  #04 //185   ----------------------------------------
 BYTE   W96
//  #04 //186   ----------------------------------------
 BYTE   W96
//  #04 //187   ----------------------------------------
 BYTE   W96
//  #04 //188   ----------------------------------------
 BYTE   W96
//  #04 //189   ----------------------------------------
 BYTE   W96
//  #04 //190   ----------------------------------------
 BYTE   W96
//  #04 //191   ----------------------------------------
 BYTE   W96
//  #04 //192   ----------------------------------------
 BYTE   W96
//  #04 //193   ----------------------------------------
 BYTE   W96
//  #04 //194   ----------------------------------------
 BYTE   W96
//  #04 //195   ----------------------------------------
 BYTE   W96
//  #04 //196   ----------------------------------------
 BYTE   W96
//  #04 //197   ----------------------------------------
 BYTE   W96
//  #04 //198   ----------------------------------------
 BYTE   W96
//  #04 //199   ----------------------------------------
 BYTE   W96
//  #04 //200   ----------------------------------------
 BYTE   W96
//  #04 //201   ----------------------------------------
 BYTE   W96
//  #04 //202   ----------------------------------------
 BYTE   W96
//  #04 //203   ----------------------------------------
 BYTE   W96
//  #04 //204   ----------------------------------------
 BYTE   W96
//  #04 //205   ----------------------------------------
 BYTE   W96
//  #04 //206   ----------------------------------------
 BYTE   W96
//  #04 //207   ----------------------------------------
 BYTE   W96
//  #04 //208   ----------------------------------------
 BYTE   W96
//  #04 //209   ----------------------------------------
 BYTE   W96
//  #04 //210   ----------------------------------------
 BYTE   W96
//  #04 //211   ----------------------------------------
 BYTE   W96
//  #04 //212   ----------------------------------------
 BYTE   W96
//  #04 //213   ----------------------------------------
 BYTE   W96
//  #04 //214   ----------------------------------------
 BYTE   W96
//  #04 //215   ----------------------------------------
 BYTE   W96
//  #04 //216   ----------------------------------------
 BYTE   W96
//  #04 //217   ----------------------------------------
 BYTE   W96
//  #04 //218   ----------------------------------------
 BYTE   W92
 BYTE   W03
 BYTE   FINE

//**************** Track 5 (Midi-Chn.4) ****************//

song1C_005:
//  #05 //000   ----------------------------------------
 BYTE   KEYSH   song1C_key+0
 BYTE   VOICE   30
 BYTE   W12
Label_0116FA75:
 BYTE   VOL   40*song1C_mvl/mxv
 BYTE   PAN   c_v+0
 BYTE   W96
//  #05 //001   ----------------------------------------
 BYTE   W96
//  #05 //002   ----------------------------------------
 BYTE   W96
//  #05 //003   ----------------------------------------
 BYTE   W96
//  #05 //004   ----------------------------------------
 BYTE   W96
//  #05 //005   ----------------------------------------
 BYTE   W96
//  #05 //006   ----------------------------------------
 BYTE   W96
//  #05 //007   ----------------------------------------
 BYTE   W96
//  #05 //008   ----------------------------------------
Label_0116FA81:
 BYTE   N12  Fn2  v100
 BYTE   W12
 BYTE   Cs2
 BYTE   W12
 BYTE   As1
 BYTE   W12
 BYTE   N24  Fs2
 BYTE   W24
 BYTE   N12  Dn2
 BYTE   W12
 BYTE   N24  Bn1
 BYTE   W24
 BYTE   PEND 
//  #05 //009   ----------------------------------------
Label_0116FA93:
 BYTE   N12  Fn2  v100
 BYTE   W12
 BYTE   Cs2
 BYTE   W12
 BYTE   As1
 BYTE   W12
 BYTE   N24  En2
 BYTE   W24
 BYTE   N12  Cn2
 BYTE   W12
 BYTE   N24  An1
 BYTE   W24
 BYTE   PEND 
//  #05 //010   ----------------------------------------
 BYTE   PATT
  POIN2 Label_0116FA81
//  #05 //011   ----------------------------------------
Label_0116FAAA:
 BYTE   N12  Gn2  v100
 BYTE   W12
 BYTE   En2
 BYTE   W12
 BYTE   Cn2
 BYTE   W12
 BYTE   N24  An2
 BYTE   W24
 BYTE   N12  Fn2
 BYTE   W12
 BYTE   N24  Cn2
 BYTE   W24
 BYTE   PEND 
//  #05 //012   ----------------------------------------
 BYTE   PATT
  POIN2 Label_0116FA81
//  #05 //013   ----------------------------------------
 BYTE   PATT
  POIN2 Label_0116FA93
//  #05 //014   ----------------------------------------
 BYTE   PATT
  POIN2 Label_0116FA81
//  #05 //015   ----------------------------------------
 BYTE   PATT
  POIN2 Label_0116FAAA
//  #05 //016   ----------------------------------------
 BYTE   W96
//  #05 //017   ----------------------------------------
Label_0116FAD1:
 BYTE   W36
 BYTE   N24  En2  v100
 BYTE   W24
 BYTE   N12  Ds2
 BYTE   W12
 BYTE   Cs2
 BYTE   W12
 BYTE   Gs1
 BYTE   W12
 BYTE   PEND 
//  #05 //018   ----------------------------------------
 BYTE   W96
//  #05 //019   ----------------------------------------
Label_0116FADF:
 BYTE   W12
 BYTE   N06  Fn2  v100
 BYTE   W12
 BYTE   Gs2
 BYTE   W12
 BYTE   N24  Fn3
 BYTE   W24
 BYTE   N12  Cs3
 BYTE   W12
 BYTE   Gs2
 BYTE   W12
 BYTE   Fn2
 BYTE   W12
 BYTE   PEND 
//  #05 //020   ----------------------------------------
 BYTE   W24
 BYTE   N12
 BYTE   N12  Fn3  v060
 BYTE   W36
 BYTE   Gs2  v100
 BYTE   N12  Gs3  v060
 BYTE   W36
//  #05 //021   ----------------------------------------
Label_0116FAFD:
 BYTE   N12  Gn2  v100
 BYTE   W12
 BYTE   En2
 BYTE   W12
 BYTE   Cn2
 BYTE   W12
 BYTE   N24  En2
 BYTE   W24
 BYTE   N12  Cn2
 BYTE   W12
 BYTE   As1
 BYTE   W12
 BYTE   N24  Bn1
 BYTE   W12
 BYTE   PEND 
//  #05 //022   ----------------------------------------
 BYTE   W12
 BYTE   N12  Fs1
 BYTE   W12
 BYTE   Cs2
 BYTE   W12
 BYTE   Fs1
 BYTE   W12
 BYTE   Ds2
 BYTE   W12
 BYTE   Fs2
 BYTE   W12
 BYTE   Fn2
 BYTE   W12
 BYTE   N24  Cs2
 BYTE   W12
//  #05 //023   ----------------------------------------
 BYTE   W12
 BYTE   N12  Gs1
 BYTE   W12
 BYTE   Ds2
 BYTE   W12
 BYTE   Gs1
 BYTE   W12
 BYTE   Fn2
 BYTE   W12
 BYTE   Gs1
 BYTE   W12
 BYTE   N24  Gs2
 BYTE   W24
//  #05 //024   ----------------------------------------
 BYTE   W96
//  #05 //025   ----------------------------------------
 BYTE   PATT
  POIN2 Label_0116FAD1
//  #05 //026   ----------------------------------------
 BYTE   W96
//  #05 //027   ----------------------------------------
 BYTE   PATT
  POIN2 Label_0116FADF
//  #05 //028   ----------------------------------------
 BYTE   W24
 BYTE   N12  Fn2  v100
 BYTE   W36
 BYTE   Gs2
 BYTE   W36
//  #05 //029   ----------------------------------------
 BYTE   PATT
  POIN2 Label_0116FAFD
//  #05 //030   ----------------------------------------
 BYTE   W12
 BYTE   N12  Ds2  v100
 BYTE   W12
 BYTE   Ds3
 BYTE   W12
 BYTE   Cs3
 BYTE   W12
 BYTE   Bn2
 BYTE   W12
 BYTE   Fs2
 BYTE   W12
 BYTE   Ds2
 BYTE   W12
 BYTE   N24  Gs1
 BYTE   W12
//  #05 //031   ----------------------------------------
 BYTE   W12
 BYTE   N12  Cs2
 BYTE   W12
 BYTE   Fn2
 BYTE   W12
 BYTE   Gs2
 BYTE   W12
 BYTE   Cs3
 BYTE   W12
 BYTE   Ds3
 BYTE   W12
 BYTE   N24  Fn3
 BYTE   W24
//  #05 //032   ----------------------------------------
 BYTE   N72  Fs2
 BYTE   W72
 BYTE   N12  Fn2
 BYTE   W12
 BYTE   Fs2
 BYTE   W12
//  #05 //033   ----------------------------------------
 BYTE   N72  Cs3
 BYTE   W72
 BYTE   N12  Cn3
 BYTE   W12
 BYTE   Cs3
 BYTE   W12
//  #05 //034   ----------------------------------------
 BYTE   TIE  Gs3
 BYTE   W96
//  #05 //035   ----------------------------------------
 BYTE   W72
 BYTE   EOT
 BYTE   N12  Fn3
 BYTE   W12
 BYTE   Fs3
 BYTE   W12
//  #05 //036   ----------------------------------------
 BYTE   N72  Cs4
 BYTE   W72
 BYTE   N12  Cn4
 BYTE   W12
 BYTE   Cs4
 BYTE   W12
//  #05 //037   ----------------------------------------
 BYTE   N72  Gs4
 BYTE   W72
 BYTE   N12  Fn4
 BYTE   W12
 BYTE   Fs4
 BYTE   W12
//  #05 //038   ----------------------------------------
 BYTE   TIE  Cs5  v080
 BYTE   W96
//  #05 //039   ----------------------------------------
 BYTE   W60
 BYTE   EOT
 BYTE   W36
//  #05 //040   ----------------------------------------
 BYTE   W96
//  #05 //041   ----------------------------------------
 BYTE   W96
//  #05 //042   ----------------------------------------
 BYTE   W96
//  #05 //043   ----------------------------------------
 BYTE   W96
//  #05 //044   ----------------------------------------
 BYTE   N06  Gs1  v100
 BYTE   W12
 BYTE   N12
 BYTE   W12
 BYTE   Cs2
 BYTE   W12
 BYTE   N06  Gs1
 BYTE   W12
 BYTE   N12  Dn2
 BYTE   W12
 BYTE   N06  Gs1
 BYTE   W12
 BYTE   N12  Ds2
 BYTE   W12
 BYTE   N06  Gs1
 BYTE   W12
//  #05 //045   ----------------------------------------
 BYTE   N12  Gs2
 BYTE   W12
 BYTE   Fs2
 BYTE   W12
 BYTE   Ds2
 BYTE   W12
 BYTE   N24  Gs2
 BYTE   W24
 BYTE   N12  Fs2
 BYTE   W12
 BYTE   Ds2
 BYTE   W24
//  #05 //046   ----------------------------------------
 BYTE   W96
//  #05 //047   ----------------------------------------
 BYTE   W24
 BYTE   Fn3
 BYTE   N12  As3
 BYTE   W24
 BYTE   N12
 BYTE   N12  Cs4
 BYTE   W12
 BYTE   As3
 BYTE   N12  Ds4
 BYTE   W24
 BYTE   N72  Fn3
 BYTE   N72  Fn4
 BYTE   W12
//  #05 //048   ----------------------------------------
 BYTE   W60
 BYTE   N24  Fn3
 BYTE   N24  Fn4
 BYTE   W24
 BYTE   N60  Gs3
 BYTE   N36  Ds4
 BYTE   W12
//  #05 //049   ----------------------------------------
 BYTE   W24
 BYTE   N24
 BYTE   W24
 BYTE   Ds3
 BYTE   N24  Gs4
 BYTE   W24
 BYTE   Gs3
 BYTE   N24  Ds4
 BYTE   W24
//  #05 //050   ----------------------------------------
 BYTE   N60  Ds3
 BYTE   N60  Ds4
 BYTE   W60
 BYTE   N12  Ds3
 BYTE   N12  Cs4
 BYTE   W12
 BYTE   Cn4
 BYTE   W12
 BYTE   N84  Fn3
 BYTE   N84  Cs4
 BYTE   W12
//  #05 //051   ----------------------------------------
 BYTE   W72
 BYTE   N12  As3
 BYTE   W12
 BYTE   Cn4
 BYTE   W12
//  #05 //052   ----------------------------------------
 BYTE   N06  Ds2
 BYTE   N12  Cs4
 BYTE   W12
 BYTE   N06  Ds2
 BYTE   N12  As3
 BYTE   W12
 BYTE   N06  Ds2
 BYTE   N12  Fs3
 BYTE   W12
 BYTE   N24  As2
 BYTE   N24  Cs3
 BYTE   W24
 BYTE   N12  Ds2
 BYTE   N12  Fs3
 BYTE   W12
 BYTE   N24  Cs3
 BYTE   N12  As3
 BYTE   W12
 BYTE   Cs4
 BYTE   W12
//  #05 //053   ----------------------------------------
 BYTE   N06  Fn2
 BYTE   N12  Cn4
 BYTE   W12
 BYTE   N06  Fn2
 BYTE   N12  An3
 BYTE   W12
 BYTE   N06  Fn2
 BYTE   N12  Fn3
 BYTE   W12
 BYTE   N24  Cn3
 BYTE   W24
 BYTE   N12  Fn2
 BYTE   N12  Fn3
 BYTE   W12
 BYTE   Ds3
 BYTE   N12  An3
 BYTE   W12
 BYTE   N24  Cs3
 BYTE   N24  As3
 BYTE   W12
//  #05 //054   ----------------------------------------
 BYTE   W12
 BYTE   N12  Cn3
 BYTE   N12  An3
 BYTE   W12
 BYTE   Cs3
 BYTE   N12  As3
 BYTE   W12
 BYTE   N24  Ds3
 BYTE   N24  Cn4
 BYTE   W24
 BYTE   N12  Cs3
 BYTE   N12  As3
 BYTE   W12
 BYTE   Ds3
 BYTE   N12  Cn4
 BYTE   W12
 BYTE   N24  Fn3
 BYTE   N36  Cs4
 BYTE   W12
//  #05 //055   ----------------------------------------
 BYTE   W24
 BYTE   N12  Fn3
 BYTE   N12  As3
 BYTE   W24
 BYTE   Ds3
 BYTE   N12  Cs4
 BYTE   W12
 BYTE   Ds3
 BYTE   N12  Ds4
 BYTE   W24
 BYTE   N72  Cs3
 BYTE   W12
//  #05 //056   ----------------------------------------
 BYTE   W60
 BYTE   N24
 BYTE   W24
 BYTE   TIE  Ds3
 BYTE   W12
//  #05 //057   ----------------------------------------
 BYTE   W96
//  #05 //058   ----------------------------------------
 BYTE   EOT
 BYTE   N60  Gs3
 BYTE   W60
 BYTE   N24
 BYTE   W24
 BYTE   TIE  Cs3
 BYTE   W12
//  #05 //059   ----------------------------------------
 BYTE   W96
//  #05 //060   ----------------------------------------
 BYTE   EOT
 BYTE   N06  Ds1
 BYTE   N48  As3
 BYTE   W12
 BYTE   N06  Ds1
 BYTE   W12
 BYTE   N06
 BYTE   W12
 BYTE   N24  As2
 BYTE   W12
 BYTE   N48  Fn4
 BYTE   W12
 BYTE   N36  Ds2
 BYTE   N36  Cs3
 BYTE   W36
//  #05 //061   ----------------------------------------
 BYTE   N06  Fn1
 BYTE   N48  Ds4
 BYTE   W12
 BYTE   N06  Fn1
 BYTE   W12
 BYTE   N06
 BYTE   W12
 BYTE   N24  Cn3
 BYTE   W12
 BYTE   N48  Gs4
 BYTE   W12
 BYTE   N36  Fn2
 BYTE   N36  Ds3
 BYTE   W36
//  #05 //062   ----------------------------------------
 BYTE   N12  As2
 BYTE   TIE  As4
 BYTE   W12
 BYTE   N12  As2
 BYTE   W24
 BYTE   N12
 BYTE   W12
 BYTE   N12
 BYTE   W24
 BYTE   N12
 BYTE   W12
 BYTE   N12
 BYTE   W12
//  #05 //063   ----------------------------------------
 BYTE   W12
 BYTE   N12
 BYTE   W12
 BYTE   N12
 BYTE   W24
 BYTE   N12
 BYTE   W24
 BYTE   N24  As3
 BYTE   N24  Fn4
 BYTE   W24
//  #05 //064   ----------------------------------------
Label_0116FCCB:
 BYTE   N12  As2  v100
 BYTE   W12
 BYTE   N12
 BYTE   W24
 BYTE   N12
 BYTE   W12
 BYTE   N12
 BYTE   W24
 BYTE   N12
 BYTE   W12
 BYTE   N12
 BYTE   W12
 BYTE   PEND 
//  #05 //065   ----------------------------------------
 BYTE   W12
 BYTE   N12
 BYTE   W12
 BYTE   N12
 BYTE   W24
 BYTE   N12
 BYTE   W12
 BYTE   EOT
 BYTE   As4
 BYTE   W12
 BYTE   N24  Fn4
 BYTE   N24  As4
 BYTE   W24
//  #05 //066   ----------------------------------------
 BYTE   W96
//  #05 //067   ----------------------------------------
 BYTE   W96
//  #05 //068   ----------------------------------------
 BYTE   W84
 BYTE   Fs1
 BYTE   W12
//  #05 //069   ----------------------------------------
Label_0116FCEE:
 BYTE   W12
 BYTE   N12  As1  v100
 BYTE   W12
 BYTE   Cs2
 BYTE   W12
 BYTE   N24  Gs1
 BYTE   W24
 BYTE   N36  Ds3
 BYTE   W36
 BYTE   PEND 
//  #05 //070   ----------------------------------------
 BYTE   W96
//  #05 //071   ----------------------------------------
 BYTE   W96
//  #05 //072   ----------------------------------------
 BYTE   W84
 BYTE   N24  Fs1
 BYTE   W12
//  #05 //073   ----------------------------------------
 BYTE   W12
 BYTE   N12  As1
 BYTE   W12
 BYTE   Fs2
 BYTE   W12
 BYTE   N24  Gs2
 BYTE   W24
 BYTE   N06  Ds2
 BYTE   W12
 BYTE   N24  Gs1
 BYTE   W24
//  #05 //074   ----------------------------------------
 BYTE   W96
//  #05 //075   ----------------------------------------
 BYTE   W96
//  #05 //076   ----------------------------------------
 BYTE   W84
 BYTE   Fs1
 BYTE   W12
//  #05 //077   ----------------------------------------
 BYTE   PATT
  POIN2 Label_0116FCEE
//  #05 //078   ----------------------------------------
 BYTE   W96
//  #05 //079   ----------------------------------------
 BYTE   W96
//  #05 //080   ----------------------------------------
 BYTE   W84
 BYTE   N24  Fs1  v100
 BYTE   W12
//  #05 //081   ----------------------------------------
 BYTE   W12
 BYTE   N12  As0
 BYTE   N12  As1
 BYTE   W12
 BYTE   Fs1
 BYTE   N12  Fs2
 BYTE   N12  Fs4  v060
 BYTE   W12
 BYTE   N24  Gs2  v100
 BYTE   N24  Gs4  v060
 BYTE   W24
 BYTE   N12  Ds2  v100
 BYTE   W12
 BYTE   N24  Gs1
 BYTE   N12  Gs2
 BYTE   W12
 BYTE   Cn3
 BYTE   W12
//  #05 //082   ----------------------------------------
 BYTE   PATT
  POIN2 Label_0116FCCB
//  #05 //083   ----------------------------------------
 BYTE   W12
 BYTE   N12  As2  v100
 BYTE   W12
 BYTE   N12
 BYTE   W24
 BYTE   N12
 BYTE   W24
 BYTE   N24  As1
 BYTE   N24  Fn2
 BYTE   W24
//  #05 //084   ----------------------------------------
 BYTE   PATT
  POIN2 Label_0116FCCB
//  #05 //085   ----------------------------------------
 BYTE   W12
 BYTE   N12  As2  v100
 BYTE   W12
 BYTE   N12
 BYTE   W24
 BYTE   N12
 BYTE   N12  As3
 BYTE   W48
//  #05 //086   ----------------------------------------
 BYTE   GoTo
  POIN2 Label_0116FA75
//  #05 //087   ----------------------------------------
 BYTE   W96
//  #05 //088   ----------------------------------------
 BYTE   W96
//  #05 //089   ----------------------------------------
 BYTE   W96
//  #05 //090   ----------------------------------------
 BYTE   W96
//  #05 //091   ----------------------------------------
 BYTE   N06  As2  v100
 BYTE   W96
//  #05 //092   ----------------------------------------
 BYTE   W96
//  #05 //093   ----------------------------------------
 BYTE   W96
//  #05 //094   ----------------------------------------
 BYTE   W96
//  #05 //095   ----------------------------------------
 BYTE   W96
//  #05 //096   ----------------------------------------
 BYTE   W96
//  #05 //097   ----------------------------------------
 BYTE   W96
//  #05 //098   ----------------------------------------
 BYTE   W96
//  #05 //099   ----------------------------------------
 BYTE   W96
//  #05 //100   ----------------------------------------
 BYTE   W96
//  #05 //101   ----------------------------------------
 BYTE   W96
//  #05 //102   ----------------------------------------
 BYTE   W96
//  #05 //103   ----------------------------------------
 BYTE   W96
//  #05 //104   ----------------------------------------
 BYTE   W96
//  #05 //105   ----------------------------------------
 BYTE   W96
//  #05 //106   ----------------------------------------
 BYTE   W96
//  #05 //107   ----------------------------------------
 BYTE   W96
//  #05 //108   ----------------------------------------
 BYTE   W96
//  #05 //109   ----------------------------------------
 BYTE   W96
//  #05 //110   ----------------------------------------
 BYTE   W96
//  #05 //111   ----------------------------------------
 BYTE   W96
//  #05 //112   ----------------------------------------
 BYTE   W96
//  #05 //113   ----------------------------------------
 BYTE   W96
//  #05 //114   ----------------------------------------
 BYTE   W96
//  #05 //115   ----------------------------------------
 BYTE   W96
//  #05 //116   ----------------------------------------
 BYTE   W96
//  #05 //117   ----------------------------------------
 BYTE   W96
//  #05 //118   ----------------------------------------
 BYTE   W96
//  #05 //119   ----------------------------------------
 BYTE   W96
//  #05 //120   ----------------------------------------
 BYTE   W96
//  #05 //121   ----------------------------------------
 BYTE   W96
//  #05 //122   ----------------------------------------
 BYTE   W96
//  #05 //123   ----------------------------------------
 BYTE   W96
//  #05 //124   ----------------------------------------
 BYTE   W96
//  #05 //125   ----------------------------------------
 BYTE   W96
//  #05 //126   ----------------------------------------
 BYTE   W96
//  #05 //127   ----------------------------------------
 BYTE   W96
//  #05 //128   ----------------------------------------
 BYTE   W96
//  #05 //129   ----------------------------------------
 BYTE   W96
//  #05 //130   ----------------------------------------
 BYTE   W96
//  #05 //131   ----------------------------------------
 BYTE   W96
//  #05 //132   ----------------------------------------
 BYTE   W96
//  #05 //133   ----------------------------------------
 BYTE   W96
//  #05 //134   ----------------------------------------
 BYTE   W96
//  #05 //135   ----------------------------------------
 BYTE   W96
//  #05 //136   ----------------------------------------
 BYTE   W96
//  #05 //137   ----------------------------------------
 BYTE   W96
//  #05 //138   ----------------------------------------
 BYTE   W96
//  #05 //139   ----------------------------------------
 BYTE   W96
//  #05 //140   ----------------------------------------
 BYTE   W96
//  #05 //141   ----------------------------------------
 BYTE   W96
//  #05 //142   ----------------------------------------
 BYTE   W96
//  #05 //143   ----------------------------------------
 BYTE   W96
//  #05 //144   ----------------------------------------
 BYTE   W96
//  #05 //145   ----------------------------------------
 BYTE   W96
//  #05 //146   ----------------------------------------
 BYTE   W96
//  #05 //147   ----------------------------------------
 BYTE   W96
//  #05 //148   ----------------------------------------
 BYTE   W96
//  #05 //149   ----------------------------------------
 BYTE   W96
//  #05 //150   ----------------------------------------
 BYTE   W96
//  #05 //151   ----------------------------------------
 BYTE   W96
//  #05 //152   ----------------------------------------
 BYTE   W96
//  #05 //153   ----------------------------------------
 BYTE   W96
//  #05 //154   ----------------------------------------
 BYTE   W96
//  #05 //155   ----------------------------------------
 BYTE   W96
//  #05 //156   ----------------------------------------
 BYTE   W96
//  #05 //157   ----------------------------------------
 BYTE   W96
//  #05 //158   ----------------------------------------
 BYTE   W96
//  #05 //159   ----------------------------------------
 BYTE   W96
//  #05 //160   ----------------------------------------
 BYTE   W96
//  #05 //161   ----------------------------------------
 BYTE   W96
//  #05 //162   ----------------------------------------
 BYTE   W96
//  #05 //163   ----------------------------------------
 BYTE   W96
//  #05 //164   ----------------------------------------
 BYTE   W96
//  #05 //165   ----------------------------------------
 BYTE   W96
//  #05 //166   ----------------------------------------
 BYTE   W96
//  #05 //167   ----------------------------------------
 BYTE   W96
//  #05 //168   ----------------------------------------
 BYTE   W96
//  #05 //169   ----------------------------------------
 BYTE   W96
//  #05 //170   ----------------------------------------
 BYTE   W96
//  #05 //171   ----------------------------------------
 BYTE   W96
//  #05 //172   ----------------------------------------
 BYTE   W96
//  #05 //173   ----------------------------------------
 BYTE   W96
//  #05 //174   ----------------------------------------
 BYTE   W96
//  #05 //175   ----------------------------------------
 BYTE   W96
//  #05 //176   ----------------------------------------
 BYTE   W96
//  #05 //177   ----------------------------------------
 BYTE   W96
//  #05 //178   ----------------------------------------
 BYTE   W96
//  #05 //179   ----------------------------------------
 BYTE   W96
//  #05 //180   ----------------------------------------
 BYTE   W96
//  #05 //181   ----------------------------------------
 BYTE   W96
//  #05 //182   ----------------------------------------
 BYTE   W96
//  #05 //183   ----------------------------------------
 BYTE   W96
//  #05 //184   ----------------------------------------
 BYTE   W96
//  #05 //185   ----------------------------------------
 BYTE   W96
//  #05 //186   ----------------------------------------
 BYTE   W96
//  #05 //187   ----------------------------------------
 BYTE   W96
//  #05 //188   ----------------------------------------
 BYTE   W96
//  #05 //189   ----------------------------------------
 BYTE   W96
//  #05 //190   ----------------------------------------
 BYTE   W96
//  #05 //191   ----------------------------------------
 BYTE   W96
//  #05 //192   ----------------------------------------
 BYTE   W96
//  #05 //193   ----------------------------------------
 BYTE   W96
//  #05 //194   ----------------------------------------
 BYTE   W96
//  #05 //195   ----------------------------------------
 BYTE   W96
//  #05 //196   ----------------------------------------
 BYTE   W96
//  #05 //197   ----------------------------------------
 BYTE   W96
//  #05 //198   ----------------------------------------
 BYTE   W96
//  #05 //199   ----------------------------------------
 BYTE   W96
//  #05 //200   ----------------------------------------
 BYTE   W96
//  #05 //201   ----------------------------------------
 BYTE   W96
//  #05 //202   ----------------------------------------
 BYTE   W96
//  #05 //203   ----------------------------------------
 BYTE   W96
//  #05 //204   ----------------------------------------
 BYTE   W96
//  #05 //205   ----------------------------------------
 BYTE   W96
//  #05 //206   ----------------------------------------
 BYTE   W96
//  #05 //207   ----------------------------------------
 BYTE   W96
//  #05 //208   ----------------------------------------
 BYTE   W96
//  #05 //209   ----------------------------------------
 BYTE   W96
//  #05 //210   ----------------------------------------
 BYTE   W96
//  #05 //211   ----------------------------------------
 BYTE   W96
//  #05 //212   ----------------------------------------
 BYTE   W96
//  #05 //213   ----------------------------------------
 BYTE   W96
//  #05 //214   ----------------------------------------
 BYTE   W96
//  #05 //215   ----------------------------------------
 BYTE   W96
//  #05 //216   ----------------------------------------
 BYTE   W96
//  #05 //217   ----------------------------------------
 BYTE   W96
//  #05 //218   ----------------------------------------
 BYTE   W92
 BYTE   W03
 BYTE   FINE

//**************** Track 6 (Midi-Chn.5) ****************//

song1C_006:
//  #06 //000   ----------------------------------------
 BYTE   KEYSH   song1C_key+0
 BYTE   VOICE   48
 BYTE   VOL   5*song1C_mvl/mxv
 BYTE   PAN   c_v+3
 BYTE   VOL   12*song1C_mvl/mxv
 BYTE   PAN   c_v+3
 BYTE   VOL   30*song1C_mvl/mxv
 BYTE   PAN   c_v+3
 BYTE   VOL   30*song1C_mvl/mxv
 BYTE   PAN   c_v+3
 BYTE   W12
Label_0116FE09:
 BYTE   W96
//  #06 //001   ----------------------------------------
 BYTE   W96
//  #06 //002   ----------------------------------------
 BYTE   W96
//  #06 //003   ----------------------------------------
 BYTE   W96
//  #06 //004   ----------------------------------------
 BYTE   W96
//  #06 //005   ----------------------------------------
 BYTE   W96
//  #06 //006   ----------------------------------------
 BYTE   W96
//  #06 //007   ----------------------------------------
Label_0116FE10:
 BYTE   W48
 BYTE   N05  Ds3  v064
 BYTE   W01
 BYTE   W02
 BYTE   W01
 BYTE   W02
 BYTE   Fn3  v068
 BYTE   W01
 BYTE   W02
 BYTE   W01
 BYTE   W02
 BYTE   Fs3  v072
 BYTE   W01
 BYTE   W02
 BYTE   W01
 BYTE   W02
 BYTE   Gs3  v076
 BYTE   W01
 BYTE   W02
 BYTE   W01
 BYTE   W02
 BYTE   As3  v080
 BYTE   W01
 BYTE   W02
 BYTE   W01
 BYTE   W02
 BYTE   Cn4  v084
 BYTE   W01
 BYTE   W02
 BYTE   W01
 BYTE   W02
 BYTE   Cs4  v088
 BYTE   W01
 BYTE   W02
 BYTE   W01
 BYTE   W02
 BYTE   Ds4  v092
 BYTE   W01
 BYTE   W02
 BYTE   W01
 BYTE   W02
 BYTE   PEND 
//  #06 //008   ----------------------------------------
Label_0116FE43:
 BYTE   N11  Fn4  v096
 BYTE   W12
 BYTE   Cs4
 BYTE   W12
 BYTE   As3
 BYTE   W12
 BYTE   N23  Fs4
 BYTE   W12
 BYTE   W12
 BYTE   N11  Dn4
 BYTE   W12
 BYTE   N23  Bn3
 BYTE   W24
 BYTE   PEND 
//  #06 //009   ----------------------------------------
Label_0116FE56:
 BYTE   N11  Fn4  v096
 BYTE   W12
 BYTE   Cs4
 BYTE   W12
 BYTE   As3
 BYTE   W12
 BYTE   N23  En4
 BYTE   W12
 BYTE   W12
 BYTE   N11  Cn4
 BYTE   W12
 BYTE   N23  An3
 BYTE   W24
 BYTE   PEND 
//  #06 //010   ----------------------------------------
 BYTE   PATT
  POIN2 Label_0116FE43
//  #06 //011   ----------------------------------------
Label_0116FE6E:
 BYTE   N11  Gn4  v096
 BYTE   W12
 BYTE   En4
 BYTE   W12
 BYTE   Cn4
 BYTE   W12
 BYTE   N23  An4
 BYTE   W12
 BYTE   W12
 BYTE   N11  Fn4
 BYTE   W12
 BYTE   N23  Cn4
 BYTE   W24
 BYTE   PEND 
//  #06 //012   ----------------------------------------
 BYTE   PATT
  POIN2 Label_0116FE43
//  #06 //013   ----------------------------------------
 BYTE   PATT
  POIN2 Label_0116FE56
//  #06 //014   ----------------------------------------
 BYTE   PATT
  POIN2 Label_0116FE43
//  #06 //015   ----------------------------------------
 BYTE   PATT
  POIN2 Label_0116FE6E
//  #06 //016   ----------------------------------------
 BYTE   W96
//  #06 //017   ----------------------------------------
 BYTE   W96
//  #06 //018   ----------------------------------------
 BYTE   W96
//  #06 //019   ----------------------------------------
 BYTE   W96
//  #06 //020   ----------------------------------------
 BYTE   W96
//  #06 //021   ----------------------------------------
Label_0116FE9A:
 BYTE   W84
 BYTE   N32  Bn3  v064
 BYTE   N32  Ds4
 BYTE   W12
 BYTE   PEND 
//  #06 //022   ----------------------------------------
Label_0116FEA2:
 BYTE   W24
 BYTE   N11  Cs4  v064
 BYTE   N11  Fn4
 BYTE   W24
 BYTE   Ds4
 BYTE   N11  Fs4
 BYTE   W24
 BYTE   Fn4
 BYTE   N11  Gs4
 BYTE   W12
 BYTE   N32  Cs4
 BYTE   N32  Fn4
 BYTE   W12
 BYTE   PEND 
//  #06 //023   ----------------------------------------
Label_0116FEB7:
 BYTE   W24
 BYTE   N11  Ds4  v064
 BYTE   N11  Gs4
 BYTE   W24
 BYTE   Fn4
 BYTE   N11  Gs4
 BYTE   W24
 BYTE   Cs4
 BYTE   N11  Fn4
 BYTE   W12
 BYTE   N11
 BYTE   N11  Gs4
 BYTE   W12
 BYTE   PEND 
//  #06 //024   ----------------------------------------
 BYTE   W96
//  #06 //025   ----------------------------------------
 BYTE   W96
//  #06 //026   ----------------------------------------
 BYTE   W96
//  #06 //027   ----------------------------------------
 BYTE   W96
//  #06 //028   ----------------------------------------
 BYTE   W96
//  #06 //029   ----------------------------------------
 BYTE   W96
//  #06 //030   ----------------------------------------
 BYTE   W96
//  #06 //031   ----------------------------------------
 BYTE   W96
//  #06 //032   ----------------------------------------
 BYTE   W96
//  #06 //033   ----------------------------------------
 BYTE   W96
//  #06 //034   ----------------------------------------
 BYTE   W96
//  #06 //035   ----------------------------------------
 BYTE   W96
//  #06 //036   ----------------------------------------
 BYTE   W96
//  #06 //037   ----------------------------------------
 BYTE   W96
//  #06 //038   ----------------------------------------
 BYTE   W96
//  #06 //039   ----------------------------------------
Label_0116FEDA:
 BYTE   W60
 BYTE   N11  As2  v096
 BYTE   N11  Fs3
 BYTE   N11  As3
 BYTE   W12
 BYTE   Cn3
 BYTE   N11  Gs3
 BYTE   N11  Cn4
 BYTE   W12
 BYTE   Cs3
 BYTE   N11  As3
 BYTE   N11  Cs4
 BYTE   W12
 BYTE   PEND 
//  #06 //040   ----------------------------------------
Label_0116FEF0:
 BYTE   N68  Fn3  v096
 BYTE   N68  Cs4
 BYTE   N68  Fn4
 BYTE   W72
 BYTE   N05  Ds3
 BYTE   N05  Cn4
 BYTE   N05  Ds4
 BYTE   W12
 BYTE   Cs3
 BYTE   N05  As3
 BYTE   N05  Cs4
 BYTE   W12
 BYTE   PEND 
//  #06 //041   ----------------------------------------
Label_0116FF06:
 BYTE   N32  Cn3  v096
 BYTE   N32  Gs3
 BYTE   N32  Cn4
 BYTE   W36
 BYTE   N44  Gs2
 BYTE   N44  Fn3
 BYTE   N44  Gs3
 BYTE   W12
 BYTE   W48
 BYTE   PEND 
//  #06 //042   ----------------------------------------
Label_0116FF17:
 BYTE   N56  As2  v096
 BYTE   N56  Fs3
 BYTE   N56  As3
 BYTE   W48
 BYTE   W12
 BYTE   N11  As2
 BYTE   N11  Fs3
 BYTE   N11  As3
 BYTE   W12
 BYTE   Cn3
 BYTE   N11  Gs3
 BYTE   N11  Cn4
 BYTE   W12
 BYTE   Cs3
 BYTE   N11  As3
 BYTE   N11  Cs4
 BYTE   W12
 BYTE   PEND 
//  #06 //043   ----------------------------------------
Label_0116FF34:
 BYTE   N23  Fn3  v096
 BYTE   N23  Cs4
 BYTE   N23  Fn4
 BYTE   W24
 BYTE   Ds3
 BYTE   N23  Cn4
 BYTE   N23  Ds4
 BYTE   W24
 BYTE   As2
 BYTE   N23  Gn3
 BYTE   N23  As3
 BYTE   W24
 BYTE   Cn3
 BYTE   N23  Gs3
 BYTE   N23  Cn4
 BYTE   W24
 BYTE   PEND 
//  #06 //044   ----------------------------------------
Label_0116FF4F:
 BYTE   TIE  Cs3  v096
 BYTE   TIE  Gs3
 BYTE   TIE  Cs4
 BYTE   W96
 BYTE   PEND 
//  #06 //045   ----------------------------------------
Label_0116FF58:
 BYTE   W68
 BYTE   W03
 BYTE   PEND 
 BYTE   EOT
 BYTE   Cs3  v068
 BYTE   Cs4
 BYTE   W01
 BYTE   N05  As3  v096
 BYTE   W06
 BYTE   Cn4
 BYTE   W06
 BYTE   Cs4
 BYTE   W06
 BYTE   Ds4
 BYTE   W06
//  #06 //046   ----------------------------------------
Label_0116FF6A:
 BYTE   N11  As3  v064
 BYTE   N11  As4
 BYTE   W12
 BYTE   As3
 BYTE   N11  As4
 BYTE   W24
 BYTE   As3
 BYTE   N11  As4
 BYTE   W12
 BYTE   As3
 BYTE   N11  As4
 BYTE   W24
 BYTE   As3
 BYTE   N11  As4
 BYTE   W12
 BYTE   An3
 BYTE   N11  An4
 BYTE   W12
 BYTE   PEND 
//  #06 //047   ----------------------------------------
 BYTE   W96
//  #06 //048   ----------------------------------------
 BYTE   W96
//  #06 //049   ----------------------------------------
 BYTE   W96
//  #06 //050   ----------------------------------------
 BYTE   W96
//  #06 //051   ----------------------------------------
 BYTE   W96
//  #06 //052   ----------------------------------------
 BYTE   W96
//  #06 //053   ----------------------------------------
Label_0116FF8B:
 BYTE   W84
 BYTE   N23  Cs3  v096
 BYTE   N23  As3
 BYTE   W12
 BYTE   PEND 
//  #06 //054   ----------------------------------------
Label_0116FF93:
 BYTE   W12
 BYTE   N05  Cn3  v096
 BYTE   N05  An3
 BYTE   W12
 BYTE   Cs3
 BYTE   N05  As3
 BYTE   W12
 BYTE   N23  Ds3
 BYTE   N23  Cn4
 BYTE   W12
 BYTE   W12
 BYTE   N05  Cs3
 BYTE   N05  As3
 BYTE   W12
 BYTE   Ds3
 BYTE   N05  Cn4
 BYTE   W12
 BYTE   N23  Fn3
 BYTE   N23  Cs4
 BYTE   W12
 BYTE   PEND 
//  #06 //055   ----------------------------------------
 BYTE   W96
//  #06 //056   ----------------------------------------
 BYTE   W96
//  #06 //057   ----------------------------------------
 BYTE   W96
//  #06 //058   ----------------------------------------
 BYTE   W96
//  #06 //059   ----------------------------------------
 BYTE   W96
//  #06 //060   ----------------------------------------
 BYTE   W96
//  #06 //061   ----------------------------------------
 BYTE   W96
//  #06 //062   ----------------------------------------
Label_0116FFBA:
 BYTE   N11  As3  v096
 BYTE   N11  Ds4
 BYTE   W12
 BYTE   As3
 BYTE   N11  Ds4
 BYTE   W24
 BYTE   As3
 BYTE   N11  Ds4
 BYTE   W12
 BYTE   As3
 BYTE   N11  Ds4
 BYTE   W24
 BYTE   As3
 BYTE   N11  Ds4
 BYTE   W12
 BYTE   As3
 BYTE   N11  Ds4
 BYTE   W12
 BYTE   PEND 
//  #06 //063   ----------------------------------------
Label_0116FFD5:
 BYTE   W12
 BYTE   N11  As3  v096
 BYTE   N11  Ds4
 BYTE   W12
 BYTE   As3
 BYTE   N11  Ds4
 BYTE   W24
 BYTE   As3
 BYTE   N11  Dn4
 BYTE   W48
 BYTE   PEND 
//  #06 //064   ----------------------------------------
 BYTE   PATT
  POIN2 Label_0116FFBA
//  #06 //065   ----------------------------------------
 BYTE   PATT
  POIN2 Label_0116FFD5
//  #06 //066   ----------------------------------------
 BYTE   W96
//  #06 //067   ----------------------------------------
 BYTE   W96
//  #06 //068   ----------------------------------------
 BYTE   W96
//  #06 //069   ----------------------------------------
 BYTE   W96
//  #06 //070   ----------------------------------------
 BYTE   W96
//  #06 //071   ----------------------------------------
 BYTE   W96
//  #06 //072   ----------------------------------------
 BYTE   W96
//  #06 //073   ----------------------------------------
 BYTE   W96
//  #06 //074   ----------------------------------------
 BYTE   W96
//  #06 //075   ----------------------------------------
 BYTE   W96
//  #06 //076   ----------------------------------------
 BYTE   W96
//  #06 //077   ----------------------------------------
 BYTE   W96
//  #06 //078   ----------------------------------------
 BYTE   W24
 BYTE   N17  Fn4  v096
 BYTE   N17  As4
 BYTE   W72
//  #06 //079   ----------------------------------------
 BYTE   W60
 BYTE   N05  Bn3
 BYTE   N05  En4
 BYTE   W12
 BYTE   Ds4
 BYTE   N05  Gs4
 BYTE   W12
 BYTE   Fn4
 BYTE   N05  As4
 BYTE   W12
//  #06 //080   ----------------------------------------
 BYTE   W84
 BYTE   N44  Cs3
 BYTE   N44  Fs3
 BYTE   W12
//  #06 //081   ----------------------------------------
 BYTE   W36
 BYTE   Ds3
 BYTE   N44  Gs3
 BYTE   W12
 BYTE   W48
//  #06 //082   ----------------------------------------
Label_0117001C:
 BYTE   N11  Ds3  v096
 BYTE   N11  Ds4
 BYTE   W12
 BYTE   Ds3
 BYTE   N11  Ds4
 BYTE   W24
 BYTE   Ds3
 BYTE   N11  Ds4
 BYTE   W12
 BYTE   Ds3
 BYTE   N11  Ds4
 BYTE   W24
 BYTE   Ds3
 BYTE   N11  Ds4
 BYTE   W12
 BYTE   Ds3
 BYTE   N11  Ds4
 BYTE   W12
 BYTE   PEND 
//  #06 //083   ----------------------------------------
Label_01170037:
 BYTE   W12
 BYTE   N11  Ds3  v096
 BYTE   N11  Ds4
 BYTE   W12
 BYTE   Ds3
 BYTE   N11  Ds4
 BYTE   W24
 BYTE   Dn3
 BYTE   N11  Dn4
 BYTE   W48
 BYTE   PEND 
//  #06 //084   ----------------------------------------
 BYTE   PATT
  POIN2 Label_0117001C
//  #06 //085   ----------------------------------------
 BYTE   PATT
  POIN2 Label_01170037
//  #06 //086   ----------------------------------------
 BYTE   GoTo
  POIN2 Label_0116FE09
//  #06 //087   ----------------------------------------
 BYTE   W96
//  #06 //088   ----------------------------------------
 BYTE   W96
//  #06 //089   ----------------------------------------
 BYTE   W96
//  #06 //090   ----------------------------------------
 BYTE   W96
//  #06 //091   ----------------------------------------
 BYTE   W12
 BYTE   N11  As3  v096
 BYTE   W12
 BYTE   Ds4
 BYTE   W12
 BYTE   As3
 BYTE   W12
 BYTE   Dn4
 BYTE   W12
 BYTE   Ds4
 BYTE   W12
 BYTE   As3
 BYTE   W24
//  #06 //092   ----------------------------------------
 BYTE   W12
 BYTE   N11
 BYTE   W12
 BYTE   Fn4
 BYTE   W24
 BYTE   Ds4
 BYTE   W12
 BYTE   Dn4
 BYTE   W12
 BYTE   Cn4
 BYTE   W24
//  #06 //093   ----------------------------------------
 BYTE   W12
 BYTE   Ds4
 BYTE   W12
 BYTE   Gn4
 BYTE   W12
 BYTE   Ds4
 BYTE   W12
 BYTE   Fn4
 BYTE   W12
 BYTE   Dn4
 BYTE   W12
 BYTE   Cn4
 BYTE   W24
//  #06 //094   ----------------------------------------
 BYTE   W12
 BYTE   N11
 BYTE   W12
 BYTE   Fn4
 BYTE   W12
 BYTE   N23  Cn4
 BYTE   W12
 BYTE   W12
 BYTE   N11  Dn4
 BYTE   W12
 BYTE   Fn4
 BYTE   W12
 BYTE   Dn4
 BYTE   W12
//  #06 //095   ----------------------------------------
 BYTE   TIE  Gn4
 BYTE   W04
 BYTE   W05
 BYTE   W05
 BYTE   W05
 BYTE   W05
 BYTE   W04
 BYTE   W05
 BYTE   W05
 BYTE   W05
 BYTE   W05
 BYTE   W04
 BYTE   W05
 BYTE   W05
 BYTE   W05
 BYTE   W05
 BYTE   W04
 BYTE   W05
 BYTE   W05
 BYTE   W05
 BYTE   W05
//  #06 //096   ----------------------------------------
 BYTE   W04
 BYTE   W05
 BYTE   W05
 BYTE   W05
 BYTE   W05
 BYTE   W04
 BYTE   W05
 BYTE   W05
 BYTE   W05
 BYTE   W05
 BYTE   W04
 BYTE   W05
 BYTE   W05
 BYTE   W05
 BYTE   W05
 BYTE   W04
 BYTE   W05
 BYTE   W05
 BYTE   W05
 BYTE   W05
//  #06 //097   ----------------------------------------
 BYTE   W04
 BYTE   W05
 BYTE   W05
 BYTE   W05
 BYTE   W05
 BYTE   W04
 BYTE   W05
 BYTE   W05
 BYTE   W05
 BYTE   W05
 BYTE   W04
 BYTE   W05
 BYTE   W05
 BYTE   W05
 BYTE   W05
 BYTE   W04
 BYTE   W05
 BYTE   W05
 BYTE   W05
 BYTE   W05
//  #06 //098   ----------------------------------------
 BYTE   W04
 BYTE   W05
 BYTE   W05
 BYTE   W05
 BYTE   W05
 BYTE   W04
 BYTE   W05
 BYTE   W05
 BYTE   W05
 BYTE   W05
 BYTE   W04
 BYTE   W05
 BYTE   W05
 BYTE   W05
 BYTE   W05
 BYTE   W04
 BYTE   W05
 BYTE   W05
 BYTE   W05
 BYTE   W04
 BYTE   EOT
 BYTE   W01
//  #06 //099   ----------------------------------------
 BYTE   W96
//  #06 //100   ----------------------------------------
 BYTE   W96
//  #06 //101   ----------------------------------------
 BYTE   W96
//  #06 //102   ----------------------------------------
 BYTE   W96
//  #06 //103   ----------------------------------------
 BYTE   W96
//  #06 //104   ----------------------------------------
 BYTE   W96
//  #06 //105   ----------------------------------------
 BYTE   W96
//  #06 //106   ----------------------------------------
 BYTE   W96
//  #06 //107   ----------------------------------------
 BYTE   W96
//  #06 //108   ----------------------------------------
 BYTE   W96
//  #06 //109   ----------------------------------------
 BYTE   W96
//  #06 //110   ----------------------------------------
 BYTE   W96
//  #06 //111   ----------------------------------------
 BYTE   W96
//  #06 //112   ----------------------------------------
 BYTE   W96
//  #06 //113   ----------------------------------------
 BYTE   W96
//  #06 //114   ----------------------------------------
 BYTE   W96
//  #06 //115   ----------------------------------------
 BYTE   W96
//  #06 //116   ----------------------------------------
 BYTE   W96
//  #06 //117   ----------------------------------------
 BYTE   W96
//  #06 //118   ----------------------------------------
 BYTE   W96
//  #06 //119   ----------------------------------------
 BYTE   W96
//  #06 //120   ----------------------------------------
 BYTE   W96
//  #06 //121   ----------------------------------------
 BYTE   W96
//  #06 //122   ----------------------------------------
 BYTE   W96
//  #06 //123   ----------------------------------------
 BYTE   W96
//  #06 //124   ----------------------------------------
 BYTE   W96
//  #06 //125   ----------------------------------------
 BYTE   W96
//  #06 //126   ----------------------------------------
 BYTE   W96
//  #06 //127   ----------------------------------------
 BYTE   W96
//  #06 //128   ----------------------------------------
 BYTE   W96
//  #06 //129   ----------------------------------------
 BYTE   W96
//  #06 //130   ----------------------------------------
 BYTE   W96
//  #06 //131   ----------------------------------------
 BYTE   W96
//  #06 //132   ----------------------------------------
 BYTE   W96
//  #06 //133   ----------------------------------------
 BYTE   W96
//  #06 //134   ----------------------------------------
 BYTE   W96
//  #06 //135   ----------------------------------------
 BYTE   W96
//  #06 //136   ----------------------------------------
 BYTE   W96
//  #06 //137   ----------------------------------------
 BYTE   W96
//  #06 //138   ----------------------------------------
 BYTE   PATT
  POIN2 Label_0116FE10
//  #06 //139   ----------------------------------------
 BYTE   PATT
  POIN2 Label_0116FE43
//  #06 //140   ----------------------------------------
 BYTE   PATT
  POIN2 Label_0116FE56
//  #06 //141   ----------------------------------------
 BYTE   PATT
  POIN2 Label_0116FE43
//  #06 //142   ----------------------------------------
 BYTE   PATT
  POIN2 Label_0116FE6E
//  #06 //143   ----------------------------------------
 BYTE   PATT
  POIN2 Label_0116FE43
//  #06 //144   ----------------------------------------
 BYTE   PATT
  POIN2 Label_0116FE56
//  #06 //145   ----------------------------------------
 BYTE   PATT
  POIN2 Label_0116FE43
//  #06 //146   ----------------------------------------
 BYTE   PATT
  POIN2 Label_0116FE6E
//  #06 //147   ----------------------------------------
 BYTE   W96
//  #06 //148   ----------------------------------------
 BYTE   W96
//  #06 //149   ----------------------------------------
 BYTE   W96
//  #06 //150   ----------------------------------------
 BYTE   W96
//  #06 //151   ----------------------------------------
 BYTE   W96
//  #06 //152   ----------------------------------------
 BYTE   PATT
  POIN2 Label_0116FE9A
//  #06 //153   ----------------------------------------
 BYTE   PATT
  POIN2 Label_0116FEA2
//  #06 //154   ----------------------------------------
 BYTE   PATT
  POIN2 Label_0116FEB7
//  #06 //155   ----------------------------------------
 BYTE   W96
//  #06 //156   ----------------------------------------
 BYTE   W96
//  #06 //157   ----------------------------------------
 BYTE   W96
//  #06 //158   ----------------------------------------
 BYTE   W96
//  #06 //159   ----------------------------------------
 BYTE   W96
//  #06 //160   ----------------------------------------
 BYTE   W96
//  #06 //161   ----------------------------------------
 BYTE   W12
 BYTE   N11  Ds3  v096
 BYTE   N11  Fs3
 BYTE   W12
 BYTE   Ds4
 BYTE   N11  Fs4
 BYTE   W12
 BYTE   Cs4
 BYTE   N11  Fn4
 BYTE   W12
 BYTE   Bn3
 BYTE   N11  Ds4
 BYTE   W12
 BYTE   Fs3
 BYTE   N11  Bn3
 BYTE   W12
 BYTE   Ds3
 BYTE   N11  Fs3
 BYTE   W12
 BYTE   N23  Gs2
 BYTE   N23  Cs3
 BYTE   W12
//  #06 //162   ----------------------------------------
 BYTE   W12
 BYTE   N11
 BYTE   N11  Fn3
 BYTE   W12
 BYTE   N11
 BYTE   N11  Gs3
 BYTE   W12
 BYTE   N11
 BYTE   N11  Cs4
 BYTE   W12
 BYTE   N11
 BYTE   N11  Fn4
 BYTE   W12
 BYTE   Ds4
 BYTE   N11  Fs4
 BYTE   W12
 BYTE   N23  Fn4
 BYTE   N23  Gs4
 BYTE   W24
//  #06 //163   ----------------------------------------
 BYTE   W96
//  #06 //164   ----------------------------------------
 BYTE   W96
//  #06 //165   ----------------------------------------
 BYTE   W96
//  #06 //166   ----------------------------------------
 BYTE   W96
//  #06 //167   ----------------------------------------
 BYTE   W96
//  #06 //168   ----------------------------------------
 BYTE   W96
//  #06 //169   ----------------------------------------
 BYTE   W96
//  #06 //170   ----------------------------------------
 BYTE   PATT
  POIN2 Label_0116FEDA
//  #06 //171   ----------------------------------------
 BYTE   PATT
  POIN2 Label_0116FEF0
//  #06 //172   ----------------------------------------
 BYTE   PATT
  POIN2 Label_0116FF06
//  #06 //173   ----------------------------------------
 BYTE   PATT
  POIN2 Label_0116FF17
//  #06 //174   ----------------------------------------
 BYTE   PATT
  POIN2 Label_0116FF34
//  #06 //175   ----------------------------------------
 BYTE   PATT
  POIN2 Label_0116FF4F
//  #06 //176   ----------------------------------------
 BYTE   PATT
  POIN2 Label_0116FF58
//  #06 //177   ----------------------------------------
 BYTE   EOT
 BYTE   Cs3  v068
 BYTE   Cs4
 BYTE   W01
 BYTE   N05  As3  v096
 BYTE   W06
 BYTE   Cn4
 BYTE   W06
 BYTE   Cs4
 BYTE   W06
 BYTE   Ds4
 BYTE   W06
//  #06 //178   ----------------------------------------
 BYTE   PATT
  POIN2 Label_0116FF6A
//  #06 //179   ----------------------------------------
 BYTE   W96
//  #06 //180   ----------------------------------------
 BYTE   W96
//  #06 //181   ----------------------------------------
 BYTE   W96
//  #06 //182   ----------------------------------------
 BYTE   W96
//  #06 //183   ----------------------------------------
 BYTE   W96
//  #06 //184   ----------------------------------------
 BYTE   W96
//  #06 //185   ----------------------------------------
 BYTE   PATT
  POIN2 Label_0116FF8B
//  #06 //186   ----------------------------------------
 BYTE   PATT
  POIN2 Label_0116FF93
//  #06 //187   ----------------------------------------
 BYTE   W96
//  #06 //188   ----------------------------------------
 BYTE   W96
//  #06 //189   ----------------------------------------
 BYTE   W96
//  #06 //190   ----------------------------------------
 BYTE   W96
//  #06 //191   ----------------------------------------
 BYTE   W96
//  #06 //192   ----------------------------------------
 BYTE   W96
//  #06 //193   ----------------------------------------
 BYTE   W96
//  #06 //194   ----------------------------------------
 BYTE   N11  Cs4  v096
 BYTE   N11  Fs4
 BYTE   W12
 BYTE   Cs4
 BYTE   N11  Fs4
 BYTE   W24
 BYTE   Cs4
 BYTE   N11  Fs4
 BYTE   W12
 BYTE   Cs4
 BYTE   N11  Fs4
 BYTE   W24
 BYTE   Cs4
 BYTE   N11  Fs4
 BYTE   W12
 BYTE   Cs4
 BYTE   N11  Fn4
 BYTE   W12
//  #06 //195   ----------------------------------------
 BYTE   W96
//  #06 //196   ----------------------------------------
 BYTE   W24
 BYTE   As3
 BYTE   N11  Ds4
 BYTE   W24
 BYTE   N11
 BYTE   N11  Fs4
 BYTE   W12
 BYTE   Ds4
 BYTE   N11  Gs4
 BYTE   W24
 BYTE   N68  Fs4
 BYTE   N68  As4
 BYTE   W12
//  #06 //197   ----------------------------------------
 BYTE   W48
 BYTE   W12
 BYTE   N23  Fs4
 BYTE   N23  As4
 BYTE   W24
 BYTE   N56  Fn4
 BYTE   N56  Gs4
 BYTE   W12
//  #06 //198   ----------------------------------------
 BYTE   W48
 BYTE   N23
 BYTE   N23  Cs5
 BYTE   W24
 BYTE   Fn4
 BYTE   N23  Gs4
 BYTE   W24
//  #06 //199   ----------------------------------------
 BYTE   N56  Fn4
 BYTE   N56  Gs4
 BYTE   W48
 BYTE   W12
 BYTE   N11  Ds4
 BYTE   N11  Fs4
 BYTE   W12
 BYTE   Cs4
 BYTE   N11  Fn4
 BYTE   W12
 BYTE   N68  Ds4
 BYTE   N68  Fs4
 BYTE   W12
//  #06 //200   ----------------------------------------
 BYTE   W48
 BYTE   W48
//  #06 //201   ----------------------------------------
 BYTE   W96
//  #06 //202   ----------------------------------------
 BYTE   W84
 BYTE   N23  Fs3
 BYTE   N23  Ds4
 BYTE   W12
//  #06 //203   ----------------------------------------
 BYTE   W12
 BYTE   N05  Fn3
 BYTE   N05  Dn4
 BYTE   W12
 BYTE   Fs3
 BYTE   N05  Ds4
 BYTE   W12
 BYTE   N23  Gs3
 BYTE   N23  Fn4
 BYTE   W12
 BYTE   W12
 BYTE   N05  Fs3
 BYTE   N05  Ds4
 BYTE   W12
 BYTE   Gs3
 BYTE   N05  Fn4
 BYTE   W12
 BYTE   N23  As3
 BYTE   N23  Fs4
 BYTE   W12
//  #06 //204   ----------------------------------------
 BYTE   W24
 BYTE   N11  As3
 BYTE   N11  Ds4
 BYTE   W24
 BYTE   N11
 BYTE   N11  Fs4
 BYTE   W12
 BYTE   Ds4
 BYTE   N11  Gs4
 BYTE   W24
 BYTE   N68  Ds4
 BYTE   N68  As4
 BYTE   W12
//  #06 //205   ----------------------------------------
 BYTE   W48
 BYTE   W12
 BYTE   N23  Ds4
 BYTE   N23  As4
 BYTE   W24
 BYTE   N32  Cs4
 BYTE   N32  Gs4
 BYTE   W12
//  #06 //206   ----------------------------------------
 BYTE   W24
 BYTE   N23  Cs3
 BYTE   N23  Gs3
 BYTE   W24
 BYTE   N23
 BYTE   N23  Cs4
 BYTE   W24
 BYTE   Cn4
 BYTE   N23  Ds4
 BYTE   W24
//  #06 //207   ----------------------------------------
 BYTE   N56  Cs4
 BYTE   N56  Fn4
 BYTE   W48
 BYTE   W12
 BYTE   N11  Ds4
 BYTE   N11  Fs4
 BYTE   W12
 BYTE   Cs4
 BYTE   N11  Fn4
 BYTE   W12
 BYTE   N80  As3
 BYTE   N80  Ds4
 BYTE   W12
//  #06 //208   ----------------------------------------
 BYTE   W72
 BYTE   N11  Fs3
 BYTE   W12
 BYTE   Fn3
 BYTE   W12
//  #06 //209   ----------------------------------------
 BYTE   N44  Bn2
 BYTE   N44  Ds3
 BYTE   W48
 BYTE   Fn3
 BYTE   N44  As3
 BYTE   W48
//  #06 //210   ----------------------------------------
 BYTE   Fn3
 BYTE   N44  Gs3
 BYTE   W48
 BYTE   N44
 BYTE   N44  Cs4
 BYTE   W48
//  #06 //211   ----------------------------------------
Label_011702B7:
 BYTE   N11  Ds4  v096
 BYTE   N11  Gs4
 BYTE   W12
 BYTE   Ds4
 BYTE   N11  Gs4
 BYTE   W24
 BYTE   Ds4
 BYTE   N11  Gs4
 BYTE   W12
 BYTE   Ds4
 BYTE   N11  Gs4
 BYTE   W24
 BYTE   Ds4
 BYTE   N11  Gs4
 BYTE   W12
 BYTE   Ds4
 BYTE   N11  Gs4
 BYTE   W12
 BYTE   PEND 
//  #06 //212   ----------------------------------------
Label_011702D2:
 BYTE   W12
 BYTE   N11  Ds4  v096
 BYTE   N11  Gs4
 BYTE   W12
 BYTE   Ds4
 BYTE   N11  Gs4
 BYTE   W24
 BYTE   Ds4
 BYTE   N11  Gn4
 BYTE   W48
 BYTE   PEND 
//  #06 //213   ----------------------------------------
 BYTE   PATT
  POIN2 Label_011702B7
//  #06 //214   ----------------------------------------
 BYTE   PATT
  POIN2 Label_011702D2
//  #06 //215   ----------------------------------------
 BYTE   PATT
  POIN2 Label_011702B7
//  #06 //216   ----------------------------------------
 BYTE   PATT
  POIN2 Label_011702D2
//  #06 //217   ----------------------------------------
 BYTE   PATT
  POIN2 Label_011702B7
//  #06 //218   ----------------------------------------
 BYTE   W12
 BYTE   N11  Ds4  v096
 BYTE   N11  Gs4
 BYTE   W12
 BYTE   Ds4
 BYTE   N11  Gs4
 BYTE   W24
 BYTE   Ds4
 BYTE   N11  Gn4
 BYTE   W24
 BYTE   Ds4
 BYTE   N11  Gn4
 BYTE   W24
//  #06 //219   ----------------------------------------
 BYTE   N16  Ds4
 BYTE   N16  Gn4
 BYTE   W92
 BYTE   W03
 BYTE   FINE

//**************** Track 7 (Midi-Chn.6) ****************//

song1C_007:
//  #07 //000   ----------------------------------------
 BYTE   KEYSH   song1C_key+0
 BYTE   VOICE   61
 BYTE   VOL   3*song1C_mvl/mxv
 BYTE   PAN   c_v+2
 BYTE   VOL   16*song1C_mvl/mxv
 BYTE   PAN   c_v+2
 BYTE   VOL   12*song1C_mvl/mxv
 BYTE   PAN   c_v+2
 BYTE   VOL   16*song1C_mvl/mxv
 BYTE   PAN   c_v+2
 BYTE   W12
Label_0117032D:
 BYTE   W96
//  #07 //001   ----------------------------------------
 BYTE   W96
//  #07 //002   ----------------------------------------
 BYTE   W96
//  #07 //003   ----------------------------------------
 BYTE   W96
//  #07 //004   ----------------------------------------
 BYTE   W96
//  #07 //005   ----------------------------------------
 BYTE   W96
//  #07 //006   ----------------------------------------
 BYTE   W96
//  #07 //007   ----------------------------------------
 BYTE   W96
//  #07 //008   ----------------------------------------
Label_01170335:
 BYTE   N23  As0  v096
 BYTE   W36
 BYTE   N23
 BYTE   W12
 BYTE   W24
 BYTE   N23
 BYTE   W24
 BYTE   PEND 
//  #07 //009   ----------------------------------------
 BYTE   PATT
  POIN2 Label_01170335
//  #07 //010   ----------------------------------------
 BYTE   PATT
  POIN2 Label_01170335
//  #07 //011   ----------------------------------------
 BYTE   PATT
  POIN2 Label_01170335
//  #07 //012   ----------------------------------------
 BYTE   PATT
  POIN2 Label_01170335
//  #07 //013   ----------------------------------------
Label_01170353:
 BYTE   N23  As0  v096
 BYTE   W36
 BYTE   N23
 BYTE   W12
 BYTE   W24
 BYTE   N11
 BYTE   W12
 BYTE   Fn1
 BYTE   W12
 BYTE   PEND 
//  #07 //014   ----------------------------------------
Label_0117035F:
 BYTE   N32  As1  v096
 BYTE   W36
 BYTE   N32
 BYTE   W12
 BYTE   W24
 BYTE   N23
 BYTE   W24
 BYTE   PEND 
//  #07 //015   ----------------------------------------
Label_01170369:
 BYTE   N11  Dn1  v096
 BYTE   W12
 BYTE   Ds1
 BYTE   W12
 BYTE   En1
 BYTE   W12
 BYTE   N23  Fn1
 BYTE   W12
 BYTE   W12
 BYTE   N11
 BYTE   W12
 BYTE   Cs1
 BYTE   W12
 BYTE   N11
 BYTE   W12
 BYTE   PEND 
//  #07 //016   ----------------------------------------
 BYTE   W96
//  #07 //017   ----------------------------------------
Label_0117037D:
 BYTE   W36
 BYTE   N23  En1  v096
 BYTE   W12
 BYTE   W12
 BYTE   N11  Ds1
 BYTE   W12
 BYTE   Cs1
 BYTE   W12
 BYTE   Gs0
 BYTE   W12
 BYTE   PEND 
//  #07 //018   ----------------------------------------
 BYTE   W96
//  #07 //019   ----------------------------------------
 BYTE   W96
//  #07 //020   ----------------------------------------
 BYTE   W96
//  #07 //021   ----------------------------------------
 BYTE   W96
//  #07 //022   ----------------------------------------
 BYTE   W96
//  #07 //023   ----------------------------------------
 BYTE   W96
//  #07 //024   ----------------------------------------
 BYTE   W96
//  #07 //025   ----------------------------------------
 BYTE   PATT
  POIN2 Label_0117037D
//  #07 //026   ----------------------------------------
 BYTE   W96
//  #07 //027   ----------------------------------------
 BYTE   W96
//  #07 //028   ----------------------------------------
 BYTE   W96
//  #07 //029   ----------------------------------------
 BYTE   W96
//  #07 //030   ----------------------------------------
 BYTE   W96
//  #07 //031   ----------------------------------------
 BYTE   W96
//  #07 //032   ----------------------------------------
Label_0117039D:
 BYTE   TIE  Bn1  v096
 BYTE   W96
 BYTE   PEND 
//  #07 //033   ----------------------------------------
Label_011703A2:
 BYTE   W44
 BYTE   W03
 BYTE   PEND 
 BYTE   EOT
 BYTE   Bn1
 BYTE   W01
 BYTE   N44  As1  v096
 BYTE   W48
//  #07 //034   ----------------------------------------
Label_011703AC:
 BYTE   N92  Fn1  v096
 BYTE   W96
 BYTE   PEND 
//  #07 //035   ----------------------------------------
Label_011703B1:
 BYTE   N32  Fn2  v096
 BYTE   W36
 BYTE   Cs2
 BYTE   W12
 BYTE   W24
 BYTE   N23  Fn1
 BYTE   W24
 BYTE   PEND 
//  #07 //036   ----------------------------------------
Label_011703BC:
 BYTE   N32  Bn1  v096
 BYTE   W36
 BYTE   Fs1
 BYTE   W12
 BYTE   W24
 BYTE   N23  Ds1
 BYTE   W24
 BYTE   PEND 
//  #07 //037   ----------------------------------------
Label_011703C7:
 BYTE   N32  Bn1  v096
 BYTE   W36
 BYTE   Fs1
 BYTE   W12
 BYTE   W24
 BYTE   N23  Bn0
 BYTE   W24
 BYTE   PEND 
//  #07 //038   ----------------------------------------
Label_011703D2:
 BYTE   N32  As1  v096
 BYTE   W36
 BYTE   N32
 BYTE   W12
 BYTE   W24
 BYTE   N23  Fn1
 BYTE   W24
 BYTE   PEND 
//  #07 //039   ----------------------------------------
 BYTE   PATT
  POIN2 Label_0117035F
//  #07 //040   ----------------------------------------
Label_011703E2:
 BYTE   N92  Ds1  v096
 BYTE   W96
 BYTE   PEND 
//  #07 //041   ----------------------------------------
 BYTE   PATT
  POIN2 Label_011703AC
//  #07 //042   ----------------------------------------
Label_011703EC:
 BYTE   N92  Fs1  v096
 BYTE   W96
 BYTE   PEND 
//  #07 //043   ----------------------------------------
Label_011703F1:
 BYTE   N92  Gn1  v096
 BYTE   W96
 BYTE   PEND 
//  #07 //044   ----------------------------------------
Label_011703F6:
 BYTE   N92  Gs0  v096
 BYTE   W96
 BYTE   PEND 
//  #07 //045   ----------------------------------------
Label_011703FB:
 BYTE   N11  Gs0  v096
 BYTE   W12
 BYTE   Fs0
 BYTE   W12
 BYTE   Ds0
 BYTE   W12
 BYTE   N23  Gs0
 BYTE   W12
 BYTE   W12
 BYTE   N11  Fs0
 BYTE   W12
 BYTE   N05  As0  v112
 BYTE   W06
 BYTE   Cn1
 BYTE   W06
 BYTE   Cs1
 BYTE   W06
 BYTE   Ds1
 BYTE   W06
 BYTE   PEND 
//  #07 //046   ----------------------------------------
Label_01170415:
 BYTE   N11  Fn1  v112
 BYTE   W12
 BYTE   N11
 BYTE   W24
 BYTE   N11
 BYTE   W12
 BYTE   N11
 BYTE   W24
 BYTE   N11
 BYTE   W12
 BYTE   N11
 BYTE   W12
 BYTE   PEND 
//  #07 //047   ----------------------------------------
Label_01170424:
 BYTE   W84
 BYTE   N92  Fs1  v096
 BYTE   W12
 BYTE   PEND 
//  #07 //048   ----------------------------------------
Label_0117042A:
 BYTE   W72
 BYTE   W12
 BYTE   TIE  Gs1  v096
 BYTE   W12
 BYTE   PEND 
//  #07 //049   ----------------------------------------
Label_01170431:
 BYTE   W92
 BYTE   W03
 BYTE   PEND 
 BYTE   EOT
 BYTE   Gs1
 BYTE   W01
//  #07 //050   ----------------------------------------
Label_01170437:
 BYTE   N80  Fn1  v096
 BYTE   W72
 BYTE   W12
 BYTE   TIE  As1
 BYTE   W12
 BYTE   PEND 
//  #07 //051   ----------------------------------------
 BYTE   PATT
  POIN2 Label_01170431
//  #07 //052   ----------------------------------------
 BYTE   EOT
 BYTE   As1
 BYTE   W01
 BYTE   W96
//  #07 //053   ----------------------------------------
Label_01170449:
 BYTE   W84
 BYTE   N23  As1  v096
 BYTE   W12
 BYTE   PEND 
//  #07 //054   ----------------------------------------
Label_0117044F:
 BYTE   W12
 BYTE   N05  An1  v096
 BYTE   W12
 BYTE   As1
 BYTE   W12
 BYTE   N23  Cn2
 BYTE   W12
 BYTE   W12
 BYTE   N05  As1
 BYTE   W12
 BYTE   Cn2
 BYTE   W12
 BYTE   N23  Cs2
 BYTE   W12
 BYTE   PEND 
//  #07 //055   ----------------------------------------
Label_01170463:
 BYTE   W24
 BYTE   N11  Gs1  v096
 BYTE   W24
 BYTE   Gn1
 BYTE   W12
 BYTE   Fs1
 BYTE   W24
 BYTE   N92
 BYTE   W12
 BYTE   PEND 
//  #07 //056   ----------------------------------------
 BYTE   PATT
  POIN2 Label_0117042A
//  #07 //057   ----------------------------------------
 BYTE   PATT
  POIN2 Label_01170431
//  #07 //058   ----------------------------------------
 BYTE   EOT
 BYTE   Gs1
 BYTE   W01
//  #07 //059   ----------------------------------------
 BYTE   PATT
  POIN2 Label_01170437
//  #07 //060   ----------------------------------------
 BYTE   PATT
  POIN2 Label_01170431
//  #07 //061   ----------------------------------------
 BYTE   EOT
 BYTE   As1
 BYTE   W01
Label_01170489:
 BYTE   N11  Ds1  v096
 BYTE   W12
 BYTE   N11
 BYTE   W36
 BYTE   N11
 BYTE   W12
 BYTE   N11
 BYTE   W36
 BYTE   PEND 
//  #07 //062   ----------------------------------------
Label_01170494:
 BYTE   N11  Fn1  v096
 BYTE   W12
 BYTE   N11
 BYTE   W36
 BYTE   N11
 BYTE   W12
 BYTE   N11
 BYTE   W24
 BYTE   Gs1
 BYTE   W12
 BYTE   PEND 
//  #07 //063   ----------------------------------------
Label_011704A1:
 BYTE   N11  As1  v096
 BYTE   W12
 BYTE   N11
 BYTE   W24
 BYTE   N11
 BYTE   W12
 BYTE   N11
 BYTE   W24
 BYTE   N11
 BYTE   W12
 BYTE   N11
 BYTE   W12
 BYTE   PEND 
//  #07 //064   ----------------------------------------
Label_011704B0:
 BYTE   W12
 BYTE   N11  As1  v096
 BYTE   W12
 BYTE   N11
 BYTE   W24
 BYTE   N11
 BYTE   W48
 BYTE   PEND 
//  #07 //065   ----------------------------------------
 BYTE   PATT
  POIN2 Label_011704A1
//  #07 //066   ----------------------------------------
 BYTE   PATT
  POIN2 Label_011704B0
//  #07 //067   ----------------------------------------
 BYTE   W96
//  #07 //068   ----------------------------------------
 BYTE   W96
//  #07 //069   ----------------------------------------
 BYTE   W96
//  #07 //070   ----------------------------------------
 BYTE   W96
//  #07 //071   ----------------------------------------
 BYTE   W96
//  #07 //072   ----------------------------------------
 BYTE   W96
//  #07 //073   ----------------------------------------
 BYTE   W84
 BYTE   N23  Fs1  v127
 BYTE   W12
//  #07 //074   ----------------------------------------
 BYTE   W12
 BYTE   N11  As1
 BYTE   W12
 BYTE   Fs2
 BYTE   W12
 BYTE   N23  Gs2
 BYTE   W24
 BYTE   N05  Ds2
 BYTE   W12
 BYTE   N23  Gs1
 BYTE   W24
//  #07 //075   ----------------------------------------
Label_011704DE:
 BYTE   N11  As0  v096
 BYTE   W12
 BYTE   N11
 BYTE   W12
 BYTE   Cs1
 BYTE   W12
 BYTE   As0
 BYTE   W12
 BYTE   En1
 BYTE   W12
 BYTE   Ds1
 BYTE   W12
 BYTE   Cs1
 BYTE   W12
 BYTE   N23  As0
 BYTE   W12
 BYTE   PEND 
//  #07 //076   ----------------------------------------
Label_011704F2:
 BYTE   W12
 BYTE   N11  As0  v096
 BYTE   W12
 BYTE   Cs1
 BYTE   W12
 BYTE   As0
 BYTE   W12
 BYTE   Fn1
 BYTE   W12
 BYTE   En1
 BYTE   W12
 BYTE   Ds1
 BYTE   W12
 BYTE   Cs1
 BYTE   W12
 BYTE   PEND 
//  #07 //077   ----------------------------------------
Label_01170504:
 BYTE   N11  As0  v096
 BYTE   W12
 BYTE   N11
 BYTE   W12
 BYTE   Cs1
 BYTE   W12
 BYTE   As0
 BYTE   W12
 BYTE   En1
 BYTE   W12
 BYTE   Ds1
 BYTE   W12
 BYTE   Cs1
 BYTE   W12
 BYTE   N23  Fs0
 BYTE   W12
 BYTE   PEND 
//  #07 //078   ----------------------------------------
 BYTE   W12
 BYTE   N11  As0
 BYTE   W12
 BYTE   Cs1
 BYTE   W12
 BYTE   N23  Gs0
 BYTE   W12
 BYTE   W48
//  #07 //079   ----------------------------------------
 BYTE   PATT
  POIN2 Label_011704DE
//  #07 //080   ----------------------------------------
 BYTE   PATT
  POIN2 Label_011704F2
//  #07 //081   ----------------------------------------
 BYTE   PATT
  POIN2 Label_01170504
//  #07 //082   ----------------------------------------
 BYTE   W12
 BYTE   N11  As0  v096
 BYTE   W12
 BYTE   Fs1
 BYTE   W12
 BYTE   N23  Gs1
 BYTE   W12
 BYTE   W12
 BYTE   N11  Ds1
 BYTE   W12
 BYTE   Gs1
 BYTE   W12
 BYTE   Cn2
 BYTE   W12
//  #07 //083   ----------------------------------------
Label_01170543:
 BYTE   N11  As0  v096
 BYTE   W12
 BYTE   N11
 BYTE   W24
 BYTE   N11
 BYTE   W12
 BYTE   N11
 BYTE   W24
 BYTE   N11
 BYTE   W12
 BYTE   N11
 BYTE   W12
 BYTE   PEND 
//  #07 //084   ----------------------------------------
 BYTE   W12
 BYTE   N11
 BYTE   W12
 BYTE   N11
 BYTE   W24
 BYTE   N11
 BYTE   W48
//  #07 //085   ----------------------------------------
 BYTE   PATT
  POIN2 Label_01170543
//  #07 //086   ----------------------------------------
 BYTE   PATT
  POIN2 Label_011704B0
//  #07 //087   ----------------------------------------
 BYTE   GoTo
  POIN2 Label_0117032D
//  #07 //088   ----------------------------------------
Label_01170568:
 BYTE   N23  As0  v096
 BYTE   W24
 BYTE   N23
 BYTE   W24
 BYTE   N23
 BYTE   W24
 BYTE   N23
 BYTE   W24
 BYTE   PEND 
//  #07 //089   ----------------------------------------
 BYTE   Fn0
 BYTE   W24
 BYTE   N23
 BYTE   W24
 BYTE   N23
 BYTE   W24
 BYTE   N23
 BYTE   W24
//  #07 //090   ----------------------------------------
 BYTE   Gs0
 BYTE   W24
 BYTE   N23
 BYTE   W24
 BYTE   N23
 BYTE   W24
 BYTE   N23
 BYTE   W24
//  #07 //091   ----------------------------------------
 BYTE   As0
 BYTE   W24
 BYTE   N23
 BYTE   W24
 BYTE   Cn1
 BYTE   W24
 BYTE   N23
 BYTE   W24
//  #07 //092   ----------------------------------------
 BYTE   N23
 BYTE   W24
 BYTE   N23
 BYTE   W24
 BYTE   N23
 BYTE   W24
 BYTE   N23
 BYTE   W24
//  #07 //093   ----------------------------------------
 BYTE   Gn0
 BYTE   W24
 BYTE   N23
 BYTE   W24
 BYTE   N23
 BYTE   W24
 BYTE   N23
 BYTE   W24
//  #07 //094   ----------------------------------------
 BYTE   PATT
  POIN2 Label_01170568
//  #07 //095   ----------------------------------------
 BYTE   N23  Cn1  v096
 BYTE   W24
 BYTE   N23
 BYTE   W24
 BYTE   Dn1
 BYTE   W24
 BYTE   N23
 BYTE   W24
//  #07 //096   ----------------------------------------
 BYTE   TIE  Ds1
 BYTE   W06
 BYTE   W06
 BYTE   W06
 BYTE   W06
 BYTE   W06
 BYTE   W06
 BYTE   W06
 BYTE   W06
 BYTE   W06
 BYTE   W07
 BYTE   W06
 BYTE   W06
 BYTE   W06
 BYTE   W06
 BYTE   W06
 BYTE   W05
//  #07 //097   ----------------------------------------
 BYTE   W01
 BYTE   W06
 BYTE   W06
 BYTE   W06
 BYTE   W06
 BYTE   W07
 BYTE   W06
 BYTE   W06
 BYTE   W06
 BYTE   W06
 BYTE   W06
 BYTE   W06
 BYTE   W06
 BYTE   W06
 BYTE   W06
 BYTE   W07
 BYTE   W03
//  #07 //098   ----------------------------------------
 BYTE   W03
 BYTE   W06
 BYTE   W06
 BYTE   W06
 BYTE   W06
 BYTE   W06
 BYTE   W06
 BYTE   W06
 BYTE   W06
 BYTE   W06
 BYTE   W07
 BYTE   W06
 BYTE   W06
 BYTE   W06
 BYTE   W06
 BYTE   W06
 BYTE   W02
//  #07 //099   ----------------------------------------
 BYTE   W04
 BYTE   W06
 BYTE   W06
 BYTE   W06
 BYTE   W07
 BYTE   W06
 BYTE   W06
 BYTE   W06
 BYTE   W06
 BYTE   W06
 BYTE   W06
 BYTE   W06
 BYTE   W06
 BYTE   W06
 BYTE   W06
 BYTE   W06
 BYTE   EOT
 BYTE   W01
//  #07 //100   ----------------------------------------
 BYTE   W96
//  #07 //101   ----------------------------------------
 BYTE   W96
//  #07 //102   ----------------------------------------
 BYTE   W96
//  #07 //103   ----------------------------------------
 BYTE   W96
//  #07 //104   ----------------------------------------
 BYTE   W96
//  #07 //105   ----------------------------------------
 BYTE   W96
//  #07 //106   ----------------------------------------
 BYTE   W96
//  #07 //107   ----------------------------------------
 BYTE   W96
//  #07 //108   ----------------------------------------
 BYTE   N92  Gn1  v036
 BYTE   W96
//  #07 //109   ----------------------------------------
 BYTE   Fn1
 BYTE   W96
//  #07 //110   ----------------------------------------
 BYTE   Ds1
 BYTE   W96
//  #07 //111   ----------------------------------------
Label_01170600:
 BYTE   N92  As0  v036
 BYTE   W96
 BYTE   PEND 
//  #07 //112   ----------------------------------------
 BYTE   Cn1
 BYTE   W96
//  #07 //113   ----------------------------------------
 BYTE   PATT
  POIN2 Label_01170600
//  #07 //114   ----------------------------------------
 BYTE   N92  Cs1  v036
 BYTE   W72
 BYTE   N23  Gn4  v016
 BYTE   W02
 BYTE   W03
 BYTE   W02
 BYTE   W03
 BYTE   W02
 BYTE   W03
 BYTE   W02
 BYTE   W03
 BYTE   W02
 BYTE   W02
//  #07 //115   ----------------------------------------
 BYTE   N92  Dn1  v036
 BYTE   N44  An4  v028
 BYTE   W01
 BYTE   W02
 BYTE   W03
 BYTE   W02
 BYTE   W03
 BYTE   W02
 BYTE   W03
 BYTE   W02
 BYTE   W03
 BYTE   W02
 BYTE   W03
 BYTE   W02
 BYTE   W03
 BYTE   W02
 BYTE   W03
 BYTE   W02
 BYTE   W03
 BYTE   W02
 BYTE   W03
 BYTE   W02
 BYTE   As4  v044
 BYTE   W03
 BYTE   W02
 BYTE   W03
 BYTE   W02
 BYTE   W03
 BYTE   W02
 BYTE   W03
 BYTE   W02
 BYTE   W03
 BYTE   W02
 BYTE   W03
 BYTE   W02
 BYTE   W03
 BYTE   W02
 BYTE   W03
 BYTE   W02
 BYTE   W03
 BYTE   W02
 BYTE   W03
//  #07 //116   ----------------------------------------
 BYTE   N02  Cn5  v064
 BYTE   W02
 BYTE   TIE  Dn5
 BYTE   W92
 BYTE   W02
//  #07 //117   ----------------------------------------
 BYTE   W44
 BYTE   W02
 BYTE   EOT
 BYTE   W02
 BYTE   N23  Cn5
 BYTE   W24
 BYTE   As4
 BYTE   W24
//  #07 //118   ----------------------------------------
 BYTE   An4
 BYTE   W24
 BYTE   TIE  As4
 BYTE   W72
//  #07 //119   ----------------------------------------
 BYTE   W01
 BYTE   W02
 BYTE   W01
 BYTE   W02
 BYTE   W01
 BYTE   W02
 BYTE   W01
 BYTE   W02
 BYTE   W01
 BYTE   W02
 BYTE   W02
 BYTE   W01
 BYTE   W02
 BYTE   W01
 BYTE   W02
 BYTE   W01
 BYTE   W02
 BYTE   W01
 BYTE   W02
 BYTE   W02
 BYTE   W01
 BYTE   W02
 BYTE   W01
 BYTE   W02
 BYTE   W01
 BYTE   W02
 BYTE   W01
 BYTE   W02
 BYTE   W01
 BYTE   W02
 BYTE   W01
 BYTE   EOT
 BYTE   W01
 BYTE   W24
 BYTE   N11  Gn4  v052
 BYTE   W01
 BYTE   W02
 BYTE   W01
 BYTE   W02
 BYTE   W02
 BYTE   W01
 BYTE   W02
 BYTE   W01
 BYTE   An4  v056
 BYTE   W02
 BYTE   W02
 BYTE   W01
 BYTE   W02
 BYTE   W01
 BYTE   W02
 BYTE   W02
//  #07 //120   ----------------------------------------
 BYTE   N92  Gn0  v036
 BYTE   N02  Cn5  v064
 BYTE   W02
 BYTE   N92  Dn5
 BYTE   W92
 BYTE   W02
//  #07 //121   ----------------------------------------
 BYTE   Fn0  v036
 BYTE   N68  Cn5  v064
 BYTE   W72
 BYTE   N11  Dn5
 BYTE   W12
 BYTE   Cn5
 BYTE   W12
//  #07 //122   ----------------------------------------
 BYTE   TIE  Ds0  v036
 BYTE   N92  As4  v064
 BYTE   W02
 BYTE   W02
 BYTE   W01
 BYTE   W01
 BYTE   W02
 BYTE   W02
 BYTE   W01
 BYTE   W01
 BYTE   W02
 BYTE   W02
 BYTE   W02
 BYTE   W02
 BYTE   W02
 BYTE   W02
 BYTE   W02
 BYTE   W02
 BYTE   W02
 BYTE   W02
 BYTE   W01
 BYTE   W01
 BYTE   W02
 BYTE   W02
 BYTE   W01
 BYTE   W01
 BYTE   W02
 BYTE   W02
 BYTE   W01
 BYTE   W01
 BYTE   W02
 BYTE   W02
 BYTE   W02
 BYTE   W02
 BYTE   W02
 BYTE   W02
 BYTE   W02
 BYTE   W02
 BYTE   W02
 BYTE   W02
 BYTE   W01
 BYTE   W01
 BYTE   W02
 BYTE   W02
 BYTE   W01
 BYTE   W01
 BYTE   W02
 BYTE   W02
 BYTE   W01
 BYTE   W01
 BYTE   W02
 BYTE   W02
 BYTE   W02
 BYTE   W02
 BYTE   W02
 BYTE   W02
 BYTE   W02
 BYTE   W02
//  #07 //123   ----------------------------------------
 BYTE   W44
 BYTE   W03
 BYTE   EOT
 BYTE   Ds0
 BYTE   W01
 BYTE   N44  Fn0  v016
 BYTE   N44  An4
 BYTE   W01
 BYTE   W01
 BYTE   W01
 BYTE   W01
 BYTE   W01
 BYTE   W01
 BYTE   W01
 BYTE   W01
 BYTE   W01
 BYTE   W01
 BYTE   W01
 BYTE   W01
 BYTE   W01
 BYTE   W01
 BYTE   W01
 BYTE   W01
 BYTE   W01
 BYTE   W01
 BYTE   W01
 BYTE   W01
 BYTE   W01
 BYTE   W01
 BYTE   W01
 BYTE   W01
 BYTE   W01
 BYTE   W01
 BYTE   W01
 BYTE   W01
 BYTE   W01
 BYTE   W01
 BYTE   W01
 BYTE   W01
 BYTE   W01
 BYTE   W01
 BYTE   W01
 BYTE   W01
 BYTE   W01
 BYTE   W01
 BYTE   W01
 BYTE   W01
 BYTE   W01
 BYTE   W01
 BYTE   W01
 BYTE   W01
 BYTE   W01
 BYTE   W01
 BYTE   W01
 BYTE   W01
//  #07 //124   ----------------------------------------
 BYTE   TIE  As4  v064
 BYTE   W03
 BYTE   W03
 BYTE   W03
 BYTE   W03
 BYTE   W03
 BYTE   W03
 BYTE   W03
 BYTE   W03
 BYTE   W03
 BYTE   W03
 BYTE   W03
 BYTE   W03
 BYTE   W03
 BYTE   W03
 BYTE   W03
 BYTE   W03
 BYTE   W03
 BYTE   W03
 BYTE   W03
 BYTE   W03
 BYTE   W03
 BYTE   W03
 BYTE   W03
 BYTE   W03
 BYTE   W03
 BYTE   W03
 BYTE   W03
 BYTE   W03
 BYTE   W03
 BYTE   W03
 BYTE   W03
 BYTE   W03
//  #07 //125   ----------------------------------------
 BYTE   W03
 BYTE   W03
 BYTE   W03
 BYTE   W03
 BYTE   W03
 BYTE   W03
 BYTE   W03
 BYTE   W03
 BYTE   W03
 BYTE   W03
 BYTE   W03
 BYTE   W03
 BYTE   W03
 BYTE   W03
 BYTE   W03
 BYTE   W02
 BYTE   EOT
 BYTE   W01
 BYTE   W48
//  #07 //126   ----------------------------------------
 BYTE   W96
//  #07 //127   ----------------------------------------
 BYTE   W96
//  #07 //128   ----------------------------------------
 BYTE   W96
//  #07 //129   ----------------------------------------
 BYTE   W96
//  #07 //130   ----------------------------------------
 BYTE   W96
//  #07 //131   ----------------------------------------
 BYTE   W96
//  #07 //132   ----------------------------------------
 BYTE   TIE  Cn1  v052
 BYTE   W96
//  #07 //133   ----------------------------------------
 BYTE   W92
 BYTE   W03
 BYTE   EOT
 BYTE   W01
//  #07 //134   ----------------------------------------
 BYTE   N92
 BYTE   W96
//  #07 //135   ----------------------------------------
 BYTE   N32
 BYTE   W36
 BYTE   Gn0
 BYTE   W12
 BYTE   W24
 BYTE   N23  Ds0
 BYTE   W24
//  #07 //136   ----------------------------------------
 BYTE   N92  Cn1
 BYTE   W08
 BYTE   W08
 BYTE   W08
 BYTE   W08
 BYTE   W08
 BYTE   W09
 BYTE   W08
 BYTE   W08
 BYTE   W08
 BYTE   W08
 BYTE   W08
 BYTE   W07
//  #07 //137   ----------------------------------------
 BYTE   An0  v060
 BYTE   W02
 BYTE   W08
 BYTE   W08
 BYTE   W08
 BYTE   W08
 BYTE   W08
 BYTE   W09
 BYTE   W08
 BYTE   W08
 BYTE   W08
 BYTE   W08
 BYTE   W08
 BYTE   W05
//  #07 //138   ----------------------------------------
 BYTE   TIE  As0  v072
 BYTE   W04
 BYTE   W08
 BYTE   W08
 BYTE   W08
 BYTE   W08
 BYTE   W08
 BYTE   W09
 BYTE   W08
 BYTE   W08
 BYTE   W08
 BYTE   W08
 BYTE   W09
 BYTE   W02
//  #07 //139   ----------------------------------------
 BYTE   W06
 BYTE   W08
 BYTE   W08
 BYTE   W08
 BYTE   W08
 BYTE   W09
 BYTE   EOT
 BYTE   W01
 BYTE   N23  Fn1  v092
 BYTE   W07
 BYTE   W08
 BYTE   W08
 BYTE   W01
 BYTE   Cs1  v096
 BYTE   W07
 BYTE   W08
 BYTE   W09
//  #07 //140   ----------------------------------------
 BYTE   PATT
  POIN2 Label_01170335
//  #07 //141   ----------------------------------------
 BYTE   PATT
  POIN2 Label_01170335
//  #07 //142   ----------------------------------------
 BYTE   PATT
  POIN2 Label_01170335
//  #07 //143   ----------------------------------------
 BYTE   PATT
  POIN2 Label_01170335
//  #07 //144   ----------------------------------------
 BYTE   PATT
  POIN2 Label_01170335
//  #07 //145   ----------------------------------------
 BYTE   PATT
  POIN2 Label_01170353
//  #07 //146   ----------------------------------------
 BYTE   PATT
  POIN2 Label_0117035F
//  #07 //147   ----------------------------------------
 BYTE   PATT
  POIN2 Label_01170369
//  #07 //148   ----------------------------------------
 BYTE   W96
//  #07 //149   ----------------------------------------
 BYTE   PATT
  POIN2 Label_0117037D
//  #07 //150   ----------------------------------------
 BYTE   W96
//  #07 //151   ----------------------------------------
 BYTE   W96
//  #07 //152   ----------------------------------------
 BYTE   W96
//  #07 //153   ----------------------------------------
 BYTE   W96
//  #07 //154   ----------------------------------------
 BYTE   W96
//  #07 //155   ----------------------------------------
 BYTE   W96
//  #07 //156   ----------------------------------------
 BYTE   W96
//  #07 //157   ----------------------------------------
 BYTE   PATT
  POIN2 Label_0117037D
//  #07 //158   ----------------------------------------
 BYTE   W96
//  #07 //159   ----------------------------------------
 BYTE   W96
//  #07 //160   ----------------------------------------
 BYTE   W96
//  #07 //161   ----------------------------------------
 BYTE   W96
//  #07 //162   ----------------------------------------
 BYTE   W96
//  #07 //163   ----------------------------------------
 BYTE   W96
//  #07 //164   ----------------------------------------
 BYTE   PATT
  POIN2 Label_0117039D
//  #07 //165   ----------------------------------------
 BYTE   PATT
  POIN2 Label_011703A2
//  #07 //166   ----------------------------------------
 BYTE   EOT
 BYTE   Bn1
 BYTE   W01
 BYTE   N44  As1  v096
 BYTE   W48
//  #07 //167   ----------------------------------------
 BYTE   PATT
  POIN2 Label_011703AC
//  #07 //168   ----------------------------------------
 BYTE   PATT
  POIN2 Label_011703B1
//  #07 //169   ----------------------------------------
 BYTE   PATT
  POIN2 Label_011703BC
//  #07 //170   ----------------------------------------
 BYTE   PATT
  POIN2 Label_011703C7
//  #07 //171   ----------------------------------------
 BYTE   PATT
  POIN2 Label_011703D2
//  #07 //172   ----------------------------------------
 BYTE   PATT
  POIN2 Label_0117035F
//  #07 //173   ----------------------------------------
 BYTE   PATT
  POIN2 Label_011703E2
//  #07 //174   ----------------------------------------
 BYTE   PATT
  POIN2 Label_011703AC
//  #07 //175   ----------------------------------------
 BYTE   PATT
  POIN2 Label_011703EC
//  #07 //176   ----------------------------------------
 BYTE   PATT
  POIN2 Label_011703F1
//  #07 //177   ----------------------------------------
 BYTE   PATT
  POIN2 Label_011703F6
//  #07 //178   ----------------------------------------
 BYTE   PATT
  POIN2 Label_011703FB
//  #07 //179   ----------------------------------------
 BYTE   PATT
  POIN2 Label_01170415
//  #07 //180   ----------------------------------------
 BYTE   PATT
  POIN2 Label_01170424
//  #07 //181   ----------------------------------------
 BYTE   PATT
  POIN2 Label_0117042A
//  #07 //182   ----------------------------------------
 BYTE   PATT
  POIN2 Label_01170431
//  #07 //183   ----------------------------------------
 BYTE   EOT
 BYTE   Gs1
 BYTE   W01
//  #07 //184   ----------------------------------------
 BYTE   PATT
  POIN2 Label_01170437
//  #07 //185   ----------------------------------------
 BYTE   PATT
  POIN2 Label_01170431
//  #07 //186   ----------------------------------------
 BYTE   EOT
 BYTE   As1
 BYTE   W01
 BYTE   W96
//  #07 //187   ----------------------------------------
 BYTE   PATT
  POIN2 Label_01170449
//  #07 //188   ----------------------------------------
 BYTE   PATT
  POIN2 Label_0117044F
//  #07 //189   ----------------------------------------
 BYTE   PATT
  POIN2 Label_01170463
//  #07 //190   ----------------------------------------
 BYTE   PATT
  POIN2 Label_0117042A
//  #07 //191   ----------------------------------------
 BYTE   PATT
  POIN2 Label_01170431
//  #07 //192   ----------------------------------------
 BYTE   EOT
 BYTE   Gs1
 BYTE   W01
//  #07 //193   ----------------------------------------
 BYTE   PATT
  POIN2 Label_01170437
//  #07 //194   ----------------------------------------
 BYTE   PATT
  POIN2 Label_01170431
//  #07 //195   ----------------------------------------
 BYTE   EOT
 BYTE   As1
 BYTE   W01
//  #07 //196   ----------------------------------------
 BYTE   PATT
  POIN2 Label_01170489
//  #07 //197   ----------------------------------------
 BYTE   PATT
  POIN2 Label_01170494
//  #07 //198   ----------------------------------------
 BYTE   N11  Fs1  v096
 BYTE   W12
 BYTE   N11
 BYTE   W24
 BYTE   N11
 BYTE   W12
 BYTE   N11
 BYTE   W24
 BYTE   N11
 BYTE   W12
 BYTE   N11
 BYTE   W12
//  #07 //199   ----------------------------------------
 BYTE   W72
 BYTE   Gs1
 BYTE   W24
//  #07 //200   ----------------------------------------
 BYTE   N11
 BYTE   W84
 BYTE   N92  Bn1
 BYTE   W12
//  #07 //201   ----------------------------------------
Label_011708B0:
 BYTE   W72
 BYTE   W12
 BYTE   TIE  Cs2  v096
 BYTE   W12
 BYTE   PEND 
//  #07 //202   ----------------------------------------
 BYTE   PATT
  POIN2 Label_01170431
//  #07 //203   ----------------------------------------
 BYTE   EOT
 BYTE   Cs2
 BYTE   W01
Label_011708BF:
 BYTE   N80  As1  v096
 BYTE   W72
 BYTE   W12
 BYTE   TIE  Ds2
 BYTE   W12
 BYTE   PEND 
//  #07 //204   ----------------------------------------
 BYTE   PATT
  POIN2 Label_01170431
//  #07 //205   ----------------------------------------
 BYTE   EOT
 BYTE   Ds2
 BYTE   W01
 BYTE   N11  Gs1  v096
 BYTE   W24
 BYTE   N05
 BYTE   W12
 BYTE   N32  Ds2
 BYTE   W12
 BYTE   W24
 BYTE   N11  Gs1
 BYTE   W24
//  #07 //206   ----------------------------------------
 BYTE   As1
 BYTE   W24
 BYTE   N05
 BYTE   W12
 BYTE   N23  Fn2
 BYTE   W12
 BYTE   W36
 BYTE   Ds2
 BYTE   W12
//  #07 //207   ----------------------------------------
 BYTE   W12
 BYTE   N05  Dn2
 BYTE   W12
 BYTE   Ds2
 BYTE   W12
 BYTE   N23  Fn2
 BYTE   W12
 BYTE   W12
 BYTE   N05  Ds2
 BYTE   W12
 BYTE   Fn2
 BYTE   W12
 BYTE   N23  Fs2
 BYTE   W12
//  #07 //208   ----------------------------------------
 BYTE   W24
 BYTE   N11  Cs2
 BYTE   W24
 BYTE   Cn2
 BYTE   W12
 BYTE   Bn1
 BYTE   W24
 BYTE   N92
 BYTE   W12
//  #07 //209   ----------------------------------------
 BYTE   PATT
  POIN2 Label_011708B0
//  #07 //210   ----------------------------------------
 BYTE   PATT
  POIN2 Label_01170431
//  #07 //211   ----------------------------------------
 BYTE   EOT
 BYTE   Cs2
 BYTE   W01
//  #07 //212   ----------------------------------------
 BYTE   PATT
  POIN2 Label_011708BF
//  #07 //213   ----------------------------------------
 BYTE   PATT
  POIN2 Label_01170431
//  #07 //214   ----------------------------------------
 BYTE   EOT
 BYTE   Ds2
 BYTE   W01
 BYTE   N11  Gs1  v096
 BYTE   W12
 BYTE   N11
 BYTE   W36
 BYTE   N11
 BYTE   W12
 BYTE   N11
 BYTE   W36
//  #07 //215   ----------------------------------------
 BYTE   As1
 BYTE   W12
 BYTE   N11
 BYTE   W36
 BYTE   N11
 BYTE   W12
 BYTE   N11
 BYTE   W24
 BYTE   Cs2
 BYTE   W12
//  #07 //216   ----------------------------------------
Label_01170931:
 BYTE   N11  Ds2  v096
 BYTE   W12
 BYTE   N11
 BYTE   W24
 BYTE   N11
 BYTE   W12
 BYTE   N11
 BYTE   W24
 BYTE   N11
 BYTE   W12
 BYTE   N11
 BYTE   W12
 BYTE   PEND 
//  #07 //217   ----------------------------------------
Label_01170940:
 BYTE   W12
 BYTE   N11  Ds2  v096
 BYTE   W12
 BYTE   N11
 BYTE   W24
 BYTE   N11
 BYTE   W48
 BYTE   PEND 
//  #07 //218   ----------------------------------------
 BYTE   PATT
  POIN2 Label_01170931
//  #07 //219   ----------------------------------------
 BYTE   PATT
  POIN2 Label_01170940
//  #07 //220   ----------------------------------------
 BYTE   PATT
  POIN2 Label_01170931
//  #07 //221   ----------------------------------------
 BYTE   PATT
  POIN2 Label_01170940
//  #07 //222   ----------------------------------------
 BYTE   PATT
  POIN2 Label_01170931
//  #07 //223   ----------------------------------------
 BYTE   W12
 BYTE   N11  Ds2  v096
 BYTE   W12
 BYTE   N11
 BYTE   W24
 BYTE   N11
 BYTE   W24
 BYTE   N11
 BYTE   W24
//  #07 //224   ----------------------------------------
 BYTE   N16
 BYTE   W24
 BYTE   N68  Ds0
 BYTE   W68
 BYTE   W03
 BYTE   FINE

//**************** Track 8 (Midi-Chn.7) ****************//

song1C_008:
//  #08 //000   ----------------------------------------
 BYTE   KEYSH   song1C_key+0
 BYTE   VOICE   1
 BYTE   VOL   12*song1C_mvl/mxv
 BYTE   PAN   c_v+0
 BYTE   VOL   16*song1C_mvl/mxv
 BYTE   PAN   c_v+0
 BYTE   VOL   12*song1C_mvl/mxv
 BYTE   PAN   c_v+0
 BYTE   VOL   16*song1C_mvl/mxv
 BYTE   PAN   c_v+0
 BYTE   W12
Label_0117098D:
 BYTE   W96
//  #08 //001   ----------------------------------------
 BYTE   W96
//  #08 //002   ----------------------------------------
 BYTE   W96
//  #08 //003   ----------------------------------------
 BYTE   W96
//  #08 //004   ----------------------------------------
 BYTE   W96
//  #08 //005   ----------------------------------------
 BYTE   W96
//  #08 //006   ----------------------------------------
 BYTE   W96
//  #08 //007   ----------------------------------------
 BYTE   W96
//  #08 //008   ----------------------------------------
Label_01170995:
 BYTE   N11  Fn1  v096
 BYTE   N11  As1
 BYTE   N11  Fn2
 BYTE   W36
 BYTE   N23  Fs1
 BYTE   N23  As1
 BYTE   N23  Fs2
 BYTE   W12
 BYTE   W48
 BYTE   PEND 
//  #08 //009   ----------------------------------------
Label_011709A6:
 BYTE   N11  Fn1  v096
 BYTE   N11  As1
 BYTE   N11  Fn2
 BYTE   W36
 BYTE   N23  En1
 BYTE   N23  Gn1
 BYTE   N23  En2
 BYTE   W12
 BYTE   W48
 BYTE   PEND 
//  #08 //010   ----------------------------------------
 BYTE   PATT
  POIN2 Label_01170995
//  #08 //011   ----------------------------------------
Label_011709BC:
 BYTE   N11  Gn1  v096
 BYTE   N11  As1
 BYTE   N11  Gn2
 BYTE   W36
 BYTE   N23  An1
 BYTE   N23  Cn2
 BYTE   N23  An2
 BYTE   W12
 BYTE   W48
 BYTE   PEND 
//  #08 //012   ----------------------------------------
 BYTE   PATT
  POIN2 Label_01170995
//  #08 //013   ----------------------------------------
 BYTE   PATT
  POIN2 Label_011709A6
//  #08 //014   ----------------------------------------
 BYTE   PATT
  POIN2 Label_01170995
//  #08 //015   ----------------------------------------
 BYTE   PATT
  POIN2 Label_011709BC
//  #08 //016   ----------------------------------------
 BYTE   W96
//  #08 //017   ----------------------------------------
Label_011709E2:
 BYTE   W36
 BYTE   N23  En2  v096
 BYTE   N23  Bn2
 BYTE   W12
 BYTE   W12
 BYTE   N11  Ds2
 BYTE   N11  As2
 BYTE   W12
 BYTE   Cs2
 BYTE   N11  Gs2
 BYTE   W12
 BYTE   Gs1
 BYTE   N11  Ds2
 BYTE   W12
 BYTE   PEND 
//  #08 //018   ----------------------------------------
 BYTE   W96
//  #08 //019   ----------------------------------------
 BYTE   W96
//  #08 //020   ----------------------------------------
 BYTE   W96
//  #08 //021   ----------------------------------------
 BYTE   W96
//  #08 //022   ----------------------------------------
 BYTE   W96
//  #08 //023   ----------------------------------------
 BYTE   W96
//  #08 //024   ----------------------------------------
 BYTE   W96
//  #08 //025   ----------------------------------------
 BYTE   PATT
  POIN2 Label_011709E2
//  #08 //026   ----------------------------------------
 BYTE   W96
//  #08 //027   ----------------------------------------
 BYTE   W96
//  #08 //028   ----------------------------------------
 BYTE   W96
//  #08 //029   ----------------------------------------
 BYTE   W96
//  #08 //030   ----------------------------------------
 BYTE   W96
//  #08 //031   ----------------------------------------
 BYTE   W96
//  #08 //032   ----------------------------------------
Label_01170A0A:
 BYTE   N92  Bn2  v064
 BYTE   W96
 BYTE   PEND 
//  #08 //033   ----------------------------------------
Label_01170A0F:
 BYTE   N44  Bn2  v064
 BYTE   W48
 BYTE   As2
 BYTE   W48
 BYTE   PEND 
//  #08 //034   ----------------------------------------
Label_01170A16:
 BYTE   TIE  Fn2  v064
 BYTE   W96
 BYTE   PEND 
//  #08 //035   ----------------------------------------
Label_01170A1B:
 BYTE   W92
 BYTE   W03
 BYTE   PEND 
 BYTE   EOT
 BYTE   Fn2
 BYTE   W01
//  #08 //036   ----------------------------------------
 BYTE   PATT
  POIN2 Label_01170A0A
//  #08 //037   ----------------------------------------
Label_01170A26:
 BYTE   N44  Fn3  v064
 BYTE   W48
 BYTE   Fs3
 BYTE   W48
 BYTE   PEND 
//  #08 //038   ----------------------------------------
Label_01170A2D:
 BYTE   TIE  Fn3  v064
 BYTE   W96
 BYTE   PEND 
//  #08 //039   ----------------------------------------
 BYTE   PATT
  POIN2 Label_01170A1B
//  #08 //040   ----------------------------------------
 BYTE   EOT
 BYTE   Fn3
 BYTE   W01
 BYTE   W96
//  #08 //041   ----------------------------------------
 BYTE   W96
//  #08 //042   ----------------------------------------
 BYTE   W96
//  #08 //043   ----------------------------------------
 BYTE   W96
//  #08 //044   ----------------------------------------
 BYTE   W96
//  #08 //045   ----------------------------------------
 BYTE   W96
//  #08 //046   ----------------------------------------
Label_01170A40:
 BYTE   N11  Cn2  v096
 BYTE   N11  Fn2
 BYTE   W12
 BYTE   Cn2
 BYTE   N11  Fn2
 BYTE   W24
 BYTE   Cn2
 BYTE   N11  Fn2
 BYTE   W12
 BYTE   Cn2
 BYTE   N11  Fn2
 BYTE   W24
 BYTE   Cn2
 BYTE   N11  Fn2
 BYTE   W12
 BYTE   Cn2
 BYTE   N11  Fn2
 BYTE   W12
 BYTE   PEND 
//  #08 //047   ----------------------------------------
 BYTE   W96
//  #08 //048   ----------------------------------------
 BYTE   W96
//  #08 //049   ----------------------------------------
 BYTE   W96
//  #08 //050   ----------------------------------------
 BYTE   W96
//  #08 //051   ----------------------------------------
 BYTE   W96
//  #08 //052   ----------------------------------------
 BYTE   W96
//  #08 //053   ----------------------------------------
Label_01170A61:
 BYTE   W84
 BYTE   N23  As1  v096
 BYTE   N23  Cs2
 BYTE   W12
 BYTE   PEND 
//  #08 //054   ----------------------------------------
Label_01170A69:
 BYTE   W12
 BYTE   N05  An1  v096
 BYTE   N05  Cn2
 BYTE   W12
 BYTE   As1
 BYTE   N05  Cs2
 BYTE   W12
 BYTE   N23  Cn2
 BYTE   N23  Ds2
 BYTE   W12
 BYTE   W12
 BYTE   N05  As1
 BYTE   N05  Cs2
 BYTE   W12
 BYTE   Cn2
 BYTE   N05  Ds2
 BYTE   W12
 BYTE   N23  Cs2
 BYTE   N23  Fn2
 BYTE   W12
 BYTE   PEND 
//  #08 //055   ----------------------------------------
Label_01170A89:
 BYTE   W24
 BYTE   N11  Ds2  v096
 BYTE   N11  Gs2
 BYTE   W24
 BYTE   Dn2
 BYTE   N11  Gn2
 BYTE   W12
 BYTE   Cs2
 BYTE   N11  Fs2
 BYTE   W24
 BYTE   N92  Cs2
 BYTE   N92  Fs2
 BYTE   W12
 BYTE   PEND 
//  #08 //056   ----------------------------------------
Label_01170A9E:
 BYTE   W72
 BYTE   W12
 BYTE   TIE  Ds2  v096
 BYTE   TIE  Gs2
 BYTE   W12
 BYTE   PEND 
//  #08 //057   ----------------------------------------
Label_01170AA7:
 BYTE   W92
 BYTE   W03
 BYTE   PEND 
 BYTE   EOT
 BYTE   Ds2  v056
 BYTE   W01
//  #08 //058   ----------------------------------------
Label_01170AAE:
 BYTE   N80  Cn2  v096
 BYTE   N80  Fn2
 BYTE   W72
 BYTE   W12
 BYTE   TIE
 BYTE   TIE  As2
 BYTE   W12
 BYTE   PEND 
//  #08 //059   ----------------------------------------
 BYTE   PATT
  POIN2 Label_01170AA7
//  #08 //060   ----------------------------------------
 BYTE   EOT
 BYTE   Fn2  v058
 BYTE   W01
Label_01170AC3:
 BYTE   N11  As1  v096
 BYTE   N11  Ds2
 BYTE   W12
 BYTE   As1
 BYTE   N11  Ds2
 BYTE   W36
 BYTE   As1
 BYTE   N11  Ds2
 BYTE   W12
 BYTE   As1
 BYTE   N11  Ds2
 BYTE   W36
 BYTE   PEND 
//  #08 //061   ----------------------------------------
Label_01170AD6:
 BYTE   N11  Cn2  v096
 BYTE   N11  Fn2
 BYTE   W12
 BYTE   Cn2
 BYTE   N11  Fn2
 BYTE   W36
 BYTE   Cn2
 BYTE   N11  Fn2
 BYTE   W12
 BYTE   Cn2
 BYTE   N11  Fn2
 BYTE   W36
 BYTE   PEND 
//  #08 //062   ----------------------------------------
Label_01170AE9:
 BYTE   N11  As1  v096
 BYTE   N11  Fn2
 BYTE   N11  As2
 BYTE   W12
 BYTE   As1
 BYTE   N11  Fn2
 BYTE   N11  As2
 BYTE   W24
 BYTE   As1
 BYTE   N11  Fn2
 BYTE   N11  As2
 BYTE   W12
 BYTE   As1
 BYTE   N11  Fn2
 BYTE   N11  As2
 BYTE   W24
 BYTE   As1
 BYTE   N11  Fn2
 BYTE   N11  As2
 BYTE   W12
 BYTE   As1
 BYTE   N11  Fn2
 BYTE   N11  As2
 BYTE   W12
 BYTE   PEND 
//  #08 //063   ----------------------------------------
Label_01170B10:
 BYTE   W12
 BYTE   N11  As1  v096
 BYTE   N11  Fn2
 BYTE   N11  As2
 BYTE   W12
 BYTE   As1
 BYTE   N11  Fn2
 BYTE   N11  As2
 BYTE   W24
 BYTE   As1
 BYTE   N11  Fn2
 BYTE   N11  As2
 BYTE   W48
 BYTE   PEND 
//  #08 //064   ----------------------------------------
 BYTE   PATT
  POIN2 Label_01170AE9
//  #08 //065   ----------------------------------------
 BYTE   PATT
  POIN2 Label_01170B10
//  #08 //066   ----------------------------------------
 BYTE   W96
//  #08 //067   ----------------------------------------
 BYTE   W96
//  #08 //068   ----------------------------------------
 BYTE   W96
//  #08 //069   ----------------------------------------
 BYTE   W96
//  #08 //070   ----------------------------------------
 BYTE   W96
//  #08 //071   ----------------------------------------
 BYTE   W96
//  #08 //072   ----------------------------------------
 BYTE   W96
//  #08 //073   ----------------------------------------
 BYTE   W96
//  #08 //074   ----------------------------------------
 BYTE   W96
//  #08 //075   ----------------------------------------
 BYTE   W96
//  #08 //076   ----------------------------------------
 BYTE   W96
//  #08 //077   ----------------------------------------
 BYTE   W96
//  #08 //078   ----------------------------------------
 BYTE   W96
//  #08 //079   ----------------------------------------
 BYTE   W96
//  #08 //080   ----------------------------------------
 BYTE   W96
//  #08 //081   ----------------------------------------
 BYTE   W96
//  #08 //082   ----------------------------------------
Label_01170B40:
 BYTE   N11  As1  v096
 BYTE   N11  As2
 BYTE   W12
 BYTE   As1
 BYTE   N11  As2
 BYTE   W24
 BYTE   As1
 BYTE   N11  As2
 BYTE   W12
 BYTE   As1
 BYTE   N11  As2
 BYTE   W24
 BYTE   As1
 BYTE   N11  As2
 BYTE   W12
 BYTE   As1
 BYTE   N11  As2
 BYTE   W12
 BYTE   PEND 
//  #08 //083   ----------------------------------------
Label_01170B5B:
 BYTE   W12
 BYTE   N11  As1  v096
 BYTE   N11  As2
 BYTE   W12
 BYTE   As1
 BYTE   N11  As2
 BYTE   W24
 BYTE   As1
 BYTE   N11  As2
 BYTE   W48
 BYTE   PEND 
//  #08 //084   ----------------------------------------
 BYTE   PATT
  POIN2 Label_01170B40
//  #08 //085   ----------------------------------------
 BYTE   PATT
  POIN2 Label_01170B5B
//  #08 //086   ----------------------------------------
 BYTE   GoTo
  POIN2 Label_0117098D
//  #08 //087   ----------------------------------------
 BYTE   N92  Fn1  v096
 BYTE   N92  As1
 BYTE   W96
//  #08 //088   ----------------------------------------
 BYTE   Cn2
 BYTE   N92  Fn2
 BYTE   W96
//  #08 //089   ----------------------------------------
 BYTE   Ds2
 BYTE   N92  Gs2
 BYTE   W96
//  #08 //090   ----------------------------------------
 BYTE   N44  Fn2
 BYTE   N44  As2
 BYTE   W48
 BYTE   Gn2
 BYTE   N44  Cn3
 BYTE   W48
//  #08 //091   ----------------------------------------
 BYTE   N92  Gn1
 BYTE   N92  Cn2
 BYTE   W96
//  #08 //092   ----------------------------------------
 BYTE   Dn2
 BYTE   N92  Gn2
 BYTE   W96
//  #08 //093   ----------------------------------------
 BYTE   Fn2
 BYTE   N92  As2
 BYTE   W96
//  #08 //094   ----------------------------------------
 BYTE   N44  Gn2
 BYTE   N44  Cn3
 BYTE   W48
 BYTE   An2
 BYTE   N44  Dn3
 BYTE   W48
//  #08 //095   ----------------------------------------
 BYTE   TIE  As2
 BYTE   TIE  Ds3
 BYTE   W04
 BYTE   W05
 BYTE   W05
 BYTE   W05
 BYTE   W05
 BYTE   W04
 BYTE   W05
 BYTE   W05
 BYTE   W05
 BYTE   W05
 BYTE   W04
 BYTE   W05
 BYTE   W05
 BYTE   W05
 BYTE   W05
 BYTE   W04
 BYTE   W05
 BYTE   W05
 BYTE   W05
 BYTE   W05
//  #08 //096   ----------------------------------------
 BYTE   W04
 BYTE   W05
 BYTE   W05
 BYTE   W05
 BYTE   W05
 BYTE   W04
 BYTE   W05
 BYTE   W05
 BYTE   W05
 BYTE   W05
 BYTE   W04
 BYTE   W05
 BYTE   W05
 BYTE   W05
 BYTE   W05
 BYTE   W04
 BYTE   W05
 BYTE   W05
 BYTE   W05
 BYTE   W05
//  #08 //097   ----------------------------------------
 BYTE   W04
 BYTE   W05
 BYTE   W05
 BYTE   W05
 BYTE   W05
 BYTE   W04
 BYTE   W05
 BYTE   W05
 BYTE   W05
 BYTE   W05
 BYTE   W04
 BYTE   W05
 BYTE   W05
 BYTE   W05
 BYTE   W05
 BYTE   W04
 BYTE   W05
 BYTE   W05
 BYTE   W05
 BYTE   W05
//  #08 //098   ----------------------------------------
 BYTE   W04
 BYTE   W05
 BYTE   W05
 BYTE   W05
 BYTE   W05
 BYTE   W04
 BYTE   W05
 BYTE   W05
 BYTE   W05
 BYTE   W05
 BYTE   W04
 BYTE   W05
 BYTE   W05
 BYTE   W05
 BYTE   W05
 BYTE   W04
 BYTE   W05
 BYTE   W05
 BYTE   W05
 BYTE   W04
 BYTE   EOT
 BYTE   As2  v063
 BYTE   W01
//  #08 //099   ----------------------------------------
 BYTE   W96
//  #08 //100   ----------------------------------------
 BYTE   W96
//  #08 //101   ----------------------------------------
 BYTE   W96
//  #08 //102   ----------------------------------------
 BYTE   W96
//  #08 //103   ----------------------------------------
 BYTE   W96
//  #08 //104   ----------------------------------------
 BYTE   W96
//  #08 //105   ----------------------------------------
 BYTE   W96
//  #08 //106   ----------------------------------------
 BYTE   W96
//  #08 //107   ----------------------------------------
 BYTE   W96
//  #08 //108   ----------------------------------------
 BYTE   W96
//  #08 //109   ----------------------------------------
 BYTE   W96
//  #08 //110   ----------------------------------------
 BYTE   W96
//  #08 //111   ----------------------------------------
 BYTE   W96
//  #08 //112   ----------------------------------------
 BYTE   W96
//  #08 //113   ----------------------------------------
 BYTE   W96
//  #08 //114   ----------------------------------------
 BYTE   W96
//  #08 //115   ----------------------------------------
 BYTE   W96
//  #08 //116   ----------------------------------------
 BYTE   W96
//  #08 //117   ----------------------------------------
 BYTE   W96
//  #08 //118   ----------------------------------------
 BYTE   W96
//  #08 //119   ----------------------------------------
 BYTE   W96
//  #08 //120   ----------------------------------------
 BYTE   W96
//  #08 //121   ----------------------------------------
 BYTE   W96
//  #08 //122   ----------------------------------------
 BYTE   W96
//  #08 //123   ----------------------------------------
Label_01170C17:
 BYTE   N92  Gn2  v052
 BYTE   N92  Dn3
 BYTE   W96
 BYTE   PEND 
//  #08 //124   ----------------------------------------
Label_01170C1E:
 BYTE   N92  Fn2  v052
 BYTE   N92  Cn3
 BYTE   W96
 BYTE   PEND 
//  #08 //125   ----------------------------------------
 BYTE   PATT
  POIN2 Label_01170C17
//  #08 //126   ----------------------------------------
 BYTE   PATT
  POIN2 Label_01170C1E
//  #08 //127   ----------------------------------------
 BYTE   PATT
  POIN2 Label_01170C17
//  #08 //128   ----------------------------------------
 BYTE   PATT
  POIN2 Label_01170C1E
//  #08 //129   ----------------------------------------
 BYTE   N92  Ds2  v052
 BYTE   N92  Dn3
 BYTE   W96
//  #08 //130   ----------------------------------------
 BYTE   PATT
  POIN2 Label_01170C1E
//  #08 //131   ----------------------------------------
 BYTE   TIE  Cn2  v052
 BYTE   TIE  Cn3
 BYTE   W96
//  #08 //132   ----------------------------------------
 BYTE   W96
//  #08 //133   ----------------------------------------
 BYTE   W96
//  #08 //134   ----------------------------------------
 BYTE   W92
 BYTE   W03
 BYTE   EOT
 BYTE   Cn2  v060
 BYTE   W01
//  #08 //135   ----------------------------------------
 BYTE   N11  Gn1
 BYTE   N11  Cn2
 BYTE   N11  Gn2
 BYTE   W36
 BYTE   N23  Gs1
 BYTE   N23  Cn2
 BYTE   N23  Gs2
 BYTE   W12
 BYTE   W48
//  #08 //136   ----------------------------------------
 BYTE   N11  En1
 BYTE   N11  An1
 BYTE   N11  En2
 BYTE   W36
 BYTE   N23  Ds1
 BYTE   N23  Fs1
 BYTE   N23  Ds2
 BYTE   W12
 BYTE   W48
//  #08 //137   ----------------------------------------
 BYTE   N11  Fn1
 BYTE   N11  As1
 BYTE   N11  Fn2
 BYTE   W04
 BYTE   W04
 BYTE   W04
 BYTE   W04
 BYTE   W04
 BYTE   W16
 BYTE   N23  Fs1  v060
 BYTE   N23  As1
 BYTE   N23  Fs2
 BYTE   W04
 BYTE   W04
 BYTE   W04
 BYTE   W01
 BYTE   W04
 BYTE   W04
 BYTE   W04
 BYTE   W04
 BYTE   W04
 BYTE   W04
 BYTE   W04
 BYTE   W04
 BYTE   W04
 BYTE   W04
 BYTE   W05
 BYTE   W02
//  #08 //138   ----------------------------------------
 BYTE   N11  Gn1  v072
 BYTE   N11  As1
 BYTE   N11  Gn2
 BYTE   W02
 BYTE   W04
 BYTE   W04
 BYTE   W04
 BYTE   W04
 BYTE   W04
 BYTE   W04
 BYTE   W04
 BYTE   W04
 BYTE   W02
 BYTE   N23  An1  v084
 BYTE   N23  Cn2
 BYTE   N23  An2
 BYTE   W02
 BYTE   W04
 BYTE   W05
 BYTE   W01
 BYTE   W03
 BYTE   W04
 BYTE   W04
 BYTE   W04
 BYTE   W04
 BYTE   W04
 BYTE   W01
 BYTE   N11  An1  v092
 BYTE   N11  Cn2
 BYTE   N11  An2
 BYTE   W03
 BYTE   W04
 BYTE   W04
 BYTE   W04
 BYTE   W04
 BYTE   W05
//  #08 //139   ----------------------------------------
 BYTE   PATT
  POIN2 Label_01170995
//  #08 //140   ----------------------------------------
 BYTE   PATT
  POIN2 Label_011709A6
//  #08 //141   ----------------------------------------
 BYTE   PATT
  POIN2 Label_01170995
//  #08 //142   ----------------------------------------
 BYTE   PATT
  POIN2 Label_011709BC
//  #08 //143   ----------------------------------------
 BYTE   PATT
  POIN2 Label_01170995
//  #08 //144   ----------------------------------------
 BYTE   PATT
  POIN2 Label_011709A6
//  #08 //145   ----------------------------------------
 BYTE   PATT
  POIN2 Label_01170995
//  #08 //146   ----------------------------------------
 BYTE   PATT
  POIN2 Label_011709BC
//  #08 //147   ----------------------------------------
 BYTE   W96
//  #08 //148   ----------------------------------------
 BYTE   PATT
  POIN2 Label_011709E2
//  #08 //149   ----------------------------------------
 BYTE   W96
//  #08 //150   ----------------------------------------
 BYTE   W96
//  #08 //151   ----------------------------------------
 BYTE   W96
//  #08 //152   ----------------------------------------
Label_01170CF4:
 BYTE   N11  Gn3  v096
 BYTE   W12
 BYTE   En3
 BYTE   W12
 BYTE   Cn3
 BYTE   W12
 BYTE   N23  En3
 BYTE   W12
 BYTE   W12
 BYTE   N11  Cn3
 BYTE   W12
 BYTE   As2
 BYTE   W12
 BYTE   N23  Bn2
 BYTE   W12
 BYTE   PEND 
//  #08 //153   ----------------------------------------
 BYTE   W96
//  #08 //154   ----------------------------------------
 BYTE   W96
//  #08 //155   ----------------------------------------
 BYTE   W96
//  #08 //156   ----------------------------------------
 BYTE   PATT
  POIN2 Label_011709E2
//  #08 //157   ----------------------------------------
 BYTE   W96
//  #08 //158   ----------------------------------------
 BYTE   W96
//  #08 //159   ----------------------------------------
 BYTE   W96
//  #08 //160   ----------------------------------------
 BYTE   PATT
  POIN2 Label_01170CF4
//  #08 //161   ----------------------------------------
 BYTE   W96
//  #08 //162   ----------------------------------------
 BYTE   W96
//  #08 //163   ----------------------------------------
 BYTE   PATT
  POIN2 Label_01170A0A
//  #08 //164   ----------------------------------------
 BYTE   PATT
  POIN2 Label_01170A0F
//  #08 //165   ----------------------------------------
 BYTE   PATT
  POIN2 Label_01170A16
//  #08 //166   ----------------------------------------
 BYTE   PATT
  POIN2 Label_01170A1B
//  #08 //167   ----------------------------------------
 BYTE   EOT
 BYTE   Fn2
 BYTE   W01
//  #08 //168   ----------------------------------------
 BYTE   PATT
  POIN2 Label_01170A0A
//  #08 //169   ----------------------------------------
 BYTE   PATT
  POIN2 Label_01170A26
//  #08 //170   ----------------------------------------
 BYTE   PATT
  POIN2 Label_01170A2D
//  #08 //171   ----------------------------------------
 BYTE   PATT
  POIN2 Label_01170A1B
//  #08 //172   ----------------------------------------
 BYTE   EOT
 BYTE   Fn3
 BYTE   W01
 BYTE   N11  As1  v096
 BYTE   N11  Ds2
 BYTE   W24
 BYTE   As1
 BYTE   N11  Ds2
 BYTE   W12
 BYTE   N32  As1
 BYTE   N32  Ds2
 BYTE   W12
 BYTE   W24
 BYTE   N11  As1
 BYTE   N11  Ds2
 BYTE   W24
//  #08 //173   ----------------------------------------
 BYTE   Cn2
 BYTE   N11  Fn2
 BYTE   W24
 BYTE   Cn2
 BYTE   N11  Fn2
 BYTE   W12
 BYTE   N32  Cn2
 BYTE   N32  Fn2
 BYTE   W12
 BYTE   W24
 BYTE   N11  Cn2
 BYTE   N11  Fn2
 BYTE   W24
//  #08 //174   ----------------------------------------
 BYTE   Cs2
 BYTE   N11  Fs2
 BYTE   W24
 BYTE   Cs2
 BYTE   N11  Fs2
 BYTE   W12
 BYTE   N32  Cs2
 BYTE   N32  Fs2
 BYTE   W12
 BYTE   W24
 BYTE   N11  Cs2
 BYTE   N11  Fs2
 BYTE   W24
//  #08 //175   ----------------------------------------
 BYTE   Dn2
 BYTE   N11  Gn2
 BYTE   W24
 BYTE   Dn2
 BYTE   N11  Gn2
 BYTE   W12
 BYTE   N32  Dn2
 BYTE   N32  Gn2
 BYTE   W12
 BYTE   W24
 BYTE   N11  Dn2
 BYTE   N11  Gn2
 BYTE   W24
//  #08 //176   ----------------------------------------
 BYTE   N05  Ds2
 BYTE   N05  Gs2
 BYTE   W12
 BYTE   N11  Ds2
 BYTE   N11  Gs2
 BYTE   W24
 BYTE   N05  Ds2
 BYTE   N05  Gs2
 BYTE   W24
 BYTE   Ds2
 BYTE   N05  Gs2
 BYTE   W24
 BYTE   Ds2
 BYTE   N05  Gs2
 BYTE   W12
//  #08 //177   ----------------------------------------
 BYTE   N11  Ds2
 BYTE   N11  Gs2
 BYTE   W12
 BYTE   Cs2
 BYTE   N11  Fs2
 BYTE   W12
 BYTE   As1
 BYTE   N11  Ds2
 BYTE   W12
 BYTE   N23
 BYTE   N23  Gs2
 BYTE   W12
 BYTE   W12
 BYTE   N11  Cs2
 BYTE   N11  Fs2
 BYTE   W12
 BYTE   N23  As1
 BYTE   N23  Ds2
 BYTE   W24
//  #08 //178   ----------------------------------------
 BYTE   PATT
  POIN2 Label_01170A40
//  #08 //179   ----------------------------------------
 BYTE   W96
//  #08 //180   ----------------------------------------
 BYTE   W96
//  #08 //181   ----------------------------------------
 BYTE   W96
//  #08 //182   ----------------------------------------
 BYTE   W96
//  #08 //183   ----------------------------------------
 BYTE   W96
//  #08 //184   ----------------------------------------
 BYTE   W96
//  #08 //185   ----------------------------------------
 BYTE   PATT
  POIN2 Label_01170A61
//  #08 //186   ----------------------------------------
 BYTE   PATT
  POIN2 Label_01170A69
//  #08 //187   ----------------------------------------
 BYTE   PATT
  POIN2 Label_01170A89
//  #08 //188   ----------------------------------------
 BYTE   PATT
  POIN2 Label_01170A9E
//  #08 //189   ----------------------------------------
 BYTE   PATT
  POIN2 Label_01170AA7
//  #08 //190   ----------------------------------------
 BYTE   EOT
 BYTE   Ds2  v056
 BYTE   W01
//  #08 //191   ----------------------------------------
 BYTE   PATT
  POIN2 Label_01170AAE
//  #08 //192   ----------------------------------------
 BYTE   PATT
  POIN2 Label_01170AA7
//  #08 //193   ----------------------------------------
 BYTE   EOT
 BYTE   Fn2  v058
 BYTE   W01
//  #08 //194   ----------------------------------------
 BYTE   PATT
  POIN2 Label_01170AC3
//  #08 //195   ----------------------------------------
 BYTE   PATT
  POIN2 Label_01170AD6
//  #08 //196   ----------------------------------------
 BYTE   N11  Fs1  v096
 BYTE   N11  Cs2
 BYTE   N11  Fs2
 BYTE   W12
 BYTE   Fs1
 BYTE   N11  Cs2
 BYTE   N11  Fs2
 BYTE   W24
 BYTE   Fs1
 BYTE   N11  Cs2
 BYTE   N11  Fs2
 BYTE   W12
 BYTE   Fs1
 BYTE   N11  Cs2
 BYTE   N11  Fs2
 BYTE   W24
 BYTE   Fs1
 BYTE   N11  Cs2
 BYTE   N11  Fs2
 BYTE   W12
 BYTE   Fs1
 BYTE   N11  Cs2
 BYTE   N11  Fs2
 BYTE   W12
//  #08 //197   ----------------------------------------
 BYTE   W72
 BYTE   Gs1
 BYTE   N11  Ds2
 BYTE   N11  Gs2
 BYTE   W24
//  #08 //198   ----------------------------------------
 BYTE   Gs1
 BYTE   N11  Ds2
 BYTE   N11  Gs2
 BYTE   W24
 BYTE   Bn1
 BYTE   N11  Fs2
 BYTE   N11  Bn2
 BYTE   W24
 BYTE   Bn1
 BYTE   N11  Fs2
 BYTE   N11  Bn2
 BYTE   W12
 BYTE   Bn1
 BYTE   N11  Fs2
 BYTE   N11  Bn2
 BYTE   W24
 BYTE   N92  Bn1
 BYTE   N92  Fs2
 BYTE   N92  Bn2
 BYTE   W12
//  #08 //199   ----------------------------------------
 BYTE   W72
 BYTE   W12
 BYTE   TIE  Cs2
 BYTE   TIE  Gs2
 BYTE   TIE  Cs3
 BYTE   W12
//  #08 //200   ----------------------------------------
 BYTE   PATT
  POIN2 Label_01170AA7
//  #08 //201   ----------------------------------------
 BYTE   EOT
 BYTE   Cs2  v056
 BYTE   Cs3
 BYTE   W01
 BYTE   N80  As1  v096
 BYTE   N80  Fn2
 BYTE   N80  As2
 BYTE   W72
 BYTE   W12
 BYTE   TIE  Ds2
 BYTE   TIE  As2
 BYTE   TIE  Ds3
 BYTE   W12
//  #08 //202   ----------------------------------------
 BYTE   PATT
  POIN2 Label_01170AA7
//  #08 //203   ----------------------------------------
 BYTE   EOT
 BYTE   Ds2  v058
 BYTE   Ds3
 BYTE   W01
 BYTE   N11  Gs1  v096
 BYTE   N11  Gs2
 BYTE   W24
 BYTE   N05  Gs1
 BYTE   N05  Gs2
 BYTE   W12
 BYTE   N32  Ds2
 BYTE   N32  Ds3
 BYTE   W12
 BYTE   W24
 BYTE   N11  Gs1
 BYTE   N11  Gs2
 BYTE   W24
//  #08 //204   ----------------------------------------
 BYTE   As1
 BYTE   N11  As2
 BYTE   W24
 BYTE   N05  As1
 BYTE   N05  As2
 BYTE   W12
 BYTE   N23  Fn2
 BYTE   N23  Fn3
 BYTE   W12
 BYTE   W36
 BYTE   Ds2
 BYTE   N23  Fs2
 BYTE   W12
//  #08 //205   ----------------------------------------
 BYTE   W12
 BYTE   N05  Dn2
 BYTE   N05  Fn2
 BYTE   W12
 BYTE   Ds2
 BYTE   N05  Fs2
 BYTE   W12
 BYTE   N23  Fn2
 BYTE   N23  Gs2
 BYTE   W12
 BYTE   W12
 BYTE   N05  Ds2
 BYTE   N05  Fs2
 BYTE   W12
 BYTE   Fn2
 BYTE   N05  Gs2
 BYTE   W12
 BYTE   N23  Fs2
 BYTE   N23  As2
 BYTE   W12
//  #08 //206   ----------------------------------------
 BYTE   W24
 BYTE   N11  Gs2
 BYTE   N11  Cs3
 BYTE   W24
 BYTE   Gn2
 BYTE   N11  Cn3
 BYTE   W12
 BYTE   Fs2
 BYTE   N11  Bn2
 BYTE   W24
 BYTE   N92  Fs2
 BYTE   N92  Bn2
 BYTE   W12
//  #08 //207   ----------------------------------------
 BYTE   W72
 BYTE   W12
 BYTE   TIE  Gs2
 BYTE   TIE  Cs3
 BYTE   W12
//  #08 //208   ----------------------------------------
 BYTE   PATT
  POIN2 Label_01170AA7
//  #08 //209   ----------------------------------------
 BYTE   EOT
 BYTE   Gs2  v061
 BYTE   W01
 BYTE   N80  Fn2  v096
 BYTE   N80  As2
 BYTE   W72
 BYTE   W12
 BYTE   TIE
 BYTE   TIE  Ds3
 BYTE   W12
//  #08 //210   ----------------------------------------
 BYTE   PATT
  POIN2 Label_01170AA7
//  #08 //211   ----------------------------------------
 BYTE   EOT
 BYTE   As2  v063
 BYTE   W01
 BYTE   N11  Ds2  v096
 BYTE   N11  Gs2
 BYTE   W12
 BYTE   Ds2
 BYTE   N11  Gs2
 BYTE   W36
 BYTE   Ds2
 BYTE   N11  Gs2
 BYTE   W12
 BYTE   Ds2
 BYTE   N11  Gs2
 BYTE   W36
//  #08 //212   ----------------------------------------
 BYTE   Fn2
 BYTE   N11  As2
 BYTE   W12
 BYTE   Fn2
 BYTE   N11  As2
 BYTE   W36
 BYTE   Fn2
 BYTE   N11  As2
 BYTE   W12
 BYTE   Fn2
 BYTE   N11  As2
 BYTE   W36
//  #08 //213   ----------------------------------------
Label_01170F23:
 BYTE   N11  Ds2  v096
 BYTE   N11  As2
 BYTE   N11  Ds3
 BYTE   W12
 BYTE   Ds2
 BYTE   N11  As2
 BYTE   N11  Ds3
 BYTE   W24
 BYTE   Ds2
 BYTE   N11  As2
 BYTE   N11  Ds3
 BYTE   W12
 BYTE   Ds2
 BYTE   N11  As2
 BYTE   N11  Ds3
 BYTE   W24
 BYTE   Ds2
 BYTE   N11  As2
 BYTE   N11  Ds3
 BYTE   W12
 BYTE   Ds2
 BYTE   N11  As2
 BYTE   N11  Ds3
 BYTE   W12
 BYTE   PEND 
//  #08 //214   ----------------------------------------
Label_01170F4A:
 BYTE   W12
 BYTE   N11  Ds2  v096
 BYTE   N11  As2
 BYTE   N11  Ds3
 BYTE   W12
 BYTE   Ds2
 BYTE   N11  As2
 BYTE   N11  Ds3
 BYTE   W24
 BYTE   Ds2
 BYTE   N11  As2
 BYTE   N11  Ds3
 BYTE   W48
 BYTE   PEND 
//  #08 //215   ----------------------------------------
 BYTE   PATT
  POIN2 Label_01170F23
//  #08 //216   ----------------------------------------
 BYTE   PATT
  POIN2 Label_01170F4A
//  #08 //217   ----------------------------------------
 BYTE   PATT
  POIN2 Label_01170F23
//  #08 //218   ----------------------------------------
 BYTE   PATT
  POIN2 Label_01170F4A
//  #08 //219   ----------------------------------------
 BYTE   PATT
  POIN2 Label_01170F23
//  #08 //220   ----------------------------------------
 BYTE   W12
 BYTE   N11  Ds2  v096
 BYTE   N11  As2
 BYTE   N11  Ds3
 BYTE   W12
 BYTE   Ds2
 BYTE   N11  As2
 BYTE   N11  Ds3
 BYTE   W24
 BYTE   Ds2
 BYTE   N11  As2
 BYTE   N11  Ds3
 BYTE   W24
 BYTE   Ds2
 BYTE   N11  As2
 BYTE   N11  Ds3
 BYTE   W24
//  #08 //221   ----------------------------------------
 BYTE   N16  Ds2
 BYTE   N16  As2
 BYTE   N16  Ds3
 BYTE   W92
 BYTE   W03
 BYTE   FINE

//**************** Track 9 (Midi-Chn.8) ****************//

song1C_009:
//  #09 //000   ----------------------------------------
 BYTE   KEYSH   song1C_key+0
 BYTE   VOICE   29
 BYTE   VOL   15*song1C_mvl/mxv
 BYTE   PAN   c_v+0
 BYTE   VOL   12*song1C_mvl/mxv
 BYTE   PAN   c_v+0
 BYTE   VOL   30*song1C_mvl/mxv
 BYTE   PAN   c_v+0
 BYTE   VOL   30*song1C_mvl/mxv
 BYTE   PAN   c_v+0
 BYTE   W12
Label_01170FB5:
 BYTE   W96
//  #09 //001   ----------------------------------------
 BYTE   W96
//  #09 //002   ----------------------------------------
 BYTE   W96
//  #09 //003   ----------------------------------------
 BYTE   W96
//  #09 //004   ----------------------------------------
Label_01170FB9:
 BYTE   N11  Fn2  v096
 BYTE   N11  Fn3
 BYTE   W36
 BYTE   N23  Fs2
 BYTE   N23  Fs3
 BYTE   W12
 BYTE   W48
 BYTE   PEND 
//  #09 //005   ----------------------------------------
 BYTE   N11  Fn2
 BYTE   N11  Fn3
 BYTE   W36
 BYTE   N23  En2
 BYTE   N23  En3
 BYTE   W12
 BYTE   W48
//  #09 //006   ----------------------------------------
 BYTE   PATT
  POIN2 Label_01170FB9
//  #09 //007   ----------------------------------------
 BYTE   N11  Gn2  v096
 BYTE   N11  Gn3
 BYTE   W36
 BYTE   N23  An2
 BYTE   N23  An3
 BYTE   W12
 BYTE   W48
//  #09 //008   ----------------------------------------
Label_01170FE2:
 BYTE   N11  Fn2  v096
 BYTE   N23  As2
 BYTE   N11  Fn3
 BYTE   W36
 BYTE   N23  Fn2
 BYTE   N23  Fs2
 BYTE   N23  As2
 BYTE   N23  Fs3
 BYTE   W12
 BYTE   W24
 BYTE   Fn2
 BYTE   N23  As2
 BYTE   W24
 BYTE   PEND 
//  #09 //009   ----------------------------------------
Label_01170FF9:
 BYTE   N11  Fn2  v096
 BYTE   N23  As2
 BYTE   N11  Fn3
 BYTE   W36
 BYTE   N23  En2
 BYTE   N23  Fn2
 BYTE   N23  As2
 BYTE   N23  En3
 BYTE   W12
 BYTE   W24
 BYTE   Fn2
 BYTE   N23  As2
 BYTE   W24
 BYTE   PEND 
//  #09 //010   ----------------------------------------
 BYTE   PATT
  POIN2 Label_01170FE2
//  #09 //011   ----------------------------------------
Label_01171015:
 BYTE   N23  Fn2  v096
 BYTE   N11  Gn2
 BYTE   N23  As2
 BYTE   N11  Gn3
 BYTE   W36
 BYTE   N23  Fn2
 BYTE   N23  An2
 BYTE   N23  As2
 BYTE   N23  An3
 BYTE   W12
 BYTE   W24
 BYTE   Fn2
 BYTE   N23  As2
 BYTE   W24
 BYTE   PEND 
//  #09 //012   ----------------------------------------
 BYTE   PATT
  POIN2 Label_01170FE2
//  #09 //013   ----------------------------------------
 BYTE   PATT
  POIN2 Label_01170FF9
//  #09 //014   ----------------------------------------
 BYTE   PATT
  POIN2 Label_01170FE2
//  #09 //015   ----------------------------------------
 BYTE   PATT
  POIN2 Label_01171015
//  #09 //016   ----------------------------------------
Label_01171042:
 BYTE   W24
 BYTE   N11  Gs2  v096
 BYTE   N11  Cs3
 BYTE   W36
 BYTE   As2
 BYTE   N11  Ds3
 BYTE   W36
 BYTE   PEND 
//  #09 //017   ----------------------------------------
Label_0117104E:
 BYTE   N11  Gn2  v096
 BYTE   N11  Cn3
 BYTE   W36
 BYTE   N23  En2
 BYTE   N23  Bn2
 BYTE   N23  En3
 BYTE   W12
 BYTE   W12
 BYTE   N11  Ds2
 BYTE   N11  As2
 BYTE   N11  Ds3
 BYTE   W12
 BYTE   Cs2
 BYTE   N11  Gs2
 BYTE   N11  Cs3
 BYTE   W12
 BYTE   Gs1
 BYTE   N11  Ds2
 BYTE   N11  Gs2
 BYTE   W12
 BYTE   PEND 
//  #09 //018   ----------------------------------------
Label_01171070:
 BYTE   W24
 BYTE   N11  As2  v096
 BYTE   N11  Ds3
 BYTE   W36
 BYTE   Cs3
 BYTE   N11  Fs3
 BYTE   W24
 BYTE   N23  Gs2
 BYTE   N23  Cs3
 BYTE   W12
 BYTE   PEND 
//  #09 //019   ----------------------------------------
 BYTE   W96
//  #09 //020   ----------------------------------------
Label_01171082:
 BYTE   W24
 BYTE   N11  Cn3  v096
 BYTE   N11  Fn3
 BYTE   W36
 BYTE   Ds3
 BYTE   N11  Gs3
 BYTE   W36
 BYTE   PEND 
//  #09 //021   ----------------------------------------
 BYTE   N23  En3
 BYTE   N23  Gn3
 BYTE   W36
 BYTE   Cn3
 BYTE   N23  En3
 BYTE   W12
 BYTE   W36
 BYTE   N32  Bn2
 BYTE   N32  Ds3
 BYTE   W12
//  #09 //022   ----------------------------------------
Label_0117109D:
 BYTE   W24
 BYTE   N11  Cs3  v096
 BYTE   N11  Fn3
 BYTE   W24
 BYTE   Ds3
 BYTE   N11  Fs3
 BYTE   W24
 BYTE   Fn3
 BYTE   N11  Gs3
 BYTE   W12
 BYTE   N32  Cs3
 BYTE   N32  Fn3
 BYTE   W12
 BYTE   PEND 
//  #09 //023   ----------------------------------------
Label_011710B2:
 BYTE   W24
 BYTE   N11  Ds3  v096
 BYTE   N11  Gs3
 BYTE   W24
 BYTE   Fn3
 BYTE   N11  Gs3
 BYTE   W24
 BYTE   Cs3
 BYTE   N11  Fn3
 BYTE   W12
 BYTE   N11
 BYTE   N11  Gs3
 BYTE   W12
 BYTE   PEND 
//  #09 //024   ----------------------------------------
 BYTE   PATT
  POIN2 Label_01171042
//  #09 //025   ----------------------------------------
 BYTE   PATT
  POIN2 Label_0117104E
//  #09 //026   ----------------------------------------
 BYTE   PATT
  POIN2 Label_01171070
//  #09 //027   ----------------------------------------
 BYTE   W96
//  #09 //028   ----------------------------------------
 BYTE   PATT
  POIN2 Label_01171082
//  #09 //029   ----------------------------------------
 BYTE   N23  En3  v096
 BYTE   N23  Gn3
 BYTE   W36
 BYTE   Cn3
 BYTE   N23  En3
 BYTE   W12
 BYTE   W36
 BYTE   Bn2
 BYTE   N23  Ds3
 BYTE   W12
//  #09 //030   ----------------------------------------
 BYTE   W96
//  #09 //031   ----------------------------------------
Label_011710EB:
 BYTE   W84
 BYTE   N11  Fn2  v127
 BYTE   W12
 BYTE   PEND 
//  #09 //032   ----------------------------------------
Label_011710F1:
 BYTE   N68  Fs2  v127
 BYTE   W72
 BYTE   N05  Fn2
 BYTE   W12
 BYTE   Fs2
 BYTE   W12
 BYTE   PEND 
//  #09 //033   ----------------------------------------
Label_011710FB:
 BYTE   N68  Cs3  v127
 BYTE   W72
 BYTE   N05  Cn3
 BYTE   W12
 BYTE   Cs3
 BYTE   W12
 BYTE   PEND 
//  #09 //034   ----------------------------------------
 BYTE   TIE  Gs3
 BYTE   W96
//  #09 //035   ----------------------------------------
Label_01171108:
 BYTE   W68
 BYTE   W03
 BYTE   PEND 
 BYTE   EOT
 BYTE   Gs3
 BYTE   W24
 BYTE   W01
//  #09 //036   ----------------------------------------
 BYTE   W96
//  #09 //037   ----------------------------------------
 BYTE   W96
//  #09 //038   ----------------------------------------
 BYTE   W96
//  #09 //039   ----------------------------------------
 BYTE   W96
//  #09 //040   ----------------------------------------
 BYTE   W96
//  #09 //041   ----------------------------------------
 BYTE   W96
//  #09 //042   ----------------------------------------
 BYTE   W96
//  #09 //043   ----------------------------------------
 BYTE   W96
//  #09 //044   ----------------------------------------
 BYTE   W96
//  #09 //045   ----------------------------------------
 BYTE   W72
 BYTE   N05  As1  v112
 BYTE   W06
 BYTE   Cn2
 BYTE   W06
 BYTE   Cs2
 BYTE   W06
 BYTE   Ds2
 BYTE   W06
//  #09 //046   ----------------------------------------
Label_01171123:
 BYTE   N11  Cn2  v112
 BYTE   N05  Fn2
 BYTE   N05  As2  v096
 BYTE   W12
 BYTE   N11  Cn2  v112
 BYTE   N05  Fn2
 BYTE   N05  As2  v096
 BYTE   W24
 BYTE   N11  Cn2  v112
 BYTE   N05  Fn2
 BYTE   N05  As2  v096
 BYTE   W12
 BYTE   N11  Cn2  v112
 BYTE   N05  Fn2
 BYTE   N05  As2  v096
 BYTE   W24
 BYTE   N11  Cn2  v112
 BYTE   N05  Fn2
 BYTE   N05  As2  v096
 BYTE   W12
 BYTE   N11  Cn2  v112
 BYTE   N05  Fn2
 BYTE   N05  An2  v096
 BYTE   W12
 BYTE   PEND 
//  #09 //047   ----------------------------------------
Label_0117115A:
 BYTE   W84
 BYTE   N92  Fs1  v096
 BYTE   N92  Fs2
 BYTE   W12
 BYTE   PEND 
//  #09 //048   ----------------------------------------
Label_01171162:
 BYTE   W72
 BYTE   W12
 BYTE   TIE  Gs1  v096
 BYTE   TIE  Gs2
 BYTE   W12
 BYTE   PEND 
//  #09 //049   ----------------------------------------
Label_0117116B:
 BYTE   W92
 BYTE   W03
 BYTE   PEND 
 BYTE   EOT
 BYTE   Gs1  v056
 BYTE   W01
//  #09 //050   ----------------------------------------
Label_01171172:
 BYTE   N80  Fn1  v096
 BYTE   N80  Fn2
 BYTE   W72
 BYTE   W12
 BYTE   TIE  As1
 BYTE   TIE  As2
 BYTE   W12
 BYTE   PEND 
//  #09 //051   ----------------------------------------
 BYTE   PATT
  POIN2 Label_0117116B
//  #09 //052   ----------------------------------------
 BYTE   EOT
 BYTE   As1  v058
 BYTE   W01
 BYTE   W96
//  #09 //053   ----------------------------------------
Label_01171189:
 BYTE   W84
 BYTE   N23  As1  v096
 BYTE   N23  Cs2
 BYTE   N23  As2
 BYTE   N23  Cs3
 BYTE   W12
 BYTE   PEND 
//  #09 //054   ----------------------------------------
Label_01171195:
 BYTE   W12
 BYTE   N05  An1  v096
 BYTE   N05  Cn2
 BYTE   N05  An2
 BYTE   N05  Cn3
 BYTE   W12
 BYTE   As1
 BYTE   N05  Cs2
 BYTE   N05  As2
 BYTE   N05  Cs3
 BYTE   W12
 BYTE   N23  Cn2
 BYTE   N23  Ds2
 BYTE   N23  Cn3
 BYTE   N23  Ds3
 BYTE   W12
 BYTE   W12
 BYTE   N05  As1
 BYTE   N05  Cs2
 BYTE   N05  As2
 BYTE   N05  Cs3
 BYTE   W12
 BYTE   Cn2
 BYTE   N05  Ds2
 BYTE   N05  Cn3
 BYTE   N05  Ds3
 BYTE   W12
 BYTE   N23  Cs2
 BYTE   N23  Fn2
 BYTE   N23  Cs3
 BYTE   N23  Fn3
 BYTE   W12
 BYTE   PEND 
//  #09 //055   ----------------------------------------
Label_011711CD:
 BYTE   W24
 BYTE   N11  Gs1  v096
 BYTE   N11  Gs2
 BYTE   W24
 BYTE   Gn1
 BYTE   N11  Gn2
 BYTE   W12
 BYTE   Fs1
 BYTE   N11  Fs2
 BYTE   W24
 BYTE   N92  Fs1
 BYTE   N92  Fs2
 BYTE   W12
 BYTE   PEND 
//  #09 //056   ----------------------------------------
 BYTE   PATT
  POIN2 Label_01171162
//  #09 //057   ----------------------------------------
 BYTE   PATT
  POIN2 Label_0117116B
//  #09 //058   ----------------------------------------
 BYTE   EOT
 BYTE   Gs1  v056
 BYTE   W01
//  #09 //059   ----------------------------------------
 BYTE   PATT
  POIN2 Label_01171172
//  #09 //060   ----------------------------------------
 BYTE   PATT
  POIN2 Label_0117116B
//  #09 //061   ----------------------------------------
 BYTE   EOT
 BYTE   As1  v058
 BYTE   W01
 BYTE   N11  As1  v096
 BYTE   N11  Ds2
 BYTE   N44  Fs2
 BYTE   W12
 BYTE   N11  As1
 BYTE   N11  Ds2
 BYTE   W36
 BYTE   As1
 BYTE   N11  Ds2
 BYTE   N44  Fn2
 BYTE   N44  Cs3
 BYTE   W12
 BYTE   N11  As1
 BYTE   N11  Ds2
 BYTE   W36
//  #09 //062   ----------------------------------------
 BYTE   Cn2
 BYTE   N44  Ds2
 BYTE   N11  Fn2
 BYTE   N44  Cn3
 BYTE   W12
 BYTE   N11  Cn2
 BYTE   N11  Fn2
 BYTE   W36
 BYTE   Cn2
 BYTE   N11  Fn2
 BYTE   N44  Gs2
 BYTE   N44  Ds3
 BYTE   W12
 BYTE   N11  Cn2
 BYTE   N11  Fn2
 BYTE   W36
//  #09 //063   ----------------------------------------
Label_01171232:
 BYTE   N11  As1  v096
 BYTE   N11  Fn2
 BYTE   N11  As2
 BYTE   N11  Ds3
 BYTE   W12
 BYTE   As1
 BYTE   N11  Fn2
 BYTE   N11  As2
 BYTE   N11  Ds3
 BYTE   W24
 BYTE   As1
 BYTE   N11  Fn2
 BYTE   N11  As2
 BYTE   N11  Ds3
 BYTE   W12
 BYTE   As1
 BYTE   N11  Fn2
 BYTE   N11  As2
 BYTE   N11  Ds3
 BYTE   W24
 BYTE   As1
 BYTE   N11  Fn2
 BYTE   N11  As2
 BYTE   N11  Ds3
 BYTE   W12
 BYTE   As1
 BYTE   N11  Fn2
 BYTE   N11  As2
 BYTE   N11  Ds3
 BYTE   W12
 BYTE   PEND 
//  #09 //064   ----------------------------------------
Label_01171265:
 BYTE   W12
 BYTE   N11  As1  v096
 BYTE   N11  Fn2
 BYTE   N11  As2
 BYTE   N11  Ds3
 BYTE   W12
 BYTE   As1
 BYTE   N11  Fn2
 BYTE   N11  As2
 BYTE   N11  Ds3
 BYTE   W24
 BYTE   As1
 BYTE   N11  Fn2
 BYTE   N11  As2
 BYTE   N11  Dn3
 BYTE   W48
 BYTE   PEND 
//  #09 //065   ----------------------------------------
 BYTE   PATT
  POIN2 Label_01171232
//  #09 //066   ----------------------------------------
 BYTE   PATT
  POIN2 Label_01171265
//  #09 //067   ----------------------------------------
 BYTE   W96
//  #09 //068   ----------------------------------------
 BYTE   W96
//  #09 //069   ----------------------------------------
 BYTE   W96
//  #09 //070   ----------------------------------------
 BYTE   W96
//  #09 //071   ----------------------------------------
 BYTE   W96
//  #09 //072   ----------------------------------------
 BYTE   W96
//  #09 //073   ----------------------------------------
 BYTE   W96
//  #09 //074   ----------------------------------------
 BYTE   W96
//  #09 //075   ----------------------------------------
Label_01171293:
 BYTE   N11  As1  v096
 BYTE   W12
 BYTE   N11
 BYTE   W12
 BYTE   Cs2
 BYTE   W12
 BYTE   As1
 BYTE   W12
 BYTE   En2
 BYTE   W12
 BYTE   Ds2
 BYTE   W12
 BYTE   Cs2
 BYTE   W12
 BYTE   N23  As1
 BYTE   W12
 BYTE   PEND 
//  #09 //076   ----------------------------------------
Label_011712A7:
 BYTE   W12
 BYTE   N11  As1  v096
 BYTE   W12
 BYTE   Cs2
 BYTE   W12
 BYTE   As1
 BYTE   W12
 BYTE   Fn1
 BYTE   W12
 BYTE   En1
 BYTE   W12
 BYTE   Ds1
 BYTE   W12
 BYTE   Cs1
 BYTE   W12
 BYTE   PEND 
//  #09 //077   ----------------------------------------
Label_011712B9:
 BYTE   N11  As1  v096
 BYTE   W12
 BYTE   N11
 BYTE   W12
 BYTE   Cs2
 BYTE   W12
 BYTE   As1
 BYTE   W12
 BYTE   En2
 BYTE   W12
 BYTE   Ds2
 BYTE   W12
 BYTE   Cs2
 BYTE   W12
 BYTE   N23  Fs1
 BYTE   W12
 BYTE   PEND 
//  #09 //078   ----------------------------------------
 BYTE   W12
 BYTE   N11  As1
 BYTE   W12
 BYTE   Cs2
 BYTE   W12
 BYTE   N23  Gs1
 BYTE   W12
 BYTE   W48
//  #09 //079   ----------------------------------------
 BYTE   PATT
  POIN2 Label_01171293
//  #09 //080   ----------------------------------------
 BYTE   PATT
  POIN2 Label_011712A7
//  #09 //081   ----------------------------------------
 BYTE   PATT
  POIN2 Label_011712B9
//  #09 //082   ----------------------------------------
 BYTE   W12
 BYTE   N11  As1  v096
 BYTE   W12
 BYTE   Fs2
 BYTE   W12
 BYTE   N23  Gs2
 BYTE   W12
 BYTE   W12
 BYTE   N11  Ds2
 BYTE   W12
 BYTE   Gs2
 BYTE   W12
 BYTE   Cn3
 BYTE   W12
//  #09 //083   ----------------------------------------
Label_011712F8:
 BYTE   N11  As1  v096
 BYTE   N11  As2
 BYTE   N11  Ds3
 BYTE   W12
 BYTE   As1
 BYTE   N11  As2
 BYTE   N11  Ds3
 BYTE   W24
 BYTE   As1
 BYTE   N11  As2
 BYTE   N11  Ds3
 BYTE   W12
 BYTE   As1
 BYTE   N11  As2
 BYTE   N11  Ds3
 BYTE   W24
 BYTE   As1
 BYTE   N11  As2
 BYTE   N11  Ds3
 BYTE   W12
 BYTE   As1
 BYTE   N11  As2
 BYTE   N11  Ds3
 BYTE   W12
 BYTE   PEND 
//  #09 //084   ----------------------------------------
Label_0117131F:
 BYTE   W12
 BYTE   N11  As1  v096
 BYTE   N11  As2
 BYTE   N11  Ds3
 BYTE   W12
 BYTE   As1
 BYTE   N11  As2
 BYTE   N11  Ds3
 BYTE   W24
 BYTE   As1
 BYTE   N11  As2
 BYTE   N11  Dn3
 BYTE   W48
 BYTE   PEND 
//  #09 //085   ----------------------------------------
 BYTE   PATT
  POIN2 Label_011712F8
//  #09 //086   ----------------------------------------
 BYTE   PATT
  POIN2 Label_0117131F
//  #09 //087   ----------------------------------------
 BYTE   GoTo
  POIN2 Label_01170FB5
//  #09 //088   ----------------------------------------
 BYTE   N92  As1  v064
 BYTE   N05  As2  v096
 BYTE   W12
 BYTE   Fn2
 BYTE   W12
 BYTE   As2
 BYTE   W12
 BYTE   Fn2
 BYTE   W12
 BYTE   As2
 BYTE   W12
 BYTE   Fn2
 BYTE   W12
 BYTE   As2
 BYTE   W12
 BYTE   Fn2
 BYTE   W12
//  #09 //089   ----------------------------------------
 BYTE   Fn2  v064
 BYTE   W12
 BYTE   Cn2  v096
 BYTE   W12
 BYTE   Fn2
 BYTE   W12
 BYTE   Cn2
 BYTE   W12
 BYTE   Fn2
 BYTE   W12
 BYTE   Cn2
 BYTE   W12
 BYTE   Fn2
 BYTE   W12
 BYTE   Cn2
 BYTE   W12
//  #09 //090   ----------------------------------------
 BYTE   Gs2  v064
 BYTE   W12
 BYTE   Ds2  v096
 BYTE   W12
 BYTE   Gs2
 BYTE   W12
 BYTE   Ds2
 BYTE   W12
 BYTE   Gs2
 BYTE   W12
 BYTE   Ds2
 BYTE   W12
 BYTE   Gs2
 BYTE   W12
 BYTE   Ds2
 BYTE   W12
//  #09 //091   ----------------------------------------
 BYTE   As2  v064
 BYTE   W12
 BYTE   Fn2  v096
 BYTE   W12
 BYTE   As2
 BYTE   W12
 BYTE   Fn2
 BYTE   W12
 BYTE   Cn3  v064
 BYTE   W12
 BYTE   Gn2  v096
 BYTE   W12
 BYTE   Cn3
 BYTE   W12
 BYTE   Gn2
 BYTE   W12
//  #09 //092   ----------------------------------------
 BYTE   Cn3  v064
 BYTE   W12
 BYTE   Gn2  v096
 BYTE   W12
 BYTE   Cn3
 BYTE   W12
 BYTE   Gn2
 BYTE   W12
 BYTE   Cn3
 BYTE   W12
 BYTE   Gn2
 BYTE   W12
 BYTE   Cn3
 BYTE   W12
 BYTE   Gn2
 BYTE   W12
//  #09 //093   ----------------------------------------
 BYTE   Gn2  v064
 BYTE   W12
 BYTE   Dn2  v096
 BYTE   W12
 BYTE   Gn2
 BYTE   W12
 BYTE   Dn2
 BYTE   W12
 BYTE   Gn2
 BYTE   W12
 BYTE   Dn2
 BYTE   W12
 BYTE   Gn2
 BYTE   W12
 BYTE   Dn2
 BYTE   W12
//  #09 //094   ----------------------------------------
 BYTE   As2  v064
 BYTE   W12
 BYTE   Fn2  v096
 BYTE   W12
 BYTE   As2
 BYTE   W12
 BYTE   Fn2
 BYTE   W12
 BYTE   As2
 BYTE   W12
 BYTE   Fn2
 BYTE   W12
 BYTE   As2
 BYTE   W12
 BYTE   Fn2
 BYTE   W12
//  #09 //095   ----------------------------------------
 BYTE   Cn3  v064
 BYTE   W12
 BYTE   Gn2  v096
 BYTE   W12
 BYTE   Cn3
 BYTE   W12
 BYTE   Gn2
 BYTE   W12
 BYTE   Dn3  v064
 BYTE   W12
 BYTE   An2  v096
 BYTE   W12
 BYTE   Dn3
 BYTE   W12
 BYTE   An2
 BYTE   W12
//  #09 //096   ----------------------------------------
 BYTE   TIE  As2
 BYTE   TIE  Ds3  v064
 BYTE   W04
 BYTE   W05
 BYTE   W03
 BYTE   W02
 BYTE   W05
 BYTE   W05
 BYTE   W04
 BYTE   W05
 BYTE   W04
 BYTE   W01
 BYTE   W05
 BYTE   W05
 BYTE   W01
 BYTE   W03
 BYTE   W05
 BYTE   W04
 BYTE   W01
 BYTE   W05
 BYTE   W05
 BYTE   W02
 BYTE   W02
 BYTE   W05
 BYTE   W05
 BYTE   W05
 BYTE   W05
//  #09 //097   ----------------------------------------
 BYTE   W03
 BYTE   W01
 BYTE   W05
 BYTE   W05
 BYTE   W01
 BYTE   W04
 BYTE   W05
 BYTE   W03
 BYTE   W01
 BYTE   W05
 BYTE   W05
 BYTE   W02
 BYTE   W03
 BYTE   W05
 BYTE   W04
 BYTE   W05
 BYTE   W05
 BYTE   W03
 BYTE   W02
 BYTE   W05
 BYTE   W04
 BYTE   W01
 BYTE   W04
 BYTE   W05
 BYTE   W03
 BYTE   W02
 BYTE   W05
//  #09 //098   ----------------------------------------
 BYTE   W04
 BYTE   W02
 BYTE   W03
 BYTE   W05
 BYTE   W04
 BYTE   W01
 BYTE   W05
 BYTE   W04
 BYTE   W03
 BYTE   W02
 BYTE   W05
 BYTE   W05
 BYTE   W05
 BYTE   W04
 BYTE   W03
 BYTE   W02
 BYTE   W05
 BYTE   W05
 BYTE   W01
 BYTE   W04
 BYTE   W04
 BYTE   W04
 BYTE   W01
 BYTE   W05
 BYTE   W05
 BYTE   W01
 BYTE   W04
//  #09 //099   ----------------------------------------
 BYTE   W04
 BYTE   W05
 BYTE   W05
 BYTE   W05
 BYTE   W02
 BYTE   W03
 BYTE   W04
 BYTE   W05
 BYTE   W01
 BYTE   W04
 BYTE   W05
 BYTE   W03
 BYTE   W02
 BYTE   W04
 BYTE   W05
 BYTE   W01
 BYTE   W04
 BYTE   W05
 BYTE   W04
 BYTE   W01
 BYTE   W04
 BYTE   W05
 BYTE   W02
 BYTE   W03
 BYTE   W05
 BYTE   W04
 BYTE   EOT
 BYTE   As2  v063
 BYTE   W01
//  #09 //100   ----------------------------------------
 BYTE   N92  Gn2  v036
 BYTE   W96
//  #09 //101   ----------------------------------------
 BYTE   Fn2
 BYTE   W96
//  #09 //102   ----------------------------------------
 BYTE   Ds2
 BYTE   W96
//  #09 //103   ----------------------------------------
Label_01171455:
 BYTE   N92  As1  v036
 BYTE   W96
 BYTE   PEND 
//  #09 //104   ----------------------------------------
 BYTE   Cn2
 BYTE   W96
//  #09 //105   ----------------------------------------
 BYTE   PATT
  POIN2 Label_01171455
//  #09 //106   ----------------------------------------
 BYTE   N92  Cs2  v036
 BYTE   W96
//  #09 //107   ----------------------------------------
Label_01171465:
 BYTE   N92  Dn2  v036
 BYTE   W96
 BYTE   PEND 
//  #09 //108   ----------------------------------------
 BYTE   Gn1
 BYTE   N92  As1
 BYTE   W96
//  #09 //109   ----------------------------------------
 BYTE   Fn1
 BYTE   N92  An1
 BYTE   W96
//  #09 //110   ----------------------------------------
 BYTE   Ds1
 BYTE   N92  Gn1
 BYTE   W96
//  #09 //111   ----------------------------------------
 BYTE   Dn1
 BYTE   N92  As1
 BYTE   W96
//  #09 //112   ----------------------------------------
 BYTE   Gn1
 BYTE   N92  Gn2
 BYTE   W96
//  #09 //113   ----------------------------------------
 BYTE   Fn1
 BYTE   N92  Fn2
 BYTE   W96
//  #09 //114   ----------------------------------------
 BYTE   Gn1
 BYTE   N92  Cs2
 BYTE   W96
//  #09 //115   ----------------------------------------
 BYTE   An1
 BYTE   N92  Dn2
 BYTE   W96
//  #09 //116   ----------------------------------------
 BYTE   Gn1
 BYTE   W96
//  #09 //117   ----------------------------------------
Label_0117148C:
 BYTE   N92  Fn1  v036
 BYTE   W96
 BYTE   PEND 
//  #09 //118   ----------------------------------------
 BYTE   Ds1
 BYTE   W96
//  #09 //119   ----------------------------------------
 BYTE   PATT
  POIN2 Label_0117148C
//  #09 //120   ----------------------------------------
 BYTE   PATT
  POIN2 Label_01171465
//  #09 //121   ----------------------------------------
 BYTE   N23  Fn2  v036
 BYTE   W24
 BYTE   Ds2
 BYTE   W24
 BYTE   Dn2
 BYTE   W24
 BYTE   Fn1
 BYTE   W24
//  #09 //122   ----------------------------------------
 BYTE   TIE
 BYTE   W05
 BYTE   W06
 BYTE   W05
 BYTE   W06
 BYTE   W06
 BYTE   W05
 BYTE   W06
 BYTE   W06
 BYTE   W05
 BYTE   W06
 BYTE   W06
 BYTE   W05
 BYTE   W06
 BYTE   W06
 BYTE   W05
 BYTE   W06
 BYTE   W06
//  #09 //123   ----------------------------------------
 BYTE   W44
 BYTE   W03
 BYTE   EOT
 BYTE   W01
 BYTE   N44  Cn2  v016
 BYTE   W01
 BYTE   W01
 BYTE   W02
 BYTE   W01
 BYTE   W02
 BYTE   W01
 BYTE   W02
 BYTE   W01
 BYTE   W02
 BYTE   W01
 BYTE   W02
 BYTE   W01
 BYTE   W01
 BYTE   W02
 BYTE   W01
 BYTE   W02
 BYTE   W01
 BYTE   W02
 BYTE   W01
 BYTE   W02
 BYTE   W01
 BYTE   W02
 BYTE   W01
 BYTE   W01
 BYTE   W02
 BYTE   W01
 BYTE   W02
 BYTE   W01
 BYTE   W02
 BYTE   W01
 BYTE   W02
 BYTE   W01
 BYTE   W02
//  #09 //124   ----------------------------------------
Label_011714E1:
 BYTE   N92  Gn1  v052
 BYTE   N92  Gn2
 BYTE   W96
 BYTE   PEND 
//  #09 //125   ----------------------------------------
Label_011714E8:
 BYTE   N92  Fn1  v052
 BYTE   N92  Fn2
 BYTE   W96
 BYTE   PEND 
//  #09 //126   ----------------------------------------
Label_011714EF:
 BYTE   N92  Ds1  v052
 BYTE   N92  Ds2
 BYTE   W96
 BYTE   PEND 
//  #09 //127   ----------------------------------------
 BYTE   PATT
  POIN2 Label_011714E8
//  #09 //128   ----------------------------------------
 BYTE   PATT
  POIN2 Label_011714E1
//  #09 //129   ----------------------------------------
 BYTE   PATT
  POIN2 Label_011714E8
//  #09 //130   ----------------------------------------
 BYTE   PATT
  POIN2 Label_011714EF
//  #09 //131   ----------------------------------------
 BYTE   PATT
  POIN2 Label_011714E8
//  #09 //132   ----------------------------------------
 BYTE   TIE  Cn2  v052
 BYTE   N92  Cn3
 BYTE   W96
//  #09 //133   ----------------------------------------
 BYTE   Gn2
 BYTE   W96
//  #09 //134   ----------------------------------------
 BYTE   Ds2
 BYTE   W96
//  #09 //135   ----------------------------------------
 BYTE   N32  Cn3
 BYTE   W36
 BYTE   Gn2
 BYTE   W12
 BYTE   W24
 BYTE   N23  Cn3
 BYTE   W23
 BYTE   EOT
 BYTE   Cn2
 BYTE   W01
//  #09 //136   ----------------------------------------
 BYTE   N92  Gn2
 BYTE   N92  Cn3
 BYTE   W08
 BYTE   W08
 BYTE   W08
 BYTE   W08
 BYTE   W08
 BYTE   W09
 BYTE   W08
 BYTE   W08
 BYTE   W08
 BYTE   W08
 BYTE   W08
 BYTE   W07
//  #09 //137   ----------------------------------------
 BYTE   En2  v060
 BYTE   N92  An2
 BYTE   W02
 BYTE   W08
 BYTE   W08
 BYTE   W08
 BYTE   W08
 BYTE   W08
 BYTE   W09
 BYTE   W08
 BYTE   W08
 BYTE   W08
 BYTE   W08
 BYTE   W08
 BYTE   W05
//  #09 //138   ----------------------------------------
 BYTE   Fn2  v072
 BYTE   N92  As2
 BYTE   W04
 BYTE   W08
 BYTE   W08
 BYTE   W08
 BYTE   W08
 BYTE   W08
 BYTE   W09
 BYTE   W08
 BYTE   W08
 BYTE   W08
 BYTE   W08
 BYTE   W09
 BYTE   W02
//  #09 //139   ----------------------------------------
 BYTE   N23  Fn2  v084
 BYTE   N23  As2
 BYTE   W06
 BYTE   W08
 BYTE   W08
 BYTE   W08
 BYTE   W06
 BYTE   Fn2  v088
 BYTE   N23  As2
 BYTE   W02
 BYTE   W09
 BYTE   W01
 BYTE   W07
 BYTE   W08
 BYTE   W08
 BYTE   W01
 BYTE   Fn2  v096
 BYTE   N23  As2
 BYTE   W07
 BYTE   W08
 BYTE   W09
//  #09 //140   ----------------------------------------
 BYTE   PATT
  POIN2 Label_01170FE2
//  #09 //141   ----------------------------------------
 BYTE   PATT
  POIN2 Label_01170FF9
//  #09 //142   ----------------------------------------
 BYTE   PATT
  POIN2 Label_01170FE2
//  #09 //143   ----------------------------------------
 BYTE   PATT
  POIN2 Label_01171015
//  #09 //144   ----------------------------------------
 BYTE   PATT
  POIN2 Label_01170FE2
//  #09 //145   ----------------------------------------
 BYTE   PATT
  POIN2 Label_01170FF9
//  #09 //146   ----------------------------------------
 BYTE   PATT
  POIN2 Label_01170FE2
//  #09 //147   ----------------------------------------
 BYTE   PATT
  POIN2 Label_01171015
//  #09 //148   ----------------------------------------
 BYTE   W24
 BYTE   N11  Fn2  v096
 BYTE   N11  Gs2
 BYTE   N11  Cs3
 BYTE   W36
 BYTE   Fs2
 BYTE   N11  As2
 BYTE   N11  Ds3
 BYTE   W36
//  #09 //149   ----------------------------------------
 BYTE   En2
 BYTE   N11  An2
 BYTE   N11  Cn3
 BYTE   W36
 BYTE   N23  En2
 BYTE   N23  Bn2
 BYTE   N23  En3
 BYTE   W12
 BYTE   W12
 BYTE   N11  Ds2
 BYTE   N11  As2
 BYTE   N11  Ds3
 BYTE   W12
 BYTE   Cs2
 BYTE   N11  Gs2
 BYTE   N11  Cs3
 BYTE   W12
 BYTE   Gs1
 BYTE   N11  Ds2
 BYTE   N11  Gs2
 BYTE   W12
//  #09 //150   ----------------------------------------
 BYTE   W12
 BYTE   As2
 BYTE   N11  Fn3
 BYTE   W12
 BYTE   Bn2
 BYTE   N11  Ds3
 BYTE   N11  Fs3
 BYTE   W36
 BYTE   Bn2
 BYTE   N11  Cs3
 BYTE   N11  Fs3
 BYTE   W24
 BYTE   N23  As2
 BYTE   N23  Fn3
 BYTE   W12
//  #09 //151   ----------------------------------------
 BYTE   W96
//  #09 //152   ----------------------------------------
 BYTE   W36
 BYTE   Cs3
 BYTE   N23  Fn3
 BYTE   N23  As3
 BYTE   W12
 BYTE   W12
 BYTE   N11  Cs3
 BYTE   N11  Fn3
 BYTE   N11  Gs3
 BYTE   W12
 BYTE   Fn3
 BYTE   N11  Gs3
 BYTE   N11  Cn4
 BYTE   W24
//  #09 //153   ----------------------------------------
 BYTE   N17  En3
 BYTE   N17  Gn3
 BYTE   N17  Cn4
 BYTE   W36
 BYTE   N23  Cn3
 BYTE   N23  En3
 BYTE   N23  Gn3
 BYTE   W12
 BYTE   W12
 BYTE   N11  Cn3
 BYTE   N11  En3
 BYTE   N11  Gn3
 BYTE   W12
 BYTE   As2
 BYTE   N11  Dn3
 BYTE   N11  Fn3
 BYTE   W12
 BYTE   N32  Fs2
 BYTE   N32  Bn2
 BYTE   N32  Ds3
 BYTE   W12
//  #09 //154   ----------------------------------------
 BYTE   PATT
  POIN2 Label_0117109D
//  #09 //155   ----------------------------------------
 BYTE   PATT
  POIN2 Label_011710B2
//  #09 //156   ----------------------------------------
 BYTE   W24
 BYTE   N11  As2  v096
 BYTE   N11  Cs3
 BYTE   N11  Fn3
 BYTE   W24
 BYTE   As2
 BYTE   N11  Cs3
 BYTE   N11  Fn3
 BYTE   W24
 BYTE   As2
 BYTE   N11  Cs3
 BYTE   N11  Fn3
 BYTE   W12
 BYTE   N23  Cn3
 BYTE   N23  En3
 BYTE   N23  An3
 BYTE   W12
//  #09 //157   ----------------------------------------
 BYTE   W12
 BYTE   N11  Cn3
 BYTE   N11  En3
 BYTE   N11  An3
 BYTE   W12
 BYTE   Cn3
 BYTE   N11  En3
 BYTE   N11  An3
 BYTE   W12
 BYTE   N23  En2
 BYTE   N23  Bn2
 BYTE   N23  En3
 BYTE   N23  An3
 BYTE   N23  Cn4
 BYTE   W12
 BYTE   W12
 BYTE   N11  Ds2
 BYTE   N11  As2
 BYTE   N11  Ds3
 BYTE   N11  Gs3
 BYTE   N11  Cn4
 BYTE   W12
 BYTE   Cs2
 BYTE   N11  Gs2
 BYTE   N11  Cs3
 BYTE   N11  Fs3
 BYTE   N11  As3
 BYTE   W12
 BYTE   Gs1
 BYTE   N11  Ds2
 BYTE   N11  Gs2
 BYTE   N11  Cs3
 BYTE   N11  Fn3
 BYTE   W12
//  #09 //158   ----------------------------------------
 BYTE   W24
 BYTE   N05  Bn2
 BYTE   N05  Ds3
 BYTE   N05  Fs3
 BYTE   W12
 BYTE   Bn2
 BYTE   N05  Ds3
 BYTE   N05  Fs3
 BYTE   W12
 BYTE   Bn2
 BYTE   N05  Ds3
 BYTE   N05  Fs3
 BYTE   W12
 BYTE   N11  Ds3
 BYTE   N11  Fs3
 BYTE   N11  Bn3
 BYTE   W12
 BYTE   Ds3
 BYTE   N11  Fs3
 BYTE   N11  Bn3
 BYTE   W12
 BYTE   N44  Cs3
 BYTE   N44  Fn3
 BYTE   N44  As3
 BYTE   W12
//  #09 //159   ----------------------------------------
 BYTE   W36
 BYTE   N23  Cs3
 BYTE   N23  Fn3
 BYTE   N23  Gs3
 BYTE   W12
 BYTE   W12
 BYTE   N11  As2
 BYTE   N11  Cs3
 BYTE   N11  Fn3
 BYTE   W12
 BYTE   Gs2
 BYTE   N11  Cn3
 BYTE   N11  Ds3
 BYTE   W12
 BYTE   Fn2
 BYTE   N11  Gs2
 BYTE   N11  Cn3
 BYTE   W12
//  #09 //160   ----------------------------------------
 BYTE   W24
 BYTE   Fn3
 BYTE   N11  Gs3
 BYTE   N11  Cs4
 BYTE   W36
 BYTE   Fs3
 BYTE   N11  As3
 BYTE   N11  Ds4
 BYTE   W36
//  #09 //161   ----------------------------------------
 BYTE   En3
 BYTE   N11  An3
 BYTE   N11  Cn4
 BYTE   W36
 BYTE   N23  Gn2
 BYTE   N23  Cn3
 BYTE   N23  En3
 BYTE   W12
 BYTE   W36
 BYTE   Fs2
 BYTE   N23  Bn2
 BYTE   N23  Ds3
 BYTE   W12
//  #09 //162   ----------------------------------------
 BYTE   W96
//  #09 //163   ----------------------------------------
 BYTE   PATT
  POIN2 Label_011710EB
//  #09 //164   ----------------------------------------
 BYTE   PATT
  POIN2 Label_011710F1
//  #09 //165   ----------------------------------------
 BYTE   PATT
  POIN2 Label_011710FB
//  #09 //166   ----------------------------------------
 BYTE   TIE  Gs3  v127
 BYTE   W96
//  #09 //167   ----------------------------------------
 BYTE   PATT
  POIN2 Label_01171108
//  #09 //168   ----------------------------------------
 BYTE   EOT
 BYTE   Gs3
 BYTE   W01
 BYTE   N11  Fn2  v127
 BYTE   W12
 BYTE   Fs2
 BYTE   W12
 BYTE   N68  Cs3
 BYTE   W72
//  #09 //169   ----------------------------------------
 BYTE   N11  Cn3
 BYTE   W12
 BYTE   Cs3
 BYTE   W12
 BYTE   N68  Gs3
 BYTE   W72
//  #09 //170   ----------------------------------------
 BYTE   N11  Fn3
 BYTE   W12
 BYTE   Fs3
 BYTE   W12
 BYTE   TIE  Cs4
 BYTE   W96
//  #09 //171   ----------------------------------------
 BYTE   W92
 BYTE   W03
 BYTE   EOT
 BYTE   W01
//  #09 //172   ----------------------------------------
 BYTE   N11  As1  v096
 BYTE   N11  Ds2
 BYTE   W24
 BYTE   As1
 BYTE   N11  Ds2
 BYTE   W12
 BYTE   N32  As1
 BYTE   N32  Ds2
 BYTE   W12
 BYTE   W24
 BYTE   N11  As1
 BYTE   N11  Ds2
 BYTE   W24
//  #09 //173   ----------------------------------------
 BYTE   Cn2
 BYTE   N11  Fn2
 BYTE   W24
 BYTE   Cn2
 BYTE   N11  Fn2
 BYTE   W12
 BYTE   N32  Cn2
 BYTE   N32  Fn2
 BYTE   W12
 BYTE   W24
 BYTE   N11  Cn2
 BYTE   N11  Fn2
 BYTE   W24
//  #09 //174   ----------------------------------------
 BYTE   Cs2
 BYTE   N11  Fs2
 BYTE   W24
 BYTE   Cs2
 BYTE   N11  Fs2
 BYTE   W12
 BYTE   N32  Cs2
 BYTE   N32  Fs2
 BYTE   W12
 BYTE   W24
 BYTE   N11  Cs2
 BYTE   N11  Fs2
 BYTE   W24
//  #09 //175   ----------------------------------------
 BYTE   Dn2
 BYTE   N11  Gn2
 BYTE   W24
 BYTE   Dn2
 BYTE   N11  Gn2
 BYTE   W12
 BYTE   N32  Dn2
 BYTE   N32  Gn2
 BYTE   W12
 BYTE   W24
 BYTE   N11  Dn2
 BYTE   N11  Gn2
 BYTE   W24
//  #09 //176   ----------------------------------------
 BYTE   N05  Ds2
 BYTE   N05  Gs2
 BYTE   W12
 BYTE   N11  Ds2
 BYTE   N11  Gs2
 BYTE   W24
 BYTE   N05  Ds2
 BYTE   N05  Gs2
 BYTE   W24
 BYTE   Ds2
 BYTE   N05  Gs2
 BYTE   W24
 BYTE   Ds2
 BYTE   N05  Gs2
 BYTE   W12
//  #09 //177   ----------------------------------------
 BYTE   N11  Ds2
 BYTE   N11  Gs2
 BYTE   W12
 BYTE   Cs2
 BYTE   N11  Fs2
 BYTE   W12
 BYTE   As1
 BYTE   N11  Ds2
 BYTE   W12
 BYTE   N23
 BYTE   N23  Gs2
 BYTE   W12
 BYTE   W12
 BYTE   N11  Cs2
 BYTE   N11  Fs2
 BYTE   W12
 BYTE   N05  Ds1  v112
 BYTE   N05  As1
 BYTE   N05  Ds2  v096
 BYTE   W06
 BYTE   Fn1  v112
 BYTE   N05  Cn2
 BYTE   N05  Fn2  v096
 BYTE   W06
 BYTE   Fs1  v112
 BYTE   N05  Cs2
 BYTE   N05  Fs2  v096
 BYTE   W06
 BYTE   Gs1  v112
 BYTE   N05  Ds2
 BYTE   N05  Gs2  v096
 BYTE   W06
//  #09 //178   ----------------------------------------
 BYTE   PATT
  POIN2 Label_01171123
//  #09 //179   ----------------------------------------
 BYTE   PATT
  POIN2 Label_0117115A
//  #09 //180   ----------------------------------------
 BYTE   PATT
  POIN2 Label_01171162
//  #09 //181   ----------------------------------------
 BYTE   PATT
  POIN2 Label_0117116B
//  #09 //182   ----------------------------------------
 BYTE   EOT
 BYTE   Gs1  v056
 BYTE   W01
//  #09 //183   ----------------------------------------
 BYTE   PATT
  POIN2 Label_01171172
//  #09 //184   ----------------------------------------
 BYTE   PATT
  POIN2 Label_0117116B
//  #09 //185   ----------------------------------------
 BYTE   EOT
 BYTE   As1  v058
 BYTE   W01
 BYTE   W96
//  #09 //186   ----------------------------------------
 BYTE   PATT
  POIN2 Label_01171189
//  #09 //187   ----------------------------------------
 BYTE   PATT
  POIN2 Label_01171195
//  #09 //188   ----------------------------------------
 BYTE   PATT
  POIN2 Label_011711CD
//  #09 //189   ----------------------------------------
 BYTE   PATT
  POIN2 Label_01171162
//  #09 //190   ----------------------------------------
 BYTE   PATT
  POIN2 Label_0117116B
//  #09 //191   ----------------------------------------
 BYTE   EOT
 BYTE   Gs1  v056
 BYTE   W01
//  #09 //192   ----------------------------------------
 BYTE   PATT
  POIN2 Label_01171172
//  #09 //193   ----------------------------------------
 BYTE   PATT
  POIN2 Label_0117116B
//  #09 //194   ----------------------------------------
 BYTE   EOT
 BYTE   As1  v058
 BYTE   W01
 BYTE   N11  As1  v096
 BYTE   N11  Ds2
 BYTE   N44  Fs2
 BYTE   N44  As2
 BYTE   W12
 BYTE   N11  As1
 BYTE   N11  Ds2
 BYTE   W36
 BYTE   As1
 BYTE   N11  Ds2
 BYTE   N44  Fn2
 BYTE   N44  Gs2
 BYTE   W12
 BYTE   N11  As1
 BYTE   N11  Ds2
 BYTE   W36
//  #09 //195   ----------------------------------------
 BYTE   Cn2
 BYTE   N11  Fn2
 BYTE   N44  As2
 BYTE   W12
 BYTE   N11  Cn2
 BYTE   N11  Fn2
 BYTE   W36
 BYTE   Cn2
 BYTE   N11  Fn2
 BYTE   N44  Gs2
 BYTE   N44  Cs3
 BYTE   W12
 BYTE   N11  Cn2
 BYTE   N11  Fn2
 BYTE   W36
//  #09 //196   ----------------------------------------
 BYTE   Fs1
 BYTE   N11  Cs2
 BYTE   N11  Fs2
 BYTE   N11  Cs3
 BYTE   N11  Fs3
 BYTE   W12
 BYTE   Fs1
 BYTE   N11  Cs2
 BYTE   N11  Fs2
 BYTE   N11  Cs3
 BYTE   N11  Fs3
 BYTE   W24
 BYTE   Fs1
 BYTE   N11  Cs2
 BYTE   N11  Fs2
 BYTE   N11  Cs3
 BYTE   N11  Fs3
 BYTE   W12
 BYTE   Fs1
 BYTE   N11  Cs2
 BYTE   N11  Fs2
 BYTE   N11  Cs3
 BYTE   N11  Fs3
 BYTE   W24
 BYTE   Fs1
 BYTE   N11  Cs2
 BYTE   N11  Fs2
 BYTE   N11  Cs3
 BYTE   N11  Fs3
 BYTE   W12
 BYTE   Fs1
 BYTE   N11  Cs2
 BYTE   N11  Fs2
 BYTE   N11  Cs3
 BYTE   N11  Fn3
 BYTE   W12
//  #09 //197   ----------------------------------------
 BYTE   W72
 BYTE   Gs1
 BYTE   N11  Ds2
 BYTE   N11  Gs2
 BYTE   W24
//  #09 //198   ----------------------------------------
 BYTE   Gs1
 BYTE   N11  Ds2
 BYTE   N11  Gs2
 BYTE   W84
 BYTE   N92  Bn1
 BYTE   N92  Bn2
 BYTE   W12
//  #09 //199   ----------------------------------------
Label_01171888:
 BYTE   W72
 BYTE   W12
 BYTE   TIE  Cs2  v096
 BYTE   TIE  Cs3
 BYTE   W12
 BYTE   PEND 
//  #09 //200   ----------------------------------------
 BYTE   PATT
  POIN2 Label_0117116B
//  #09 //201   ----------------------------------------
 BYTE   EOT
 BYTE   Cs2  v061
 BYTE   W01
Label_0117189A:
 BYTE   N80  As1  v096
 BYTE   N80  As2
 BYTE   W72
 BYTE   W12
 BYTE   TIE  Ds2
 BYTE   TIE  Ds3
 BYTE   W12
 BYTE   PEND 
//  #09 //202   ----------------------------------------
 BYTE   PATT
  POIN2 Label_0117116B
//  #09 //203   ----------------------------------------
 BYTE   EOT
 BYTE   Ds2  v063
 BYTE   W01
 BYTE   N11  Gs1  v096
 BYTE   N11  Gs2
 BYTE   W24
 BYTE   N05  Gs1
 BYTE   N05  Gs2
 BYTE   W12
 BYTE   N32  Ds2
 BYTE   N32  Ds3
 BYTE   W12
 BYTE   W24
 BYTE   N11  Gs1
 BYTE   N11  Gs2
 BYTE   W24
//  #09 //204   ----------------------------------------
 BYTE   As1
 BYTE   N11  As2
 BYTE   W24
 BYTE   N05  As1
 BYTE   N05  As2
 BYTE   W12
 BYTE   N23  Fn2
 BYTE   N23  Fn3
 BYTE   W12
 BYTE   W36
 BYTE   Ds2
 BYTE   N23  Fs2
 BYTE   N23  Ds3
 BYTE   N23  Fs3
 BYTE   W12
//  #09 //205   ----------------------------------------
 BYTE   W12
 BYTE   N05  Dn2
 BYTE   N05  Fn2
 BYTE   N05  Dn3
 BYTE   N05  Fn3
 BYTE   W12
 BYTE   Ds2
 BYTE   N05  Fs2
 BYTE   N05  Ds3
 BYTE   N05  Fs3
 BYTE   W12
 BYTE   N23  Fn2
 BYTE   N23  Gs2
 BYTE   N23  Fn3
 BYTE   N23  Gs3
 BYTE   W12
 BYTE   W12
 BYTE   N05  Ds2
 BYTE   N05  Fs2
 BYTE   N05  Ds3
 BYTE   N05  Fs3
 BYTE   W12
 BYTE   Fn2
 BYTE   N05  Gs2
 BYTE   N05  Fn3
 BYTE   N05  Gs3
 BYTE   W12
 BYTE   N23  Fs2
 BYTE   N23  As2
 BYTE   N23  Fs3
 BYTE   N23  As3
 BYTE   W12
//  #09 //206   ----------------------------------------
 BYTE   W24
 BYTE   N11  Cs2
 BYTE   N11  Cs3
 BYTE   W24
 BYTE   Cn2
 BYTE   N11  Cn3
 BYTE   W12
 BYTE   Bn1
 BYTE   N11  Bn2
 BYTE   W24
 BYTE   N92  Bn1
 BYTE   N92  Bn2
 BYTE   W12
//  #09 //207   ----------------------------------------
 BYTE   PATT
  POIN2 Label_01171888
//  #09 //208   ----------------------------------------
 BYTE   PATT
  POIN2 Label_0117116B
//  #09 //209   ----------------------------------------
 BYTE   EOT
 BYTE   Cs2  v061
 BYTE   W01
//  #09 //210   ----------------------------------------
 BYTE   PATT
  POIN2 Label_0117189A
//  #09 //211   ----------------------------------------
 BYTE   PATT
  POIN2 Label_0117116B
//  #09 //212   ----------------------------------------
 BYTE   EOT
 BYTE   Ds2  v063
 BYTE   W01
 BYTE   N11  Ds2  v096
 BYTE   N11  Gs2
 BYTE   N44  Bn2
 BYTE   W12
 BYTE   N11  Ds2
 BYTE   N11  Gs2
 BYTE   W36
 BYTE   Ds2
 BYTE   N11  Gs2
 BYTE   N44  As2
 BYTE   N44  Fs3
 BYTE   W12
 BYTE   N11  Ds2
 BYTE   N11  Gs2
 BYTE   W36
//  #09 //213   ----------------------------------------
 BYTE   Fn2
 BYTE   N44  Gs2
 BYTE   N11  As2
 BYTE   N44  Fn3
 BYTE   W12
 BYTE   N11  Fn2
 BYTE   N11  As2
 BYTE   W36
 BYTE   Fn2
 BYTE   N11  As2
 BYTE   N44  Cs3
 BYTE   N44  Gs3
 BYTE   W12
 BYTE   N11  Fn2
 BYTE   N11  As2
 BYTE   W36
//  #09 //214   ----------------------------------------
Label_01171976:
 BYTE   N11  Ds2  v096
 BYTE   N11  As2
 BYTE   N11  Ds3
 BYTE   N11  Gs3
 BYTE   W12
 BYTE   Ds2
 BYTE   N11  As2
 BYTE   N11  Ds3
 BYTE   N11  Gs3
 BYTE   W24
 BYTE   Ds2
 BYTE   N11  As2
 BYTE   N11  Ds3
 BYTE   N11  Gs3
 BYTE   W12
 BYTE   Ds2
 BYTE   N11  As2
 BYTE   N11  Ds3
 BYTE   N11  Gs3
 BYTE   W24
 BYTE   Ds2
 BYTE   N11  As2
 BYTE   N11  Ds3
 BYTE   N11  Gs3
 BYTE   W12
 BYTE   Ds2
 BYTE   N11  As2
 BYTE   N11  Ds3
 BYTE   N11  Gs3
 BYTE   W12
 BYTE   PEND 
//  #09 //215   ----------------------------------------
Label_011719A9:
 BYTE   W12
 BYTE   N11  Ds2  v096
 BYTE   N11  As2
 BYTE   N11  Ds3
 BYTE   N11  Gs3
 BYTE   W12
 BYTE   Ds2
 BYTE   N11  As2
 BYTE   N11  Ds3
 BYTE   N11  Gs3
 BYTE   W24
 BYTE   Ds2
 BYTE   N11  As2
 BYTE   N11  Ds3
 BYTE   N11  Gn3
 BYTE   W48
 BYTE   PEND 
//  #09 //216   ----------------------------------------
 BYTE   PATT
  POIN2 Label_01171976
//  #09 //217   ----------------------------------------
 BYTE   PATT
  POIN2 Label_011719A9
//  #09 //218   ----------------------------------------
 BYTE   PATT
  POIN2 Label_01171976
//  #09 //219   ----------------------------------------
 BYTE   PATT
  POIN2 Label_011719A9
//  #09 //220   ----------------------------------------
 BYTE   PATT
  POIN2 Label_01171976
//  #09 //221   ----------------------------------------
 BYTE   W12
 BYTE   N11  Ds2  v096
 BYTE   N11  As2
 BYTE   N11  Ds3
 BYTE   N11  Gs3
 BYTE   W12
 BYTE   Ds2
 BYTE   N11  As2
 BYTE   N11  Ds3
 BYTE   N11  Gs3
 BYTE   W24
 BYTE   Ds2
 BYTE   N11  As2
 BYTE   N11  Ds3
 BYTE   N11  Gn3
 BYTE   W24
 BYTE   Ds2
 BYTE   N11  As2
 BYTE   N11  Ds3
 BYTE   N11  Gn3
 BYTE   W24
//  #09 //222   ----------------------------------------
 BYTE   N16  Ds2
 BYTE   N16  As2
 BYTE   N16  Ds3
 BYTE   N16  Gn3
 BYTE   W24
 BYTE   N68  Ds1
 BYTE   W68
 BYTE   W03
 BYTE   FINE

//**************** Track 10 (Midi-Chn.9) ****************//

song1C_010:
//  #10 //000   ----------------------------------------
 BYTE   KEYSH   song1C_key+0
 BYTE   VOICE   30
 BYTE   VOL   14*song1C_mvl/mxv
 BYTE   PAN   c_v+0
 BYTE   VOL   1*song1C_mvl/mxv
 BYTE   PAN   c_v+0
 BYTE   VOL   12*song1C_mvl/mxv
 BYTE   PAN   c_v+0
 BYTE   VOL   30*song1C_mvl/mxv
 BYTE   PAN   c_v+0
 BYTE   VOL   30*song1C_mvl/mxv
 BYTE   PAN   c_v+0
 BYTE   W12
Label_01171A29:
 BYTE   W96
//  #10 //001   ----------------------------------------
 BYTE   W96
//  #10 //002   ----------------------------------------
 BYTE   W96
//  #10 //003   ----------------------------------------
 BYTE   W96
//  #10 //004   ----------------------------------------
 BYTE   W96
//  #10 //005   ----------------------------------------
 BYTE   W96
//  #10 //006   ----------------------------------------
 BYTE   W96
//  #10 //007   ----------------------------------------
Label_01171A30:
 BYTE   W48
 BYTE   N05  Gs3  v064
 BYTE   W01
 BYTE   W02
 BYTE   W01
 BYTE   W02
 BYTE   As3  v068
 BYTE   W01
 BYTE   W02
 BYTE   W01
 BYTE   W02
 BYTE   Cn4  v072
 BYTE   W01
 BYTE   W02
 BYTE   W01
 BYTE   W02
 BYTE   Cs4  v076
 BYTE   W01
 BYTE   W02
 BYTE   W01
 BYTE   W02
 BYTE   Ds4  v080
 BYTE   W01
 BYTE   W02
 BYTE   W01
 BYTE   W02
 BYTE   Fn4  v084
 BYTE   W01
 BYTE   W02
 BYTE   W01
 BYTE   W02
 BYTE   Fs4  v088
 BYTE   W01
 BYTE   W02
 BYTE   W01
 BYTE   W02
 BYTE   Gs4  v092
 BYTE   W01
 BYTE   W02
 BYTE   W01
 BYTE   W02
 BYTE   PEND 
//  #10 //008   ----------------------------------------
Label_01171A63:
 BYTE   N11  As4  v096
 BYTE   W12
 BYTE   Cs4
 BYTE   W12
 BYTE   As3
 BYTE   W12
 BYTE   N23  Bn4
 BYTE   W12
 BYTE   W12
 BYTE   N11  Dn4
 BYTE   W12
 BYTE   N23  Bn3
 BYTE   W24
 BYTE   PEND 
//  #10 //009   ----------------------------------------
Label_01171A76:
 BYTE   N11  As4  v096
 BYTE   W12
 BYTE   Cs4
 BYTE   W12
 BYTE   As3
 BYTE   W12
 BYTE   N23  Gn4
 BYTE   W12
 BYTE   W12
 BYTE   N11  Cn4
 BYTE   W12
 BYTE   N23  An3
 BYTE   W24
 BYTE   PEND 
//  #10 //010   ----------------------------------------
 BYTE   PATT
  POIN2 Label_01171A63
//  #10 //011   ----------------------------------------
Label_01171A8E:
 BYTE   N11  As4  v096
 BYTE   W12
 BYTE   En4
 BYTE   W12
 BYTE   Cn4
 BYTE   W12
 BYTE   N23  Cn5
 BYTE   W12
 BYTE   W12
 BYTE   N11  Fn4
 BYTE   W12
 BYTE   N23  Cn4
 BYTE   W24
 BYTE   PEND 
//  #10 //012   ----------------------------------------
 BYTE   PATT
  POIN2 Label_01171A63
//  #10 //013   ----------------------------------------
 BYTE   PATT
  POIN2 Label_01171A76
//  #10 //014   ----------------------------------------
 BYTE   PATT
  POIN2 Label_01171A63
//  #10 //015   ----------------------------------------
 BYTE   PATT
  POIN2 Label_01171A8E
//  #10 //016   ----------------------------------------
 BYTE   W96
//  #10 //017   ----------------------------------------
 BYTE   W96
//  #10 //018   ----------------------------------------
 BYTE   W96
//  #10 //019   ----------------------------------------
Label_01171AB8:
 BYTE   W36
 BYTE   N23  Fn4  v096
 BYTE   W12
 BYTE   W12
 BYTE   N11  Cs4
 BYTE   W12
 BYTE   Gs3
 BYTE   W12
 BYTE   Fn3
 BYTE   W12
 BYTE   PEND 
//  #10 //020   ----------------------------------------
 BYTE   W96
//  #10 //021   ----------------------------------------
Label_01171AC7:
 BYTE   N11  Gn4  v096
 BYTE   W12
 BYTE   En4
 BYTE   W12
 BYTE   Cn4
 BYTE   W12
 BYTE   N23  En4
 BYTE   W12
 BYTE   W12
 BYTE   N11  Cn4
 BYTE   W12
 BYTE   As3
 BYTE   W12
 BYTE   N23  Bn3
 BYTE   W12
 BYTE   PEND 
//  #10 //022   ----------------------------------------
 BYTE   W96
//  #10 //023   ----------------------------------------
 BYTE   W96
//  #10 //024   ----------------------------------------
 BYTE   W96
//  #10 //025   ----------------------------------------
 BYTE   W96
//  #10 //026   ----------------------------------------
 BYTE   W96
//  #10 //027   ----------------------------------------
 BYTE   PATT
  POIN2 Label_01171AB8
//  #10 //028   ----------------------------------------
 BYTE   W96
//  #10 //029   ----------------------------------------
 BYTE   PATT
  POIN2 Label_01171AC7
//  #10 //030   ----------------------------------------
 BYTE   W96
//  #10 //031   ----------------------------------------
 BYTE   W96
//  #10 //032   ----------------------------------------
 BYTE   W96
//  #10 //033   ----------------------------------------
 BYTE   W96
//  #10 //034   ----------------------------------------
 BYTE   W96
//  #10 //035   ----------------------------------------
 BYTE   W96
//  #10 //036   ----------------------------------------
 BYTE   W96
//  #10 //037   ----------------------------------------
 BYTE   W96
//  #10 //038   ----------------------------------------
 BYTE   W96
//  #10 //039   ----------------------------------------
 BYTE   W96
//  #10 //040   ----------------------------------------
 BYTE   W96
//  #10 //041   ----------------------------------------
 BYTE   W96
//  #10 //042   ----------------------------------------
 BYTE   W96
//  #10 //043   ----------------------------------------
 BYTE   W96
//  #10 //044   ----------------------------------------
 BYTE   W96
//  #10 //045   ----------------------------------------
 BYTE   W72
 BYTE   N05  As2  v096
 BYTE   W06
 BYTE   Cn3
 BYTE   W06
 BYTE   Cs3
 BYTE   W06
 BYTE   Ds3
 BYTE   W06
//  #10 //046   ----------------------------------------
Label_01171B06:
 BYTE   N05  Fn3  v096
 BYTE   N05  As3
 BYTE   W12
 BYTE   Fn3
 BYTE   N05  As3
 BYTE   W24
 BYTE   Fn3
 BYTE   N05  As3
 BYTE   W12
 BYTE   Fn3
 BYTE   N05  As3
 BYTE   W24
 BYTE   Fn3
 BYTE   N05  As3
 BYTE   W12
 BYTE   Fn3
 BYTE   N05  An3
 BYTE   W12
 BYTE   PEND 
//  #10 //047   ----------------------------------------
 BYTE   W96
//  #10 //048   ----------------------------------------
 BYTE   W96
//  #10 //049   ----------------------------------------
 BYTE   W96
//  #10 //050   ----------------------------------------
 BYTE   W96
//  #10 //051   ----------------------------------------
Label_01171B25:
 BYTE   W72
 BYTE   N11  As3  v096
 BYTE   N11  Cs4
 BYTE   W12
 BYTE   Cn4
 BYTE   N11  Ds4
 BYTE   W12
 BYTE   PEND 
//  #10 //052   ----------------------------------------
Label_01171B31:
 BYTE   N05  Cs4  v096
 BYTE   N05  Fn4
 BYTE   W12
 BYTE   As3
 BYTE   N05  Cs4
 BYTE   W12
 BYTE   Fs3
 BYTE   N05  As3
 BYTE   W12
 BYTE   N23  Cs3
 BYTE   N23  Fs3
 BYTE   W12
 BYTE   W12
 BYTE   N11
 BYTE   N11  As3
 BYTE   W12
 BYTE   N11
 BYTE   N11  Cs4
 BYTE   W12
 BYTE   N11
 BYTE   N11  Fn4
 BYTE   W12
 BYTE   PEND 
//  #10 //053   ----------------------------------------
Label_01171B52:
 BYTE   N05  Cn4  v096
 BYTE   N05  Ds4
 BYTE   W12
 BYTE   An3
 BYTE   N05  Cn4
 BYTE   W12
 BYTE   Fn3
 BYTE   N05  An3
 BYTE   W12
 BYTE   N23  Cn3
 BYTE   N23  Ds3
 BYTE   W12
 BYTE   W12
 BYTE   N11  Fn3
 BYTE   N11  An3
 BYTE   W12
 BYTE   N11
 BYTE   N11  Cn4
 BYTE   W12
 BYTE   N23  As3
 BYTE   W12
 BYTE   PEND 
//  #10 //054   ----------------------------------------
Label_01171B73:
 BYTE   W12
 BYTE   N05  An3  v096
 BYTE   W12
 BYTE   As3
 BYTE   W12
 BYTE   N23  Cn4
 BYTE   W12
 BYTE   W12
 BYTE   N05  As3
 BYTE   W12
 BYTE   Cn4
 BYTE   W12
 BYTE   N23  Cs4
 BYTE   W12
 BYTE   PEND 
//  #10 //055   ----------------------------------------
 BYTE   W96
//  #10 //056   ----------------------------------------
 BYTE   W96
//  #10 //057   ----------------------------------------
 BYTE   W96
//  #10 //058   ----------------------------------------
 BYTE   W96
//  #10 //059   ----------------------------------------
 BYTE   W96
//  #10 //060   ----------------------------------------
 BYTE   W96
//  #10 //061   ----------------------------------------
 BYTE   W96
//  #10 //062   ----------------------------------------
Label_01171B8E:
 BYTE   N11  Ds4  v096
 BYTE   W12
 BYTE   N11
 BYTE   W24
 BYTE   N11
 BYTE   W12
 BYTE   N11
 BYTE   W24
 BYTE   N11
 BYTE   W12
 BYTE   N11
 BYTE   W12
 BYTE   PEND 
//  #10 //063   ----------------------------------------
Label_01171B9D:
 BYTE   W12
 BYTE   N11  Ds4  v096
 BYTE   W12
 BYTE   N11
 BYTE   W24
 BYTE   Dn4
 BYTE   W48
 BYTE   PEND 
//  #10 //064   ----------------------------------------
 BYTE   PATT
  POIN2 Label_01171B8E
//  #10 //065   ----------------------------------------
 BYTE   PATT
  POIN2 Label_01171B9D
//  #10 //066   ----------------------------------------
 BYTE   W96
//  #10 //067   ----------------------------------------
 BYTE   W96
//  #10 //068   ----------------------------------------
 BYTE   W96
//  #10 //069   ----------------------------------------
 BYTE   W96
//  #10 //070   ----------------------------------------
 BYTE   W96
//  #10 //071   ----------------------------------------
 BYTE   W96
//  #10 //072   ----------------------------------------
 BYTE   W96
//  #10 //073   ----------------------------------------
 BYTE   W96
//  #10 //074   ----------------------------------------
 BYTE   W96
//  #10 //075   ----------------------------------------
 BYTE   W96
//  #10 //076   ----------------------------------------
 BYTE   W96
//  #10 //077   ----------------------------------------
 BYTE   W96
//  #10 //078   ----------------------------------------
 BYTE   W96
//  #10 //079   ----------------------------------------
 BYTE   W96
//  #10 //080   ----------------------------------------
 BYTE   W96
//  #10 //081   ----------------------------------------
 BYTE   W96
//  #10 //082   ----------------------------------------
Label_01171BC1:
 BYTE   N11  As3  v096
 BYTE   N11  Ds4
 BYTE   W12
 BYTE   As3
 BYTE   N11  Ds4
 BYTE   W24
 BYTE   As3
 BYTE   N11  Ds4
 BYTE   W12
 BYTE   As3
 BYTE   N11  Ds4
 BYTE   W24
 BYTE   As3
 BYTE   N11  Ds4
 BYTE   W12
 BYTE   As3
 BYTE   N11  Ds4
 BYTE   W12
 BYTE   PEND 
//  #10 //083   ----------------------------------------
Label_01171BDC:
 BYTE   W12
 BYTE   N11  As3  v096
 BYTE   N11  Ds4
 BYTE   W12
 BYTE   As3
 BYTE   N11  Ds4
 BYTE   W24
 BYTE   As3
 BYTE   N11  Dn4
 BYTE   W48
 BYTE   PEND 
//  #10 //084   ----------------------------------------
 BYTE   PATT
  POIN2 Label_01171BC1
//  #10 //085   ----------------------------------------
 BYTE   PATT
  POIN2 Label_01171BDC
//  #10 //086   ----------------------------------------
 BYTE   GoTo
  POIN2 Label_01171A29
//  #10 //087   ----------------------------------------
Label_01171BFB:
 BYTE   N05  As4  v096
 BYTE   W12
 BYTE   Fn4
 BYTE   W12
 BYTE   As4
 BYTE   W12
 BYTE   Fn4
 BYTE   W12
 BYTE   As4
 BYTE   W12
 BYTE   Fn4
 BYTE   W12
 BYTE   As4
 BYTE   W12
 BYTE   Fn4
 BYTE   W12
 BYTE   PEND 
//  #10 //088   ----------------------------------------
 BYTE   N05
 BYTE   W12
 BYTE   Cn4
 BYTE   W12
 BYTE   Fn4
 BYTE   W12
 BYTE   Cn4
 BYTE   W12
 BYTE   Fn4
 BYTE   W12
 BYTE   Cn4
 BYTE   W12
 BYTE   Fn4
 BYTE   W12
 BYTE   Cn4
 BYTE   W12
//  #10 //089   ----------------------------------------
 BYTE   Gs4
 BYTE   W12
 BYTE   Ds4
 BYTE   W12
 BYTE   Gs4
 BYTE   W12
 BYTE   Ds4
 BYTE   W12
 BYTE   Gs4
 BYTE   W12
 BYTE   Ds4
 BYTE   W12
 BYTE   Gs4
 BYTE   W12
 BYTE   Ds4
 BYTE   W12
//  #10 //090   ----------------------------------------
 BYTE   As4
 BYTE   W12
 BYTE   Fn4
 BYTE   W12
 BYTE   As4
 BYTE   W12
 BYTE   Fn4
 BYTE   W12
 BYTE   Cn5
 BYTE   W12
 BYTE   Gn4
 BYTE   W12
 BYTE   Cn5
 BYTE   W12
 BYTE   Gn4
 BYTE   W12
//  #10 //091   ----------------------------------------
 BYTE   Cn4
 BYTE   W12
 BYTE   Gn3
 BYTE   W12
 BYTE   Cn4
 BYTE   W12
 BYTE   Gn3
 BYTE   W12
 BYTE   Cn4
 BYTE   W12
 BYTE   Gn3
 BYTE   W12
 BYTE   Cn4
 BYTE   W12
 BYTE   Gn3
 BYTE   W12
//  #10 //092   ----------------------------------------
 BYTE   Gn4
 BYTE   W12
 BYTE   Dn4
 BYTE   W12
 BYTE   Gn4
 BYTE   W12
 BYTE   Dn4
 BYTE   W12
 BYTE   Gn4
 BYTE   W12
 BYTE   Dn4
 BYTE   W12
 BYTE   Gn4
 BYTE   W12
 BYTE   Dn4
 BYTE   W12
//  #10 //093   ----------------------------------------
 BYTE   PATT
  POIN2 Label_01171BFB
//  #10 //094   ----------------------------------------
 BYTE   N05  Cn5  v096
 BYTE   W12
 BYTE   Gn4
 BYTE   W12
 BYTE   Cn5
 BYTE   W12
 BYTE   Gn4
 BYTE   W12
 BYTE   Dn5
 BYTE   W12
 BYTE   An4
 BYTE   W12
 BYTE   Dn5
 BYTE   W12
 BYTE   An4
 BYTE   W12
//  #10 //095   ----------------------------------------
 BYTE   TIE  As4
 BYTE   W04
 BYTE   W05
 BYTE   W05
 BYTE   W05
 BYTE   W05
 BYTE   W04
 BYTE   W05
 BYTE   W05
 BYTE   W05
 BYTE   W05
 BYTE   W04
 BYTE   W05
 BYTE   W05
 BYTE   W05
 BYTE   W05
 BYTE   W04
 BYTE   W05
 BYTE   W05
 BYTE   W05
 BYTE   W05
//  #10 //096   ----------------------------------------
 BYTE   W04
 BYTE   W05
 BYTE   W05
 BYTE   W05
 BYTE   W05
 BYTE   W04
 BYTE   W05
 BYTE   W05
 BYTE   W05
 BYTE   W05
 BYTE   W04
 BYTE   W05
 BYTE   W05
 BYTE   W05
 BYTE   W05
 BYTE   W04
 BYTE   W05
 BYTE   W05
 BYTE   W05
 BYTE   W05
//  #10 //097   ----------------------------------------
 BYTE   W04
 BYTE   W05
 BYTE   W05
 BYTE   W05
 BYTE   W05
 BYTE   W04
 BYTE   W05
 BYTE   W05
 BYTE   W05
 BYTE   W05
 BYTE   W04
 BYTE   W05
 BYTE   W05
 BYTE   W05
 BYTE   W05
 BYTE   W04
 BYTE   W05
 BYTE   W05
 BYTE   W05
 BYTE   W05
//  #10 //098   ----------------------------------------
 BYTE   W04
 BYTE   W05
 BYTE   W05
 BYTE   W05
 BYTE   W05
 BYTE   W04
 BYTE   W05
 BYTE   W05
 BYTE   W05
 BYTE   W05
 BYTE   W04
 BYTE   W05
 BYTE   W05
 BYTE   W05
 BYTE   W05
 BYTE   W04
 BYTE   W05
 BYTE   W05
 BYTE   W05
 BYTE   W04
 BYTE   EOT
 BYTE   W01
//  #10 //099   ----------------------------------------
 BYTE   W96
//  #10 //100   ----------------------------------------
 BYTE   W96
//  #10 //101   ----------------------------------------
 BYTE   W96
//  #10 //102   ----------------------------------------
 BYTE   W96
//  #10 //103   ----------------------------------------
 BYTE   W96
//  #10 //104   ----------------------------------------
 BYTE   W96
//  #10 //105   ----------------------------------------
 BYTE   W96
//  #10 //106   ----------------------------------------
 BYTE   W96
//  #10 //107   ----------------------------------------
 BYTE   W96
//  #10 //108   ----------------------------------------
 BYTE   W96
//  #10 //109   ----------------------------------------
 BYTE   W96
//  #10 //110   ----------------------------------------
 BYTE   W96
//  #10 //111   ----------------------------------------
 BYTE   W96
//  #10 //112   ----------------------------------------
 BYTE   W96
//  #10 //113   ----------------------------------------
 BYTE   W96
//  #10 //114   ----------------------------------------
 BYTE   W96
//  #10 //115   ----------------------------------------
 BYTE   W96
//  #10 //116   ----------------------------------------
 BYTE   W96
//  #10 //117   ----------------------------------------
 BYTE   W96
//  #10 //118   ----------------------------------------
 BYTE   W96
//  #10 //119   ----------------------------------------
 BYTE   W96
//  #10 //120   ----------------------------------------
 BYTE   W96
//  #10 //121   ----------------------------------------
 BYTE   W96
//  #10 //122   ----------------------------------------
 BYTE   W96
//  #10 //123   ----------------------------------------
 BYTE   W96
//  #10 //124   ----------------------------------------
 BYTE   W96
//  #10 //125   ----------------------------------------
 BYTE   W96
//  #10 //126   ----------------------------------------
 BYTE   W96
//  #10 //127   ----------------------------------------
 BYTE   W96
//  #10 //128   ----------------------------------------
 BYTE   W96
//  #10 //129   ----------------------------------------
 BYTE   W96
//  #10 //130   ----------------------------------------
 BYTE   W96
//  #10 //131   ----------------------------------------
 BYTE   W96
//  #10 //132   ----------------------------------------
 BYTE   W96
//  #10 //133   ----------------------------------------
 BYTE   W96
//  #10 //134   ----------------------------------------
 BYTE   W96
//  #10 //135   ----------------------------------------
 BYTE   W96
//  #10 //136   ----------------------------------------
 BYTE   W96
//  #10 //137   ----------------------------------------
 BYTE   W96
//  #10 //138   ----------------------------------------
 BYTE   PATT
  POIN2 Label_01171A30
//  #10 //139   ----------------------------------------
 BYTE   PATT
  POIN2 Label_01171A63
//  #10 //140   ----------------------------------------
 BYTE   PATT
  POIN2 Label_01171A76
//  #10 //141   ----------------------------------------
 BYTE   PATT
  POIN2 Label_01171A63
//  #10 //142   ----------------------------------------
 BYTE   PATT
  POIN2 Label_01171A8E
//  #10 //143   ----------------------------------------
 BYTE   PATT
  POIN2 Label_01171A63
//  #10 //144   ----------------------------------------
 BYTE   PATT
  POIN2 Label_01171A76
//  #10 //145   ----------------------------------------
 BYTE   PATT
  POIN2 Label_01171A63
//  #10 //146   ----------------------------------------
 BYTE   PATT
  POIN2 Label_01171A8E
//  #10 //147   ----------------------------------------
 BYTE   W96
//  #10 //148   ----------------------------------------
 BYTE   W96
//  #10 //149   ----------------------------------------
 BYTE   W96
//  #10 //150   ----------------------------------------
 BYTE   W36
 BYTE   N23  Gs3  v096
 BYTE   N23  Cs4
 BYTE   N23  Fn4
 BYTE   W12
 BYTE   W12
 BYTE   N11  Fn3
 BYTE   N11  As3
 BYTE   N11  Cs4
 BYTE   W12
 BYTE   Ds3
 BYTE   N11  Gs3
 BYTE   N11  Cn4
 BYTE   W12
 BYTE   Cn3
 BYTE   N11  Fn3
 BYTE   N11  Gs3
 BYTE   W12
//  #10 //151   ----------------------------------------
 BYTE   W96
//  #10 //152   ----------------------------------------
Label_01171D3E:
 BYTE   N11  Gn4  v096
 BYTE   W12
 BYTE   En4
 BYTE   W12
 BYTE   Cn4
 BYTE   W12
 BYTE   N23  En4
 BYTE   W12
 BYTE   W12
 BYTE   N11  Cn4
 BYTE   W12
 BYTE   As3
 BYTE   W12
 BYTE   N23  Bn3
 BYTE   W12
 BYTE   PEND 
//  #10 //153   ----------------------------------------
 BYTE   W96
//  #10 //154   ----------------------------------------
 BYTE   W96
//  #10 //155   ----------------------------------------
 BYTE   W96
//  #10 //156   ----------------------------------------
 BYTE   W96
//  #10 //157   ----------------------------------------
 BYTE   W96
//  #10 //158   ----------------------------------------
 BYTE   W36
 BYTE   Cs4
 BYTE   N23  Fn4
 BYTE   N23  Gs4
 BYTE   W12
 BYTE   W12
 BYTE   N11  As3
 BYTE   N11  Cs4
 BYTE   N11  Fn4
 BYTE   W12
 BYTE   Gs3
 BYTE   N11  Cn4
 BYTE   N11  Ds4
 BYTE   W12
 BYTE   Fn3
 BYTE   N11  Gs3
 BYTE   N11  Cn4
 BYTE   W12
//  #10 //159   ----------------------------------------
 BYTE   W96
//  #10 //160   ----------------------------------------
 BYTE   PATT
  POIN2 Label_01171D3E
//  #10 //161   ----------------------------------------
 BYTE   W96
//  #10 //162   ----------------------------------------
 BYTE   W96
//  #10 //163   ----------------------------------------
 BYTE   W96
//  #10 //164   ----------------------------------------
 BYTE   W96
//  #10 //165   ----------------------------------------
 BYTE   W96
//  #10 //166   ----------------------------------------
 BYTE   W96
//  #10 //167   ----------------------------------------
 BYTE   W96
//  #10 //168   ----------------------------------------
 BYTE   W96
//  #10 //169   ----------------------------------------
 BYTE   W96
//  #10 //170   ----------------------------------------
 BYTE   W60
 BYTE   N11  Fs3  v080
 BYTE   N11  As3
 BYTE   W12
 BYTE   Gs3
 BYTE   N11  Cn4
 BYTE   W12
 BYTE   As3
 BYTE   N11  Cs4
 BYTE   W12
//  #10 //171   ----------------------------------------
 BYTE   N68
 BYTE   N68  Fn4
 BYTE   W72
 BYTE   N05  Cn4
 BYTE   N05  Ds4
 BYTE   W12
 BYTE   As3
 BYTE   N05  Cs4
 BYTE   W12
//  #10 //172   ----------------------------------------
 BYTE   N32  Gs3
 BYTE   N32  Cn4
 BYTE   W36
 BYTE   N44  Fn3
 BYTE   N44  Gs3
 BYTE   W12
 BYTE   W48
//  #10 //173   ----------------------------------------
 BYTE   N56  Fs3
 BYTE   N56  As3
 BYTE   W48
 BYTE   W12
 BYTE   N11  Fs3
 BYTE   N11  As3
 BYTE   W12
 BYTE   Gs3
 BYTE   N11  Cn4
 BYTE   W12
 BYTE   As3
 BYTE   N11  Cs4
 BYTE   W12
//  #10 //174   ----------------------------------------
 BYTE   N23
 BYTE   N23  Fn4
 BYTE   W24
 BYTE   Cn4
 BYTE   N23  Ds4
 BYTE   W24
 BYTE   Gn3
 BYTE   N23  As3
 BYTE   W24
 BYTE   Gs3
 BYTE   N23  Cn4
 BYTE   W24
//  #10 //175   ----------------------------------------
 BYTE   TIE  Gs3
 BYTE   TIE  Cs4
 BYTE   W96
//  #10 //176   ----------------------------------------
 BYTE   W68
 BYTE   W03
 BYTE   EOT
 BYTE   Gs3  v073
 BYTE   W01
 BYTE   N05  As2  v096
 BYTE   N05  Ds3
 BYTE   W06
 BYTE   Cn3
 BYTE   N05  Fn3
 BYTE   W06
 BYTE   Cs3
 BYTE   N05  Fs3
 BYTE   W06
 BYTE   Ds3
 BYTE   N05  Gs3
 BYTE   W06
//  #10 //177   ----------------------------------------
 BYTE   PATT
  POIN2 Label_01171B06
//  #10 //178   ----------------------------------------
 BYTE   W96
//  #10 //179   ----------------------------------------
 BYTE   W96
//  #10 //180   ----------------------------------------
 BYTE   W96
//  #10 //181   ----------------------------------------
 BYTE   W96
//  #10 //182   ----------------------------------------
 BYTE   PATT
  POIN2 Label_01171B25
//  #10 //183   ----------------------------------------
 BYTE   PATT
  POIN2 Label_01171B31
//  #10 //184   ----------------------------------------
 BYTE   PATT
  POIN2 Label_01171B52
//  #10 //185   ----------------------------------------
 BYTE   PATT
  POIN2 Label_01171B73
//  #10 //186   ----------------------------------------
 BYTE   W96
//  #10 //187   ----------------------------------------
 BYTE   W96
//  #10 //188   ----------------------------------------
 BYTE   W96
//  #10 //189   ----------------------------------------
 BYTE   W96
//  #10 //190   ----------------------------------------
 BYTE   W96
//  #10 //191   ----------------------------------------
 BYTE   W96
//  #10 //192   ----------------------------------------
 BYTE   W96
//  #10 //193   ----------------------------------------
 BYTE   N11  Fs4  v096
 BYTE   W12
 BYTE   N11
 BYTE   W24
 BYTE   N11
 BYTE   W12
 BYTE   N11
 BYTE   W24
 BYTE   N11
 BYTE   W12
 BYTE   Fn4
 BYTE   W12
//  #10 //194   ----------------------------------------
 BYTE   W96
//  #10 //195   ----------------------------------------
 BYTE   W96
//  #10 //196   ----------------------------------------
 BYTE   W96
//  #10 //197   ----------------------------------------
 BYTE   W96
//  #10 //198   ----------------------------------------
 BYTE   W96
//  #10 //199   ----------------------------------------
 BYTE   W72
 BYTE   Ds4
 BYTE   N11  Fs4
 BYTE   W12
 BYTE   Fn4
 BYTE   N11  Gs4
 BYTE   W12
//  #10 //200   ----------------------------------------
 BYTE   N05  Fs4
 BYTE   N05  As4
 BYTE   W12
 BYTE   Ds4
 BYTE   N05  Fs4
 BYTE   W12
 BYTE   Bn3
 BYTE   N05  Ds4
 BYTE   W12
 BYTE   N23  Fs3
 BYTE   N23  Bn3
 BYTE   W12
 BYTE   W12
 BYTE   N11
 BYTE   N11  Ds4
 BYTE   W12
 BYTE   N11
 BYTE   N11  Fs4
 BYTE   W12
 BYTE   N11
 BYTE   N11  As4
 BYTE   W12
//  #10 //201   ----------------------------------------
 BYTE   N05  Fn4
 BYTE   N05  Gs4
 BYTE   W12
 BYTE   Dn4
 BYTE   N05  Fn4
 BYTE   W12
 BYTE   As3
 BYTE   N05  Dn4
 BYTE   W12
 BYTE   N23  Fn3
 BYTE   N23  Gs3
 BYTE   W12
 BYTE   W12
 BYTE   N11  As3
 BYTE   N11  Dn4
 BYTE   W12
 BYTE   N11
 BYTE   N11  Fn4
 BYTE   W12
 BYTE   N23  Ds4
 BYTE   W12
//  #10 //202   ----------------------------------------
 BYTE   W12
 BYTE   N05  Dn4
 BYTE   W12
 BYTE   Ds4
 BYTE   W12
 BYTE   N23  Fn4
 BYTE   W12
 BYTE   W12
 BYTE   N05  Ds4
 BYTE   W12
 BYTE   Fn4
 BYTE   W12
 BYTE   N23  Fs4
 BYTE   W12
//  #10 //203   ----------------------------------------
 BYTE   W96
//  #10 //204   ----------------------------------------
 BYTE   W96
//  #10 //205   ----------------------------------------
 BYTE   W96
//  #10 //206   ----------------------------------------
 BYTE   W96
//  #10 //207   ----------------------------------------
 BYTE   W96
//  #10 //208   ----------------------------------------
 BYTE   W96
//  #10 //209   ----------------------------------------
 BYTE   W96
//  #10 //210   ----------------------------------------
Label_01171E80:
 BYTE   N11  Gs4  v096
 BYTE   W12
 BYTE   N11
 BYTE   W24
 BYTE   N11
 BYTE   W12
 BYTE   N11
 BYTE   W24
 BYTE   N11
 BYTE   W12
 BYTE   N11
 BYTE   W12
 BYTE   PEND 
//  #10 //211   ----------------------------------------
Label_01171E8F:
 BYTE   W12
 BYTE   N11  Gs4  v096
 BYTE   W12
 BYTE   N11
 BYTE   W24
 BYTE   Gn4
 BYTE   W48
 BYTE   PEND 
//  #10 //212   ----------------------------------------
 BYTE   PATT
  POIN2 Label_01171E80
//  #10 //213   ----------------------------------------
 BYTE   PATT
  POIN2 Label_01171E8F
//  #10 //214   ----------------------------------------
 BYTE   PATT
  POIN2 Label_01171E80
//  #10 //215   ----------------------------------------
 BYTE   PATT
  POIN2 Label_01171E8F
//  #10 //216   ----------------------------------------
 BYTE   PATT
  POIN2 Label_01171E80
//  #10 //217   ----------------------------------------
 BYTE   W12
 BYTE   N11  Gs4  v096
 BYTE   W12
 BYTE   N11
 BYTE   W24
 BYTE   Gn4
 BYTE   W24
 BYTE   N11
 BYTE   W24
//  #10 //218   ----------------------------------------
 BYTE   N16
 BYTE   W92
 BYTE   W03
 BYTE   FINE

//**************** Track 11 (Midi-Chn.10) ****************//

song1C_011:
//  #11 //000   ----------------------------------------
 BYTE   KEYSH   song1C_key+0
 BYTE   VOICE   47
 BYTE   VOL   17*song1C_mvl/mxv
 BYTE   PAN   c_v+0
 BYTE   VOL   12*song1C_mvl/mxv
 BYTE   PAN   c_v+0
 BYTE   VOL   30*song1C_mvl/mxv
 BYTE   PAN   c_v+0
 BYTE   VOL   16*song1C_mvl/mxv
 BYTE   PAN   c_v+0
 BYTE   W12
Label_01171ED9:
 BYTE   W96
//  #11 //001   ----------------------------------------
 BYTE   W96
//  #11 //002   ----------------------------------------
 BYTE   W96
//  #11 //003   ----------------------------------------
 BYTE   W96
//  #11 //004   ----------------------------------------
 BYTE   W96
//  #11 //005   ----------------------------------------
 BYTE   W96
//  #11 //006   ----------------------------------------
 BYTE   W96
//  #11 //007   ----------------------------------------
 BYTE   W96
//  #11 //008   ----------------------------------------
Label_01171EE1:
 BYTE   N23  As1  v096
 BYTE   W36
 BYTE   N23
 BYTE   W36
 BYTE   N23
 BYTE   W24
 BYTE   PEND 
//  #11 //009   ----------------------------------------
 BYTE   PATT
  POIN2 Label_01171EE1
//  #11 //010   ----------------------------------------
 BYTE   PATT
  POIN2 Label_01171EE1
//  #11 //011   ----------------------------------------
 BYTE   PATT
  POIN2 Label_01171EE1
//  #11 //012   ----------------------------------------
 BYTE   PATT
  POIN2 Label_01171EE1
//  #11 //013   ----------------------------------------
 BYTE   PATT
  POIN2 Label_01171EE1
//  #11 //014   ----------------------------------------
 BYTE   PATT
  POIN2 Label_01171EE1
//  #11 //015   ----------------------------------------
 BYTE   PATT
  POIN2 Label_01171EE1
//  #11 //016   ----------------------------------------
 BYTE   W96
//  #11 //017   ----------------------------------------
 BYTE   W96
//  #11 //018   ----------------------------------------
 BYTE   W96
//  #11 //019   ----------------------------------------
 BYTE   W96
//  #11 //020   ----------------------------------------
 BYTE   W96
//  #11 //021   ----------------------------------------
 BYTE   W96
//  #11 //022   ----------------------------------------
 BYTE   W96
//  #11 //023   ----------------------------------------
 BYTE   W96
//  #11 //024   ----------------------------------------
 BYTE   W96
//  #11 //025   ----------------------------------------
 BYTE   W96
//  #11 //026   ----------------------------------------
 BYTE   W96
//  #11 //027   ----------------------------------------
 BYTE   W96
//  #11 //028   ----------------------------------------
 BYTE   W96
//  #11 //029   ----------------------------------------
 BYTE   W96
//  #11 //030   ----------------------------------------
 BYTE   W96
//  #11 //031   ----------------------------------------
 BYTE   W96
//  #11 //032   ----------------------------------------
 BYTE   W96
//  #11 //033   ----------------------------------------
 BYTE   W96
//  #11 //034   ----------------------------------------
 BYTE   W96
//  #11 //035   ----------------------------------------
 BYTE   W96
//  #11 //036   ----------------------------------------
 BYTE   W96
//  #11 //037   ----------------------------------------
 BYTE   W96
//  #11 //038   ----------------------------------------
 BYTE   W96
//  #11 //039   ----------------------------------------
 BYTE   W96
//  #11 //040   ----------------------------------------
 BYTE   W96
//  #11 //041   ----------------------------------------
 BYTE   W96
//  #11 //042   ----------------------------------------
 BYTE   W96
//  #11 //043   ----------------------------------------
 BYTE   W96
//  #11 //044   ----------------------------------------
 BYTE   W96
//  #11 //045   ----------------------------------------
 BYTE   W96
//  #11 //046   ----------------------------------------
 BYTE   N11  Fn1  v096
 BYTE   W12
 BYTE   N11
 BYTE   W24
 BYTE   N11
 BYTE   W12
 BYTE   N11
 BYTE   W24
 BYTE   N11
 BYTE   W12
 BYTE   N11
 BYTE   W12
//  #11 //047   ----------------------------------------
 BYTE   W96
//  #11 //048   ----------------------------------------
 BYTE   W96
//  #11 //049   ----------------------------------------
 BYTE   W96
//  #11 //050   ----------------------------------------
 BYTE   W96
//  #11 //051   ----------------------------------------
 BYTE   W96
//  #11 //052   ----------------------------------------
 BYTE   W96
//  #11 //053   ----------------------------------------
 BYTE   W84
 BYTE   N44  As1
 BYTE   W12
//  #11 //054   ----------------------------------------
 BYTE   W36
 BYTE   Cn2
 BYTE   W48
 BYTE   N23  Cs2
 BYTE   W12
//  #11 //055   ----------------------------------------
 BYTE   W96
//  #11 //056   ----------------------------------------
 BYTE   W96
//  #11 //057   ----------------------------------------
 BYTE   W96
//  #11 //058   ----------------------------------------
 BYTE   W96
//  #11 //059   ----------------------------------------
 BYTE   W96
//  #11 //060   ----------------------------------------
 BYTE   N11  Ds1
 BYTE   W12
 BYTE   N11
 BYTE   W36
 BYTE   N11
 BYTE   W12
 BYTE   N11
 BYTE   W36
//  #11 //061   ----------------------------------------
 BYTE   Fn1
 BYTE   W12
 BYTE   N11
 BYTE   W36
 BYTE   N11
 BYTE   W12
 BYTE   N11
 BYTE   W24
 BYTE   Gs1
 BYTE   W12
//  #11 //062   ----------------------------------------
Label_01171F61:
 BYTE   N11  As1  v096
 BYTE   W12
 BYTE   N11
 BYTE   W24
 BYTE   N11
 BYTE   W12
 BYTE   N11
 BYTE   W24
 BYTE   N11
 BYTE   W12
 BYTE   N11
 BYTE   W12
 BYTE   PEND 
//  #11 //063   ----------------------------------------
Label_01171F70:
 BYTE   W12
 BYTE   N11  As1  v096
 BYTE   W12
 BYTE   N11
 BYTE   W24
 BYTE   N11
 BYTE   W48
 BYTE   PEND 
//  #11 //064   ----------------------------------------
 BYTE   PATT
  POIN2 Label_01171F61
//  #11 //065   ----------------------------------------
 BYTE   PATT
  POIN2 Label_01171F70
//  #11 //066   ----------------------------------------
 BYTE   W96
//  #11 //067   ----------------------------------------
 BYTE   W96
//  #11 //068   ----------------------------------------
 BYTE   W96
//  #11 //069   ----------------------------------------
 BYTE   W96
//  #11 //070   ----------------------------------------
 BYTE   W96
//  #11 //071   ----------------------------------------
 BYTE   W96
//  #11 //072   ----------------------------------------
 BYTE   W96
//  #11 //073   ----------------------------------------
 BYTE   W96
//  #11 //074   ----------------------------------------
Label_01171F8C:
 BYTE   N11  As1  v127
 BYTE   W12
 BYTE   N11
 BYTE   W24
 BYTE   N11
 BYTE   W24
 BYTE   N11
 BYTE   W24
 BYTE   N23
 BYTE   W12
 BYTE   PEND 
//  #11 //075   ----------------------------------------
Label_01171F99:
 BYTE   W12
 BYTE   N11  As1  v127
 BYTE   W24
 BYTE   N11
 BYTE   W60
 BYTE   PEND 
//  #11 //076   ----------------------------------------
Label_01171FA1:
 BYTE   N11  As1  v127
 BYTE   W12
 BYTE   N11
 BYTE   W24
 BYTE   N11
 BYTE   W24
 BYTE   N11
 BYTE   W24
 BYTE   N23  Fs1
 BYTE   W12
 BYTE   PEND 
//  #11 //077   ----------------------------------------
 BYTE   W96
//  #11 //078   ----------------------------------------
 BYTE   PATT
  POIN2 Label_01171F8C
//  #11 //079   ----------------------------------------
 BYTE   PATT
  POIN2 Label_01171F99
//  #11 //080   ----------------------------------------
 BYTE   PATT
  POIN2 Label_01171FA1
//  #11 //081   ----------------------------------------
 BYTE   W96
//  #11 //082   ----------------------------------------
Label_01171FC0:
 BYTE   N11  As1  v127
 BYTE   W12
 BYTE   N11
 BYTE   W24
 BYTE   N11
 BYTE   W12
 BYTE   N11
 BYTE   W24
 BYTE   N11
 BYTE   W12
 BYTE   N11
 BYTE   W12
 BYTE   PEND 
//  #11 //083   ----------------------------------------
Label_01171FCF:
 BYTE   W12
 BYTE   N11  As1  v127
 BYTE   W12
 BYTE   N11
 BYTE   W24
 BYTE   N11
 BYTE   W48
 BYTE   PEND 
//  #11 //084   ----------------------------------------
 BYTE   PATT
  POIN2 Label_01171FC0
//  #11 //085   ----------------------------------------
 BYTE   PATT
  POIN2 Label_01171FCF
//  #11 //086   ----------------------------------------
 BYTE   GoTo
  POIN2 Label_01171ED9
//  #11 //087   ----------------------------------------
 BYTE   W96
//  #11 //088   ----------------------------------------
 BYTE   W96
//  #11 //089   ----------------------------------------
 BYTE   W96
//  #11 //090   ----------------------------------------
 BYTE   W96
//  #11 //091   ----------------------------------------
 BYTE   W96
//  #11 //092   ----------------------------------------
 BYTE   W96
//  #11 //093   ----------------------------------------
 BYTE   W96
//  #11 //094   ----------------------------------------
 BYTE   W96
//  #11 //095   ----------------------------------------
 BYTE   W96
//  #11 //096   ----------------------------------------
 BYTE   W96
//  #11 //097   ----------------------------------------
 BYTE   W96
//  #11 //098   ----------------------------------------
 BYTE   N02  Ds1  v036
 BYTE   W02
 BYTE   N02
 BYTE   W03
 BYTE   N02
 BYTE   W03
 BYTE   N02
 BYTE   W03
 BYTE   N02
 BYTE   W03
 BYTE   N02
 BYTE   W03
 BYTE   N02
 BYTE   W03
 BYTE   N02
 BYTE   W03
 BYTE   N02
 BYTE   W03
 BYTE   Ds1  v040
 BYTE   W03
 BYTE   N02
 BYTE   W03
 BYTE   N02
 BYTE   W03
 BYTE   N02
 BYTE   W03
 BYTE   N02
 BYTE   W03
 BYTE   N02
 BYTE   W03
 BYTE   N02
 BYTE   W03
 BYTE   N02
 BYTE   W03
 BYTE   Ds1  v044
 BYTE   W03
 BYTE   N02
 BYTE   W03
 BYTE   N02
 BYTE   W03
 BYTE   N02
 BYTE   W03
 BYTE   N02
 BYTE   W03
 BYTE   N02
 BYTE   W03
 BYTE   N02
 BYTE   W03
 BYTE   N02
 BYTE   W03
 BYTE   Ds1  v048
 BYTE   W03
 BYTE   N02
 BYTE   W03
 BYTE   N02
 BYTE   W03
 BYTE   N02
 BYTE   W03
 BYTE   N02
 BYTE   W03
 BYTE   N02
 BYTE   W03
 BYTE   N02
 BYTE   W04
//  #11 //099   ----------------------------------------
 BYTE   W96
//  #11 //100   ----------------------------------------
 BYTE   W96
//  #11 //101   ----------------------------------------
 BYTE   W96
//  #11 //102   ----------------------------------------
 BYTE   W96
//  #11 //103   ----------------------------------------
 BYTE   W96
//  #11 //104   ----------------------------------------
 BYTE   W96
//  #11 //105   ----------------------------------------
 BYTE   W96
//  #11 //106   ----------------------------------------
 BYTE   W96
//  #11 //107   ----------------------------------------
 BYTE   W96
//  #11 //108   ----------------------------------------
 BYTE   W96
//  #11 //109   ----------------------------------------
 BYTE   W96
//  #11 //110   ----------------------------------------
 BYTE   W96
//  #11 //111   ----------------------------------------
 BYTE   W96
//  #11 //112   ----------------------------------------
 BYTE   W96
//  #11 //113   ----------------------------------------
 BYTE   W96
//  #11 //114   ----------------------------------------
 BYTE   W96
//  #11 //115   ----------------------------------------
 BYTE   W96
//  #11 //116   ----------------------------------------
 BYTE   W96
//  #11 //117   ----------------------------------------
 BYTE   W96
//  #11 //118   ----------------------------------------
 BYTE   W96
//  #11 //119   ----------------------------------------
 BYTE   W96
//  #11 //120   ----------------------------------------
 BYTE   W96
//  #11 //121   ----------------------------------------
 BYTE   W96
//  #11 //122   ----------------------------------------
 BYTE   W96
//  #11 //123   ----------------------------------------
 BYTE   W96
//  #11 //124   ----------------------------------------
 BYTE   W96
//  #11 //125   ----------------------------------------
 BYTE   W96
//  #11 //126   ----------------------------------------
 BYTE   W96
//  #11 //127   ----------------------------------------
 BYTE   W96
//  #11 //128   ----------------------------------------
 BYTE   W96
//  #11 //129   ----------------------------------------
 BYTE   W96
//  #11 //130   ----------------------------------------
 BYTE   Cn2  v052
 BYTE   W02
 BYTE   N02
 BYTE   W03
 BYTE   N02
 BYTE   W03
 BYTE   N02
 BYTE   W03
 BYTE   N02
 BYTE   W03
 BYTE   Cn2  v056
 BYTE   W03
 BYTE   N02
 BYTE   W03
 BYTE   N02
 BYTE   W03
 BYTE   N02
 BYTE   W03
 BYTE   Cn2  v060
 BYTE   W03
 BYTE   N02
 BYTE   W03
 BYTE   N02
 BYTE   W03
 BYTE   N02
 BYTE   W03
 BYTE   Cn2  v064
 BYTE   W03
 BYTE   N02
 BYTE   W03
 BYTE   N02
 BYTE   W03
 BYTE   N02
 BYTE   W03
 BYTE   Cn2  v068
 BYTE   W03
 BYTE   N02
 BYTE   W03
 BYTE   N02
 BYTE   W03
 BYTE   N02
 BYTE   W03
 BYTE   Cn2  v072
 BYTE   W03
 BYTE   N02
 BYTE   W03
 BYTE   N02
 BYTE   W03
 BYTE   N02
 BYTE   W03
 BYTE   Cn2  v076
 BYTE   W03
 BYTE   N02
 BYTE   W03
 BYTE   N02
 BYTE   W03
 BYTE   N02
 BYTE   W03
 BYTE   N02
 BYTE   W03
 BYTE   Cn2  v080
 BYTE   W03
 BYTE   N02
 BYTE   W04
//  #11 //131   ----------------------------------------
 BYTE   W96
//  #11 //132   ----------------------------------------
 BYTE   W96
//  #11 //133   ----------------------------------------
 BYTE   W96
//  #11 //134   ----------------------------------------
 BYTE   W96
//  #11 //135   ----------------------------------------
 BYTE   W96
//  #11 //136   ----------------------------------------
 BYTE   W96
//  #11 //137   ----------------------------------------
 BYTE   W96
//  #11 //138   ----------------------------------------
 BYTE   W96
//  #11 //139   ----------------------------------------
 BYTE   PATT
  POIN2 Label_01171EE1
//  #11 //140   ----------------------------------------
 BYTE   PATT
  POIN2 Label_01171EE1
//  #11 //141   ----------------------------------------
 BYTE   PATT
  POIN2 Label_01171EE1
//  #11 //142   ----------------------------------------
 BYTE   PATT
  POIN2 Label_01171EE1
//  #11 //143   ----------------------------------------
 BYTE   PATT
  POIN2 Label_01171EE1
//  #11 //144   ----------------------------------------
 BYTE   PATT
  POIN2 Label_01171EE1
//  #11 //145   ----------------------------------------
 BYTE   PATT
  POIN2 Label_01171EE1
//  #11 //146   ----------------------------------------
 BYTE   PATT
  POIN2 Label_01171EE1
//  #11 //147   ----------------------------------------
 BYTE   W96
//  #11 //148   ----------------------------------------
 BYTE   W96
//  #11 //149   ----------------------------------------
 BYTE   W96
//  #11 //150   ----------------------------------------
 BYTE   W96
//  #11 //151   ----------------------------------------
 BYTE   W96
//  #11 //152   ----------------------------------------
 BYTE   W96
//  #11 //153   ----------------------------------------
 BYTE   W96
//  #11 //154   ----------------------------------------
 BYTE   W96
//  #11 //155   ----------------------------------------
 BYTE   W96
//  #11 //156   ----------------------------------------
 BYTE   W96
//  #11 //157   ----------------------------------------
 BYTE   W96
//  #11 //158   ----------------------------------------
 BYTE   W96
//  #11 //159   ----------------------------------------
 BYTE   W96
//  #11 //160   ----------------------------------------
 BYTE   W96
//  #11 //161   ----------------------------------------
 BYTE   W96
//  #11 //162   ----------------------------------------
 BYTE   W96
//  #11 //163   ----------------------------------------
 BYTE   W96
//  #11 //164   ----------------------------------------
 BYTE   W96
//  #11 //165   ----------------------------------------
 BYTE   W96
//  #11 //166   ----------------------------------------
 BYTE   W96
//  #11 //167   ----------------------------------------
 BYTE   W96
//  #11 //168   ----------------------------------------
 BYTE   W96
//  #11 //169   ----------------------------------------
 BYTE   W96
//  #11 //170   ----------------------------------------
 BYTE   W96
//  #11 //171   ----------------------------------------
 BYTE   W96
//  #11 //172   ----------------------------------------
 BYTE   W96
//  #11 //173   ----------------------------------------
 BYTE   W96
//  #11 //174   ----------------------------------------
 BYTE   W96
//  #11 //175   ----------------------------------------
 BYTE   W96
//  #11 //176   ----------------------------------------
 BYTE   W96
//  #11 //177   ----------------------------------------
 BYTE   N11  Fn1  v127
 BYTE   W12
 BYTE   N11
 BYTE   W24
 BYTE   N11
 BYTE   W12
 BYTE   N11
 BYTE   W24
 BYTE   N11
 BYTE   W12
 BYTE   N11
 BYTE   W12
//  #11 //178   ----------------------------------------
 BYTE   W96
//  #11 //179   ----------------------------------------
 BYTE   W96
//  #11 //180   ----------------------------------------
 BYTE   W96
//  #11 //181   ----------------------------------------
 BYTE   W96
//  #11 //182   ----------------------------------------
 BYTE   W96
//  #11 //183   ----------------------------------------
 BYTE   W96
//  #11 //184   ----------------------------------------
 BYTE   W84
 BYTE   N44  As1
 BYTE   W12
//  #11 //185   ----------------------------------------
 BYTE   W36
 BYTE   Cn2
 BYTE   W48
 BYTE   N23  Cs2
 BYTE   W12
//  #11 //186   ----------------------------------------
 BYTE   W96
//  #11 //187   ----------------------------------------
 BYTE   W96
//  #11 //188   ----------------------------------------
 BYTE   W96
//  #11 //189   ----------------------------------------
 BYTE   W96
//  #11 //190   ----------------------------------------
 BYTE   W96
//  #11 //191   ----------------------------------------
 BYTE   N11  Ds1
 BYTE   W12
 BYTE   N11
 BYTE   W36
 BYTE   N11
 BYTE   W12
 BYTE   N11
 BYTE   W36
//  #11 //192   ----------------------------------------
 BYTE   Fn1
 BYTE   W12
 BYTE   N11
 BYTE   W36
 BYTE   N11
 BYTE   W12
 BYTE   N11
 BYTE   W24
 BYTE   Gs1
 BYTE   W12
//  #11 //193   ----------------------------------------
 BYTE   Fs1
 BYTE   W12
 BYTE   N11
 BYTE   W24
 BYTE   N11
 BYTE   W12
 BYTE   N11
 BYTE   W24
 BYTE   N11
 BYTE   W12
 BYTE   N11
 BYTE   W12
//  #11 //194   ----------------------------------------
 BYTE   W72
 BYTE   Gs1
 BYTE   W24
//  #11 //195   ----------------------------------------
 BYTE   N11
 BYTE   W96
//  #11 //196   ----------------------------------------
 BYTE   W96
//  #11 //197   ----------------------------------------
 BYTE   W96
//  #11 //198   ----------------------------------------
 BYTE   W96
//  #11 //199   ----------------------------------------
 BYTE   W96
//  #11 //200   ----------------------------------------
 BYTE   W96
//  #11 //201   ----------------------------------------
 BYTE   W84
 BYTE   N44  Ds1
 BYTE   W12
//  #11 //202   ----------------------------------------
 BYTE   W36
 BYTE   Fn1
 BYTE   W48
 BYTE   N23  Fs1
 BYTE   W12
//  #11 //203   ----------------------------------------
 BYTE   W96
//  #11 //204   ----------------------------------------
 BYTE   W96
//  #11 //205   ----------------------------------------
 BYTE   W96
//  #11 //206   ----------------------------------------
 BYTE   W96
//  #11 //207   ----------------------------------------
 BYTE   W96
//  #11 //208   ----------------------------------------
 BYTE   N11  Gs1
 BYTE   W12
 BYTE   N11
 BYTE   W36
 BYTE   N11
 BYTE   W12
 BYTE   N11
 BYTE   W36
//  #11 //209   ----------------------------------------
 BYTE   As1
 BYTE   W12
 BYTE   N11
 BYTE   W36
 BYTE   N11
 BYTE   W12
 BYTE   N11
 BYTE   W24
 BYTE   Cs1
 BYTE   W12
//  #11 //210   ----------------------------------------
Label_0117215B:
 BYTE   N11  Ds1  v127
 BYTE   W12
 BYTE   N11
 BYTE   W24
 BYTE   N11
 BYTE   W12
 BYTE   N11
 BYTE   W24
 BYTE   N11
 BYTE   W12
 BYTE   N11
 BYTE   W12
 BYTE   PEND 
//  #11 //211   ----------------------------------------
Label_0117216A:
 BYTE   W12
 BYTE   N11  Ds1  v127
 BYTE   W12
 BYTE   N11
 BYTE   W24
 BYTE   N11
 BYTE   W48
 BYTE   PEND 
//  #11 //212   ----------------------------------------
 BYTE   PATT
  POIN2 Label_0117215B
//  #11 //213   ----------------------------------------
 BYTE   PATT
  POIN2 Label_0117216A
//  #11 //214   ----------------------------------------
 BYTE   PATT
  POIN2 Label_0117215B
//  #11 //215   ----------------------------------------
 BYTE   PATT
  POIN2 Label_0117216A
//  #11 //216   ----------------------------------------
 BYTE   PATT
  POIN2 Label_0117215B
//  #11 //217   ----------------------------------------
 BYTE   W12
 BYTE   N11  Ds1  v127
 BYTE   W12
 BYTE   N11
 BYTE   W24
 BYTE   N11
 BYTE   W24
 BYTE   N23
 BYTE   W24
//  #11 //218   ----------------------------------------
 BYTE   N23
 BYTE   W24
 BYTE   N68
 BYTE   N68  Ds2
 BYTE   W68
 BYTE   W03
 BYTE   FINE

//**************** Track 12 (Midi-Chn.11) ****************//

song1C_012:
//  #12 //000   ----------------------------------------
 BYTE   KEYSH   song1C_key+0
 BYTE   VOICE   1
 BYTE   VOL   18*song1C_mvl/mxv
 BYTE   PAN   c_v+0
 BYTE   VOL   12*song1C_mvl/mxv
 BYTE   PAN   c_v+0
 BYTE   VOL   30*song1C_mvl/mxv
 BYTE   PAN   c_v+0
 BYTE   VOL   16*song1C_mvl/mxv
 BYTE   PAN   c_v+0
 BYTE   W12
Label_011721B5:
 BYTE   W96
//  #12 //001   ----------------------------------------
 BYTE   W96
//  #12 //002   ----------------------------------------
 BYTE   W96
//  #12 //003   ----------------------------------------
 BYTE   W96
//  #12 //004   ----------------------------------------
 BYTE   W96
//  #12 //005   ----------------------------------------
 BYTE   W96
//  #12 //006   ----------------------------------------
 BYTE   W96
//  #12 //007   ----------------------------------------
 BYTE   W96
//  #12 //008   ----------------------------------------
Label_011721BD:
 BYTE   N22  As0  v096
 BYTE   N32  As3
 BYTE   N32  Fn4
 BYTE   W36
 BYTE   N22  As0
 BYTE   N56  Bn3
 BYTE   N56  Fs4
 BYTE   W36
 BYTE   N22  As0
 BYTE   W24
 BYTE   PEND 
//  #12 //009   ----------------------------------------
Label_011721D0:
 BYTE   N22  As0  v096
 BYTE   N32  Fn4
 BYTE   N32  Gs4
 BYTE   W36
 BYTE   N22  As0
 BYTE   N56  En4
 BYTE   N56  Gn4
 BYTE   W36
 BYTE   N22  As0
 BYTE   W24
 BYTE   PEND 
//  #12 //010   ----------------------------------------
 BYTE   PATT
  POIN2 Label_011721BD
//  #12 //011   ----------------------------------------
Label_011721E8:
 BYTE   N22  As0  v096
 BYTE   N32  Gn3
 BYTE   N32  En4
 BYTE   W36
 BYTE   N22  As0
 BYTE   N56  An3
 BYTE   N56  Fn4
 BYTE   W36
 BYTE   N22  As0
 BYTE   W24
 BYTE   PEND 
//  #12 //012   ----------------------------------------
 BYTE   PATT
  POIN2 Label_011721BD
//  #12 //013   ----------------------------------------
Label_01172200:
 BYTE   N22  As0  v096
 BYTE   N32  Fn4
 BYTE   N32  Gs4
 BYTE   W36
 BYTE   N22  As0
 BYTE   N56  En4
 BYTE   N56  Gn4
 BYTE   W36
 BYTE   N11  As0
 BYTE   W12
 BYTE   Fn1
 BYTE   W12
 BYTE   PEND 
//  #12 //014   ----------------------------------------
Label_01172215:
 BYTE   N32  As1  v096
 BYTE   N32  As3
 BYTE   N32  Fn4
 BYTE   W36
 BYTE   As1
 BYTE   N56  Bn3
 BYTE   N56  Fs4
 BYTE   W36
 BYTE   N22  As1
 BYTE   W24
 BYTE   PEND 
//  #12 //015   ----------------------------------------
Label_01172227:
 BYTE   N11  Dn1  v096
 BYTE   N32  Cn4
 BYTE   N32  Gn4
 BYTE   W12
 BYTE   N11  Ds1
 BYTE   W12
 BYTE   En1
 BYTE   W12
 BYTE   N22  Fn1
 BYTE   N56  Fn4
 BYTE   N56  An4
 BYTE   W24
 BYTE   N11  Fn1
 BYTE   W12
 BYTE   N22  Cs1
 BYTE   W24
 BYTE   PEND 
//  #12 //016   ----------------------------------------
 BYTE   W96
//  #12 //017   ----------------------------------------
 BYTE   W96
//  #12 //018   ----------------------------------------
 BYTE   W96
//  #12 //019   ----------------------------------------
 BYTE   W96
//  #12 //020   ----------------------------------------
 BYTE   W96
//  #12 //021   ----------------------------------------
 BYTE   W96
//  #12 //022   ----------------------------------------
 BYTE   W96
//  #12 //023   ----------------------------------------
 BYTE   W96
//  #12 //024   ----------------------------------------
 BYTE   W96
//  #12 //025   ----------------------------------------
 BYTE   W96
//  #12 //026   ----------------------------------------
 BYTE   W96
//  #12 //027   ----------------------------------------
 BYTE   W96
//  #12 //028   ----------------------------------------
 BYTE   W96
//  #12 //029   ----------------------------------------
 BYTE   W96
//  #12 //030   ----------------------------------------
 BYTE   W96
//  #12 //031   ----------------------------------------
 BYTE   W96
//  #12 //032   ----------------------------------------
 BYTE   W96
//  #12 //033   ----------------------------------------
 BYTE   W96
//  #12 //034   ----------------------------------------
 BYTE   W96
//  #12 //035   ----------------------------------------
 BYTE   W96
//  #12 //036   ----------------------------------------
 BYTE   W96
//  #12 //037   ----------------------------------------
 BYTE   W96
//  #12 //038   ----------------------------------------
 BYTE   W96
//  #12 //039   ----------------------------------------
 BYTE   W96
//  #12 //040   ----------------------------------------
 BYTE   W96
//  #12 //041   ----------------------------------------
 BYTE   W96
//  #12 //042   ----------------------------------------
 BYTE   W96
//  #12 //043   ----------------------------------------
 BYTE   W96
//  #12 //044   ----------------------------------------
 BYTE   W96
//  #12 //045   ----------------------------------------
 BYTE   W96
//  #12 //046   ----------------------------------------
Label_01172260:
 BYTE   N11  Fn1  v096
 BYTE   N11  Cn2
 BYTE   N11  Fn2
 BYTE   N05  Fn4
 BYTE   N05  As4
 BYTE   N05  Fn5
 BYTE   W12
 BYTE   N11  Fn1
 BYTE   N11  Cn2
 BYTE   N11  Fn2
 BYTE   N05  Fn4
 BYTE   N05  As4
 BYTE   N05  Fn5
 BYTE   W24
 BYTE   N11  Fn1
 BYTE   N11  Cn2
 BYTE   N11  Fn2
 BYTE   N05  Fn4
 BYTE   N05  As4
 BYTE   N05  Fn5
 BYTE   W12
 BYTE   N11  Fn1
 BYTE   N11  Cn2
 BYTE   N11  Fn2
 BYTE   N05  Fn4
 BYTE   N05  As4
 BYTE   N05  Fn5
 BYTE   W24
 BYTE   N11  Fn1
 BYTE   N11  Cn2
 BYTE   N11  Fn2
 BYTE   N05  Fn4
 BYTE   N05  As4
 BYTE   N05  Fn5
 BYTE   W12
 BYTE   N11  Fn1
 BYTE   N11  Cn2
 BYTE   N11  Fn2
 BYTE   N05  Fn4
 BYTE   N05  An4
 BYTE   N05  Fn5
 BYTE   W12
 BYTE   PEND 
//  #12 //047   ----------------------------------------
 BYTE   W96
//  #12 //048   ----------------------------------------
 BYTE   W96
//  #12 //049   ----------------------------------------
 BYTE   W96
//  #12 //050   ----------------------------------------
 BYTE   W96
//  #12 //051   ----------------------------------------
 BYTE   W96
//  #12 //052   ----------------------------------------
 BYTE   W96
//  #12 //053   ----------------------------------------
 BYTE   W84
 BYTE   N44  As1
 BYTE   N44  Fn2
 BYTE   N44  As2
 BYTE   N22  Cs4
 BYTE   N22  As4
 BYTE   W12
//  #12 //054   ----------------------------------------
 BYTE   W12
 BYTE   N05  Cn4
 BYTE   N05  An4
 BYTE   W12
 BYTE   Cs4
 BYTE   N05  As4
 BYTE   W12
 BYTE   N40  An1
 BYTE   N40  En2
 BYTE   N40  An2
 BYTE   N22  Ds4
 BYTE   N22  Cn5
 BYTE   W24
 BYTE   N05  Cs4
 BYTE   N05  As4
 BYTE   W12
 BYTE   Ds4
 BYTE   N05  Cn5
 BYTE   W12
 BYTE   N32  Gs1
 BYTE   N32  Ds2
 BYTE   N32  Gs2
 BYTE   N22  Fn4
 BYTE   N22  Cs5
 BYTE   W12
//  #12 //055   ----------------------------------------
Label_011722EB:
 BYTE   W24
 BYTE   N11  Gs1  v096
 BYTE   N11  Ds2
 BYTE   N11  Gs2
 BYTE   W12
 BYTE   Gs1
 BYTE   N11  Ds2
 BYTE   N11  Gs2
 BYTE   W12
 BYTE   Gn1
 BYTE   N11  Dn2
 BYTE   N11  Gn2
 BYTE   W12
 BYTE   Fs1
 BYTE   N11  Cs2
 BYTE   N11  Fs2
 BYTE   W36
 BYTE   PEND 
//  #12 //056   ----------------------------------------
 BYTE   W96
//  #12 //057   ----------------------------------------
 BYTE   W96
//  #12 //058   ----------------------------------------
 BYTE   W96
//  #12 //059   ----------------------------------------
 BYTE   W96
//  #12 //060   ----------------------------------------
 BYTE   W96
//  #12 //061   ----------------------------------------
 BYTE   W96
//  #12 //062   ----------------------------------------
 BYTE   As1
 BYTE   N11  Fn2
 BYTE   N11  As2
 BYTE   N11  Ds4
 BYTE   N11  As4
 BYTE   W12
 BYTE   As1
 BYTE   N11  Fn2
 BYTE   N11  As2
 BYTE   N11  Ds4
 BYTE   N11  As4
 BYTE   W24
 BYTE   As1
 BYTE   N11  Fn2
 BYTE   N11  As2
 BYTE   N11  Ds4
 BYTE   N11  As4
 BYTE   W12
 BYTE   As1
 BYTE   N11  Fn2
 BYTE   N11  As2
 BYTE   N11  Ds4
 BYTE   N11  As4
 BYTE   W24
 BYTE   As1
 BYTE   N11  Fn2
 BYTE   N11  As2
 BYTE   N11  Ds4
 BYTE   N11  As4
 BYTE   W12
 BYTE   As1
 BYTE   N11  Fn2
 BYTE   N11  As2
 BYTE   N11  Ds4
 BYTE   N11  As4
 BYTE   W12
//  #12 //063   ----------------------------------------
 BYTE   W12
 BYTE   As1
 BYTE   N11  Fn2
 BYTE   N11  As2
 BYTE   N11  Ds4
 BYTE   N11  As4
 BYTE   W12
 BYTE   As1
 BYTE   N11  Fn2
 BYTE   N11  As2
 BYTE   N11  Ds4
 BYTE   N11  As4
 BYTE   W24
 BYTE   As1
 BYTE   N11  Fn2
 BYTE   N11  As2
 BYTE   N11  Dn4
 BYTE   N11  As4
 BYTE   W48
//  #12 //064   ----------------------------------------
Label_01172368:
 BYTE   N11  As1  v096
 BYTE   N11  Fn2
 BYTE   N11  As2
 BYTE   N11  Ds4
 BYTE   N11  As4
 BYTE   N11  Ds5
 BYTE   W12
 BYTE   As1
 BYTE   N11  Fn2
 BYTE   N11  As2
 BYTE   N11  Ds4
 BYTE   N11  As4
 BYTE   N11  Ds5
 BYTE   W24
 BYTE   As1
 BYTE   N11  Fn2
 BYTE   N11  As2
 BYTE   N11  Ds4
 BYTE   N11  As4
 BYTE   N11  Ds5
 BYTE   W12
 BYTE   As1
 BYTE   N11  Fn2
 BYTE   N11  As2
 BYTE   N11  Ds4
 BYTE   N11  As4
 BYTE   N11  Ds5
 BYTE   W24
 BYTE   As1
 BYTE   N11  Fn2
 BYTE   N11  As2
 BYTE   N11  Ds4
 BYTE   N11  As4
 BYTE   N11  Ds5
 BYTE   W12
 BYTE   As1
 BYTE   N11  Fn2
 BYTE   N11  As2
 BYTE   N11  Ds4
 BYTE   N11  As4
 BYTE   N11  Ds5
 BYTE   W12
 BYTE   PEND 
//  #12 //065   ----------------------------------------
Label_011723B3:
 BYTE   W12
 BYTE   N11  As1  v096
 BYTE   N11  Fn2
 BYTE   N11  As2
 BYTE   N11  Ds4
 BYTE   N11  As4
 BYTE   N11  Ds5
 BYTE   W12
 BYTE   As1
 BYTE   N11  Fn2
 BYTE   N11  As2
 BYTE   N11  Ds4
 BYTE   N11  As4
 BYTE   N11  Ds5
 BYTE   W24
 BYTE   As1
 BYTE   N11  Fn2
 BYTE   N11  As2
 BYTE   N11  Dn4
 BYTE   N11  As4
 BYTE   N11  Dn5
 BYTE   W48
 BYTE   PEND 
//  #12 //066   ----------------------------------------
 BYTE   W96
//  #12 //067   ----------------------------------------
 BYTE   W96
//  #12 //068   ----------------------------------------
 BYTE   W96
//  #12 //069   ----------------------------------------
 BYTE   W96
//  #12 //070   ----------------------------------------
 BYTE   W96
//  #12 //071   ----------------------------------------
 BYTE   W96
//  #12 //072   ----------------------------------------
 BYTE   W96
//  #12 //073   ----------------------------------------
 BYTE   W96
//  #12 //074   ----------------------------------------
Label_011723E3:
 BYTE   N11  As0  v096
 BYTE   W12
 BYTE   N11
 BYTE   W12
 BYTE   Cs1
 BYTE   W12
 BYTE   As0
 BYTE   W12
 BYTE   En1
 BYTE   W12
 BYTE   Ds1
 BYTE   W12
 BYTE   Cs1
 BYTE   W12
 BYTE   N22  As0
 BYTE   W12
 BYTE   PEND 
//  #12 //075   ----------------------------------------
Label_011723F7:
 BYTE   W12
 BYTE   N11  As0  v096
 BYTE   W12
 BYTE   Cs1
 BYTE   W12
 BYTE   As0
 BYTE   W12
 BYTE   Fn0
 BYTE   W12
 BYTE   En0
 BYTE   W12
 BYTE   Ds0
 BYTE   W12
 BYTE   Cs0
 BYTE   W12
 BYTE   PEND 
//  #12 //076   ----------------------------------------
Label_01172409:
 BYTE   N11  As0  v096
 BYTE   W12
 BYTE   N11
 BYTE   W12
 BYTE   Cs1
 BYTE   W12
 BYTE   As0
 BYTE   W12
 BYTE   En1
 BYTE   W12
 BYTE   Ds1
 BYTE   W12
 BYTE   Cs1
 BYTE   W12
 BYTE   N22  Fs0
 BYTE   W12
 BYTE   PEND 
//  #12 //077   ----------------------------------------
 BYTE   W12
 BYTE   N11  As0
 BYTE   W12
 BYTE   Cs1
 BYTE   W12
 BYTE   N22  Gs0
 BYTE   W60
//  #12 //078   ----------------------------------------
 BYTE   PATT
  POIN2 Label_011723E3
//  #12 //079   ----------------------------------------
 BYTE   PATT
  POIN2 Label_011723F7
//  #12 //080   ----------------------------------------
 BYTE   PATT
  POIN2 Label_01172409
//  #12 //081   ----------------------------------------
 BYTE   W12
 BYTE   N11  As0  v096
 BYTE   W12
 BYTE   Fs1
 BYTE   W12
 BYTE   N22  Gs1
 BYTE   W24
 BYTE   N11  Ds1
 BYTE   W12
 BYTE   Gs1
 BYTE   W12
 BYTE   Cn2
 BYTE   W12
//  #12 //082   ----------------------------------------
 BYTE   PATT
  POIN2 Label_01172368
//  #12 //083   ----------------------------------------
 BYTE   PATT
  POIN2 Label_011723B3
//  #12 //084   ----------------------------------------
 BYTE   PATT
  POIN2 Label_01172368
//  #12 //085   ----------------------------------------
 BYTE   PATT
  POIN2 Label_011723B3
//  #12 //086   ----------------------------------------
 BYTE   GoTo
  POIN2 Label_011721B5
//  #12 //087   ----------------------------------------
 BYTE   W96
//  #12 //088   ----------------------------------------
 BYTE   W96
//  #12 //089   ----------------------------------------
 BYTE   W96
//  #12 //090   ----------------------------------------
 BYTE   W96
//  #12 //091   ----------------------------------------
 BYTE   W12
 BYTE   N11  As4  v096
 BYTE   W12
 BYTE   Ds5
 BYTE   W12
 BYTE   As4
 BYTE   W12
 BYTE   Dn5
 BYTE   W12
 BYTE   Ds5
 BYTE   W12
 BYTE   As4
 BYTE   W24
//  #12 //092   ----------------------------------------
 BYTE   W12
 BYTE   N11
 BYTE   W12
 BYTE   Fn5
 BYTE   W24
 BYTE   Ds5
 BYTE   W12
 BYTE   Dn5
 BYTE   W12
 BYTE   Cn5
 BYTE   W24
//  #12 //093   ----------------------------------------
 BYTE   W12
 BYTE   Ds5
 BYTE   W12
 BYTE   Gn5
 BYTE   W12
 BYTE   Ds5
 BYTE   W12
 BYTE   Fn5
 BYTE   W12
 BYTE   Dn5
 BYTE   W12
 BYTE   Cn5
 BYTE   W24
//  #12 //094   ----------------------------------------
 BYTE   W12
 BYTE   N11
 BYTE   W12
 BYTE   Fn5
 BYTE   W12
 BYTE   N22  Cn5
 BYTE   W24
 BYTE   N11  Dn5
 BYTE   W12
 BYTE   Fn5
 BYTE   W12
 BYTE   Dn5
 BYTE   W12
//  #12 //095   ----------------------------------------
 BYTE   TIE  Gn4
 BYTE   TIE  As4
 BYTE   TIE  Ds5
 BYTE   TIE  Gn5
 BYTE   W96
//  #12 //096   ----------------------------------------
 BYTE   W84
 BYTE   W02
 BYTE   EOT
 BYTE   Gn4  v082
 BYTE   Ds5  v091
 BYTE   W10
//  #12 //097   ----------------------------------------
 BYTE   W12
 BYTE   N22  As4  v112
 BYTE   W24
 BYTE   An4  v108
 BYTE   W24
 BYTE   Fn4  v100
 BYTE   W24
 BYTE   Dn4  v096
 BYTE   W12
//  #12 //098   ----------------------------------------
 BYTE   W12
 BYTE   As3  v088
 BYTE   W24
 BYTE   An3  v080
 BYTE   W24
 BYTE   N32  Fn3  v076
 BYTE   W36
//  #12 //099   ----------------------------------------
 BYTE   N22  Gn2  v064
 BYTE   N22  As4
 BYTE   W24
 BYTE   As2
 BYTE   N22  Dn4
 BYTE   W24
 BYTE   N44  Gn3
 BYTE   N22  Gn4
 BYTE   W24
 BYTE   Dn5
 BYTE   W24
//  #12 //100   ----------------------------------------
 BYTE   Fn2
 BYTE   N22  Cn5
 BYTE   W24
 BYTE   Cn3
 BYTE   N22  As4
 BYTE   W24
 BYTE   N44  Fn3
 BYTE   N22  An4
 BYTE   W24
 BYTE   Dn4
 BYTE   W24
//  #12 //101   ----------------------------------------
 BYTE   Ds2
 BYTE   N44  Gn4
 BYTE   W24
 BYTE   N22  As2
 BYTE   W24
 BYTE   N44  Ds3
 BYTE   N22  An4
 BYTE   W24
 BYTE   As4
 BYTE   W24
//  #12 //102   ----------------------------------------
 BYTE   As1
 BYTE   N22  Fn4
 BYTE   W24
 BYTE   Fn2
 BYTE   N22  Ds4
 BYTE   W24
 BYTE   N44  As2
 BYTE   N44  Dn4
 BYTE   W48
//  #12 //103   ----------------------------------------
 BYTE   N22  Cn2
 BYTE   N22  Ds4
 BYTE   W24
 BYTE   Gn2
 BYTE   N22  Fn4
 BYTE   W24
 BYTE   N44  Cn3
 BYTE   N22  Gn4
 BYTE   W24
 BYTE   Ds4
 BYTE   W24
//  #12 //104   ----------------------------------------
 BYTE   As1
 BYTE   N44  Dn4
 BYTE   W24
 BYTE   N22  Fn2
 BYTE   W24
 BYTE   N44  As2
 BYTE   N22  Gn4
 BYTE   W24
 BYTE   As4
 BYTE   W24
//  #12 //105   ----------------------------------------
 BYTE   Cs2
 BYTE   N22  As4
 BYTE   W24
 BYTE   Gn2
 BYTE   N22  An4
 BYTE   W24
 BYTE   N44  Cs3
 BYTE   N22  Gn4
 BYTE   W24
 BYTE   An4
 BYTE   W24
//  #12 //106   ----------------------------------------
 BYTE   Dn2
 BYTE   N44  Gn4
 BYTE   W24
 BYTE   N22  An2
 BYTE   W24
 BYTE   N44  Dn3
 BYTE   N44  Fs4
 BYTE   W48
//  #12 //107   ----------------------------------------
 BYTE   N22  Gn2
 BYTE   W24
 BYTE   As2
 BYTE   W24
 BYTE   N44  Gn3
 BYTE   W48
//  #12 //108   ----------------------------------------
 BYTE   N22  Fn2
 BYTE   W24
 BYTE   Cn3
 BYTE   W24
 BYTE   N44  Fn3
 BYTE   W48
//  #12 //109   ----------------------------------------
 BYTE   N22  Ds2
 BYTE   W24
 BYTE   As2
 BYTE   W24
 BYTE   N44  Ds3
 BYTE   W48
//  #12 //110   ----------------------------------------
Label_0117254F:
 BYTE   N22  As1  v064
 BYTE   W24
 BYTE   Fn2
 BYTE   W24
 BYTE   N44  As2
 BYTE   W48
 BYTE   PEND 
//  #12 //111   ----------------------------------------
 BYTE   N22  Cn2
 BYTE   W24
 BYTE   Gn2
 BYTE   W24
 BYTE   N44  Cn3
 BYTE   W48
//  #12 //112   ----------------------------------------
 BYTE   PATT
  POIN2 Label_0117254F
//  #12 //113   ----------------------------------------
 BYTE   N22  Cs2  v064
 BYTE   W24
 BYTE   Gn2
 BYTE   W24
 BYTE   N44  Cs3
 BYTE   W48
//  #12 //114   ----------------------------------------
 BYTE   N22  Dn2
 BYTE   W24
 BYTE   An2
 BYTE   W24
 BYTE   N44  Dn3
 BYTE   W24
 BYTE   N11  Gn3
 BYTE   W12
 BYTE   An3
 BYTE   W12
//  #12 //115   ----------------------------------------
 BYTE   N22  Gn1
 BYTE   N22  As3
 BYTE   W24
 BYTE   Dn2
 BYTE   N44  Gn3
 BYTE   W24
 BYTE   Gn2
 BYTE   W24
 BYTE   N11  Cn4
 BYTE   W12
 BYTE   As3
 BYTE   W12
//  #12 //116   ----------------------------------------
 BYTE   N22  Fn1
 BYTE   N22  An3
 BYTE   W24
 BYTE   Cn2
 BYTE   N22  Fn3
 BYTE   W24
 BYTE   N44  Fn2
 BYTE   N22  Dn3
 BYTE   W24
 BYTE   Fn3
 BYTE   W24
//  #12 //117   ----------------------------------------
 BYTE   Ds1
 BYTE   N22  Fn3
 BYTE   W24
 BYTE   As1
 BYTE   N44  Gn3
 BYTE   W24
 BYTE   Gn2
 BYTE   W24
 BYTE   N22  Gn3
 BYTE   W24
//  #12 //118   ----------------------------------------
 BYTE   As0
 BYTE   N22  Fn3
 BYTE   W24
 BYTE   Dn2
 BYTE   N68  Dn3
 BYTE   W24
 BYTE   N44  As2
 BYTE   W48
//  #12 //119   ----------------------------------------
 BYTE   N22  Gn0
 BYTE   N68  As3
 BYTE   W24
 BYTE   N22  Dn1
 BYTE   W24
 BYTE   N44  As1
 BYTE   W24
 BYTE   N11  Cn4
 BYTE   W12
 BYTE   Dn4
 BYTE   W12
//  #12 //120   ----------------------------------------
 BYTE   N22  Fn0
 BYTE   N22  Cn4
 BYTE   W24
 BYTE   Dn1
 BYTE   N22  As3
 BYTE   W24
 BYTE   N44  Fn1
 BYTE   N22  An3
 BYTE   W24
 BYTE   Cn4
 BYTE   W24
//  #12 //121   ----------------------------------------
 BYTE   Ds0
 BYTE   N90  As3
 BYTE   W24
 BYTE   N22  As0
 BYTE   W24
 BYTE   Ds1
 BYTE   W24
 BYTE   Fn1
 BYTE   W24
//  #12 //122   ----------------------------------------
 BYTE   N44  Gn1
 BYTE   W48
 BYTE   Fn1
 BYTE   W48
//  #12 //123   ----------------------------------------
Label_011725E4:
 BYTE   N22  Gn1  v064
 BYTE   N44  Gn3
 BYTE   W24
 BYTE   N22  Dn2
 BYTE   W24
 BYTE   N44  As2
 BYTE   W12
 BYTE   N11  Dn3
 BYTE   W12
 BYTE   Gn3
 BYTE   W12
 BYTE   Dn4
 BYTE   W12
 BYTE   PEND 
//  #12 //124   ----------------------------------------
Label_011725F8:
 BYTE   N22  Fn1  v064
 BYTE   N44  Gn3
 BYTE   W24
 BYTE   N22  Cn2
 BYTE   W24
 BYTE   N44  An2
 BYTE   W12
 BYTE   N11  Dn3
 BYTE   W12
 BYTE   Gn3
 BYTE   W12
 BYTE   Dn4
 BYTE   W12
 BYTE   PEND 
//  #12 //125   ----------------------------------------
Label_0117260C:
 BYTE   N22  Ds1  v064
 BYTE   N44  Gn3
 BYTE   W24
 BYTE   N22  As1
 BYTE   W24
 BYTE   N44  Gn2
 BYTE   W12
 BYTE   N11  Dn3
 BYTE   W12
 BYTE   Gn3
 BYTE   W12
 BYTE   Dn4
 BYTE   W12
 BYTE   PEND 
//  #12 //126   ----------------------------------------
 BYTE   N22  Fn1
 BYTE   N22  Dn4
 BYTE   W24
 BYTE   Cn2
 BYTE   N22  Ds4
 BYTE   W24
 BYTE   N44  Fn2
 BYTE   N22  Dn4
 BYTE   W24
 BYTE   Cn4
 BYTE   W24
//  #12 //127   ----------------------------------------
 BYTE   PATT
  POIN2 Label_011725E4
//  #12 //128   ----------------------------------------
 BYTE   PATT
  POIN2 Label_011725F8
//  #12 //129   ----------------------------------------
 BYTE   PATT
  POIN2 Label_0117260C
//  #12 //130   ----------------------------------------
 BYTE   N22  Fn1  v064
 BYTE   N11  Dn4
 BYTE   W12
 BYTE   Ds4
 BYTE   W12
 BYTE   N22  Cn2
 BYTE   N11  Dn4
 BYTE   W12
 BYTE   Cn4
 BYTE   W12
 BYTE   N44  Fn2
 BYTE   N11  As3
 BYTE   W12
 BYTE   Cn4
 BYTE   W12
 BYTE   As3
 BYTE   W12
 BYTE   An3
 BYTE   W12
//  #12 //131   ----------------------------------------
 BYTE   TIE  Cn0  v052
 BYTE   TIE  Cn1
 BYTE   N11  Gn4
 BYTE   W12
 BYTE   Ds4
 BYTE   W12
 BYTE   Cn4
 BYTE   W12
 BYTE   N22  Gs4
 BYTE   W24
 BYTE   N11  En4  v056
 BYTE   W12
 BYTE   N22  Cs4
 BYTE   W24
//  #12 //132   ----------------------------------------
 BYTE   N11  An4
 BYTE   W12
 BYTE   Fs4  v060
 BYTE   W12
 BYTE   Dn4
 BYTE   W12
 BYTE   N22  Bn4
 BYTE   W24
 BYTE   N11  Gn4  v064
 BYTE   W12
 BYTE   N22  Dn4
 BYTE   W24
//  #12 //133   ----------------------------------------
 BYTE   N11  Gn4
 BYTE   W12
 BYTE   Ds4  v068
 BYTE   W12
 BYTE   Cn4
 BYTE   W12
 BYTE   N22  Gs4
 BYTE   W24
 BYTE   N11  En4  v072
 BYTE   W12
 BYTE   N22  Cs4
 BYTE   W24
//  #12 //134   ----------------------------------------
 BYTE   N11  An4
 BYTE   W12
 BYTE   Fs4  v076
 BYTE   W12
 BYTE   Dn4
 BYTE   W12
 BYTE   N22  Bn4
 BYTE   W24
 BYTE   N11  Gn4  v080
 BYTE   W12
 BYTE   N22  Dn4
 BYTE   W04
 BYTE   EOT
 BYTE   Cn0  v036
 BYTE   W20
//  #12 //135   ----------------------------------------
 BYTE   N22  Gn4
 BYTE   W24
 BYTE   N11  Cn4  v084
 BYTE   W12
 BYTE   N22  Gs4
 BYTE   W24
 BYTE   N11  En4
 BYTE   W12
 BYTE   Cs4
 BYTE   W12
 BYTE   Cn4
 BYTE   W12
//  #12 //136   ----------------------------------------
 BYTE   An4
 BYTE   W12
 BYTE   N22  Dn4
 BYTE   W24
 BYTE   Fn4  v088
 BYTE   W24
 BYTE   N11  Cs4
 BYTE   W12
 BYTE   As3
 BYTE   W12
 BYTE   Cs4
 BYTE   W12
//  #12 //137   ----------------------------------------
 BYTE   Fn4
 BYTE   W12
 BYTE   Cs4
 BYTE   W12
 BYTE   As3  v092
 BYTE   W12
 BYTE   N22  Fs4
 BYTE   W24
 BYTE   N11  Dn4
 BYTE   W12
 BYTE   N22  Bn3
 BYTE   W24
//  #12 //138   ----------------------------------------
 BYTE   N11  Gn4
 BYTE   W12
 BYTE   En4
 BYTE   W12
 BYTE   Cn4  v096
 BYTE   W12
 BYTE   N22  An4
 BYTE   W24
 BYTE   N11  Fn4
 BYTE   W12
 BYTE   N22  Cn4
 BYTE   W24
//  #12 //139   ----------------------------------------
 BYTE   PATT
  POIN2 Label_011721BD
//  #12 //140   ----------------------------------------
 BYTE   PATT
  POIN2 Label_011721D0
//  #12 //141   ----------------------------------------
 BYTE   PATT
  POIN2 Label_011721BD
//  #12 //142   ----------------------------------------
 BYTE   PATT
  POIN2 Label_011721E8
//  #12 //143   ----------------------------------------
 BYTE   PATT
  POIN2 Label_011721BD
//  #12 //144   ----------------------------------------
 BYTE   PATT
  POIN2 Label_01172200
//  #12 //145   ----------------------------------------
 BYTE   PATT
  POIN2 Label_01172215
//  #12 //146   ----------------------------------------
 BYTE   PATT
  POIN2 Label_01172227
//  #12 //147   ----------------------------------------
 BYTE   W24
 BYTE   N11  Fn3  v080
 BYTE   N11  Gs3
 BYTE   N11  Cs4
 BYTE   W36
 BYTE   Fs3
 BYTE   N11  As3
 BYTE   N11  Ds4
 BYTE   W36
//  #12 //148   ----------------------------------------
 BYTE   En3
 BYTE   N11  An3
 BYTE   N11  Cn4
 BYTE   W36
 BYTE   N22  En4
 BYTE   N22  En5
 BYTE   W24
 BYTE   N11  Ds4
 BYTE   N11  Ds5
 BYTE   W12
 BYTE   Cs4
 BYTE   N11  Cs5
 BYTE   W12
 BYTE   Gs3
 BYTE   N11  Gs4
 BYTE   W12
//  #12 //149   ----------------------------------------
 BYTE   W12
 BYTE   As3
 BYTE   N11  Fn4
 BYTE   W12
 BYTE   Bn3
 BYTE   N11  Ds4
 BYTE   N11  Fs4
 BYTE   W36
 BYTE   Bn3
 BYTE   N11  Cs4
 BYTE   N11  Fs4
 BYTE   W24
 BYTE   N22  As3
 BYTE   N22  Fn4
 BYTE   W12
//  #12 //150   ----------------------------------------
 BYTE   W96
//  #12 //151   ----------------------------------------
 BYTE   W36
 BYTE   Cs4
 BYTE   N22  Fn4
 BYTE   N22  As4
 BYTE   W24
 BYTE   N11  Cs4
 BYTE   N11  Fn4
 BYTE   N11  Gs4
 BYTE   W12
 BYTE   Fn4
 BYTE   N11  Gs4
 BYTE   N11  Cn5
 BYTE   W24
//  #12 //152   ----------------------------------------
 BYTE   N17  En4
 BYTE   N17  Gn4
 BYTE   N17  Cn5
 BYTE   W36
 BYTE   N22  Cn4
 BYTE   N22  En4
 BYTE   N22  Gn4
 BYTE   W24
 BYTE   N11  Cn4
 BYTE   N11  En4
 BYTE   N11  Gn4
 BYTE   W12
 BYTE   As3
 BYTE   N11  Dn4
 BYTE   N11  Fn4
 BYTE   W12
 BYTE   N32  Fs3
 BYTE   N32  Bn3
 BYTE   N32  Ds4
 BYTE   W12
//  #12 //153   ----------------------------------------
 BYTE   W24
 BYTE   N11  Cs4
 BYTE   N11  Fn4
 BYTE   W24
 BYTE   Ds4
 BYTE   N11  Fs4
 BYTE   W24
 BYTE   Fn4
 BYTE   N11  Gs4
 BYTE   W12
 BYTE   N32  Cs4
 BYTE   N32  Fn4
 BYTE   W12
//  #12 //154   ----------------------------------------
 BYTE   W24
 BYTE   N11  Ds4
 BYTE   N11  Gs4
 BYTE   W24
 BYTE   Fn4
 BYTE   N11  Gs4
 BYTE   W24
 BYTE   Cs4
 BYTE   N11  Fn4
 BYTE   W12
 BYTE   N11
 BYTE   N11  Gs4
 BYTE   W12
//  #12 //155   ----------------------------------------
 BYTE   W24
 BYTE   As3
 BYTE   N11  Cs4
 BYTE   N11  Fn4
 BYTE   W24
 BYTE   As3
 BYTE   N11  Cs4
 BYTE   N11  Fn4
 BYTE   W24
 BYTE   As3
 BYTE   N11  Cs4
 BYTE   N11  Fn4
 BYTE   W12
 BYTE   N22  Cn4
 BYTE   N22  En4
 BYTE   N22  An4
 BYTE   W12
//  #12 //156   ----------------------------------------
 BYTE   W12
 BYTE   N11  Cn4
 BYTE   N11  En4
 BYTE   N11  An4
 BYTE   W12
 BYTE   Cn4
 BYTE   N11  En4
 BYTE   N11  An4
 BYTE   W12
 BYTE   N22  En4
 BYTE   N22  An4
 BYTE   N22  Cn5
 BYTE   W24
 BYTE   N11  Ds4
 BYTE   N11  Gs4
 BYTE   N11  Cn5
 BYTE   W12
 BYTE   Cs4
 BYTE   N11  Fs4
 BYTE   N11  As4
 BYTE   W12
 BYTE   Gs3
 BYTE   N11  Cs4
 BYTE   N11  Fn4
 BYTE   W12
//  #12 //157   ----------------------------------------
 BYTE   W24
 BYTE   N05  Bn3
 BYTE   N05  Ds4
 BYTE   N05  Fs4
 BYTE   W12
 BYTE   Bn3
 BYTE   N05  Ds4
 BYTE   N05  Fs4
 BYTE   W12
 BYTE   Bn3
 BYTE   N05  Ds4
 BYTE   N05  Fs4
 BYTE   W12
 BYTE   N11  Ds4
 BYTE   N11  Fs4
 BYTE   N11  Bn4
 BYTE   W12
 BYTE   Ds4
 BYTE   N11  Fs4
 BYTE   N11  Bn4
 BYTE   W12
 BYTE   N44  Cs4
 BYTE   N44  Fn4
 BYTE   N44  As4
 BYTE   W12
//  #12 //158   ----------------------------------------
 BYTE   W36
 BYTE   N22  Cs4
 BYTE   N22  Fn4
 BYTE   N22  Gs4
 BYTE   W24
 BYTE   N11  As3
 BYTE   N11  Cs4
 BYTE   N11  Fn4
 BYTE   W12
 BYTE   Gs3
 BYTE   N11  Cn4
 BYTE   N11  Ds4
 BYTE   W12
 BYTE   Fn3
 BYTE   N11  Gs3
 BYTE   N11  Cn4
 BYTE   W12
//  #12 //159   ----------------------------------------
 BYTE   W96
//  #12 //160   ----------------------------------------
 BYTE   W96
//  #12 //161   ----------------------------------------
 BYTE   W96
//  #12 //162   ----------------------------------------
 BYTE   W96
//  #12 //163   ----------------------------------------
 BYTE   W96
//  #12 //164   ----------------------------------------
 BYTE   W96
//  #12 //165   ----------------------------------------
 BYTE   W96
//  #12 //166   ----------------------------------------
 BYTE   W96
//  #12 //167   ----------------------------------------
 BYTE   W96
//  #12 //168   ----------------------------------------
 BYTE   W96
//  #12 //169   ----------------------------------------
 BYTE   W96
//  #12 //170   ----------------------------------------
 BYTE   W96
//  #12 //171   ----------------------------------------
 BYTE   As0  v096
 BYTE   N11  Ds1
 BYTE   W24
 BYTE   As0
 BYTE   N11  Ds1
 BYTE   W12
 BYTE   N32  As0
 BYTE   N32  Ds1
 BYTE   W36
 BYTE   N11  As0
 BYTE   N11  Ds1
 BYTE   W24
//  #12 //172   ----------------------------------------
 BYTE   Cn1
 BYTE   N11  Fn1
 BYTE   W24
 BYTE   Cn1
 BYTE   N11  Fn1
 BYTE   W12
 BYTE   N32  Cn1
 BYTE   N32  Fn1
 BYTE   W36
 BYTE   N11  Cn1
 BYTE   N11  Fn1
 BYTE   W24
//  #12 //173   ----------------------------------------
 BYTE   Cs1
 BYTE   N11  Fs1
 BYTE   W24
 BYTE   Cs1
 BYTE   N11  Fs1
 BYTE   W12
 BYTE   N32  Cs1
 BYTE   N32  Fs1
 BYTE   W36
 BYTE   N11  Cs1
 BYTE   N11  Fs1
 BYTE   W24
//  #12 //174   ----------------------------------------
 BYTE   Dn1
 BYTE   N11  Gn1
 BYTE   W24
 BYTE   Dn1
 BYTE   N11  Gn1
 BYTE   W12
 BYTE   N32  Dn1
 BYTE   N32  Gn1
 BYTE   W36
 BYTE   N11  Dn1
 BYTE   N11  Gn1
 BYTE   W24
//  #12 //175   ----------------------------------------
 BYTE   N05  Ds1
 BYTE   N05  Gs1
 BYTE   W12
 BYTE   N11  Ds1
 BYTE   N11  Gs1
 BYTE   W24
 BYTE   N05  Ds1
 BYTE   N05  Gs1
 BYTE   W24
 BYTE   Ds1
 BYTE   N05  Gs1
 BYTE   W24
 BYTE   Ds1
 BYTE   N05  Gs1
 BYTE   W12
//  #12 //176   ----------------------------------------
 BYTE   N11  Ds1
 BYTE   N11  Gs1
 BYTE   W12
 BYTE   Cs1
 BYTE   N11  Fs1
 BYTE   W12
 BYTE   As0
 BYTE   N11  Ds1
 BYTE   W12
 BYTE   N22
 BYTE   N22  Gs1
 BYTE   W24
 BYTE   N11  Cs1
 BYTE   N11  Fs1
 BYTE   W12
 BYTE   N22  As0
 BYTE   N22  Ds1
 BYTE   W24
//  #12 //177   ----------------------------------------
 BYTE   PATT
  POIN2 Label_01172260
//  #12 //178   ----------------------------------------
 BYTE   W96
//  #12 //179   ----------------------------------------
 BYTE   W96
//  #12 //180   ----------------------------------------
 BYTE   W96
//  #12 //181   ----------------------------------------
 BYTE   W96
//  #12 //182   ----------------------------------------
 BYTE   W96
//  #12 //183   ----------------------------------------
 BYTE   W96
//  #12 //184   ----------------------------------------
 BYTE   W84
 BYTE   N22  As1  v096
 BYTE   N22  Fn2
 BYTE   N22  As2
 BYTE   N22  Cs4
 BYTE   N22  As4
 BYTE   W12
//  #12 //185   ----------------------------------------
 BYTE   W12
 BYTE   N05  Cn4
 BYTE   N05  An4
 BYTE   W12
 BYTE   Cs4
 BYTE   N05  As4
 BYTE   W12
 BYTE   N22  An1
 BYTE   N22  En2
 BYTE   N22  An2
 BYTE   N22  Ds4
 BYTE   N22  Cn5
 BYTE   W24
 BYTE   N05  Cs4
 BYTE   N05  As4
 BYTE   W12
 BYTE   Ds4
 BYTE   N05  Cn5
 BYTE   W12
 BYTE   N32  Gs1
 BYTE   N32  Ds2
 BYTE   N32  Gs2
 BYTE   N22  Fn4
 BYTE   N22  Cs5
 BYTE   W12
//  #12 //186   ----------------------------------------
 BYTE   PATT
  POIN2 Label_011722EB
//  #12 //187   ----------------------------------------
 BYTE   W96
//  #12 //188   ----------------------------------------
 BYTE   W96
//  #12 //189   ----------------------------------------
 BYTE   W96
//  #12 //190   ----------------------------------------
 BYTE   W96
//  #12 //191   ----------------------------------------
 BYTE   W96
//  #12 //192   ----------------------------------------
 BYTE   W96
//  #12 //193   ----------------------------------------
 BYTE   N11  Fs1  v096
 BYTE   N11  Cs2
 BYTE   N11  Fs2
 BYTE   N11  Cs4
 BYTE   N11  Fs4
 BYTE   W12
 BYTE   Fs1
 BYTE   N11  Cs2
 BYTE   N11  Fs2
 BYTE   N11  Cs4
 BYTE   N11  Fs4
 BYTE   W24
 BYTE   Fs1
 BYTE   N11  Cs2
 BYTE   N11  Fs2
 BYTE   N11  Cs4
 BYTE   N11  Fs4
 BYTE   W12
 BYTE   Fs1
 BYTE   N11  Cs2
 BYTE   N11  Fs2
 BYTE   N11  Cs4
 BYTE   N11  Fs4
 BYTE   W24
 BYTE   Fs1
 BYTE   N11  Cs2
 BYTE   N11  Fs2
 BYTE   N11  Cs4
 BYTE   N11  Fs4
 BYTE   W12
 BYTE   Fs1
 BYTE   N11  Cs2
 BYTE   N11  Fs2
 BYTE   N11  Cs4
 BYTE   N11  Fn4
 BYTE   W12
//  #12 //194   ----------------------------------------
 BYTE   W72
 BYTE   Gs1
 BYTE   N11  Ds2
 BYTE   N11  Gs2
 BYTE   W24
//  #12 //195   ----------------------------------------
 BYTE   Gs1
 BYTE   N11  Ds2
 BYTE   N11  Gs2
 BYTE   W96
//  #12 //196   ----------------------------------------
 BYTE   W96
//  #12 //197   ----------------------------------------
 BYTE   W96
//  #12 //198   ----------------------------------------
 BYTE   W96
//  #12 //199   ----------------------------------------
 BYTE   W96
//  #12 //200   ----------------------------------------
 BYTE   W96
//  #12 //201   ----------------------------------------
 BYTE   W84
 BYTE   N22  Ds2
 BYTE   N22  As2
 BYTE   N22  Ds3
 BYTE   N22  Fs4
 BYTE   N22  Ds5
 BYTE   W12
//  #12 //202   ----------------------------------------
 BYTE   W12
 BYTE   N05  Fn4
 BYTE   N05  Dn5
 BYTE   W12
 BYTE   Fs4
 BYTE   N05  Ds5
 BYTE   W12
 BYTE   N22  Dn2
 BYTE   N22  An2
 BYTE   N22  Dn3
 BYTE   N22  Gs4
 BYTE   N22  Fn5
 BYTE   W24
 BYTE   N05  Fs4
 BYTE   N05  Ds5
 BYTE   W12
 BYTE   Gs4
 BYTE   N05  Fn5
 BYTE   W12
 BYTE   N32  Cs2
 BYTE   N32  Gs2
 BYTE   N32  Cs3
 BYTE   N22  As4
 BYTE   N22  Fs5
 BYTE   W12
//  #12 //203   ----------------------------------------
 BYTE   W24
 BYTE   N11  Cs2
 BYTE   N11  Gs2
 BYTE   N11  Cs3
 BYTE   W12
 BYTE   Cs2
 BYTE   N11  Gs2
 BYTE   N11  Cs3
 BYTE   W12
 BYTE   Cn2
 BYTE   N11  Gn2
 BYTE   N11  Cn3
 BYTE   W12
 BYTE   Bn1
 BYTE   N11  Fs2
 BYTE   N11  Bn2
 BYTE   W36
//  #12 //204   ----------------------------------------
 BYTE   W96
//  #12 //205   ----------------------------------------
 BYTE   W96
//  #12 //206   ----------------------------------------
 BYTE   W96
//  #12 //207   ----------------------------------------
 BYTE   W96
//  #12 //208   ----------------------------------------
 BYTE   W96
//  #12 //209   ----------------------------------------
 BYTE   W96
//  #12 //210   ----------------------------------------
Label_011729A8:
 BYTE   N11  Ds2  v096
 BYTE   N11  As2
 BYTE   N11  Ds3
 BYTE   N11  Gs4
 BYTE   N11  Ds5
 BYTE   W12
 BYTE   Ds2
 BYTE   N11  As2
 BYTE   N11  Ds3
 BYTE   N11  Gs4
 BYTE   N11  Ds5
 BYTE   W24
 BYTE   Ds2
 BYTE   N11  As2
 BYTE   N11  Ds3
 BYTE   N11  Gs4
 BYTE   N11  Ds5
 BYTE   W12
 BYTE   Ds2
 BYTE   N11  As2
 BYTE   N11  Ds3
 BYTE   N11  Gs4
 BYTE   N11  Ds5
 BYTE   W24
 BYTE   Ds2
 BYTE   N11  As2
 BYTE   N11  Ds3
 BYTE   N11  Gs4
 BYTE   N11  Ds5
 BYTE   W12
 BYTE   Ds2
 BYTE   N11  As2
 BYTE   N11  Ds3
 BYTE   N11  Gs4
 BYTE   N11  Ds5
 BYTE   W12
 BYTE   PEND 
//  #12 //211   ----------------------------------------
Label_011729E7:
 BYTE   W12
 BYTE   N11  Ds2  v096
 BYTE   N11  As2
 BYTE   N11  Ds3
 BYTE   N11  Gs4
 BYTE   N11  Ds5
 BYTE   W12
 BYTE   Ds2
 BYTE   N11  As2
 BYTE   N11  Ds3
 BYTE   N11  Gs4
 BYTE   N11  Ds5
 BYTE   W24
 BYTE   Ds2
 BYTE   N11  As2
 BYTE   N11  Ds3
 BYTE   N11  Gn4
 BYTE   N11  Ds5
 BYTE   W48
 BYTE   PEND 
//  #12 //212   ----------------------------------------
Label_01172A09:
 BYTE   N11  Ds2  v096
 BYTE   N11  As2
 BYTE   N11  Ds3
 BYTE   N11  Gs4
 BYTE   N11  Ds5
 BYTE   N11  Gs5
 BYTE   W12
 BYTE   Ds2
 BYTE   N11  As2
 BYTE   N11  Ds3
 BYTE   N11  Gs4
 BYTE   N11  Ds5
 BYTE   N11  Gs5
 BYTE   W24
 BYTE   Ds2
 BYTE   N11  As2
 BYTE   N11  Ds3
 BYTE   N11  Gs4
 BYTE   N11  Ds5
 BYTE   N11  Gs5
 BYTE   W12
 BYTE   Ds2
 BYTE   N11  As2
 BYTE   N11  Ds3
 BYTE   N11  Gs4
 BYTE   N11  Ds5
 BYTE   N11  Gs5
 BYTE   W24
 BYTE   Ds2
 BYTE   N11  As2
 BYTE   N11  Ds3
 BYTE   N11  Gs4
 BYTE   N11  Ds5
 BYTE   N11  Gs5
 BYTE   W12
 BYTE   Ds2
 BYTE   N11  As2
 BYTE   N11  Ds3
 BYTE   N11  Gs4
 BYTE   N11  Ds5
 BYTE   N11  Gs5
 BYTE   W12
 BYTE   PEND 
//  #12 //213   ----------------------------------------
 BYTE   W12
 BYTE   Ds2
 BYTE   N11  As2
 BYTE   N11  Ds3
 BYTE   N11  Gs4
 BYTE   N11  Ds5
 BYTE   N11  Gs5
 BYTE   W12
 BYTE   Ds2
 BYTE   N11  As2
 BYTE   N11  Ds3
 BYTE   N11  Gs4
 BYTE   N11  Ds5
 BYTE   N11  Gs5
 BYTE   W24
 BYTE   Ds2
 BYTE   N11  As2
 BYTE   N11  Ds3
 BYTE   N11  Gn4
 BYTE   N11  Ds5
 BYTE   N11  Gn5
 BYTE   W48
//  #12 //214   ----------------------------------------
 BYTE   PATT
  POIN2 Label_011729A8
//  #12 //215   ----------------------------------------
 BYTE   PATT
  POIN2 Label_011729E7
//  #12 //216   ----------------------------------------
 BYTE   PATT
  POIN2 Label_01172A09
//  #12 //217   ----------------------------------------
 BYTE   W12
 BYTE   N11  Ds2  v096
 BYTE   N11  As2
 BYTE   N11  Ds3
 BYTE   N11  Gs4
 BYTE   N11  Ds5
 BYTE   N11  Gs5
 BYTE   W12
 BYTE   Ds2
 BYTE   N11  As2
 BYTE   N11  Ds3
 BYTE   N11  Gs4
 BYTE   N11  Ds5
 BYTE   N11  Gs5
 BYTE   W24
 BYTE   Ds2
 BYTE   N11  As2
 BYTE   N11  Ds3
 BYTE   N11  Gn4
 BYTE   N11  Ds5
 BYTE   N11  Gn5
 BYTE   W24
 BYTE   Ds2
 BYTE   N11  As2
 BYTE   N11  Ds3
 BYTE   N11  Gn4
 BYTE   N11  Ds5
 BYTE   N11  Gn5
 BYTE   W24
//  #12 //218   ----------------------------------------
 BYTE   Ds2
 BYTE   N11  As2
 BYTE   N11  Ds3
 BYTE   N11  Gn4
 BYTE   N11  Ds5
 BYTE   N11  Gn5
 BYTE   W24
 BYTE   N68  Ds0  v127
 BYTE   N68  Ds1
 BYTE   W68
 BYTE   W03
 BYTE   FINE

//**************** Track 13 (Midi-Chn.12) ****************//

song1C_013:
//  #13 //000   ----------------------------------------
 BYTE   KEYSH   song1C_key+0
 BYTE   VOICE   18
 BYTE   VOL   15*song1C_mvl/mxv
 BYTE   PAN   c_v-3
 BYTE   VOL   1*song1C_mvl/mxv
 BYTE   PAN   c_v-3
 BYTE   VOL   12*song1C_mvl/mxv
 BYTE   PAN   c_v-3
 BYTE   VOL   30*song1C_mvl/mxv
 BYTE   PAN   c_v-3
 BYTE   VOL   30*song1C_mvl/mxv
 BYTE   PAN   c_v-3
 BYTE   W12
Label_01172AE9:
 BYTE   W96
//  #13 //001   ----------------------------------------
 BYTE   W96
//  #13 //002   ----------------------------------------
 BYTE   W96
//  #13 //003   ----------------------------------------
 BYTE   W96
//  #13 //004   ----------------------------------------
 BYTE   W96
//  #13 //005   ----------------------------------------
 BYTE   W96
//  #13 //006   ----------------------------------------
 BYTE   W96
//  #13 //007   ----------------------------------------
Label_01172AF0:
 BYTE   W48
 BYTE   N05  Ds3  v064
 BYTE   W01
 BYTE   W02
 BYTE   W01
 BYTE   W02
 BYTE   Fn3  v068
 BYTE   W01
 BYTE   W02
 BYTE   W01
 BYTE   W02
 BYTE   Fs3  v072
 BYTE   W01
 BYTE   W02
 BYTE   W01
 BYTE   W02
 BYTE   Gs3  v076
 BYTE   W01
 BYTE   W02
 BYTE   W01
 BYTE   W02
 BYTE   As3  v080
 BYTE   W01
 BYTE   W02
 BYTE   W01
 BYTE   W02
 BYTE   Cn4  v084
 BYTE   W01
 BYTE   W02
 BYTE   W01
 BYTE   W02
 BYTE   Cs4  v088
 BYTE   W01
 BYTE   W02
 BYTE   W01
 BYTE   W02
 BYTE   Ds4  v092
 BYTE   W01
 BYTE   W02
 BYTE   W01
 BYTE   W02
 BYTE   PEND 
//  #13 //008   ----------------------------------------
Label_01172B23:
 BYTE   N11  Fn4  v096
 BYTE   W12
 BYTE   Cs4
 BYTE   W12
 BYTE   As3
 BYTE   W12
 BYTE   N23  Fs4
 BYTE   W12
 BYTE   W12
 BYTE   N11  Dn4
 BYTE   W12
 BYTE   N23  Bn3
 BYTE   W24
 BYTE   PEND 
//  #13 //009   ----------------------------------------
Label_01172B36:
 BYTE   N11  Fn4  v096
 BYTE   W12
 BYTE   Cs4
 BYTE   W12
 BYTE   As3
 BYTE   W12
 BYTE   N23  En4
 BYTE   W12
 BYTE   W12
 BYTE   N11  Cn4
 BYTE   W12
 BYTE   N23  An3
 BYTE   W24
 BYTE   PEND 
//  #13 //010   ----------------------------------------
 BYTE   PATT
  POIN2 Label_01172B23
//  #13 //011   ----------------------------------------
Label_01172B4E:
 BYTE   N11  Gn4  v096
 BYTE   W12
 BYTE   En4
 BYTE   W12
 BYTE   Cn4
 BYTE   W12
 BYTE   N23  An4
 BYTE   W12
 BYTE   W12
 BYTE   N11  Fn4
 BYTE   W12
 BYTE   N23  Cn4
 BYTE   W24
 BYTE   PEND 
//  #13 //012   ----------------------------------------
 BYTE   PATT
  POIN2 Label_01172B23
//  #13 //013   ----------------------------------------
 BYTE   PATT
  POIN2 Label_01172B36
//  #13 //014   ----------------------------------------
 BYTE   PATT
  POIN2 Label_01172B23
//  #13 //015   ----------------------------------------
 BYTE   PATT
  POIN2 Label_01172B4E
//  #13 //016   ----------------------------------------
 BYTE   W96
//  #13 //017   ----------------------------------------
 BYTE   W96
//  #13 //018   ----------------------------------------
 BYTE   W96
//  #13 //019   ----------------------------------------
Label_01172B78:
 BYTE   W36
 BYTE   N23  Fn4  v096
 BYTE   W12
 BYTE   W12
 BYTE   N11  Cs4
 BYTE   W12
 BYTE   Gs3
 BYTE   W12
 BYTE   Fn3
 BYTE   W12
 BYTE   PEND 
//  #13 //020   ----------------------------------------
 BYTE   W96
//  #13 //021   ----------------------------------------
 BYTE   W96
//  #13 //022   ----------------------------------------
 BYTE   W96
//  #13 //023   ----------------------------------------
 BYTE   W96
//  #13 //024   ----------------------------------------
 BYTE   W96
//  #13 //025   ----------------------------------------
 BYTE   W96
//  #13 //026   ----------------------------------------
 BYTE   W96
//  #13 //027   ----------------------------------------
 BYTE   PATT
  POIN2 Label_01172B78
//  #13 //028   ----------------------------------------
 BYTE   W96
//  #13 //029   ----------------------------------------
 BYTE   W96
//  #13 //030   ----------------------------------------
 BYTE   W96
//  #13 //031   ----------------------------------------
 BYTE   W96
//  #13 //032   ----------------------------------------
 BYTE   W96
//  #13 //033   ----------------------------------------
 BYTE   W96
//  #13 //034   ----------------------------------------
 BYTE   W96
//  #13 //035   ----------------------------------------
 BYTE   W96
//  #13 //036   ----------------------------------------
 BYTE   W96
//  #13 //037   ----------------------------------------
 BYTE   W96
//  #13 //038   ----------------------------------------
 BYTE   W96
//  #13 //039   ----------------------------------------
 BYTE   W96
//  #13 //040   ----------------------------------------
 BYTE   W96
//  #13 //041   ----------------------------------------
 BYTE   W96
//  #13 //042   ----------------------------------------
 BYTE   W96
//  #13 //043   ----------------------------------------
 BYTE   W96
//  #13 //044   ----------------------------------------
 BYTE   W96
//  #13 //045   ----------------------------------------
 BYTE   W72
 BYTE   N05  As2  v096
 BYTE   W06
 BYTE   Cn3
 BYTE   W06
 BYTE   Cs3
 BYTE   W06
 BYTE   Ds3
 BYTE   W06
//  #13 //046   ----------------------------------------
Label_01172BAE:
 BYTE   N05  Fn3  v096
 BYTE   N05  As3
 BYTE   W12
 BYTE   Fn3
 BYTE   N05  As3
 BYTE   W24
 BYTE   Fn3
 BYTE   N05  As3
 BYTE   W12
 BYTE   Fn3
 BYTE   N05  As3
 BYTE   W24
 BYTE   Fn3
 BYTE   N05  As3
 BYTE   W12
 BYTE   Fn3
 BYTE   N05  An3
 BYTE   W12
 BYTE   PEND 
//  #13 //047   ----------------------------------------
 BYTE   W96
//  #13 //048   ----------------------------------------
 BYTE   W96
//  #13 //049   ----------------------------------------
 BYTE   W96
//  #13 //050   ----------------------------------------
 BYTE   W96
//  #13 //051   ----------------------------------------
Label_01172BCD:
 BYTE   W72
 BYTE   N11  As3  v096
 BYTE   W12
 BYTE   Cn4
 BYTE   W12
 BYTE   PEND 
//  #13 //052   ----------------------------------------
Label_01172BD5:
 BYTE   N05  Cs4  v096
 BYTE   W12
 BYTE   As3
 BYTE   W12
 BYTE   Fs3
 BYTE   W12
 BYTE   N23  Cs3
 BYTE   W12
 BYTE   W12
 BYTE   N11  Fs3
 BYTE   W12
 BYTE   As3
 BYTE   W12
 BYTE   Cs4
 BYTE   W12
 BYTE   PEND 
//  #13 //053   ----------------------------------------
Label_01172BE9:
 BYTE   N05  Cn4  v096
 BYTE   W12
 BYTE   An3
 BYTE   W12
 BYTE   Fn3
 BYTE   W12
 BYTE   N23  Cn3
 BYTE   W12
 BYTE   W12
 BYTE   N11  Fn3
 BYTE   W12
 BYTE   An3
 BYTE   W12
 BYTE   N23  As3
 BYTE   W12
 BYTE   PEND 
//  #13 //054   ----------------------------------------
Label_01172BFE:
 BYTE   W12
 BYTE   N05  An3  v096
 BYTE   W12
 BYTE   As3
 BYTE   W12
 BYTE   N23  Cn4
 BYTE   W12
 BYTE   W12
 BYTE   N05  As3
 BYTE   W12
 BYTE   Cn4
 BYTE   W12
 BYTE   N23  Cs4
 BYTE   W12
 BYTE   PEND 
//  #13 //055   ----------------------------------------
 BYTE   W96
//  #13 //056   ----------------------------------------
 BYTE   W96
//  #13 //057   ----------------------------------------
 BYTE   W96
//  #13 //058   ----------------------------------------
 BYTE   W96
//  #13 //059   ----------------------------------------
 BYTE   W96
//  #13 //060   ----------------------------------------
 BYTE   W96
//  #13 //061   ----------------------------------------
 BYTE   W96
//  #13 //062   ----------------------------------------
Label_01172C19:
 BYTE   N11  Ds4  v096
 BYTE   W12
 BYTE   N11
 BYTE   W24
 BYTE   N11
 BYTE   W12
 BYTE   N11
 BYTE   W24
 BYTE   N11
 BYTE   W12
 BYTE   N11
 BYTE   W12
 BYTE   PEND 
//  #13 //063   ----------------------------------------
Label_01172C28:
 BYTE   W12
 BYTE   N11  Ds4  v096
 BYTE   W12
 BYTE   N11
 BYTE   W24
 BYTE   Dn4
 BYTE   W48
 BYTE   PEND 
//  #13 //064   ----------------------------------------
 BYTE   PATT
  POIN2 Label_01172C19
//  #13 //065   ----------------------------------------
 BYTE   PATT
  POIN2 Label_01172C28
//  #13 //066   ----------------------------------------
 BYTE   W96
//  #13 //067   ----------------------------------------
 BYTE   W96
//  #13 //068   ----------------------------------------
 BYTE   W96
//  #13 //069   ----------------------------------------
 BYTE   W96
//  #13 //070   ----------------------------------------
 BYTE   W96
//  #13 //071   ----------------------------------------
 BYTE   W96
//  #13 //072   ----------------------------------------
 BYTE   W96
//  #13 //073   ----------------------------------------
 BYTE   W96
//  #13 //074   ----------------------------------------
 BYTE   W96
//  #13 //075   ----------------------------------------
 BYTE   W96
//  #13 //076   ----------------------------------------
 BYTE   W96
//  #13 //077   ----------------------------------------
 BYTE   W96
//  #13 //078   ----------------------------------------
 BYTE   W96
//  #13 //079   ----------------------------------------
 BYTE   W96
//  #13 //080   ----------------------------------------
 BYTE   W96
//  #13 //081   ----------------------------------------
 BYTE   W96
//  #13 //082   ----------------------------------------
Label_01172C4C:
 BYTE   N11  Ds3  v096
 BYTE   N11  Ds4
 BYTE   W12
 BYTE   Ds3
 BYTE   N11  Ds4
 BYTE   W24
 BYTE   Ds3
 BYTE   N11  Ds4
 BYTE   W12
 BYTE   Ds3
 BYTE   N11  Ds4
 BYTE   W24
 BYTE   Ds3
 BYTE   N11  Ds4
 BYTE   W12
 BYTE   Ds3
 BYTE   N11  Ds4
 BYTE   W12
 BYTE   PEND 
//  #13 //083   ----------------------------------------
Label_01172C67:
 BYTE   W12
 BYTE   N11  Ds3  v096
 BYTE   N11  Ds4
 BYTE   W12
 BYTE   Ds3
 BYTE   N11  Ds4
 BYTE   W24
 BYTE   Dn3
 BYTE   N11  Dn4
 BYTE   W48
 BYTE   PEND 
//  #13 //084   ----------------------------------------
 BYTE   PATT
  POIN2 Label_01172C4C
//  #13 //085   ----------------------------------------
 BYTE   PATT
  POIN2 Label_01172C67
//  #13 //086   ----------------------------------------
 BYTE   GoTo
  POIN2 Label_01172AE9
//  #13 //087   ----------------------------------------
 BYTE   N11  As4  v080
 BYTE   W24
 BYTE   N11
 BYTE   W24
 BYTE   N11
 BYTE   W24
 BYTE   N11
 BYTE   W24
//  #13 //088   ----------------------------------------
 BYTE   Fn4
 BYTE   W24
 BYTE   N11
 BYTE   W24
 BYTE   N11
 BYTE   W24
 BYTE   N11
 BYTE   W24
//  #13 //089   ----------------------------------------
 BYTE   Gs4
 BYTE   W24
 BYTE   N11
 BYTE   W24
 BYTE   N11
 BYTE   W24
 BYTE   N11
 BYTE   W24
//  #13 //090   ----------------------------------------
 BYTE   As4
 BYTE   W24
 BYTE   N11
 BYTE   W24
 BYTE   Cn5
 BYTE   W24
 BYTE   N11
 BYTE   W24
//  #13 //091   ----------------------------------------
 BYTE   Cn4
 BYTE   W24
 BYTE   N11
 BYTE   W24
 BYTE   N11
 BYTE   W24
 BYTE   N11
 BYTE   W24
//  #13 //092   ----------------------------------------
 BYTE   Gn3
 BYTE   W24
 BYTE   N11
 BYTE   W24
 BYTE   N11
 BYTE   W24
 BYTE   N11
 BYTE   W24
//  #13 //093   ----------------------------------------
 BYTE   As3
 BYTE   W24
 BYTE   N11
 BYTE   W24
 BYTE   N11
 BYTE   W24
 BYTE   N11
 BYTE   W24
//  #13 //094   ----------------------------------------
 BYTE   Cn4
 BYTE   W24
 BYTE   N11
 BYTE   W24
 BYTE   Dn4
 BYTE   W24
 BYTE   N11
 BYTE   W24
//  #13 //095   ----------------------------------------
 BYTE   TIE  Gn4
 BYTE   W06
 BYTE   W06
 BYTE   W06
 BYTE   W06
 BYTE   W06
 BYTE   W06
 BYTE   W06
 BYTE   W06
 BYTE   W06
 BYTE   W06
 BYTE   W06
 BYTE   W06
 BYTE   W06
 BYTE   W06
 BYTE   W06
 BYTE   W06
//  #13 //096   ----------------------------------------
 BYTE   W06
 BYTE   W06
 BYTE   W06
 BYTE   W06
 BYTE   W06
 BYTE   W06
 BYTE   W06
 BYTE   W06
 BYTE   W06
 BYTE   W06
 BYTE   W06
 BYTE   W06
 BYTE   W06
 BYTE   W06
 BYTE   W06
 BYTE   W06
//  #13 //097   ----------------------------------------
 BYTE   W06
 BYTE   W06
 BYTE   W06
 BYTE   W06
 BYTE   W06
 BYTE   W06
 BYTE   W06
 BYTE   W06
 BYTE   W06
 BYTE   W06
 BYTE   W06
 BYTE   W06
 BYTE   W06
 BYTE   W06
 BYTE   W06
 BYTE   W06
//  #13 //098   ----------------------------------------
 BYTE   W06
 BYTE   W06
 BYTE   W06
 BYTE   W06
 BYTE   W06
 BYTE   W06
 BYTE   W06
 BYTE   W06
 BYTE   W06
 BYTE   W06
 BYTE   W06
 BYTE   W06
 BYTE   W06
 BYTE   W06
 BYTE   W06
 BYTE   W05
 BYTE   EOT
 BYTE   W01
//  #13 //099   ----------------------------------------
 BYTE   W96
//  #13 //100   ----------------------------------------
 BYTE   W96
//  #13 //101   ----------------------------------------
 BYTE   W96
//  #13 //102   ----------------------------------------
 BYTE   W96
//  #13 //103   ----------------------------------------
 BYTE   W96
//  #13 //104   ----------------------------------------
 BYTE   W96
//  #13 //105   ----------------------------------------
 BYTE   W96
//  #13 //106   ----------------------------------------
 BYTE   W96
//  #13 //107   ----------------------------------------
 BYTE   W96
//  #13 //108   ----------------------------------------
 BYTE   W96
//  #13 //109   ----------------------------------------
 BYTE   W96
//  #13 //110   ----------------------------------------
 BYTE   W96
//  #13 //111   ----------------------------------------
 BYTE   W96
//  #13 //112   ----------------------------------------
 BYTE   W96
//  #13 //113   ----------------------------------------
 BYTE   W96
//  #13 //114   ----------------------------------------
 BYTE   W96
//  #13 //115   ----------------------------------------
 BYTE   W96
//  #13 //116   ----------------------------------------
 BYTE   W96
//  #13 //117   ----------------------------------------
 BYTE   W96
//  #13 //118   ----------------------------------------
 BYTE   W96
//  #13 //119   ----------------------------------------
 BYTE   W96
//  #13 //120   ----------------------------------------
 BYTE   W96
//  #13 //121   ----------------------------------------
 BYTE   W96
//  #13 //122   ----------------------------------------
 BYTE   W60
 BYTE   N11  Dn3  v036
 BYTE   W01
 BYTE   W01
 BYTE   W01
 BYTE   W01
 BYTE   W01
 BYTE   W01
 BYTE   W01
 BYTE   W01
 BYTE   W01
 BYTE   W01
 BYTE   W01
 BYTE   W01
 BYTE   Gn3  v048
 BYTE   W01
 BYTE   W01
 BYTE   W01
 BYTE   W01
 BYTE   W01
 BYTE   W01
 BYTE   W01
 BYTE   W01
 BYTE   W01
 BYTE   W01
 BYTE   W01
 BYTE   W01
 BYTE   As3  v064
 BYTE   W01
 BYTE   W01
 BYTE   W01
 BYTE   W01
 BYTE   W01
 BYTE   W01
 BYTE   W01
 BYTE   W01
 BYTE   W01
 BYTE   W01
 BYTE   W01
 BYTE   W01
//  #13 //123   ----------------------------------------
 BYTE   N68  Gn4  v080
 BYTE   W72
 BYTE   N23  Dn4
 BYTE   W24
//  #13 //124   ----------------------------------------
 BYTE   N68  Gn4
 BYTE   W72
 BYTE   N11  Fn4
 BYTE   W12
 BYTE   Ds4
 BYTE   W12
//  #13 //125   ----------------------------------------
 BYTE   N68  Dn4
 BYTE   W72
 BYTE   N11  Cn4
 BYTE   W12
 BYTE   As3
 BYTE   W12
//  #13 //126   ----------------------------------------
 BYTE   N23  An3
 BYTE   W24
 BYTE   N44  As3
 BYTE   W48
 BYTE   N11  An3
 BYTE   W12
 BYTE   Gn3
 BYTE   W12
//  #13 //127   ----------------------------------------
 BYTE   N68  An3
 BYTE   W72
 BYTE   N23  As3
 BYTE   W24
//  #13 //128   ----------------------------------------
 BYTE   N68  Cn4
 BYTE   W72
 BYTE   N23  Dn4
 BYTE   W24
//  #13 //129   ----------------------------------------
 BYTE   N68  Gn4
 BYTE   W72
 BYTE   N11  Fn4
 BYTE   W12
 BYTE   Ds4
 BYTE   W12
//  #13 //130   ----------------------------------------
 BYTE   N92  Dn4
 BYTE   W96
//  #13 //131   ----------------------------------------
 BYTE   W96
//  #13 //132   ----------------------------------------
 BYTE   W96
//  #13 //133   ----------------------------------------
 BYTE   W96
//  #13 //134   ----------------------------------------
 BYTE   W96
//  #13 //135   ----------------------------------------
 BYTE   W96
//  #13 //136   ----------------------------------------
 BYTE   W96
//  #13 //137   ----------------------------------------
 BYTE   W96
//  #13 //138   ----------------------------------------
 BYTE   PATT
  POIN2 Label_01172AF0
//  #13 //139   ----------------------------------------
 BYTE   PATT
  POIN2 Label_01172B23
//  #13 //140   ----------------------------------------
 BYTE   PATT
  POIN2 Label_01172B36
//  #13 //141   ----------------------------------------
 BYTE   PATT
  POIN2 Label_01172B23
//  #13 //142   ----------------------------------------
 BYTE   PATT
  POIN2 Label_01172B4E
//  #13 //143   ----------------------------------------
 BYTE   PATT
  POIN2 Label_01172B23
//  #13 //144   ----------------------------------------
 BYTE   PATT
  POIN2 Label_01172B36
//  #13 //145   ----------------------------------------
 BYTE   PATT
  POIN2 Label_01172B23
//  #13 //146   ----------------------------------------
 BYTE   PATT
  POIN2 Label_01172B4E
//  #13 //147   ----------------------------------------
 BYTE   W96
//  #13 //148   ----------------------------------------
 BYTE   W96
//  #13 //149   ----------------------------------------
 BYTE   W96
//  #13 //150   ----------------------------------------
 BYTE   W36
 BYTE   N23  Gs3  v096
 BYTE   N23  Fn4
 BYTE   W12
 BYTE   W12
 BYTE   N11  Fn3
 BYTE   N11  Cs4
 BYTE   W12
 BYTE   Ds3
 BYTE   N11  Cn4
 BYTE   W12
 BYTE   Cn3
 BYTE   N11  Gs3
 BYTE   W12
//  #13 //151   ----------------------------------------
 BYTE   W96
//  #13 //152   ----------------------------------------
Label_01172DD5:
 BYTE   N11  Gn4  v096
 BYTE   W12
 BYTE   En4
 BYTE   W12
 BYTE   Cn4
 BYTE   W12
 BYTE   N23  En4
 BYTE   W12
 BYTE   W12
 BYTE   N11  Cn4
 BYTE   W12
 BYTE   As3
 BYTE   W12
 BYTE   N23  Bn3
 BYTE   W12
 BYTE   PEND 
//  #13 //153   ----------------------------------------
 BYTE   W96
//  #13 //154   ----------------------------------------
 BYTE   W96
//  #13 //155   ----------------------------------------
 BYTE   W96
//  #13 //156   ----------------------------------------
 BYTE   W96
//  #13 //157   ----------------------------------------
 BYTE   W96
//  #13 //158   ----------------------------------------
 BYTE   W36
 BYTE   Cs4
 BYTE   N23  Gs4
 BYTE   W12
 BYTE   W12
 BYTE   N11  As3
 BYTE   N11  Fn4
 BYTE   W12
 BYTE   Gs3
 BYTE   N11  Ds4
 BYTE   W12
 BYTE   Fn3
 BYTE   N11  Cn4
 BYTE   W12
//  #13 //159   ----------------------------------------
 BYTE   W96
//  #13 //160   ----------------------------------------
 BYTE   PATT
  POIN2 Label_01172DD5
//  #13 //161   ----------------------------------------
 BYTE   W96
//  #13 //162   ----------------------------------------
 BYTE   W96
//  #13 //163   ----------------------------------------
 BYTE   W96
//  #13 //164   ----------------------------------------
 BYTE   W96
//  #13 //165   ----------------------------------------
 BYTE   W96
//  #13 //166   ----------------------------------------
 BYTE   W96
//  #13 //167   ----------------------------------------
 BYTE   W96
//  #13 //168   ----------------------------------------
 BYTE   W96
//  #13 //169   ----------------------------------------
 BYTE   W96
//  #13 //170   ----------------------------------------
 BYTE   W60
 BYTE   N11  As3  v096
 BYTE   W12
 BYTE   Cn4
 BYTE   W12
 BYTE   Cs4
 BYTE   W12
//  #13 //171   ----------------------------------------
 BYTE   N68  Fn4
 BYTE   W72
 BYTE   N05  Ds4
 BYTE   W12
 BYTE   Cs4
 BYTE   W12
//  #13 //172   ----------------------------------------
 BYTE   N32  Cn4
 BYTE   W36
 BYTE   N44  Gs3
 BYTE   W12
 BYTE   W48
//  #13 //173   ----------------------------------------
 BYTE   N56  As3
 BYTE   W48
 BYTE   W12
 BYTE   N11
 BYTE   W12
 BYTE   Cn4
 BYTE   W12
 BYTE   Cs4
 BYTE   W12
//  #13 //174   ----------------------------------------
 BYTE   N23  Fn4
 BYTE   W24
 BYTE   Ds4
 BYTE   W24
 BYTE   As3
 BYTE   W24
 BYTE   Cn4
 BYTE   W24
//  #13 //175   ----------------------------------------
 BYTE   N92  Cs4
 BYTE   W96
//  #13 //176   ----------------------------------------
 BYTE   N11  Gs4
 BYTE   W12
 BYTE   Fs4
 BYTE   W12
 BYTE   Ds4
 BYTE   W12
 BYTE   N23  Gs4
 BYTE   W12
 BYTE   W12
 BYTE   N11  Fs4
 BYTE   W12
 BYTE   N05  As2
 BYTE   N05  Ds3
 BYTE   W06
 BYTE   Cn3
 BYTE   N05  Fn3
 BYTE   W06
 BYTE   Cs3
 BYTE   N05  Fs3
 BYTE   W06
 BYTE   Ds3
 BYTE   N05  Gs3
 BYTE   W06
//  #13 //177   ----------------------------------------
 BYTE   PATT
  POIN2 Label_01172BAE
//  #13 //178   ----------------------------------------
 BYTE   W96
//  #13 //179   ----------------------------------------
 BYTE   W96
//  #13 //180   ----------------------------------------
 BYTE   W96
//  #13 //181   ----------------------------------------
 BYTE   W96
//  #13 //182   ----------------------------------------
 BYTE   PATT
  POIN2 Label_01172BCD
//  #13 //183   ----------------------------------------
 BYTE   PATT
  POIN2 Label_01172BD5
//  #13 //184   ----------------------------------------
 BYTE   PATT
  POIN2 Label_01172BE9
//  #13 //185   ----------------------------------------
 BYTE   PATT
  POIN2 Label_01172BFE
//  #13 //186   ----------------------------------------
 BYTE   W96
//  #13 //187   ----------------------------------------
 BYTE   W96
//  #13 //188   ----------------------------------------
 BYTE   W96
//  #13 //189   ----------------------------------------
 BYTE   W96
//  #13 //190   ----------------------------------------
 BYTE   W96
//  #13 //191   ----------------------------------------
 BYTE   W96
//  #13 //192   ----------------------------------------
 BYTE   W96
//  #13 //193   ----------------------------------------
 BYTE   N11  Fs4  v096
 BYTE   W12
 BYTE   N11
 BYTE   W24
 BYTE   N11
 BYTE   W12
 BYTE   N11
 BYTE   W24
 BYTE   N11
 BYTE   W12
 BYTE   Fn4
 BYTE   W12
//  #13 //194   ----------------------------------------
 BYTE   W96
//  #13 //195   ----------------------------------------
 BYTE   W96
//  #13 //196   ----------------------------------------
 BYTE   W96
//  #13 //197   ----------------------------------------
 BYTE   W96
//  #13 //198   ----------------------------------------
 BYTE   W96
//  #13 //199   ----------------------------------------
 BYTE   W72
 BYTE   Ds4
 BYTE   W12
 BYTE   Fn4
 BYTE   W12
//  #13 //200   ----------------------------------------
 BYTE   N05  Fs4
 BYTE   W12
 BYTE   Ds4
 BYTE   W12
 BYTE   Bn3
 BYTE   W12
 BYTE   N23  Fs3
 BYTE   W12
 BYTE   W12
 BYTE   N11  Bn3
 BYTE   W12
 BYTE   Ds4
 BYTE   W12
 BYTE   Fs4
 BYTE   W12
//  #13 //201   ----------------------------------------
 BYTE   N05  Fn4
 BYTE   W12
 BYTE   Dn4
 BYTE   W12
 BYTE   As3
 BYTE   W12
 BYTE   N23  Fn3
 BYTE   W12
 BYTE   W12
 BYTE   N11  As3
 BYTE   W12
 BYTE   Dn4
 BYTE   W12
 BYTE   N23  Ds4
 BYTE   W12
//  #13 //202   ----------------------------------------
 BYTE   W12
 BYTE   N05  Dn4
 BYTE   W12
 BYTE   Ds4
 BYTE   W12
 BYTE   N23  Fn4
 BYTE   W12
 BYTE   W12
 BYTE   N05  Ds4
 BYTE   W12
 BYTE   Fn4
 BYTE   W12
 BYTE   N23  Fs4
 BYTE   W12
//  #13 //203   ----------------------------------------
 BYTE   W96
//  #13 //204   ----------------------------------------
 BYTE   W96
//  #13 //205   ----------------------------------------
 BYTE   W96
//  #13 //206   ----------------------------------------
 BYTE   W96
//  #13 //207   ----------------------------------------
 BYTE   W96
//  #13 //208   ----------------------------------------
 BYTE   W96
//  #13 //209   ----------------------------------------
 BYTE   W96
//  #13 //210   ----------------------------------------
Label_01172ED8:
 BYTE   N11  Gs4  v096
 BYTE   W12
 BYTE   N11
 BYTE   W24
 BYTE   N11
 BYTE   W12
 BYTE   N11
 BYTE   W24
 BYTE   N11
 BYTE   W12
 BYTE   N11
 BYTE   W12
 BYTE   PEND 
//  #13 //211   ----------------------------------------
Label_01172EE7:
 BYTE   W12
 BYTE   N11  Gs4  v096
 BYTE   W12
 BYTE   N11
 BYTE   W24
 BYTE   Gn4
 BYTE   W48
 BYTE   PEND 
//  #13 //212   ----------------------------------------
 BYTE   PATT
  POIN2 Label_01172ED8
//  #13 //213   ----------------------------------------
 BYTE   PATT
  POIN2 Label_01172EE7
//  #13 //214   ----------------------------------------
 BYTE   PATT
  POIN2 Label_01172ED8
//  #13 //215   ----------------------------------------
 BYTE   PATT
  POIN2 Label_01172EE7
//  #13 //216   ----------------------------------------
 BYTE   PATT
  POIN2 Label_01172ED8
//  #13 //217   ----------------------------------------
 BYTE   W12
 BYTE   N11  Gs4  v096
 BYTE   W12
 BYTE   N11
 BYTE   W24
 BYTE   Gn4
 BYTE   W24
 BYTE   N11
 BYTE   W24
//  #13 //218   ----------------------------------------
 BYTE   N16
 BYTE   W92
 BYTE   W03
 BYTE   FINE

//******************************************************//
	ALIGN 4

song1C:
	BYTE	13	// NumTrks
	BYTE	0	// NumBlks
	BYTE	song1C_pri	// Priority
	BYTE	song1C_rev	// Reverb.
    
	POIN2	song1C_grp
    
	POIN2	song1C_001
	POIN2	song1C_002
	POIN2	song1C_003
	POIN2	song1C_004
	POIN2	song1C_005
	POIN2	song1C_006
	POIN2	song1C_007
	POIN2	song1C_008
	POIN2	song1C_009
	POIN2	song1C_010
	POIN2	song1C_011
	POIN2	song1C_012
	POIN2	song1C_013

	
