	.include "MPlayDef.s"

	.equ	song06_grp, voicegroup000
	.equ	song06_pri, 0
	.equ	song06_rev, 0
	.equ	song06_mvl, 127
	.equ	song06_key, 0
	.equ	song06_tbs, 1
	.equ	song06_exg, 0
	.equ	song06_cmp, 1

	.section .rodata
	.global	song06
	.align	2


@**************** Track 1 (Midi-Chn.0) ****************@

song06_001:
@  #01 @000   ----------------------------------------
 .byte   KEYSH , song06_key+0
 .byte   TEMPO , 120*song06_tbs/2
 .byte   VOICE , 76
 .byte   VOL , 62*song06_mvl/mxv
 .byte   PAN , c_v+0
 .byte   VOL , 62*song06_mvl/mxv
 .byte   PAN , c_v+0
 .byte   W12
Label_01013EAB:
 .byte   TEMPO , 90*song06_tbs/2
 .byte   N03 ,Fn4 ,v080
 .byte   W12
 .byte   Fn4 ,v064
 .byte   W12
 .byte   Fn4 ,v048
 .byte   W12
 .byte   Dn4 ,v080
 .byte   W12
 .byte   Dn4 ,v064
 .byte   W12
 .byte   Dn4 ,v048
 .byte   W12
 .byte   Dn4 ,v040
 .byte   W12
@  #01 @001   ----------------------------------------
 .byte   Dn4 ,v032
 .byte   W12
 .byte   PEND 
Label_01013EC7:
 .byte   N03 ,Dn4 ,v080
 .byte   W12
 .byte   Dn4 ,v064
 .byte   W12
 .byte   Dn4 ,v048
 .byte   W12
 .byte   Cn4 ,v080
 .byte   W12
 .byte   Cn4 ,v064
 .byte   W12
 .byte   Cn4 ,v048
 .byte   W12
 .byte   Cn4 ,v040
 .byte   W12
@  #01 @002   ----------------------------------------
 .byte   Cn4 ,v032
 .byte   W12
 .byte   PEND 
Label_01013EE1:
 .byte   N03 ,Fn4 ,v080
 .byte   W12
 .byte   Fn4 ,v064
 .byte   W12
 .byte   Fn4 ,v048
 .byte   W12
 .byte   Dn4 ,v080
 .byte   W12
 .byte   Dn4 ,v064
 .byte   W12
 .byte   Dn4 ,v048
 .byte   W12
 .byte   Dn4 ,v040
 .byte   W12
@  #01 @003   ----------------------------------------
 .byte   Dn4 ,v032
 .byte   W12
 .byte   PEND 
Label_01013EFB:
 .byte   N03 ,Ds4 ,v080
 .byte   W12
 .byte   Ds4 ,v064
 .byte   W12
 .byte   Ds4 ,v048
 .byte   W12
 .byte   Fn4 ,v080
 .byte   W12
 .byte   Fn4 ,v064
 .byte   W12
 .byte   Fn4 ,v048
 .byte   W12
 .byte   Fn4 ,v040
 .byte   W12
@  #01 @004   ----------------------------------------
 .byte   Fn4 ,v032
 .byte   W12
 .byte   PEND 
@  #01 @005   ----------------------------------------
 .byte   PATT
  .word Label_01013EE1
@  #01 @006   ----------------------------------------
 .byte   PATT
  .word Label_01013EC7
@  #01 @007   ----------------------------------------
 .byte   PATT
  .word Label_01013EE1
@  #01 @008   ----------------------------------------
 .byte   PATT
  .word Label_01013EFB
@  #01 @009   ----------------------------------------
 .byte   PATT
  .word Label_01013EE1
@  #01 @010   ----------------------------------------
 .byte   PATT
  .word Label_01013EC7
@  #01 @011   ----------------------------------------
 .byte   PATT
  .word Label_01013EE1
@  #01 @012   ----------------------------------------
 .byte   W96
@  #01 @013   ----------------------------------------
 .byte   W96
@  #01 @014   ----------------------------------------
 .byte   W96
@  #01 @015   ----------------------------------------
 .byte   W96
@  #01 @016   ----------------------------------------
 .byte   W96
@  #01 @017   ----------------------------------------
 .byte   W96
@  #01 @018   ----------------------------------------
 .byte   W96
@  #01 @019   ----------------------------------------
 .byte   W96
@  #01 @020   ----------------------------------------
 .byte   W96
@  #01 @021   ----------------------------------------
 .byte   W96
@  #01 @022   ----------------------------------------
 .byte   W96
@  #01 @023   ----------------------------------------
 .byte   W96
@  #01 @024   ----------------------------------------
 .byte   W96
@  #01 @025   ----------------------------------------
 .byte   W96
@  #01 @026   ----------------------------------------
 .byte   W96
@  #01 @027   ----------------------------------------
 .byte   W96
@  #01 @028   ----------------------------------------
 .byte   W96
@  #01 @029   ----------------------------------------
Label_01013F49:
 .byte   W48
 .byte   N05 ,Fn5 ,v052
 .byte   W06
 .byte   Cn5
 .byte   W06
 .byte   As4
 .byte   W06
 .byte   Fn4
 .byte   W30
 .byte   PEND 
@  #01 @030   ----------------------------------------
Label_01013F55:
 .byte   N05 ,Fn5 ,v052
 .byte   W06
 .byte   Cn5
 .byte   W06
 .byte   As4
 .byte   W06
 .byte   Fn4
 .byte   W30
 .byte   Fn5
 .byte   W06
 .byte   Cn5
 .byte   W06
 .byte   As4
 .byte   W06
 .byte   Fn4
 .byte   W30
 .byte   PEND 
@  #01 @031   ----------------------------------------
 .byte   PATT
  .word Label_01013F49
@  #01 @032   ----------------------------------------
 .byte   PATT
  .word Label_01013F55
@  #01 @033   ----------------------------------------
Label_01013F72:
 .byte   W48
 .byte   N05 ,Ds5 ,v052
 .byte   W06
 .byte   As4
 .byte   W06
 .byte   Gs4
 .byte   W06
 .byte   Ds4
 .byte   W30
 .byte   PEND 
@  #01 @034   ----------------------------------------
Label_01013F7E:
 .byte   N05 ,Ds5 ,v052
 .byte   W06
 .byte   As4
 .byte   W06
 .byte   Gs4
 .byte   W06
 .byte   Ds4
 .byte   W30
 .byte   Ds5
 .byte   W06
 .byte   As4
 .byte   W06
 .byte   Gs4
 .byte   W06
 .byte   Ds4
 .byte   W30
 .byte   PEND 
@  #01 @035   ----------------------------------------
 .byte   PATT
  .word Label_01013F72
@  #01 @036   ----------------------------------------
 .byte   PATT
  .word Label_01013F7E
@  #01 @037   ----------------------------------------
 .byte   PATT
  .word Label_01013F72
@  #01 @038   ----------------------------------------
 .byte   PATT
  .word Label_01013F7E
@  #01 @039   ----------------------------------------
Label_01013FA5:
 .byte   W48
 .byte   N05 ,Cs5 ,v052
 .byte   W06
 .byte   Gs4
 .byte   W06
 .byte   Fs4
 .byte   W06
 .byte   Cs4
 .byte   W30
 .byte   PEND 
@  #01 @040   ----------------------------------------
Label_01013FB1:
 .byte   N05 ,Cs5 ,v052
 .byte   W06
 .byte   Gs4
 .byte   W06
 .byte   Fs4
 .byte   W06
 .byte   Cs4
 .byte   W30
 .byte   Cs5
 .byte   W06
 .byte   Gs4
 .byte   W06
 .byte   Fs4
 .byte   W06
 .byte   Cs4
 .byte   W30
 .byte   PEND 
@  #01 @041   ----------------------------------------
Label_01013FC4:
 .byte   W48
 .byte   N05 ,Dn5 ,v048
 .byte   W06
 .byte   Cn5
 .byte   W06
 .byte   Gn4 ,v032
 .byte   W06
 .byte   Dn4 ,v048
 .byte   W30
 .byte   PEND 
@  #01 @042   ----------------------------------------
Label_01013FD2:
 .byte   N05 ,Dn5 ,v048
 .byte   W06
 .byte   Cn5
 .byte   W06
 .byte   Gn4 ,v032
 .byte   W06
 .byte   Dn4 ,v048
 .byte   W30
 .byte   Dn5
 .byte   W06
 .byte   Cn5
 .byte   W06
 .byte   Gn4 ,v032
 .byte   W06
 .byte   Dn4 ,v048
 .byte   W30
 .byte   PEND 
@  #01 @043   ----------------------------------------
 .byte   PATT
  .word Label_01013FC4
@  #01 @044   ----------------------------------------
Label_01013FEE:
 .byte   N05 ,Dn5 ,v032
 .byte   W06
 .byte   Cn5
 .byte   W06
 .byte   Gn4 ,v024
 .byte   W06
 .byte   Dn4 ,v032
 .byte   W30
 .byte   Dn5
 .byte   W06
 .byte   Cn5
 .byte   W06
 .byte   Gn4 ,v024
 .byte   W06
 .byte   Dn4 ,v032
 .byte   W18
 .byte   N11 ,Gn4 ,v064
 .byte   W12
 .byte   PEND 
@  #01 @045   ----------------------------------------
Label_01014009:
 .byte   N17 ,As4 ,v064
 .byte   W18
 .byte   Fn5
 .byte   W18
 .byte   Cn5
 .byte   W18
 .byte   Dn5
 .byte   W30
 .byte   N11 ,Gn4
 .byte   W12
 .byte   PEND 
@  #01 @046   ----------------------------------------
Label_01014017:
 .byte   N17 ,As4 ,v064
 .byte   W18
 .byte   Fn5
 .byte   W18
 .byte   Cn5
 .byte   W18
 .byte   As4
 .byte   W30
 .byte   N11 ,Gn4
 .byte   W12
 .byte   PEND 
@  #01 @047   ----------------------------------------
Label_01014025:
 .byte   N17 ,As4 ,v064
 .byte   W18
 .byte   Fn5
 .byte   W18
 .byte   Cn5
 .byte   W18
 .byte   Dn5
 .byte   W30
 .byte   N11
 .byte   W12
 .byte   PEND 
@  #01 @048   ----------------------------------------
Label_01014032:
 .byte   N17 ,Fn5 ,v064
 .byte   W18
 .byte   Ds5
 .byte   W18
 .byte   Dn5
 .byte   W18
 .byte   Cn5
 .byte   W42
 .byte   PEND 
@  #01 @049   ----------------------------------------
 .byte   W96
@  #01 @050   ----------------------------------------
 .byte   W96
@  #01 @051   ----------------------------------------
 .byte   W96
@  #01 @052   ----------------------------------------
Label_01014040:
 .byte   W72
 .byte   N05 ,An4 ,v096
 .byte   W06
 .byte   As4
 .byte   W06
 .byte   N11 ,Cn5
 .byte   W12
 .byte   PEND 
@  #01 @053   ----------------------------------------
Label_0101404B:
 .byte   N17 ,Dn5 ,v096
 .byte   W18
 .byte   Gn4
 .byte   W18
 .byte   Dn5
 .byte   W18
 .byte   Gn4
 .byte   W18
 .byte   N05 ,Dn5
 .byte   W06
 .byte   Ds5
 .byte   W06
 .byte   N11 ,Dn5
 .byte   W12
 .byte   PEND 
@  #01 @054   ----------------------------------------
Label_0101405E:
 .byte   N17 ,Cn5 ,v096
 .byte   W18
 .byte   Fn4
 .byte   W18
 .byte   Cn5
 .byte   W18
 .byte   As4
 .byte   W18
 .byte   N05 ,An4
 .byte   W06
 .byte   As4
 .byte   W06
 .byte   N11 ,Cn5
 .byte   W12
 .byte   PEND 
@  #01 @055   ----------------------------------------
Label_01014071:
 .byte   N17 ,Dn5 ,v096
 .byte   W18
 .byte   Gn4
 .byte   W18
 .byte   Dn5
 .byte   W18
 .byte   Fn4
 .byte   W18
 .byte   N05 ,Dn5
 .byte   W06
 .byte   Ds5
 .byte   W06
 .byte   N11 ,Dn5
 .byte   W12
 .byte   PEND 
@  #01 @056   ----------------------------------------
Label_01014084:
 .byte   N17 ,Cn5 ,v096
 .byte   W18
 .byte   Fn5
 .byte   W18
 .byte   Cn5
 .byte   W18
 .byte   As4
 .byte   W18
 .byte   N05 ,An4
 .byte   W06
 .byte   As4
 .byte   W06
 .byte   N11 ,Cn5
 .byte   W12
 .byte   PEND 
@  #01 @057   ----------------------------------------
 .byte   PATT
  .word Label_0101404B
@  #01 @058   ----------------------------------------
 .byte   PATT
  .word Label_0101405E
@  #01 @059   ----------------------------------------
Label_010140A1:
 .byte   N17 ,Dn5 ,v096
 .byte   W18
 .byte   Gn4
 .byte   W18
 .byte   Dn5
 .byte   W18
 .byte   Fs4
 .byte   W18
 .byte   N05 ,Dn5
 .byte   W06
 .byte   Ds5
 .byte   W06
 .byte   N11 ,Dn5
 .byte   W12
 .byte   PEND 
@  #01 @060   ----------------------------------------
Label_010140B4:
 .byte   N17 ,Cn5 ,v096
 .byte   W18
 .byte   Fn5
 .byte   W18
 .byte   Cn5
 .byte   W18
 .byte   As4
 .byte   W42
 .byte   PEND 
@  #01 @061   ----------------------------------------
 .byte   W96
@  #01 @062   ----------------------------------------
 .byte   PATT
  .word Label_01013EAB
@  #01 @063   ----------------------------------------
 .byte   PATT
  .word Label_01013EC7
@  #01 @064   ----------------------------------------
 .byte   PATT
  .word Label_01013EE1
@  #01 @065   ----------------------------------------
 .byte   PATT
  .word Label_01013EFB
@  #01 @066   ----------------------------------------
 .byte   PATT
  .word Label_01013EE1
@  #01 @067   ----------------------------------------
 .byte   PATT
  .word Label_01013EC7
@  #01 @068   ----------------------------------------
 .byte   PATT
  .word Label_01013EE1
@  #01 @069   ----------------------------------------
 .byte   PATT
  .word Label_01013EFB
@  #01 @070   ----------------------------------------
 .byte   PATT
  .word Label_01013EE1
@  #01 @071   ----------------------------------------
 .byte   PATT
  .word Label_01013EC7
@  #01 @072   ----------------------------------------
 .byte   PATT
  .word Label_01013EE1
@  #01 @073   ----------------------------------------
 .byte   W96
@  #01 @074   ----------------------------------------
 .byte   W96
@  #01 @075   ----------------------------------------
 .byte   W96
@  #01 @076   ----------------------------------------
 .byte   W96
@  #01 @077   ----------------------------------------
 .byte   W96
@  #01 @078   ----------------------------------------
 .byte   W96
@  #01 @079   ----------------------------------------
 .byte   W96
@  #01 @080   ----------------------------------------
 .byte   W96
@  #01 @081   ----------------------------------------
 .byte   W96
@  #01 @082   ----------------------------------------
 .byte   W96
@  #01 @083   ----------------------------------------
 .byte   W96
@  #01 @084   ----------------------------------------
 .byte   W96
@  #01 @085   ----------------------------------------
 .byte   W96
@  #01 @086   ----------------------------------------
 .byte   W96
@  #01 @087   ----------------------------------------
 .byte   W96
@  #01 @088   ----------------------------------------
 .byte   W96
@  #01 @089   ----------------------------------------
 .byte   W96
@  #01 @090   ----------------------------------------
 .byte   PATT
  .word Label_01013F49
@  #01 @091   ----------------------------------------
 .byte   PATT
  .word Label_01013F55
@  #01 @092   ----------------------------------------
 .byte   PATT
  .word Label_01013F49
@  #01 @093   ----------------------------------------
 .byte   PATT
  .word Label_01013F55
@  #01 @094   ----------------------------------------
 .byte   PATT
  .word Label_01013F72
@  #01 @095   ----------------------------------------
 .byte   PATT
  .word Label_01013F7E
@  #01 @096   ----------------------------------------
 .byte   PATT
  .word Label_01013F72
@  #01 @097   ----------------------------------------
 .byte   PATT
  .word Label_01013F7E
@  #01 @098   ----------------------------------------
 .byte   PATT
  .word Label_01013F72
@  #01 @099   ----------------------------------------
 .byte   PATT
  .word Label_01013F7E
@  #01 @100   ----------------------------------------
 .byte   PATT
  .word Label_01013FA5
@  #01 @101   ----------------------------------------
 .byte   PATT
  .word Label_01013FB1
@  #01 @102   ----------------------------------------
 .byte   PATT
  .word Label_01013FC4
@  #01 @103   ----------------------------------------
 .byte   PATT
  .word Label_01013FD2
@  #01 @104   ----------------------------------------
 .byte   PATT
  .word Label_01013FC4
@  #01 @105   ----------------------------------------
 .byte   PATT
  .word Label_01013FEE
@  #01 @106   ----------------------------------------
 .byte   PATT
  .word Label_01014009
@  #01 @107   ----------------------------------------
 .byte   PATT
  .word Label_01014017
@  #01 @108   ----------------------------------------
 .byte   PATT
  .word Label_01014025
@  #01 @109   ----------------------------------------
 .byte   PATT
  .word Label_01014032
@  #01 @110   ----------------------------------------
 .byte   W96
@  #01 @111   ----------------------------------------
 .byte   W96
@  #01 @112   ----------------------------------------
 .byte   W96
@  #01 @113   ----------------------------------------
 .byte   PATT
  .word Label_01014040
@  #01 @114   ----------------------------------------
 .byte   PATT
  .word Label_0101404B
@  #01 @115   ----------------------------------------
 .byte   PATT
  .word Label_0101405E
@  #01 @116   ----------------------------------------
 .byte   PATT
  .word Label_01014071
@  #01 @117   ----------------------------------------
 .byte   PATT
  .word Label_01014084
@  #01 @118   ----------------------------------------
 .byte   PATT
  .word Label_0101404B
@  #01 @119   ----------------------------------------
 .byte   PATT
  .word Label_0101405E
@  #01 @120   ----------------------------------------
 .byte   PATT
  .word Label_010140A1
@  #01 @121   ----------------------------------------
 .byte   PATT
  .word Label_010140B4
@  #01 @122   ----------------------------------------
 .byte   W96
@  #01 @123   ----------------------------------------
 .byte   GOTO
  .word Label_01013EAB
 .byte   FINE

@**************** Track 2 (Midi-Chn.1) ****************@

song06_002:
@  #02 @000   ----------------------------------------
 .byte   KEYSH , song06_key+0
 .byte   VOICE , 46
 .byte   VOL , 62*song06_mvl/mxv
 .byte   PAN , c_v+0
 .byte   VOL , 62*song06_mvl/mxv
 .byte   PAN , c_v+0
 .byte   W12
Label_0100E1ED:
 .byte   W96
@  #02 @001   ----------------------------------------
 .byte   W96
@  #02 @002   ----------------------------------------
 .byte   W96
@  #02 @003   ----------------------------------------
 .byte   W96
@  #02 @004   ----------------------------------------
 .byte   W96
@  #02 @005   ----------------------------------------
 .byte   W96
@  #02 @006   ----------------------------------------
 .byte   W96
@  #02 @007   ----------------------------------------
 .byte   W96
@  #02 @008   ----------------------------------------
 .byte   W96
@  #02 @009   ----------------------------------------
 .byte   W96
@  #02 @010   ----------------------------------------
 .byte   W96
@  #02 @011   ----------------------------------------
 .byte   W96
@  #02 @012   ----------------------------------------
 .byte   W96
@  #02 @013   ----------------------------------------
 .byte   W96
@  #02 @014   ----------------------------------------
 .byte   W96
@  #02 @015   ----------------------------------------
 .byte   W96
@  #02 @016   ----------------------------------------
 .byte   W96
@  #02 @017   ----------------------------------------
 .byte   W96
@  #02 @018   ----------------------------------------
 .byte   W96
@  #02 @019   ----------------------------------------
 .byte   W96
@  #02 @020   ----------------------------------------
 .byte   W96
@  #02 @021   ----------------------------------------
 .byte   W96
@  #02 @022   ----------------------------------------
 .byte   W96
@  #02 @023   ----------------------------------------
 .byte   W96
@  #02 @024   ----------------------------------------
 .byte   W96
@  #02 @025   ----------------------------------------
 .byte   W96
@  #02 @026   ----------------------------------------
 .byte   W96
@  #02 @027   ----------------------------------------
 .byte   W96
@  #02 @028   ----------------------------------------
 .byte   W96
@  #02 @029   ----------------------------------------
 .byte   W96
@  #02 @030   ----------------------------------------
 .byte   W96
@  #02 @031   ----------------------------------------
 .byte   W96
@  #02 @032   ----------------------------------------
 .byte   W96
@  #02 @033   ----------------------------------------
 .byte   W96
@  #02 @034   ----------------------------------------
 .byte   W96
@  #02 @035   ----------------------------------------
 .byte   W96
@  #02 @036   ----------------------------------------
 .byte   W96
@  #02 @037   ----------------------------------------
 .byte   W96
@  #02 @038   ----------------------------------------
 .byte   W96
@  #02 @039   ----------------------------------------
 .byte   W96
@  #02 @040   ----------------------------------------
 .byte   W96
@  #02 @041   ----------------------------------------
 .byte   W96
@  #02 @042   ----------------------------------------
 .byte   W96
@  #02 @043   ----------------------------------------
 .byte   W96
@  #02 @044   ----------------------------------------
 .byte   W96
@  #02 @045   ----------------------------------------
 .byte   W96
@  #02 @046   ----------------------------------------
 .byte   W96
@  #02 @047   ----------------------------------------
 .byte   W96
@  #02 @048   ----------------------------------------
 .byte   W96
@  #02 @049   ----------------------------------------
 .byte   W96
@  #02 @050   ----------------------------------------
 .byte   W96
@  #02 @051   ----------------------------------------
Label_0100E220:
 .byte   W72
 .byte   N05 ,An3 ,v080
 .byte   W06
 .byte   As3
 .byte   W06
 .byte   N11 ,Cn4
 .byte   W12
 .byte   PEND 
@  #02 @052   ----------------------------------------
Label_0100E22B:
 .byte   N17 ,Dn4 ,v080
 .byte   W18
 .byte   Gn3
 .byte   W18
 .byte   Dn4
 .byte   W18
 .byte   Gn3
 .byte   W18
 .byte   N05 ,Dn4
 .byte   W06
 .byte   Ds4
 .byte   W06
 .byte   N11 ,Dn4
 .byte   W12
 .byte   PEND 
@  #02 @053   ----------------------------------------
Label_0100E23E:
 .byte   N17 ,Cn4 ,v080
 .byte   W18
 .byte   Fn3
 .byte   W18
 .byte   Cn4
 .byte   W18
 .byte   As3
 .byte   W18
 .byte   N05 ,An3
 .byte   W06
 .byte   As3
 .byte   W06
 .byte   N11 ,Cn4
 .byte   W12
 .byte   PEND 
@  #02 @054   ----------------------------------------
Label_0100E251:
 .byte   N17 ,Dn4 ,v080
 .byte   W18
 .byte   Gn3
 .byte   W18
 .byte   Dn4
 .byte   W18
 .byte   Fn3
 .byte   W18
 .byte   N05 ,Dn4
 .byte   W06
 .byte   Ds4
 .byte   W06
 .byte   N11 ,Dn4
 .byte   W12
 .byte   PEND 
@  #02 @055   ----------------------------------------
Label_0100E264:
 .byte   N17 ,Cn4 ,v080
 .byte   W18
 .byte   Fn4
 .byte   W18
 .byte   Cn4
 .byte   W18
 .byte   As3
 .byte   W18
 .byte   N05 ,An3
 .byte   W06
 .byte   As3
 .byte   W06
 .byte   N11 ,Cn4
 .byte   W12
 .byte   PEND 
@  #02 @056   ----------------------------------------
 .byte   PATT
  .word Label_0100E22B
@  #02 @057   ----------------------------------------
 .byte   PATT
  .word Label_0100E23E
@  #02 @058   ----------------------------------------
Label_0100E281:
 .byte   N17 ,Dn4 ,v080
 .byte   W18
 .byte   Gn3
 .byte   W18
 .byte   Dn4
 .byte   W18
 .byte   Fs3
 .byte   W18
 .byte   N05 ,Dn4
 .byte   W06
 .byte   Ds4
 .byte   W06
 .byte   N11 ,Dn4
 .byte   W12
 .byte   PEND 
@  #02 @059   ----------------------------------------
Label_0100E294:
 .byte   N17 ,Cn4 ,v080
 .byte   W18
 .byte   Fn4
 .byte   W18
 .byte   Cn4
 .byte   W18
 .byte   As3
 .byte   W42
 .byte   PEND 
@  #02 @060   ----------------------------------------
 .byte   W96
@  #02 @061   ----------------------------------------
 .byte   W96
@  #02 @062   ----------------------------------------
 .byte   W96
@  #02 @063   ----------------------------------------
 .byte   W96
@  #02 @064   ----------------------------------------
 .byte   W96
@  #02 @065   ----------------------------------------
 .byte   W96
@  #02 @066   ----------------------------------------
 .byte   W96
@  #02 @067   ----------------------------------------
 .byte   W96
@  #02 @068   ----------------------------------------
 .byte   W96
@  #02 @069   ----------------------------------------
 .byte   W96
@  #02 @070   ----------------------------------------
 .byte   W96
@  #02 @071   ----------------------------------------
 .byte   W96
@  #02 @072   ----------------------------------------
 .byte   W96
@  #02 @073   ----------------------------------------
 .byte   W96
@  #02 @074   ----------------------------------------
 .byte   W96
@  #02 @075   ----------------------------------------
 .byte   W96
@  #02 @076   ----------------------------------------
 .byte   W96
@  #02 @077   ----------------------------------------
 .byte   W96
@  #02 @078   ----------------------------------------
 .byte   W96
@  #02 @079   ----------------------------------------
 .byte   W96
@  #02 @080   ----------------------------------------
 .byte   W96
@  #02 @081   ----------------------------------------
 .byte   W96
@  #02 @082   ----------------------------------------
 .byte   W96
@  #02 @083   ----------------------------------------
 .byte   W96
@  #02 @084   ----------------------------------------
 .byte   W96
@  #02 @085   ----------------------------------------
 .byte   W96
@  #02 @086   ----------------------------------------
 .byte   W96
@  #02 @087   ----------------------------------------
 .byte   W96
@  #02 @088   ----------------------------------------
 .byte   W96
@  #02 @089   ----------------------------------------
 .byte   W96
@  #02 @090   ----------------------------------------
 .byte   W96
@  #02 @091   ----------------------------------------
 .byte   W96
@  #02 @092   ----------------------------------------
 .byte   W96
@  #02 @093   ----------------------------------------
 .byte   W96
@  #02 @094   ----------------------------------------
 .byte   W96
@  #02 @095   ----------------------------------------
 .byte   W96
@  #02 @096   ----------------------------------------
 .byte   W96
@  #02 @097   ----------------------------------------
 .byte   W96
@  #02 @098   ----------------------------------------
 .byte   W96
@  #02 @099   ----------------------------------------
 .byte   W96
@  #02 @100   ----------------------------------------
 .byte   W96
@  #02 @101   ----------------------------------------
 .byte   W96
@  #02 @102   ----------------------------------------
 .byte   W96
@  #02 @103   ----------------------------------------
 .byte   W96
@  #02 @104   ----------------------------------------
 .byte   W96
@  #02 @105   ----------------------------------------
 .byte   W96
@  #02 @106   ----------------------------------------
 .byte   W96
@  #02 @107   ----------------------------------------
 .byte   W96
@  #02 @108   ----------------------------------------
 .byte   W96
@  #02 @109   ----------------------------------------
 .byte   W96
@  #02 @110   ----------------------------------------
 .byte   W96
@  #02 @111   ----------------------------------------
 .byte   W96
@  #02 @112   ----------------------------------------
 .byte   PATT
  .word Label_0100E220
@  #02 @113   ----------------------------------------
 .byte   PATT
  .word Label_0100E22B
@  #02 @114   ----------------------------------------
 .byte   PATT
  .word Label_0100E23E
@  #02 @115   ----------------------------------------
 .byte   PATT
  .word Label_0100E251
@  #02 @116   ----------------------------------------
 .byte   PATT
  .word Label_0100E264
@  #02 @117   ----------------------------------------
 .byte   PATT
  .word Label_0100E22B
@  #02 @118   ----------------------------------------
 .byte   PATT
  .word Label_0100E23E
@  #02 @119   ----------------------------------------
 .byte   PATT
  .word Label_0100E281
@  #02 @120   ----------------------------------------
 .byte   PATT
  .word Label_0100E294
@  #02 @121   ----------------------------------------
 .byte   W96
@  #02 @122   ----------------------------------------
 .byte   GOTO
  .word Label_0100E1ED
 .byte   FINE

@**************** Track 3 (Midi-Chn.2) ****************@

song06_003:
@  #03 @000   ----------------------------------------
 .byte   KEYSH , song06_key+0
 .byte   VOICE , 40
 .byte   VOL , 62*song06_mvl/mxv
 .byte   PAN , c_v+0
 .byte   VOL , 62*song06_mvl/mxv
 .byte   PAN , c_v+0
 .byte   W12
Label_01013031:
 .byte   W96
@  #03 @001   ----------------------------------------
 .byte   W96
@  #03 @002   ----------------------------------------
 .byte   W96
@  #03 @003   ----------------------------------------
 .byte   W96
@  #03 @004   ----------------------------------------
 .byte   W96
@  #03 @005   ----------------------------------------
 .byte   W96
@  #03 @006   ----------------------------------------
 .byte   W96
@  #03 @007   ----------------------------------------
 .byte   W96
@  #03 @008   ----------------------------------------
 .byte   W96
@  #03 @009   ----------------------------------------
 .byte   W96
@  #03 @010   ----------------------------------------
 .byte   W96
@  #03 @011   ----------------------------------------
 .byte   W96
@  #03 @012   ----------------------------------------
Label_0101303D:
 .byte   N11 ,Ds1 ,v080
 .byte   W12
 .byte   N02
 .byte   W03
 .byte   N02
 .byte   W03
 .byte   N02
 .byte   W03
 .byte   Ds1 ,v076
 .byte   W03
 .byte   Ds1 ,v072
 .byte   W03
 .byte   Ds1 ,v064
 .byte   W03
 .byte   N02
 .byte   W03
 .byte   N02
 .byte   W03
 .byte   N11 ,Gn1
 .byte   W12
 .byte   N02
 .byte   W03
 .byte   N02
 .byte   W03
 .byte   N02
 .byte   W03
 .byte   N02
 .byte   W03
 .byte   N02
 .byte   W03
 .byte   N02
 .byte   W03
 .byte   N02
 .byte   W03
 .byte   N02
 .byte   W24
 .byte   W03
 .byte   PEND 
@  #03 @013   ----------------------------------------
Label_01013069:
 .byte   N11 ,Ds1 ,v064
 .byte   W12
 .byte   N02
 .byte   W03
 .byte   N02
 .byte   W03
 .byte   N02
 .byte   W03
 .byte   N02
 .byte   W03
 .byte   N02
 .byte   W03
 .byte   N02
 .byte   W03
 .byte   N02
 .byte   W03
 .byte   N02
 .byte   W03
 .byte   N11 ,Gn1
 .byte   W12
 .byte   N02
 .byte   W03
 .byte   N02
 .byte   W03
 .byte   N02
 .byte   W03
 .byte   N02
 .byte   W03
 .byte   N02
 .byte   W03
 .byte   N02
 .byte   W03
 .byte   N02
 .byte   W03
 .byte   N02
 .byte   W24
 .byte   W03
 .byte   PEND 
@  #03 @014   ----------------------------------------
 .byte   PATT
  .word Label_01013069
@  #03 @015   ----------------------------------------
Label_01013097:
 .byte   N11 ,Cn2 ,v064
 .byte   W12
 .byte   N02
 .byte   W03
 .byte   N02
 .byte   W03
 .byte   N02
 .byte   W03
 .byte   N02
 .byte   W03
 .byte   N02
 .byte   W03
 .byte   N02
 .byte   W03
 .byte   N02
 .byte   W03
 .byte   N02
 .byte   W03
 .byte   N11 ,Dn2
 .byte   W12
 .byte   N02
 .byte   W03
 .byte   N02
 .byte   W03
 .byte   N02
 .byte   W03
 .byte   N02
 .byte   W03
 .byte   N02
 .byte   W03
 .byte   N02
 .byte   W03
 .byte   N02
 .byte   W03
 .byte   N02
 .byte   W24
 .byte   W03
 .byte   PEND 
@  #03 @016   ----------------------------------------
 .byte   PATT
  .word Label_01013069
@  #03 @017   ----------------------------------------
 .byte   PATT
  .word Label_01013069
@  #03 @018   ----------------------------------------
 .byte   PATT
  .word Label_01013069
@  #03 @019   ----------------------------------------
 .byte   W96
@  #03 @020   ----------------------------------------
Label_010130D0:
 .byte   N05 ,Ds2 ,v052
 .byte   W06
 .byte   N05
 .byte   W06
 .byte   N05
 .byte   W06
 .byte   N05
 .byte   W06
 .byte   Ds2 ,v056
 .byte   W06
 .byte   N05
 .byte   W06
 .byte   Ds2 ,v060
 .byte   W06
 .byte   N05
 .byte   W06
 .byte   N02 ,Ds2 ,v064
 .byte   W03
 .byte   N02
 .byte   W03
 .byte   N02
 .byte   W03
 .byte   N02
 .byte   W03
 .byte   N02
 .byte   W03
 .byte   N02
 .byte   W03
 .byte   N02
 .byte   W03
 .byte   N02
 .byte   W03
 .byte   Ds2 ,v060
 .byte   W03
 .byte   N02
 .byte   W03
 .byte   N02
 .byte   W03
 .byte   Ds2 ,v056
 .byte   W03
 .byte   N02
 .byte   W03
 .byte   N02
 .byte   W03
 .byte   Ds2 ,v052
 .byte   W03
 .byte   N02
 .byte   W03
 .byte   PEND 
@  #03 @021   ----------------------------------------
Label_0101310A:
 .byte   N17 ,Dn2 ,v052
 .byte   W18
 .byte   Dn2 ,v056
 .byte   W18
 .byte   N11 ,Gn1 ,v076
 .byte   W18
 .byte   N17
 .byte   W18
 .byte   N23
 .byte   W24
 .byte   PEND 
@  #03 @022   ----------------------------------------
Label_0101311A:
 .byte   N32 ,Ds2 ,v064
 .byte   W36
 .byte   N11 ,Fn2
 .byte   W18
 .byte   N11
 .byte   W18
 .byte   N23
 .byte   W24
 .byte   PEND 
@  #03 @023   ----------------------------------------
Label_01013126:
 .byte   N17 ,Gn2 ,v064
 .byte   W18
 .byte   N17
 .byte   W18
 .byte   N17
 .byte   W18
 .byte   N17
 .byte   W18
 .byte   N23 ,En2
 .byte   W24
 .byte   PEND 
@  #03 @024   ----------------------------------------
 .byte   PATT
  .word Label_010130D0
@  #03 @025   ----------------------------------------
 .byte   PATT
  .word Label_0101310A
@  #03 @026   ----------------------------------------
Label_0101313E:
 .byte   N02 ,Cn2 ,v036
 .byte   W03
 .byte   N02
 .byte   W03
 .byte   N02
 .byte   W03
 .byte   N02
 .byte   W03
 .byte   N02
 .byte   W03
 .byte   Cn2 ,v040
 .byte   W03
 .byte   N02
 .byte   W03
 .byte   Cn2 ,v044
 .byte   W03
 .byte   N02
 .byte   W03
 .byte   N02
 .byte   W03
 .byte   Cn2 ,v048
 .byte   W03
 .byte   N02
 .byte   W03
 .byte   N56 ,Dn2 ,v052
 .byte   W60
 .byte   PEND 
@  #03 @027   ----------------------------------------
 .byte   W96
@  #03 @028   ----------------------------------------
 .byte   TIE ,Ds2
 .byte   W96
@  #03 @029   ----------------------------------------
 .byte   W92
 .byte   W03
 .byte   EOT
 .byte   W01
@  #03 @030   ----------------------------------------
 .byte   TIE ,Dn2
 .byte   W96
@  #03 @031   ----------------------------------------
Label_0101316B:
 .byte   W24
 .byte   N23 ,An2 ,v096
 .byte   W24
 .byte   As2
 .byte   W24
 .byte   Gn3
 .byte   W23
 .byte   PEND 
 .byte   EOT
 .byte   Dn2
 .byte   W01
@  #03 @032   ----------------------------------------
Label_01013178:
 .byte   TIE ,Cs2 ,v052
 .byte   TIE ,Fn3 ,v096
 .byte   W96
 .byte   PEND 
@  #03 @033   ----------------------------------------
 .byte   W92
 .byte   W03
 .byte   EOT
 .byte   Cs2 ,v065
 .byte   W01
@  #03 @034   ----------------------------------------
 .byte   TIE ,Cn2 ,v060
 .byte   W96
@  #03 @035   ----------------------------------------
Label_0101318A:
 .byte   W24
 .byte   N23 ,Gn2 ,v096
 .byte   W24
 .byte   Gs2
 .byte   W24
 .byte   Fn3
 .byte   W23
 .byte   PEND 
 .byte   EOT
 .byte   Cn2
 .byte   W01
@  #03 @036   ----------------------------------------
Label_01013197:
 .byte   TIE ,Bn1 ,v060
 .byte   TIE ,Ds3 ,v096
 .byte   W96
 .byte   PEND 
@  #03 @037   ----------------------------------------
 .byte   W92
 .byte   W03
 .byte   EOT
 .byte   Bn1 ,v063
 .byte   W01
@  #03 @038   ----------------------------------------
Label_010131A5:
 .byte   TIE ,As1 ,v060
 .byte   W24
 .byte   N92 ,Gs2 ,v080
 .byte   W72
 .byte   PEND 
@  #03 @039   ----------------------------------------
Label_010131AE:
 .byte   W24
 .byte   N23 ,Gs2 ,v080
 .byte   W24
 .byte   As2
 .byte   W24
 .byte   Fn3
 .byte   W23
 .byte   PEND 
 .byte   EOT
 .byte   As1
 .byte   W01
@  #03 @040   ----------------------------------------
Label_010131BB:
 .byte   TIE ,An1 ,v060
 .byte   TIE ,Dn3 ,v096
 .byte   W96
 .byte   PEND 
@  #03 @041   ----------------------------------------
 .byte   W92
 .byte   W03
 .byte   EOT
 .byte   An1 ,v062
 .byte   W01
@  #03 @042   ----------------------------------------
 .byte   TIE ,Dn2 ,v060
 .byte   W96
@  #03 @043   ----------------------------------------
 .byte   W92
 .byte   W03
 .byte   EOT
 .byte   W01
@  #03 @044   ----------------------------------------
 .byte   W96
@  #03 @045   ----------------------------------------
 .byte   W96
@  #03 @046   ----------------------------------------
 .byte   W96
@  #03 @047   ----------------------------------------
 .byte   W96
@  #03 @048   ----------------------------------------
Label_010131D5:
 .byte   N32 ,Gn2 ,v080
 .byte   W36
 .byte   N56 ,Fn2
 .byte   W60
 .byte   PEND 
@  #03 @049   ----------------------------------------
Label_010131DD:
 .byte   N32 ,Ds2 ,v080
 .byte   W36
 .byte   N56 ,Dn2
 .byte   W60
 .byte   PEND 
@  #03 @050   ----------------------------------------
Label_010131E5:
 .byte   N32 ,Cn2 ,v080
 .byte   W36
 .byte   N56 ,Dn2
 .byte   W60
 .byte   PEND 
@  #03 @051   ----------------------------------------
Label_010131ED:
 .byte   N17 ,Ds2 ,v080
 .byte   W18
 .byte   Fn2
 .byte   W18
 .byte   N56 ,Gn2
 .byte   W60
 .byte   PEND 
@  #03 @052   ----------------------------------------
 .byte   N92 ,Ds1
 .byte   W96
@  #03 @053   ----------------------------------------
Label_010131FA:
 .byte   N32 ,Dn1 ,v080
 .byte   W36
 .byte   N17 ,Gn1
 .byte   W18
 .byte   N40
 .byte   W42
 .byte   PEND 
@  #03 @054   ----------------------------------------
Label_01013204:
 .byte   N32 ,Ds1 ,v080
 .byte   W36
 .byte   N56 ,Fn1
 .byte   W60
 .byte   PEND 
@  #03 @055   ----------------------------------------
Label_0101320C:
 .byte   N68 ,Gn1 ,v080
 .byte   W72
 .byte   N23 ,En1
 .byte   W24
 .byte   PEND 
@  #03 @056   ----------------------------------------
 .byte   N92 ,Ds1
 .byte   W96
@  #03 @057   ----------------------------------------
 .byte   PATT
  .word Label_010131FA
@  #03 @058   ----------------------------------------
Label_0101321C:
 .byte   N32 ,Cn1 ,v080
 .byte   W36
 .byte   N56 ,Dn1
 .byte   W60
 .byte   PEND 
@  #03 @059   ----------------------------------------
 .byte   N92 ,Gn1
 .byte   W96
@  #03 @060   ----------------------------------------
 .byte   W96
@  #03 @061   ----------------------------------------
 .byte   W96
@  #03 @062   ----------------------------------------
 .byte   W96
@  #03 @063   ----------------------------------------
 .byte   W96
@  #03 @064   ----------------------------------------
 .byte   W96
@  #03 @065   ----------------------------------------
 .byte   W96
@  #03 @066   ----------------------------------------
 .byte   W96
@  #03 @067   ----------------------------------------
 .byte   W96
@  #03 @068   ----------------------------------------
 .byte   W96
@  #03 @069   ----------------------------------------
 .byte   W96
@  #03 @070   ----------------------------------------
 .byte   W96
@  #03 @071   ----------------------------------------
 .byte   W96
@  #03 @072   ----------------------------------------
 .byte   W96
@  #03 @073   ----------------------------------------
 .byte   PATT
  .word Label_0101303D
@  #03 @074   ----------------------------------------
 .byte   PATT
  .word Label_01013069
@  #03 @075   ----------------------------------------
 .byte   PATT
  .word Label_01013069
@  #03 @076   ----------------------------------------
 .byte   PATT
  .word Label_01013097
@  #03 @077   ----------------------------------------
 .byte   PATT
  .word Label_01013069
@  #03 @078   ----------------------------------------
 .byte   PATT
  .word Label_01013069
@  #03 @079   ----------------------------------------
 .byte   PATT
  .word Label_01013069
@  #03 @080   ----------------------------------------
 .byte   W96
@  #03 @081   ----------------------------------------
 .byte   PATT
  .word Label_010130D0
@  #03 @082   ----------------------------------------
 .byte   PATT
  .word Label_0101310A
@  #03 @083   ----------------------------------------
 .byte   PATT
  .word Label_0101311A
@  #03 @084   ----------------------------------------
 .byte   PATT
  .word Label_01013126
@  #03 @085   ----------------------------------------
 .byte   PATT
  .word Label_010130D0
@  #03 @086   ----------------------------------------
 .byte   PATT
  .word Label_0101310A
@  #03 @087   ----------------------------------------
 .byte   PATT
  .word Label_0101313E
@  #03 @088   ----------------------------------------
 .byte   W96
@  #03 @089   ----------------------------------------
 .byte   TIE ,Ds2 ,v052
 .byte   W96
@  #03 @090   ----------------------------------------
 .byte   W92
 .byte   W03
 .byte   EOT
 .byte   W01
@  #03 @091   ----------------------------------------
 .byte   TIE ,Dn2
 .byte   W96
@  #03 @092   ----------------------------------------
 .byte   PATT
  .word Label_0101316B
@  #03 @093   ----------------------------------------
 .byte   EOT
 .byte   Dn2
 .byte   W01
@  #03 @094   ----------------------------------------
 .byte   PATT
  .word Label_01013178
@  #03 @095   ----------------------------------------
 .byte   W92
 .byte   W03
 .byte   EOT
 .byte   Cs2 ,v065
 .byte   W01
@  #03 @096   ----------------------------------------
 .byte   TIE ,Cn2 ,v060
 .byte   W96
@  #03 @097   ----------------------------------------
 .byte   PATT
  .word Label_0101318A
@  #03 @098   ----------------------------------------
 .byte   EOT
 .byte   Cn2
 .byte   W01
@  #03 @099   ----------------------------------------
 .byte   PATT
  .word Label_01013197
@  #03 @100   ----------------------------------------
 .byte   W92
 .byte   W03
 .byte   EOT
 .byte   Bn1 ,v063
 .byte   W01
@  #03 @101   ----------------------------------------
 .byte   PATT
  .word Label_010131A5
@  #03 @102   ----------------------------------------
 .byte   PATT
  .word Label_010131AE
@  #03 @103   ----------------------------------------
 .byte   EOT
 .byte   As1
 .byte   W01
@  #03 @104   ----------------------------------------
 .byte   PATT
  .word Label_010131BB
@  #03 @105   ----------------------------------------
 .byte   W92
 .byte   W03
 .byte   EOT
 .byte   An1 ,v062
 .byte   W01
@  #03 @106   ----------------------------------------
 .byte   TIE ,Dn2 ,v060
 .byte   W96
@  #03 @107   ----------------------------------------
 .byte   W92
 .byte   W03
 .byte   EOT
 .byte   W01
@  #03 @108   ----------------------------------------
 .byte   W96
@  #03 @109   ----------------------------------------
 .byte   W96
@  #03 @110   ----------------------------------------
 .byte   W96
@  #03 @111   ----------------------------------------
 .byte   W96
@  #03 @112   ----------------------------------------
 .byte   PATT
  .word Label_010131D5
@  #03 @113   ----------------------------------------
 .byte   PATT
  .word Label_010131DD
@  #03 @114   ----------------------------------------
 .byte   PATT
  .word Label_010131E5
@  #03 @115   ----------------------------------------
 .byte   PATT
  .word Label_010131ED
@  #03 @116   ----------------------------------------
 .byte   N92 ,Ds1 ,v080
 .byte   W96
@  #03 @117   ----------------------------------------
 .byte   PATT
  .word Label_010131FA
@  #03 @118   ----------------------------------------
 .byte   PATT
  .word Label_01013204
@  #03 @119   ----------------------------------------
 .byte   PATT
  .word Label_0101320C
@  #03 @120   ----------------------------------------
 .byte   N92 ,Ds1 ,v080
 .byte   W96
@  #03 @121   ----------------------------------------
 .byte   PATT
  .word Label_010131FA
@  #03 @122   ----------------------------------------
 .byte   PATT
  .word Label_0101321C
@  #03 @123   ----------------------------------------
 .byte   N92 ,Gn1 ,v080
 .byte   W96
@  #03 @124   ----------------------------------------
 .byte   W96
@  #03 @125   ----------------------------------------
 .byte   GOTO
  .word Label_01013031
 .byte   FINE

@**************** Track 4 (Midi-Chn.3) ****************@

song06_004:
@  #04 @000   ----------------------------------------
 .byte   KEYSH , song06_key+0
 .byte   VOICE , 60
 .byte   VOL , 62*song06_mvl/mxv
 .byte   PAN , c_v+0
 .byte   VOL , 62*song06_mvl/mxv
 .byte   PAN , c_v+0
 .byte   VOL , 62*song06_mvl/mxv
 .byte   PAN , c_v+0
 .byte   VOL , 62*song06_mvl/mxv
 .byte   PAN , c_v+0
 .byte   W12
Label_549F3D:
 .byte   W60
 .byte   N11 ,En2 ,v056
 .byte   W12
 .byte   Gn2
 .byte   W12
@  #04 @001   ----------------------------------------
 .byte   Dn3
 .byte   W12
 .byte   PEND 
 .byte   W96
@  #04 @002   ----------------------------------------
 .byte   PATT
  .word Label_549F3D
@  #04 @003   ----------------------------------------
 .byte   W96
@  #04 @004   ----------------------------------------
 .byte   W96
@  #04 @005   ----------------------------------------
 .byte   W96
@  #04 @006   ----------------------------------------
 .byte   W96
@  #04 @007   ----------------------------------------
 .byte   W96
@  #04 @008   ----------------------------------------
 .byte   W96
@  #04 @009   ----------------------------------------
 .byte   W96
@  #04 @010   ----------------------------------------
 .byte   W96
@  #04 @011   ----------------------------------------
 .byte   W96
@  #04 @012   ----------------------------------------
 .byte   W96
@  #04 @013   ----------------------------------------
 .byte   W96
@  #04 @014   ----------------------------------------
 .byte   W96
@  #04 @015   ----------------------------------------
 .byte   W96
@  #04 @016   ----------------------------------------
 .byte   W96
@  #04 @017   ----------------------------------------
 .byte   W96
@  #04 @018   ----------------------------------------
 .byte   W96
@  #04 @019   ----------------------------------------
 .byte   W96
@  #04 @020   ----------------------------------------
Label_549F5E:
 .byte   N32 ,Gn3 ,v064
 .byte   W36
 .byte   An3
 .byte   W36
 .byte   N23 ,As3
 .byte   W24
 .byte   PEND 
@  #04 @021   ----------------------------------------
Label_549F68:
 .byte   N11 ,Dn3 ,v052
 .byte   N32 ,An3 ,v064
 .byte   W18
 .byte   N11 ,Dn3 ,v052
 .byte   W18
 .byte   Gn2
 .byte   N11 ,Dn3
 .byte   N17 ,Fn3 ,v076
 .byte   W18
 .byte   Gn2 ,v052
 .byte   N17 ,Dn3
 .byte   W18
 .byte   N23 ,Gn2
 .byte   N23 ,Dn3
 .byte   W24
 .byte   PEND 
@  #04 @022   ----------------------------------------
Label_549F85:
 .byte   N17 ,Ds3 ,v052
 .byte   N32 ,Gn3 ,v064
 .byte   W18
 .byte   N17 ,Ds3 ,v052
 .byte   W18
 .byte   N17
 .byte   N32 ,An3 ,v064
 .byte   W18
 .byte   N17 ,Ds3 ,v052
 .byte   W18
 .byte   N23 ,Fn3
 .byte   W24
 .byte   PEND 
@  #04 @023   ----------------------------------------
Label_549F9D:
 .byte   N17 ,Gn2 ,v060
 .byte   N17 ,Dn3
 .byte   W18
 .byte   Gn2
 .byte   N17 ,Dn3
 .byte   W18
 .byte   Gn2
 .byte   N17 ,Dn3
 .byte   W18
 .byte   Gn2
 .byte   N17 ,Dn3
 .byte   W18
 .byte   N23 ,En2
 .byte   W24
 .byte   PEND 
@  #04 @024   ----------------------------------------
Label_549FB3:
 .byte   W24
 .byte   N23 ,Gn2 ,v064
 .byte   W24
 .byte   As2
 .byte   W24
 .byte   Fn3
 .byte   W24
 .byte   PEND 
@  #04 @025   ----------------------------------------
Label_549FBD:
 .byte   N44 ,An2 ,v064
 .byte   W54
 .byte   N32 ,As2
 .byte   W42
 .byte   PEND 
@  #04 @026   ----------------------------------------
Label_549FC5:
 .byte   N17 ,Cn3 ,v064
 .byte   N32 ,Gn3
 .byte   W18
 .byte   N17 ,Cn3
 .byte   W18
 .byte   Dn3
 .byte   N32 ,Fs3 ,v072
 .byte   W18
 .byte   N17 ,Dn3 ,v064
 .byte   W18
 .byte   N17
 .byte   N23 ,As3 ,v076
 .byte   W24
 .byte   PEND 
@  #04 @027   ----------------------------------------
Label_549FDD:
 .byte   N17 ,Gn2 ,v064
 .byte   N17 ,Dn3
 .byte   N32 ,An3 ,v080
 .byte   W18
 .byte   N17 ,Gn2 ,v064
 .byte   N17 ,Dn3
 .byte   W18
 .byte   Gn2
 .byte   N17 ,Dn3
 .byte   N17 ,Fn3 ,v080
 .byte   W18
 .byte   N23 ,Gn2 ,v064
 .byte   N32 ,Dn3
 .byte   W42
 .byte   PEND 
@  #04 @028   ----------------------------------------
 .byte   W96
@  #04 @029   ----------------------------------------
 .byte   W96
@  #04 @030   ----------------------------------------
 .byte   W96
@  #04 @031   ----------------------------------------
 .byte   W96
@  #04 @032   ----------------------------------------
 .byte   W96
@  #04 @033   ----------------------------------------
 .byte   W96
@  #04 @034   ----------------------------------------
 .byte   W96
@  #04 @035   ----------------------------------------
 .byte   W96
@  #04 @036   ----------------------------------------
 .byte   W96
@  #04 @037   ----------------------------------------
 .byte   W96
@  #04 @038   ----------------------------------------
 .byte   W96
@  #04 @039   ----------------------------------------
 .byte   W96
@  #04 @040   ----------------------------------------
 .byte   W96
@  #04 @041   ----------------------------------------
 .byte   W96
@  #04 @042   ----------------------------------------
 .byte   W96
@  #04 @043   ----------------------------------------
 .byte   W96
@  #04 @044   ----------------------------------------
 .byte   W96
@  #04 @045   ----------------------------------------
 .byte   W96
@  #04 @046   ----------------------------------------
 .byte   W96
@  #04 @047   ----------------------------------------
 .byte   W96
@  #04 @048   ----------------------------------------
 .byte   W96
@  #04 @049   ----------------------------------------
 .byte   W96
@  #04 @050   ----------------------------------------
 .byte   W96
@  #04 @051   ----------------------------------------
 .byte   W96
@  #04 @052   ----------------------------------------
 .byte   W96
@  #04 @053   ----------------------------------------
 .byte   W96
@  #04 @054   ----------------------------------------
 .byte   W96
@  #04 @055   ----------------------------------------
 .byte   W96
@  #04 @056   ----------------------------------------
Label_54A016:
 .byte   W24
 .byte   N23 ,Gn2 ,v096
 .byte   W24
 .byte   As2
 .byte   W24
 .byte   Fn3
 .byte   W24
 .byte   PEND 
@  #04 @057   ----------------------------------------
Label_54A020:
 .byte   N52 ,An2 ,v064
 .byte   W54
 .byte   N40 ,As2
 .byte   W42
 .byte   PEND 
@  #04 @058   ----------------------------------------
 .byte   W96
@  #04 @059   ----------------------------------------
 .byte   W96
@  #04 @060   ----------------------------------------
 .byte   W96
@  #04 @061   ----------------------------------------
 .byte   PATT
  .word Label_549F3D
@  #04 @062   ----------------------------------------
 .byte   W96
@  #04 @063   ----------------------------------------
 .byte   PATT
  .word Label_549F3D
@  #04 @064   ----------------------------------------
 .byte   W96
@  #04 @065   ----------------------------------------
 .byte   W96
@  #04 @066   ----------------------------------------
 .byte   W96
@  #04 @067   ----------------------------------------
 .byte   W96
@  #04 @068   ----------------------------------------
 .byte   W96
@  #04 @069   ----------------------------------------
 .byte   W96
@  #04 @070   ----------------------------------------
 .byte   W96
@  #04 @071   ----------------------------------------
 .byte   W96
@  #04 @072   ----------------------------------------
 .byte   W96
@  #04 @073   ----------------------------------------
 .byte   W96
@  #04 @074   ----------------------------------------
 .byte   W96
@  #04 @075   ----------------------------------------
 .byte   W96
@  #04 @076   ----------------------------------------
 .byte   W96
@  #04 @077   ----------------------------------------
 .byte   W96
@  #04 @078   ----------------------------------------
 .byte   W96
@  #04 @079   ----------------------------------------
 .byte   W96
@  #04 @080   ----------------------------------------
 .byte   W96
@  #04 @081   ----------------------------------------
 .byte   PATT
  .word Label_549F5E
@  #04 @082   ----------------------------------------
 .byte   PATT
  .word Label_549F68
@  #04 @083   ----------------------------------------
 .byte   PATT
  .word Label_549F85
@  #04 @084   ----------------------------------------
 .byte   PATT
  .word Label_549F9D
@  #04 @085   ----------------------------------------
 .byte   PATT
  .word Label_549FB3
@  #04 @086   ----------------------------------------
 .byte   PATT
  .word Label_549FBD
@  #04 @087   ----------------------------------------
 .byte   PATT
  .word Label_549FC5
@  #04 @088   ----------------------------------------
 .byte   PATT
  .word Label_549FDD
@  #04 @089   ----------------------------------------
 .byte   W96
@  #04 @090   ----------------------------------------
 .byte   W96
@  #04 @091   ----------------------------------------
 .byte   W96
@  #04 @092   ----------------------------------------
 .byte   W96
@  #04 @093   ----------------------------------------
 .byte   W96
@  #04 @094   ----------------------------------------
 .byte   W96
@  #04 @095   ----------------------------------------
 .byte   W96
@  #04 @096   ----------------------------------------
 .byte   W96
@  #04 @097   ----------------------------------------
 .byte   W96
@  #04 @098   ----------------------------------------
 .byte   W96
@  #04 @099   ----------------------------------------
 .byte   W96
@  #04 @100   ----------------------------------------
 .byte   W96
@  #04 @101   ----------------------------------------
 .byte   W96
@  #04 @102   ----------------------------------------
 .byte   W96
@  #04 @103   ----------------------------------------
 .byte   W96
@  #04 @104   ----------------------------------------
 .byte   W96
@  #04 @105   ----------------------------------------
 .byte   W96
@  #04 @106   ----------------------------------------
 .byte   W96
@  #04 @107   ----------------------------------------
 .byte   W96
@  #04 @108   ----------------------------------------
 .byte   W96
@  #04 @109   ----------------------------------------
 .byte   W96
@  #04 @110   ----------------------------------------
 .byte   W96
@  #04 @111   ----------------------------------------
 .byte   W96
@  #04 @112   ----------------------------------------
 .byte   W96
@  #04 @113   ----------------------------------------
 .byte   W96
@  #04 @114   ----------------------------------------
 .byte   W96
@  #04 @115   ----------------------------------------
 .byte   W96
@  #04 @116   ----------------------------------------
 .byte   W96
@  #04 @117   ----------------------------------------
 .byte   PATT
  .word Label_54A016
@  #04 @118   ----------------------------------------
 .byte   PATT
  .word Label_54A020
@  #04 @119   ----------------------------------------
 .byte   W96
@  #04 @120   ----------------------------------------
 .byte   W96
@  #04 @121   ----------------------------------------
 .byte   W96
@  #04 @122   ----------------------------------------
 .byte   GOTO
  .word Label_549F3D
 .byte   FINE

@**************** Track 5 (Midi-Chn.4) ****************@

song06_005:
@  #05 @000   ----------------------------------------
 .byte   KEYSH , song06_key+0
 .byte   VOICE , 121
 .byte   VOL , 62*song06_mvl/mxv
 .byte   PAN , c_v-7
 .byte   VOL , 62*song06_mvl/mxv
 .byte   PAN , c_v-7
 .byte   W12
Label_01013325:
 .byte   N01 ,Ds2 ,v036
 .byte   N11 ,An3 ,v028
 .byte   W01
 .byte   N01 ,Cs2 ,v016
 .byte   N01 ,Ds2 ,v036
 .byte   N01 ,Gn2 ,v028
 .byte   W11
 .byte   N11 ,An3 ,v020
 .byte   W12
 .byte   An3 ,v028
 .byte   W12
 .byte   An3 ,v016
 .byte   W12
 .byte   N11
 .byte   W12
 .byte   An3 ,v012
 .byte   W12
 .byte   N11
 .byte   W12
@  #05 @001   ----------------------------------------
 .byte   An3 ,v008
 .byte   W12
 .byte   PEND 
 .byte   W96
@  #05 @002   ----------------------------------------
Label_0101334C:
 .byte   N11 ,An3 ,v028
 .byte   W12
 .byte   An3 ,v020
 .byte   W12
 .byte   An3 ,v028
 .byte   W12
 .byte   An3 ,v016
 .byte   W12
 .byte   N11
 .byte   W12
 .byte   An3 ,v012
 .byte   W12
 .byte   N11
 .byte   W12
 .byte   An3 ,v008
 .byte   W12
 .byte   PEND 
@  #05 @003   ----------------------------------------
 .byte   W96
@  #05 @004   ----------------------------------------
 .byte   PATT
  .word Label_0101334C
@  #05 @005   ----------------------------------------
 .byte   W96
@  #05 @006   ----------------------------------------
 .byte   PATT
  .word Label_0101334C
@  #05 @007   ----------------------------------------
 .byte   W96
@  #05 @008   ----------------------------------------
 .byte   PATT
  .word Label_0101334C
@  #05 @009   ----------------------------------------
 .byte   W96
@  #05 @010   ----------------------------------------
 .byte   PATT
  .word Label_0101334C
@  #05 @011   ----------------------------------------
Label_0101337C:
 .byte   W84
 .byte   W03
 .byte   N02 ,As1 ,v016
 .byte   W03
 .byte   As1 ,v024
 .byte   W03
 .byte   As1 ,v028
 .byte   W03
 .byte   PEND 
@  #05 @012   ----------------------------------------
 .byte   PATT
  .word Label_01013325
@  #05 @013   ----------------------------------------
 .byte   W96
@  #05 @014   ----------------------------------------
 .byte   PATT
  .word Label_0101334C
@  #05 @015   ----------------------------------------
 .byte   PATT
  .word Label_0101337C
@  #05 @016   ----------------------------------------
Label_01013399:
 .byte   N01 ,Ds2 ,v036
 .byte   N11 ,An3 ,v028
 .byte   W01
 .byte   N01 ,Cs2 ,v016
 .byte   N01 ,Ds2 ,v036
 .byte   W11
 .byte   N11 ,An3 ,v020
 .byte   W12
 .byte   An3 ,v028
 .byte   W12
 .byte   An3 ,v016
 .byte   W12
 .byte   N11
 .byte   W12
 .byte   An3 ,v012
 .byte   W12
 .byte   N11
 .byte   W12
 .byte   An3 ,v008
 .byte   W12
 .byte   PEND 
@  #05 @017   ----------------------------------------
 .byte   W96
@  #05 @018   ----------------------------------------
 .byte   PATT
  .word Label_0101334C
@  #05 @019   ----------------------------------------
Label_010133C2:
 .byte   W84
 .byte   W03
 .byte   N02 ,Cs2 ,v016
 .byte   W03
 .byte   N02
 .byte   W03
 .byte   Cs2 ,v024
 .byte   W03
 .byte   PEND 
@  #05 @020   ----------------------------------------
Label_010133CE:
 .byte   N02 ,Cs2 ,v036
 .byte   W02
 .byte   N02
 .byte   W02
 .byte   Cs2 ,v028
 .byte   W03
 .byte   Cs2 ,v024
 .byte   W02
 .byte   Cs2 ,v016
 .byte   W03
 .byte   N02
 .byte   W02
 .byte   N02
 .byte   W02
 .byte   N02
 .byte   W03
 .byte   N02
 .byte   W02
 .byte   N02
 .byte   W72
 .byte   W03
 .byte   PEND 
@  #05 @021   ----------------------------------------
Label_010133E9:
 .byte   N11 ,An3 ,v036
 .byte   W12
 .byte   An3 ,v020
 .byte   W12
 .byte   An3 ,v028
 .byte   W12
 .byte   An3 ,v016
 .byte   W12
 .byte   N11
 .byte   W12
 .byte   An3 ,v012
 .byte   W12
 .byte   N11
 .byte   W12
 .byte   An3 ,v008
 .byte   W12
 .byte   PEND 
@  #05 @022   ----------------------------------------
Label_01013401:
 .byte   N23 ,An3 ,v016
 .byte   W24
 .byte   N23
 .byte   W24
 .byte   N23
 .byte   W48
 .byte   PEND 
@  #05 @023   ----------------------------------------
Label_0101340A:
 .byte   N11 ,An3 ,v036
 .byte   W12
 .byte   An3 ,v020
 .byte   W12
 .byte   An3 ,v028
 .byte   W12
 .byte   An3 ,v016
 .byte   W12
 .byte   N11
 .byte   W12
 .byte   An3 ,v012
 .byte   W12
 .byte   N11
 .byte   W12
 .byte   An3 ,v008
 .byte   W03
 .byte   N02 ,As1 ,v016
 .byte   W03
 .byte   As1 ,v024
 .byte   W03
 .byte   As1 ,v028
 .byte   W03
 .byte   PEND 
@  #05 @024   ----------------------------------------
Label_0101342C:
 .byte   N01 ,Ds2 ,v036
 .byte   W01
 .byte   Cs2 ,v016
 .byte   N01 ,Ds2 ,v036
 .byte   N01 ,Gn2 ,v028
 .byte   W92
 .byte   W03
 .byte   PEND 
@  #05 @025   ----------------------------------------
 .byte   PATT
  .word Label_010133E9
@  #05 @026   ----------------------------------------
 .byte   W96
@  #05 @027   ----------------------------------------
 .byte   PATT
  .word Label_010133E9
@  #05 @028   ----------------------------------------
 .byte   W96
@  #05 @029   ----------------------------------------
 .byte   W96
@  #05 @030   ----------------------------------------
 .byte   PATT
  .word Label_010133E9
@  #05 @031   ----------------------------------------
 .byte   PATT
  .word Label_0101334C
@  #05 @032   ----------------------------------------
 .byte   PATT
  .word Label_010133E9
@  #05 @033   ----------------------------------------
 .byte   W96
@  #05 @034   ----------------------------------------
 .byte   PATT
  .word Label_010133E9
@  #05 @035   ----------------------------------------
Label_0101345D:
 .byte   N11 ,An3 ,v028
 .byte   W12
 .byte   An3 ,v020
 .byte   W12
 .byte   An3 ,v028
 .byte   W12
 .byte   An3 ,v016
 .byte   W12
 .byte   N11
 .byte   W12
 .byte   An3 ,v012
 .byte   W12
 .byte   N11
 .byte   W12
 .byte   An3 ,v008
 .byte   W03
 .byte   N02 ,As1 ,v016
 .byte   W03
 .byte   As1 ,v024
 .byte   W03
 .byte   As1 ,v028
 .byte   W03
 .byte   PEND 
@  #05 @036   ----------------------------------------
Label_0101347F:
 .byte   N01 ,Ds2 ,v036
 .byte   N11 ,An3
 .byte   W01
 .byte   N01 ,Cs2 ,v016
 .byte   N01 ,Ds2 ,v036
 .byte   N01 ,Gn2 ,v028
 .byte   W11
 .byte   N11 ,An3 ,v020
 .byte   W12
 .byte   An3 ,v028
 .byte   W12
 .byte   An3 ,v016
 .byte   W12
 .byte   N11
 .byte   W12
 .byte   An3 ,v012
 .byte   W12
 .byte   N11
 .byte   W12
 .byte   An3 ,v008
 .byte   W12
 .byte   PEND 
@  #05 @037   ----------------------------------------
 .byte   W96
@  #05 @038   ----------------------------------------
 .byte   PATT
  .word Label_010133E9
@  #05 @039   ----------------------------------------
 .byte   W96
@  #05 @040   ----------------------------------------
 .byte   PATT
  .word Label_010133E9
@  #05 @041   ----------------------------------------
 .byte   W96
@  #05 @042   ----------------------------------------
 .byte   PATT
  .word Label_010133E9
@  #05 @043   ----------------------------------------
 .byte   PATT
  .word Label_010133C2
@  #05 @044   ----------------------------------------
 .byte   PATT
  .word Label_010133CE
@  #05 @045   ----------------------------------------
 .byte   PATT
  .word Label_010133E9
@  #05 @046   ----------------------------------------
 .byte   W96
@  #05 @047   ----------------------------------------
 .byte   PATT
  .word Label_0101340A
@  #05 @048   ----------------------------------------
 .byte   PATT
  .word Label_0101347F
@  #05 @049   ----------------------------------------
 .byte   PATT
  .word Label_010133E9
@  #05 @050   ----------------------------------------
 .byte   PATT
  .word Label_010133E9
@  #05 @051   ----------------------------------------
Label_010134DA:
 .byte   N11 ,An3 ,v036
 .byte   W12
 .byte   An3 ,v020
 .byte   W12
 .byte   An3 ,v028
 .byte   W12
 .byte   An3 ,v016
 .byte   W12
 .byte   N11
 .byte   W12
 .byte   An3 ,v012
 .byte   W12
 .byte   N11
 .byte   W12
 .byte   An3 ,v008
 .byte   W03
 .byte   N02 ,Cs2 ,v016
 .byte   W03
 .byte   N02
 .byte   W03
 .byte   Cs2 ,v024
 .byte   W03
 .byte   PEND 
@  #05 @052   ----------------------------------------
 .byte   PATT
  .word Label_010133CE
@  #05 @053   ----------------------------------------
 .byte   PATT
  .word Label_010133E9
@  #05 @054   ----------------------------------------
 .byte   PATT
  .word Label_01013401
@  #05 @055   ----------------------------------------
 .byte   PATT
  .word Label_010133E9
@  #05 @056   ----------------------------------------
 .byte   W96
@  #05 @057   ----------------------------------------
 .byte   PATT
  .word Label_010133E9
@  #05 @058   ----------------------------------------
 .byte   W96
@  #05 @059   ----------------------------------------
 .byte   PATT
  .word Label_010133E9
@  #05 @060   ----------------------------------------
 .byte   W96
@  #05 @061   ----------------------------------------
 .byte   PATT
  .word Label_01013325
@  #05 @062   ----------------------------------------
 .byte   W96
@  #05 @063   ----------------------------------------
 .byte   PATT
  .word Label_0101334C
@  #05 @064   ----------------------------------------
 .byte   W96
@  #05 @065   ----------------------------------------
 .byte   PATT
  .word Label_0101334C
@  #05 @066   ----------------------------------------
 .byte   W96
@  #05 @067   ----------------------------------------
 .byte   PATT
  .word Label_0101334C
@  #05 @068   ----------------------------------------
 .byte   W96
@  #05 @069   ----------------------------------------
 .byte   PATT
  .word Label_0101334C
@  #05 @070   ----------------------------------------
 .byte   W96
@  #05 @071   ----------------------------------------
 .byte   PATT
  .word Label_0101334C
@  #05 @072   ----------------------------------------
 .byte   PATT
  .word Label_0101337C
@  #05 @073   ----------------------------------------
 .byte   PATT
  .word Label_01013325
@  #05 @074   ----------------------------------------
 .byte   W96
@  #05 @075   ----------------------------------------
 .byte   PATT
  .word Label_0101334C
@  #05 @076   ----------------------------------------
 .byte   PATT
  .word Label_0101337C
@  #05 @077   ----------------------------------------
 .byte   PATT
  .word Label_01013399
@  #05 @078   ----------------------------------------
 .byte   W96
@  #05 @079   ----------------------------------------
 .byte   PATT
  .word Label_0101334C
@  #05 @080   ----------------------------------------
 .byte   PATT
  .word Label_010133C2
@  #05 @081   ----------------------------------------
 .byte   PATT
  .word Label_010133CE
@  #05 @082   ----------------------------------------
 .byte   PATT
  .word Label_010133E9
@  #05 @083   ----------------------------------------
 .byte   PATT
  .word Label_01013401
@  #05 @084   ----------------------------------------
 .byte   PATT
  .word Label_0101340A
@  #05 @085   ----------------------------------------
 .byte   PATT
  .word Label_0101342C
@  #05 @086   ----------------------------------------
 .byte   PATT
  .word Label_010133E9
@  #05 @087   ----------------------------------------
 .byte   W96
@  #05 @088   ----------------------------------------
 .byte   PATT
  .word Label_010133E9
@  #05 @089   ----------------------------------------
 .byte   W96
@  #05 @090   ----------------------------------------
 .byte   W96
@  #05 @091   ----------------------------------------
 .byte   PATT
  .word Label_010133E9
@  #05 @092   ----------------------------------------
 .byte   PATT
  .word Label_0101334C
@  #05 @093   ----------------------------------------
 .byte   PATT
  .word Label_010133E9
@  #05 @094   ----------------------------------------
 .byte   W96
@  #05 @095   ----------------------------------------
 .byte   PATT
  .word Label_010133E9
@  #05 @096   ----------------------------------------
 .byte   PATT
  .word Label_0101345D
@  #05 @097   ----------------------------------------
 .byte   PATT
  .word Label_0101347F
@  #05 @098   ----------------------------------------
 .byte   W96
@  #05 @099   ----------------------------------------
 .byte   PATT
  .word Label_010133E9
@  #05 @100   ----------------------------------------
 .byte   W96
@  #05 @101   ----------------------------------------
 .byte   PATT
  .word Label_010133E9
@  #05 @102   ----------------------------------------
 .byte   W96
@  #05 @103   ----------------------------------------
 .byte   PATT
  .word Label_010133E9
@  #05 @104   ----------------------------------------
 .byte   PATT
  .word Label_010133C2
@  #05 @105   ----------------------------------------
 .byte   PATT
  .word Label_010133CE
@  #05 @106   ----------------------------------------
 .byte   PATT
  .word Label_010133E9
@  #05 @107   ----------------------------------------
 .byte   W96
@  #05 @108   ----------------------------------------
 .byte   PATT
  .word Label_0101340A
@  #05 @109   ----------------------------------------
 .byte   PATT
  .word Label_0101347F
@  #05 @110   ----------------------------------------
 .byte   PATT
  .word Label_010133E9
@  #05 @111   ----------------------------------------
 .byte   PATT
  .word Label_010133E9
@  #05 @112   ----------------------------------------
 .byte   PATT
  .word Label_010134DA
@  #05 @113   ----------------------------------------
 .byte   PATT
  .word Label_010133CE
@  #05 @114   ----------------------------------------
 .byte   PATT
  .word Label_010133E9
@  #05 @115   ----------------------------------------
 .byte   PATT
  .word Label_01013401
@  #05 @116   ----------------------------------------
 .byte   PATT
  .word Label_010133E9
@  #05 @117   ----------------------------------------
 .byte   W96
@  #05 @118   ----------------------------------------
 .byte   PATT
  .word Label_010133E9
@  #05 @119   ----------------------------------------
 .byte   W96
@  #05 @120   ----------------------------------------
 .byte   PATT
  .word Label_010133E9
@  #05 @121   ----------------------------------------
 .byte   W96
@  #05 @122   ----------------------------------------
 .byte   GOTO
  .word Label_01013325
 .byte   FINE

@**************** Track 6 (Midi-Chn.5) ****************@

song06_006:
@  #06 @000   ----------------------------------------
 .byte   KEYSH , song06_key+0
 .byte   VOICE , 49
 .byte   VOL , 62*song06_mvl/mxv
 .byte   PAN , c_v+5
 .byte   VOL , 62*song06_mvl/mxv
 .byte   PAN , c_v+5
 .byte   VOL , 62*song06_mvl/mxv
 .byte   PAN , c_v+5
 .byte   W12
Label_01014D15:
 .byte   W96
@  #06 @001   ----------------------------------------
 .byte   W96
@  #06 @002   ----------------------------------------
 .byte   W96
@  #06 @003   ----------------------------------------
 .byte   W96
@  #06 @004   ----------------------------------------
 .byte   W96
@  #06 @005   ----------------------------------------
 .byte   W96
@  #06 @006   ----------------------------------------
 .byte   W96
@  #06 @007   ----------------------------------------
Label_01014D1C:
 .byte   W48
 .byte   N02 ,Fn4 ,v028
 .byte   W02
 .byte   N02
 .byte   W03
 .byte   N02
 .byte   W03
 .byte   N02
 .byte   W03
 .byte   N02
 .byte   W03
 .byte   N01
 .byte   W01
 .byte   N02
 .byte   W02
 .byte   N01
 .byte   W01
 .byte   N02
 .byte   W02
 .byte   N01
 .byte   W01
 .byte   N02
 .byte   W02
 .byte   N01
 .byte   W01
 .byte   N02
 .byte   W02
 .byte   N01
 .byte   W01
 .byte   N02 ,Fn4 ,v032
 .byte   W02
 .byte   N01 ,Fn4 ,v028
 .byte   W01
 .byte   N02 ,Fn4 ,v032
 .byte   W02
 .byte   N01 ,Fn4 ,v028
 .byte   W01
 .byte   N02 ,Fn4 ,v032
 .byte   W02
 .byte   N01 ,Fn4 ,v028
 .byte   W01
 .byte   N02 ,Fn4 ,v032
 .byte   W02
 .byte   N01 ,Fn4 ,v028
 .byte   W01
 .byte   N02 ,Fn4 ,v036
 .byte   W02
 .byte   N01 ,Fn4 ,v028
 .byte   W01
 .byte   N02 ,Fn4 ,v036
 .byte   W02
 .byte   N01 ,Fn4 ,v028
 .byte   W01
 .byte   N02 ,Fn4 ,v036
 .byte   W03
 .byte   PEND 
@  #06 @008   ----------------------------------------
Label_01014D70:
 .byte   N01 ,Fn4 ,v036
 .byte   W01
 .byte   N01
 .byte   W02
 .byte   N01
 .byte   W01
 .byte   N01
 .byte   W02
 .byte   Fn4 ,v040
 .byte   W01
 .byte   Fn4 ,v036
 .byte   W02
 .byte   Fn4 ,v040
 .byte   W01
 .byte   Fn4 ,v036
 .byte   W02
 .byte   N02 ,Fn4 ,v052
 .byte   W03
 .byte   Fn4 ,v040
 .byte   W03
 .byte   N02
 .byte   W03
 .byte   N02
 .byte   W03
 .byte   N02
 .byte   W03
 .byte   N02
 .byte   W03
 .byte   N02
 .byte   W03
 .byte   N02
 .byte   W03
 .byte   N01 ,Dn4 ,v052
 .byte   W01
 .byte   N01
 .byte   W02
 .byte   N01
 .byte   W01
 .byte   N01
 .byte   W02
 .byte   N01
 .byte   W01
 .byte   N01
 .byte   W02
 .byte   N01
 .byte   W01
 .byte   N04
 .byte   W05
 .byte   N02
 .byte   W03
 .byte   N02
 .byte   W03
 .byte   N02
 .byte   W03
 .byte   N02
 .byte   W03
 .byte   N02
 .byte   W03
 .byte   N02
 .byte   W03
 .byte   N02
 .byte   W03
 .byte   N02
 .byte   W03
 .byte   N02
 .byte   W03
 .byte   N02
 .byte   W03
 .byte   N02
 .byte   W03
 .byte   N02
 .byte   W03
 .byte   N02
 .byte   W03
 .byte   N02
 .byte   W03
 .byte   N02
 .byte   W03
 .byte   PEND 
@  #06 @009   ----------------------------------------
Label_01014DCA:
 .byte   N02 ,Dn4 ,v052
 .byte   W03
 .byte   N02
 .byte   W03
 .byte   N02
 .byte   W03
 .byte   N02
 .byte   W03
 .byte   N02
 .byte   W02
 .byte   N01 ,Dn4 ,v020
 .byte   W01
 .byte   N02 ,Dn4 ,v052
 .byte   W02
 .byte   N01 ,Dn4 ,v020
 .byte   W01
 .byte   N02 ,Dn4 ,v052
 .byte   W02
 .byte   N01 ,Dn4 ,v020
 .byte   W01
 .byte   N02 ,Dn4 ,v052
 .byte   W02
 .byte   N01 ,Dn4 ,v020
 .byte   W01
 .byte   N02 ,Dn4 ,v052
 .byte   W02
 .byte   N01 ,Dn4 ,v020
 .byte   W01
 .byte   N02 ,Dn4 ,v052
 .byte   W02
 .byte   N01 ,Dn4 ,v020
 .byte   W01
 .byte   N02 ,Dn4 ,v052
 .byte   W02
 .byte   N01 ,Dn4 ,v020
 .byte   W01
 .byte   N02 ,Dn4 ,v052
 .byte   W03
 .byte   Cn4
 .byte   W03
 .byte   N02
 .byte   W03
 .byte   N02
 .byte   W02
 .byte   N01 ,Cn4 ,v020
 .byte   W01
 .byte   N02 ,Cn4 ,v052
 .byte   W02
 .byte   N01 ,Cn4 ,v020
 .byte   W01
 .byte   N02 ,Cn4 ,v052
 .byte   W02
 .byte   N01 ,Cn4 ,v020
 .byte   W01
 .byte   N02 ,Cn4 ,v052
 .byte   W02
 .byte   N01 ,Cn4 ,v020
 .byte   W01
 .byte   N02 ,Cn4 ,v052
 .byte   W02
 .byte   N01 ,Cn4 ,v020
 .byte   W01
 .byte   N02 ,Cn4 ,v052
 .byte   W02
 .byte   N01 ,Cn4 ,v020
 .byte   W01
 .byte   N02 ,Cn4 ,v052
 .byte   W02
 .byte   N01 ,Cn4 ,v020
 .byte   W01
 .byte   N02 ,Cn4 ,v052
 .byte   W02
 .byte   N01 ,Cn4 ,v020
 .byte   W01
 .byte   N02 ,Cn4 ,v052
 .byte   W02
 .byte   N01 ,Cn4 ,v020
 .byte   W01
 .byte   N02 ,Cn4 ,v052
 .byte   W02
 .byte   N01 ,Cn4 ,v020
 .byte   W01
 .byte   N02 ,Cn4 ,v052
 .byte   W02
 .byte   N01 ,Cn4 ,v020
 .byte   W01
 .byte   N02 ,Cn4 ,v052
 .byte   W02
 .byte   N01 ,Cn4 ,v020
 .byte   W01
 .byte   N02 ,Cn4 ,v052
 .byte   W02
 .byte   N01 ,Cn4 ,v020
 .byte   W01
 .byte   N02 ,Cn4 ,v052
 .byte   W03
 .byte   N02
 .byte   W03
 .byte   N02
 .byte   W03
 .byte   N02
 .byte   W03
 .byte   N02
 .byte   W03
 .byte   PEND 
@  #06 @010   ----------------------------------------
Label_01014E85:
 .byte   N02 ,Fn4 ,v040
 .byte   W03
 .byte   N02
 .byte   W03
 .byte   N02
 .byte   W03
 .byte   N02
 .byte   W03
 .byte   Fn4 ,v052
 .byte   W02
 .byte   N01 ,Fn4 ,v040
 .byte   W01
 .byte   N02
 .byte   W02
 .byte   N01
 .byte   W01
 .byte   N02
 .byte   W02
 .byte   N01
 .byte   W01
 .byte   N02
 .byte   W02
 .byte   N01
 .byte   W01
 .byte   N02
 .byte   W02
 .byte   N01
 .byte   W01
 .byte   N02
 .byte   W02
 .byte   N01
 .byte   W01
 .byte   N02
 .byte   W02
 .byte   N01
 .byte   W01
 .byte   N02
 .byte   W03
 .byte   N01 ,Dn4 ,v052
 .byte   W01
 .byte   N01
 .byte   W02
 .byte   N01
 .byte   W01
 .byte   N01
 .byte   W02
 .byte   N01
 .byte   W01
 .byte   N01
 .byte   W02
 .byte   N01
 .byte   W01
 .byte   N04
 .byte   W05
 .byte   N02
 .byte   W03
 .byte   N02
 .byte   W03
 .byte   N02
 .byte   W03
 .byte   N02
 .byte   W03
 .byte   Dn4 ,v056
 .byte   W03
 .byte   N02
 .byte   W03
 .byte   N02
 .byte   W03
 .byte   Dn4 ,v060
 .byte   W03
 .byte   N02
 .byte   W03
 .byte   N02
 .byte   W03
 .byte   Dn4 ,v064
 .byte   W03
 .byte   N02
 .byte   W03
 .byte   N02
 .byte   W03
 .byte   Dn4 ,v068
 .byte   W03
 .byte   N02
 .byte   W03
 .byte   PEND 
@  #06 @011   ----------------------------------------
Label_01014EE5:
 .byte   N02 ,Ds4 ,v068
 .byte   W03
 .byte   Ds4 ,v072
 .byte   W03
 .byte   N02
 .byte   W03
 .byte   N02
 .byte   W03
 .byte   Ds4 ,v076
 .byte   W02
 .byte   N01 ,Ds4 ,v028
 .byte   W01
 .byte   N02 ,Ds4 ,v076
 .byte   W02
 .byte   N01 ,Ds4 ,v028
 .byte   W01
 .byte   N02 ,Ds4 ,v076
 .byte   W02
 .byte   N01 ,Ds4 ,v028
 .byte   W01
 .byte   N02 ,Ds4 ,v080
 .byte   W02
 .byte   N01 ,Ds4 ,v028
 .byte   W01
 .byte   N02 ,Ds4 ,v080
 .byte   W02
 .byte   N01 ,Ds4 ,v028
 .byte   W01
 .byte   N02 ,Ds4 ,v080
 .byte   W02
 .byte   N01 ,Ds4 ,v028
 .byte   W01
 .byte   N02 ,Ds4 ,v080
 .byte   W02
 .byte   N01 ,Ds4 ,v028
 .byte   W01
 .byte   N02 ,Ds4 ,v080
 .byte   W03
 .byte   Fn4
 .byte   W03
 .byte   N02
 .byte   W03
 .byte   N02
 .byte   W02
 .byte   N01 ,Fn4 ,v032
 .byte   W01
 .byte   N02 ,Fn4 ,v080
 .byte   W02
 .byte   N01 ,Fn4 ,v032
 .byte   W01
 .byte   N02 ,Fn4 ,v080
 .byte   W02
 .byte   N01 ,Fn4 ,v032
 .byte   W01
 .byte   N02 ,Fn4 ,v080
 .byte   W02
 .byte   N01 ,Fn4 ,v032
 .byte   W01
 .byte   N02 ,Fn4 ,v080
 .byte   W02
 .byte   N01 ,Fn4 ,v032
 .byte   W01
 .byte   N02 ,Fn4 ,v080
 .byte   W02
 .byte   N01 ,Fn4 ,v032
 .byte   W01
 .byte   N02 ,Fn4 ,v080
 .byte   W02
 .byte   N01 ,Fn4 ,v032
 .byte   W01
 .byte   N02 ,Fn4 ,v080
 .byte   W02
 .byte   N01 ,Fn4 ,v032
 .byte   W01
 .byte   N02 ,Fn4 ,v076
 .byte   W02
 .byte   N01 ,Fn4 ,v032
 .byte   W01
 .byte   N02 ,Fn4 ,v068
 .byte   W02
 .byte   N01 ,Fn4 ,v032
 .byte   W01
 .byte   Ds4 ,v024
 .byte   W01
 .byte   N01
 .byte   W01
 .byte   N01
 .byte   N02 ,Fn4 ,v032
 .byte   W01
 .byte   Ds4 ,v052
 .byte   W02
 .byte   Fn4 ,v032
 .byte   W01
 .byte   Ds4 ,v044
 .byte   W02
 .byte   Fn4 ,v032
 .byte   W01
 .byte   Ds4 ,v036
 .byte   W03
 .byte   N11 ,An3 ,v064
 .byte   W12
 .byte   PEND 
@  #06 @012   ----------------------------------------
Label_01014F9B:
 .byte   N32 ,Ds1 ,v064
 .byte   N32 ,Gn3
 .byte   N17 ,As3
 .byte   W18
 .byte   Fn4
 .byte   W18
 .byte   N44 ,Gn1
 .byte   N11 ,Fn3 ,v080
 .byte   N17 ,Cn4 ,v064
 .byte   W12
 .byte   N02 ,Fn3 ,v080
 .byte   W03
 .byte   N02
 .byte   W03
 .byte   N02
 .byte   N17 ,Dn4 ,v064
 .byte   W03
 .byte   N02 ,Fn3 ,v080
 .byte   W03
 .byte   N02
 .byte   W03
 .byte   Fn3 ,v076
 .byte   W03
 .byte   Fn3 ,v072
 .byte   W03
 .byte   Fn3 ,v068
 .byte   W03
 .byte   Fn3 ,v064
 .byte   N02 ,Dn4
 .byte   W03
 .byte   Fn3 ,v060
 .byte   N02 ,Dn4 ,v064
 .byte   W03
 .byte   Fn3 ,v056
 .byte   N02 ,Dn4 ,v064
 .byte   W03
 .byte   Fn3 ,v052
 .byte   N02 ,Dn4 ,v064
 .byte   W03
 .byte   Fn3 ,v048
 .byte   N11 ,Gn3 ,v064
 .byte   W03
 .byte   N02 ,Fn3 ,v044
 .byte   W03
 .byte   Fn3 ,v040
 .byte   W03
 .byte   Fn3 ,v036
 .byte   W03
 .byte   PEND 
@  #06 @013   ----------------------------------------
Label_01014FF0:
 .byte   N32 ,Ds1 ,v064
 .byte   N32 ,Gn3
 .byte   N17 ,As3
 .byte   W18
 .byte   Fn4
 .byte   W18
 .byte   N44 ,Gn1
 .byte   N11 ,Fn3 ,v080
 .byte   N17 ,Cn4 ,v064
 .byte   W12
 .byte   N02 ,Fn3 ,v080
 .byte   W03
 .byte   N02
 .byte   W03
 .byte   N02
 .byte   N17 ,As3 ,v064
 .byte   W03
 .byte   N02 ,Fn3 ,v080
 .byte   W03
 .byte   N02
 .byte   W03
 .byte   Fn3 ,v076
 .byte   W03
 .byte   Fn3 ,v072
 .byte   W03
 .byte   Fn3 ,v068
 .byte   W03
 .byte   Fn3 ,v064
 .byte   N02 ,As3
 .byte   W03
 .byte   Fn3 ,v060
 .byte   N02 ,As3 ,v064
 .byte   W03
 .byte   Fn3 ,v056
 .byte   N02 ,As3 ,v064
 .byte   W03
 .byte   Fn3 ,v052
 .byte   N02 ,As3 ,v064
 .byte   W03
 .byte   Fn3 ,v048
 .byte   N11 ,Gn3 ,v064
 .byte   W03
 .byte   N02 ,Fn3 ,v044
 .byte   W03
 .byte   Fn3 ,v040
 .byte   W03
 .byte   Fn3 ,v036
 .byte   W03
 .byte   PEND 
@  #06 @014   ----------------------------------------
Label_01015045:
 .byte   N32 ,Ds1 ,v064
 .byte   N32 ,Gn3
 .byte   N17 ,As3
 .byte   W18
 .byte   Fn4
 .byte   W18
 .byte   N44 ,Gn1
 .byte   N11 ,Fn3 ,v080
 .byte   N17 ,Cn4 ,v064
 .byte   W12
 .byte   N02 ,Fn3 ,v080
 .byte   W03
 .byte   N02
 .byte   W03
 .byte   N02
 .byte   N17 ,Dn4 ,v064
 .byte   W03
 .byte   N02 ,Fn3 ,v080
 .byte   W03
 .byte   N02
 .byte   W03
 .byte   Fn3 ,v076
 .byte   W03
 .byte   Fn3 ,v072
 .byte   W03
 .byte   Fn3 ,v068
 .byte   W03
 .byte   Fn3 ,v064
 .byte   N02 ,Dn4
 .byte   W03
 .byte   Fn3 ,v060
 .byte   N02 ,Dn4 ,v064
 .byte   W03
 .byte   Fn3 ,v056
 .byte   N02 ,Dn4 ,v064
 .byte   W03
 .byte   Fn3 ,v052
 .byte   N02 ,Dn4 ,v064
 .byte   W03
 .byte   Fn3 ,v048
 .byte   N11 ,As3 ,v064
 .byte   W03
 .byte   N02 ,Fn3 ,v044
 .byte   W03
 .byte   Fn3 ,v040
 .byte   W03
 .byte   Fn3 ,v036
 .byte   W03
 .byte   PEND 
@  #06 @015   ----------------------------------------
Label_0101509A:
 .byte   N32 ,Cn1 ,v064
 .byte   N32 ,Cn2
 .byte   N32 ,Gn3
 .byte   N17 ,Fn4
 .byte   W18
 .byte   Ds4
 .byte   W18
 .byte   N44 ,Dn1
 .byte   N44 ,Dn2
 .byte   N32 ,Fs3 ,v080
 .byte   N17 ,Dn4 ,v064
 .byte   W18
 .byte   Cn4
 .byte   W18
 .byte   N02 ,Fs3 ,v096
 .byte   N02 ,Cn4 ,v064
 .byte   W03
 .byte   Fs3 ,v088
 .byte   N02 ,Cn4 ,v064
 .byte   W03
 .byte   Fs3 ,v080
 .byte   N02 ,Cn4 ,v064
 .byte   W03
 .byte   Fs3 ,v072
 .byte   N02 ,Cn4 ,v064
 .byte   W03
 .byte   Fs3 ,v060
 .byte   N02 ,Cn4 ,v064
 .byte   W03
 .byte   Fs3 ,v052
 .byte   N02 ,Cn4 ,v064
 .byte   W03
 .byte   Fs3 ,v044
 .byte   N02 ,Cn4 ,v064
 .byte   W03
 .byte   Fs3 ,v036
 .byte   N02 ,Cn4 ,v064
 .byte   W03
 .byte   PEND 
@  #06 @016   ----------------------------------------
 .byte   PATT
  .word Label_01014F9B
@  #06 @017   ----------------------------------------
 .byte   PATT
  .word Label_01014FF0
@  #06 @018   ----------------------------------------
Label_010150EF:
 .byte   N32 ,Ds1 ,v064
 .byte   N32 ,Gn3
 .byte   N17 ,As3
 .byte   W18
 .byte   Fn4
 .byte   W18
 .byte   N44 ,Gn1
 .byte   N11 ,Fn3 ,v080
 .byte   N17 ,Cn4 ,v064
 .byte   W12
 .byte   N02 ,Fn3 ,v080
 .byte   W03
 .byte   N02
 .byte   W03
 .byte   N02
 .byte   N17 ,Dn4 ,v064
 .byte   W03
 .byte   N02 ,Fn3 ,v080
 .byte   W03
 .byte   N02
 .byte   W03
 .byte   Fn3 ,v076
 .byte   W03
 .byte   Fn3 ,v072
 .byte   W03
 .byte   Fn3 ,v068
 .byte   W03
 .byte   Fn3 ,v064
 .byte   N02 ,Dn4
 .byte   W03
 .byte   Fn3 ,v060
 .byte   N02 ,Dn4 ,v064
 .byte   W03
 .byte   Fn3 ,v056
 .byte   N02 ,Dn4 ,v064
 .byte   W03
 .byte   Fn3 ,v052
 .byte   N02 ,Dn4 ,v064
 .byte   W03
 .byte   Fn3 ,v048
 .byte   N11 ,Dn4 ,v064
 .byte   W03
 .byte   N02 ,Fn3 ,v044
 .byte   W03
 .byte   Fn3 ,v040
 .byte   W03
 .byte   Fn3 ,v036
 .byte   W03
 .byte   PEND 
@  #06 @019   ----------------------------------------
Label_01015144:
 .byte   N17 ,Cn2 ,v064
 .byte   N17 ,As4
 .byte   W18
 .byte   Dn2
 .byte   N17 ,As4
 .byte   W18
 .byte   N56 ,Gn1
 .byte   N17 ,An4
 .byte   W18
 .byte   N02 ,Gn4
 .byte   W03
 .byte   N02
 .byte   W03
 .byte   Gn4 ,v060
 .byte   W03
 .byte   Gn4 ,v056
 .byte   W03
 .byte   N01 ,Gn4 ,v052
 .byte   W01
 .byte   N01
 .byte   W01
 .byte   N01
 .byte   W01
 .byte   N02 ,Gn4 ,v044
 .byte   W03
 .byte   Gn4 ,v040
 .byte   W03
 .byte   Gn4 ,v036
 .byte   W21
 .byte   PEND 
@  #06 @020   ----------------------------------------
Label_01015171:
 .byte   N02 ,Gn4 ,v036
 .byte   W03
 .byte   N02
 .byte   W03
 .byte   N02
 .byte   W03
 .byte   N02
 .byte   W03
 .byte   N02
 .byte   W03
 .byte   Gn4 ,v040
 .byte   W03
 .byte   N02
 .byte   W03
 .byte   Gn4 ,v044
 .byte   W03
 .byte   N02
 .byte   W03
 .byte   Gn4 ,v048
 .byte   W03
 .byte   N02
 .byte   W03
 .byte   Gn4 ,v052
 .byte   W03
 .byte   N02
 .byte   W03
 .byte   Gn4 ,v056
 .byte   W03
 .byte   N02
 .byte   W03
 .byte   N02
 .byte   W03
 .byte   Gn4 ,v060
 .byte   W03
 .byte   N02
 .byte   W03
 .byte   Gn4 ,v064
 .byte   W03
 .byte   N02
 .byte   W03
 .byte   N02
 .byte   W03
 .byte   N02
 .byte   W03
 .byte   N02
 .byte   W03
 .byte   Gn4 ,v060
 .byte   W03
 .byte   Gn4 ,v056
 .byte   W03
 .byte   Gn4 ,v052
 .byte   W03
 .byte   Gn4 ,v048
 .byte   W03
 .byte   Gn4 ,v040
 .byte   W03
 .byte   Gn4 ,v036
 .byte   W03
 .byte   Gn4 ,v032
 .byte   W03
 .byte   Gn4 ,v028
 .byte   W03
 .byte   Gn4 ,v024
 .byte   W03
 .byte   PEND 
@  #06 @021   ----------------------------------------
Label_010151C4:
 .byte   N02 ,Fn4 ,v016
 .byte   W03
 .byte   N02
 .byte   W03
 .byte   N02
 .byte   W03
 .byte   Fn4 ,v020
 .byte   W03
 .byte   Fn4 ,v024
 .byte   W03
 .byte   N02
 .byte   W03
 .byte   Fn4 ,v028
 .byte   W03
 .byte   Fn4 ,v032
 .byte   W03
 .byte   N02
 .byte   W03
 .byte   Fn4 ,v036
 .byte   W03
 .byte   Fn4 ,v040
 .byte   W03
 .byte   Fn4 ,v044
 .byte   W03
 .byte   N02
 .byte   W03
 .byte   Fn4 ,v048
 .byte   W03
 .byte   Fn4 ,v052
 .byte   W03
 .byte   N02
 .byte   W03
 .byte   Fn4 ,v056
 .byte   W03
 .byte   Fn4 ,v060
 .byte   W03
 .byte   Dn4 ,v064
 .byte   W03
 .byte   N02
 .byte   W03
 .byte   N02
 .byte   W03
 .byte   N02
 .byte   W03
 .byte   N02
 .byte   W03
 .byte   Dn4 ,v060
 .byte   W03
 .byte   Dn4 ,v056
 .byte   W03
 .byte   Dn4 ,v052
 .byte   W03
 .byte   Dn4 ,v048
 .byte   W03
 .byte   Dn4 ,v040
 .byte   W03
 .byte   Dn4 ,v036
 .byte   W03
 .byte   Dn4 ,v032
 .byte   W03
 .byte   Dn4 ,v028
 .byte   W03
 .byte   Dn4 ,v024
 .byte   W03
 .byte   PEND 
@  #06 @022   ----------------------------------------
Label_0101521C:
 .byte   N02 ,Dn4 ,v016
 .byte   W03
 .byte   N02
 .byte   W03
 .byte   N02
 .byte   W03
 .byte   Dn4 ,v020
 .byte   W03
 .byte   Dn4 ,v024
 .byte   W03
 .byte   N02
 .byte   W03
 .byte   Dn4 ,v028
 .byte   W03
 .byte   Dn4 ,v032
 .byte   W03
 .byte   N02
 .byte   W03
 .byte   Dn4 ,v036
 .byte   W03
 .byte   Dn4 ,v040
 .byte   W03
 .byte   Dn4 ,v044
 .byte   W03
 .byte   N02
 .byte   W03
 .byte   Dn4 ,v048
 .byte   W03
 .byte   Dn4 ,v052
 .byte   W03
 .byte   N02
 .byte   W03
 .byte   Dn4 ,v056
 .byte   W03
 .byte   Dn4 ,v060
 .byte   W03
 .byte   Dn4 ,v064
 .byte   W03
 .byte   N02
 .byte   W03
 .byte   N02
 .byte   W03
 .byte   N02
 .byte   W03
 .byte   N02
 .byte   W03
 .byte   Dn4 ,v060
 .byte   W03
 .byte   Dn4 ,v056
 .byte   W03
 .byte   Dn4 ,v052
 .byte   W03
 .byte   Dn4 ,v048
 .byte   W03
 .byte   Dn4 ,v040
 .byte   W03
 .byte   Dn4 ,v036
 .byte   W03
 .byte   Dn4 ,v032
 .byte   W03
 .byte   Dn4 ,v028
 .byte   W03
 .byte   Dn4 ,v024
 .byte   W03
 .byte   PEND 
@  #06 @023   ----------------------------------------
Label_01015274:
 .byte   N02 ,Cn4 ,v016
 .byte   W03
 .byte   N02
 .byte   W03
 .byte   Cn4 ,v020
 .byte   W03
 .byte   N02
 .byte   W03
 .byte   Cn4 ,v024
 .byte   W03
 .byte   N02
 .byte   W03
 .byte   Cn4 ,v028
 .byte   W03
 .byte   N02
 .byte   W03
 .byte   Cn4 ,v032
 .byte   W03
 .byte   N02
 .byte   W03
 .byte   Cn4 ,v036
 .byte   W03
 .byte   N02
 .byte   W03
 .byte   Cn4 ,v040
 .byte   W03
 .byte   N02
 .byte   W03
 .byte   Cn4 ,v044
 .byte   W03
 .byte   N02
 .byte   W03
 .byte   Cn4 ,v048
 .byte   W03
 .byte   N02
 .byte   W03
 .byte   As3 ,v052
 .byte   W03
 .byte   N02
 .byte   W03
 .byte   N02
 .byte   W03
 .byte   As3 ,v048
 .byte   W03
 .byte   N02
 .byte   W03
 .byte   N02
 .byte   W03
 .byte   As3 ,v044
 .byte   W03
 .byte   N02
 .byte   W03
 .byte   N02
 .byte   W03
 .byte   As3 ,v040
 .byte   W03
 .byte   N02
 .byte   W03
 .byte   N02
 .byte   W03
 .byte   As3 ,v036
 .byte   W03
 .byte   N02
 .byte   W03
 .byte   PEND 
@  #06 @024   ----------------------------------------
Label_010152C4:
 .byte   N02 ,Dn4 ,v036
 .byte   W03
 .byte   N02
 .byte   W03
 .byte   N02
 .byte   W03
 .byte   N02
 .byte   W03
 .byte   N02
 .byte   W03
 .byte   Dn4 ,v040
 .byte   W03
 .byte   N02
 .byte   W03
 .byte   Dn4 ,v044
 .byte   W03
 .byte   N02
 .byte   W03
 .byte   Dn4 ,v048
 .byte   W03
 .byte   N02
 .byte   W03
 .byte   Dn4 ,v052
 .byte   W03
 .byte   N02
 .byte   W03
 .byte   Dn4 ,v056
 .byte   W03
 .byte   N02
 .byte   W03
 .byte   N02
 .byte   W03
 .byte   Dn4 ,v060
 .byte   W03
 .byte   N02
 .byte   W03
 .byte   Dn4 ,v064
 .byte   W03
 .byte   N02
 .byte   W03
 .byte   N02
 .byte   W03
 .byte   N02
 .byte   W03
 .byte   N02
 .byte   W03
 .byte   N02
 .byte   W03
 .byte   Dn4 ,v060
 .byte   W03
 .byte   Dn4 ,v056
 .byte   W03
 .byte   Dn4 ,v052
 .byte   W03
 .byte   N02
 .byte   W03
 .byte   Dn4 ,v048
 .byte   W03
 .byte   Dn4 ,v044
 .byte   W03
 .byte   Dn4 ,v040
 .byte   W03
 .byte   N02
 .byte   W03
 .byte   PEND 
@  #06 @025   ----------------------------------------
Label_01015314:
 .byte   N02 ,Cn4 ,v036
 .byte   W03
 .byte   N02
 .byte   W03
 .byte   N02
 .byte   W03
 .byte   N02
 .byte   W03
 .byte   N02
 .byte   W03
 .byte   Cn4 ,v040
 .byte   W03
 .byte   N02
 .byte   W03
 .byte   Cn4 ,v044
 .byte   W03
 .byte   N02
 .byte   W03
 .byte   Cn4 ,v048
 .byte   W03
 .byte   N02
 .byte   W03
 .byte   Cn4 ,v052
 .byte   W03
 .byte   N02
 .byte   W03
 .byte   Cn4 ,v056
 .byte   W03
 .byte   N02
 .byte   W03
 .byte   N02
 .byte   W03
 .byte   Cn4 ,v060
 .byte   W03
 .byte   N02
 .byte   W03
 .byte   As3 ,v064
 .byte   W03
 .byte   N02
 .byte   W03
 .byte   N02
 .byte   W03
 .byte   N02
 .byte   W03
 .byte   N02
 .byte   W03
 .byte   N02
 .byte   W03
 .byte   As3 ,v060
 .byte   W03
 .byte   As3 ,v056
 .byte   W03
 .byte   As3 ,v052
 .byte   W03
 .byte   N02
 .byte   W03
 .byte   As3 ,v048
 .byte   W03
 .byte   As3 ,v044
 .byte   W03
 .byte   As3 ,v040
 .byte   W03
 .byte   N02
 .byte   W03
 .byte   PEND 
@  #06 @026   ----------------------------------------
Label_01015364:
 .byte   N02 ,Cn2 ,v036
 .byte   N02 ,Dn4
 .byte   W03
 .byte   Cn2
 .byte   N02 ,Dn4
 .byte   W03
 .byte   Cn2
 .byte   N02 ,Dn4
 .byte   W03
 .byte   Cn2
 .byte   N02 ,Dn4
 .byte   W03
 .byte   Cn2
 .byte   N02 ,Dn4
 .byte   W03
 .byte   Cn2 ,v040
 .byte   N02 ,Dn4
 .byte   W03
 .byte   Cn2
 .byte   N02 ,Dn4
 .byte   W03
 .byte   Cn2 ,v044
 .byte   N02 ,Dn4
 .byte   W03
 .byte   Cn2
 .byte   N02 ,Dn4
 .byte   W03
 .byte   Cn2
 .byte   N02 ,Dn4 ,v048
 .byte   W03
 .byte   Cn2
 .byte   N02 ,Dn4
 .byte   W03
 .byte   Cn2
 .byte   N02 ,Dn4 ,v052
 .byte   W03
 .byte   N56 ,Dn2
 .byte   N02 ,Dn4
 .byte   W03
 .byte   Dn4 ,v056
 .byte   W03
 .byte   N02
 .byte   W03
 .byte   N02
 .byte   W03
 .byte   Dn4 ,v060
 .byte   W03
 .byte   N02
 .byte   W03
 .byte   Dn4 ,v064
 .byte   W03
 .byte   N02
 .byte   W03
 .byte   N02
 .byte   W03
 .byte   N02
 .byte   W03
 .byte   N02
 .byte   W03
 .byte   N02
 .byte   W03
 .byte   N02
 .byte   W03
 .byte   Dn4 ,v060
 .byte   W03
 .byte   N02
 .byte   W03
 .byte   N02
 .byte   W03
 .byte   Dn4 ,v056
 .byte   W03
 .byte   N02
 .byte   W03
 .byte   Dn4 ,v052
 .byte   W03
 .byte   N02
 .byte   W03
 .byte   PEND 
@  #06 @027   ----------------------------------------
Label_010153CC:
 .byte   N02 ,Cn4 ,v052
 .byte   W03
 .byte   N02
 .byte   W03
 .byte   N02
 .byte   W03
 .byte   N02
 .byte   W03
 .byte   N02
 .byte   W03
 .byte   N02
 .byte   W03
 .byte   Cn4 ,v056
 .byte   W03
 .byte   N02
 .byte   W03
 .byte   N02
 .byte   W03
 .byte   N02
 .byte   W03
 .byte   Cn4 ,v060
 .byte   W03
 .byte   N02
 .byte   W03
 .byte   N02
 .byte   W03
 .byte   N02
 .byte   W03
 .byte   Cn4 ,v064
 .byte   W03
 .byte   N02
 .byte   W03
 .byte   N02
 .byte   W03
 .byte   N02
 .byte   W03
 .byte   As3 ,v052
 .byte   W03
 .byte   N02
 .byte   W03
 .byte   N02
 .byte   W03
 .byte   As3 ,v048
 .byte   W03
 .byte   N02
 .byte   W03
 .byte   N02
 .byte   W03
 .byte   As3 ,v044
 .byte   W03
 .byte   N02
 .byte   W03
 .byte   As3 ,v040
 .byte   W03
 .byte   N02
 .byte   W03
 .byte   N02
 .byte   W03
 .byte   As3 ,v036
 .byte   W03
 .byte   N02
 .byte   W03
 .byte   N02
 .byte   W03
 .byte   PEND 
@  #06 @028   ----------------------------------------
Label_01015417:
 .byte   TIE ,An2 ,v064
 .byte   TIE ,An3
 .byte   W96
 .byte   PEND 
@  #06 @029   ----------------------------------------
 .byte   W92
 .byte   W03
 .byte   EOT
 .byte   An2 ,v069
 .byte   W01
@  #06 @030   ----------------------------------------
Label_01015424:
 .byte   TIE ,Cn3 ,v064
 .byte   TIE ,Fn3
 .byte   W96
 .byte   PEND 
@  #06 @031   ----------------------------------------
 .byte   W92
 .byte   W03
 .byte   EOT
 .byte   Cn3 ,v065
 .byte   W01
@  #06 @032   ----------------------------------------
 .byte   PATT
  .word Label_01015424
@  #06 @033   ----------------------------------------
 .byte   W92
 .byte   W03
 .byte   EOT
 .byte   Cn3 ,v065
 .byte   W01
@  #06 @034   ----------------------------------------
Label_0101543C:
 .byte   N68 ,Cn3 ,v060
 .byte   TIE ,Ds3
 .byte   W72
 .byte   N23 ,As2
 .byte   W24
 .byte   PEND 
@  #06 @035   ----------------------------------------
Label_01015446:
 .byte   N92 ,Cn3 ,v060
 .byte   W92
 .byte   W03
 .byte   PEND 
 .byte   EOT
 .byte   Ds3
 .byte   W01
@  #06 @036   ----------------------------------------
Label_0101544F:
 .byte   N92 ,As2 ,v060
 .byte   TIE ,Gs3
 .byte   W96
 .byte   PEND 
@  #06 @037   ----------------------------------------
Label_01015456:
 .byte   N92 ,Ds3 ,v068
 .byte   W92
 .byte   W03
 .byte   PEND 
 .byte   EOT
 .byte   Gs3
 .byte   W01
@  #06 @038   ----------------------------------------
Label_0101545F:
 .byte   TIE ,As2 ,v060
 .byte   TIE ,Fs3
 .byte   W96
 .byte   PEND 
@  #06 @039   ----------------------------------------
 .byte   W92
 .byte   W03
 .byte   EOT
 .byte   As2 ,v066
 .byte   W01
@  #06 @040   ----------------------------------------
Label_0101546C:
 .byte   TIE ,Gn2 ,v060
 .byte   TIE ,Dn3 ,v048
 .byte   W96
 .byte   PEND 
@  #06 @041   ----------------------------------------
 .byte   W92
 .byte   W03
 .byte   EOT
 .byte   Gn2 ,v062
 .byte   W01
@  #06 @042   ----------------------------------------
Label_0101547A:
 .byte   TIE ,An2 ,v060
 .byte   TIE ,Dn3 ,v048
 .byte   W96
 .byte   PEND 
@  #06 @043   ----------------------------------------
 .byte   W92
 .byte   W03
 .byte   EOT
 .byte   An2 ,v062
 .byte   W01
@  #06 @044   ----------------------------------------
 .byte   W96
@  #06 @045   ----------------------------------------
 .byte   W96
@  #06 @046   ----------------------------------------
 .byte   W96
@  #06 @047   ----------------------------------------
 .byte   W84
 .byte   N11 ,An3 ,v080
 .byte   W12
@  #06 @048   ----------------------------------------
Label_01015490:
 .byte   N32 ,Gn3 ,v052
 .byte   N17 ,As3 ,v096
 .byte   W18
 .byte   Fn4
 .byte   W18
 .byte   N11 ,Fn3 ,v052
 .byte   N17 ,Cn4 ,v096
 .byte   W12
 .byte   N02 ,Fn3 ,v052
 .byte   W03
 .byte   N02
 .byte   W03
 .byte   N02
 .byte   N17 ,Dn4 ,v096
 .byte   W03
 .byte   N02 ,Fn3 ,v052
 .byte   W03
 .byte   Fn3 ,v048
 .byte   W03
 .byte   N02
 .byte   W03
 .byte   N02
 .byte   W03
 .byte   Fn3 ,v044
 .byte   W03
 .byte   N02
 .byte   N02 ,Dn4 ,v096
 .byte   W03
 .byte   Fn3 ,v044
 .byte   N02 ,Dn4 ,v096
 .byte   W03
 .byte   Fn3 ,v040
 .byte   N02 ,Dn4 ,v096
 .byte   W03
 .byte   Fn3 ,v040
 .byte   N02 ,Dn4 ,v096
 .byte   W03
 .byte   Fn3 ,v040
 .byte   N11 ,An3 ,v096
 .byte   W03
 .byte   N02 ,Fn3 ,v036
 .byte   W03
 .byte   N02
 .byte   W03
 .byte   N02
 .byte   W03
 .byte   PEND 
@  #06 @049   ----------------------------------------
Label_010154DF:
 .byte   N32 ,Ds3 ,v080
 .byte   N17 ,As3 ,v096
 .byte   W18
 .byte   Fn4
 .byte   W18
 .byte   N11 ,Fn3
 .byte   N17 ,Cn4
 .byte   W12
 .byte   N02 ,Fn3
 .byte   W03
 .byte   N02
 .byte   W03
 .byte   N02
 .byte   N28 ,As3
 .byte   W03
 .byte   N02 ,Fn3
 .byte   W03
 .byte   Fn3 ,v092
 .byte   W03
 .byte   Fn3 ,v088
 .byte   W03
 .byte   Fn3 ,v084
 .byte   W03
 .byte   Fn3 ,v076
 .byte   W03
 .byte   Fn3 ,v072
 .byte   W03
 .byte   Fn3 ,v068
 .byte   W03
 .byte   Fn3 ,v060
 .byte   W03
 .byte   Fn3 ,v056
 .byte   W03
 .byte   Fn3 ,v052
 .byte   N11 ,An3 ,v096
 .byte   W03
 .byte   N02 ,Fn3 ,v044
 .byte   W03
 .byte   Fn3 ,v040
 .byte   W03
 .byte   Fn3 ,v036
 .byte   W03
 .byte   PEND 
@  #06 @050   ----------------------------------------
Label_01015522:
 .byte   N32 ,Gn3 ,v080
 .byte   N17 ,As3 ,v096
 .byte   W18
 .byte   Fn4
 .byte   W18
 .byte   N11 ,Fn3
 .byte   N17 ,Cn4
 .byte   W12
 .byte   N02 ,Fn3
 .byte   W03
 .byte   N02
 .byte   W03
 .byte   N02
 .byte   N17 ,Dn4
 .byte   W03
 .byte   N02 ,Fn3
 .byte   W03
 .byte   Fn3 ,v092
 .byte   W03
 .byte   Fn3 ,v088
 .byte   W03
 .byte   Fn3 ,v084
 .byte   W03
 .byte   Fn3 ,v076
 .byte   W03
 .byte   Fn3 ,v072
 .byte   N02 ,Dn4 ,v096
 .byte   W03
 .byte   Fn3 ,v068
 .byte   N02 ,Dn4 ,v096
 .byte   W03
 .byte   Fn3 ,v060
 .byte   N02 ,Dn4 ,v096
 .byte   W03
 .byte   Fn3 ,v056
 .byte   N02 ,Dn4 ,v096
 .byte   W03
 .byte   Fn3 ,v052
 .byte   N11 ,Dn4 ,v096
 .byte   W03
 .byte   N02 ,Fn3 ,v044
 .byte   W03
 .byte   Fn3 ,v040
 .byte   W03
 .byte   Fn3 ,v036
 .byte   W03
 .byte   PEND 
@  #06 @051   ----------------------------------------
Label_01015571:
 .byte   N17 ,As4 ,v096
 .byte   W18
 .byte   N17
 .byte   W18
 .byte   An4
 .byte   W18
 .byte   N02 ,Gn4
 .byte   W03
 .byte   N02
 .byte   W03
 .byte   Gn4 ,v088
 .byte   W03
 .byte   Gn4 ,v076
 .byte   W03
 .byte   N01 ,Gn4 ,v068
 .byte   W01
 .byte   N01
 .byte   W01
 .byte   N01
 .byte   W01
 .byte   N02 ,Gn4 ,v056
 .byte   W03
 .byte   Gn4 ,v044
 .byte   W03
 .byte   Gn4 ,v036
 .byte   W21
 .byte   PEND 
@  #06 @052   ----------------------------------------
Label_01015597:
 .byte   N03 ,As3 ,v020
 .byte   N03 ,Gn5
 .byte   W03
 .byte   N02 ,As3 ,v036
 .byte   N02 ,Gn5
 .byte   W03
 .byte   As3
 .byte   N02 ,Gn5
 .byte   W03
 .byte   As3
 .byte   N02 ,Gn5
 .byte   W03
 .byte   As3 ,v040
 .byte   N02 ,Gn5
 .byte   W03
 .byte   As3
 .byte   N02 ,Gn5
 .byte   W03
 .byte   As3
 .byte   N02 ,Gn5
 .byte   W03
 .byte   As3
 .byte   N02 ,Gn5
 .byte   W03
 .byte   As3 ,v044
 .byte   N02 ,Gn5
 .byte   W03
 .byte   As3
 .byte   N02 ,Gn5
 .byte   W03
 .byte   As3
 .byte   N02 ,Gn5
 .byte   W03
 .byte   As3
 .byte   N02 ,Gn5
 .byte   W03
 .byte   As3 ,v048
 .byte   N02 ,Gn5
 .byte   W03
 .byte   As3
 .byte   N02 ,Gn5
 .byte   W03
 .byte   As3
 .byte   N02 ,Gn5
 .byte   W03
 .byte   As3
 .byte   N02 ,Gn5
 .byte   W03
 .byte   N44 ,As3 ,v052
 .byte   N44 ,Gn5
 .byte   W48
 .byte   PEND 
@  #06 @053   ----------------------------------------
Label_010155E5:
 .byte   N32 ,An3 ,v052
 .byte   N03 ,Fn5 ,v020
 .byte   W03
 .byte   N02 ,Fn5 ,v036
 .byte   W03
 .byte   N02
 .byte   W03
 .byte   Fn5 ,v040
 .byte   W03
 .byte   N02
 .byte   W03
 .byte   Fn5 ,v044
 .byte   W03
 .byte   N02
 .byte   W03
 .byte   Fn5 ,v048
 .byte   W03
 .byte   N02
 .byte   W03
 .byte   Fn5 ,v052
 .byte   W03
 .byte   N02
 .byte   W03
 .byte   Fn5 ,v056
 .byte   W03
 .byte   N17 ,Dn3 ,v052
 .byte   N02 ,Fn5 ,v056
 .byte   W03
 .byte   Fn5 ,v060
 .byte   W03
 .byte   N02
 .byte   W03
 .byte   Fn5 ,v064
 .byte   W03
 .byte   N02
 .byte   W03
 .byte   N02
 .byte   W03
 .byte   N40 ,Gn3 ,v052
 .byte   N02 ,Dn5 ,v064
 .byte   W03
 .byte   N02
 .byte   W03
 .byte   N02
 .byte   W03
 .byte   Dn5 ,v060
 .byte   W03
 .byte   N02
 .byte   W03
 .byte   Dn5 ,v056
 .byte   W03
 .byte   Dn5 ,v052
 .byte   W03
 .byte   N02
 .byte   W03
 .byte   Dn5 ,v048
 .byte   W03
 .byte   Dn5 ,v044
 .byte   W03
 .byte   N02
 .byte   W03
 .byte   Dn5 ,v040
 .byte   W03
 .byte   Dn5 ,v036
 .byte   W03
 .byte   N02
 .byte   W03
 .byte   PEND 
@  #06 @054   ----------------------------------------
Label_01015645:
 .byte   N05 ,Dn4 ,v052
 .byte   W06
 .byte   N05
 .byte   W06
 .byte   Dn4 ,v056
 .byte   W06
 .byte   N05
 .byte   W06
 .byte   Dn4 ,v060
 .byte   W06
 .byte   Dn4 ,v064
 .byte   W06
 .byte   N56 ,Cn4
 .byte   W60
 .byte   PEND 
@  #06 @055   ----------------------------------------
 .byte   N92 ,Dn4
 .byte   W96
@  #06 @056   ----------------------------------------
Label_0101565D:
 .byte   N03 ,An3 ,v020
 .byte   N03 ,Dn4 ,v036
 .byte   N03 ,Gn5
 .byte   W03
 .byte   N02 ,An3
 .byte   N02 ,Dn4
 .byte   N02 ,Gn5
 .byte   W03
 .byte   An3
 .byte   N02 ,Dn4
 .byte   N02 ,Gn5
 .byte   W03
 .byte   An3 ,v040
 .byte   N02 ,Dn4
 .byte   N02 ,Gn5
 .byte   W03
 .byte   An3
 .byte   N02 ,Dn4
 .byte   N02 ,Gn5
 .byte   W03
 .byte   An3 ,v044
 .byte   N02 ,Dn4
 .byte   N02 ,Gn5
 .byte   W03
 .byte   An3
 .byte   N02 ,Dn4
 .byte   N02 ,Gn5
 .byte   W03
 .byte   An3 ,v048
 .byte   N02 ,Dn4
 .byte   N02 ,Gn5
 .byte   W03
 .byte   An3
 .byte   N02 ,Dn4
 .byte   N02 ,Gn5
 .byte   W03
 .byte   An3 ,v052
 .byte   N02 ,Dn4
 .byte   N02 ,Gn5
 .byte   W03
 .byte   An3
 .byte   N02 ,Dn4
 .byte   N02 ,Gn5
 .byte   W03
 .byte   An3 ,v056
 .byte   N02 ,Dn4
 .byte   N02 ,Gn5
 .byte   W03
 .byte   An3
 .byte   N02 ,Dn4
 .byte   N02 ,Gn5
 .byte   W03
 .byte   An3 ,v060
 .byte   N02 ,Dn4
 .byte   N02 ,Gn5
 .byte   W03
 .byte   An3
 .byte   N02 ,Dn4
 .byte   N02 ,Gn5
 .byte   W03
 .byte   An3 ,v064
 .byte   N02 ,Dn4
 .byte   N02 ,Gn5
 .byte   W03
 .byte   N44 ,An3 ,v060
 .byte   N44 ,Dn4 ,v072
 .byte   N44 ,Gn5 ,v052
 .byte   W48
 .byte   PEND 
@  #06 @057   ----------------------------------------
Label_010156D3:
 .byte   N17 ,An3 ,v064
 .byte   N52 ,Cn4 ,v080
 .byte   W18
 .byte   N17 ,Fn3 ,v064
 .byte   W18
 .byte   N56 ,Dn3 ,v052
 .byte   W18
 .byte   N40 ,As3 ,v080
 .byte   W42
 .byte   PEND 
@  #06 @058   ----------------------------------------
Label_010156E7:
 .byte   N32 ,As3 ,v064
 .byte   W36
 .byte   N56 ,An3
 .byte   W60
 .byte   PEND 
@  #06 @059   ----------------------------------------
Label_010156EF:
 .byte   N32 ,An3 ,v064
 .byte   W36
 .byte   N17 ,Fn3
 .byte   W18
 .byte   N40 ,Dn3
 .byte   W42
 .byte   PEND 
@  #06 @060   ----------------------------------------
 .byte   W96
@  #06 @061   ----------------------------------------
 .byte   W96
@  #06 @062   ----------------------------------------
 .byte   W96
@  #06 @063   ----------------------------------------
 .byte   W96
@  #06 @064   ----------------------------------------
 .byte   W96
@  #06 @065   ----------------------------------------
 .byte   W96
@  #06 @066   ----------------------------------------
 .byte   W96
@  #06 @067   ----------------------------------------
 .byte   W96
@  #06 @068   ----------------------------------------
 .byte   PATT
  .word Label_01014D1C
@  #06 @069   ----------------------------------------
 .byte   PATT
  .word Label_01014D70
@  #06 @070   ----------------------------------------
 .byte   PATT
  .word Label_01014DCA
@  #06 @071   ----------------------------------------
 .byte   PATT
  .word Label_01014E85
@  #06 @072   ----------------------------------------
 .byte   PATT
  .word Label_01014EE5
@  #06 @073   ----------------------------------------
 .byte   PATT
  .word Label_01014F9B
@  #06 @074   ----------------------------------------
 .byte   PATT
  .word Label_01014FF0
@  #06 @075   ----------------------------------------
 .byte   PATT
  .word Label_01015045
@  #06 @076   ----------------------------------------
 .byte   PATT
  .word Label_0101509A
@  #06 @077   ----------------------------------------
 .byte   PATT
  .word Label_01014F9B
@  #06 @078   ----------------------------------------
 .byte   PATT
  .word Label_01014FF0
@  #06 @079   ----------------------------------------
 .byte   PATT
  .word Label_010150EF
@  #06 @080   ----------------------------------------
 .byte   PATT
  .word Label_01015144
@  #06 @081   ----------------------------------------
 .byte   PATT
  .word Label_01015171
@  #06 @082   ----------------------------------------
 .byte   PATT
  .word Label_010151C4
@  #06 @083   ----------------------------------------
 .byte   PATT
  .word Label_0101521C
@  #06 @084   ----------------------------------------
 .byte   PATT
  .word Label_01015274
@  #06 @085   ----------------------------------------
 .byte   PATT
  .word Label_010152C4
@  #06 @086   ----------------------------------------
 .byte   PATT
  .word Label_01015314
@  #06 @087   ----------------------------------------
 .byte   PATT
  .word Label_01015364
@  #06 @088   ----------------------------------------
 .byte   PATT
  .word Label_010153CC
@  #06 @089   ----------------------------------------
 .byte   PATT
  .word Label_01015417
@  #06 @090   ----------------------------------------
 .byte   W92
 .byte   W03
 .byte   EOT
 .byte   An2 ,v069
 .byte   W01
@  #06 @091   ----------------------------------------
 .byte   PATT
  .word Label_01015424
@  #06 @092   ----------------------------------------
 .byte   W92
 .byte   W03
 .byte   EOT
 .byte   Cn3 ,v065
 .byte   W01
@  #06 @093   ----------------------------------------
 .byte   PATT
  .word Label_01015424
@  #06 @094   ----------------------------------------
 .byte   W92
 .byte   W03
 .byte   EOT
 .byte   Cn3 ,v065
 .byte   W01
@  #06 @095   ----------------------------------------
 .byte   PATT
  .word Label_0101543C
@  #06 @096   ----------------------------------------
 .byte   PATT
  .word Label_01015446
@  #06 @097   ----------------------------------------
 .byte   EOT
 .byte   Ds3
 .byte   W01
@  #06 @098   ----------------------------------------
 .byte   PATT
  .word Label_0101544F
@  #06 @099   ----------------------------------------
 .byte   PATT
  .word Label_01015456
@  #06 @100   ----------------------------------------
 .byte   EOT
 .byte   Gs3
 .byte   W01
@  #06 @101   ----------------------------------------
 .byte   PATT
  .word Label_0101545F
@  #06 @102   ----------------------------------------
 .byte   W92
 .byte   W03
 .byte   EOT
 .byte   As2 ,v066
 .byte   W01
@  #06 @103   ----------------------------------------
 .byte   PATT
  .word Label_0101546C
@  #06 @104   ----------------------------------------
 .byte   W92
 .byte   W03
 .byte   EOT
 .byte   Gn2 ,v062
 .byte   W01
@  #06 @105   ----------------------------------------
 .byte   PATT
  .word Label_0101547A
@  #06 @106   ----------------------------------------
 .byte   W92
 .byte   W03
 .byte   EOT
 .byte   An2 ,v062
 .byte   W01
@  #06 @107   ----------------------------------------
 .byte   W96
@  #06 @108   ----------------------------------------
 .byte   W96
@  #06 @109   ----------------------------------------
 .byte   W96
@  #06 @110   ----------------------------------------
 .byte   W84
 .byte   N11 ,An3 ,v080
 .byte   W12
@  #06 @111   ----------------------------------------
 .byte   PATT
  .word Label_01015490
@  #06 @112   ----------------------------------------
 .byte   PATT
  .word Label_010154DF
@  #06 @113   ----------------------------------------
 .byte   PATT
  .word Label_01015522
@  #06 @114   ----------------------------------------
 .byte   PATT
  .word Label_01015571
@  #06 @115   ----------------------------------------
 .byte   PATT
  .word Label_01015597
@  #06 @116   ----------------------------------------
 .byte   PATT
  .word Label_010155E5
@  #06 @117   ----------------------------------------
 .byte   PATT
  .word Label_01015645
@  #06 @118   ----------------------------------------
 .byte   N92 ,Dn4 ,v064
 .byte   W96
@  #06 @119   ----------------------------------------
 .byte   PATT
  .word Label_0101565D
@  #06 @120   ----------------------------------------
 .byte   PATT
  .word Label_010156D3
@  #06 @121   ----------------------------------------
 .byte   PATT
  .word Label_010156E7
@  #06 @122   ----------------------------------------
 .byte   PATT
  .word Label_010156EF
@  #06 @123   ----------------------------------------
 .byte   W96
@  #06 @124   ----------------------------------------
 .byte   GOTO
  .word Label_01014D15
 .byte   FINE

@**************** Track 7 (Midi-Chn.6) ****************@

song06_007:
@  #07 @000   ----------------------------------------
 .byte   KEYSH , song06_key+0
 .byte   VOICE , 49
 .byte   VOL , 62*song06_mvl/mxv
 .byte   PAN , c_v-5
 .byte   VOL , 62*song06_mvl/mxv
 .byte   PAN , c_v-5
 .byte   VOL , 62*song06_mvl/mxv
 .byte   PAN , c_v-5
 .byte   VOL , 62*song06_mvl/mxv
 .byte   PAN , c_v-5
 .byte   W12
Label_01013621:
 .byte   W96
@  #07 @001   ----------------------------------------
 .byte   W96
@  #07 @002   ----------------------------------------
 .byte   W96
@  #07 @003   ----------------------------------------
 .byte   W96
@  #07 @004   ----------------------------------------
 .byte   W96
@  #07 @005   ----------------------------------------
 .byte   W96
@  #07 @006   ----------------------------------------
 .byte   W96
@  #07 @007   ----------------------------------------
Label_01013628:
 .byte   W48
 .byte   N02 ,Fn3 ,v028
 .byte   W02
 .byte   N02
 .byte   W03
 .byte   N02
 .byte   W03
 .byte   N02
 .byte   W03
 .byte   N02
 .byte   W03
 .byte   N01
 .byte   W01
 .byte   N02
 .byte   W02
 .byte   N01
 .byte   W01
 .byte   N02
 .byte   W02
 .byte   N01
 .byte   W01
 .byte   N02
 .byte   W02
 .byte   N01
 .byte   W01
 .byte   N02
 .byte   W02
 .byte   N01
 .byte   W01
 .byte   N02 ,Fn3 ,v032
 .byte   W02
 .byte   N01 ,Fn3 ,v028
 .byte   W01
 .byte   N02 ,Fn3 ,v032
 .byte   W02
 .byte   N01 ,Fn3 ,v028
 .byte   W01
 .byte   N02 ,Fn3 ,v032
 .byte   W02
 .byte   N01 ,Fn3 ,v028
 .byte   W01
 .byte   N02 ,Fn3 ,v032
 .byte   W02
 .byte   N01 ,Fn3 ,v028
 .byte   W01
 .byte   N02 ,Fn3 ,v036
 .byte   W02
 .byte   N01 ,Fn3 ,v028
 .byte   W01
 .byte   N02 ,Fn3 ,v036
 .byte   W02
 .byte   N01 ,Fn3 ,v028
 .byte   W01
 .byte   N02 ,Fn3 ,v036
 .byte   W03
 .byte   PEND 
@  #07 @008   ----------------------------------------
Label_0101367C:
 .byte   N01 ,Fn3 ,v036
 .byte   W01
 .byte   N01
 .byte   W02
 .byte   N01
 .byte   W01
 .byte   N01
 .byte   W02
 .byte   Fn3 ,v040
 .byte   W01
 .byte   Fn3 ,v036
 .byte   W02
 .byte   Fn3 ,v040
 .byte   W01
 .byte   Fn3 ,v036
 .byte   W02
 .byte   N02 ,Fn3 ,v052
 .byte   W03
 .byte   Fn3 ,v040
 .byte   W03
 .byte   N02
 .byte   W03
 .byte   N02
 .byte   W03
 .byte   N02
 .byte   W03
 .byte   N02
 .byte   W03
 .byte   N02
 .byte   W03
 .byte   N02
 .byte   W03
 .byte   N01 ,Dn3 ,v052
 .byte   W01
 .byte   N01
 .byte   W02
 .byte   N01
 .byte   W01
 .byte   N01
 .byte   W02
 .byte   N01
 .byte   W01
 .byte   N01
 .byte   W02
 .byte   N01
 .byte   W01
 .byte   N04
 .byte   W05
 .byte   N02
 .byte   W03
 .byte   N02
 .byte   W03
 .byte   N02
 .byte   W03
 .byte   N02
 .byte   W03
 .byte   N02
 .byte   W03
 .byte   N02
 .byte   W03
 .byte   N02
 .byte   W03
 .byte   N02
 .byte   W03
 .byte   N02
 .byte   W03
 .byte   N02
 .byte   W03
 .byte   N02
 .byte   W03
 .byte   N02
 .byte   W03
 .byte   N02
 .byte   W03
 .byte   N02
 .byte   W03
 .byte   N02
 .byte   W03
 .byte   PEND 
@  #07 @009   ----------------------------------------
Label_010136D6:
 .byte   N02 ,Dn3 ,v020
 .byte   W02
 .byte   N01
 .byte   W01
 .byte   N02 ,Dn3 ,v052
 .byte   W03
 .byte   N02
 .byte   W03
 .byte   N02
 .byte   W03
 .byte   N02
 .byte   W02
 .byte   N01 ,Dn3 ,v020
 .byte   W01
 .byte   N02 ,Dn3 ,v052
 .byte   W02
 .byte   N01 ,Dn3 ,v020
 .byte   W01
 .byte   N02 ,Dn3 ,v052
 .byte   W02
 .byte   N01 ,Dn3 ,v020
 .byte   W01
 .byte   N02 ,Dn3 ,v052
 .byte   W02
 .byte   N01 ,Dn3 ,v020
 .byte   W03
 .byte   N01
 .byte   W01
 .byte   N02 ,Dn3 ,v052
 .byte   W02
 .byte   N01 ,Dn3 ,v020
 .byte   W01
 .byte   N02 ,Dn3 ,v052
 .byte   W02
 .byte   N01 ,Dn3 ,v020
 .byte   W01
 .byte   N02 ,Dn3 ,v052
 .byte   W03
 .byte   Cn3 ,v020
 .byte   W02
 .byte   N01
 .byte   W01
 .byte   N02 ,Cn3 ,v052
 .byte   W05
 .byte   N01 ,Cn3 ,v020
 .byte   W01
 .byte   N02 ,Cn3 ,v052
 .byte   W02
 .byte   N01 ,Cn3 ,v020
 .byte   W01
 .byte   N02 ,Cn3 ,v052
 .byte   W02
 .byte   N01 ,Cn3 ,v020
 .byte   W01
 .byte   N02 ,Cn3 ,v052
 .byte   W02
 .byte   N01 ,Cn3 ,v020
 .byte   W01
 .byte   N02 ,Cn3 ,v052
 .byte   W02
 .byte   N01 ,Cn3 ,v020
 .byte   W01
 .byte   N02 ,Cn3 ,v052
 .byte   W02
 .byte   N01 ,Cn3 ,v020
 .byte   W01
 .byte   N02 ,Cn3 ,v052
 .byte   W02
 .byte   N01 ,Cn3 ,v020
 .byte   W01
 .byte   N02 ,Cn3 ,v052
 .byte   W02
 .byte   N01 ,Cn3 ,v020
 .byte   W01
 .byte   N02 ,Cn3 ,v052
 .byte   W02
 .byte   N01 ,Cn3 ,v020
 .byte   W01
 .byte   N02 ,Cn3 ,v052
 .byte   W02
 .byte   N01 ,Cn3 ,v020
 .byte   W01
 .byte   N02 ,Cn3 ,v052
 .byte   W02
 .byte   N01 ,Cn3 ,v020
 .byte   W01
 .byte   N02 ,Cn3 ,v052
 .byte   W02
 .byte   N01 ,Cn3 ,v020
 .byte   W01
 .byte   N02 ,Cn3 ,v052
 .byte   W02
 .byte   N01 ,Cn3 ,v020
 .byte   W01
 .byte   N02 ,Cn3 ,v052
 .byte   W03
 .byte   N02
 .byte   W03
 .byte   N02
 .byte   W03
 .byte   N02
 .byte   W03
 .byte   N02
 .byte   W03
 .byte   PEND 
@  #07 @010   ----------------------------------------
Label_01013792:
 .byte   N02 ,Fn3 ,v040
 .byte   W03
 .byte   N02
 .byte   W03
 .byte   N02
 .byte   W03
 .byte   N02
 .byte   W03
 .byte   Fn3 ,v052
 .byte   W02
 .byte   N01 ,Fn3 ,v040
 .byte   W01
 .byte   N02
 .byte   W02
 .byte   N01
 .byte   W01
 .byte   N02
 .byte   W02
 .byte   N01
 .byte   W01
 .byte   N02
 .byte   W02
 .byte   N01
 .byte   W01
 .byte   N02
 .byte   W02
 .byte   N01
 .byte   W01
 .byte   N02
 .byte   W02
 .byte   N01
 .byte   W01
 .byte   N02
 .byte   W02
 .byte   N01
 .byte   W01
 .byte   N02
 .byte   W03
 .byte   N01 ,Dn3 ,v052
 .byte   W01
 .byte   N01
 .byte   W02
 .byte   N01
 .byte   W01
 .byte   N01
 .byte   W02
 .byte   N01
 .byte   W01
 .byte   N01
 .byte   W02
 .byte   N01
 .byte   W01
 .byte   N04
 .byte   W05
 .byte   N02
 .byte   W03
 .byte   N02
 .byte   W03
 .byte   N02
 .byte   W03
 .byte   N02
 .byte   W03
 .byte   Dn3 ,v056
 .byte   W03
 .byte   N02
 .byte   W03
 .byte   N02
 .byte   W03
 .byte   Dn3 ,v060
 .byte   W03
 .byte   N02
 .byte   W03
 .byte   N02
 .byte   W03
 .byte   Dn3 ,v064
 .byte   W03
 .byte   N02
 .byte   W03
 .byte   N02
 .byte   W03
 .byte   Dn3 ,v068
 .byte   W03
 .byte   N02
 .byte   W03
 .byte   PEND 
@  #07 @011   ----------------------------------------
Label_010137F2:
 .byte   N02 ,Ds3 ,v068
 .byte   W03
 .byte   Ds3 ,v072
 .byte   W03
 .byte   N02
 .byte   W03
 .byte   N02
 .byte   W03
 .byte   Ds3 ,v076
 .byte   W02
 .byte   N01 ,Ds3 ,v028
 .byte   W01
 .byte   N02 ,Ds3 ,v076
 .byte   W02
 .byte   N01 ,Ds3 ,v028
 .byte   W01
 .byte   N02 ,Ds3 ,v076
 .byte   W02
 .byte   N01 ,Ds3 ,v028
 .byte   W01
 .byte   N02 ,Ds3 ,v080
 .byte   W02
 .byte   N01 ,Ds3 ,v028
 .byte   W01
 .byte   N02 ,Ds3 ,v080
 .byte   W02
 .byte   N01 ,Ds3 ,v028
 .byte   W01
 .byte   N02 ,Ds3 ,v080
 .byte   W02
 .byte   N01 ,Ds3 ,v028
 .byte   W01
 .byte   N02 ,Ds3 ,v080
 .byte   W02
 .byte   N01 ,Ds3 ,v028
 .byte   W01
 .byte   N02 ,Ds3 ,v080
 .byte   W03
 .byte   Fn3
 .byte   W03
 .byte   N02
 .byte   W03
 .byte   N02
 .byte   W02
 .byte   N01 ,Fn3 ,v032
 .byte   W01
 .byte   N02 ,Fn3 ,v080
 .byte   W02
 .byte   N01 ,Fn3 ,v032
 .byte   W01
 .byte   N02 ,Fn3 ,v080
 .byte   W02
 .byte   N01 ,Fn3 ,v032
 .byte   W01
 .byte   N02 ,Fn3 ,v080
 .byte   W02
 .byte   N01 ,Fn3 ,v032
 .byte   W01
 .byte   N02 ,Fn3 ,v080
 .byte   W02
 .byte   N01 ,Fn3 ,v032
 .byte   W01
 .byte   N02 ,Fn3 ,v080
 .byte   W02
 .byte   N01 ,Fn3 ,v032
 .byte   W01
 .byte   N02 ,Fn3 ,v080
 .byte   W02
 .byte   N01 ,Fn3 ,v032
 .byte   W01
 .byte   N02 ,Fn3 ,v080
 .byte   W02
 .byte   N01 ,Fn3 ,v032
 .byte   W01
 .byte   N02 ,Fn3 ,v076
 .byte   W02
 .byte   N01 ,Fn3 ,v032
 .byte   W01
 .byte   N02 ,Fn3 ,v068
 .byte   W02
 .byte   N01 ,Fn3 ,v032
 .byte   W01
 .byte   Ds3 ,v060
 .byte   W01
 .byte   N01
 .byte   W01
 .byte   N01
 .byte   N02 ,Fn3 ,v032
 .byte   W01
 .byte   Ds3 ,v052
 .byte   W02
 .byte   Fn3 ,v032
 .byte   W01
 .byte   Ds3 ,v044
 .byte   W02
 .byte   Fn3 ,v032
 .byte   W01
 .byte   Ds3 ,v036
 .byte   W03
 .byte   N11 ,An2 ,v064
 .byte   W12
 .byte   PEND 
@  #07 @012   ----------------------------------------
Label_010138A8:
 .byte   N17 ,As2 ,v080
 .byte   W18
 .byte   Fn3
 .byte   W18
 .byte   Cn3
 .byte   W18
 .byte   N23 ,Dn3
 .byte   W30
 .byte   N11 ,Gn2
 .byte   W12
 .byte   PEND 
@  #07 @013   ----------------------------------------
Label_010138B7:
 .byte   N17 ,As2 ,v080
 .byte   W18
 .byte   Fn3
 .byte   W18
 .byte   Cn3
 .byte   W18
 .byte   N23 ,As2
 .byte   W30
 .byte   N11 ,Gn2
 .byte   W12
 .byte   PEND 
@  #07 @014   ----------------------------------------
Label_010138C6:
 .byte   N17 ,As2 ,v080
 .byte   W18
 .byte   Fn3
 .byte   W18
 .byte   Cn3
 .byte   W18
 .byte   N23 ,Dn3
 .byte   W30
 .byte   N11 ,As2
 .byte   W12
 .byte   PEND 
@  #07 @015   ----------------------------------------
Label_010138D5:
 .byte   N17 ,Fn3 ,v080
 .byte   W18
 .byte   Ds3
 .byte   W18
 .byte   Dn3
 .byte   W18
 .byte   N23 ,Cn3
 .byte   W30
 .byte   N11 ,An2
 .byte   W12
 .byte   PEND 
@  #07 @016   ----------------------------------------
 .byte   PATT
  .word Label_010138A8
@  #07 @017   ----------------------------------------
 .byte   PATT
  .word Label_010138B7
@  #07 @018   ----------------------------------------
Label_010138EE:
 .byte   N17 ,As2 ,v080
 .byte   W18
 .byte   Fn3
 .byte   W18
 .byte   Cn3
 .byte   W18
 .byte   N23 ,Dn3
 .byte   W30
 .byte   N11
 .byte   W12
 .byte   PEND 
@  #07 @019   ----------------------------------------
Label_010138FC:
 .byte   N17 ,As3 ,v080
 .byte   W18
 .byte   N17
 .byte   W18
 .byte   An3
 .byte   W18
 .byte   N02 ,Gn3
 .byte   W03
 .byte   Gn3 ,v076
 .byte   W03
 .byte   Gn3 ,v068
 .byte   W03
 .byte   N01 ,Gn3 ,v024
 .byte   W01
 .byte   N01
 .byte   W01
 .byte   N01
 .byte   W01
 .byte   N02 ,Gn3 ,v052
 .byte   W03
 .byte   Gn3 ,v044
 .byte   W03
 .byte   N08 ,Gn3 ,v036
 .byte   W24
 .byte   PEND 
@  #07 @020   ----------------------------------------
 .byte   W96
@  #07 @021   ----------------------------------------
 .byte   W96
@  #07 @022   ----------------------------------------
 .byte   W96
@  #07 @023   ----------------------------------------
 .byte   W96
@  #07 @024   ----------------------------------------
 .byte   W96
@  #07 @025   ----------------------------------------
 .byte   W96
@  #07 @026   ----------------------------------------
 .byte   W96
@  #07 @027   ----------------------------------------
 .byte   W96
@  #07 @028   ----------------------------------------
 .byte   TIE ,Fn2
 .byte   W96
@  #07 @029   ----------------------------------------
 .byte   W92
 .byte   W03
 .byte   EOT
 .byte   W01
@  #07 @030   ----------------------------------------
Label_01013930:
 .byte   N44 ,An2 ,v036
 .byte   W48
 .byte   N23 ,An2 ,v040
 .byte   W24
 .byte   As2
 .byte   W24
 .byte   PEND 
@  #07 @031   ----------------------------------------
 .byte   N92 ,Cn3
 .byte   W96
@  #07 @032   ----------------------------------------
 .byte   TIE ,Fn2 ,v036
 .byte   W96
@  #07 @033   ----------------------------------------
 .byte   W92
 .byte   W03
 .byte   EOT
 .byte   W01
@  #07 @034   ----------------------------------------
 .byte   TIE ,Gs2 ,v040
 .byte   W96
@  #07 @035   ----------------------------------------
 .byte   W92
 .byte   W03
 .byte   EOT
 .byte   W01
@  #07 @036   ----------------------------------------
 .byte   TIE
 .byte   W96
@  #07 @037   ----------------------------------------
 .byte   W92
 .byte   W03
 .byte   EOT
 .byte   W01
@  #07 @038   ----------------------------------------
 .byte   TIE ,Fs2
 .byte   W96
@  #07 @039   ----------------------------------------
 .byte   W92
 .byte   W03
 .byte   EOT
 .byte   W01
@  #07 @040   ----------------------------------------
 .byte   TIE ,Gn2
 .byte   W96
@  #07 @041   ----------------------------------------
 .byte   W92
 .byte   W03
 .byte   EOT
 .byte   W01
@  #07 @042   ----------------------------------------
 .byte   TIE ,An2
 .byte   W96
@  #07 @043   ----------------------------------------
 .byte   W92
 .byte   W03
 .byte   EOT
 .byte   W01
@  #07 @044   ----------------------------------------
 .byte   W96
@  #07 @045   ----------------------------------------
 .byte   W96
@  #07 @046   ----------------------------------------
 .byte   W96
@  #07 @047   ----------------------------------------
 .byte   W96
@  #07 @048   ----------------------------------------
Label_0101396D:
 .byte   N17 ,As2 ,v096
 .byte   W18
 .byte   Fn3
 .byte   W18
 .byte   Cn3
 .byte   W18
 .byte   N23 ,Dn3
 .byte   W30
 .byte   N11 ,An2
 .byte   W12
 .byte   PEND 
@  #07 @049   ----------------------------------------
Label_0101397C:
 .byte   N17 ,As2 ,v096
 .byte   W18
 .byte   Fn3
 .byte   W18
 .byte   Cn3
 .byte   W18
 .byte   N23 ,As2
 .byte   W30
 .byte   N11 ,An2
 .byte   W12
 .byte   PEND 
@  #07 @050   ----------------------------------------
Label_0101398B:
 .byte   N17 ,As2 ,v096
 .byte   W18
 .byte   Fn3
 .byte   W18
 .byte   Cn3
 .byte   W18
 .byte   N23 ,Dn3
 .byte   W30
 .byte   N11
 .byte   W12
 .byte   PEND 
@  #07 @051   ----------------------------------------
Label_01013999:
 .byte   N17 ,As3 ,v096
 .byte   W18
 .byte   N17
 .byte   W18
 .byte   An3
 .byte   W18
 .byte   N02 ,Gn3
 .byte   W03
 .byte   Gn3 ,v088
 .byte   W03
 .byte   Gn3 ,v076
 .byte   W03
 .byte   N01 ,Gn3 ,v028
 .byte   W01
 .byte   N01
 .byte   W01
 .byte   N01
 .byte   W01
 .byte   N02 ,Gn3 ,v056
 .byte   W03
 .byte   Gn3 ,v044
 .byte   W03
 .byte   N08 ,Gn3 ,v036
 .byte   W24
 .byte   PEND 
@  #07 @052   ----------------------------------------
 .byte   N92 ,Ds3 ,v052
 .byte   W96
@  #07 @053   ----------------------------------------
Label_010139C2:
 .byte   N32 ,Dn3 ,v052
 .byte   W36
 .byte   N17 ,Fn3
 .byte   W18
 .byte   N40 ,Dn3
 .byte   W42
 .byte   PEND 
@  #07 @054   ----------------------------------------
 .byte   N92 ,Ds3 ,v064
 .byte   W96
@  #07 @055   ----------------------------------------
 .byte   Dn3
 .byte   W96
@  #07 @056   ----------------------------------------
 .byte   Ds3 ,v080
 .byte   W96
@  #07 @057   ----------------------------------------
Label_010139D6:
 .byte   N52 ,An2 ,v064
 .byte   W54
 .byte   N40 ,As2
 .byte   W42
 .byte   PEND 
@  #07 @058   ----------------------------------------
Label_010139DE:
 .byte   N32 ,Gn3 ,v080
 .byte   W36
 .byte   N56 ,Fs3 ,v096
 .byte   W60
 .byte   PEND 
@  #07 @059   ----------------------------------------
Label_010139E7:
 .byte   N52 ,Fn3 ,v064
 .byte   W54
 .byte   N40 ,Dn3
 .byte   W42
 .byte   PEND 
@  #07 @060   ----------------------------------------
 .byte   W96
@  #07 @061   ----------------------------------------
 .byte   W96
@  #07 @062   ----------------------------------------
 .byte   W96
@  #07 @063   ----------------------------------------
 .byte   W96
@  #07 @064   ----------------------------------------
 .byte   W96
@  #07 @065   ----------------------------------------
 .byte   W96
@  #07 @066   ----------------------------------------
 .byte   W96
@  #07 @067   ----------------------------------------
 .byte   W96
@  #07 @068   ----------------------------------------
 .byte   PATT
  .word Label_01013628
@  #07 @069   ----------------------------------------
 .byte   PATT
  .word Label_0101367C
@  #07 @070   ----------------------------------------
 .byte   PATT
  .word Label_010136D6
@  #07 @071   ----------------------------------------
 .byte   PATT
  .word Label_01013792
@  #07 @072   ----------------------------------------
 .byte   PATT
  .word Label_010137F2
@  #07 @073   ----------------------------------------
 .byte   PATT
  .word Label_010138A8
@  #07 @074   ----------------------------------------
 .byte   PATT
  .word Label_010138B7
@  #07 @075   ----------------------------------------
 .byte   PATT
  .word Label_010138C6
@  #07 @076   ----------------------------------------
 .byte   PATT
  .word Label_010138D5
@  #07 @077   ----------------------------------------
 .byte   PATT
  .word Label_010138A8
@  #07 @078   ----------------------------------------
 .byte   PATT
  .word Label_010138B7
@  #07 @079   ----------------------------------------
 .byte   PATT
  .word Label_010138EE
@  #07 @080   ----------------------------------------
 .byte   PATT
  .word Label_010138FC
@  #07 @081   ----------------------------------------
 .byte   W96
@  #07 @082   ----------------------------------------
 .byte   W96
@  #07 @083   ----------------------------------------
 .byte   W96
@  #07 @084   ----------------------------------------
 .byte   W96
@  #07 @085   ----------------------------------------
 .byte   W96
@  #07 @086   ----------------------------------------
 .byte   W96
@  #07 @087   ----------------------------------------
 .byte   W96
@  #07 @088   ----------------------------------------
 .byte   W96
@  #07 @089   ----------------------------------------
 .byte   TIE ,Fn2 ,v036
 .byte   W96
@  #07 @090   ----------------------------------------
 .byte   W92
 .byte   W03
 .byte   EOT
 .byte   W01
@  #07 @091   ----------------------------------------
 .byte   PATT
  .word Label_01013930
@  #07 @092   ----------------------------------------
 .byte   N92 ,Cn3 ,v040
 .byte   W96
@  #07 @093   ----------------------------------------
 .byte   TIE ,Fn2 ,v036
 .byte   W96
@  #07 @094   ----------------------------------------
 .byte   W92
 .byte   W03
 .byte   EOT
 .byte   W01
@  #07 @095   ----------------------------------------
 .byte   TIE ,Gs2 ,v040
 .byte   W96
@  #07 @096   ----------------------------------------
 .byte   W92
 .byte   W03
 .byte   EOT
 .byte   W01
@  #07 @097   ----------------------------------------
 .byte   TIE
 .byte   W96
@  #07 @098   ----------------------------------------
 .byte   W92
 .byte   W03
 .byte   EOT
 .byte   W01
@  #07 @099   ----------------------------------------
 .byte   TIE ,Fs2
 .byte   W96
@  #07 @100   ----------------------------------------
 .byte   W92
 .byte   W03
 .byte   EOT
 .byte   W01
@  #07 @101   ----------------------------------------
 .byte   TIE ,Gn2
 .byte   W96
@  #07 @102   ----------------------------------------
 .byte   W92
 .byte   W03
 .byte   EOT
 .byte   W01
@  #07 @103   ----------------------------------------
 .byte   TIE ,An2
 .byte   W96
@  #07 @104   ----------------------------------------
 .byte   W92
 .byte   W03
 .byte   EOT
 .byte   W01
@  #07 @105   ----------------------------------------
 .byte   W96
@  #07 @106   ----------------------------------------
 .byte   W96
@  #07 @107   ----------------------------------------
 .byte   W96
@  #07 @108   ----------------------------------------
 .byte   W96
@  #07 @109   ----------------------------------------
 .byte   PATT
  .word Label_0101396D
@  #07 @110   ----------------------------------------
 .byte   PATT
  .word Label_0101397C
@  #07 @111   ----------------------------------------
 .byte   PATT
  .word Label_0101398B
@  #07 @112   ----------------------------------------
 .byte   PATT
  .word Label_01013999
@  #07 @113   ----------------------------------------
 .byte   N92 ,Ds3 ,v052
 .byte   W96
@  #07 @114   ----------------------------------------
 .byte   PATT
  .word Label_010139C2
@  #07 @115   ----------------------------------------
 .byte   N92 ,Ds3 ,v064
 .byte   W96
@  #07 @116   ----------------------------------------
 .byte   Dn3
 .byte   W96
@  #07 @117   ----------------------------------------
 .byte   Ds3 ,v080
 .byte   W96
@  #07 @118   ----------------------------------------
 .byte   PATT
  .word Label_010139D6
@  #07 @119   ----------------------------------------
 .byte   PATT
  .word Label_010139DE
@  #07 @120   ----------------------------------------
 .byte   PATT
  .word Label_010139E7
@  #07 @121   ----------------------------------------
 .byte   W96
@  #07 @122   ----------------------------------------
 .byte   GOTO
  .word Label_01013621
 .byte   FINE

@**************** Track 8 (Midi-Chn.7) ****************@

song06_008:
@  #08 @000   ----------------------------------------
 .byte   KEYSH , song06_key+0
 .byte   VOICE , 49
 .byte   VOL , 62*song06_mvl/mxv
 .byte   PAN , c_v+0
 .byte   VOL , 62*song06_mvl/mxv
 .byte   PAN , c_v+0
 .byte   VOL , 62*song06_mvl/mxv
 .byte   PAN , c_v+0
 .byte   VOL , 62*song06_mvl/mxv
 .byte   PAN , c_v+0
 .byte   VOL , 62*song06_mvl/mxv
 .byte   PAN , c_v+0
 .byte   W12
Label_0101582D:
 .byte   W96
@  #08 @001   ----------------------------------------
 .byte   W96
@  #08 @002   ----------------------------------------
 .byte   W96
@  #08 @003   ----------------------------------------
 .byte   W96
@  #08 @004   ----------------------------------------
Label_01015831:
 .byte   W24
 .byte   N23 ,Gn2 ,v112
 .byte   W24
 .byte   N23
 .byte   W24
 .byte   N02 ,Cs3
 .byte   W02
 .byte   N21 ,Dn3
 .byte   W22
 .byte   PEND 
@  #08 @005   ----------------------------------------
Label_0101583F:
 .byte   N23 ,Dn3 ,v112
 .byte   W24
 .byte   Cn3
 .byte   W24
 .byte   Fn3
 .byte   W24
 .byte   N02
 .byte   W02
 .byte   N21 ,Gn3
 .byte   W22
 .byte   PEND 
@  #08 @006   ----------------------------------------
Label_0101584D:
 .byte   N68 ,Dn3 ,v112
 .byte   W84
 .byte   N11 ,Gn2
 .byte   W12
 .byte   PEND 
@  #08 @007   ----------------------------------------
Label_01015855:
 .byte   N02 ,Cn3 ,v112
 .byte   W02
 .byte   N32 ,Dn3
 .byte   W32
 .byte   W02
 .byte   N44 ,Cn3
 .byte   W12
 .byte   N80 ,Fn4 ,v036
 .byte   W48
 .byte   PEND 
@  #08 @008   ----------------------------------------
Label_01015865:
 .byte   W24
 .byte   N23 ,Gn2 ,v112
 .byte   W12
 .byte   N92 ,Dn4 ,v036
 .byte   W12
 .byte   N23 ,Gn2 ,v112
 .byte   W24
 .byte   N02 ,Cs3
 .byte   W02
 .byte   N21 ,Dn3
 .byte   W22
 .byte   PEND 
@  #08 @009   ----------------------------------------
Label_01015879:
 .byte   N23 ,Dn3 ,v112
 .byte   W24
 .byte   Cn3
 .byte   W12
 .byte   N56 ,Cn4 ,v036
 .byte   W12
 .byte   N23 ,Fn3 ,v112
 .byte   W24
 .byte   Gn3
 .byte   W24
 .byte   PEND 
@  #08 @010   ----------------------------------------
Label_0101588A:
 .byte   N02 ,Gs3 ,v112
 .byte   N32 ,Fn4 ,v036
 .byte   W02
 .byte   An3 ,v112
 .byte   W32
 .byte   W02
 .byte   N44 ,As3
 .byte   N56 ,Dn4 ,v036
 .byte   W48
 .byte   N11 ,Gn3 ,v112
 .byte   W12
 .byte   PEND 
@  #08 @011   ----------------------------------------
Label_010158A0:
 .byte   N02 ,Cn4 ,v112
 .byte   N32 ,Ds4 ,v036
 .byte   W02
 .byte   Dn4 ,v112
 .byte   W32
 .byte   W02
 .byte   N44 ,Cn4
 .byte   N32 ,Fn4 ,v036
 .byte   W36
 .byte   N11 ,Ds4
 .byte   W24
 .byte   PEND 
@  #08 @012   ----------------------------------------
Label_010158B5:
 .byte   N32 ,Ds3 ,v064
 .byte   W36
 .byte   N17 ,Cn3
 .byte   W18
 .byte   Dn3
 .byte   W18
 .byte   N02
 .byte   W03
 .byte   N02
 .byte   W03
 .byte   Dn3 ,v060
 .byte   W03
 .byte   Dn3 ,v056
 .byte   W03
 .byte   Dn3 ,v052
 .byte   W03
 .byte   Dn3 ,v044
 .byte   W03
 .byte   Dn3 ,v040
 .byte   W03
 .byte   Dn3 ,v036
 .byte   W03
 .byte   PEND 
@  #08 @013   ----------------------------------------
Label_010158D5:
 .byte   N32 ,Ds3 ,v052
 .byte   W36
 .byte   N17 ,An3
 .byte   W18
 .byte   N02 ,As3
 .byte   W03
 .byte   As3 ,v048
 .byte   W03
 .byte   N02
 .byte   W03
 .byte   N02
 .byte   W03
 .byte   N02
 .byte   W03
 .byte   As3 ,v044
 .byte   W03
 .byte   N02
 .byte   W03
 .byte   N02
 .byte   W03
 .byte   As3 ,v040
 .byte   W03
 .byte   N02
 .byte   W03
 .byte   N02
 .byte   W03
 .byte   As3 ,v036
 .byte   W03
 .byte   N02
 .byte   W03
 .byte   N02
 .byte   W03
 .byte   PEND 
@  #08 @014   ----------------------------------------
 .byte   PATT
  .word Label_010158B5
@  #08 @015   ----------------------------------------
Label_01015903:
 .byte   N32 ,Gn3 ,v052
 .byte   W36
 .byte   An3 ,v064
 .byte   W36
 .byte   N02 ,An3 ,v048
 .byte   W03
 .byte   An3 ,v044
 .byte   W03
 .byte   N02
 .byte   W03
 .byte   An3 ,v040
 .byte   W03
 .byte   N02
 .byte   W03
 .byte   N02
 .byte   W03
 .byte   An3 ,v036
 .byte   W03
 .byte   N02
 .byte   W03
 .byte   PEND 
@  #08 @016   ----------------------------------------
 .byte   PATT
  .word Label_010158B5
@  #08 @017   ----------------------------------------
Label_01015925:
 .byte   N32 ,Ds3 ,v064
 .byte   W36
 .byte   N17 ,Cn3
 .byte   W18
 .byte   As2
 .byte   W18
 .byte   N02
 .byte   W03
 .byte   N02
 .byte   W03
 .byte   As2 ,v060
 .byte   W03
 .byte   As2 ,v056
 .byte   W03
 .byte   As2 ,v052
 .byte   W03
 .byte   As2 ,v044
 .byte   W03
 .byte   As2 ,v040
 .byte   W03
 .byte   As2 ,v036
 .byte   W03
 .byte   PEND 
@  #08 @018   ----------------------------------------
Label_01015945:
 .byte   W36
 .byte   N17 ,An3 ,v064
 .byte   W18
 .byte   As3
 .byte   W18
 .byte   N02
 .byte   W03
 .byte   N02
 .byte   W03
 .byte   As3 ,v060
 .byte   W03
 .byte   As3 ,v056
 .byte   W03
 .byte   As3 ,v052
 .byte   W03
 .byte   As3 ,v044
 .byte   W03
 .byte   As3 ,v040
 .byte   W03
 .byte   As3 ,v036
 .byte   W03
 .byte   PEND 
@  #08 @019   ----------------------------------------
Label_01015963:
 .byte   N17 ,Gn3 ,v064
 .byte   W18
 .byte   Fs3
 .byte   W18
 .byte   N03 ,Fn3
 .byte   W03
 .byte   N02
 .byte   W03
 .byte   N02
 .byte   W03
 .byte   N02
 .byte   W03
 .byte   N02
 .byte   W03
 .byte   N02
 .byte   W03
 .byte   N02
 .byte   W03
 .byte   N02
 .byte   W03
 .byte   Fn3 ,v056
 .byte   W03
 .byte   Fn3 ,v044
 .byte   W03
 .byte   N01 ,Fn3 ,v016
 .byte   W01
 .byte   N01
 .byte   W01
 .byte   N01
 .byte   W01
 .byte   N02 ,Fn3 ,v036
 .byte   W03
 .byte   N02
 .byte   W03
 .byte   N02
 .byte   W21
 .byte   PEND 
@  #08 @020   ----------------------------------------
Label_01015991:
 .byte   N02 ,Ds3 ,v036
 .byte   W03
 .byte   N02
 .byte   W03
 .byte   N02
 .byte   W03
 .byte   N02
 .byte   W03
 .byte   N02
 .byte   W03
 .byte   N02
 .byte   W03
 .byte   N02
 .byte   W03
 .byte   Ds3 ,v040
 .byte   W03
 .byte   N02
 .byte   W03
 .byte   N02
 .byte   W03
 .byte   N02
 .byte   W03
 .byte   Ds3 ,v044
 .byte   W03
 .byte   N02
 .byte   W03
 .byte   N02
 .byte   W03
 .byte   N02
 .byte   W03
 .byte   Ds3 ,v048
 .byte   W03
 .byte   N02
 .byte   W03
 .byte   N02
 .byte   W03
 .byte   N02
 .byte   W03
 .byte   Ds3 ,v052
 .byte   W03
 .byte   N02
 .byte   W03
 .byte   N02
 .byte   W03
 .byte   N02
 .byte   W03
 .byte   Ds3 ,v048
 .byte   W03
 .byte   N02
 .byte   W03
 .byte   N02
 .byte   W03
 .byte   Ds3 ,v044
 .byte   W03
 .byte   N02
 .byte   W03
 .byte   Ds3 ,v040
 .byte   W03
 .byte   N02
 .byte   W03
 .byte   N02
 .byte   W03
 .byte   Ds3 ,v036
 .byte   W03
 .byte   PEND 
@  #08 @021   ----------------------------------------
Label_010159DC:
 .byte   N02 ,Dn3 ,v036
 .byte   W03
 .byte   N02
 .byte   W03
 .byte   N02
 .byte   W03
 .byte   N02
 .byte   W03
 .byte   N02
 .byte   W03
 .byte   N02
 .byte   W03
 .byte   N02
 .byte   W03
 .byte   Dn3 ,v040
 .byte   W03
 .byte   N02
 .byte   W03
 .byte   N02
 .byte   W03
 .byte   N02
 .byte   W03
 .byte   Dn3 ,v044
 .byte   W03
 .byte   Fn3
 .byte   W03
 .byte   N02
 .byte   W03
 .byte   N02
 .byte   W03
 .byte   Fn3 ,v048
 .byte   W03
 .byte   N02
 .byte   W03
 .byte   N02
 .byte   W03
 .byte   Dn3
 .byte   W03
 .byte   Dn3 ,v052
 .byte   W03
 .byte   N02
 .byte   W03
 .byte   N02
 .byte   W03
 .byte   N02
 .byte   W03
 .byte   Dn3 ,v048
 .byte   W03
 .byte   N02
 .byte   W03
 .byte   N02
 .byte   W03
 .byte   Dn3 ,v044
 .byte   W03
 .byte   N02
 .byte   W03
 .byte   Dn3 ,v040
 .byte   W03
 .byte   N02
 .byte   W03
 .byte   N02
 .byte   W03
 .byte   Dn3 ,v036
 .byte   W03
 .byte   PEND 
@  #08 @022   ----------------------------------------
Label_01015A27:
 .byte   N02 ,Ds3 ,v036
 .byte   W03
 .byte   N02
 .byte   W03
 .byte   N02
 .byte   W03
 .byte   N02
 .byte   W03
 .byte   N02
 .byte   W03
 .byte   N02
 .byte   W03
 .byte   N02
 .byte   W03
 .byte   Ds3 ,v040
 .byte   W03
 .byte   N02
 .byte   W03
 .byte   N02
 .byte   W03
 .byte   N02
 .byte   W03
 .byte   Ds3 ,v044
 .byte   W03
 .byte   Fn3
 .byte   W03
 .byte   N02
 .byte   W03
 .byte   N02
 .byte   W03
 .byte   Fn3 ,v048
 .byte   W03
 .byte   N02
 .byte   W03
 .byte   N02
 .byte   W03
 .byte   N02
 .byte   W03
 .byte   Fn3 ,v052
 .byte   W03
 .byte   N02
 .byte   W03
 .byte   N02
 .byte   W03
 .byte   N02
 .byte   W03
 .byte   Fn3 ,v048
 .byte   W03
 .byte   Fn3 ,v044
 .byte   W03
 .byte   Fn3 ,v040
 .byte   W03
 .byte   Fn3 ,v036
 .byte   W03
 .byte   N02
 .byte   W03
 .byte   Fn3 ,v032
 .byte   W03
 .byte   Fn3 ,v028
 .byte   W03
 .byte   Fn3 ,v024
 .byte   W03
 .byte   Fn3 ,v020
 .byte   W03
 .byte   PEND 
@  #08 @023   ----------------------------------------
Label_01015A76:
 .byte   N02 ,Cn4 ,v016
 .byte   W03
 .byte   N02
 .byte   W03
 .byte   Cn4 ,v020
 .byte   W03
 .byte   N02
 .byte   W03
 .byte   N02
 .byte   W03
 .byte   N02
 .byte   W03
 .byte   Cn4 ,v024
 .byte   W03
 .byte   N02
 .byte   W03
 .byte   N02
 .byte   W03
 .byte   N02
 .byte   W03
 .byte   Cn4 ,v028
 .byte   W03
 .byte   N02
 .byte   W03
 .byte   N02
 .byte   W03
 .byte   N02
 .byte   W03
 .byte   Cn4 ,v032
 .byte   W03
 .byte   N02
 .byte   W03
 .byte   N02
 .byte   W03
 .byte   N02
 .byte   W03
 .byte   As3 ,v036
 .byte   W03
 .byte   N02
 .byte   W03
 .byte   N02
 .byte   W03
 .byte   N02
 .byte   W03
 .byte   N02
 .byte   W03
 .byte   N02
 .byte   W03
 .byte   N05 ,An3 ,v080
 .byte   N02 ,As3 ,v036
 .byte   W03
 .byte   N02
 .byte   W03
 .byte   N02
 .byte   W03
 .byte   N02
 .byte   W03
 .byte   N02
 .byte   N11 ,Cn4 ,v080
 .byte   W03
 .byte   N02 ,As3 ,v036
 .byte   W03
 .byte   N02
 .byte   W03
 .byte   N02
 .byte   W03
 .byte   PEND 
@  #08 @024   ----------------------------------------
Label_01015AC8:
 .byte   N02 ,Gn3 ,v036
 .byte   N17 ,Dn4 ,v080
 .byte   W03
 .byte   N02 ,Gn3 ,v036
 .byte   W03
 .byte   N02
 .byte   W03
 .byte   N02
 .byte   W03
 .byte   N02
 .byte   W03
 .byte   N02
 .byte   W03
 .byte   N02
 .byte   W03
 .byte   Gn3 ,v040
 .byte   W03
 .byte   N02
 .byte   W03
 .byte   N02
 .byte   W03
 .byte   N02
 .byte   W03
 .byte   Gn3 ,v044
 .byte   W03
 .byte   N02
 .byte   N17 ,Dn4 ,v080
 .byte   W03
 .byte   N02 ,Gn3 ,v044
 .byte   W03
 .byte   N02
 .byte   W03
 .byte   Gn3 ,v048
 .byte   W03
 .byte   N02
 .byte   W03
 .byte   N02
 .byte   W03
 .byte   N02
 .byte   W03
 .byte   Gn3 ,v052
 .byte   W03
 .byte   N02
 .byte   W03
 .byte   N02
 .byte   W03
 .byte   N02
 .byte   W03
 .byte   Gn3 ,v048
 .byte   W03
 .byte   N02
 .byte   N05 ,Dn4 ,v080
 .byte   W03
 .byte   N02 ,Gn3 ,v048
 .byte   W03
 .byte   Gn3 ,v044
 .byte   N05 ,Ds4 ,v080
 .byte   W03
 .byte   N02 ,Gn3 ,v044
 .byte   W03
 .byte   Gn3 ,v040
 .byte   N11 ,Dn4 ,v080
 .byte   W03
 .byte   N02 ,Gn3 ,v040
 .byte   W03
 .byte   N02
 .byte   W03
 .byte   Gn3 ,v036
 .byte   W03
 .byte   PEND 
@  #08 @025   ----------------------------------------
Label_01015B2C:
 .byte   N02 ,Fn3 ,v036
 .byte   N17 ,Cn4 ,v080
 .byte   W03
 .byte   N02 ,Fn3 ,v036
 .byte   W03
 .byte   N02
 .byte   W03
 .byte   N02
 .byte   W03
 .byte   N02
 .byte   W03
 .byte   N02
 .byte   W03
 .byte   N02
 .byte   W03
 .byte   Fn3 ,v040
 .byte   W03
 .byte   N02
 .byte   W03
 .byte   N02
 .byte   W03
 .byte   N02
 .byte   W03
 .byte   Fn3 ,v044
 .byte   W03
 .byte   N02
 .byte   N17 ,Cn4 ,v080
 .byte   W03
 .byte   N02 ,Fn3 ,v044
 .byte   W03
 .byte   N02
 .byte   W03
 .byte   Fn3 ,v048
 .byte   W03
 .byte   N02
 .byte   W03
 .byte   N02
 .byte   W03
 .byte   Dn3
 .byte   N17 ,As3 ,v080
 .byte   W03
 .byte   N02 ,Dn3 ,v052
 .byte   W03
 .byte   N02
 .byte   W03
 .byte   N02
 .byte   W03
 .byte   N02
 .byte   W03
 .byte   N02
 .byte   W03
 .byte   N02
 .byte   N05 ,An3 ,v080
 .byte   W03
 .byte   N02 ,Dn3 ,v052
 .byte   W03
 .byte   N02
 .byte   N05 ,As3 ,v080
 .byte   W03
 .byte   N02 ,Dn3 ,v052
 .byte   W03
 .byte   N02
 .byte   N11 ,Cn4 ,v080
 .byte   W03
 .byte   N02 ,Dn3 ,v052
 .byte   W03
 .byte   N02
 .byte   W03
 .byte   N02
 .byte   W03
 .byte   PEND 
@  #08 @026   ----------------------------------------
Label_01015B90:
 .byte   N17 ,Dn4 ,v080
 .byte   W18
 .byte   Gn3
 .byte   W18
 .byte   Dn4
 .byte   W18
 .byte   Fs3
 .byte   W18
 .byte   N05 ,Dn4
 .byte   W06
 .byte   Ds4
 .byte   W06
 .byte   N11 ,Dn4
 .byte   W12
 .byte   PEND 
@  #08 @027   ----------------------------------------
Label_01015BA3:
 .byte   N17 ,Cn4 ,v080
 .byte   W18
 .byte   Fn4
 .byte   W18
 .byte   Cn4
 .byte   W18
 .byte   As3
 .byte   W42
 .byte   PEND 
@  #08 @028   ----------------------------------------
 .byte   TIE ,Cn3 ,v064
 .byte   W96
@  #08 @029   ----------------------------------------
 .byte   W92
 .byte   W03
 .byte   EOT
 .byte   W01
@  #08 @030   ----------------------------------------
 .byte   TIE ,Dn3
 .byte   W96
@  #08 @031   ----------------------------------------
 .byte   W92
 .byte   W03
 .byte   EOT
 .byte   W01
@  #08 @032   ----------------------------------------
 .byte   TIE ,Cn3
 .byte   W96
@  #08 @033   ----------------------------------------
 .byte   W92
 .byte   W03
 .byte   EOT
 .byte   W01
@  #08 @034   ----------------------------------------
 .byte   TIE ,Cn3 ,v060
 .byte   W96
@  #08 @035   ----------------------------------------
 .byte   W92
 .byte   W03
 .byte   EOT
 .byte   W01
@  #08 @036   ----------------------------------------
 .byte   N92 ,Ds3
 .byte   W96
@  #08 @037   ----------------------------------------
 .byte   Gs3 ,v068
 .byte   W96
@  #08 @038   ----------------------------------------
 .byte   TIE ,Cs3 ,v060
 .byte   W96
@  #08 @039   ----------------------------------------
 .byte   W92
 .byte   W03
 .byte   EOT
 .byte   W01
@  #08 @040   ----------------------------------------
 .byte   TIE ,An2
 .byte   W96
@  #08 @041   ----------------------------------------
 .byte   W92
 .byte   W03
 .byte   EOT
 .byte   W01
@  #08 @042   ----------------------------------------
 .byte   TIE ,Cn3
 .byte   W96
@  #08 @043   ----------------------------------------
 .byte   W92
 .byte   W03
 .byte   EOT
 .byte   W01
@  #08 @044   ----------------------------------------
 .byte   W96
@  #08 @045   ----------------------------------------
 .byte   W96
@  #08 @046   ----------------------------------------
 .byte   W96
@  #08 @047   ----------------------------------------
 .byte   W96
@  #08 @048   ----------------------------------------
Label_01015BEC:
 .byte   N32 ,As3 ,v064
 .byte   W36
 .byte   An3
 .byte   W36
 .byte   N02
 .byte   W03
 .byte   N02
 .byte   W03
 .byte   An3 ,v060
 .byte   W03
 .byte   An3 ,v056
 .byte   W03
 .byte   An3 ,v052
 .byte   W03
 .byte   An3 ,v044
 .byte   W03
 .byte   An3 ,v040
 .byte   W03
 .byte   An3 ,v036
 .byte   W03
 .byte   PEND 
@  #08 @049   ----------------------------------------
Label_01015C09:
 .byte   N32 ,Gn3 ,v064
 .byte   W36
 .byte   N17 ,Fn3
 .byte   W18
 .byte   N02
 .byte   W03
 .byte   N02
 .byte   W03
 .byte   Fn3 ,v060
 .byte   W03
 .byte   N02
 .byte   W03
 .byte   Fn3 ,v056
 .byte   W03
 .byte   N02
 .byte   W03
 .byte   Fn3 ,v052
 .byte   W03
 .byte   Fn3 ,v048
 .byte   W03
 .byte   N02
 .byte   W03
 .byte   Fn3 ,v044
 .byte   W03
 .byte   N02
 .byte   W03
 .byte   Fn3 ,v040
 .byte   W03
 .byte   Fn3 ,v036
 .byte   W03
 .byte   N02
 .byte   W03
 .byte   PEND 
@  #08 @050   ----------------------------------------
Label_01015C34:
 .byte   N32 ,Ds3 ,v064
 .byte   W36
 .byte   Fn3 ,v080
 .byte   W36
 .byte   N02
 .byte   W03
 .byte   N02
 .byte   W03
 .byte   Fn3 ,v076
 .byte   W03
 .byte   Fn3 ,v068
 .byte   W03
 .byte   Fn3 ,v060
 .byte   W03
 .byte   Fn3 ,v052
 .byte   W03
 .byte   Fn3 ,v044
 .byte   W03
 .byte   Fn3 ,v036
 .byte   W03
 .byte   PEND 
@  #08 @051   ----------------------------------------
Label_01015C52:
 .byte   N17 ,Dn4 ,v080
 .byte   W18
 .byte   Cn4
 .byte   W18
 .byte   N17
 .byte   W03
 .byte   N02 ,As3
 .byte   W03
 .byte   N02
 .byte   W03
 .byte   N02
 .byte   W03
 .byte   N02
 .byte   W03
 .byte   N02
 .byte   W03
 .byte   N02
 .byte   W03
 .byte   N02
 .byte   W03
 .byte   As3 ,v068
 .byte   W03
 .byte   As3 ,v052
 .byte   W03
 .byte   N01 ,As3 ,v016
 .byte   W01
 .byte   N01
 .byte   W01
 .byte   N01
 .byte   W01
 .byte   N02 ,As3 ,v036
 .byte   W24
 .byte   W03
 .byte   PEND 
@  #08 @052   ----------------------------------------
Label_01015C7D:
 .byte   N32 ,Ds3 ,v096
 .byte   N03 ,Gn4 ,v032
 .byte   W03
 .byte   N02 ,Gn4 ,v064
 .byte   W03
 .byte   N02
 .byte   W03
 .byte   N02
 .byte   W03
 .byte   N02
 .byte   W03
 .byte   N02
 .byte   W03
 .byte   N02
 .byte   W03
 .byte   N02
 .byte   W03
 .byte   N02
 .byte   W03
 .byte   N02
 .byte   W03
 .byte   N02
 .byte   W03
 .byte   N02
 .byte   W03
 .byte   N56 ,Ds3 ,v096
 .byte   N02 ,Gn4 ,v064
 .byte   W03
 .byte   N02
 .byte   W03
 .byte   N02
 .byte   W03
 .byte   N02
 .byte   W03
 .byte   N44
 .byte   W48
 .byte   PEND 
@  #08 @053   ----------------------------------------
Label_01015CAC:
 .byte   N32 ,Dn3 ,v096
 .byte   N03 ,Fn4 ,v020
 .byte   W03
 .byte   N02 ,Fn4 ,v036
 .byte   W03
 .byte   Fn4 ,v040
 .byte   W03
 .byte   Fn4 ,v044
 .byte   W03
 .byte   Fn4 ,v048
 .byte   W03
 .byte   Fn4 ,v052
 .byte   W03
 .byte   Fn4 ,v056
 .byte   W03
 .byte   Fn4 ,v060
 .byte   W03
 .byte   Fn4 ,v064
 .byte   W03
 .byte   Fn4 ,v068
 .byte   W03
 .byte   Fn4 ,v072
 .byte   W03
 .byte   Fn4 ,v076
 .byte   W03
 .byte   N17 ,Fn3 ,v080
 .byte   N02 ,Fn4
 .byte   W03
 .byte   Fn4 ,v084
 .byte   W03
 .byte   Fn4 ,v088
 .byte   W03
 .byte   Fn4 ,v092
 .byte   W03
 .byte   Fn4 ,v096
 .byte   W03
 .byte   N02
 .byte   W03
 .byte   N11 ,Dn3 ,v080
 .byte   N02 ,Dn4 ,v096
 .byte   W03
 .byte   N02
 .byte   W03
 .byte   Dn4 ,v092
 .byte   W03
 .byte   Dn4 ,v088
 .byte   W03
 .byte   N28 ,Dn3 ,v064
 .byte   N02 ,Dn4 ,v084
 .byte   W03
 .byte   Dn4 ,v076
 .byte   W03
 .byte   Dn4 ,v072
 .byte   W03
 .byte   Dn4 ,v068
 .byte   W03
 .byte   Dn4 ,v060
 .byte   W03
 .byte   Dn4 ,v056
 .byte   W03
 .byte   Dn4 ,v052
 .byte   W03
 .byte   Dn4 ,v044
 .byte   W03
 .byte   Dn4 ,v040
 .byte   W03
 .byte   Dn4 ,v036
 .byte   W03
 .byte   PEND 
@  #08 @054   ----------------------------------------
Label_01015D1B:
 .byte   N32 ,Ds3 ,v096
 .byte   N02 ,Fn4 ,v036
 .byte   W03
 .byte   N02
 .byte   W03
 .byte   Fn4 ,v040
 .byte   W03
 .byte   Fn4 ,v044
 .byte   W03
 .byte   Fn4 ,v048
 .byte   W03
 .byte   Fn4 ,v052
 .byte   W03
 .byte   Fn4 ,v056
 .byte   W03
 .byte   Fn4 ,v060
 .byte   W03
 .byte   Fn4 ,v064
 .byte   W03
 .byte   Fn4 ,v068
 .byte   W03
 .byte   Fn4 ,v072
 .byte   W03
 .byte   Fn4 ,v076
 .byte   W03
 .byte   N56 ,Fn3 ,v096
 .byte   N02 ,Fn4 ,v080
 .byte   W03
 .byte   N02
 .byte   W03
 .byte   N02
 .byte   W03
 .byte   N02
 .byte   W03
 .byte   N44
 .byte   W48
 .byte   PEND 
@  #08 @055   ----------------------------------------
Label_01015D52:
 .byte   N32 ,Gn3 ,v096
 .byte   N17 ,An4 ,v064
 .byte   W18
 .byte   Fn4
 .byte   W18
 .byte   N32 ,Gn3 ,v096
 .byte   N56 ,Dn4 ,v052
 .byte   W36
 .byte   N23 ,En3 ,v096
 .byte   W24
 .byte   PEND 
@  #08 @056   ----------------------------------------
Label_01015D67:
 .byte   N32 ,Ds3 ,v096
 .byte   N03 ,Gn4 ,v020
 .byte   N92 ,Gn5 ,v036
 .byte   W03
 .byte   N02 ,Gn4
 .byte   W03
 .byte   N02
 .byte   W03
 .byte   Gn4 ,v040
 .byte   W03
 .byte   N02
 .byte   W03
 .byte   Gn4 ,v044
 .byte   W03
 .byte   N02
 .byte   W03
 .byte   Gn4 ,v048
 .byte   W03
 .byte   N02
 .byte   W03
 .byte   Gn4 ,v052
 .byte   W03
 .byte   N02
 .byte   W03
 .byte   Gn4 ,v056
 .byte   W03
 .byte   N56 ,Ds3 ,v096
 .byte   N02 ,Gn4 ,v056
 .byte   W03
 .byte   Gn4 ,v060
 .byte   W03
 .byte   N02
 .byte   W03
 .byte   Gn4 ,v064
 .byte   W03
 .byte   N44
 .byte   W48
 .byte   PEND 
@  #08 @057   ----------------------------------------
Label_01015D9F:
 .byte   N32 ,Dn3 ,v096
 .byte   N52 ,Fn4 ,v080
 .byte   W36
 .byte   N17 ,Fn3
 .byte   W18
 .byte   N11 ,Dn3
 .byte   N40 ,Dn4
 .byte   W12
 .byte   N28 ,Dn3 ,v064
 .byte   W30
 .byte   PEND 
@  #08 @058   ----------------------------------------
Label_01015DB3:
 .byte   N32 ,Gn3 ,v080
 .byte   N02 ,Cn4 ,v036
 .byte   W03
 .byte   N02
 .byte   W03
 .byte   Cn4 ,v040
 .byte   W03
 .byte   N02
 .byte   W03
 .byte   Cn4 ,v044
 .byte   W03
 .byte   Cn4 ,v048
 .byte   W03
 .byte   N02
 .byte   W03
 .byte   Cn4 ,v052
 .byte   W03
 .byte   Cn4 ,v056
 .byte   W03
 .byte   N02
 .byte   W03
 .byte   Cn4 ,v060
 .byte   W03
 .byte   Cn4 ,v064
 .byte   W03
 .byte   N56 ,Fs3 ,v080
 .byte   N02 ,Cn4 ,v064
 .byte   W03
 .byte   N02
 .byte   W03
 .byte   N02
 .byte   W03
 .byte   N02
 .byte   W03
 .byte   N44
 .byte   W48
 .byte   PEND 
@  #08 @059   ----------------------------------------
Label_01015DE7:
 .byte   N32 ,Gn3 ,v080
 .byte   N52 ,Cn4 ,v064
 .byte   W36
 .byte   N56 ,Gn3 ,v080
 .byte   W18
 .byte   N40 ,As3 ,v064
 .byte   W42
 .byte   PEND 
@  #08 @060   ----------------------------------------
 .byte   W96
@  #08 @061   ----------------------------------------
 .byte   W96
@  #08 @062   ----------------------------------------
 .byte   W96
@  #08 @063   ----------------------------------------
 .byte   W96
@  #08 @064   ----------------------------------------
 .byte   W96
@  #08 @065   ----------------------------------------
 .byte   PATT
  .word Label_01015831
@  #08 @066   ----------------------------------------
 .byte   PATT
  .word Label_0101583F
@  #08 @067   ----------------------------------------
 .byte   PATT
  .word Label_0101584D
@  #08 @068   ----------------------------------------
 .byte   PATT
  .word Label_01015855
@  #08 @069   ----------------------------------------
 .byte   PATT
  .word Label_01015865
@  #08 @070   ----------------------------------------
 .byte   PATT
  .word Label_01015879
@  #08 @071   ----------------------------------------
 .byte   PATT
  .word Label_0101588A
@  #08 @072   ----------------------------------------
 .byte   PATT
  .word Label_010158A0
@  #08 @073   ----------------------------------------
 .byte   PATT
  .word Label_010158B5
@  #08 @074   ----------------------------------------
 .byte   PATT
  .word Label_010158D5
@  #08 @075   ----------------------------------------
 .byte   PATT
  .word Label_010158B5
@  #08 @076   ----------------------------------------
 .byte   PATT
  .word Label_01015903
@  #08 @077   ----------------------------------------
 .byte   PATT
  .word Label_010158B5
@  #08 @078   ----------------------------------------
 .byte   PATT
  .word Label_01015925
@  #08 @079   ----------------------------------------
 .byte   PATT
  .word Label_01015945
@  #08 @080   ----------------------------------------
 .byte   PATT
  .word Label_01015963
@  #08 @081   ----------------------------------------
 .byte   PATT
  .word Label_01015991
@  #08 @082   ----------------------------------------
 .byte   PATT
  .word Label_010159DC
@  #08 @083   ----------------------------------------
 .byte   PATT
  .word Label_01015A27
@  #08 @084   ----------------------------------------
 .byte   PATT
  .word Label_01015A76
@  #08 @085   ----------------------------------------
 .byte   PATT
  .word Label_01015AC8
@  #08 @086   ----------------------------------------
 .byte   PATT
  .word Label_01015B2C
@  #08 @087   ----------------------------------------
 .byte   PATT
  .word Label_01015B90
@  #08 @088   ----------------------------------------
 .byte   PATT
  .word Label_01015BA3
@  #08 @089   ----------------------------------------
 .byte   TIE ,Cn3 ,v064
 .byte   W96
@  #08 @090   ----------------------------------------
 .byte   W92
 .byte   W03
 .byte   EOT
 .byte   W01
@  #08 @091   ----------------------------------------
 .byte   TIE ,Dn3
 .byte   W96
@  #08 @092   ----------------------------------------
 .byte   W92
 .byte   W03
 .byte   EOT
 .byte   W01
@  #08 @093   ----------------------------------------
 .byte   TIE ,Cn3
 .byte   W96
@  #08 @094   ----------------------------------------
 .byte   W92
 .byte   W03
 .byte   EOT
 .byte   W01
@  #08 @095   ----------------------------------------
 .byte   TIE ,Cn3 ,v060
 .byte   W96
@  #08 @096   ----------------------------------------
 .byte   W92
 .byte   W03
 .byte   EOT
 .byte   W01
@  #08 @097   ----------------------------------------
 .byte   N92 ,Ds3
 .byte   W96
@  #08 @098   ----------------------------------------
 .byte   Gs3 ,v068
 .byte   W96
@  #08 @099   ----------------------------------------
 .byte   TIE ,Cs3 ,v060
 .byte   W96
@  #08 @100   ----------------------------------------
 .byte   W92
 .byte   W03
 .byte   EOT
 .byte   W01
@  #08 @101   ----------------------------------------
 .byte   TIE ,An2
 .byte   W96
@  #08 @102   ----------------------------------------
 .byte   W92
 .byte   W03
 .byte   EOT
 .byte   W01
@  #08 @103   ----------------------------------------
 .byte   TIE ,Cn3
 .byte   W96
@  #08 @104   ----------------------------------------
 .byte   W92
 .byte   W03
 .byte   EOT
 .byte   W01
@  #08 @105   ----------------------------------------
 .byte   W96
@  #08 @106   ----------------------------------------
 .byte   W96
@  #08 @107   ----------------------------------------
 .byte   W96
@  #08 @108   ----------------------------------------
 .byte   W96
@  #08 @109   ----------------------------------------
 .byte   PATT
  .word Label_01015BEC
@  #08 @110   ----------------------------------------
 .byte   PATT
  .word Label_01015C09
@  #08 @111   ----------------------------------------
 .byte   PATT
  .word Label_01015C34
@  #08 @112   ----------------------------------------
 .byte   PATT
  .word Label_01015C52
@  #08 @113   ----------------------------------------
 .byte   PATT
  .word Label_01015C7D
@  #08 @114   ----------------------------------------
 .byte   PATT
  .word Label_01015CAC
@  #08 @115   ----------------------------------------
 .byte   PATT
  .word Label_01015D1B
@  #08 @116   ----------------------------------------
 .byte   PATT
  .word Label_01015D52
@  #08 @117   ----------------------------------------
 .byte   PATT
  .word Label_01015D67
@  #08 @118   ----------------------------------------
 .byte   PATT
  .word Label_01015D9F
@  #08 @119   ----------------------------------------
 .byte   PATT
  .word Label_01015DB3
@  #08 @120   ----------------------------------------
 .byte   PATT
  .word Label_01015DE7
@  #08 @121   ----------------------------------------
 .byte   W96
@  #08 @122   ----------------------------------------
 .byte   GOTO
  .word Label_0101582D
 .byte   FINE

@**************** Track 9 (Midi-Chn.8) ****************@

song06_009:
@  #09 @000   ----------------------------------------
 .byte   KEYSH , song06_key+0
 .byte   VOICE , 1
 .byte   VOL , 62*song06_mvl/mxv
 .byte   PAN , c_v+0
 .byte   VOL , 62*song06_mvl/mxv
 .byte   PAN , c_v+0
 .byte   W12
Label_01015F05:
 .byte   N11 ,Gn1 ,v080
 .byte   W12
 .byte   Dn2
 .byte   W12
 .byte   An2
 .byte   N11 ,As2
 .byte   N11 ,Fn3 ,v116
 .byte   W12
 .byte   N44 ,En1 ,v080
 .byte   N44 ,Dn3 ,v096
 .byte   W60
 .byte   PEND 
@  #09 @001   ----------------------------------------
Label_01015F1A:
 .byte   N11 ,Ds1 ,v080
 .byte   N32 ,Dn3
 .byte   W12
 .byte   N11 ,Ds2
 .byte   W12
 .byte   Gn2
 .byte   W12
 .byte   N44 ,Fn1
 .byte   N44 ,Cn2
 .byte   N44 ,Fn2
 .byte   N22 ,As2 ,v064
 .byte   N22 ,Cn3 ,v104
 .byte   W36
 .byte   N02 ,Fn4 ,v080
 .byte   N23 ,As4
 .byte   W03
 .byte   N20 ,Cn5
 .byte   W21
 .byte   PEND 
@  #09 @002   ----------------------------------------
Label_01015F3C:
 .byte   N11 ,Gn1 ,v080
 .byte   W12
 .byte   Dn2
 .byte   W12
 .byte   An2
 .byte   N11 ,As2
 .byte   N11 ,Fn3 ,v096
 .byte   W12
 .byte   N44 ,En1 ,v080
 .byte   N44 ,Dn3
 .byte   W60
 .byte   PEND 
@  #09 @003   ----------------------------------------
Label_01015F50:
 .byte   N11 ,Cn1 ,v080
 .byte   N32 ,Ds3 ,v116
 .byte   W12
 .byte   N11 ,As1 ,v080
 .byte   W12
 .byte   Gn2
 .byte   W12
 .byte   N22 ,Dn1
 .byte   N22 ,An1
 .byte   N22 ,Cn2
 .byte   N23 ,Cn3 ,v096
 .byte   N23 ,Fn3 ,v116
 .byte   W24
 .byte   N32 ,Dn2 ,v080
 .byte   W12
 .byte   N23 ,As3 ,v096
 .byte   W24
 .byte   PEND 
@  #09 @004   ----------------------------------------
Label_01015F73:
 .byte   N11 ,Gn1 ,v080
 .byte   N02 ,An3 ,v064
 .byte   W02
 .byte   N30 ,As3 ,v080
 .byte   W10
 .byte   N11 ,Dn2
 .byte   W12
 .byte   An2
 .byte   N11 ,As2
 .byte   W12
 .byte   N44 ,En1
 .byte   N02 ,Fs3 ,v064
 .byte   W02
 .byte   N30 ,Gn3 ,v080
 .byte   W56
 .byte   W02
 .byte   PEND 
@  #09 @005   ----------------------------------------
 .byte   PATT
  .word Label_01015F1A
@  #09 @006   ----------------------------------------
 .byte   PATT
  .word Label_01015F3C
@  #09 @007   ----------------------------------------
 .byte   PATT
  .word Label_01015F50
@  #09 @008   ----------------------------------------
 .byte   PATT
  .word Label_01015F73
@  #09 @009   ----------------------------------------
 .byte   PATT
  .word Label_01015F1A
@  #09 @010   ----------------------------------------
Label_01015FAA:
 .byte   N11 ,Gn1 ,v080
 .byte   W12
 .byte   Dn2
 .byte   W12
 .byte   An2
 .byte   N11 ,As2
 .byte   N11 ,Fn3 ,v096
 .byte   W12
 .byte   N44 ,Ds1 ,v080
 .byte   N44 ,Ds2
 .byte   N44 ,Dn3
 .byte   W60
 .byte   PEND 
@  #09 @011   ----------------------------------------
Label_01015FC0:
 .byte   N11 ,Cn2 ,v080
 .byte   N23 ,Ds3 ,v116
 .byte   W12
 .byte   N11 ,As2 ,v088
 .byte   W12
 .byte   Gn3 ,v096
 .byte   W12
 .byte   N22 ,Dn2
 .byte   N22 ,An2
 .byte   N22 ,Dn3
 .byte   N23 ,Fs3 ,v104
 .byte   N23 ,Fn4 ,v127
 .byte   W24
 .byte   N32 ,Dn2 ,v096
 .byte   W12
 .byte   N11 ,As3 ,v080
 .byte   N11 ,Ds4 ,v096
 .byte   W12
 .byte   An3 ,v116
 .byte   W12
 .byte   PEND 
@  #09 @012   ----------------------------------------
Label_01015FEA:
 .byte   N17 ,Gn3 ,v096
 .byte   N17 ,As3
 .byte   W06
 .byte   N05 ,An4 ,v072
 .byte   W06
 .byte   As4
 .byte   W06
 .byte   N17 ,Fn4 ,v096
 .byte   N05 ,Fn5 ,v072
 .byte   W06
 .byte   An4
 .byte   W06
 .byte   As4
 .byte   W06
 .byte   N17 ,Fn3 ,v096
 .byte   N17 ,Cn4
 .byte   N05 ,Fn5 ,v072
 .byte   W06
 .byte   An4
 .byte   W06
 .byte   As4
 .byte   W06
 .byte   N22 ,Dn4 ,v096
 .byte   N05 ,Fn5 ,v072
 .byte   W06
 .byte   An4
 .byte   W06
 .byte   As4
 .byte   W06
 .byte   Fn5
 .byte   W06
 .byte   An4
 .byte   W06
 .byte   N11 ,Gn3 ,v096
 .byte   N05 ,As4 ,v072
 .byte   W06
 .byte   Fn5
 .byte   W06
 .byte   PEND 
@  #09 @013   ----------------------------------------
Label_01016027:
 .byte   N17 ,Gn3 ,v096
 .byte   N17 ,As3
 .byte   W06
 .byte   N05 ,An4 ,v072
 .byte   W06
 .byte   As4
 .byte   W06
 .byte   N17 ,Fn4 ,v096
 .byte   N05 ,Fn5 ,v072
 .byte   W06
 .byte   An4
 .byte   W06
 .byte   As4
 .byte   W06
 .byte   N17 ,Fn3 ,v096
 .byte   N17 ,Cn4
 .byte   N05 ,Fn5 ,v072
 .byte   W06
 .byte   An4
 .byte   W06
 .byte   As4
 .byte   W06
 .byte   N22 ,As3 ,v096
 .byte   N05 ,Fn5 ,v072
 .byte   W06
 .byte   An4
 .byte   W06
 .byte   As4
 .byte   W06
 .byte   Fn5
 .byte   W06
 .byte   An4
 .byte   W06
 .byte   N11 ,Gn3 ,v096
 .byte   N05 ,As4 ,v072
 .byte   W06
 .byte   Fn5
 .byte   W06
 .byte   PEND 
@  #09 @014   ----------------------------------------
Label_01016064:
 .byte   N17 ,Gn3 ,v096
 .byte   N17 ,As3
 .byte   W06
 .byte   N05 ,An4 ,v072
 .byte   W06
 .byte   As4
 .byte   W06
 .byte   N17 ,Fn4 ,v096
 .byte   N05 ,Fn5 ,v072
 .byte   W06
 .byte   An4
 .byte   W06
 .byte   As4
 .byte   W06
 .byte   N17 ,Fn3 ,v096
 .byte   N17 ,Cn4
 .byte   N05 ,Fn5 ,v072
 .byte   W06
 .byte   An4
 .byte   W06
 .byte   As4
 .byte   W06
 .byte   N22 ,Dn4 ,v096
 .byte   N05 ,Fn5 ,v072
 .byte   W06
 .byte   An4
 .byte   W06
 .byte   As4
 .byte   W06
 .byte   Fn5
 .byte   W06
 .byte   An4
 .byte   W06
 .byte   N11 ,As3 ,v096
 .byte   N05 ,As4 ,v072
 .byte   W06
 .byte   Fn5
 .byte   W06
 .byte   PEND 
@  #09 @015   ----------------------------------------
Label_010160A1:
 .byte   N17 ,Fn4 ,v096
 .byte   W06
 .byte   N05 ,As3 ,v088
 .byte   W06
 .byte   Gn3
 .byte   W06
 .byte   N17 ,Ds4 ,v096
 .byte   W06
 .byte   N05 ,As3 ,v088
 .byte   W06
 .byte   Gn3
 .byte   W06
 .byte   N17 ,Dn4 ,v096
 .byte   W06
 .byte   N05 ,An3 ,v088
 .byte   W06
 .byte   Fs3
 .byte   W06
 .byte   N22 ,Cn4 ,v096
 .byte   W30
 .byte   N11 ,An3
 .byte   W12
 .byte   PEND 
@  #09 @016   ----------------------------------------
 .byte   PATT
  .word Label_01015FEA
@  #09 @017   ----------------------------------------
 .byte   PATT
  .word Label_01016027
@  #09 @018   ----------------------------------------
Label_010160D1:
 .byte   N17 ,Gn3 ,v096
 .byte   N17 ,As3
 .byte   W06
 .byte   N05 ,An4 ,v072
 .byte   W06
 .byte   As4
 .byte   W06
 .byte   N17 ,Fn4 ,v096
 .byte   N05 ,Fn5 ,v072
 .byte   W06
 .byte   An4
 .byte   W06
 .byte   As4
 .byte   W06
 .byte   N17 ,Fn3 ,v096
 .byte   N17 ,Cn4
 .byte   N05 ,Fn5 ,v072
 .byte   W06
 .byte   An4
 .byte   W06
 .byte   As4
 .byte   W06
 .byte   N22 ,Dn4 ,v096
 .byte   N05 ,Fn5 ,v072
 .byte   W06
 .byte   An4
 .byte   W06
 .byte   As4
 .byte   W06
 .byte   Fn5
 .byte   W06
 .byte   An4
 .byte   W06
 .byte   N11 ,Dn4 ,v096
 .byte   N05 ,As4 ,v072
 .byte   W06
 .byte   Fn5
 .byte   W06
 .byte   PEND 
@  #09 @019   ----------------------------------------
Label_0101610E:
 .byte   N17 ,As4 ,v096
 .byte   W06
 .byte   N05 ,Dn4 ,v068
 .byte   W06
 .byte   Cn4
 .byte   W06
 .byte   N17 ,As4 ,v096
 .byte   W06
 .byte   N05 ,Cn4 ,v068
 .byte   W06
 .byte   An3
 .byte   W06
 .byte   N17 ,An4 ,v096
 .byte   W06
 .byte   N05 ,Dn4 ,v068
 .byte   W06
 .byte   An3
 .byte   W06
 .byte   Gn3
 .byte   N17 ,Gn4 ,v096
 .byte   W18
 .byte   N05 ,An4
 .byte   W06
 .byte   As4
 .byte   W06
 .byte   N11 ,Cn5
 .byte   W12
 .byte   PEND 
@  #09 @020   ----------------------------------------
Label_0101613A:
 .byte   N17 ,Ds4 ,v096
 .byte   N17 ,Dn5
 .byte   W18
 .byte   Gn4
 .byte   W18
 .byte   Ds4
 .byte   N17 ,Gn4
 .byte   N17 ,An4
 .byte   N17 ,Dn5
 .byte   W18
 .byte   Gn4
 .byte   W18
 .byte   N05 ,Dn5
 .byte   W06
 .byte   Ds5
 .byte   W06
 .byte   N11 ,Dn5
 .byte   W12
 .byte   PEND 
@  #09 @021   ----------------------------------------
Label_01016155:
 .byte   N17 ,Cn4 ,v096
 .byte   N17 ,Cn5
 .byte   W18
 .byte   Fn4
 .byte   W18
 .byte   Gn4
 .byte   N17 ,Cn5
 .byte   W18
 .byte   As4
 .byte   W18
 .byte   N05 ,An4
 .byte   W06
 .byte   As4
 .byte   W06
 .byte   N11 ,Cn5
 .byte   W12
 .byte   PEND 
@  #09 @022   ----------------------------------------
Label_0101616C:
 .byte   N17 ,Ds4 ,v096
 .byte   N17 ,Dn5
 .byte   W18
 .byte   Gn4
 .byte   W18
 .byte   Ds4
 .byte   N17 ,Gn4
 .byte   N17 ,An4
 .byte   N17 ,Dn5
 .byte   W18
 .byte   Fn4
 .byte   W18
 .byte   N05 ,Dn5
 .byte   W06
 .byte   Ds5
 .byte   W06
 .byte   N11 ,Dn5
 .byte   W12
 .byte   PEND 
@  #09 @023   ----------------------------------------
Label_01016187:
 .byte   N17 ,Dn4 ,v096
 .byte   N17 ,Cn5
 .byte   W18
 .byte   Fn5
 .byte   W18
 .byte   Dn4
 .byte   N17 ,Cn5
 .byte   W18
 .byte   As4
 .byte   W18
 .byte   N05 ,An4
 .byte   W06
 .byte   As4
 .byte   W06
 .byte   N11 ,Cn5
 .byte   W12
 .byte   PEND 
@  #09 @024   ----------------------------------------
Label_0101619E:
 .byte   N32 ,Ds3 ,v080
 .byte   N17 ,Dn5 ,v096
 .byte   W18
 .byte   Gn4
 .byte   W18
 .byte   N32 ,Ds3 ,v080
 .byte   N17 ,Dn5 ,v096
 .byte   W18
 .byte   Gn4
 .byte   W18
 .byte   N05 ,Dn5
 .byte   W06
 .byte   Ds5
 .byte   W06
 .byte   N11 ,Dn5
 .byte   W12
 .byte   PEND 
@  #09 @025   ----------------------------------------
Label_010161B9:
 .byte   N17 ,Cn5 ,v096
 .byte   W18
 .byte   Fn4
 .byte   W18
 .byte   Cn5
 .byte   W18
 .byte   As4
 .byte   W18
 .byte   N05 ,An4
 .byte   W06
 .byte   As4
 .byte   W06
 .byte   N11 ,Cn5
 .byte   W12
 .byte   PEND 
@  #09 @026   ----------------------------------------
Label_010161CC:
 .byte   N17 ,Dn5 ,v096
 .byte   W18
 .byte   Gn4
 .byte   W18
 .byte   Dn5
 .byte   W18
 .byte   Fs4
 .byte   W18
 .byte   N05 ,Dn5
 .byte   W06
 .byte   Ds5
 .byte   W06
 .byte   N11 ,Dn5
 .byte   W12
 .byte   PEND 
@  #09 @027   ----------------------------------------
Label_010161DF:
 .byte   N17 ,Cn5 ,v096
 .byte   W18
 .byte   Fn5
 .byte   W18
 .byte   Cn5
 .byte   W18
 .byte   As4
 .byte   W42
 .byte   PEND 
@  #09 @028   ----------------------------------------
Label_010161EA:
 .byte   N02 ,An2 ,v096
 .byte   W02
 .byte   N20 ,An3
 .byte   W22
 .byte   N22 ,Cn3
 .byte   W24
 .byte   An2
 .byte   W24
 .byte   As2
 .byte   W24
 .byte   PEND 
@  #09 @029   ----------------------------------------
Label_010161F9:
 .byte   N22 ,Fn3 ,v096
 .byte   W24
 .byte   Cn3
 .byte   W24
 .byte   Dn3
 .byte   W24
 .byte   An3
 .byte   W24
 .byte   PEND 
@  #09 @030   ----------------------------------------
Label_01016204:
 .byte   N22 ,Fn3 ,v096
 .byte   W48
 .byte   N05 ,Fn4 ,v080
 .byte   W06
 .byte   As3
 .byte   W06
 .byte   An3
 .byte   W06
 .byte   Cn4
 .byte   W06
 .byte   Fn3
 .byte   W24
 .byte   PEND 
@  #09 @031   ----------------------------------------
 .byte   W96
@  #09 @032   ----------------------------------------
Label_01016216:
 .byte   N22 ,Fn3 ,v096
 .byte   W24
 .byte   Cn3
 .byte   W24
 .byte   Gs2
 .byte   W24
 .byte   As2
 .byte   W24
 .byte   PEND 
@  #09 @033   ----------------------------------------
Label_01016221:
 .byte   N22 ,Ds3 ,v096
 .byte   W24
 .byte   As2
 .byte   W24
 .byte   Cn3
 .byte   W24
 .byte   Gn3
 .byte   W24
 .byte   PEND 
@  #09 @034   ----------------------------------------
Label_0101622C:
 .byte   N22 ,Ds3 ,v096
 .byte   W54
 .byte   N05 ,Gs3 ,v088
 .byte   W06
 .byte   Gn3
 .byte   W06
 .byte   Gs3
 .byte   W12
 .byte   N05
 .byte   W06
 .byte   Ds4
 .byte   W12
 .byte   PEND 
@  #09 @035   ----------------------------------------
 .byte   W96
@  #09 @036   ----------------------------------------
Label_0101623E:
 .byte   N22 ,Ds3 ,v096
 .byte   W24
 .byte   N22
 .byte   W24
 .byte   As2
 .byte   W24
 .byte   Bn2
 .byte   W24
 .byte   PEND 
@  #09 @037   ----------------------------------------
Label_01016249:
 .byte   N22 ,Fs3 ,v096
 .byte   W24
 .byte   Cs3
 .byte   W24
 .byte   Ds3
 .byte   W24
 .byte   As3
 .byte   W24
 .byte   PEND 
@  #09 @038   ----------------------------------------
Label_01016254:
 .byte   N22 ,Fs3 ,v096
 .byte   W48
 .byte   N05 ,Cs4 ,v080
 .byte   W06
 .byte   Gs3
 .byte   W06
 .byte   Fs3
 .byte   W06
 .byte   Gs3
 .byte   W06
 .byte   N22 ,Cs3
 .byte   W24
 .byte   PEND 
@  #09 @039   ----------------------------------------
 .byte   W96
@  #09 @040   ----------------------------------------
Label_01016267:
 .byte   W24
 .byte   N22 ,Dn3 ,v096
 .byte   W24
 .byte   Cn3
 .byte   W24
 .byte   Gn3
 .byte   W24
 .byte   PEND 
@  #09 @041   ----------------------------------------
Label_01016271:
 .byte   N44 ,Dn3 ,v100
 .byte   W48
 .byte   N22 ,Cn3 ,v108
 .byte   W24
 .byte   An3
 .byte   W24
 .byte   PEND 
@  #09 @042   ----------------------------------------
Label_0101627C:
 .byte   N22 ,Dn3 ,v108
 .byte   W54
 .byte   N05 ,Cn3 ,v072
 .byte   W06
 .byte   Dn3
 .byte   W06
 .byte   Gn3
 .byte   W06
 .byte   An3 ,v076
 .byte   W06
 .byte   Dn4 ,v080
 .byte   W06
 .byte   Gn4 ,v084
 .byte   W06
 .byte   An4
 .byte   W06
 .byte   PEND 
@  #09 @043   ----------------------------------------
Label_01016294:
 .byte   N02 ,Gn4 ,v080
 .byte   W02
 .byte   N88 ,An4
 .byte   N88 ,Dn5
 .byte   W92
 .byte   W02
 .byte   PEND 
@  #09 @044   ----------------------------------------
Label_0101629F:
 .byte   N05 ,Gn2 ,v080
 .byte   W06
 .byte   Dn3
 .byte   W06
 .byte   An3
 .byte   W06
 .byte   As3
 .byte   W06
 .byte   Cn4
 .byte   W06
 .byte   Fn4
 .byte   W06
 .byte   Fn2
 .byte   W06
 .byte   Dn3
 .byte   W06
 .byte   An3
 .byte   W06
 .byte   As3
 .byte   W06
 .byte   Cn4
 .byte   W06
 .byte   Fn4
 .byte   W06
 .byte   An4
 .byte   W06
 .byte   As4
 .byte   W06
 .byte   N11 ,Cn5
 .byte   W12
 .byte   PEND 
@  #09 @045   ----------------------------------------
Label_010162C1:
 .byte   N05 ,Ds2 ,v080
 .byte   W06
 .byte   Ds3
 .byte   W06
 .byte   An3
 .byte   W06
 .byte   As3
 .byte   W06
 .byte   Cn4
 .byte   W06
 .byte   Fn4
 .byte   W06
 .byte   Dn2
 .byte   W06
 .byte   As2
 .byte   W06
 .byte   Dn3
 .byte   W06
 .byte   Fn3
 .byte   W06
 .byte   An3
 .byte   W06
 .byte   As3
 .byte   W06
 .byte   Cn4
 .byte   W06
 .byte   Fn4
 .byte   W06
 .byte   N11 ,As4
 .byte   W12
 .byte   PEND 
@  #09 @046   ----------------------------------------
Label_010162E3:
 .byte   N05 ,Cn2 ,v080
 .byte   W06
 .byte   As2
 .byte   W06
 .byte   Ds3
 .byte   W06
 .byte   Fn3
 .byte   W06
 .byte   As3
 .byte   W06
 .byte   Fn4
 .byte   W06
 .byte   Dn2
 .byte   W06
 .byte   As2
 .byte   W06
 .byte   Fn3
 .byte   W06
 .byte   As3
 .byte   W06
 .byte   Cn4
 .byte   W06
 .byte   Fn4
 .byte   W06
 .byte   An4
 .byte   W06
 .byte   As4
 .byte   W06
 .byte   Cn5
 .byte   W12
 .byte   PEND 
@  #09 @047   ----------------------------------------
Label_01016304:
 .byte   N05 ,Ds2 ,v080
 .byte   W06
 .byte   Ds3
 .byte   W06
 .byte   As3
 .byte   W06
 .byte   Ds4
 .byte   W06
 .byte   As4
 .byte   W12
 .byte   Dn2
 .byte   W06
 .byte   Cn5
 .byte   W06
 .byte   An4
 .byte   W06
 .byte   Fs4
 .byte   W06
 .byte   Ds4
 .byte   W06
 .byte   Cn4
 .byte   W06
 .byte   Fs3
 .byte   W06
 .byte   Ds3
 .byte   W06
 .byte   Cn3
 .byte   W06
 .byte   An2
 .byte   W06
 .byte   PEND 
@  #09 @048   ----------------------------------------
Label_01016325:
 .byte   N17 ,As2 ,v096
 .byte   N17 ,As3
 .byte   W18
 .byte   N17
 .byte   N17 ,Cn4
 .byte   N17 ,Fn4
 .byte   W18
 .byte   An4
 .byte   N17 ,Cn5
 .byte   W18
 .byte   N05 ,Dn5
 .byte   W06
 .byte   An3 ,v080
 .byte   W06
 .byte   As3
 .byte   W06
 .byte   Fn4
 .byte   W06
 .byte   Cn4
 .byte   W06
 .byte   Dn4
 .byte   W06
 .byte   An4
 .byte   W06
 .byte   PEND 
@  #09 @049   ----------------------------------------
Label_01016346:
 .byte   N17 ,Gn4 ,v096
 .byte   N17 ,As4
 .byte   W18
 .byte   As3
 .byte   N17 ,Fn4
 .byte   W18
 .byte   Fn3 ,v080
 .byte   N17 ,Fn4 ,v096
 .byte   W18
 .byte   N05 ,Fn3
 .byte   N05 ,As3
 .byte   W06
 .byte   An2
 .byte   W06
 .byte   As2
 .byte   W06
 .byte   Fn3
 .byte   W06
 .byte   Cn3
 .byte   W06
 .byte   Dn3
 .byte   W06
 .byte   An3
 .byte   W06
 .byte   PEND 
@  #09 @050   ----------------------------------------
Label_01016368:
 .byte   N17 ,As3 ,v096
 .byte   W18
 .byte   N17
 .byte   N17 ,Fn4
 .byte   W18
 .byte   N17
 .byte   N17 ,An4
 .byte   N17 ,Cn5
 .byte   W18
 .byte   N05 ,As4
 .byte   N05 ,Dn5
 .byte   W06
 .byte   Cn4 ,v080
 .byte   W06
 .byte   Dn4
 .byte   W06
 .byte   Fn4
 .byte   W06
 .byte   Cn4
 .byte   W06
 .byte   Dn4
 .byte   W06
 .byte   An4
 .byte   W06
 .byte   PEND 
@  #09 @051   ----------------------------------------
Label_01016389:
 .byte   N17 ,Gn4 ,v096
 .byte   N17 ,As4
 .byte   W18
 .byte   Fn3 ,v080
 .byte   N17 ,As3 ,v096
 .byte   W18
 .byte   Gn3
 .byte   N17 ,Cn4
 .byte   W18
 .byte   N22 ,Gn1
 .byte   N05 ,As3
 .byte   N05 ,Gn4
 .byte   W42
 .byte   PEND 
@  #09 @052   ----------------------------------------
 .byte   W96
@  #09 @053   ----------------------------------------
 .byte   W96
@  #09 @054   ----------------------------------------
 .byte   W96
@  #09 @055   ----------------------------------------
 .byte   W96
@  #09 @056   ----------------------------------------
 .byte   W96
@  #09 @057   ----------------------------------------
 .byte   W96
@  #09 @058   ----------------------------------------
 .byte   W96
@  #09 @059   ----------------------------------------
 .byte   W96
@  #09 @060   ----------------------------------------
Label_010163A9:
 .byte   N17 ,Ds4 ,v096
 .byte   N17 ,Gn4
 .byte   N17 ,Dn5
 .byte   W18
 .byte   Gn4
 .byte   W18
 .byte   Fn4
 .byte   N17 ,An4
 .byte   N17 ,Dn5
 .byte   W18
 .byte   N36 ,Fn4
 .byte   W42
 .byte   PEND 
@  #09 @061   ----------------------------------------
 .byte   PATT
  .word Label_01015F05
@  #09 @062   ----------------------------------------
 .byte   PATT
  .word Label_01015F1A
@  #09 @063   ----------------------------------------
 .byte   PATT
  .word Label_01015F3C
@  #09 @064   ----------------------------------------
 .byte   PATT
  .word Label_01015F50
@  #09 @065   ----------------------------------------
 .byte   PATT
  .word Label_01015F73
@  #09 @066   ----------------------------------------
 .byte   PATT
  .word Label_01015F1A
@  #09 @067   ----------------------------------------
 .byte   PATT
  .word Label_01015F3C
@  #09 @068   ----------------------------------------
 .byte   PATT
  .word Label_01015F50
@  #09 @069   ----------------------------------------
 .byte   PATT
  .word Label_01015F73
@  #09 @070   ----------------------------------------
 .byte   PATT
  .word Label_01015F1A
@  #09 @071   ----------------------------------------
 .byte   PATT
  .word Label_01015FAA
@  #09 @072   ----------------------------------------
 .byte   PATT
  .word Label_01015FC0
@  #09 @073   ----------------------------------------
 .byte   PATT
  .word Label_01015FEA
@  #09 @074   ----------------------------------------
 .byte   PATT
  .word Label_01016027
@  #09 @075   ----------------------------------------
 .byte   PATT
  .word Label_01016064
@  #09 @076   ----------------------------------------
 .byte   PATT
  .word Label_010160A1
@  #09 @077   ----------------------------------------
 .byte   PATT
  .word Label_01015FEA
@  #09 @078   ----------------------------------------
 .byte   PATT
  .word Label_01016027
@  #09 @079   ----------------------------------------
 .byte   PATT
  .word Label_010160D1
@  #09 @080   ----------------------------------------
 .byte   PATT
  .word Label_0101610E
@  #09 @081   ----------------------------------------
 .byte   PATT
  .word Label_0101613A
@  #09 @082   ----------------------------------------
 .byte   PATT
  .word Label_01016155
@  #09 @083   ----------------------------------------
 .byte   PATT
  .word Label_0101616C
@  #09 @084   ----------------------------------------
 .byte   PATT
  .word Label_01016187
@  #09 @085   ----------------------------------------
 .byte   PATT
  .word Label_0101619E
@  #09 @086   ----------------------------------------
 .byte   PATT
  .word Label_010161B9
@  #09 @087   ----------------------------------------
 .byte   PATT
  .word Label_010161CC
@  #09 @088   ----------------------------------------
 .byte   PATT
  .word Label_010161DF
@  #09 @089   ----------------------------------------
 .byte   PATT
  .word Label_010161EA
@  #09 @090   ----------------------------------------
 .byte   PATT
  .word Label_010161F9
@  #09 @091   ----------------------------------------
 .byte   PATT
  .word Label_01016204
@  #09 @092   ----------------------------------------
 .byte   W96
@  #09 @093   ----------------------------------------
 .byte   PATT
  .word Label_01016216
@  #09 @094   ----------------------------------------
 .byte   PATT
  .word Label_01016221
@  #09 @095   ----------------------------------------
 .byte   PATT
  .word Label_0101622C
@  #09 @096   ----------------------------------------
 .byte   W96
@  #09 @097   ----------------------------------------
 .byte   PATT
  .word Label_0101623E
@  #09 @098   ----------------------------------------
 .byte   PATT
  .word Label_01016249
@  #09 @099   ----------------------------------------
 .byte   PATT
  .word Label_01016254
@  #09 @100   ----------------------------------------
 .byte   W96
@  #09 @101   ----------------------------------------
 .byte   PATT
  .word Label_01016267
@  #09 @102   ----------------------------------------
 .byte   PATT
  .word Label_01016271
@  #09 @103   ----------------------------------------
 .byte   PATT
  .word Label_0101627C
@  #09 @104   ----------------------------------------
 .byte   PATT
  .word Label_01016294
@  #09 @105   ----------------------------------------
 .byte   PATT
  .word Label_0101629F
@  #09 @106   ----------------------------------------
 .byte   PATT
  .word Label_010162C1
@  #09 @107   ----------------------------------------
 .byte   PATT
  .word Label_010162E3
@  #09 @108   ----------------------------------------
 .byte   PATT
  .word Label_01016304
@  #09 @109   ----------------------------------------
 .byte   PATT
  .word Label_01016325
@  #09 @110   ----------------------------------------
 .byte   PATT
  .word Label_01016346
@  #09 @111   ----------------------------------------
 .byte   PATT
  .word Label_01016368
@  #09 @112   ----------------------------------------
 .byte   PATT
  .word Label_01016389
@  #09 @113   ----------------------------------------
 .byte   W96
@  #09 @114   ----------------------------------------
 .byte   W96
@  #09 @115   ----------------------------------------
 .byte   W96
@  #09 @116   ----------------------------------------
 .byte   W96
@  #09 @117   ----------------------------------------
 .byte   W96
@  #09 @118   ----------------------------------------
 .byte   W96
@  #09 @119   ----------------------------------------
 .byte   W96
@  #09 @120   ----------------------------------------
 .byte   W96
@  #09 @121   ----------------------------------------
 .byte   PATT
  .word Label_010163A9
@  #09 @122   ----------------------------------------
 .byte   GOTO
  .word Label_01015F05
 .byte   FINE

@**************** Track 10 (Midi-Chn.9) ****************@

song06_010:
@  #10 @000   ----------------------------------------
 .byte   KEYSH , song06_key+0
 .byte   VOICE , 73
 .byte   VOL , 62*song06_mvl/mxv
 .byte   PAN , c_v+10
 .byte   VOL , 62*song06_mvl/mxv
 .byte   PAN , c_v+10
 .byte   W12
Label_0100E6E5:
 .byte   N02 ,An3 ,v052
 .byte   W02
 .byte   N03 ,As3
 .byte   W10
 .byte   N02 ,An3 ,v040
 .byte   W02
 .byte   N03 ,As3
 .byte   W10
 .byte   N02 ,An3
 .byte   W02
 .byte   N03 ,As3 ,v032
 .byte   W10
 .byte   Gn3 ,v052
 .byte   W12
 .byte   N02 ,Fs3
 .byte   W02
 .byte   N03 ,Gn3 ,v040
 .byte   W10
 .byte   N02 ,Fs3
 .byte   W02
 .byte   N03 ,Gn3 ,v032
 .byte   W10
 .byte   N02 ,Fs3
 .byte   W02
 .byte   N03 ,Gn3 ,v028
 .byte   W10
@  #10 @001   ----------------------------------------
 .byte   N02 ,Fs3
 .byte   W02
 .byte   N03 ,Gn3 ,v020
 .byte   W10
 .byte   PEND 
Label_0100E71A:
 .byte   N03 ,Gn3 ,v040
 .byte   W12
 .byte   Gn3 ,v032
 .byte   W12
 .byte   Gn3 ,v028
 .byte   W12
 .byte   Fn3 ,v052
 .byte   W12
 .byte   Fn3 ,v040
 .byte   W12
 .byte   Fn3 ,v032
 .byte   W12
 .byte   Fn3 ,v028
 .byte   W12
@  #10 @002   ----------------------------------------
 .byte   N03
 .byte   W12
 .byte   PEND 
@  #10 @003   ----------------------------------------
 .byte   PATT
  .word Label_0100E6E5
@  #10 @004   ----------------------------------------
Label_0100E738:
 .byte   N02 ,Dn3 ,v052
 .byte   W02
 .byte   N03 ,Ds3 ,v040
 .byte   W10
 .byte   N02 ,Dn3
 .byte   W02
 .byte   N03 ,Ds3 ,v032
 .byte   W10
 .byte   N02 ,Dn3
 .byte   W02
 .byte   N03 ,Ds3 ,v028
 .byte   W22
 .byte   An3 ,v040
 .byte   W12
 .byte   An3 ,v032
 .byte   W12
 .byte   An3 ,v028
 .byte   W12
 .byte   An3 ,v020
 .byte   W12
 .byte   PEND 
@  #10 @005   ----------------------------------------
 .byte   PATT
  .word Label_0100E6E5
@  #10 @006   ----------------------------------------
 .byte   PATT
  .word Label_0100E71A
@  #10 @007   ----------------------------------------
 .byte   PATT
  .word Label_0100E6E5
@  #10 @008   ----------------------------------------
 .byte   PATT
  .word Label_0100E738
@  #10 @009   ----------------------------------------
 .byte   PATT
  .word Label_0100E6E5
@  #10 @010   ----------------------------------------
 .byte   PATT
  .word Label_0100E71A
@  #10 @011   ----------------------------------------
 .byte   PATT
  .word Label_0100E6E5
@  #10 @012   ----------------------------------------
 .byte   W96
@  #10 @013   ----------------------------------------
 .byte   W96
@  #10 @014   ----------------------------------------
 .byte   W96
@  #10 @015   ----------------------------------------
 .byte   W96
@  #10 @016   ----------------------------------------
 .byte   W96
@  #10 @017   ----------------------------------------
 .byte   W96
@  #10 @018   ----------------------------------------
 .byte   W96
@  #10 @019   ----------------------------------------
 .byte   W96
@  #10 @020   ----------------------------------------
 .byte   W96
@  #10 @021   ----------------------------------------
 .byte   W96
@  #10 @022   ----------------------------------------
 .byte   W96
@  #10 @023   ----------------------------------------
 .byte   W96
@  #10 @024   ----------------------------------------
 .byte   W96
@  #10 @025   ----------------------------------------
 .byte   W96
@  #10 @026   ----------------------------------------
 .byte   W96
@  #10 @027   ----------------------------------------
 .byte   W96
@  #10 @028   ----------------------------------------
 .byte   W96
@  #10 @029   ----------------------------------------
 .byte   W96
@  #10 @030   ----------------------------------------
 .byte   W96
@  #10 @031   ----------------------------------------
 .byte   W96
@  #10 @032   ----------------------------------------
 .byte   W96
@  #10 @033   ----------------------------------------
 .byte   W96
@  #10 @034   ----------------------------------------
 .byte   W96
@  #10 @035   ----------------------------------------
 .byte   W96
@  #10 @036   ----------------------------------------
 .byte   W96
@  #10 @037   ----------------------------------------
 .byte   W96
@  #10 @038   ----------------------------------------
 .byte   W96
@  #10 @039   ----------------------------------------
 .byte   W96
@  #10 @040   ----------------------------------------
 .byte   W96
@  #10 @041   ----------------------------------------
 .byte   W96
@  #10 @042   ----------------------------------------
 .byte   W96
@  #10 @043   ----------------------------------------
 .byte   W96
@  #10 @044   ----------------------------------------
 .byte   W96
@  #10 @045   ----------------------------------------
 .byte   W96
@  #10 @046   ----------------------------------------
 .byte   W96
@  #10 @047   ----------------------------------------
 .byte   W96
@  #10 @048   ----------------------------------------
 .byte   W96
@  #10 @049   ----------------------------------------
 .byte   W96
@  #10 @050   ----------------------------------------
 .byte   W96
@  #10 @051   ----------------------------------------
 .byte   W96
@  #10 @052   ----------------------------------------
 .byte   W96
@  #10 @053   ----------------------------------------
 .byte   W96
@  #10 @054   ----------------------------------------
 .byte   W96
@  #10 @055   ----------------------------------------
 .byte   W96
@  #10 @056   ----------------------------------------
 .byte   W96
@  #10 @057   ----------------------------------------
 .byte   W96
@  #10 @058   ----------------------------------------
 .byte   W96
@  #10 @059   ----------------------------------------
 .byte   W96
@  #10 @060   ----------------------------------------
 .byte   W96
@  #10 @061   ----------------------------------------
 .byte   W96
@  #10 @062   ----------------------------------------
 .byte   PATT
  .word Label_0100E6E5
@  #10 @063   ----------------------------------------
 .byte   PATT
  .word Label_0100E71A
@  #10 @064   ----------------------------------------
 .byte   PATT
  .word Label_0100E6E5
@  #10 @065   ----------------------------------------
 .byte   PATT
  .word Label_0100E738
@  #10 @066   ----------------------------------------
 .byte   PATT
  .word Label_0100E6E5
@  #10 @067   ----------------------------------------
 .byte   PATT
  .word Label_0100E71A
@  #10 @068   ----------------------------------------
 .byte   PATT
  .word Label_0100E6E5
@  #10 @069   ----------------------------------------
 .byte   PATT
  .word Label_0100E738
@  #10 @070   ----------------------------------------
 .byte   PATT
  .word Label_0100E6E5
@  #10 @071   ----------------------------------------
 .byte   PATT
  .word Label_0100E71A
@  #10 @072   ----------------------------------------
 .byte   PATT
  .word Label_0100E6E5
@  #10 @073   ----------------------------------------
 .byte   W96
@  #10 @074   ----------------------------------------
 .byte   W96
@  #10 @075   ----------------------------------------
 .byte   W96
@  #10 @076   ----------------------------------------
 .byte   W96
@  #10 @077   ----------------------------------------
 .byte   W96
@  #10 @078   ----------------------------------------
 .byte   W96
@  #10 @079   ----------------------------------------
 .byte   W96
@  #10 @080   ----------------------------------------
 .byte   W96
@  #10 @081   ----------------------------------------
 .byte   W96
@  #10 @082   ----------------------------------------
 .byte   W96
@  #10 @083   ----------------------------------------
 .byte   W96
@  #10 @084   ----------------------------------------
 .byte   W96
@  #10 @085   ----------------------------------------
 .byte   W96
@  #10 @086   ----------------------------------------
 .byte   W96
@  #10 @087   ----------------------------------------
 .byte   W96
@  #10 @088   ----------------------------------------
 .byte   W96
@  #10 @089   ----------------------------------------
 .byte   W96
@  #10 @090   ----------------------------------------
 .byte   W96
@  #10 @091   ----------------------------------------
 .byte   W96
@  #10 @092   ----------------------------------------
 .byte   W96
@  #10 @093   ----------------------------------------
 .byte   W96
@  #10 @094   ----------------------------------------
 .byte   W96
@  #10 @095   ----------------------------------------
 .byte   W96
@  #10 @096   ----------------------------------------
 .byte   W96
@  #10 @097   ----------------------------------------
 .byte   W96
@  #10 @098   ----------------------------------------
 .byte   W96
@  #10 @099   ----------------------------------------
 .byte   W96
@  #10 @100   ----------------------------------------
 .byte   W96
@  #10 @101   ----------------------------------------
 .byte   W96
@  #10 @102   ----------------------------------------
 .byte   W96
@  #10 @103   ----------------------------------------
 .byte   W96
@  #10 @104   ----------------------------------------
 .byte   W96
@  #10 @105   ----------------------------------------
 .byte   W96
@  #10 @106   ----------------------------------------
 .byte   W96
@  #10 @107   ----------------------------------------
 .byte   W96
@  #10 @108   ----------------------------------------
 .byte   W96
@  #10 @109   ----------------------------------------
 .byte   W96
@  #10 @110   ----------------------------------------
 .byte   W96
@  #10 @111   ----------------------------------------
 .byte   W96
@  #10 @112   ----------------------------------------
 .byte   W96
@  #10 @113   ----------------------------------------
 .byte   W96
@  #10 @114   ----------------------------------------
 .byte   W96
@  #10 @115   ----------------------------------------
 .byte   W96
@  #10 @116   ----------------------------------------
 .byte   W96
@  #10 @117   ----------------------------------------
 .byte   W96
@  #10 @118   ----------------------------------------
 .byte   W96
@  #10 @119   ----------------------------------------
 .byte   W96
@  #10 @120   ----------------------------------------
 .byte   W96
@  #10 @121   ----------------------------------------
 .byte   W96
@  #10 @122   ----------------------------------------
 .byte   W96
@  #10 @123   ----------------------------------------
 .byte   GOTO
  .word Label_0100E6E5
 .byte   FINE

@******************************************************@
	.align	2

song06:
	.byte	10	@ NumTrks
	.byte	0	@ NumBlks
	.byte	song06_pri	@ Priority
	.byte	song06_rev	@ Reverb.
    
	.word	song06_grp
    
	.word	song06_001
	.word	song06_002
	.word	song06_003
	.word	song06_004
	.word	song06_005
	.word	song06_006
	.word	song06_007
	.word	song06_008
	.word	song06_009
	.word	song06_010

	.end
