	.include "MPlayDef.s"

	.equ	FinalCastle_grp, voicegroup000
	.equ	FinalCastle_pri, 0
	.equ	FinalCastle_rev, 0
	.equ	FinalCastle_mvl, 127
	.equ	FinalCastle_key, 0
	.equ	FinalCastle_tbs, 1
	.equ	FinalCastle_exg, 0
	.equ	FinalCastle_cmp, 1

	.section .rodata
	.global	FinalCastle
	.align	2


@**************** Track 1 (Midi-Chn.0) ****************@

FinalCastle_001:
@  #01 @000   ----------------------------------------
 .byte   VOL , 55*FinalCastle_mvl/mxv
 .byte   KEYSH , FinalCastle_key+0
Label_0100382C:
 .byte   TEMPO , 116*FinalCastle_tbs/2
 .byte   VOICE , 109
 .byte   N92 ,Gn1 ,v024
 .byte   N92 ,Gn2
 .byte   N92 ,Fn3 ,v028
 .byte   N92 ,Cn4
 .byte   W96
@  #01 @001   ----------------------------------------
 .byte   Fn1 ,v024
 .byte   N92 ,Fn2
 .byte   N92 ,En3 ,v028
 .byte   N92 ,Bn3
 .byte   W96
@  #01 @002   ----------------------------------------
 .byte   TIE ,En1 ,v024
 .byte   TIE ,En2
 .byte   TIE ,Ds3 ,v028
 .byte   TIE ,As3
 .byte   W96
@  #01 @003   ----------------------------------------
 .byte   W88
 .byte   W01
 .byte   EOT
 .byte   En1 ,v052
 .byte   Ds3 ,v070
 .byte   W07
@  #01 @004   ----------------------------------------
 .byte   N92 ,Fn1 ,v024
 .byte   N92 ,Fn2
 .byte   N92 ,Ds3 ,v028
 .byte   N92 ,As3
 .byte   W96
@  #01 @005   ----------------------------------------
 .byte   Ds1 ,v024
 .byte   N92 ,Ds2
 .byte   N92 ,Dn3 ,v028
 .byte   N92 ,An3
 .byte   W96
@  #01 @006   ----------------------------------------
 .byte   TIE ,Dn1 ,v024
 .byte   TIE ,Dn2
 .byte   TIE ,Cs3 ,v028
 .byte   TIE ,Gs3
 .byte   W96
@  #01 @007   ----------------------------------------
 .byte   W88
 .byte   W01
 .byte   EOT
 .byte   Dn1 ,v050
 .byte   Cs3 ,v068
 .byte   W07
@  #01 @008   ----------------------------------------
 .byte   N92 ,Cs1
 .byte   N92 ,Cs2
 .byte   W96
@  #01 @009   ----------------------------------------
 .byte   Cn1
 .byte   N92 ,Cn2
 .byte   W96
@  #01 @010   ----------------------------------------
 .byte   Cs1
 .byte   N92 ,Cs2
 .byte   W96
@  #01 @011   ----------------------------------------
 .byte   En1
 .byte   N92 ,En2
 .byte   W96
@  #01 @012   ----------------------------------------
 .byte   As0
 .byte   N92 ,As1
 .byte   W96
@  #01 @013   ----------------------------------------
 .byte   Bn0
 .byte   N92 ,Bn1
 .byte   W96
@  #01 @014   ----------------------------------------
 .byte   Dn1
 .byte   N92 ,Dn2
 .byte   W96
@  #01 @015   ----------------------------------------
 .byte   Cs1
 .byte   N92 ,Cs2
 .byte   W96
@  #01 @016   ----------------------------------------
 .byte   Gn0
 .byte   N92 ,Gn1
 .byte   W96
@  #01 @017   ----------------------------------------
 .byte   Gs0
 .byte   N92 ,Gs1
 .byte   W96
@  #01 @018   ----------------------------------------
 .byte   Bn0
 .byte   N92 ,Bn1
 .byte   W96
@  #01 @019   ----------------------------------------
 .byte   As0
 .byte   N92 ,As1
 .byte   W96
@  #01 @020   ----------------------------------------
 .byte   Fn0
 .byte   N92 ,Fn1
 .byte   W96
@  #01 @021   ----------------------------------------
 .byte   Fs0
 .byte   N92 ,Fs1
 .byte   W96
@  #01 @022   ----------------------------------------
 .byte   TIE ,Dn0
 .byte   TIE ,Dn1
 .byte   W96
@  #01 @023   ----------------------------------------
 .byte   W92
 .byte   W03
 .byte   EOT
 .byte   Dn0 ,v038
 .byte   W01
@  #01 @024   ----------------------------------------
 .byte   N92 ,Gn0 ,v024
 .byte   N92 ,Gn1
 .byte   N92 ,Fn2 ,v028
 .byte   N92 ,Cn3
 .byte   W96
@  #01 @025   ----------------------------------------
 .byte   Fn0 ,v024
 .byte   N92 ,Fn1
 .byte   N92 ,En2 ,v028
 .byte   N92 ,Bn2
 .byte   W96
@  #01 @026   ----------------------------------------
 .byte   An0 ,v024
 .byte   N92 ,An1
 .byte   N92 ,Gn2 ,v028
 .byte   N92 ,Dn3
 .byte   W96
@  #01 @027   ----------------------------------------
 .byte   Gn0 ,v024
 .byte   N92 ,Gn1
 .byte   N92 ,Fs2 ,v028
 .byte   N92 ,Cs3
 .byte   W96
@  #01 @028   ----------------------------------------
 .byte   TIE ,Cn1 ,v024
 .byte   TIE ,Cn2
 .byte   TIE ,As2 ,v028
 .byte   N92 ,Fn3
 .byte   W96
@  #01 @029   ----------------------------------------
 .byte   TIE
 .byte   W44
 .byte   W03
 .byte   EOT
 .byte   Cn2
 .byte   W01
 .byte   N92 ,Cn2 ,v024
 .byte   W23
 .byte   EOT
 .byte   As2
 .byte   W01
 .byte   TIE ,As2 ,v028
 .byte   W24
@  #01 @030   ----------------------------------------
 .byte   W23
 .byte   EOT
 .byte   Cn1
 .byte   W01
 .byte   TIE ,Cn1 ,v024
 .byte   W24
 .byte   Cn2
 .byte   W44
 .byte   W03
 .byte   EOT
 .byte   Fn3
 .byte   W01
@  #01 @031   ----------------------------------------
 .byte   N88 ,Fn3 ,v028
 .byte   W88
 .byte   W01
 .byte   EOT
 .byte   Cn1 ,v048
 .byte   As2
 .byte   W07
@  #01 @032   ----------------------------------------
 .byte   GOTO
  .word Label_0100382C
@  #01 @033   ----------------------------------------
 .byte   W01
 .byte   FINE

@**************** Track 2 (Midi-Chn.1) ****************@

FinalCastle_002:
@  #02 @000   ----------------------------------------
 .byte   VOL , 55*FinalCastle_mvl/mxv
 .byte   KEYSH , FinalCastle_key+0
Label_0100392C:
 .byte   VOICE , 85
 .byte   W96
@  #02 @001   ----------------------------------------
 .byte   W96
@  #02 @002   ----------------------------------------
 .byte   W96
@  #02 @003   ----------------------------------------
 .byte   W96
@  #02 @004   ----------------------------------------
 .byte   W96
@  #02 @005   ----------------------------------------
 .byte   W96
@  #02 @006   ----------------------------------------
 .byte   W96
@  #02 @007   ----------------------------------------
 .byte   W96
@  #02 @008   ----------------------------------------
 .byte   W96
@  #02 @009   ----------------------------------------
 .byte   W96
@  #02 @010   ----------------------------------------
 .byte   W96
@  #02 @011   ----------------------------------------
 .byte   W96
@  #02 @012   ----------------------------------------
 .byte   W96
@  #02 @013   ----------------------------------------
 .byte   W96
@  #02 @014   ----------------------------------------
 .byte   W96
@  #02 @015   ----------------------------------------
 .byte   W96
@  #02 @016   ----------------------------------------
 .byte   TIE ,Fn2 ,v024
 .byte   TIE ,Cn3
 .byte   W96
@  #02 @017   ----------------------------------------
 .byte   W92
 .byte   W03
 .byte   EOT
 .byte   Fn2 ,v060
 .byte   W01
@  #02 @018   ----------------------------------------
 .byte   TIE ,Fn2
 .byte   N92 ,Bn2
 .byte   W96
@  #02 @019   ----------------------------------------
 .byte   As2
 .byte   W92
 .byte   W03
 .byte   EOT
 .byte   Fn2
 .byte   W01
@  #02 @020   ----------------------------------------
 .byte   TIE ,Ds2
 .byte   TIE ,As2
 .byte   W96
@  #02 @021   ----------------------------------------
 .byte   W92
 .byte   W03
 .byte   EOT
 .byte   Ds2 ,v058
 .byte   W01
@  #02 @022   ----------------------------------------
 .byte   TIE ,Dn2
 .byte   N92 ,An2
 .byte   W96
@  #02 @023   ----------------------------------------
 .byte   Gs2
 .byte   W92
 .byte   W03
 .byte   EOT
 .byte   Dn2
 .byte   W01
@  #02 @024   ----------------------------------------
 .byte   W96
@  #02 @025   ----------------------------------------
 .byte   W96
@  #02 @026   ----------------------------------------
 .byte   W96
@  #02 @027   ----------------------------------------
 .byte   W96
@  #02 @028   ----------------------------------------
 .byte   W96
@  #02 @029   ----------------------------------------
 .byte   W96
@  #02 @030   ----------------------------------------
 .byte   W96
@  #02 @031   ----------------------------------------
 .byte   W96
@  #02 @032   ----------------------------------------
 .byte   GOTO
  .word Label_0100392C
@  #02 @033   ----------------------------------------
 .byte   W01
 .byte   FINE

@**************** Track 3 (Midi-Chn.2) ****************@

FinalCastle_003:
@  #03 @000   ----------------------------------------
 .byte   VOL , 55*FinalCastle_mvl/mxv
 .byte   KEYSH , FinalCastle_key+0
Label_01003980:
 .byte   VOICE , 19
 .byte   W96
@  #03 @001   ----------------------------------------
 .byte   W96
@  #03 @002   ----------------------------------------
 .byte   W96
@  #03 @003   ----------------------------------------
 .byte   W96
@  #03 @004   ----------------------------------------
 .byte   N92 ,Fn1 ,v016
 .byte   N92 ,Ds2
 .byte   N92 ,As2
 .byte   W96
@  #03 @005   ----------------------------------------
 .byte   Ds1
 .byte   N92 ,Dn2
 .byte   N92 ,An2
 .byte   W96
@  #03 @006   ----------------------------------------
 .byte   TIE ,Dn1
 .byte   TIE ,Cs2
 .byte   TIE ,Gs2
 .byte   W96
@  #03 @007   ----------------------------------------
 .byte   W88
 .byte   W01
 .byte   EOT
 .byte   Dn1 ,v049
 .byte   Gs2
 .byte   W07
@  #03 @008   ----------------------------------------
 .byte   N92 ,Fn1
 .byte   N92 ,Cn2
 .byte   W96
@  #03 @009   ----------------------------------------
 .byte   Fs1
 .byte   N92 ,Cs2
 .byte   W96
@  #03 @010   ----------------------------------------
 .byte   Fn1
 .byte   N92 ,Cn2
 .byte   W96
@  #03 @011   ----------------------------------------
 .byte   En1
 .byte   N92 ,Bn1
 .byte   W96
@  #03 @012   ----------------------------------------
 .byte   Fn1
 .byte   N92 ,Cn2
 .byte   W96
@  #03 @013   ----------------------------------------
 .byte   Fs1
 .byte   N92 ,Cs2
 .byte   W96
@  #03 @014   ----------------------------------------
 .byte   Fn1
 .byte   N92 ,Cn2
 .byte   W96
@  #03 @015   ----------------------------------------
 .byte   En1
 .byte   N92 ,Bn1
 .byte   W96
@  #03 @016   ----------------------------------------
 .byte   Gn1 ,v020
 .byte   W96
@  #03 @017   ----------------------------------------
 .byte   Gs1
 .byte   W96
@  #03 @018   ----------------------------------------
 .byte   Bn1
 .byte   W96
@  #03 @019   ----------------------------------------
 .byte   As1
 .byte   W96
@  #03 @020   ----------------------------------------
 .byte   Fn1
 .byte   W96
@  #03 @021   ----------------------------------------
 .byte   Fs1
 .byte   W96
@  #03 @022   ----------------------------------------
 .byte   TIE ,Dn1
 .byte   W96
@  #03 @023   ----------------------------------------
 .byte   W92
 .byte   W03
 .byte   EOT
 .byte   W01
@  #03 @024   ----------------------------------------
 .byte   W96
@  #03 @025   ----------------------------------------
 .byte   W96
@  #03 @026   ----------------------------------------
 .byte   W96
@  #03 @027   ----------------------------------------
 .byte   W96
@  #03 @028   ----------------------------------------
 .byte   W96
@  #03 @029   ----------------------------------------
 .byte   W96
@  #03 @030   ----------------------------------------
 .byte   W96
@  #03 @031   ----------------------------------------
 .byte   W96
@  #03 @032   ----------------------------------------
 .byte   GOTO
  .word Label_01003980
@  #03 @033   ----------------------------------------
 .byte   W01
 .byte   FINE

@**************** Track 4 (Midi-Chn.3) ****************@

FinalCastle_004:
@  #04 @000   ----------------------------------------
 .byte   VOL , 55*FinalCastle_mvl/mxv
 .byte   KEYSH , FinalCastle_key+0
Label_01003318:
 .byte   VOICE , 100
 .byte   W96
@  #04 @001   ----------------------------------------
 .byte   W96
@  #04 @002   ----------------------------------------
 .byte   W96
@  #04 @003   ----------------------------------------
 .byte   W96
@  #04 @004   ----------------------------------------
 .byte   W96
@  #04 @005   ----------------------------------------
 .byte   W96
@  #04 @006   ----------------------------------------
 .byte   W96
@  #04 @007   ----------------------------------------
 .byte   W96
@  #04 @008   ----------------------------------------
Label_01003322:
 .byte   N07 ,Bn3 ,v016
 .byte   W18
 .byte   Bn3 ,v012
 .byte   W06
 .byte   En3 ,v016
 .byte   W18
 .byte   En3 ,v012
 .byte   W06
 .byte   Bn3 ,v020
 .byte   W18
 .byte   Bn3 ,v016
 .byte   W06
 .byte   En3 ,v020
 .byte   W18
 .byte   En3 ,v016
 .byte   W06
 .byte   PEND 
@  #04 @009   ----------------------------------------
Label_0100333C:
 .byte   N07 ,Bn3 ,v024
 .byte   W18
 .byte   Bn3 ,v020
 .byte   W06
 .byte   En3 ,v024
 .byte   W18
 .byte   En3 ,v020
 .byte   W06
 .byte   Bn3 ,v028
 .byte   W18
 .byte   Bn3 ,v024
 .byte   W06
 .byte   En3 ,v028
 .byte   W18
 .byte   En3 ,v024
 .byte   W06
 .byte   PEND 
@  #04 @010   ----------------------------------------
Label_01003356:
 .byte   N07 ,Bn3 ,v032
 .byte   W18
 .byte   Bn3 ,v028
 .byte   W06
 .byte   En3 ,v032
 .byte   W18
 .byte   En3 ,v028
 .byte   W06
 .byte   Bn3 ,v032
 .byte   W18
 .byte   Bn3 ,v028
 .byte   W06
 .byte   En3
 .byte   W18
 .byte   En3 ,v024
 .byte   W06
 .byte   PEND 
@  #04 @011   ----------------------------------------
 .byte   Bn3 ,v028
 .byte   W18
 .byte   Bn3 ,v024
 .byte   W06
 .byte   En3
 .byte   W18
 .byte   En3 ,v020
 .byte   W06
 .byte   Bn3 ,v024
 .byte   W18
 .byte   Bn3 ,v020
 .byte   W06
 .byte   En3
 .byte   W18
 .byte   En3 ,v016
 .byte   W06
@  #04 @012   ----------------------------------------
 .byte   PATT
  .word Label_01003322
@  #04 @013   ----------------------------------------
 .byte   PATT
  .word Label_0100333C
@  #04 @014   ----------------------------------------
 .byte   PATT
  .word Label_01003356
@  #04 @015   ----------------------------------------
 .byte   N07 ,Bn3 ,v028
 .byte   W18
 .byte   Bn3 ,v024
 .byte   W06
 .byte   En3
 .byte   W18
 .byte   En3 ,v020
 .byte   W06
 .byte   Bn3 ,v024
 .byte   W18
 .byte   Bn3 ,v020
 .byte   W06
 .byte   En3
 .byte   W18
 .byte   N08 ,En3 ,v016
 .byte   W06
@  #04 @016   ----------------------------------------
 .byte   Bn3
 .byte   W18
 .byte   Bn3 ,v012
 .byte   W06
 .byte   En3 ,v016
 .byte   W18
 .byte   En3 ,v012
 .byte   W06
 .byte   Bn3 ,v020
 .byte   W18
 .byte   Bn3 ,v016
 .byte   W06
 .byte   En3 ,v020
 .byte   W18
 .byte   En3 ,v016
 .byte   W06
@  #04 @017   ----------------------------------------
 .byte   Bn3 ,v024
 .byte   W18
 .byte   Bn3 ,v020
 .byte   W06
 .byte   En3 ,v024
 .byte   W18
 .byte   En3 ,v020
 .byte   W06
 .byte   Bn3 ,v028
 .byte   W18
 .byte   Bn3 ,v024
 .byte   W06
 .byte   En3 ,v028
 .byte   W18
 .byte   En3 ,v024
 .byte   W06
@  #04 @018   ----------------------------------------
 .byte   Bn3 ,v032
 .byte   W18
 .byte   Bn3 ,v028
 .byte   W06
 .byte   En3 ,v032
 .byte   W18
 .byte   En3 ,v028
 .byte   W06
 .byte   Bn3 ,v032
 .byte   W18
 .byte   Bn3 ,v028
 .byte   W06
 .byte   En3
 .byte   W18
 .byte   En3 ,v024
 .byte   W06
@  #04 @019   ----------------------------------------
 .byte   Bn3 ,v028
 .byte   W18
 .byte   Bn3 ,v024
 .byte   W06
 .byte   En3
 .byte   W18
 .byte   En3 ,v020
 .byte   W06
 .byte   Bn3 ,v024
 .byte   W18
 .byte   Bn3 ,v020
 .byte   W06
 .byte   En3
 .byte   W18
 .byte   En3 ,v016
 .byte   W06
@  #04 @020   ----------------------------------------
 .byte   As3
 .byte   W18
 .byte   As3 ,v012
 .byte   W06
 .byte   Ds3 ,v016
 .byte   W18
 .byte   Ds3 ,v012
 .byte   W06
 .byte   As3 ,v020
 .byte   W18
 .byte   As3 ,v016
 .byte   W06
 .byte   Ds3 ,v020
 .byte   W18
 .byte   Ds3 ,v016
 .byte   W06
@  #04 @021   ----------------------------------------
 .byte   As3 ,v024
 .byte   W18
 .byte   As3 ,v020
 .byte   W06
 .byte   Ds3 ,v024
 .byte   W18
 .byte   Ds3 ,v020
 .byte   W06
 .byte   As3 ,v028
 .byte   W18
 .byte   As3 ,v024
 .byte   W06
 .byte   Ds3 ,v028
 .byte   W18
 .byte   Ds3 ,v024
 .byte   W06
@  #04 @022   ----------------------------------------
 .byte   An3 ,v032
 .byte   W18
 .byte   An3 ,v028
 .byte   W06
 .byte   Dn3 ,v032
 .byte   W18
 .byte   Dn3 ,v028
 .byte   W06
 .byte   An3
 .byte   W18
 .byte   An3 ,v024
 .byte   W06
 .byte   Dn3
 .byte   W18
 .byte   Dn3 ,v020
 .byte   W06
@  #04 @023   ----------------------------------------
 .byte   An3
 .byte   W18
 .byte   An3 ,v016
 .byte   W06
 .byte   Dn3
 .byte   W18
 .byte   N08
 .byte   W06
 .byte   An3 ,v012
 .byte   W18
 .byte   N08
 .byte   W06
 .byte   Dn3
 .byte   W18
 .byte   Dn3 ,v008
 .byte   W06
@  #04 @024   ----------------------------------------
 .byte   W96
@  #04 @025   ----------------------------------------
 .byte   W96
@  #04 @026   ----------------------------------------
 .byte   W96
@  #04 @027   ----------------------------------------
 .byte   W96
@  #04 @028   ----------------------------------------
 .byte   Cn4 ,v016
 .byte   W18
 .byte   Cn4 ,v012
 .byte   W06
 .byte   Fn3 ,v020
 .byte   W18
 .byte   Fn3 ,v016
 .byte   W06
 .byte   Cn4 ,v020
 .byte   W18
 .byte   Cn4 ,v016
 .byte   W06
 .byte   Fn3 ,v024
 .byte   W18
 .byte   Fn3 ,v020
 .byte   W06
@  #04 @029   ----------------------------------------
 .byte   Cn4 ,v024
 .byte   W18
 .byte   Cn4 ,v020
 .byte   W06
 .byte   Fn3 ,v028
 .byte   W18
 .byte   Fn3 ,v024
 .byte   W06
 .byte   Cn4 ,v028
 .byte   W18
 .byte   Cn4 ,v024
 .byte   W06
 .byte   Fn3 ,v028
 .byte   W18
 .byte   Fn3 ,v024
 .byte   W06
@  #04 @030   ----------------------------------------
 .byte   Cn4
 .byte   W18
 .byte   Cn4 ,v020
 .byte   W06
 .byte   Fn3 ,v024
 .byte   W18
 .byte   Fn3 ,v020
 .byte   W06
 .byte   Cn4
 .byte   W18
 .byte   Cn4 ,v016
 .byte   W06
 .byte   Fn3 ,v020
 .byte   W18
 .byte   Fn3 ,v016
 .byte   W06
@  #04 @031   ----------------------------------------
 .byte   Cn4
 .byte   W18
 .byte   Cn4 ,v012
 .byte   W06
 .byte   Fn3 ,v016
 .byte   W18
 .byte   Fn3 ,v012
 .byte   W06
 .byte   Cn4
 .byte   W18
 .byte   Cn4 ,v008
 .byte   W06
 .byte   Fn3 ,v012
 .byte   W18
 .byte   N07 ,Fn3 ,v008
 .byte   W06
@  #04 @032   ----------------------------------------
 .byte   GOTO
  .word Label_01003318
@  #04 @033   ----------------------------------------
 .byte   W01
 .byte   FINE

@**************** Track 5 (Midi-Chn.4) ****************@

FinalCastle_005:
@  #05 @000   ----------------------------------------
 .byte   VOL , 55*FinalCastle_mvl/mxv
 .byte   KEYSH , FinalCastle_key+0
Label_010039EC:
 .byte   VOICE , 10
 .byte   W96
@  #05 @001   ----------------------------------------
 .byte   W96
@  #05 @002   ----------------------------------------
 .byte   W96
@  #05 @003   ----------------------------------------
 .byte   W96
@  #05 @004   ----------------------------------------
 .byte   W96
@  #05 @005   ----------------------------------------
 .byte   W96
@  #05 @006   ----------------------------------------
 .byte   N05 ,Cs3 ,v028
 .byte   W06
 .byte   Gs3
 .byte   W06
 .byte   En3
 .byte   W06
 .byte   Cn4
 .byte   W06
 .byte   Gs3
 .byte   W06
 .byte   Ds4
 .byte   W66
@  #05 @007   ----------------------------------------
 .byte   W96
@  #05 @008   ----------------------------------------
 .byte   W96
@  #05 @009   ----------------------------------------
 .byte   W96
@  #05 @010   ----------------------------------------
 .byte   W96
@  #05 @011   ----------------------------------------
 .byte   W96
@  #05 @012   ----------------------------------------
 .byte   W96
@  #05 @013   ----------------------------------------
 .byte   W96
@  #05 @014   ----------------------------------------
 .byte   W96
@  #05 @015   ----------------------------------------
 .byte   W96
@  #05 @016   ----------------------------------------
 .byte   W96
@  #05 @017   ----------------------------------------
 .byte   W96
@  #05 @018   ----------------------------------------
 .byte   W96
@  #05 @019   ----------------------------------------
 .byte   W96
@  #05 @020   ----------------------------------------
 .byte   N08 ,As5 ,v020
 .byte   W24
 .byte   Ds5
 .byte   W24
 .byte   As5 ,v024
 .byte   W24
 .byte   Ds5
 .byte   W24
@  #05 @021   ----------------------------------------
 .byte   As5 ,v028
 .byte   W24
 .byte   Ds5
 .byte   W24
 .byte   As5 ,v032
 .byte   W24
 .byte   Ds5
 .byte   W24
@  #05 @022   ----------------------------------------
 .byte   An5 ,v036
 .byte   W24
 .byte   Dn5
 .byte   W24
 .byte   An5
 .byte   W24
 .byte   Dn5 ,v032
 .byte   W24
@  #05 @023   ----------------------------------------
 .byte   An5 ,v028
 .byte   W24
 .byte   Dn5 ,v024
 .byte   W24
 .byte   An5 ,v016
 .byte   W24
 .byte   Dn5 ,v012
 .byte   W24
@  #05 @024   ----------------------------------------
 .byte   W96
@  #05 @025   ----------------------------------------
 .byte   W96
@  #05 @026   ----------------------------------------
 .byte   W96
@  #05 @027   ----------------------------------------
 .byte   W96
@  #05 @028   ----------------------------------------
 .byte   W96
@  #05 @029   ----------------------------------------
 .byte   W96
@  #05 @030   ----------------------------------------
 .byte   W24
 .byte   Fn5 ,v028
 .byte   W48
 .byte   Fn5 ,v024
 .byte   W24
@  #05 @031   ----------------------------------------
 .byte   W24
 .byte   Fn5 ,v020
 .byte   W48
 .byte   Fn5 ,v012
 .byte   W24
@  #05 @032   ----------------------------------------
 .byte   GOTO
  .word Label_010039EC
@  #05 @033   ----------------------------------------
 .byte   W01
 .byte   FINE

@**************** Track 6 (Midi-Chn.5) ****************@

FinalCastle_006:
@  #06 @000   ----------------------------------------
 .byte   VOL , 55*FinalCastle_mvl/mxv
 .byte   KEYSH , FinalCastle_key+0
Label_01003A5C:
 .byte   VOICE , 127
 .byte   W96
@  #06 @001   ----------------------------------------
 .byte   W96
@  #06 @002   ----------------------------------------
 .byte   W96
@  #06 @003   ----------------------------------------
 .byte   W96
@  #06 @004   ----------------------------------------
 .byte   W96
@  #06 @005   ----------------------------------------
 .byte   W96
@  #06 @006   ----------------------------------------
 .byte   W96
@  #06 @007   ----------------------------------------
 .byte   W15
 .byte   N07 ,Dn1 ,v036
 .byte   W16
 .byte   N07
 .byte   W16
 .byte   Dn1 ,v040
 .byte   W16
 .byte   N07
 .byte   W16
 .byte   Dn1 ,v044
 .byte   W16
 .byte   N22 ,Cs2 ,v036
 .byte   W01
@  #06 @008   ----------------------------------------
 .byte   W23
 .byte   N22
 .byte   W72
 .byte   Cn2
 .byte   W01
@  #06 @009   ----------------------------------------
 .byte   W23
 .byte   N22
 .byte   W72
 .byte   Cs2
 .byte   W01
@  #06 @010   ----------------------------------------
 .byte   W23
 .byte   N22
 .byte   W72
 .byte   En1
 .byte   W01
@  #06 @011   ----------------------------------------
 .byte   W23
 .byte   N22
 .byte   W72
 .byte   As1
 .byte   W01
@  #06 @012   ----------------------------------------
 .byte   W23
 .byte   N22
 .byte   W72
 .byte   Bn1
 .byte   W01
@  #06 @013   ----------------------------------------
 .byte   W23
 .byte   N22
 .byte   W72
 .byte   Dn2
 .byte   W01
@  #06 @014   ----------------------------------------
 .byte   W23
 .byte   N22
 .byte   W72
 .byte   Cs2
 .byte   W01
@  #06 @015   ----------------------------------------
 .byte   W23
 .byte   N22
 .byte   W72
 .byte   N23 ,Gn1
 .byte   W01
@  #06 @016   ----------------------------------------
 .byte   W23
 .byte   N23
 .byte   W72
 .byte   Gs1
 .byte   W01
@  #06 @017   ----------------------------------------
 .byte   W23
 .byte   N23
 .byte   W72
 .byte   Bn1
 .byte   W01
@  #06 @018   ----------------------------------------
 .byte   W23
 .byte   N23
 .byte   W72
 .byte   As1
 .byte   W01
@  #06 @019   ----------------------------------------
 .byte   W23
 .byte   N23
 .byte   W72
 .byte   Fn1
 .byte   W01
@  #06 @020   ----------------------------------------
 .byte   W23
 .byte   N23
 .byte   W72
 .byte   Fs1
 .byte   W01
@  #06 @021   ----------------------------------------
 .byte   W23
 .byte   N23
 .byte   W72
 .byte   Dn1
 .byte   W01
@  #06 @022   ----------------------------------------
 .byte   W23
 .byte   N23
 .byte   W72
 .byte   N23
 .byte   W01
@  #06 @023   ----------------------------------------
 .byte   W23
 .byte   N23
 .byte   W72
 .byte   W01
@  #06 @024   ----------------------------------------
 .byte   W96
@  #06 @025   ----------------------------------------
 .byte   W96
@  #06 @026   ----------------------------------------
 .byte   W96
@  #06 @027   ----------------------------------------
 .byte   W96
@  #06 @028   ----------------------------------------
 .byte   W96
@  #06 @029   ----------------------------------------
 .byte   W96
@  #06 @030   ----------------------------------------
 .byte   W96
@  #06 @031   ----------------------------------------
 .byte   W68
 .byte   W03
 .byte   N07 ,Cn2 ,v024
 .byte   W08
 .byte   Cn2 ,v028
 .byte   W08
 .byte   N07
 .byte   W09
@  #06 @032   ----------------------------------------
 .byte   GOTO
  .word Label_01003A5C
@  #06 @033   ----------------------------------------
 .byte   W01
 .byte   FINE

@******************************************************@
	.align	2

FinalCastle:
	.byte	6	@ NumTrks
	.byte	0	@ NumBlks
	.byte	FinalCastle_pri	@ Priority
	.byte	FinalCastle_rev	@ Reverb.
    
	.word	FinalCastle_grp
    
	.word	FinalCastle_001
	.word	FinalCastle_002
	.word	FinalCastle_003
	.word	FinalCastle_004
	.word	FinalCastle_005
	.word	FinalCastle_006

	.end
