	.include "MPlayDef.s"

	.equ	HeavyArmoredCorps_grp, voicegroup000
	.equ	HeavyArmoredCorps_pri, 0
	.equ	HeavyArmoredCorps_rev, 0
	.equ	HeavyArmoredCorps_mvl, 127
	.equ	HeavyArmoredCorps_key, 0
	.equ	HeavyArmoredCorps_tbs, 1
	.equ	HeavyArmoredCorps_exg, 0
	.equ	HeavyArmoredCorps_cmp, 1

	.section .rodata
	.global	HeavyArmoredCorps
	.align	2


@**************** Track 1 (Midi-Chn.0) ****************@

HeavyArmoredCorps_001:
@  #01 @000   ----------------------------------------
 .byte   KEYSH , HeavyArmoredCorps_key+0
 .byte   TEMPO , 200*HeavyArmoredCorps_tbs/2
 .byte   VOICE , 40
 .byte   VOL , 33*HeavyArmoredCorps_mvl/mxv
 .byte   PAN , c_v-41
 .byte   W11
 .byte   TEMPO , 100*HeavyArmoredCorps_tbs/2
 .byte   W84
 .byte   W01
@  #01 @001   ----------------------------------------
 .byte   W96
@  #01 @002   ----------------------------------------
Label_010F85D4:
 .byte   W96
@  #01 @003   ----------------------------------------
 .byte   W96
@  #01 @004   ----------------------------------------
 .byte   W96
@  #01 @005   ----------------------------------------
 .byte   W96
@  #01 @006   ----------------------------------------
 .byte   W96
@  #01 @007   ----------------------------------------
 .byte   W96
@  #01 @008   ----------------------------------------
 .byte   W96
@  #01 @009   ----------------------------------------
 .byte   W96
@  #01 @010   ----------------------------------------
 .byte   W96
@  #01 @011   ----------------------------------------
 .byte   W96
@  #01 @012   ----------------------------------------
 .byte   W96
@  #01 @013   ----------------------------------------
 .byte   W96
@  #01 @014   ----------------------------------------
 .byte   W96
@  #01 @015   ----------------------------------------
 .byte   W96
@  #01 @016   ----------------------------------------
 .byte   W96
@  #01 @017   ----------------------------------------
 .byte   W96
@  #01 @018   ----------------------------------------
 .byte   W96
@  #01 @019   ----------------------------------------
 .byte   W96
@  #01 @020   ----------------------------------------
 .byte   W96
@  #01 @021   ----------------------------------------
 .byte   W96
@  #01 @022   ----------------------------------------
 .byte   W96
@  #01 @023   ----------------------------------------
 .byte   W96
@  #01 @024   ----------------------------------------
 .byte   W96
@  #01 @025   ----------------------------------------
 .byte   W96
@  #01 @026   ----------------------------------------
 .byte   W96
@  #01 @027   ----------------------------------------
 .byte   W96
@  #01 @028   ----------------------------------------
 .byte   W96
@  #01 @029   ----------------------------------------
 .byte   W96
@  #01 @030   ----------------------------------------
 .byte   W96
@  #01 @031   ----------------------------------------
 .byte   W96
@  #01 @032   ----------------------------------------
Label_010F85F2:
 .byte   W24
 .byte   N48 ,Cn4 ,v114 ,gtp2
 .byte   W48
 .byte   N24 ,As3 ,v113 ,gtp2
 .byte   W24
 .byte   PEND 
@  #01 @033   ----------------------------------------
Label_010F85FE:
 .byte   N24 ,Cn4 ,v114 ,gtp2
 .byte   W24
 .byte   N48 ,Dn4 ,v115 ,gtp2
 .byte   W48
 .byte   As3 ,v113
 .byte   W24
 .byte   PEND 
@  #01 @034   ----------------------------------------
Label_010F860C:
 .byte   W24
 .byte   N48 ,Ds4 ,v116 ,gtp2
 .byte   W48
 .byte   N72 ,Gn3 ,v112 ,gtp2
 .byte   W24
 .byte   PEND 
@  #01 @035   ----------------------------------------
Label_010F8618:
 .byte   W48
 .byte   N24 ,Cn4 ,v113 ,gtp2
 .byte   W24
 .byte   N36 ,Dn4 ,v114 ,gtp2
 .byte   W24
 .byte   PEND 
@  #01 @036   ----------------------------------------
Label_010F8624:
 .byte   W12
 .byte   N14 ,Ds4 ,v115
 .byte   W12
 .byte   N48 ,Gn4 ,v116 ,gtp2
 .byte   W48
 .byte   N24 ,Fn4 ,v115 ,gtp2
 .byte   W24
 .byte   PEND 
@  #01 @037   ----------------------------------------
Label_010F8634:
 .byte   N24 ,Gn4 ,v116 ,gtp2
 .byte   W24
 .byte   N48 ,As4 ,v117 ,gtp2
 .byte   W48
 .byte   N24 ,Gs4 ,v116 ,gtp2
 .byte   W24
 .byte   PEND 
@  #01 @038   ----------------------------------------
Label_010F8644:
 .byte   N24 ,Gn4 ,v115 ,gtp2
 .byte   W24
 .byte   N48 ,Fn4 ,v116 ,gtp2
 .byte   W48
 .byte   Ds4 ,v115
 .byte   W24
 .byte   PEND 
@  #01 @039   ----------------------------------------
 .byte   W24
 .byte   Dn4 ,v114
 .byte   W48
 .byte   As3 ,v113
 .byte   W24
@  #01 @040   ----------------------------------------
 .byte   PATT
  .word Label_010F85F2
@  #01 @041   ----------------------------------------
 .byte   PATT
  .word Label_010F85FE
@  #01 @042   ----------------------------------------
 .byte   PATT
  .word Label_010F860C
@  #01 @043   ----------------------------------------
 .byte   PATT
  .word Label_010F8618
@  #01 @044   ----------------------------------------
 .byte   PATT
  .word Label_010F8624
@  #01 @045   ----------------------------------------
 .byte   PATT
  .word Label_010F8634
@  #01 @046   ----------------------------------------
 .byte   PATT
  .word Label_010F8644
@  #01 @047   ----------------------------------------
 .byte   W24
 .byte   N48 ,Dn4 ,v114 ,gtp2
 .byte   W48
 .byte   Gn4 ,v113
 .byte   W24
@  #01 @048   ----------------------------------------
 .byte   W24
 .byte   Cn5 ,v114
 .byte   W48
 .byte   N24 ,As4 ,v113 ,gtp2
 .byte   W24
@  #01 @049   ----------------------------------------
 .byte   Cn5 ,v114
 .byte   W24
 .byte   N48 ,Dn5 ,v115 ,gtp2
 .byte   W48
 .byte   As4 ,v113
 .byte   W24
@  #01 @050   ----------------------------------------
 .byte   W24
 .byte   Fn5 ,v116
 .byte   W48
 .byte   Ds5 ,v114
 .byte   W24
@  #01 @051   ----------------------------------------
 .byte   W24
 .byte   Dn5 ,v112
 .byte   W44
 .byte   W03
 .byte   Cn5
 .byte   W24
 .byte   W01
@  #01 @052   ----------------------------------------
 .byte   W24
 .byte   TIE ,As4
 .byte   W72
@  #01 @053   ----------------------------------------
 .byte   W24
 .byte   Gs4 ,v110
 .byte   W02
 .byte   EOT
 .byte   As4
 .byte   W68
 .byte   W02
@  #01 @054   ----------------------------------------
 .byte   W24
 .byte   TIE ,Gn4
 .byte   W02
 .byte   EOT
 .byte   Gs4
 .byte   W68
 .byte   W02
@  #01 @055   ----------------------------------------
 .byte   W96
@  #01 @056   ----------------------------------------
 .byte   W24
 .byte   Gn4
 .byte   W72
@  #01 @057   ----------------------------------------
 .byte   W92
 .byte   W03
 .byte   GOTO
  .word Label_010F85D4
@  #01 @058   ----------------------------------------
 .byte   W01
 .byte   W48
 .byte   FINE

@**************** Track 2 (Midi-Chn.1) ****************@

HeavyArmoredCorps_002:
@  #02 @000   ----------------------------------------
 .byte   KEYSH , HeavyArmoredCorps_key+0
 .byte   VOICE , 40
 .byte   VOL , 31*HeavyArmoredCorps_mvl/mxv
 .byte   PAN , c_v-11
 .byte   W96
@  #02 @001   ----------------------------------------
 .byte   W96
@  #02 @002   ----------------------------------------
Label_010F88C2:
 .byte   W96
@  #02 @003   ----------------------------------------
 .byte   W96
@  #02 @004   ----------------------------------------
 .byte   W96
@  #02 @005   ----------------------------------------
 .byte   W96
@  #02 @006   ----------------------------------------
 .byte   W96
@  #02 @007   ----------------------------------------
 .byte   W96
@  #02 @008   ----------------------------------------
 .byte   W96
@  #02 @009   ----------------------------------------
 .byte   W96
@  #02 @010   ----------------------------------------
 .byte   W96
@  #02 @011   ----------------------------------------
 .byte   W96
@  #02 @012   ----------------------------------------
 .byte   W96
@  #02 @013   ----------------------------------------
 .byte   W96
@  #02 @014   ----------------------------------------
 .byte   W96
@  #02 @015   ----------------------------------------
 .byte   W96
@  #02 @016   ----------------------------------------
 .byte   W96
@  #02 @017   ----------------------------------------
 .byte   W96
@  #02 @018   ----------------------------------------
 .byte   W96
@  #02 @019   ----------------------------------------
 .byte   W96
@  #02 @020   ----------------------------------------
 .byte   W96
@  #02 @021   ----------------------------------------
 .byte   W96
@  #02 @022   ----------------------------------------
 .byte   W96
@  #02 @023   ----------------------------------------
 .byte   W96
@  #02 @024   ----------------------------------------
 .byte   W96
@  #02 @025   ----------------------------------------
 .byte   W96
@  #02 @026   ----------------------------------------
 .byte   W96
@  #02 @027   ----------------------------------------
 .byte   W96
@  #02 @028   ----------------------------------------
 .byte   W96
@  #02 @029   ----------------------------------------
 .byte   W96
@  #02 @030   ----------------------------------------
 .byte   W96
@  #02 @031   ----------------------------------------
 .byte   W96
@  #02 @032   ----------------------------------------
Label_010F88E0:
 .byte   W24
 .byte   N48 ,Cn3 ,v114 ,gtp2
 .byte   W48
 .byte   N24 ,As2 ,v113 ,gtp2
 .byte   W24
 .byte   PEND 
@  #02 @033   ----------------------------------------
Label_010F88EC:
 .byte   N24 ,Cn3 ,v114 ,gtp2
 .byte   W24
 .byte   N48 ,Dn3 ,v115 ,gtp2
 .byte   W48
 .byte   As2 ,v113
 .byte   W24
 .byte   PEND 
@  #02 @034   ----------------------------------------
Label_010F88FA:
 .byte   W24
 .byte   N48 ,Ds3 ,v116 ,gtp2
 .byte   W48
 .byte   N72 ,Gn2 ,v112 ,gtp2
 .byte   W24
 .byte   PEND 
@  #02 @035   ----------------------------------------
Label_010F8906:
 .byte   W48
 .byte   N24 ,Cn3 ,v113 ,gtp2
 .byte   W24
 .byte   N36 ,Dn3 ,v114 ,gtp2
 .byte   W24
 .byte   PEND 
@  #02 @036   ----------------------------------------
Label_010F8912:
 .byte   W12
 .byte   N14 ,Ds3 ,v115
 .byte   W12
 .byte   N48 ,Gn3 ,v117 ,gtp2
 .byte   W48
 .byte   N24 ,Fn3 ,v115 ,gtp2
 .byte   W24
 .byte   PEND 
@  #02 @037   ----------------------------------------
Label_010F8922:
 .byte   N24 ,Gn3 ,v116 ,gtp2
 .byte   W24
 .byte   N48 ,As3 ,v117 ,gtp2
 .byte   W48
 .byte   N24 ,Gs3 ,v116 ,gtp2
 .byte   W24
 .byte   PEND 
@  #02 @038   ----------------------------------------
Label_010F8932:
 .byte   N24 ,Gn3 ,v115 ,gtp2
 .byte   W24
 .byte   N48 ,Fn3 ,v114 ,gtp2
 .byte   W48
 .byte   Ds3 ,v113
 .byte   W24
 .byte   PEND 
@  #02 @039   ----------------------------------------
 .byte   W24
 .byte   Dn3 ,v112
 .byte   W48
 .byte   N48 ,As2 ,v107
 .byte   W24
@  #02 @040   ----------------------------------------
 .byte   PATT
  .word Label_010F88E0
@  #02 @041   ----------------------------------------
 .byte   PATT
  .word Label_010F88EC
@  #02 @042   ----------------------------------------
 .byte   PATT
  .word Label_010F88FA
@  #02 @043   ----------------------------------------
 .byte   PATT
  .word Label_010F8906
@  #02 @044   ----------------------------------------
 .byte   PATT
  .word Label_010F8912
@  #02 @045   ----------------------------------------
 .byte   PATT
  .word Label_010F8922
@  #02 @046   ----------------------------------------
 .byte   PATT
  .word Label_010F8932
@  #02 @047   ----------------------------------------
 .byte   W24
 .byte   N48 ,Dn3 ,v112 ,gtp2
 .byte   W48
 .byte   N48 ,Gn3 ,v107
 .byte   W24
@  #02 @048   ----------------------------------------
 .byte   PATT
  .word Label_010F85F2
@  #02 @049   ----------------------------------------
 .byte   PATT
  .word Label_010F85FE
@  #02 @050   ----------------------------------------
 .byte   W24
 .byte   N48 ,Fn4 ,v116 ,gtp2
 .byte   W48
 .byte   Ds4 ,v112
 .byte   W24
@  #02 @051   ----------------------------------------
 .byte   W24
 .byte   N24 ,Dn4
 .byte   W24
 .byte   Gn3 ,v113
 .byte   DnM2
 .byte   W24
 .byte   N36 ,Cn4 ,v114 ,gtp2
 .byte   W24
@  #02 @052   ----------------------------------------
 .byte   W12
 .byte   N14 ,As3 ,v115
 .byte   W12
 .byte   N48 ,Ds3 ,v116 ,gtp2
 .byte   W48
 .byte   N24 ,Fn3 ,v115 ,gtp2
 .byte   W24
@  #02 @053   ----------------------------------------
 .byte   Gn3 ,v116
 .byte   W24
 .byte   N48 ,Fn3 ,v117 ,gtp2
 .byte   W48
 .byte   N24 ,Gn3 ,v116 ,gtp2
 .byte   W24
@  #02 @054   ----------------------------------------
 .byte   Gs3 ,v115
 .byte   W24
 .byte   TIE ,Gn3 ,v116
 .byte   W72
@  #02 @055   ----------------------------------------
 .byte   W96
@  #02 @056   ----------------------------------------
 .byte   W24
 .byte   EOT
 .byte   W72
@  #02 @057   ----------------------------------------
 .byte   W92
 .byte   W03
 .byte   GOTO
  .word Label_010F88C2
@  #02 @058   ----------------------------------------
 .byte   W01
 .byte   W48
 .byte   FINE

@**************** Track 3 (Midi-Chn.2) ****************@

HeavyArmoredCorps_003:
@  #03 @000   ----------------------------------------
 .byte   KEYSH , HeavyArmoredCorps_key+0
 .byte   VOICE , 41
 .byte   VOL , 31*HeavyArmoredCorps_mvl/mxv
 .byte   PAN , c_v+26
 .byte   W96
@  #03 @001   ----------------------------------------
 .byte   W96
@  #03 @002   ----------------------------------------
Label_010F9386:
 .byte   W96
@  #03 @003   ----------------------------------------
 .byte   W96
@  #03 @004   ----------------------------------------
 .byte   W96
@  #03 @005   ----------------------------------------
 .byte   W96
@  #03 @006   ----------------------------------------
 .byte   W96
@  #03 @007   ----------------------------------------
 .byte   W96
@  #03 @008   ----------------------------------------
 .byte   W96
@  #03 @009   ----------------------------------------
 .byte   W96
@  #03 @010   ----------------------------------------
 .byte   W96
@  #03 @011   ----------------------------------------
Label_010F938F:
 .byte   W72
 .byte   N48 ,Gn2 ,v104 ,gtp2
 .byte   W24
 .byte   PEND 
@  #03 @012   ----------------------------------------
Label_010F9396:
 .byte   W24
 .byte   TIE ,Fn2 ,v106
 .byte   N48 ,Cn3 ,v106 ,gtp2
 .byte   W48
 .byte   TIE ,As2 ,v104
 .byte   W24
 .byte   PEND 
@  #03 @013   ----------------------------------------
Label_010F93A4:
 .byte   W72
 .byte   N48 ,Cn3 ,v105 ,gtp2
 .byte   W02
 .byte   EOT
 .byte   As2
 .byte   W22
 .byte   PEND 
@  #03 @014   ----------------------------------------
Label_010F93AE:
 .byte   N24 ,Gn2 ,v105 ,gtp2
 .byte   W02
 .byte   EOT
 .byte   Fn2
 .byte   W22
 .byte   TIE ,Gs2 ,v106
 .byte   N48 ,Ds3 ,v106 ,gtp2
 .byte   W48
 .byte   TIE ,Cs3 ,v105
 .byte   W24
 .byte   PEND 
@  #03 @015   ----------------------------------------
Label_010F93C3:
 .byte   W72
 .byte   N48 ,Gs3 ,v106 ,gtp2
 .byte   W02
 .byte   EOT
 .byte   Cs3
 .byte   W22
 .byte   PEND 
@  #03 @016   ----------------------------------------
Label_010F93CD:
 .byte   W24
 .byte   TIE ,Gn2 ,v105
 .byte   TIE ,Gn3
 .byte   W02
 .byte   EOT
 .byte   Gs2
 .byte   W68
 .byte   W02
 .byte   PEND 
@  #03 @017   ----------------------------------------
Label_010F93D9:
 .byte   W72
 .byte   N48 ,Fn2 ,v104 ,gtp2
 .byte   Fn3
 .byte   W02
 .byte   EOT
 .byte   Gn2 ,v067
 .byte   W22
 .byte   PEND 
@  #03 @018   ----------------------------------------
Label_010F93E5:
 .byte   W24
 .byte   TIE ,Ds2 ,v103
 .byte   TIE ,Ds3
 .byte   W72
 .byte   PEND 
@  #03 @019   ----------------------------------------
Label_010F93ED:
 .byte   W24
 .byte   N48 ,Dn2 ,v102 ,gtp2
 .byte   Dn3
 .byte   W02
 .byte   EOT
 .byte   Ds2 ,v063
 .byte   W44
 .byte   W02
 .byte   N48 ,Cn2 ,v101
 .byte   N48 ,Cn3 ,v101 ,gtp2
 .byte   W24
 .byte   PEND 
@  #03 @020   ----------------------------------------
Label_010F9402:
 .byte   W24
 .byte   TIE ,Gn2 ,v104
 .byte   TIE ,Gn3
 .byte   W72
 .byte   PEND 
@  #03 @021   ----------------------------------------
Label_010F940A:
 .byte   W72
 .byte   N24 ,Fn2 ,v103 ,gtp2
 .byte   Fn3
 .byte   W02
 .byte   EOT
 .byte   Gn2 ,v067
 .byte   W22
 .byte   PEND 
@  #03 @022   ----------------------------------------
Label_010F9416:
 .byte   N24 ,Gn2 ,v104 ,gtp2
 .byte   Gn3
 .byte   W24
 .byte   TIE ,Gs2 ,v105
 .byte   TIE ,Gs3
 .byte   W72
 .byte   PEND 
@  #03 @023   ----------------------------------------
Label_010F9423:
 .byte   W24
 .byte   TIE ,Fn2 ,v105
 .byte   TIE ,Fn3
 .byte   W02
 .byte   EOT
 .byte   Gs2 ,v068
 .byte   W68
 .byte   W02
 .byte   PEND 
@  #03 @024   ----------------------------------------
Label_010F9430:
 .byte   W24
 .byte   TIE ,Gn2 ,v105
 .byte   TIE ,Gn3
 .byte   W02
 .byte   EOT
 .byte   Fn2 ,v065
 .byte   W68
 .byte   W02
 .byte   PEND 
@  #03 @025   ----------------------------------------
 .byte   PATT
  .word Label_010F93D9
@  #03 @026   ----------------------------------------
 .byte   PATT
  .word Label_010F93E5
@  #03 @027   ----------------------------------------
 .byte   PATT
  .word Label_010F93ED
@  #03 @028   ----------------------------------------
 .byte   PATT
  .word Label_010F9402
@  #03 @029   ----------------------------------------
 .byte   PATT
  .word Label_010F940A
@  #03 @030   ----------------------------------------
Label_010F9456:
 .byte   N24 ,Gn2 ,v104 ,gtp2
 .byte   Gn3
 .byte   W24
 .byte   N48 ,Gs2 ,v105 ,gtp2
 .byte   Gs3
 .byte   W48
 .byte   N36 ,Cs2 ,v104 ,gtp2
 .byte   Cs3
 .byte   W24
 .byte   PEND 
@  #03 @031   ----------------------------------------
Label_010F9469:
 .byte   W12
 .byte   N14 ,Ds2 ,v105
 .byte   N14 ,Ds3
 .byte   W12
 .byte   N24 ,Fn2 ,v105 ,gtp2
 .byte   Fn3
 .byte   W24
 .byte   Gn2 ,v106
 .byte   N24 ,Gn3 ,v106 ,gtp2
 .byte   W24
 .byte   Gs2 ,v107
 .byte   N24 ,Gs3 ,v107 ,gtp2
 .byte   W24
 .byte   PEND 
@  #03 @032   ----------------------------------------
Label_010F9485:
 .byte   N24 ,As2 ,v109 ,gtp2
 .byte   As3
 .byte   W24
 .byte   TIE ,Gn2 ,v107
 .byte   TIE ,Gn3
 .byte   W72
 .byte   PEND 
@  #03 @033   ----------------------------------------
 .byte   W96
@  #03 @034   ----------------------------------------
 .byte   W96
@  #03 @035   ----------------------------------------
 .byte   W96
@  #03 @036   ----------------------------------------
Label_010F9495:
 .byte   W24
 .byte   TIE ,Gs2 ,v108
 .byte   TIE ,Cn3
 .byte   W02
 .byte   EOT
 .byte   Gn2 ,v067
 .byte   W68
 .byte   W02
 .byte   PEND 
@  #03 @037   ----------------------------------------
Label_010F94A2:
 .byte   W24
 .byte   TIE ,Fn3 ,v109
 .byte   W02
 .byte   EOT
 .byte   Cn3
 .byte   W68
 .byte   W02
 .byte   PEND 
@  #03 @038   ----------------------------------------
Label_010F94AC:
 .byte   W24
 .byte   TIE ,Gn2 ,v107
 .byte   TIE ,As2
 .byte   W02
 .byte   EOT
 .byte   Gs2 ,v065
 .byte   W68
 .byte   W02
 .byte   PEND 
@  #03 @039   ----------------------------------------
 .byte   W96
@  #03 @040   ----------------------------------------
Label_010F94BA:
 .byte   W24
 .byte   EOT
 .byte   Gn2 ,v058
 .byte   TIE ,Gn2 ,v107
 .byte   TIE ,Gn3
 .byte   W72
 .byte   PEND 
@  #03 @041   ----------------------------------------
 .byte   W96
@  #03 @042   ----------------------------------------
 .byte   W96
@  #03 @043   ----------------------------------------
 .byte   W96
@  #03 @044   ----------------------------------------
 .byte   PATT
  .word Label_010F9495
@  #03 @045   ----------------------------------------
 .byte   PATT
  .word Label_010F94A2
@  #03 @046   ----------------------------------------
Label_010F94D2:
 .byte   W24
 .byte   TIE ,Gn2 ,v107
 .byte   N96 ,As2
 .byte   W02
 .byte   EOT
 .byte   Gs2 ,v065
 .byte   W68
 .byte   W02
 .byte   PEND 
@  #03 @047   ----------------------------------------
 .byte   W96
@  #03 @048   ----------------------------------------
Label_010F94E0:
 .byte   W24
 .byte   EOT
 .byte   Gn2
 .byte   N96 ,Gs2 ,v107
 .byte   N96 ,Cn3
 .byte   W72
 .byte   PEND 
@  #03 @049   ----------------------------------------
Label_010F94EA:
 .byte   W24
 .byte   TIE ,As2 ,v107
 .byte   TIE ,Dn3
 .byte   W72
 .byte   PEND 
@  #03 @050   ----------------------------------------
Label_010F94F2:
 .byte   W72
 .byte   EOT
 .byte   As2 ,v062
 .byte   N48 ,Cn3 ,v107
 .byte   N48 ,Ds3
 .byte   W24
 .byte   PEND 
@  #03 @051   ----------------------------------------
Label_010F94FD:
 .byte   W24
 .byte   N48 ,Dn3 ,v107
 .byte   N48 ,Fn3
 .byte   W48
 .byte   Ds3
 .byte   N48 ,Gn3
 .byte   W24
 .byte   PEND 
@  #03 @052   ----------------------------------------
Label_010F9509:
 .byte   W24
 .byte   N96 ,Cn3 ,v107
 .byte   TIE ,Gs3
 .byte   W72
 .byte   PEND 
@  #03 @053   ----------------------------------------
Label_010F9511:
 .byte   W24
 .byte   N96 ,Cs3 ,v107
 .byte   W72
 .byte   PEND 
@  #03 @054   ----------------------------------------
Label_010F9517:
 .byte   W24
 .byte   EOT
 .byte   Gs3
 .byte   N96 ,Dn3 ,v107
 .byte   N48 ,Gn3
 .byte   W48
 .byte   N96 ,Cn4
 .byte   W24
 .byte   PEND 
@  #03 @055   ----------------------------------------
Label_010F9524:
 .byte   W24
 .byte   N96 ,Fn3 ,v107
 .byte   W48
 .byte   N48 ,Bn3
 .byte   W24
 .byte   PEND 
@  #03 @056   ----------------------------------------
 .byte   W96
@  #03 @057   ----------------------------------------
 .byte   W92
 .byte   W03
 .byte   GOTO
  .word Label_010F9386
@  #03 @058   ----------------------------------------
 .byte   W01
 .byte   W48
 .byte   FINE

@**************** Track 4 (Midi-Chn.3) ****************@

HeavyArmoredCorps_004:
@  #04 @000   ----------------------------------------
 .byte   KEYSH , HeavyArmoredCorps_key+0
 .byte   VOICE , 40
 .byte   W01
 .byte   VOL , 26*HeavyArmoredCorps_mvl/mxv
 .byte   PAN , c_v-34
 .byte   W92
 .byte   W03
@  #04 @001   ----------------------------------------
 .byte   W96
@  #04 @002   ----------------------------------------
Label_F51364:
 .byte   W96
@  #04 @003   ----------------------------------------
 .byte   W96
@  #04 @004   ----------------------------------------
 .byte   W96
@  #04 @005   ----------------------------------------
 .byte   W96
@  #04 @006   ----------------------------------------
 .byte   W96
@  #04 @007   ----------------------------------------
 .byte   W96
@  #04 @008   ----------------------------------------
 .byte   W96
@  #04 @009   ----------------------------------------
 .byte   W96
@  #04 @010   ----------------------------------------
 .byte   W96
@  #04 @011   ----------------------------------------
 .byte   PATT
  .word Label_010F938F
@  #04 @012   ----------------------------------------
 .byte   PATT
  .word Label_010F9396
@  #04 @013   ----------------------------------------
 .byte   PATT
  .word Label_010F93A4
@  #04 @014   ----------------------------------------
 .byte   PATT
  .word Label_010F93AE
@  #04 @015   ----------------------------------------
 .byte   PATT
  .word Label_010F93C3
@  #04 @016   ----------------------------------------
 .byte   PATT
  .word Label_010F93CD
@  #04 @017   ----------------------------------------
 .byte   PATT
  .word Label_010F93D9
@  #04 @018   ----------------------------------------
 .byte   PATT
  .word Label_010F93E5
@  #04 @019   ----------------------------------------
 .byte   PATT
  .word Label_010F93ED
@  #04 @020   ----------------------------------------
 .byte   PATT
  .word Label_010F9402
@  #04 @021   ----------------------------------------
 .byte   PATT
  .word Label_010F940A
@  #04 @022   ----------------------------------------
 .byte   PATT
  .word Label_010F9416
@  #04 @023   ----------------------------------------
 .byte   PATT
  .word Label_010F9423
@  #04 @024   ----------------------------------------
 .byte   PATT
  .word Label_010F9430
@  #04 @025   ----------------------------------------
 .byte   PATT
  .word Label_010F93D9
@  #04 @026   ----------------------------------------
 .byte   PATT
  .word Label_010F93E5
@  #04 @027   ----------------------------------------
 .byte   PATT
  .word Label_010F93ED
@  #04 @028   ----------------------------------------
 .byte   PATT
  .word Label_010F9402
@  #04 @029   ----------------------------------------
 .byte   PATT
  .word Label_010F940A
@  #04 @030   ----------------------------------------
 .byte   PATT
  .word Label_010F9456
@  #04 @031   ----------------------------------------
 .byte   PATT
  .word Label_010F9469
@  #04 @032   ----------------------------------------
 .byte   PATT
  .word Label_010F9485
@  #04 @033   ----------------------------------------
 .byte   W96
@  #04 @034   ----------------------------------------
 .byte   W96
@  #04 @035   ----------------------------------------
 .byte   W96
@  #04 @036   ----------------------------------------
 .byte   PATT
  .word Label_010F9495
@  #04 @037   ----------------------------------------
 .byte   PATT
  .word Label_010F94A2
@  #04 @038   ----------------------------------------
 .byte   PATT
  .word Label_010F94AC
@  #04 @039   ----------------------------------------
 .byte   W96
@  #04 @040   ----------------------------------------
 .byte   PATT
  .word Label_010F94BA
@  #04 @041   ----------------------------------------
 .byte   W96
@  #04 @042   ----------------------------------------
 .byte   W96
@  #04 @043   ----------------------------------------
 .byte   W96
@  #04 @044   ----------------------------------------
 .byte   PATT
  .word Label_010F9495
@  #04 @045   ----------------------------------------
 .byte   PATT
  .word Label_010F94A2
@  #04 @046   ----------------------------------------
 .byte   PATT
  .word Label_010F94D2
@  #04 @047   ----------------------------------------
 .byte   W96
@  #04 @048   ----------------------------------------
 .byte   PATT
  .word Label_010F94E0
@  #04 @049   ----------------------------------------
 .byte   PATT
  .word Label_010F94EA
@  #04 @050   ----------------------------------------
 .byte   PATT
  .word Label_010F94F2
@  #04 @051   ----------------------------------------
 .byte   PATT
  .word Label_010F94FD
@  #04 @052   ----------------------------------------
 .byte   PATT
  .word Label_010F9509
@  #04 @053   ----------------------------------------
 .byte   PATT
  .word Label_010F9511
@  #04 @054   ----------------------------------------
 .byte   PATT
  .word Label_010F9517
@  #04 @055   ----------------------------------------
 .byte   PATT
  .word Label_010F9524
@  #04 @056   ----------------------------------------
 .byte   W96
@  #04 @057   ----------------------------------------
 .byte   W92
 .byte   W03
 .byte   GOTO
  .word Label_F51364
@  #04 @058   ----------------------------------------
 .byte   W01
 .byte   W48
 .byte   FINE

@**************** Track 5 (Midi-Chn.4) ****************@

HeavyArmoredCorps_005:
@  #05 @000   ----------------------------------------
 .byte   KEYSH , HeavyArmoredCorps_key+0
 .byte   W01
 .byte   VOICE , 1
 .byte   VOL , 31*HeavyArmoredCorps_mvl/mxv
 .byte   PAN , c_v-31
 .byte   W92
 .byte   W03
@  #05 @001   ----------------------------------------
 .byte   W96
@  #05 @002   ----------------------------------------
Label_F520F0:
 .byte   W24
 .byte   N03 ,Ds2 ,v115
 .byte   W06
 .byte   Ds2 ,v110
 .byte   W06
 .byte   Ds2 ,v113
 .byte   W24
 .byte   Ds2 ,v110
 .byte   W06
 .byte   Ds2 ,v112
 .byte   W06
 .byte   Ds2 ,v113
 .byte   W24
@  #05 @003   ----------------------------------------
Label_F52104:
 .byte   N03 ,Ds2 ,v110
 .byte   W06
 .byte   Ds2 ,v112
 .byte   W06
 .byte   Ds2 ,v113
 .byte   W06
 .byte   Ds2 ,v114
 .byte   W06
 .byte   Ds2 ,v115
 .byte   W06
 .byte   Ds2 ,v110
 .byte   W06
 .byte   Ds2 ,v113
 .byte   W24
 .byte   Ds2 ,v110
 .byte   W06
 .byte   Ds2 ,v112
 .byte   W06
 .byte   Ds2 ,v113
 .byte   W24
 .byte   PEND 
@  #05 @004   ----------------------------------------
 .byte   Ds2 ,v110
 .byte   W06
 .byte   Ds2 ,v112
 .byte   W06
 .byte   Ds2 ,v113
 .byte   W06
 .byte   Ds2 ,v114
 .byte   W06
 .byte   Cs2 ,v115
 .byte   N03 ,Fn2
 .byte   W06
 .byte   Cs2 ,v110
 .byte   N03 ,Fn2
 .byte   W06
 .byte   Cs2 ,v113
 .byte   N03 ,Fn2
 .byte   W24
 .byte   Cs2 ,v110
 .byte   N03 ,Fn2
 .byte   W06
 .byte   Cs2 ,v112
 .byte   N03 ,Fn2
 .byte   W06
 .byte   Cs2 ,v113
 .byte   N03 ,Fn2
 .byte   W24
@  #05 @005   ----------------------------------------
 .byte   Cs2 ,v110
 .byte   N03 ,Fn2
 .byte   W06
 .byte   Cs2 ,v112
 .byte   N03 ,Fn2
 .byte   W06
 .byte   Cs2 ,v113
 .byte   N03 ,Fn2
 .byte   W06
 .byte   Cs2 ,v114
 .byte   N03 ,Fn2
 .byte   W06
 .byte   Cs2 ,v115
 .byte   N03 ,Fn2
 .byte   W06
 .byte   Cs2 ,v110
 .byte   N03 ,Fn2
 .byte   W06
 .byte   Cs2 ,v113
 .byte   N03 ,Fn2
 .byte   W24
 .byte   Cs2 ,v110
 .byte   N03 ,Fn2
 .byte   W06
 .byte   Cs2 ,v112
 .byte   N03 ,Fn2
 .byte   W06
 .byte   Cs2 ,v113
 .byte   N03 ,Fn2
 .byte   W24
@  #05 @006   ----------------------------------------
 .byte   Cs2 ,v110
 .byte   N03 ,Fn2
 .byte   W06
 .byte   Cs2 ,v112
 .byte   N03 ,Fn2
 .byte   W06
 .byte   Cs2 ,v113
 .byte   N03 ,Fn2
 .byte   W06
 .byte   Cs2 ,v114
 .byte   N03 ,Fn2
 .byte   W06
 .byte   Cs2 ,v115
 .byte   N03 ,Gs2
 .byte   W06
 .byte   Cs2 ,v110
 .byte   N03 ,Gs2
 .byte   W06
 .byte   Cs2 ,v113
 .byte   N03 ,Gs2
 .byte   W24
 .byte   Cs2 ,v110
 .byte   N03 ,Gs2
 .byte   W06
 .byte   Cs2 ,v112
 .byte   N03 ,Gs2
 .byte   W06
 .byte   Cs2 ,v113
 .byte   N03 ,Gs2
 .byte   W24
@  #05 @007   ----------------------------------------
 .byte   Cs2 ,v110
 .byte   N03 ,Gs2
 .byte   W06
 .byte   Cs2 ,v112
 .byte   N03 ,Gs2
 .byte   W06
 .byte   Cs2 ,v113
 .byte   N03 ,Gs2
 .byte   W06
 .byte   Cs2 ,v114
 .byte   N03 ,Gs2
 .byte   W06
 .byte   Fn2 ,v115
 .byte   N03 ,Cs3
 .byte   W06
 .byte   Fn2 ,v110
 .byte   N03 ,Cs3
 .byte   W06
 .byte   Fn2 ,v113
 .byte   N03 ,Cs3
 .byte   W24
 .byte   Fn2 ,v110
 .byte   N03 ,Cs3
 .byte   W06
 .byte   Fn2 ,v112
 .byte   N03 ,Cs3
 .byte   W06
 .byte   Fn2 ,v113
 .byte   N03 ,Cs3
 .byte   W24
@  #05 @008   ----------------------------------------
 .byte   Fn2 ,v110
 .byte   N03 ,Cs3
 .byte   W06
 .byte   Fn2 ,v112
 .byte   N03 ,Cs3
 .byte   W06
 .byte   Fn2 ,v113
 .byte   N03 ,Cs3
 .byte   W06
 .byte   Fn2 ,v114
 .byte   N03 ,Cs3
 .byte   W78
@  #05 @009   ----------------------------------------
 .byte   W96
@  #05 @010   ----------------------------------------
 .byte   W24
 .byte   Ds2 ,v115
 .byte   W06
 .byte   Ds2 ,v110
 .byte   W06
 .byte   Ds2 ,v113
 .byte   W24
 .byte   Ds2 ,v110
 .byte   W06
 .byte   Ds2 ,v112
 .byte   W06
 .byte   Ds2 ,v113
 .byte   W24
@  #05 @011   ----------------------------------------
 .byte   PATT
  .word Label_F52104
@  #05 @012   ----------------------------------------
 .byte   N03 ,Ds2 ,v110
 .byte   W06
 .byte   Ds2 ,v112
 .byte   W06
 .byte   Ds2 ,v113
 .byte   W06
 .byte   Ds2 ,v114
 .byte   W78
@  #05 @013   ----------------------------------------
 .byte   W96
@  #05 @014   ----------------------------------------
 .byte   W96
@  #05 @015   ----------------------------------------
 .byte   W96
@  #05 @016   ----------------------------------------
 .byte   W96
@  #05 @017   ----------------------------------------
 .byte   W96
@  #05 @018   ----------------------------------------
 .byte   W96
@  #05 @019   ----------------------------------------
 .byte   W96
@  #05 @020   ----------------------------------------
 .byte   W96
@  #05 @021   ----------------------------------------
 .byte   W96
@  #05 @022   ----------------------------------------
 .byte   W96
@  #05 @023   ----------------------------------------
 .byte   W96
@  #05 @024   ----------------------------------------
 .byte   W96
@  #05 @025   ----------------------------------------
 .byte   W96
@  #05 @026   ----------------------------------------
 .byte   W96
@  #05 @027   ----------------------------------------
 .byte   W96
@  #05 @028   ----------------------------------------
 .byte   W96
@  #05 @029   ----------------------------------------
 .byte   W96
@  #05 @030   ----------------------------------------
 .byte   W96
@  #05 @031   ----------------------------------------
 .byte   W96
@  #05 @032   ----------------------------------------
 .byte   W96
@  #05 @033   ----------------------------------------
 .byte   W96
@  #05 @034   ----------------------------------------
 .byte   W96
@  #05 @035   ----------------------------------------
 .byte   W96
@  #05 @036   ----------------------------------------
 .byte   W96
@  #05 @037   ----------------------------------------
 .byte   W96
@  #05 @038   ----------------------------------------
 .byte   W96
@  #05 @039   ----------------------------------------
 .byte   W96
@  #05 @040   ----------------------------------------
 .byte   W96
@  #05 @041   ----------------------------------------
 .byte   W96
@  #05 @042   ----------------------------------------
 .byte   W96
@  #05 @043   ----------------------------------------
 .byte   W96
@  #05 @044   ----------------------------------------
 .byte   W96
@  #05 @045   ----------------------------------------
 .byte   W96
@  #05 @046   ----------------------------------------
 .byte   W96
@  #05 @047   ----------------------------------------
 .byte   W96
@  #05 @048   ----------------------------------------
 .byte   W96
@  #05 @049   ----------------------------------------
 .byte   W96
@  #05 @050   ----------------------------------------
 .byte   W96
@  #05 @051   ----------------------------------------
 .byte   W96
@  #05 @052   ----------------------------------------
 .byte   W96
@  #05 @053   ----------------------------------------
 .byte   W96
@  #05 @054   ----------------------------------------
 .byte   W96
@  #05 @055   ----------------------------------------
 .byte   W96
@  #05 @056   ----------------------------------------
 .byte   W96
@  #05 @057   ----------------------------------------
 .byte   W92
 .byte   W03
 .byte   GOTO
  .word Label_F520F0
@  #05 @058   ----------------------------------------
 .byte   W01
 .byte   W48
 .byte   FINE

@**************** Track 6 (Midi-Chn.5) ****************@

HeavyArmoredCorps_006:
@  #06 @000   ----------------------------------------
 .byte   KEYSH , HeavyArmoredCorps_key+0
 .byte   W01
 .byte   VOICE , 1
 .byte   VOL , 34*HeavyArmoredCorps_mvl/mxv
 .byte   PAN , c_v-25
 .byte   W23
 .byte   N03 ,Cn2 ,v115
 .byte   W06
 .byte   Cn2 ,v110
 .byte   W06
 .byte   Cn2 ,v113
 .byte   W24
 .byte   Cn2 ,v110
 .byte   W06
 .byte   Cn2 ,v112
 .byte   W06
 .byte   Cn2 ,v113
 .byte   W24
@  #06 @001   ----------------------------------------
Label_010F982D:
 .byte   N03 ,Cn2 ,v110
 .byte   W06
 .byte   Cn2 ,v112
 .byte   W06
 .byte   Cn2 ,v113
 .byte   W06
 .byte   Cn2 ,v114
 .byte   W06
 .byte   Cn2 ,v115
 .byte   W06
 .byte   Cn2 ,v110
 .byte   W06
 .byte   Cn2 ,v113
 .byte   W24
 .byte   Cn2 ,v110
 .byte   W06
 .byte   Cn2 ,v112
 .byte   W06
 .byte   Cn2 ,v113
 .byte   W24
 .byte   PEND 
@  #06 @002   ----------------------------------------
Label_010F984D:
 .byte   N03 ,Cn2 ,v110
 .byte   W06
 .byte   Cn2 ,v112
 .byte   W06
 .byte   Cn2 ,v113
 .byte   W06
 .byte   Cn2 ,v114
 .byte   W06
 .byte   Cn2 ,v115
 .byte   W06
 .byte   Cn2 ,v110
 .byte   W06
 .byte   Cn2 ,v113
 .byte   W24
 .byte   Cn2 ,v110
 .byte   W06
 .byte   Cn2 ,v112
 .byte   W06
 .byte   Cn2 ,v113
 .byte   W24
@  #06 @003   ----------------------------------------
 .byte   PATT
  .word Label_010F982D
@  #06 @004   ----------------------------------------
 .byte   PATT
  .word Label_010F982D
@  #06 @005   ----------------------------------------
 .byte   PATT
  .word Label_010F982D
@  #06 @006   ----------------------------------------
 .byte   N03 ,Cn2 ,v110
 .byte   W06
 .byte   Cn2 ,v112
 .byte   W06
 .byte   Cn2 ,v113
 .byte   W06
 .byte   Cn2 ,v114
 .byte   W06
 .byte   Cn2 ,v115
 .byte   N03 ,Fn2
 .byte   W06
 .byte   Cn2 ,v110
 .byte   N03 ,Fn2
 .byte   W06
 .byte   Cn2 ,v113
 .byte   N03 ,Fn2
 .byte   W24
 .byte   Cn2 ,v110
 .byte   N03 ,Fn2
 .byte   W06
 .byte   Cn2 ,v112
 .byte   N03 ,Fn2
 .byte   W06
 .byte   Cn2 ,v113
 .byte   N03 ,Fn2
 .byte   W24
@  #06 @007   ----------------------------------------
 .byte   Cn2 ,v110
 .byte   N03 ,Fn2
 .byte   W06
 .byte   Cn2 ,v112
 .byte   N03 ,Fn2
 .byte   W06
 .byte   Cn2 ,v113
 .byte   N03 ,Fn2
 .byte   W06
 .byte   Cn2 ,v114
 .byte   N03 ,Fn2
 .byte   W06
 .byte   Cs2 ,v115
 .byte   N03 ,Gs2
 .byte   W06
 .byte   Cs2 ,v110
 .byte   N03 ,Gs2
 .byte   W06
 .byte   Cs2 ,v113
 .byte   N03 ,Gs2
 .byte   W24
 .byte   Cs2 ,v110
 .byte   N03 ,Gs2
 .byte   W06
 .byte   Cs2 ,v112
 .byte   N03 ,Gs2
 .byte   W06
 .byte   Cs2 ,v113
 .byte   N03 ,Gs2
 .byte   W24
@  #06 @008   ----------------------------------------
 .byte   Cs2 ,v110
 .byte   N03 ,Gs2
 .byte   W06
 .byte   Cs2 ,v112
 .byte   N03 ,Gs2
 .byte   W06
 .byte   Cs2 ,v113
 .byte   N03 ,Gs2
 .byte   W06
 .byte   Cs2 ,v114
 .byte   N03 ,Gs2
 .byte   W06
 .byte   Cn2 ,v115
 .byte   W06
 .byte   Cn2 ,v110
 .byte   W06
 .byte   Cn2 ,v113
 .byte   W24
 .byte   Cn2 ,v110
 .byte   W06
 .byte   Cn2 ,v112
 .byte   W06
 .byte   Cn2 ,v113
 .byte   W24
@  #06 @009   ----------------------------------------
 .byte   PATT
  .word Label_010F982D
@  #06 @010   ----------------------------------------
 .byte   PATT
  .word Label_010F982D
@  #06 @011   ----------------------------------------
 .byte   PATT
  .word Label_010F982D
@  #06 @012   ----------------------------------------
Label_010F990D:
 .byte   N03 ,Cn2 ,v110
 .byte   W06
 .byte   Cn2 ,v112
 .byte   W06
 .byte   Cn2 ,v113
 .byte   W06
 .byte   Cn2 ,v114
 .byte   W06
 .byte   Cs2 ,v115
 .byte   W06
 .byte   Cs2 ,v110
 .byte   W06
 .byte   Cs2 ,v113
 .byte   W24
 .byte   Cs2 ,v110
 .byte   W06
 .byte   Cs2 ,v112
 .byte   W06
 .byte   Cs2 ,v113
 .byte   W24
 .byte   PEND 
@  #06 @013   ----------------------------------------
Label_010F992D:
 .byte   N03 ,Cs2 ,v110
 .byte   W06
 .byte   Cs2 ,v112
 .byte   W06
 .byte   Cs2 ,v113
 .byte   W06
 .byte   Cs2 ,v114
 .byte   W06
 .byte   Cn2 ,v115
 .byte   W06
 .byte   Cn2 ,v110
 .byte   W06
 .byte   Cn2 ,v113
 .byte   W24
 .byte   Cn2 ,v110
 .byte   W06
 .byte   Cn2 ,v112
 .byte   W06
 .byte   Cn2 ,v113
 .byte   W24
 .byte   PEND 
@  #06 @014   ----------------------------------------
 .byte   PATT
  .word Label_010F990D
@  #06 @015   ----------------------------------------
Label_010F9952:
 .byte   N03 ,Cs2 ,v110
 .byte   W06
 .byte   Cs2 ,v112
 .byte   W06
 .byte   Cs2 ,v113
 .byte   W06
 .byte   Cs2 ,v114
 .byte   W06
 .byte   Cs2 ,v115
 .byte   W06
 .byte   Cs2 ,v110
 .byte   W06
 .byte   Cs2 ,v113
 .byte   W24
 .byte   Cs2 ,v110
 .byte   W06
 .byte   Cs2 ,v112
 .byte   W06
 .byte   Cs2 ,v113
 .byte   W24
 .byte   PEND 
@  #06 @016   ----------------------------------------
 .byte   PATT
  .word Label_010F992D
@  #06 @017   ----------------------------------------
 .byte   PATT
  .word Label_010F982D
@  #06 @018   ----------------------------------------
 .byte   PATT
  .word Label_010F982D
@  #06 @019   ----------------------------------------
 .byte   PATT
  .word Label_010F982D
@  #06 @020   ----------------------------------------
 .byte   PATT
  .word Label_010F990D
@  #06 @021   ----------------------------------------
 .byte   PATT
  .word Label_010F9952
@  #06 @022   ----------------------------------------
 .byte   PATT
  .word Label_010F9952
@  #06 @023   ----------------------------------------
 .byte   PATT
  .word Label_010F9952
@  #06 @024   ----------------------------------------
 .byte   PATT
  .word Label_010F992D
@  #06 @025   ----------------------------------------
 .byte   PATT
  .word Label_010F982D
@  #06 @026   ----------------------------------------
 .byte   PATT
  .word Label_010F982D
@  #06 @027   ----------------------------------------
 .byte   PATT
  .word Label_010F982D
@  #06 @028   ----------------------------------------
 .byte   PATT
  .word Label_010F990D
@  #06 @029   ----------------------------------------
 .byte   PATT
  .word Label_010F9952
@  #06 @030   ----------------------------------------
 .byte   PATT
  .word Label_010F9952
@  #06 @031   ----------------------------------------
 .byte   PATT
  .word Label_010F9952
@  #06 @032   ----------------------------------------
 .byte   PATT
  .word Label_010F992D
@  #06 @033   ----------------------------------------
 .byte   PATT
  .word Label_010F982D
@  #06 @034   ----------------------------------------
 .byte   PATT
  .word Label_010F982D
@  #06 @035   ----------------------------------------
Label_010F99D1:
 .byte   N03 ,Cn2 ,v110
 .byte   W06
 .byte   Cn2 ,v112
 .byte   W06
 .byte   Cn2 ,v113
 .byte   W06
 .byte   Cn2 ,v114
 .byte   W06
 .byte   As1 ,v115
 .byte   W06
 .byte   As1 ,v110
 .byte   W06
 .byte   As1 ,v113
 .byte   W24
 .byte   As1 ,v110
 .byte   W06
 .byte   As1 ,v112
 .byte   W06
 .byte   As1 ,v113
 .byte   W24
 .byte   PEND 
@  #06 @036   ----------------------------------------
Label_010F99F1:
 .byte   N03 ,As1 ,v110
 .byte   W06
 .byte   As1 ,v112
 .byte   W06
 .byte   As1 ,v113
 .byte   W06
 .byte   As1 ,v114
 .byte   W06
 .byte   Gs1 ,v115
 .byte   W06
 .byte   Gs1 ,v110
 .byte   W06
 .byte   Gs1 ,v113
 .byte   W24
 .byte   Gs1 ,v110
 .byte   W06
 .byte   Gs1 ,v112
 .byte   W06
 .byte   Gs1 ,v113
 .byte   W24
 .byte   PEND 
@  #06 @037   ----------------------------------------
Label_010F9A11:
 .byte   N03 ,Gs1 ,v110
 .byte   W06
 .byte   Gs1 ,v112
 .byte   W06
 .byte   Gs1 ,v113
 .byte   W06
 .byte   Gs1 ,v114
 .byte   W06
 .byte   Fn1 ,v115
 .byte   W06
 .byte   Fn1 ,v110
 .byte   W06
 .byte   Fn1 ,v113
 .byte   W24
 .byte   Fn1 ,v110
 .byte   W06
 .byte   Fn1 ,v112
 .byte   W06
 .byte   Fn1 ,v113
 .byte   W24
 .byte   PEND 
@  #06 @038   ----------------------------------------
Label_010F9A31:
 .byte   N03 ,Fn1 ,v110
 .byte   W06
 .byte   Fn1 ,v112
 .byte   W06
 .byte   Fn1 ,v113
 .byte   W06
 .byte   Fn1 ,v114
 .byte   W06
 .byte   Cn2 ,v115
 .byte   W06
 .byte   Cn2 ,v110
 .byte   W06
 .byte   Cn2 ,v113
 .byte   W24
 .byte   Cn2 ,v110
 .byte   W06
 .byte   Cn2 ,v112
 .byte   W06
 .byte   Cn2 ,v113
 .byte   W24
 .byte   PEND 
@  #06 @039   ----------------------------------------
 .byte   Cn2 ,v110
 .byte   W06
 .byte   Cn2 ,v112
 .byte   W06
 .byte   Cn2 ,v113
 .byte   W06
 .byte   Cn2 ,v114
 .byte   W06
 .byte   Gn1 ,v115
 .byte   W06
 .byte   Gn1 ,v110
 .byte   W06
 .byte   Gn1 ,v113
 .byte   W24
 .byte   Gn1 ,v110
 .byte   W06
 .byte   Gn1 ,v112
 .byte   W06
 .byte   Gn1 ,v113
 .byte   W24
@  #06 @040   ----------------------------------------
Label_010F9A6F:
 .byte   N03 ,Gn1 ,v110
 .byte   W06
 .byte   Gn1 ,v112
 .byte   W06
 .byte   Gn1 ,v113
 .byte   W06
 .byte   Gn1 ,v114
 .byte   W06
 .byte   Cn2 ,v115
 .byte   W06
 .byte   Cn2 ,v110
 .byte   W06
 .byte   Cn2 ,v113
 .byte   W24
 .byte   Cn2 ,v110
 .byte   W06
 .byte   Cn2 ,v112
 .byte   W06
 .byte   Cn2 ,v113
 .byte   W24
 .byte   PEND 
@  #06 @041   ----------------------------------------
 .byte   PATT
  .word Label_010F982D
@  #06 @042   ----------------------------------------
 .byte   PATT
  .word Label_010F982D
@  #06 @043   ----------------------------------------
 .byte   PATT
  .word Label_010F99D1
@  #06 @044   ----------------------------------------
 .byte   PATT
  .word Label_010F99F1
@  #06 @045   ----------------------------------------
 .byte   PATT
  .word Label_010F9A11
@  #06 @046   ----------------------------------------
 .byte   PATT
  .word Label_010F9A31
@  #06 @047   ----------------------------------------
 .byte   PATT
  .word Label_010F99D1
@  #06 @048   ----------------------------------------
 .byte   PATT
  .word Label_010F99F1
@  #06 @049   ----------------------------------------
 .byte   N03 ,Gs1 ,v110
 .byte   W06
 .byte   Gs1 ,v112
 .byte   W06
 .byte   Gs1 ,v113
 .byte   W06
 .byte   Gs1 ,v114
 .byte   W06
 .byte   As1 ,v115
 .byte   W06
 .byte   As1 ,v110
 .byte   W06
 .byte   As1 ,v113
 .byte   W24
 .byte   As1 ,v110
 .byte   W06
 .byte   As1 ,v112
 .byte   W06
 .byte   As1 ,v113
 .byte   W24
@  #06 @050   ----------------------------------------
 .byte   As1 ,v110
 .byte   W06
 .byte   As1 ,v112
 .byte   W06
 .byte   As1 ,v113
 .byte   W06
 .byte   As1 ,v114
 .byte   W06
 .byte   Cn2 ,v115
 .byte   W06
 .byte   Cn2 ,v110
 .byte   W06
 .byte   Cn2 ,v113
 .byte   W24
 .byte   Cn2 ,v110
 .byte   W06
 .byte   Cn2 ,v112
 .byte   W06
 .byte   Cn2 ,v113
 .byte   W24
@  #06 @051   ----------------------------------------
 .byte   Cn2 ,v110
 .byte   W06
 .byte   Cn2 ,v112
 .byte   W06
 .byte   Cn2 ,v113
 .byte   W06
 .byte   Cn2 ,v114
 .byte   W06
 .byte   Ds1 ,v115
 .byte   W06
 .byte   Ds1 ,v110
 .byte   W06
 .byte   Ds1 ,v113
 .byte   W24
 .byte   Ds1 ,v110
 .byte   W06
 .byte   Ds1 ,v112
 .byte   W06
 .byte   Ds1 ,v113
 .byte   W24
@  #06 @052   ----------------------------------------
 .byte   Ds1 ,v110
 .byte   W06
 .byte   Ds1 ,v112
 .byte   W06
 .byte   Ds1 ,v113
 .byte   W06
 .byte   Ds1 ,v114
 .byte   W06
 .byte   Gs1 ,v115
 .byte   W06
 .byte   Gs1 ,v110
 .byte   W06
 .byte   Gs1 ,v113
 .byte   W24
 .byte   Gs1 ,v110
 .byte   W06
 .byte   Gs1 ,v112
 .byte   W06
 .byte   Gs1 ,v113
 .byte   W24
@  #06 @053   ----------------------------------------
 .byte   Gs1 ,v110
 .byte   W06
 .byte   Gs1 ,v112
 .byte   W06
 .byte   Gs1 ,v113
 .byte   W06
 .byte   Gs1 ,v114
 .byte   W06
 .byte   Cs2 ,v115
 .byte   W06
 .byte   Cs2 ,v110
 .byte   W06
 .byte   Cs2 ,v113
 .byte   W24
 .byte   Cs2 ,v110
 .byte   W06
 .byte   Cs2 ,v112
 .byte   W06
 .byte   Cs2 ,v113
 .byte   W24
@  #06 @054   ----------------------------------------
 .byte   Cs2 ,v110
 .byte   W06
 .byte   Cs2 ,v112
 .byte   W06
 .byte   Cs2 ,v113
 .byte   W06
 .byte   Cs2 ,v114
 .byte   W06
 .byte   Dn2 ,v115
 .byte   W06
 .byte   Dn2 ,v110
 .byte   W06
 .byte   Dn2 ,v113
 .byte   W24
 .byte   Dn2 ,v110
 .byte   W06
 .byte   Dn2 ,v112
 .byte   W06
 .byte   Dn2 ,v113
 .byte   W24
@  #06 @055   ----------------------------------------
 .byte   Dn2 ,v110
 .byte   W06
 .byte   Dn2 ,v112
 .byte   W06
 .byte   Dn2 ,v113
 .byte   W06
 .byte   Dn2 ,v114
 .byte   W06
 .byte   Gn1 ,v115
 .byte   W06
 .byte   Gn1 ,v110
 .byte   W06
 .byte   Gn1 ,v113
 .byte   W24
 .byte   Gn1 ,v110
 .byte   W06
 .byte   Gn1 ,v112
 .byte   W06
 .byte   Gn1 ,v113
 .byte   W24
@  #06 @056   ----------------------------------------
 .byte   PATT
  .word Label_010F9A6F
@  #06 @057   ----------------------------------------
 .byte   N03 ,Cn2 ,v110
 .byte   W06
 .byte   Cn2 ,v112
 .byte   W06
 .byte   Cn2 ,v113
 .byte   W06
 .byte   Cn2 ,v114
 .byte   W06
 .byte   Cn2 ,v115
 .byte   W06
 .byte   Cn2 ,v110
 .byte   W06
 .byte   Cn2 ,v113
 .byte   W24
 .byte   Cn2 ,v110
 .byte   W06
 .byte   Cn2 ,v112
 .byte   W06
 .byte   Cn2 ,v113
 .byte   W23
 .byte   GOTO
  .word Label_010F984D
@  #06 @058   ----------------------------------------
 .byte   W01
 .byte   Cn2 ,v110
 .byte   W06
 .byte   Cn2 ,v112
 .byte   W06
 .byte   Cn2 ,v113
 .byte   W06
 .byte   Cn2 ,v114
 .byte   W30
 .byte   FINE

@**************** Track 7 (Midi-Chn.6) ****************@

HeavyArmoredCorps_007:
@  #07 @000   ----------------------------------------
 .byte   KEYSH , HeavyArmoredCorps_key+0
 .byte   W01
 .byte   VOICE , 1
 .byte   VOL , 34*HeavyArmoredCorps_mvl/mxv
 .byte   W01
 .byte   PAN , c_v+56
 .byte   W22
 .byte   N06 ,Cn1 ,v118
 .byte   W36
 .byte   Cn1 ,v113
 .byte   W36
@  #07 @001   ----------------------------------------
Label_010F86FE:
 .byte   N06 ,Cn1 ,v115
 .byte   W24
 .byte   Cn1 ,v118
 .byte   W36
 .byte   Cn1 ,v113
 .byte   W36
 .byte   PEND 
@  #07 @002   ----------------------------------------
Label_010F8709:
 .byte   N06 ,Cn1 ,v115
 .byte   W24
 .byte   Cn1 ,v118
 .byte   W36
 .byte   Cn1 ,v113
 .byte   W36
@  #07 @003   ----------------------------------------
 .byte   PATT
  .word Label_010F86FE
@  #07 @004   ----------------------------------------
 .byte   PATT
  .word Label_010F86FE
@  #07 @005   ----------------------------------------
 .byte   PATT
  .word Label_010F86FE
@  #07 @006   ----------------------------------------
 .byte   PATT
  .word Label_010F86FE
@  #07 @007   ----------------------------------------
 .byte   PATT
  .word Label_010F86FE
@  #07 @008   ----------------------------------------
 .byte   PATT
  .word Label_010F86FE
@  #07 @009   ----------------------------------------
 .byte   PATT
  .word Label_010F86FE
@  #07 @010   ----------------------------------------
 .byte   PATT
  .word Label_010F86FE
@  #07 @011   ----------------------------------------
 .byte   PATT
  .word Label_010F86FE
@  #07 @012   ----------------------------------------
 .byte   PATT
  .word Label_010F86FE
@  #07 @013   ----------------------------------------
 .byte   PATT
  .word Label_010F86FE
@  #07 @014   ----------------------------------------
 .byte   PATT
  .word Label_010F86FE
@  #07 @015   ----------------------------------------
 .byte   PATT
  .word Label_010F86FE
@  #07 @016   ----------------------------------------
 .byte   PATT
  .word Label_010F86FE
@  #07 @017   ----------------------------------------
 .byte   PATT
  .word Label_010F86FE
@  #07 @018   ----------------------------------------
 .byte   PATT
  .word Label_010F86FE
@  #07 @019   ----------------------------------------
 .byte   PATT
  .word Label_010F86FE
@  #07 @020   ----------------------------------------
 .byte   PATT
  .word Label_010F86FE
@  #07 @021   ----------------------------------------
 .byte   PATT
  .word Label_010F86FE
@  #07 @022   ----------------------------------------
 .byte   PATT
  .word Label_010F86FE
@  #07 @023   ----------------------------------------
 .byte   PATT
  .word Label_010F86FE
@  #07 @024   ----------------------------------------
 .byte   PATT
  .word Label_010F86FE
@  #07 @025   ----------------------------------------
 .byte   PATT
  .word Label_010F86FE
@  #07 @026   ----------------------------------------
 .byte   PATT
  .word Label_010F86FE
@  #07 @027   ----------------------------------------
 .byte   PATT
  .word Label_010F86FE
@  #07 @028   ----------------------------------------
 .byte   PATT
  .word Label_010F86FE
@  #07 @029   ----------------------------------------
 .byte   PATT
  .word Label_010F86FE
@  #07 @030   ----------------------------------------
 .byte   PATT
  .word Label_010F86FE
@  #07 @031   ----------------------------------------
 .byte   PATT
  .word Label_010F86FE
@  #07 @032   ----------------------------------------
 .byte   PATT
  .word Label_010F86FE
@  #07 @033   ----------------------------------------
 .byte   PATT
  .word Label_010F86FE
@  #07 @034   ----------------------------------------
 .byte   PATT
  .word Label_010F86FE
@  #07 @035   ----------------------------------------
Label_010F87B3:
 .byte   N06 ,Cn1 ,v115
 .byte   W24
 .byte   As0 ,v118
 .byte   W36
 .byte   As0 ,v113
 .byte   W36
 .byte   PEND 
@  #07 @036   ----------------------------------------
Label_010F87BE:
 .byte   N06 ,As0 ,v115
 .byte   W24
 .byte   Gs0 ,v118
 .byte   W36
 .byte   Gs0 ,v113
 .byte   W36
 .byte   PEND 
@  #07 @037   ----------------------------------------
Label_010F87C9:
 .byte   N06 ,Gs0 ,v115
 .byte   W24
 .byte   Fn0 ,v118
 .byte   W36
 .byte   Fn0 ,v113
 .byte   W36
 .byte   PEND 
@  #07 @038   ----------------------------------------
Label_010F87D4:
 .byte   N06 ,Fn0 ,v115
 .byte   W24
 .byte   Cn1 ,v118
 .byte   W36
 .byte   Cn1 ,v113
 .byte   W36
 .byte   PEND 
@  #07 @039   ----------------------------------------
 .byte   Cn1 ,v115
 .byte   W24
 .byte   Gn0 ,v118
 .byte   W36
 .byte   Gn0 ,v113
 .byte   W36
@  #07 @040   ----------------------------------------
Label_010F87E8:
 .byte   N06 ,Gn0 ,v115
 .byte   W24
 .byte   Cn1 ,v118
 .byte   W36
 .byte   Cn1 ,v113
 .byte   W36
 .byte   PEND 
@  #07 @041   ----------------------------------------
 .byte   PATT
  .word Label_010F86FE
@  #07 @042   ----------------------------------------
 .byte   PATT
  .word Label_010F86FE
@  #07 @043   ----------------------------------------
 .byte   PATT
  .word Label_010F87B3
@  #07 @044   ----------------------------------------
 .byte   PATT
  .word Label_010F87BE
@  #07 @045   ----------------------------------------
 .byte   PATT
  .word Label_010F87C9
@  #07 @046   ----------------------------------------
 .byte   PATT
  .word Label_010F87D4
@  #07 @047   ----------------------------------------
 .byte   PATT
  .word Label_010F87B3
@  #07 @048   ----------------------------------------
 .byte   PATT
  .word Label_010F87BE
@  #07 @049   ----------------------------------------
 .byte   N06 ,Gs0 ,v115
 .byte   W24
 .byte   As0 ,v118
 .byte   W36
 .byte   As0 ,v113
 .byte   W36
@  #07 @050   ----------------------------------------
 .byte   As0 ,v115
 .byte   W24
 .byte   Cn1 ,v118
 .byte   W36
 .byte   Cn1 ,v113
 .byte   W36
@  #07 @051   ----------------------------------------
 .byte   Cn1 ,v115
 .byte   W24
 .byte   Ds0 ,v118
 .byte   W36
 .byte   Ds0 ,v113
 .byte   W36
@  #07 @052   ----------------------------------------
 .byte   Ds0 ,v115
 .byte   W24
 .byte   Gs0 ,v118
 .byte   W36
 .byte   Gs0 ,v113
 .byte   W36
@  #07 @053   ----------------------------------------
 .byte   Gs0 ,v115
 .byte   W24
 .byte   Cs1 ,v118
 .byte   W36
 .byte   Cs1 ,v113
 .byte   W36
@  #07 @054   ----------------------------------------
 .byte   Cs1 ,v115
 .byte   W24
 .byte   Dn1 ,v118
 .byte   W36
 .byte   Dn1 ,v113
 .byte   W36
@  #07 @055   ----------------------------------------
 .byte   Dn1 ,v115
 .byte   W24
 .byte   Gn0 ,v118
 .byte   W36
 .byte   Gn0 ,v113
 .byte   W36
@  #07 @056   ----------------------------------------
 .byte   PATT
  .word Label_010F87E8
@  #07 @057   ----------------------------------------
 .byte   N06 ,Cn1 ,v115
 .byte   W24
 .byte   Cn1 ,v118
 .byte   W36
 .byte   Cn1 ,v113
 .byte   W32
 .byte   W03
 .byte   GOTO
  .word Label_010F8709
@  #07 @058   ----------------------------------------
 .byte   W01
 .byte   Cn1 ,v115
 .byte   W48
 .byte   FINE

@**************** Track 8 (Midi-Chn.7) ****************@

HeavyArmoredCorps_008:
@  #08 @000   ----------------------------------------
 .byte   KEYSH , HeavyArmoredCorps_key+0
 .byte   W02
 .byte   VOICE , 60
 .byte   VOL , 31*HeavyArmoredCorps_mvl/mxv
 .byte   PAN , c_v-10
 .byte   W92
 .byte   W02
@  #08 @001   ----------------------------------------
 .byte   W96
@  #08 @002   ----------------------------------------
Label_010F95A8:
 .byte   W96
@  #08 @003   ----------------------------------------
 .byte   W96
@  #08 @004   ----------------------------------------
 .byte   W96
@  #08 @005   ----------------------------------------
 .byte   W96
@  #08 @006   ----------------------------------------
 .byte   W96
@  #08 @007   ----------------------------------------
 .byte   W96
@  #08 @008   ----------------------------------------
 .byte   W96
@  #08 @009   ----------------------------------------
 .byte   W96
@  #08 @010   ----------------------------------------
 .byte   W96
@  #08 @011   ----------------------------------------
 .byte   W96
@  #08 @012   ----------------------------------------
 .byte   W96
@  #08 @013   ----------------------------------------
 .byte   W96
@  #08 @014   ----------------------------------------
 .byte   W96
@  #08 @015   ----------------------------------------
 .byte   W96
@  #08 @016   ----------------------------------------
 .byte   W24
 .byte   N48 ,Ds3 ,v112 ,gtp2
 .byte   Cn4 ,v114
 .byte   W48
 .byte   N24 ,Dn3 ,v110 ,gtp2
 .byte   As3
 .byte   W24
@  #08 @017   ----------------------------------------
Label_010F95C4:
 .byte   N24 ,Ds3 ,v112 ,gtp2
 .byte   Cn4 ,v114
 .byte   W24
 .byte   N48 ,Fn3 ,v113 ,gtp2
 .byte   Dn4
 .byte   W48
 .byte   Dn3 ,v110
 .byte   N48 ,As3 ,v113 ,gtp2
 .byte   W24
 .byte   PEND 
@  #08 @018   ----------------------------------------
Label_010F95D9:
 .byte   W24
 .byte   N48 ,Gn3 ,v115
 .byte   N48 ,Ds4 ,v116 ,gtp2
 .byte   W48
 .byte   N96 ,Cn3 ,v112
 .byte   N96 ,Gn3 ,v109
 .byte   W24
 .byte   PEND 
@  #08 @019   ----------------------------------------
Label_010F95EA:
 .byte   W72
 .byte   N48 ,Gn3 ,v112 ,gtp2
 .byte   Cn4 ,v111
 .byte   W24
 .byte   PEND 
@  #08 @020   ----------------------------------------
Label_010F95F3:
 .byte   W24
 .byte   TIE ,Gs3 ,v113
 .byte   N48 ,Gn4 ,v112 ,gtp2
 .byte   W48
 .byte   N24 ,Fn4 ,v110 ,gtp2
 .byte   W24
 .byte   PEND 
@  #08 @021   ----------------------------------------
Label_010F9602:
 .byte   N24 ,Gn4 ,v111 ,gtp2
 .byte   W24
 .byte   TIE ,Cs4 ,v115
 .byte   N48 ,As4 ,v117 ,gtp2
 .byte   W02
 .byte   EOT
 .byte   Gs3
 .byte   W44
 .byte   W02
 .byte   N24 ,Gs4 ,v112 ,gtp2
 .byte   W24
 .byte   PEND 
@  #08 @022   ----------------------------------------
 .byte   Gn4 ,v113
 .byte   W24
 .byte   TIE ,Gs3 ,v112
 .byte   N48 ,Fn4 ,v110 ,gtp2
 .byte   W02
 .byte   EOT
 .byte   Cs4
 .byte   W44
 .byte   W02
 .byte   N48 ,Ds4 ,v115
 .byte   W24
@  #08 @023   ----------------------------------------
 .byte   W24
 .byte   TIE ,Fn3 ,v112
 .byte   N96 ,Cs4 ,v115
 .byte   W02
 .byte   EOT
 .byte   Gs3
 .byte   W68
 .byte   W02
@  #08 @024   ----------------------------------------
 .byte   W24
 .byte   N48 ,Ds3 ,v112 ,gtp2
 .byte   Cn4 ,v114
 .byte   W02
 .byte   EOT
 .byte   Fn3
 .byte   W44
 .byte   W02
 .byte   N24 ,Dn3 ,v110 ,gtp2
 .byte   As3
 .byte   W24
@  #08 @025   ----------------------------------------
 .byte   PATT
  .word Label_010F95C4
@  #08 @026   ----------------------------------------
 .byte   PATT
  .word Label_010F95D9
@  #08 @027   ----------------------------------------
 .byte   PATT
  .word Label_010F95EA
@  #08 @028   ----------------------------------------
 .byte   PATT
  .word Label_010F95F3
@  #08 @029   ----------------------------------------
 .byte   PATT
  .word Label_010F9602
@  #08 @030   ----------------------------------------
 .byte   N24 ,Gn4 ,v113 ,gtp2
 .byte   W24
 .byte   N48 ,Fn3 ,v112 ,gtp2
 .byte   Fn4 ,v110
 .byte   W02
 .byte   EOT
 .byte   Cs4
 .byte   W44
 .byte   W02
 .byte   N48 ,Gn3 ,v112 ,gtp2
 .byte   Gn4
 .byte   W24
@  #08 @031   ----------------------------------------
 .byte   W24
 .byte   N96 ,Gs3 ,v113
 .byte   N96 ,Gs4
 .byte   W72
@  #08 @032   ----------------------------------------
 .byte   W96
@  #08 @033   ----------------------------------------
 .byte   W96
@  #08 @034   ----------------------------------------
 .byte   W96
@  #08 @035   ----------------------------------------
 .byte   W96
@  #08 @036   ----------------------------------------
 .byte   W96
@  #08 @037   ----------------------------------------
 .byte   W96
@  #08 @038   ----------------------------------------
 .byte   W96
@  #08 @039   ----------------------------------------
 .byte   W96
@  #08 @040   ----------------------------------------
 .byte   W96
@  #08 @041   ----------------------------------------
 .byte   W96
@  #08 @042   ----------------------------------------
 .byte   W96
@  #08 @043   ----------------------------------------
 .byte   W96
@  #08 @044   ----------------------------------------
 .byte   W96
@  #08 @045   ----------------------------------------
 .byte   W96
@  #08 @046   ----------------------------------------
 .byte   W96
@  #08 @047   ----------------------------------------
 .byte   W96
@  #08 @048   ----------------------------------------
 .byte   N24 ,Gn3 ,v115 ,gtp2
 .byte   W24
 .byte   N48 ,Cn4 ,v117 ,gtp2
 .byte   W48
 .byte   N24 ,As3 ,v115 ,gtp2
 .byte   W24
@  #08 @049   ----------------------------------------
 .byte   Cn4 ,v117
 .byte   W24
 .byte   N48 ,Dn4 ,v118 ,gtp2
 .byte   W48
 .byte   As3 ,v115
 .byte   W24
@  #08 @050   ----------------------------------------
 .byte   W24
 .byte   Fn4 ,v119
 .byte   W48
 .byte   Ds4 ,v120
 .byte   W24
@  #08 @051   ----------------------------------------
 .byte   W24
 .byte   N24 ,Dn4 ,v115 ,gtp2
 .byte   W24
 .byte   Gn3
 .byte   W24
 .byte   N36 ,Cn4 ,v117 ,gtp1
 .byte   W24
@  #08 @052   ----------------------------------------
 .byte   W12
 .byte   N13 ,As3 ,v118
 .byte   W12
 .byte   N48 ,Ds3 ,v119 ,gtp1
 .byte   Gs3 ,v120
 .byte   W48
 .byte   N24 ,Fn3 ,v118 ,gtp2
 .byte   N48 ,As3 ,v119 ,gtp1
 .byte   W24
@  #08 @053   ----------------------------------------
 .byte   N24 ,Gn3 ,v119 ,gtp2
 .byte   W24
 .byte   N48 ,Fn3 ,v120 ,gtp2
 .byte   N48 ,Cn4 ,v118 ,gtp1
 .byte   W48
 .byte   N24 ,Gn3 ,v119 ,gtp2
 .byte   N72 ,Fn4 ,v114 ,gtp1
 .byte   W24
@  #08 @054   ----------------------------------------
 .byte   N24 ,Gs3 ,v118 ,gtp2
 .byte   W24
 .byte   TIE ,Gn3 ,v119
 .byte   W24
 .byte   N24 ,Cn4 ,v118 ,gtp1
 .byte   W24
 .byte   N36 ,Gn4 ,v118 ,gtp1
 .byte   W24
@  #08 @055   ----------------------------------------
 .byte   W12
 .byte   N13 ,Fn4
 .byte   W12
 .byte   N96 ,Gn4 ,v120
 .byte   W72
@  #08 @056   ----------------------------------------
 .byte   W24
 .byte   EOT
 .byte   Gn3
 .byte   W72
@  #08 @057   ----------------------------------------
 .byte   W92
 .byte   W03
 .byte   GOTO
  .word Label_010F95A8
@  #08 @058   ----------------------------------------
 .byte   W01
 .byte   W48
 .byte   FINE

@**************** Track 9 (Midi-Chn.8) ****************@

HeavyArmoredCorps_009:
@  #09 @000   ----------------------------------------
 .byte   KEYSH , HeavyArmoredCorps_key+0
 .byte   W02
 .byte   VOICE , 73
 .byte   VOL , 26*HeavyArmoredCorps_mvl/mxv
 .byte   PAN , c_v+11
 .byte   W92
 .byte   W02
@  #09 @001   ----------------------------------------
 .byte   W96
@  #09 @002   ----------------------------------------
Label_010F9BD0:
 .byte   W96
@  #09 @003   ----------------------------------------
 .byte   W96
@  #09 @004   ----------------------------------------
 .byte   W96
@  #09 @005   ----------------------------------------
 .byte   W96
@  #09 @006   ----------------------------------------
 .byte   W96
@  #09 @007   ----------------------------------------
 .byte   W96
@  #09 @008   ----------------------------------------
 .byte   W96
@  #09 @009   ----------------------------------------
 .byte   W96
@  #09 @010   ----------------------------------------
 .byte   W96
@  #09 @011   ----------------------------------------
 .byte   W96
@  #09 @012   ----------------------------------------
 .byte   W96
@  #09 @013   ----------------------------------------
 .byte   W96
@  #09 @014   ----------------------------------------
 .byte   W96
@  #09 @015   ----------------------------------------
 .byte   W96
@  #09 @016   ----------------------------------------
 .byte   W96
@  #09 @017   ----------------------------------------
 .byte   W96
@  #09 @018   ----------------------------------------
Label_010F9BE0:
 .byte   W72
 .byte   N48 ,Ds4 ,v112 ,gtp2
 .byte   Gn4 ,v113
 .byte   W24
 .byte   PEND 
@  #09 @019   ----------------------------------------
Label_010F9BE9:
 .byte   W24
 .byte   N48 ,Dn4 ,v110 ,gtp2
 .byte   Fn4
 .byte   W48
 .byte   N48 ,Cn4 ,v108
 .byte   N48 ,Ds4 ,v109
 .byte   W24
 .byte   PEND 
@  #09 @020   ----------------------------------------
 .byte   W96
@  #09 @021   ----------------------------------------
 .byte   W96
@  #09 @022   ----------------------------------------
 .byte   W72
 .byte   Ds4 ,v113
 .byte   N48 ,As4 ,v113 ,gtp2
 .byte   W24
@  #09 @023   ----------------------------------------
 .byte   W24
 .byte   TIE ,Cs4 ,v110
 .byte   N48 ,Gs4 ,v110 ,gtp2
 .byte   W48
 .byte   Fn4 ,v108
 .byte   W24
@  #09 @024   ----------------------------------------
 .byte   W24
 .byte   TIE ,Gn4
 .byte   W02
 .byte   EOT
 .byte   Cs4
 .byte   W68
 .byte   W02
@  #09 @025   ----------------------------------------
 .byte   W48
 .byte   W02
 .byte   Gn4
 .byte   W44
 .byte   W02
@  #09 @026   ----------------------------------------
 .byte   PATT
  .word Label_010F9BE0
@  #09 @027   ----------------------------------------
 .byte   PATT
  .word Label_010F9BE9
@  #09 @028   ----------------------------------------
 .byte   W96
@  #09 @029   ----------------------------------------
 .byte   W96
@  #09 @030   ----------------------------------------
 .byte   W72
 .byte   N96 ,Fn4 ,v113
 .byte   N48 ,As4 ,v113 ,gtp2
 .byte   W24
@  #09 @031   ----------------------------------------
 .byte   W24
 .byte   Gs4 ,v110
 .byte   W48
 .byte   Cs4
 .byte   N48 ,Fn4 ,v108 ,gtp2
 .byte   W24
@  #09 @032   ----------------------------------------
Label_010F9C3A:
 .byte   W24
 .byte   TIE ,Ds4 ,v112
 .byte   TIE ,Gn4 ,v113
 .byte   W72
 .byte   PEND 
@  #09 @033   ----------------------------------------
Label_010F9C43:
 .byte   W24
 .byte   TIE ,Dn4 ,v110
 .byte   TIE ,Fn4 ,v112
 .byte   W02
 .byte   EOT
 .byte   Ds4 ,v079
 .byte   W68
 .byte   W02
 .byte   PEND 
@  #09 @034   ----------------------------------------
Label_010F9C51:
 .byte   W24
 .byte   TIE ,Cn4 ,v112
 .byte   TIE ,Ds4 ,v108
 .byte   W02
 .byte   EOT
 .byte   Dn4 ,v077
 .byte   W68
 .byte   W02
 .byte   PEND 
@  #09 @035   ----------------------------------------
Label_010F9C5F:
 .byte   W24
 .byte   TIE ,As3 ,v109
 .byte   TIE ,Dn4
 .byte   W02
 .byte   EOT
 .byte   Cn4 ,v075
 .byte   W68
 .byte   W02
 .byte   PEND 
@  #09 @036   ----------------------------------------
Label_010F9C6C:
 .byte   W24
 .byte   N96 ,Gs3 ,v110
 .byte   N96 ,Cn4
 .byte   W02
 .byte   EOT
 .byte   As3 ,v074
 .byte   W68
 .byte   W02
 .byte   PEND 
@  #09 @037   ----------------------------------------
Label_010F9C79:
 .byte   W48
 .byte   N24 ,Fn3 ,v110 ,gtp2
 .byte   Gs3 ,v108
 .byte   W24
 .byte   N36 ,Gn3 ,v112 ,gtp2
 .byte   As3 ,v110
 .byte   W24
 .byte   PEND 
@  #09 @038   ----------------------------------------
Label_010F9C89:
 .byte   W12
 .byte   N14 ,Gs3 ,v113
 .byte   N14 ,Cn4 ,v112
 .byte   W12
 .byte   N48 ,As3 ,v114 ,gtp2
 .byte   Dn4
 .byte   W48
 .byte   Cn4
 .byte   N48 ,Ds4 ,v115 ,gtp2
 .byte   W24
 .byte   PEND 
@  #09 @039   ----------------------------------------
Label_010F9C9E:
 .byte   W24
 .byte   N48 ,As3 ,v114
 .byte   N48 ,Dn4
 .byte   W48
 .byte   Gn3 ,v113
 .byte   N48 ,As3 ,v111
 .byte   W24
 .byte   PEND 
@  #09 @040   ----------------------------------------
 .byte   PATT
  .word Label_010F9C3A
@  #09 @041   ----------------------------------------
 .byte   PATT
  .word Label_010F9C43
@  #09 @042   ----------------------------------------
 .byte   PATT
  .word Label_010F9C51
@  #09 @043   ----------------------------------------
 .byte   PATT
  .word Label_010F9C5F
@  #09 @044   ----------------------------------------
 .byte   PATT
  .word Label_010F9C6C
@  #09 @045   ----------------------------------------
 .byte   PATT
  .word Label_010F9C79
@  #09 @046   ----------------------------------------
 .byte   PATT
  .word Label_010F9C89
@  #09 @047   ----------------------------------------
 .byte   PATT
  .word Label_010F9C9E
@  #09 @048   ----------------------------------------
 .byte   W96
@  #09 @049   ----------------------------------------
 .byte   W96
@  #09 @050   ----------------------------------------
 .byte   W96
@  #09 @051   ----------------------------------------
 .byte   W96
@  #09 @052   ----------------------------------------
 .byte   W96
@  #09 @053   ----------------------------------------
 .byte   W96
@  #09 @054   ----------------------------------------
 .byte   W96
@  #09 @055   ----------------------------------------
 .byte   W12
 .byte   N05 ,Dn4 ,v107
 .byte   N05 ,Dn5
 .byte   W04
 .byte   Ds4 ,v108
 .byte   N05 ,Ds5
 .byte   W04
 .byte   Fn4 ,v109
 .byte   N05 ,Fn5
 .byte   W04
 .byte   N36 ,Gn4 ,v110 ,gtp1
 .byte   Gn5
 .byte   W36
 .byte   N07 ,Fn4 ,v109
 .byte   N07 ,Fn5
 .byte   W06
 .byte   Ds4 ,v108
 .byte   N07 ,Ds5
 .byte   W06
 .byte   N48 ,Dn4 ,v107
 .byte   N48 ,Dn5
 .byte   W24
@  #09 @056   ----------------------------------------
 .byte   W96
@  #09 @057   ----------------------------------------
 .byte   W92
 .byte   W03
 .byte   GOTO
  .word Label_010F9BD0
@  #09 @058   ----------------------------------------
 .byte   W01
 .byte   W48
 .byte   FINE

@**************** Track 10 (Midi-Chn.9) ****************@

HeavyArmoredCorps_010:
@  #10 @000   ----------------------------------------
 .byte   KEYSH , HeavyArmoredCorps_key+0
 .byte   W02
 .byte   VOICE , 124
 .byte   VOL , 41*HeavyArmoredCorps_mvl/mxv
 .byte   W22
 .byte   N96 ,Cn1 ,v123
 .byte   TIE ,Fn2
 .byte   W72
@  #10 @001   ----------------------------------------
 .byte   W96
@  #10 @002   ----------------------------------------
Label_010F9D1F:
 .byte   W24
 .byte   EOT
 .byte   Fn2
 .byte   N96 ,Cn1 ,v123
 .byte   W72
@  #10 @003   ----------------------------------------
 .byte   W96
@  #10 @004   ----------------------------------------
Label_010F9D27:
 .byte   W24
 .byte   N96 ,Cn1 ,v123
 .byte   W72
 .byte   PEND 
@  #10 @005   ----------------------------------------
 .byte   W96
@  #10 @006   ----------------------------------------
 .byte   PATT
  .word Label_010F9D27
@  #10 @007   ----------------------------------------
 .byte   W96
@  #10 @008   ----------------------------------------
 .byte   W24
 .byte   N96 ,Cn1 ,v123
 .byte   TIE ,Cn2 ,v107
 .byte   TIE ,Fn2 ,v123
 .byte   W72
@  #10 @009   ----------------------------------------
 .byte   PATT
  .word Label_010F9D27
@  #10 @010   ----------------------------------------
 .byte   W24
 .byte   EOT
 .byte   Cn2 ,v053
 .byte   N96 ,Cn1 ,v123
 .byte   TIE ,Cn2 ,v107
 .byte   W72
@  #10 @011   ----------------------------------------
 .byte   PATT
  .word Label_010F9D27
@  #10 @012   ----------------------------------------
Label_010F9D54:
 .byte   W24
 .byte   EOT
 .byte   Cn2
 .byte   N96 ,Cn1 ,v123
 .byte   TIE ,Cn2 ,v107
 .byte   W72
 .byte   PEND 
@  #10 @013   ----------------------------------------
 .byte   PATT
  .word Label_010F9D27
@  #10 @014   ----------------------------------------
 .byte   PATT
  .word Label_010F9D54
@  #10 @015   ----------------------------------------
 .byte   PATT
  .word Label_010F9D27
@  #10 @016   ----------------------------------------
 .byte   PATT
  .word Label_010F9D54
@  #10 @017   ----------------------------------------
 .byte   PATT
  .word Label_010F9D27
@  #10 @018   ----------------------------------------
 .byte   PATT
  .word Label_010F9D54
@  #10 @019   ----------------------------------------
 .byte   PATT
  .word Label_010F9D27
@  #10 @020   ----------------------------------------
 .byte   PATT
  .word Label_010F9D54
@  #10 @021   ----------------------------------------
 .byte   PATT
  .word Label_010F9D27
@  #10 @022   ----------------------------------------
 .byte   PATT
  .word Label_010F9D54
@  #10 @023   ----------------------------------------
 .byte   PATT
  .word Label_010F9D27
@  #10 @024   ----------------------------------------
 .byte   PATT
  .word Label_010F9D54
@  #10 @025   ----------------------------------------
 .byte   PATT
  .word Label_010F9D27
@  #10 @026   ----------------------------------------
 .byte   PATT
  .word Label_010F9D54
@  #10 @027   ----------------------------------------
 .byte   PATT
  .word Label_010F9D27
@  #10 @028   ----------------------------------------
 .byte   PATT
  .word Label_010F9D54
@  #10 @029   ----------------------------------------
 .byte   PATT
  .word Label_010F9D27
@  #10 @030   ----------------------------------------
 .byte   PATT
  .word Label_010F9D54
@  #10 @031   ----------------------------------------
 .byte   PATT
  .word Label_010F9D27
@  #10 @032   ----------------------------------------
 .byte   W12
 .byte   N12 ,Ds1 ,v101
 .byte   W11
 .byte   N06 ,Dn1
 .byte   W01
 .byte   EOT
 .byte   Cn2
 .byte   N96 ,Cn1 ,v123
 .byte   TIE ,Cn2 ,v107
 .byte   TIE ,Fn2 ,v123
 .byte   W05
 .byte   N06 ,Cs1 ,v087
 .byte   W06
 .byte   Dn1 ,v094
 .byte   W24
 .byte   W01
 .byte   N12 ,Ds1 ,v101
 .byte   W11
 .byte   N06 ,Dn1
 .byte   W24
 .byte   W01
@  #10 @033   ----------------------------------------
Label_010F9DE2:
 .byte   W06
 .byte   N06 ,Ds1 ,v101
 .byte   W07
 .byte   N12 ,Cs1 ,v094
 .byte   W11
 .byte   N96 ,Cn1 ,v123
 .byte   N06 ,Dn1 ,v101
 .byte   W11
 .byte   Ds1 ,v107
 .byte   W24
 .byte   Dn1 ,v101
 .byte   W12
 .byte   Dn1
 .byte   W07
 .byte   Dn1
 .byte   W05
 .byte   Cs1 ,v094
 .byte   W13
 .byte   PEND 
@  #10 @034   ----------------------------------------
Label_010F9E00:
 .byte   W11
 .byte   N12 ,Ds1 ,v101
 .byte   W13
 .byte   EOT
 .byte   Cn2 ,v053
 .byte   N96 ,Cn1 ,v123
 .byte   TIE ,Cn2 ,v107
 .byte   N06 ,Dn1 ,v101
 .byte   W06
 .byte   Cs1 ,v094
 .byte   W05
 .byte   Dn1 ,v107
 .byte   W23
 .byte   N12 ,Ds1 ,v101
 .byte   W13
 .byte   N06 ,Dn1 ,v094
 .byte   W24
 .byte   W01
 .byte   PEND 
@  #10 @035   ----------------------------------------
Label_010F9E22:
 .byte   W12
 .byte   N12 ,Cs1 ,v101
 .byte   W11
 .byte   N06 ,Dn1 ,v107
 .byte   W01
 .byte   N96 ,Cn1 ,v123
 .byte   W11
 .byte   N06 ,Ds1 ,v101
 .byte   W24
 .byte   W01
 .byte   Cs1
 .byte   W06
 .byte   Dn1 ,v094
 .byte   W06
 .byte   Dn1 ,v101
 .byte   W12
 .byte   Cs1 ,v087
 .byte   W12
 .byte   PEND 
@  #10 @036   ----------------------------------------
Label_010F9E40:
 .byte   N06 ,Dn1 ,v101
 .byte   W06
 .byte   Ds1 ,v107
 .byte   W06
 .byte   Cs1 ,v094
 .byte   W05
 .byte   Dn1 ,v107
 .byte   W06
 .byte   N01 ,Dn1 ,v101
 .byte   W01
 .byte   EOT
 .byte   Cn2
 .byte   N96 ,Cn1 ,v123
 .byte   TIE ,Cn2 ,v107
 .byte   W05
 .byte   N06 ,Cs1 ,v094
 .byte   W07
 .byte   Dn1 ,v107
 .byte   W23
 .byte   N12 ,Ds1 ,v101
 .byte   W13
 .byte   N06 ,Dn1 ,v094
 .byte   W24
 .byte   PEND 
@  #10 @037   ----------------------------------------
Label_010F9E6A:
 .byte   W05
 .byte   N06 ,Ds1 ,v101
 .byte   W07
 .byte   N12 ,Cs1 ,v094
 .byte   W12
 .byte   N96 ,Cn1 ,v123
 .byte   N06 ,Dn1 ,v101
 .byte   W11
 .byte   Ds1 ,v107
 .byte   W24
 .byte   W01
 .byte   Dn1 ,v101
 .byte   W06
 .byte   Cs1 ,v087
 .byte   W06
 .byte   Dn1 ,v101
 .byte   W12
 .byte   Cs1 ,v107
 .byte   W12
 .byte   PEND 
@  #10 @038   ----------------------------------------
Label_010F9E8B:
 .byte   W13
 .byte   N12 ,Ds1 ,v094
 .byte   W10
 .byte   N06 ,Dn1 ,v101
 .byte   W01
 .byte   EOT
 .byte   Cn2
 .byte   N96 ,Cn1 ,v123
 .byte   TIE ,Cn2 ,v107
 .byte   W05
 .byte   N06 ,Cs1 ,v094
 .byte   W07
 .byte   Dn1 ,v107
 .byte   W23
 .byte   N11 ,Ds1 ,v101
 .byte   W12
 .byte   N06 ,Dn1 ,v094
 .byte   W24
 .byte   W01
 .byte   PEND 
@  #10 @039   ----------------------------------------
Label_010F9EAE:
 .byte   W12
 .byte   N12 ,Cs1 ,v101
 .byte   W12
 .byte   N96 ,Cn1 ,v123
 .byte   N06 ,Dn1 ,v107
 .byte   W12
 .byte   Ds1
 .byte   W24
 .byte   Dn1 ,v101
 .byte   W06
 .byte   Cs1 ,v094
 .byte   W06
 .byte   Cs1 ,v101
 .byte   W12
 .byte   Dn1 ,v094
 .byte   W11
 .byte   Cs1 ,v101
 .byte   W01
 .byte   PEND 
@  #10 @040   ----------------------------------------
 .byte   W05
 .byte   N01 ,Cs1 ,v094
 .byte   W06
 .byte   N06 ,Dn1 ,v107
 .byte   W12
 .byte   Dn1 ,v101
 .byte   W01
 .byte   EOT
 .byte   Cn2
 .byte   N96 ,Cn1 ,v123
 .byte   TIE ,Cn2 ,v107
 .byte   TIE ,Fn2 ,v123
 .byte   W05
 .byte   N06 ,Cs1 ,v087
 .byte   W06
 .byte   Dn1 ,v094
 .byte   W24
 .byte   W01
 .byte   N12 ,Ds1 ,v101
 .byte   W11
 .byte   N06 ,Dn1
 .byte   W24
 .byte   W01
@  #10 @041   ----------------------------------------
 .byte   PATT
  .word Label_010F9DE2
@  #10 @042   ----------------------------------------
 .byte   PATT
  .word Label_010F9E00
@  #10 @043   ----------------------------------------
 .byte   PATT
  .word Label_010F9E22
@  #10 @044   ----------------------------------------
 .byte   PATT
  .word Label_010F9E40
@  #10 @045   ----------------------------------------
 .byte   PATT
  .word Label_010F9E6A
@  #10 @046   ----------------------------------------
 .byte   PATT
  .word Label_010F9E8B
@  #10 @047   ----------------------------------------
 .byte   PATT
  .word Label_010F9EAE
@  #10 @048   ----------------------------------------
 .byte   W05
 .byte   N01 ,Cs1 ,v094
 .byte   W06
 .byte   N06 ,Dn1 ,v107
 .byte   W12
 .byte   Dn1 ,v101
 .byte   W01
 .byte   EOT
 .byte   Cn2
 .byte   N96 ,Cn1 ,v123
 .byte   TIE ,Cn2 ,v107
 .byte   W05
 .byte   N06 ,Cs1 ,v087
 .byte   W06
 .byte   Dn1 ,v094
 .byte   W24
 .byte   W01
 .byte   N12 ,Ds1 ,v101
 .byte   W11
 .byte   N06 ,Dn1
 .byte   W24
 .byte   W01
@  #10 @049   ----------------------------------------
 .byte   PATT
  .word Label_010F9DE2
@  #10 @050   ----------------------------------------
 .byte   W11
 .byte   N12 ,Ds1 ,v101
 .byte   W13
 .byte   EOT
 .byte   Cn2
 .byte   N96 ,Cn1 ,v123
 .byte   TIE ,Cn2 ,v107
 .byte   N06 ,Dn1 ,v101
 .byte   W06
 .byte   Cs1 ,v094
 .byte   W05
 .byte   Dn1 ,v107
 .byte   W23
 .byte   N12 ,Ds1 ,v101
 .byte   W13
 .byte   N06 ,Dn1 ,v094
 .byte   W24
 .byte   W01
@  #10 @051   ----------------------------------------
 .byte   PATT
  .word Label_010F9E22
@  #10 @052   ----------------------------------------
 .byte   PATT
  .word Label_010F9E40
@  #10 @053   ----------------------------------------
 .byte   PATT
  .word Label_010F9E6A
@  #10 @054   ----------------------------------------
 .byte   PATT
  .word Label_010F9E8B
@  #10 @055   ----------------------------------------
 .byte   PATT
  .word Label_010F9EAE
@  #10 @056   ----------------------------------------
 .byte   W05
 .byte   N01 ,Cs1 ,v094
 .byte   W06
 .byte   N06 ,Dn1 ,v107
 .byte   W13
 .byte   EOT
 .byte   Cn2
 .byte   N96 ,Cn1 ,v123
 .byte   TIE ,Fn2
 .byte   W72
@  #10 @057   ----------------------------------------
 .byte   W92
 .byte   W03
 .byte   GOTO
  .word Label_010F9D1F
@  #10 @058   ----------------------------------------
 .byte   W01
 .byte   W23
 .byte   EOT
 .byte   W24
 .byte   W01
 .byte   FINE

@**************** Track 11 (Midi-Chn.10) ****************@

HeavyArmoredCorps_011:
@  #11 @000   ----------------------------------------
 .byte   KEYSH , HeavyArmoredCorps_key+0
 .byte   W03
 .byte   VOICE , 119
 .byte   VOL , 0*HeavyArmoredCorps_mvl/mxv
 .byte   W09
 .byte   N96 ,Gn2 ,v071
 .byte   VOL , 6*HeavyArmoredCorps_mvl/mxv
 .byte   W01
 .byte   VOL , 8*HeavyArmoredCorps_mvl/mxv
 .byte   W01
 .byte   VOL , 10*HeavyArmoredCorps_mvl/mxv
 .byte   W01
 .byte   VOL , 13*HeavyArmoredCorps_mvl/mxv
 .byte   W01
 .byte   VOL , 14*HeavyArmoredCorps_mvl/mxv
 .byte   W01
 .byte   VOL , 15*HeavyArmoredCorps_mvl/mxv
 .byte   W01
 .byte   VOL , 17*HeavyArmoredCorps_mvl/mxv
 .byte   W01
 .byte   VOL , 18*HeavyArmoredCorps_mvl/mxv
 .byte   W01
 .byte   VOL , 23*HeavyArmoredCorps_mvl/mxv
 .byte   W01
 .byte   VOL , 26*HeavyArmoredCorps_mvl/mxv
 .byte   W01
 .byte   VOL , 27*HeavyArmoredCorps_mvl/mxv
 .byte   W01
 .byte   VOL , 31*HeavyArmoredCorps_mvl/mxv
 .byte   W03
 .byte   VOL , 30*HeavyArmoredCorps_mvl/mxv
 .byte   W01
 .byte   VOL , 29*HeavyArmoredCorps_mvl/mxv
 .byte   W02
 .byte   VOL , 28*HeavyArmoredCorps_mvl/mxv
 .byte   W01
 .byte   VOL , 27*HeavyArmoredCorps_mvl/mxv
 .byte   W01
 .byte   VOL , 26*HeavyArmoredCorps_mvl/mxv
 .byte   W02
 .byte   VOL , 24*HeavyArmoredCorps_mvl/mxv
 .byte   W02
 .byte   VOL , 23*HeavyArmoredCorps_mvl/mxv
 .byte   W01
 .byte   VOL , 22*HeavyArmoredCorps_mvl/mxv
 .byte   W02
 .byte   VOL , 21*HeavyArmoredCorps_mvl/mxv
 .byte   W04
 .byte   VOL , 20*HeavyArmoredCorps_mvl/mxv
 .byte   W05
 .byte   VOL , 19*HeavyArmoredCorps_mvl/mxv
 .byte   W03
 .byte   VOL , 18*HeavyArmoredCorps_mvl/mxv
 .byte   W04
 .byte   VOL , 17*HeavyArmoredCorps_mvl/mxv
 .byte   W03
 .byte   VOL , 16*HeavyArmoredCorps_mvl/mxv
 .byte   W05
 .byte   VOL , 15*HeavyArmoredCorps_mvl/mxv
 .byte   W02
 .byte   VOL , 14*HeavyArmoredCorps_mvl/mxv
 .byte   W06
 .byte   VOL , 13*HeavyArmoredCorps_mvl/mxv
 .byte   W06
 .byte   VOL , 12*HeavyArmoredCorps_mvl/mxv
 .byte   W03
 .byte   VOL , 11*HeavyArmoredCorps_mvl/mxv
 .byte   W06
 .byte   VOL , 10*HeavyArmoredCorps_mvl/mxv
 .byte   W06
 .byte   VOL , 9*HeavyArmoredCorps_mvl/mxv
 .byte   W03
 .byte   VOL , 8*HeavyArmoredCorps_mvl/mxv
 .byte   W02
@  #11 @001   ----------------------------------------
 .byte   W01
 .byte   VOL , 7*HeavyArmoredCorps_mvl/mxv
 .byte   W03
 .byte   VOL , 6*HeavyArmoredCorps_mvl/mxv
 .byte   W03
 .byte   VOL , 4*HeavyArmoredCorps_mvl/mxv
 .byte   W03
 .byte   VOL , 0*HeavyArmoredCorps_mvl/mxv
 .byte   W84
 .byte   W02
@  #11 @002   ----------------------------------------
Label_010FA017:
 .byte   W96
@  #11 @003   ----------------------------------------
 .byte   W96
@  #11 @004   ----------------------------------------
 .byte   W96
@  #11 @005   ----------------------------------------
Label_010FA01A:
 .byte   W24
 .byte   TIE ,Fn2 ,v115
 .byte   W10
 .byte   VOL , 3*HeavyArmoredCorps_mvl/mxv
 .byte   W05
 .byte   VOL , 4*HeavyArmoredCorps_mvl/mxv
 .byte   W05
 .byte   VOL , 5*HeavyArmoredCorps_mvl/mxv
 .byte   W06
 .byte   VOL , 6*HeavyArmoredCorps_mvl/mxv
 .byte   W10
 .byte   VOL , 7*HeavyArmoredCorps_mvl/mxv
 .byte   W11
 .byte   VOL , 8*HeavyArmoredCorps_mvl/mxv
 .byte   W10
 .byte   VOL , 9*HeavyArmoredCorps_mvl/mxv
 .byte   W10
 .byte   VOL , 10*HeavyArmoredCorps_mvl/mxv
 .byte   W05
 .byte   PEND 
@  #11 @006   ----------------------------------------
Label_010FA038:
 .byte   W11
 .byte   VOL , 11*HeavyArmoredCorps_mvl/mxv
 .byte   W11
 .byte   VOL , 12*HeavyArmoredCorps_mvl/mxv
 .byte   W09
 .byte   VOL , 13*HeavyArmoredCorps_mvl/mxv
 .byte   W09
 .byte   VOL , 14*HeavyArmoredCorps_mvl/mxv
 .byte   W09
 .byte   VOL , 15*HeavyArmoredCorps_mvl/mxv
 .byte   W12
 .byte   VOL , 16*HeavyArmoredCorps_mvl/mxv
 .byte   W09
 .byte   VOL , 17*HeavyArmoredCorps_mvl/mxv
 .byte   W15
 .byte   VOL , 18*HeavyArmoredCorps_mvl/mxv
 .byte   W11
 .byte   PEND 
@  #11 @007   ----------------------------------------
Label_010FA052:
 .byte   W01
 .byte   VOL , 19*HeavyArmoredCorps_mvl/mxv
 .byte   W15
 .byte   VOL , 20*HeavyArmoredCorps_mvl/mxv
 .byte   W12
 .byte   VOL , 21*HeavyArmoredCorps_mvl/mxv
 .byte   W09
 .byte   VOL , 22*HeavyArmoredCorps_mvl/mxv
 .byte   W12
 .byte   VOL , 23*HeavyArmoredCorps_mvl/mxv
 .byte   W12
 .byte   VOL , 24*HeavyArmoredCorps_mvl/mxv
 .byte   W12
 .byte   VOL , 25*HeavyArmoredCorps_mvl/mxv
 .byte   W15
 .byte   VOL , 26*HeavyArmoredCorps_mvl/mxv
 .byte   W08
 .byte   PEND 
@  #11 @008   ----------------------------------------
Label_010FA06C:
 .byte   VOL , 27*HeavyArmoredCorps_mvl/mxv
 .byte   W05
 .byte   VOL , 28*HeavyArmoredCorps_mvl/mxv
 .byte   W04
 .byte   VOL , 29*HeavyArmoredCorps_mvl/mxv
 .byte   W05
 .byte   VOL , 30*HeavyArmoredCorps_mvl/mxv
 .byte   W06
 .byte   VOL , 31*HeavyArmoredCorps_mvl/mxv
 .byte   W06
 .byte   VOL , 30*HeavyArmoredCorps_mvl/mxv
 .byte   W01
 .byte   VOL , 29*HeavyArmoredCorps_mvl/mxv
 .byte   W01
 .byte   VOL , 28*HeavyArmoredCorps_mvl/mxv
 .byte   W02
 .byte   VOL , 26*HeavyArmoredCorps_mvl/mxv
 .byte   W02
 .byte   VOL , 25*HeavyArmoredCorps_mvl/mxv
 .byte   W01
 .byte   VOL , 24*HeavyArmoredCorps_mvl/mxv
 .byte   W01
 .byte   VOL , 23*HeavyArmoredCorps_mvl/mxv
 .byte   W03
 .byte   VOL , 22*HeavyArmoredCorps_mvl/mxv
 .byte   W03
 .byte   VOL , 21*HeavyArmoredCorps_mvl/mxv
 .byte   W03
 .byte   VOL , 20*HeavyArmoredCorps_mvl/mxv
 .byte   W01
 .byte   VOL , 19*HeavyArmoredCorps_mvl/mxv
 .byte   W03
 .byte   VOL , 18*HeavyArmoredCorps_mvl/mxv
 .byte   W03
 .byte   VOL , 17*HeavyArmoredCorps_mvl/mxv
 .byte   W02
 .byte   VOL , 16*HeavyArmoredCorps_mvl/mxv
 .byte   W06
 .byte   VOL , 15*HeavyArmoredCorps_mvl/mxv
 .byte   W03
 .byte   VOL , 14*HeavyArmoredCorps_mvl/mxv
 .byte   W03
 .byte   VOL , 13*HeavyArmoredCorps_mvl/mxv
 .byte   W03
 .byte   VOL , 12*HeavyArmoredCorps_mvl/mxv
 .byte   W03
 .byte   VOL , 11*HeavyArmoredCorps_mvl/mxv
 .byte   W03
 .byte   VOL , 10*HeavyArmoredCorps_mvl/mxv
 .byte   W03
 .byte   VOL , 9*HeavyArmoredCorps_mvl/mxv
 .byte   W09
 .byte   VOL , 8*HeavyArmoredCorps_mvl/mxv
 .byte   W09
 .byte   VOL , 7*HeavyArmoredCorps_mvl/mxv
 .byte   W02
 .byte   PEND 
@  #11 @009   ----------------------------------------
Label_010FA0C1:
 .byte   W06
 .byte   VOL , 6*HeavyArmoredCorps_mvl/mxv
 .byte   W09
 .byte   VOL , 5*HeavyArmoredCorps_mvl/mxv
 .byte   W04
 .byte   VOL , 4*HeavyArmoredCorps_mvl/mxv
 .byte   W04
 .byte   VOL , 3*HeavyArmoredCorps_mvl/mxv
 .byte   W01
 .byte   EOT
 .byte   Fn2
 .byte   VOL , 0*HeavyArmoredCorps_mvl/mxv
 .byte   W72
 .byte   PEND 
@  #11 @010   ----------------------------------------
 .byte   W96
@  #11 @011   ----------------------------------------
 .byte   W96
@  #11 @012   ----------------------------------------
 .byte   W96
@  #11 @013   ----------------------------------------
 .byte   W96
@  #11 @014   ----------------------------------------
 .byte   W96
@  #11 @015   ----------------------------------------
 .byte   W96
@  #11 @016   ----------------------------------------
 .byte   W96
@  #11 @017   ----------------------------------------
 .byte   W96
@  #11 @018   ----------------------------------------
 .byte   W96
@  #11 @019   ----------------------------------------
 .byte   W96
@  #11 @020   ----------------------------------------
 .byte   W96
@  #11 @021   ----------------------------------------
 .byte   W96
@  #11 @022   ----------------------------------------
 .byte   W96
@  #11 @023   ----------------------------------------
 .byte   W96
@  #11 @024   ----------------------------------------
 .byte   W96
@  #11 @025   ----------------------------------------
 .byte   W96
@  #11 @026   ----------------------------------------
 .byte   W96
@  #11 @027   ----------------------------------------
 .byte   W96
@  #11 @028   ----------------------------------------
 .byte   W96
@  #11 @029   ----------------------------------------
 .byte   PATT
  .word Label_010FA01A
@  #11 @030   ----------------------------------------
 .byte   PATT
  .word Label_010FA038
@  #11 @031   ----------------------------------------
 .byte   PATT
  .word Label_010FA052
@  #11 @032   ----------------------------------------
 .byte   PATT
  .word Label_010FA06C
@  #11 @033   ----------------------------------------
 .byte   PATT
  .word Label_010FA0C1
@  #11 @034   ----------------------------------------
 .byte   W96
@  #11 @035   ----------------------------------------
 .byte   W96
@  #11 @036   ----------------------------------------
 .byte   W96
@  #11 @037   ----------------------------------------
 .byte   W96
@  #11 @038   ----------------------------------------
 .byte   W96
@  #11 @039   ----------------------------------------
 .byte   W96
@  #11 @040   ----------------------------------------
 .byte   W96
@  #11 @041   ----------------------------------------
 .byte   W96
@  #11 @042   ----------------------------------------
 .byte   W96
@  #11 @043   ----------------------------------------
 .byte   W96
@  #11 @044   ----------------------------------------
 .byte   W96
@  #11 @045   ----------------------------------------
 .byte   W96
@  #11 @046   ----------------------------------------
 .byte   W96
@  #11 @047   ----------------------------------------
 .byte   W96
@  #11 @048   ----------------------------------------
 .byte   W96
@  #11 @049   ----------------------------------------
 .byte   W96
@  #11 @050   ----------------------------------------
 .byte   W96
@  #11 @051   ----------------------------------------
 .byte   W96
@  #11 @052   ----------------------------------------
 .byte   W96
@  #11 @053   ----------------------------------------
 .byte   PATT
  .word Label_010FA01A
@  #11 @054   ----------------------------------------
 .byte   PATT
  .word Label_010FA038
@  #11 @055   ----------------------------------------
 .byte   PATT
  .word Label_010FA052
@  #11 @056   ----------------------------------------
 .byte   PATT
  .word Label_010FA06C
@  #11 @057   ----------------------------------------
 .byte   W06
 .byte   VOL , 6*HeavyArmoredCorps_mvl/mxv
 .byte   W09
 .byte   VOL , 5*HeavyArmoredCorps_mvl/mxv
 .byte   W04
 .byte   VOL , 4*HeavyArmoredCorps_mvl/mxv
 .byte   W04
 .byte   VOL , 3*HeavyArmoredCorps_mvl/mxv
 .byte   W01
 .byte   EOT
 .byte   Fn2
 .byte   VOL , 0*HeavyArmoredCorps_mvl/mxv
 .byte   W68
 .byte   W03
 .byte   GOTO
  .word Label_010FA017
@  #11 @058   ----------------------------------------
 .byte   W01
 .byte   W48
 .byte   FINE

@**************** Track 12 (Midi-Chn.11) ****************@

HeavyArmoredCorps_012:
@  #12 @000   ----------------------------------------
 .byte   KEYSH , HeavyArmoredCorps_key+0
 .byte   W03
 .byte   VOICE , 0
 .byte   VOL , 34*HeavyArmoredCorps_mvl/mxv
 .byte   W21
 .byte   N07 ,Cn1 ,v118
 .byte   N07 ,Cn2
 .byte   W36
 .byte   Cn1 ,v113
 .byte   N07 ,Cn2
 .byte   W36
@  #12 @001   ----------------------------------------
Label_010F8497:
 .byte   N07 ,Cn1 ,v115
 .byte   N07 ,Cn2
 .byte   W24
 .byte   Cn1 ,v118
 .byte   N07 ,Cn2
 .byte   W36
 .byte   Cn1 ,v113
 .byte   N07 ,Cn2
 .byte   W36
 .byte   PEND 
@  #12 @002   ----------------------------------------
Label_010F84A8:
 .byte   N07 ,Cn1 ,v115
 .byte   N07 ,Cn2
 .byte   W24
 .byte   Cn1 ,v118
 .byte   N07 ,Cn2
 .byte   W36
 .byte   Cn1 ,v113
 .byte   N07 ,Cn2
 .byte   W36
@  #12 @003   ----------------------------------------
 .byte   PATT
  .word Label_010F8497
@  #12 @004   ----------------------------------------
 .byte   PATT
  .word Label_010F8497
@  #12 @005   ----------------------------------------
 .byte   PATT
  .word Label_010F8497
@  #12 @006   ----------------------------------------
 .byte   PATT
  .word Label_010F8497
@  #12 @007   ----------------------------------------
 .byte   PATT
  .word Label_010F8497
@  #12 @008   ----------------------------------------
 .byte   PATT
  .word Label_010F8497
@  #12 @009   ----------------------------------------
 .byte   PATT
  .word Label_010F8497
@  #12 @010   ----------------------------------------
 .byte   PATT
  .word Label_010F8497
@  #12 @011   ----------------------------------------
 .byte   PATT
  .word Label_010F8497
@  #12 @012   ----------------------------------------
 .byte   PATT
  .word Label_010F8497
@  #12 @013   ----------------------------------------
 .byte   PATT
  .word Label_010F8497
@  #12 @014   ----------------------------------------
 .byte   PATT
  .word Label_010F8497
@  #12 @015   ----------------------------------------
 .byte   PATT
  .word Label_010F8497
@  #12 @016   ----------------------------------------
 .byte   PATT
  .word Label_010F8497
@  #12 @017   ----------------------------------------
 .byte   PATT
  .word Label_010F8497
@  #12 @018   ----------------------------------------
 .byte   PATT
  .word Label_010F8497
@  #12 @019   ----------------------------------------
 .byte   PATT
  .word Label_010F8497
@  #12 @020   ----------------------------------------
 .byte   PATT
  .word Label_010F8497
@  #12 @021   ----------------------------------------
 .byte   PATT
  .word Label_010F8497
@  #12 @022   ----------------------------------------
 .byte   PATT
  .word Label_010F8497
@  #12 @023   ----------------------------------------
 .byte   PATT
  .word Label_010F8497
@  #12 @024   ----------------------------------------
 .byte   PATT
  .word Label_010F8497
@  #12 @025   ----------------------------------------
 .byte   PATT
  .word Label_010F8497
@  #12 @026   ----------------------------------------
 .byte   PATT
  .word Label_010F8497
@  #12 @027   ----------------------------------------
 .byte   PATT
  .word Label_010F8497
@  #12 @028   ----------------------------------------
 .byte   PATT
  .word Label_010F8497
@  #12 @029   ----------------------------------------
 .byte   PATT
  .word Label_010F8497
@  #12 @030   ----------------------------------------
 .byte   PATT
  .word Label_010F8497
@  #12 @031   ----------------------------------------
 .byte   PATT
  .word Label_010F8497
@  #12 @032   ----------------------------------------
 .byte   N07 ,Cn1 ,v115
 .byte   N07 ,Cn2
 .byte   W96
@  #12 @033   ----------------------------------------
 .byte   W96
@  #12 @034   ----------------------------------------
 .byte   W96
@  #12 @035   ----------------------------------------
 .byte   W96
@  #12 @036   ----------------------------------------
 .byte   W96
@  #12 @037   ----------------------------------------
 .byte   W96
@  #12 @038   ----------------------------------------
 .byte   W96
@  #12 @039   ----------------------------------------
 .byte   W96
@  #12 @040   ----------------------------------------
 .byte   W96
@  #12 @041   ----------------------------------------
 .byte   W96
@  #12 @042   ----------------------------------------
 .byte   W96
@  #12 @043   ----------------------------------------
 .byte   W96
@  #12 @044   ----------------------------------------
 .byte   W96
@  #12 @045   ----------------------------------------
 .byte   W96
@  #12 @046   ----------------------------------------
 .byte   W96
@  #12 @047   ----------------------------------------
 .byte   W96
@  #12 @048   ----------------------------------------
 .byte   W96
@  #12 @049   ----------------------------------------
 .byte   W96
@  #12 @050   ----------------------------------------
 .byte   W96
@  #12 @051   ----------------------------------------
 .byte   W96
@  #12 @052   ----------------------------------------
 .byte   W96
@  #12 @053   ----------------------------------------
 .byte   W96
@  #12 @054   ----------------------------------------
 .byte   W96
@  #12 @055   ----------------------------------------
 .byte   W96
@  #12 @056   ----------------------------------------
 .byte   W24
 .byte   Cn1 ,v118
 .byte   N07 ,Cn2
 .byte   W36
 .byte   Cn1 ,v113
 .byte   N07 ,Cn2
 .byte   W36
@  #12 @057   ----------------------------------------
 .byte   Cn1 ,v115
 .byte   N07 ,Cn2
 .byte   W24
 .byte   Cn1 ,v118
 .byte   N07 ,Cn2
 .byte   W36
 .byte   Cn1 ,v113
 .byte   N07 ,Cn2
 .byte   W32
 .byte   W03
 .byte   GOTO
  .word Label_010F84A8
@  #12 @058   ----------------------------------------
 .byte   W01
 .byte   Cn1 ,v115
 .byte   N07 ,Cn2
 .byte   W48
 .byte   FINE

@******************************************************@
	.align	2

HeavyArmoredCorps:
	.byte	12	@ NumTrks
	.byte	0	@ NumBlks
	.byte	HeavyArmoredCorps_pri	@ Priority
	.byte	HeavyArmoredCorps_rev	@ Reverb.
    
	.word	HeavyArmoredCorps_grp
    
	.word	HeavyArmoredCorps_001
	.word	HeavyArmoredCorps_002
	.word	HeavyArmoredCorps_003
	.word	HeavyArmoredCorps_004
	.word	HeavyArmoredCorps_005
	.word	HeavyArmoredCorps_006
	.word	HeavyArmoredCorps_007
	.word	HeavyArmoredCorps_008
	.word	HeavyArmoredCorps_009
	.word	HeavyArmoredCorps_010
	.word	HeavyArmoredCorps_011
	.word	HeavyArmoredCorps_012

	.end
